M48
; DRILL file {KiCad (5.1.4)-1} date 03/06/2021 13:55:01
; FORMAT={-:-/ absolute / metric / decimal}
; #@! TF.CreationDate,2021-06-03T13:55:01-04:00
; #@! TF.GenerationSoftware,Kicad,Pcbnew,(5.1.4)-1
; #@! TF.FileFunction,Plated,1,2,PTH
FMAT,2
METRIC
T1C0.400
T2C0.700
T3C0.800
T4C1.000
T5C1.250
T6C1.600
T7C1.900
T8C2.600
T9C3.600
%
G90
G05
T1
X93.25Y-36.75
X93.75Y-62.5
X93.75Y-65.0
X93.75Y-67.5
X93.75Y-70.0
X93.75Y-72.5
X93.75Y-75.0
X93.75Y-77.5
X95.75Y-69.25
X95.75Y-78.25
X98.0Y-36.0
X98.0Y-78.5
X98.5Y-69.25
X99.0Y-30.5
X99.0Y-35.0
X99.0Y-65.0
X99.5Y-80.0
X99.75Y-82.25
X100.25Y-68.25
X100.5Y-64.0
X101.5Y-55.0
X101.5Y-83.75
X101.75Y-67.5
X102.0Y-49.0
X102.0Y-52.0
X102.5Y-57.0
X102.5Y-62.0
X103.0Y-66.25
X103.5Y-46.5
X103.5Y-48.5
X103.5Y-56.0
X103.75Y-68.75
X103.75Y-73.75
X103.75Y-78.75
X104.0Y-83.75
X104.25Y-65.0
X104.5Y-55.0
X104.5Y-60.0
X105.0Y-46.5
X105.5Y-48.5
X105.5Y-54.0
X105.5Y-63.75
X106.5Y-50.0
X106.5Y-51.5
X106.5Y-53.0
X106.5Y-58.0
X106.5Y-83.75
X106.75Y-62.5
X107.0Y-46.5
X107.5Y-48.5
X107.75Y-68.75
X107.75Y-73.75
X107.75Y-78.75
X108.0Y-61.25
X108.5Y-56.0
X109.0Y-83.75
X109.25Y-60.0
X109.5Y-48.5
X109.5Y-55.0
X110.0Y-51.5
X110.25Y-30.75
X110.25Y-33.25
X110.25Y-44.5
X110.5Y-58.75
X111.5Y-83.75
X111.75Y-57.5
X111.75Y-68.75
X111.75Y-73.75
X111.75Y-78.75
X112.0Y-48.0
X112.5Y-51.5
X112.75Y-30.75
X112.75Y-33.25
X113.0Y-56.25
X114.0Y-44.5
X114.0Y-55.0
X114.0Y-83.75
X114.5Y-56.5
X115.0Y-59.0
X115.0Y-60.5
X115.0Y-62.0
X115.0Y-63.5
X115.0Y-65.0
X115.25Y-30.75
X115.25Y-50.25
X115.25Y-79.5
X115.5Y-66.5
X115.5Y-73.5
X115.5Y-77.5
X116.0Y-33.5
X116.0Y-35.5
X116.0Y-37.5
X116.0Y-39.5
X116.0Y-41.5
X116.0Y-43.5
X116.0Y-58.0
X116.25Y-55.75
X116.5Y-67.5
X116.5Y-83.75
X117.0Y-32.5
X117.0Y-34.5
X117.0Y-36.5
X117.0Y-38.5
X117.0Y-40.5
X117.0Y-42.5
X117.0Y-44.5
X117.0Y-57.0
X117.5Y-68.5
X117.75Y-30.75
X118.0Y-33.5
X118.0Y-35.5
X118.0Y-37.5
X118.0Y-39.5
X118.0Y-41.5
X118.0Y-43.5
X118.0Y-45.75
X118.0Y-54.5
X118.0Y-56.0
X118.25Y-60.25
X118.25Y-61.5
X118.25Y-62.75
X118.25Y-64.0
X118.5Y-69.5
X118.75Y-59.25
X118.75Y-65.25
X119.0Y-32.5
X119.0Y-34.5
X119.0Y-36.5
X119.0Y-38.5
X119.0Y-40.5
X119.0Y-42.5
X119.0Y-44.5
X119.0Y-47.0
X119.0Y-83.75
X119.5Y-49.0
X119.5Y-66.0
X119.5Y-70.5
X119.5Y-73.5
X119.5Y-77.5
X119.75Y-58.5
X119.75Y-79.25
X120.0Y-60.0
X120.0Y-61.5
X120.0Y-63.0
X120.0Y-64.5
X120.25Y-30.75
X120.25Y-66.75
X120.5Y-71.5
X121.0Y-67.5
X121.5Y-66.25
X121.5Y-72.5
X121.5Y-83.75
X121.75Y-68.25
X122.75Y-30.75
X122.75Y-66.25
X123.0Y-72.5
X123.25Y-68.25
X124.0Y-83.75
X124.75Y-78.0
X124.75Y-80.0
X125.25Y-30.75
X126.5Y-83.75
X127.0Y-49.0
X127.75Y-30.75
X127.75Y-77.5
X127.75Y-80.0
X128.0Y-71.25
X128.5Y-66.75
X128.75Y-72.25
X129.0Y-83.75
X129.5Y-49.0
X129.5Y-67.5
X129.5Y-73.0
X130.25Y-30.75
X130.25Y-68.25
X130.25Y-73.75
X131.0Y-67.25
X131.0Y-69.0
X131.0Y-74.5
X131.0Y-75.75
X131.5Y-83.75
X131.75Y-69.75
X132.0Y-49.0
X132.0Y-75.75
X132.25Y-67.25
X132.75Y-30.75
X132.75Y-70.0
X133.0Y-75.75
X133.5Y-67.25
X133.75Y-70.0
X133.75Y-78.25
X133.75Y-81.0
X134.0Y-75.75
X134.0Y-83.75
X134.25Y-68.5
X134.5Y-49.0
X134.75Y-70.0
X135.0Y-75.75
X135.25Y-30.75
X135.25Y-69.0
X135.5Y-70.75
X135.5Y-71.75
X135.5Y-72.75
X135.5Y-73.75
X135.5Y-74.75
X136.5Y-69.25
X136.5Y-83.75
X137.0Y-49.0
X137.0Y-70.75
X137.5Y-68.25
X137.75Y-30.75
X137.75Y-67.0
X138.0Y-73.25
X138.0Y-75.5
X138.25Y-78.25
X138.25Y-81.0
X138.75Y-33.25
X138.75Y-35.75
X138.75Y-69.25
X138.75Y-70.75
X139.0Y-67.0
X139.0Y-83.75
X139.5Y-49.0
X139.75Y-38.25
X140.0Y-66.0
X140.25Y-68.25
X140.25Y-69.75
X140.25Y-71.5
X140.5Y-76.75
X141.0Y-65.0
X141.0Y-73.25
X142.0Y-49.0
X142.0Y-65.75
X142.25Y-74.5
X142.75Y-67.0
X143.5Y-65.75
X143.5Y-75.75
X143.75Y-38.25
X144.25Y-67.0
X144.5Y-49.0
X145.0Y-65.75
X145.0Y-77.25
X145.75Y-67.0
X146.5Y-65.75
X146.5Y-78.75
X146.5Y-83.75
X147.0Y-49.0
X147.0Y-63.5
X147.25Y-64.75
X147.5Y-67.0
X148.0Y-38.25
X148.25Y-65.75
X148.25Y-79.5
X148.5Y-67.75
X148.75Y-64.0
X149.0Y-83.75
X149.25Y-33.25
X149.25Y-35.75
X149.5Y-49.0
X149.5Y-65.75
X149.5Y-68.75
X150.0Y-64.0
X150.0Y-79.5
X150.25Y-30.75
X150.25Y-67.0
X150.25Y-69.5
X151.0Y-70.25
X151.5Y-64.0
X151.5Y-79.5
X151.5Y-83.75
X151.75Y-71.0
X152.0Y-49.0
X152.0Y-66.75
X152.0Y-68.0
X152.0Y-69.25
X152.5Y-78.5
X152.5Y-81.25
X152.75Y-30.75
X153.75Y-82.5
X154.0Y-83.75
X154.5Y-49.0
X155.25Y-30.75
X155.5Y-82.5
X156.5Y-83.75
X157.0Y-49.0
X157.25Y-82.5
X157.75Y-30.75
X159.0Y-82.5
X159.0Y-83.75
X159.5Y-49.0
X159.5Y-54.75
X160.25Y-30.75
X160.25Y-33.0
X160.75Y-51.0
X160.75Y-53.0
X161.25Y-35.5
X161.25Y-37.5
X161.25Y-39.5
X161.25Y-41.5
X161.25Y-43.5
X161.25Y-45.5
X161.25Y-47.5
X161.5Y-83.75
X161.75Y-54.5
X162.25Y-36.5
X162.25Y-38.5
X162.25Y-40.5
X162.25Y-42.5
X162.25Y-44.5
X162.25Y-46.5
X162.25Y-48.5
X162.5Y-56.0
X163.25Y-37.5
X163.25Y-39.5
X163.25Y-41.5
X163.25Y-43.5
X163.25Y-45.5
X163.25Y-47.5
X164.0Y-83.75
X164.25Y-38.5
X164.25Y-40.5
X164.25Y-42.5
X164.25Y-44.5
X164.25Y-46.5
X165.5Y-37.5
X166.5Y-83.75
X167.5Y-37.5
X169.0Y-83.75
X169.5Y-37.5
X169.5Y-40.0
X169.5Y-42.5
X169.5Y-45.0
X169.5Y-47.5
X169.5Y-50.0
X169.5Y-52.5
X169.5Y-55.0
X169.5Y-57.5
X169.5Y-60.0
X169.5Y-62.5
X169.5Y-65.0
X169.5Y-67.5
X169.5Y-70.0
X169.5Y-72.5
X169.5Y-75.0
X169.5Y-77.5
X169.5Y-80.0
X169.5Y-82.25
T2
X117.0Y-49.0
X122.08Y-49.0
X103.42Y-53.0
X108.5Y-53.0
X144.5Y-64.42
X144.5Y-69.5
X103.5Y-50.5
X108.58Y-50.5
T3
X151.0Y-65.5
X154.5Y-65.5
X136.0Y-64.0
X136.0Y-67.5
X97.5Y-46.0
X101.0Y-46.0
T4
X114.92Y-81.25
X117.46Y-81.25
X120.0Y-81.25
X122.54Y-81.25
X116.0Y-53.0
X149.828Y-74.0
X150.5Y-76.0
X155.5Y-76.0
X156.172Y-78.0
X113.5Y-49.0
T5
X107.0Y-37.5
X107.0Y-42.5
X112.0Y-37.5
X112.0Y-42.5
T6
X161.42Y-62.42
X161.42Y-64.96
X161.42Y-67.5
X166.5Y-62.42
X166.5Y-64.96
X166.5Y-67.5
X161.5Y-75.5
X161.5Y-78.04
X161.5Y-80.58
X166.58Y-75.5
X166.58Y-78.04
X166.58Y-80.58
T7
X97.235Y-59.205
X97.235Y-63.005
X97.235Y-66.805
X97.235Y-74.405
X117.535Y-75.805
X121.335Y-75.805
X125.135Y-63.005
X125.135Y-66.805
X125.135Y-70.605
T8
X125.135Y-59.205
X125.135Y-74.405
T9
X96.0Y-33.0
X96.0Y-82.0
X123.5Y-44.0
X143.0Y-82.0
X164.5Y-33.0
X164.5Y-51.5
T0
M30
