G04 #@! TF.GenerationSoftware,KiCad,Pcbnew,(5.1.4)-1*
G04 #@! TF.CreationDate,2021-06-03T13:54:43-04:00*
G04 #@! TF.ProjectId,coil_power_mod,636f696c-5f70-46f7-9765-725f6d6f642e,rev?*
G04 #@! TF.SameCoordinates,Original*
G04 #@! TF.FileFunction,Paste,Top*
G04 #@! TF.FilePolarity,Positive*
%FSLAX46Y46*%
G04 Gerber Fmt 4.6, Leading zero omitted, Abs format (unit mm)*
G04 Created by KiCad (PCBNEW (5.1.4)-1) date 2021-06-03 13:54:43*
%MOMM*%
%LPD*%
G04 APERTURE LIST*
%ADD10R,1.050000X2.200000*%
%ADD11R,1.000000X1.050000*%
%ADD12C,0.100000*%
%ADD13C,1.425000*%
%ADD14C,1.525000*%
%ADD15R,1.190000X3.550000*%
%ADD16R,6.350000X5.280000*%
%ADD17R,5.330000X5.590000*%
%ADD18C,1.150000*%
G04 APERTURE END LIST*
D10*
X164000000Y-56500000D03*
X161050000Y-56500000D03*
D11*
X162525000Y-58025000D03*
D12*
G36*
X167149504Y-55076204D02*
G01*
X167173773Y-55079804D01*
X167197571Y-55085765D01*
X167220671Y-55094030D01*
X167242849Y-55104520D01*
X167263893Y-55117133D01*
X167283598Y-55131747D01*
X167301777Y-55148223D01*
X167318253Y-55166402D01*
X167332867Y-55186107D01*
X167345480Y-55207151D01*
X167355970Y-55229329D01*
X167364235Y-55252429D01*
X167370196Y-55276227D01*
X167373796Y-55300496D01*
X167375000Y-55325000D01*
X167375000Y-56250000D01*
X167373796Y-56274504D01*
X167370196Y-56298773D01*
X167364235Y-56322571D01*
X167355970Y-56345671D01*
X167345480Y-56367849D01*
X167332867Y-56388893D01*
X167318253Y-56408598D01*
X167301777Y-56426777D01*
X167283598Y-56443253D01*
X167263893Y-56457867D01*
X167242849Y-56470480D01*
X167220671Y-56480970D01*
X167197571Y-56489235D01*
X167173773Y-56495196D01*
X167149504Y-56498796D01*
X167125000Y-56500000D01*
X165875000Y-56500000D01*
X165850496Y-56498796D01*
X165826227Y-56495196D01*
X165802429Y-56489235D01*
X165779329Y-56480970D01*
X165757151Y-56470480D01*
X165736107Y-56457867D01*
X165716402Y-56443253D01*
X165698223Y-56426777D01*
X165681747Y-56408598D01*
X165667133Y-56388893D01*
X165654520Y-56367849D01*
X165644030Y-56345671D01*
X165635765Y-56322571D01*
X165629804Y-56298773D01*
X165626204Y-56274504D01*
X165625000Y-56250000D01*
X165625000Y-55325000D01*
X165626204Y-55300496D01*
X165629804Y-55276227D01*
X165635765Y-55252429D01*
X165644030Y-55229329D01*
X165654520Y-55207151D01*
X165667133Y-55186107D01*
X165681747Y-55166402D01*
X165698223Y-55148223D01*
X165716402Y-55131747D01*
X165736107Y-55117133D01*
X165757151Y-55104520D01*
X165779329Y-55094030D01*
X165802429Y-55085765D01*
X165826227Y-55079804D01*
X165850496Y-55076204D01*
X165875000Y-55075000D01*
X167125000Y-55075000D01*
X167149504Y-55076204D01*
X167149504Y-55076204D01*
G37*
D13*
X166500000Y-55787500D03*
D12*
G36*
X167149504Y-58051204D02*
G01*
X167173773Y-58054804D01*
X167197571Y-58060765D01*
X167220671Y-58069030D01*
X167242849Y-58079520D01*
X167263893Y-58092133D01*
X167283598Y-58106747D01*
X167301777Y-58123223D01*
X167318253Y-58141402D01*
X167332867Y-58161107D01*
X167345480Y-58182151D01*
X167355970Y-58204329D01*
X167364235Y-58227429D01*
X167370196Y-58251227D01*
X167373796Y-58275496D01*
X167375000Y-58300000D01*
X167375000Y-59225000D01*
X167373796Y-59249504D01*
X167370196Y-59273773D01*
X167364235Y-59297571D01*
X167355970Y-59320671D01*
X167345480Y-59342849D01*
X167332867Y-59363893D01*
X167318253Y-59383598D01*
X167301777Y-59401777D01*
X167283598Y-59418253D01*
X167263893Y-59432867D01*
X167242849Y-59445480D01*
X167220671Y-59455970D01*
X167197571Y-59464235D01*
X167173773Y-59470196D01*
X167149504Y-59473796D01*
X167125000Y-59475000D01*
X165875000Y-59475000D01*
X165850496Y-59473796D01*
X165826227Y-59470196D01*
X165802429Y-59464235D01*
X165779329Y-59455970D01*
X165757151Y-59445480D01*
X165736107Y-59432867D01*
X165716402Y-59418253D01*
X165698223Y-59401777D01*
X165681747Y-59383598D01*
X165667133Y-59363893D01*
X165654520Y-59342849D01*
X165644030Y-59320671D01*
X165635765Y-59297571D01*
X165629804Y-59273773D01*
X165626204Y-59249504D01*
X165625000Y-59225000D01*
X165625000Y-58300000D01*
X165626204Y-58275496D01*
X165629804Y-58251227D01*
X165635765Y-58227429D01*
X165644030Y-58204329D01*
X165654520Y-58182151D01*
X165667133Y-58161107D01*
X165681747Y-58141402D01*
X165698223Y-58123223D01*
X165716402Y-58106747D01*
X165736107Y-58092133D01*
X165757151Y-58079520D01*
X165779329Y-58069030D01*
X165802429Y-58060765D01*
X165826227Y-58054804D01*
X165850496Y-58051204D01*
X165875000Y-58050000D01*
X167125000Y-58050000D01*
X167149504Y-58051204D01*
X167149504Y-58051204D01*
G37*
D13*
X166500000Y-58762500D03*
D12*
G36*
X130149504Y-66526204D02*
G01*
X130173773Y-66529804D01*
X130197571Y-66535765D01*
X130220671Y-66544030D01*
X130242849Y-66554520D01*
X130263893Y-66567133D01*
X130283598Y-66581747D01*
X130301777Y-66598223D01*
X130318253Y-66616402D01*
X130332867Y-66636107D01*
X130345480Y-66657151D01*
X130355970Y-66679329D01*
X130364235Y-66702429D01*
X130370196Y-66726227D01*
X130373796Y-66750496D01*
X130375000Y-66775000D01*
X130375000Y-67700000D01*
X130373796Y-67724504D01*
X130370196Y-67748773D01*
X130364235Y-67772571D01*
X130355970Y-67795671D01*
X130345480Y-67817849D01*
X130332867Y-67838893D01*
X130318253Y-67858598D01*
X130301777Y-67876777D01*
X130283598Y-67893253D01*
X130263893Y-67907867D01*
X130242849Y-67920480D01*
X130220671Y-67930970D01*
X130197571Y-67939235D01*
X130173773Y-67945196D01*
X130149504Y-67948796D01*
X130125000Y-67950000D01*
X128875000Y-67950000D01*
X128850496Y-67948796D01*
X128826227Y-67945196D01*
X128802429Y-67939235D01*
X128779329Y-67930970D01*
X128757151Y-67920480D01*
X128736107Y-67907867D01*
X128716402Y-67893253D01*
X128698223Y-67876777D01*
X128681747Y-67858598D01*
X128667133Y-67838893D01*
X128654520Y-67817849D01*
X128644030Y-67795671D01*
X128635765Y-67772571D01*
X128629804Y-67748773D01*
X128626204Y-67724504D01*
X128625000Y-67700000D01*
X128625000Y-66775000D01*
X128626204Y-66750496D01*
X128629804Y-66726227D01*
X128635765Y-66702429D01*
X128644030Y-66679329D01*
X128654520Y-66657151D01*
X128667133Y-66636107D01*
X128681747Y-66616402D01*
X128698223Y-66598223D01*
X128716402Y-66581747D01*
X128736107Y-66567133D01*
X128757151Y-66554520D01*
X128779329Y-66544030D01*
X128802429Y-66535765D01*
X128826227Y-66529804D01*
X128850496Y-66526204D01*
X128875000Y-66525000D01*
X130125000Y-66525000D01*
X130149504Y-66526204D01*
X130149504Y-66526204D01*
G37*
D13*
X129500000Y-67237500D03*
D12*
G36*
X130149504Y-63551204D02*
G01*
X130173773Y-63554804D01*
X130197571Y-63560765D01*
X130220671Y-63569030D01*
X130242849Y-63579520D01*
X130263893Y-63592133D01*
X130283598Y-63606747D01*
X130301777Y-63623223D01*
X130318253Y-63641402D01*
X130332867Y-63661107D01*
X130345480Y-63682151D01*
X130355970Y-63704329D01*
X130364235Y-63727429D01*
X130370196Y-63751227D01*
X130373796Y-63775496D01*
X130375000Y-63800000D01*
X130375000Y-64725000D01*
X130373796Y-64749504D01*
X130370196Y-64773773D01*
X130364235Y-64797571D01*
X130355970Y-64820671D01*
X130345480Y-64842849D01*
X130332867Y-64863893D01*
X130318253Y-64883598D01*
X130301777Y-64901777D01*
X130283598Y-64918253D01*
X130263893Y-64932867D01*
X130242849Y-64945480D01*
X130220671Y-64955970D01*
X130197571Y-64964235D01*
X130173773Y-64970196D01*
X130149504Y-64973796D01*
X130125000Y-64975000D01*
X128875000Y-64975000D01*
X128850496Y-64973796D01*
X128826227Y-64970196D01*
X128802429Y-64964235D01*
X128779329Y-64955970D01*
X128757151Y-64945480D01*
X128736107Y-64932867D01*
X128716402Y-64918253D01*
X128698223Y-64901777D01*
X128681747Y-64883598D01*
X128667133Y-64863893D01*
X128654520Y-64842849D01*
X128644030Y-64820671D01*
X128635765Y-64797571D01*
X128629804Y-64773773D01*
X128626204Y-64749504D01*
X128625000Y-64725000D01*
X128625000Y-63800000D01*
X128626204Y-63775496D01*
X128629804Y-63751227D01*
X128635765Y-63727429D01*
X128644030Y-63704329D01*
X128654520Y-63682151D01*
X128667133Y-63661107D01*
X128681747Y-63641402D01*
X128698223Y-63623223D01*
X128716402Y-63606747D01*
X128736107Y-63592133D01*
X128757151Y-63579520D01*
X128779329Y-63569030D01*
X128802429Y-63560765D01*
X128826227Y-63554804D01*
X128850496Y-63551204D01*
X128875000Y-63550000D01*
X130125000Y-63550000D01*
X130149504Y-63551204D01*
X130149504Y-63551204D01*
G37*
D13*
X129500000Y-64262500D03*
D12*
G36*
X144949505Y-63251204D02*
G01*
X144973773Y-63254804D01*
X144997572Y-63260765D01*
X145020671Y-63269030D01*
X145042850Y-63279520D01*
X145063893Y-63292132D01*
X145083599Y-63306747D01*
X145101777Y-63323223D01*
X145118253Y-63341401D01*
X145132868Y-63361107D01*
X145145480Y-63382150D01*
X145155970Y-63404329D01*
X145164235Y-63427428D01*
X145170196Y-63451227D01*
X145173796Y-63475495D01*
X145175000Y-63499999D01*
X145175000Y-64525001D01*
X145173796Y-64549505D01*
X145170196Y-64573773D01*
X145164235Y-64597572D01*
X145155970Y-64620671D01*
X145145480Y-64642850D01*
X145132868Y-64663893D01*
X145118253Y-64683599D01*
X145101777Y-64701777D01*
X145083599Y-64718253D01*
X145063893Y-64732868D01*
X145042850Y-64745480D01*
X145020671Y-64755970D01*
X144997572Y-64764235D01*
X144973773Y-64770196D01*
X144949505Y-64773796D01*
X144925001Y-64775000D01*
X142074999Y-64775000D01*
X142050495Y-64773796D01*
X142026227Y-64770196D01*
X142002428Y-64764235D01*
X141979329Y-64755970D01*
X141957150Y-64745480D01*
X141936107Y-64732868D01*
X141916401Y-64718253D01*
X141898223Y-64701777D01*
X141881747Y-64683599D01*
X141867132Y-64663893D01*
X141854520Y-64642850D01*
X141844030Y-64620671D01*
X141835765Y-64597572D01*
X141829804Y-64573773D01*
X141826204Y-64549505D01*
X141825000Y-64525001D01*
X141825000Y-63499999D01*
X141826204Y-63475495D01*
X141829804Y-63451227D01*
X141835765Y-63427428D01*
X141844030Y-63404329D01*
X141854520Y-63382150D01*
X141867132Y-63361107D01*
X141881747Y-63341401D01*
X141898223Y-63323223D01*
X141916401Y-63306747D01*
X141936107Y-63292132D01*
X141957150Y-63279520D01*
X141979329Y-63269030D01*
X142002428Y-63260765D01*
X142026227Y-63254804D01*
X142050495Y-63251204D01*
X142074999Y-63250000D01*
X144925001Y-63250000D01*
X144949505Y-63251204D01*
X144949505Y-63251204D01*
G37*
D14*
X143500000Y-64012500D03*
D12*
G36*
X144949505Y-69226204D02*
G01*
X144973773Y-69229804D01*
X144997572Y-69235765D01*
X145020671Y-69244030D01*
X145042850Y-69254520D01*
X145063893Y-69267132D01*
X145083599Y-69281747D01*
X145101777Y-69298223D01*
X145118253Y-69316401D01*
X145132868Y-69336107D01*
X145145480Y-69357150D01*
X145155970Y-69379329D01*
X145164235Y-69402428D01*
X145170196Y-69426227D01*
X145173796Y-69450495D01*
X145175000Y-69474999D01*
X145175000Y-70500001D01*
X145173796Y-70524505D01*
X145170196Y-70548773D01*
X145164235Y-70572572D01*
X145155970Y-70595671D01*
X145145480Y-70617850D01*
X145132868Y-70638893D01*
X145118253Y-70658599D01*
X145101777Y-70676777D01*
X145083599Y-70693253D01*
X145063893Y-70707868D01*
X145042850Y-70720480D01*
X145020671Y-70730970D01*
X144997572Y-70739235D01*
X144973773Y-70745196D01*
X144949505Y-70748796D01*
X144925001Y-70750000D01*
X142074999Y-70750000D01*
X142050495Y-70748796D01*
X142026227Y-70745196D01*
X142002428Y-70739235D01*
X141979329Y-70730970D01*
X141957150Y-70720480D01*
X141936107Y-70707868D01*
X141916401Y-70693253D01*
X141898223Y-70676777D01*
X141881747Y-70658599D01*
X141867132Y-70638893D01*
X141854520Y-70617850D01*
X141844030Y-70595671D01*
X141835765Y-70572572D01*
X141829804Y-70548773D01*
X141826204Y-70524505D01*
X141825000Y-70500001D01*
X141825000Y-69474999D01*
X141826204Y-69450495D01*
X141829804Y-69426227D01*
X141835765Y-69402428D01*
X141844030Y-69379329D01*
X141854520Y-69357150D01*
X141867132Y-69336107D01*
X141881747Y-69316401D01*
X141898223Y-69298223D01*
X141916401Y-69281747D01*
X141936107Y-69267132D01*
X141957150Y-69254520D01*
X141979329Y-69244030D01*
X142002428Y-69235765D01*
X142026227Y-69229804D01*
X142050495Y-69226204D01*
X142074999Y-69225000D01*
X144925001Y-69225000D01*
X144949505Y-69226204D01*
X144949505Y-69226204D01*
G37*
D14*
X143500000Y-69987500D03*
D15*
X136040000Y-79075000D03*
X133500000Y-72925000D03*
X130960000Y-79075000D03*
D16*
X144000000Y-34080000D03*
D17*
X149075000Y-56155000D03*
X138925000Y-56155000D03*
D12*
G36*
X122974504Y-51126204D02*
G01*
X122998773Y-51129804D01*
X123022571Y-51135765D01*
X123045671Y-51144030D01*
X123067849Y-51154520D01*
X123088893Y-51167133D01*
X123108598Y-51181747D01*
X123126777Y-51198223D01*
X123143253Y-51216402D01*
X123157867Y-51236107D01*
X123170480Y-51257151D01*
X123180970Y-51279329D01*
X123189235Y-51302429D01*
X123195196Y-51326227D01*
X123198796Y-51350496D01*
X123200000Y-51375000D01*
X123200000Y-52625000D01*
X123198796Y-52649504D01*
X123195196Y-52673773D01*
X123189235Y-52697571D01*
X123180970Y-52720671D01*
X123170480Y-52742849D01*
X123157867Y-52763893D01*
X123143253Y-52783598D01*
X123126777Y-52801777D01*
X123108598Y-52818253D01*
X123088893Y-52832867D01*
X123067849Y-52845480D01*
X123045671Y-52855970D01*
X123022571Y-52864235D01*
X122998773Y-52870196D01*
X122974504Y-52873796D01*
X122950000Y-52875000D01*
X122025000Y-52875000D01*
X122000496Y-52873796D01*
X121976227Y-52870196D01*
X121952429Y-52864235D01*
X121929329Y-52855970D01*
X121907151Y-52845480D01*
X121886107Y-52832867D01*
X121866402Y-52818253D01*
X121848223Y-52801777D01*
X121831747Y-52783598D01*
X121817133Y-52763893D01*
X121804520Y-52742849D01*
X121794030Y-52720671D01*
X121785765Y-52697571D01*
X121779804Y-52673773D01*
X121776204Y-52649504D01*
X121775000Y-52625000D01*
X121775000Y-51375000D01*
X121776204Y-51350496D01*
X121779804Y-51326227D01*
X121785765Y-51302429D01*
X121794030Y-51279329D01*
X121804520Y-51257151D01*
X121817133Y-51236107D01*
X121831747Y-51216402D01*
X121848223Y-51198223D01*
X121866402Y-51181747D01*
X121886107Y-51167133D01*
X121907151Y-51154520D01*
X121929329Y-51144030D01*
X121952429Y-51135765D01*
X121976227Y-51129804D01*
X122000496Y-51126204D01*
X122025000Y-51125000D01*
X122950000Y-51125000D01*
X122974504Y-51126204D01*
X122974504Y-51126204D01*
G37*
D13*
X122487500Y-52000000D03*
D12*
G36*
X119999504Y-51126204D02*
G01*
X120023773Y-51129804D01*
X120047571Y-51135765D01*
X120070671Y-51144030D01*
X120092849Y-51154520D01*
X120113893Y-51167133D01*
X120133598Y-51181747D01*
X120151777Y-51198223D01*
X120168253Y-51216402D01*
X120182867Y-51236107D01*
X120195480Y-51257151D01*
X120205970Y-51279329D01*
X120214235Y-51302429D01*
X120220196Y-51326227D01*
X120223796Y-51350496D01*
X120225000Y-51375000D01*
X120225000Y-52625000D01*
X120223796Y-52649504D01*
X120220196Y-52673773D01*
X120214235Y-52697571D01*
X120205970Y-52720671D01*
X120195480Y-52742849D01*
X120182867Y-52763893D01*
X120168253Y-52783598D01*
X120151777Y-52801777D01*
X120133598Y-52818253D01*
X120113893Y-52832867D01*
X120092849Y-52845480D01*
X120070671Y-52855970D01*
X120047571Y-52864235D01*
X120023773Y-52870196D01*
X119999504Y-52873796D01*
X119975000Y-52875000D01*
X119050000Y-52875000D01*
X119025496Y-52873796D01*
X119001227Y-52870196D01*
X118977429Y-52864235D01*
X118954329Y-52855970D01*
X118932151Y-52845480D01*
X118911107Y-52832867D01*
X118891402Y-52818253D01*
X118873223Y-52801777D01*
X118856747Y-52783598D01*
X118842133Y-52763893D01*
X118829520Y-52742849D01*
X118819030Y-52720671D01*
X118810765Y-52697571D01*
X118804804Y-52673773D01*
X118801204Y-52649504D01*
X118800000Y-52625000D01*
X118800000Y-51375000D01*
X118801204Y-51350496D01*
X118804804Y-51326227D01*
X118810765Y-51302429D01*
X118819030Y-51279329D01*
X118829520Y-51257151D01*
X118842133Y-51236107D01*
X118856747Y-51216402D01*
X118873223Y-51198223D01*
X118891402Y-51181747D01*
X118911107Y-51167133D01*
X118932151Y-51154520D01*
X118954329Y-51144030D01*
X118977429Y-51135765D01*
X119001227Y-51129804D01*
X119025496Y-51126204D01*
X119050000Y-51125000D01*
X119975000Y-51125000D01*
X119999504Y-51126204D01*
X119999504Y-51126204D01*
G37*
D13*
X119512500Y-52000000D03*
D12*
G36*
X163849505Y-70801204D02*
G01*
X163873773Y-70804804D01*
X163897572Y-70810765D01*
X163920671Y-70819030D01*
X163942850Y-70829520D01*
X163963893Y-70842132D01*
X163983599Y-70856747D01*
X164001777Y-70873223D01*
X164018253Y-70891401D01*
X164032868Y-70911107D01*
X164045480Y-70932150D01*
X164055970Y-70954329D01*
X164064235Y-70977428D01*
X164070196Y-71001227D01*
X164073796Y-71025495D01*
X164075000Y-71049999D01*
X164075000Y-71950001D01*
X164073796Y-71974505D01*
X164070196Y-71998773D01*
X164064235Y-72022572D01*
X164055970Y-72045671D01*
X164045480Y-72067850D01*
X164032868Y-72088893D01*
X164018253Y-72108599D01*
X164001777Y-72126777D01*
X163983599Y-72143253D01*
X163963893Y-72157868D01*
X163942850Y-72170480D01*
X163920671Y-72180970D01*
X163897572Y-72189235D01*
X163873773Y-72195196D01*
X163849505Y-72198796D01*
X163825001Y-72200000D01*
X163174999Y-72200000D01*
X163150495Y-72198796D01*
X163126227Y-72195196D01*
X163102428Y-72189235D01*
X163079329Y-72180970D01*
X163057150Y-72170480D01*
X163036107Y-72157868D01*
X163016401Y-72143253D01*
X162998223Y-72126777D01*
X162981747Y-72108599D01*
X162967132Y-72088893D01*
X162954520Y-72067850D01*
X162944030Y-72045671D01*
X162935765Y-72022572D01*
X162929804Y-71998773D01*
X162926204Y-71974505D01*
X162925000Y-71950001D01*
X162925000Y-71049999D01*
X162926204Y-71025495D01*
X162929804Y-71001227D01*
X162935765Y-70977428D01*
X162944030Y-70954329D01*
X162954520Y-70932150D01*
X162967132Y-70911107D01*
X162981747Y-70891401D01*
X162998223Y-70873223D01*
X163016401Y-70856747D01*
X163036107Y-70842132D01*
X163057150Y-70829520D01*
X163079329Y-70819030D01*
X163102428Y-70810765D01*
X163126227Y-70804804D01*
X163150495Y-70801204D01*
X163174999Y-70800000D01*
X163825001Y-70800000D01*
X163849505Y-70801204D01*
X163849505Y-70801204D01*
G37*
D18*
X163500000Y-71500000D03*
D12*
G36*
X161799505Y-70801204D02*
G01*
X161823773Y-70804804D01*
X161847572Y-70810765D01*
X161870671Y-70819030D01*
X161892850Y-70829520D01*
X161913893Y-70842132D01*
X161933599Y-70856747D01*
X161951777Y-70873223D01*
X161968253Y-70891401D01*
X161982868Y-70911107D01*
X161995480Y-70932150D01*
X162005970Y-70954329D01*
X162014235Y-70977428D01*
X162020196Y-71001227D01*
X162023796Y-71025495D01*
X162025000Y-71049999D01*
X162025000Y-71950001D01*
X162023796Y-71974505D01*
X162020196Y-71998773D01*
X162014235Y-72022572D01*
X162005970Y-72045671D01*
X161995480Y-72067850D01*
X161982868Y-72088893D01*
X161968253Y-72108599D01*
X161951777Y-72126777D01*
X161933599Y-72143253D01*
X161913893Y-72157868D01*
X161892850Y-72170480D01*
X161870671Y-72180970D01*
X161847572Y-72189235D01*
X161823773Y-72195196D01*
X161799505Y-72198796D01*
X161775001Y-72200000D01*
X161124999Y-72200000D01*
X161100495Y-72198796D01*
X161076227Y-72195196D01*
X161052428Y-72189235D01*
X161029329Y-72180970D01*
X161007150Y-72170480D01*
X160986107Y-72157868D01*
X160966401Y-72143253D01*
X160948223Y-72126777D01*
X160931747Y-72108599D01*
X160917132Y-72088893D01*
X160904520Y-72067850D01*
X160894030Y-72045671D01*
X160885765Y-72022572D01*
X160879804Y-71998773D01*
X160876204Y-71974505D01*
X160875000Y-71950001D01*
X160875000Y-71049999D01*
X160876204Y-71025495D01*
X160879804Y-71001227D01*
X160885765Y-70977428D01*
X160894030Y-70954329D01*
X160904520Y-70932150D01*
X160917132Y-70911107D01*
X160931747Y-70891401D01*
X160948223Y-70873223D01*
X160966401Y-70856747D01*
X160986107Y-70842132D01*
X161007150Y-70829520D01*
X161029329Y-70819030D01*
X161052428Y-70810765D01*
X161076227Y-70804804D01*
X161100495Y-70801204D01*
X161124999Y-70800000D01*
X161775001Y-70800000D01*
X161799505Y-70801204D01*
X161799505Y-70801204D01*
G37*
D18*
X161450000Y-71500000D03*
D12*
G36*
X111649504Y-49301204D02*
G01*
X111673773Y-49304804D01*
X111697571Y-49310765D01*
X111720671Y-49319030D01*
X111742849Y-49329520D01*
X111763893Y-49342133D01*
X111783598Y-49356747D01*
X111801777Y-49373223D01*
X111818253Y-49391402D01*
X111832867Y-49411107D01*
X111845480Y-49432151D01*
X111855970Y-49454329D01*
X111864235Y-49477429D01*
X111870196Y-49501227D01*
X111873796Y-49525496D01*
X111875000Y-49550000D01*
X111875000Y-50475000D01*
X111873796Y-50499504D01*
X111870196Y-50523773D01*
X111864235Y-50547571D01*
X111855970Y-50570671D01*
X111845480Y-50592849D01*
X111832867Y-50613893D01*
X111818253Y-50633598D01*
X111801777Y-50651777D01*
X111783598Y-50668253D01*
X111763893Y-50682867D01*
X111742849Y-50695480D01*
X111720671Y-50705970D01*
X111697571Y-50714235D01*
X111673773Y-50720196D01*
X111649504Y-50723796D01*
X111625000Y-50725000D01*
X110375000Y-50725000D01*
X110350496Y-50723796D01*
X110326227Y-50720196D01*
X110302429Y-50714235D01*
X110279329Y-50705970D01*
X110257151Y-50695480D01*
X110236107Y-50682867D01*
X110216402Y-50668253D01*
X110198223Y-50651777D01*
X110181747Y-50633598D01*
X110167133Y-50613893D01*
X110154520Y-50592849D01*
X110144030Y-50570671D01*
X110135765Y-50547571D01*
X110129804Y-50523773D01*
X110126204Y-50499504D01*
X110125000Y-50475000D01*
X110125000Y-49550000D01*
X110126204Y-49525496D01*
X110129804Y-49501227D01*
X110135765Y-49477429D01*
X110144030Y-49454329D01*
X110154520Y-49432151D01*
X110167133Y-49411107D01*
X110181747Y-49391402D01*
X110198223Y-49373223D01*
X110216402Y-49356747D01*
X110236107Y-49342133D01*
X110257151Y-49329520D01*
X110279329Y-49319030D01*
X110302429Y-49310765D01*
X110326227Y-49304804D01*
X110350496Y-49301204D01*
X110375000Y-49300000D01*
X111625000Y-49300000D01*
X111649504Y-49301204D01*
X111649504Y-49301204D01*
G37*
D13*
X111000000Y-50012500D03*
D12*
G36*
X111649504Y-52276204D02*
G01*
X111673773Y-52279804D01*
X111697571Y-52285765D01*
X111720671Y-52294030D01*
X111742849Y-52304520D01*
X111763893Y-52317133D01*
X111783598Y-52331747D01*
X111801777Y-52348223D01*
X111818253Y-52366402D01*
X111832867Y-52386107D01*
X111845480Y-52407151D01*
X111855970Y-52429329D01*
X111864235Y-52452429D01*
X111870196Y-52476227D01*
X111873796Y-52500496D01*
X111875000Y-52525000D01*
X111875000Y-53450000D01*
X111873796Y-53474504D01*
X111870196Y-53498773D01*
X111864235Y-53522571D01*
X111855970Y-53545671D01*
X111845480Y-53567849D01*
X111832867Y-53588893D01*
X111818253Y-53608598D01*
X111801777Y-53626777D01*
X111783598Y-53643253D01*
X111763893Y-53657867D01*
X111742849Y-53670480D01*
X111720671Y-53680970D01*
X111697571Y-53689235D01*
X111673773Y-53695196D01*
X111649504Y-53698796D01*
X111625000Y-53700000D01*
X110375000Y-53700000D01*
X110350496Y-53698796D01*
X110326227Y-53695196D01*
X110302429Y-53689235D01*
X110279329Y-53680970D01*
X110257151Y-53670480D01*
X110236107Y-53657867D01*
X110216402Y-53643253D01*
X110198223Y-53626777D01*
X110181747Y-53608598D01*
X110167133Y-53588893D01*
X110154520Y-53567849D01*
X110144030Y-53545671D01*
X110135765Y-53522571D01*
X110129804Y-53498773D01*
X110126204Y-53474504D01*
X110125000Y-53450000D01*
X110125000Y-52525000D01*
X110126204Y-52500496D01*
X110129804Y-52476227D01*
X110135765Y-52452429D01*
X110144030Y-52429329D01*
X110154520Y-52407151D01*
X110167133Y-52386107D01*
X110181747Y-52366402D01*
X110198223Y-52348223D01*
X110216402Y-52331747D01*
X110236107Y-52317133D01*
X110257151Y-52304520D01*
X110279329Y-52294030D01*
X110302429Y-52285765D01*
X110326227Y-52279804D01*
X110350496Y-52276204D01*
X110375000Y-52275000D01*
X111625000Y-52275000D01*
X111649504Y-52276204D01*
X111649504Y-52276204D01*
G37*
D13*
X111000000Y-52987500D03*
D12*
G36*
X100962004Y-52126204D02*
G01*
X100986273Y-52129804D01*
X101010071Y-52135765D01*
X101033171Y-52144030D01*
X101055349Y-52154520D01*
X101076393Y-52167133D01*
X101096098Y-52181747D01*
X101114277Y-52198223D01*
X101130753Y-52216402D01*
X101145367Y-52236107D01*
X101157980Y-52257151D01*
X101168470Y-52279329D01*
X101176735Y-52302429D01*
X101182696Y-52326227D01*
X101186296Y-52350496D01*
X101187500Y-52375000D01*
X101187500Y-53625000D01*
X101186296Y-53649504D01*
X101182696Y-53673773D01*
X101176735Y-53697571D01*
X101168470Y-53720671D01*
X101157980Y-53742849D01*
X101145367Y-53763893D01*
X101130753Y-53783598D01*
X101114277Y-53801777D01*
X101096098Y-53818253D01*
X101076393Y-53832867D01*
X101055349Y-53845480D01*
X101033171Y-53855970D01*
X101010071Y-53864235D01*
X100986273Y-53870196D01*
X100962004Y-53873796D01*
X100937500Y-53875000D01*
X100012500Y-53875000D01*
X99987996Y-53873796D01*
X99963727Y-53870196D01*
X99939929Y-53864235D01*
X99916829Y-53855970D01*
X99894651Y-53845480D01*
X99873607Y-53832867D01*
X99853902Y-53818253D01*
X99835723Y-53801777D01*
X99819247Y-53783598D01*
X99804633Y-53763893D01*
X99792020Y-53742849D01*
X99781530Y-53720671D01*
X99773265Y-53697571D01*
X99767304Y-53673773D01*
X99763704Y-53649504D01*
X99762500Y-53625000D01*
X99762500Y-52375000D01*
X99763704Y-52350496D01*
X99767304Y-52326227D01*
X99773265Y-52302429D01*
X99781530Y-52279329D01*
X99792020Y-52257151D01*
X99804633Y-52236107D01*
X99819247Y-52216402D01*
X99835723Y-52198223D01*
X99853902Y-52181747D01*
X99873607Y-52167133D01*
X99894651Y-52154520D01*
X99916829Y-52144030D01*
X99939929Y-52135765D01*
X99963727Y-52129804D01*
X99987996Y-52126204D01*
X100012500Y-52125000D01*
X100937500Y-52125000D01*
X100962004Y-52126204D01*
X100962004Y-52126204D01*
G37*
D13*
X100475000Y-53000000D03*
D12*
G36*
X97987004Y-52126204D02*
G01*
X98011273Y-52129804D01*
X98035071Y-52135765D01*
X98058171Y-52144030D01*
X98080349Y-52154520D01*
X98101393Y-52167133D01*
X98121098Y-52181747D01*
X98139277Y-52198223D01*
X98155753Y-52216402D01*
X98170367Y-52236107D01*
X98182980Y-52257151D01*
X98193470Y-52279329D01*
X98201735Y-52302429D01*
X98207696Y-52326227D01*
X98211296Y-52350496D01*
X98212500Y-52375000D01*
X98212500Y-53625000D01*
X98211296Y-53649504D01*
X98207696Y-53673773D01*
X98201735Y-53697571D01*
X98193470Y-53720671D01*
X98182980Y-53742849D01*
X98170367Y-53763893D01*
X98155753Y-53783598D01*
X98139277Y-53801777D01*
X98121098Y-53818253D01*
X98101393Y-53832867D01*
X98080349Y-53845480D01*
X98058171Y-53855970D01*
X98035071Y-53864235D01*
X98011273Y-53870196D01*
X97987004Y-53873796D01*
X97962500Y-53875000D01*
X97037500Y-53875000D01*
X97012996Y-53873796D01*
X96988727Y-53870196D01*
X96964929Y-53864235D01*
X96941829Y-53855970D01*
X96919651Y-53845480D01*
X96898607Y-53832867D01*
X96878902Y-53818253D01*
X96860723Y-53801777D01*
X96844247Y-53783598D01*
X96829633Y-53763893D01*
X96817020Y-53742849D01*
X96806530Y-53720671D01*
X96798265Y-53697571D01*
X96792304Y-53673773D01*
X96788704Y-53649504D01*
X96787500Y-53625000D01*
X96787500Y-52375000D01*
X96788704Y-52350496D01*
X96792304Y-52326227D01*
X96798265Y-52302429D01*
X96806530Y-52279329D01*
X96817020Y-52257151D01*
X96829633Y-52236107D01*
X96844247Y-52216402D01*
X96860723Y-52198223D01*
X96878902Y-52181747D01*
X96898607Y-52167133D01*
X96919651Y-52154520D01*
X96941829Y-52144030D01*
X96964929Y-52135765D01*
X96988727Y-52129804D01*
X97012996Y-52126204D01*
X97037500Y-52125000D01*
X97962500Y-52125000D01*
X97987004Y-52126204D01*
X97987004Y-52126204D01*
G37*
D13*
X97500000Y-53000000D03*
M02*
