G04 #@! TF.GenerationSoftware,KiCad,Pcbnew,(5.1.4)-1*
G04 #@! TF.CreationDate,2021-06-03T13:54:43-04:00*
G04 #@! TF.ProjectId,coil_power_mod,636f696c-5f70-46f7-9765-725f6d6f642e,rev?*
G04 #@! TF.SameCoordinates,Original*
G04 #@! TF.FileFunction,Copper,L2,Bot*
G04 #@! TF.FilePolarity,Positive*
%FSLAX46Y46*%
G04 Gerber Fmt 4.6, Leading zero omitted, Abs format (unit mm)*
G04 Created by KiCad (PCBNEW (5.1.4)-1) date 2021-06-03 13:54:43*
%MOMM*%
%LPD*%
G04 APERTURE LIST*
%ADD10C,2.300000*%
%ADD11C,2.000000*%
%ADD12O,1.400000X1.400000*%
%ADD13C,1.400000*%
%ADD14R,2.000000X2.000000*%
%ADD15C,1.600000*%
%ADD16R,1.600000X1.600000*%
%ADD17C,2.800000*%
%ADD18C,3.500000*%
%ADD19O,1.700000X1.700000*%
%ADD20R,1.700000X1.700000*%
%ADD21C,1.875000*%
%ADD22R,1.875000X1.875000*%
%ADD23C,4.000000*%
%ADD24C,0.800000*%
%ADD25C,0.254000*%
G04 APERTURE END LIST*
D10*
X166580000Y-75500000D03*
X166580000Y-78040000D03*
X166580000Y-80580000D03*
X161500000Y-80580000D03*
X161500000Y-78040000D03*
X161500000Y-75500000D03*
X166500000Y-62420000D03*
X166500000Y-64960000D03*
X166500000Y-67500000D03*
X161420000Y-67500000D03*
X161420000Y-64960000D03*
X161420000Y-62420000D03*
D11*
X116000000Y-53000000D03*
X113500000Y-49000000D03*
D12*
X103420000Y-53000000D03*
D13*
X108500000Y-53000000D03*
D12*
X108580000Y-50500000D03*
D13*
X103500000Y-50500000D03*
D12*
X122080000Y-49000000D03*
D13*
X117000000Y-49000000D03*
D12*
X144500000Y-64420000D03*
D13*
X144500000Y-69500000D03*
D11*
X149827856Y-74000000D03*
D14*
X156172144Y-78000000D03*
D11*
X150500000Y-76000000D03*
D14*
X155500000Y-76000000D03*
D15*
X101000000Y-46000000D03*
D16*
X97500000Y-46000000D03*
D17*
X97235000Y-63005000D03*
X121335000Y-75805000D03*
X117535000Y-75805000D03*
D18*
X125135000Y-59205000D03*
D17*
X125135000Y-63005000D03*
X125135000Y-66805000D03*
X125135000Y-70605000D03*
D18*
X125135000Y-74405000D03*
D17*
X97235000Y-74405000D03*
X97235000Y-66805000D03*
X97235000Y-59205000D03*
D19*
X114920000Y-81250000D03*
X117460000Y-81250000D03*
X120000000Y-81250000D03*
D20*
X122540000Y-81250000D03*
D21*
X112000000Y-37500000D03*
X112000000Y-42500000D03*
X107000000Y-37500000D03*
D22*
X107000000Y-42500000D03*
D15*
X151000000Y-65500000D03*
D16*
X154500000Y-65500000D03*
D15*
X136000000Y-67500000D03*
D16*
X136000000Y-64000000D03*
D23*
X143000000Y-82000000D03*
X164500000Y-51500000D03*
X164500000Y-33000000D03*
X96000000Y-33000000D03*
X123500000Y-44000000D03*
X96000000Y-82000000D03*
D24*
X119500000Y-49000000D03*
X108500000Y-56000000D03*
X100500000Y-64000000D03*
X102500000Y-62000000D03*
X104500000Y-60000000D03*
X106500000Y-58000000D03*
X109500000Y-55000000D03*
X99000000Y-65000000D03*
X118000000Y-54500000D03*
X118000000Y-56000000D03*
X117000000Y-57000000D03*
X116000000Y-58000000D03*
X115000000Y-59000000D03*
X115000000Y-60500000D03*
X115000000Y-62000000D03*
X115000000Y-63500000D03*
X115000000Y-65000000D03*
X115500000Y-66500000D03*
X116500000Y-67500000D03*
X117500000Y-68500000D03*
X118500000Y-69500000D03*
X119500000Y-70500000D03*
X120500000Y-71500000D03*
X121500000Y-72500000D03*
X123000000Y-72500000D03*
X119500000Y-73500000D03*
X115500000Y-73500000D03*
X115500000Y-77500000D03*
X119500000Y-77500000D03*
X124750000Y-78000000D03*
X106500000Y-53000000D03*
X105500000Y-54000000D03*
X104500000Y-55000000D03*
X103500000Y-56000000D03*
X102500000Y-57000000D03*
X101500000Y-55000000D03*
X102000000Y-52000000D03*
X106500000Y-51500000D03*
X106500000Y-50000000D03*
X107500000Y-48500000D03*
X109500000Y-48500000D03*
X112500000Y-51500000D03*
X110000000Y-51500000D03*
X112000000Y-48000000D03*
X102000000Y-49000000D03*
X103500000Y-48500000D03*
X105500000Y-48500000D03*
X103500000Y-46500000D03*
X105000000Y-46500000D03*
X107000000Y-46500000D03*
X98000000Y-36000000D03*
X99000000Y-35000000D03*
X128500000Y-66750000D03*
X129500000Y-67500000D03*
X130250000Y-68250000D03*
X131000000Y-69000000D03*
X131750000Y-69750000D03*
X132750000Y-70000000D03*
X133750000Y-70000000D03*
X134750000Y-70000000D03*
X135500000Y-70750000D03*
X135500000Y-71750000D03*
X135500000Y-72750000D03*
X135500000Y-73750000D03*
X135500000Y-74750000D03*
X135000000Y-75750000D03*
X134000000Y-75750000D03*
X133000000Y-75750000D03*
X132000000Y-75750000D03*
X131000000Y-75750000D03*
X131000000Y-74500000D03*
X130250000Y-73750000D03*
X129500000Y-73000000D03*
X128750000Y-72250000D03*
X128000000Y-71250000D03*
X119750000Y-58500000D03*
X118750000Y-59250000D03*
X118250000Y-60250000D03*
X118250000Y-61500000D03*
X118250000Y-62750000D03*
X118250000Y-64000000D03*
X118750000Y-65250000D03*
X119500000Y-66000000D03*
X120250000Y-66750000D03*
X121000000Y-67500000D03*
X121750000Y-68250000D03*
X120000000Y-60000000D03*
X120000000Y-61500000D03*
X120000000Y-63000000D03*
X120000000Y-64500000D03*
X121500000Y-66250000D03*
X122750000Y-66250000D03*
X123250000Y-68250000D03*
X131000000Y-67250000D03*
X132250000Y-67250000D03*
X133500000Y-67250000D03*
X134250000Y-68500000D03*
X136500000Y-69250000D03*
X137500000Y-68250000D03*
X135250000Y-69000000D03*
X137750000Y-67000000D03*
X139000000Y-67000000D03*
X140000000Y-66000000D03*
X141000000Y-65000000D03*
X142000000Y-65750000D03*
X143500000Y-65750000D03*
X145000000Y-65750000D03*
X146500000Y-65750000D03*
X147250000Y-64750000D03*
X147000000Y-63500000D03*
X148750000Y-64000000D03*
X148250000Y-65750000D03*
X142750000Y-67000000D03*
X144250000Y-67000000D03*
X145750000Y-67000000D03*
X147500000Y-67000000D03*
X148500000Y-67750000D03*
X149500000Y-68750000D03*
X150250000Y-69500000D03*
X151000000Y-70250000D03*
X151750000Y-71000000D03*
X150000000Y-64000000D03*
X151500000Y-64000000D03*
X152000000Y-66750000D03*
X152000000Y-68000000D03*
X152000000Y-69250000D03*
X149500000Y-65750000D03*
X150250000Y-67000000D03*
X140250000Y-68250000D03*
X140250000Y-69750000D03*
X140250000Y-71500000D03*
X141000000Y-73250000D03*
X142250000Y-74500000D03*
X143500000Y-75750000D03*
X145000000Y-77250000D03*
X146500000Y-78750000D03*
X148250000Y-79500000D03*
X150000000Y-79500000D03*
X151500000Y-79500000D03*
X152500000Y-78500000D03*
X152500000Y-81250000D03*
X153750000Y-82500000D03*
X155500000Y-82500000D03*
X157250000Y-82500000D03*
X159000000Y-82500000D03*
X138750000Y-69250000D03*
X137000000Y-70750000D03*
X138750000Y-70750000D03*
X127000000Y-49000000D03*
X129500000Y-49000000D03*
X132000000Y-49000000D03*
X134500000Y-49000000D03*
X137000000Y-49000000D03*
X139500000Y-49000000D03*
X142000000Y-49000000D03*
X144500000Y-49000000D03*
X147000000Y-49000000D03*
X149500000Y-49000000D03*
X152000000Y-49000000D03*
X154500000Y-49000000D03*
X157000000Y-49000000D03*
X159500000Y-49000000D03*
X117000000Y-32500000D03*
X116000000Y-33500000D03*
X118000000Y-33500000D03*
X117000000Y-34500000D03*
X116000000Y-35500000D03*
X118000000Y-35500000D03*
X117000000Y-36500000D03*
X116000000Y-37500000D03*
X118000000Y-37500000D03*
X117000000Y-38500000D03*
X116000000Y-39500000D03*
X118000000Y-39500000D03*
X117000000Y-40500000D03*
X116000000Y-41500000D03*
X118000000Y-41500000D03*
X117000000Y-42500000D03*
X116000000Y-43500000D03*
X117000000Y-44500000D03*
X118000000Y-43500000D03*
X161250000Y-35500000D03*
X162250000Y-36500000D03*
X165500000Y-37500000D03*
X161250000Y-37500000D03*
X163250000Y-37500000D03*
X162250000Y-38500000D03*
X164250000Y-38500000D03*
X161250000Y-39500000D03*
X163250000Y-39500000D03*
X162250000Y-40500000D03*
X164250000Y-40500000D03*
X161250000Y-41500000D03*
X163250000Y-41500000D03*
X162250000Y-42500000D03*
X164250000Y-42500000D03*
X161250000Y-43500000D03*
X163250000Y-43500000D03*
X162250000Y-44500000D03*
X164250000Y-44500000D03*
X161250000Y-45500000D03*
X163250000Y-45500000D03*
X162250000Y-46500000D03*
X164250000Y-46500000D03*
X161250000Y-47500000D03*
X162250000Y-48500000D03*
X163250000Y-47500000D03*
X160750000Y-51000000D03*
X160750000Y-53000000D03*
X161750000Y-54500000D03*
X162500000Y-56000000D03*
X159500000Y-54750000D03*
X119000000Y-32500000D03*
X119000000Y-34500000D03*
X119000000Y-36500000D03*
X119000000Y-38500000D03*
X119000000Y-40500000D03*
X119000000Y-42500000D03*
X119000000Y-44500000D03*
X110250000Y-30750000D03*
X112750000Y-30750000D03*
X115250000Y-30750000D03*
X117750000Y-30750000D03*
X120250000Y-30750000D03*
X122750000Y-30750000D03*
X125250000Y-30750000D03*
X127750000Y-30750000D03*
X130250000Y-30750000D03*
X132750000Y-30750000D03*
X135250000Y-30750000D03*
X137750000Y-30750000D03*
X150250000Y-30750000D03*
X152750000Y-30750000D03*
X155250000Y-30750000D03*
X157750000Y-30750000D03*
X160250000Y-30750000D03*
X167500000Y-37500000D03*
X169500000Y-37500000D03*
X169500000Y-40000000D03*
X169500000Y-42500000D03*
X169500000Y-45000000D03*
X169500000Y-47500000D03*
X169500000Y-50000000D03*
X169500000Y-52500000D03*
X169500000Y-55000000D03*
X169500000Y-57500000D03*
X169500000Y-60000000D03*
X169500000Y-62500000D03*
X169500000Y-65000000D03*
X169500000Y-67500000D03*
X169500000Y-70000000D03*
X169500000Y-72500000D03*
X169500000Y-75000000D03*
X169500000Y-77500000D03*
X169500000Y-80000000D03*
X169500000Y-82250000D03*
X101500000Y-83750000D03*
X104000000Y-83750000D03*
X106500000Y-83750000D03*
X109000000Y-83750000D03*
X111500000Y-83750000D03*
X114000000Y-83750000D03*
X116500000Y-83750000D03*
X119000000Y-83750000D03*
X121500000Y-83750000D03*
X124000000Y-83750000D03*
X126500000Y-83750000D03*
X129000000Y-83750000D03*
X131500000Y-83750000D03*
X134000000Y-83750000D03*
X136500000Y-83750000D03*
X139000000Y-83750000D03*
X146500000Y-83750000D03*
X149000000Y-83750000D03*
X151500000Y-83750000D03*
X154000000Y-83750000D03*
X156500000Y-83750000D03*
X159000000Y-83750000D03*
X161500000Y-83750000D03*
X164000000Y-83750000D03*
X166500000Y-83750000D03*
X169000000Y-83750000D03*
X93250000Y-36750000D03*
X99000000Y-30500000D03*
X110250000Y-33250000D03*
X112750000Y-33250000D03*
X110250000Y-44500000D03*
X114000000Y-44500000D03*
X93750000Y-62500000D03*
X93750000Y-65000000D03*
X93750000Y-67500000D03*
X93750000Y-70000000D03*
X93750000Y-72500000D03*
X93750000Y-75000000D03*
X93750000Y-77500000D03*
X95750000Y-78250000D03*
X98000000Y-78500000D03*
X99500000Y-80000000D03*
X99750000Y-82250000D03*
X160250000Y-33000000D03*
X114000000Y-55000000D03*
X113000000Y-56250000D03*
X111750000Y-57500000D03*
X110500000Y-58750000D03*
X109250000Y-60000000D03*
X108000000Y-61250000D03*
X106750000Y-62500000D03*
X105500000Y-63750000D03*
X104250000Y-65000000D03*
X103000000Y-66250000D03*
X101750000Y-67500000D03*
X100250000Y-68250000D03*
X98500000Y-69250000D03*
X95750000Y-69250000D03*
X114500000Y-56500000D03*
X116250000Y-55750000D03*
X115250000Y-50250000D03*
X119750000Y-79250000D03*
X115250000Y-79500000D03*
X124750000Y-80000000D03*
X127750000Y-77500000D03*
X127750000Y-80000000D03*
X138000000Y-73250000D03*
X138000000Y-75500000D03*
X138250000Y-78250000D03*
X140500000Y-76750000D03*
X138250000Y-81000000D03*
X133750000Y-78250000D03*
X133750000Y-81000000D03*
X118000000Y-45750000D03*
X119000000Y-47000000D03*
X138750000Y-33250000D03*
X139750000Y-38250000D03*
X143750000Y-38250000D03*
X148000000Y-38250000D03*
X149250000Y-33250000D03*
X149250000Y-35750000D03*
X138750000Y-35750000D03*
X103750000Y-68750000D03*
X107750000Y-68750000D03*
X111750000Y-68750000D03*
X103750000Y-73750000D03*
X107750000Y-73750000D03*
X111750000Y-73750000D03*
X103750000Y-78750000D03*
X107750000Y-78750000D03*
X111750000Y-78750000D03*
D25*
G36*
X170373000Y-84873000D02*
G01*
X93127000Y-84873000D01*
X93127000Y-81753575D01*
X93498000Y-81753575D01*
X93498000Y-82246425D01*
X93594151Y-82729806D01*
X93782756Y-83185141D01*
X94056570Y-83594932D01*
X94405068Y-83943430D01*
X94814859Y-84217244D01*
X95270194Y-84405849D01*
X95753575Y-84502000D01*
X96246425Y-84502000D01*
X96729806Y-84405849D01*
X97185141Y-84217244D01*
X97594932Y-83943430D01*
X97943430Y-83594932D01*
X98217244Y-83185141D01*
X98405849Y-82729806D01*
X98502000Y-82246425D01*
X98502000Y-81801272D01*
X113823793Y-81801272D01*
X113952404Y-82004539D01*
X114118199Y-82178809D01*
X114314807Y-82317386D01*
X114368731Y-82346189D01*
X114547000Y-82319576D01*
X114547000Y-81623000D01*
X113845301Y-81623000D01*
X113823793Y-81801272D01*
X98502000Y-81801272D01*
X98502000Y-81753575D01*
X98405849Y-81270194D01*
X98217244Y-80814859D01*
X98139648Y-80698728D01*
X113823793Y-80698728D01*
X113845301Y-80877000D01*
X114547000Y-80877000D01*
X114547000Y-80180424D01*
X115293000Y-80180424D01*
X115293000Y-80877000D01*
X115313000Y-80877000D01*
X115313000Y-81623000D01*
X115293000Y-81623000D01*
X115293000Y-82319576D01*
X115471269Y-82346189D01*
X115525193Y-82317386D01*
X115721801Y-82178809D01*
X115887596Y-82004539D01*
X116016207Y-81801272D01*
X115994699Y-81623002D01*
X116147000Y-81623002D01*
X116147000Y-81579113D01*
X116204872Y-81769891D01*
X116330414Y-82004765D01*
X116499366Y-82210634D01*
X116705235Y-82379586D01*
X116940109Y-82505128D01*
X117194962Y-82582437D01*
X117393588Y-82602000D01*
X117526412Y-82602000D01*
X117725038Y-82582437D01*
X117979891Y-82505128D01*
X118214765Y-82379586D01*
X118420634Y-82210634D01*
X118589586Y-82004765D01*
X118715128Y-81769891D01*
X118773000Y-81579113D01*
X118773000Y-81623002D01*
X118925301Y-81623002D01*
X118903793Y-81801272D01*
X119032404Y-82004539D01*
X119198199Y-82178809D01*
X119394807Y-82317386D01*
X119448731Y-82346189D01*
X119627000Y-82319576D01*
X119627000Y-81623000D01*
X119607000Y-81623000D01*
X119607000Y-80877000D01*
X119627000Y-80877000D01*
X119627000Y-80180424D01*
X120373000Y-80180424D01*
X120373000Y-80877000D01*
X120393000Y-80877000D01*
X120393000Y-81623000D01*
X120373000Y-81623000D01*
X120373000Y-82319576D01*
X120551269Y-82346189D01*
X120605193Y-82317386D01*
X120801801Y-82178809D01*
X120967596Y-82004539D01*
X121096207Y-81801272D01*
X121074699Y-81623002D01*
X121185572Y-81623002D01*
X121185572Y-82100000D01*
X121195264Y-82198409D01*
X121223969Y-82293036D01*
X121270583Y-82380245D01*
X121333316Y-82456684D01*
X121409755Y-82519417D01*
X121496964Y-82566031D01*
X121591591Y-82594736D01*
X121690000Y-82604428D01*
X123390000Y-82604428D01*
X123488409Y-82594736D01*
X123583036Y-82566031D01*
X123670245Y-82519417D01*
X123746684Y-82456684D01*
X123809417Y-82380245D01*
X123856031Y-82293036D01*
X123884736Y-82198409D01*
X123894428Y-82100000D01*
X123894428Y-81753575D01*
X140498000Y-81753575D01*
X140498000Y-82246425D01*
X140594151Y-82729806D01*
X140782756Y-83185141D01*
X141056570Y-83594932D01*
X141405068Y-83943430D01*
X141814859Y-84217244D01*
X142270194Y-84405849D01*
X142753575Y-84502000D01*
X143246425Y-84502000D01*
X143729806Y-84405849D01*
X144185141Y-84217244D01*
X144594932Y-83943430D01*
X144943430Y-83594932D01*
X145217244Y-83185141D01*
X145405849Y-82729806D01*
X145502000Y-82246425D01*
X145502000Y-81827334D01*
X160780167Y-81827334D01*
X160926926Y-82003354D01*
X161215620Y-82087806D01*
X161515242Y-82114314D01*
X161814279Y-82081859D01*
X162073074Y-82003354D01*
X162219833Y-81827334D01*
X165860167Y-81827334D01*
X166006926Y-82003354D01*
X166295620Y-82087806D01*
X166595242Y-82114314D01*
X166894279Y-82081859D01*
X167153074Y-82003354D01*
X167299833Y-81827334D01*
X166580000Y-81107502D01*
X165860167Y-81827334D01*
X162219833Y-81827334D01*
X161500000Y-81107502D01*
X160780167Y-81827334D01*
X145502000Y-81827334D01*
X145502000Y-81753575D01*
X145405849Y-81270194D01*
X145217244Y-80814859D01*
X145070501Y-80595242D01*
X159965686Y-80595242D01*
X159998141Y-80894279D01*
X160076646Y-81153074D01*
X160252666Y-81299833D01*
X160972498Y-80580000D01*
X162027502Y-80580000D01*
X162747334Y-81299833D01*
X162923354Y-81153074D01*
X163007806Y-80864380D01*
X163031617Y-80595242D01*
X165045686Y-80595242D01*
X165078141Y-80894279D01*
X165156646Y-81153074D01*
X165332666Y-81299833D01*
X166052498Y-80580000D01*
X167107502Y-80580000D01*
X167827334Y-81299833D01*
X168003354Y-81153074D01*
X168087806Y-80864380D01*
X168114314Y-80564758D01*
X168081859Y-80265721D01*
X168003354Y-80006926D01*
X167827334Y-79860167D01*
X167107502Y-80580000D01*
X166052498Y-80580000D01*
X165332666Y-79860167D01*
X165156646Y-80006926D01*
X165072194Y-80295620D01*
X165045686Y-80595242D01*
X163031617Y-80595242D01*
X163034314Y-80564758D01*
X163001859Y-80265721D01*
X162923354Y-80006926D01*
X162747334Y-79860167D01*
X162027502Y-80580000D01*
X160972498Y-80580000D01*
X160252666Y-79860167D01*
X160076646Y-80006926D01*
X159992194Y-80295620D01*
X159965686Y-80595242D01*
X145070501Y-80595242D01*
X144943430Y-80405068D01*
X144594932Y-80056570D01*
X144185141Y-79782756D01*
X143729806Y-79594151D01*
X143246425Y-79498000D01*
X142753575Y-79498000D01*
X142270194Y-79594151D01*
X141814859Y-79782756D01*
X141405068Y-80056570D01*
X141056570Y-80405068D01*
X140782756Y-80814859D01*
X140594151Y-81270194D01*
X140498000Y-81753575D01*
X123894428Y-81753575D01*
X123894428Y-80400000D01*
X123884736Y-80301591D01*
X123856031Y-80206964D01*
X123809417Y-80119755D01*
X123746684Y-80043316D01*
X123670245Y-79980583D01*
X123583036Y-79933969D01*
X123488409Y-79905264D01*
X123390000Y-79895572D01*
X121690000Y-79895572D01*
X121591591Y-79905264D01*
X121496964Y-79933969D01*
X121409755Y-79980583D01*
X121333316Y-80043316D01*
X121270583Y-80119755D01*
X121223969Y-80206964D01*
X121195264Y-80301591D01*
X121185572Y-80400000D01*
X121185572Y-80876998D01*
X121074699Y-80876998D01*
X121096207Y-80698728D01*
X120967596Y-80495461D01*
X120801801Y-80321191D01*
X120605193Y-80182614D01*
X120551269Y-80153811D01*
X120373000Y-80180424D01*
X119627000Y-80180424D01*
X119448731Y-80153811D01*
X119394807Y-80182614D01*
X119198199Y-80321191D01*
X119032404Y-80495461D01*
X118903793Y-80698728D01*
X118925301Y-80876998D01*
X118773000Y-80876998D01*
X118773000Y-80920887D01*
X118715128Y-80730109D01*
X118589586Y-80495235D01*
X118420634Y-80289366D01*
X118214765Y-80120414D01*
X117979891Y-79994872D01*
X117725038Y-79917563D01*
X117526412Y-79898000D01*
X117393588Y-79898000D01*
X117194962Y-79917563D01*
X116940109Y-79994872D01*
X116705235Y-80120414D01*
X116499366Y-80289366D01*
X116330414Y-80495235D01*
X116204872Y-80730109D01*
X116147000Y-80920887D01*
X116147000Y-80876998D01*
X115994699Y-80876998D01*
X116016207Y-80698728D01*
X115887596Y-80495461D01*
X115721801Y-80321191D01*
X115525193Y-80182614D01*
X115471269Y-80153811D01*
X115293000Y-80180424D01*
X114547000Y-80180424D01*
X114368731Y-80153811D01*
X114314807Y-80182614D01*
X114118199Y-80321191D01*
X113952404Y-80495461D01*
X113823793Y-80698728D01*
X98139648Y-80698728D01*
X97943430Y-80405068D01*
X97594932Y-80056570D01*
X97185141Y-79782756D01*
X96729806Y-79594151D01*
X96246425Y-79498000D01*
X95753575Y-79498000D01*
X95270194Y-79594151D01*
X94814859Y-79782756D01*
X94405068Y-80056570D01*
X94056570Y-80405068D01*
X93782756Y-80814859D01*
X93594151Y-81270194D01*
X93498000Y-81753575D01*
X93127000Y-81753575D01*
X93127000Y-75835269D01*
X96332233Y-75835269D01*
X96510370Y-76036953D01*
X96842671Y-76146964D01*
X97190050Y-76190032D01*
X97539156Y-76164502D01*
X97876574Y-76071356D01*
X97959630Y-76036953D01*
X98137767Y-75835269D01*
X97920167Y-75617669D01*
X115633000Y-75617669D01*
X115633000Y-75992331D01*
X115706093Y-76359793D01*
X115849469Y-76705935D01*
X116057620Y-77017454D01*
X116322546Y-77282380D01*
X116634065Y-77490531D01*
X116980207Y-77633907D01*
X117347669Y-77707000D01*
X117722331Y-77707000D01*
X118089793Y-77633907D01*
X118435935Y-77490531D01*
X118747454Y-77282380D01*
X119012380Y-77017454D01*
X119220531Y-76705935D01*
X119363907Y-76359793D01*
X119435000Y-76002386D01*
X119506093Y-76359793D01*
X119649469Y-76705935D01*
X119857620Y-77017454D01*
X120122546Y-77282380D01*
X120434065Y-77490531D01*
X120780207Y-77633907D01*
X121147669Y-77707000D01*
X121522331Y-77707000D01*
X121889793Y-77633907D01*
X122235935Y-77490531D01*
X122547454Y-77282380D01*
X122812380Y-77017454D01*
X123020531Y-76705935D01*
X123163907Y-76359793D01*
X123217747Y-76089119D01*
X123978383Y-76089119D01*
X124199774Y-76326814D01*
X124592672Y-76472340D01*
X125006411Y-76538420D01*
X125425091Y-76522513D01*
X125832623Y-76425232D01*
X126070226Y-76326814D01*
X126291617Y-76089119D01*
X125135000Y-74932502D01*
X123978383Y-76089119D01*
X123217747Y-76089119D01*
X123237000Y-75992331D01*
X123237000Y-75617669D01*
X123163907Y-75250207D01*
X123020531Y-74904065D01*
X122812380Y-74592546D01*
X122547454Y-74327620D01*
X122470815Y-74276411D01*
X123001580Y-74276411D01*
X123017487Y-74695091D01*
X123114768Y-75102623D01*
X123213186Y-75340226D01*
X123450881Y-75561617D01*
X124607498Y-74405000D01*
X125662502Y-74405000D01*
X126819119Y-75561617D01*
X127056814Y-75340226D01*
X127202340Y-74947328D01*
X127268420Y-74533589D01*
X127252513Y-74114909D01*
X127189771Y-73852066D01*
X148325856Y-73852066D01*
X148325856Y-74147934D01*
X148383577Y-74438117D01*
X148496800Y-74711464D01*
X148661176Y-74957469D01*
X148870387Y-75166680D01*
X149116392Y-75331056D01*
X149146215Y-75343409D01*
X149055721Y-75561883D01*
X148998000Y-75852066D01*
X148998000Y-76147934D01*
X149055721Y-76438117D01*
X149168944Y-76711464D01*
X149333320Y-76957469D01*
X149542531Y-77166680D01*
X149788536Y-77331056D01*
X150061883Y-77444279D01*
X150352066Y-77502000D01*
X150647934Y-77502000D01*
X150938117Y-77444279D01*
X151211464Y-77331056D01*
X151457469Y-77166680D01*
X151666680Y-76957469D01*
X151831056Y-76711464D01*
X151944279Y-76438117D01*
X152002000Y-76147934D01*
X152002000Y-75852066D01*
X151944279Y-75561883D01*
X151831056Y-75288536D01*
X151666680Y-75042531D01*
X151624149Y-75000000D01*
X153995572Y-75000000D01*
X153995572Y-77000000D01*
X154005264Y-77098409D01*
X154033969Y-77193036D01*
X154080583Y-77280245D01*
X154143316Y-77356684D01*
X154219755Y-77419417D01*
X154306964Y-77466031D01*
X154401591Y-77494736D01*
X154500000Y-77504428D01*
X154667716Y-77504428D01*
X154667716Y-79000000D01*
X154677408Y-79098409D01*
X154706113Y-79193036D01*
X154752727Y-79280245D01*
X154815460Y-79356684D01*
X154891899Y-79419417D01*
X154979108Y-79466031D01*
X155073735Y-79494736D01*
X155172144Y-79504428D01*
X157172144Y-79504428D01*
X157270553Y-79494736D01*
X157365180Y-79466031D01*
X157452389Y-79419417D01*
X157528828Y-79356684D01*
X157585743Y-79287334D01*
X160780167Y-79287334D01*
X160799065Y-79310000D01*
X160780167Y-79332666D01*
X161500000Y-80052498D01*
X162219833Y-79332666D01*
X162200935Y-79310000D01*
X162219833Y-79287334D01*
X165860167Y-79287334D01*
X165879065Y-79310000D01*
X165860167Y-79332666D01*
X166580000Y-80052498D01*
X167299833Y-79332666D01*
X167280935Y-79310000D01*
X167299833Y-79287334D01*
X166580000Y-78567502D01*
X165860167Y-79287334D01*
X162219833Y-79287334D01*
X161500000Y-78567502D01*
X160780167Y-79287334D01*
X157585743Y-79287334D01*
X157591561Y-79280245D01*
X157638175Y-79193036D01*
X157666880Y-79098409D01*
X157676572Y-79000000D01*
X157676572Y-78055242D01*
X159965686Y-78055242D01*
X159998141Y-78354279D01*
X160076646Y-78613074D01*
X160252666Y-78759833D01*
X160972498Y-78040000D01*
X162027502Y-78040000D01*
X162747334Y-78759833D01*
X162923354Y-78613074D01*
X163007806Y-78324380D01*
X163031617Y-78055242D01*
X165045686Y-78055242D01*
X165078141Y-78354279D01*
X165156646Y-78613074D01*
X165332666Y-78759833D01*
X166052498Y-78040000D01*
X167107502Y-78040000D01*
X167827334Y-78759833D01*
X168003354Y-78613074D01*
X168087806Y-78324380D01*
X168114314Y-78024758D01*
X168081859Y-77725721D01*
X168003354Y-77466926D01*
X167827334Y-77320167D01*
X167107502Y-78040000D01*
X166052498Y-78040000D01*
X165332666Y-77320167D01*
X165156646Y-77466926D01*
X165072194Y-77755620D01*
X165045686Y-78055242D01*
X163031617Y-78055242D01*
X163034314Y-78024758D01*
X163001859Y-77725721D01*
X162923354Y-77466926D01*
X162747334Y-77320167D01*
X162027502Y-78040000D01*
X160972498Y-78040000D01*
X160252666Y-77320167D01*
X160076646Y-77466926D01*
X159992194Y-77755620D01*
X159965686Y-78055242D01*
X157676572Y-78055242D01*
X157676572Y-77000000D01*
X157666880Y-76901591D01*
X157638175Y-76806964D01*
X157606303Y-76747334D01*
X160780167Y-76747334D01*
X160799065Y-76770000D01*
X160780167Y-76792666D01*
X161500000Y-77512498D01*
X162219833Y-76792666D01*
X162200935Y-76770000D01*
X162219833Y-76747334D01*
X165860167Y-76747334D01*
X165879065Y-76770000D01*
X165860167Y-76792666D01*
X166580000Y-77512498D01*
X167299833Y-76792666D01*
X167280935Y-76770000D01*
X167299833Y-76747334D01*
X166580000Y-76027502D01*
X165860167Y-76747334D01*
X162219833Y-76747334D01*
X161500000Y-76027502D01*
X160780167Y-76747334D01*
X157606303Y-76747334D01*
X157591561Y-76719755D01*
X157528828Y-76643316D01*
X157452389Y-76580583D01*
X157365180Y-76533969D01*
X157270553Y-76505264D01*
X157172144Y-76495572D01*
X157004428Y-76495572D01*
X157004428Y-75515242D01*
X159965686Y-75515242D01*
X159998141Y-75814279D01*
X160076646Y-76073074D01*
X160252666Y-76219833D01*
X160972498Y-75500000D01*
X162027502Y-75500000D01*
X162747334Y-76219833D01*
X162923354Y-76073074D01*
X163007806Y-75784380D01*
X163031617Y-75515242D01*
X165045686Y-75515242D01*
X165078141Y-75814279D01*
X165156646Y-76073074D01*
X165332666Y-76219833D01*
X166052498Y-75500000D01*
X167107502Y-75500000D01*
X167827334Y-76219833D01*
X168003354Y-76073074D01*
X168087806Y-75784380D01*
X168114314Y-75484758D01*
X168081859Y-75185721D01*
X168003354Y-74926926D01*
X167827334Y-74780167D01*
X167107502Y-75500000D01*
X166052498Y-75500000D01*
X165332666Y-74780167D01*
X165156646Y-74926926D01*
X165072194Y-75215620D01*
X165045686Y-75515242D01*
X163031617Y-75515242D01*
X163034314Y-75484758D01*
X163001859Y-75185721D01*
X162923354Y-74926926D01*
X162747334Y-74780167D01*
X162027502Y-75500000D01*
X160972498Y-75500000D01*
X160252666Y-74780167D01*
X160076646Y-74926926D01*
X159992194Y-75215620D01*
X159965686Y-75515242D01*
X157004428Y-75515242D01*
X157004428Y-75000000D01*
X156994736Y-74901591D01*
X156966031Y-74806964D01*
X156919417Y-74719755D01*
X156856684Y-74643316D01*
X156780245Y-74580583D01*
X156693036Y-74533969D01*
X156598409Y-74505264D01*
X156500000Y-74495572D01*
X154500000Y-74495572D01*
X154401591Y-74505264D01*
X154306964Y-74533969D01*
X154219755Y-74580583D01*
X154143316Y-74643316D01*
X154080583Y-74719755D01*
X154033969Y-74806964D01*
X154005264Y-74901591D01*
X153995572Y-75000000D01*
X151624149Y-75000000D01*
X151457469Y-74833320D01*
X151211464Y-74668944D01*
X151181641Y-74656591D01*
X151272135Y-74438117D01*
X151309023Y-74252666D01*
X160780167Y-74252666D01*
X161500000Y-74972498D01*
X162219833Y-74252666D01*
X165860167Y-74252666D01*
X166580000Y-74972498D01*
X167299833Y-74252666D01*
X167153074Y-74076646D01*
X166864380Y-73992194D01*
X166564758Y-73965686D01*
X166265721Y-73998141D01*
X166006926Y-74076646D01*
X165860167Y-74252666D01*
X162219833Y-74252666D01*
X162073074Y-74076646D01*
X161784380Y-73992194D01*
X161484758Y-73965686D01*
X161185721Y-73998141D01*
X160926926Y-74076646D01*
X160780167Y-74252666D01*
X151309023Y-74252666D01*
X151329856Y-74147934D01*
X151329856Y-73852066D01*
X151272135Y-73561883D01*
X151158912Y-73288536D01*
X150994536Y-73042531D01*
X150785325Y-72833320D01*
X150539320Y-72668944D01*
X150265973Y-72555721D01*
X149975790Y-72498000D01*
X149679922Y-72498000D01*
X149389739Y-72555721D01*
X149116392Y-72668944D01*
X148870387Y-72833320D01*
X148661176Y-73042531D01*
X148496800Y-73288536D01*
X148383577Y-73561883D01*
X148325856Y-73852066D01*
X127189771Y-73852066D01*
X127155232Y-73707377D01*
X127056814Y-73469774D01*
X126819119Y-73248383D01*
X125662502Y-74405000D01*
X124607498Y-74405000D01*
X123450881Y-73248383D01*
X123213186Y-73469774D01*
X123067660Y-73862672D01*
X123001580Y-74276411D01*
X122470815Y-74276411D01*
X122235935Y-74119469D01*
X121889793Y-73976093D01*
X121522331Y-73903000D01*
X121147669Y-73903000D01*
X120780207Y-73976093D01*
X120434065Y-74119469D01*
X120122546Y-74327620D01*
X119857620Y-74592546D01*
X119649469Y-74904065D01*
X119506093Y-75250207D01*
X119435000Y-75607614D01*
X119363907Y-75250207D01*
X119220531Y-74904065D01*
X119012380Y-74592546D01*
X118747454Y-74327620D01*
X118435935Y-74119469D01*
X118089793Y-73976093D01*
X117722331Y-73903000D01*
X117347669Y-73903000D01*
X116980207Y-73976093D01*
X116634065Y-74119469D01*
X116322546Y-74327620D01*
X116057620Y-74592546D01*
X115849469Y-74904065D01*
X115706093Y-75250207D01*
X115633000Y-75617669D01*
X97920167Y-75617669D01*
X97235000Y-74932502D01*
X96332233Y-75835269D01*
X93127000Y-75835269D01*
X93127000Y-74360050D01*
X95449968Y-74360050D01*
X95475498Y-74709156D01*
X95568644Y-75046574D01*
X95603047Y-75129630D01*
X95804731Y-75307767D01*
X96707498Y-74405000D01*
X97762502Y-74405000D01*
X98665269Y-75307767D01*
X98866953Y-75129630D01*
X98976964Y-74797329D01*
X99020032Y-74449950D01*
X98994502Y-74100844D01*
X98901356Y-73763426D01*
X98866953Y-73680370D01*
X98665269Y-73502233D01*
X97762502Y-74405000D01*
X96707498Y-74405000D01*
X95804731Y-73502233D01*
X95603047Y-73680370D01*
X95493036Y-74012671D01*
X95449968Y-74360050D01*
X93127000Y-74360050D01*
X93127000Y-72974731D01*
X96332233Y-72974731D01*
X97235000Y-73877498D01*
X98137767Y-72974731D01*
X97959630Y-72773047D01*
X97627329Y-72663036D01*
X97279950Y-72619968D01*
X96930844Y-72645498D01*
X96593426Y-72738644D01*
X96510370Y-72773047D01*
X96332233Y-72974731D01*
X93127000Y-72974731D01*
X93127000Y-59017669D01*
X95333000Y-59017669D01*
X95333000Y-59392331D01*
X95406093Y-59759793D01*
X95549469Y-60105935D01*
X95757620Y-60417454D01*
X96022546Y-60682380D01*
X96334065Y-60890531D01*
X96680207Y-61033907D01*
X97037614Y-61105000D01*
X96680207Y-61176093D01*
X96334065Y-61319469D01*
X96022546Y-61527620D01*
X95757620Y-61792546D01*
X95549469Y-62104065D01*
X95406093Y-62450207D01*
X95333000Y-62817669D01*
X95333000Y-63192331D01*
X95406093Y-63559793D01*
X95549469Y-63905935D01*
X95757620Y-64217454D01*
X96022546Y-64482380D01*
X96334065Y-64690531D01*
X96680207Y-64833907D01*
X97037614Y-64905000D01*
X96680207Y-64976093D01*
X96334065Y-65119469D01*
X96022546Y-65327620D01*
X95757620Y-65592546D01*
X95549469Y-65904065D01*
X95406093Y-66250207D01*
X95333000Y-66617669D01*
X95333000Y-66992331D01*
X95406093Y-67359793D01*
X95549469Y-67705935D01*
X95757620Y-68017454D01*
X96022546Y-68282380D01*
X96334065Y-68490531D01*
X96680207Y-68633907D01*
X97047669Y-68707000D01*
X97422331Y-68707000D01*
X97789793Y-68633907D01*
X98135935Y-68490531D01*
X98447454Y-68282380D01*
X98712380Y-68017454D01*
X98920531Y-67705935D01*
X99063907Y-67359793D01*
X99137000Y-66992331D01*
X99137000Y-66617669D01*
X99063907Y-66250207D01*
X98920531Y-65904065D01*
X98712380Y-65592546D01*
X98447454Y-65327620D01*
X98135935Y-65119469D01*
X97789793Y-64976093D01*
X97432386Y-64905000D01*
X97789793Y-64833907D01*
X98135935Y-64690531D01*
X98447454Y-64482380D01*
X98712380Y-64217454D01*
X98920531Y-63905935D01*
X99063907Y-63559793D01*
X99137000Y-63192331D01*
X99137000Y-62817669D01*
X99063907Y-62450207D01*
X98920531Y-62104065D01*
X98712380Y-61792546D01*
X98447454Y-61527620D01*
X98135935Y-61319469D01*
X97789793Y-61176093D01*
X97432386Y-61105000D01*
X97789793Y-61033907D01*
X98135935Y-60890531D01*
X98447454Y-60682380D01*
X98712380Y-60417454D01*
X98920531Y-60105935D01*
X99063907Y-59759793D01*
X99137000Y-59392331D01*
X99137000Y-59017669D01*
X99130144Y-58983197D01*
X122883000Y-58983197D01*
X122883000Y-59426803D01*
X122969544Y-59861884D01*
X123139304Y-60271722D01*
X123385758Y-60640566D01*
X123699434Y-60954242D01*
X124068278Y-61200696D01*
X124294544Y-61294418D01*
X124234065Y-61319469D01*
X123922546Y-61527620D01*
X123657620Y-61792546D01*
X123449469Y-62104065D01*
X123306093Y-62450207D01*
X123233000Y-62817669D01*
X123233000Y-63192331D01*
X123306093Y-63559793D01*
X123449469Y-63905935D01*
X123657620Y-64217454D01*
X123922546Y-64482380D01*
X124234065Y-64690531D01*
X124580207Y-64833907D01*
X124937614Y-64905000D01*
X124580207Y-64976093D01*
X124234065Y-65119469D01*
X123922546Y-65327620D01*
X123657620Y-65592546D01*
X123449469Y-65904065D01*
X123306093Y-66250207D01*
X123233000Y-66617669D01*
X123233000Y-66992331D01*
X123306093Y-67359793D01*
X123449469Y-67705935D01*
X123657620Y-68017454D01*
X123922546Y-68282380D01*
X124234065Y-68490531D01*
X124580207Y-68633907D01*
X124937614Y-68705000D01*
X124580207Y-68776093D01*
X124234065Y-68919469D01*
X123922546Y-69127620D01*
X123657620Y-69392546D01*
X123449469Y-69704065D01*
X123306093Y-70050207D01*
X123233000Y-70417669D01*
X123233000Y-70792331D01*
X123306093Y-71159793D01*
X123449469Y-71505935D01*
X123657620Y-71817454D01*
X123922546Y-72082380D01*
X124234065Y-72290531D01*
X124452728Y-72381104D01*
X124437377Y-72384768D01*
X124199774Y-72483186D01*
X123978383Y-72720881D01*
X125135000Y-73877498D01*
X126291617Y-72720881D01*
X126070226Y-72483186D01*
X125806578Y-72385533D01*
X126035935Y-72290531D01*
X126347454Y-72082380D01*
X126612380Y-71817454D01*
X126820531Y-71505935D01*
X126963907Y-71159793D01*
X127037000Y-70792331D01*
X127037000Y-70417669D01*
X126963907Y-70050207D01*
X126820531Y-69704065D01*
X126612380Y-69392546D01*
X126601447Y-69381613D01*
X143298000Y-69381613D01*
X143298000Y-69618387D01*
X143344192Y-69850610D01*
X143434801Y-70069361D01*
X143566346Y-70266230D01*
X143733770Y-70433654D01*
X143930639Y-70565199D01*
X144149390Y-70655808D01*
X144381613Y-70702000D01*
X144618387Y-70702000D01*
X144850610Y-70655808D01*
X145069361Y-70565199D01*
X145266230Y-70433654D01*
X145433654Y-70266230D01*
X145565199Y-70069361D01*
X145655808Y-69850610D01*
X145702000Y-69618387D01*
X145702000Y-69381613D01*
X145655808Y-69149390D01*
X145565199Y-68930639D01*
X145433654Y-68733770D01*
X145266230Y-68566346D01*
X145069361Y-68434801D01*
X144850610Y-68344192D01*
X144618387Y-68298000D01*
X144381613Y-68298000D01*
X144149390Y-68344192D01*
X143930639Y-68434801D01*
X143733770Y-68566346D01*
X143566346Y-68733770D01*
X143434801Y-68930639D01*
X143344192Y-69149390D01*
X143298000Y-69381613D01*
X126601447Y-69381613D01*
X126347454Y-69127620D01*
X126035935Y-68919469D01*
X125689793Y-68776093D01*
X125332386Y-68705000D01*
X125689793Y-68633907D01*
X126035935Y-68490531D01*
X126041527Y-68486794D01*
X135540707Y-68486794D01*
X135642071Y-68627233D01*
X135868861Y-68675402D01*
X136100690Y-68678401D01*
X136328650Y-68636115D01*
X136357929Y-68627233D01*
X136459293Y-68486794D01*
X136000000Y-68027502D01*
X135540707Y-68486794D01*
X126041527Y-68486794D01*
X126347454Y-68282380D01*
X126612380Y-68017454D01*
X126820531Y-67705935D01*
X126864124Y-67600690D01*
X134821599Y-67600690D01*
X134863885Y-67828650D01*
X134872767Y-67857929D01*
X135013206Y-67959293D01*
X135472498Y-67500000D01*
X136527502Y-67500000D01*
X136986794Y-67959293D01*
X137127233Y-67857929D01*
X137175402Y-67631139D01*
X137178401Y-67399310D01*
X137136115Y-67171350D01*
X137127233Y-67142071D01*
X136986794Y-67040707D01*
X136527502Y-67500000D01*
X135472498Y-67500000D01*
X135013206Y-67040707D01*
X134872767Y-67142071D01*
X134824598Y-67368861D01*
X134821599Y-67600690D01*
X126864124Y-67600690D01*
X126963907Y-67359793D01*
X127037000Y-66992331D01*
X127037000Y-66617669D01*
X127016221Y-66513206D01*
X135540707Y-66513206D01*
X136000000Y-66972498D01*
X136459293Y-66513206D01*
X136440230Y-66486794D01*
X150540707Y-66486794D01*
X150642071Y-66627233D01*
X150868861Y-66675402D01*
X151100690Y-66678401D01*
X151328650Y-66636115D01*
X151357929Y-66627233D01*
X151459293Y-66486794D01*
X151000000Y-66027502D01*
X150540707Y-66486794D01*
X136440230Y-66486794D01*
X136357929Y-66372767D01*
X136131139Y-66324598D01*
X135899310Y-66321599D01*
X135671350Y-66363885D01*
X135642071Y-66372767D01*
X135540707Y-66513206D01*
X127016221Y-66513206D01*
X126963907Y-66250207D01*
X126820531Y-65904065D01*
X126617822Y-65600690D01*
X149821599Y-65600690D01*
X149863885Y-65828650D01*
X149872767Y-65857929D01*
X150013206Y-65959293D01*
X150472498Y-65500000D01*
X151527502Y-65500000D01*
X151986794Y-65959293D01*
X152127233Y-65857929D01*
X152175402Y-65631139D01*
X152178401Y-65399310D01*
X152136115Y-65171350D01*
X152127233Y-65142071D01*
X151986794Y-65040707D01*
X151527502Y-65500000D01*
X150472498Y-65500000D01*
X150013206Y-65040707D01*
X149872767Y-65142071D01*
X149824598Y-65368861D01*
X149821599Y-65600690D01*
X126617822Y-65600690D01*
X126612380Y-65592546D01*
X126347454Y-65327620D01*
X126035935Y-65119469D01*
X125689793Y-64976093D01*
X125332386Y-64905000D01*
X125689793Y-64833907D01*
X126035935Y-64690531D01*
X126347454Y-64482380D01*
X126612380Y-64217454D01*
X126820531Y-63905935D01*
X126963907Y-63559793D01*
X127035474Y-63200000D01*
X134695572Y-63200000D01*
X134695572Y-64800000D01*
X134705264Y-64898409D01*
X134733969Y-64993036D01*
X134780583Y-65080245D01*
X134843316Y-65156684D01*
X134919755Y-65219417D01*
X135006964Y-65266031D01*
X135101591Y-65294736D01*
X135200000Y-65304428D01*
X136800000Y-65304428D01*
X136898409Y-65294736D01*
X136993036Y-65266031D01*
X137080245Y-65219417D01*
X137156684Y-65156684D01*
X137219417Y-65080245D01*
X137266031Y-64993036D01*
X137280158Y-64946464D01*
X143560422Y-64946464D01*
X143681184Y-65119651D01*
X143833412Y-65265950D01*
X143973539Y-65359557D01*
X144127000Y-65329213D01*
X144127000Y-64793000D01*
X144873000Y-64793000D01*
X144873000Y-65329213D01*
X145026461Y-65359557D01*
X145166588Y-65265950D01*
X145318816Y-65119651D01*
X145439578Y-64946464D01*
X145416117Y-64793000D01*
X144873000Y-64793000D01*
X144127000Y-64793000D01*
X143583883Y-64793000D01*
X143560422Y-64946464D01*
X137280158Y-64946464D01*
X137294736Y-64898409D01*
X137304428Y-64800000D01*
X137304428Y-64513206D01*
X150540707Y-64513206D01*
X151000000Y-64972498D01*
X151272498Y-64700000D01*
X153195572Y-64700000D01*
X153195572Y-66300000D01*
X153205264Y-66398409D01*
X153233969Y-66493036D01*
X153280583Y-66580245D01*
X153343316Y-66656684D01*
X153419755Y-66719417D01*
X153506964Y-66766031D01*
X153601591Y-66794736D01*
X153700000Y-66804428D01*
X155300000Y-66804428D01*
X155398409Y-66794736D01*
X155493036Y-66766031D01*
X155580245Y-66719417D01*
X155656684Y-66656684D01*
X155719417Y-66580245D01*
X155766031Y-66493036D01*
X155794736Y-66398409D01*
X155804428Y-66300000D01*
X155804428Y-64700000D01*
X155794736Y-64601591D01*
X155766031Y-64506964D01*
X155719417Y-64419755D01*
X155656684Y-64343316D01*
X155580245Y-64280583D01*
X155493036Y-64233969D01*
X155398409Y-64205264D01*
X155300000Y-64195572D01*
X153700000Y-64195572D01*
X153601591Y-64205264D01*
X153506964Y-64233969D01*
X153419755Y-64280583D01*
X153343316Y-64343316D01*
X153280583Y-64419755D01*
X153233969Y-64506964D01*
X153205264Y-64601591D01*
X153195572Y-64700000D01*
X151272498Y-64700000D01*
X151459293Y-64513206D01*
X151357929Y-64372767D01*
X151131139Y-64324598D01*
X150899310Y-64321599D01*
X150671350Y-64363885D01*
X150642071Y-64372767D01*
X150540707Y-64513206D01*
X137304428Y-64513206D01*
X137304428Y-63893536D01*
X143560422Y-63893536D01*
X143583883Y-64047000D01*
X144127000Y-64047000D01*
X144127000Y-63510787D01*
X144873000Y-63510787D01*
X144873000Y-64047000D01*
X145416117Y-64047000D01*
X145439578Y-63893536D01*
X145318816Y-63720349D01*
X145166588Y-63574050D01*
X145026461Y-63480443D01*
X144873000Y-63510787D01*
X144127000Y-63510787D01*
X143973539Y-63480443D01*
X143833412Y-63574050D01*
X143681184Y-63720349D01*
X143560422Y-63893536D01*
X137304428Y-63893536D01*
X137304428Y-63200000D01*
X137294736Y-63101591D01*
X137266031Y-63006964D01*
X137219417Y-62919755D01*
X137156684Y-62843316D01*
X137080245Y-62780583D01*
X136993036Y-62733969D01*
X136898409Y-62705264D01*
X136800000Y-62695572D01*
X135200000Y-62695572D01*
X135101591Y-62705264D01*
X135006964Y-62733969D01*
X134919755Y-62780583D01*
X134843316Y-62843316D01*
X134780583Y-62919755D01*
X134733969Y-63006964D01*
X134705264Y-63101591D01*
X134695572Y-63200000D01*
X127035474Y-63200000D01*
X127037000Y-63192331D01*
X127037000Y-62817669D01*
X126963907Y-62450207D01*
X126884000Y-62257292D01*
X159768000Y-62257292D01*
X159768000Y-62582708D01*
X159831486Y-62901871D01*
X159956017Y-63202515D01*
X160136808Y-63473088D01*
X160353720Y-63690000D01*
X160136808Y-63906912D01*
X159956017Y-64177485D01*
X159831486Y-64478129D01*
X159768000Y-64797292D01*
X159768000Y-65122708D01*
X159831486Y-65441871D01*
X159956017Y-65742515D01*
X160136808Y-66013088D01*
X160353720Y-66230000D01*
X160136808Y-66446912D01*
X159956017Y-66717485D01*
X159831486Y-67018129D01*
X159768000Y-67337292D01*
X159768000Y-67662708D01*
X159831486Y-67981871D01*
X159956017Y-68282515D01*
X160136808Y-68553088D01*
X160366912Y-68783192D01*
X160637485Y-68963983D01*
X160938129Y-69088514D01*
X161257292Y-69152000D01*
X161582708Y-69152000D01*
X161901871Y-69088514D01*
X162202515Y-68963983D01*
X162473088Y-68783192D01*
X162703192Y-68553088D01*
X162883983Y-68282515D01*
X163008514Y-67981871D01*
X163072000Y-67662708D01*
X163072000Y-67337292D01*
X163008514Y-67018129D01*
X162883983Y-66717485D01*
X162703192Y-66446912D01*
X162486280Y-66230000D01*
X162703192Y-66013088D01*
X162883983Y-65742515D01*
X163008514Y-65441871D01*
X163072000Y-65122708D01*
X163072000Y-64797292D01*
X163008514Y-64478129D01*
X162883983Y-64177485D01*
X162703192Y-63906912D01*
X162486280Y-63690000D01*
X162703192Y-63473088D01*
X162883983Y-63202515D01*
X163008514Y-62901871D01*
X163072000Y-62582708D01*
X163072000Y-62257292D01*
X164848000Y-62257292D01*
X164848000Y-62582708D01*
X164911486Y-62901871D01*
X165036017Y-63202515D01*
X165216808Y-63473088D01*
X165433720Y-63690000D01*
X165216808Y-63906912D01*
X165036017Y-64177485D01*
X164911486Y-64478129D01*
X164848000Y-64797292D01*
X164848000Y-65122708D01*
X164911486Y-65441871D01*
X165036017Y-65742515D01*
X165216808Y-66013088D01*
X165433720Y-66230000D01*
X165216808Y-66446912D01*
X165036017Y-66717485D01*
X164911486Y-67018129D01*
X164848000Y-67337292D01*
X164848000Y-67662708D01*
X164911486Y-67981871D01*
X165036017Y-68282515D01*
X165216808Y-68553088D01*
X165446912Y-68783192D01*
X165717485Y-68963983D01*
X166018129Y-69088514D01*
X166337292Y-69152000D01*
X166662708Y-69152000D01*
X166981871Y-69088514D01*
X167282515Y-68963983D01*
X167553088Y-68783192D01*
X167783192Y-68553088D01*
X167963983Y-68282515D01*
X168088514Y-67981871D01*
X168152000Y-67662708D01*
X168152000Y-67337292D01*
X168088514Y-67018129D01*
X167963983Y-66717485D01*
X167783192Y-66446912D01*
X167566280Y-66230000D01*
X167783192Y-66013088D01*
X167963983Y-65742515D01*
X168088514Y-65441871D01*
X168152000Y-65122708D01*
X168152000Y-64797292D01*
X168088514Y-64478129D01*
X167963983Y-64177485D01*
X167783192Y-63906912D01*
X167566280Y-63690000D01*
X167783192Y-63473088D01*
X167963983Y-63202515D01*
X168088514Y-62901871D01*
X168152000Y-62582708D01*
X168152000Y-62257292D01*
X168088514Y-61938129D01*
X167963983Y-61637485D01*
X167783192Y-61366912D01*
X167553088Y-61136808D01*
X167282515Y-60956017D01*
X166981871Y-60831486D01*
X166662708Y-60768000D01*
X166337292Y-60768000D01*
X166018129Y-60831486D01*
X165717485Y-60956017D01*
X165446912Y-61136808D01*
X165216808Y-61366912D01*
X165036017Y-61637485D01*
X164911486Y-61938129D01*
X164848000Y-62257292D01*
X163072000Y-62257292D01*
X163008514Y-61938129D01*
X162883983Y-61637485D01*
X162703192Y-61366912D01*
X162473088Y-61136808D01*
X162202515Y-60956017D01*
X161901871Y-60831486D01*
X161582708Y-60768000D01*
X161257292Y-60768000D01*
X160938129Y-60831486D01*
X160637485Y-60956017D01*
X160366912Y-61136808D01*
X160136808Y-61366912D01*
X159956017Y-61637485D01*
X159831486Y-61938129D01*
X159768000Y-62257292D01*
X126884000Y-62257292D01*
X126820531Y-62104065D01*
X126612380Y-61792546D01*
X126347454Y-61527620D01*
X126035935Y-61319469D01*
X125975456Y-61294418D01*
X126201722Y-61200696D01*
X126570566Y-60954242D01*
X126884242Y-60640566D01*
X127130696Y-60271722D01*
X127300456Y-59861884D01*
X127387000Y-59426803D01*
X127387000Y-58983197D01*
X127300456Y-58548116D01*
X127130696Y-58138278D01*
X126884242Y-57769434D01*
X126570566Y-57455758D01*
X126201722Y-57209304D01*
X125791884Y-57039544D01*
X125356803Y-56953000D01*
X124913197Y-56953000D01*
X124478116Y-57039544D01*
X124068278Y-57209304D01*
X123699434Y-57455758D01*
X123385758Y-57769434D01*
X123139304Y-58138278D01*
X122969544Y-58548116D01*
X122883000Y-58983197D01*
X99130144Y-58983197D01*
X99063907Y-58650207D01*
X98920531Y-58304065D01*
X98712380Y-57992546D01*
X98447454Y-57727620D01*
X98135935Y-57519469D01*
X97789793Y-57376093D01*
X97422331Y-57303000D01*
X97047669Y-57303000D01*
X96680207Y-57376093D01*
X96334065Y-57519469D01*
X96022546Y-57727620D01*
X95757620Y-57992546D01*
X95549469Y-58304065D01*
X95406093Y-58650207D01*
X95333000Y-59017669D01*
X93127000Y-59017669D01*
X93127000Y-53526461D01*
X102480443Y-53526461D01*
X102574050Y-53666588D01*
X102720349Y-53818816D01*
X102893536Y-53939578D01*
X103047000Y-53916117D01*
X103047000Y-53373000D01*
X103793000Y-53373000D01*
X103793000Y-53916117D01*
X103946464Y-53939578D01*
X104119651Y-53818816D01*
X104265950Y-53666588D01*
X104359557Y-53526461D01*
X104329213Y-53373000D01*
X103793000Y-53373000D01*
X103047000Y-53373000D01*
X102510787Y-53373000D01*
X102480443Y-53526461D01*
X93127000Y-53526461D01*
X93127000Y-52881613D01*
X107298000Y-52881613D01*
X107298000Y-53118387D01*
X107344192Y-53350610D01*
X107434801Y-53569361D01*
X107566346Y-53766230D01*
X107733770Y-53933654D01*
X107930639Y-54065199D01*
X108149390Y-54155808D01*
X108381613Y-54202000D01*
X108618387Y-54202000D01*
X108850610Y-54155808D01*
X109069361Y-54065199D01*
X109266230Y-53933654D01*
X109433654Y-53766230D01*
X109565199Y-53569361D01*
X109655808Y-53350610D01*
X109702000Y-53118387D01*
X109702000Y-52881613D01*
X109696123Y-52852066D01*
X114498000Y-52852066D01*
X114498000Y-53147934D01*
X114555721Y-53438117D01*
X114668944Y-53711464D01*
X114833320Y-53957469D01*
X115042531Y-54166680D01*
X115288536Y-54331056D01*
X115561883Y-54444279D01*
X115852066Y-54502000D01*
X116147934Y-54502000D01*
X116438117Y-54444279D01*
X116711464Y-54331056D01*
X116957469Y-54166680D01*
X117166680Y-53957469D01*
X117331056Y-53711464D01*
X117444279Y-53438117D01*
X117502000Y-53147934D01*
X117502000Y-52852066D01*
X117444279Y-52561883D01*
X117331056Y-52288536D01*
X117166680Y-52042531D01*
X116957469Y-51833320D01*
X116711464Y-51668944D01*
X116438117Y-51555721D01*
X116147934Y-51498000D01*
X115852066Y-51498000D01*
X115561883Y-51555721D01*
X115288536Y-51668944D01*
X115042531Y-51833320D01*
X114833320Y-52042531D01*
X114668944Y-52288536D01*
X114555721Y-52561883D01*
X114498000Y-52852066D01*
X109696123Y-52852066D01*
X109655808Y-52649390D01*
X109565199Y-52430639D01*
X109433654Y-52233770D01*
X109266230Y-52066346D01*
X109069361Y-51934801D01*
X108850610Y-51844192D01*
X108618387Y-51798000D01*
X108381613Y-51798000D01*
X108149390Y-51844192D01*
X107930639Y-51934801D01*
X107733770Y-52066346D01*
X107566346Y-52233770D01*
X107434801Y-52430639D01*
X107344192Y-52649390D01*
X107298000Y-52881613D01*
X93127000Y-52881613D01*
X93127000Y-52473539D01*
X102480443Y-52473539D01*
X102510787Y-52627000D01*
X103047000Y-52627000D01*
X103047000Y-52083883D01*
X103793000Y-52083883D01*
X103793000Y-52627000D01*
X104329213Y-52627000D01*
X104359557Y-52473539D01*
X104265950Y-52333412D01*
X104119651Y-52181184D01*
X103946464Y-52060422D01*
X103793000Y-52083883D01*
X103047000Y-52083883D01*
X102893536Y-52060422D01*
X102720349Y-52181184D01*
X102574050Y-52333412D01*
X102480443Y-52473539D01*
X93127000Y-52473539D01*
X93127000Y-50381613D01*
X102298000Y-50381613D01*
X102298000Y-50618387D01*
X102344192Y-50850610D01*
X102434801Y-51069361D01*
X102566346Y-51266230D01*
X102733770Y-51433654D01*
X102930639Y-51565199D01*
X103149390Y-51655808D01*
X103381613Y-51702000D01*
X103618387Y-51702000D01*
X103850610Y-51655808D01*
X104069361Y-51565199D01*
X104266230Y-51433654D01*
X104433654Y-51266230D01*
X104565199Y-51069361D01*
X104655808Y-50850610D01*
X104702000Y-50618387D01*
X104702000Y-50500000D01*
X107372185Y-50500000D01*
X107395393Y-50735633D01*
X107464124Y-50962211D01*
X107575739Y-51171026D01*
X107725946Y-51354054D01*
X107908974Y-51504261D01*
X108117789Y-51615876D01*
X108344367Y-51684607D01*
X108520960Y-51702000D01*
X108639040Y-51702000D01*
X108815633Y-51684607D01*
X109042211Y-51615876D01*
X109251026Y-51504261D01*
X109434054Y-51354054D01*
X109516514Y-51253575D01*
X161998000Y-51253575D01*
X161998000Y-51746425D01*
X162094151Y-52229806D01*
X162282756Y-52685141D01*
X162556570Y-53094932D01*
X162905068Y-53443430D01*
X163314859Y-53717244D01*
X163770194Y-53905849D01*
X164253575Y-54002000D01*
X164746425Y-54002000D01*
X165229806Y-53905849D01*
X165685141Y-53717244D01*
X166094932Y-53443430D01*
X166443430Y-53094932D01*
X166717244Y-52685141D01*
X166905849Y-52229806D01*
X167002000Y-51746425D01*
X167002000Y-51253575D01*
X166905849Y-50770194D01*
X166717244Y-50314859D01*
X166443430Y-49905068D01*
X166094932Y-49556570D01*
X165685141Y-49282756D01*
X165229806Y-49094151D01*
X164746425Y-48998000D01*
X164253575Y-48998000D01*
X163770194Y-49094151D01*
X163314859Y-49282756D01*
X162905068Y-49556570D01*
X162556570Y-49905068D01*
X162282756Y-50314859D01*
X162094151Y-50770194D01*
X161998000Y-51253575D01*
X109516514Y-51253575D01*
X109584261Y-51171026D01*
X109695876Y-50962211D01*
X109764607Y-50735633D01*
X109787815Y-50500000D01*
X109764607Y-50264367D01*
X109725826Y-50136521D01*
X112890980Y-50136521D01*
X113018576Y-50297209D01*
X113280899Y-50366205D01*
X113551642Y-50382699D01*
X113820401Y-50346056D01*
X113981424Y-50297209D01*
X114109020Y-50136521D01*
X113500000Y-49527502D01*
X112890980Y-50136521D01*
X109725826Y-50136521D01*
X109695876Y-50037789D01*
X109584261Y-49828974D01*
X109434054Y-49645946D01*
X109251026Y-49495739D01*
X109042211Y-49384124D01*
X108815633Y-49315393D01*
X108639040Y-49298000D01*
X108520960Y-49298000D01*
X108344367Y-49315393D01*
X108117789Y-49384124D01*
X107908974Y-49495739D01*
X107725946Y-49645946D01*
X107575739Y-49828974D01*
X107464124Y-50037789D01*
X107395393Y-50264367D01*
X107372185Y-50500000D01*
X104702000Y-50500000D01*
X104702000Y-50381613D01*
X104655808Y-50149390D01*
X104565199Y-49930639D01*
X104433654Y-49733770D01*
X104266230Y-49566346D01*
X104069361Y-49434801D01*
X103850610Y-49344192D01*
X103618387Y-49298000D01*
X103381613Y-49298000D01*
X103149390Y-49344192D01*
X102930639Y-49434801D01*
X102733770Y-49566346D01*
X102566346Y-49733770D01*
X102434801Y-49930639D01*
X102344192Y-50149390D01*
X102298000Y-50381613D01*
X93127000Y-50381613D01*
X93127000Y-49051642D01*
X112117301Y-49051642D01*
X112153944Y-49320401D01*
X112202791Y-49481424D01*
X112363479Y-49609020D01*
X112972498Y-49000000D01*
X114027502Y-49000000D01*
X114636521Y-49609020D01*
X114797209Y-49481424D01*
X114866205Y-49219101D01*
X114882699Y-48948358D01*
X114873599Y-48881613D01*
X115798000Y-48881613D01*
X115798000Y-49118387D01*
X115844192Y-49350610D01*
X115934801Y-49569361D01*
X116066346Y-49766230D01*
X116233770Y-49933654D01*
X116430639Y-50065199D01*
X116649390Y-50155808D01*
X116881613Y-50202000D01*
X117118387Y-50202000D01*
X117350610Y-50155808D01*
X117569361Y-50065199D01*
X117766230Y-49933654D01*
X117933654Y-49766230D01*
X118065199Y-49569361D01*
X118155808Y-49350610D01*
X118202000Y-49118387D01*
X118202000Y-48911161D01*
X118598000Y-48911161D01*
X118598000Y-49088839D01*
X118632664Y-49263104D01*
X118700658Y-49427257D01*
X118799371Y-49574991D01*
X118925009Y-49700629D01*
X119072743Y-49799342D01*
X119236896Y-49867336D01*
X119411161Y-49902000D01*
X119588839Y-49902000D01*
X119763104Y-49867336D01*
X119927257Y-49799342D01*
X120074991Y-49700629D01*
X120200629Y-49574991D01*
X120299342Y-49427257D01*
X120367336Y-49263104D01*
X120402000Y-49088839D01*
X120402000Y-49000000D01*
X120872185Y-49000000D01*
X120895393Y-49235633D01*
X120964124Y-49462211D01*
X121075739Y-49671026D01*
X121225946Y-49854054D01*
X121408974Y-50004261D01*
X121617789Y-50115876D01*
X121844367Y-50184607D01*
X122020960Y-50202000D01*
X122139040Y-50202000D01*
X122315633Y-50184607D01*
X122542211Y-50115876D01*
X122751026Y-50004261D01*
X122934054Y-49854054D01*
X123084261Y-49671026D01*
X123195876Y-49462211D01*
X123264607Y-49235633D01*
X123287815Y-49000000D01*
X123264607Y-48764367D01*
X123195876Y-48537789D01*
X123084261Y-48328974D01*
X122934054Y-48145946D01*
X122751026Y-47995739D01*
X122542211Y-47884124D01*
X122315633Y-47815393D01*
X122139040Y-47798000D01*
X122020960Y-47798000D01*
X121844367Y-47815393D01*
X121617789Y-47884124D01*
X121408974Y-47995739D01*
X121225946Y-48145946D01*
X121075739Y-48328974D01*
X120964124Y-48537789D01*
X120895393Y-48764367D01*
X120872185Y-49000000D01*
X120402000Y-49000000D01*
X120402000Y-48911161D01*
X120367336Y-48736896D01*
X120299342Y-48572743D01*
X120200629Y-48425009D01*
X120074991Y-48299371D01*
X119927257Y-48200658D01*
X119763104Y-48132664D01*
X119588839Y-48098000D01*
X119411161Y-48098000D01*
X119236896Y-48132664D01*
X119072743Y-48200658D01*
X118925009Y-48299371D01*
X118799371Y-48425009D01*
X118700658Y-48572743D01*
X118632664Y-48736896D01*
X118598000Y-48911161D01*
X118202000Y-48911161D01*
X118202000Y-48881613D01*
X118155808Y-48649390D01*
X118065199Y-48430639D01*
X117933654Y-48233770D01*
X117766230Y-48066346D01*
X117569361Y-47934801D01*
X117350610Y-47844192D01*
X117118387Y-47798000D01*
X116881613Y-47798000D01*
X116649390Y-47844192D01*
X116430639Y-47934801D01*
X116233770Y-48066346D01*
X116066346Y-48233770D01*
X115934801Y-48430639D01*
X115844192Y-48649390D01*
X115798000Y-48881613D01*
X114873599Y-48881613D01*
X114846056Y-48679599D01*
X114797209Y-48518576D01*
X114636521Y-48390980D01*
X114027502Y-49000000D01*
X112972498Y-49000000D01*
X112363479Y-48390980D01*
X112202791Y-48518576D01*
X112133795Y-48780899D01*
X112117301Y-49051642D01*
X93127000Y-49051642D01*
X93127000Y-47863479D01*
X112890980Y-47863479D01*
X113500000Y-48472498D01*
X114109020Y-47863479D01*
X113981424Y-47702791D01*
X113719101Y-47633795D01*
X113448358Y-47617301D01*
X113179599Y-47653944D01*
X113018576Y-47702791D01*
X112890980Y-47863479D01*
X93127000Y-47863479D01*
X93127000Y-45200000D01*
X96195572Y-45200000D01*
X96195572Y-46800000D01*
X96205264Y-46898409D01*
X96233969Y-46993036D01*
X96280583Y-47080245D01*
X96343316Y-47156684D01*
X96419755Y-47219417D01*
X96506964Y-47266031D01*
X96601591Y-47294736D01*
X96700000Y-47304428D01*
X98300000Y-47304428D01*
X98398409Y-47294736D01*
X98493036Y-47266031D01*
X98580245Y-47219417D01*
X98656684Y-47156684D01*
X98719417Y-47080245D01*
X98766031Y-46993036D01*
X98767924Y-46986794D01*
X100540707Y-46986794D01*
X100642071Y-47127233D01*
X100868861Y-47175402D01*
X101100690Y-47178401D01*
X101328650Y-47136115D01*
X101357929Y-47127233D01*
X101459293Y-46986794D01*
X101000000Y-46527502D01*
X100540707Y-46986794D01*
X98767924Y-46986794D01*
X98794736Y-46898409D01*
X98804428Y-46800000D01*
X98804428Y-46100690D01*
X99821599Y-46100690D01*
X99863885Y-46328650D01*
X99872767Y-46357929D01*
X100013206Y-46459293D01*
X100472498Y-46000000D01*
X101527502Y-46000000D01*
X101986794Y-46459293D01*
X102127233Y-46357929D01*
X102175402Y-46131139D01*
X102178401Y-45899310D01*
X102136115Y-45671350D01*
X102127233Y-45642071D01*
X101986794Y-45540707D01*
X101527502Y-46000000D01*
X100472498Y-46000000D01*
X100013206Y-45540707D01*
X99872767Y-45642071D01*
X99824598Y-45868861D01*
X99821599Y-46100690D01*
X98804428Y-46100690D01*
X98804428Y-45200000D01*
X98794736Y-45101591D01*
X98767925Y-45013206D01*
X100540707Y-45013206D01*
X101000000Y-45472498D01*
X101459293Y-45013206D01*
X101357929Y-44872767D01*
X101131139Y-44824598D01*
X100899310Y-44821599D01*
X100671350Y-44863885D01*
X100642071Y-44872767D01*
X100540707Y-45013206D01*
X98767925Y-45013206D01*
X98766031Y-45006964D01*
X98719417Y-44919755D01*
X98656684Y-44843316D01*
X98580245Y-44780583D01*
X98493036Y-44733969D01*
X98398409Y-44705264D01*
X98300000Y-44695572D01*
X96700000Y-44695572D01*
X96601591Y-44705264D01*
X96506964Y-44733969D01*
X96419755Y-44780583D01*
X96343316Y-44843316D01*
X96280583Y-44919755D01*
X96233969Y-45006964D01*
X96205264Y-45101591D01*
X96195572Y-45200000D01*
X93127000Y-45200000D01*
X93127000Y-41562500D01*
X105558072Y-41562500D01*
X105558072Y-43437500D01*
X105567764Y-43535909D01*
X105596469Y-43630536D01*
X105643083Y-43717745D01*
X105705816Y-43794184D01*
X105782255Y-43856917D01*
X105869464Y-43903531D01*
X105964091Y-43932236D01*
X106062500Y-43941928D01*
X107937500Y-43941928D01*
X108035909Y-43932236D01*
X108130536Y-43903531D01*
X108217745Y-43856917D01*
X108294184Y-43794184D01*
X108356917Y-43717745D01*
X108403531Y-43630536D01*
X108415821Y-43590021D01*
X111437481Y-43590021D01*
X111556981Y-43744350D01*
X111808253Y-43806868D01*
X112066895Y-43819166D01*
X112322966Y-43780768D01*
X112412608Y-43753575D01*
X120998000Y-43753575D01*
X120998000Y-44246425D01*
X121094151Y-44729806D01*
X121282756Y-45185141D01*
X121556570Y-45594932D01*
X121905068Y-45943430D01*
X122314859Y-46217244D01*
X122770194Y-46405849D01*
X123253575Y-46502000D01*
X123746425Y-46502000D01*
X124229806Y-46405849D01*
X124685141Y-46217244D01*
X125094932Y-45943430D01*
X125443430Y-45594932D01*
X125717244Y-45185141D01*
X125905849Y-44729806D01*
X126002000Y-44246425D01*
X126002000Y-43753575D01*
X125905849Y-43270194D01*
X125717244Y-42814859D01*
X125443430Y-42405068D01*
X125094932Y-42056570D01*
X124685141Y-41782756D01*
X124229806Y-41594151D01*
X123746425Y-41498000D01*
X123253575Y-41498000D01*
X122770194Y-41594151D01*
X122314859Y-41782756D01*
X121905068Y-42056570D01*
X121556570Y-42405068D01*
X121282756Y-42814859D01*
X121094151Y-43270194D01*
X120998000Y-43753575D01*
X112412608Y-43753575D01*
X112443019Y-43744350D01*
X112562519Y-43590021D01*
X112000000Y-43027502D01*
X111437481Y-43590021D01*
X108415821Y-43590021D01*
X108432236Y-43535909D01*
X108441928Y-43437500D01*
X108441928Y-42566895D01*
X110680834Y-42566895D01*
X110719232Y-42822966D01*
X110755650Y-42943019D01*
X110909979Y-43062519D01*
X111472498Y-42500000D01*
X112527502Y-42500000D01*
X113090021Y-43062519D01*
X113244350Y-42943019D01*
X113306868Y-42691747D01*
X113319166Y-42433105D01*
X113280768Y-42177034D01*
X113244350Y-42056981D01*
X113090021Y-41937481D01*
X112527502Y-42500000D01*
X111472498Y-42500000D01*
X110909979Y-41937481D01*
X110755650Y-42056981D01*
X110693132Y-42308253D01*
X110680834Y-42566895D01*
X108441928Y-42566895D01*
X108441928Y-41562500D01*
X108432236Y-41464091D01*
X108415822Y-41409979D01*
X111437481Y-41409979D01*
X112000000Y-41972498D01*
X112562519Y-41409979D01*
X112443019Y-41255650D01*
X112191747Y-41193132D01*
X111933105Y-41180834D01*
X111677034Y-41219232D01*
X111556981Y-41255650D01*
X111437481Y-41409979D01*
X108415822Y-41409979D01*
X108403531Y-41369464D01*
X108356917Y-41282255D01*
X108294184Y-41205816D01*
X108217745Y-41143083D01*
X108130536Y-41096469D01*
X108035909Y-41067764D01*
X107937500Y-41058072D01*
X106062500Y-41058072D01*
X105964091Y-41067764D01*
X105869464Y-41096469D01*
X105782255Y-41143083D01*
X105705816Y-41205816D01*
X105643083Y-41282255D01*
X105596469Y-41369464D01*
X105567764Y-41464091D01*
X105558072Y-41562500D01*
X93127000Y-41562500D01*
X93127000Y-37358222D01*
X105560500Y-37358222D01*
X105560500Y-37641778D01*
X105615819Y-37919887D01*
X105724332Y-38181859D01*
X105881867Y-38417628D01*
X106082372Y-38618133D01*
X106318141Y-38775668D01*
X106580113Y-38884181D01*
X106858222Y-38939500D01*
X107141778Y-38939500D01*
X107419887Y-38884181D01*
X107681859Y-38775668D01*
X107917628Y-38618133D01*
X107945740Y-38590021D01*
X111437481Y-38590021D01*
X111556981Y-38744350D01*
X111808253Y-38806868D01*
X112066895Y-38819166D01*
X112322966Y-38780768D01*
X112443019Y-38744350D01*
X112562519Y-38590021D01*
X112000000Y-38027502D01*
X111437481Y-38590021D01*
X107945740Y-38590021D01*
X108118133Y-38417628D01*
X108275668Y-38181859D01*
X108384181Y-37919887D01*
X108439500Y-37641778D01*
X108439500Y-37566895D01*
X110680834Y-37566895D01*
X110719232Y-37822966D01*
X110755650Y-37943019D01*
X110909979Y-38062519D01*
X111472498Y-37500000D01*
X112527502Y-37500000D01*
X113090021Y-38062519D01*
X113244350Y-37943019D01*
X113306868Y-37691747D01*
X113319166Y-37433105D01*
X113280768Y-37177034D01*
X113244350Y-37056981D01*
X113090021Y-36937481D01*
X112527502Y-37500000D01*
X111472498Y-37500000D01*
X110909979Y-36937481D01*
X110755650Y-37056981D01*
X110693132Y-37308253D01*
X110680834Y-37566895D01*
X108439500Y-37566895D01*
X108439500Y-37358222D01*
X108384181Y-37080113D01*
X108275668Y-36818141D01*
X108118133Y-36582372D01*
X107945740Y-36409979D01*
X111437481Y-36409979D01*
X112000000Y-36972498D01*
X112562519Y-36409979D01*
X112443019Y-36255650D01*
X112191747Y-36193132D01*
X111933105Y-36180834D01*
X111677034Y-36219232D01*
X111556981Y-36255650D01*
X111437481Y-36409979D01*
X107945740Y-36409979D01*
X107917628Y-36381867D01*
X107681859Y-36224332D01*
X107419887Y-36115819D01*
X107141778Y-36060500D01*
X106858222Y-36060500D01*
X106580113Y-36115819D01*
X106318141Y-36224332D01*
X106082372Y-36381867D01*
X105881867Y-36582372D01*
X105724332Y-36818141D01*
X105615819Y-37080113D01*
X105560500Y-37358222D01*
X93127000Y-37358222D01*
X93127000Y-32753575D01*
X93498000Y-32753575D01*
X93498000Y-33246425D01*
X93594151Y-33729806D01*
X93782756Y-34185141D01*
X94056570Y-34594932D01*
X94405068Y-34943430D01*
X94814859Y-35217244D01*
X95270194Y-35405849D01*
X95753575Y-35502000D01*
X96246425Y-35502000D01*
X96729806Y-35405849D01*
X97185141Y-35217244D01*
X97594932Y-34943430D01*
X97943430Y-34594932D01*
X98217244Y-34185141D01*
X98405849Y-33729806D01*
X98502000Y-33246425D01*
X98502000Y-32753575D01*
X161998000Y-32753575D01*
X161998000Y-33246425D01*
X162094151Y-33729806D01*
X162282756Y-34185141D01*
X162556570Y-34594932D01*
X162905068Y-34943430D01*
X163314859Y-35217244D01*
X163770194Y-35405849D01*
X164253575Y-35502000D01*
X164746425Y-35502000D01*
X165229806Y-35405849D01*
X165685141Y-35217244D01*
X166094932Y-34943430D01*
X166443430Y-34594932D01*
X166717244Y-34185141D01*
X166905849Y-33729806D01*
X167002000Y-33246425D01*
X167002000Y-32753575D01*
X166905849Y-32270194D01*
X166717244Y-31814859D01*
X166443430Y-31405068D01*
X166094932Y-31056570D01*
X165685141Y-30782756D01*
X165229806Y-30594151D01*
X164746425Y-30498000D01*
X164253575Y-30498000D01*
X163770194Y-30594151D01*
X163314859Y-30782756D01*
X162905068Y-31056570D01*
X162556570Y-31405068D01*
X162282756Y-31814859D01*
X162094151Y-32270194D01*
X161998000Y-32753575D01*
X98502000Y-32753575D01*
X98405849Y-32270194D01*
X98217244Y-31814859D01*
X97943430Y-31405068D01*
X97594932Y-31056570D01*
X97185141Y-30782756D01*
X96729806Y-30594151D01*
X96246425Y-30498000D01*
X95753575Y-30498000D01*
X95270194Y-30594151D01*
X94814859Y-30782756D01*
X94405068Y-31056570D01*
X94056570Y-31405068D01*
X93782756Y-31814859D01*
X93594151Y-32270194D01*
X93498000Y-32753575D01*
X93127000Y-32753575D01*
X93127000Y-30127000D01*
X170373000Y-30127000D01*
X170373000Y-84873000D01*
X170373000Y-84873000D01*
G37*
X170373000Y-84873000D02*
X93127000Y-84873000D01*
X93127000Y-81753575D01*
X93498000Y-81753575D01*
X93498000Y-82246425D01*
X93594151Y-82729806D01*
X93782756Y-83185141D01*
X94056570Y-83594932D01*
X94405068Y-83943430D01*
X94814859Y-84217244D01*
X95270194Y-84405849D01*
X95753575Y-84502000D01*
X96246425Y-84502000D01*
X96729806Y-84405849D01*
X97185141Y-84217244D01*
X97594932Y-83943430D01*
X97943430Y-83594932D01*
X98217244Y-83185141D01*
X98405849Y-82729806D01*
X98502000Y-82246425D01*
X98502000Y-81801272D01*
X113823793Y-81801272D01*
X113952404Y-82004539D01*
X114118199Y-82178809D01*
X114314807Y-82317386D01*
X114368731Y-82346189D01*
X114547000Y-82319576D01*
X114547000Y-81623000D01*
X113845301Y-81623000D01*
X113823793Y-81801272D01*
X98502000Y-81801272D01*
X98502000Y-81753575D01*
X98405849Y-81270194D01*
X98217244Y-80814859D01*
X98139648Y-80698728D01*
X113823793Y-80698728D01*
X113845301Y-80877000D01*
X114547000Y-80877000D01*
X114547000Y-80180424D01*
X115293000Y-80180424D01*
X115293000Y-80877000D01*
X115313000Y-80877000D01*
X115313000Y-81623000D01*
X115293000Y-81623000D01*
X115293000Y-82319576D01*
X115471269Y-82346189D01*
X115525193Y-82317386D01*
X115721801Y-82178809D01*
X115887596Y-82004539D01*
X116016207Y-81801272D01*
X115994699Y-81623002D01*
X116147000Y-81623002D01*
X116147000Y-81579113D01*
X116204872Y-81769891D01*
X116330414Y-82004765D01*
X116499366Y-82210634D01*
X116705235Y-82379586D01*
X116940109Y-82505128D01*
X117194962Y-82582437D01*
X117393588Y-82602000D01*
X117526412Y-82602000D01*
X117725038Y-82582437D01*
X117979891Y-82505128D01*
X118214765Y-82379586D01*
X118420634Y-82210634D01*
X118589586Y-82004765D01*
X118715128Y-81769891D01*
X118773000Y-81579113D01*
X118773000Y-81623002D01*
X118925301Y-81623002D01*
X118903793Y-81801272D01*
X119032404Y-82004539D01*
X119198199Y-82178809D01*
X119394807Y-82317386D01*
X119448731Y-82346189D01*
X119627000Y-82319576D01*
X119627000Y-81623000D01*
X119607000Y-81623000D01*
X119607000Y-80877000D01*
X119627000Y-80877000D01*
X119627000Y-80180424D01*
X120373000Y-80180424D01*
X120373000Y-80877000D01*
X120393000Y-80877000D01*
X120393000Y-81623000D01*
X120373000Y-81623000D01*
X120373000Y-82319576D01*
X120551269Y-82346189D01*
X120605193Y-82317386D01*
X120801801Y-82178809D01*
X120967596Y-82004539D01*
X121096207Y-81801272D01*
X121074699Y-81623002D01*
X121185572Y-81623002D01*
X121185572Y-82100000D01*
X121195264Y-82198409D01*
X121223969Y-82293036D01*
X121270583Y-82380245D01*
X121333316Y-82456684D01*
X121409755Y-82519417D01*
X121496964Y-82566031D01*
X121591591Y-82594736D01*
X121690000Y-82604428D01*
X123390000Y-82604428D01*
X123488409Y-82594736D01*
X123583036Y-82566031D01*
X123670245Y-82519417D01*
X123746684Y-82456684D01*
X123809417Y-82380245D01*
X123856031Y-82293036D01*
X123884736Y-82198409D01*
X123894428Y-82100000D01*
X123894428Y-81753575D01*
X140498000Y-81753575D01*
X140498000Y-82246425D01*
X140594151Y-82729806D01*
X140782756Y-83185141D01*
X141056570Y-83594932D01*
X141405068Y-83943430D01*
X141814859Y-84217244D01*
X142270194Y-84405849D01*
X142753575Y-84502000D01*
X143246425Y-84502000D01*
X143729806Y-84405849D01*
X144185141Y-84217244D01*
X144594932Y-83943430D01*
X144943430Y-83594932D01*
X145217244Y-83185141D01*
X145405849Y-82729806D01*
X145502000Y-82246425D01*
X145502000Y-81827334D01*
X160780167Y-81827334D01*
X160926926Y-82003354D01*
X161215620Y-82087806D01*
X161515242Y-82114314D01*
X161814279Y-82081859D01*
X162073074Y-82003354D01*
X162219833Y-81827334D01*
X165860167Y-81827334D01*
X166006926Y-82003354D01*
X166295620Y-82087806D01*
X166595242Y-82114314D01*
X166894279Y-82081859D01*
X167153074Y-82003354D01*
X167299833Y-81827334D01*
X166580000Y-81107502D01*
X165860167Y-81827334D01*
X162219833Y-81827334D01*
X161500000Y-81107502D01*
X160780167Y-81827334D01*
X145502000Y-81827334D01*
X145502000Y-81753575D01*
X145405849Y-81270194D01*
X145217244Y-80814859D01*
X145070501Y-80595242D01*
X159965686Y-80595242D01*
X159998141Y-80894279D01*
X160076646Y-81153074D01*
X160252666Y-81299833D01*
X160972498Y-80580000D01*
X162027502Y-80580000D01*
X162747334Y-81299833D01*
X162923354Y-81153074D01*
X163007806Y-80864380D01*
X163031617Y-80595242D01*
X165045686Y-80595242D01*
X165078141Y-80894279D01*
X165156646Y-81153074D01*
X165332666Y-81299833D01*
X166052498Y-80580000D01*
X167107502Y-80580000D01*
X167827334Y-81299833D01*
X168003354Y-81153074D01*
X168087806Y-80864380D01*
X168114314Y-80564758D01*
X168081859Y-80265721D01*
X168003354Y-80006926D01*
X167827334Y-79860167D01*
X167107502Y-80580000D01*
X166052498Y-80580000D01*
X165332666Y-79860167D01*
X165156646Y-80006926D01*
X165072194Y-80295620D01*
X165045686Y-80595242D01*
X163031617Y-80595242D01*
X163034314Y-80564758D01*
X163001859Y-80265721D01*
X162923354Y-80006926D01*
X162747334Y-79860167D01*
X162027502Y-80580000D01*
X160972498Y-80580000D01*
X160252666Y-79860167D01*
X160076646Y-80006926D01*
X159992194Y-80295620D01*
X159965686Y-80595242D01*
X145070501Y-80595242D01*
X144943430Y-80405068D01*
X144594932Y-80056570D01*
X144185141Y-79782756D01*
X143729806Y-79594151D01*
X143246425Y-79498000D01*
X142753575Y-79498000D01*
X142270194Y-79594151D01*
X141814859Y-79782756D01*
X141405068Y-80056570D01*
X141056570Y-80405068D01*
X140782756Y-80814859D01*
X140594151Y-81270194D01*
X140498000Y-81753575D01*
X123894428Y-81753575D01*
X123894428Y-80400000D01*
X123884736Y-80301591D01*
X123856031Y-80206964D01*
X123809417Y-80119755D01*
X123746684Y-80043316D01*
X123670245Y-79980583D01*
X123583036Y-79933969D01*
X123488409Y-79905264D01*
X123390000Y-79895572D01*
X121690000Y-79895572D01*
X121591591Y-79905264D01*
X121496964Y-79933969D01*
X121409755Y-79980583D01*
X121333316Y-80043316D01*
X121270583Y-80119755D01*
X121223969Y-80206964D01*
X121195264Y-80301591D01*
X121185572Y-80400000D01*
X121185572Y-80876998D01*
X121074699Y-80876998D01*
X121096207Y-80698728D01*
X120967596Y-80495461D01*
X120801801Y-80321191D01*
X120605193Y-80182614D01*
X120551269Y-80153811D01*
X120373000Y-80180424D01*
X119627000Y-80180424D01*
X119448731Y-80153811D01*
X119394807Y-80182614D01*
X119198199Y-80321191D01*
X119032404Y-80495461D01*
X118903793Y-80698728D01*
X118925301Y-80876998D01*
X118773000Y-80876998D01*
X118773000Y-80920887D01*
X118715128Y-80730109D01*
X118589586Y-80495235D01*
X118420634Y-80289366D01*
X118214765Y-80120414D01*
X117979891Y-79994872D01*
X117725038Y-79917563D01*
X117526412Y-79898000D01*
X117393588Y-79898000D01*
X117194962Y-79917563D01*
X116940109Y-79994872D01*
X116705235Y-80120414D01*
X116499366Y-80289366D01*
X116330414Y-80495235D01*
X116204872Y-80730109D01*
X116147000Y-80920887D01*
X116147000Y-80876998D01*
X115994699Y-80876998D01*
X116016207Y-80698728D01*
X115887596Y-80495461D01*
X115721801Y-80321191D01*
X115525193Y-80182614D01*
X115471269Y-80153811D01*
X115293000Y-80180424D01*
X114547000Y-80180424D01*
X114368731Y-80153811D01*
X114314807Y-80182614D01*
X114118199Y-80321191D01*
X113952404Y-80495461D01*
X113823793Y-80698728D01*
X98139648Y-80698728D01*
X97943430Y-80405068D01*
X97594932Y-80056570D01*
X97185141Y-79782756D01*
X96729806Y-79594151D01*
X96246425Y-79498000D01*
X95753575Y-79498000D01*
X95270194Y-79594151D01*
X94814859Y-79782756D01*
X94405068Y-80056570D01*
X94056570Y-80405068D01*
X93782756Y-80814859D01*
X93594151Y-81270194D01*
X93498000Y-81753575D01*
X93127000Y-81753575D01*
X93127000Y-75835269D01*
X96332233Y-75835269D01*
X96510370Y-76036953D01*
X96842671Y-76146964D01*
X97190050Y-76190032D01*
X97539156Y-76164502D01*
X97876574Y-76071356D01*
X97959630Y-76036953D01*
X98137767Y-75835269D01*
X97920167Y-75617669D01*
X115633000Y-75617669D01*
X115633000Y-75992331D01*
X115706093Y-76359793D01*
X115849469Y-76705935D01*
X116057620Y-77017454D01*
X116322546Y-77282380D01*
X116634065Y-77490531D01*
X116980207Y-77633907D01*
X117347669Y-77707000D01*
X117722331Y-77707000D01*
X118089793Y-77633907D01*
X118435935Y-77490531D01*
X118747454Y-77282380D01*
X119012380Y-77017454D01*
X119220531Y-76705935D01*
X119363907Y-76359793D01*
X119435000Y-76002386D01*
X119506093Y-76359793D01*
X119649469Y-76705935D01*
X119857620Y-77017454D01*
X120122546Y-77282380D01*
X120434065Y-77490531D01*
X120780207Y-77633907D01*
X121147669Y-77707000D01*
X121522331Y-77707000D01*
X121889793Y-77633907D01*
X122235935Y-77490531D01*
X122547454Y-77282380D01*
X122812380Y-77017454D01*
X123020531Y-76705935D01*
X123163907Y-76359793D01*
X123217747Y-76089119D01*
X123978383Y-76089119D01*
X124199774Y-76326814D01*
X124592672Y-76472340D01*
X125006411Y-76538420D01*
X125425091Y-76522513D01*
X125832623Y-76425232D01*
X126070226Y-76326814D01*
X126291617Y-76089119D01*
X125135000Y-74932502D01*
X123978383Y-76089119D01*
X123217747Y-76089119D01*
X123237000Y-75992331D01*
X123237000Y-75617669D01*
X123163907Y-75250207D01*
X123020531Y-74904065D01*
X122812380Y-74592546D01*
X122547454Y-74327620D01*
X122470815Y-74276411D01*
X123001580Y-74276411D01*
X123017487Y-74695091D01*
X123114768Y-75102623D01*
X123213186Y-75340226D01*
X123450881Y-75561617D01*
X124607498Y-74405000D01*
X125662502Y-74405000D01*
X126819119Y-75561617D01*
X127056814Y-75340226D01*
X127202340Y-74947328D01*
X127268420Y-74533589D01*
X127252513Y-74114909D01*
X127189771Y-73852066D01*
X148325856Y-73852066D01*
X148325856Y-74147934D01*
X148383577Y-74438117D01*
X148496800Y-74711464D01*
X148661176Y-74957469D01*
X148870387Y-75166680D01*
X149116392Y-75331056D01*
X149146215Y-75343409D01*
X149055721Y-75561883D01*
X148998000Y-75852066D01*
X148998000Y-76147934D01*
X149055721Y-76438117D01*
X149168944Y-76711464D01*
X149333320Y-76957469D01*
X149542531Y-77166680D01*
X149788536Y-77331056D01*
X150061883Y-77444279D01*
X150352066Y-77502000D01*
X150647934Y-77502000D01*
X150938117Y-77444279D01*
X151211464Y-77331056D01*
X151457469Y-77166680D01*
X151666680Y-76957469D01*
X151831056Y-76711464D01*
X151944279Y-76438117D01*
X152002000Y-76147934D01*
X152002000Y-75852066D01*
X151944279Y-75561883D01*
X151831056Y-75288536D01*
X151666680Y-75042531D01*
X151624149Y-75000000D01*
X153995572Y-75000000D01*
X153995572Y-77000000D01*
X154005264Y-77098409D01*
X154033969Y-77193036D01*
X154080583Y-77280245D01*
X154143316Y-77356684D01*
X154219755Y-77419417D01*
X154306964Y-77466031D01*
X154401591Y-77494736D01*
X154500000Y-77504428D01*
X154667716Y-77504428D01*
X154667716Y-79000000D01*
X154677408Y-79098409D01*
X154706113Y-79193036D01*
X154752727Y-79280245D01*
X154815460Y-79356684D01*
X154891899Y-79419417D01*
X154979108Y-79466031D01*
X155073735Y-79494736D01*
X155172144Y-79504428D01*
X157172144Y-79504428D01*
X157270553Y-79494736D01*
X157365180Y-79466031D01*
X157452389Y-79419417D01*
X157528828Y-79356684D01*
X157585743Y-79287334D01*
X160780167Y-79287334D01*
X160799065Y-79310000D01*
X160780167Y-79332666D01*
X161500000Y-80052498D01*
X162219833Y-79332666D01*
X162200935Y-79310000D01*
X162219833Y-79287334D01*
X165860167Y-79287334D01*
X165879065Y-79310000D01*
X165860167Y-79332666D01*
X166580000Y-80052498D01*
X167299833Y-79332666D01*
X167280935Y-79310000D01*
X167299833Y-79287334D01*
X166580000Y-78567502D01*
X165860167Y-79287334D01*
X162219833Y-79287334D01*
X161500000Y-78567502D01*
X160780167Y-79287334D01*
X157585743Y-79287334D01*
X157591561Y-79280245D01*
X157638175Y-79193036D01*
X157666880Y-79098409D01*
X157676572Y-79000000D01*
X157676572Y-78055242D01*
X159965686Y-78055242D01*
X159998141Y-78354279D01*
X160076646Y-78613074D01*
X160252666Y-78759833D01*
X160972498Y-78040000D01*
X162027502Y-78040000D01*
X162747334Y-78759833D01*
X162923354Y-78613074D01*
X163007806Y-78324380D01*
X163031617Y-78055242D01*
X165045686Y-78055242D01*
X165078141Y-78354279D01*
X165156646Y-78613074D01*
X165332666Y-78759833D01*
X166052498Y-78040000D01*
X167107502Y-78040000D01*
X167827334Y-78759833D01*
X168003354Y-78613074D01*
X168087806Y-78324380D01*
X168114314Y-78024758D01*
X168081859Y-77725721D01*
X168003354Y-77466926D01*
X167827334Y-77320167D01*
X167107502Y-78040000D01*
X166052498Y-78040000D01*
X165332666Y-77320167D01*
X165156646Y-77466926D01*
X165072194Y-77755620D01*
X165045686Y-78055242D01*
X163031617Y-78055242D01*
X163034314Y-78024758D01*
X163001859Y-77725721D01*
X162923354Y-77466926D01*
X162747334Y-77320167D01*
X162027502Y-78040000D01*
X160972498Y-78040000D01*
X160252666Y-77320167D01*
X160076646Y-77466926D01*
X159992194Y-77755620D01*
X159965686Y-78055242D01*
X157676572Y-78055242D01*
X157676572Y-77000000D01*
X157666880Y-76901591D01*
X157638175Y-76806964D01*
X157606303Y-76747334D01*
X160780167Y-76747334D01*
X160799065Y-76770000D01*
X160780167Y-76792666D01*
X161500000Y-77512498D01*
X162219833Y-76792666D01*
X162200935Y-76770000D01*
X162219833Y-76747334D01*
X165860167Y-76747334D01*
X165879065Y-76770000D01*
X165860167Y-76792666D01*
X166580000Y-77512498D01*
X167299833Y-76792666D01*
X167280935Y-76770000D01*
X167299833Y-76747334D01*
X166580000Y-76027502D01*
X165860167Y-76747334D01*
X162219833Y-76747334D01*
X161500000Y-76027502D01*
X160780167Y-76747334D01*
X157606303Y-76747334D01*
X157591561Y-76719755D01*
X157528828Y-76643316D01*
X157452389Y-76580583D01*
X157365180Y-76533969D01*
X157270553Y-76505264D01*
X157172144Y-76495572D01*
X157004428Y-76495572D01*
X157004428Y-75515242D01*
X159965686Y-75515242D01*
X159998141Y-75814279D01*
X160076646Y-76073074D01*
X160252666Y-76219833D01*
X160972498Y-75500000D01*
X162027502Y-75500000D01*
X162747334Y-76219833D01*
X162923354Y-76073074D01*
X163007806Y-75784380D01*
X163031617Y-75515242D01*
X165045686Y-75515242D01*
X165078141Y-75814279D01*
X165156646Y-76073074D01*
X165332666Y-76219833D01*
X166052498Y-75500000D01*
X167107502Y-75500000D01*
X167827334Y-76219833D01*
X168003354Y-76073074D01*
X168087806Y-75784380D01*
X168114314Y-75484758D01*
X168081859Y-75185721D01*
X168003354Y-74926926D01*
X167827334Y-74780167D01*
X167107502Y-75500000D01*
X166052498Y-75500000D01*
X165332666Y-74780167D01*
X165156646Y-74926926D01*
X165072194Y-75215620D01*
X165045686Y-75515242D01*
X163031617Y-75515242D01*
X163034314Y-75484758D01*
X163001859Y-75185721D01*
X162923354Y-74926926D01*
X162747334Y-74780167D01*
X162027502Y-75500000D01*
X160972498Y-75500000D01*
X160252666Y-74780167D01*
X160076646Y-74926926D01*
X159992194Y-75215620D01*
X159965686Y-75515242D01*
X157004428Y-75515242D01*
X157004428Y-75000000D01*
X156994736Y-74901591D01*
X156966031Y-74806964D01*
X156919417Y-74719755D01*
X156856684Y-74643316D01*
X156780245Y-74580583D01*
X156693036Y-74533969D01*
X156598409Y-74505264D01*
X156500000Y-74495572D01*
X154500000Y-74495572D01*
X154401591Y-74505264D01*
X154306964Y-74533969D01*
X154219755Y-74580583D01*
X154143316Y-74643316D01*
X154080583Y-74719755D01*
X154033969Y-74806964D01*
X154005264Y-74901591D01*
X153995572Y-75000000D01*
X151624149Y-75000000D01*
X151457469Y-74833320D01*
X151211464Y-74668944D01*
X151181641Y-74656591D01*
X151272135Y-74438117D01*
X151309023Y-74252666D01*
X160780167Y-74252666D01*
X161500000Y-74972498D01*
X162219833Y-74252666D01*
X165860167Y-74252666D01*
X166580000Y-74972498D01*
X167299833Y-74252666D01*
X167153074Y-74076646D01*
X166864380Y-73992194D01*
X166564758Y-73965686D01*
X166265721Y-73998141D01*
X166006926Y-74076646D01*
X165860167Y-74252666D01*
X162219833Y-74252666D01*
X162073074Y-74076646D01*
X161784380Y-73992194D01*
X161484758Y-73965686D01*
X161185721Y-73998141D01*
X160926926Y-74076646D01*
X160780167Y-74252666D01*
X151309023Y-74252666D01*
X151329856Y-74147934D01*
X151329856Y-73852066D01*
X151272135Y-73561883D01*
X151158912Y-73288536D01*
X150994536Y-73042531D01*
X150785325Y-72833320D01*
X150539320Y-72668944D01*
X150265973Y-72555721D01*
X149975790Y-72498000D01*
X149679922Y-72498000D01*
X149389739Y-72555721D01*
X149116392Y-72668944D01*
X148870387Y-72833320D01*
X148661176Y-73042531D01*
X148496800Y-73288536D01*
X148383577Y-73561883D01*
X148325856Y-73852066D01*
X127189771Y-73852066D01*
X127155232Y-73707377D01*
X127056814Y-73469774D01*
X126819119Y-73248383D01*
X125662502Y-74405000D01*
X124607498Y-74405000D01*
X123450881Y-73248383D01*
X123213186Y-73469774D01*
X123067660Y-73862672D01*
X123001580Y-74276411D01*
X122470815Y-74276411D01*
X122235935Y-74119469D01*
X121889793Y-73976093D01*
X121522331Y-73903000D01*
X121147669Y-73903000D01*
X120780207Y-73976093D01*
X120434065Y-74119469D01*
X120122546Y-74327620D01*
X119857620Y-74592546D01*
X119649469Y-74904065D01*
X119506093Y-75250207D01*
X119435000Y-75607614D01*
X119363907Y-75250207D01*
X119220531Y-74904065D01*
X119012380Y-74592546D01*
X118747454Y-74327620D01*
X118435935Y-74119469D01*
X118089793Y-73976093D01*
X117722331Y-73903000D01*
X117347669Y-73903000D01*
X116980207Y-73976093D01*
X116634065Y-74119469D01*
X116322546Y-74327620D01*
X116057620Y-74592546D01*
X115849469Y-74904065D01*
X115706093Y-75250207D01*
X115633000Y-75617669D01*
X97920167Y-75617669D01*
X97235000Y-74932502D01*
X96332233Y-75835269D01*
X93127000Y-75835269D01*
X93127000Y-74360050D01*
X95449968Y-74360050D01*
X95475498Y-74709156D01*
X95568644Y-75046574D01*
X95603047Y-75129630D01*
X95804731Y-75307767D01*
X96707498Y-74405000D01*
X97762502Y-74405000D01*
X98665269Y-75307767D01*
X98866953Y-75129630D01*
X98976964Y-74797329D01*
X99020032Y-74449950D01*
X98994502Y-74100844D01*
X98901356Y-73763426D01*
X98866953Y-73680370D01*
X98665269Y-73502233D01*
X97762502Y-74405000D01*
X96707498Y-74405000D01*
X95804731Y-73502233D01*
X95603047Y-73680370D01*
X95493036Y-74012671D01*
X95449968Y-74360050D01*
X93127000Y-74360050D01*
X93127000Y-72974731D01*
X96332233Y-72974731D01*
X97235000Y-73877498D01*
X98137767Y-72974731D01*
X97959630Y-72773047D01*
X97627329Y-72663036D01*
X97279950Y-72619968D01*
X96930844Y-72645498D01*
X96593426Y-72738644D01*
X96510370Y-72773047D01*
X96332233Y-72974731D01*
X93127000Y-72974731D01*
X93127000Y-59017669D01*
X95333000Y-59017669D01*
X95333000Y-59392331D01*
X95406093Y-59759793D01*
X95549469Y-60105935D01*
X95757620Y-60417454D01*
X96022546Y-60682380D01*
X96334065Y-60890531D01*
X96680207Y-61033907D01*
X97037614Y-61105000D01*
X96680207Y-61176093D01*
X96334065Y-61319469D01*
X96022546Y-61527620D01*
X95757620Y-61792546D01*
X95549469Y-62104065D01*
X95406093Y-62450207D01*
X95333000Y-62817669D01*
X95333000Y-63192331D01*
X95406093Y-63559793D01*
X95549469Y-63905935D01*
X95757620Y-64217454D01*
X96022546Y-64482380D01*
X96334065Y-64690531D01*
X96680207Y-64833907D01*
X97037614Y-64905000D01*
X96680207Y-64976093D01*
X96334065Y-65119469D01*
X96022546Y-65327620D01*
X95757620Y-65592546D01*
X95549469Y-65904065D01*
X95406093Y-66250207D01*
X95333000Y-66617669D01*
X95333000Y-66992331D01*
X95406093Y-67359793D01*
X95549469Y-67705935D01*
X95757620Y-68017454D01*
X96022546Y-68282380D01*
X96334065Y-68490531D01*
X96680207Y-68633907D01*
X97047669Y-68707000D01*
X97422331Y-68707000D01*
X97789793Y-68633907D01*
X98135935Y-68490531D01*
X98447454Y-68282380D01*
X98712380Y-68017454D01*
X98920531Y-67705935D01*
X99063907Y-67359793D01*
X99137000Y-66992331D01*
X99137000Y-66617669D01*
X99063907Y-66250207D01*
X98920531Y-65904065D01*
X98712380Y-65592546D01*
X98447454Y-65327620D01*
X98135935Y-65119469D01*
X97789793Y-64976093D01*
X97432386Y-64905000D01*
X97789793Y-64833907D01*
X98135935Y-64690531D01*
X98447454Y-64482380D01*
X98712380Y-64217454D01*
X98920531Y-63905935D01*
X99063907Y-63559793D01*
X99137000Y-63192331D01*
X99137000Y-62817669D01*
X99063907Y-62450207D01*
X98920531Y-62104065D01*
X98712380Y-61792546D01*
X98447454Y-61527620D01*
X98135935Y-61319469D01*
X97789793Y-61176093D01*
X97432386Y-61105000D01*
X97789793Y-61033907D01*
X98135935Y-60890531D01*
X98447454Y-60682380D01*
X98712380Y-60417454D01*
X98920531Y-60105935D01*
X99063907Y-59759793D01*
X99137000Y-59392331D01*
X99137000Y-59017669D01*
X99130144Y-58983197D01*
X122883000Y-58983197D01*
X122883000Y-59426803D01*
X122969544Y-59861884D01*
X123139304Y-60271722D01*
X123385758Y-60640566D01*
X123699434Y-60954242D01*
X124068278Y-61200696D01*
X124294544Y-61294418D01*
X124234065Y-61319469D01*
X123922546Y-61527620D01*
X123657620Y-61792546D01*
X123449469Y-62104065D01*
X123306093Y-62450207D01*
X123233000Y-62817669D01*
X123233000Y-63192331D01*
X123306093Y-63559793D01*
X123449469Y-63905935D01*
X123657620Y-64217454D01*
X123922546Y-64482380D01*
X124234065Y-64690531D01*
X124580207Y-64833907D01*
X124937614Y-64905000D01*
X124580207Y-64976093D01*
X124234065Y-65119469D01*
X123922546Y-65327620D01*
X123657620Y-65592546D01*
X123449469Y-65904065D01*
X123306093Y-66250207D01*
X123233000Y-66617669D01*
X123233000Y-66992331D01*
X123306093Y-67359793D01*
X123449469Y-67705935D01*
X123657620Y-68017454D01*
X123922546Y-68282380D01*
X124234065Y-68490531D01*
X124580207Y-68633907D01*
X124937614Y-68705000D01*
X124580207Y-68776093D01*
X124234065Y-68919469D01*
X123922546Y-69127620D01*
X123657620Y-69392546D01*
X123449469Y-69704065D01*
X123306093Y-70050207D01*
X123233000Y-70417669D01*
X123233000Y-70792331D01*
X123306093Y-71159793D01*
X123449469Y-71505935D01*
X123657620Y-71817454D01*
X123922546Y-72082380D01*
X124234065Y-72290531D01*
X124452728Y-72381104D01*
X124437377Y-72384768D01*
X124199774Y-72483186D01*
X123978383Y-72720881D01*
X125135000Y-73877498D01*
X126291617Y-72720881D01*
X126070226Y-72483186D01*
X125806578Y-72385533D01*
X126035935Y-72290531D01*
X126347454Y-72082380D01*
X126612380Y-71817454D01*
X126820531Y-71505935D01*
X126963907Y-71159793D01*
X127037000Y-70792331D01*
X127037000Y-70417669D01*
X126963907Y-70050207D01*
X126820531Y-69704065D01*
X126612380Y-69392546D01*
X126601447Y-69381613D01*
X143298000Y-69381613D01*
X143298000Y-69618387D01*
X143344192Y-69850610D01*
X143434801Y-70069361D01*
X143566346Y-70266230D01*
X143733770Y-70433654D01*
X143930639Y-70565199D01*
X144149390Y-70655808D01*
X144381613Y-70702000D01*
X144618387Y-70702000D01*
X144850610Y-70655808D01*
X145069361Y-70565199D01*
X145266230Y-70433654D01*
X145433654Y-70266230D01*
X145565199Y-70069361D01*
X145655808Y-69850610D01*
X145702000Y-69618387D01*
X145702000Y-69381613D01*
X145655808Y-69149390D01*
X145565199Y-68930639D01*
X145433654Y-68733770D01*
X145266230Y-68566346D01*
X145069361Y-68434801D01*
X144850610Y-68344192D01*
X144618387Y-68298000D01*
X144381613Y-68298000D01*
X144149390Y-68344192D01*
X143930639Y-68434801D01*
X143733770Y-68566346D01*
X143566346Y-68733770D01*
X143434801Y-68930639D01*
X143344192Y-69149390D01*
X143298000Y-69381613D01*
X126601447Y-69381613D01*
X126347454Y-69127620D01*
X126035935Y-68919469D01*
X125689793Y-68776093D01*
X125332386Y-68705000D01*
X125689793Y-68633907D01*
X126035935Y-68490531D01*
X126041527Y-68486794D01*
X135540707Y-68486794D01*
X135642071Y-68627233D01*
X135868861Y-68675402D01*
X136100690Y-68678401D01*
X136328650Y-68636115D01*
X136357929Y-68627233D01*
X136459293Y-68486794D01*
X136000000Y-68027502D01*
X135540707Y-68486794D01*
X126041527Y-68486794D01*
X126347454Y-68282380D01*
X126612380Y-68017454D01*
X126820531Y-67705935D01*
X126864124Y-67600690D01*
X134821599Y-67600690D01*
X134863885Y-67828650D01*
X134872767Y-67857929D01*
X135013206Y-67959293D01*
X135472498Y-67500000D01*
X136527502Y-67500000D01*
X136986794Y-67959293D01*
X137127233Y-67857929D01*
X137175402Y-67631139D01*
X137178401Y-67399310D01*
X137136115Y-67171350D01*
X137127233Y-67142071D01*
X136986794Y-67040707D01*
X136527502Y-67500000D01*
X135472498Y-67500000D01*
X135013206Y-67040707D01*
X134872767Y-67142071D01*
X134824598Y-67368861D01*
X134821599Y-67600690D01*
X126864124Y-67600690D01*
X126963907Y-67359793D01*
X127037000Y-66992331D01*
X127037000Y-66617669D01*
X127016221Y-66513206D01*
X135540707Y-66513206D01*
X136000000Y-66972498D01*
X136459293Y-66513206D01*
X136440230Y-66486794D01*
X150540707Y-66486794D01*
X150642071Y-66627233D01*
X150868861Y-66675402D01*
X151100690Y-66678401D01*
X151328650Y-66636115D01*
X151357929Y-66627233D01*
X151459293Y-66486794D01*
X151000000Y-66027502D01*
X150540707Y-66486794D01*
X136440230Y-66486794D01*
X136357929Y-66372767D01*
X136131139Y-66324598D01*
X135899310Y-66321599D01*
X135671350Y-66363885D01*
X135642071Y-66372767D01*
X135540707Y-66513206D01*
X127016221Y-66513206D01*
X126963907Y-66250207D01*
X126820531Y-65904065D01*
X126617822Y-65600690D01*
X149821599Y-65600690D01*
X149863885Y-65828650D01*
X149872767Y-65857929D01*
X150013206Y-65959293D01*
X150472498Y-65500000D01*
X151527502Y-65500000D01*
X151986794Y-65959293D01*
X152127233Y-65857929D01*
X152175402Y-65631139D01*
X152178401Y-65399310D01*
X152136115Y-65171350D01*
X152127233Y-65142071D01*
X151986794Y-65040707D01*
X151527502Y-65500000D01*
X150472498Y-65500000D01*
X150013206Y-65040707D01*
X149872767Y-65142071D01*
X149824598Y-65368861D01*
X149821599Y-65600690D01*
X126617822Y-65600690D01*
X126612380Y-65592546D01*
X126347454Y-65327620D01*
X126035935Y-65119469D01*
X125689793Y-64976093D01*
X125332386Y-64905000D01*
X125689793Y-64833907D01*
X126035935Y-64690531D01*
X126347454Y-64482380D01*
X126612380Y-64217454D01*
X126820531Y-63905935D01*
X126963907Y-63559793D01*
X127035474Y-63200000D01*
X134695572Y-63200000D01*
X134695572Y-64800000D01*
X134705264Y-64898409D01*
X134733969Y-64993036D01*
X134780583Y-65080245D01*
X134843316Y-65156684D01*
X134919755Y-65219417D01*
X135006964Y-65266031D01*
X135101591Y-65294736D01*
X135200000Y-65304428D01*
X136800000Y-65304428D01*
X136898409Y-65294736D01*
X136993036Y-65266031D01*
X137080245Y-65219417D01*
X137156684Y-65156684D01*
X137219417Y-65080245D01*
X137266031Y-64993036D01*
X137280158Y-64946464D01*
X143560422Y-64946464D01*
X143681184Y-65119651D01*
X143833412Y-65265950D01*
X143973539Y-65359557D01*
X144127000Y-65329213D01*
X144127000Y-64793000D01*
X144873000Y-64793000D01*
X144873000Y-65329213D01*
X145026461Y-65359557D01*
X145166588Y-65265950D01*
X145318816Y-65119651D01*
X145439578Y-64946464D01*
X145416117Y-64793000D01*
X144873000Y-64793000D01*
X144127000Y-64793000D01*
X143583883Y-64793000D01*
X143560422Y-64946464D01*
X137280158Y-64946464D01*
X137294736Y-64898409D01*
X137304428Y-64800000D01*
X137304428Y-64513206D01*
X150540707Y-64513206D01*
X151000000Y-64972498D01*
X151272498Y-64700000D01*
X153195572Y-64700000D01*
X153195572Y-66300000D01*
X153205264Y-66398409D01*
X153233969Y-66493036D01*
X153280583Y-66580245D01*
X153343316Y-66656684D01*
X153419755Y-66719417D01*
X153506964Y-66766031D01*
X153601591Y-66794736D01*
X153700000Y-66804428D01*
X155300000Y-66804428D01*
X155398409Y-66794736D01*
X155493036Y-66766031D01*
X155580245Y-66719417D01*
X155656684Y-66656684D01*
X155719417Y-66580245D01*
X155766031Y-66493036D01*
X155794736Y-66398409D01*
X155804428Y-66300000D01*
X155804428Y-64700000D01*
X155794736Y-64601591D01*
X155766031Y-64506964D01*
X155719417Y-64419755D01*
X155656684Y-64343316D01*
X155580245Y-64280583D01*
X155493036Y-64233969D01*
X155398409Y-64205264D01*
X155300000Y-64195572D01*
X153700000Y-64195572D01*
X153601591Y-64205264D01*
X153506964Y-64233969D01*
X153419755Y-64280583D01*
X153343316Y-64343316D01*
X153280583Y-64419755D01*
X153233969Y-64506964D01*
X153205264Y-64601591D01*
X153195572Y-64700000D01*
X151272498Y-64700000D01*
X151459293Y-64513206D01*
X151357929Y-64372767D01*
X151131139Y-64324598D01*
X150899310Y-64321599D01*
X150671350Y-64363885D01*
X150642071Y-64372767D01*
X150540707Y-64513206D01*
X137304428Y-64513206D01*
X137304428Y-63893536D01*
X143560422Y-63893536D01*
X143583883Y-64047000D01*
X144127000Y-64047000D01*
X144127000Y-63510787D01*
X144873000Y-63510787D01*
X144873000Y-64047000D01*
X145416117Y-64047000D01*
X145439578Y-63893536D01*
X145318816Y-63720349D01*
X145166588Y-63574050D01*
X145026461Y-63480443D01*
X144873000Y-63510787D01*
X144127000Y-63510787D01*
X143973539Y-63480443D01*
X143833412Y-63574050D01*
X143681184Y-63720349D01*
X143560422Y-63893536D01*
X137304428Y-63893536D01*
X137304428Y-63200000D01*
X137294736Y-63101591D01*
X137266031Y-63006964D01*
X137219417Y-62919755D01*
X137156684Y-62843316D01*
X137080245Y-62780583D01*
X136993036Y-62733969D01*
X136898409Y-62705264D01*
X136800000Y-62695572D01*
X135200000Y-62695572D01*
X135101591Y-62705264D01*
X135006964Y-62733969D01*
X134919755Y-62780583D01*
X134843316Y-62843316D01*
X134780583Y-62919755D01*
X134733969Y-63006964D01*
X134705264Y-63101591D01*
X134695572Y-63200000D01*
X127035474Y-63200000D01*
X127037000Y-63192331D01*
X127037000Y-62817669D01*
X126963907Y-62450207D01*
X126884000Y-62257292D01*
X159768000Y-62257292D01*
X159768000Y-62582708D01*
X159831486Y-62901871D01*
X159956017Y-63202515D01*
X160136808Y-63473088D01*
X160353720Y-63690000D01*
X160136808Y-63906912D01*
X159956017Y-64177485D01*
X159831486Y-64478129D01*
X159768000Y-64797292D01*
X159768000Y-65122708D01*
X159831486Y-65441871D01*
X159956017Y-65742515D01*
X160136808Y-66013088D01*
X160353720Y-66230000D01*
X160136808Y-66446912D01*
X159956017Y-66717485D01*
X159831486Y-67018129D01*
X159768000Y-67337292D01*
X159768000Y-67662708D01*
X159831486Y-67981871D01*
X159956017Y-68282515D01*
X160136808Y-68553088D01*
X160366912Y-68783192D01*
X160637485Y-68963983D01*
X160938129Y-69088514D01*
X161257292Y-69152000D01*
X161582708Y-69152000D01*
X161901871Y-69088514D01*
X162202515Y-68963983D01*
X162473088Y-68783192D01*
X162703192Y-68553088D01*
X162883983Y-68282515D01*
X163008514Y-67981871D01*
X163072000Y-67662708D01*
X163072000Y-67337292D01*
X163008514Y-67018129D01*
X162883983Y-66717485D01*
X162703192Y-66446912D01*
X162486280Y-66230000D01*
X162703192Y-66013088D01*
X162883983Y-65742515D01*
X163008514Y-65441871D01*
X163072000Y-65122708D01*
X163072000Y-64797292D01*
X163008514Y-64478129D01*
X162883983Y-64177485D01*
X162703192Y-63906912D01*
X162486280Y-63690000D01*
X162703192Y-63473088D01*
X162883983Y-63202515D01*
X163008514Y-62901871D01*
X163072000Y-62582708D01*
X163072000Y-62257292D01*
X164848000Y-62257292D01*
X164848000Y-62582708D01*
X164911486Y-62901871D01*
X165036017Y-63202515D01*
X165216808Y-63473088D01*
X165433720Y-63690000D01*
X165216808Y-63906912D01*
X165036017Y-64177485D01*
X164911486Y-64478129D01*
X164848000Y-64797292D01*
X164848000Y-65122708D01*
X164911486Y-65441871D01*
X165036017Y-65742515D01*
X165216808Y-66013088D01*
X165433720Y-66230000D01*
X165216808Y-66446912D01*
X165036017Y-66717485D01*
X164911486Y-67018129D01*
X164848000Y-67337292D01*
X164848000Y-67662708D01*
X164911486Y-67981871D01*
X165036017Y-68282515D01*
X165216808Y-68553088D01*
X165446912Y-68783192D01*
X165717485Y-68963983D01*
X166018129Y-69088514D01*
X166337292Y-69152000D01*
X166662708Y-69152000D01*
X166981871Y-69088514D01*
X167282515Y-68963983D01*
X167553088Y-68783192D01*
X167783192Y-68553088D01*
X167963983Y-68282515D01*
X168088514Y-67981871D01*
X168152000Y-67662708D01*
X168152000Y-67337292D01*
X168088514Y-67018129D01*
X167963983Y-66717485D01*
X167783192Y-66446912D01*
X167566280Y-66230000D01*
X167783192Y-66013088D01*
X167963983Y-65742515D01*
X168088514Y-65441871D01*
X168152000Y-65122708D01*
X168152000Y-64797292D01*
X168088514Y-64478129D01*
X167963983Y-64177485D01*
X167783192Y-63906912D01*
X167566280Y-63690000D01*
X167783192Y-63473088D01*
X167963983Y-63202515D01*
X168088514Y-62901871D01*
X168152000Y-62582708D01*
X168152000Y-62257292D01*
X168088514Y-61938129D01*
X167963983Y-61637485D01*
X167783192Y-61366912D01*
X167553088Y-61136808D01*
X167282515Y-60956017D01*
X166981871Y-60831486D01*
X166662708Y-60768000D01*
X166337292Y-60768000D01*
X166018129Y-60831486D01*
X165717485Y-60956017D01*
X165446912Y-61136808D01*
X165216808Y-61366912D01*
X165036017Y-61637485D01*
X164911486Y-61938129D01*
X164848000Y-62257292D01*
X163072000Y-62257292D01*
X163008514Y-61938129D01*
X162883983Y-61637485D01*
X162703192Y-61366912D01*
X162473088Y-61136808D01*
X162202515Y-60956017D01*
X161901871Y-60831486D01*
X161582708Y-60768000D01*
X161257292Y-60768000D01*
X160938129Y-60831486D01*
X160637485Y-60956017D01*
X160366912Y-61136808D01*
X160136808Y-61366912D01*
X159956017Y-61637485D01*
X159831486Y-61938129D01*
X159768000Y-62257292D01*
X126884000Y-62257292D01*
X126820531Y-62104065D01*
X126612380Y-61792546D01*
X126347454Y-61527620D01*
X126035935Y-61319469D01*
X125975456Y-61294418D01*
X126201722Y-61200696D01*
X126570566Y-60954242D01*
X126884242Y-60640566D01*
X127130696Y-60271722D01*
X127300456Y-59861884D01*
X127387000Y-59426803D01*
X127387000Y-58983197D01*
X127300456Y-58548116D01*
X127130696Y-58138278D01*
X126884242Y-57769434D01*
X126570566Y-57455758D01*
X126201722Y-57209304D01*
X125791884Y-57039544D01*
X125356803Y-56953000D01*
X124913197Y-56953000D01*
X124478116Y-57039544D01*
X124068278Y-57209304D01*
X123699434Y-57455758D01*
X123385758Y-57769434D01*
X123139304Y-58138278D01*
X122969544Y-58548116D01*
X122883000Y-58983197D01*
X99130144Y-58983197D01*
X99063907Y-58650207D01*
X98920531Y-58304065D01*
X98712380Y-57992546D01*
X98447454Y-57727620D01*
X98135935Y-57519469D01*
X97789793Y-57376093D01*
X97422331Y-57303000D01*
X97047669Y-57303000D01*
X96680207Y-57376093D01*
X96334065Y-57519469D01*
X96022546Y-57727620D01*
X95757620Y-57992546D01*
X95549469Y-58304065D01*
X95406093Y-58650207D01*
X95333000Y-59017669D01*
X93127000Y-59017669D01*
X93127000Y-53526461D01*
X102480443Y-53526461D01*
X102574050Y-53666588D01*
X102720349Y-53818816D01*
X102893536Y-53939578D01*
X103047000Y-53916117D01*
X103047000Y-53373000D01*
X103793000Y-53373000D01*
X103793000Y-53916117D01*
X103946464Y-53939578D01*
X104119651Y-53818816D01*
X104265950Y-53666588D01*
X104359557Y-53526461D01*
X104329213Y-53373000D01*
X103793000Y-53373000D01*
X103047000Y-53373000D01*
X102510787Y-53373000D01*
X102480443Y-53526461D01*
X93127000Y-53526461D01*
X93127000Y-52881613D01*
X107298000Y-52881613D01*
X107298000Y-53118387D01*
X107344192Y-53350610D01*
X107434801Y-53569361D01*
X107566346Y-53766230D01*
X107733770Y-53933654D01*
X107930639Y-54065199D01*
X108149390Y-54155808D01*
X108381613Y-54202000D01*
X108618387Y-54202000D01*
X108850610Y-54155808D01*
X109069361Y-54065199D01*
X109266230Y-53933654D01*
X109433654Y-53766230D01*
X109565199Y-53569361D01*
X109655808Y-53350610D01*
X109702000Y-53118387D01*
X109702000Y-52881613D01*
X109696123Y-52852066D01*
X114498000Y-52852066D01*
X114498000Y-53147934D01*
X114555721Y-53438117D01*
X114668944Y-53711464D01*
X114833320Y-53957469D01*
X115042531Y-54166680D01*
X115288536Y-54331056D01*
X115561883Y-54444279D01*
X115852066Y-54502000D01*
X116147934Y-54502000D01*
X116438117Y-54444279D01*
X116711464Y-54331056D01*
X116957469Y-54166680D01*
X117166680Y-53957469D01*
X117331056Y-53711464D01*
X117444279Y-53438117D01*
X117502000Y-53147934D01*
X117502000Y-52852066D01*
X117444279Y-52561883D01*
X117331056Y-52288536D01*
X117166680Y-52042531D01*
X116957469Y-51833320D01*
X116711464Y-51668944D01*
X116438117Y-51555721D01*
X116147934Y-51498000D01*
X115852066Y-51498000D01*
X115561883Y-51555721D01*
X115288536Y-51668944D01*
X115042531Y-51833320D01*
X114833320Y-52042531D01*
X114668944Y-52288536D01*
X114555721Y-52561883D01*
X114498000Y-52852066D01*
X109696123Y-52852066D01*
X109655808Y-52649390D01*
X109565199Y-52430639D01*
X109433654Y-52233770D01*
X109266230Y-52066346D01*
X109069361Y-51934801D01*
X108850610Y-51844192D01*
X108618387Y-51798000D01*
X108381613Y-51798000D01*
X108149390Y-51844192D01*
X107930639Y-51934801D01*
X107733770Y-52066346D01*
X107566346Y-52233770D01*
X107434801Y-52430639D01*
X107344192Y-52649390D01*
X107298000Y-52881613D01*
X93127000Y-52881613D01*
X93127000Y-52473539D01*
X102480443Y-52473539D01*
X102510787Y-52627000D01*
X103047000Y-52627000D01*
X103047000Y-52083883D01*
X103793000Y-52083883D01*
X103793000Y-52627000D01*
X104329213Y-52627000D01*
X104359557Y-52473539D01*
X104265950Y-52333412D01*
X104119651Y-52181184D01*
X103946464Y-52060422D01*
X103793000Y-52083883D01*
X103047000Y-52083883D01*
X102893536Y-52060422D01*
X102720349Y-52181184D01*
X102574050Y-52333412D01*
X102480443Y-52473539D01*
X93127000Y-52473539D01*
X93127000Y-50381613D01*
X102298000Y-50381613D01*
X102298000Y-50618387D01*
X102344192Y-50850610D01*
X102434801Y-51069361D01*
X102566346Y-51266230D01*
X102733770Y-51433654D01*
X102930639Y-51565199D01*
X103149390Y-51655808D01*
X103381613Y-51702000D01*
X103618387Y-51702000D01*
X103850610Y-51655808D01*
X104069361Y-51565199D01*
X104266230Y-51433654D01*
X104433654Y-51266230D01*
X104565199Y-51069361D01*
X104655808Y-50850610D01*
X104702000Y-50618387D01*
X104702000Y-50500000D01*
X107372185Y-50500000D01*
X107395393Y-50735633D01*
X107464124Y-50962211D01*
X107575739Y-51171026D01*
X107725946Y-51354054D01*
X107908974Y-51504261D01*
X108117789Y-51615876D01*
X108344367Y-51684607D01*
X108520960Y-51702000D01*
X108639040Y-51702000D01*
X108815633Y-51684607D01*
X109042211Y-51615876D01*
X109251026Y-51504261D01*
X109434054Y-51354054D01*
X109516514Y-51253575D01*
X161998000Y-51253575D01*
X161998000Y-51746425D01*
X162094151Y-52229806D01*
X162282756Y-52685141D01*
X162556570Y-53094932D01*
X162905068Y-53443430D01*
X163314859Y-53717244D01*
X163770194Y-53905849D01*
X164253575Y-54002000D01*
X164746425Y-54002000D01*
X165229806Y-53905849D01*
X165685141Y-53717244D01*
X166094932Y-53443430D01*
X166443430Y-53094932D01*
X166717244Y-52685141D01*
X166905849Y-52229806D01*
X167002000Y-51746425D01*
X167002000Y-51253575D01*
X166905849Y-50770194D01*
X166717244Y-50314859D01*
X166443430Y-49905068D01*
X166094932Y-49556570D01*
X165685141Y-49282756D01*
X165229806Y-49094151D01*
X164746425Y-48998000D01*
X164253575Y-48998000D01*
X163770194Y-49094151D01*
X163314859Y-49282756D01*
X162905068Y-49556570D01*
X162556570Y-49905068D01*
X162282756Y-50314859D01*
X162094151Y-50770194D01*
X161998000Y-51253575D01*
X109516514Y-51253575D01*
X109584261Y-51171026D01*
X109695876Y-50962211D01*
X109764607Y-50735633D01*
X109787815Y-50500000D01*
X109764607Y-50264367D01*
X109725826Y-50136521D01*
X112890980Y-50136521D01*
X113018576Y-50297209D01*
X113280899Y-50366205D01*
X113551642Y-50382699D01*
X113820401Y-50346056D01*
X113981424Y-50297209D01*
X114109020Y-50136521D01*
X113500000Y-49527502D01*
X112890980Y-50136521D01*
X109725826Y-50136521D01*
X109695876Y-50037789D01*
X109584261Y-49828974D01*
X109434054Y-49645946D01*
X109251026Y-49495739D01*
X109042211Y-49384124D01*
X108815633Y-49315393D01*
X108639040Y-49298000D01*
X108520960Y-49298000D01*
X108344367Y-49315393D01*
X108117789Y-49384124D01*
X107908974Y-49495739D01*
X107725946Y-49645946D01*
X107575739Y-49828974D01*
X107464124Y-50037789D01*
X107395393Y-50264367D01*
X107372185Y-50500000D01*
X104702000Y-50500000D01*
X104702000Y-50381613D01*
X104655808Y-50149390D01*
X104565199Y-49930639D01*
X104433654Y-49733770D01*
X104266230Y-49566346D01*
X104069361Y-49434801D01*
X103850610Y-49344192D01*
X103618387Y-49298000D01*
X103381613Y-49298000D01*
X103149390Y-49344192D01*
X102930639Y-49434801D01*
X102733770Y-49566346D01*
X102566346Y-49733770D01*
X102434801Y-49930639D01*
X102344192Y-50149390D01*
X102298000Y-50381613D01*
X93127000Y-50381613D01*
X93127000Y-49051642D01*
X112117301Y-49051642D01*
X112153944Y-49320401D01*
X112202791Y-49481424D01*
X112363479Y-49609020D01*
X112972498Y-49000000D01*
X114027502Y-49000000D01*
X114636521Y-49609020D01*
X114797209Y-49481424D01*
X114866205Y-49219101D01*
X114882699Y-48948358D01*
X114873599Y-48881613D01*
X115798000Y-48881613D01*
X115798000Y-49118387D01*
X115844192Y-49350610D01*
X115934801Y-49569361D01*
X116066346Y-49766230D01*
X116233770Y-49933654D01*
X116430639Y-50065199D01*
X116649390Y-50155808D01*
X116881613Y-50202000D01*
X117118387Y-50202000D01*
X117350610Y-50155808D01*
X117569361Y-50065199D01*
X117766230Y-49933654D01*
X117933654Y-49766230D01*
X118065199Y-49569361D01*
X118155808Y-49350610D01*
X118202000Y-49118387D01*
X118202000Y-48911161D01*
X118598000Y-48911161D01*
X118598000Y-49088839D01*
X118632664Y-49263104D01*
X118700658Y-49427257D01*
X118799371Y-49574991D01*
X118925009Y-49700629D01*
X119072743Y-49799342D01*
X119236896Y-49867336D01*
X119411161Y-49902000D01*
X119588839Y-49902000D01*
X119763104Y-49867336D01*
X119927257Y-49799342D01*
X120074991Y-49700629D01*
X120200629Y-49574991D01*
X120299342Y-49427257D01*
X120367336Y-49263104D01*
X120402000Y-49088839D01*
X120402000Y-49000000D01*
X120872185Y-49000000D01*
X120895393Y-49235633D01*
X120964124Y-49462211D01*
X121075739Y-49671026D01*
X121225946Y-49854054D01*
X121408974Y-50004261D01*
X121617789Y-50115876D01*
X121844367Y-50184607D01*
X122020960Y-50202000D01*
X122139040Y-50202000D01*
X122315633Y-50184607D01*
X122542211Y-50115876D01*
X122751026Y-50004261D01*
X122934054Y-49854054D01*
X123084261Y-49671026D01*
X123195876Y-49462211D01*
X123264607Y-49235633D01*
X123287815Y-49000000D01*
X123264607Y-48764367D01*
X123195876Y-48537789D01*
X123084261Y-48328974D01*
X122934054Y-48145946D01*
X122751026Y-47995739D01*
X122542211Y-47884124D01*
X122315633Y-47815393D01*
X122139040Y-47798000D01*
X122020960Y-47798000D01*
X121844367Y-47815393D01*
X121617789Y-47884124D01*
X121408974Y-47995739D01*
X121225946Y-48145946D01*
X121075739Y-48328974D01*
X120964124Y-48537789D01*
X120895393Y-48764367D01*
X120872185Y-49000000D01*
X120402000Y-49000000D01*
X120402000Y-48911161D01*
X120367336Y-48736896D01*
X120299342Y-48572743D01*
X120200629Y-48425009D01*
X120074991Y-48299371D01*
X119927257Y-48200658D01*
X119763104Y-48132664D01*
X119588839Y-48098000D01*
X119411161Y-48098000D01*
X119236896Y-48132664D01*
X119072743Y-48200658D01*
X118925009Y-48299371D01*
X118799371Y-48425009D01*
X118700658Y-48572743D01*
X118632664Y-48736896D01*
X118598000Y-48911161D01*
X118202000Y-48911161D01*
X118202000Y-48881613D01*
X118155808Y-48649390D01*
X118065199Y-48430639D01*
X117933654Y-48233770D01*
X117766230Y-48066346D01*
X117569361Y-47934801D01*
X117350610Y-47844192D01*
X117118387Y-47798000D01*
X116881613Y-47798000D01*
X116649390Y-47844192D01*
X116430639Y-47934801D01*
X116233770Y-48066346D01*
X116066346Y-48233770D01*
X115934801Y-48430639D01*
X115844192Y-48649390D01*
X115798000Y-48881613D01*
X114873599Y-48881613D01*
X114846056Y-48679599D01*
X114797209Y-48518576D01*
X114636521Y-48390980D01*
X114027502Y-49000000D01*
X112972498Y-49000000D01*
X112363479Y-48390980D01*
X112202791Y-48518576D01*
X112133795Y-48780899D01*
X112117301Y-49051642D01*
X93127000Y-49051642D01*
X93127000Y-47863479D01*
X112890980Y-47863479D01*
X113500000Y-48472498D01*
X114109020Y-47863479D01*
X113981424Y-47702791D01*
X113719101Y-47633795D01*
X113448358Y-47617301D01*
X113179599Y-47653944D01*
X113018576Y-47702791D01*
X112890980Y-47863479D01*
X93127000Y-47863479D01*
X93127000Y-45200000D01*
X96195572Y-45200000D01*
X96195572Y-46800000D01*
X96205264Y-46898409D01*
X96233969Y-46993036D01*
X96280583Y-47080245D01*
X96343316Y-47156684D01*
X96419755Y-47219417D01*
X96506964Y-47266031D01*
X96601591Y-47294736D01*
X96700000Y-47304428D01*
X98300000Y-47304428D01*
X98398409Y-47294736D01*
X98493036Y-47266031D01*
X98580245Y-47219417D01*
X98656684Y-47156684D01*
X98719417Y-47080245D01*
X98766031Y-46993036D01*
X98767924Y-46986794D01*
X100540707Y-46986794D01*
X100642071Y-47127233D01*
X100868861Y-47175402D01*
X101100690Y-47178401D01*
X101328650Y-47136115D01*
X101357929Y-47127233D01*
X101459293Y-46986794D01*
X101000000Y-46527502D01*
X100540707Y-46986794D01*
X98767924Y-46986794D01*
X98794736Y-46898409D01*
X98804428Y-46800000D01*
X98804428Y-46100690D01*
X99821599Y-46100690D01*
X99863885Y-46328650D01*
X99872767Y-46357929D01*
X100013206Y-46459293D01*
X100472498Y-46000000D01*
X101527502Y-46000000D01*
X101986794Y-46459293D01*
X102127233Y-46357929D01*
X102175402Y-46131139D01*
X102178401Y-45899310D01*
X102136115Y-45671350D01*
X102127233Y-45642071D01*
X101986794Y-45540707D01*
X101527502Y-46000000D01*
X100472498Y-46000000D01*
X100013206Y-45540707D01*
X99872767Y-45642071D01*
X99824598Y-45868861D01*
X99821599Y-46100690D01*
X98804428Y-46100690D01*
X98804428Y-45200000D01*
X98794736Y-45101591D01*
X98767925Y-45013206D01*
X100540707Y-45013206D01*
X101000000Y-45472498D01*
X101459293Y-45013206D01*
X101357929Y-44872767D01*
X101131139Y-44824598D01*
X100899310Y-44821599D01*
X100671350Y-44863885D01*
X100642071Y-44872767D01*
X100540707Y-45013206D01*
X98767925Y-45013206D01*
X98766031Y-45006964D01*
X98719417Y-44919755D01*
X98656684Y-44843316D01*
X98580245Y-44780583D01*
X98493036Y-44733969D01*
X98398409Y-44705264D01*
X98300000Y-44695572D01*
X96700000Y-44695572D01*
X96601591Y-44705264D01*
X96506964Y-44733969D01*
X96419755Y-44780583D01*
X96343316Y-44843316D01*
X96280583Y-44919755D01*
X96233969Y-45006964D01*
X96205264Y-45101591D01*
X96195572Y-45200000D01*
X93127000Y-45200000D01*
X93127000Y-41562500D01*
X105558072Y-41562500D01*
X105558072Y-43437500D01*
X105567764Y-43535909D01*
X105596469Y-43630536D01*
X105643083Y-43717745D01*
X105705816Y-43794184D01*
X105782255Y-43856917D01*
X105869464Y-43903531D01*
X105964091Y-43932236D01*
X106062500Y-43941928D01*
X107937500Y-43941928D01*
X108035909Y-43932236D01*
X108130536Y-43903531D01*
X108217745Y-43856917D01*
X108294184Y-43794184D01*
X108356917Y-43717745D01*
X108403531Y-43630536D01*
X108415821Y-43590021D01*
X111437481Y-43590021D01*
X111556981Y-43744350D01*
X111808253Y-43806868D01*
X112066895Y-43819166D01*
X112322966Y-43780768D01*
X112412608Y-43753575D01*
X120998000Y-43753575D01*
X120998000Y-44246425D01*
X121094151Y-44729806D01*
X121282756Y-45185141D01*
X121556570Y-45594932D01*
X121905068Y-45943430D01*
X122314859Y-46217244D01*
X122770194Y-46405849D01*
X123253575Y-46502000D01*
X123746425Y-46502000D01*
X124229806Y-46405849D01*
X124685141Y-46217244D01*
X125094932Y-45943430D01*
X125443430Y-45594932D01*
X125717244Y-45185141D01*
X125905849Y-44729806D01*
X126002000Y-44246425D01*
X126002000Y-43753575D01*
X125905849Y-43270194D01*
X125717244Y-42814859D01*
X125443430Y-42405068D01*
X125094932Y-42056570D01*
X124685141Y-41782756D01*
X124229806Y-41594151D01*
X123746425Y-41498000D01*
X123253575Y-41498000D01*
X122770194Y-41594151D01*
X122314859Y-41782756D01*
X121905068Y-42056570D01*
X121556570Y-42405068D01*
X121282756Y-42814859D01*
X121094151Y-43270194D01*
X120998000Y-43753575D01*
X112412608Y-43753575D01*
X112443019Y-43744350D01*
X112562519Y-43590021D01*
X112000000Y-43027502D01*
X111437481Y-43590021D01*
X108415821Y-43590021D01*
X108432236Y-43535909D01*
X108441928Y-43437500D01*
X108441928Y-42566895D01*
X110680834Y-42566895D01*
X110719232Y-42822966D01*
X110755650Y-42943019D01*
X110909979Y-43062519D01*
X111472498Y-42500000D01*
X112527502Y-42500000D01*
X113090021Y-43062519D01*
X113244350Y-42943019D01*
X113306868Y-42691747D01*
X113319166Y-42433105D01*
X113280768Y-42177034D01*
X113244350Y-42056981D01*
X113090021Y-41937481D01*
X112527502Y-42500000D01*
X111472498Y-42500000D01*
X110909979Y-41937481D01*
X110755650Y-42056981D01*
X110693132Y-42308253D01*
X110680834Y-42566895D01*
X108441928Y-42566895D01*
X108441928Y-41562500D01*
X108432236Y-41464091D01*
X108415822Y-41409979D01*
X111437481Y-41409979D01*
X112000000Y-41972498D01*
X112562519Y-41409979D01*
X112443019Y-41255650D01*
X112191747Y-41193132D01*
X111933105Y-41180834D01*
X111677034Y-41219232D01*
X111556981Y-41255650D01*
X111437481Y-41409979D01*
X108415822Y-41409979D01*
X108403531Y-41369464D01*
X108356917Y-41282255D01*
X108294184Y-41205816D01*
X108217745Y-41143083D01*
X108130536Y-41096469D01*
X108035909Y-41067764D01*
X107937500Y-41058072D01*
X106062500Y-41058072D01*
X105964091Y-41067764D01*
X105869464Y-41096469D01*
X105782255Y-41143083D01*
X105705816Y-41205816D01*
X105643083Y-41282255D01*
X105596469Y-41369464D01*
X105567764Y-41464091D01*
X105558072Y-41562500D01*
X93127000Y-41562500D01*
X93127000Y-37358222D01*
X105560500Y-37358222D01*
X105560500Y-37641778D01*
X105615819Y-37919887D01*
X105724332Y-38181859D01*
X105881867Y-38417628D01*
X106082372Y-38618133D01*
X106318141Y-38775668D01*
X106580113Y-38884181D01*
X106858222Y-38939500D01*
X107141778Y-38939500D01*
X107419887Y-38884181D01*
X107681859Y-38775668D01*
X107917628Y-38618133D01*
X107945740Y-38590021D01*
X111437481Y-38590021D01*
X111556981Y-38744350D01*
X111808253Y-38806868D01*
X112066895Y-38819166D01*
X112322966Y-38780768D01*
X112443019Y-38744350D01*
X112562519Y-38590021D01*
X112000000Y-38027502D01*
X111437481Y-38590021D01*
X107945740Y-38590021D01*
X108118133Y-38417628D01*
X108275668Y-38181859D01*
X108384181Y-37919887D01*
X108439500Y-37641778D01*
X108439500Y-37566895D01*
X110680834Y-37566895D01*
X110719232Y-37822966D01*
X110755650Y-37943019D01*
X110909979Y-38062519D01*
X111472498Y-37500000D01*
X112527502Y-37500000D01*
X113090021Y-38062519D01*
X113244350Y-37943019D01*
X113306868Y-37691747D01*
X113319166Y-37433105D01*
X113280768Y-37177034D01*
X113244350Y-37056981D01*
X113090021Y-36937481D01*
X112527502Y-37500000D01*
X111472498Y-37500000D01*
X110909979Y-36937481D01*
X110755650Y-37056981D01*
X110693132Y-37308253D01*
X110680834Y-37566895D01*
X108439500Y-37566895D01*
X108439500Y-37358222D01*
X108384181Y-37080113D01*
X108275668Y-36818141D01*
X108118133Y-36582372D01*
X107945740Y-36409979D01*
X111437481Y-36409979D01*
X112000000Y-36972498D01*
X112562519Y-36409979D01*
X112443019Y-36255650D01*
X112191747Y-36193132D01*
X111933105Y-36180834D01*
X111677034Y-36219232D01*
X111556981Y-36255650D01*
X111437481Y-36409979D01*
X107945740Y-36409979D01*
X107917628Y-36381867D01*
X107681859Y-36224332D01*
X107419887Y-36115819D01*
X107141778Y-36060500D01*
X106858222Y-36060500D01*
X106580113Y-36115819D01*
X106318141Y-36224332D01*
X106082372Y-36381867D01*
X105881867Y-36582372D01*
X105724332Y-36818141D01*
X105615819Y-37080113D01*
X105560500Y-37358222D01*
X93127000Y-37358222D01*
X93127000Y-32753575D01*
X93498000Y-32753575D01*
X93498000Y-33246425D01*
X93594151Y-33729806D01*
X93782756Y-34185141D01*
X94056570Y-34594932D01*
X94405068Y-34943430D01*
X94814859Y-35217244D01*
X95270194Y-35405849D01*
X95753575Y-35502000D01*
X96246425Y-35502000D01*
X96729806Y-35405849D01*
X97185141Y-35217244D01*
X97594932Y-34943430D01*
X97943430Y-34594932D01*
X98217244Y-34185141D01*
X98405849Y-33729806D01*
X98502000Y-33246425D01*
X98502000Y-32753575D01*
X161998000Y-32753575D01*
X161998000Y-33246425D01*
X162094151Y-33729806D01*
X162282756Y-34185141D01*
X162556570Y-34594932D01*
X162905068Y-34943430D01*
X163314859Y-35217244D01*
X163770194Y-35405849D01*
X164253575Y-35502000D01*
X164746425Y-35502000D01*
X165229806Y-35405849D01*
X165685141Y-35217244D01*
X166094932Y-34943430D01*
X166443430Y-34594932D01*
X166717244Y-34185141D01*
X166905849Y-33729806D01*
X167002000Y-33246425D01*
X167002000Y-32753575D01*
X166905849Y-32270194D01*
X166717244Y-31814859D01*
X166443430Y-31405068D01*
X166094932Y-31056570D01*
X165685141Y-30782756D01*
X165229806Y-30594151D01*
X164746425Y-30498000D01*
X164253575Y-30498000D01*
X163770194Y-30594151D01*
X163314859Y-30782756D01*
X162905068Y-31056570D01*
X162556570Y-31405068D01*
X162282756Y-31814859D01*
X162094151Y-32270194D01*
X161998000Y-32753575D01*
X98502000Y-32753575D01*
X98405849Y-32270194D01*
X98217244Y-31814859D01*
X97943430Y-31405068D01*
X97594932Y-31056570D01*
X97185141Y-30782756D01*
X96729806Y-30594151D01*
X96246425Y-30498000D01*
X95753575Y-30498000D01*
X95270194Y-30594151D01*
X94814859Y-30782756D01*
X94405068Y-31056570D01*
X94056570Y-31405068D01*
X93782756Y-31814859D01*
X93594151Y-32270194D01*
X93498000Y-32753575D01*
X93127000Y-32753575D01*
X93127000Y-30127000D01*
X170373000Y-30127000D01*
X170373000Y-84873000D01*
M02*
