G04 #@! TF.GenerationSoftware,KiCad,Pcbnew,(5.1.4)-1*
G04 #@! TF.CreationDate,2021-06-03T13:54:43-04:00*
G04 #@! TF.ProjectId,coil_power_mod,636f696c-5f70-46f7-9765-725f6d6f642e,rev?*
G04 #@! TF.SameCoordinates,Original*
G04 #@! TF.FileFunction,Copper,L1,Top*
G04 #@! TF.FilePolarity,Positive*
%FSLAX46Y46*%
G04 Gerber Fmt 4.6, Leading zero omitted, Abs format (unit mm)*
G04 Created by KiCad (PCBNEW (5.1.4)-1) date 2021-06-03 13:54:43*
%MOMM*%
%LPD*%
G04 APERTURE LIST*
%ADD10C,0.100000*%
%ADD11R,1.050000X2.200000*%
%ADD12R,1.000000X1.050000*%
%ADD13C,2.300000*%
%ADD14C,1.425000*%
%ADD15C,2.000000*%
%ADD16O,1.400000X1.400000*%
%ADD17C,1.400000*%
%ADD18C,0.500000*%
%ADD19C,1.525000*%
%ADD20R,2.000000X2.000000*%
%ADD21C,1.600000*%
%ADD22R,1.600000X1.600000*%
%ADD23R,1.190000X3.550000*%
%ADD24C,2.800000*%
%ADD25C,3.500000*%
%ADD26R,6.350000X5.280000*%
%ADD27R,5.330000X5.590000*%
%ADD28O,1.700000X1.700000*%
%ADD29R,1.700000X1.700000*%
%ADD30C,1.875000*%
%ADD31R,1.875000X1.875000*%
%ADD32C,1.150000*%
%ADD33C,4.000000*%
%ADD34C,0.800000*%
%ADD35C,0.500000*%
%ADD36C,1.000000*%
%ADD37C,0.250000*%
G04 APERTURE END LIST*
D10*
G36*
X113700000Y-52250000D02*
G01*
X113700000Y-52750000D01*
X114300000Y-52750000D01*
X114300000Y-52250000D01*
X113700000Y-52250000D01*
G37*
D11*
X164000000Y-56500000D03*
X161050000Y-56500000D03*
D12*
X162525000Y-58025000D03*
D13*
X166580000Y-75500000D03*
X166580000Y-78040000D03*
X166580000Y-80580000D03*
X161500000Y-80580000D03*
X161500000Y-78040000D03*
X161500000Y-75500000D03*
X166500000Y-62420000D03*
X166500000Y-64960000D03*
X166500000Y-67500000D03*
X161420000Y-67500000D03*
X161420000Y-64960000D03*
X161420000Y-62420000D03*
D10*
G36*
X167149504Y-55076204D02*
G01*
X167173773Y-55079804D01*
X167197571Y-55085765D01*
X167220671Y-55094030D01*
X167242849Y-55104520D01*
X167263893Y-55117133D01*
X167283598Y-55131747D01*
X167301777Y-55148223D01*
X167318253Y-55166402D01*
X167332867Y-55186107D01*
X167345480Y-55207151D01*
X167355970Y-55229329D01*
X167364235Y-55252429D01*
X167370196Y-55276227D01*
X167373796Y-55300496D01*
X167375000Y-55325000D01*
X167375000Y-56250000D01*
X167373796Y-56274504D01*
X167370196Y-56298773D01*
X167364235Y-56322571D01*
X167355970Y-56345671D01*
X167345480Y-56367849D01*
X167332867Y-56388893D01*
X167318253Y-56408598D01*
X167301777Y-56426777D01*
X167283598Y-56443253D01*
X167263893Y-56457867D01*
X167242849Y-56470480D01*
X167220671Y-56480970D01*
X167197571Y-56489235D01*
X167173773Y-56495196D01*
X167149504Y-56498796D01*
X167125000Y-56500000D01*
X165875000Y-56500000D01*
X165850496Y-56498796D01*
X165826227Y-56495196D01*
X165802429Y-56489235D01*
X165779329Y-56480970D01*
X165757151Y-56470480D01*
X165736107Y-56457867D01*
X165716402Y-56443253D01*
X165698223Y-56426777D01*
X165681747Y-56408598D01*
X165667133Y-56388893D01*
X165654520Y-56367849D01*
X165644030Y-56345671D01*
X165635765Y-56322571D01*
X165629804Y-56298773D01*
X165626204Y-56274504D01*
X165625000Y-56250000D01*
X165625000Y-55325000D01*
X165626204Y-55300496D01*
X165629804Y-55276227D01*
X165635765Y-55252429D01*
X165644030Y-55229329D01*
X165654520Y-55207151D01*
X165667133Y-55186107D01*
X165681747Y-55166402D01*
X165698223Y-55148223D01*
X165716402Y-55131747D01*
X165736107Y-55117133D01*
X165757151Y-55104520D01*
X165779329Y-55094030D01*
X165802429Y-55085765D01*
X165826227Y-55079804D01*
X165850496Y-55076204D01*
X165875000Y-55075000D01*
X167125000Y-55075000D01*
X167149504Y-55076204D01*
X167149504Y-55076204D01*
G37*
D14*
X166500000Y-55787500D03*
D10*
G36*
X167149504Y-58051204D02*
G01*
X167173773Y-58054804D01*
X167197571Y-58060765D01*
X167220671Y-58069030D01*
X167242849Y-58079520D01*
X167263893Y-58092133D01*
X167283598Y-58106747D01*
X167301777Y-58123223D01*
X167318253Y-58141402D01*
X167332867Y-58161107D01*
X167345480Y-58182151D01*
X167355970Y-58204329D01*
X167364235Y-58227429D01*
X167370196Y-58251227D01*
X167373796Y-58275496D01*
X167375000Y-58300000D01*
X167375000Y-59225000D01*
X167373796Y-59249504D01*
X167370196Y-59273773D01*
X167364235Y-59297571D01*
X167355970Y-59320671D01*
X167345480Y-59342849D01*
X167332867Y-59363893D01*
X167318253Y-59383598D01*
X167301777Y-59401777D01*
X167283598Y-59418253D01*
X167263893Y-59432867D01*
X167242849Y-59445480D01*
X167220671Y-59455970D01*
X167197571Y-59464235D01*
X167173773Y-59470196D01*
X167149504Y-59473796D01*
X167125000Y-59475000D01*
X165875000Y-59475000D01*
X165850496Y-59473796D01*
X165826227Y-59470196D01*
X165802429Y-59464235D01*
X165779329Y-59455970D01*
X165757151Y-59445480D01*
X165736107Y-59432867D01*
X165716402Y-59418253D01*
X165698223Y-59401777D01*
X165681747Y-59383598D01*
X165667133Y-59363893D01*
X165654520Y-59342849D01*
X165644030Y-59320671D01*
X165635765Y-59297571D01*
X165629804Y-59273773D01*
X165626204Y-59249504D01*
X165625000Y-59225000D01*
X165625000Y-58300000D01*
X165626204Y-58275496D01*
X165629804Y-58251227D01*
X165635765Y-58227429D01*
X165644030Y-58204329D01*
X165654520Y-58182151D01*
X165667133Y-58161107D01*
X165681747Y-58141402D01*
X165698223Y-58123223D01*
X165716402Y-58106747D01*
X165736107Y-58092133D01*
X165757151Y-58079520D01*
X165779329Y-58069030D01*
X165802429Y-58060765D01*
X165826227Y-58054804D01*
X165850496Y-58051204D01*
X165875000Y-58050000D01*
X167125000Y-58050000D01*
X167149504Y-58051204D01*
X167149504Y-58051204D01*
G37*
D14*
X166500000Y-58762500D03*
D10*
G36*
X130149504Y-66526204D02*
G01*
X130173773Y-66529804D01*
X130197571Y-66535765D01*
X130220671Y-66544030D01*
X130242849Y-66554520D01*
X130263893Y-66567133D01*
X130283598Y-66581747D01*
X130301777Y-66598223D01*
X130318253Y-66616402D01*
X130332867Y-66636107D01*
X130345480Y-66657151D01*
X130355970Y-66679329D01*
X130364235Y-66702429D01*
X130370196Y-66726227D01*
X130373796Y-66750496D01*
X130375000Y-66775000D01*
X130375000Y-67700000D01*
X130373796Y-67724504D01*
X130370196Y-67748773D01*
X130364235Y-67772571D01*
X130355970Y-67795671D01*
X130345480Y-67817849D01*
X130332867Y-67838893D01*
X130318253Y-67858598D01*
X130301777Y-67876777D01*
X130283598Y-67893253D01*
X130263893Y-67907867D01*
X130242849Y-67920480D01*
X130220671Y-67930970D01*
X130197571Y-67939235D01*
X130173773Y-67945196D01*
X130149504Y-67948796D01*
X130125000Y-67950000D01*
X128875000Y-67950000D01*
X128850496Y-67948796D01*
X128826227Y-67945196D01*
X128802429Y-67939235D01*
X128779329Y-67930970D01*
X128757151Y-67920480D01*
X128736107Y-67907867D01*
X128716402Y-67893253D01*
X128698223Y-67876777D01*
X128681747Y-67858598D01*
X128667133Y-67838893D01*
X128654520Y-67817849D01*
X128644030Y-67795671D01*
X128635765Y-67772571D01*
X128629804Y-67748773D01*
X128626204Y-67724504D01*
X128625000Y-67700000D01*
X128625000Y-66775000D01*
X128626204Y-66750496D01*
X128629804Y-66726227D01*
X128635765Y-66702429D01*
X128644030Y-66679329D01*
X128654520Y-66657151D01*
X128667133Y-66636107D01*
X128681747Y-66616402D01*
X128698223Y-66598223D01*
X128716402Y-66581747D01*
X128736107Y-66567133D01*
X128757151Y-66554520D01*
X128779329Y-66544030D01*
X128802429Y-66535765D01*
X128826227Y-66529804D01*
X128850496Y-66526204D01*
X128875000Y-66525000D01*
X130125000Y-66525000D01*
X130149504Y-66526204D01*
X130149504Y-66526204D01*
G37*
D14*
X129500000Y-67237500D03*
D10*
G36*
X130149504Y-63551204D02*
G01*
X130173773Y-63554804D01*
X130197571Y-63560765D01*
X130220671Y-63569030D01*
X130242849Y-63579520D01*
X130263893Y-63592133D01*
X130283598Y-63606747D01*
X130301777Y-63623223D01*
X130318253Y-63641402D01*
X130332867Y-63661107D01*
X130345480Y-63682151D01*
X130355970Y-63704329D01*
X130364235Y-63727429D01*
X130370196Y-63751227D01*
X130373796Y-63775496D01*
X130375000Y-63800000D01*
X130375000Y-64725000D01*
X130373796Y-64749504D01*
X130370196Y-64773773D01*
X130364235Y-64797571D01*
X130355970Y-64820671D01*
X130345480Y-64842849D01*
X130332867Y-64863893D01*
X130318253Y-64883598D01*
X130301777Y-64901777D01*
X130283598Y-64918253D01*
X130263893Y-64932867D01*
X130242849Y-64945480D01*
X130220671Y-64955970D01*
X130197571Y-64964235D01*
X130173773Y-64970196D01*
X130149504Y-64973796D01*
X130125000Y-64975000D01*
X128875000Y-64975000D01*
X128850496Y-64973796D01*
X128826227Y-64970196D01*
X128802429Y-64964235D01*
X128779329Y-64955970D01*
X128757151Y-64945480D01*
X128736107Y-64932867D01*
X128716402Y-64918253D01*
X128698223Y-64901777D01*
X128681747Y-64883598D01*
X128667133Y-64863893D01*
X128654520Y-64842849D01*
X128644030Y-64820671D01*
X128635765Y-64797571D01*
X128629804Y-64773773D01*
X128626204Y-64749504D01*
X128625000Y-64725000D01*
X128625000Y-63800000D01*
X128626204Y-63775496D01*
X128629804Y-63751227D01*
X128635765Y-63727429D01*
X128644030Y-63704329D01*
X128654520Y-63682151D01*
X128667133Y-63661107D01*
X128681747Y-63641402D01*
X128698223Y-63623223D01*
X128716402Y-63606747D01*
X128736107Y-63592133D01*
X128757151Y-63579520D01*
X128779329Y-63569030D01*
X128802429Y-63560765D01*
X128826227Y-63554804D01*
X128850496Y-63551204D01*
X128875000Y-63550000D01*
X130125000Y-63550000D01*
X130149504Y-63551204D01*
X130149504Y-63551204D01*
G37*
D14*
X129500000Y-64262500D03*
D15*
X116000000Y-53000000D03*
X113500000Y-49000000D03*
D16*
X103420000Y-53000000D03*
D17*
X108500000Y-53000000D03*
D16*
X108580000Y-50500000D03*
D17*
X103500000Y-50500000D03*
D16*
X122080000Y-49000000D03*
D17*
X117000000Y-49000000D03*
D18*
X114000000Y-53150000D03*
D10*
G36*
X114750000Y-52650000D02*
G01*
X114750000Y-53150000D01*
X114749398Y-53150000D01*
X114749398Y-53174534D01*
X114744588Y-53223365D01*
X114735016Y-53271490D01*
X114720772Y-53318445D01*
X114701995Y-53363778D01*
X114678864Y-53407051D01*
X114651604Y-53447850D01*
X114620476Y-53485779D01*
X114585779Y-53520476D01*
X114547850Y-53551604D01*
X114507051Y-53578864D01*
X114463778Y-53601995D01*
X114418445Y-53620772D01*
X114371490Y-53635016D01*
X114323365Y-53644588D01*
X114274534Y-53649398D01*
X114250000Y-53649398D01*
X114250000Y-53650000D01*
X113750000Y-53650000D01*
X113750000Y-53649398D01*
X113725466Y-53649398D01*
X113676635Y-53644588D01*
X113628510Y-53635016D01*
X113581555Y-53620772D01*
X113536222Y-53601995D01*
X113492949Y-53578864D01*
X113452150Y-53551604D01*
X113414221Y-53520476D01*
X113379524Y-53485779D01*
X113348396Y-53447850D01*
X113321136Y-53407051D01*
X113298005Y-53363778D01*
X113279228Y-53318445D01*
X113264984Y-53271490D01*
X113255412Y-53223365D01*
X113250602Y-53174534D01*
X113250602Y-53150000D01*
X113250000Y-53150000D01*
X113250000Y-52650000D01*
X114750000Y-52650000D01*
X114750000Y-52650000D01*
G37*
D18*
X114000000Y-51850000D03*
D10*
G36*
X113250602Y-51850000D02*
G01*
X113250602Y-51825466D01*
X113255412Y-51776635D01*
X113264984Y-51728510D01*
X113279228Y-51681555D01*
X113298005Y-51636222D01*
X113321136Y-51592949D01*
X113348396Y-51552150D01*
X113379524Y-51514221D01*
X113414221Y-51479524D01*
X113452150Y-51448396D01*
X113492949Y-51421136D01*
X113536222Y-51398005D01*
X113581555Y-51379228D01*
X113628510Y-51364984D01*
X113676635Y-51355412D01*
X113725466Y-51350602D01*
X113750000Y-51350602D01*
X113750000Y-51350000D01*
X114250000Y-51350000D01*
X114250000Y-51350602D01*
X114274534Y-51350602D01*
X114323365Y-51355412D01*
X114371490Y-51364984D01*
X114418445Y-51379228D01*
X114463778Y-51398005D01*
X114507051Y-51421136D01*
X114547850Y-51448396D01*
X114585779Y-51479524D01*
X114620476Y-51514221D01*
X114651604Y-51552150D01*
X114678864Y-51592949D01*
X114701995Y-51636222D01*
X114720772Y-51681555D01*
X114735016Y-51728510D01*
X114744588Y-51776635D01*
X114749398Y-51825466D01*
X114749398Y-51850000D01*
X114750000Y-51850000D01*
X114750000Y-52350000D01*
X113250000Y-52350000D01*
X113250000Y-51850000D01*
X113250602Y-51850000D01*
X113250602Y-51850000D01*
G37*
D16*
X144500000Y-64420000D03*
D17*
X144500000Y-69500000D03*
D10*
G36*
X144949505Y-63251204D02*
G01*
X144973773Y-63254804D01*
X144997572Y-63260765D01*
X145020671Y-63269030D01*
X145042850Y-63279520D01*
X145063893Y-63292132D01*
X145083599Y-63306747D01*
X145101777Y-63323223D01*
X145118253Y-63341401D01*
X145132868Y-63361107D01*
X145145480Y-63382150D01*
X145155970Y-63404329D01*
X145164235Y-63427428D01*
X145170196Y-63451227D01*
X145173796Y-63475495D01*
X145175000Y-63499999D01*
X145175000Y-64525001D01*
X145173796Y-64549505D01*
X145170196Y-64573773D01*
X145164235Y-64597572D01*
X145155970Y-64620671D01*
X145145480Y-64642850D01*
X145132868Y-64663893D01*
X145118253Y-64683599D01*
X145101777Y-64701777D01*
X145083599Y-64718253D01*
X145063893Y-64732868D01*
X145042850Y-64745480D01*
X145020671Y-64755970D01*
X144997572Y-64764235D01*
X144973773Y-64770196D01*
X144949505Y-64773796D01*
X144925001Y-64775000D01*
X142074999Y-64775000D01*
X142050495Y-64773796D01*
X142026227Y-64770196D01*
X142002428Y-64764235D01*
X141979329Y-64755970D01*
X141957150Y-64745480D01*
X141936107Y-64732868D01*
X141916401Y-64718253D01*
X141898223Y-64701777D01*
X141881747Y-64683599D01*
X141867132Y-64663893D01*
X141854520Y-64642850D01*
X141844030Y-64620671D01*
X141835765Y-64597572D01*
X141829804Y-64573773D01*
X141826204Y-64549505D01*
X141825000Y-64525001D01*
X141825000Y-63499999D01*
X141826204Y-63475495D01*
X141829804Y-63451227D01*
X141835765Y-63427428D01*
X141844030Y-63404329D01*
X141854520Y-63382150D01*
X141867132Y-63361107D01*
X141881747Y-63341401D01*
X141898223Y-63323223D01*
X141916401Y-63306747D01*
X141936107Y-63292132D01*
X141957150Y-63279520D01*
X141979329Y-63269030D01*
X142002428Y-63260765D01*
X142026227Y-63254804D01*
X142050495Y-63251204D01*
X142074999Y-63250000D01*
X144925001Y-63250000D01*
X144949505Y-63251204D01*
X144949505Y-63251204D01*
G37*
D19*
X143500000Y-64012500D03*
D10*
G36*
X144949505Y-69226204D02*
G01*
X144973773Y-69229804D01*
X144997572Y-69235765D01*
X145020671Y-69244030D01*
X145042850Y-69254520D01*
X145063893Y-69267132D01*
X145083599Y-69281747D01*
X145101777Y-69298223D01*
X145118253Y-69316401D01*
X145132868Y-69336107D01*
X145145480Y-69357150D01*
X145155970Y-69379329D01*
X145164235Y-69402428D01*
X145170196Y-69426227D01*
X145173796Y-69450495D01*
X145175000Y-69474999D01*
X145175000Y-70500001D01*
X145173796Y-70524505D01*
X145170196Y-70548773D01*
X145164235Y-70572572D01*
X145155970Y-70595671D01*
X145145480Y-70617850D01*
X145132868Y-70638893D01*
X145118253Y-70658599D01*
X145101777Y-70676777D01*
X145083599Y-70693253D01*
X145063893Y-70707868D01*
X145042850Y-70720480D01*
X145020671Y-70730970D01*
X144997572Y-70739235D01*
X144973773Y-70745196D01*
X144949505Y-70748796D01*
X144925001Y-70750000D01*
X142074999Y-70750000D01*
X142050495Y-70748796D01*
X142026227Y-70745196D01*
X142002428Y-70739235D01*
X141979329Y-70730970D01*
X141957150Y-70720480D01*
X141936107Y-70707868D01*
X141916401Y-70693253D01*
X141898223Y-70676777D01*
X141881747Y-70658599D01*
X141867132Y-70638893D01*
X141854520Y-70617850D01*
X141844030Y-70595671D01*
X141835765Y-70572572D01*
X141829804Y-70548773D01*
X141826204Y-70524505D01*
X141825000Y-70500001D01*
X141825000Y-69474999D01*
X141826204Y-69450495D01*
X141829804Y-69426227D01*
X141835765Y-69402428D01*
X141844030Y-69379329D01*
X141854520Y-69357150D01*
X141867132Y-69336107D01*
X141881747Y-69316401D01*
X141898223Y-69298223D01*
X141916401Y-69281747D01*
X141936107Y-69267132D01*
X141957150Y-69254520D01*
X141979329Y-69244030D01*
X142002428Y-69235765D01*
X142026227Y-69229804D01*
X142050495Y-69226204D01*
X142074999Y-69225000D01*
X144925001Y-69225000D01*
X144949505Y-69226204D01*
X144949505Y-69226204D01*
G37*
D19*
X143500000Y-69987500D03*
D15*
X149827856Y-74000000D03*
D20*
X156172144Y-78000000D03*
D15*
X150500000Y-76000000D03*
D20*
X155500000Y-76000000D03*
D21*
X101000000Y-46000000D03*
D22*
X97500000Y-46000000D03*
D23*
X136040000Y-79075000D03*
X133500000Y-72925000D03*
X130960000Y-79075000D03*
D24*
X97235000Y-63005000D03*
X121335000Y-75805000D03*
X117535000Y-75805000D03*
D25*
X125135000Y-59205000D03*
D24*
X125135000Y-63005000D03*
X125135000Y-66805000D03*
X125135000Y-70605000D03*
D25*
X125135000Y-74405000D03*
D24*
X97235000Y-74405000D03*
X97235000Y-66805000D03*
X97235000Y-59205000D03*
D26*
X144000000Y-34080000D03*
D27*
X149075000Y-56155000D03*
X138925000Y-56155000D03*
D28*
X114920000Y-81250000D03*
X117460000Y-81250000D03*
X120000000Y-81250000D03*
D29*
X122540000Y-81250000D03*
D30*
X112000000Y-37500000D03*
X112000000Y-42500000D03*
X107000000Y-37500000D03*
D31*
X107000000Y-42500000D03*
D10*
G36*
X122974504Y-51126204D02*
G01*
X122998773Y-51129804D01*
X123022571Y-51135765D01*
X123045671Y-51144030D01*
X123067849Y-51154520D01*
X123088893Y-51167133D01*
X123108598Y-51181747D01*
X123126777Y-51198223D01*
X123143253Y-51216402D01*
X123157867Y-51236107D01*
X123170480Y-51257151D01*
X123180970Y-51279329D01*
X123189235Y-51302429D01*
X123195196Y-51326227D01*
X123198796Y-51350496D01*
X123200000Y-51375000D01*
X123200000Y-52625000D01*
X123198796Y-52649504D01*
X123195196Y-52673773D01*
X123189235Y-52697571D01*
X123180970Y-52720671D01*
X123170480Y-52742849D01*
X123157867Y-52763893D01*
X123143253Y-52783598D01*
X123126777Y-52801777D01*
X123108598Y-52818253D01*
X123088893Y-52832867D01*
X123067849Y-52845480D01*
X123045671Y-52855970D01*
X123022571Y-52864235D01*
X122998773Y-52870196D01*
X122974504Y-52873796D01*
X122950000Y-52875000D01*
X122025000Y-52875000D01*
X122000496Y-52873796D01*
X121976227Y-52870196D01*
X121952429Y-52864235D01*
X121929329Y-52855970D01*
X121907151Y-52845480D01*
X121886107Y-52832867D01*
X121866402Y-52818253D01*
X121848223Y-52801777D01*
X121831747Y-52783598D01*
X121817133Y-52763893D01*
X121804520Y-52742849D01*
X121794030Y-52720671D01*
X121785765Y-52697571D01*
X121779804Y-52673773D01*
X121776204Y-52649504D01*
X121775000Y-52625000D01*
X121775000Y-51375000D01*
X121776204Y-51350496D01*
X121779804Y-51326227D01*
X121785765Y-51302429D01*
X121794030Y-51279329D01*
X121804520Y-51257151D01*
X121817133Y-51236107D01*
X121831747Y-51216402D01*
X121848223Y-51198223D01*
X121866402Y-51181747D01*
X121886107Y-51167133D01*
X121907151Y-51154520D01*
X121929329Y-51144030D01*
X121952429Y-51135765D01*
X121976227Y-51129804D01*
X122000496Y-51126204D01*
X122025000Y-51125000D01*
X122950000Y-51125000D01*
X122974504Y-51126204D01*
X122974504Y-51126204D01*
G37*
D14*
X122487500Y-52000000D03*
D10*
G36*
X119999504Y-51126204D02*
G01*
X120023773Y-51129804D01*
X120047571Y-51135765D01*
X120070671Y-51144030D01*
X120092849Y-51154520D01*
X120113893Y-51167133D01*
X120133598Y-51181747D01*
X120151777Y-51198223D01*
X120168253Y-51216402D01*
X120182867Y-51236107D01*
X120195480Y-51257151D01*
X120205970Y-51279329D01*
X120214235Y-51302429D01*
X120220196Y-51326227D01*
X120223796Y-51350496D01*
X120225000Y-51375000D01*
X120225000Y-52625000D01*
X120223796Y-52649504D01*
X120220196Y-52673773D01*
X120214235Y-52697571D01*
X120205970Y-52720671D01*
X120195480Y-52742849D01*
X120182867Y-52763893D01*
X120168253Y-52783598D01*
X120151777Y-52801777D01*
X120133598Y-52818253D01*
X120113893Y-52832867D01*
X120092849Y-52845480D01*
X120070671Y-52855970D01*
X120047571Y-52864235D01*
X120023773Y-52870196D01*
X119999504Y-52873796D01*
X119975000Y-52875000D01*
X119050000Y-52875000D01*
X119025496Y-52873796D01*
X119001227Y-52870196D01*
X118977429Y-52864235D01*
X118954329Y-52855970D01*
X118932151Y-52845480D01*
X118911107Y-52832867D01*
X118891402Y-52818253D01*
X118873223Y-52801777D01*
X118856747Y-52783598D01*
X118842133Y-52763893D01*
X118829520Y-52742849D01*
X118819030Y-52720671D01*
X118810765Y-52697571D01*
X118804804Y-52673773D01*
X118801204Y-52649504D01*
X118800000Y-52625000D01*
X118800000Y-51375000D01*
X118801204Y-51350496D01*
X118804804Y-51326227D01*
X118810765Y-51302429D01*
X118819030Y-51279329D01*
X118829520Y-51257151D01*
X118842133Y-51236107D01*
X118856747Y-51216402D01*
X118873223Y-51198223D01*
X118891402Y-51181747D01*
X118911107Y-51167133D01*
X118932151Y-51154520D01*
X118954329Y-51144030D01*
X118977429Y-51135765D01*
X119001227Y-51129804D01*
X119025496Y-51126204D01*
X119050000Y-51125000D01*
X119975000Y-51125000D01*
X119999504Y-51126204D01*
X119999504Y-51126204D01*
G37*
D14*
X119512500Y-52000000D03*
D10*
G36*
X163849505Y-70801204D02*
G01*
X163873773Y-70804804D01*
X163897572Y-70810765D01*
X163920671Y-70819030D01*
X163942850Y-70829520D01*
X163963893Y-70842132D01*
X163983599Y-70856747D01*
X164001777Y-70873223D01*
X164018253Y-70891401D01*
X164032868Y-70911107D01*
X164045480Y-70932150D01*
X164055970Y-70954329D01*
X164064235Y-70977428D01*
X164070196Y-71001227D01*
X164073796Y-71025495D01*
X164075000Y-71049999D01*
X164075000Y-71950001D01*
X164073796Y-71974505D01*
X164070196Y-71998773D01*
X164064235Y-72022572D01*
X164055970Y-72045671D01*
X164045480Y-72067850D01*
X164032868Y-72088893D01*
X164018253Y-72108599D01*
X164001777Y-72126777D01*
X163983599Y-72143253D01*
X163963893Y-72157868D01*
X163942850Y-72170480D01*
X163920671Y-72180970D01*
X163897572Y-72189235D01*
X163873773Y-72195196D01*
X163849505Y-72198796D01*
X163825001Y-72200000D01*
X163174999Y-72200000D01*
X163150495Y-72198796D01*
X163126227Y-72195196D01*
X163102428Y-72189235D01*
X163079329Y-72180970D01*
X163057150Y-72170480D01*
X163036107Y-72157868D01*
X163016401Y-72143253D01*
X162998223Y-72126777D01*
X162981747Y-72108599D01*
X162967132Y-72088893D01*
X162954520Y-72067850D01*
X162944030Y-72045671D01*
X162935765Y-72022572D01*
X162929804Y-71998773D01*
X162926204Y-71974505D01*
X162925000Y-71950001D01*
X162925000Y-71049999D01*
X162926204Y-71025495D01*
X162929804Y-71001227D01*
X162935765Y-70977428D01*
X162944030Y-70954329D01*
X162954520Y-70932150D01*
X162967132Y-70911107D01*
X162981747Y-70891401D01*
X162998223Y-70873223D01*
X163016401Y-70856747D01*
X163036107Y-70842132D01*
X163057150Y-70829520D01*
X163079329Y-70819030D01*
X163102428Y-70810765D01*
X163126227Y-70804804D01*
X163150495Y-70801204D01*
X163174999Y-70800000D01*
X163825001Y-70800000D01*
X163849505Y-70801204D01*
X163849505Y-70801204D01*
G37*
D32*
X163500000Y-71500000D03*
D10*
G36*
X161799505Y-70801204D02*
G01*
X161823773Y-70804804D01*
X161847572Y-70810765D01*
X161870671Y-70819030D01*
X161892850Y-70829520D01*
X161913893Y-70842132D01*
X161933599Y-70856747D01*
X161951777Y-70873223D01*
X161968253Y-70891401D01*
X161982868Y-70911107D01*
X161995480Y-70932150D01*
X162005970Y-70954329D01*
X162014235Y-70977428D01*
X162020196Y-71001227D01*
X162023796Y-71025495D01*
X162025000Y-71049999D01*
X162025000Y-71950001D01*
X162023796Y-71974505D01*
X162020196Y-71998773D01*
X162014235Y-72022572D01*
X162005970Y-72045671D01*
X161995480Y-72067850D01*
X161982868Y-72088893D01*
X161968253Y-72108599D01*
X161951777Y-72126777D01*
X161933599Y-72143253D01*
X161913893Y-72157868D01*
X161892850Y-72170480D01*
X161870671Y-72180970D01*
X161847572Y-72189235D01*
X161823773Y-72195196D01*
X161799505Y-72198796D01*
X161775001Y-72200000D01*
X161124999Y-72200000D01*
X161100495Y-72198796D01*
X161076227Y-72195196D01*
X161052428Y-72189235D01*
X161029329Y-72180970D01*
X161007150Y-72170480D01*
X160986107Y-72157868D01*
X160966401Y-72143253D01*
X160948223Y-72126777D01*
X160931747Y-72108599D01*
X160917132Y-72088893D01*
X160904520Y-72067850D01*
X160894030Y-72045671D01*
X160885765Y-72022572D01*
X160879804Y-71998773D01*
X160876204Y-71974505D01*
X160875000Y-71950001D01*
X160875000Y-71049999D01*
X160876204Y-71025495D01*
X160879804Y-71001227D01*
X160885765Y-70977428D01*
X160894030Y-70954329D01*
X160904520Y-70932150D01*
X160917132Y-70911107D01*
X160931747Y-70891401D01*
X160948223Y-70873223D01*
X160966401Y-70856747D01*
X160986107Y-70842132D01*
X161007150Y-70829520D01*
X161029329Y-70819030D01*
X161052428Y-70810765D01*
X161076227Y-70804804D01*
X161100495Y-70801204D01*
X161124999Y-70800000D01*
X161775001Y-70800000D01*
X161799505Y-70801204D01*
X161799505Y-70801204D01*
G37*
D32*
X161450000Y-71500000D03*
D21*
X151000000Y-65500000D03*
D22*
X154500000Y-65500000D03*
D21*
X136000000Y-67500000D03*
D22*
X136000000Y-64000000D03*
D10*
G36*
X111649504Y-49301204D02*
G01*
X111673773Y-49304804D01*
X111697571Y-49310765D01*
X111720671Y-49319030D01*
X111742849Y-49329520D01*
X111763893Y-49342133D01*
X111783598Y-49356747D01*
X111801777Y-49373223D01*
X111818253Y-49391402D01*
X111832867Y-49411107D01*
X111845480Y-49432151D01*
X111855970Y-49454329D01*
X111864235Y-49477429D01*
X111870196Y-49501227D01*
X111873796Y-49525496D01*
X111875000Y-49550000D01*
X111875000Y-50475000D01*
X111873796Y-50499504D01*
X111870196Y-50523773D01*
X111864235Y-50547571D01*
X111855970Y-50570671D01*
X111845480Y-50592849D01*
X111832867Y-50613893D01*
X111818253Y-50633598D01*
X111801777Y-50651777D01*
X111783598Y-50668253D01*
X111763893Y-50682867D01*
X111742849Y-50695480D01*
X111720671Y-50705970D01*
X111697571Y-50714235D01*
X111673773Y-50720196D01*
X111649504Y-50723796D01*
X111625000Y-50725000D01*
X110375000Y-50725000D01*
X110350496Y-50723796D01*
X110326227Y-50720196D01*
X110302429Y-50714235D01*
X110279329Y-50705970D01*
X110257151Y-50695480D01*
X110236107Y-50682867D01*
X110216402Y-50668253D01*
X110198223Y-50651777D01*
X110181747Y-50633598D01*
X110167133Y-50613893D01*
X110154520Y-50592849D01*
X110144030Y-50570671D01*
X110135765Y-50547571D01*
X110129804Y-50523773D01*
X110126204Y-50499504D01*
X110125000Y-50475000D01*
X110125000Y-49550000D01*
X110126204Y-49525496D01*
X110129804Y-49501227D01*
X110135765Y-49477429D01*
X110144030Y-49454329D01*
X110154520Y-49432151D01*
X110167133Y-49411107D01*
X110181747Y-49391402D01*
X110198223Y-49373223D01*
X110216402Y-49356747D01*
X110236107Y-49342133D01*
X110257151Y-49329520D01*
X110279329Y-49319030D01*
X110302429Y-49310765D01*
X110326227Y-49304804D01*
X110350496Y-49301204D01*
X110375000Y-49300000D01*
X111625000Y-49300000D01*
X111649504Y-49301204D01*
X111649504Y-49301204D01*
G37*
D14*
X111000000Y-50012500D03*
D10*
G36*
X111649504Y-52276204D02*
G01*
X111673773Y-52279804D01*
X111697571Y-52285765D01*
X111720671Y-52294030D01*
X111742849Y-52304520D01*
X111763893Y-52317133D01*
X111783598Y-52331747D01*
X111801777Y-52348223D01*
X111818253Y-52366402D01*
X111832867Y-52386107D01*
X111845480Y-52407151D01*
X111855970Y-52429329D01*
X111864235Y-52452429D01*
X111870196Y-52476227D01*
X111873796Y-52500496D01*
X111875000Y-52525000D01*
X111875000Y-53450000D01*
X111873796Y-53474504D01*
X111870196Y-53498773D01*
X111864235Y-53522571D01*
X111855970Y-53545671D01*
X111845480Y-53567849D01*
X111832867Y-53588893D01*
X111818253Y-53608598D01*
X111801777Y-53626777D01*
X111783598Y-53643253D01*
X111763893Y-53657867D01*
X111742849Y-53670480D01*
X111720671Y-53680970D01*
X111697571Y-53689235D01*
X111673773Y-53695196D01*
X111649504Y-53698796D01*
X111625000Y-53700000D01*
X110375000Y-53700000D01*
X110350496Y-53698796D01*
X110326227Y-53695196D01*
X110302429Y-53689235D01*
X110279329Y-53680970D01*
X110257151Y-53670480D01*
X110236107Y-53657867D01*
X110216402Y-53643253D01*
X110198223Y-53626777D01*
X110181747Y-53608598D01*
X110167133Y-53588893D01*
X110154520Y-53567849D01*
X110144030Y-53545671D01*
X110135765Y-53522571D01*
X110129804Y-53498773D01*
X110126204Y-53474504D01*
X110125000Y-53450000D01*
X110125000Y-52525000D01*
X110126204Y-52500496D01*
X110129804Y-52476227D01*
X110135765Y-52452429D01*
X110144030Y-52429329D01*
X110154520Y-52407151D01*
X110167133Y-52386107D01*
X110181747Y-52366402D01*
X110198223Y-52348223D01*
X110216402Y-52331747D01*
X110236107Y-52317133D01*
X110257151Y-52304520D01*
X110279329Y-52294030D01*
X110302429Y-52285765D01*
X110326227Y-52279804D01*
X110350496Y-52276204D01*
X110375000Y-52275000D01*
X111625000Y-52275000D01*
X111649504Y-52276204D01*
X111649504Y-52276204D01*
G37*
D14*
X111000000Y-52987500D03*
D10*
G36*
X100962004Y-52126204D02*
G01*
X100986273Y-52129804D01*
X101010071Y-52135765D01*
X101033171Y-52144030D01*
X101055349Y-52154520D01*
X101076393Y-52167133D01*
X101096098Y-52181747D01*
X101114277Y-52198223D01*
X101130753Y-52216402D01*
X101145367Y-52236107D01*
X101157980Y-52257151D01*
X101168470Y-52279329D01*
X101176735Y-52302429D01*
X101182696Y-52326227D01*
X101186296Y-52350496D01*
X101187500Y-52375000D01*
X101187500Y-53625000D01*
X101186296Y-53649504D01*
X101182696Y-53673773D01*
X101176735Y-53697571D01*
X101168470Y-53720671D01*
X101157980Y-53742849D01*
X101145367Y-53763893D01*
X101130753Y-53783598D01*
X101114277Y-53801777D01*
X101096098Y-53818253D01*
X101076393Y-53832867D01*
X101055349Y-53845480D01*
X101033171Y-53855970D01*
X101010071Y-53864235D01*
X100986273Y-53870196D01*
X100962004Y-53873796D01*
X100937500Y-53875000D01*
X100012500Y-53875000D01*
X99987996Y-53873796D01*
X99963727Y-53870196D01*
X99939929Y-53864235D01*
X99916829Y-53855970D01*
X99894651Y-53845480D01*
X99873607Y-53832867D01*
X99853902Y-53818253D01*
X99835723Y-53801777D01*
X99819247Y-53783598D01*
X99804633Y-53763893D01*
X99792020Y-53742849D01*
X99781530Y-53720671D01*
X99773265Y-53697571D01*
X99767304Y-53673773D01*
X99763704Y-53649504D01*
X99762500Y-53625000D01*
X99762500Y-52375000D01*
X99763704Y-52350496D01*
X99767304Y-52326227D01*
X99773265Y-52302429D01*
X99781530Y-52279329D01*
X99792020Y-52257151D01*
X99804633Y-52236107D01*
X99819247Y-52216402D01*
X99835723Y-52198223D01*
X99853902Y-52181747D01*
X99873607Y-52167133D01*
X99894651Y-52154520D01*
X99916829Y-52144030D01*
X99939929Y-52135765D01*
X99963727Y-52129804D01*
X99987996Y-52126204D01*
X100012500Y-52125000D01*
X100937500Y-52125000D01*
X100962004Y-52126204D01*
X100962004Y-52126204D01*
G37*
D14*
X100475000Y-53000000D03*
D10*
G36*
X97987004Y-52126204D02*
G01*
X98011273Y-52129804D01*
X98035071Y-52135765D01*
X98058171Y-52144030D01*
X98080349Y-52154520D01*
X98101393Y-52167133D01*
X98121098Y-52181747D01*
X98139277Y-52198223D01*
X98155753Y-52216402D01*
X98170367Y-52236107D01*
X98182980Y-52257151D01*
X98193470Y-52279329D01*
X98201735Y-52302429D01*
X98207696Y-52326227D01*
X98211296Y-52350496D01*
X98212500Y-52375000D01*
X98212500Y-53625000D01*
X98211296Y-53649504D01*
X98207696Y-53673773D01*
X98201735Y-53697571D01*
X98193470Y-53720671D01*
X98182980Y-53742849D01*
X98170367Y-53763893D01*
X98155753Y-53783598D01*
X98139277Y-53801777D01*
X98121098Y-53818253D01*
X98101393Y-53832867D01*
X98080349Y-53845480D01*
X98058171Y-53855970D01*
X98035071Y-53864235D01*
X98011273Y-53870196D01*
X97987004Y-53873796D01*
X97962500Y-53875000D01*
X97037500Y-53875000D01*
X97012996Y-53873796D01*
X96988727Y-53870196D01*
X96964929Y-53864235D01*
X96941829Y-53855970D01*
X96919651Y-53845480D01*
X96898607Y-53832867D01*
X96878902Y-53818253D01*
X96860723Y-53801777D01*
X96844247Y-53783598D01*
X96829633Y-53763893D01*
X96817020Y-53742849D01*
X96806530Y-53720671D01*
X96798265Y-53697571D01*
X96792304Y-53673773D01*
X96788704Y-53649504D01*
X96787500Y-53625000D01*
X96787500Y-52375000D01*
X96788704Y-52350496D01*
X96792304Y-52326227D01*
X96798265Y-52302429D01*
X96806530Y-52279329D01*
X96817020Y-52257151D01*
X96829633Y-52236107D01*
X96844247Y-52216402D01*
X96860723Y-52198223D01*
X96878902Y-52181747D01*
X96898607Y-52167133D01*
X96919651Y-52154520D01*
X96941829Y-52144030D01*
X96964929Y-52135765D01*
X96988727Y-52129804D01*
X97012996Y-52126204D01*
X97037500Y-52125000D01*
X97962500Y-52125000D01*
X97987004Y-52126204D01*
X97987004Y-52126204D01*
G37*
D14*
X97500000Y-53000000D03*
D33*
X143000000Y-82000000D03*
X164500000Y-51500000D03*
X164500000Y-33000000D03*
X96000000Y-33000000D03*
X123500000Y-44000000D03*
X96000000Y-82000000D03*
D34*
X119500000Y-49000000D03*
X108500000Y-56000000D03*
X100500000Y-64000000D03*
X102500000Y-62000000D03*
X104500000Y-60000000D03*
X106500000Y-58000000D03*
X109500000Y-55000000D03*
X99000000Y-65000000D03*
X118000000Y-54500000D03*
X118000000Y-56000000D03*
X117000000Y-57000000D03*
X116000000Y-58000000D03*
X115000000Y-59000000D03*
X115000000Y-60500000D03*
X115000000Y-62000000D03*
X115000000Y-63500000D03*
X115000000Y-65000000D03*
X115500000Y-66500000D03*
X116500000Y-67500000D03*
X117500000Y-68500000D03*
X118500000Y-69500000D03*
X119500000Y-70500000D03*
X120500000Y-71500000D03*
X121500000Y-72500000D03*
X123000000Y-72500000D03*
X119500000Y-73500000D03*
X115500000Y-73500000D03*
X115500000Y-77500000D03*
X119500000Y-77500000D03*
X124750000Y-78000000D03*
X106500000Y-53000000D03*
X105500000Y-54000000D03*
X104500000Y-55000000D03*
X103500000Y-56000000D03*
X102500000Y-57000000D03*
X101500000Y-55000000D03*
X102000000Y-52000000D03*
X106500000Y-51500000D03*
X106500000Y-50000000D03*
X107500000Y-48500000D03*
X109500000Y-48500000D03*
X112500000Y-51500000D03*
X110000000Y-51500000D03*
X112000000Y-48000000D03*
X102000000Y-49000000D03*
X103500000Y-48500000D03*
X105500000Y-48500000D03*
X103500000Y-46500000D03*
X105000000Y-46500000D03*
X107000000Y-46500000D03*
X98000000Y-36000000D03*
X99000000Y-35000000D03*
X128500000Y-66750000D03*
X129500000Y-67500000D03*
X130250000Y-68250000D03*
X131000000Y-69000000D03*
X131750000Y-69750000D03*
X132750000Y-70000000D03*
X133750000Y-70000000D03*
X134750000Y-70000000D03*
X135500000Y-70750000D03*
X135500000Y-71750000D03*
X135500000Y-72750000D03*
X135500000Y-73750000D03*
X135500000Y-74750000D03*
X135000000Y-75750000D03*
X134000000Y-75750000D03*
X133000000Y-75750000D03*
X132000000Y-75750000D03*
X131000000Y-75750000D03*
X131000000Y-74500000D03*
X130250000Y-73750000D03*
X129500000Y-73000000D03*
X128750000Y-72250000D03*
X128000000Y-71250000D03*
X119750000Y-58500000D03*
X118750000Y-59250000D03*
X118250000Y-60250000D03*
X118250000Y-61500000D03*
X118250000Y-62750000D03*
X118250000Y-64000000D03*
X118750000Y-65250000D03*
X119500000Y-66000000D03*
X120250000Y-66750000D03*
X121000000Y-67500000D03*
X121750000Y-68250000D03*
X120000000Y-60000000D03*
X120000000Y-61500000D03*
X120000000Y-63000000D03*
X120000000Y-64500000D03*
X121500000Y-66250000D03*
X122750000Y-66250000D03*
X123250000Y-68250000D03*
X131000000Y-67250000D03*
X132250000Y-67250000D03*
X133500000Y-67250000D03*
X134250000Y-68500000D03*
X136500000Y-69250000D03*
X137500000Y-68250000D03*
X135250000Y-69000000D03*
X137750000Y-67000000D03*
X139000000Y-67000000D03*
X140000000Y-66000000D03*
X141000000Y-65000000D03*
X142000000Y-65750000D03*
X143500000Y-65750000D03*
X145000000Y-65750000D03*
X146500000Y-65750000D03*
X147250000Y-64750000D03*
X147000000Y-63500000D03*
X148750000Y-64000000D03*
X148250000Y-65750000D03*
X142750000Y-67000000D03*
X144250000Y-67000000D03*
X145750000Y-67000000D03*
X147500000Y-67000000D03*
X148500000Y-67750000D03*
X149500000Y-68750000D03*
X150250000Y-69500000D03*
X151000000Y-70250000D03*
X151750000Y-71000000D03*
X150000000Y-64000000D03*
X151500000Y-64000000D03*
X152000000Y-66750000D03*
X152000000Y-68000000D03*
X152000000Y-69250000D03*
X149500000Y-65750000D03*
X150250000Y-67000000D03*
X140250000Y-68250000D03*
X140250000Y-69750000D03*
X140250000Y-71500000D03*
X141000000Y-73250000D03*
X142250000Y-74500000D03*
X143500000Y-75750000D03*
X145000000Y-77250000D03*
X146500000Y-78750000D03*
X148250000Y-79500000D03*
X150000000Y-79500000D03*
X151500000Y-79500000D03*
X152500000Y-78500000D03*
X152500000Y-81250000D03*
X153750000Y-82500000D03*
X155500000Y-82500000D03*
X157250000Y-82500000D03*
X159000000Y-82500000D03*
X138750000Y-69250000D03*
X137000000Y-70750000D03*
X138750000Y-70750000D03*
X127000000Y-49000000D03*
X129500000Y-49000000D03*
X132000000Y-49000000D03*
X134500000Y-49000000D03*
X137000000Y-49000000D03*
X139500000Y-49000000D03*
X142000000Y-49000000D03*
X144500000Y-49000000D03*
X147000000Y-49000000D03*
X149500000Y-49000000D03*
X152000000Y-49000000D03*
X154500000Y-49000000D03*
X157000000Y-49000000D03*
X159500000Y-49000000D03*
X117000000Y-32500000D03*
X116000000Y-33500000D03*
X118000000Y-33500000D03*
X117000000Y-34500000D03*
X116000000Y-35500000D03*
X118000000Y-35500000D03*
X117000000Y-36500000D03*
X116000000Y-37500000D03*
X118000000Y-37500000D03*
X117000000Y-38500000D03*
X116000000Y-39500000D03*
X118000000Y-39500000D03*
X117000000Y-40500000D03*
X116000000Y-41500000D03*
X118000000Y-41500000D03*
X117000000Y-42500000D03*
X116000000Y-43500000D03*
X117000000Y-44500000D03*
X118000000Y-43500000D03*
X161250000Y-35500000D03*
X162250000Y-36500000D03*
X165500000Y-37500000D03*
X161250000Y-37500000D03*
X163250000Y-37500000D03*
X162250000Y-38500000D03*
X164250000Y-38500000D03*
X161250000Y-39500000D03*
X163250000Y-39500000D03*
X162250000Y-40500000D03*
X164250000Y-40500000D03*
X161250000Y-41500000D03*
X163250000Y-41500000D03*
X162250000Y-42500000D03*
X164250000Y-42500000D03*
X161250000Y-43500000D03*
X163250000Y-43500000D03*
X162250000Y-44500000D03*
X164250000Y-44500000D03*
X161250000Y-45500000D03*
X163250000Y-45500000D03*
X162250000Y-46500000D03*
X164250000Y-46500000D03*
X161250000Y-47500000D03*
X162250000Y-48500000D03*
X163250000Y-47500000D03*
X160750000Y-51000000D03*
X160750000Y-53000000D03*
X161750000Y-54500000D03*
X162500000Y-56000000D03*
X159500000Y-54750000D03*
X119000000Y-32500000D03*
X119000000Y-34500000D03*
X119000000Y-36500000D03*
X119000000Y-38500000D03*
X119000000Y-40500000D03*
X119000000Y-42500000D03*
X119000000Y-44500000D03*
X110250000Y-30750000D03*
X112750000Y-30750000D03*
X115250000Y-30750000D03*
X117750000Y-30750000D03*
X120250000Y-30750000D03*
X122750000Y-30750000D03*
X125250000Y-30750000D03*
X127750000Y-30750000D03*
X130250000Y-30750000D03*
X132750000Y-30750000D03*
X135250000Y-30750000D03*
X137750000Y-30750000D03*
X150250000Y-30750000D03*
X152750000Y-30750000D03*
X155250000Y-30750000D03*
X157750000Y-30750000D03*
X160250000Y-30750000D03*
X167500000Y-37500000D03*
X169500000Y-37500000D03*
X169500000Y-40000000D03*
X169500000Y-42500000D03*
X169500000Y-45000000D03*
X169500000Y-47500000D03*
X169500000Y-50000000D03*
X169500000Y-52500000D03*
X169500000Y-55000000D03*
X169500000Y-57500000D03*
X169500000Y-60000000D03*
X169500000Y-62500000D03*
X169500000Y-65000000D03*
X169500000Y-67500000D03*
X169500000Y-70000000D03*
X169500000Y-72500000D03*
X169500000Y-75000000D03*
X169500000Y-77500000D03*
X169500000Y-80000000D03*
X169500000Y-82250000D03*
X101500000Y-83750000D03*
X104000000Y-83750000D03*
X106500000Y-83750000D03*
X109000000Y-83750000D03*
X111500000Y-83750000D03*
X114000000Y-83750000D03*
X116500000Y-83750000D03*
X119000000Y-83750000D03*
X121500000Y-83750000D03*
X124000000Y-83750000D03*
X126500000Y-83750000D03*
X129000000Y-83750000D03*
X131500000Y-83750000D03*
X134000000Y-83750000D03*
X136500000Y-83750000D03*
X139000000Y-83750000D03*
X146500000Y-83750000D03*
X149000000Y-83750000D03*
X151500000Y-83750000D03*
X154000000Y-83750000D03*
X156500000Y-83750000D03*
X159000000Y-83750000D03*
X161500000Y-83750000D03*
X164000000Y-83750000D03*
X166500000Y-83750000D03*
X169000000Y-83750000D03*
X93250000Y-36750000D03*
X99000000Y-30500000D03*
X110250000Y-33250000D03*
X112750000Y-33250000D03*
X110250000Y-44500000D03*
X114000000Y-44500000D03*
X93750000Y-62500000D03*
X93750000Y-65000000D03*
X93750000Y-67500000D03*
X93750000Y-70000000D03*
X93750000Y-72500000D03*
X93750000Y-75000000D03*
X93750000Y-77500000D03*
X95750000Y-78250000D03*
X98000000Y-78500000D03*
X99500000Y-80000000D03*
X99750000Y-82250000D03*
X160250000Y-33000000D03*
X114000000Y-55000000D03*
X113000000Y-56250000D03*
X111750000Y-57500000D03*
X110500000Y-58750000D03*
X109250000Y-60000000D03*
X108000000Y-61250000D03*
X106750000Y-62500000D03*
X105500000Y-63750000D03*
X104250000Y-65000000D03*
X103000000Y-66250000D03*
X101750000Y-67500000D03*
X100250000Y-68250000D03*
X98500000Y-69250000D03*
X95750000Y-69250000D03*
X114500000Y-56500000D03*
X116250000Y-55750000D03*
X115250000Y-50250000D03*
X119750000Y-79250000D03*
X115250000Y-79500000D03*
X124750000Y-80000000D03*
X127750000Y-77500000D03*
X127750000Y-80000000D03*
X138000000Y-73250000D03*
X138000000Y-75500000D03*
X138250000Y-78250000D03*
X140500000Y-76750000D03*
X138250000Y-81000000D03*
X133750000Y-78250000D03*
X133750000Y-81000000D03*
X118000000Y-45750000D03*
X119000000Y-47000000D03*
X138750000Y-33250000D03*
X139750000Y-38250000D03*
X143750000Y-38250000D03*
X148000000Y-38250000D03*
X149250000Y-33250000D03*
X149250000Y-35750000D03*
X138750000Y-35750000D03*
X103750000Y-68750000D03*
X107750000Y-68750000D03*
X111750000Y-68750000D03*
X103750000Y-73750000D03*
X107750000Y-73750000D03*
X111750000Y-73750000D03*
X103750000Y-78750000D03*
X107750000Y-78750000D03*
X111750000Y-78750000D03*
D35*
X117000000Y-49000000D02*
X114000000Y-46000000D01*
X114000000Y-46000000D02*
X108500000Y-46000000D01*
X107000000Y-44500000D02*
X107000000Y-42500000D01*
X108500000Y-46000000D02*
X107000000Y-44500000D01*
X100000000Y-50500000D02*
X97500000Y-53000000D01*
X103500000Y-50500000D02*
X100000000Y-50500000D01*
X97500000Y-46000000D02*
X97500000Y-53000000D01*
X97500000Y-43500000D02*
X97500000Y-46000000D01*
X99500000Y-41500000D02*
X97500000Y-43500000D01*
X104562500Y-41500000D02*
X99500000Y-41500000D01*
X107000000Y-42500000D02*
X105562500Y-42500000D01*
X105562500Y-42500000D02*
X104562500Y-41500000D01*
X97500000Y-58940000D02*
X97235000Y-59205000D01*
X97500000Y-53000000D02*
X97500000Y-58940000D01*
X103420000Y-53000000D02*
X100475000Y-53000000D01*
X112012500Y-49000000D02*
X111000000Y-50012500D01*
X113500000Y-49000000D02*
X112012500Y-49000000D01*
X113500000Y-51350000D02*
X114000000Y-51850000D01*
X113500000Y-49000000D02*
X113500000Y-51350000D01*
X98495000Y-63005000D02*
X97235000Y-63005000D01*
X108500000Y-53000000D02*
X98495000Y-63005000D01*
X110987500Y-53000000D02*
X111000000Y-52987500D01*
X108500000Y-53000000D02*
X110987500Y-53000000D01*
X108580000Y-52920000D02*
X108500000Y-53000000D01*
X108580000Y-50500000D02*
X108580000Y-52920000D01*
X122487500Y-49407500D02*
X122080000Y-49000000D01*
X122487500Y-52000000D02*
X122487500Y-49407500D01*
X122105000Y-70605000D02*
X125135000Y-70605000D01*
X117000000Y-65500000D02*
X119750000Y-68250000D01*
X117000000Y-59000000D02*
X117000000Y-65500000D01*
X119512500Y-56487500D02*
X117000000Y-59000000D01*
X119512500Y-52000000D02*
X119512500Y-56487500D01*
X119512500Y-68012500D02*
X119750000Y-68250000D01*
X119750000Y-68250000D02*
X122105000Y-70605000D01*
D36*
X117535000Y-81425000D02*
X117460000Y-81500000D01*
X117535000Y-75805000D02*
X117535000Y-81425000D01*
X122540000Y-77010000D02*
X121335000Y-75805000D01*
X122540000Y-81500000D02*
X122540000Y-77010000D01*
D35*
X115850000Y-53150000D02*
X116000000Y-53000000D01*
X114000000Y-53150000D02*
X115850000Y-53150000D01*
X100345000Y-66805000D02*
X97235000Y-66805000D01*
X114000000Y-53150000D02*
X100345000Y-66805000D01*
D36*
X125135000Y-66805000D02*
X126305000Y-66805000D01*
X126305000Y-66805000D02*
X131000000Y-71500000D01*
X131905000Y-72925000D02*
X133500000Y-72925000D01*
X131000000Y-72020000D02*
X131905000Y-72925000D01*
X131000000Y-71500000D02*
X131000000Y-72020000D01*
D37*
G36*
X142375000Y-60948224D02*
G01*
X140911612Y-62411612D01*
X140896066Y-62430554D01*
X140884515Y-62452165D01*
X140877402Y-62475614D01*
X140875000Y-62500000D01*
X140875000Y-63448224D01*
X138448224Y-65875000D01*
X129051776Y-65875000D01*
X128088388Y-64911612D01*
X128069446Y-64896066D01*
X128047835Y-64884515D01*
X128024386Y-64877402D01*
X128000000Y-64875000D01*
X121125000Y-64875000D01*
X121125000Y-55125000D01*
X123000000Y-55125000D01*
X123024386Y-55122598D01*
X123047835Y-55115485D01*
X123069446Y-55103934D01*
X123088388Y-55088388D01*
X126551776Y-51625000D01*
X142375000Y-51625000D01*
X142375000Y-60948224D01*
X142375000Y-60948224D01*
G37*
X142375000Y-60948224D02*
X140911612Y-62411612D01*
X140896066Y-62430554D01*
X140884515Y-62452165D01*
X140877402Y-62475614D01*
X140875000Y-62500000D01*
X140875000Y-63448224D01*
X138448224Y-65875000D01*
X129051776Y-65875000D01*
X128088388Y-64911612D01*
X128069446Y-64896066D01*
X128047835Y-64884515D01*
X128024386Y-64877402D01*
X128000000Y-64875000D01*
X121125000Y-64875000D01*
X121125000Y-55125000D01*
X123000000Y-55125000D01*
X123024386Y-55122598D01*
X123047835Y-55115485D01*
X123069446Y-55103934D01*
X123088388Y-55088388D01*
X126551776Y-51625000D01*
X142375000Y-51625000D01*
X142375000Y-60948224D01*
G36*
X152875000Y-74051776D02*
G01*
X152875000Y-76448224D01*
X151448224Y-77875000D01*
X148051776Y-77875000D01*
X141625000Y-71448224D01*
X141625000Y-68125000D01*
X146948224Y-68125000D01*
X152875000Y-74051776D01*
X152875000Y-74051776D01*
G37*
X152875000Y-74051776D02*
X152875000Y-76448224D01*
X151448224Y-77875000D01*
X148051776Y-77875000D01*
X141625000Y-71448224D01*
X141625000Y-68125000D01*
X146948224Y-68125000D01*
X152875000Y-74051776D01*
G36*
X157875000Y-52551776D02*
G01*
X157875000Y-55500000D01*
X157877402Y-55524386D01*
X157884515Y-55547835D01*
X157896066Y-55569446D01*
X157911612Y-55588388D01*
X159911612Y-57588388D01*
X159930554Y-57603934D01*
X159952165Y-57615485D01*
X159975614Y-57622598D01*
X160000000Y-57625000D01*
X160025043Y-57625000D01*
X160032235Y-57698017D01*
X160060825Y-57792267D01*
X160107254Y-57879129D01*
X160169736Y-57955264D01*
X160245871Y-58017746D01*
X160332733Y-58064175D01*
X160426983Y-58092765D01*
X160525000Y-58102419D01*
X161575000Y-58102419D01*
X161673017Y-58092765D01*
X161767267Y-58064175D01*
X161854129Y-58017746D01*
X161930264Y-57955264D01*
X161992746Y-57879129D01*
X162039175Y-57792267D01*
X162067765Y-57698017D01*
X162074957Y-57625000D01*
X162975043Y-57625000D01*
X162982235Y-57698017D01*
X163010825Y-57792267D01*
X163057254Y-57879129D01*
X163119736Y-57955264D01*
X163195871Y-58017746D01*
X163282733Y-58064175D01*
X163376983Y-58092765D01*
X163475000Y-58102419D01*
X164525000Y-58102419D01*
X164623017Y-58092765D01*
X164717267Y-58064175D01*
X164804129Y-58017746D01*
X164880264Y-57955264D01*
X164942746Y-57879129D01*
X164989175Y-57792267D01*
X165017765Y-57698017D01*
X165024957Y-57625000D01*
X166948224Y-57625000D01*
X168375000Y-59051776D01*
X168375000Y-69875000D01*
X163000000Y-69875000D01*
X162975614Y-69877402D01*
X162952165Y-69884515D01*
X162930554Y-69896066D01*
X162911612Y-69911612D01*
X162411612Y-70411612D01*
X162396066Y-70430554D01*
X162384515Y-70452165D01*
X162377402Y-70475614D01*
X162375000Y-70500000D01*
X162375000Y-72448224D01*
X161948224Y-72875000D01*
X160000000Y-72875000D01*
X159975614Y-72877402D01*
X159952165Y-72884515D01*
X159930554Y-72896066D01*
X159911612Y-72911612D01*
X158911612Y-73911612D01*
X158896066Y-73930554D01*
X158884515Y-73952165D01*
X158877402Y-73975614D01*
X158875000Y-74000000D01*
X158875000Y-79948224D01*
X157948224Y-80875000D01*
X154051776Y-80875000D01*
X153625000Y-80448224D01*
X153625000Y-73000000D01*
X153622598Y-72975614D01*
X153615485Y-72952165D01*
X153603934Y-72930554D01*
X153588388Y-72911612D01*
X153125000Y-72448224D01*
X153125000Y-64000000D01*
X153122598Y-63975614D01*
X153115485Y-63952165D01*
X153103934Y-63930554D01*
X153088388Y-63911612D01*
X152088388Y-62911612D01*
X152069446Y-62896066D01*
X152047835Y-62884515D01*
X152024386Y-62877402D01*
X152000000Y-62875000D01*
X148051776Y-62875000D01*
X145625000Y-60448224D01*
X145625000Y-51625000D01*
X156948224Y-51625000D01*
X157875000Y-52551776D01*
X157875000Y-52551776D01*
G37*
X157875000Y-52551776D02*
X157875000Y-55500000D01*
X157877402Y-55524386D01*
X157884515Y-55547835D01*
X157896066Y-55569446D01*
X157911612Y-55588388D01*
X159911612Y-57588388D01*
X159930554Y-57603934D01*
X159952165Y-57615485D01*
X159975614Y-57622598D01*
X160000000Y-57625000D01*
X160025043Y-57625000D01*
X160032235Y-57698017D01*
X160060825Y-57792267D01*
X160107254Y-57879129D01*
X160169736Y-57955264D01*
X160245871Y-58017746D01*
X160332733Y-58064175D01*
X160426983Y-58092765D01*
X160525000Y-58102419D01*
X161575000Y-58102419D01*
X161673017Y-58092765D01*
X161767267Y-58064175D01*
X161854129Y-58017746D01*
X161930264Y-57955264D01*
X161992746Y-57879129D01*
X162039175Y-57792267D01*
X162067765Y-57698017D01*
X162074957Y-57625000D01*
X162975043Y-57625000D01*
X162982235Y-57698017D01*
X163010825Y-57792267D01*
X163057254Y-57879129D01*
X163119736Y-57955264D01*
X163195871Y-58017746D01*
X163282733Y-58064175D01*
X163376983Y-58092765D01*
X163475000Y-58102419D01*
X164525000Y-58102419D01*
X164623017Y-58092765D01*
X164717267Y-58064175D01*
X164804129Y-58017746D01*
X164880264Y-57955264D01*
X164942746Y-57879129D01*
X164989175Y-57792267D01*
X165017765Y-57698017D01*
X165024957Y-57625000D01*
X166948224Y-57625000D01*
X168375000Y-59051776D01*
X168375000Y-69875000D01*
X163000000Y-69875000D01*
X162975614Y-69877402D01*
X162952165Y-69884515D01*
X162930554Y-69896066D01*
X162911612Y-69911612D01*
X162411612Y-70411612D01*
X162396066Y-70430554D01*
X162384515Y-70452165D01*
X162377402Y-70475614D01*
X162375000Y-70500000D01*
X162375000Y-72448224D01*
X161948224Y-72875000D01*
X160000000Y-72875000D01*
X159975614Y-72877402D01*
X159952165Y-72884515D01*
X159930554Y-72896066D01*
X159911612Y-72911612D01*
X158911612Y-73911612D01*
X158896066Y-73930554D01*
X158884515Y-73952165D01*
X158877402Y-73975614D01*
X158875000Y-74000000D01*
X158875000Y-79948224D01*
X157948224Y-80875000D01*
X154051776Y-80875000D01*
X153625000Y-80448224D01*
X153625000Y-73000000D01*
X153622598Y-72975614D01*
X153615485Y-72952165D01*
X153603934Y-72930554D01*
X153588388Y-72911612D01*
X153125000Y-72448224D01*
X153125000Y-64000000D01*
X153122598Y-63975614D01*
X153115485Y-63952165D01*
X153103934Y-63930554D01*
X153088388Y-63911612D01*
X152088388Y-62911612D01*
X152069446Y-62896066D01*
X152047835Y-62884515D01*
X152024386Y-62877402D01*
X152000000Y-62875000D01*
X148051776Y-62875000D01*
X145625000Y-60448224D01*
X145625000Y-51625000D01*
X156948224Y-51625000D01*
X157875000Y-52551776D01*
G36*
X108875000Y-45375000D02*
G01*
X103051776Y-45375000D01*
X102088388Y-44411612D01*
X102069446Y-44396066D01*
X102047835Y-44384515D01*
X102024386Y-44377402D01*
X102000000Y-44375000D01*
X100500000Y-44375000D01*
X100475614Y-44377402D01*
X100452165Y-44384515D01*
X100430554Y-44396066D01*
X100411612Y-44411612D01*
X99411612Y-45411612D01*
X99396066Y-45430554D01*
X99384515Y-45452165D01*
X99377402Y-45475614D01*
X99375000Y-45500000D01*
X99375000Y-47500000D01*
X99377402Y-47524386D01*
X99384515Y-47547835D01*
X99396066Y-47569446D01*
X99411612Y-47588388D01*
X100375000Y-48551776D01*
X100375000Y-50948224D01*
X99411612Y-51911612D01*
X99396066Y-51930554D01*
X99384515Y-51952165D01*
X99378028Y-51973550D01*
X99317355Y-52087062D01*
X99274539Y-52228210D01*
X99260081Y-52375000D01*
X99260081Y-53625000D01*
X99274539Y-53771790D01*
X99317355Y-53912938D01*
X99375000Y-54020785D01*
X99375000Y-55000000D01*
X99377402Y-55024386D01*
X99384515Y-55047835D01*
X99396066Y-55069446D01*
X99411612Y-55088388D01*
X100875000Y-56551776D01*
X100875000Y-58448224D01*
X98448224Y-60875000D01*
X93125000Y-60875000D01*
X93125000Y-38551776D01*
X94551776Y-37125000D01*
X98500000Y-37125000D01*
X98524386Y-37122598D01*
X98547835Y-37115485D01*
X98569446Y-37103934D01*
X98588388Y-37088388D01*
X100088388Y-35588388D01*
X100103934Y-35569446D01*
X100115485Y-35547835D01*
X100122598Y-35524386D01*
X100125000Y-35500000D01*
X100125000Y-30551776D01*
X100551776Y-30125000D01*
X108875000Y-30125000D01*
X108875000Y-45375000D01*
X108875000Y-45375000D01*
G37*
X108875000Y-45375000D02*
X103051776Y-45375000D01*
X102088388Y-44411612D01*
X102069446Y-44396066D01*
X102047835Y-44384515D01*
X102024386Y-44377402D01*
X102000000Y-44375000D01*
X100500000Y-44375000D01*
X100475614Y-44377402D01*
X100452165Y-44384515D01*
X100430554Y-44396066D01*
X100411612Y-44411612D01*
X99411612Y-45411612D01*
X99396066Y-45430554D01*
X99384515Y-45452165D01*
X99377402Y-45475614D01*
X99375000Y-45500000D01*
X99375000Y-47500000D01*
X99377402Y-47524386D01*
X99384515Y-47547835D01*
X99396066Y-47569446D01*
X99411612Y-47588388D01*
X100375000Y-48551776D01*
X100375000Y-50948224D01*
X99411612Y-51911612D01*
X99396066Y-51930554D01*
X99384515Y-51952165D01*
X99378028Y-51973550D01*
X99317355Y-52087062D01*
X99274539Y-52228210D01*
X99260081Y-52375000D01*
X99260081Y-53625000D01*
X99274539Y-53771790D01*
X99317355Y-53912938D01*
X99375000Y-54020785D01*
X99375000Y-55000000D01*
X99377402Y-55024386D01*
X99384515Y-55047835D01*
X99396066Y-55069446D01*
X99411612Y-55088388D01*
X100875000Y-56551776D01*
X100875000Y-58448224D01*
X98448224Y-60875000D01*
X93125000Y-60875000D01*
X93125000Y-38551776D01*
X94551776Y-37125000D01*
X98500000Y-37125000D01*
X98524386Y-37122598D01*
X98547835Y-37115485D01*
X98569446Y-37103934D01*
X98588388Y-37088388D01*
X100088388Y-35588388D01*
X100103934Y-35569446D01*
X100115485Y-35547835D01*
X100122598Y-35524386D01*
X100125000Y-35500000D01*
X100125000Y-30551776D01*
X100551776Y-30125000D01*
X108875000Y-30125000D01*
X108875000Y-45375000D01*
G36*
X170375000Y-84875000D02*
G01*
X93125000Y-84875000D01*
X93125000Y-81753772D01*
X93500000Y-81753772D01*
X93500000Y-82246228D01*
X93596074Y-82729223D01*
X93784529Y-83184194D01*
X94058124Y-83593657D01*
X94406343Y-83941876D01*
X94815806Y-84215471D01*
X95270777Y-84403926D01*
X95753772Y-84500000D01*
X96246228Y-84500000D01*
X96729223Y-84403926D01*
X97184194Y-84215471D01*
X97593657Y-83941876D01*
X97941876Y-83593657D01*
X98215471Y-83184194D01*
X98403926Y-82729223D01*
X98500000Y-82246228D01*
X98500000Y-81753772D01*
X98403926Y-81270777D01*
X98215471Y-80815806D01*
X97941876Y-80406343D01*
X97593657Y-80058124D01*
X97184194Y-79784529D01*
X96729223Y-79596074D01*
X96246228Y-79500000D01*
X95753772Y-79500000D01*
X95270777Y-79596074D01*
X94815806Y-79784529D01*
X94406343Y-80058124D01*
X94058124Y-80406343D01*
X93784529Y-80815806D01*
X93596074Y-81270777D01*
X93500000Y-81753772D01*
X93125000Y-81753772D01*
X93125000Y-75617866D01*
X115635000Y-75617866D01*
X115635000Y-75992134D01*
X115708016Y-76359209D01*
X115851242Y-76704987D01*
X116059174Y-77016179D01*
X116323821Y-77280826D01*
X116535000Y-77421932D01*
X116535001Y-80262708D01*
X116500787Y-80290787D01*
X116332085Y-80496351D01*
X116206728Y-80730878D01*
X116129533Y-80985354D01*
X116103468Y-81250000D01*
X116129533Y-81514646D01*
X116206728Y-81769122D01*
X116332085Y-82003649D01*
X116500787Y-82209213D01*
X116706351Y-82377915D01*
X116940878Y-82503272D01*
X117195354Y-82580467D01*
X117393679Y-82600000D01*
X117526321Y-82600000D01*
X117724646Y-82580467D01*
X117979122Y-82503272D01*
X118213649Y-82377915D01*
X118419213Y-82209213D01*
X118587915Y-82003649D01*
X118713272Y-81769122D01*
X118790467Y-81514646D01*
X118816532Y-81250000D01*
X118790467Y-80985354D01*
X118713272Y-80730878D01*
X118587915Y-80496351D01*
X118535000Y-80431874D01*
X118535000Y-77421931D01*
X118746179Y-77280826D01*
X119010826Y-77016179D01*
X119218758Y-76704987D01*
X119361984Y-76359209D01*
X119435000Y-75992134D01*
X119508016Y-76359209D01*
X119651242Y-76704987D01*
X119859174Y-77016179D01*
X120123821Y-77280826D01*
X120435013Y-77488758D01*
X120780791Y-77631984D01*
X121147866Y-77705000D01*
X121522134Y-77705000D01*
X121540001Y-77701446D01*
X121540000Y-79923004D01*
X121497733Y-79935825D01*
X121410871Y-79982254D01*
X121334736Y-80044736D01*
X121272254Y-80120871D01*
X121225825Y-80207733D01*
X121197235Y-80301983D01*
X121187581Y-80400000D01*
X121187581Y-82100000D01*
X121197235Y-82198017D01*
X121225825Y-82292267D01*
X121272254Y-82379129D01*
X121334736Y-82455264D01*
X121410871Y-82517746D01*
X121497733Y-82564175D01*
X121591983Y-82592765D01*
X121690000Y-82602419D01*
X123390000Y-82602419D01*
X123488017Y-82592765D01*
X123582267Y-82564175D01*
X123669129Y-82517746D01*
X123745264Y-82455264D01*
X123807746Y-82379129D01*
X123854175Y-82292267D01*
X123882765Y-82198017D01*
X123892419Y-82100000D01*
X123892419Y-81753772D01*
X140500000Y-81753772D01*
X140500000Y-82246228D01*
X140596074Y-82729223D01*
X140784529Y-83184194D01*
X141058124Y-83593657D01*
X141406343Y-83941876D01*
X141815806Y-84215471D01*
X142270777Y-84403926D01*
X142753772Y-84500000D01*
X143246228Y-84500000D01*
X143729223Y-84403926D01*
X144184194Y-84215471D01*
X144593657Y-83941876D01*
X144941876Y-83593657D01*
X145215471Y-83184194D01*
X145403926Y-82729223D01*
X145500000Y-82246228D01*
X145500000Y-81753772D01*
X145403926Y-81270777D01*
X145215471Y-80815806D01*
X144941876Y-80406343D01*
X144593657Y-80058124D01*
X144184194Y-79784529D01*
X143729223Y-79596074D01*
X143246228Y-79500000D01*
X142753772Y-79500000D01*
X142270777Y-79596074D01*
X141815806Y-79784529D01*
X141406343Y-80058124D01*
X141058124Y-80406343D01*
X140784529Y-80815806D01*
X140596074Y-81270777D01*
X140500000Y-81753772D01*
X123892419Y-81753772D01*
X123892419Y-80400000D01*
X123882765Y-80301983D01*
X123854175Y-80207733D01*
X123807746Y-80120871D01*
X123745264Y-80044736D01*
X123669129Y-79982254D01*
X123582267Y-79935825D01*
X123540000Y-79923004D01*
X123540000Y-77300000D01*
X129862581Y-77300000D01*
X129862581Y-80850000D01*
X129872235Y-80948017D01*
X129900825Y-81042267D01*
X129947254Y-81129129D01*
X130009736Y-81205264D01*
X130085871Y-81267746D01*
X130172733Y-81314175D01*
X130266983Y-81342765D01*
X130365000Y-81352419D01*
X131555000Y-81352419D01*
X131653017Y-81342765D01*
X131747267Y-81314175D01*
X131834129Y-81267746D01*
X131910264Y-81205264D01*
X131972746Y-81129129D01*
X132019175Y-81042267D01*
X132047765Y-80948017D01*
X132057419Y-80850000D01*
X132057419Y-77300000D01*
X132047765Y-77201983D01*
X132019175Y-77107733D01*
X131972746Y-77020871D01*
X131910264Y-76944736D01*
X131834129Y-76882254D01*
X131747267Y-76835825D01*
X131653017Y-76807235D01*
X131555000Y-76797581D01*
X130365000Y-76797581D01*
X130266983Y-76807235D01*
X130172733Y-76835825D01*
X130085871Y-76882254D01*
X130009736Y-76944736D01*
X129947254Y-77020871D01*
X129900825Y-77107733D01*
X129872235Y-77201983D01*
X129862581Y-77300000D01*
X123540000Y-77300000D01*
X123540000Y-77059117D01*
X123544838Y-77009999D01*
X123534199Y-76901983D01*
X123525530Y-76813966D01*
X123468349Y-76625465D01*
X123375492Y-76451742D01*
X123250528Y-76299472D01*
X123212368Y-76268155D01*
X123185450Y-76241237D01*
X123235000Y-75992134D01*
X123235000Y-75617866D01*
X123161984Y-75250791D01*
X123018758Y-74905013D01*
X122810826Y-74593821D01*
X122546179Y-74329174D01*
X122234987Y-74121242D01*
X121889209Y-73978016D01*
X121522134Y-73905000D01*
X121147866Y-73905000D01*
X120780791Y-73978016D01*
X120435013Y-74121242D01*
X120123821Y-74329174D01*
X119859174Y-74593821D01*
X119651242Y-74905013D01*
X119508016Y-75250791D01*
X119435000Y-75617866D01*
X119361984Y-75250791D01*
X119218758Y-74905013D01*
X119010826Y-74593821D01*
X118746179Y-74329174D01*
X118434987Y-74121242D01*
X118089209Y-73978016D01*
X117722134Y-73905000D01*
X117347866Y-73905000D01*
X116980791Y-73978016D01*
X116635013Y-74121242D01*
X116323821Y-74329174D01*
X116059174Y-74593821D01*
X115851242Y-74905013D01*
X115708016Y-75250791D01*
X115635000Y-75617866D01*
X93125000Y-75617866D01*
X93125000Y-61500000D01*
X96067483Y-61500000D01*
X96023821Y-61529174D01*
X95759174Y-61793821D01*
X95551242Y-62105013D01*
X95408016Y-62450791D01*
X95335000Y-62817866D01*
X95335000Y-63192134D01*
X95408016Y-63559209D01*
X95551242Y-63904987D01*
X95759174Y-64216179D01*
X96023821Y-64480826D01*
X96335013Y-64688758D01*
X96680791Y-64831984D01*
X97047866Y-64905000D01*
X96680791Y-64978016D01*
X96335013Y-65121242D01*
X96023821Y-65329174D01*
X95759174Y-65593821D01*
X95551242Y-65905013D01*
X95408016Y-66250791D01*
X95335000Y-66617866D01*
X95335000Y-66992134D01*
X95408016Y-67359209D01*
X95551242Y-67704987D01*
X95759174Y-68016179D01*
X96023821Y-68280826D01*
X96335013Y-68488758D01*
X96680791Y-68631984D01*
X97047866Y-68705000D01*
X97422134Y-68705000D01*
X97789209Y-68631984D01*
X98134987Y-68488758D01*
X98446179Y-68280826D01*
X98710826Y-68016179D01*
X98918758Y-67704987D01*
X98980885Y-67555000D01*
X100308173Y-67555000D01*
X100345000Y-67558627D01*
X100381827Y-67555000D01*
X100381835Y-67555000D01*
X100492026Y-67544147D01*
X100633401Y-67501261D01*
X100763693Y-67431619D01*
X100877895Y-67337895D01*
X100901379Y-67309280D01*
X109210659Y-59000000D01*
X116246373Y-59000000D01*
X116250000Y-59036827D01*
X116250001Y-65463163D01*
X116246373Y-65500000D01*
X116260853Y-65647025D01*
X116303739Y-65788400D01*
X116336157Y-65849050D01*
X116373382Y-65918693D01*
X116415085Y-65969508D01*
X116443624Y-66004283D01*
X116443627Y-66004286D01*
X116467106Y-66032895D01*
X116495715Y-66056374D01*
X119245715Y-68806376D01*
X119245726Y-68806385D01*
X121548626Y-71109286D01*
X121572105Y-71137895D01*
X121686307Y-71231619D01*
X121816599Y-71301261D01*
X121957974Y-71344147D01*
X122068165Y-71355000D01*
X122068172Y-71355000D01*
X122105000Y-71358627D01*
X122141827Y-71355000D01*
X123389115Y-71355000D01*
X123451242Y-71504987D01*
X123659174Y-71816179D01*
X123923821Y-72080826D01*
X124235013Y-72288758D01*
X124580791Y-72431984D01*
X124947866Y-72505000D01*
X125322134Y-72505000D01*
X125689209Y-72431984D01*
X126034987Y-72288758D01*
X126346179Y-72080826D01*
X126610826Y-71816179D01*
X126818758Y-71504987D01*
X126961984Y-71159209D01*
X127035000Y-70792134D01*
X127035000Y-70417866D01*
X126961984Y-70050791D01*
X126818758Y-69705013D01*
X126610826Y-69393821D01*
X126346179Y-69129174D01*
X126034987Y-68921242D01*
X125689209Y-68778016D01*
X125322134Y-68705000D01*
X125689209Y-68631984D01*
X126034987Y-68488758D01*
X126346179Y-68280826D01*
X126356396Y-68270609D01*
X130000000Y-71914214D01*
X130000000Y-71970880D01*
X129995162Y-72020000D01*
X130000000Y-72069119D01*
X130000000Y-72069120D01*
X130014470Y-72216034D01*
X130071651Y-72404535D01*
X130164509Y-72578258D01*
X130289473Y-72730528D01*
X130327632Y-72761844D01*
X131163155Y-73597368D01*
X131194472Y-73635528D01*
X131346742Y-73760492D01*
X131520465Y-73853349D01*
X131708966Y-73910530D01*
X131855880Y-73925000D01*
X131855881Y-73925000D01*
X131904999Y-73929838D01*
X131954117Y-73925000D01*
X132402581Y-73925000D01*
X132402581Y-74700000D01*
X132412235Y-74798017D01*
X132440825Y-74892267D01*
X132487254Y-74979129D01*
X132549736Y-75055264D01*
X132625871Y-75117746D01*
X132712733Y-75164175D01*
X132806983Y-75192765D01*
X132905000Y-75202419D01*
X134095000Y-75202419D01*
X134193017Y-75192765D01*
X134287267Y-75164175D01*
X134374129Y-75117746D01*
X134450264Y-75055264D01*
X134512746Y-74979129D01*
X134559175Y-74892267D01*
X134587765Y-74798017D01*
X134597419Y-74700000D01*
X134597419Y-71150000D01*
X134587765Y-71051983D01*
X134559175Y-70957733D01*
X134512746Y-70870871D01*
X134450264Y-70794736D01*
X134374129Y-70732254D01*
X134287267Y-70685825D01*
X134193017Y-70657235D01*
X134095000Y-70647581D01*
X132905000Y-70647581D01*
X132806983Y-70657235D01*
X132712733Y-70685825D01*
X132625871Y-70732254D01*
X132549736Y-70794736D01*
X132487254Y-70870871D01*
X132440825Y-70957733D01*
X132412235Y-71051983D01*
X132402581Y-71150000D01*
X132402581Y-71925000D01*
X132319213Y-71925000D01*
X132000000Y-71605788D01*
X132000000Y-71549120D01*
X132004838Y-71500000D01*
X131985530Y-71303966D01*
X131928349Y-71115465D01*
X131835492Y-70941742D01*
X131741840Y-70827626D01*
X131710528Y-70789472D01*
X131672374Y-70758160D01*
X127046849Y-66132637D01*
X127015528Y-66094472D01*
X126863258Y-65969508D01*
X126840415Y-65957298D01*
X126818758Y-65905013D01*
X126610826Y-65593821D01*
X126517005Y-65500000D01*
X127792894Y-65500000D01*
X128646447Y-66353553D01*
X128722215Y-66415735D01*
X128808658Y-66461940D01*
X128902455Y-66490393D01*
X129000000Y-66500000D01*
X138500000Y-66500000D01*
X138597545Y-66490393D01*
X138691342Y-66461940D01*
X138777785Y-66415735D01*
X138853553Y-66353553D01*
X141353553Y-63853553D01*
X141415735Y-63777785D01*
X141461940Y-63691342D01*
X141490393Y-63597545D01*
X141500000Y-63500000D01*
X141500000Y-62707106D01*
X142853553Y-61353553D01*
X142915735Y-61277785D01*
X142961940Y-61191342D01*
X142990393Y-61097545D01*
X143000000Y-61000000D01*
X143000000Y-60875000D01*
X145167894Y-60875000D01*
X147646447Y-63353553D01*
X147722215Y-63415735D01*
X147808658Y-63461940D01*
X147902455Y-63490393D01*
X148000000Y-63500000D01*
X151792894Y-63500000D01*
X152500000Y-64207106D01*
X152500000Y-72500000D01*
X152509607Y-72597545D01*
X152538060Y-72691342D01*
X152584265Y-72777785D01*
X152646447Y-72853553D01*
X153000000Y-73207106D01*
X153000000Y-73292894D01*
X147353553Y-67646447D01*
X147277785Y-67584265D01*
X147191342Y-67538060D01*
X147097545Y-67509607D01*
X147000000Y-67500000D01*
X141500000Y-67500000D01*
X141402455Y-67509607D01*
X141308658Y-67538060D01*
X141222215Y-67584265D01*
X141146447Y-67646447D01*
X141084265Y-67722215D01*
X141038060Y-67808658D01*
X141009607Y-67902455D01*
X141000000Y-68000000D01*
X141000000Y-71500000D01*
X141009607Y-71597545D01*
X141038060Y-71691342D01*
X141084265Y-71777785D01*
X141146447Y-71853553D01*
X147646447Y-78353553D01*
X147722215Y-78415735D01*
X147808658Y-78461940D01*
X147902455Y-78490393D01*
X148000000Y-78500000D01*
X151500000Y-78500000D01*
X151597545Y-78490393D01*
X151691342Y-78461940D01*
X151777785Y-78415735D01*
X151853553Y-78353553D01*
X153000000Y-77207106D01*
X153000000Y-80500000D01*
X153009607Y-80597545D01*
X153038060Y-80691342D01*
X153084265Y-80777785D01*
X153146447Y-80853553D01*
X153646447Y-81353553D01*
X153722215Y-81415735D01*
X153808658Y-81461940D01*
X153902455Y-81490393D01*
X154000000Y-81500000D01*
X158000000Y-81500000D01*
X158097545Y-81490393D01*
X158191342Y-81461940D01*
X158277785Y-81415735D01*
X158353553Y-81353553D01*
X159353553Y-80353553D01*
X159415735Y-80277785D01*
X159461940Y-80191342D01*
X159490393Y-80097545D01*
X159500000Y-80000000D01*
X159500000Y-74207106D01*
X160207106Y-73500000D01*
X162000000Y-73500000D01*
X162097545Y-73490393D01*
X162191342Y-73461940D01*
X162277785Y-73415735D01*
X162353553Y-73353553D01*
X162853553Y-72853553D01*
X162915735Y-72777785D01*
X162961940Y-72691342D01*
X162990393Y-72597545D01*
X163000000Y-72500000D01*
X163000000Y-70707106D01*
X163207106Y-70500000D01*
X168500000Y-70500000D01*
X168597545Y-70490393D01*
X168691342Y-70461940D01*
X168777785Y-70415735D01*
X168853553Y-70353553D01*
X168915735Y-70277785D01*
X168961940Y-70191342D01*
X168990393Y-70097545D01*
X169000000Y-70000000D01*
X169000000Y-59000000D01*
X168990393Y-58902455D01*
X168961940Y-58808658D01*
X168915735Y-58722215D01*
X168853553Y-58646447D01*
X167353553Y-57146447D01*
X167277785Y-57084265D01*
X167191342Y-57038060D01*
X167097545Y-57009607D01*
X167000000Y-57000000D01*
X163049560Y-57000000D01*
X163025000Y-56997581D01*
X162025000Y-56997581D01*
X162000440Y-57000000D01*
X160207106Y-57000000D01*
X158500000Y-55292894D01*
X158500000Y-52500000D01*
X158490393Y-52402455D01*
X158461940Y-52308658D01*
X158415735Y-52222215D01*
X158353553Y-52146447D01*
X157460878Y-51253772D01*
X162000000Y-51253772D01*
X162000000Y-51746228D01*
X162096074Y-52229223D01*
X162284529Y-52684194D01*
X162558124Y-53093657D01*
X162906343Y-53441876D01*
X163315806Y-53715471D01*
X163770777Y-53903926D01*
X164253772Y-54000000D01*
X164746228Y-54000000D01*
X165229223Y-53903926D01*
X165684194Y-53715471D01*
X166093657Y-53441876D01*
X166441876Y-53093657D01*
X166715471Y-52684194D01*
X166903926Y-52229223D01*
X167000000Y-51746228D01*
X167000000Y-51253772D01*
X166903926Y-50770777D01*
X166715471Y-50315806D01*
X166441876Y-49906343D01*
X166093657Y-49558124D01*
X165684194Y-49284529D01*
X165229223Y-49096074D01*
X164746228Y-49000000D01*
X164253772Y-49000000D01*
X163770777Y-49096074D01*
X163315806Y-49284529D01*
X162906343Y-49558124D01*
X162558124Y-49906343D01*
X162284529Y-50315806D01*
X162096074Y-50770777D01*
X162000000Y-51253772D01*
X157460878Y-51253772D01*
X157353553Y-51146447D01*
X157277785Y-51084265D01*
X157191342Y-51038060D01*
X157097545Y-51009607D01*
X157000000Y-51000000D01*
X145500000Y-51000000D01*
X145402455Y-51009607D01*
X145375000Y-51017935D01*
X145375000Y-51000000D01*
X145372598Y-50975614D01*
X145365485Y-50952165D01*
X145353934Y-50930554D01*
X145338388Y-50911612D01*
X144338388Y-49911612D01*
X144319446Y-49896066D01*
X144297835Y-49884515D01*
X144274386Y-49877402D01*
X144250000Y-49875000D01*
X143500000Y-49875000D01*
X143475614Y-49877402D01*
X143452165Y-49884515D01*
X143430554Y-49896066D01*
X143411612Y-49911612D01*
X142661612Y-50661612D01*
X142646066Y-50680554D01*
X142634515Y-50702165D01*
X142627402Y-50725614D01*
X142625000Y-50750000D01*
X142625000Y-51017935D01*
X142597545Y-51009607D01*
X142500000Y-51000000D01*
X126500000Y-51000000D01*
X126402455Y-51009607D01*
X126308658Y-51038060D01*
X126222215Y-51084265D01*
X126146447Y-51146447D01*
X122792894Y-54500000D01*
X121000000Y-54500000D01*
X120902455Y-54509607D01*
X120808658Y-54538060D01*
X120722215Y-54584265D01*
X120646447Y-54646447D01*
X120584265Y-54722215D01*
X120538060Y-54808658D01*
X120509607Y-54902455D01*
X120500000Y-55000000D01*
X120500000Y-65000000D01*
X120509607Y-65097545D01*
X120538060Y-65191342D01*
X120584265Y-65277785D01*
X120646447Y-65353553D01*
X120722215Y-65415735D01*
X120808658Y-65461940D01*
X120902455Y-65490393D01*
X121000000Y-65500000D01*
X123752995Y-65500000D01*
X123659174Y-65593821D01*
X123451242Y-65905013D01*
X123308016Y-66250791D01*
X123235000Y-66617866D01*
X123235000Y-66992134D01*
X123308016Y-67359209D01*
X123451242Y-67704987D01*
X123659174Y-68016179D01*
X123923821Y-68280826D01*
X124235013Y-68488758D01*
X124580791Y-68631984D01*
X124947866Y-68705000D01*
X124580791Y-68778016D01*
X124235013Y-68921242D01*
X123923821Y-69129174D01*
X123659174Y-69393821D01*
X123451242Y-69705013D01*
X123389115Y-69855000D01*
X122415660Y-69855000D01*
X120306385Y-67745726D01*
X120306376Y-67745715D01*
X117750000Y-65189341D01*
X117750000Y-59310659D01*
X120016786Y-57043874D01*
X120045395Y-57020395D01*
X120139119Y-56906193D01*
X120208761Y-56775901D01*
X120251647Y-56634526D01*
X120262500Y-56524335D01*
X120262500Y-56524328D01*
X120266127Y-56487500D01*
X120262500Y-56450672D01*
X120262500Y-53320278D01*
X120262938Y-53320145D01*
X120393022Y-53250614D01*
X120507041Y-53157041D01*
X120600614Y-53043022D01*
X120670145Y-52912938D01*
X120712961Y-52771790D01*
X120727419Y-52625000D01*
X120727419Y-51375000D01*
X120712961Y-51228210D01*
X120670145Y-51087062D01*
X120600614Y-50956978D01*
X120507041Y-50842959D01*
X120393022Y-50749386D01*
X120262938Y-50679855D01*
X120121790Y-50637039D01*
X119975000Y-50622581D01*
X119050000Y-50622581D01*
X118903210Y-50637039D01*
X118762062Y-50679855D01*
X118631978Y-50749386D01*
X118517959Y-50842959D01*
X118424386Y-50956978D01*
X118354855Y-51087062D01*
X118312039Y-51228210D01*
X118297581Y-51375000D01*
X118297581Y-52625000D01*
X118312039Y-52771790D01*
X118354855Y-52912938D01*
X118424386Y-53043022D01*
X118517959Y-53157041D01*
X118631978Y-53250614D01*
X118762062Y-53320145D01*
X118762500Y-53320278D01*
X118762501Y-56176839D01*
X116495720Y-58443621D01*
X116467105Y-58467105D01*
X116373381Y-58581308D01*
X116303739Y-58711600D01*
X116260853Y-58852975D01*
X116250000Y-58963166D01*
X116250000Y-58963173D01*
X116246373Y-59000000D01*
X109210659Y-59000000D01*
X114058241Y-54152419D01*
X114250000Y-54152419D01*
X114274448Y-54150011D01*
X114299009Y-54150011D01*
X114397026Y-54140357D01*
X114493159Y-54121235D01*
X114587407Y-54092646D01*
X114677963Y-54055137D01*
X114764827Y-54008707D01*
X114838296Y-53959616D01*
X115043806Y-54165126D01*
X115289483Y-54329283D01*
X115562466Y-54442356D01*
X115852263Y-54500000D01*
X116147737Y-54500000D01*
X116437534Y-54442356D01*
X116710517Y-54329283D01*
X116956194Y-54165126D01*
X117165126Y-53956194D01*
X117329283Y-53710517D01*
X117442356Y-53437534D01*
X117500000Y-53147737D01*
X117500000Y-52852263D01*
X117442356Y-52562466D01*
X117329283Y-52289483D01*
X117165126Y-52043806D01*
X116956194Y-51834874D01*
X116710517Y-51670717D01*
X116437534Y-51557644D01*
X116147737Y-51500000D01*
X115852263Y-51500000D01*
X115562466Y-51557644D01*
X115289483Y-51670717D01*
X115043806Y-51834874D01*
X114834874Y-52043806D01*
X114781612Y-52123518D01*
X114776880Y-52107845D01*
X114763592Y-52062697D01*
X114762780Y-52061143D01*
X114762273Y-52059465D01*
X114740171Y-52017896D01*
X114718382Y-51976218D01*
X114717285Y-51974853D01*
X114716461Y-51973304D01*
X114686718Y-51936836D01*
X114657236Y-51900168D01*
X114655892Y-51899040D01*
X114654785Y-51897683D01*
X114618585Y-51867735D01*
X114582484Y-51837443D01*
X114580945Y-51836597D01*
X114579596Y-51835481D01*
X114538227Y-51813112D01*
X114496971Y-51790432D01*
X114495301Y-51789902D01*
X114493758Y-51789068D01*
X114448789Y-51775148D01*
X114403956Y-51760926D01*
X114402215Y-51760731D01*
X114400539Y-51760212D01*
X114353694Y-51755288D01*
X114306981Y-51750049D01*
X114303618Y-51750025D01*
X114303491Y-51750012D01*
X114303363Y-51750024D01*
X114300000Y-51750000D01*
X113700000Y-51750000D01*
X113653183Y-51754590D01*
X113606309Y-51758856D01*
X113604627Y-51759351D01*
X113602883Y-51759522D01*
X113557845Y-51773120D01*
X113512697Y-51786408D01*
X113511143Y-51787220D01*
X113509465Y-51787727D01*
X113467896Y-51809829D01*
X113426218Y-51831618D01*
X113424853Y-51832715D01*
X113423304Y-51833539D01*
X113386836Y-51863282D01*
X113350168Y-51892764D01*
X113349040Y-51894108D01*
X113347683Y-51895215D01*
X113317735Y-51931415D01*
X113287443Y-51967516D01*
X113286597Y-51969055D01*
X113285481Y-51970404D01*
X113263112Y-52011773D01*
X113240432Y-52053029D01*
X113239902Y-52054699D01*
X113239068Y-52056242D01*
X113225148Y-52101211D01*
X113210926Y-52146044D01*
X113210731Y-52147785D01*
X113210212Y-52149461D01*
X113209995Y-52151521D01*
X113151983Y-52157235D01*
X113057733Y-52185825D01*
X112970871Y-52232254D01*
X112894736Y-52294736D01*
X112832254Y-52370871D01*
X112785825Y-52457733D01*
X112757235Y-52551983D01*
X112747581Y-52650000D01*
X112747581Y-53150000D01*
X112749989Y-53174448D01*
X112749989Y-53199009D01*
X112759643Y-53297026D01*
X112765063Y-53324277D01*
X112284254Y-53805087D01*
X112320145Y-53737938D01*
X112362961Y-53596790D01*
X112377419Y-53450000D01*
X112377419Y-52525000D01*
X112362961Y-52378210D01*
X112320145Y-52237062D01*
X112250614Y-52106978D01*
X112157041Y-51992959D01*
X112043022Y-51899386D01*
X111912938Y-51829855D01*
X111771790Y-51787039D01*
X111625000Y-51772581D01*
X110375000Y-51772581D01*
X110228210Y-51787039D01*
X110087062Y-51829855D01*
X109956978Y-51899386D01*
X109842959Y-51992959D01*
X109749386Y-52106978D01*
X109679855Y-52237062D01*
X109675930Y-52250000D01*
X109442094Y-52250000D01*
X109432101Y-52235045D01*
X109330000Y-52132944D01*
X109330000Y-51436863D01*
X109432634Y-51352634D01*
X109582591Y-51169910D01*
X109694019Y-50961442D01*
X109762637Y-50735241D01*
X109785806Y-50500000D01*
X109762637Y-50264759D01*
X109694019Y-50038558D01*
X109582591Y-49830090D01*
X109432634Y-49647366D01*
X109249910Y-49497409D01*
X109041442Y-49385981D01*
X108815241Y-49317363D01*
X108638950Y-49300000D01*
X108521050Y-49300000D01*
X108344759Y-49317363D01*
X108118558Y-49385981D01*
X107910090Y-49497409D01*
X107727366Y-49647366D01*
X107577409Y-49830090D01*
X107465981Y-50038558D01*
X107397363Y-50264759D01*
X107374194Y-50500000D01*
X107397363Y-50735241D01*
X107465981Y-50961442D01*
X107577409Y-51169910D01*
X107727366Y-51352634D01*
X107830000Y-51436863D01*
X107830001Y-52004452D01*
X107735045Y-52067899D01*
X107567899Y-52235045D01*
X107436574Y-52431587D01*
X107346116Y-52649973D01*
X107300000Y-52881810D01*
X107300000Y-53118190D01*
X107303509Y-53135831D01*
X98678173Y-61761168D01*
X98446179Y-61529174D01*
X98402517Y-61500000D01*
X98500000Y-61500000D01*
X98597545Y-61490393D01*
X98691342Y-61461940D01*
X98777785Y-61415735D01*
X98853553Y-61353553D01*
X101353553Y-58853553D01*
X101415735Y-58777785D01*
X101461940Y-58691342D01*
X101490393Y-58597545D01*
X101500000Y-58500000D01*
X101500000Y-56500000D01*
X101490393Y-56402455D01*
X101461940Y-56308658D01*
X101415735Y-56222215D01*
X101353553Y-56146447D01*
X100000000Y-54792894D01*
X100000000Y-52207106D01*
X100853553Y-51353553D01*
X100915735Y-51277785D01*
X100930586Y-51250000D01*
X102557906Y-51250000D01*
X102567899Y-51264955D01*
X102735045Y-51432101D01*
X102931587Y-51563426D01*
X103149973Y-51653884D01*
X103381810Y-51700000D01*
X103618190Y-51700000D01*
X103850027Y-51653884D01*
X104068413Y-51563426D01*
X104264955Y-51432101D01*
X104432101Y-51264955D01*
X104563426Y-51068413D01*
X104653884Y-50850027D01*
X104700000Y-50618190D01*
X104700000Y-50381810D01*
X104653884Y-50149973D01*
X104563426Y-49931587D01*
X104432101Y-49735045D01*
X104264955Y-49567899D01*
X104068413Y-49436574D01*
X103850027Y-49346116D01*
X103618190Y-49300000D01*
X103381810Y-49300000D01*
X103149973Y-49346116D01*
X102931587Y-49436574D01*
X102735045Y-49567899D01*
X102567899Y-49735045D01*
X102557906Y-49750000D01*
X101000000Y-49750000D01*
X101000000Y-48500000D01*
X100990393Y-48402455D01*
X100961940Y-48308658D01*
X100915735Y-48222215D01*
X100853553Y-48146447D01*
X100000000Y-47292894D01*
X100000000Y-45707106D01*
X100707106Y-45000000D01*
X101792894Y-45000000D01*
X102646447Y-45853553D01*
X102722215Y-45915735D01*
X102808658Y-45961940D01*
X102902455Y-45990393D01*
X103000000Y-46000000D01*
X107439340Y-46000000D01*
X107943630Y-46504291D01*
X107967105Y-46532895D01*
X107995708Y-46556369D01*
X107995715Y-46556376D01*
X108069925Y-46617278D01*
X108081307Y-46626619D01*
X108211599Y-46696261D01*
X108352974Y-46739147D01*
X108463165Y-46750000D01*
X108463174Y-46750000D01*
X108499999Y-46753627D01*
X108536824Y-46750000D01*
X113689341Y-46750000D01*
X115803509Y-48864169D01*
X115800000Y-48881810D01*
X115800000Y-49118190D01*
X115846116Y-49350027D01*
X115936574Y-49568413D01*
X116067899Y-49764955D01*
X116235045Y-49932101D01*
X116431587Y-50063426D01*
X116649973Y-50153884D01*
X116881810Y-50200000D01*
X117118190Y-50200000D01*
X117350027Y-50153884D01*
X117568413Y-50063426D01*
X117764955Y-49932101D01*
X117932101Y-49764955D01*
X118063426Y-49568413D01*
X118153884Y-49350027D01*
X118200000Y-49118190D01*
X118200000Y-48911358D01*
X118600000Y-48911358D01*
X118600000Y-49088642D01*
X118634586Y-49262520D01*
X118702430Y-49426310D01*
X118800924Y-49573717D01*
X118926283Y-49699076D01*
X119073690Y-49797570D01*
X119237480Y-49865414D01*
X119411358Y-49900000D01*
X119588642Y-49900000D01*
X119762520Y-49865414D01*
X119926310Y-49797570D01*
X120073717Y-49699076D01*
X120199076Y-49573717D01*
X120297570Y-49426310D01*
X120365414Y-49262520D01*
X120400000Y-49088642D01*
X120400000Y-49000000D01*
X120874194Y-49000000D01*
X120897363Y-49235241D01*
X120965981Y-49461442D01*
X121077409Y-49669910D01*
X121227366Y-49852634D01*
X121410090Y-50002591D01*
X121618558Y-50114019D01*
X121737501Y-50150100D01*
X121737501Y-50679722D01*
X121737062Y-50679855D01*
X121606978Y-50749386D01*
X121492959Y-50842959D01*
X121399386Y-50956978D01*
X121329855Y-51087062D01*
X121287039Y-51228210D01*
X121272581Y-51375000D01*
X121272581Y-52625000D01*
X121287039Y-52771790D01*
X121329855Y-52912938D01*
X121399386Y-53043022D01*
X121492959Y-53157041D01*
X121606978Y-53250614D01*
X121737062Y-53320145D01*
X121878210Y-53362961D01*
X122025000Y-53377419D01*
X122950000Y-53377419D01*
X123096790Y-53362961D01*
X123237938Y-53320145D01*
X123368022Y-53250614D01*
X123482041Y-53157041D01*
X123575614Y-53043022D01*
X123645145Y-52912938D01*
X123687961Y-52771790D01*
X123702419Y-52625000D01*
X123702419Y-51375000D01*
X123687961Y-51228210D01*
X123645145Y-51087062D01*
X123575614Y-50956978D01*
X123482041Y-50842959D01*
X123368022Y-50749386D01*
X123237938Y-50679855D01*
X123237500Y-50679722D01*
X123237500Y-49444327D01*
X123241127Y-49407499D01*
X123237500Y-49370672D01*
X123237500Y-49370665D01*
X123233592Y-49330988D01*
X123262637Y-49235241D01*
X123285806Y-49000000D01*
X123262637Y-48764759D01*
X123194019Y-48538558D01*
X123082591Y-48330090D01*
X122932634Y-48147366D01*
X122749910Y-47997409D01*
X122541442Y-47885981D01*
X122315241Y-47817363D01*
X122138950Y-47800000D01*
X122021050Y-47800000D01*
X121844759Y-47817363D01*
X121618558Y-47885981D01*
X121410090Y-47997409D01*
X121227366Y-48147366D01*
X121077409Y-48330090D01*
X120965981Y-48538558D01*
X120897363Y-48764759D01*
X120874194Y-49000000D01*
X120400000Y-49000000D01*
X120400000Y-48911358D01*
X120365414Y-48737480D01*
X120297570Y-48573690D01*
X120199076Y-48426283D01*
X120073717Y-48300924D01*
X119926310Y-48202430D01*
X119762520Y-48134586D01*
X119588642Y-48100000D01*
X119411358Y-48100000D01*
X119237480Y-48134586D01*
X119073690Y-48202430D01*
X118926283Y-48300924D01*
X118800924Y-48426283D01*
X118702430Y-48573690D01*
X118634586Y-48737480D01*
X118600000Y-48911358D01*
X118200000Y-48911358D01*
X118200000Y-48881810D01*
X118153884Y-48649973D01*
X118063426Y-48431587D01*
X117932101Y-48235045D01*
X117764955Y-48067899D01*
X117568413Y-47936574D01*
X117350027Y-47846116D01*
X117118190Y-47800000D01*
X116881810Y-47800000D01*
X116864169Y-47803509D01*
X114556379Y-45495720D01*
X114532895Y-45467105D01*
X114418693Y-45373381D01*
X114288401Y-45303739D01*
X114147026Y-45260853D01*
X114036835Y-45250000D01*
X114036827Y-45250000D01*
X114000000Y-45246373D01*
X113963173Y-45250000D01*
X109500000Y-45250000D01*
X109500000Y-43753772D01*
X121000000Y-43753772D01*
X121000000Y-44246228D01*
X121096074Y-44729223D01*
X121284529Y-45184194D01*
X121558124Y-45593657D01*
X121906343Y-45941876D01*
X122315806Y-46215471D01*
X122770777Y-46403926D01*
X123253772Y-46500000D01*
X123746228Y-46500000D01*
X124229223Y-46403926D01*
X124684194Y-46215471D01*
X125093657Y-45941876D01*
X125441876Y-45593657D01*
X125715471Y-45184194D01*
X125903926Y-44729223D01*
X126000000Y-44246228D01*
X126000000Y-43753772D01*
X125903926Y-43270777D01*
X125715471Y-42815806D01*
X125441876Y-42406343D01*
X125093657Y-42058124D01*
X124684194Y-41784529D01*
X124229223Y-41596074D01*
X123746228Y-41500000D01*
X123253772Y-41500000D01*
X122770777Y-41596074D01*
X122315806Y-41784529D01*
X121906343Y-42058124D01*
X121558124Y-42406343D01*
X121284529Y-42815806D01*
X121096074Y-43270777D01*
X121000000Y-43753772D01*
X109500000Y-43753772D01*
X109500000Y-31440000D01*
X140322581Y-31440000D01*
X140322581Y-36720000D01*
X140332235Y-36818017D01*
X140360825Y-36912267D01*
X140407254Y-36999129D01*
X140469736Y-37075264D01*
X140545871Y-37137746D01*
X140632733Y-37184175D01*
X140726983Y-37212765D01*
X140825000Y-37222419D01*
X147175000Y-37222419D01*
X147273017Y-37212765D01*
X147367267Y-37184175D01*
X147454129Y-37137746D01*
X147530264Y-37075264D01*
X147592746Y-36999129D01*
X147639175Y-36912267D01*
X147667765Y-36818017D01*
X147677419Y-36720000D01*
X147677419Y-32753772D01*
X162000000Y-32753772D01*
X162000000Y-33246228D01*
X162096074Y-33729223D01*
X162284529Y-34184194D01*
X162558124Y-34593657D01*
X162906343Y-34941876D01*
X163315806Y-35215471D01*
X163770777Y-35403926D01*
X164253772Y-35500000D01*
X164746228Y-35500000D01*
X165229223Y-35403926D01*
X165684194Y-35215471D01*
X166093657Y-34941876D01*
X166441876Y-34593657D01*
X166715471Y-34184194D01*
X166903926Y-33729223D01*
X167000000Y-33246228D01*
X167000000Y-32753772D01*
X166903926Y-32270777D01*
X166715471Y-31815806D01*
X166441876Y-31406343D01*
X166093657Y-31058124D01*
X165684194Y-30784529D01*
X165229223Y-30596074D01*
X164746228Y-30500000D01*
X164253772Y-30500000D01*
X163770777Y-30596074D01*
X163315806Y-30784529D01*
X162906343Y-31058124D01*
X162558124Y-31406343D01*
X162284529Y-31815806D01*
X162096074Y-32270777D01*
X162000000Y-32753772D01*
X147677419Y-32753772D01*
X147677419Y-31440000D01*
X147667765Y-31341983D01*
X147639175Y-31247733D01*
X147592746Y-31160871D01*
X147530264Y-31084736D01*
X147454129Y-31022254D01*
X147367267Y-30975825D01*
X147273017Y-30947235D01*
X147175000Y-30937581D01*
X140825000Y-30937581D01*
X140726983Y-30947235D01*
X140632733Y-30975825D01*
X140545871Y-31022254D01*
X140469736Y-31084736D01*
X140407254Y-31160871D01*
X140360825Y-31247733D01*
X140332235Y-31341983D01*
X140322581Y-31440000D01*
X109500000Y-31440000D01*
X109500000Y-30125000D01*
X170375000Y-30125000D01*
X170375000Y-84875000D01*
X170375000Y-84875000D01*
G37*
X170375000Y-84875000D02*
X93125000Y-84875000D01*
X93125000Y-81753772D01*
X93500000Y-81753772D01*
X93500000Y-82246228D01*
X93596074Y-82729223D01*
X93784529Y-83184194D01*
X94058124Y-83593657D01*
X94406343Y-83941876D01*
X94815806Y-84215471D01*
X95270777Y-84403926D01*
X95753772Y-84500000D01*
X96246228Y-84500000D01*
X96729223Y-84403926D01*
X97184194Y-84215471D01*
X97593657Y-83941876D01*
X97941876Y-83593657D01*
X98215471Y-83184194D01*
X98403926Y-82729223D01*
X98500000Y-82246228D01*
X98500000Y-81753772D01*
X98403926Y-81270777D01*
X98215471Y-80815806D01*
X97941876Y-80406343D01*
X97593657Y-80058124D01*
X97184194Y-79784529D01*
X96729223Y-79596074D01*
X96246228Y-79500000D01*
X95753772Y-79500000D01*
X95270777Y-79596074D01*
X94815806Y-79784529D01*
X94406343Y-80058124D01*
X94058124Y-80406343D01*
X93784529Y-80815806D01*
X93596074Y-81270777D01*
X93500000Y-81753772D01*
X93125000Y-81753772D01*
X93125000Y-75617866D01*
X115635000Y-75617866D01*
X115635000Y-75992134D01*
X115708016Y-76359209D01*
X115851242Y-76704987D01*
X116059174Y-77016179D01*
X116323821Y-77280826D01*
X116535000Y-77421932D01*
X116535001Y-80262708D01*
X116500787Y-80290787D01*
X116332085Y-80496351D01*
X116206728Y-80730878D01*
X116129533Y-80985354D01*
X116103468Y-81250000D01*
X116129533Y-81514646D01*
X116206728Y-81769122D01*
X116332085Y-82003649D01*
X116500787Y-82209213D01*
X116706351Y-82377915D01*
X116940878Y-82503272D01*
X117195354Y-82580467D01*
X117393679Y-82600000D01*
X117526321Y-82600000D01*
X117724646Y-82580467D01*
X117979122Y-82503272D01*
X118213649Y-82377915D01*
X118419213Y-82209213D01*
X118587915Y-82003649D01*
X118713272Y-81769122D01*
X118790467Y-81514646D01*
X118816532Y-81250000D01*
X118790467Y-80985354D01*
X118713272Y-80730878D01*
X118587915Y-80496351D01*
X118535000Y-80431874D01*
X118535000Y-77421931D01*
X118746179Y-77280826D01*
X119010826Y-77016179D01*
X119218758Y-76704987D01*
X119361984Y-76359209D01*
X119435000Y-75992134D01*
X119508016Y-76359209D01*
X119651242Y-76704987D01*
X119859174Y-77016179D01*
X120123821Y-77280826D01*
X120435013Y-77488758D01*
X120780791Y-77631984D01*
X121147866Y-77705000D01*
X121522134Y-77705000D01*
X121540001Y-77701446D01*
X121540000Y-79923004D01*
X121497733Y-79935825D01*
X121410871Y-79982254D01*
X121334736Y-80044736D01*
X121272254Y-80120871D01*
X121225825Y-80207733D01*
X121197235Y-80301983D01*
X121187581Y-80400000D01*
X121187581Y-82100000D01*
X121197235Y-82198017D01*
X121225825Y-82292267D01*
X121272254Y-82379129D01*
X121334736Y-82455264D01*
X121410871Y-82517746D01*
X121497733Y-82564175D01*
X121591983Y-82592765D01*
X121690000Y-82602419D01*
X123390000Y-82602419D01*
X123488017Y-82592765D01*
X123582267Y-82564175D01*
X123669129Y-82517746D01*
X123745264Y-82455264D01*
X123807746Y-82379129D01*
X123854175Y-82292267D01*
X123882765Y-82198017D01*
X123892419Y-82100000D01*
X123892419Y-81753772D01*
X140500000Y-81753772D01*
X140500000Y-82246228D01*
X140596074Y-82729223D01*
X140784529Y-83184194D01*
X141058124Y-83593657D01*
X141406343Y-83941876D01*
X141815806Y-84215471D01*
X142270777Y-84403926D01*
X142753772Y-84500000D01*
X143246228Y-84500000D01*
X143729223Y-84403926D01*
X144184194Y-84215471D01*
X144593657Y-83941876D01*
X144941876Y-83593657D01*
X145215471Y-83184194D01*
X145403926Y-82729223D01*
X145500000Y-82246228D01*
X145500000Y-81753772D01*
X145403926Y-81270777D01*
X145215471Y-80815806D01*
X144941876Y-80406343D01*
X144593657Y-80058124D01*
X144184194Y-79784529D01*
X143729223Y-79596074D01*
X143246228Y-79500000D01*
X142753772Y-79500000D01*
X142270777Y-79596074D01*
X141815806Y-79784529D01*
X141406343Y-80058124D01*
X141058124Y-80406343D01*
X140784529Y-80815806D01*
X140596074Y-81270777D01*
X140500000Y-81753772D01*
X123892419Y-81753772D01*
X123892419Y-80400000D01*
X123882765Y-80301983D01*
X123854175Y-80207733D01*
X123807746Y-80120871D01*
X123745264Y-80044736D01*
X123669129Y-79982254D01*
X123582267Y-79935825D01*
X123540000Y-79923004D01*
X123540000Y-77300000D01*
X129862581Y-77300000D01*
X129862581Y-80850000D01*
X129872235Y-80948017D01*
X129900825Y-81042267D01*
X129947254Y-81129129D01*
X130009736Y-81205264D01*
X130085871Y-81267746D01*
X130172733Y-81314175D01*
X130266983Y-81342765D01*
X130365000Y-81352419D01*
X131555000Y-81352419D01*
X131653017Y-81342765D01*
X131747267Y-81314175D01*
X131834129Y-81267746D01*
X131910264Y-81205264D01*
X131972746Y-81129129D01*
X132019175Y-81042267D01*
X132047765Y-80948017D01*
X132057419Y-80850000D01*
X132057419Y-77300000D01*
X132047765Y-77201983D01*
X132019175Y-77107733D01*
X131972746Y-77020871D01*
X131910264Y-76944736D01*
X131834129Y-76882254D01*
X131747267Y-76835825D01*
X131653017Y-76807235D01*
X131555000Y-76797581D01*
X130365000Y-76797581D01*
X130266983Y-76807235D01*
X130172733Y-76835825D01*
X130085871Y-76882254D01*
X130009736Y-76944736D01*
X129947254Y-77020871D01*
X129900825Y-77107733D01*
X129872235Y-77201983D01*
X129862581Y-77300000D01*
X123540000Y-77300000D01*
X123540000Y-77059117D01*
X123544838Y-77009999D01*
X123534199Y-76901983D01*
X123525530Y-76813966D01*
X123468349Y-76625465D01*
X123375492Y-76451742D01*
X123250528Y-76299472D01*
X123212368Y-76268155D01*
X123185450Y-76241237D01*
X123235000Y-75992134D01*
X123235000Y-75617866D01*
X123161984Y-75250791D01*
X123018758Y-74905013D01*
X122810826Y-74593821D01*
X122546179Y-74329174D01*
X122234987Y-74121242D01*
X121889209Y-73978016D01*
X121522134Y-73905000D01*
X121147866Y-73905000D01*
X120780791Y-73978016D01*
X120435013Y-74121242D01*
X120123821Y-74329174D01*
X119859174Y-74593821D01*
X119651242Y-74905013D01*
X119508016Y-75250791D01*
X119435000Y-75617866D01*
X119361984Y-75250791D01*
X119218758Y-74905013D01*
X119010826Y-74593821D01*
X118746179Y-74329174D01*
X118434987Y-74121242D01*
X118089209Y-73978016D01*
X117722134Y-73905000D01*
X117347866Y-73905000D01*
X116980791Y-73978016D01*
X116635013Y-74121242D01*
X116323821Y-74329174D01*
X116059174Y-74593821D01*
X115851242Y-74905013D01*
X115708016Y-75250791D01*
X115635000Y-75617866D01*
X93125000Y-75617866D01*
X93125000Y-61500000D01*
X96067483Y-61500000D01*
X96023821Y-61529174D01*
X95759174Y-61793821D01*
X95551242Y-62105013D01*
X95408016Y-62450791D01*
X95335000Y-62817866D01*
X95335000Y-63192134D01*
X95408016Y-63559209D01*
X95551242Y-63904987D01*
X95759174Y-64216179D01*
X96023821Y-64480826D01*
X96335013Y-64688758D01*
X96680791Y-64831984D01*
X97047866Y-64905000D01*
X96680791Y-64978016D01*
X96335013Y-65121242D01*
X96023821Y-65329174D01*
X95759174Y-65593821D01*
X95551242Y-65905013D01*
X95408016Y-66250791D01*
X95335000Y-66617866D01*
X95335000Y-66992134D01*
X95408016Y-67359209D01*
X95551242Y-67704987D01*
X95759174Y-68016179D01*
X96023821Y-68280826D01*
X96335013Y-68488758D01*
X96680791Y-68631984D01*
X97047866Y-68705000D01*
X97422134Y-68705000D01*
X97789209Y-68631984D01*
X98134987Y-68488758D01*
X98446179Y-68280826D01*
X98710826Y-68016179D01*
X98918758Y-67704987D01*
X98980885Y-67555000D01*
X100308173Y-67555000D01*
X100345000Y-67558627D01*
X100381827Y-67555000D01*
X100381835Y-67555000D01*
X100492026Y-67544147D01*
X100633401Y-67501261D01*
X100763693Y-67431619D01*
X100877895Y-67337895D01*
X100901379Y-67309280D01*
X109210659Y-59000000D01*
X116246373Y-59000000D01*
X116250000Y-59036827D01*
X116250001Y-65463163D01*
X116246373Y-65500000D01*
X116260853Y-65647025D01*
X116303739Y-65788400D01*
X116336157Y-65849050D01*
X116373382Y-65918693D01*
X116415085Y-65969508D01*
X116443624Y-66004283D01*
X116443627Y-66004286D01*
X116467106Y-66032895D01*
X116495715Y-66056374D01*
X119245715Y-68806376D01*
X119245726Y-68806385D01*
X121548626Y-71109286D01*
X121572105Y-71137895D01*
X121686307Y-71231619D01*
X121816599Y-71301261D01*
X121957974Y-71344147D01*
X122068165Y-71355000D01*
X122068172Y-71355000D01*
X122105000Y-71358627D01*
X122141827Y-71355000D01*
X123389115Y-71355000D01*
X123451242Y-71504987D01*
X123659174Y-71816179D01*
X123923821Y-72080826D01*
X124235013Y-72288758D01*
X124580791Y-72431984D01*
X124947866Y-72505000D01*
X125322134Y-72505000D01*
X125689209Y-72431984D01*
X126034987Y-72288758D01*
X126346179Y-72080826D01*
X126610826Y-71816179D01*
X126818758Y-71504987D01*
X126961984Y-71159209D01*
X127035000Y-70792134D01*
X127035000Y-70417866D01*
X126961984Y-70050791D01*
X126818758Y-69705013D01*
X126610826Y-69393821D01*
X126346179Y-69129174D01*
X126034987Y-68921242D01*
X125689209Y-68778016D01*
X125322134Y-68705000D01*
X125689209Y-68631984D01*
X126034987Y-68488758D01*
X126346179Y-68280826D01*
X126356396Y-68270609D01*
X130000000Y-71914214D01*
X130000000Y-71970880D01*
X129995162Y-72020000D01*
X130000000Y-72069119D01*
X130000000Y-72069120D01*
X130014470Y-72216034D01*
X130071651Y-72404535D01*
X130164509Y-72578258D01*
X130289473Y-72730528D01*
X130327632Y-72761844D01*
X131163155Y-73597368D01*
X131194472Y-73635528D01*
X131346742Y-73760492D01*
X131520465Y-73853349D01*
X131708966Y-73910530D01*
X131855880Y-73925000D01*
X131855881Y-73925000D01*
X131904999Y-73929838D01*
X131954117Y-73925000D01*
X132402581Y-73925000D01*
X132402581Y-74700000D01*
X132412235Y-74798017D01*
X132440825Y-74892267D01*
X132487254Y-74979129D01*
X132549736Y-75055264D01*
X132625871Y-75117746D01*
X132712733Y-75164175D01*
X132806983Y-75192765D01*
X132905000Y-75202419D01*
X134095000Y-75202419D01*
X134193017Y-75192765D01*
X134287267Y-75164175D01*
X134374129Y-75117746D01*
X134450264Y-75055264D01*
X134512746Y-74979129D01*
X134559175Y-74892267D01*
X134587765Y-74798017D01*
X134597419Y-74700000D01*
X134597419Y-71150000D01*
X134587765Y-71051983D01*
X134559175Y-70957733D01*
X134512746Y-70870871D01*
X134450264Y-70794736D01*
X134374129Y-70732254D01*
X134287267Y-70685825D01*
X134193017Y-70657235D01*
X134095000Y-70647581D01*
X132905000Y-70647581D01*
X132806983Y-70657235D01*
X132712733Y-70685825D01*
X132625871Y-70732254D01*
X132549736Y-70794736D01*
X132487254Y-70870871D01*
X132440825Y-70957733D01*
X132412235Y-71051983D01*
X132402581Y-71150000D01*
X132402581Y-71925000D01*
X132319213Y-71925000D01*
X132000000Y-71605788D01*
X132000000Y-71549120D01*
X132004838Y-71500000D01*
X131985530Y-71303966D01*
X131928349Y-71115465D01*
X131835492Y-70941742D01*
X131741840Y-70827626D01*
X131710528Y-70789472D01*
X131672374Y-70758160D01*
X127046849Y-66132637D01*
X127015528Y-66094472D01*
X126863258Y-65969508D01*
X126840415Y-65957298D01*
X126818758Y-65905013D01*
X126610826Y-65593821D01*
X126517005Y-65500000D01*
X127792894Y-65500000D01*
X128646447Y-66353553D01*
X128722215Y-66415735D01*
X128808658Y-66461940D01*
X128902455Y-66490393D01*
X129000000Y-66500000D01*
X138500000Y-66500000D01*
X138597545Y-66490393D01*
X138691342Y-66461940D01*
X138777785Y-66415735D01*
X138853553Y-66353553D01*
X141353553Y-63853553D01*
X141415735Y-63777785D01*
X141461940Y-63691342D01*
X141490393Y-63597545D01*
X141500000Y-63500000D01*
X141500000Y-62707106D01*
X142853553Y-61353553D01*
X142915735Y-61277785D01*
X142961940Y-61191342D01*
X142990393Y-61097545D01*
X143000000Y-61000000D01*
X143000000Y-60875000D01*
X145167894Y-60875000D01*
X147646447Y-63353553D01*
X147722215Y-63415735D01*
X147808658Y-63461940D01*
X147902455Y-63490393D01*
X148000000Y-63500000D01*
X151792894Y-63500000D01*
X152500000Y-64207106D01*
X152500000Y-72500000D01*
X152509607Y-72597545D01*
X152538060Y-72691342D01*
X152584265Y-72777785D01*
X152646447Y-72853553D01*
X153000000Y-73207106D01*
X153000000Y-73292894D01*
X147353553Y-67646447D01*
X147277785Y-67584265D01*
X147191342Y-67538060D01*
X147097545Y-67509607D01*
X147000000Y-67500000D01*
X141500000Y-67500000D01*
X141402455Y-67509607D01*
X141308658Y-67538060D01*
X141222215Y-67584265D01*
X141146447Y-67646447D01*
X141084265Y-67722215D01*
X141038060Y-67808658D01*
X141009607Y-67902455D01*
X141000000Y-68000000D01*
X141000000Y-71500000D01*
X141009607Y-71597545D01*
X141038060Y-71691342D01*
X141084265Y-71777785D01*
X141146447Y-71853553D01*
X147646447Y-78353553D01*
X147722215Y-78415735D01*
X147808658Y-78461940D01*
X147902455Y-78490393D01*
X148000000Y-78500000D01*
X151500000Y-78500000D01*
X151597545Y-78490393D01*
X151691342Y-78461940D01*
X151777785Y-78415735D01*
X151853553Y-78353553D01*
X153000000Y-77207106D01*
X153000000Y-80500000D01*
X153009607Y-80597545D01*
X153038060Y-80691342D01*
X153084265Y-80777785D01*
X153146447Y-80853553D01*
X153646447Y-81353553D01*
X153722215Y-81415735D01*
X153808658Y-81461940D01*
X153902455Y-81490393D01*
X154000000Y-81500000D01*
X158000000Y-81500000D01*
X158097545Y-81490393D01*
X158191342Y-81461940D01*
X158277785Y-81415735D01*
X158353553Y-81353553D01*
X159353553Y-80353553D01*
X159415735Y-80277785D01*
X159461940Y-80191342D01*
X159490393Y-80097545D01*
X159500000Y-80000000D01*
X159500000Y-74207106D01*
X160207106Y-73500000D01*
X162000000Y-73500000D01*
X162097545Y-73490393D01*
X162191342Y-73461940D01*
X162277785Y-73415735D01*
X162353553Y-73353553D01*
X162853553Y-72853553D01*
X162915735Y-72777785D01*
X162961940Y-72691342D01*
X162990393Y-72597545D01*
X163000000Y-72500000D01*
X163000000Y-70707106D01*
X163207106Y-70500000D01*
X168500000Y-70500000D01*
X168597545Y-70490393D01*
X168691342Y-70461940D01*
X168777785Y-70415735D01*
X168853553Y-70353553D01*
X168915735Y-70277785D01*
X168961940Y-70191342D01*
X168990393Y-70097545D01*
X169000000Y-70000000D01*
X169000000Y-59000000D01*
X168990393Y-58902455D01*
X168961940Y-58808658D01*
X168915735Y-58722215D01*
X168853553Y-58646447D01*
X167353553Y-57146447D01*
X167277785Y-57084265D01*
X167191342Y-57038060D01*
X167097545Y-57009607D01*
X167000000Y-57000000D01*
X163049560Y-57000000D01*
X163025000Y-56997581D01*
X162025000Y-56997581D01*
X162000440Y-57000000D01*
X160207106Y-57000000D01*
X158500000Y-55292894D01*
X158500000Y-52500000D01*
X158490393Y-52402455D01*
X158461940Y-52308658D01*
X158415735Y-52222215D01*
X158353553Y-52146447D01*
X157460878Y-51253772D01*
X162000000Y-51253772D01*
X162000000Y-51746228D01*
X162096074Y-52229223D01*
X162284529Y-52684194D01*
X162558124Y-53093657D01*
X162906343Y-53441876D01*
X163315806Y-53715471D01*
X163770777Y-53903926D01*
X164253772Y-54000000D01*
X164746228Y-54000000D01*
X165229223Y-53903926D01*
X165684194Y-53715471D01*
X166093657Y-53441876D01*
X166441876Y-53093657D01*
X166715471Y-52684194D01*
X166903926Y-52229223D01*
X167000000Y-51746228D01*
X167000000Y-51253772D01*
X166903926Y-50770777D01*
X166715471Y-50315806D01*
X166441876Y-49906343D01*
X166093657Y-49558124D01*
X165684194Y-49284529D01*
X165229223Y-49096074D01*
X164746228Y-49000000D01*
X164253772Y-49000000D01*
X163770777Y-49096074D01*
X163315806Y-49284529D01*
X162906343Y-49558124D01*
X162558124Y-49906343D01*
X162284529Y-50315806D01*
X162096074Y-50770777D01*
X162000000Y-51253772D01*
X157460878Y-51253772D01*
X157353553Y-51146447D01*
X157277785Y-51084265D01*
X157191342Y-51038060D01*
X157097545Y-51009607D01*
X157000000Y-51000000D01*
X145500000Y-51000000D01*
X145402455Y-51009607D01*
X145375000Y-51017935D01*
X145375000Y-51000000D01*
X145372598Y-50975614D01*
X145365485Y-50952165D01*
X145353934Y-50930554D01*
X145338388Y-50911612D01*
X144338388Y-49911612D01*
X144319446Y-49896066D01*
X144297835Y-49884515D01*
X144274386Y-49877402D01*
X144250000Y-49875000D01*
X143500000Y-49875000D01*
X143475614Y-49877402D01*
X143452165Y-49884515D01*
X143430554Y-49896066D01*
X143411612Y-49911612D01*
X142661612Y-50661612D01*
X142646066Y-50680554D01*
X142634515Y-50702165D01*
X142627402Y-50725614D01*
X142625000Y-50750000D01*
X142625000Y-51017935D01*
X142597545Y-51009607D01*
X142500000Y-51000000D01*
X126500000Y-51000000D01*
X126402455Y-51009607D01*
X126308658Y-51038060D01*
X126222215Y-51084265D01*
X126146447Y-51146447D01*
X122792894Y-54500000D01*
X121000000Y-54500000D01*
X120902455Y-54509607D01*
X120808658Y-54538060D01*
X120722215Y-54584265D01*
X120646447Y-54646447D01*
X120584265Y-54722215D01*
X120538060Y-54808658D01*
X120509607Y-54902455D01*
X120500000Y-55000000D01*
X120500000Y-65000000D01*
X120509607Y-65097545D01*
X120538060Y-65191342D01*
X120584265Y-65277785D01*
X120646447Y-65353553D01*
X120722215Y-65415735D01*
X120808658Y-65461940D01*
X120902455Y-65490393D01*
X121000000Y-65500000D01*
X123752995Y-65500000D01*
X123659174Y-65593821D01*
X123451242Y-65905013D01*
X123308016Y-66250791D01*
X123235000Y-66617866D01*
X123235000Y-66992134D01*
X123308016Y-67359209D01*
X123451242Y-67704987D01*
X123659174Y-68016179D01*
X123923821Y-68280826D01*
X124235013Y-68488758D01*
X124580791Y-68631984D01*
X124947866Y-68705000D01*
X124580791Y-68778016D01*
X124235013Y-68921242D01*
X123923821Y-69129174D01*
X123659174Y-69393821D01*
X123451242Y-69705013D01*
X123389115Y-69855000D01*
X122415660Y-69855000D01*
X120306385Y-67745726D01*
X120306376Y-67745715D01*
X117750000Y-65189341D01*
X117750000Y-59310659D01*
X120016786Y-57043874D01*
X120045395Y-57020395D01*
X120139119Y-56906193D01*
X120208761Y-56775901D01*
X120251647Y-56634526D01*
X120262500Y-56524335D01*
X120262500Y-56524328D01*
X120266127Y-56487500D01*
X120262500Y-56450672D01*
X120262500Y-53320278D01*
X120262938Y-53320145D01*
X120393022Y-53250614D01*
X120507041Y-53157041D01*
X120600614Y-53043022D01*
X120670145Y-52912938D01*
X120712961Y-52771790D01*
X120727419Y-52625000D01*
X120727419Y-51375000D01*
X120712961Y-51228210D01*
X120670145Y-51087062D01*
X120600614Y-50956978D01*
X120507041Y-50842959D01*
X120393022Y-50749386D01*
X120262938Y-50679855D01*
X120121790Y-50637039D01*
X119975000Y-50622581D01*
X119050000Y-50622581D01*
X118903210Y-50637039D01*
X118762062Y-50679855D01*
X118631978Y-50749386D01*
X118517959Y-50842959D01*
X118424386Y-50956978D01*
X118354855Y-51087062D01*
X118312039Y-51228210D01*
X118297581Y-51375000D01*
X118297581Y-52625000D01*
X118312039Y-52771790D01*
X118354855Y-52912938D01*
X118424386Y-53043022D01*
X118517959Y-53157041D01*
X118631978Y-53250614D01*
X118762062Y-53320145D01*
X118762500Y-53320278D01*
X118762501Y-56176839D01*
X116495720Y-58443621D01*
X116467105Y-58467105D01*
X116373381Y-58581308D01*
X116303739Y-58711600D01*
X116260853Y-58852975D01*
X116250000Y-58963166D01*
X116250000Y-58963173D01*
X116246373Y-59000000D01*
X109210659Y-59000000D01*
X114058241Y-54152419D01*
X114250000Y-54152419D01*
X114274448Y-54150011D01*
X114299009Y-54150011D01*
X114397026Y-54140357D01*
X114493159Y-54121235D01*
X114587407Y-54092646D01*
X114677963Y-54055137D01*
X114764827Y-54008707D01*
X114838296Y-53959616D01*
X115043806Y-54165126D01*
X115289483Y-54329283D01*
X115562466Y-54442356D01*
X115852263Y-54500000D01*
X116147737Y-54500000D01*
X116437534Y-54442356D01*
X116710517Y-54329283D01*
X116956194Y-54165126D01*
X117165126Y-53956194D01*
X117329283Y-53710517D01*
X117442356Y-53437534D01*
X117500000Y-53147737D01*
X117500000Y-52852263D01*
X117442356Y-52562466D01*
X117329283Y-52289483D01*
X117165126Y-52043806D01*
X116956194Y-51834874D01*
X116710517Y-51670717D01*
X116437534Y-51557644D01*
X116147737Y-51500000D01*
X115852263Y-51500000D01*
X115562466Y-51557644D01*
X115289483Y-51670717D01*
X115043806Y-51834874D01*
X114834874Y-52043806D01*
X114781612Y-52123518D01*
X114776880Y-52107845D01*
X114763592Y-52062697D01*
X114762780Y-52061143D01*
X114762273Y-52059465D01*
X114740171Y-52017896D01*
X114718382Y-51976218D01*
X114717285Y-51974853D01*
X114716461Y-51973304D01*
X114686718Y-51936836D01*
X114657236Y-51900168D01*
X114655892Y-51899040D01*
X114654785Y-51897683D01*
X114618585Y-51867735D01*
X114582484Y-51837443D01*
X114580945Y-51836597D01*
X114579596Y-51835481D01*
X114538227Y-51813112D01*
X114496971Y-51790432D01*
X114495301Y-51789902D01*
X114493758Y-51789068D01*
X114448789Y-51775148D01*
X114403956Y-51760926D01*
X114402215Y-51760731D01*
X114400539Y-51760212D01*
X114353694Y-51755288D01*
X114306981Y-51750049D01*
X114303618Y-51750025D01*
X114303491Y-51750012D01*
X114303363Y-51750024D01*
X114300000Y-51750000D01*
X113700000Y-51750000D01*
X113653183Y-51754590D01*
X113606309Y-51758856D01*
X113604627Y-51759351D01*
X113602883Y-51759522D01*
X113557845Y-51773120D01*
X113512697Y-51786408D01*
X113511143Y-51787220D01*
X113509465Y-51787727D01*
X113467896Y-51809829D01*
X113426218Y-51831618D01*
X113424853Y-51832715D01*
X113423304Y-51833539D01*
X113386836Y-51863282D01*
X113350168Y-51892764D01*
X113349040Y-51894108D01*
X113347683Y-51895215D01*
X113317735Y-51931415D01*
X113287443Y-51967516D01*
X113286597Y-51969055D01*
X113285481Y-51970404D01*
X113263112Y-52011773D01*
X113240432Y-52053029D01*
X113239902Y-52054699D01*
X113239068Y-52056242D01*
X113225148Y-52101211D01*
X113210926Y-52146044D01*
X113210731Y-52147785D01*
X113210212Y-52149461D01*
X113209995Y-52151521D01*
X113151983Y-52157235D01*
X113057733Y-52185825D01*
X112970871Y-52232254D01*
X112894736Y-52294736D01*
X112832254Y-52370871D01*
X112785825Y-52457733D01*
X112757235Y-52551983D01*
X112747581Y-52650000D01*
X112747581Y-53150000D01*
X112749989Y-53174448D01*
X112749989Y-53199009D01*
X112759643Y-53297026D01*
X112765063Y-53324277D01*
X112284254Y-53805087D01*
X112320145Y-53737938D01*
X112362961Y-53596790D01*
X112377419Y-53450000D01*
X112377419Y-52525000D01*
X112362961Y-52378210D01*
X112320145Y-52237062D01*
X112250614Y-52106978D01*
X112157041Y-51992959D01*
X112043022Y-51899386D01*
X111912938Y-51829855D01*
X111771790Y-51787039D01*
X111625000Y-51772581D01*
X110375000Y-51772581D01*
X110228210Y-51787039D01*
X110087062Y-51829855D01*
X109956978Y-51899386D01*
X109842959Y-51992959D01*
X109749386Y-52106978D01*
X109679855Y-52237062D01*
X109675930Y-52250000D01*
X109442094Y-52250000D01*
X109432101Y-52235045D01*
X109330000Y-52132944D01*
X109330000Y-51436863D01*
X109432634Y-51352634D01*
X109582591Y-51169910D01*
X109694019Y-50961442D01*
X109762637Y-50735241D01*
X109785806Y-50500000D01*
X109762637Y-50264759D01*
X109694019Y-50038558D01*
X109582591Y-49830090D01*
X109432634Y-49647366D01*
X109249910Y-49497409D01*
X109041442Y-49385981D01*
X108815241Y-49317363D01*
X108638950Y-49300000D01*
X108521050Y-49300000D01*
X108344759Y-49317363D01*
X108118558Y-49385981D01*
X107910090Y-49497409D01*
X107727366Y-49647366D01*
X107577409Y-49830090D01*
X107465981Y-50038558D01*
X107397363Y-50264759D01*
X107374194Y-50500000D01*
X107397363Y-50735241D01*
X107465981Y-50961442D01*
X107577409Y-51169910D01*
X107727366Y-51352634D01*
X107830000Y-51436863D01*
X107830001Y-52004452D01*
X107735045Y-52067899D01*
X107567899Y-52235045D01*
X107436574Y-52431587D01*
X107346116Y-52649973D01*
X107300000Y-52881810D01*
X107300000Y-53118190D01*
X107303509Y-53135831D01*
X98678173Y-61761168D01*
X98446179Y-61529174D01*
X98402517Y-61500000D01*
X98500000Y-61500000D01*
X98597545Y-61490393D01*
X98691342Y-61461940D01*
X98777785Y-61415735D01*
X98853553Y-61353553D01*
X101353553Y-58853553D01*
X101415735Y-58777785D01*
X101461940Y-58691342D01*
X101490393Y-58597545D01*
X101500000Y-58500000D01*
X101500000Y-56500000D01*
X101490393Y-56402455D01*
X101461940Y-56308658D01*
X101415735Y-56222215D01*
X101353553Y-56146447D01*
X100000000Y-54792894D01*
X100000000Y-52207106D01*
X100853553Y-51353553D01*
X100915735Y-51277785D01*
X100930586Y-51250000D01*
X102557906Y-51250000D01*
X102567899Y-51264955D01*
X102735045Y-51432101D01*
X102931587Y-51563426D01*
X103149973Y-51653884D01*
X103381810Y-51700000D01*
X103618190Y-51700000D01*
X103850027Y-51653884D01*
X104068413Y-51563426D01*
X104264955Y-51432101D01*
X104432101Y-51264955D01*
X104563426Y-51068413D01*
X104653884Y-50850027D01*
X104700000Y-50618190D01*
X104700000Y-50381810D01*
X104653884Y-50149973D01*
X104563426Y-49931587D01*
X104432101Y-49735045D01*
X104264955Y-49567899D01*
X104068413Y-49436574D01*
X103850027Y-49346116D01*
X103618190Y-49300000D01*
X103381810Y-49300000D01*
X103149973Y-49346116D01*
X102931587Y-49436574D01*
X102735045Y-49567899D01*
X102567899Y-49735045D01*
X102557906Y-49750000D01*
X101000000Y-49750000D01*
X101000000Y-48500000D01*
X100990393Y-48402455D01*
X100961940Y-48308658D01*
X100915735Y-48222215D01*
X100853553Y-48146447D01*
X100000000Y-47292894D01*
X100000000Y-45707106D01*
X100707106Y-45000000D01*
X101792894Y-45000000D01*
X102646447Y-45853553D01*
X102722215Y-45915735D01*
X102808658Y-45961940D01*
X102902455Y-45990393D01*
X103000000Y-46000000D01*
X107439340Y-46000000D01*
X107943630Y-46504291D01*
X107967105Y-46532895D01*
X107995708Y-46556369D01*
X107995715Y-46556376D01*
X108069925Y-46617278D01*
X108081307Y-46626619D01*
X108211599Y-46696261D01*
X108352974Y-46739147D01*
X108463165Y-46750000D01*
X108463174Y-46750000D01*
X108499999Y-46753627D01*
X108536824Y-46750000D01*
X113689341Y-46750000D01*
X115803509Y-48864169D01*
X115800000Y-48881810D01*
X115800000Y-49118190D01*
X115846116Y-49350027D01*
X115936574Y-49568413D01*
X116067899Y-49764955D01*
X116235045Y-49932101D01*
X116431587Y-50063426D01*
X116649973Y-50153884D01*
X116881810Y-50200000D01*
X117118190Y-50200000D01*
X117350027Y-50153884D01*
X117568413Y-50063426D01*
X117764955Y-49932101D01*
X117932101Y-49764955D01*
X118063426Y-49568413D01*
X118153884Y-49350027D01*
X118200000Y-49118190D01*
X118200000Y-48911358D01*
X118600000Y-48911358D01*
X118600000Y-49088642D01*
X118634586Y-49262520D01*
X118702430Y-49426310D01*
X118800924Y-49573717D01*
X118926283Y-49699076D01*
X119073690Y-49797570D01*
X119237480Y-49865414D01*
X119411358Y-49900000D01*
X119588642Y-49900000D01*
X119762520Y-49865414D01*
X119926310Y-49797570D01*
X120073717Y-49699076D01*
X120199076Y-49573717D01*
X120297570Y-49426310D01*
X120365414Y-49262520D01*
X120400000Y-49088642D01*
X120400000Y-49000000D01*
X120874194Y-49000000D01*
X120897363Y-49235241D01*
X120965981Y-49461442D01*
X121077409Y-49669910D01*
X121227366Y-49852634D01*
X121410090Y-50002591D01*
X121618558Y-50114019D01*
X121737501Y-50150100D01*
X121737501Y-50679722D01*
X121737062Y-50679855D01*
X121606978Y-50749386D01*
X121492959Y-50842959D01*
X121399386Y-50956978D01*
X121329855Y-51087062D01*
X121287039Y-51228210D01*
X121272581Y-51375000D01*
X121272581Y-52625000D01*
X121287039Y-52771790D01*
X121329855Y-52912938D01*
X121399386Y-53043022D01*
X121492959Y-53157041D01*
X121606978Y-53250614D01*
X121737062Y-53320145D01*
X121878210Y-53362961D01*
X122025000Y-53377419D01*
X122950000Y-53377419D01*
X123096790Y-53362961D01*
X123237938Y-53320145D01*
X123368022Y-53250614D01*
X123482041Y-53157041D01*
X123575614Y-53043022D01*
X123645145Y-52912938D01*
X123687961Y-52771790D01*
X123702419Y-52625000D01*
X123702419Y-51375000D01*
X123687961Y-51228210D01*
X123645145Y-51087062D01*
X123575614Y-50956978D01*
X123482041Y-50842959D01*
X123368022Y-50749386D01*
X123237938Y-50679855D01*
X123237500Y-50679722D01*
X123237500Y-49444327D01*
X123241127Y-49407499D01*
X123237500Y-49370672D01*
X123237500Y-49370665D01*
X123233592Y-49330988D01*
X123262637Y-49235241D01*
X123285806Y-49000000D01*
X123262637Y-48764759D01*
X123194019Y-48538558D01*
X123082591Y-48330090D01*
X122932634Y-48147366D01*
X122749910Y-47997409D01*
X122541442Y-47885981D01*
X122315241Y-47817363D01*
X122138950Y-47800000D01*
X122021050Y-47800000D01*
X121844759Y-47817363D01*
X121618558Y-47885981D01*
X121410090Y-47997409D01*
X121227366Y-48147366D01*
X121077409Y-48330090D01*
X120965981Y-48538558D01*
X120897363Y-48764759D01*
X120874194Y-49000000D01*
X120400000Y-49000000D01*
X120400000Y-48911358D01*
X120365414Y-48737480D01*
X120297570Y-48573690D01*
X120199076Y-48426283D01*
X120073717Y-48300924D01*
X119926310Y-48202430D01*
X119762520Y-48134586D01*
X119588642Y-48100000D01*
X119411358Y-48100000D01*
X119237480Y-48134586D01*
X119073690Y-48202430D01*
X118926283Y-48300924D01*
X118800924Y-48426283D01*
X118702430Y-48573690D01*
X118634586Y-48737480D01*
X118600000Y-48911358D01*
X118200000Y-48911358D01*
X118200000Y-48881810D01*
X118153884Y-48649973D01*
X118063426Y-48431587D01*
X117932101Y-48235045D01*
X117764955Y-48067899D01*
X117568413Y-47936574D01*
X117350027Y-47846116D01*
X117118190Y-47800000D01*
X116881810Y-47800000D01*
X116864169Y-47803509D01*
X114556379Y-45495720D01*
X114532895Y-45467105D01*
X114418693Y-45373381D01*
X114288401Y-45303739D01*
X114147026Y-45260853D01*
X114036835Y-45250000D01*
X114036827Y-45250000D01*
X114000000Y-45246373D01*
X113963173Y-45250000D01*
X109500000Y-45250000D01*
X109500000Y-43753772D01*
X121000000Y-43753772D01*
X121000000Y-44246228D01*
X121096074Y-44729223D01*
X121284529Y-45184194D01*
X121558124Y-45593657D01*
X121906343Y-45941876D01*
X122315806Y-46215471D01*
X122770777Y-46403926D01*
X123253772Y-46500000D01*
X123746228Y-46500000D01*
X124229223Y-46403926D01*
X124684194Y-46215471D01*
X125093657Y-45941876D01*
X125441876Y-45593657D01*
X125715471Y-45184194D01*
X125903926Y-44729223D01*
X126000000Y-44246228D01*
X126000000Y-43753772D01*
X125903926Y-43270777D01*
X125715471Y-42815806D01*
X125441876Y-42406343D01*
X125093657Y-42058124D01*
X124684194Y-41784529D01*
X124229223Y-41596074D01*
X123746228Y-41500000D01*
X123253772Y-41500000D01*
X122770777Y-41596074D01*
X122315806Y-41784529D01*
X121906343Y-42058124D01*
X121558124Y-42406343D01*
X121284529Y-42815806D01*
X121096074Y-43270777D01*
X121000000Y-43753772D01*
X109500000Y-43753772D01*
X109500000Y-31440000D01*
X140322581Y-31440000D01*
X140322581Y-36720000D01*
X140332235Y-36818017D01*
X140360825Y-36912267D01*
X140407254Y-36999129D01*
X140469736Y-37075264D01*
X140545871Y-37137746D01*
X140632733Y-37184175D01*
X140726983Y-37212765D01*
X140825000Y-37222419D01*
X147175000Y-37222419D01*
X147273017Y-37212765D01*
X147367267Y-37184175D01*
X147454129Y-37137746D01*
X147530264Y-37075264D01*
X147592746Y-36999129D01*
X147639175Y-36912267D01*
X147667765Y-36818017D01*
X147677419Y-36720000D01*
X147677419Y-32753772D01*
X162000000Y-32753772D01*
X162000000Y-33246228D01*
X162096074Y-33729223D01*
X162284529Y-34184194D01*
X162558124Y-34593657D01*
X162906343Y-34941876D01*
X163315806Y-35215471D01*
X163770777Y-35403926D01*
X164253772Y-35500000D01*
X164746228Y-35500000D01*
X165229223Y-35403926D01*
X165684194Y-35215471D01*
X166093657Y-34941876D01*
X166441876Y-34593657D01*
X166715471Y-34184194D01*
X166903926Y-33729223D01*
X167000000Y-33246228D01*
X167000000Y-32753772D01*
X166903926Y-32270777D01*
X166715471Y-31815806D01*
X166441876Y-31406343D01*
X166093657Y-31058124D01*
X165684194Y-30784529D01*
X165229223Y-30596074D01*
X164746228Y-30500000D01*
X164253772Y-30500000D01*
X163770777Y-30596074D01*
X163315806Y-30784529D01*
X162906343Y-31058124D01*
X162558124Y-31406343D01*
X162284529Y-31815806D01*
X162096074Y-32270777D01*
X162000000Y-32753772D01*
X147677419Y-32753772D01*
X147677419Y-31440000D01*
X147667765Y-31341983D01*
X147639175Y-31247733D01*
X147592746Y-31160871D01*
X147530264Y-31084736D01*
X147454129Y-31022254D01*
X147367267Y-30975825D01*
X147273017Y-30947235D01*
X147175000Y-30937581D01*
X140825000Y-30937581D01*
X140726983Y-30947235D01*
X140632733Y-30975825D01*
X140545871Y-31022254D01*
X140469736Y-31084736D01*
X140407254Y-31160871D01*
X140360825Y-31247733D01*
X140332235Y-31341983D01*
X140322581Y-31440000D01*
X109500000Y-31440000D01*
X109500000Y-30125000D01*
X170375000Y-30125000D01*
X170375000Y-84875000D01*
G36*
X109749386Y-53868022D02*
G01*
X109842959Y-53982041D01*
X109956978Y-54075614D01*
X110087062Y-54145145D01*
X110228210Y-54187961D01*
X110375000Y-54202419D01*
X111625000Y-54202419D01*
X111771790Y-54187961D01*
X111912938Y-54145145D01*
X111980087Y-54109253D01*
X100034341Y-66055000D01*
X98980885Y-66055000D01*
X98918758Y-65905013D01*
X98710826Y-65593821D01*
X98446179Y-65329174D01*
X98134987Y-65121242D01*
X97789209Y-64978016D01*
X97422134Y-64905000D01*
X97789209Y-64831984D01*
X98134987Y-64688758D01*
X98446179Y-64480826D01*
X98710826Y-64216179D01*
X98918758Y-63904987D01*
X99061984Y-63559209D01*
X99077015Y-63483644D01*
X108364169Y-54196491D01*
X108381810Y-54200000D01*
X108618190Y-54200000D01*
X108850027Y-54153884D01*
X109068413Y-54063426D01*
X109264955Y-53932101D01*
X109432101Y-53764955D01*
X109442094Y-53750000D01*
X109686302Y-53750000D01*
X109749386Y-53868022D01*
X109749386Y-53868022D01*
G37*
X109749386Y-53868022D02*
X109842959Y-53982041D01*
X109956978Y-54075614D01*
X110087062Y-54145145D01*
X110228210Y-54187961D01*
X110375000Y-54202419D01*
X111625000Y-54202419D01*
X111771790Y-54187961D01*
X111912938Y-54145145D01*
X111980087Y-54109253D01*
X100034341Y-66055000D01*
X98980885Y-66055000D01*
X98918758Y-65905013D01*
X98710826Y-65593821D01*
X98446179Y-65329174D01*
X98134987Y-65121242D01*
X97789209Y-64978016D01*
X97422134Y-64905000D01*
X97789209Y-64831984D01*
X98134987Y-64688758D01*
X98446179Y-64480826D01*
X98710826Y-64216179D01*
X98918758Y-63904987D01*
X99061984Y-63559209D01*
X99077015Y-63483644D01*
X108364169Y-54196491D01*
X108381810Y-54200000D01*
X108618190Y-54200000D01*
X108850027Y-54153884D01*
X109068413Y-54063426D01*
X109264955Y-53932101D01*
X109432101Y-53764955D01*
X109442094Y-53750000D01*
X109686302Y-53750000D01*
X109749386Y-53868022D01*
G36*
X99646447Y-30146447D02*
G01*
X99584265Y-30222215D01*
X99538060Y-30308658D01*
X99509607Y-30402455D01*
X99500000Y-30500000D01*
X99500000Y-35292894D01*
X98292894Y-36500000D01*
X94500000Y-36500000D01*
X94402455Y-36509607D01*
X94308658Y-36538060D01*
X94222215Y-36584265D01*
X94146447Y-36646447D01*
X93125000Y-37667894D01*
X93125000Y-32753772D01*
X93500000Y-32753772D01*
X93500000Y-33246228D01*
X93596074Y-33729223D01*
X93784529Y-34184194D01*
X94058124Y-34593657D01*
X94406343Y-34941876D01*
X94815806Y-35215471D01*
X95270777Y-35403926D01*
X95753772Y-35500000D01*
X96246228Y-35500000D01*
X96729223Y-35403926D01*
X97184194Y-35215471D01*
X97593657Y-34941876D01*
X97941876Y-34593657D01*
X98215471Y-34184194D01*
X98403926Y-33729223D01*
X98500000Y-33246228D01*
X98500000Y-32753772D01*
X98403926Y-32270777D01*
X98215471Y-31815806D01*
X97941876Y-31406343D01*
X97593657Y-31058124D01*
X97184194Y-30784529D01*
X96729223Y-30596074D01*
X96246228Y-30500000D01*
X95753772Y-30500000D01*
X95270777Y-30596074D01*
X94815806Y-30784529D01*
X94406343Y-31058124D01*
X94058124Y-31406343D01*
X93784529Y-31815806D01*
X93596074Y-32270777D01*
X93500000Y-32753772D01*
X93125000Y-32753772D01*
X93125000Y-30125000D01*
X99667894Y-30125000D01*
X99646447Y-30146447D01*
X99646447Y-30146447D01*
G37*
X99646447Y-30146447D02*
X99584265Y-30222215D01*
X99538060Y-30308658D01*
X99509607Y-30402455D01*
X99500000Y-30500000D01*
X99500000Y-35292894D01*
X98292894Y-36500000D01*
X94500000Y-36500000D01*
X94402455Y-36509607D01*
X94308658Y-36538060D01*
X94222215Y-36584265D01*
X94146447Y-36646447D01*
X93125000Y-37667894D01*
X93125000Y-32753772D01*
X93500000Y-32753772D01*
X93500000Y-33246228D01*
X93596074Y-33729223D01*
X93784529Y-34184194D01*
X94058124Y-34593657D01*
X94406343Y-34941876D01*
X94815806Y-35215471D01*
X95270777Y-35403926D01*
X95753772Y-35500000D01*
X96246228Y-35500000D01*
X96729223Y-35403926D01*
X97184194Y-35215471D01*
X97593657Y-34941876D01*
X97941876Y-34593657D01*
X98215471Y-34184194D01*
X98403926Y-33729223D01*
X98500000Y-33246228D01*
X98500000Y-32753772D01*
X98403926Y-32270777D01*
X98215471Y-31815806D01*
X97941876Y-31406343D01*
X97593657Y-31058124D01*
X97184194Y-30784529D01*
X96729223Y-30596074D01*
X96246228Y-30500000D01*
X95753772Y-30500000D01*
X95270777Y-30596074D01*
X94815806Y-30784529D01*
X94406343Y-31058124D01*
X94058124Y-31406343D01*
X93784529Y-31815806D01*
X93596074Y-32270777D01*
X93500000Y-32753772D01*
X93125000Y-32753772D01*
X93125000Y-30125000D01*
X99667894Y-30125000D01*
X99646447Y-30146447D01*
M02*
