%FSLAX45Y45*%
G04 Gerber Fmt 4.5, Leading zero omitted, Abs format (unit mm)*
G04 Created by KiCad (PCBNEW (5.1.4)-1) date 2021-06-03 13:55:01*
%MOMM*%
%LPD*%
G04 APERTURE LIST*
%ADD10C,0.050000*%
%ADD11C,0.200000*%
%ADD12C,0.300000*%
G04 APERTURE END LIST*
D10*
X17100000Y-2950000D02*
X9250000Y-2950000D01*
X17100000Y-8550000D02*
X17100000Y-2950000D01*
X9250000Y-8550000D02*
X17100000Y-8550000D01*
X9250000Y-2950000D02*
X9250000Y-8550000D01*
D11*
X9305000Y-3655000D02*
X9345000Y-3695000D01*
X9345000Y-3655000D02*
X9305000Y-3695000D01*
X9355000Y-6230000D02*
X9395000Y-6270000D01*
X9395000Y-6230000D02*
X9355000Y-6270000D01*
X9355000Y-6480000D02*
X9395000Y-6520000D01*
X9395000Y-6480000D02*
X9355000Y-6520000D01*
X9355000Y-6730000D02*
X9395000Y-6770000D01*
X9395000Y-6730000D02*
X9355000Y-6770000D01*
X9355000Y-6980000D02*
X9395000Y-7020000D01*
X9395000Y-6980000D02*
X9355000Y-7020000D01*
X9355000Y-7230000D02*
X9395000Y-7270000D01*
X9395000Y-7230000D02*
X9355000Y-7270000D01*
X9355000Y-7480000D02*
X9395000Y-7520000D01*
X9395000Y-7480000D02*
X9355000Y-7520000D01*
X9355000Y-7730000D02*
X9395000Y-7770000D01*
X9395000Y-7730000D02*
X9355000Y-7770000D01*
X9555000Y-6905000D02*
X9595000Y-6945000D01*
X9595000Y-6905000D02*
X9555000Y-6945000D01*
X9555000Y-7805000D02*
X9595000Y-7845000D01*
X9595000Y-7805000D02*
X9555000Y-7845000D01*
X9780000Y-3580000D02*
X9820000Y-3620000D01*
X9820000Y-3580000D02*
X9780000Y-3620000D01*
X9780000Y-7830000D02*
X9820000Y-7870000D01*
X9820000Y-7830000D02*
X9780000Y-7870000D01*
X9830000Y-6905000D02*
X9870000Y-6945000D01*
X9870000Y-6905000D02*
X9830000Y-6945000D01*
X9880000Y-3030000D02*
X9920000Y-3070000D01*
X9920000Y-3030000D02*
X9880000Y-3070000D01*
X9880000Y-3480000D02*
X9920000Y-3520000D01*
X9920000Y-3480000D02*
X9880000Y-3520000D01*
X9880000Y-6480000D02*
X9920000Y-6520000D01*
X9920000Y-6480000D02*
X9880000Y-6520000D01*
X9930000Y-7980000D02*
X9970000Y-8020000D01*
X9970000Y-7980000D02*
X9930000Y-8020000D01*
X9955000Y-8205000D02*
X9995000Y-8245000D01*
X9995000Y-8205000D02*
X9955000Y-8245000D01*
X10005000Y-6805000D02*
X10045000Y-6845000D01*
X10045000Y-6805000D02*
X10005000Y-6845000D01*
X10030000Y-6380000D02*
X10070000Y-6420000D01*
X10070000Y-6380000D02*
X10030000Y-6420000D01*
X10130000Y-5480000D02*
X10170000Y-5520000D01*
X10170000Y-5480000D02*
X10130000Y-5520000D01*
X10130000Y-8355000D02*
X10170000Y-8395000D01*
X10170000Y-8355000D02*
X10130000Y-8395000D01*
X10155000Y-6730000D02*
X10195000Y-6770000D01*
X10195000Y-6730000D02*
X10155000Y-6770000D01*
X10180000Y-4880000D02*
X10220000Y-4920000D01*
X10220000Y-4880000D02*
X10180000Y-4920000D01*
X10180000Y-5180000D02*
X10220000Y-5220000D01*
X10220000Y-5180000D02*
X10180000Y-5220000D01*
X10230000Y-5680000D02*
X10270000Y-5720000D01*
X10270000Y-5680000D02*
X10230000Y-5720000D01*
X10230000Y-6180000D02*
X10270000Y-6220000D01*
X10270000Y-6180000D02*
X10230000Y-6220000D01*
X10280000Y-6605000D02*
X10320000Y-6645000D01*
X10320000Y-6605000D02*
X10280000Y-6645000D01*
X10330000Y-4630000D02*
X10370000Y-4670000D01*
X10370000Y-4630000D02*
X10330000Y-4670000D01*
X10330000Y-4830000D02*
X10370000Y-4870000D01*
X10370000Y-4830000D02*
X10330000Y-4870000D01*
X10330000Y-5580000D02*
X10370000Y-5620000D01*
X10370000Y-5580000D02*
X10330000Y-5620000D01*
X10355000Y-6855000D02*
X10395000Y-6895000D01*
X10395000Y-6855000D02*
X10355000Y-6895000D01*
X10355000Y-7355000D02*
X10395000Y-7395000D01*
X10395000Y-7355000D02*
X10355000Y-7395000D01*
X10355000Y-7855000D02*
X10395000Y-7895000D01*
X10395000Y-7855000D02*
X10355000Y-7895000D01*
X10380000Y-8355000D02*
X10420000Y-8395000D01*
X10420000Y-8355000D02*
X10380000Y-8395000D01*
X10405000Y-6480000D02*
X10445000Y-6520000D01*
X10445000Y-6480000D02*
X10405000Y-6520000D01*
X10430000Y-5480000D02*
X10470000Y-5520000D01*
X10470000Y-5480000D02*
X10430000Y-5520000D01*
X10430000Y-5980000D02*
X10470000Y-6020000D01*
X10470000Y-5980000D02*
X10430000Y-6020000D01*
X10480000Y-4630000D02*
X10520000Y-4670000D01*
X10520000Y-4630000D02*
X10480000Y-4670000D01*
X10530000Y-4830000D02*
X10570000Y-4870000D01*
X10570000Y-4830000D02*
X10530000Y-4870000D01*
X10530000Y-5380000D02*
X10570000Y-5420000D01*
X10570000Y-5380000D02*
X10530000Y-5420000D01*
X10530000Y-6355000D02*
X10570000Y-6395000D01*
X10570000Y-6355000D02*
X10530000Y-6395000D01*
X10630000Y-4980000D02*
X10670000Y-5020000D01*
X10670000Y-4980000D02*
X10630000Y-5020000D01*
X10630000Y-5130000D02*
X10670000Y-5170000D01*
X10670000Y-5130000D02*
X10630000Y-5170000D01*
X10630000Y-5280000D02*
X10670000Y-5320000D01*
X10670000Y-5280000D02*
X10630000Y-5320000D01*
X10630000Y-5780000D02*
X10670000Y-5820000D01*
X10670000Y-5780000D02*
X10630000Y-5820000D01*
X10630000Y-8355000D02*
X10670000Y-8395000D01*
X10670000Y-8355000D02*
X10630000Y-8395000D01*
X10655000Y-6230000D02*
X10695000Y-6270000D01*
X10695000Y-6230000D02*
X10655000Y-6270000D01*
X10680000Y-4630000D02*
X10720000Y-4670000D01*
X10720000Y-4630000D02*
X10680000Y-4670000D01*
X10730000Y-4830000D02*
X10770000Y-4870000D01*
X10770000Y-4830000D02*
X10730000Y-4870000D01*
X10755000Y-6855000D02*
X10795000Y-6895000D01*
X10795000Y-6855000D02*
X10755000Y-6895000D01*
X10755000Y-7355000D02*
X10795000Y-7395000D01*
X10795000Y-7355000D02*
X10755000Y-7395000D01*
X10755000Y-7855000D02*
X10795000Y-7895000D01*
X10795000Y-7855000D02*
X10755000Y-7895000D01*
X10780000Y-6105000D02*
X10820000Y-6145000D01*
X10820000Y-6105000D02*
X10780000Y-6145000D01*
X10830000Y-5580000D02*
X10870000Y-5620000D01*
X10870000Y-5580000D02*
X10830000Y-5620000D01*
X10880000Y-8355000D02*
X10920000Y-8395000D01*
X10920000Y-8355000D02*
X10880000Y-8395000D01*
X10905000Y-5980000D02*
X10945000Y-6020000D01*
X10945000Y-5980000D02*
X10905000Y-6020000D01*
X10930000Y-4830000D02*
X10970000Y-4870000D01*
X10970000Y-4830000D02*
X10930000Y-4870000D01*
X10930000Y-5480000D02*
X10970000Y-5520000D01*
X10970000Y-5480000D02*
X10930000Y-5520000D01*
X10980000Y-5130000D02*
X11020000Y-5170000D01*
X11020000Y-5130000D02*
X10980000Y-5170000D01*
X11005000Y-3055000D02*
X11045000Y-3095000D01*
X11045000Y-3055000D02*
X11005000Y-3095000D01*
X11005000Y-3305000D02*
X11045000Y-3345000D01*
X11045000Y-3305000D02*
X11005000Y-3345000D01*
X11005000Y-4430000D02*
X11045000Y-4470000D01*
X11045000Y-4430000D02*
X11005000Y-4470000D01*
X11030000Y-5855000D02*
X11070000Y-5895000D01*
X11070000Y-5855000D02*
X11030000Y-5895000D01*
X11130000Y-8355000D02*
X11170000Y-8395000D01*
X11170000Y-8355000D02*
X11130000Y-8395000D01*
X11155000Y-5730000D02*
X11195000Y-5770000D01*
X11195000Y-5730000D02*
X11155000Y-5770000D01*
X11155000Y-6855000D02*
X11195000Y-6895000D01*
X11195000Y-6855000D02*
X11155000Y-6895000D01*
X11155000Y-7355000D02*
X11195000Y-7395000D01*
X11195000Y-7355000D02*
X11155000Y-7395000D01*
X11155000Y-7855000D02*
X11195000Y-7895000D01*
X11195000Y-7855000D02*
X11155000Y-7895000D01*
X11180000Y-4780000D02*
X11220000Y-4820000D01*
X11220000Y-4780000D02*
X11180000Y-4820000D01*
X11230000Y-5130000D02*
X11270000Y-5170000D01*
X11270000Y-5130000D02*
X11230000Y-5170000D01*
X11255000Y-3055000D02*
X11295000Y-3095000D01*
X11295000Y-3055000D02*
X11255000Y-3095000D01*
X11255000Y-3305000D02*
X11295000Y-3345000D01*
X11295000Y-3305000D02*
X11255000Y-3345000D01*
X11280000Y-5605000D02*
X11320000Y-5645000D01*
X11320000Y-5605000D02*
X11280000Y-5645000D01*
X11380000Y-4430000D02*
X11420000Y-4470000D01*
X11420000Y-4430000D02*
X11380000Y-4470000D01*
X11380000Y-5480000D02*
X11420000Y-5520000D01*
X11420000Y-5480000D02*
X11380000Y-5520000D01*
X11380000Y-8355000D02*
X11420000Y-8395000D01*
X11420000Y-8355000D02*
X11380000Y-8395000D01*
X11430000Y-5630000D02*
X11470000Y-5670000D01*
X11470000Y-5630000D02*
X11430000Y-5670000D01*
X11480000Y-5880000D02*
X11520000Y-5920000D01*
X11520000Y-5880000D02*
X11480000Y-5920000D01*
X11480000Y-6030000D02*
X11520000Y-6070000D01*
X11520000Y-6030000D02*
X11480000Y-6070000D01*
X11480000Y-6180000D02*
X11520000Y-6220000D01*
X11520000Y-6180000D02*
X11480000Y-6220000D01*
X11480000Y-6330000D02*
X11520000Y-6370000D01*
X11520000Y-6330000D02*
X11480000Y-6370000D01*
X11480000Y-6480000D02*
X11520000Y-6520000D01*
X11520000Y-6480000D02*
X11480000Y-6520000D01*
X11505000Y-3055000D02*
X11545000Y-3095000D01*
X11545000Y-3055000D02*
X11505000Y-3095000D01*
X11505000Y-5005000D02*
X11545000Y-5045000D01*
X11545000Y-5005000D02*
X11505000Y-5045000D01*
X11505000Y-7930000D02*
X11545000Y-7970000D01*
X11545000Y-7930000D02*
X11505000Y-7970000D01*
X11530000Y-6630000D02*
X11570000Y-6670000D01*
X11570000Y-6630000D02*
X11530000Y-6670000D01*
X11530000Y-7330000D02*
X11570000Y-7370000D01*
X11570000Y-7330000D02*
X11530000Y-7370000D01*
X11530000Y-7730000D02*
X11570000Y-7770000D01*
X11570000Y-7730000D02*
X11530000Y-7770000D01*
X11580000Y-3330000D02*
X11620000Y-3370000D01*
X11620000Y-3330000D02*
X11580000Y-3370000D01*
X11580000Y-3530000D02*
X11620000Y-3570000D01*
X11620000Y-3530000D02*
X11580000Y-3570000D01*
X11580000Y-3730000D02*
X11620000Y-3770000D01*
X11620000Y-3730000D02*
X11580000Y-3770000D01*
X11580000Y-3930000D02*
X11620000Y-3970000D01*
X11620000Y-3930000D02*
X11580000Y-3970000D01*
X11580000Y-4130000D02*
X11620000Y-4170000D01*
X11620000Y-4130000D02*
X11580000Y-4170000D01*
X11580000Y-4330000D02*
X11620000Y-4370000D01*
X11620000Y-4330000D02*
X11580000Y-4370000D01*
X11580000Y-5780000D02*
X11620000Y-5820000D01*
X11620000Y-5780000D02*
X11580000Y-5820000D01*
X11605000Y-5555000D02*
X11645000Y-5595000D01*
X11645000Y-5555000D02*
X11605000Y-5595000D01*
X11630000Y-6730000D02*
X11670000Y-6770000D01*
X11670000Y-6730000D02*
X11630000Y-6770000D01*
X11630000Y-8355000D02*
X11670000Y-8395000D01*
X11670000Y-8355000D02*
X11630000Y-8395000D01*
X11680000Y-3230000D02*
X11720000Y-3270000D01*
X11720000Y-3230000D02*
X11680000Y-3270000D01*
X11680000Y-3430000D02*
X11720000Y-3470000D01*
X11720000Y-3430000D02*
X11680000Y-3470000D01*
X11680000Y-3630000D02*
X11720000Y-3670000D01*
X11720000Y-3630000D02*
X11680000Y-3670000D01*
X11680000Y-3830000D02*
X11720000Y-3870000D01*
X11720000Y-3830000D02*
X11680000Y-3870000D01*
X11680000Y-4030000D02*
X11720000Y-4070000D01*
X11720000Y-4030000D02*
X11680000Y-4070000D01*
X11680000Y-4230000D02*
X11720000Y-4270000D01*
X11720000Y-4230000D02*
X11680000Y-4270000D01*
X11680000Y-4430000D02*
X11720000Y-4470000D01*
X11720000Y-4430000D02*
X11680000Y-4470000D01*
X11680000Y-5680000D02*
X11720000Y-5720000D01*
X11720000Y-5680000D02*
X11680000Y-5720000D01*
X11730000Y-6830000D02*
X11770000Y-6870000D01*
X11770000Y-6830000D02*
X11730000Y-6870000D01*
X11755000Y-3055000D02*
X11795000Y-3095000D01*
X11795000Y-3055000D02*
X11755000Y-3095000D01*
X11780000Y-3330000D02*
X11820000Y-3370000D01*
X11820000Y-3330000D02*
X11780000Y-3370000D01*
X11780000Y-3530000D02*
X11820000Y-3570000D01*
X11820000Y-3530000D02*
X11780000Y-3570000D01*
X11780000Y-3730000D02*
X11820000Y-3770000D01*
X11820000Y-3730000D02*
X11780000Y-3770000D01*
X11780000Y-3930000D02*
X11820000Y-3970000D01*
X11820000Y-3930000D02*
X11780000Y-3970000D01*
X11780000Y-4130000D02*
X11820000Y-4170000D01*
X11820000Y-4130000D02*
X11780000Y-4170000D01*
X11780000Y-4330000D02*
X11820000Y-4370000D01*
X11820000Y-4330000D02*
X11780000Y-4370000D01*
X11780000Y-4555000D02*
X11820000Y-4595000D01*
X11820000Y-4555000D02*
X11780000Y-4595000D01*
X11780000Y-5430000D02*
X11820000Y-5470000D01*
X11820000Y-5430000D02*
X11780000Y-5470000D01*
X11780000Y-5580000D02*
X11820000Y-5620000D01*
X11820000Y-5580000D02*
X11780000Y-5620000D01*
X11805000Y-6005000D02*
X11845000Y-6045000D01*
X11845000Y-6005000D02*
X11805000Y-6045000D01*
X11805000Y-6130000D02*
X11845000Y-6170000D01*
X11845000Y-6130000D02*
X11805000Y-6170000D01*
X11805000Y-6255000D02*
X11845000Y-6295000D01*
X11845000Y-6255000D02*
X11805000Y-6295000D01*
X11805000Y-6380000D02*
X11845000Y-6420000D01*
X11845000Y-6380000D02*
X11805000Y-6420000D01*
X11830000Y-6930000D02*
X11870000Y-6970000D01*
X11870000Y-6930000D02*
X11830000Y-6970000D01*
X11855000Y-5905000D02*
X11895000Y-5945000D01*
X11895000Y-5905000D02*
X11855000Y-5945000D01*
X11855000Y-6505000D02*
X11895000Y-6545000D01*
X11895000Y-6505000D02*
X11855000Y-6545000D01*
X11880000Y-3230000D02*
X11920000Y-3270000D01*
X11920000Y-3230000D02*
X11880000Y-3270000D01*
X11880000Y-3430000D02*
X11920000Y-3470000D01*
X11920000Y-3430000D02*
X11880000Y-3470000D01*
X11880000Y-3630000D02*
X11920000Y-3670000D01*
X11920000Y-3630000D02*
X11880000Y-3670000D01*
X11880000Y-3830000D02*
X11920000Y-3870000D01*
X11920000Y-3830000D02*
X11880000Y-3870000D01*
X11880000Y-4030000D02*
X11920000Y-4070000D01*
X11920000Y-4030000D02*
X11880000Y-4070000D01*
X11880000Y-4230000D02*
X11920000Y-4270000D01*
X11920000Y-4230000D02*
X11880000Y-4270000D01*
X11880000Y-4430000D02*
X11920000Y-4470000D01*
X11920000Y-4430000D02*
X11880000Y-4470000D01*
X11880000Y-4680000D02*
X11920000Y-4720000D01*
X11920000Y-4680000D02*
X11880000Y-4720000D01*
X11880000Y-8355000D02*
X11920000Y-8395000D01*
X11920000Y-8355000D02*
X11880000Y-8395000D01*
X11930000Y-4880000D02*
X11970000Y-4920000D01*
X11970000Y-4880000D02*
X11930000Y-4920000D01*
X11930000Y-6580000D02*
X11970000Y-6620000D01*
X11970000Y-6580000D02*
X11930000Y-6620000D01*
X11930000Y-7030000D02*
X11970000Y-7070000D01*
X11970000Y-7030000D02*
X11930000Y-7070000D01*
X11930000Y-7330000D02*
X11970000Y-7370000D01*
X11970000Y-7330000D02*
X11930000Y-7370000D01*
X11930000Y-7730000D02*
X11970000Y-7770000D01*
X11970000Y-7730000D02*
X11930000Y-7770000D01*
X11955000Y-5830000D02*
X11995000Y-5870000D01*
X11995000Y-5830000D02*
X11955000Y-5870000D01*
X11955000Y-7905000D02*
X11995000Y-7945000D01*
X11995000Y-7905000D02*
X11955000Y-7945000D01*
X11980000Y-5980000D02*
X12020000Y-6020000D01*
X12020000Y-5980000D02*
X11980000Y-6020000D01*
X11980000Y-6130000D02*
X12020000Y-6170000D01*
X12020000Y-6130000D02*
X11980000Y-6170000D01*
X11980000Y-6280000D02*
X12020000Y-6320000D01*
X12020000Y-6280000D02*
X11980000Y-6320000D01*
X11980000Y-6430000D02*
X12020000Y-6470000D01*
X12020000Y-6430000D02*
X11980000Y-6470000D01*
X12005000Y-3055000D02*
X12045000Y-3095000D01*
X12045000Y-3055000D02*
X12005000Y-3095000D01*
X12005000Y-6655000D02*
X12045000Y-6695000D01*
X12045000Y-6655000D02*
X12005000Y-6695000D01*
X12030000Y-7130000D02*
X12070000Y-7170000D01*
X12070000Y-7130000D02*
X12030000Y-7170000D01*
X12080000Y-6730000D02*
X12120000Y-6770000D01*
X12120000Y-6730000D02*
X12080000Y-6770000D01*
X12130000Y-6605000D02*
X12170000Y-6645000D01*
X12170000Y-6605000D02*
X12130000Y-6645000D01*
X12130000Y-7230000D02*
X12170000Y-7270000D01*
X12170000Y-7230000D02*
X12130000Y-7270000D01*
X12130000Y-8355000D02*
X12170000Y-8395000D01*
X12170000Y-8355000D02*
X12130000Y-8395000D01*
X12155000Y-6805000D02*
X12195000Y-6845000D01*
X12195000Y-6805000D02*
X12155000Y-6845000D01*
X12255000Y-3055000D02*
X12295000Y-3095000D01*
X12295000Y-3055000D02*
X12255000Y-3095000D01*
X12255000Y-6605000D02*
X12295000Y-6645000D01*
X12295000Y-6605000D02*
X12255000Y-6645000D01*
X12280000Y-7230000D02*
X12320000Y-7270000D01*
X12320000Y-7230000D02*
X12280000Y-7270000D01*
X12305000Y-6805000D02*
X12345000Y-6845000D01*
X12345000Y-6805000D02*
X12305000Y-6845000D01*
X12380000Y-8355000D02*
X12420000Y-8395000D01*
X12420000Y-8355000D02*
X12380000Y-8395000D01*
X12455000Y-7780000D02*
X12495000Y-7820000D01*
X12495000Y-7780000D02*
X12455000Y-7820000D01*
X12455000Y-7980000D02*
X12495000Y-8020000D01*
X12495000Y-7980000D02*
X12455000Y-8020000D01*
X12505000Y-3055000D02*
X12545000Y-3095000D01*
X12545000Y-3055000D02*
X12505000Y-3095000D01*
X12630000Y-8355000D02*
X12670000Y-8395000D01*
X12670000Y-8355000D02*
X12630000Y-8395000D01*
X12680000Y-4880000D02*
X12720000Y-4920000D01*
X12720000Y-4880000D02*
X12680000Y-4920000D01*
X12755000Y-3055000D02*
X12795000Y-3095000D01*
X12795000Y-3055000D02*
X12755000Y-3095000D01*
X12755000Y-7730000D02*
X12795000Y-7770000D01*
X12795000Y-7730000D02*
X12755000Y-7770000D01*
X12755000Y-7980000D02*
X12795000Y-8020000D01*
X12795000Y-7980000D02*
X12755000Y-8020000D01*
X12780000Y-7105000D02*
X12820000Y-7145000D01*
X12820000Y-7105000D02*
X12780000Y-7145000D01*
X12830000Y-6655000D02*
X12870000Y-6695000D01*
X12870000Y-6655000D02*
X12830000Y-6695000D01*
X12855000Y-7205000D02*
X12895000Y-7245000D01*
X12895000Y-7205000D02*
X12855000Y-7245000D01*
X12880000Y-8355000D02*
X12920000Y-8395000D01*
X12920000Y-8355000D02*
X12880000Y-8395000D01*
X12930000Y-4880000D02*
X12970000Y-4920000D01*
X12970000Y-4880000D02*
X12930000Y-4920000D01*
X12930000Y-6730000D02*
X12970000Y-6770000D01*
X12970000Y-6730000D02*
X12930000Y-6770000D01*
X12930000Y-7280000D02*
X12970000Y-7320000D01*
X12970000Y-7280000D02*
X12930000Y-7320000D01*
X13005000Y-3055000D02*
X13045000Y-3095000D01*
X13045000Y-3055000D02*
X13005000Y-3095000D01*
X13005000Y-6805000D02*
X13045000Y-6845000D01*
X13045000Y-6805000D02*
X13005000Y-6845000D01*
X13005000Y-7355000D02*
X13045000Y-7395000D01*
X13045000Y-7355000D02*
X13005000Y-7395000D01*
X13080000Y-6705000D02*
X13120000Y-6745000D01*
X13120000Y-6705000D02*
X13080000Y-6745000D01*
X13080000Y-6880000D02*
X13120000Y-6920000D01*
X13120000Y-6880000D02*
X13080000Y-6920000D01*
X13080000Y-7430000D02*
X13120000Y-7470000D01*
X13120000Y-7430000D02*
X13080000Y-7470000D01*
X13080000Y-7555000D02*
X13120000Y-7595000D01*
X13120000Y-7555000D02*
X13080000Y-7595000D01*
X13130000Y-8355000D02*
X13170000Y-8395000D01*
X13170000Y-8355000D02*
X13130000Y-8395000D01*
X13155000Y-6955000D02*
X13195000Y-6995000D01*
X13195000Y-6955000D02*
X13155000Y-6995000D01*
X13180000Y-4880000D02*
X13220000Y-4920000D01*
X13220000Y-4880000D02*
X13180000Y-4920000D01*
X13180000Y-7555000D02*
X13220000Y-7595000D01*
X13220000Y-7555000D02*
X13180000Y-7595000D01*
X13205000Y-6705000D02*
X13245000Y-6745000D01*
X13245000Y-6705000D02*
X13205000Y-6745000D01*
X13255000Y-3055000D02*
X13295000Y-3095000D01*
X13295000Y-3055000D02*
X13255000Y-3095000D01*
X13255000Y-6980000D02*
X13295000Y-7020000D01*
X13295000Y-6980000D02*
X13255000Y-7020000D01*
X13280000Y-7555000D02*
X13320000Y-7595000D01*
X13320000Y-7555000D02*
X13280000Y-7595000D01*
X13330000Y-6705000D02*
X13370000Y-6745000D01*
X13370000Y-6705000D02*
X13330000Y-6745000D01*
X13355000Y-6980000D02*
X13395000Y-7020000D01*
X13395000Y-6980000D02*
X13355000Y-7020000D01*
X13355000Y-7805000D02*
X13395000Y-7845000D01*
X13395000Y-7805000D02*
X13355000Y-7845000D01*
X13355000Y-8080000D02*
X13395000Y-8120000D01*
X13395000Y-8080000D02*
X13355000Y-8120000D01*
X13380000Y-7555000D02*
X13420000Y-7595000D01*
X13420000Y-7555000D02*
X13380000Y-7595000D01*
X13380000Y-8355000D02*
X13420000Y-8395000D01*
X13420000Y-8355000D02*
X13380000Y-8395000D01*
X13405000Y-6830000D02*
X13445000Y-6870000D01*
X13445000Y-6830000D02*
X13405000Y-6870000D01*
X13430000Y-4880000D02*
X13470000Y-4920000D01*
X13470000Y-4880000D02*
X13430000Y-4920000D01*
X13455000Y-6980000D02*
X13495000Y-7020000D01*
X13495000Y-6980000D02*
X13455000Y-7020000D01*
X13480000Y-7555000D02*
X13520000Y-7595000D01*
X13520000Y-7555000D02*
X13480000Y-7595000D01*
X13505000Y-3055000D02*
X13545000Y-3095000D01*
X13545000Y-3055000D02*
X13505000Y-3095000D01*
X13505000Y-6880000D02*
X13545000Y-6920000D01*
X13545000Y-6880000D02*
X13505000Y-6920000D01*
X13530000Y-7055000D02*
X13570000Y-7095000D01*
X13570000Y-7055000D02*
X13530000Y-7095000D01*
X13530000Y-7155000D02*
X13570000Y-7195000D01*
X13570000Y-7155000D02*
X13530000Y-7195000D01*
X13530000Y-7255000D02*
X13570000Y-7295000D01*
X13570000Y-7255000D02*
X13530000Y-7295000D01*
X13530000Y-7355000D02*
X13570000Y-7395000D01*
X13570000Y-7355000D02*
X13530000Y-7395000D01*
X13530000Y-7455000D02*
X13570000Y-7495000D01*
X13570000Y-7455000D02*
X13530000Y-7495000D01*
X13630000Y-6905000D02*
X13670000Y-6945000D01*
X13670000Y-6905000D02*
X13630000Y-6945000D01*
X13630000Y-8355000D02*
X13670000Y-8395000D01*
X13670000Y-8355000D02*
X13630000Y-8395000D01*
X13680000Y-4880000D02*
X13720000Y-4920000D01*
X13720000Y-4880000D02*
X13680000Y-4920000D01*
X13680000Y-7055000D02*
X13720000Y-7095000D01*
X13720000Y-7055000D02*
X13680000Y-7095000D01*
X13730000Y-6805000D02*
X13770000Y-6845000D01*
X13770000Y-6805000D02*
X13730000Y-6845000D01*
X13755000Y-3055000D02*
X13795000Y-3095000D01*
X13795000Y-3055000D02*
X13755000Y-3095000D01*
X13755000Y-6680000D02*
X13795000Y-6720000D01*
X13795000Y-6680000D02*
X13755000Y-6720000D01*
X13780000Y-7305000D02*
X13820000Y-7345000D01*
X13820000Y-7305000D02*
X13780000Y-7345000D01*
X13780000Y-7530000D02*
X13820000Y-7570000D01*
X13820000Y-7530000D02*
X13780000Y-7570000D01*
X13805000Y-7805000D02*
X13845000Y-7845000D01*
X13845000Y-7805000D02*
X13805000Y-7845000D01*
X13805000Y-8080000D02*
X13845000Y-8120000D01*
X13845000Y-8080000D02*
X13805000Y-8120000D01*
X13855000Y-3305000D02*
X13895000Y-3345000D01*
X13895000Y-3305000D02*
X13855000Y-3345000D01*
X13855000Y-3555000D02*
X13895000Y-3595000D01*
X13895000Y-3555000D02*
X13855000Y-3595000D01*
X13855000Y-6905000D02*
X13895000Y-6945000D01*
X13895000Y-6905000D02*
X13855000Y-6945000D01*
X13855000Y-7055000D02*
X13895000Y-7095000D01*
X13895000Y-7055000D02*
X13855000Y-7095000D01*
X13880000Y-6680000D02*
X13920000Y-6720000D01*
X13920000Y-6680000D02*
X13880000Y-6720000D01*
X13880000Y-8355000D02*
X13920000Y-8395000D01*
X13920000Y-8355000D02*
X13880000Y-8395000D01*
X13930000Y-4880000D02*
X13970000Y-4920000D01*
X13970000Y-4880000D02*
X13930000Y-4920000D01*
X13955000Y-3805000D02*
X13995000Y-3845000D01*
X13995000Y-3805000D02*
X13955000Y-3845000D01*
X13980000Y-6580000D02*
X14020000Y-6620000D01*
X14020000Y-6580000D02*
X13980000Y-6620000D01*
X14005000Y-6805000D02*
X14045000Y-6845000D01*
X14045000Y-6805000D02*
X14005000Y-6845000D01*
X14005000Y-6955000D02*
X14045000Y-6995000D01*
X14045000Y-6955000D02*
X14005000Y-6995000D01*
X14005000Y-7130000D02*
X14045000Y-7170000D01*
X14045000Y-7130000D02*
X14005000Y-7170000D01*
X14030000Y-7655000D02*
X14070000Y-7695000D01*
X14070000Y-7655000D02*
X14030000Y-7695000D01*
X14080000Y-6480000D02*
X14120000Y-6520000D01*
X14120000Y-6480000D02*
X14080000Y-6520000D01*
X14080000Y-7305000D02*
X14120000Y-7345000D01*
X14120000Y-7305000D02*
X14080000Y-7345000D01*
X14180000Y-4880000D02*
X14220000Y-4920000D01*
X14220000Y-4880000D02*
X14180000Y-4920000D01*
X14180000Y-6555000D02*
X14220000Y-6595000D01*
X14220000Y-6555000D02*
X14180000Y-6595000D01*
X14205000Y-7430000D02*
X14245000Y-7470000D01*
X14245000Y-7430000D02*
X14205000Y-7470000D01*
X14255000Y-6680000D02*
X14295000Y-6720000D01*
X14295000Y-6680000D02*
X14255000Y-6720000D01*
X14330000Y-6555000D02*
X14370000Y-6595000D01*
X14370000Y-6555000D02*
X14330000Y-6595000D01*
X14330000Y-7555000D02*
X14370000Y-7595000D01*
X14370000Y-7555000D02*
X14330000Y-7595000D01*
X14355000Y-3805000D02*
X14395000Y-3845000D01*
X14395000Y-3805000D02*
X14355000Y-3845000D01*
X14405000Y-6680000D02*
X14445000Y-6720000D01*
X14445000Y-6680000D02*
X14405000Y-6720000D01*
X14430000Y-4880000D02*
X14470000Y-4920000D01*
X14470000Y-4880000D02*
X14430000Y-4920000D01*
X14480000Y-6555000D02*
X14520000Y-6595000D01*
X14520000Y-6555000D02*
X14480000Y-6595000D01*
X14480000Y-7705000D02*
X14520000Y-7745000D01*
X14520000Y-7705000D02*
X14480000Y-7745000D01*
X14555000Y-6680000D02*
X14595000Y-6720000D01*
X14595000Y-6680000D02*
X14555000Y-6720000D01*
X14630000Y-6555000D02*
X14670000Y-6595000D01*
X14670000Y-6555000D02*
X14630000Y-6595000D01*
X14630000Y-7855000D02*
X14670000Y-7895000D01*
X14670000Y-7855000D02*
X14630000Y-7895000D01*
X14630000Y-8355000D02*
X14670000Y-8395000D01*
X14670000Y-8355000D02*
X14630000Y-8395000D01*
X14680000Y-4880000D02*
X14720000Y-4920000D01*
X14720000Y-4880000D02*
X14680000Y-4920000D01*
X14680000Y-6330000D02*
X14720000Y-6370000D01*
X14720000Y-6330000D02*
X14680000Y-6370000D01*
X14705000Y-6455000D02*
X14745000Y-6495000D01*
X14745000Y-6455000D02*
X14705000Y-6495000D01*
X14730000Y-6680000D02*
X14770000Y-6720000D01*
X14770000Y-6680000D02*
X14730000Y-6720000D01*
X14780000Y-3805000D02*
X14820000Y-3845000D01*
X14820000Y-3805000D02*
X14780000Y-3845000D01*
X14805000Y-6555000D02*
X14845000Y-6595000D01*
X14845000Y-6555000D02*
X14805000Y-6595000D01*
X14805000Y-7930000D02*
X14845000Y-7970000D01*
X14845000Y-7930000D02*
X14805000Y-7970000D01*
X14830000Y-6755000D02*
X14870000Y-6795000D01*
X14870000Y-6755000D02*
X14830000Y-6795000D01*
X14855000Y-6380000D02*
X14895000Y-6420000D01*
X14895000Y-6380000D02*
X14855000Y-6420000D01*
X14880000Y-8355000D02*
X14920000Y-8395000D01*
X14920000Y-8355000D02*
X14880000Y-8395000D01*
X14905000Y-3305000D02*
X14945000Y-3345000D01*
X14945000Y-3305000D02*
X14905000Y-3345000D01*
X14905000Y-3555000D02*
X14945000Y-3595000D01*
X14945000Y-3555000D02*
X14905000Y-3595000D01*
X14930000Y-4880000D02*
X14970000Y-4920000D01*
X14970000Y-4880000D02*
X14930000Y-4920000D01*
X14930000Y-6555000D02*
X14970000Y-6595000D01*
X14970000Y-6555000D02*
X14930000Y-6595000D01*
X14930000Y-6855000D02*
X14970000Y-6895000D01*
X14970000Y-6855000D02*
X14930000Y-6895000D01*
X14980000Y-6380000D02*
X15020000Y-6420000D01*
X15020000Y-6380000D02*
X14980000Y-6420000D01*
X14980000Y-7930000D02*
X15020000Y-7970000D01*
X15020000Y-7930000D02*
X14980000Y-7970000D01*
X15005000Y-3055000D02*
X15045000Y-3095000D01*
X15045000Y-3055000D02*
X15005000Y-3095000D01*
X15005000Y-6680000D02*
X15045000Y-6720000D01*
X15045000Y-6680000D02*
X15005000Y-6720000D01*
X15005000Y-6930000D02*
X15045000Y-6970000D01*
X15045000Y-6930000D02*
X15005000Y-6970000D01*
X15080000Y-7005000D02*
X15120000Y-7045000D01*
X15120000Y-7005000D02*
X15080000Y-7045000D01*
X15130000Y-6380000D02*
X15170000Y-6420000D01*
X15170000Y-6380000D02*
X15130000Y-6420000D01*
X15130000Y-7930000D02*
X15170000Y-7970000D01*
X15170000Y-7930000D02*
X15130000Y-7970000D01*
X15130000Y-8355000D02*
X15170000Y-8395000D01*
X15170000Y-8355000D02*
X15130000Y-8395000D01*
X15155000Y-7080000D02*
X15195000Y-7120000D01*
X15195000Y-7080000D02*
X15155000Y-7120000D01*
X15180000Y-4880000D02*
X15220000Y-4920000D01*
X15220000Y-4880000D02*
X15180000Y-4920000D01*
X15180000Y-6655000D02*
X15220000Y-6695000D01*
X15220000Y-6655000D02*
X15180000Y-6695000D01*
X15180000Y-6780000D02*
X15220000Y-6820000D01*
X15220000Y-6780000D02*
X15180000Y-6820000D01*
X15180000Y-6905000D02*
X15220000Y-6945000D01*
X15220000Y-6905000D02*
X15180000Y-6945000D01*
X15230000Y-7830000D02*
X15270000Y-7870000D01*
X15270000Y-7830000D02*
X15230000Y-7870000D01*
X15230000Y-8105000D02*
X15270000Y-8145000D01*
X15270000Y-8105000D02*
X15230000Y-8145000D01*
X15255000Y-3055000D02*
X15295000Y-3095000D01*
X15295000Y-3055000D02*
X15255000Y-3095000D01*
X15355000Y-8230000D02*
X15395000Y-8270000D01*
X15395000Y-8230000D02*
X15355000Y-8270000D01*
X15380000Y-8355000D02*
X15420000Y-8395000D01*
X15420000Y-8355000D02*
X15380000Y-8395000D01*
X15430000Y-4880000D02*
X15470000Y-4920000D01*
X15470000Y-4880000D02*
X15430000Y-4920000D01*
X15505000Y-3055000D02*
X15545000Y-3095000D01*
X15545000Y-3055000D02*
X15505000Y-3095000D01*
X15530000Y-8230000D02*
X15570000Y-8270000D01*
X15570000Y-8230000D02*
X15530000Y-8270000D01*
X15630000Y-8355000D02*
X15670000Y-8395000D01*
X15670000Y-8355000D02*
X15630000Y-8395000D01*
X15680000Y-4880000D02*
X15720000Y-4920000D01*
X15720000Y-4880000D02*
X15680000Y-4920000D01*
X15705000Y-8230000D02*
X15745000Y-8270000D01*
X15745000Y-8230000D02*
X15705000Y-8270000D01*
X15755000Y-3055000D02*
X15795000Y-3095000D01*
X15795000Y-3055000D02*
X15755000Y-3095000D01*
X15880000Y-8230000D02*
X15920000Y-8270000D01*
X15920000Y-8230000D02*
X15880000Y-8270000D01*
X15880000Y-8355000D02*
X15920000Y-8395000D01*
X15920000Y-8355000D02*
X15880000Y-8395000D01*
X15930000Y-4880000D02*
X15970000Y-4920000D01*
X15970000Y-4880000D02*
X15930000Y-4920000D01*
X15930000Y-5455000D02*
X15970000Y-5495000D01*
X15970000Y-5455000D02*
X15930000Y-5495000D01*
X16005000Y-3055000D02*
X16045000Y-3095000D01*
X16045000Y-3055000D02*
X16005000Y-3095000D01*
X16005000Y-3280000D02*
X16045000Y-3320000D01*
X16045000Y-3280000D02*
X16005000Y-3320000D01*
X16055000Y-5080000D02*
X16095000Y-5120000D01*
X16095000Y-5080000D02*
X16055000Y-5120000D01*
X16055000Y-5280000D02*
X16095000Y-5320000D01*
X16095000Y-5280000D02*
X16055000Y-5320000D01*
X16105000Y-3530000D02*
X16145000Y-3570000D01*
X16145000Y-3530000D02*
X16105000Y-3570000D01*
X16105000Y-3730000D02*
X16145000Y-3770000D01*
X16145000Y-3730000D02*
X16105000Y-3770000D01*
X16105000Y-3930000D02*
X16145000Y-3970000D01*
X16145000Y-3930000D02*
X16105000Y-3970000D01*
X16105000Y-4130000D02*
X16145000Y-4170000D01*
X16145000Y-4130000D02*
X16105000Y-4170000D01*
X16105000Y-4330000D02*
X16145000Y-4370000D01*
X16145000Y-4330000D02*
X16105000Y-4370000D01*
X16105000Y-4530000D02*
X16145000Y-4570000D01*
X16145000Y-4530000D02*
X16105000Y-4570000D01*
X16105000Y-4730000D02*
X16145000Y-4770000D01*
X16145000Y-4730000D02*
X16105000Y-4770000D01*
X16130000Y-8355000D02*
X16170000Y-8395000D01*
X16170000Y-8355000D02*
X16130000Y-8395000D01*
X16155000Y-5430000D02*
X16195000Y-5470000D01*
X16195000Y-5430000D02*
X16155000Y-5470000D01*
X16205000Y-3630000D02*
X16245000Y-3670000D01*
X16245000Y-3630000D02*
X16205000Y-3670000D01*
X16205000Y-3830000D02*
X16245000Y-3870000D01*
X16245000Y-3830000D02*
X16205000Y-3870000D01*
X16205000Y-4030000D02*
X16245000Y-4070000D01*
X16245000Y-4030000D02*
X16205000Y-4070000D01*
X16205000Y-4230000D02*
X16245000Y-4270000D01*
X16245000Y-4230000D02*
X16205000Y-4270000D01*
X16205000Y-4430000D02*
X16245000Y-4470000D01*
X16245000Y-4430000D02*
X16205000Y-4470000D01*
X16205000Y-4630000D02*
X16245000Y-4670000D01*
X16245000Y-4630000D02*
X16205000Y-4670000D01*
X16205000Y-4830000D02*
X16245000Y-4870000D01*
X16245000Y-4830000D02*
X16205000Y-4870000D01*
X16230000Y-5580000D02*
X16270000Y-5620000D01*
X16270000Y-5580000D02*
X16230000Y-5620000D01*
X16305000Y-3730000D02*
X16345000Y-3770000D01*
X16345000Y-3730000D02*
X16305000Y-3770000D01*
X16305000Y-3930000D02*
X16345000Y-3970000D01*
X16345000Y-3930000D02*
X16305000Y-3970000D01*
X16305000Y-4130000D02*
X16345000Y-4170000D01*
X16345000Y-4130000D02*
X16305000Y-4170000D01*
X16305000Y-4330000D02*
X16345000Y-4370000D01*
X16345000Y-4330000D02*
X16305000Y-4370000D01*
X16305000Y-4530000D02*
X16345000Y-4570000D01*
X16345000Y-4530000D02*
X16305000Y-4570000D01*
X16305000Y-4730000D02*
X16345000Y-4770000D01*
X16345000Y-4730000D02*
X16305000Y-4770000D01*
X16380000Y-8355000D02*
X16420000Y-8395000D01*
X16420000Y-8355000D02*
X16380000Y-8395000D01*
X16405000Y-3830000D02*
X16445000Y-3870000D01*
X16445000Y-3830000D02*
X16405000Y-3870000D01*
X16405000Y-4030000D02*
X16445000Y-4070000D01*
X16445000Y-4030000D02*
X16405000Y-4070000D01*
X16405000Y-4230000D02*
X16445000Y-4270000D01*
X16445000Y-4230000D02*
X16405000Y-4270000D01*
X16405000Y-4430000D02*
X16445000Y-4470000D01*
X16445000Y-4430000D02*
X16405000Y-4470000D01*
X16405000Y-4630000D02*
X16445000Y-4670000D01*
X16445000Y-4630000D02*
X16405000Y-4670000D01*
X16530000Y-3730000D02*
X16570000Y-3770000D01*
X16570000Y-3730000D02*
X16530000Y-3770000D01*
X16630000Y-8355000D02*
X16670000Y-8395000D01*
X16670000Y-8355000D02*
X16630000Y-8395000D01*
X16730000Y-3730000D02*
X16770000Y-3770000D01*
X16770000Y-3730000D02*
X16730000Y-3770000D01*
X16880000Y-8355000D02*
X16920000Y-8395000D01*
X16920000Y-8355000D02*
X16880000Y-8395000D01*
X16930000Y-3730000D02*
X16970000Y-3770000D01*
X16970000Y-3730000D02*
X16930000Y-3770000D01*
X16930000Y-3980000D02*
X16970000Y-4020000D01*
X16970000Y-3980000D02*
X16930000Y-4020000D01*
X16930000Y-4230000D02*
X16970000Y-4270000D01*
X16970000Y-4230000D02*
X16930000Y-4270000D01*
X16930000Y-4480000D02*
X16970000Y-4520000D01*
X16970000Y-4480000D02*
X16930000Y-4520000D01*
X16930000Y-4730000D02*
X16970000Y-4770000D01*
X16970000Y-4730000D02*
X16930000Y-4770000D01*
X16930000Y-4980000D02*
X16970000Y-5020000D01*
X16970000Y-4980000D02*
X16930000Y-5020000D01*
X16930000Y-5230000D02*
X16970000Y-5270000D01*
X16970000Y-5230000D02*
X16930000Y-5270000D01*
X16930000Y-5480000D02*
X16970000Y-5520000D01*
X16970000Y-5480000D02*
X16930000Y-5520000D01*
X16930000Y-5730000D02*
X16970000Y-5770000D01*
X16970000Y-5730000D02*
X16930000Y-5770000D01*
X16930000Y-5980000D02*
X16970000Y-6020000D01*
X16970000Y-5980000D02*
X16930000Y-6020000D01*
X16930000Y-6230000D02*
X16970000Y-6270000D01*
X16970000Y-6230000D02*
X16930000Y-6270000D01*
X16930000Y-6480000D02*
X16970000Y-6520000D01*
X16970000Y-6480000D02*
X16930000Y-6520000D01*
X16930000Y-6730000D02*
X16970000Y-6770000D01*
X16970000Y-6730000D02*
X16930000Y-6770000D01*
X16930000Y-6980000D02*
X16970000Y-7020000D01*
X16970000Y-6980000D02*
X16930000Y-7020000D01*
X16930000Y-7230000D02*
X16970000Y-7270000D01*
X16970000Y-7230000D02*
X16930000Y-7270000D01*
X16930000Y-7480000D02*
X16970000Y-7520000D01*
X16970000Y-7480000D02*
X16930000Y-7520000D01*
X16930000Y-7730000D02*
X16970000Y-7770000D01*
X16970000Y-7730000D02*
X16930000Y-7770000D01*
X16930000Y-7980000D02*
X16970000Y-8020000D01*
X16970000Y-7980000D02*
X16930000Y-8020000D01*
X16930000Y-8205000D02*
X16970000Y-8245000D01*
X16970000Y-8205000D02*
X16930000Y-8245000D01*
X11735000Y-4900000D02*
G75*
G03X11735000Y-4900000I-35000J0D01*
G01*
X12243000Y-4900000D02*
G75*
G03X12243000Y-4900000I-35000J0D01*
G01*
X10377000Y-5300000D02*
G75*
G03X10377000Y-5300000I-35000J0D01*
G01*
X10885000Y-5300000D02*
G75*
G03X10885000Y-5300000I-35000J0D01*
G01*
X14485000Y-6442000D02*
G75*
G03X14485000Y-6442000I-35000J0D01*
G01*
X14485000Y-6950000D02*
G75*
G03X14485000Y-6950000I-35000J0D01*
G01*
X10385000Y-5050000D02*
G75*
G03X10385000Y-5050000I-35000J0D01*
G01*
X10893000Y-5050000D02*
G75*
G03X10893000Y-5050000I-35000J0D01*
G01*
X15100000Y-6510000D02*
X15100000Y-6590000D01*
X15060000Y-6550000D02*
X15140000Y-6550000D01*
X15450000Y-6510000D02*
X15450000Y-6590000D01*
X15410000Y-6550000D02*
X15490000Y-6550000D01*
X13600000Y-6360000D02*
X13600000Y-6440000D01*
X13560000Y-6400000D02*
X13640000Y-6400000D01*
X13600000Y-6710000D02*
X13600000Y-6790000D01*
X13560000Y-6750000D02*
X13640000Y-6750000D01*
X9750000Y-4560000D02*
X9750000Y-4640000D01*
X9710000Y-4600000D02*
X9790000Y-4600000D01*
X10100000Y-4560000D02*
X10100000Y-4640000D01*
X10060000Y-4600000D02*
X10140000Y-4600000D01*
X11527356Y-8160356D02*
X11527356Y-8089644D01*
X11456644Y-8089644D01*
X11456644Y-8160356D01*
X11527356Y-8160356D01*
X11781356Y-8160356D02*
X11781356Y-8089644D01*
X11710644Y-8089644D01*
X11710644Y-8160356D01*
X11781356Y-8160356D01*
X12035356Y-8160356D02*
X12035356Y-8089644D01*
X11964644Y-8089644D01*
X11964644Y-8160356D01*
X12035356Y-8160356D01*
X12289356Y-8160356D02*
X12289356Y-8089644D01*
X12218644Y-8089644D01*
X12218644Y-8160356D01*
X12289356Y-8160356D01*
X11635356Y-5335356D02*
X11635356Y-5264644D01*
X11564644Y-5264644D01*
X11564644Y-5335356D01*
X11635356Y-5335356D01*
X15018141Y-7435356D02*
X15018141Y-7364644D01*
X14947430Y-7364644D01*
X14947430Y-7435356D01*
X15018141Y-7435356D01*
X15085356Y-7635356D02*
X15085356Y-7564644D01*
X15014644Y-7564644D01*
X15014644Y-7635356D01*
X15085356Y-7635356D01*
X15585356Y-7635356D02*
X15585356Y-7564644D01*
X15514644Y-7564644D01*
X15514644Y-7635356D01*
X15585356Y-7635356D01*
X15652570Y-7835356D02*
X15652570Y-7764644D01*
X15581859Y-7764644D01*
X15581859Y-7835356D01*
X15652570Y-7835356D01*
X11385356Y-4935356D02*
X11385356Y-4864644D01*
X11314644Y-4864644D01*
X11314644Y-4935356D01*
X11385356Y-4935356D01*
X10700000Y-3812500D02*
X10762500Y-3750000D01*
X10700000Y-3687500D01*
X10637500Y-3750000D01*
X10700000Y-3812500D01*
X10700000Y-4312500D02*
X10762500Y-4250000D01*
X10700000Y-4187500D01*
X10637500Y-4250000D01*
X10700000Y-4312500D01*
X11200000Y-3812500D02*
X11262500Y-3750000D01*
X11200000Y-3687500D01*
X11137500Y-3750000D01*
X11200000Y-3812500D01*
X11200000Y-4312500D02*
X11262500Y-4250000D01*
X11200000Y-4187500D01*
X11137500Y-4250000D01*
X11200000Y-4312500D01*
X16062000Y-6162000D02*
X16222000Y-6322000D01*
X16222000Y-6162000D02*
X16062000Y-6322000D01*
X16222000Y-6242000D02*
G75*
G03X16222000Y-6242000I-80000J0D01*
G01*
X16062000Y-6416000D02*
X16222000Y-6576000D01*
X16222000Y-6416000D02*
X16062000Y-6576000D01*
X16222000Y-6496000D02*
G75*
G03X16222000Y-6496000I-80000J0D01*
G01*
X16062000Y-6670000D02*
X16222000Y-6830000D01*
X16222000Y-6670000D02*
X16062000Y-6830000D01*
X16222000Y-6750000D02*
G75*
G03X16222000Y-6750000I-80000J0D01*
G01*
X16570000Y-6162000D02*
X16730000Y-6322000D01*
X16730000Y-6162000D02*
X16570000Y-6322000D01*
X16730000Y-6242000D02*
G75*
G03X16730000Y-6242000I-80000J0D01*
G01*
X16570000Y-6416000D02*
X16730000Y-6576000D01*
X16730000Y-6416000D02*
X16570000Y-6576000D01*
X16730000Y-6496000D02*
G75*
G03X16730000Y-6496000I-80000J0D01*
G01*
X16570000Y-6670000D02*
X16730000Y-6830000D01*
X16730000Y-6670000D02*
X16570000Y-6830000D01*
X16730000Y-6750000D02*
G75*
G03X16730000Y-6750000I-80000J0D01*
G01*
X16070000Y-7470000D02*
X16230000Y-7630000D01*
X16230000Y-7470000D02*
X16070000Y-7630000D01*
X16230000Y-7550000D02*
G75*
G03X16230000Y-7550000I-80000J0D01*
G01*
X16070000Y-7724000D02*
X16230000Y-7884000D01*
X16230000Y-7724000D02*
X16070000Y-7884000D01*
X16230000Y-7804000D02*
G75*
G03X16230000Y-7804000I-80000J0D01*
G01*
X16070000Y-7978000D02*
X16230000Y-8138000D01*
X16230000Y-7978000D02*
X16070000Y-8138000D01*
X16230000Y-8058000D02*
G75*
G03X16230000Y-8058000I-80000J0D01*
G01*
X16578000Y-7470000D02*
X16738000Y-7630000D01*
X16738000Y-7470000D02*
X16578000Y-7630000D01*
X16738000Y-7550000D02*
G75*
G03X16738000Y-7550000I-80000J0D01*
G01*
X16578000Y-7724000D02*
X16738000Y-7884000D01*
X16738000Y-7724000D02*
X16578000Y-7884000D01*
X16738000Y-7804000D02*
G75*
G03X16738000Y-7804000I-80000J0D01*
G01*
X16578000Y-7978000D02*
X16738000Y-8138000D01*
X16738000Y-7978000D02*
X16578000Y-8138000D01*
X16738000Y-8058000D02*
G75*
G03X16738000Y-8058000I-80000J0D01*
G01*
X9628500Y-5825500D02*
X9818500Y-6015500D01*
X9818500Y-5825500D02*
X9628500Y-6015500D01*
X9723500Y-5825500D02*
X9723500Y-6015500D01*
X9628500Y-5920500D02*
X9818500Y-5920500D01*
X9628500Y-6205500D02*
X9818500Y-6395500D01*
X9818500Y-6205500D02*
X9628500Y-6395500D01*
X9723500Y-6205500D02*
X9723500Y-6395500D01*
X9628500Y-6300500D02*
X9818500Y-6300500D01*
X9628500Y-6585500D02*
X9818500Y-6775500D01*
X9818500Y-6585500D02*
X9628500Y-6775500D01*
X9723500Y-6585500D02*
X9723500Y-6775500D01*
X9628500Y-6680500D02*
X9818500Y-6680500D01*
X9628500Y-7345500D02*
X9818500Y-7535500D01*
X9818500Y-7345500D02*
X9628500Y-7535500D01*
X9723500Y-7345500D02*
X9723500Y-7535500D01*
X9628500Y-7440500D02*
X9818500Y-7440500D01*
X11658500Y-7485500D02*
X11848500Y-7675500D01*
X11848500Y-7485500D02*
X11658500Y-7675500D01*
X11753500Y-7485500D02*
X11753500Y-7675500D01*
X11658500Y-7580500D02*
X11848500Y-7580500D01*
X12038500Y-7485500D02*
X12228500Y-7675500D01*
X12228500Y-7485500D02*
X12038500Y-7675500D01*
X12133500Y-7485500D02*
X12133500Y-7675500D01*
X12038500Y-7580500D02*
X12228500Y-7580500D01*
X12418500Y-6205500D02*
X12608500Y-6395500D01*
X12608500Y-6205500D02*
X12418500Y-6395500D01*
X12513500Y-6205500D02*
X12513500Y-6395500D01*
X12418500Y-6300500D02*
X12608500Y-6300500D01*
X12418500Y-6585500D02*
X12608500Y-6775500D01*
X12608500Y-6585500D02*
X12418500Y-6775500D01*
X12513500Y-6585500D02*
X12513500Y-6775500D01*
X12418500Y-6680500D02*
X12608500Y-6680500D01*
X12418500Y-6965500D02*
X12608500Y-7155500D01*
X12608500Y-6965500D02*
X12418500Y-7155500D01*
X12513500Y-6965500D02*
X12513500Y-7155500D01*
X12418500Y-7060500D02*
X12608500Y-7060500D01*
X12383500Y-5790500D02*
X12643500Y-6050500D01*
X12643500Y-5790500D02*
X12383500Y-6050500D01*
X12605425Y-6012425D02*
X12605425Y-5828575D01*
X12421575Y-5828575D01*
X12421575Y-6012425D01*
X12605425Y-6012425D01*
X12383500Y-7310500D02*
X12643500Y-7570500D01*
X12643500Y-7310500D02*
X12383500Y-7570500D01*
X12605425Y-7532425D02*
X12605425Y-7348575D01*
X12421575Y-7348575D01*
X12421575Y-7532425D01*
X12605425Y-7532425D01*
X9420000Y-3120000D02*
X9780000Y-3480000D01*
X9780000Y-3120000D02*
X9420000Y-3480000D01*
X9600000Y-3480000D02*
X9780000Y-3300000D01*
X9600000Y-3120000D01*
X9420000Y-3300000D01*
X9600000Y-3480000D01*
X9420000Y-8020000D02*
X9780000Y-8380000D01*
X9780000Y-8020000D02*
X9420000Y-8380000D01*
X9600000Y-8380000D02*
X9780000Y-8200000D01*
X9600000Y-8020000D01*
X9420000Y-8200000D01*
X9600000Y-8380000D01*
X12170000Y-4220000D02*
X12530000Y-4580000D01*
X12530000Y-4220000D02*
X12170000Y-4580000D01*
X12350000Y-4580000D02*
X12530000Y-4400000D01*
X12350000Y-4220000D01*
X12170000Y-4400000D01*
X12350000Y-4580000D01*
X14120000Y-8020000D02*
X14480000Y-8380000D01*
X14480000Y-8020000D02*
X14120000Y-8380000D01*
X14300000Y-8380000D02*
X14480000Y-8200000D01*
X14300000Y-8020000D01*
X14120000Y-8200000D01*
X14300000Y-8380000D01*
X16270000Y-3120000D02*
X16630000Y-3480000D01*
X16630000Y-3120000D02*
X16270000Y-3480000D01*
X16450000Y-3480000D02*
X16630000Y-3300000D01*
X16450000Y-3120000D01*
X16270000Y-3300000D01*
X16450000Y-3480000D01*
X16270000Y-4970000D02*
X16630000Y-5330000D01*
X16630000Y-4970000D02*
X16270000Y-5330000D01*
X16450000Y-5330000D02*
X16630000Y-5150000D01*
X16450000Y-4970000D01*
X16270000Y-5150000D01*
X16450000Y-5330000D01*
D12*
X9533928Y-9018214D02*
X9533928Y-8718214D01*
X9605357Y-8718214D01*
X9648214Y-8732500D01*
X9676786Y-8761072D01*
X9691071Y-8789643D01*
X9705357Y-8846786D01*
X9705357Y-8889643D01*
X9691071Y-8946786D01*
X9676786Y-8975357D01*
X9648214Y-9003929D01*
X9605357Y-9018214D01*
X9533928Y-9018214D01*
X9833928Y-9018214D02*
X9833928Y-8818214D01*
X9833928Y-8875357D02*
X9848214Y-8846786D01*
X9862500Y-8832500D01*
X9891071Y-8818214D01*
X9919643Y-8818214D01*
X10019643Y-9018214D02*
X10019643Y-8818214D01*
X10019643Y-8718214D02*
X10005357Y-8732500D01*
X10019643Y-8746786D01*
X10033928Y-8732500D01*
X10019643Y-8718214D01*
X10019643Y-8746786D01*
X10205357Y-9018214D02*
X10176786Y-9003929D01*
X10162500Y-8975357D01*
X10162500Y-8718214D01*
X10362500Y-9018214D02*
X10333928Y-9003929D01*
X10319643Y-8975357D01*
X10319643Y-8718214D01*
X10705357Y-9018214D02*
X10705357Y-8718214D01*
X10805357Y-8932500D01*
X10905357Y-8718214D01*
X10905357Y-9018214D01*
X11176786Y-9018214D02*
X11176786Y-8861072D01*
X11162500Y-8832500D01*
X11133928Y-8818214D01*
X11076786Y-8818214D01*
X11048214Y-8832500D01*
X11176786Y-9003929D02*
X11148214Y-9018214D01*
X11076786Y-9018214D01*
X11048214Y-9003929D01*
X11033928Y-8975357D01*
X11033928Y-8946786D01*
X11048214Y-8918214D01*
X11076786Y-8903929D01*
X11148214Y-8903929D01*
X11176786Y-8889643D01*
X11319643Y-8818214D02*
X11319643Y-9118214D01*
X11319643Y-8832500D02*
X11348214Y-8818214D01*
X11405357Y-8818214D01*
X11433928Y-8832500D01*
X11448214Y-8846786D01*
X11462500Y-8875357D01*
X11462500Y-8961072D01*
X11448214Y-8989643D01*
X11433928Y-9003929D01*
X11405357Y-9018214D01*
X11348214Y-9018214D01*
X11319643Y-9003929D01*
X11591071Y-8989643D02*
X11605357Y-9003929D01*
X11591071Y-9018214D01*
X11576786Y-9003929D01*
X11591071Y-8989643D01*
X11591071Y-9018214D01*
X11591071Y-8832500D02*
X11605357Y-8846786D01*
X11591071Y-8861072D01*
X11576786Y-8846786D01*
X11591071Y-8832500D01*
X11591071Y-8861072D01*
X9207500Y-9492500D02*
X9247500Y-9532500D01*
X9247500Y-9492500D02*
X9207500Y-9532500D01*
X9591071Y-9348214D02*
X9619643Y-9348214D01*
X9648214Y-9362500D01*
X9662500Y-9376786D01*
X9676786Y-9405357D01*
X9691071Y-9462500D01*
X9691071Y-9533929D01*
X9676786Y-9591072D01*
X9662500Y-9619643D01*
X9648214Y-9633929D01*
X9619643Y-9648214D01*
X9591071Y-9648214D01*
X9562500Y-9633929D01*
X9548214Y-9619643D01*
X9533928Y-9591072D01*
X9519643Y-9533929D01*
X9519643Y-9462500D01*
X9533928Y-9405357D01*
X9548214Y-9376786D01*
X9562500Y-9362500D01*
X9591071Y-9348214D01*
X9819643Y-9619643D02*
X9833928Y-9633929D01*
X9819643Y-9648214D01*
X9805357Y-9633929D01*
X9819643Y-9619643D01*
X9819643Y-9648214D01*
X10091071Y-9448214D02*
X10091071Y-9648214D01*
X10019643Y-9333929D02*
X9948214Y-9548214D01*
X10133928Y-9548214D01*
X10305357Y-9348214D02*
X10333928Y-9348214D01*
X10362500Y-9362500D01*
X10376786Y-9376786D01*
X10391071Y-9405357D01*
X10405357Y-9462500D01*
X10405357Y-9533929D01*
X10391071Y-9591072D01*
X10376786Y-9619643D01*
X10362500Y-9633929D01*
X10333928Y-9648214D01*
X10305357Y-9648214D01*
X10276786Y-9633929D01*
X10262500Y-9619643D01*
X10248214Y-9591072D01*
X10233928Y-9533929D01*
X10233928Y-9462500D01*
X10248214Y-9405357D01*
X10262500Y-9376786D01*
X10276786Y-9362500D01*
X10305357Y-9348214D01*
X10533928Y-9648214D02*
X10533928Y-9448214D01*
X10533928Y-9476786D02*
X10548214Y-9462500D01*
X10576786Y-9448214D01*
X10619643Y-9448214D01*
X10648214Y-9462500D01*
X10662500Y-9491072D01*
X10662500Y-9648214D01*
X10662500Y-9491072D02*
X10676786Y-9462500D01*
X10705357Y-9448214D01*
X10748214Y-9448214D01*
X10776786Y-9462500D01*
X10791071Y-9491072D01*
X10791071Y-9648214D01*
X10933928Y-9648214D02*
X10933928Y-9448214D01*
X10933928Y-9476786D02*
X10948214Y-9462500D01*
X10976786Y-9448214D01*
X11019643Y-9448214D01*
X11048214Y-9462500D01*
X11062500Y-9491072D01*
X11062500Y-9648214D01*
X11062500Y-9491072D02*
X11076786Y-9462500D01*
X11105357Y-9448214D01*
X11148214Y-9448214D01*
X11176786Y-9462500D01*
X11191071Y-9491072D01*
X11191071Y-9648214D01*
X11776786Y-9333929D02*
X11519643Y-9719643D01*
X12162500Y-9348214D02*
X12191071Y-9348214D01*
X12219643Y-9362500D01*
X12233928Y-9376786D01*
X12248214Y-9405357D01*
X12262500Y-9462500D01*
X12262500Y-9533929D01*
X12248214Y-9591072D01*
X12233928Y-9619643D01*
X12219643Y-9633929D01*
X12191071Y-9648214D01*
X12162500Y-9648214D01*
X12133928Y-9633929D01*
X12119643Y-9619643D01*
X12105357Y-9591072D01*
X12091071Y-9533929D01*
X12091071Y-9462500D01*
X12105357Y-9405357D01*
X12119643Y-9376786D01*
X12133928Y-9362500D01*
X12162500Y-9348214D01*
X12391071Y-9619643D02*
X12405357Y-9633929D01*
X12391071Y-9648214D01*
X12376786Y-9633929D01*
X12391071Y-9619643D01*
X12391071Y-9648214D01*
X12591071Y-9348214D02*
X12619643Y-9348214D01*
X12648214Y-9362500D01*
X12662500Y-9376786D01*
X12676786Y-9405357D01*
X12691071Y-9462500D01*
X12691071Y-9533929D01*
X12676786Y-9591072D01*
X12662500Y-9619643D01*
X12648214Y-9633929D01*
X12619643Y-9648214D01*
X12591071Y-9648214D01*
X12562500Y-9633929D01*
X12548214Y-9619643D01*
X12533928Y-9591072D01*
X12519643Y-9533929D01*
X12519643Y-9462500D01*
X12533928Y-9405357D01*
X12548214Y-9376786D01*
X12562500Y-9362500D01*
X12591071Y-9348214D01*
X12976786Y-9648214D02*
X12805357Y-9648214D01*
X12891071Y-9648214D02*
X12891071Y-9348214D01*
X12862500Y-9391072D01*
X12833928Y-9419643D01*
X12805357Y-9433929D01*
X13233928Y-9348214D02*
X13176786Y-9348214D01*
X13148214Y-9362500D01*
X13133928Y-9376786D01*
X13105357Y-9419643D01*
X13091071Y-9476786D01*
X13091071Y-9591072D01*
X13105357Y-9619643D01*
X13119643Y-9633929D01*
X13148214Y-9648214D01*
X13205357Y-9648214D01*
X13233928Y-9633929D01*
X13248214Y-9619643D01*
X13262500Y-9591072D01*
X13262500Y-9519643D01*
X13248214Y-9491072D01*
X13233928Y-9476786D01*
X13205357Y-9462500D01*
X13148214Y-9462500D01*
X13119643Y-9476786D01*
X13105357Y-9491072D01*
X13091071Y-9519643D01*
X13376786Y-9348214D02*
X13376786Y-9405357D01*
X13491071Y-9348214D02*
X13491071Y-9405357D01*
X13933928Y-9762500D02*
X13919643Y-9748214D01*
X13891071Y-9705357D01*
X13876786Y-9676786D01*
X13862500Y-9633929D01*
X13848214Y-9562500D01*
X13848214Y-9505357D01*
X13862500Y-9433929D01*
X13876786Y-9391072D01*
X13891071Y-9362500D01*
X13919643Y-9319643D01*
X13933928Y-9305357D01*
X14019643Y-9348214D02*
X14205357Y-9348214D01*
X14105357Y-9462500D01*
X14148214Y-9462500D01*
X14176786Y-9476786D01*
X14191071Y-9491072D01*
X14205357Y-9519643D01*
X14205357Y-9591072D01*
X14191071Y-9619643D01*
X14176786Y-9633929D01*
X14148214Y-9648214D01*
X14062500Y-9648214D01*
X14033928Y-9633929D01*
X14019643Y-9619643D01*
X14462500Y-9448214D02*
X14462500Y-9648214D01*
X14391071Y-9333929D02*
X14319643Y-9548214D01*
X14505357Y-9548214D01*
X14591071Y-9348214D02*
X14791071Y-9348214D01*
X14662500Y-9648214D01*
X15133928Y-9648214D02*
X15133928Y-9348214D01*
X15262500Y-9648214D02*
X15262500Y-9491072D01*
X15248214Y-9462500D01*
X15219643Y-9448214D01*
X15176786Y-9448214D01*
X15148214Y-9462500D01*
X15133928Y-9476786D01*
X15448214Y-9648214D02*
X15419643Y-9633929D01*
X15405357Y-9619643D01*
X15391071Y-9591072D01*
X15391071Y-9505357D01*
X15405357Y-9476786D01*
X15419643Y-9462500D01*
X15448214Y-9448214D01*
X15491071Y-9448214D01*
X15519643Y-9462500D01*
X15533928Y-9476786D01*
X15548214Y-9505357D01*
X15548214Y-9591072D01*
X15533928Y-9619643D01*
X15519643Y-9633929D01*
X15491071Y-9648214D01*
X15448214Y-9648214D01*
X15719643Y-9648214D02*
X15691071Y-9633929D01*
X15676786Y-9605357D01*
X15676786Y-9348214D01*
X15948214Y-9633929D02*
X15919643Y-9648214D01*
X15862500Y-9648214D01*
X15833928Y-9633929D01*
X15819643Y-9605357D01*
X15819643Y-9491072D01*
X15833928Y-9462500D01*
X15862500Y-9448214D01*
X15919643Y-9448214D01*
X15948214Y-9462500D01*
X15962500Y-9491072D01*
X15962500Y-9519643D01*
X15819643Y-9548214D01*
X16076786Y-9633929D02*
X16105357Y-9648214D01*
X16162500Y-9648214D01*
X16191071Y-9633929D01*
X16205357Y-9605357D01*
X16205357Y-9591072D01*
X16191071Y-9562500D01*
X16162500Y-9548214D01*
X16119643Y-9548214D01*
X16091071Y-9533929D01*
X16076786Y-9505357D01*
X16076786Y-9491072D01*
X16091071Y-9462500D01*
X16119643Y-9448214D01*
X16162500Y-9448214D01*
X16191071Y-9462500D01*
X16305357Y-9762500D02*
X16319643Y-9748214D01*
X16348214Y-9705357D01*
X16362500Y-9676786D01*
X16376786Y-9633929D01*
X16391071Y-9562500D01*
X16391071Y-9505357D01*
X16376786Y-9433929D01*
X16362500Y-9391072D01*
X16348214Y-9362500D01*
X16319643Y-9319643D01*
X16305357Y-9305357D01*
X9247500Y-9908500D02*
G75*
G03X9247500Y-9908500I-35000J0D01*
G01*
X9591071Y-9744214D02*
X9619643Y-9744214D01*
X9648214Y-9758500D01*
X9662500Y-9772786D01*
X9676786Y-9801357D01*
X9691071Y-9858500D01*
X9691071Y-9929929D01*
X9676786Y-9987072D01*
X9662500Y-10015643D01*
X9648214Y-10029929D01*
X9619643Y-10044214D01*
X9591071Y-10044214D01*
X9562500Y-10029929D01*
X9548214Y-10015643D01*
X9533928Y-9987072D01*
X9519643Y-9929929D01*
X9519643Y-9858500D01*
X9533928Y-9801357D01*
X9548214Y-9772786D01*
X9562500Y-9758500D01*
X9591071Y-9744214D01*
X9819643Y-10015643D02*
X9833928Y-10029929D01*
X9819643Y-10044214D01*
X9805357Y-10029929D01*
X9819643Y-10015643D01*
X9819643Y-10044214D01*
X9933928Y-9744214D02*
X10133928Y-9744214D01*
X10005357Y-10044214D01*
X10305357Y-9744214D02*
X10333928Y-9744214D01*
X10362500Y-9758500D01*
X10376786Y-9772786D01*
X10391071Y-9801357D01*
X10405357Y-9858500D01*
X10405357Y-9929929D01*
X10391071Y-9987072D01*
X10376786Y-10015643D01*
X10362500Y-10029929D01*
X10333928Y-10044214D01*
X10305357Y-10044214D01*
X10276786Y-10029929D01*
X10262500Y-10015643D01*
X10248214Y-9987072D01*
X10233928Y-9929929D01*
X10233928Y-9858500D01*
X10248214Y-9801357D01*
X10262500Y-9772786D01*
X10276786Y-9758500D01*
X10305357Y-9744214D01*
X10533928Y-10044214D02*
X10533928Y-9844214D01*
X10533928Y-9872786D02*
X10548214Y-9858500D01*
X10576786Y-9844214D01*
X10619643Y-9844214D01*
X10648214Y-9858500D01*
X10662500Y-9887072D01*
X10662500Y-10044214D01*
X10662500Y-9887072D02*
X10676786Y-9858500D01*
X10705357Y-9844214D01*
X10748214Y-9844214D01*
X10776786Y-9858500D01*
X10791071Y-9887072D01*
X10791071Y-10044214D01*
X10933928Y-10044214D02*
X10933928Y-9844214D01*
X10933928Y-9872786D02*
X10948214Y-9858500D01*
X10976786Y-9844214D01*
X11019643Y-9844214D01*
X11048214Y-9858500D01*
X11062500Y-9887072D01*
X11062500Y-10044214D01*
X11062500Y-9887072D02*
X11076786Y-9858500D01*
X11105357Y-9844214D01*
X11148214Y-9844214D01*
X11176786Y-9858500D01*
X11191071Y-9887072D01*
X11191071Y-10044214D01*
X11776786Y-9729929D02*
X11519643Y-10115643D01*
X12162500Y-9744214D02*
X12191071Y-9744214D01*
X12219643Y-9758500D01*
X12233928Y-9772786D01*
X12248214Y-9801357D01*
X12262500Y-9858500D01*
X12262500Y-9929929D01*
X12248214Y-9987072D01*
X12233928Y-10015643D01*
X12219643Y-10029929D01*
X12191071Y-10044214D01*
X12162500Y-10044214D01*
X12133928Y-10029929D01*
X12119643Y-10015643D01*
X12105357Y-9987072D01*
X12091071Y-9929929D01*
X12091071Y-9858500D01*
X12105357Y-9801357D01*
X12119643Y-9772786D01*
X12133928Y-9758500D01*
X12162500Y-9744214D01*
X12391071Y-10015643D02*
X12405357Y-10029929D01*
X12391071Y-10044214D01*
X12376786Y-10029929D01*
X12391071Y-10015643D01*
X12391071Y-10044214D01*
X12591071Y-9744214D02*
X12619643Y-9744214D01*
X12648214Y-9758500D01*
X12662500Y-9772786D01*
X12676786Y-9801357D01*
X12691071Y-9858500D01*
X12691071Y-9929929D01*
X12676786Y-9987072D01*
X12662500Y-10015643D01*
X12648214Y-10029929D01*
X12619643Y-10044214D01*
X12591071Y-10044214D01*
X12562500Y-10029929D01*
X12548214Y-10015643D01*
X12533928Y-9987072D01*
X12519643Y-9929929D01*
X12519643Y-9858500D01*
X12533928Y-9801357D01*
X12548214Y-9772786D01*
X12562500Y-9758500D01*
X12591071Y-9744214D01*
X12805357Y-9772786D02*
X12819643Y-9758500D01*
X12848214Y-9744214D01*
X12919643Y-9744214D01*
X12948214Y-9758500D01*
X12962500Y-9772786D01*
X12976786Y-9801357D01*
X12976786Y-9829929D01*
X12962500Y-9872786D01*
X12791071Y-10044214D01*
X12976786Y-10044214D01*
X13148214Y-9872786D02*
X13119643Y-9858500D01*
X13105357Y-9844214D01*
X13091071Y-9815643D01*
X13091071Y-9801357D01*
X13105357Y-9772786D01*
X13119643Y-9758500D01*
X13148214Y-9744214D01*
X13205357Y-9744214D01*
X13233928Y-9758500D01*
X13248214Y-9772786D01*
X13262500Y-9801357D01*
X13262500Y-9815643D01*
X13248214Y-9844214D01*
X13233928Y-9858500D01*
X13205357Y-9872786D01*
X13148214Y-9872786D01*
X13119643Y-9887072D01*
X13105357Y-9901357D01*
X13091071Y-9929929D01*
X13091071Y-9987072D01*
X13105357Y-10015643D01*
X13119643Y-10029929D01*
X13148214Y-10044214D01*
X13205357Y-10044214D01*
X13233928Y-10029929D01*
X13248214Y-10015643D01*
X13262500Y-9987072D01*
X13262500Y-9929929D01*
X13248214Y-9901357D01*
X13233928Y-9887072D01*
X13205357Y-9872786D01*
X13376786Y-9744214D02*
X13376786Y-9801357D01*
X13491071Y-9744214D02*
X13491071Y-9801357D01*
X13933928Y-10158500D02*
X13919643Y-10144214D01*
X13891071Y-10101357D01*
X13876786Y-10072786D01*
X13862500Y-10029929D01*
X13848214Y-9958500D01*
X13848214Y-9901357D01*
X13862500Y-9829929D01*
X13876786Y-9787072D01*
X13891071Y-9758500D01*
X13919643Y-9715643D01*
X13933928Y-9701357D01*
X14091071Y-9872786D02*
X14062500Y-9858500D01*
X14048214Y-9844214D01*
X14033928Y-9815643D01*
X14033928Y-9801357D01*
X14048214Y-9772786D01*
X14062500Y-9758500D01*
X14091071Y-9744214D01*
X14148214Y-9744214D01*
X14176786Y-9758500D01*
X14191071Y-9772786D01*
X14205357Y-9801357D01*
X14205357Y-9815643D01*
X14191071Y-9844214D01*
X14176786Y-9858500D01*
X14148214Y-9872786D01*
X14091071Y-9872786D01*
X14062500Y-9887072D01*
X14048214Y-9901357D01*
X14033928Y-9929929D01*
X14033928Y-9987072D01*
X14048214Y-10015643D01*
X14062500Y-10029929D01*
X14091071Y-10044214D01*
X14148214Y-10044214D01*
X14176786Y-10029929D01*
X14191071Y-10015643D01*
X14205357Y-9987072D01*
X14205357Y-9929929D01*
X14191071Y-9901357D01*
X14176786Y-9887072D01*
X14148214Y-9872786D01*
X14562500Y-10044214D02*
X14562500Y-9744214D01*
X14691071Y-10044214D02*
X14691071Y-9887072D01*
X14676786Y-9858500D01*
X14648214Y-9844214D01*
X14605357Y-9844214D01*
X14576786Y-9858500D01*
X14562500Y-9872786D01*
X14876786Y-10044214D02*
X14848214Y-10029929D01*
X14833928Y-10015643D01*
X14819643Y-9987072D01*
X14819643Y-9901357D01*
X14833928Y-9872786D01*
X14848214Y-9858500D01*
X14876786Y-9844214D01*
X14919643Y-9844214D01*
X14948214Y-9858500D01*
X14962500Y-9872786D01*
X14976786Y-9901357D01*
X14976786Y-9987072D01*
X14962500Y-10015643D01*
X14948214Y-10029929D01*
X14919643Y-10044214D01*
X14876786Y-10044214D01*
X15148214Y-10044214D02*
X15119643Y-10029929D01*
X15105357Y-10001357D01*
X15105357Y-9744214D01*
X15376786Y-10029929D02*
X15348214Y-10044214D01*
X15291071Y-10044214D01*
X15262500Y-10029929D01*
X15248214Y-10001357D01*
X15248214Y-9887072D01*
X15262500Y-9858500D01*
X15291071Y-9844214D01*
X15348214Y-9844214D01*
X15376786Y-9858500D01*
X15391071Y-9887072D01*
X15391071Y-9915643D01*
X15248214Y-9944214D01*
X15505357Y-10029929D02*
X15533928Y-10044214D01*
X15591071Y-10044214D01*
X15619643Y-10029929D01*
X15633928Y-10001357D01*
X15633928Y-9987072D01*
X15619643Y-9958500D01*
X15591071Y-9944214D01*
X15548214Y-9944214D01*
X15519643Y-9929929D01*
X15505357Y-9901357D01*
X15505357Y-9887072D01*
X15519643Y-9858500D01*
X15548214Y-9844214D01*
X15591071Y-9844214D01*
X15619643Y-9858500D01*
X15733928Y-10158500D02*
X15748214Y-10144214D01*
X15776786Y-10101357D01*
X15791071Y-10072786D01*
X15805357Y-10029929D01*
X15819643Y-9958500D01*
X15819643Y-9901357D01*
X15805357Y-9829929D01*
X15791071Y-9787072D01*
X15776786Y-9758500D01*
X15748214Y-9715643D01*
X15733928Y-9701357D01*
X9207500Y-10264500D02*
X9207500Y-10344500D01*
X9167500Y-10304500D02*
X9247500Y-10304500D01*
X9591071Y-10140214D02*
X9619643Y-10140214D01*
X9648214Y-10154500D01*
X9662500Y-10168786D01*
X9676786Y-10197357D01*
X9691071Y-10254500D01*
X9691071Y-10325929D01*
X9676786Y-10383072D01*
X9662500Y-10411643D01*
X9648214Y-10425929D01*
X9619643Y-10440214D01*
X9591071Y-10440214D01*
X9562500Y-10425929D01*
X9548214Y-10411643D01*
X9533928Y-10383072D01*
X9519643Y-10325929D01*
X9519643Y-10254500D01*
X9533928Y-10197357D01*
X9548214Y-10168786D01*
X9562500Y-10154500D01*
X9591071Y-10140214D01*
X9819643Y-10411643D02*
X9833928Y-10425929D01*
X9819643Y-10440214D01*
X9805357Y-10425929D01*
X9819643Y-10411643D01*
X9819643Y-10440214D01*
X10005357Y-10268786D02*
X9976786Y-10254500D01*
X9962500Y-10240214D01*
X9948214Y-10211643D01*
X9948214Y-10197357D01*
X9962500Y-10168786D01*
X9976786Y-10154500D01*
X10005357Y-10140214D01*
X10062500Y-10140214D01*
X10091071Y-10154500D01*
X10105357Y-10168786D01*
X10119643Y-10197357D01*
X10119643Y-10211643D01*
X10105357Y-10240214D01*
X10091071Y-10254500D01*
X10062500Y-10268786D01*
X10005357Y-10268786D01*
X9976786Y-10283072D01*
X9962500Y-10297357D01*
X9948214Y-10325929D01*
X9948214Y-10383072D01*
X9962500Y-10411643D01*
X9976786Y-10425929D01*
X10005357Y-10440214D01*
X10062500Y-10440214D01*
X10091071Y-10425929D01*
X10105357Y-10411643D01*
X10119643Y-10383072D01*
X10119643Y-10325929D01*
X10105357Y-10297357D01*
X10091071Y-10283072D01*
X10062500Y-10268786D01*
X10305357Y-10140214D02*
X10333928Y-10140214D01*
X10362500Y-10154500D01*
X10376786Y-10168786D01*
X10391071Y-10197357D01*
X10405357Y-10254500D01*
X10405357Y-10325929D01*
X10391071Y-10383072D01*
X10376786Y-10411643D01*
X10362500Y-10425929D01*
X10333928Y-10440214D01*
X10305357Y-10440214D01*
X10276786Y-10425929D01*
X10262500Y-10411643D01*
X10248214Y-10383072D01*
X10233928Y-10325929D01*
X10233928Y-10254500D01*
X10248214Y-10197357D01*
X10262500Y-10168786D01*
X10276786Y-10154500D01*
X10305357Y-10140214D01*
X10533928Y-10440214D02*
X10533928Y-10240214D01*
X10533928Y-10268786D02*
X10548214Y-10254500D01*
X10576786Y-10240214D01*
X10619643Y-10240214D01*
X10648214Y-10254500D01*
X10662500Y-10283072D01*
X10662500Y-10440214D01*
X10662500Y-10283072D02*
X10676786Y-10254500D01*
X10705357Y-10240214D01*
X10748214Y-10240214D01*
X10776786Y-10254500D01*
X10791071Y-10283072D01*
X10791071Y-10440214D01*
X10933928Y-10440214D02*
X10933928Y-10240214D01*
X10933928Y-10268786D02*
X10948214Y-10254500D01*
X10976786Y-10240214D01*
X11019643Y-10240214D01*
X11048214Y-10254500D01*
X11062500Y-10283072D01*
X11062500Y-10440214D01*
X11062500Y-10283072D02*
X11076786Y-10254500D01*
X11105357Y-10240214D01*
X11148214Y-10240214D01*
X11176786Y-10254500D01*
X11191071Y-10283072D01*
X11191071Y-10440214D01*
X11776786Y-10125929D02*
X11519643Y-10511643D01*
X12162500Y-10140214D02*
X12191071Y-10140214D01*
X12219643Y-10154500D01*
X12233928Y-10168786D01*
X12248214Y-10197357D01*
X12262500Y-10254500D01*
X12262500Y-10325929D01*
X12248214Y-10383072D01*
X12233928Y-10411643D01*
X12219643Y-10425929D01*
X12191071Y-10440214D01*
X12162500Y-10440214D01*
X12133928Y-10425929D01*
X12119643Y-10411643D01*
X12105357Y-10383072D01*
X12091071Y-10325929D01*
X12091071Y-10254500D01*
X12105357Y-10197357D01*
X12119643Y-10168786D01*
X12133928Y-10154500D01*
X12162500Y-10140214D01*
X12391071Y-10411643D02*
X12405357Y-10425929D01*
X12391071Y-10440214D01*
X12376786Y-10425929D01*
X12391071Y-10411643D01*
X12391071Y-10440214D01*
X12591071Y-10140214D02*
X12619643Y-10140214D01*
X12648214Y-10154500D01*
X12662500Y-10168786D01*
X12676786Y-10197357D01*
X12691071Y-10254500D01*
X12691071Y-10325929D01*
X12676786Y-10383072D01*
X12662500Y-10411643D01*
X12648214Y-10425929D01*
X12619643Y-10440214D01*
X12591071Y-10440214D01*
X12562500Y-10425929D01*
X12548214Y-10411643D01*
X12533928Y-10383072D01*
X12519643Y-10325929D01*
X12519643Y-10254500D01*
X12533928Y-10197357D01*
X12548214Y-10168786D01*
X12562500Y-10154500D01*
X12591071Y-10140214D01*
X12791071Y-10140214D02*
X12976786Y-10140214D01*
X12876786Y-10254500D01*
X12919643Y-10254500D01*
X12948214Y-10268786D01*
X12962500Y-10283072D01*
X12976786Y-10311643D01*
X12976786Y-10383072D01*
X12962500Y-10411643D01*
X12948214Y-10425929D01*
X12919643Y-10440214D01*
X12833928Y-10440214D01*
X12805357Y-10425929D01*
X12791071Y-10411643D01*
X13262500Y-10440214D02*
X13091071Y-10440214D01*
X13176786Y-10440214D02*
X13176786Y-10140214D01*
X13148214Y-10183072D01*
X13119643Y-10211643D01*
X13091071Y-10225929D01*
X13376786Y-10140214D02*
X13376786Y-10197357D01*
X13491071Y-10140214D02*
X13491071Y-10197357D01*
X13933928Y-10554500D02*
X13919643Y-10540214D01*
X13891071Y-10497357D01*
X13876786Y-10468786D01*
X13862500Y-10425929D01*
X13848214Y-10354500D01*
X13848214Y-10297357D01*
X13862500Y-10225929D01*
X13876786Y-10183072D01*
X13891071Y-10154500D01*
X13919643Y-10111643D01*
X13933928Y-10097357D01*
X14176786Y-10140214D02*
X14119643Y-10140214D01*
X14091071Y-10154500D01*
X14076786Y-10168786D01*
X14048214Y-10211643D01*
X14033928Y-10268786D01*
X14033928Y-10383072D01*
X14048214Y-10411643D01*
X14062500Y-10425929D01*
X14091071Y-10440214D01*
X14148214Y-10440214D01*
X14176786Y-10425929D01*
X14191071Y-10411643D01*
X14205357Y-10383072D01*
X14205357Y-10311643D01*
X14191071Y-10283072D01*
X14176786Y-10268786D01*
X14148214Y-10254500D01*
X14091071Y-10254500D01*
X14062500Y-10268786D01*
X14048214Y-10283072D01*
X14033928Y-10311643D01*
X14562500Y-10440214D02*
X14562500Y-10140214D01*
X14691071Y-10440214D02*
X14691071Y-10283072D01*
X14676786Y-10254500D01*
X14648214Y-10240214D01*
X14605357Y-10240214D01*
X14576786Y-10254500D01*
X14562500Y-10268786D01*
X14876786Y-10440214D02*
X14848214Y-10425929D01*
X14833928Y-10411643D01*
X14819643Y-10383072D01*
X14819643Y-10297357D01*
X14833928Y-10268786D01*
X14848214Y-10254500D01*
X14876786Y-10240214D01*
X14919643Y-10240214D01*
X14948214Y-10254500D01*
X14962500Y-10268786D01*
X14976786Y-10297357D01*
X14976786Y-10383072D01*
X14962500Y-10411643D01*
X14948214Y-10425929D01*
X14919643Y-10440214D01*
X14876786Y-10440214D01*
X15148214Y-10440214D02*
X15119643Y-10425929D01*
X15105357Y-10397357D01*
X15105357Y-10140214D01*
X15376786Y-10425929D02*
X15348214Y-10440214D01*
X15291071Y-10440214D01*
X15262500Y-10425929D01*
X15248214Y-10397357D01*
X15248214Y-10283072D01*
X15262500Y-10254500D01*
X15291071Y-10240214D01*
X15348214Y-10240214D01*
X15376786Y-10254500D01*
X15391071Y-10283072D01*
X15391071Y-10311643D01*
X15248214Y-10340214D01*
X15505357Y-10425929D02*
X15533928Y-10440214D01*
X15591071Y-10440214D01*
X15619643Y-10425929D01*
X15633928Y-10397357D01*
X15633928Y-10383072D01*
X15619643Y-10354500D01*
X15591071Y-10340214D01*
X15548214Y-10340214D01*
X15519643Y-10325929D01*
X15505357Y-10297357D01*
X15505357Y-10283072D01*
X15519643Y-10254500D01*
X15548214Y-10240214D01*
X15591071Y-10240214D01*
X15619643Y-10254500D01*
X15733928Y-10554500D02*
X15748214Y-10540214D01*
X15776786Y-10497357D01*
X15791071Y-10468786D01*
X15805357Y-10425929D01*
X15819643Y-10354500D01*
X15819643Y-10297357D01*
X15805357Y-10225929D01*
X15791071Y-10183072D01*
X15776786Y-10154500D01*
X15748214Y-10111643D01*
X15733928Y-10097357D01*
X9232856Y-10735856D02*
X9232856Y-10665144D01*
X9162144Y-10665144D01*
X9162144Y-10735856D01*
X9232856Y-10735856D01*
X9691071Y-10836214D02*
X9519643Y-10836214D01*
X9605357Y-10836214D02*
X9605357Y-10536214D01*
X9576786Y-10579072D01*
X9548214Y-10607643D01*
X9519643Y-10621929D01*
X9819643Y-10807643D02*
X9833928Y-10821929D01*
X9819643Y-10836214D01*
X9805357Y-10821929D01*
X9819643Y-10807643D01*
X9819643Y-10836214D01*
X10019643Y-10536214D02*
X10048214Y-10536214D01*
X10076786Y-10550500D01*
X10091071Y-10564786D01*
X10105357Y-10593357D01*
X10119643Y-10650500D01*
X10119643Y-10721929D01*
X10105357Y-10779072D01*
X10091071Y-10807643D01*
X10076786Y-10821929D01*
X10048214Y-10836214D01*
X10019643Y-10836214D01*
X9991071Y-10821929D01*
X9976786Y-10807643D01*
X9962500Y-10779072D01*
X9948214Y-10721929D01*
X9948214Y-10650500D01*
X9962500Y-10593357D01*
X9976786Y-10564786D01*
X9991071Y-10550500D01*
X10019643Y-10536214D01*
X10305357Y-10536214D02*
X10333928Y-10536214D01*
X10362500Y-10550500D01*
X10376786Y-10564786D01*
X10391071Y-10593357D01*
X10405357Y-10650500D01*
X10405357Y-10721929D01*
X10391071Y-10779072D01*
X10376786Y-10807643D01*
X10362500Y-10821929D01*
X10333928Y-10836214D01*
X10305357Y-10836214D01*
X10276786Y-10821929D01*
X10262500Y-10807643D01*
X10248214Y-10779072D01*
X10233928Y-10721929D01*
X10233928Y-10650500D01*
X10248214Y-10593357D01*
X10262500Y-10564786D01*
X10276786Y-10550500D01*
X10305357Y-10536214D01*
X10533928Y-10836214D02*
X10533928Y-10636214D01*
X10533928Y-10664786D02*
X10548214Y-10650500D01*
X10576786Y-10636214D01*
X10619643Y-10636214D01*
X10648214Y-10650500D01*
X10662500Y-10679072D01*
X10662500Y-10836214D01*
X10662500Y-10679072D02*
X10676786Y-10650500D01*
X10705357Y-10636214D01*
X10748214Y-10636214D01*
X10776786Y-10650500D01*
X10791071Y-10679072D01*
X10791071Y-10836214D01*
X10933928Y-10836214D02*
X10933928Y-10636214D01*
X10933928Y-10664786D02*
X10948214Y-10650500D01*
X10976786Y-10636214D01*
X11019643Y-10636214D01*
X11048214Y-10650500D01*
X11062500Y-10679072D01*
X11062500Y-10836214D01*
X11062500Y-10679072D02*
X11076786Y-10650500D01*
X11105357Y-10636214D01*
X11148214Y-10636214D01*
X11176786Y-10650500D01*
X11191071Y-10679072D01*
X11191071Y-10836214D01*
X11776786Y-10521929D02*
X11519643Y-10907643D01*
X12162500Y-10536214D02*
X12191071Y-10536214D01*
X12219643Y-10550500D01*
X12233928Y-10564786D01*
X12248214Y-10593357D01*
X12262500Y-10650500D01*
X12262500Y-10721929D01*
X12248214Y-10779072D01*
X12233928Y-10807643D01*
X12219643Y-10821929D01*
X12191071Y-10836214D01*
X12162500Y-10836214D01*
X12133928Y-10821929D01*
X12119643Y-10807643D01*
X12105357Y-10779072D01*
X12091071Y-10721929D01*
X12091071Y-10650500D01*
X12105357Y-10593357D01*
X12119643Y-10564786D01*
X12133928Y-10550500D01*
X12162500Y-10536214D01*
X12391071Y-10807643D02*
X12405357Y-10821929D01*
X12391071Y-10836214D01*
X12376786Y-10821929D01*
X12391071Y-10807643D01*
X12391071Y-10836214D01*
X12591071Y-10536214D02*
X12619643Y-10536214D01*
X12648214Y-10550500D01*
X12662500Y-10564786D01*
X12676786Y-10593357D01*
X12691071Y-10650500D01*
X12691071Y-10721929D01*
X12676786Y-10779072D01*
X12662500Y-10807643D01*
X12648214Y-10821929D01*
X12619643Y-10836214D01*
X12591071Y-10836214D01*
X12562500Y-10821929D01*
X12548214Y-10807643D01*
X12533928Y-10779072D01*
X12519643Y-10721929D01*
X12519643Y-10650500D01*
X12533928Y-10593357D01*
X12548214Y-10564786D01*
X12562500Y-10550500D01*
X12591071Y-10536214D01*
X12791071Y-10536214D02*
X12976786Y-10536214D01*
X12876786Y-10650500D01*
X12919643Y-10650500D01*
X12948214Y-10664786D01*
X12962500Y-10679072D01*
X12976786Y-10707643D01*
X12976786Y-10779072D01*
X12962500Y-10807643D01*
X12948214Y-10821929D01*
X12919643Y-10836214D01*
X12833928Y-10836214D01*
X12805357Y-10821929D01*
X12791071Y-10807643D01*
X13119643Y-10836214D02*
X13176786Y-10836214D01*
X13205357Y-10821929D01*
X13219643Y-10807643D01*
X13248214Y-10764786D01*
X13262500Y-10707643D01*
X13262500Y-10593357D01*
X13248214Y-10564786D01*
X13233928Y-10550500D01*
X13205357Y-10536214D01*
X13148214Y-10536214D01*
X13119643Y-10550500D01*
X13105357Y-10564786D01*
X13091071Y-10593357D01*
X13091071Y-10664786D01*
X13105357Y-10693357D01*
X13119643Y-10707643D01*
X13148214Y-10721929D01*
X13205357Y-10721929D01*
X13233928Y-10707643D01*
X13248214Y-10693357D01*
X13262500Y-10664786D01*
X13376786Y-10536214D02*
X13376786Y-10593357D01*
X13491071Y-10536214D02*
X13491071Y-10593357D01*
X13933928Y-10950500D02*
X13919643Y-10936214D01*
X13891071Y-10893357D01*
X13876786Y-10864786D01*
X13862500Y-10821929D01*
X13848214Y-10750500D01*
X13848214Y-10693357D01*
X13862500Y-10621929D01*
X13876786Y-10579072D01*
X13891071Y-10550500D01*
X13919643Y-10507643D01*
X13933928Y-10493357D01*
X14205357Y-10836214D02*
X14033928Y-10836214D01*
X14119643Y-10836214D02*
X14119643Y-10536214D01*
X14091071Y-10579072D01*
X14062500Y-10607643D01*
X14033928Y-10621929D01*
X14391071Y-10536214D02*
X14419643Y-10536214D01*
X14448214Y-10550500D01*
X14462500Y-10564786D01*
X14476786Y-10593357D01*
X14491071Y-10650500D01*
X14491071Y-10721929D01*
X14476786Y-10779072D01*
X14462500Y-10807643D01*
X14448214Y-10821929D01*
X14419643Y-10836214D01*
X14391071Y-10836214D01*
X14362500Y-10821929D01*
X14348214Y-10807643D01*
X14333928Y-10779072D01*
X14319643Y-10721929D01*
X14319643Y-10650500D01*
X14333928Y-10593357D01*
X14348214Y-10564786D01*
X14362500Y-10550500D01*
X14391071Y-10536214D01*
X14848214Y-10836214D02*
X14848214Y-10536214D01*
X14976786Y-10836214D02*
X14976786Y-10679072D01*
X14962500Y-10650500D01*
X14933928Y-10636214D01*
X14891071Y-10636214D01*
X14862500Y-10650500D01*
X14848214Y-10664786D01*
X15162500Y-10836214D02*
X15133928Y-10821929D01*
X15119643Y-10807643D01*
X15105357Y-10779072D01*
X15105357Y-10693357D01*
X15119643Y-10664786D01*
X15133928Y-10650500D01*
X15162500Y-10636214D01*
X15205357Y-10636214D01*
X15233928Y-10650500D01*
X15248214Y-10664786D01*
X15262500Y-10693357D01*
X15262500Y-10779072D01*
X15248214Y-10807643D01*
X15233928Y-10821929D01*
X15205357Y-10836214D01*
X15162500Y-10836214D01*
X15433928Y-10836214D02*
X15405357Y-10821929D01*
X15391071Y-10793357D01*
X15391071Y-10536214D01*
X15662500Y-10821929D02*
X15633928Y-10836214D01*
X15576786Y-10836214D01*
X15548214Y-10821929D01*
X15533928Y-10793357D01*
X15533928Y-10679072D01*
X15548214Y-10650500D01*
X15576786Y-10636214D01*
X15633928Y-10636214D01*
X15662500Y-10650500D01*
X15676786Y-10679072D01*
X15676786Y-10707643D01*
X15533928Y-10736214D01*
X15791071Y-10821929D02*
X15819643Y-10836214D01*
X15876786Y-10836214D01*
X15905357Y-10821929D01*
X15919643Y-10793357D01*
X15919643Y-10779072D01*
X15905357Y-10750500D01*
X15876786Y-10736214D01*
X15833928Y-10736214D01*
X15805357Y-10721929D01*
X15791071Y-10693357D01*
X15791071Y-10679072D01*
X15805357Y-10650500D01*
X15833928Y-10636214D01*
X15876786Y-10636214D01*
X15905357Y-10650500D01*
X16019643Y-10950500D02*
X16033928Y-10936214D01*
X16062500Y-10893357D01*
X16076786Y-10864786D01*
X16091071Y-10821929D01*
X16105357Y-10750500D01*
X16105357Y-10693357D01*
X16091071Y-10621929D01*
X16076786Y-10579072D01*
X16062500Y-10550500D01*
X16033928Y-10507643D01*
X16019643Y-10493357D01*
X9185000Y-11159000D02*
X9247500Y-11096500D01*
X9185000Y-11034000D01*
X9122500Y-11096500D01*
X9185000Y-11159000D01*
X9691071Y-11232214D02*
X9519643Y-11232214D01*
X9605357Y-11232214D02*
X9605357Y-10932214D01*
X9576786Y-10975072D01*
X9548214Y-11003643D01*
X9519643Y-11017929D01*
X9819643Y-11203643D02*
X9833928Y-11217929D01*
X9819643Y-11232214D01*
X9805357Y-11217929D01*
X9819643Y-11203643D01*
X9819643Y-11232214D01*
X9948214Y-10960786D02*
X9962500Y-10946500D01*
X9991071Y-10932214D01*
X10062500Y-10932214D01*
X10091071Y-10946500D01*
X10105357Y-10960786D01*
X10119643Y-10989357D01*
X10119643Y-11017929D01*
X10105357Y-11060786D01*
X9933928Y-11232214D01*
X10119643Y-11232214D01*
X10391071Y-10932214D02*
X10248214Y-10932214D01*
X10233928Y-11075072D01*
X10248214Y-11060786D01*
X10276786Y-11046500D01*
X10348214Y-11046500D01*
X10376786Y-11060786D01*
X10391071Y-11075072D01*
X10405357Y-11103643D01*
X10405357Y-11175072D01*
X10391071Y-11203643D01*
X10376786Y-11217929D01*
X10348214Y-11232214D01*
X10276786Y-11232214D01*
X10248214Y-11217929D01*
X10233928Y-11203643D01*
X10533928Y-11232214D02*
X10533928Y-11032214D01*
X10533928Y-11060786D02*
X10548214Y-11046500D01*
X10576786Y-11032214D01*
X10619643Y-11032214D01*
X10648214Y-11046500D01*
X10662500Y-11075072D01*
X10662500Y-11232214D01*
X10662500Y-11075072D02*
X10676786Y-11046500D01*
X10705357Y-11032214D01*
X10748214Y-11032214D01*
X10776786Y-11046500D01*
X10791071Y-11075072D01*
X10791071Y-11232214D01*
X10933928Y-11232214D02*
X10933928Y-11032214D01*
X10933928Y-11060786D02*
X10948214Y-11046500D01*
X10976786Y-11032214D01*
X11019643Y-11032214D01*
X11048214Y-11046500D01*
X11062500Y-11075072D01*
X11062500Y-11232214D01*
X11062500Y-11075072D02*
X11076786Y-11046500D01*
X11105357Y-11032214D01*
X11148214Y-11032214D01*
X11176786Y-11046500D01*
X11191071Y-11075072D01*
X11191071Y-11232214D01*
X11776786Y-10917929D02*
X11519643Y-11303643D01*
X12162500Y-10932214D02*
X12191071Y-10932214D01*
X12219643Y-10946500D01*
X12233928Y-10960786D01*
X12248214Y-10989357D01*
X12262500Y-11046500D01*
X12262500Y-11117929D01*
X12248214Y-11175072D01*
X12233928Y-11203643D01*
X12219643Y-11217929D01*
X12191071Y-11232214D01*
X12162500Y-11232214D01*
X12133928Y-11217929D01*
X12119643Y-11203643D01*
X12105357Y-11175072D01*
X12091071Y-11117929D01*
X12091071Y-11046500D01*
X12105357Y-10989357D01*
X12119643Y-10960786D01*
X12133928Y-10946500D01*
X12162500Y-10932214D01*
X12391071Y-11203643D02*
X12405357Y-11217929D01*
X12391071Y-11232214D01*
X12376786Y-11217929D01*
X12391071Y-11203643D01*
X12391071Y-11232214D01*
X12591071Y-10932214D02*
X12619643Y-10932214D01*
X12648214Y-10946500D01*
X12662500Y-10960786D01*
X12676786Y-10989357D01*
X12691071Y-11046500D01*
X12691071Y-11117929D01*
X12676786Y-11175072D01*
X12662500Y-11203643D01*
X12648214Y-11217929D01*
X12619643Y-11232214D01*
X12591071Y-11232214D01*
X12562500Y-11217929D01*
X12548214Y-11203643D01*
X12533928Y-11175072D01*
X12519643Y-11117929D01*
X12519643Y-11046500D01*
X12533928Y-10989357D01*
X12548214Y-10960786D01*
X12562500Y-10946500D01*
X12591071Y-10932214D01*
X12948214Y-11032214D02*
X12948214Y-11232214D01*
X12876786Y-10917929D02*
X12805357Y-11132214D01*
X12991071Y-11132214D01*
X13119643Y-11232214D02*
X13176786Y-11232214D01*
X13205357Y-11217929D01*
X13219643Y-11203643D01*
X13248214Y-11160786D01*
X13262500Y-11103643D01*
X13262500Y-10989357D01*
X13248214Y-10960786D01*
X13233928Y-10946500D01*
X13205357Y-10932214D01*
X13148214Y-10932214D01*
X13119643Y-10946500D01*
X13105357Y-10960786D01*
X13091071Y-10989357D01*
X13091071Y-11060786D01*
X13105357Y-11089357D01*
X13119643Y-11103643D01*
X13148214Y-11117929D01*
X13205357Y-11117929D01*
X13233928Y-11103643D01*
X13248214Y-11089357D01*
X13262500Y-11060786D01*
X13376786Y-10932214D02*
X13376786Y-10989357D01*
X13491071Y-10932214D02*
X13491071Y-10989357D01*
X13933928Y-11346500D02*
X13919643Y-11332214D01*
X13891071Y-11289357D01*
X13876786Y-11260786D01*
X13862500Y-11217929D01*
X13848214Y-11146500D01*
X13848214Y-11089357D01*
X13862500Y-11017929D01*
X13876786Y-10975072D01*
X13891071Y-10946500D01*
X13919643Y-10903643D01*
X13933928Y-10889357D01*
X14176786Y-11032214D02*
X14176786Y-11232214D01*
X14105357Y-10917929D02*
X14033928Y-11132214D01*
X14219643Y-11132214D01*
X14562500Y-11232214D02*
X14562500Y-10932214D01*
X14691071Y-11232214D02*
X14691071Y-11075072D01*
X14676786Y-11046500D01*
X14648214Y-11032214D01*
X14605357Y-11032214D01*
X14576786Y-11046500D01*
X14562500Y-11060786D01*
X14876786Y-11232214D02*
X14848214Y-11217929D01*
X14833928Y-11203643D01*
X14819643Y-11175072D01*
X14819643Y-11089357D01*
X14833928Y-11060786D01*
X14848214Y-11046500D01*
X14876786Y-11032214D01*
X14919643Y-11032214D01*
X14948214Y-11046500D01*
X14962500Y-11060786D01*
X14976786Y-11089357D01*
X14976786Y-11175072D01*
X14962500Y-11203643D01*
X14948214Y-11217929D01*
X14919643Y-11232214D01*
X14876786Y-11232214D01*
X15148214Y-11232214D02*
X15119643Y-11217929D01*
X15105357Y-11189357D01*
X15105357Y-10932214D01*
X15376786Y-11217929D02*
X15348214Y-11232214D01*
X15291071Y-11232214D01*
X15262500Y-11217929D01*
X15248214Y-11189357D01*
X15248214Y-11075072D01*
X15262500Y-11046500D01*
X15291071Y-11032214D01*
X15348214Y-11032214D01*
X15376786Y-11046500D01*
X15391071Y-11075072D01*
X15391071Y-11103643D01*
X15248214Y-11132214D01*
X15505357Y-11217929D02*
X15533928Y-11232214D01*
X15591071Y-11232214D01*
X15619643Y-11217929D01*
X15633928Y-11189357D01*
X15633928Y-11175072D01*
X15619643Y-11146500D01*
X15591071Y-11132214D01*
X15548214Y-11132214D01*
X15519643Y-11117929D01*
X15505357Y-11089357D01*
X15505357Y-11075072D01*
X15519643Y-11046500D01*
X15548214Y-11032214D01*
X15591071Y-11032214D01*
X15619643Y-11046500D01*
X15733928Y-11346500D02*
X15748214Y-11332214D01*
X15776786Y-11289357D01*
X15791071Y-11260786D01*
X15805357Y-11217929D01*
X15819643Y-11146500D01*
X15819643Y-11089357D01*
X15805357Y-11017929D01*
X15791071Y-10975072D01*
X15776786Y-10946500D01*
X15748214Y-10903643D01*
X15733928Y-10889357D01*
X9087500Y-11412500D02*
X9247500Y-11572500D01*
X9247500Y-11412500D02*
X9087500Y-11572500D01*
X9247500Y-11492500D02*
G75*
G03X9247500Y-11492500I-80000J0D01*
G01*
X9691071Y-11628214D02*
X9519643Y-11628214D01*
X9605357Y-11628214D02*
X9605357Y-11328214D01*
X9576786Y-11371071D01*
X9548214Y-11399643D01*
X9519643Y-11413929D01*
X9819643Y-11599643D02*
X9833928Y-11613929D01*
X9819643Y-11628214D01*
X9805357Y-11613929D01*
X9819643Y-11599643D01*
X9819643Y-11628214D01*
X10091071Y-11328214D02*
X10033928Y-11328214D01*
X10005357Y-11342500D01*
X9991071Y-11356786D01*
X9962500Y-11399643D01*
X9948214Y-11456786D01*
X9948214Y-11571071D01*
X9962500Y-11599643D01*
X9976786Y-11613929D01*
X10005357Y-11628214D01*
X10062500Y-11628214D01*
X10091071Y-11613929D01*
X10105357Y-11599643D01*
X10119643Y-11571071D01*
X10119643Y-11499643D01*
X10105357Y-11471071D01*
X10091071Y-11456786D01*
X10062500Y-11442500D01*
X10005357Y-11442500D01*
X9976786Y-11456786D01*
X9962500Y-11471071D01*
X9948214Y-11499643D01*
X10305357Y-11328214D02*
X10333928Y-11328214D01*
X10362500Y-11342500D01*
X10376786Y-11356786D01*
X10391071Y-11385357D01*
X10405357Y-11442500D01*
X10405357Y-11513929D01*
X10391071Y-11571071D01*
X10376786Y-11599643D01*
X10362500Y-11613929D01*
X10333928Y-11628214D01*
X10305357Y-11628214D01*
X10276786Y-11613929D01*
X10262500Y-11599643D01*
X10248214Y-11571071D01*
X10233928Y-11513929D01*
X10233928Y-11442500D01*
X10248214Y-11385357D01*
X10262500Y-11356786D01*
X10276786Y-11342500D01*
X10305357Y-11328214D01*
X10533928Y-11628214D02*
X10533928Y-11428214D01*
X10533928Y-11456786D02*
X10548214Y-11442500D01*
X10576786Y-11428214D01*
X10619643Y-11428214D01*
X10648214Y-11442500D01*
X10662500Y-11471071D01*
X10662500Y-11628214D01*
X10662500Y-11471071D02*
X10676786Y-11442500D01*
X10705357Y-11428214D01*
X10748214Y-11428214D01*
X10776786Y-11442500D01*
X10791071Y-11471071D01*
X10791071Y-11628214D01*
X10933928Y-11628214D02*
X10933928Y-11428214D01*
X10933928Y-11456786D02*
X10948214Y-11442500D01*
X10976786Y-11428214D01*
X11019643Y-11428214D01*
X11048214Y-11442500D01*
X11062500Y-11471071D01*
X11062500Y-11628214D01*
X11062500Y-11471071D02*
X11076786Y-11442500D01*
X11105357Y-11428214D01*
X11148214Y-11428214D01*
X11176786Y-11442500D01*
X11191071Y-11471071D01*
X11191071Y-11628214D01*
X11776786Y-11313929D02*
X11519643Y-11699643D01*
X12162500Y-11328214D02*
X12191071Y-11328214D01*
X12219643Y-11342500D01*
X12233928Y-11356786D01*
X12248214Y-11385357D01*
X12262500Y-11442500D01*
X12262500Y-11513929D01*
X12248214Y-11571071D01*
X12233928Y-11599643D01*
X12219643Y-11613929D01*
X12191071Y-11628214D01*
X12162500Y-11628214D01*
X12133928Y-11613929D01*
X12119643Y-11599643D01*
X12105357Y-11571071D01*
X12091071Y-11513929D01*
X12091071Y-11442500D01*
X12105357Y-11385357D01*
X12119643Y-11356786D01*
X12133928Y-11342500D01*
X12162500Y-11328214D01*
X12391071Y-11599643D02*
X12405357Y-11613929D01*
X12391071Y-11628214D01*
X12376786Y-11613929D01*
X12391071Y-11599643D01*
X12391071Y-11628214D01*
X12591071Y-11328214D02*
X12619643Y-11328214D01*
X12648214Y-11342500D01*
X12662500Y-11356786D01*
X12676786Y-11385357D01*
X12691071Y-11442500D01*
X12691071Y-11513929D01*
X12676786Y-11571071D01*
X12662500Y-11599643D01*
X12648214Y-11613929D01*
X12619643Y-11628214D01*
X12591071Y-11628214D01*
X12562500Y-11613929D01*
X12548214Y-11599643D01*
X12533928Y-11571071D01*
X12519643Y-11513929D01*
X12519643Y-11442500D01*
X12533928Y-11385357D01*
X12548214Y-11356786D01*
X12562500Y-11342500D01*
X12591071Y-11328214D01*
X12948214Y-11328214D02*
X12891071Y-11328214D01*
X12862500Y-11342500D01*
X12848214Y-11356786D01*
X12819643Y-11399643D01*
X12805357Y-11456786D01*
X12805357Y-11571071D01*
X12819643Y-11599643D01*
X12833928Y-11613929D01*
X12862500Y-11628214D01*
X12919643Y-11628214D01*
X12948214Y-11613929D01*
X12962500Y-11599643D01*
X12976786Y-11571071D01*
X12976786Y-11499643D01*
X12962500Y-11471071D01*
X12948214Y-11456786D01*
X12919643Y-11442500D01*
X12862500Y-11442500D01*
X12833928Y-11456786D01*
X12819643Y-11471071D01*
X12805357Y-11499643D01*
X13076786Y-11328214D02*
X13262500Y-11328214D01*
X13162500Y-11442500D01*
X13205357Y-11442500D01*
X13233928Y-11456786D01*
X13248214Y-11471071D01*
X13262500Y-11499643D01*
X13262500Y-11571071D01*
X13248214Y-11599643D01*
X13233928Y-11613929D01*
X13205357Y-11628214D01*
X13119643Y-11628214D01*
X13091071Y-11613929D01*
X13076786Y-11599643D01*
X13376786Y-11328214D02*
X13376786Y-11385357D01*
X13491071Y-11328214D02*
X13491071Y-11385357D01*
X13933928Y-11742500D02*
X13919643Y-11728214D01*
X13891071Y-11685357D01*
X13876786Y-11656786D01*
X13862500Y-11613929D01*
X13848214Y-11542500D01*
X13848214Y-11485357D01*
X13862500Y-11413929D01*
X13876786Y-11371071D01*
X13891071Y-11342500D01*
X13919643Y-11299643D01*
X13933928Y-11285357D01*
X14205357Y-11628214D02*
X14033928Y-11628214D01*
X14119643Y-11628214D02*
X14119643Y-11328214D01*
X14091071Y-11371071D01*
X14062500Y-11399643D01*
X14033928Y-11413929D01*
X14319643Y-11356786D02*
X14333928Y-11342500D01*
X14362500Y-11328214D01*
X14433928Y-11328214D01*
X14462500Y-11342500D01*
X14476786Y-11356786D01*
X14491071Y-11385357D01*
X14491071Y-11413929D01*
X14476786Y-11456786D01*
X14305357Y-11628214D01*
X14491071Y-11628214D01*
X14848214Y-11628214D02*
X14848214Y-11328214D01*
X14976786Y-11628214D02*
X14976786Y-11471071D01*
X14962500Y-11442500D01*
X14933928Y-11428214D01*
X14891071Y-11428214D01*
X14862500Y-11442500D01*
X14848214Y-11456786D01*
X15162500Y-11628214D02*
X15133928Y-11613929D01*
X15119643Y-11599643D01*
X15105357Y-11571071D01*
X15105357Y-11485357D01*
X15119643Y-11456786D01*
X15133928Y-11442500D01*
X15162500Y-11428214D01*
X15205357Y-11428214D01*
X15233928Y-11442500D01*
X15248214Y-11456786D01*
X15262500Y-11485357D01*
X15262500Y-11571071D01*
X15248214Y-11599643D01*
X15233928Y-11613929D01*
X15205357Y-11628214D01*
X15162500Y-11628214D01*
X15433928Y-11628214D02*
X15405357Y-11613929D01*
X15391071Y-11585357D01*
X15391071Y-11328214D01*
X15662500Y-11613929D02*
X15633928Y-11628214D01*
X15576786Y-11628214D01*
X15548214Y-11613929D01*
X15533928Y-11585357D01*
X15533928Y-11471071D01*
X15548214Y-11442500D01*
X15576786Y-11428214D01*
X15633928Y-11428214D01*
X15662500Y-11442500D01*
X15676786Y-11471071D01*
X15676786Y-11499643D01*
X15533928Y-11528214D01*
X15791071Y-11613929D02*
X15819643Y-11628214D01*
X15876786Y-11628214D01*
X15905357Y-11613929D01*
X15919643Y-11585357D01*
X15919643Y-11571071D01*
X15905357Y-11542500D01*
X15876786Y-11528214D01*
X15833928Y-11528214D01*
X15805357Y-11513929D01*
X15791071Y-11485357D01*
X15791071Y-11471071D01*
X15805357Y-11442500D01*
X15833928Y-11428214D01*
X15876786Y-11428214D01*
X15905357Y-11442500D01*
X16019643Y-11742500D02*
X16033928Y-11728214D01*
X16062500Y-11685357D01*
X16076786Y-11656786D01*
X16091071Y-11613929D01*
X16105357Y-11542500D01*
X16105357Y-11485357D01*
X16091071Y-11413929D01*
X16076786Y-11371071D01*
X16062500Y-11342500D01*
X16033928Y-11299643D01*
X16019643Y-11285357D01*
X9057500Y-11793500D02*
X9247500Y-11983500D01*
X9247500Y-11793500D02*
X9057500Y-11983500D01*
X9152500Y-11793500D02*
X9152500Y-11983500D01*
X9057500Y-11888500D02*
X9247500Y-11888500D01*
X9691071Y-12024214D02*
X9519643Y-12024214D01*
X9605357Y-12024214D02*
X9605357Y-11724214D01*
X9576786Y-11767071D01*
X9548214Y-11795643D01*
X9519643Y-11809929D01*
X9819643Y-11995643D02*
X9833928Y-12009929D01*
X9819643Y-12024214D01*
X9805357Y-12009929D01*
X9819643Y-11995643D01*
X9819643Y-12024214D01*
X9976786Y-12024214D02*
X10033928Y-12024214D01*
X10062500Y-12009929D01*
X10076786Y-11995643D01*
X10105357Y-11952786D01*
X10119643Y-11895643D01*
X10119643Y-11781357D01*
X10105357Y-11752786D01*
X10091071Y-11738500D01*
X10062500Y-11724214D01*
X10005357Y-11724214D01*
X9976786Y-11738500D01*
X9962500Y-11752786D01*
X9948214Y-11781357D01*
X9948214Y-11852786D01*
X9962500Y-11881357D01*
X9976786Y-11895643D01*
X10005357Y-11909929D01*
X10062500Y-11909929D01*
X10091071Y-11895643D01*
X10105357Y-11881357D01*
X10119643Y-11852786D01*
X10305357Y-11724214D02*
X10333928Y-11724214D01*
X10362500Y-11738500D01*
X10376786Y-11752786D01*
X10391071Y-11781357D01*
X10405357Y-11838500D01*
X10405357Y-11909929D01*
X10391071Y-11967071D01*
X10376786Y-11995643D01*
X10362500Y-12009929D01*
X10333928Y-12024214D01*
X10305357Y-12024214D01*
X10276786Y-12009929D01*
X10262500Y-11995643D01*
X10248214Y-11967071D01*
X10233928Y-11909929D01*
X10233928Y-11838500D01*
X10248214Y-11781357D01*
X10262500Y-11752786D01*
X10276786Y-11738500D01*
X10305357Y-11724214D01*
X10533928Y-12024214D02*
X10533928Y-11824214D01*
X10533928Y-11852786D02*
X10548214Y-11838500D01*
X10576786Y-11824214D01*
X10619643Y-11824214D01*
X10648214Y-11838500D01*
X10662500Y-11867071D01*
X10662500Y-12024214D01*
X10662500Y-11867071D02*
X10676786Y-11838500D01*
X10705357Y-11824214D01*
X10748214Y-11824214D01*
X10776786Y-11838500D01*
X10791071Y-11867071D01*
X10791071Y-12024214D01*
X10933928Y-12024214D02*
X10933928Y-11824214D01*
X10933928Y-11852786D02*
X10948214Y-11838500D01*
X10976786Y-11824214D01*
X11019643Y-11824214D01*
X11048214Y-11838500D01*
X11062500Y-11867071D01*
X11062500Y-12024214D01*
X11062500Y-11867071D02*
X11076786Y-11838500D01*
X11105357Y-11824214D01*
X11148214Y-11824214D01*
X11176786Y-11838500D01*
X11191071Y-11867071D01*
X11191071Y-12024214D01*
X11776786Y-11709929D02*
X11519643Y-12095643D01*
X12162500Y-11724214D02*
X12191071Y-11724214D01*
X12219643Y-11738500D01*
X12233928Y-11752786D01*
X12248214Y-11781357D01*
X12262500Y-11838500D01*
X12262500Y-11909929D01*
X12248214Y-11967071D01*
X12233928Y-11995643D01*
X12219643Y-12009929D01*
X12191071Y-12024214D01*
X12162500Y-12024214D01*
X12133928Y-12009929D01*
X12119643Y-11995643D01*
X12105357Y-11967071D01*
X12091071Y-11909929D01*
X12091071Y-11838500D01*
X12105357Y-11781357D01*
X12119643Y-11752786D01*
X12133928Y-11738500D01*
X12162500Y-11724214D01*
X12391071Y-11995643D02*
X12405357Y-12009929D01*
X12391071Y-12024214D01*
X12376786Y-12009929D01*
X12391071Y-11995643D01*
X12391071Y-12024214D01*
X12591071Y-11724214D02*
X12619643Y-11724214D01*
X12648214Y-11738500D01*
X12662500Y-11752786D01*
X12676786Y-11781357D01*
X12691071Y-11838500D01*
X12691071Y-11909929D01*
X12676786Y-11967071D01*
X12662500Y-11995643D01*
X12648214Y-12009929D01*
X12619643Y-12024214D01*
X12591071Y-12024214D01*
X12562500Y-12009929D01*
X12548214Y-11995643D01*
X12533928Y-11967071D01*
X12519643Y-11909929D01*
X12519643Y-11838500D01*
X12533928Y-11781357D01*
X12548214Y-11752786D01*
X12562500Y-11738500D01*
X12591071Y-11724214D01*
X12791071Y-11724214D02*
X12991071Y-11724214D01*
X12862500Y-12024214D01*
X13248214Y-11724214D02*
X13105357Y-11724214D01*
X13091071Y-11867071D01*
X13105357Y-11852786D01*
X13133928Y-11838500D01*
X13205357Y-11838500D01*
X13233928Y-11852786D01*
X13248214Y-11867071D01*
X13262500Y-11895643D01*
X13262500Y-11967071D01*
X13248214Y-11995643D01*
X13233928Y-12009929D01*
X13205357Y-12024214D01*
X13133928Y-12024214D01*
X13105357Y-12009929D01*
X13091071Y-11995643D01*
X13376786Y-11724214D02*
X13376786Y-11781357D01*
X13491071Y-11724214D02*
X13491071Y-11781357D01*
X13933928Y-12138500D02*
X13919643Y-12124214D01*
X13891071Y-12081357D01*
X13876786Y-12052786D01*
X13862500Y-12009929D01*
X13848214Y-11938500D01*
X13848214Y-11881357D01*
X13862500Y-11809929D01*
X13876786Y-11767071D01*
X13891071Y-11738500D01*
X13919643Y-11695643D01*
X13933928Y-11681357D01*
X14062500Y-12024214D02*
X14119643Y-12024214D01*
X14148214Y-12009929D01*
X14162500Y-11995643D01*
X14191071Y-11952786D01*
X14205357Y-11895643D01*
X14205357Y-11781357D01*
X14191071Y-11752786D01*
X14176786Y-11738500D01*
X14148214Y-11724214D01*
X14091071Y-11724214D01*
X14062500Y-11738500D01*
X14048214Y-11752786D01*
X14033928Y-11781357D01*
X14033928Y-11852786D01*
X14048214Y-11881357D01*
X14062500Y-11895643D01*
X14091071Y-11909929D01*
X14148214Y-11909929D01*
X14176786Y-11895643D01*
X14191071Y-11881357D01*
X14205357Y-11852786D01*
X14562500Y-12024214D02*
X14562500Y-11724214D01*
X14691071Y-12024214D02*
X14691071Y-11867071D01*
X14676786Y-11838500D01*
X14648214Y-11824214D01*
X14605357Y-11824214D01*
X14576786Y-11838500D01*
X14562500Y-11852786D01*
X14876786Y-12024214D02*
X14848214Y-12009929D01*
X14833928Y-11995643D01*
X14819643Y-11967071D01*
X14819643Y-11881357D01*
X14833928Y-11852786D01*
X14848214Y-11838500D01*
X14876786Y-11824214D01*
X14919643Y-11824214D01*
X14948214Y-11838500D01*
X14962500Y-11852786D01*
X14976786Y-11881357D01*
X14976786Y-11967071D01*
X14962500Y-11995643D01*
X14948214Y-12009929D01*
X14919643Y-12024214D01*
X14876786Y-12024214D01*
X15148214Y-12024214D02*
X15119643Y-12009929D01*
X15105357Y-11981357D01*
X15105357Y-11724214D01*
X15376786Y-12009929D02*
X15348214Y-12024214D01*
X15291071Y-12024214D01*
X15262500Y-12009929D01*
X15248214Y-11981357D01*
X15248214Y-11867071D01*
X15262500Y-11838500D01*
X15291071Y-11824214D01*
X15348214Y-11824214D01*
X15376786Y-11838500D01*
X15391071Y-11867071D01*
X15391071Y-11895643D01*
X15248214Y-11924214D01*
X15505357Y-12009929D02*
X15533928Y-12024214D01*
X15591071Y-12024214D01*
X15619643Y-12009929D01*
X15633928Y-11981357D01*
X15633928Y-11967071D01*
X15619643Y-11938500D01*
X15591071Y-11924214D01*
X15548214Y-11924214D01*
X15519643Y-11909929D01*
X15505357Y-11881357D01*
X15505357Y-11867071D01*
X15519643Y-11838500D01*
X15548214Y-11824214D01*
X15591071Y-11824214D01*
X15619643Y-11838500D01*
X15733928Y-12138500D02*
X15748214Y-12124214D01*
X15776786Y-12081357D01*
X15791071Y-12052786D01*
X15805357Y-12009929D01*
X15819643Y-11938500D01*
X15819643Y-11881357D01*
X15805357Y-11809929D01*
X15791071Y-11767071D01*
X15776786Y-11738500D01*
X15748214Y-11695643D01*
X15733928Y-11681357D01*
X8987500Y-12154500D02*
X9247500Y-12414500D01*
X9247500Y-12154500D02*
X8987500Y-12414500D01*
X9209425Y-12376425D02*
X9209425Y-12192575D01*
X9025575Y-12192575D01*
X9025575Y-12376425D01*
X9209425Y-12376425D01*
X9519643Y-12148786D02*
X9533928Y-12134500D01*
X9562500Y-12120214D01*
X9633928Y-12120214D01*
X9662500Y-12134500D01*
X9676786Y-12148786D01*
X9691071Y-12177357D01*
X9691071Y-12205929D01*
X9676786Y-12248786D01*
X9505357Y-12420214D01*
X9691071Y-12420214D01*
X9819643Y-12391643D02*
X9833928Y-12405929D01*
X9819643Y-12420214D01*
X9805357Y-12405929D01*
X9819643Y-12391643D01*
X9819643Y-12420214D01*
X10091071Y-12120214D02*
X10033928Y-12120214D01*
X10005357Y-12134500D01*
X9991071Y-12148786D01*
X9962500Y-12191643D01*
X9948214Y-12248786D01*
X9948214Y-12363071D01*
X9962500Y-12391643D01*
X9976786Y-12405929D01*
X10005357Y-12420214D01*
X10062500Y-12420214D01*
X10091071Y-12405929D01*
X10105357Y-12391643D01*
X10119643Y-12363071D01*
X10119643Y-12291643D01*
X10105357Y-12263071D01*
X10091071Y-12248786D01*
X10062500Y-12234500D01*
X10005357Y-12234500D01*
X9976786Y-12248786D01*
X9962500Y-12263071D01*
X9948214Y-12291643D01*
X10305357Y-12120214D02*
X10333928Y-12120214D01*
X10362500Y-12134500D01*
X10376786Y-12148786D01*
X10391071Y-12177357D01*
X10405357Y-12234500D01*
X10405357Y-12305929D01*
X10391071Y-12363071D01*
X10376786Y-12391643D01*
X10362500Y-12405929D01*
X10333928Y-12420214D01*
X10305357Y-12420214D01*
X10276786Y-12405929D01*
X10262500Y-12391643D01*
X10248214Y-12363071D01*
X10233928Y-12305929D01*
X10233928Y-12234500D01*
X10248214Y-12177357D01*
X10262500Y-12148786D01*
X10276786Y-12134500D01*
X10305357Y-12120214D01*
X10533928Y-12420214D02*
X10533928Y-12220214D01*
X10533928Y-12248786D02*
X10548214Y-12234500D01*
X10576786Y-12220214D01*
X10619643Y-12220214D01*
X10648214Y-12234500D01*
X10662500Y-12263071D01*
X10662500Y-12420214D01*
X10662500Y-12263071D02*
X10676786Y-12234500D01*
X10705357Y-12220214D01*
X10748214Y-12220214D01*
X10776786Y-12234500D01*
X10791071Y-12263071D01*
X10791071Y-12420214D01*
X10933928Y-12420214D02*
X10933928Y-12220214D01*
X10933928Y-12248786D02*
X10948214Y-12234500D01*
X10976786Y-12220214D01*
X11019643Y-12220214D01*
X11048214Y-12234500D01*
X11062500Y-12263071D01*
X11062500Y-12420214D01*
X11062500Y-12263071D02*
X11076786Y-12234500D01*
X11105357Y-12220214D01*
X11148214Y-12220214D01*
X11176786Y-12234500D01*
X11191071Y-12263071D01*
X11191071Y-12420214D01*
X11776786Y-12105929D02*
X11519643Y-12491643D01*
X12162500Y-12120214D02*
X12191071Y-12120214D01*
X12219643Y-12134500D01*
X12233928Y-12148786D01*
X12248214Y-12177357D01*
X12262500Y-12234500D01*
X12262500Y-12305929D01*
X12248214Y-12363071D01*
X12233928Y-12391643D01*
X12219643Y-12405929D01*
X12191071Y-12420214D01*
X12162500Y-12420214D01*
X12133928Y-12405929D01*
X12119643Y-12391643D01*
X12105357Y-12363071D01*
X12091071Y-12305929D01*
X12091071Y-12234500D01*
X12105357Y-12177357D01*
X12119643Y-12148786D01*
X12133928Y-12134500D01*
X12162500Y-12120214D01*
X12391071Y-12391643D02*
X12405357Y-12405929D01*
X12391071Y-12420214D01*
X12376786Y-12405929D01*
X12391071Y-12391643D01*
X12391071Y-12420214D01*
X12691071Y-12420214D02*
X12519643Y-12420214D01*
X12605357Y-12420214D02*
X12605357Y-12120214D01*
X12576786Y-12163071D01*
X12548214Y-12191643D01*
X12519643Y-12205929D01*
X12876786Y-12120214D02*
X12905357Y-12120214D01*
X12933928Y-12134500D01*
X12948214Y-12148786D01*
X12962500Y-12177357D01*
X12976786Y-12234500D01*
X12976786Y-12305929D01*
X12962500Y-12363071D01*
X12948214Y-12391643D01*
X12933928Y-12405929D01*
X12905357Y-12420214D01*
X12876786Y-12420214D01*
X12848214Y-12405929D01*
X12833928Y-12391643D01*
X12819643Y-12363071D01*
X12805357Y-12305929D01*
X12805357Y-12234500D01*
X12819643Y-12177357D01*
X12833928Y-12148786D01*
X12848214Y-12134500D01*
X12876786Y-12120214D01*
X13091071Y-12148786D02*
X13105357Y-12134500D01*
X13133928Y-12120214D01*
X13205357Y-12120214D01*
X13233928Y-12134500D01*
X13248214Y-12148786D01*
X13262500Y-12177357D01*
X13262500Y-12205929D01*
X13248214Y-12248786D01*
X13076786Y-12420214D01*
X13262500Y-12420214D01*
X13376786Y-12120214D02*
X13376786Y-12177357D01*
X13491071Y-12120214D02*
X13491071Y-12177357D01*
X13933928Y-12534500D02*
X13919643Y-12520214D01*
X13891071Y-12477357D01*
X13876786Y-12448786D01*
X13862500Y-12405929D01*
X13848214Y-12334500D01*
X13848214Y-12277357D01*
X13862500Y-12205929D01*
X13876786Y-12163071D01*
X13891071Y-12134500D01*
X13919643Y-12091643D01*
X13933928Y-12077357D01*
X14033928Y-12148786D02*
X14048214Y-12134500D01*
X14076786Y-12120214D01*
X14148214Y-12120214D01*
X14176786Y-12134500D01*
X14191071Y-12148786D01*
X14205357Y-12177357D01*
X14205357Y-12205929D01*
X14191071Y-12248786D01*
X14019643Y-12420214D01*
X14205357Y-12420214D01*
X14562500Y-12420214D02*
X14562500Y-12120214D01*
X14691071Y-12420214D02*
X14691071Y-12263071D01*
X14676786Y-12234500D01*
X14648214Y-12220214D01*
X14605357Y-12220214D01*
X14576786Y-12234500D01*
X14562500Y-12248786D01*
X14876786Y-12420214D02*
X14848214Y-12405929D01*
X14833928Y-12391643D01*
X14819643Y-12363071D01*
X14819643Y-12277357D01*
X14833928Y-12248786D01*
X14848214Y-12234500D01*
X14876786Y-12220214D01*
X14919643Y-12220214D01*
X14948214Y-12234500D01*
X14962500Y-12248786D01*
X14976786Y-12277357D01*
X14976786Y-12363071D01*
X14962500Y-12391643D01*
X14948214Y-12405929D01*
X14919643Y-12420214D01*
X14876786Y-12420214D01*
X15148214Y-12420214D02*
X15119643Y-12405929D01*
X15105357Y-12377357D01*
X15105357Y-12120214D01*
X15376786Y-12405929D02*
X15348214Y-12420214D01*
X15291071Y-12420214D01*
X15262500Y-12405929D01*
X15248214Y-12377357D01*
X15248214Y-12263071D01*
X15262500Y-12234500D01*
X15291071Y-12220214D01*
X15348214Y-12220214D01*
X15376786Y-12234500D01*
X15391071Y-12263071D01*
X15391071Y-12291643D01*
X15248214Y-12320214D01*
X15505357Y-12405929D02*
X15533928Y-12420214D01*
X15591071Y-12420214D01*
X15619643Y-12405929D01*
X15633928Y-12377357D01*
X15633928Y-12363071D01*
X15619643Y-12334500D01*
X15591071Y-12320214D01*
X15548214Y-12320214D01*
X15519643Y-12305929D01*
X15505357Y-12277357D01*
X15505357Y-12263071D01*
X15519643Y-12234500D01*
X15548214Y-12220214D01*
X15591071Y-12220214D01*
X15619643Y-12234500D01*
X15733928Y-12534500D02*
X15748214Y-12520214D01*
X15776786Y-12477357D01*
X15791071Y-12448786D01*
X15805357Y-12405929D01*
X15819643Y-12334500D01*
X15819643Y-12277357D01*
X15805357Y-12205929D01*
X15791071Y-12163071D01*
X15776786Y-12134500D01*
X15748214Y-12091643D01*
X15733928Y-12077357D01*
X8887500Y-12500500D02*
X9247500Y-12860500D01*
X9247500Y-12500500D02*
X8887500Y-12860500D01*
X9067500Y-12860500D02*
X9247500Y-12680500D01*
X9067500Y-12500500D01*
X8887500Y-12680500D01*
X9067500Y-12860500D01*
X9505357Y-12516214D02*
X9691071Y-12516214D01*
X9591071Y-12630500D01*
X9633928Y-12630500D01*
X9662500Y-12644786D01*
X9676786Y-12659071D01*
X9691071Y-12687643D01*
X9691071Y-12759071D01*
X9676786Y-12787643D01*
X9662500Y-12801929D01*
X9633928Y-12816214D01*
X9548214Y-12816214D01*
X9519643Y-12801929D01*
X9505357Y-12787643D01*
X9819643Y-12787643D02*
X9833928Y-12801929D01*
X9819643Y-12816214D01*
X9805357Y-12801929D01*
X9819643Y-12787643D01*
X9819643Y-12816214D01*
X10091071Y-12516214D02*
X10033928Y-12516214D01*
X10005357Y-12530500D01*
X9991071Y-12544786D01*
X9962500Y-12587643D01*
X9948214Y-12644786D01*
X9948214Y-12759071D01*
X9962500Y-12787643D01*
X9976786Y-12801929D01*
X10005357Y-12816214D01*
X10062500Y-12816214D01*
X10091071Y-12801929D01*
X10105357Y-12787643D01*
X10119643Y-12759071D01*
X10119643Y-12687643D01*
X10105357Y-12659071D01*
X10091071Y-12644786D01*
X10062500Y-12630500D01*
X10005357Y-12630500D01*
X9976786Y-12644786D01*
X9962500Y-12659071D01*
X9948214Y-12687643D01*
X10305357Y-12516214D02*
X10333928Y-12516214D01*
X10362500Y-12530500D01*
X10376786Y-12544786D01*
X10391071Y-12573357D01*
X10405357Y-12630500D01*
X10405357Y-12701929D01*
X10391071Y-12759071D01*
X10376786Y-12787643D01*
X10362500Y-12801929D01*
X10333928Y-12816214D01*
X10305357Y-12816214D01*
X10276786Y-12801929D01*
X10262500Y-12787643D01*
X10248214Y-12759071D01*
X10233928Y-12701929D01*
X10233928Y-12630500D01*
X10248214Y-12573357D01*
X10262500Y-12544786D01*
X10276786Y-12530500D01*
X10305357Y-12516214D01*
X10533928Y-12816214D02*
X10533928Y-12616214D01*
X10533928Y-12644786D02*
X10548214Y-12630500D01*
X10576786Y-12616214D01*
X10619643Y-12616214D01*
X10648214Y-12630500D01*
X10662500Y-12659071D01*
X10662500Y-12816214D01*
X10662500Y-12659071D02*
X10676786Y-12630500D01*
X10705357Y-12616214D01*
X10748214Y-12616214D01*
X10776786Y-12630500D01*
X10791071Y-12659071D01*
X10791071Y-12816214D01*
X10933928Y-12816214D02*
X10933928Y-12616214D01*
X10933928Y-12644786D02*
X10948214Y-12630500D01*
X10976786Y-12616214D01*
X11019643Y-12616214D01*
X11048214Y-12630500D01*
X11062500Y-12659071D01*
X11062500Y-12816214D01*
X11062500Y-12659071D02*
X11076786Y-12630500D01*
X11105357Y-12616214D01*
X11148214Y-12616214D01*
X11176786Y-12630500D01*
X11191071Y-12659071D01*
X11191071Y-12816214D01*
X11776786Y-12501929D02*
X11519643Y-12887643D01*
X12162500Y-12516214D02*
X12191071Y-12516214D01*
X12219643Y-12530500D01*
X12233928Y-12544786D01*
X12248214Y-12573357D01*
X12262500Y-12630500D01*
X12262500Y-12701929D01*
X12248214Y-12759071D01*
X12233928Y-12787643D01*
X12219643Y-12801929D01*
X12191071Y-12816214D01*
X12162500Y-12816214D01*
X12133928Y-12801929D01*
X12119643Y-12787643D01*
X12105357Y-12759071D01*
X12091071Y-12701929D01*
X12091071Y-12630500D01*
X12105357Y-12573357D01*
X12119643Y-12544786D01*
X12133928Y-12530500D01*
X12162500Y-12516214D01*
X12391071Y-12787643D02*
X12405357Y-12801929D01*
X12391071Y-12816214D01*
X12376786Y-12801929D01*
X12391071Y-12787643D01*
X12391071Y-12816214D01*
X12691071Y-12816214D02*
X12519643Y-12816214D01*
X12605357Y-12816214D02*
X12605357Y-12516214D01*
X12576786Y-12559071D01*
X12548214Y-12587643D01*
X12519643Y-12601929D01*
X12948214Y-12616214D02*
X12948214Y-12816214D01*
X12876786Y-12501929D02*
X12805357Y-12716214D01*
X12991071Y-12716214D01*
X13091071Y-12544786D02*
X13105357Y-12530500D01*
X13133928Y-12516214D01*
X13205357Y-12516214D01*
X13233928Y-12530500D01*
X13248214Y-12544786D01*
X13262500Y-12573357D01*
X13262500Y-12601929D01*
X13248214Y-12644786D01*
X13076786Y-12816214D01*
X13262500Y-12816214D01*
X13376786Y-12516214D02*
X13376786Y-12573357D01*
X13491071Y-12516214D02*
X13491071Y-12573357D01*
X13933928Y-12930500D02*
X13919643Y-12916214D01*
X13891071Y-12873357D01*
X13876786Y-12844786D01*
X13862500Y-12801929D01*
X13848214Y-12730500D01*
X13848214Y-12673357D01*
X13862500Y-12601929D01*
X13876786Y-12559071D01*
X13891071Y-12530500D01*
X13919643Y-12487643D01*
X13933928Y-12473357D01*
X14176786Y-12516214D02*
X14119643Y-12516214D01*
X14091071Y-12530500D01*
X14076786Y-12544786D01*
X14048214Y-12587643D01*
X14033928Y-12644786D01*
X14033928Y-12759071D01*
X14048214Y-12787643D01*
X14062500Y-12801929D01*
X14091071Y-12816214D01*
X14148214Y-12816214D01*
X14176786Y-12801929D01*
X14191071Y-12787643D01*
X14205357Y-12759071D01*
X14205357Y-12687643D01*
X14191071Y-12659071D01*
X14176786Y-12644786D01*
X14148214Y-12630500D01*
X14091071Y-12630500D01*
X14062500Y-12644786D01*
X14048214Y-12659071D01*
X14033928Y-12687643D01*
X14562500Y-12816214D02*
X14562500Y-12516214D01*
X14691071Y-12816214D02*
X14691071Y-12659071D01*
X14676786Y-12630500D01*
X14648214Y-12616214D01*
X14605357Y-12616214D01*
X14576786Y-12630500D01*
X14562500Y-12644786D01*
X14876786Y-12816214D02*
X14848214Y-12801929D01*
X14833928Y-12787643D01*
X14819643Y-12759071D01*
X14819643Y-12673357D01*
X14833928Y-12644786D01*
X14848214Y-12630500D01*
X14876786Y-12616214D01*
X14919643Y-12616214D01*
X14948214Y-12630500D01*
X14962500Y-12644786D01*
X14976786Y-12673357D01*
X14976786Y-12759071D01*
X14962500Y-12787643D01*
X14948214Y-12801929D01*
X14919643Y-12816214D01*
X14876786Y-12816214D01*
X15148214Y-12816214D02*
X15119643Y-12801929D01*
X15105357Y-12773357D01*
X15105357Y-12516214D01*
X15376786Y-12801929D02*
X15348214Y-12816214D01*
X15291071Y-12816214D01*
X15262500Y-12801929D01*
X15248214Y-12773357D01*
X15248214Y-12659071D01*
X15262500Y-12630500D01*
X15291071Y-12616214D01*
X15348214Y-12616214D01*
X15376786Y-12630500D01*
X15391071Y-12659071D01*
X15391071Y-12687643D01*
X15248214Y-12716214D01*
X15505357Y-12801929D02*
X15533928Y-12816214D01*
X15591071Y-12816214D01*
X15619643Y-12801929D01*
X15633928Y-12773357D01*
X15633928Y-12759071D01*
X15619643Y-12730500D01*
X15591071Y-12716214D01*
X15548214Y-12716214D01*
X15519643Y-12701929D01*
X15505357Y-12673357D01*
X15505357Y-12659071D01*
X15519643Y-12630500D01*
X15548214Y-12616214D01*
X15591071Y-12616214D01*
X15619643Y-12630500D01*
X15733928Y-12930500D02*
X15748214Y-12916214D01*
X15776786Y-12873357D01*
X15791071Y-12844786D01*
X15805357Y-12801929D01*
X15819643Y-12730500D01*
X15819643Y-12673357D01*
X15805357Y-12601929D01*
X15791071Y-12559071D01*
X15776786Y-12530500D01*
X15748214Y-12487643D01*
X15733928Y-12473357D01*
M02*
