G04 #@! TF.GenerationSoftware,KiCad,Pcbnew,(5.1.4)-1*
G04 #@! TF.CreationDate,2021-06-03T13:54:44-04:00*
G04 #@! TF.ProjectId,coil_power_mod,636f696c-5f70-46f7-9765-725f6d6f642e,rev?*
G04 #@! TF.SameCoordinates,Original*
G04 #@! TF.FileFunction,Soldermask,Bot*
G04 #@! TF.FilePolarity,Negative*
%FSLAX46Y46*%
G04 Gerber Fmt 4.6, Leading zero omitted, Abs format (unit mm)*
G04 Created by KiCad (PCBNEW (5.1.4)-1) date 2021-06-03 13:54:44*
%MOMM*%
%LPD*%
G04 APERTURE LIST*
%ADD10C,0.100000*%
G04 APERTURE END LIST*
D10*
G36*
X123441000Y-82151000D02*
G01*
X121639000Y-82151000D01*
X121639000Y-80349000D01*
X123441000Y-80349000D01*
X123441000Y-82151000D01*
X123441000Y-82151000D01*
G37*
G36*
X120110443Y-80355519D02*
G01*
X120176627Y-80362037D01*
X120346466Y-80413557D01*
X120502991Y-80497222D01*
X120538729Y-80526552D01*
X120640186Y-80609814D01*
X120712795Y-80698290D01*
X120752778Y-80747009D01*
X120836443Y-80903534D01*
X120887963Y-81073373D01*
X120905359Y-81250000D01*
X120887963Y-81426627D01*
X120836443Y-81596466D01*
X120752778Y-81752991D01*
X120729791Y-81781000D01*
X120640186Y-81890186D01*
X120538729Y-81973448D01*
X120502991Y-82002778D01*
X120346466Y-82086443D01*
X120176627Y-82137963D01*
X120110443Y-82144481D01*
X120044260Y-82151000D01*
X119955740Y-82151000D01*
X119889557Y-82144481D01*
X119823373Y-82137963D01*
X119653534Y-82086443D01*
X119497009Y-82002778D01*
X119461271Y-81973448D01*
X119359814Y-81890186D01*
X119270209Y-81781000D01*
X119247222Y-81752991D01*
X119163557Y-81596466D01*
X119112037Y-81426627D01*
X119094641Y-81250000D01*
X119112037Y-81073373D01*
X119163557Y-80903534D01*
X119247222Y-80747009D01*
X119287205Y-80698290D01*
X119359814Y-80609814D01*
X119461271Y-80526552D01*
X119497009Y-80497222D01*
X119653534Y-80413557D01*
X119823373Y-80362037D01*
X119889557Y-80355519D01*
X119955740Y-80349000D01*
X120044260Y-80349000D01*
X120110443Y-80355519D01*
X120110443Y-80355519D01*
G37*
G36*
X117570443Y-80355519D02*
G01*
X117636627Y-80362037D01*
X117806466Y-80413557D01*
X117962991Y-80497222D01*
X117998729Y-80526552D01*
X118100186Y-80609814D01*
X118172795Y-80698290D01*
X118212778Y-80747009D01*
X118296443Y-80903534D01*
X118347963Y-81073373D01*
X118365359Y-81250000D01*
X118347963Y-81426627D01*
X118296443Y-81596466D01*
X118212778Y-81752991D01*
X118189791Y-81781000D01*
X118100186Y-81890186D01*
X117998729Y-81973448D01*
X117962991Y-82002778D01*
X117806466Y-82086443D01*
X117636627Y-82137963D01*
X117570443Y-82144481D01*
X117504260Y-82151000D01*
X117415740Y-82151000D01*
X117349557Y-82144481D01*
X117283373Y-82137963D01*
X117113534Y-82086443D01*
X116957009Y-82002778D01*
X116921271Y-81973448D01*
X116819814Y-81890186D01*
X116730209Y-81781000D01*
X116707222Y-81752991D01*
X116623557Y-81596466D01*
X116572037Y-81426627D01*
X116554641Y-81250000D01*
X116572037Y-81073373D01*
X116623557Y-80903534D01*
X116707222Y-80747009D01*
X116747205Y-80698290D01*
X116819814Y-80609814D01*
X116921271Y-80526552D01*
X116957009Y-80497222D01*
X117113534Y-80413557D01*
X117283373Y-80362037D01*
X117349557Y-80355519D01*
X117415740Y-80349000D01*
X117504260Y-80349000D01*
X117570443Y-80355519D01*
X117570443Y-80355519D01*
G37*
G36*
X115030443Y-80355519D02*
G01*
X115096627Y-80362037D01*
X115266466Y-80413557D01*
X115422991Y-80497222D01*
X115458729Y-80526552D01*
X115560186Y-80609814D01*
X115632795Y-80698290D01*
X115672778Y-80747009D01*
X115756443Y-80903534D01*
X115807963Y-81073373D01*
X115825359Y-81250000D01*
X115807963Y-81426627D01*
X115756443Y-81596466D01*
X115672778Y-81752991D01*
X115649791Y-81781000D01*
X115560186Y-81890186D01*
X115458729Y-81973448D01*
X115422991Y-82002778D01*
X115266466Y-82086443D01*
X115096627Y-82137963D01*
X115030443Y-82144481D01*
X114964260Y-82151000D01*
X114875740Y-82151000D01*
X114809557Y-82144481D01*
X114743373Y-82137963D01*
X114573534Y-82086443D01*
X114417009Y-82002778D01*
X114381271Y-81973448D01*
X114279814Y-81890186D01*
X114190209Y-81781000D01*
X114167222Y-81752991D01*
X114083557Y-81596466D01*
X114032037Y-81426627D01*
X114014641Y-81250000D01*
X114032037Y-81073373D01*
X114083557Y-80903534D01*
X114167222Y-80747009D01*
X114207205Y-80698290D01*
X114279814Y-80609814D01*
X114381271Y-80526552D01*
X114417009Y-80497222D01*
X114573534Y-80413557D01*
X114743373Y-80362037D01*
X114809557Y-80355519D01*
X114875740Y-80349000D01*
X114964260Y-80349000D01*
X115030443Y-80355519D01*
X115030443Y-80355519D01*
G37*
G36*
X166930318Y-74345153D02*
G01*
X167148885Y-74435687D01*
X167148887Y-74435688D01*
X167345593Y-74567122D01*
X167512878Y-74734407D01*
X167643789Y-74930331D01*
X167644313Y-74931115D01*
X167734847Y-75149682D01*
X167781000Y-75381710D01*
X167781000Y-75618290D01*
X167734847Y-75850318D01*
X167672421Y-76001026D01*
X167644312Y-76068887D01*
X167512878Y-76265593D01*
X167345593Y-76432878D01*
X167148887Y-76564312D01*
X167148886Y-76564313D01*
X167148885Y-76564313D01*
X166931117Y-76654516D01*
X166909506Y-76666067D01*
X166890564Y-76681613D01*
X166875019Y-76700554D01*
X166863468Y-76722165D01*
X166856355Y-76745614D01*
X166853953Y-76770000D01*
X166856355Y-76794386D01*
X166863468Y-76817835D01*
X166875019Y-76839446D01*
X166890565Y-76858388D01*
X166909506Y-76873933D01*
X166931117Y-76885484D01*
X167078658Y-76946598D01*
X167148887Y-76975688D01*
X167345593Y-77107122D01*
X167512878Y-77274407D01*
X167644312Y-77471113D01*
X167644313Y-77471115D01*
X167734847Y-77689682D01*
X167781000Y-77921710D01*
X167781000Y-78158290D01*
X167734847Y-78390318D01*
X167644313Y-78608885D01*
X167644312Y-78608887D01*
X167512878Y-78805593D01*
X167345593Y-78972878D01*
X167148887Y-79104312D01*
X167148886Y-79104313D01*
X167148885Y-79104313D01*
X166931117Y-79194516D01*
X166909506Y-79206067D01*
X166890564Y-79221613D01*
X166875019Y-79240554D01*
X166863468Y-79262165D01*
X166856355Y-79285614D01*
X166853953Y-79310000D01*
X166856355Y-79334386D01*
X166863468Y-79357835D01*
X166875019Y-79379446D01*
X166890565Y-79398388D01*
X166909506Y-79413933D01*
X166931117Y-79425484D01*
X167148885Y-79515687D01*
X167148887Y-79515688D01*
X167345593Y-79647122D01*
X167512878Y-79814407D01*
X167644312Y-80011113D01*
X167644313Y-80011115D01*
X167734847Y-80229682D01*
X167781000Y-80461710D01*
X167781000Y-80698290D01*
X167734847Y-80930318D01*
X167675591Y-81073373D01*
X167644312Y-81148887D01*
X167512878Y-81345593D01*
X167345593Y-81512878D01*
X167148887Y-81644312D01*
X167148886Y-81644313D01*
X167148885Y-81644313D01*
X166930318Y-81734847D01*
X166698290Y-81781000D01*
X166461710Y-81781000D01*
X166229682Y-81734847D01*
X166011115Y-81644313D01*
X166011114Y-81644313D01*
X166011113Y-81644312D01*
X165814407Y-81512878D01*
X165647122Y-81345593D01*
X165515688Y-81148887D01*
X165484409Y-81073373D01*
X165425153Y-80930318D01*
X165379000Y-80698290D01*
X165379000Y-80461710D01*
X165425153Y-80229682D01*
X165515687Y-80011115D01*
X165515688Y-80011113D01*
X165647122Y-79814407D01*
X165814407Y-79647122D01*
X166011113Y-79515688D01*
X166011115Y-79515687D01*
X166228883Y-79425484D01*
X166250494Y-79413933D01*
X166269436Y-79398387D01*
X166284981Y-79379446D01*
X166296532Y-79357835D01*
X166303645Y-79334386D01*
X166306047Y-79310000D01*
X166303645Y-79285614D01*
X166296532Y-79262165D01*
X166284981Y-79240554D01*
X166269435Y-79221612D01*
X166250494Y-79206067D01*
X166228883Y-79194516D01*
X166011115Y-79104313D01*
X166011114Y-79104313D01*
X166011113Y-79104312D01*
X165814407Y-78972878D01*
X165647122Y-78805593D01*
X165515688Y-78608887D01*
X165515687Y-78608885D01*
X165425153Y-78390318D01*
X165379000Y-78158290D01*
X165379000Y-77921710D01*
X165425153Y-77689682D01*
X165515687Y-77471115D01*
X165515688Y-77471113D01*
X165647122Y-77274407D01*
X165814407Y-77107122D01*
X166011113Y-76975688D01*
X166081342Y-76946598D01*
X166228883Y-76885484D01*
X166250494Y-76873933D01*
X166269436Y-76858387D01*
X166284981Y-76839446D01*
X166296532Y-76817835D01*
X166303645Y-76794386D01*
X166306047Y-76770000D01*
X166303645Y-76745614D01*
X166296532Y-76722165D01*
X166284981Y-76700554D01*
X166269435Y-76681612D01*
X166250494Y-76666067D01*
X166228883Y-76654516D01*
X166011115Y-76564313D01*
X166011114Y-76564313D01*
X166011113Y-76564312D01*
X165814407Y-76432878D01*
X165647122Y-76265593D01*
X165515688Y-76068887D01*
X165487579Y-76001026D01*
X165425153Y-75850318D01*
X165379000Y-75618290D01*
X165379000Y-75381710D01*
X165425153Y-75149682D01*
X165515687Y-74931115D01*
X165516211Y-74930331D01*
X165647122Y-74734407D01*
X165814407Y-74567122D01*
X166011113Y-74435688D01*
X166011115Y-74435687D01*
X166229682Y-74345153D01*
X166461710Y-74299000D01*
X166698290Y-74299000D01*
X166930318Y-74345153D01*
X166930318Y-74345153D01*
G37*
G36*
X161850318Y-74345153D02*
G01*
X162068885Y-74435687D01*
X162068887Y-74435688D01*
X162265593Y-74567122D01*
X162432878Y-74734407D01*
X162563789Y-74930331D01*
X162564313Y-74931115D01*
X162654847Y-75149682D01*
X162701000Y-75381710D01*
X162701000Y-75618290D01*
X162654847Y-75850318D01*
X162592421Y-76001026D01*
X162564312Y-76068887D01*
X162432878Y-76265593D01*
X162265593Y-76432878D01*
X162068887Y-76564312D01*
X162068886Y-76564313D01*
X162068885Y-76564313D01*
X161851117Y-76654516D01*
X161829506Y-76666067D01*
X161810564Y-76681613D01*
X161795019Y-76700554D01*
X161783468Y-76722165D01*
X161776355Y-76745614D01*
X161773953Y-76770000D01*
X161776355Y-76794386D01*
X161783468Y-76817835D01*
X161795019Y-76839446D01*
X161810565Y-76858388D01*
X161829506Y-76873933D01*
X161851117Y-76885484D01*
X161998658Y-76946598D01*
X162068887Y-76975688D01*
X162265593Y-77107122D01*
X162432878Y-77274407D01*
X162564312Y-77471113D01*
X162564313Y-77471115D01*
X162654847Y-77689682D01*
X162701000Y-77921710D01*
X162701000Y-78158290D01*
X162654847Y-78390318D01*
X162564313Y-78608885D01*
X162564312Y-78608887D01*
X162432878Y-78805593D01*
X162265593Y-78972878D01*
X162068887Y-79104312D01*
X162068886Y-79104313D01*
X162068885Y-79104313D01*
X161851117Y-79194516D01*
X161829506Y-79206067D01*
X161810564Y-79221613D01*
X161795019Y-79240554D01*
X161783468Y-79262165D01*
X161776355Y-79285614D01*
X161773953Y-79310000D01*
X161776355Y-79334386D01*
X161783468Y-79357835D01*
X161795019Y-79379446D01*
X161810565Y-79398388D01*
X161829506Y-79413933D01*
X161851117Y-79425484D01*
X162068885Y-79515687D01*
X162068887Y-79515688D01*
X162265593Y-79647122D01*
X162432878Y-79814407D01*
X162564312Y-80011113D01*
X162564313Y-80011115D01*
X162654847Y-80229682D01*
X162701000Y-80461710D01*
X162701000Y-80698290D01*
X162654847Y-80930318D01*
X162595591Y-81073373D01*
X162564312Y-81148887D01*
X162432878Y-81345593D01*
X162265593Y-81512878D01*
X162068887Y-81644312D01*
X162068886Y-81644313D01*
X162068885Y-81644313D01*
X161850318Y-81734847D01*
X161618290Y-81781000D01*
X161381710Y-81781000D01*
X161149682Y-81734847D01*
X160931115Y-81644313D01*
X160931114Y-81644313D01*
X160931113Y-81644312D01*
X160734407Y-81512878D01*
X160567122Y-81345593D01*
X160435688Y-81148887D01*
X160404409Y-81073373D01*
X160345153Y-80930318D01*
X160299000Y-80698290D01*
X160299000Y-80461710D01*
X160345153Y-80229682D01*
X160435687Y-80011115D01*
X160435688Y-80011113D01*
X160567122Y-79814407D01*
X160734407Y-79647122D01*
X160931113Y-79515688D01*
X160931115Y-79515687D01*
X161148883Y-79425484D01*
X161170494Y-79413933D01*
X161189436Y-79398387D01*
X161204981Y-79379446D01*
X161216532Y-79357835D01*
X161223645Y-79334386D01*
X161226047Y-79310000D01*
X161223645Y-79285614D01*
X161216532Y-79262165D01*
X161204981Y-79240554D01*
X161189435Y-79221612D01*
X161170494Y-79206067D01*
X161148883Y-79194516D01*
X160931115Y-79104313D01*
X160931114Y-79104313D01*
X160931113Y-79104312D01*
X160734407Y-78972878D01*
X160567122Y-78805593D01*
X160435688Y-78608887D01*
X160435687Y-78608885D01*
X160345153Y-78390318D01*
X160299000Y-78158290D01*
X160299000Y-77921710D01*
X160345153Y-77689682D01*
X160435687Y-77471115D01*
X160435688Y-77471113D01*
X160567122Y-77274407D01*
X160734407Y-77107122D01*
X160931113Y-76975688D01*
X161001342Y-76946598D01*
X161148883Y-76885484D01*
X161170494Y-76873933D01*
X161189436Y-76858387D01*
X161204981Y-76839446D01*
X161216532Y-76817835D01*
X161223645Y-76794386D01*
X161226047Y-76770000D01*
X161223645Y-76745614D01*
X161216532Y-76722165D01*
X161204981Y-76700554D01*
X161189435Y-76681612D01*
X161170494Y-76666067D01*
X161148883Y-76654516D01*
X160931115Y-76564313D01*
X160931114Y-76564313D01*
X160931113Y-76564312D01*
X160734407Y-76432878D01*
X160567122Y-76265593D01*
X160435688Y-76068887D01*
X160407579Y-76001026D01*
X160345153Y-75850318D01*
X160299000Y-75618290D01*
X160299000Y-75381710D01*
X160345153Y-75149682D01*
X160435687Y-74931115D01*
X160436211Y-74930331D01*
X160567122Y-74734407D01*
X160734407Y-74567122D01*
X160931113Y-74435688D01*
X160931115Y-74435687D01*
X161149682Y-74345153D01*
X161381710Y-74299000D01*
X161618290Y-74299000D01*
X161850318Y-74345153D01*
X161850318Y-74345153D01*
G37*
G36*
X156551000Y-76824001D02*
G01*
X156553402Y-76848387D01*
X156560515Y-76871836D01*
X156572066Y-76893447D01*
X156587611Y-76912389D01*
X156606553Y-76927934D01*
X156628164Y-76939485D01*
X156651613Y-76946598D01*
X156675999Y-76949000D01*
X157223144Y-76949000D01*
X157223144Y-79051000D01*
X155121144Y-79051000D01*
X155121144Y-77175999D01*
X155118742Y-77151613D01*
X155111629Y-77128164D01*
X155100078Y-77106553D01*
X155084533Y-77087611D01*
X155065591Y-77072066D01*
X155043980Y-77060515D01*
X155020531Y-77053402D01*
X154996145Y-77051000D01*
X154449000Y-77051000D01*
X154449000Y-74949000D01*
X156551000Y-74949000D01*
X156551000Y-76824001D01*
X156551000Y-76824001D01*
G37*
G36*
X121758241Y-74409760D02*
G01*
X122022305Y-74519139D01*
X122259958Y-74677934D01*
X122462066Y-74880042D01*
X122620861Y-75117695D01*
X122730240Y-75381759D01*
X122786000Y-75662088D01*
X122786000Y-75947912D01*
X122730240Y-76228241D01*
X122620861Y-76492305D01*
X122462066Y-76729958D01*
X122259958Y-76932066D01*
X122022305Y-77090861D01*
X121758241Y-77200240D01*
X121477912Y-77256000D01*
X121192088Y-77256000D01*
X120911759Y-77200240D01*
X120647695Y-77090861D01*
X120410042Y-76932066D01*
X120207934Y-76729958D01*
X120049139Y-76492305D01*
X119939760Y-76228241D01*
X119884000Y-75947912D01*
X119884000Y-75662088D01*
X119939760Y-75381759D01*
X120049139Y-75117695D01*
X120207934Y-74880042D01*
X120410042Y-74677934D01*
X120647695Y-74519139D01*
X120911759Y-74409760D01*
X121192088Y-74354000D01*
X121477912Y-74354000D01*
X121758241Y-74409760D01*
X121758241Y-74409760D01*
G37*
G36*
X117958241Y-74409760D02*
G01*
X118222305Y-74519139D01*
X118459958Y-74677934D01*
X118662066Y-74880042D01*
X118820861Y-75117695D01*
X118930240Y-75381759D01*
X118986000Y-75662088D01*
X118986000Y-75947912D01*
X118930240Y-76228241D01*
X118820861Y-76492305D01*
X118662066Y-76729958D01*
X118459958Y-76932066D01*
X118222305Y-77090861D01*
X117958241Y-77200240D01*
X117677912Y-77256000D01*
X117392088Y-77256000D01*
X117111759Y-77200240D01*
X116847695Y-77090861D01*
X116610042Y-76932066D01*
X116407934Y-76729958D01*
X116249139Y-76492305D01*
X116139760Y-76228241D01*
X116084000Y-75947912D01*
X116084000Y-75662088D01*
X116139760Y-75381759D01*
X116249139Y-75117695D01*
X116407934Y-74880042D01*
X116610042Y-74677934D01*
X116847695Y-74519139D01*
X117111759Y-74409760D01*
X117392088Y-74354000D01*
X117677912Y-74354000D01*
X117958241Y-74409760D01*
X117958241Y-74409760D01*
G37*
G36*
X150134420Y-72989389D02*
G01*
X150325689Y-73068615D01*
X150325691Y-73068616D01*
X150401304Y-73119139D01*
X150497829Y-73183635D01*
X150644221Y-73330027D01*
X150759241Y-73502167D01*
X150838467Y-73693436D01*
X150878856Y-73896484D01*
X150878856Y-74103516D01*
X150838467Y-74306564D01*
X150784982Y-74435688D01*
X150759240Y-74497835D01*
X150712944Y-74567122D01*
X150644221Y-74669973D01*
X150570096Y-74744098D01*
X150554551Y-74763040D01*
X150543000Y-74784651D01*
X150535887Y-74808100D01*
X150533485Y-74832486D01*
X150535887Y-74856872D01*
X150543000Y-74880321D01*
X150554551Y-74901932D01*
X150570096Y-74920874D01*
X150589038Y-74936419D01*
X150610649Y-74947970D01*
X150634098Y-74955083D01*
X150806564Y-74989389D01*
X150997833Y-75068615D01*
X150997835Y-75068616D01*
X151041913Y-75098068D01*
X151169973Y-75183635D01*
X151316365Y-75330027D01*
X151431385Y-75502167D01*
X151510611Y-75693436D01*
X151551000Y-75896484D01*
X151551000Y-76103516D01*
X151510611Y-76306564D01*
X151458290Y-76432878D01*
X151431384Y-76497835D01*
X151316365Y-76669973D01*
X151169973Y-76816365D01*
X150997835Y-76931384D01*
X150997834Y-76931385D01*
X150997833Y-76931385D01*
X150806564Y-77010611D01*
X150603516Y-77051000D01*
X150396484Y-77051000D01*
X150193436Y-77010611D01*
X150002167Y-76931385D01*
X150002166Y-76931385D01*
X150002165Y-76931384D01*
X149830027Y-76816365D01*
X149683635Y-76669973D01*
X149568616Y-76497835D01*
X149541710Y-76432878D01*
X149489389Y-76306564D01*
X149449000Y-76103516D01*
X149449000Y-75896484D01*
X149489389Y-75693436D01*
X149568615Y-75502167D01*
X149683635Y-75330027D01*
X149757760Y-75255902D01*
X149773305Y-75236960D01*
X149784856Y-75215349D01*
X149791969Y-75191900D01*
X149794371Y-75167514D01*
X149791969Y-75143128D01*
X149784856Y-75119679D01*
X149773305Y-75098068D01*
X149757760Y-75079126D01*
X149738818Y-75063581D01*
X149717207Y-75052030D01*
X149693758Y-75044917D01*
X149521292Y-75010611D01*
X149330023Y-74931385D01*
X149330022Y-74931385D01*
X149330021Y-74931384D01*
X149157883Y-74816365D01*
X149011491Y-74669973D01*
X148896472Y-74497835D01*
X148870730Y-74435688D01*
X148817245Y-74306564D01*
X148776856Y-74103516D01*
X148776856Y-73896484D01*
X148817245Y-73693436D01*
X148896471Y-73502167D01*
X149011491Y-73330027D01*
X149157883Y-73183635D01*
X149254408Y-73119139D01*
X149330021Y-73068616D01*
X149330023Y-73068615D01*
X149521292Y-72989389D01*
X149724340Y-72949000D01*
X149931372Y-72949000D01*
X150134420Y-72989389D01*
X150134420Y-72989389D01*
G37*
G36*
X125660331Y-72673211D02*
G01*
X125988092Y-72808974D01*
X126283070Y-73006072D01*
X126533928Y-73256930D01*
X126731026Y-73551908D01*
X126866789Y-73879669D01*
X126936000Y-74227616D01*
X126936000Y-74582384D01*
X126866789Y-74930331D01*
X126731026Y-75258092D01*
X126533928Y-75553070D01*
X126283070Y-75803928D01*
X125988092Y-76001026D01*
X125660331Y-76136789D01*
X125312384Y-76206000D01*
X124957616Y-76206000D01*
X124609669Y-76136789D01*
X124281908Y-76001026D01*
X123986930Y-75803928D01*
X123736072Y-75553070D01*
X123538974Y-75258092D01*
X123403211Y-74930331D01*
X123334000Y-74582384D01*
X123334000Y-74227616D01*
X123403211Y-73879669D01*
X123538974Y-73551908D01*
X123736072Y-73256930D01*
X123986930Y-73006072D01*
X124281908Y-72808974D01*
X124609669Y-72673211D01*
X124957616Y-72604000D01*
X125312384Y-72604000D01*
X125660331Y-72673211D01*
X125660331Y-72673211D01*
G37*
G36*
X97658241Y-73009760D02*
G01*
X97922305Y-73119139D01*
X98159958Y-73277934D01*
X98362066Y-73480042D01*
X98520861Y-73717695D01*
X98630240Y-73981759D01*
X98686000Y-74262088D01*
X98686000Y-74547912D01*
X98630240Y-74828241D01*
X98520861Y-75092305D01*
X98362066Y-75329958D01*
X98159958Y-75532066D01*
X97922305Y-75690861D01*
X97658241Y-75800240D01*
X97377912Y-75856000D01*
X97092088Y-75856000D01*
X96811759Y-75800240D01*
X96547695Y-75690861D01*
X96310042Y-75532066D01*
X96107934Y-75329958D01*
X95949139Y-75092305D01*
X95839760Y-74828241D01*
X95784000Y-74547912D01*
X95784000Y-74262088D01*
X95839760Y-73981759D01*
X95949139Y-73717695D01*
X96107934Y-73480042D01*
X96310042Y-73277934D01*
X96547695Y-73119139D01*
X96811759Y-73009760D01*
X97092088Y-72954000D01*
X97377912Y-72954000D01*
X97658241Y-73009760D01*
X97658241Y-73009760D01*
G37*
G36*
X125558241Y-69209760D02*
G01*
X125822305Y-69319139D01*
X126059958Y-69477934D01*
X126262066Y-69680042D01*
X126420861Y-69917695D01*
X126530240Y-70181759D01*
X126586000Y-70462088D01*
X126586000Y-70747912D01*
X126530240Y-71028241D01*
X126420861Y-71292305D01*
X126262066Y-71529958D01*
X126059958Y-71732066D01*
X125822305Y-71890861D01*
X125558241Y-72000240D01*
X125277912Y-72056000D01*
X124992088Y-72056000D01*
X124711759Y-72000240D01*
X124447695Y-71890861D01*
X124210042Y-71732066D01*
X124007934Y-71529958D01*
X123849139Y-71292305D01*
X123739760Y-71028241D01*
X123684000Y-70747912D01*
X123684000Y-70462088D01*
X123739760Y-70181759D01*
X123849139Y-69917695D01*
X124007934Y-69680042D01*
X124210042Y-69477934D01*
X124447695Y-69319139D01*
X124711759Y-69209760D01*
X124992088Y-69154000D01*
X125277912Y-69154000D01*
X125558241Y-69209760D01*
X125558241Y-69209760D01*
G37*
G36*
X144719059Y-68777860D02*
G01*
X144855732Y-68834472D01*
X144978735Y-68916660D01*
X145083340Y-69021265D01*
X145165528Y-69144268D01*
X145222140Y-69280941D01*
X145251000Y-69426033D01*
X145251000Y-69573967D01*
X145222140Y-69719059D01*
X145165528Y-69855732D01*
X145083340Y-69978735D01*
X144978735Y-70083340D01*
X144855732Y-70165528D01*
X144855731Y-70165529D01*
X144855730Y-70165529D01*
X144719059Y-70222140D01*
X144573968Y-70251000D01*
X144426032Y-70251000D01*
X144280941Y-70222140D01*
X144144270Y-70165529D01*
X144144269Y-70165529D01*
X144144268Y-70165528D01*
X144021265Y-70083340D01*
X143916660Y-69978735D01*
X143834472Y-69855732D01*
X143777860Y-69719059D01*
X143749000Y-69573967D01*
X143749000Y-69426033D01*
X143777860Y-69280941D01*
X143834472Y-69144268D01*
X143916660Y-69021265D01*
X144021265Y-68916660D01*
X144144268Y-68834472D01*
X144280941Y-68777860D01*
X144426032Y-68749000D01*
X144573968Y-68749000D01*
X144719059Y-68777860D01*
X144719059Y-68777860D01*
G37*
G36*
X161770318Y-61265153D02*
G01*
X161988885Y-61355687D01*
X161988887Y-61355688D01*
X162185593Y-61487122D01*
X162352878Y-61654407D01*
X162484312Y-61851113D01*
X162484313Y-61851115D01*
X162574847Y-62069682D01*
X162621000Y-62301710D01*
X162621000Y-62538290D01*
X162574847Y-62770318D01*
X162536834Y-62862088D01*
X162484312Y-62988887D01*
X162352878Y-63185593D01*
X162185593Y-63352878D01*
X161988887Y-63484312D01*
X161988886Y-63484313D01*
X161988885Y-63484313D01*
X161771117Y-63574516D01*
X161749506Y-63586067D01*
X161730564Y-63601613D01*
X161715019Y-63620554D01*
X161703468Y-63642165D01*
X161696355Y-63665614D01*
X161693953Y-63690000D01*
X161696355Y-63714386D01*
X161703468Y-63737835D01*
X161715019Y-63759446D01*
X161730565Y-63778388D01*
X161749506Y-63793933D01*
X161771117Y-63805484D01*
X161988885Y-63895687D01*
X161988887Y-63895688D01*
X162185593Y-64027122D01*
X162352878Y-64194407D01*
X162417325Y-64290860D01*
X162484313Y-64391115D01*
X162574847Y-64609682D01*
X162621000Y-64841710D01*
X162621000Y-65078290D01*
X162574847Y-65310318D01*
X162484313Y-65528885D01*
X162484312Y-65528887D01*
X162352878Y-65725593D01*
X162185593Y-65892878D01*
X161988887Y-66024312D01*
X161988886Y-66024313D01*
X161988885Y-66024313D01*
X161771117Y-66114516D01*
X161749506Y-66126067D01*
X161730564Y-66141613D01*
X161715019Y-66160554D01*
X161703468Y-66182165D01*
X161696355Y-66205614D01*
X161693953Y-66230000D01*
X161696355Y-66254386D01*
X161703468Y-66277835D01*
X161715019Y-66299446D01*
X161730565Y-66318388D01*
X161749506Y-66333933D01*
X161771117Y-66345484D01*
X161988885Y-66435687D01*
X161988887Y-66435688D01*
X162185593Y-66567122D01*
X162352878Y-66734407D01*
X162422754Y-66838985D01*
X162484313Y-66931115D01*
X162574847Y-67149682D01*
X162621000Y-67381710D01*
X162621000Y-67618290D01*
X162574847Y-67850318D01*
X162495250Y-68042480D01*
X162484312Y-68068887D01*
X162352878Y-68265593D01*
X162185593Y-68432878D01*
X161988887Y-68564312D01*
X161988886Y-68564313D01*
X161988885Y-68564313D01*
X161770318Y-68654847D01*
X161538290Y-68701000D01*
X161301710Y-68701000D01*
X161069682Y-68654847D01*
X160851115Y-68564313D01*
X160851114Y-68564313D01*
X160851113Y-68564312D01*
X160654407Y-68432878D01*
X160487122Y-68265593D01*
X160355688Y-68068887D01*
X160344750Y-68042480D01*
X160265153Y-67850318D01*
X160219000Y-67618290D01*
X160219000Y-67381710D01*
X160265153Y-67149682D01*
X160355687Y-66931115D01*
X160417246Y-66838985D01*
X160487122Y-66734407D01*
X160654407Y-66567122D01*
X160851113Y-66435688D01*
X160851115Y-66435687D01*
X161068883Y-66345484D01*
X161090494Y-66333933D01*
X161109436Y-66318387D01*
X161124981Y-66299446D01*
X161136532Y-66277835D01*
X161143645Y-66254386D01*
X161146047Y-66230000D01*
X161143645Y-66205614D01*
X161136532Y-66182165D01*
X161124981Y-66160554D01*
X161109435Y-66141612D01*
X161090494Y-66126067D01*
X161068883Y-66114516D01*
X160851115Y-66024313D01*
X160851114Y-66024313D01*
X160851113Y-66024312D01*
X160654407Y-65892878D01*
X160487122Y-65725593D01*
X160355688Y-65528887D01*
X160355687Y-65528885D01*
X160265153Y-65310318D01*
X160219000Y-65078290D01*
X160219000Y-64841710D01*
X160265153Y-64609682D01*
X160355687Y-64391115D01*
X160422675Y-64290860D01*
X160487122Y-64194407D01*
X160654407Y-64027122D01*
X160851113Y-63895688D01*
X160851115Y-63895687D01*
X161068883Y-63805484D01*
X161090494Y-63793933D01*
X161109436Y-63778387D01*
X161124981Y-63759446D01*
X161136532Y-63737835D01*
X161143645Y-63714386D01*
X161146047Y-63690000D01*
X161143645Y-63665614D01*
X161136532Y-63642165D01*
X161124981Y-63620554D01*
X161109435Y-63601612D01*
X161090494Y-63586067D01*
X161068883Y-63574516D01*
X160851115Y-63484313D01*
X160851114Y-63484313D01*
X160851113Y-63484312D01*
X160654407Y-63352878D01*
X160487122Y-63185593D01*
X160355688Y-62988887D01*
X160303166Y-62862088D01*
X160265153Y-62770318D01*
X160219000Y-62538290D01*
X160219000Y-62301710D01*
X160265153Y-62069682D01*
X160355687Y-61851115D01*
X160355688Y-61851113D01*
X160487122Y-61654407D01*
X160654407Y-61487122D01*
X160851113Y-61355688D01*
X160851115Y-61355687D01*
X161069682Y-61265153D01*
X161301710Y-61219000D01*
X161538290Y-61219000D01*
X161770318Y-61265153D01*
X161770318Y-61265153D01*
G37*
G36*
X166850318Y-61265153D02*
G01*
X167068885Y-61355687D01*
X167068887Y-61355688D01*
X167265593Y-61487122D01*
X167432878Y-61654407D01*
X167564312Y-61851113D01*
X167564313Y-61851115D01*
X167654847Y-62069682D01*
X167701000Y-62301710D01*
X167701000Y-62538290D01*
X167654847Y-62770318D01*
X167616834Y-62862088D01*
X167564312Y-62988887D01*
X167432878Y-63185593D01*
X167265593Y-63352878D01*
X167068887Y-63484312D01*
X167068886Y-63484313D01*
X167068885Y-63484313D01*
X166851117Y-63574516D01*
X166829506Y-63586067D01*
X166810564Y-63601613D01*
X166795019Y-63620554D01*
X166783468Y-63642165D01*
X166776355Y-63665614D01*
X166773953Y-63690000D01*
X166776355Y-63714386D01*
X166783468Y-63737835D01*
X166795019Y-63759446D01*
X166810565Y-63778388D01*
X166829506Y-63793933D01*
X166851117Y-63805484D01*
X167068885Y-63895687D01*
X167068887Y-63895688D01*
X167265593Y-64027122D01*
X167432878Y-64194407D01*
X167497325Y-64290860D01*
X167564313Y-64391115D01*
X167654847Y-64609682D01*
X167701000Y-64841710D01*
X167701000Y-65078290D01*
X167654847Y-65310318D01*
X167564313Y-65528885D01*
X167564312Y-65528887D01*
X167432878Y-65725593D01*
X167265593Y-65892878D01*
X167068887Y-66024312D01*
X167068886Y-66024313D01*
X167068885Y-66024313D01*
X166851117Y-66114516D01*
X166829506Y-66126067D01*
X166810564Y-66141613D01*
X166795019Y-66160554D01*
X166783468Y-66182165D01*
X166776355Y-66205614D01*
X166773953Y-66230000D01*
X166776355Y-66254386D01*
X166783468Y-66277835D01*
X166795019Y-66299446D01*
X166810565Y-66318388D01*
X166829506Y-66333933D01*
X166851117Y-66345484D01*
X167068885Y-66435687D01*
X167068887Y-66435688D01*
X167265593Y-66567122D01*
X167432878Y-66734407D01*
X167502754Y-66838985D01*
X167564313Y-66931115D01*
X167654847Y-67149682D01*
X167701000Y-67381710D01*
X167701000Y-67618290D01*
X167654847Y-67850318D01*
X167575250Y-68042480D01*
X167564312Y-68068887D01*
X167432878Y-68265593D01*
X167265593Y-68432878D01*
X167068887Y-68564312D01*
X167068886Y-68564313D01*
X167068885Y-68564313D01*
X166850318Y-68654847D01*
X166618290Y-68701000D01*
X166381710Y-68701000D01*
X166149682Y-68654847D01*
X165931115Y-68564313D01*
X165931114Y-68564313D01*
X165931113Y-68564312D01*
X165734407Y-68432878D01*
X165567122Y-68265593D01*
X165435688Y-68068887D01*
X165424750Y-68042480D01*
X165345153Y-67850318D01*
X165299000Y-67618290D01*
X165299000Y-67381710D01*
X165345153Y-67149682D01*
X165435687Y-66931115D01*
X165497246Y-66838985D01*
X165567122Y-66734407D01*
X165734407Y-66567122D01*
X165931113Y-66435688D01*
X165931115Y-66435687D01*
X166148883Y-66345484D01*
X166170494Y-66333933D01*
X166189436Y-66318387D01*
X166204981Y-66299446D01*
X166216532Y-66277835D01*
X166223645Y-66254386D01*
X166226047Y-66230000D01*
X166223645Y-66205614D01*
X166216532Y-66182165D01*
X166204981Y-66160554D01*
X166189435Y-66141612D01*
X166170494Y-66126067D01*
X166148883Y-66114516D01*
X165931115Y-66024313D01*
X165931114Y-66024313D01*
X165931113Y-66024312D01*
X165734407Y-65892878D01*
X165567122Y-65725593D01*
X165435688Y-65528887D01*
X165435687Y-65528885D01*
X165345153Y-65310318D01*
X165299000Y-65078290D01*
X165299000Y-64841710D01*
X165345153Y-64609682D01*
X165435687Y-64391115D01*
X165502675Y-64290860D01*
X165567122Y-64194407D01*
X165734407Y-64027122D01*
X165931113Y-63895688D01*
X165931115Y-63895687D01*
X166148883Y-63805484D01*
X166170494Y-63793933D01*
X166189436Y-63778387D01*
X166204981Y-63759446D01*
X166216532Y-63737835D01*
X166223645Y-63714386D01*
X166226047Y-63690000D01*
X166223645Y-63665614D01*
X166216532Y-63642165D01*
X166204981Y-63620554D01*
X166189435Y-63601612D01*
X166170494Y-63586067D01*
X166148883Y-63574516D01*
X165931115Y-63484313D01*
X165931114Y-63484313D01*
X165931113Y-63484312D01*
X165734407Y-63352878D01*
X165567122Y-63185593D01*
X165435688Y-62988887D01*
X165383166Y-62862088D01*
X165345153Y-62770318D01*
X165299000Y-62538290D01*
X165299000Y-62301710D01*
X165345153Y-62069682D01*
X165435687Y-61851115D01*
X165435688Y-61851113D01*
X165567122Y-61654407D01*
X165734407Y-61487122D01*
X165931113Y-61355688D01*
X165931115Y-61355687D01*
X166149682Y-61265153D01*
X166381710Y-61219000D01*
X166618290Y-61219000D01*
X166850318Y-61265153D01*
X166850318Y-61265153D01*
G37*
G36*
X136248228Y-66681703D02*
G01*
X136403100Y-66745853D01*
X136542481Y-66838985D01*
X136661015Y-66957519D01*
X136754147Y-67096900D01*
X136818297Y-67251772D01*
X136851000Y-67416184D01*
X136851000Y-67583816D01*
X136818297Y-67748228D01*
X136754147Y-67903100D01*
X136661015Y-68042481D01*
X136542481Y-68161015D01*
X136403100Y-68254147D01*
X136248228Y-68318297D01*
X136083816Y-68351000D01*
X135916184Y-68351000D01*
X135751772Y-68318297D01*
X135596900Y-68254147D01*
X135457519Y-68161015D01*
X135338985Y-68042481D01*
X135245853Y-67903100D01*
X135181703Y-67748228D01*
X135149000Y-67583816D01*
X135149000Y-67416184D01*
X135181703Y-67251772D01*
X135245853Y-67096900D01*
X135338985Y-66957519D01*
X135457519Y-66838985D01*
X135596900Y-66745853D01*
X135751772Y-66681703D01*
X135916184Y-66649000D01*
X136083816Y-66649000D01*
X136248228Y-66681703D01*
X136248228Y-66681703D01*
G37*
G36*
X97658241Y-65409760D02*
G01*
X97922305Y-65519139D01*
X98159958Y-65677934D01*
X98362066Y-65880042D01*
X98520861Y-66117695D01*
X98630240Y-66381759D01*
X98686000Y-66662088D01*
X98686000Y-66947912D01*
X98630240Y-67228241D01*
X98520861Y-67492305D01*
X98362066Y-67729958D01*
X98159958Y-67932066D01*
X97922305Y-68090861D01*
X97658241Y-68200240D01*
X97377912Y-68256000D01*
X97092088Y-68256000D01*
X96811759Y-68200240D01*
X96547695Y-68090861D01*
X96310042Y-67932066D01*
X96107934Y-67729958D01*
X95949139Y-67492305D01*
X95839760Y-67228241D01*
X95784000Y-66947912D01*
X95784000Y-66662088D01*
X95839760Y-66381759D01*
X95949139Y-66117695D01*
X96107934Y-65880042D01*
X96310042Y-65677934D01*
X96547695Y-65519139D01*
X96811759Y-65409760D01*
X97092088Y-65354000D01*
X97377912Y-65354000D01*
X97658241Y-65409760D01*
X97658241Y-65409760D01*
G37*
G36*
X125558241Y-65409760D02*
G01*
X125822305Y-65519139D01*
X126059958Y-65677934D01*
X126262066Y-65880042D01*
X126420861Y-66117695D01*
X126530240Y-66381759D01*
X126586000Y-66662088D01*
X126586000Y-66947912D01*
X126530240Y-67228241D01*
X126420861Y-67492305D01*
X126262066Y-67729958D01*
X126059958Y-67932066D01*
X125822305Y-68090861D01*
X125558241Y-68200240D01*
X125277912Y-68256000D01*
X124992088Y-68256000D01*
X124711759Y-68200240D01*
X124447695Y-68090861D01*
X124210042Y-67932066D01*
X124007934Y-67729958D01*
X123849139Y-67492305D01*
X123739760Y-67228241D01*
X123684000Y-66947912D01*
X123684000Y-66662088D01*
X123739760Y-66381759D01*
X123849139Y-66117695D01*
X124007934Y-65880042D01*
X124210042Y-65677934D01*
X124447695Y-65519139D01*
X124711759Y-65409760D01*
X124992088Y-65354000D01*
X125277912Y-65354000D01*
X125558241Y-65409760D01*
X125558241Y-65409760D01*
G37*
G36*
X151248228Y-64681703D02*
G01*
X151403100Y-64745853D01*
X151542481Y-64838985D01*
X151661015Y-64957519D01*
X151754147Y-65096900D01*
X151818297Y-65251772D01*
X151851000Y-65416184D01*
X151851000Y-65583816D01*
X151818297Y-65748228D01*
X151754147Y-65903100D01*
X151661015Y-66042481D01*
X151542481Y-66161015D01*
X151403100Y-66254147D01*
X151248228Y-66318297D01*
X151083816Y-66351000D01*
X150916184Y-66351000D01*
X150751772Y-66318297D01*
X150596900Y-66254147D01*
X150457519Y-66161015D01*
X150338985Y-66042481D01*
X150245853Y-65903100D01*
X150181703Y-65748228D01*
X150149000Y-65583816D01*
X150149000Y-65416184D01*
X150181703Y-65251772D01*
X150245853Y-65096900D01*
X150338985Y-64957519D01*
X150457519Y-64838985D01*
X150596900Y-64745853D01*
X150751772Y-64681703D01*
X150916184Y-64649000D01*
X151083816Y-64649000D01*
X151248228Y-64681703D01*
X151248228Y-64681703D01*
G37*
G36*
X155351000Y-66351000D02*
G01*
X153649000Y-66351000D01*
X153649000Y-64649000D01*
X155351000Y-64649000D01*
X155351000Y-66351000D01*
X155351000Y-66351000D01*
G37*
G36*
X144573665Y-63672622D02*
G01*
X144647222Y-63679867D01*
X144788786Y-63722810D01*
X144919252Y-63792546D01*
X144935017Y-63805484D01*
X145033607Y-63886393D01*
X145103008Y-63970960D01*
X145127454Y-64000748D01*
X145197190Y-64131214D01*
X145240133Y-64272778D01*
X145254633Y-64420000D01*
X145240133Y-64567222D01*
X145197190Y-64708786D01*
X145127454Y-64839252D01*
X145103008Y-64869040D01*
X145033607Y-64953607D01*
X144949040Y-65023008D01*
X144919252Y-65047454D01*
X144788786Y-65117190D01*
X144647222Y-65160133D01*
X144573665Y-65167378D01*
X144536888Y-65171000D01*
X144463112Y-65171000D01*
X144426335Y-65167378D01*
X144352778Y-65160133D01*
X144211214Y-65117190D01*
X144080748Y-65047454D01*
X144050960Y-65023008D01*
X143966393Y-64953607D01*
X143896992Y-64869040D01*
X143872546Y-64839252D01*
X143802810Y-64708786D01*
X143759867Y-64567222D01*
X143745367Y-64420000D01*
X143759867Y-64272778D01*
X143802810Y-64131214D01*
X143872546Y-64000748D01*
X143896992Y-63970960D01*
X143966393Y-63886393D01*
X144064983Y-63805484D01*
X144080748Y-63792546D01*
X144211214Y-63722810D01*
X144352778Y-63679867D01*
X144426335Y-63672622D01*
X144463112Y-63669000D01*
X144536888Y-63669000D01*
X144573665Y-63672622D01*
X144573665Y-63672622D01*
G37*
G36*
X136851000Y-64851000D02*
G01*
X135149000Y-64851000D01*
X135149000Y-63149000D01*
X136851000Y-63149000D01*
X136851000Y-64851000D01*
X136851000Y-64851000D01*
G37*
G36*
X125558241Y-61609760D02*
G01*
X125822305Y-61719139D01*
X126059958Y-61877934D01*
X126262066Y-62080042D01*
X126420861Y-62317695D01*
X126530240Y-62581759D01*
X126586000Y-62862088D01*
X126586000Y-63147912D01*
X126530240Y-63428241D01*
X126420861Y-63692305D01*
X126262066Y-63929958D01*
X126059958Y-64132066D01*
X125822305Y-64290861D01*
X125558241Y-64400240D01*
X125277912Y-64456000D01*
X124992088Y-64456000D01*
X124711759Y-64400240D01*
X124447695Y-64290861D01*
X124210042Y-64132066D01*
X124007934Y-63929958D01*
X123849139Y-63692305D01*
X123739760Y-63428241D01*
X123684000Y-63147912D01*
X123684000Y-62862088D01*
X123739760Y-62581759D01*
X123849139Y-62317695D01*
X124007934Y-62080042D01*
X124210042Y-61877934D01*
X124447695Y-61719139D01*
X124711759Y-61609760D01*
X124992088Y-61554000D01*
X125277912Y-61554000D01*
X125558241Y-61609760D01*
X125558241Y-61609760D01*
G37*
G36*
X97658241Y-61609760D02*
G01*
X97922305Y-61719139D01*
X98159958Y-61877934D01*
X98362066Y-62080042D01*
X98520861Y-62317695D01*
X98630240Y-62581759D01*
X98686000Y-62862088D01*
X98686000Y-63147912D01*
X98630240Y-63428241D01*
X98520861Y-63692305D01*
X98362066Y-63929958D01*
X98159958Y-64132066D01*
X97922305Y-64290861D01*
X97658241Y-64400240D01*
X97377912Y-64456000D01*
X97092088Y-64456000D01*
X96811759Y-64400240D01*
X96547695Y-64290861D01*
X96310042Y-64132066D01*
X96107934Y-63929958D01*
X95949139Y-63692305D01*
X95839760Y-63428241D01*
X95784000Y-63147912D01*
X95784000Y-62862088D01*
X95839760Y-62581759D01*
X95949139Y-62317695D01*
X96107934Y-62080042D01*
X96310042Y-61877934D01*
X96547695Y-61719139D01*
X96811759Y-61609760D01*
X97092088Y-61554000D01*
X97377912Y-61554000D01*
X97658241Y-61609760D01*
X97658241Y-61609760D01*
G37*
G36*
X125660331Y-57473211D02*
G01*
X125988092Y-57608974D01*
X126283070Y-57806072D01*
X126533928Y-58056930D01*
X126731026Y-58351908D01*
X126866789Y-58679669D01*
X126936000Y-59027616D01*
X126936000Y-59382384D01*
X126866789Y-59730331D01*
X126731026Y-60058092D01*
X126533928Y-60353070D01*
X126283070Y-60603928D01*
X125988092Y-60801026D01*
X125660331Y-60936789D01*
X125312384Y-61006000D01*
X124957616Y-61006000D01*
X124609669Y-60936789D01*
X124281908Y-60801026D01*
X123986930Y-60603928D01*
X123736072Y-60353070D01*
X123538974Y-60058092D01*
X123403211Y-59730331D01*
X123334000Y-59382384D01*
X123334000Y-59027616D01*
X123403211Y-58679669D01*
X123538974Y-58351908D01*
X123736072Y-58056930D01*
X123986930Y-57806072D01*
X124281908Y-57608974D01*
X124609669Y-57473211D01*
X124957616Y-57404000D01*
X125312384Y-57404000D01*
X125660331Y-57473211D01*
X125660331Y-57473211D01*
G37*
G36*
X97658241Y-57809760D02*
G01*
X97922305Y-57919139D01*
X98159958Y-58077934D01*
X98362066Y-58280042D01*
X98520861Y-58517695D01*
X98630240Y-58781759D01*
X98686000Y-59062088D01*
X98686000Y-59347912D01*
X98630240Y-59628241D01*
X98520861Y-59892305D01*
X98362066Y-60129958D01*
X98159958Y-60332066D01*
X97922305Y-60490861D01*
X97658241Y-60600240D01*
X97377912Y-60656000D01*
X97092088Y-60656000D01*
X96811759Y-60600240D01*
X96547695Y-60490861D01*
X96310042Y-60332066D01*
X96107934Y-60129958D01*
X95949139Y-59892305D01*
X95839760Y-59628241D01*
X95784000Y-59347912D01*
X95784000Y-59062088D01*
X95839760Y-58781759D01*
X95949139Y-58517695D01*
X96107934Y-58280042D01*
X96310042Y-58077934D01*
X96547695Y-57919139D01*
X96811759Y-57809760D01*
X97092088Y-57754000D01*
X97377912Y-57754000D01*
X97658241Y-57809760D01*
X97658241Y-57809760D01*
G37*
G36*
X116306564Y-51989389D02*
G01*
X116497833Y-52068615D01*
X116497835Y-52068616D01*
X116669973Y-52183635D01*
X116816365Y-52330027D01*
X116907483Y-52466394D01*
X116931385Y-52502167D01*
X117010611Y-52693436D01*
X117051000Y-52896484D01*
X117051000Y-53103516D01*
X117010611Y-53306564D01*
X116931385Y-53497833D01*
X116931384Y-53497835D01*
X116816365Y-53669973D01*
X116669973Y-53816365D01*
X116497835Y-53931384D01*
X116497834Y-53931385D01*
X116497833Y-53931385D01*
X116306564Y-54010611D01*
X116103516Y-54051000D01*
X115896484Y-54051000D01*
X115693436Y-54010611D01*
X115502167Y-53931385D01*
X115502166Y-53931385D01*
X115502165Y-53931384D01*
X115330027Y-53816365D01*
X115183635Y-53669973D01*
X115068616Y-53497835D01*
X115068615Y-53497833D01*
X114989389Y-53306564D01*
X114949000Y-53103516D01*
X114949000Y-52896484D01*
X114989389Y-52693436D01*
X115068615Y-52502167D01*
X115092518Y-52466394D01*
X115183635Y-52330027D01*
X115330027Y-52183635D01*
X115502165Y-52068616D01*
X115502167Y-52068615D01*
X115693436Y-51989389D01*
X115896484Y-51949000D01*
X116103516Y-51949000D01*
X116306564Y-51989389D01*
X116306564Y-51989389D01*
G37*
G36*
X108719059Y-52277860D02*
G01*
X108779294Y-52302810D01*
X108855732Y-52334472D01*
X108978735Y-52416660D01*
X109083340Y-52521265D01*
X109165528Y-52644268D01*
X109165529Y-52644270D01*
X109222140Y-52780941D01*
X109251000Y-52926032D01*
X109251000Y-53073968D01*
X109236429Y-53147220D01*
X109222140Y-53219059D01*
X109165528Y-53355732D01*
X109083340Y-53478735D01*
X108978735Y-53583340D01*
X108855732Y-53665528D01*
X108855731Y-53665529D01*
X108855730Y-53665529D01*
X108719059Y-53722140D01*
X108573968Y-53751000D01*
X108426032Y-53751000D01*
X108280941Y-53722140D01*
X108144270Y-53665529D01*
X108144269Y-53665529D01*
X108144268Y-53665528D01*
X108021265Y-53583340D01*
X107916660Y-53478735D01*
X107834472Y-53355732D01*
X107777860Y-53219059D01*
X107763571Y-53147220D01*
X107749000Y-53073968D01*
X107749000Y-52926032D01*
X107777860Y-52780941D01*
X107834471Y-52644270D01*
X107834472Y-52644268D01*
X107916660Y-52521265D01*
X108021265Y-52416660D01*
X108144268Y-52334472D01*
X108220707Y-52302810D01*
X108280941Y-52277860D01*
X108426032Y-52249000D01*
X108573968Y-52249000D01*
X108719059Y-52277860D01*
X108719059Y-52277860D01*
G37*
G36*
X103493665Y-52252622D02*
G01*
X103567222Y-52259867D01*
X103708786Y-52302810D01*
X103839252Y-52372546D01*
X103869040Y-52396992D01*
X103953607Y-52466393D01*
X104023008Y-52550960D01*
X104047454Y-52580748D01*
X104117190Y-52711214D01*
X104160133Y-52852778D01*
X104174633Y-53000000D01*
X104160133Y-53147222D01*
X104117190Y-53288786D01*
X104047454Y-53419252D01*
X104023008Y-53449040D01*
X103953607Y-53533607D01*
X103893004Y-53583341D01*
X103839252Y-53627454D01*
X103708786Y-53697190D01*
X103567222Y-53740133D01*
X103493665Y-53747378D01*
X103456888Y-53751000D01*
X103383112Y-53751000D01*
X103346335Y-53747378D01*
X103272778Y-53740133D01*
X103131214Y-53697190D01*
X103000748Y-53627454D01*
X102946996Y-53583341D01*
X102886393Y-53533607D01*
X102816992Y-53449040D01*
X102792546Y-53419252D01*
X102722810Y-53288786D01*
X102679867Y-53147222D01*
X102665367Y-53000000D01*
X102679867Y-52852778D01*
X102722810Y-52711214D01*
X102792546Y-52580748D01*
X102816992Y-52550960D01*
X102886393Y-52466393D01*
X102970960Y-52396992D01*
X103000748Y-52372546D01*
X103131214Y-52302810D01*
X103272778Y-52259867D01*
X103346335Y-52252622D01*
X103383112Y-52249000D01*
X103456888Y-52249000D01*
X103493665Y-52252622D01*
X103493665Y-52252622D01*
G37*
G36*
X103719059Y-49777860D02*
G01*
X103779294Y-49802810D01*
X103855732Y-49834472D01*
X103978735Y-49916660D01*
X104083340Y-50021265D01*
X104165528Y-50144268D01*
X104222140Y-50280941D01*
X104251000Y-50426033D01*
X104251000Y-50573967D01*
X104222140Y-50719059D01*
X104165528Y-50855732D01*
X104083340Y-50978735D01*
X103978735Y-51083340D01*
X103855732Y-51165528D01*
X103855731Y-51165529D01*
X103855730Y-51165529D01*
X103719059Y-51222140D01*
X103573968Y-51251000D01*
X103426032Y-51251000D01*
X103280941Y-51222140D01*
X103144270Y-51165529D01*
X103144269Y-51165529D01*
X103144268Y-51165528D01*
X103021265Y-51083340D01*
X102916660Y-50978735D01*
X102834472Y-50855732D01*
X102777860Y-50719059D01*
X102749000Y-50573967D01*
X102749000Y-50426033D01*
X102777860Y-50280941D01*
X102834472Y-50144268D01*
X102916660Y-50021265D01*
X103021265Y-49916660D01*
X103144268Y-49834472D01*
X103220707Y-49802810D01*
X103280941Y-49777860D01*
X103426032Y-49749000D01*
X103573968Y-49749000D01*
X103719059Y-49777860D01*
X103719059Y-49777860D01*
G37*
G36*
X108653665Y-49752622D02*
G01*
X108727222Y-49759867D01*
X108868786Y-49802810D01*
X108868788Y-49802811D01*
X108928019Y-49834471D01*
X108999252Y-49872546D01*
X109029040Y-49896992D01*
X109113607Y-49966393D01*
X109183008Y-50050960D01*
X109207454Y-50080748D01*
X109277190Y-50211214D01*
X109320133Y-50352778D01*
X109334633Y-50500000D01*
X109320133Y-50647222D01*
X109277190Y-50788786D01*
X109207454Y-50919252D01*
X109183008Y-50949040D01*
X109113607Y-51033607D01*
X109053004Y-51083341D01*
X108999252Y-51127454D01*
X108868786Y-51197190D01*
X108727222Y-51240133D01*
X108653665Y-51247378D01*
X108616888Y-51251000D01*
X108543112Y-51251000D01*
X108506335Y-51247378D01*
X108432778Y-51240133D01*
X108291214Y-51197190D01*
X108160748Y-51127454D01*
X108106996Y-51083341D01*
X108046393Y-51033607D01*
X107976992Y-50949040D01*
X107952546Y-50919252D01*
X107882810Y-50788786D01*
X107839867Y-50647222D01*
X107825367Y-50500000D01*
X107839867Y-50352778D01*
X107882810Y-50211214D01*
X107952546Y-50080748D01*
X107976992Y-50050960D01*
X108046393Y-49966393D01*
X108130960Y-49896992D01*
X108160748Y-49872546D01*
X108231981Y-49834471D01*
X108291212Y-49802811D01*
X108291214Y-49802810D01*
X108432778Y-49759867D01*
X108506335Y-49752622D01*
X108543112Y-49749000D01*
X108616888Y-49749000D01*
X108653665Y-49752622D01*
X108653665Y-49752622D01*
G37*
G36*
X113806564Y-47989389D02*
G01*
X113997833Y-48068615D01*
X113997835Y-48068616D01*
X114169973Y-48183635D01*
X114316365Y-48330027D01*
X114407483Y-48466394D01*
X114431385Y-48502167D01*
X114510611Y-48693436D01*
X114551000Y-48896484D01*
X114551000Y-49103516D01*
X114510611Y-49306564D01*
X114431385Y-49497833D01*
X114431384Y-49497835D01*
X114316365Y-49669973D01*
X114169973Y-49816365D01*
X113997835Y-49931384D01*
X113997834Y-49931385D01*
X113997833Y-49931385D01*
X113806564Y-50010611D01*
X113603516Y-50051000D01*
X113396484Y-50051000D01*
X113193436Y-50010611D01*
X113002167Y-49931385D01*
X113002166Y-49931385D01*
X113002165Y-49931384D01*
X112830027Y-49816365D01*
X112683635Y-49669973D01*
X112568616Y-49497835D01*
X112568615Y-49497833D01*
X112489389Y-49306564D01*
X112449000Y-49103516D01*
X112449000Y-48896484D01*
X112489389Y-48693436D01*
X112568615Y-48502167D01*
X112592518Y-48466394D01*
X112683635Y-48330027D01*
X112830027Y-48183635D01*
X113002165Y-48068616D01*
X113002167Y-48068615D01*
X113193436Y-47989389D01*
X113396484Y-47949000D01*
X113603516Y-47949000D01*
X113806564Y-47989389D01*
X113806564Y-47989389D01*
G37*
G36*
X122153665Y-48252622D02*
G01*
X122227222Y-48259867D01*
X122368786Y-48302810D01*
X122499252Y-48372546D01*
X122529040Y-48396992D01*
X122613607Y-48466393D01*
X122683008Y-48550960D01*
X122707454Y-48580748D01*
X122777190Y-48711214D01*
X122820133Y-48852778D01*
X122834633Y-49000000D01*
X122820133Y-49147222D01*
X122777190Y-49288786D01*
X122707454Y-49419252D01*
X122683008Y-49449040D01*
X122613607Y-49533607D01*
X122553004Y-49583341D01*
X122499252Y-49627454D01*
X122368786Y-49697190D01*
X122227222Y-49740133D01*
X122153665Y-49747378D01*
X122116888Y-49751000D01*
X122043112Y-49751000D01*
X122006335Y-49747378D01*
X121932778Y-49740133D01*
X121791214Y-49697190D01*
X121660748Y-49627454D01*
X121606996Y-49583341D01*
X121546393Y-49533607D01*
X121476992Y-49449040D01*
X121452546Y-49419252D01*
X121382810Y-49288786D01*
X121339867Y-49147222D01*
X121325367Y-49000000D01*
X121339867Y-48852778D01*
X121382810Y-48711214D01*
X121452546Y-48580748D01*
X121476992Y-48550960D01*
X121546393Y-48466393D01*
X121630960Y-48396992D01*
X121660748Y-48372546D01*
X121791214Y-48302810D01*
X121932778Y-48259867D01*
X122006335Y-48252622D01*
X122043112Y-48249000D01*
X122116888Y-48249000D01*
X122153665Y-48252622D01*
X122153665Y-48252622D01*
G37*
G36*
X117219059Y-48277860D02*
G01*
X117279294Y-48302810D01*
X117355732Y-48334472D01*
X117478735Y-48416660D01*
X117583340Y-48521265D01*
X117665528Y-48644268D01*
X117665529Y-48644270D01*
X117722140Y-48780941D01*
X117751000Y-48926032D01*
X117751000Y-49073968D01*
X117736429Y-49147220D01*
X117722140Y-49219059D01*
X117665528Y-49355732D01*
X117583340Y-49478735D01*
X117478735Y-49583340D01*
X117355732Y-49665528D01*
X117355731Y-49665529D01*
X117355730Y-49665529D01*
X117219059Y-49722140D01*
X117073968Y-49751000D01*
X116926032Y-49751000D01*
X116780941Y-49722140D01*
X116644270Y-49665529D01*
X116644269Y-49665529D01*
X116644268Y-49665528D01*
X116521265Y-49583340D01*
X116416660Y-49478735D01*
X116334472Y-49355732D01*
X116277860Y-49219059D01*
X116263571Y-49147220D01*
X116249000Y-49073968D01*
X116249000Y-48926032D01*
X116277860Y-48780941D01*
X116334471Y-48644270D01*
X116334472Y-48644268D01*
X116416660Y-48521265D01*
X116521265Y-48416660D01*
X116644268Y-48334472D01*
X116720707Y-48302810D01*
X116780941Y-48277860D01*
X116926032Y-48249000D01*
X117073968Y-48249000D01*
X117219059Y-48277860D01*
X117219059Y-48277860D01*
G37*
G36*
X101248228Y-45181703D02*
G01*
X101403100Y-45245853D01*
X101542481Y-45338985D01*
X101661015Y-45457519D01*
X101754147Y-45596900D01*
X101818297Y-45751772D01*
X101851000Y-45916184D01*
X101851000Y-46083816D01*
X101818297Y-46248228D01*
X101754147Y-46403100D01*
X101661015Y-46542481D01*
X101542481Y-46661015D01*
X101403100Y-46754147D01*
X101248228Y-46818297D01*
X101083816Y-46851000D01*
X100916184Y-46851000D01*
X100751772Y-46818297D01*
X100596900Y-46754147D01*
X100457519Y-46661015D01*
X100338985Y-46542481D01*
X100245853Y-46403100D01*
X100181703Y-46248228D01*
X100149000Y-46083816D01*
X100149000Y-45916184D01*
X100181703Y-45751772D01*
X100245853Y-45596900D01*
X100338985Y-45457519D01*
X100457519Y-45338985D01*
X100596900Y-45245853D01*
X100751772Y-45181703D01*
X100916184Y-45149000D01*
X101083816Y-45149000D01*
X101248228Y-45181703D01*
X101248228Y-45181703D01*
G37*
G36*
X98351000Y-46851000D02*
G01*
X96649000Y-46851000D01*
X96649000Y-45149000D01*
X98351000Y-45149000D01*
X98351000Y-46851000D01*
X98351000Y-46851000D01*
G37*
G36*
X112192847Y-41530493D02*
G01*
X112288335Y-41549487D01*
X112362850Y-41580353D01*
X112468229Y-41624002D01*
X112468230Y-41624003D01*
X112630132Y-41732182D01*
X112767818Y-41869868D01*
X112767819Y-41869870D01*
X112875998Y-42031771D01*
X112950513Y-42211666D01*
X112988500Y-42402640D01*
X112988500Y-42597360D01*
X112950513Y-42788334D01*
X112875998Y-42968229D01*
X112875997Y-42968230D01*
X112767818Y-43130132D01*
X112630132Y-43267818D01*
X112548631Y-43322275D01*
X112468229Y-43375998D01*
X112362850Y-43419647D01*
X112288335Y-43450513D01*
X112192847Y-43469507D01*
X112097360Y-43488500D01*
X111902640Y-43488500D01*
X111807153Y-43469506D01*
X111711665Y-43450513D01*
X111637150Y-43419647D01*
X111531771Y-43375998D01*
X111451369Y-43322275D01*
X111369868Y-43267818D01*
X111232182Y-43130132D01*
X111124003Y-42968230D01*
X111124002Y-42968229D01*
X111049487Y-42788334D01*
X111011500Y-42597360D01*
X111011500Y-42402640D01*
X111049487Y-42211666D01*
X111124002Y-42031771D01*
X111232181Y-41869870D01*
X111232182Y-41869868D01*
X111369868Y-41732182D01*
X111531770Y-41624003D01*
X111531771Y-41624002D01*
X111637150Y-41580353D01*
X111711665Y-41549487D01*
X111807153Y-41530494D01*
X111902640Y-41511500D01*
X112097360Y-41511500D01*
X112192847Y-41530493D01*
X112192847Y-41530493D01*
G37*
G36*
X107988500Y-43488500D02*
G01*
X106011500Y-43488500D01*
X106011500Y-41511500D01*
X107988500Y-41511500D01*
X107988500Y-43488500D01*
X107988500Y-43488500D01*
G37*
G36*
X112192847Y-36530493D02*
G01*
X112288335Y-36549487D01*
X112362850Y-36580353D01*
X112468229Y-36624002D01*
X112468230Y-36624003D01*
X112630132Y-36732182D01*
X112767818Y-36869868D01*
X112767819Y-36869870D01*
X112875998Y-37031771D01*
X112950513Y-37211666D01*
X112988500Y-37402640D01*
X112988500Y-37597360D01*
X112950513Y-37788334D01*
X112875998Y-37968229D01*
X112875997Y-37968230D01*
X112767818Y-38130132D01*
X112630132Y-38267818D01*
X112548631Y-38322275D01*
X112468229Y-38375998D01*
X112362850Y-38419647D01*
X112288335Y-38450513D01*
X112192847Y-38469507D01*
X112097360Y-38488500D01*
X111902640Y-38488500D01*
X111807153Y-38469507D01*
X111711665Y-38450513D01*
X111637150Y-38419647D01*
X111531771Y-38375998D01*
X111451369Y-38322275D01*
X111369868Y-38267818D01*
X111232182Y-38130132D01*
X111124003Y-37968230D01*
X111124002Y-37968229D01*
X111049487Y-37788334D01*
X111011500Y-37597360D01*
X111011500Y-37402640D01*
X111049487Y-37211666D01*
X111124002Y-37031771D01*
X111232181Y-36869870D01*
X111232182Y-36869868D01*
X111369868Y-36732182D01*
X111531770Y-36624003D01*
X111531771Y-36624002D01*
X111637150Y-36580353D01*
X111711665Y-36549487D01*
X111807153Y-36530494D01*
X111902640Y-36511500D01*
X112097360Y-36511500D01*
X112192847Y-36530493D01*
X112192847Y-36530493D01*
G37*
G36*
X107192847Y-36530493D02*
G01*
X107288335Y-36549487D01*
X107362850Y-36580353D01*
X107468229Y-36624002D01*
X107468230Y-36624003D01*
X107630132Y-36732182D01*
X107767818Y-36869868D01*
X107767819Y-36869870D01*
X107875998Y-37031771D01*
X107950513Y-37211666D01*
X107988500Y-37402640D01*
X107988500Y-37597360D01*
X107950513Y-37788334D01*
X107875998Y-37968229D01*
X107875997Y-37968230D01*
X107767818Y-38130132D01*
X107630132Y-38267818D01*
X107548631Y-38322275D01*
X107468229Y-38375998D01*
X107362850Y-38419647D01*
X107288335Y-38450513D01*
X107192847Y-38469507D01*
X107097360Y-38488500D01*
X106902640Y-38488500D01*
X106807153Y-38469507D01*
X106711665Y-38450513D01*
X106637150Y-38419647D01*
X106531771Y-38375998D01*
X106451369Y-38322275D01*
X106369868Y-38267818D01*
X106232182Y-38130132D01*
X106124003Y-37968230D01*
X106124002Y-37968229D01*
X106049487Y-37788334D01*
X106011500Y-37597360D01*
X106011500Y-37402640D01*
X106049487Y-37211666D01*
X106124002Y-37031771D01*
X106232181Y-36869870D01*
X106232182Y-36869868D01*
X106369868Y-36732182D01*
X106531770Y-36624003D01*
X106531771Y-36624002D01*
X106637150Y-36580353D01*
X106711665Y-36549487D01*
X106807153Y-36530494D01*
X106902640Y-36511500D01*
X107097360Y-36511500D01*
X107192847Y-36530493D01*
X107192847Y-36530493D01*
G37*
M02*
