G04 #@! TF.GenerationSoftware,KiCad,Pcbnew,(5.1.4)-1*
G04 #@! TF.CreationDate,2021-06-03T13:54:43-04:00*
G04 #@! TF.ProjectId,coil_power_mod,636f696c-5f70-46f7-9765-725f6d6f642e,rev?*
G04 #@! TF.SameCoordinates,Original*
G04 #@! TF.FileFunction,Legend,Top*
G04 #@! TF.FilePolarity,Positive*
%FSLAX46Y46*%
G04 Gerber Fmt 4.6, Leading zero omitted, Abs format (unit mm)*
G04 Created by KiCad (PCBNEW (5.1.4)-1) date 2021-06-03 13:54:43*
%MOMM*%
%LPD*%
G04 APERTURE LIST*
%ADD10C,0.200000*%
%ADD11C,0.100000*%
%ADD12C,0.120000*%
%ADD13C,0.254000*%
%ADD14C,0.150000*%
%ADD15R,1.152000X2.302000*%
%ADD16R,1.102000X1.152000*%
%ADD17C,2.402000*%
%ADD18C,1.527000*%
%ADD19C,2.102000*%
%ADD20O,1.502000X1.502000*%
%ADD21C,1.502000*%
%ADD22C,0.500000*%
%ADD23C,1.627000*%
%ADD24R,2.102000X2.102000*%
%ADD25C,1.702000*%
%ADD26R,1.702000X1.702000*%
%ADD27R,1.292000X3.652000*%
%ADD28C,2.902000*%
%ADD29C,3.602000*%
%ADD30R,6.452000X5.382000*%
%ADD31R,5.432000X5.692000*%
%ADD32O,1.802000X1.802000*%
%ADD33R,1.802000X1.802000*%
%ADD34C,1.977000*%
%ADD35R,1.977000X1.977000*%
%ADD36C,1.252000*%
G04 APERTURE END LIST*
D10*
X162425000Y-59000000D02*
G75*
G02X162625000Y-59000000I100000J0D01*
G01*
X162625000Y-59000000D02*
G75*
G02X162425000Y-59000000I-100000J0D01*
G01*
X162625000Y-59000000D02*
X162625000Y-59000000D01*
X162425000Y-59000000D02*
X162425000Y-59000000D01*
D11*
X161225000Y-55200000D02*
X163825000Y-55200000D01*
X162540000Y-81540000D02*
X165540000Y-81540000D01*
X162540000Y-74540000D02*
X165540000Y-74540000D01*
X162460000Y-68460000D02*
X165460000Y-68460000D01*
X162460000Y-61460000D02*
X165460000Y-61460000D01*
D12*
X167410000Y-57877064D02*
X167410000Y-56672936D01*
X165590000Y-57877064D02*
X165590000Y-56672936D01*
X128590000Y-65147936D02*
X128590000Y-66352064D01*
X130410000Y-65147936D02*
X130410000Y-66352064D01*
X117500000Y-53000000D02*
G75*
G03X117500000Y-53000000I-1500000J0D01*
G01*
X115000000Y-49000000D02*
G75*
G03X115000000Y-49000000I-1500000J0D01*
G01*
X107880000Y-52080000D02*
X104040000Y-52080000D01*
X107880000Y-53920000D02*
X104040000Y-53920000D01*
X104120000Y-51420000D02*
X107960000Y-51420000D01*
X104120000Y-49580000D02*
X107960000Y-49580000D01*
X117620000Y-49920000D02*
X121460000Y-49920000D01*
X117620000Y-48080000D02*
X121460000Y-48080000D01*
X113000000Y-53200000D02*
X113000000Y-51800000D01*
X113700000Y-51100000D02*
X114300000Y-51100000D01*
X115000000Y-51800000D02*
X115000000Y-53200000D01*
X114300000Y-53900000D02*
X113700000Y-53900000D01*
X113700000Y-53900000D02*
G75*
G02X113000000Y-53200000I0J700000D01*
G01*
X115000000Y-53200000D02*
G75*
G02X114300000Y-53900000I-700000J0D01*
G01*
X114300000Y-51100000D02*
G75*
G02X115000000Y-51800000I0J-700000D01*
G01*
X113000000Y-51800000D02*
G75*
G02X113700000Y-51100000I700000J0D01*
G01*
X145420000Y-68880000D02*
X145420000Y-65040000D01*
X143580000Y-68880000D02*
X143580000Y-65040000D01*
X145210000Y-69052064D02*
X145210000Y-64947936D01*
X141790000Y-69052064D02*
X141790000Y-64947936D01*
X157979646Y-79375000D02*
X157979646Y-78375000D01*
X158479646Y-78875000D02*
X157479646Y-78875000D01*
X147919000Y-76599000D02*
X147919000Y-75401000D01*
X147959000Y-76862000D02*
X147959000Y-75138000D01*
X147999000Y-77062000D02*
X147999000Y-74938000D01*
X148039000Y-77230000D02*
X148039000Y-74770000D01*
X148079000Y-77378000D02*
X148079000Y-74622000D01*
X148119000Y-77510000D02*
X148119000Y-74490000D01*
X148159000Y-77630000D02*
X148159000Y-74370000D01*
X148199000Y-77742000D02*
X148199000Y-74258000D01*
X148239000Y-77846000D02*
X148239000Y-74154000D01*
X148279000Y-77944000D02*
X148279000Y-74056000D01*
X148319000Y-78037000D02*
X148319000Y-73963000D01*
X148359000Y-78125000D02*
X148359000Y-73875000D01*
X148399000Y-78209000D02*
X148399000Y-73791000D01*
X148439000Y-78289000D02*
X148439000Y-73711000D01*
X148479000Y-78365000D02*
X148479000Y-73635000D01*
X148519000Y-78439000D02*
X148519000Y-73561000D01*
X148559000Y-78510000D02*
X148559000Y-73490000D01*
X148599000Y-78579000D02*
X148599000Y-75240000D01*
X148639000Y-78645000D02*
X148639000Y-75240000D01*
X148679000Y-78709000D02*
X148679000Y-75240000D01*
X148719000Y-78770000D02*
X148719000Y-75240000D01*
X148759000Y-78830000D02*
X148759000Y-75240000D01*
X148799000Y-78889000D02*
X148799000Y-75240000D01*
X148839000Y-78945000D02*
X148839000Y-75240000D01*
X148879000Y-79000000D02*
X148879000Y-75240000D01*
X148919000Y-79054000D02*
X148919000Y-75240000D01*
X148959000Y-79106000D02*
X148959000Y-75240000D01*
X148999000Y-79156000D02*
X148999000Y-75240000D01*
X149039000Y-79206000D02*
X149039000Y-75240000D01*
X149079000Y-72760000D02*
X149079000Y-72746000D01*
X149079000Y-79254000D02*
X149079000Y-75240000D01*
X149119000Y-72760000D02*
X149119000Y-72699000D01*
X149119000Y-79301000D02*
X149119000Y-75240000D01*
X149159000Y-72760000D02*
X149159000Y-72653000D01*
X149159000Y-79347000D02*
X149159000Y-75240000D01*
X149199000Y-72760000D02*
X149199000Y-72608000D01*
X149199000Y-79392000D02*
X149199000Y-75240000D01*
X149239000Y-72760000D02*
X149239000Y-72564000D01*
X149239000Y-79436000D02*
X149239000Y-75240000D01*
X149279000Y-72760000D02*
X149279000Y-72522000D01*
X149279000Y-79478000D02*
X149279000Y-77241000D01*
X149319000Y-72760000D02*
X149319000Y-72480000D01*
X149319000Y-79520000D02*
X149319000Y-77241000D01*
X149359000Y-72760000D02*
X149359000Y-72439000D01*
X149359000Y-79561000D02*
X149359000Y-77241000D01*
X149399000Y-72760000D02*
X149399000Y-72399000D01*
X149399000Y-79601000D02*
X149399000Y-77241000D01*
X149439000Y-72760000D02*
X149439000Y-72360000D01*
X149439000Y-79640000D02*
X149439000Y-77241000D01*
X149479000Y-72760000D02*
X149479000Y-72321000D01*
X149479000Y-79679000D02*
X149479000Y-77241000D01*
X149519000Y-72760000D02*
X149519000Y-72284000D01*
X149519000Y-79716000D02*
X149519000Y-77241000D01*
X149559000Y-72760000D02*
X149559000Y-72247000D01*
X149559000Y-79753000D02*
X149559000Y-77241000D01*
X149599000Y-72760000D02*
X149599000Y-72211000D01*
X149599000Y-79789000D02*
X149599000Y-77241000D01*
X149639000Y-72760000D02*
X149639000Y-72176000D01*
X149639000Y-79824000D02*
X149639000Y-77241000D01*
X149679000Y-72760000D02*
X149679000Y-72142000D01*
X149679000Y-79858000D02*
X149679000Y-77241000D01*
X149719000Y-72760000D02*
X149719000Y-72108000D01*
X149719000Y-79892000D02*
X149719000Y-77241000D01*
X149759000Y-72760000D02*
X149759000Y-72075000D01*
X149759000Y-79925000D02*
X149759000Y-77241000D01*
X149799000Y-72760000D02*
X149799000Y-72043000D01*
X149799000Y-79957000D02*
X149799000Y-77241000D01*
X149839000Y-72760000D02*
X149839000Y-72011000D01*
X149839000Y-79989000D02*
X149839000Y-77241000D01*
X149879000Y-72760000D02*
X149879000Y-71980000D01*
X149879000Y-80020000D02*
X149879000Y-77241000D01*
X149919000Y-72760000D02*
X149919000Y-71950000D01*
X149919000Y-80050000D02*
X149919000Y-77241000D01*
X149959000Y-72760000D02*
X149959000Y-71920000D01*
X149959000Y-80080000D02*
X149959000Y-77241000D01*
X149999000Y-72760000D02*
X149999000Y-71890000D01*
X149999000Y-80110000D02*
X149999000Y-77241000D01*
X150039000Y-72760000D02*
X150039000Y-71862000D01*
X150039000Y-80138000D02*
X150039000Y-77241000D01*
X150079000Y-72760000D02*
X150079000Y-71834000D01*
X150079000Y-80166000D02*
X150079000Y-77241000D01*
X150119000Y-72760000D02*
X150119000Y-71806000D01*
X150119000Y-80194000D02*
X150119000Y-77241000D01*
X150159000Y-72760000D02*
X150159000Y-71779000D01*
X150159000Y-80221000D02*
X150159000Y-77241000D01*
X150199000Y-72760000D02*
X150199000Y-71753000D01*
X150199000Y-80247000D02*
X150199000Y-77241000D01*
X150239000Y-72760000D02*
X150239000Y-71727000D01*
X150239000Y-80273000D02*
X150239000Y-77241000D01*
X150279000Y-72760000D02*
X150279000Y-71702000D01*
X150279000Y-80298000D02*
X150279000Y-77241000D01*
X150319000Y-72760000D02*
X150319000Y-71677000D01*
X150319000Y-80323000D02*
X150319000Y-77241000D01*
X150359000Y-72760000D02*
X150359000Y-71653000D01*
X150359000Y-80347000D02*
X150359000Y-77241000D01*
X150399000Y-72760000D02*
X150399000Y-71629000D01*
X150399000Y-80371000D02*
X150399000Y-77241000D01*
X150439000Y-72760000D02*
X150439000Y-71605000D01*
X150439000Y-80395000D02*
X150439000Y-77241000D01*
X150479000Y-72760000D02*
X150479000Y-71583000D01*
X150479000Y-80417000D02*
X150479000Y-77241000D01*
X150519000Y-72760000D02*
X150519000Y-71560000D01*
X150519000Y-80440000D02*
X150519000Y-77241000D01*
X150559000Y-72760000D02*
X150559000Y-71538000D01*
X150559000Y-80462000D02*
X150559000Y-77241000D01*
X150599000Y-72760000D02*
X150599000Y-71517000D01*
X150599000Y-80483000D02*
X150599000Y-77241000D01*
X150639000Y-72760000D02*
X150639000Y-71496000D01*
X150639000Y-80504000D02*
X150639000Y-77241000D01*
X150679000Y-72760000D02*
X150679000Y-71475000D01*
X150679000Y-80525000D02*
X150679000Y-77241000D01*
X150719000Y-72760000D02*
X150719000Y-71455000D01*
X150719000Y-80545000D02*
X150719000Y-77241000D01*
X150759000Y-72760000D02*
X150759000Y-71436000D01*
X150759000Y-80564000D02*
X150759000Y-77241000D01*
X150799000Y-72760000D02*
X150799000Y-71416000D01*
X150799000Y-80584000D02*
X150799000Y-77241000D01*
X150839000Y-72760000D02*
X150839000Y-71397000D01*
X150839000Y-80603000D02*
X150839000Y-77241000D01*
X150879000Y-72760000D02*
X150879000Y-71379000D01*
X150879000Y-80621000D02*
X150879000Y-77241000D01*
X150919000Y-72760000D02*
X150919000Y-71361000D01*
X150919000Y-80639000D02*
X150919000Y-77241000D01*
X150959000Y-72760000D02*
X150959000Y-71343000D01*
X150959000Y-80657000D02*
X150959000Y-77241000D01*
X150999000Y-72760000D02*
X150999000Y-71326000D01*
X150999000Y-80674000D02*
X150999000Y-77241000D01*
X151039000Y-72760000D02*
X151039000Y-71310000D01*
X151039000Y-80690000D02*
X151039000Y-77241000D01*
X151079000Y-74759000D02*
X151079000Y-71293000D01*
X151079000Y-80707000D02*
X151079000Y-77241000D01*
X151119000Y-74759000D02*
X151119000Y-71277000D01*
X151119000Y-80723000D02*
X151119000Y-77241000D01*
X151159000Y-74759000D02*
X151159000Y-71262000D01*
X151159000Y-80738000D02*
X151159000Y-77241000D01*
X151199000Y-74759000D02*
X151199000Y-71246000D01*
X151199000Y-80754000D02*
X151199000Y-77241000D01*
X151239000Y-74759000D02*
X151239000Y-71232000D01*
X151239000Y-80768000D02*
X151239000Y-77241000D01*
X151279000Y-74759000D02*
X151279000Y-71217000D01*
X151279000Y-80783000D02*
X151279000Y-77241000D01*
X151319000Y-74759000D02*
X151319000Y-71203000D01*
X151319000Y-80797000D02*
X151319000Y-77241000D01*
X151359000Y-74759000D02*
X151359000Y-71189000D01*
X151359000Y-80811000D02*
X151359000Y-77241000D01*
X151399000Y-74759000D02*
X151399000Y-71176000D01*
X151399000Y-80824000D02*
X151399000Y-77241000D01*
X151439000Y-74759000D02*
X151439000Y-71163000D01*
X151439000Y-80837000D02*
X151439000Y-77241000D01*
X151479000Y-74759000D02*
X151479000Y-71150000D01*
X151479000Y-80850000D02*
X151479000Y-77241000D01*
X151519000Y-74759000D02*
X151519000Y-71138000D01*
X151519000Y-80862000D02*
X151519000Y-77241000D01*
X151559000Y-74759000D02*
X151559000Y-71126000D01*
X151559000Y-80874000D02*
X151559000Y-77241000D01*
X151599000Y-74759000D02*
X151599000Y-71115000D01*
X151599000Y-80885000D02*
X151599000Y-77241000D01*
X151639000Y-74759000D02*
X151639000Y-71103000D01*
X151639000Y-80897000D02*
X151639000Y-77241000D01*
X151679000Y-74759000D02*
X151679000Y-71093000D01*
X151679000Y-80907000D02*
X151679000Y-77241000D01*
X151719000Y-74759000D02*
X151719000Y-71082000D01*
X151719000Y-80918000D02*
X151719000Y-77241000D01*
X151759000Y-80928000D02*
X151759000Y-71072000D01*
X151799000Y-80938000D02*
X151799000Y-71062000D01*
X151839000Y-80947000D02*
X151839000Y-71053000D01*
X151879000Y-80956000D02*
X151879000Y-71044000D01*
X151919000Y-80965000D02*
X151919000Y-71035000D01*
X151959000Y-80974000D02*
X151959000Y-71026000D01*
X151999000Y-80982000D02*
X151999000Y-71018000D01*
X152039000Y-80990000D02*
X152039000Y-71010000D01*
X152079000Y-80997000D02*
X152079000Y-71003000D01*
X152119000Y-81004000D02*
X152119000Y-70996000D01*
X152159000Y-81011000D02*
X152159000Y-70989000D01*
X152199000Y-81018000D02*
X152199000Y-70982000D01*
X152239000Y-81024000D02*
X152239000Y-70976000D01*
X152279000Y-81030000D02*
X152279000Y-70970000D01*
X152320000Y-81035000D02*
X152320000Y-70965000D01*
X152360000Y-81040000D02*
X152360000Y-70960000D01*
X152400000Y-81045000D02*
X152400000Y-70955000D01*
X152440000Y-81050000D02*
X152440000Y-70950000D01*
X152480000Y-81054000D02*
X152480000Y-70946000D01*
X152520000Y-81058000D02*
X152520000Y-70942000D01*
X152560000Y-81062000D02*
X152560000Y-70938000D01*
X152600000Y-81065000D02*
X152600000Y-70935000D01*
X152640000Y-81068000D02*
X152640000Y-70932000D01*
X152680000Y-81070000D02*
X152680000Y-70930000D01*
X152720000Y-81073000D02*
X152720000Y-70927000D01*
X152760000Y-81075000D02*
X152760000Y-70925000D01*
X152800000Y-81077000D02*
X152800000Y-70923000D01*
X152840000Y-81078000D02*
X152840000Y-70922000D01*
X152880000Y-81079000D02*
X152880000Y-70921000D01*
X152920000Y-81080000D02*
X152920000Y-70920000D01*
X152960000Y-81080000D02*
X152960000Y-70920000D01*
X153000000Y-81080000D02*
X153000000Y-70920000D01*
X157824904Y-77713098D02*
G75*
G03X156948012Y-79260000I-4824904J1713098D01*
G01*
X95240302Y-43285000D02*
X95240302Y-44085000D01*
X94840302Y-43685000D02*
X95640302Y-43685000D01*
X103331000Y-45467000D02*
X103331000Y-46533000D01*
X103291000Y-45232000D02*
X103291000Y-46768000D01*
X103251000Y-45052000D02*
X103251000Y-46948000D01*
X103211000Y-44902000D02*
X103211000Y-47098000D01*
X103171000Y-44771000D02*
X103171000Y-47229000D01*
X103131000Y-44654000D02*
X103131000Y-47346000D01*
X103091000Y-44547000D02*
X103091000Y-47453000D01*
X103051000Y-44448000D02*
X103051000Y-47552000D01*
X103011000Y-44355000D02*
X103011000Y-47645000D01*
X102971000Y-44269000D02*
X102971000Y-47731000D01*
X102931000Y-44187000D02*
X102931000Y-47813000D01*
X102891000Y-44110000D02*
X102891000Y-47890000D01*
X102851000Y-44036000D02*
X102851000Y-47964000D01*
X102811000Y-43966000D02*
X102811000Y-48034000D01*
X102771000Y-43898000D02*
X102771000Y-48102000D01*
X102731000Y-43834000D02*
X102731000Y-48166000D01*
X102691000Y-43772000D02*
X102691000Y-48228000D01*
X102651000Y-43713000D02*
X102651000Y-48287000D01*
X102611000Y-43655000D02*
X102611000Y-48345000D01*
X102571000Y-43600000D02*
X102571000Y-48400000D01*
X102531000Y-43546000D02*
X102531000Y-48454000D01*
X102491000Y-43495000D02*
X102491000Y-48505000D01*
X102451000Y-43444000D02*
X102451000Y-48556000D01*
X102411000Y-43396000D02*
X102411000Y-48604000D01*
X102371000Y-43349000D02*
X102371000Y-48651000D01*
X102331000Y-43303000D02*
X102331000Y-48697000D01*
X102291000Y-43259000D02*
X102291000Y-48741000D01*
X102251000Y-43216000D02*
X102251000Y-48784000D01*
X102211000Y-43174000D02*
X102211000Y-48826000D01*
X102171000Y-43133000D02*
X102171000Y-48867000D01*
X102131000Y-43093000D02*
X102131000Y-48907000D01*
X102091000Y-43055000D02*
X102091000Y-48945000D01*
X102051000Y-43017000D02*
X102051000Y-48983000D01*
X102011000Y-47040000D02*
X102011000Y-49019000D01*
X102011000Y-42981000D02*
X102011000Y-44960000D01*
X101971000Y-47040000D02*
X101971000Y-49055000D01*
X101971000Y-42945000D02*
X101971000Y-44960000D01*
X101931000Y-47040000D02*
X101931000Y-49090000D01*
X101931000Y-42910000D02*
X101931000Y-44960000D01*
X101891000Y-47040000D02*
X101891000Y-49124000D01*
X101891000Y-42876000D02*
X101891000Y-44960000D01*
X101851000Y-47040000D02*
X101851000Y-49156000D01*
X101851000Y-42844000D02*
X101851000Y-44960000D01*
X101811000Y-47040000D02*
X101811000Y-49189000D01*
X101811000Y-42811000D02*
X101811000Y-44960000D01*
X101771000Y-47040000D02*
X101771000Y-49220000D01*
X101771000Y-42780000D02*
X101771000Y-44960000D01*
X101731000Y-47040000D02*
X101731000Y-49250000D01*
X101731000Y-42750000D02*
X101731000Y-44960000D01*
X101691000Y-47040000D02*
X101691000Y-49280000D01*
X101691000Y-42720000D02*
X101691000Y-44960000D01*
X101651000Y-47040000D02*
X101651000Y-49309000D01*
X101651000Y-42691000D02*
X101651000Y-44960000D01*
X101611000Y-47040000D02*
X101611000Y-49338000D01*
X101611000Y-42662000D02*
X101611000Y-44960000D01*
X101571000Y-47040000D02*
X101571000Y-49365000D01*
X101571000Y-42635000D02*
X101571000Y-44960000D01*
X101531000Y-47040000D02*
X101531000Y-49392000D01*
X101531000Y-42608000D02*
X101531000Y-44960000D01*
X101491000Y-47040000D02*
X101491000Y-49418000D01*
X101491000Y-42582000D02*
X101491000Y-44960000D01*
X101451000Y-47040000D02*
X101451000Y-49444000D01*
X101451000Y-42556000D02*
X101451000Y-44960000D01*
X101411000Y-47040000D02*
X101411000Y-49469000D01*
X101411000Y-42531000D02*
X101411000Y-44960000D01*
X101371000Y-47040000D02*
X101371000Y-49493000D01*
X101371000Y-42507000D02*
X101371000Y-44960000D01*
X101331000Y-47040000D02*
X101331000Y-49517000D01*
X101331000Y-42483000D02*
X101331000Y-44960000D01*
X101291000Y-47040000D02*
X101291000Y-49540000D01*
X101291000Y-42460000D02*
X101291000Y-44960000D01*
X101251000Y-47040000D02*
X101251000Y-49562000D01*
X101251000Y-42438000D02*
X101251000Y-44960000D01*
X101211000Y-47040000D02*
X101211000Y-49584000D01*
X101211000Y-42416000D02*
X101211000Y-44960000D01*
X101171000Y-47040000D02*
X101171000Y-49606000D01*
X101171000Y-42394000D02*
X101171000Y-44960000D01*
X101131000Y-47040000D02*
X101131000Y-49627000D01*
X101131000Y-42373000D02*
X101131000Y-44960000D01*
X101091000Y-47040000D02*
X101091000Y-49647000D01*
X101091000Y-42353000D02*
X101091000Y-44960000D01*
X101051000Y-47040000D02*
X101051000Y-49666000D01*
X101051000Y-42334000D02*
X101051000Y-44960000D01*
X101011000Y-47040000D02*
X101011000Y-49686000D01*
X101011000Y-42314000D02*
X101011000Y-44960000D01*
X100971000Y-47040000D02*
X100971000Y-49704000D01*
X100971000Y-42296000D02*
X100971000Y-44960000D01*
X100931000Y-47040000D02*
X100931000Y-49722000D01*
X100931000Y-42278000D02*
X100931000Y-44960000D01*
X100891000Y-47040000D02*
X100891000Y-49740000D01*
X100891000Y-42260000D02*
X100891000Y-44960000D01*
X100851000Y-47040000D02*
X100851000Y-49757000D01*
X100851000Y-42243000D02*
X100851000Y-44960000D01*
X100811000Y-47040000D02*
X100811000Y-49774000D01*
X100811000Y-42226000D02*
X100811000Y-44960000D01*
X100771000Y-47040000D02*
X100771000Y-49790000D01*
X100771000Y-42210000D02*
X100771000Y-44960000D01*
X100731000Y-47040000D02*
X100731000Y-49805000D01*
X100731000Y-42195000D02*
X100731000Y-44960000D01*
X100691000Y-47040000D02*
X100691000Y-49821000D01*
X100691000Y-42179000D02*
X100691000Y-44960000D01*
X100651000Y-47040000D02*
X100651000Y-49835000D01*
X100651000Y-42165000D02*
X100651000Y-44960000D01*
X100611000Y-47040000D02*
X100611000Y-49850000D01*
X100611000Y-42150000D02*
X100611000Y-44960000D01*
X100571000Y-47040000D02*
X100571000Y-49863000D01*
X100571000Y-42137000D02*
X100571000Y-44960000D01*
X100531000Y-47040000D02*
X100531000Y-49877000D01*
X100531000Y-42123000D02*
X100531000Y-44960000D01*
X100491000Y-47040000D02*
X100491000Y-49889000D01*
X100491000Y-42111000D02*
X100491000Y-44960000D01*
X100451000Y-47040000D02*
X100451000Y-49902000D01*
X100451000Y-42098000D02*
X100451000Y-44960000D01*
X100411000Y-47040000D02*
X100411000Y-49914000D01*
X100411000Y-42086000D02*
X100411000Y-44960000D01*
X100371000Y-47040000D02*
X100371000Y-49925000D01*
X100371000Y-42075000D02*
X100371000Y-44960000D01*
X100331000Y-47040000D02*
X100331000Y-49936000D01*
X100331000Y-42064000D02*
X100331000Y-44960000D01*
X100291000Y-47040000D02*
X100291000Y-49947000D01*
X100291000Y-42053000D02*
X100291000Y-44960000D01*
X100251000Y-47040000D02*
X100251000Y-49957000D01*
X100251000Y-42043000D02*
X100251000Y-44960000D01*
X100211000Y-47040000D02*
X100211000Y-49967000D01*
X100211000Y-42033000D02*
X100211000Y-44960000D01*
X100171000Y-47040000D02*
X100171000Y-49976000D01*
X100171000Y-42024000D02*
X100171000Y-44960000D01*
X100131000Y-47040000D02*
X100131000Y-49985000D01*
X100131000Y-42015000D02*
X100131000Y-44960000D01*
X100091000Y-47040000D02*
X100091000Y-49994000D01*
X100091000Y-42006000D02*
X100091000Y-44960000D01*
X100051000Y-47040000D02*
X100051000Y-50002000D01*
X100051000Y-41998000D02*
X100051000Y-44960000D01*
X100011000Y-47040000D02*
X100011000Y-50010000D01*
X100011000Y-41990000D02*
X100011000Y-44960000D01*
X99971000Y-47040000D02*
X99971000Y-50017000D01*
X99971000Y-41983000D02*
X99971000Y-44960000D01*
X99930000Y-41976000D02*
X99930000Y-50024000D01*
X99890000Y-41970000D02*
X99890000Y-50030000D01*
X99850000Y-41963000D02*
X99850000Y-50037000D01*
X99810000Y-41958000D02*
X99810000Y-50042000D01*
X99770000Y-41952000D02*
X99770000Y-50048000D01*
X99730000Y-41948000D02*
X99730000Y-50052000D01*
X99690000Y-41943000D02*
X99690000Y-50057000D01*
X99650000Y-41939000D02*
X99650000Y-50061000D01*
X99610000Y-41935000D02*
X99610000Y-50065000D01*
X99570000Y-41932000D02*
X99570000Y-50068000D01*
X99530000Y-41929000D02*
X99530000Y-50071000D01*
X99490000Y-41926000D02*
X99490000Y-50074000D01*
X99450000Y-41924000D02*
X99450000Y-50076000D01*
X99410000Y-41923000D02*
X99410000Y-50077000D01*
X99370000Y-41921000D02*
X99370000Y-50079000D01*
X99330000Y-41920000D02*
X99330000Y-50080000D01*
X99290000Y-41920000D02*
X99290000Y-50080000D01*
X99250000Y-41920000D02*
X99250000Y-50080000D01*
X103370000Y-46000000D02*
G75*
G03X103370000Y-46000000I-4120000J0D01*
G01*
D11*
X130900000Y-81200000D02*
G75*
G02X131000000Y-81200000I50000J0D01*
G01*
X131000000Y-81200000D02*
G75*
G02X130900000Y-81200000I-50000J0D01*
G01*
X131000000Y-81200000D02*
X131000000Y-81200000D01*
X130900000Y-81200000D02*
X130900000Y-81200000D01*
X133500000Y-79520000D02*
X135140000Y-79520000D01*
X133500000Y-79520000D02*
X131884000Y-79520000D01*
X130145000Y-72480000D02*
X132560000Y-72480000D01*
X136855000Y-72480000D02*
X134401000Y-72480000D01*
X136855000Y-72480000D02*
X136855000Y-79520000D01*
X130145000Y-79520000D02*
X130145000Y-72480000D01*
D10*
X94135000Y-59205000D02*
G75*
G02X94035000Y-59205000I-50000J0D01*
G01*
X94035000Y-59205000D02*
G75*
G02X94135000Y-59205000I50000J0D01*
G01*
X94135000Y-59205000D02*
G75*
G02X94035000Y-59205000I-50000J0D01*
G01*
X94035000Y-59205000D02*
X94035000Y-59205000D01*
X94135000Y-59205000D02*
X94135000Y-59205000D01*
X94035000Y-59205000D02*
X94035000Y-59205000D01*
D11*
X94685000Y-55405000D02*
X94685000Y-78305000D01*
X127685000Y-55405000D02*
X94685000Y-55405000D01*
X127685000Y-78305000D02*
X127685000Y-55405000D01*
X94685000Y-78305000D02*
X127685000Y-78305000D01*
D10*
X138900000Y-59460000D02*
G75*
G03X139100000Y-59460000I100000J0D01*
G01*
X139100000Y-59460000D02*
G75*
G03X138900000Y-59460000I-100000J0D01*
G01*
X139100000Y-59460000D02*
X139100000Y-59460000D01*
X138900000Y-59460000D02*
X138900000Y-59460000D01*
D11*
X157950000Y-53360000D02*
X154160000Y-53360000D01*
X157950000Y-33560000D02*
X157950000Y-53360000D01*
X149075000Y-33560000D02*
X157950000Y-33560000D01*
X130050000Y-33560000D02*
X138920000Y-33560000D01*
X130050000Y-53365000D02*
X130050000Y-33560000D01*
X133840000Y-53360000D02*
X130050000Y-53365000D01*
D12*
X123870000Y-79920000D02*
X123870000Y-81250000D01*
X122540000Y-79920000D02*
X123870000Y-79920000D01*
X121270000Y-79920000D02*
X121270000Y-82580000D01*
X121270000Y-82580000D02*
X113590000Y-82580000D01*
X121270000Y-79920000D02*
X113590000Y-79920000D01*
X113590000Y-79920000D02*
X113590000Y-82580000D01*
D10*
X103850000Y-31670000D02*
X103850000Y-42500000D01*
X114850000Y-31670000D02*
X103850000Y-31670000D01*
X114850000Y-47500000D02*
X114850000Y-31670000D01*
X107000000Y-47500000D02*
X114850000Y-47500000D01*
D12*
X118540000Y-53135000D02*
X122600000Y-53135000D01*
X118540000Y-50865000D02*
X118540000Y-53135000D01*
X122600000Y-50865000D02*
X118540000Y-50865000D01*
X162213748Y-72210000D02*
X162736252Y-72210000D01*
X162213748Y-70790000D02*
X162736252Y-70790000D01*
X156759698Y-68215000D02*
X156759698Y-67415000D01*
X157159698Y-67815000D02*
X156359698Y-67815000D01*
X148669000Y-66033000D02*
X148669000Y-64967000D01*
X148709000Y-66268000D02*
X148709000Y-64732000D01*
X148749000Y-66448000D02*
X148749000Y-64552000D01*
X148789000Y-66598000D02*
X148789000Y-64402000D01*
X148829000Y-66729000D02*
X148829000Y-64271000D01*
X148869000Y-66846000D02*
X148869000Y-64154000D01*
X148909000Y-66953000D02*
X148909000Y-64047000D01*
X148949000Y-67052000D02*
X148949000Y-63948000D01*
X148989000Y-67145000D02*
X148989000Y-63855000D01*
X149029000Y-67231000D02*
X149029000Y-63769000D01*
X149069000Y-67313000D02*
X149069000Y-63687000D01*
X149109000Y-67390000D02*
X149109000Y-63610000D01*
X149149000Y-67464000D02*
X149149000Y-63536000D01*
X149189000Y-67534000D02*
X149189000Y-63466000D01*
X149229000Y-67602000D02*
X149229000Y-63398000D01*
X149269000Y-67666000D02*
X149269000Y-63334000D01*
X149309000Y-67728000D02*
X149309000Y-63272000D01*
X149349000Y-67787000D02*
X149349000Y-63213000D01*
X149389000Y-67845000D02*
X149389000Y-63155000D01*
X149429000Y-67900000D02*
X149429000Y-63100000D01*
X149469000Y-67954000D02*
X149469000Y-63046000D01*
X149509000Y-68005000D02*
X149509000Y-62995000D01*
X149549000Y-68056000D02*
X149549000Y-62944000D01*
X149589000Y-68104000D02*
X149589000Y-62896000D01*
X149629000Y-68151000D02*
X149629000Y-62849000D01*
X149669000Y-68197000D02*
X149669000Y-62803000D01*
X149709000Y-68241000D02*
X149709000Y-62759000D01*
X149749000Y-68284000D02*
X149749000Y-62716000D01*
X149789000Y-68326000D02*
X149789000Y-62674000D01*
X149829000Y-68367000D02*
X149829000Y-62633000D01*
X149869000Y-68407000D02*
X149869000Y-62593000D01*
X149909000Y-68445000D02*
X149909000Y-62555000D01*
X149949000Y-68483000D02*
X149949000Y-62517000D01*
X149989000Y-64460000D02*
X149989000Y-62481000D01*
X149989000Y-68519000D02*
X149989000Y-66540000D01*
X150029000Y-64460000D02*
X150029000Y-62445000D01*
X150029000Y-68555000D02*
X150029000Y-66540000D01*
X150069000Y-64460000D02*
X150069000Y-62410000D01*
X150069000Y-68590000D02*
X150069000Y-66540000D01*
X150109000Y-64460000D02*
X150109000Y-62376000D01*
X150109000Y-68624000D02*
X150109000Y-66540000D01*
X150149000Y-64460000D02*
X150149000Y-62344000D01*
X150149000Y-68656000D02*
X150149000Y-66540000D01*
X150189000Y-64460000D02*
X150189000Y-62311000D01*
X150189000Y-68689000D02*
X150189000Y-66540000D01*
X150229000Y-64460000D02*
X150229000Y-62280000D01*
X150229000Y-68720000D02*
X150229000Y-66540000D01*
X150269000Y-64460000D02*
X150269000Y-62250000D01*
X150269000Y-68750000D02*
X150269000Y-66540000D01*
X150309000Y-64460000D02*
X150309000Y-62220000D01*
X150309000Y-68780000D02*
X150309000Y-66540000D01*
X150349000Y-64460000D02*
X150349000Y-62191000D01*
X150349000Y-68809000D02*
X150349000Y-66540000D01*
X150389000Y-64460000D02*
X150389000Y-62162000D01*
X150389000Y-68838000D02*
X150389000Y-66540000D01*
X150429000Y-64460000D02*
X150429000Y-62135000D01*
X150429000Y-68865000D02*
X150429000Y-66540000D01*
X150469000Y-64460000D02*
X150469000Y-62108000D01*
X150469000Y-68892000D02*
X150469000Y-66540000D01*
X150509000Y-64460000D02*
X150509000Y-62082000D01*
X150509000Y-68918000D02*
X150509000Y-66540000D01*
X150549000Y-64460000D02*
X150549000Y-62056000D01*
X150549000Y-68944000D02*
X150549000Y-66540000D01*
X150589000Y-64460000D02*
X150589000Y-62031000D01*
X150589000Y-68969000D02*
X150589000Y-66540000D01*
X150629000Y-64460000D02*
X150629000Y-62007000D01*
X150629000Y-68993000D02*
X150629000Y-66540000D01*
X150669000Y-64460000D02*
X150669000Y-61983000D01*
X150669000Y-69017000D02*
X150669000Y-66540000D01*
X150709000Y-64460000D02*
X150709000Y-61960000D01*
X150709000Y-69040000D02*
X150709000Y-66540000D01*
X150749000Y-64460000D02*
X150749000Y-61938000D01*
X150749000Y-69062000D02*
X150749000Y-66540000D01*
X150789000Y-64460000D02*
X150789000Y-61916000D01*
X150789000Y-69084000D02*
X150789000Y-66540000D01*
X150829000Y-64460000D02*
X150829000Y-61894000D01*
X150829000Y-69106000D02*
X150829000Y-66540000D01*
X150869000Y-64460000D02*
X150869000Y-61873000D01*
X150869000Y-69127000D02*
X150869000Y-66540000D01*
X150909000Y-64460000D02*
X150909000Y-61853000D01*
X150909000Y-69147000D02*
X150909000Y-66540000D01*
X150949000Y-64460000D02*
X150949000Y-61834000D01*
X150949000Y-69166000D02*
X150949000Y-66540000D01*
X150989000Y-64460000D02*
X150989000Y-61814000D01*
X150989000Y-69186000D02*
X150989000Y-66540000D01*
X151029000Y-64460000D02*
X151029000Y-61796000D01*
X151029000Y-69204000D02*
X151029000Y-66540000D01*
X151069000Y-64460000D02*
X151069000Y-61778000D01*
X151069000Y-69222000D02*
X151069000Y-66540000D01*
X151109000Y-64460000D02*
X151109000Y-61760000D01*
X151109000Y-69240000D02*
X151109000Y-66540000D01*
X151149000Y-64460000D02*
X151149000Y-61743000D01*
X151149000Y-69257000D02*
X151149000Y-66540000D01*
X151189000Y-64460000D02*
X151189000Y-61726000D01*
X151189000Y-69274000D02*
X151189000Y-66540000D01*
X151229000Y-64460000D02*
X151229000Y-61710000D01*
X151229000Y-69290000D02*
X151229000Y-66540000D01*
X151269000Y-64460000D02*
X151269000Y-61695000D01*
X151269000Y-69305000D02*
X151269000Y-66540000D01*
X151309000Y-64460000D02*
X151309000Y-61679000D01*
X151309000Y-69321000D02*
X151309000Y-66540000D01*
X151349000Y-64460000D02*
X151349000Y-61665000D01*
X151349000Y-69335000D02*
X151349000Y-66540000D01*
X151389000Y-64460000D02*
X151389000Y-61650000D01*
X151389000Y-69350000D02*
X151389000Y-66540000D01*
X151429000Y-64460000D02*
X151429000Y-61637000D01*
X151429000Y-69363000D02*
X151429000Y-66540000D01*
X151469000Y-64460000D02*
X151469000Y-61623000D01*
X151469000Y-69377000D02*
X151469000Y-66540000D01*
X151509000Y-64460000D02*
X151509000Y-61611000D01*
X151509000Y-69389000D02*
X151509000Y-66540000D01*
X151549000Y-64460000D02*
X151549000Y-61598000D01*
X151549000Y-69402000D02*
X151549000Y-66540000D01*
X151589000Y-64460000D02*
X151589000Y-61586000D01*
X151589000Y-69414000D02*
X151589000Y-66540000D01*
X151629000Y-64460000D02*
X151629000Y-61575000D01*
X151629000Y-69425000D02*
X151629000Y-66540000D01*
X151669000Y-64460000D02*
X151669000Y-61564000D01*
X151669000Y-69436000D02*
X151669000Y-66540000D01*
X151709000Y-64460000D02*
X151709000Y-61553000D01*
X151709000Y-69447000D02*
X151709000Y-66540000D01*
X151749000Y-64460000D02*
X151749000Y-61543000D01*
X151749000Y-69457000D02*
X151749000Y-66540000D01*
X151789000Y-64460000D02*
X151789000Y-61533000D01*
X151789000Y-69467000D02*
X151789000Y-66540000D01*
X151829000Y-64460000D02*
X151829000Y-61524000D01*
X151829000Y-69476000D02*
X151829000Y-66540000D01*
X151869000Y-64460000D02*
X151869000Y-61515000D01*
X151869000Y-69485000D02*
X151869000Y-66540000D01*
X151909000Y-64460000D02*
X151909000Y-61506000D01*
X151909000Y-69494000D02*
X151909000Y-66540000D01*
X151949000Y-64460000D02*
X151949000Y-61498000D01*
X151949000Y-69502000D02*
X151949000Y-66540000D01*
X151989000Y-64460000D02*
X151989000Y-61490000D01*
X151989000Y-69510000D02*
X151989000Y-66540000D01*
X152029000Y-64460000D02*
X152029000Y-61483000D01*
X152029000Y-69517000D02*
X152029000Y-66540000D01*
X152070000Y-69524000D02*
X152070000Y-61476000D01*
X152110000Y-69530000D02*
X152110000Y-61470000D01*
X152150000Y-69537000D02*
X152150000Y-61463000D01*
X152190000Y-69542000D02*
X152190000Y-61458000D01*
X152230000Y-69548000D02*
X152230000Y-61452000D01*
X152270000Y-69552000D02*
X152270000Y-61448000D01*
X152310000Y-69557000D02*
X152310000Y-61443000D01*
X152350000Y-69561000D02*
X152350000Y-61439000D01*
X152390000Y-69565000D02*
X152390000Y-61435000D01*
X152430000Y-69568000D02*
X152430000Y-61432000D01*
X152470000Y-69571000D02*
X152470000Y-61429000D01*
X152510000Y-69574000D02*
X152510000Y-61426000D01*
X152550000Y-69576000D02*
X152550000Y-61424000D01*
X152590000Y-69577000D02*
X152590000Y-61423000D01*
X152630000Y-69579000D02*
X152630000Y-61421000D01*
X152670000Y-69580000D02*
X152670000Y-61420000D01*
X152710000Y-69580000D02*
X152710000Y-61420000D01*
X152750000Y-69580000D02*
X152750000Y-61420000D01*
X156870000Y-65500000D02*
G75*
G03X156870000Y-65500000I-4120000J0D01*
G01*
X138715000Y-61740302D02*
X137915000Y-61740302D01*
X138315000Y-61340302D02*
X138315000Y-62140302D01*
X136533000Y-69831000D02*
X135467000Y-69831000D01*
X136768000Y-69791000D02*
X135232000Y-69791000D01*
X136948000Y-69751000D02*
X135052000Y-69751000D01*
X137098000Y-69711000D02*
X134902000Y-69711000D01*
X137229000Y-69671000D02*
X134771000Y-69671000D01*
X137346000Y-69631000D02*
X134654000Y-69631000D01*
X137453000Y-69591000D02*
X134547000Y-69591000D01*
X137552000Y-69551000D02*
X134448000Y-69551000D01*
X137645000Y-69511000D02*
X134355000Y-69511000D01*
X137731000Y-69471000D02*
X134269000Y-69471000D01*
X137813000Y-69431000D02*
X134187000Y-69431000D01*
X137890000Y-69391000D02*
X134110000Y-69391000D01*
X137964000Y-69351000D02*
X134036000Y-69351000D01*
X138034000Y-69311000D02*
X133966000Y-69311000D01*
X138102000Y-69271000D02*
X133898000Y-69271000D01*
X138166000Y-69231000D02*
X133834000Y-69231000D01*
X138228000Y-69191000D02*
X133772000Y-69191000D01*
X138287000Y-69151000D02*
X133713000Y-69151000D01*
X138345000Y-69111000D02*
X133655000Y-69111000D01*
X138400000Y-69071000D02*
X133600000Y-69071000D01*
X138454000Y-69031000D02*
X133546000Y-69031000D01*
X138505000Y-68991000D02*
X133495000Y-68991000D01*
X138556000Y-68951000D02*
X133444000Y-68951000D01*
X138604000Y-68911000D02*
X133396000Y-68911000D01*
X138651000Y-68871000D02*
X133349000Y-68871000D01*
X138697000Y-68831000D02*
X133303000Y-68831000D01*
X138741000Y-68791000D02*
X133259000Y-68791000D01*
X138784000Y-68751000D02*
X133216000Y-68751000D01*
X138826000Y-68711000D02*
X133174000Y-68711000D01*
X138867000Y-68671000D02*
X133133000Y-68671000D01*
X138907000Y-68631000D02*
X133093000Y-68631000D01*
X138945000Y-68591000D02*
X133055000Y-68591000D01*
X138983000Y-68551000D02*
X133017000Y-68551000D01*
X134960000Y-68511000D02*
X132981000Y-68511000D01*
X139019000Y-68511000D02*
X137040000Y-68511000D01*
X134960000Y-68471000D02*
X132945000Y-68471000D01*
X139055000Y-68471000D02*
X137040000Y-68471000D01*
X134960000Y-68431000D02*
X132910000Y-68431000D01*
X139090000Y-68431000D02*
X137040000Y-68431000D01*
X134960000Y-68391000D02*
X132876000Y-68391000D01*
X139124000Y-68391000D02*
X137040000Y-68391000D01*
X134960000Y-68351000D02*
X132844000Y-68351000D01*
X139156000Y-68351000D02*
X137040000Y-68351000D01*
X134960000Y-68311000D02*
X132811000Y-68311000D01*
X139189000Y-68311000D02*
X137040000Y-68311000D01*
X134960000Y-68271000D02*
X132780000Y-68271000D01*
X139220000Y-68271000D02*
X137040000Y-68271000D01*
X134960000Y-68231000D02*
X132750000Y-68231000D01*
X139250000Y-68231000D02*
X137040000Y-68231000D01*
X134960000Y-68191000D02*
X132720000Y-68191000D01*
X139280000Y-68191000D02*
X137040000Y-68191000D01*
X134960000Y-68151000D02*
X132691000Y-68151000D01*
X139309000Y-68151000D02*
X137040000Y-68151000D01*
X134960000Y-68111000D02*
X132662000Y-68111000D01*
X139338000Y-68111000D02*
X137040000Y-68111000D01*
X134960000Y-68071000D02*
X132635000Y-68071000D01*
X139365000Y-68071000D02*
X137040000Y-68071000D01*
X134960000Y-68031000D02*
X132608000Y-68031000D01*
X139392000Y-68031000D02*
X137040000Y-68031000D01*
X134960000Y-67991000D02*
X132582000Y-67991000D01*
X139418000Y-67991000D02*
X137040000Y-67991000D01*
X134960000Y-67951000D02*
X132556000Y-67951000D01*
X139444000Y-67951000D02*
X137040000Y-67951000D01*
X134960000Y-67911000D02*
X132531000Y-67911000D01*
X139469000Y-67911000D02*
X137040000Y-67911000D01*
X134960000Y-67871000D02*
X132507000Y-67871000D01*
X139493000Y-67871000D02*
X137040000Y-67871000D01*
X134960000Y-67831000D02*
X132483000Y-67831000D01*
X139517000Y-67831000D02*
X137040000Y-67831000D01*
X134960000Y-67791000D02*
X132460000Y-67791000D01*
X139540000Y-67791000D02*
X137040000Y-67791000D01*
X134960000Y-67751000D02*
X132438000Y-67751000D01*
X139562000Y-67751000D02*
X137040000Y-67751000D01*
X134960000Y-67711000D02*
X132416000Y-67711000D01*
X139584000Y-67711000D02*
X137040000Y-67711000D01*
X134960000Y-67671000D02*
X132394000Y-67671000D01*
X139606000Y-67671000D02*
X137040000Y-67671000D01*
X134960000Y-67631000D02*
X132373000Y-67631000D01*
X139627000Y-67631000D02*
X137040000Y-67631000D01*
X134960000Y-67591000D02*
X132353000Y-67591000D01*
X139647000Y-67591000D02*
X137040000Y-67591000D01*
X134960000Y-67551000D02*
X132334000Y-67551000D01*
X139666000Y-67551000D02*
X137040000Y-67551000D01*
X134960000Y-67511000D02*
X132314000Y-67511000D01*
X139686000Y-67511000D02*
X137040000Y-67511000D01*
X134960000Y-67471000D02*
X132296000Y-67471000D01*
X139704000Y-67471000D02*
X137040000Y-67471000D01*
X134960000Y-67431000D02*
X132278000Y-67431000D01*
X139722000Y-67431000D02*
X137040000Y-67431000D01*
X134960000Y-67391000D02*
X132260000Y-67391000D01*
X139740000Y-67391000D02*
X137040000Y-67391000D01*
X134960000Y-67351000D02*
X132243000Y-67351000D01*
X139757000Y-67351000D02*
X137040000Y-67351000D01*
X134960000Y-67311000D02*
X132226000Y-67311000D01*
X139774000Y-67311000D02*
X137040000Y-67311000D01*
X134960000Y-67271000D02*
X132210000Y-67271000D01*
X139790000Y-67271000D02*
X137040000Y-67271000D01*
X134960000Y-67231000D02*
X132195000Y-67231000D01*
X139805000Y-67231000D02*
X137040000Y-67231000D01*
X134960000Y-67191000D02*
X132179000Y-67191000D01*
X139821000Y-67191000D02*
X137040000Y-67191000D01*
X134960000Y-67151000D02*
X132165000Y-67151000D01*
X139835000Y-67151000D02*
X137040000Y-67151000D01*
X134960000Y-67111000D02*
X132150000Y-67111000D01*
X139850000Y-67111000D02*
X137040000Y-67111000D01*
X134960000Y-67071000D02*
X132137000Y-67071000D01*
X139863000Y-67071000D02*
X137040000Y-67071000D01*
X134960000Y-67031000D02*
X132123000Y-67031000D01*
X139877000Y-67031000D02*
X137040000Y-67031000D01*
X134960000Y-66991000D02*
X132111000Y-66991000D01*
X139889000Y-66991000D02*
X137040000Y-66991000D01*
X134960000Y-66951000D02*
X132098000Y-66951000D01*
X139902000Y-66951000D02*
X137040000Y-66951000D01*
X134960000Y-66911000D02*
X132086000Y-66911000D01*
X139914000Y-66911000D02*
X137040000Y-66911000D01*
X134960000Y-66871000D02*
X132075000Y-66871000D01*
X139925000Y-66871000D02*
X137040000Y-66871000D01*
X134960000Y-66831000D02*
X132064000Y-66831000D01*
X139936000Y-66831000D02*
X137040000Y-66831000D01*
X134960000Y-66791000D02*
X132053000Y-66791000D01*
X139947000Y-66791000D02*
X137040000Y-66791000D01*
X134960000Y-66751000D02*
X132043000Y-66751000D01*
X139957000Y-66751000D02*
X137040000Y-66751000D01*
X134960000Y-66711000D02*
X132033000Y-66711000D01*
X139967000Y-66711000D02*
X137040000Y-66711000D01*
X134960000Y-66671000D02*
X132024000Y-66671000D01*
X139976000Y-66671000D02*
X137040000Y-66671000D01*
X134960000Y-66631000D02*
X132015000Y-66631000D01*
X139985000Y-66631000D02*
X137040000Y-66631000D01*
X134960000Y-66591000D02*
X132006000Y-66591000D01*
X139994000Y-66591000D02*
X137040000Y-66591000D01*
X134960000Y-66551000D02*
X131998000Y-66551000D01*
X140002000Y-66551000D02*
X137040000Y-66551000D01*
X134960000Y-66511000D02*
X131990000Y-66511000D01*
X140010000Y-66511000D02*
X137040000Y-66511000D01*
X134960000Y-66471000D02*
X131983000Y-66471000D01*
X140017000Y-66471000D02*
X137040000Y-66471000D01*
X140024000Y-66430000D02*
X131976000Y-66430000D01*
X140030000Y-66390000D02*
X131970000Y-66390000D01*
X140037000Y-66350000D02*
X131963000Y-66350000D01*
X140042000Y-66310000D02*
X131958000Y-66310000D01*
X140048000Y-66270000D02*
X131952000Y-66270000D01*
X140052000Y-66230000D02*
X131948000Y-66230000D01*
X140057000Y-66190000D02*
X131943000Y-66190000D01*
X140061000Y-66150000D02*
X131939000Y-66150000D01*
X140065000Y-66110000D02*
X131935000Y-66110000D01*
X140068000Y-66070000D02*
X131932000Y-66070000D01*
X140071000Y-66030000D02*
X131929000Y-66030000D01*
X140074000Y-65990000D02*
X131926000Y-65990000D01*
X140076000Y-65950000D02*
X131924000Y-65950000D01*
X140077000Y-65910000D02*
X131923000Y-65910000D01*
X140079000Y-65870000D02*
X131921000Y-65870000D01*
X140080000Y-65830000D02*
X131920000Y-65830000D01*
X140080000Y-65790000D02*
X131920000Y-65790000D01*
X140080000Y-65750000D02*
X131920000Y-65750000D01*
X140120000Y-65750000D02*
G75*
G03X140120000Y-65750000I-4120000J0D01*
G01*
X111910000Y-52102064D02*
X111910000Y-50897936D01*
X110090000Y-52102064D02*
X110090000Y-50897936D01*
X98385436Y-53910000D02*
X99589564Y-53910000D01*
X98385436Y-52090000D02*
X99589564Y-52090000D01*
D13*
X162101666Y-56179523D02*
X162101666Y-57086666D01*
X162041190Y-57268095D01*
X161920238Y-57389047D01*
X161738809Y-57449523D01*
X161617857Y-57449523D01*
X163311190Y-56179523D02*
X162706428Y-56179523D01*
X162645952Y-56784285D01*
X162706428Y-56723809D01*
X162827380Y-56663333D01*
X163129761Y-56663333D01*
X163250714Y-56723809D01*
X163311190Y-56784285D01*
X163371666Y-56905238D01*
X163371666Y-57207619D01*
X163311190Y-57328571D01*
X163250714Y-57389047D01*
X163129761Y-57449523D01*
X162827380Y-57449523D01*
X162706428Y-57389047D01*
X162645952Y-57328571D01*
X163616666Y-77344523D02*
X163616666Y-78251666D01*
X163556190Y-78433095D01*
X163435238Y-78554047D01*
X163253809Y-78614523D01*
X163132857Y-78614523D01*
X164765714Y-77767857D02*
X164765714Y-78614523D01*
X164463333Y-77284047D02*
X164160952Y-78191190D01*
X164947142Y-78191190D01*
X163536666Y-64264523D02*
X163536666Y-65171666D01*
X163476190Y-65353095D01*
X163355238Y-65474047D01*
X163173809Y-65534523D01*
X163052857Y-65534523D01*
X164020476Y-64264523D02*
X164806666Y-64264523D01*
X164383333Y-64748333D01*
X164564761Y-64748333D01*
X164685714Y-64808809D01*
X164746190Y-64869285D01*
X164806666Y-64990238D01*
X164806666Y-65292619D01*
X164746190Y-65413571D01*
X164685714Y-65474047D01*
X164564761Y-65534523D01*
X164201904Y-65534523D01*
X164080952Y-65474047D01*
X164020476Y-65413571D01*
D14*
X165037142Y-57441666D02*
X165084761Y-57489285D01*
X165132380Y-57632142D01*
X165132380Y-57727380D01*
X165084761Y-57870238D01*
X164989523Y-57965476D01*
X164894285Y-58013095D01*
X164703809Y-58060714D01*
X164560952Y-58060714D01*
X164370476Y-58013095D01*
X164275238Y-57965476D01*
X164180000Y-57870238D01*
X164132380Y-57727380D01*
X164132380Y-57632142D01*
X164180000Y-57489285D01*
X164227619Y-57441666D01*
X164132380Y-57108333D02*
X164132380Y-56489285D01*
X164513333Y-56822619D01*
X164513333Y-56679761D01*
X164560952Y-56584523D01*
X164608571Y-56536904D01*
X164703809Y-56489285D01*
X164941904Y-56489285D01*
X165037142Y-56536904D01*
X165084761Y-56584523D01*
X165132380Y-56679761D01*
X165132380Y-56965476D01*
X165084761Y-57060714D01*
X165037142Y-57108333D01*
X131677142Y-65916666D02*
X131724761Y-65964285D01*
X131772380Y-66107142D01*
X131772380Y-66202380D01*
X131724761Y-66345238D01*
X131629523Y-66440476D01*
X131534285Y-66488095D01*
X131343809Y-66535714D01*
X131200952Y-66535714D01*
X131010476Y-66488095D01*
X130915238Y-66440476D01*
X130820000Y-66345238D01*
X130772380Y-66202380D01*
X130772380Y-66107142D01*
X130820000Y-65964285D01*
X130867619Y-65916666D01*
X130867619Y-65535714D02*
X130820000Y-65488095D01*
X130772380Y-65392857D01*
X130772380Y-65154761D01*
X130820000Y-65059523D01*
X130867619Y-65011904D01*
X130962857Y-64964285D01*
X131058095Y-64964285D01*
X131200952Y-65011904D01*
X131772380Y-65583333D01*
X131772380Y-64964285D01*
X102202380Y-51166666D02*
X101726190Y-51500000D01*
X102202380Y-51738095D02*
X101202380Y-51738095D01*
X101202380Y-51357142D01*
X101250000Y-51261904D01*
X101297619Y-51214285D01*
X101392857Y-51166666D01*
X101535714Y-51166666D01*
X101630952Y-51214285D01*
X101678571Y-51261904D01*
X101726190Y-51357142D01*
X101726190Y-51738095D01*
X101202380Y-50833333D02*
X101202380Y-50214285D01*
X101583333Y-50547619D01*
X101583333Y-50404761D01*
X101630952Y-50309523D01*
X101678571Y-50261904D01*
X101773809Y-50214285D01*
X102011904Y-50214285D01*
X102107142Y-50261904D01*
X102154761Y-50309523D01*
X102202380Y-50404761D01*
X102202380Y-50690476D01*
X102154761Y-50785714D01*
X102107142Y-50833333D01*
X105083333Y-49032380D02*
X104750000Y-48556190D01*
X104511904Y-49032380D02*
X104511904Y-48032380D01*
X104892857Y-48032380D01*
X104988095Y-48080000D01*
X105035714Y-48127619D01*
X105083333Y-48222857D01*
X105083333Y-48365714D01*
X105035714Y-48460952D01*
X104988095Y-48508571D01*
X104892857Y-48556190D01*
X104511904Y-48556190D01*
X105464285Y-48127619D02*
X105511904Y-48080000D01*
X105607142Y-48032380D01*
X105845238Y-48032380D01*
X105940476Y-48080000D01*
X105988095Y-48127619D01*
X106035714Y-48222857D01*
X106035714Y-48318095D01*
X105988095Y-48460952D01*
X105416666Y-49032380D01*
X106035714Y-49032380D01*
X120333333Y-47532380D02*
X120000000Y-47056190D01*
X119761904Y-47532380D02*
X119761904Y-46532380D01*
X120142857Y-46532380D01*
X120238095Y-46580000D01*
X120285714Y-46627619D01*
X120333333Y-46722857D01*
X120333333Y-46865714D01*
X120285714Y-46960952D01*
X120238095Y-47008571D01*
X120142857Y-47056190D01*
X119761904Y-47056190D01*
X121285714Y-47532380D02*
X120714285Y-47532380D01*
X121000000Y-47532380D02*
X121000000Y-46532380D01*
X120904761Y-46675238D01*
X120809523Y-46770476D01*
X120714285Y-46818095D01*
X115916666Y-50202380D02*
X115916666Y-50916666D01*
X115869047Y-51059523D01*
X115773809Y-51154761D01*
X115630952Y-51202380D01*
X115535714Y-51202380D01*
X116392857Y-51202380D02*
X116392857Y-50202380D01*
X116773809Y-50202380D01*
X116869047Y-50250000D01*
X116916666Y-50297619D01*
X116964285Y-50392857D01*
X116964285Y-50535714D01*
X116916666Y-50630952D01*
X116869047Y-50678571D01*
X116773809Y-50726190D01*
X116392857Y-50726190D01*
X117916666Y-51202380D02*
X117345238Y-51202380D01*
X117630952Y-51202380D02*
X117630952Y-50202380D01*
X117535714Y-50345238D01*
X117440476Y-50440476D01*
X117345238Y-50488095D01*
X146952380Y-67126666D02*
X146476190Y-67460000D01*
X146952380Y-67698095D02*
X145952380Y-67698095D01*
X145952380Y-67317142D01*
X146000000Y-67221904D01*
X146047619Y-67174285D01*
X146142857Y-67126666D01*
X146285714Y-67126666D01*
X146380952Y-67174285D01*
X146428571Y-67221904D01*
X146476190Y-67317142D01*
X146476190Y-67698095D01*
X145952380Y-66221904D02*
X145952380Y-66698095D01*
X146428571Y-66745714D01*
X146380952Y-66698095D01*
X146333333Y-66602857D01*
X146333333Y-66364761D01*
X146380952Y-66269523D01*
X146428571Y-66221904D01*
X146523809Y-66174285D01*
X146761904Y-66174285D01*
X146857142Y-66221904D01*
X146904761Y-66269523D01*
X146952380Y-66364761D01*
X146952380Y-66602857D01*
X146904761Y-66698095D01*
X146857142Y-66745714D01*
X146952380Y-69416666D02*
X146476190Y-69750000D01*
X146952380Y-69988095D02*
X145952380Y-69988095D01*
X145952380Y-69607142D01*
X146000000Y-69511904D01*
X146047619Y-69464285D01*
X146142857Y-69416666D01*
X146285714Y-69416666D01*
X146380952Y-69464285D01*
X146428571Y-69511904D01*
X146476190Y-69607142D01*
X146476190Y-69988095D01*
X146285714Y-68559523D02*
X146952380Y-68559523D01*
X145904761Y-68797619D02*
X146619047Y-69035714D01*
X146619047Y-68416666D01*
X147857142Y-81857142D02*
X147809523Y-81904761D01*
X147666666Y-81952380D01*
X147571428Y-81952380D01*
X147428571Y-81904761D01*
X147333333Y-81809523D01*
X147285714Y-81714285D01*
X147238095Y-81523809D01*
X147238095Y-81380952D01*
X147285714Y-81190476D01*
X147333333Y-81095238D01*
X147428571Y-81000000D01*
X147571428Y-80952380D01*
X147666666Y-80952380D01*
X147809523Y-81000000D01*
X147857142Y-81047619D01*
X148809523Y-81952380D02*
X148238095Y-81952380D01*
X148523809Y-81952380D02*
X148523809Y-80952380D01*
X148428571Y-81095238D01*
X148333333Y-81190476D01*
X148238095Y-81238095D01*
X149666666Y-80952380D02*
X149476190Y-80952380D01*
X149380952Y-81000000D01*
X149333333Y-81047619D01*
X149238095Y-81190476D01*
X149190476Y-81380952D01*
X149190476Y-81761904D01*
X149238095Y-81857142D01*
X149285714Y-81904761D01*
X149380952Y-81952380D01*
X149571428Y-81952380D01*
X149666666Y-81904761D01*
X149714285Y-81857142D01*
X149761904Y-81761904D01*
X149761904Y-81523809D01*
X149714285Y-81428571D01*
X149666666Y-81380952D01*
X149571428Y-81333333D01*
X149380952Y-81333333D01*
X149285714Y-81380952D01*
X149238095Y-81428571D01*
X149190476Y-81523809D01*
X99083333Y-41107142D02*
X99035714Y-41154761D01*
X98892857Y-41202380D01*
X98797619Y-41202380D01*
X98654761Y-41154761D01*
X98559523Y-41059523D01*
X98511904Y-40964285D01*
X98464285Y-40773809D01*
X98464285Y-40630952D01*
X98511904Y-40440476D01*
X98559523Y-40345238D01*
X98654761Y-40250000D01*
X98797619Y-40202380D01*
X98892857Y-40202380D01*
X99035714Y-40250000D01*
X99083333Y-40297619D01*
X100035714Y-41202380D02*
X99464285Y-41202380D01*
X99750000Y-41202380D02*
X99750000Y-40202380D01*
X99654761Y-40345238D01*
X99559523Y-40440476D01*
X99464285Y-40488095D01*
D13*
X139494047Y-75574523D02*
X139070714Y-74969761D01*
X138768333Y-75574523D02*
X138768333Y-74304523D01*
X139252142Y-74304523D01*
X139373095Y-74365000D01*
X139433571Y-74425476D01*
X139494047Y-74546428D01*
X139494047Y-74727857D01*
X139433571Y-74848809D01*
X139373095Y-74909285D01*
X139252142Y-74969761D01*
X138768333Y-74969761D01*
X139856904Y-74304523D02*
X140280238Y-75574523D01*
X140703571Y-74304523D01*
X141792142Y-75574523D02*
X141066428Y-75574523D01*
X141429285Y-75574523D02*
X141429285Y-74304523D01*
X141308333Y-74485952D01*
X141187380Y-74606904D01*
X141066428Y-74667380D01*
X107207857Y-81574523D02*
X107207857Y-80304523D01*
X107691666Y-80304523D01*
X107812619Y-80365000D01*
X107873095Y-80425476D01*
X107933571Y-80546428D01*
X107933571Y-80727857D01*
X107873095Y-80848809D01*
X107812619Y-80909285D01*
X107691666Y-80969761D01*
X107207857Y-80969761D01*
X108417380Y-81514047D02*
X108598809Y-81574523D01*
X108901190Y-81574523D01*
X109022142Y-81514047D01*
X109082619Y-81453571D01*
X109143095Y-81332619D01*
X109143095Y-81211666D01*
X109082619Y-81090714D01*
X109022142Y-81030238D01*
X108901190Y-80969761D01*
X108659285Y-80909285D01*
X108538333Y-80848809D01*
X108477857Y-80788333D01*
X108417380Y-80667380D01*
X108417380Y-80546428D01*
X108477857Y-80425476D01*
X108538333Y-80365000D01*
X108659285Y-80304523D01*
X108961666Y-80304523D01*
X109143095Y-80365000D01*
X109626904Y-80425476D02*
X109687380Y-80365000D01*
X109808333Y-80304523D01*
X110110714Y-80304523D01*
X110231666Y-80365000D01*
X110292142Y-80425476D01*
X110352619Y-80546428D01*
X110352619Y-80667380D01*
X110292142Y-80848809D01*
X109566428Y-81574523D01*
X110352619Y-81574523D01*
X126788333Y-47324523D02*
X126183571Y-47324523D01*
X126183571Y-46054523D01*
X127090714Y-46054523D02*
X127876904Y-46054523D01*
X127453571Y-46538333D01*
X127635000Y-46538333D01*
X127755952Y-46598809D01*
X127816428Y-46659285D01*
X127876904Y-46780238D01*
X127876904Y-47082619D01*
X127816428Y-47203571D01*
X127755952Y-47264047D01*
X127635000Y-47324523D01*
X127272142Y-47324523D01*
X127151190Y-47264047D01*
X127090714Y-47203571D01*
D14*
X124322380Y-81583333D02*
X125036666Y-81583333D01*
X125179523Y-81630952D01*
X125274761Y-81726190D01*
X125322380Y-81869047D01*
X125322380Y-81964285D01*
X124417619Y-81154761D02*
X124370000Y-81107142D01*
X124322380Y-81011904D01*
X124322380Y-80773809D01*
X124370000Y-80678571D01*
X124417619Y-80630952D01*
X124512857Y-80583333D01*
X124608095Y-80583333D01*
X124750952Y-80630952D01*
X125322380Y-81202380D01*
X125322380Y-80583333D01*
D13*
X101576666Y-36554523D02*
X101576666Y-37461666D01*
X101516190Y-37643095D01*
X101395238Y-37764047D01*
X101213809Y-37824523D01*
X101092857Y-37824523D01*
X102846666Y-37824523D02*
X102120952Y-37824523D01*
X102483809Y-37824523D02*
X102483809Y-36554523D01*
X102362857Y-36735952D01*
X102241904Y-36856904D01*
X102120952Y-36917380D01*
D14*
X124011904Y-52452380D02*
X124011904Y-51452380D01*
X124250000Y-51452380D01*
X124392857Y-51500000D01*
X124488095Y-51595238D01*
X124535714Y-51690476D01*
X124583333Y-51880952D01*
X124583333Y-52023809D01*
X124535714Y-52214285D01*
X124488095Y-52309523D01*
X124392857Y-52404761D01*
X124250000Y-52452380D01*
X124011904Y-52452380D01*
X125535714Y-52452380D02*
X124964285Y-52452380D01*
X125250000Y-52452380D02*
X125250000Y-51452380D01*
X125154761Y-51595238D01*
X125059523Y-51690476D01*
X124964285Y-51738095D01*
X165857142Y-71857142D02*
X165809523Y-71904761D01*
X165666666Y-71952380D01*
X165571428Y-71952380D01*
X165428571Y-71904761D01*
X165333333Y-71809523D01*
X165285714Y-71714285D01*
X165238095Y-71523809D01*
X165238095Y-71380952D01*
X165285714Y-71190476D01*
X165333333Y-71095238D01*
X165428571Y-71000000D01*
X165571428Y-70952380D01*
X165666666Y-70952380D01*
X165809523Y-71000000D01*
X165857142Y-71047619D01*
X166809523Y-71952380D02*
X166238095Y-71952380D01*
X166523809Y-71952380D02*
X166523809Y-70952380D01*
X166428571Y-71095238D01*
X166333333Y-71190476D01*
X166238095Y-71238095D01*
X167142857Y-70952380D02*
X167809523Y-70952380D01*
X167380952Y-71952380D01*
X156607142Y-62857142D02*
X156559523Y-62904761D01*
X156416666Y-62952380D01*
X156321428Y-62952380D01*
X156178571Y-62904761D01*
X156083333Y-62809523D01*
X156035714Y-62714285D01*
X155988095Y-62523809D01*
X155988095Y-62380952D01*
X156035714Y-62190476D01*
X156083333Y-62095238D01*
X156178571Y-62000000D01*
X156321428Y-61952380D01*
X156416666Y-61952380D01*
X156559523Y-62000000D01*
X156607142Y-62047619D01*
X157559523Y-62952380D02*
X156988095Y-62952380D01*
X157273809Y-62952380D02*
X157273809Y-61952380D01*
X157178571Y-62095238D01*
X157083333Y-62190476D01*
X156988095Y-62238095D01*
X158464285Y-61952380D02*
X157988095Y-61952380D01*
X157940476Y-62428571D01*
X157988095Y-62380952D01*
X158083333Y-62333333D01*
X158321428Y-62333333D01*
X158416666Y-62380952D01*
X158464285Y-62428571D01*
X158511904Y-62523809D01*
X158511904Y-62761904D01*
X158464285Y-62857142D01*
X158416666Y-62904761D01*
X158321428Y-62952380D01*
X158083333Y-62952380D01*
X157988095Y-62904761D01*
X157940476Y-62857142D01*
X138607142Y-72857142D02*
X138559523Y-72904761D01*
X138416666Y-72952380D01*
X138321428Y-72952380D01*
X138178571Y-72904761D01*
X138083333Y-72809523D01*
X138035714Y-72714285D01*
X137988095Y-72523809D01*
X137988095Y-72380952D01*
X138035714Y-72190476D01*
X138083333Y-72095238D01*
X138178571Y-72000000D01*
X138321428Y-71952380D01*
X138416666Y-71952380D01*
X138559523Y-72000000D01*
X138607142Y-72047619D01*
X139559523Y-72952380D02*
X138988095Y-72952380D01*
X139273809Y-72952380D02*
X139273809Y-71952380D01*
X139178571Y-72095238D01*
X139083333Y-72190476D01*
X138988095Y-72238095D01*
X140416666Y-72285714D02*
X140416666Y-72952380D01*
X140178571Y-71904761D02*
X139940476Y-72619047D01*
X140559523Y-72619047D01*
X110857142Y-55107142D02*
X110809523Y-55154761D01*
X110666666Y-55202380D01*
X110571428Y-55202380D01*
X110428571Y-55154761D01*
X110333333Y-55059523D01*
X110285714Y-54964285D01*
X110238095Y-54773809D01*
X110238095Y-54630952D01*
X110285714Y-54440476D01*
X110333333Y-54345238D01*
X110428571Y-54250000D01*
X110571428Y-54202380D01*
X110666666Y-54202380D01*
X110809523Y-54250000D01*
X110857142Y-54297619D01*
X111809523Y-55202380D02*
X111238095Y-55202380D01*
X111523809Y-55202380D02*
X111523809Y-54202380D01*
X111428571Y-54345238D01*
X111333333Y-54440476D01*
X111238095Y-54488095D01*
X112142857Y-54202380D02*
X112761904Y-54202380D01*
X112428571Y-54583333D01*
X112571428Y-54583333D01*
X112666666Y-54630952D01*
X112714285Y-54678571D01*
X112761904Y-54773809D01*
X112761904Y-55011904D01*
X112714285Y-55107142D01*
X112666666Y-55154761D01*
X112571428Y-55202380D01*
X112285714Y-55202380D01*
X112190476Y-55154761D01*
X112142857Y-55107142D01*
X93857142Y-53357142D02*
X93809523Y-53404761D01*
X93666666Y-53452380D01*
X93571428Y-53452380D01*
X93428571Y-53404761D01*
X93333333Y-53309523D01*
X93285714Y-53214285D01*
X93238095Y-53023809D01*
X93238095Y-52880952D01*
X93285714Y-52690476D01*
X93333333Y-52595238D01*
X93428571Y-52500000D01*
X93571428Y-52452380D01*
X93666666Y-52452380D01*
X93809523Y-52500000D01*
X93857142Y-52547619D01*
X94809523Y-53452380D02*
X94238095Y-53452380D01*
X94523809Y-53452380D02*
X94523809Y-52452380D01*
X94428571Y-52595238D01*
X94333333Y-52690476D01*
X94238095Y-52738095D01*
X95761904Y-53452380D02*
X95190476Y-53452380D01*
X95476190Y-53452380D02*
X95476190Y-52452380D01*
X95380952Y-52595238D01*
X95285714Y-52690476D01*
X95190476Y-52738095D01*
%LPC*%
D11*
G36*
X113750000Y-44250000D02*
G01*
X110750000Y-44250000D01*
X110750000Y-35500000D01*
X113750000Y-35500000D01*
X113750000Y-44250000D01*
G37*
X113750000Y-44250000D02*
X110750000Y-44250000D01*
X110750000Y-35500000D01*
X113750000Y-35500000D01*
X113750000Y-44250000D01*
G36*
X108000000Y-44250000D02*
G01*
X105000000Y-44250000D01*
X105000000Y-35500000D01*
X108000000Y-35500000D01*
X108000000Y-44250000D01*
G37*
X108000000Y-44250000D02*
X105000000Y-44250000D01*
X105000000Y-35500000D01*
X108000000Y-35500000D01*
X108000000Y-44250000D01*
G36*
X147750000Y-78000000D02*
G01*
X144000000Y-78000000D01*
X144000000Y-74500000D01*
X147750000Y-74500000D01*
X147750000Y-78000000D01*
G37*
X147750000Y-78000000D02*
X144000000Y-78000000D01*
X144000000Y-74500000D01*
X147750000Y-74500000D01*
X147750000Y-78000000D01*
D15*
X164000000Y-56500000D03*
X161050000Y-56500000D03*
D16*
X162525000Y-58025000D03*
D17*
X166580000Y-75500000D03*
X166580000Y-78040000D03*
X166580000Y-80580000D03*
X161500000Y-80580000D03*
X161500000Y-78040000D03*
X161500000Y-75500000D03*
X166500000Y-62420000D03*
X166500000Y-64960000D03*
X166500000Y-67500000D03*
X161420000Y-67500000D03*
X161420000Y-64960000D03*
X161420000Y-62420000D03*
D11*
G36*
X167184363Y-55025290D02*
G01*
X167210369Y-55029148D01*
X167235871Y-55035535D01*
X167260624Y-55044392D01*
X167284390Y-55055633D01*
X167306939Y-55069148D01*
X167328056Y-55084809D01*
X167347535Y-55102465D01*
X167365191Y-55121944D01*
X167380852Y-55143061D01*
X167394367Y-55165610D01*
X167405608Y-55189376D01*
X167414465Y-55214129D01*
X167420852Y-55239631D01*
X167424710Y-55265637D01*
X167426000Y-55291895D01*
X167426000Y-56283105D01*
X167424710Y-56309363D01*
X167420852Y-56335369D01*
X167414465Y-56360871D01*
X167405608Y-56385624D01*
X167394367Y-56409390D01*
X167380852Y-56431939D01*
X167365191Y-56453056D01*
X167347535Y-56472535D01*
X167328056Y-56490191D01*
X167306939Y-56505852D01*
X167284390Y-56519367D01*
X167260624Y-56530608D01*
X167235871Y-56539465D01*
X167210369Y-56545852D01*
X167184363Y-56549710D01*
X167158105Y-56551000D01*
X165841895Y-56551000D01*
X165815637Y-56549710D01*
X165789631Y-56545852D01*
X165764129Y-56539465D01*
X165739376Y-56530608D01*
X165715610Y-56519367D01*
X165693061Y-56505852D01*
X165671944Y-56490191D01*
X165652465Y-56472535D01*
X165634809Y-56453056D01*
X165619148Y-56431939D01*
X165605633Y-56409390D01*
X165594392Y-56385624D01*
X165585535Y-56360871D01*
X165579148Y-56335369D01*
X165575290Y-56309363D01*
X165574000Y-56283105D01*
X165574000Y-55291895D01*
X165575290Y-55265637D01*
X165579148Y-55239631D01*
X165585535Y-55214129D01*
X165594392Y-55189376D01*
X165605633Y-55165610D01*
X165619148Y-55143061D01*
X165634809Y-55121944D01*
X165652465Y-55102465D01*
X165671944Y-55084809D01*
X165693061Y-55069148D01*
X165715610Y-55055633D01*
X165739376Y-55044392D01*
X165764129Y-55035535D01*
X165789631Y-55029148D01*
X165815637Y-55025290D01*
X165841895Y-55024000D01*
X167158105Y-55024000D01*
X167184363Y-55025290D01*
X167184363Y-55025290D01*
G37*
D18*
X166500000Y-55787500D03*
D11*
G36*
X167184363Y-58000290D02*
G01*
X167210369Y-58004148D01*
X167235871Y-58010535D01*
X167260624Y-58019392D01*
X167284390Y-58030633D01*
X167306939Y-58044148D01*
X167328056Y-58059809D01*
X167347535Y-58077465D01*
X167365191Y-58096944D01*
X167380852Y-58118061D01*
X167394367Y-58140610D01*
X167405608Y-58164376D01*
X167414465Y-58189129D01*
X167420852Y-58214631D01*
X167424710Y-58240637D01*
X167426000Y-58266895D01*
X167426000Y-59258105D01*
X167424710Y-59284363D01*
X167420852Y-59310369D01*
X167414465Y-59335871D01*
X167405608Y-59360624D01*
X167394367Y-59384390D01*
X167380852Y-59406939D01*
X167365191Y-59428056D01*
X167347535Y-59447535D01*
X167328056Y-59465191D01*
X167306939Y-59480852D01*
X167284390Y-59494367D01*
X167260624Y-59505608D01*
X167235871Y-59514465D01*
X167210369Y-59520852D01*
X167184363Y-59524710D01*
X167158105Y-59526000D01*
X165841895Y-59526000D01*
X165815637Y-59524710D01*
X165789631Y-59520852D01*
X165764129Y-59514465D01*
X165739376Y-59505608D01*
X165715610Y-59494367D01*
X165693061Y-59480852D01*
X165671944Y-59465191D01*
X165652465Y-59447535D01*
X165634809Y-59428056D01*
X165619148Y-59406939D01*
X165605633Y-59384390D01*
X165594392Y-59360624D01*
X165585535Y-59335871D01*
X165579148Y-59310369D01*
X165575290Y-59284363D01*
X165574000Y-59258105D01*
X165574000Y-58266895D01*
X165575290Y-58240637D01*
X165579148Y-58214631D01*
X165585535Y-58189129D01*
X165594392Y-58164376D01*
X165605633Y-58140610D01*
X165619148Y-58118061D01*
X165634809Y-58096944D01*
X165652465Y-58077465D01*
X165671944Y-58059809D01*
X165693061Y-58044148D01*
X165715610Y-58030633D01*
X165739376Y-58019392D01*
X165764129Y-58010535D01*
X165789631Y-58004148D01*
X165815637Y-58000290D01*
X165841895Y-57999000D01*
X167158105Y-57999000D01*
X167184363Y-58000290D01*
X167184363Y-58000290D01*
G37*
D18*
X166500000Y-58762500D03*
D11*
G36*
X130184363Y-66475290D02*
G01*
X130210369Y-66479148D01*
X130235871Y-66485535D01*
X130260624Y-66494392D01*
X130284390Y-66505633D01*
X130306939Y-66519148D01*
X130328056Y-66534809D01*
X130347535Y-66552465D01*
X130365191Y-66571944D01*
X130380852Y-66593061D01*
X130394367Y-66615610D01*
X130405608Y-66639376D01*
X130414465Y-66664129D01*
X130420852Y-66689631D01*
X130424710Y-66715637D01*
X130426000Y-66741895D01*
X130426000Y-67733105D01*
X130424710Y-67759363D01*
X130420852Y-67785369D01*
X130414465Y-67810871D01*
X130405608Y-67835624D01*
X130394367Y-67859390D01*
X130380852Y-67881939D01*
X130365191Y-67903056D01*
X130347535Y-67922535D01*
X130328056Y-67940191D01*
X130306939Y-67955852D01*
X130284390Y-67969367D01*
X130260624Y-67980608D01*
X130235871Y-67989465D01*
X130210369Y-67995852D01*
X130184363Y-67999710D01*
X130158105Y-68001000D01*
X128841895Y-68001000D01*
X128815637Y-67999710D01*
X128789631Y-67995852D01*
X128764129Y-67989465D01*
X128739376Y-67980608D01*
X128715610Y-67969367D01*
X128693061Y-67955852D01*
X128671944Y-67940191D01*
X128652465Y-67922535D01*
X128634809Y-67903056D01*
X128619148Y-67881939D01*
X128605633Y-67859390D01*
X128594392Y-67835624D01*
X128585535Y-67810871D01*
X128579148Y-67785369D01*
X128575290Y-67759363D01*
X128574000Y-67733105D01*
X128574000Y-66741895D01*
X128575290Y-66715637D01*
X128579148Y-66689631D01*
X128585535Y-66664129D01*
X128594392Y-66639376D01*
X128605633Y-66615610D01*
X128619148Y-66593061D01*
X128634809Y-66571944D01*
X128652465Y-66552465D01*
X128671944Y-66534809D01*
X128693061Y-66519148D01*
X128715610Y-66505633D01*
X128739376Y-66494392D01*
X128764129Y-66485535D01*
X128789631Y-66479148D01*
X128815637Y-66475290D01*
X128841895Y-66474000D01*
X130158105Y-66474000D01*
X130184363Y-66475290D01*
X130184363Y-66475290D01*
G37*
D18*
X129500000Y-67237500D03*
D11*
G36*
X130184363Y-63500290D02*
G01*
X130210369Y-63504148D01*
X130235871Y-63510535D01*
X130260624Y-63519392D01*
X130284390Y-63530633D01*
X130306939Y-63544148D01*
X130328056Y-63559809D01*
X130347535Y-63577465D01*
X130365191Y-63596944D01*
X130380852Y-63618061D01*
X130394367Y-63640610D01*
X130405608Y-63664376D01*
X130414465Y-63689129D01*
X130420852Y-63714631D01*
X130424710Y-63740637D01*
X130426000Y-63766895D01*
X130426000Y-64758105D01*
X130424710Y-64784363D01*
X130420852Y-64810369D01*
X130414465Y-64835871D01*
X130405608Y-64860624D01*
X130394367Y-64884390D01*
X130380852Y-64906939D01*
X130365191Y-64928056D01*
X130347535Y-64947535D01*
X130328056Y-64965191D01*
X130306939Y-64980852D01*
X130284390Y-64994367D01*
X130260624Y-65005608D01*
X130235871Y-65014465D01*
X130210369Y-65020852D01*
X130184363Y-65024710D01*
X130158105Y-65026000D01*
X128841895Y-65026000D01*
X128815637Y-65024710D01*
X128789631Y-65020852D01*
X128764129Y-65014465D01*
X128739376Y-65005608D01*
X128715610Y-64994367D01*
X128693061Y-64980852D01*
X128671944Y-64965191D01*
X128652465Y-64947535D01*
X128634809Y-64928056D01*
X128619148Y-64906939D01*
X128605633Y-64884390D01*
X128594392Y-64860624D01*
X128585535Y-64835871D01*
X128579148Y-64810369D01*
X128575290Y-64784363D01*
X128574000Y-64758105D01*
X128574000Y-63766895D01*
X128575290Y-63740637D01*
X128579148Y-63714631D01*
X128585535Y-63689129D01*
X128594392Y-63664376D01*
X128605633Y-63640610D01*
X128619148Y-63618061D01*
X128634809Y-63596944D01*
X128652465Y-63577465D01*
X128671944Y-63559809D01*
X128693061Y-63544148D01*
X128715610Y-63530633D01*
X128739376Y-63519392D01*
X128764129Y-63510535D01*
X128789631Y-63504148D01*
X128815637Y-63500290D01*
X128841895Y-63499000D01*
X130158105Y-63499000D01*
X130184363Y-63500290D01*
X130184363Y-63500290D01*
G37*
D18*
X129500000Y-64262500D03*
D19*
X116000000Y-53000000D03*
X113500000Y-49000000D03*
D20*
X103420000Y-53000000D03*
D21*
X108500000Y-53000000D03*
D20*
X108580000Y-50500000D03*
D21*
X103500000Y-50500000D03*
D20*
X122080000Y-49000000D03*
D21*
X117000000Y-49000000D03*
D22*
X114000000Y-53150000D03*
D11*
G36*
X113199980Y-52640050D02*
G01*
X113202882Y-52630483D01*
X113207595Y-52621666D01*
X113213938Y-52613938D01*
X113221666Y-52607595D01*
X113230483Y-52602882D01*
X113240050Y-52599980D01*
X113250000Y-52599000D01*
X114750000Y-52599000D01*
X114759950Y-52599980D01*
X114769517Y-52602882D01*
X114778334Y-52607595D01*
X114786062Y-52613938D01*
X114792405Y-52621666D01*
X114797118Y-52630483D01*
X114800020Y-52640050D01*
X114801000Y-52650000D01*
X114801000Y-53150000D01*
X114800398Y-53156112D01*
X114800398Y-53174534D01*
X114800152Y-53179533D01*
X114795342Y-53228364D01*
X114794608Y-53233314D01*
X114785036Y-53281439D01*
X114783820Y-53286295D01*
X114769576Y-53333250D01*
X114767890Y-53337961D01*
X114749113Y-53383294D01*
X114746973Y-53387820D01*
X114723842Y-53431093D01*
X114721269Y-53435384D01*
X114694009Y-53476183D01*
X114691027Y-53480204D01*
X114659899Y-53518133D01*
X114656538Y-53521841D01*
X114621841Y-53556538D01*
X114618133Y-53559899D01*
X114580204Y-53591027D01*
X114576183Y-53594009D01*
X114535384Y-53621269D01*
X114531093Y-53623842D01*
X114487820Y-53646973D01*
X114483294Y-53649113D01*
X114437961Y-53667890D01*
X114433250Y-53669576D01*
X114386295Y-53683820D01*
X114381439Y-53685036D01*
X114333314Y-53694608D01*
X114328364Y-53695342D01*
X114279533Y-53700152D01*
X114274534Y-53700398D01*
X114256112Y-53700398D01*
X114250000Y-53701000D01*
X113750000Y-53701000D01*
X113743888Y-53700398D01*
X113725466Y-53700398D01*
X113720467Y-53700152D01*
X113671636Y-53695342D01*
X113666686Y-53694608D01*
X113618561Y-53685036D01*
X113613705Y-53683820D01*
X113566750Y-53669576D01*
X113562039Y-53667890D01*
X113516706Y-53649113D01*
X113512180Y-53646973D01*
X113468907Y-53623842D01*
X113464616Y-53621269D01*
X113423817Y-53594009D01*
X113419796Y-53591027D01*
X113381867Y-53559899D01*
X113378159Y-53556538D01*
X113343462Y-53521841D01*
X113340101Y-53518133D01*
X113308973Y-53480204D01*
X113305991Y-53476183D01*
X113278731Y-53435384D01*
X113276158Y-53431093D01*
X113253027Y-53387820D01*
X113250887Y-53383294D01*
X113232110Y-53337961D01*
X113230424Y-53333250D01*
X113216180Y-53286295D01*
X113214964Y-53281439D01*
X113205392Y-53233314D01*
X113204658Y-53228364D01*
X113199848Y-53179533D01*
X113199602Y-53174534D01*
X113199602Y-53156112D01*
X113199000Y-53150000D01*
X113199000Y-52650000D01*
X113199980Y-52640050D01*
X113199980Y-52640050D01*
G37*
D22*
X114000000Y-51850000D03*
D11*
G36*
X113199602Y-51843888D02*
G01*
X113199602Y-51825466D01*
X113199848Y-51820467D01*
X113204658Y-51771636D01*
X113205392Y-51766686D01*
X113214964Y-51718561D01*
X113216180Y-51713705D01*
X113230424Y-51666750D01*
X113232110Y-51662039D01*
X113250887Y-51616706D01*
X113253027Y-51612180D01*
X113276158Y-51568907D01*
X113278731Y-51564616D01*
X113305991Y-51523817D01*
X113308973Y-51519796D01*
X113340101Y-51481867D01*
X113343462Y-51478159D01*
X113378159Y-51443462D01*
X113381867Y-51440101D01*
X113419796Y-51408973D01*
X113423817Y-51405991D01*
X113464616Y-51378731D01*
X113468907Y-51376158D01*
X113512180Y-51353027D01*
X113516706Y-51350887D01*
X113562039Y-51332110D01*
X113566750Y-51330424D01*
X113613705Y-51316180D01*
X113618561Y-51314964D01*
X113666686Y-51305392D01*
X113671636Y-51304658D01*
X113720467Y-51299848D01*
X113725466Y-51299602D01*
X113743888Y-51299602D01*
X113750000Y-51299000D01*
X114250000Y-51299000D01*
X114256112Y-51299602D01*
X114274534Y-51299602D01*
X114279533Y-51299848D01*
X114328364Y-51304658D01*
X114333314Y-51305392D01*
X114381439Y-51314964D01*
X114386295Y-51316180D01*
X114433250Y-51330424D01*
X114437961Y-51332110D01*
X114483294Y-51350887D01*
X114487820Y-51353027D01*
X114531093Y-51376158D01*
X114535384Y-51378731D01*
X114576183Y-51405991D01*
X114580204Y-51408973D01*
X114618133Y-51440101D01*
X114621841Y-51443462D01*
X114656538Y-51478159D01*
X114659899Y-51481867D01*
X114691027Y-51519796D01*
X114694009Y-51523817D01*
X114721269Y-51564616D01*
X114723842Y-51568907D01*
X114746973Y-51612180D01*
X114749113Y-51616706D01*
X114767890Y-51662039D01*
X114769576Y-51666750D01*
X114783820Y-51713705D01*
X114785036Y-51718561D01*
X114794608Y-51766686D01*
X114795342Y-51771636D01*
X114800152Y-51820467D01*
X114800398Y-51825466D01*
X114800398Y-51843888D01*
X114801000Y-51850000D01*
X114801000Y-52350000D01*
X114800020Y-52359950D01*
X114797118Y-52369517D01*
X114792405Y-52378334D01*
X114786062Y-52386062D01*
X114778334Y-52392405D01*
X114769517Y-52397118D01*
X114759950Y-52400020D01*
X114750000Y-52401000D01*
X113250000Y-52401000D01*
X113240050Y-52400020D01*
X113230483Y-52397118D01*
X113221666Y-52392405D01*
X113213938Y-52386062D01*
X113207595Y-52378334D01*
X113202882Y-52369517D01*
X113199980Y-52359950D01*
X113199000Y-52350000D01*
X113199000Y-51850000D01*
X113199602Y-51843888D01*
X113199602Y-51843888D01*
G37*
D20*
X144500000Y-64420000D03*
D21*
X144500000Y-69500000D03*
D11*
G36*
X144985423Y-63200284D02*
G01*
X145011314Y-63204125D01*
X145036705Y-63210485D01*
X145061349Y-63219303D01*
X145085011Y-63230494D01*
X145107462Y-63243950D01*
X145128485Y-63259543D01*
X145147880Y-63277120D01*
X145165457Y-63296515D01*
X145181050Y-63317538D01*
X145194506Y-63339989D01*
X145205697Y-63363651D01*
X145214515Y-63388295D01*
X145220875Y-63413686D01*
X145224716Y-63439577D01*
X145226000Y-63465720D01*
X145226000Y-64559280D01*
X145224716Y-64585423D01*
X145220875Y-64611314D01*
X145214515Y-64636705D01*
X145205697Y-64661349D01*
X145194506Y-64685011D01*
X145181050Y-64707462D01*
X145165457Y-64728485D01*
X145147880Y-64747880D01*
X145128485Y-64765457D01*
X145107462Y-64781050D01*
X145085011Y-64794506D01*
X145061349Y-64805697D01*
X145036705Y-64814515D01*
X145011314Y-64820875D01*
X144985423Y-64824716D01*
X144959280Y-64826000D01*
X142040720Y-64826000D01*
X142014577Y-64824716D01*
X141988686Y-64820875D01*
X141963295Y-64814515D01*
X141938651Y-64805697D01*
X141914989Y-64794506D01*
X141892538Y-64781050D01*
X141871515Y-64765457D01*
X141852120Y-64747880D01*
X141834543Y-64728485D01*
X141818950Y-64707462D01*
X141805494Y-64685011D01*
X141794303Y-64661349D01*
X141785485Y-64636705D01*
X141779125Y-64611314D01*
X141775284Y-64585423D01*
X141774000Y-64559280D01*
X141774000Y-63465720D01*
X141775284Y-63439577D01*
X141779125Y-63413686D01*
X141785485Y-63388295D01*
X141794303Y-63363651D01*
X141805494Y-63339989D01*
X141818950Y-63317538D01*
X141834543Y-63296515D01*
X141852120Y-63277120D01*
X141871515Y-63259543D01*
X141892538Y-63243950D01*
X141914989Y-63230494D01*
X141938651Y-63219303D01*
X141963295Y-63210485D01*
X141988686Y-63204125D01*
X142014577Y-63200284D01*
X142040720Y-63199000D01*
X144959280Y-63199000D01*
X144985423Y-63200284D01*
X144985423Y-63200284D01*
G37*
D23*
X143500000Y-64012500D03*
D11*
G36*
X144985423Y-69175284D02*
G01*
X145011314Y-69179125D01*
X145036705Y-69185485D01*
X145061349Y-69194303D01*
X145085011Y-69205494D01*
X145107462Y-69218950D01*
X145128485Y-69234543D01*
X145147880Y-69252120D01*
X145165457Y-69271515D01*
X145181050Y-69292538D01*
X145194506Y-69314989D01*
X145205697Y-69338651D01*
X145214515Y-69363295D01*
X145220875Y-69388686D01*
X145224716Y-69414577D01*
X145226000Y-69440720D01*
X145226000Y-70534280D01*
X145224716Y-70560423D01*
X145220875Y-70586314D01*
X145214515Y-70611705D01*
X145205697Y-70636349D01*
X145194506Y-70660011D01*
X145181050Y-70682462D01*
X145165457Y-70703485D01*
X145147880Y-70722880D01*
X145128485Y-70740457D01*
X145107462Y-70756050D01*
X145085011Y-70769506D01*
X145061349Y-70780697D01*
X145036705Y-70789515D01*
X145011314Y-70795875D01*
X144985423Y-70799716D01*
X144959280Y-70801000D01*
X142040720Y-70801000D01*
X142014577Y-70799716D01*
X141988686Y-70795875D01*
X141963295Y-70789515D01*
X141938651Y-70780697D01*
X141914989Y-70769506D01*
X141892538Y-70756050D01*
X141871515Y-70740457D01*
X141852120Y-70722880D01*
X141834543Y-70703485D01*
X141818950Y-70682462D01*
X141805494Y-70660011D01*
X141794303Y-70636349D01*
X141785485Y-70611705D01*
X141779125Y-70586314D01*
X141775284Y-70560423D01*
X141774000Y-70534280D01*
X141774000Y-69440720D01*
X141775284Y-69414577D01*
X141779125Y-69388686D01*
X141785485Y-69363295D01*
X141794303Y-69338651D01*
X141805494Y-69314989D01*
X141818950Y-69292538D01*
X141834543Y-69271515D01*
X141852120Y-69252120D01*
X141871515Y-69234543D01*
X141892538Y-69218950D01*
X141914989Y-69205494D01*
X141938651Y-69194303D01*
X141963295Y-69185485D01*
X141988686Y-69179125D01*
X142014577Y-69175284D01*
X142040720Y-69174000D01*
X144959280Y-69174000D01*
X144985423Y-69175284D01*
X144985423Y-69175284D01*
G37*
D23*
X143500000Y-69987500D03*
D19*
X149827856Y-74000000D03*
D24*
X156172144Y-78000000D03*
D19*
X150500000Y-76000000D03*
D24*
X155500000Y-76000000D03*
D25*
X101000000Y-46000000D03*
D26*
X97500000Y-46000000D03*
D27*
X136040000Y-79075000D03*
X133500000Y-72925000D03*
X130960000Y-79075000D03*
D28*
X97235000Y-63005000D03*
X121335000Y-75805000D03*
X117535000Y-75805000D03*
D29*
X125135000Y-59205000D03*
D28*
X125135000Y-63005000D03*
X125135000Y-66805000D03*
X125135000Y-70605000D03*
D29*
X125135000Y-74405000D03*
D28*
X97235000Y-74405000D03*
X97235000Y-66805000D03*
X97235000Y-59205000D03*
D30*
X144000000Y-34080000D03*
D31*
X149075000Y-56155000D03*
X138925000Y-56155000D03*
D32*
X114920000Y-81250000D03*
X117460000Y-81250000D03*
X120000000Y-81250000D03*
D33*
X122540000Y-81250000D03*
D34*
X112000000Y-37500000D03*
X112000000Y-42500000D03*
X107000000Y-37500000D03*
D35*
X107000000Y-42500000D03*
D11*
G36*
X123009363Y-51075290D02*
G01*
X123035369Y-51079148D01*
X123060871Y-51085535D01*
X123085624Y-51094392D01*
X123109390Y-51105633D01*
X123131939Y-51119148D01*
X123153056Y-51134809D01*
X123172535Y-51152465D01*
X123190191Y-51171944D01*
X123205852Y-51193061D01*
X123219367Y-51215610D01*
X123230608Y-51239376D01*
X123239465Y-51264129D01*
X123245852Y-51289631D01*
X123249710Y-51315637D01*
X123251000Y-51341895D01*
X123251000Y-52658105D01*
X123249710Y-52684363D01*
X123245852Y-52710369D01*
X123239465Y-52735871D01*
X123230608Y-52760624D01*
X123219367Y-52784390D01*
X123205852Y-52806939D01*
X123190191Y-52828056D01*
X123172535Y-52847535D01*
X123153056Y-52865191D01*
X123131939Y-52880852D01*
X123109390Y-52894367D01*
X123085624Y-52905608D01*
X123060871Y-52914465D01*
X123035369Y-52920852D01*
X123009363Y-52924710D01*
X122983105Y-52926000D01*
X121991895Y-52926000D01*
X121965637Y-52924710D01*
X121939631Y-52920852D01*
X121914129Y-52914465D01*
X121889376Y-52905608D01*
X121865610Y-52894367D01*
X121843061Y-52880852D01*
X121821944Y-52865191D01*
X121802465Y-52847535D01*
X121784809Y-52828056D01*
X121769148Y-52806939D01*
X121755633Y-52784390D01*
X121744392Y-52760624D01*
X121735535Y-52735871D01*
X121729148Y-52710369D01*
X121725290Y-52684363D01*
X121724000Y-52658105D01*
X121724000Y-51341895D01*
X121725290Y-51315637D01*
X121729148Y-51289631D01*
X121735535Y-51264129D01*
X121744392Y-51239376D01*
X121755633Y-51215610D01*
X121769148Y-51193061D01*
X121784809Y-51171944D01*
X121802465Y-51152465D01*
X121821944Y-51134809D01*
X121843061Y-51119148D01*
X121865610Y-51105633D01*
X121889376Y-51094392D01*
X121914129Y-51085535D01*
X121939631Y-51079148D01*
X121965637Y-51075290D01*
X121991895Y-51074000D01*
X122983105Y-51074000D01*
X123009363Y-51075290D01*
X123009363Y-51075290D01*
G37*
D18*
X122487500Y-52000000D03*
D11*
G36*
X120034363Y-51075290D02*
G01*
X120060369Y-51079148D01*
X120085871Y-51085535D01*
X120110624Y-51094392D01*
X120134390Y-51105633D01*
X120156939Y-51119148D01*
X120178056Y-51134809D01*
X120197535Y-51152465D01*
X120215191Y-51171944D01*
X120230852Y-51193061D01*
X120244367Y-51215610D01*
X120255608Y-51239376D01*
X120264465Y-51264129D01*
X120270852Y-51289631D01*
X120274710Y-51315637D01*
X120276000Y-51341895D01*
X120276000Y-52658105D01*
X120274710Y-52684363D01*
X120270852Y-52710369D01*
X120264465Y-52735871D01*
X120255608Y-52760624D01*
X120244367Y-52784390D01*
X120230852Y-52806939D01*
X120215191Y-52828056D01*
X120197535Y-52847535D01*
X120178056Y-52865191D01*
X120156939Y-52880852D01*
X120134390Y-52894367D01*
X120110624Y-52905608D01*
X120085871Y-52914465D01*
X120060369Y-52920852D01*
X120034363Y-52924710D01*
X120008105Y-52926000D01*
X119016895Y-52926000D01*
X118990637Y-52924710D01*
X118964631Y-52920852D01*
X118939129Y-52914465D01*
X118914376Y-52905608D01*
X118890610Y-52894367D01*
X118868061Y-52880852D01*
X118846944Y-52865191D01*
X118827465Y-52847535D01*
X118809809Y-52828056D01*
X118794148Y-52806939D01*
X118780633Y-52784390D01*
X118769392Y-52760624D01*
X118760535Y-52735871D01*
X118754148Y-52710369D01*
X118750290Y-52684363D01*
X118749000Y-52658105D01*
X118749000Y-51341895D01*
X118750290Y-51315637D01*
X118754148Y-51289631D01*
X118760535Y-51264129D01*
X118769392Y-51239376D01*
X118780633Y-51215610D01*
X118794148Y-51193061D01*
X118809809Y-51171944D01*
X118827465Y-51152465D01*
X118846944Y-51134809D01*
X118868061Y-51119148D01*
X118890610Y-51105633D01*
X118914376Y-51094392D01*
X118939129Y-51085535D01*
X118964631Y-51079148D01*
X118990637Y-51075290D01*
X119016895Y-51074000D01*
X120008105Y-51074000D01*
X120034363Y-51075290D01*
X120034363Y-51075290D01*
G37*
D18*
X119512500Y-52000000D03*
D11*
G36*
X163880505Y-70750311D02*
G01*
X163906925Y-70754230D01*
X163932835Y-70760720D01*
X163957983Y-70769718D01*
X163982128Y-70781138D01*
X164005038Y-70794869D01*
X164026492Y-70810780D01*
X164046282Y-70828718D01*
X164064220Y-70848508D01*
X164080131Y-70869962D01*
X164093862Y-70892872D01*
X164105282Y-70917017D01*
X164114280Y-70942165D01*
X164120770Y-70968075D01*
X164124689Y-70994495D01*
X164126000Y-71021173D01*
X164126000Y-71978827D01*
X164124689Y-72005505D01*
X164120770Y-72031925D01*
X164114280Y-72057835D01*
X164105282Y-72082983D01*
X164093862Y-72107128D01*
X164080131Y-72130038D01*
X164064220Y-72151492D01*
X164046282Y-72171282D01*
X164026492Y-72189220D01*
X164005038Y-72205131D01*
X163982128Y-72218862D01*
X163957983Y-72230282D01*
X163932835Y-72239280D01*
X163906925Y-72245770D01*
X163880505Y-72249689D01*
X163853827Y-72251000D01*
X163146173Y-72251000D01*
X163119495Y-72249689D01*
X163093075Y-72245770D01*
X163067165Y-72239280D01*
X163042017Y-72230282D01*
X163017872Y-72218862D01*
X162994962Y-72205131D01*
X162973508Y-72189220D01*
X162953718Y-72171282D01*
X162935780Y-72151492D01*
X162919869Y-72130038D01*
X162906138Y-72107128D01*
X162894718Y-72082983D01*
X162885720Y-72057835D01*
X162879230Y-72031925D01*
X162875311Y-72005505D01*
X162874000Y-71978827D01*
X162874000Y-71021173D01*
X162875311Y-70994495D01*
X162879230Y-70968075D01*
X162885720Y-70942165D01*
X162894718Y-70917017D01*
X162906138Y-70892872D01*
X162919869Y-70869962D01*
X162935780Y-70848508D01*
X162953718Y-70828718D01*
X162973508Y-70810780D01*
X162994962Y-70794869D01*
X163017872Y-70781138D01*
X163042017Y-70769718D01*
X163067165Y-70760720D01*
X163093075Y-70754230D01*
X163119495Y-70750311D01*
X163146173Y-70749000D01*
X163853827Y-70749000D01*
X163880505Y-70750311D01*
X163880505Y-70750311D01*
G37*
D36*
X163500000Y-71500000D03*
D11*
G36*
X161830505Y-70750311D02*
G01*
X161856925Y-70754230D01*
X161882835Y-70760720D01*
X161907983Y-70769718D01*
X161932128Y-70781138D01*
X161955038Y-70794869D01*
X161976492Y-70810780D01*
X161996282Y-70828718D01*
X162014220Y-70848508D01*
X162030131Y-70869962D01*
X162043862Y-70892872D01*
X162055282Y-70917017D01*
X162064280Y-70942165D01*
X162070770Y-70968075D01*
X162074689Y-70994495D01*
X162076000Y-71021173D01*
X162076000Y-71978827D01*
X162074689Y-72005505D01*
X162070770Y-72031925D01*
X162064280Y-72057835D01*
X162055282Y-72082983D01*
X162043862Y-72107128D01*
X162030131Y-72130038D01*
X162014220Y-72151492D01*
X161996282Y-72171282D01*
X161976492Y-72189220D01*
X161955038Y-72205131D01*
X161932128Y-72218862D01*
X161907983Y-72230282D01*
X161882835Y-72239280D01*
X161856925Y-72245770D01*
X161830505Y-72249689D01*
X161803827Y-72251000D01*
X161096173Y-72251000D01*
X161069495Y-72249689D01*
X161043075Y-72245770D01*
X161017165Y-72239280D01*
X160992017Y-72230282D01*
X160967872Y-72218862D01*
X160944962Y-72205131D01*
X160923508Y-72189220D01*
X160903718Y-72171282D01*
X160885780Y-72151492D01*
X160869869Y-72130038D01*
X160856138Y-72107128D01*
X160844718Y-72082983D01*
X160835720Y-72057835D01*
X160829230Y-72031925D01*
X160825311Y-72005505D01*
X160824000Y-71978827D01*
X160824000Y-71021173D01*
X160825311Y-70994495D01*
X160829230Y-70968075D01*
X160835720Y-70942165D01*
X160844718Y-70917017D01*
X160856138Y-70892872D01*
X160869869Y-70869962D01*
X160885780Y-70848508D01*
X160903718Y-70828718D01*
X160923508Y-70810780D01*
X160944962Y-70794869D01*
X160967872Y-70781138D01*
X160992017Y-70769718D01*
X161017165Y-70760720D01*
X161043075Y-70754230D01*
X161069495Y-70750311D01*
X161096173Y-70749000D01*
X161803827Y-70749000D01*
X161830505Y-70750311D01*
X161830505Y-70750311D01*
G37*
D36*
X161450000Y-71500000D03*
D25*
X151000000Y-65500000D03*
D26*
X154500000Y-65500000D03*
D25*
X136000000Y-67500000D03*
D26*
X136000000Y-64000000D03*
D11*
G36*
X111684363Y-49250290D02*
G01*
X111710369Y-49254148D01*
X111735871Y-49260535D01*
X111760624Y-49269392D01*
X111784390Y-49280633D01*
X111806939Y-49294148D01*
X111828056Y-49309809D01*
X111847535Y-49327465D01*
X111865191Y-49346944D01*
X111880852Y-49368061D01*
X111894367Y-49390610D01*
X111905608Y-49414376D01*
X111914465Y-49439129D01*
X111920852Y-49464631D01*
X111924710Y-49490637D01*
X111926000Y-49516895D01*
X111926000Y-50508105D01*
X111924710Y-50534363D01*
X111920852Y-50560369D01*
X111914465Y-50585871D01*
X111905608Y-50610624D01*
X111894367Y-50634390D01*
X111880852Y-50656939D01*
X111865191Y-50678056D01*
X111847535Y-50697535D01*
X111828056Y-50715191D01*
X111806939Y-50730852D01*
X111784390Y-50744367D01*
X111760624Y-50755608D01*
X111735871Y-50764465D01*
X111710369Y-50770852D01*
X111684363Y-50774710D01*
X111658105Y-50776000D01*
X110341895Y-50776000D01*
X110315637Y-50774710D01*
X110289631Y-50770852D01*
X110264129Y-50764465D01*
X110239376Y-50755608D01*
X110215610Y-50744367D01*
X110193061Y-50730852D01*
X110171944Y-50715191D01*
X110152465Y-50697535D01*
X110134809Y-50678056D01*
X110119148Y-50656939D01*
X110105633Y-50634390D01*
X110094392Y-50610624D01*
X110085535Y-50585871D01*
X110079148Y-50560369D01*
X110075290Y-50534363D01*
X110074000Y-50508105D01*
X110074000Y-49516895D01*
X110075290Y-49490637D01*
X110079148Y-49464631D01*
X110085535Y-49439129D01*
X110094392Y-49414376D01*
X110105633Y-49390610D01*
X110119148Y-49368061D01*
X110134809Y-49346944D01*
X110152465Y-49327465D01*
X110171944Y-49309809D01*
X110193061Y-49294148D01*
X110215610Y-49280633D01*
X110239376Y-49269392D01*
X110264129Y-49260535D01*
X110289631Y-49254148D01*
X110315637Y-49250290D01*
X110341895Y-49249000D01*
X111658105Y-49249000D01*
X111684363Y-49250290D01*
X111684363Y-49250290D01*
G37*
D18*
X111000000Y-50012500D03*
D11*
G36*
X111684363Y-52225290D02*
G01*
X111710369Y-52229148D01*
X111735871Y-52235535D01*
X111760624Y-52244392D01*
X111784390Y-52255633D01*
X111806939Y-52269148D01*
X111828056Y-52284809D01*
X111847535Y-52302465D01*
X111865191Y-52321944D01*
X111880852Y-52343061D01*
X111894367Y-52365610D01*
X111905608Y-52389376D01*
X111914465Y-52414129D01*
X111920852Y-52439631D01*
X111924710Y-52465637D01*
X111926000Y-52491895D01*
X111926000Y-53483105D01*
X111924710Y-53509363D01*
X111920852Y-53535369D01*
X111914465Y-53560871D01*
X111905608Y-53585624D01*
X111894367Y-53609390D01*
X111880852Y-53631939D01*
X111865191Y-53653056D01*
X111847535Y-53672535D01*
X111828056Y-53690191D01*
X111806939Y-53705852D01*
X111784390Y-53719367D01*
X111760624Y-53730608D01*
X111735871Y-53739465D01*
X111710369Y-53745852D01*
X111684363Y-53749710D01*
X111658105Y-53751000D01*
X110341895Y-53751000D01*
X110315637Y-53749710D01*
X110289631Y-53745852D01*
X110264129Y-53739465D01*
X110239376Y-53730608D01*
X110215610Y-53719367D01*
X110193061Y-53705852D01*
X110171944Y-53690191D01*
X110152465Y-53672535D01*
X110134809Y-53653056D01*
X110119148Y-53631939D01*
X110105633Y-53609390D01*
X110094392Y-53585624D01*
X110085535Y-53560871D01*
X110079148Y-53535369D01*
X110075290Y-53509363D01*
X110074000Y-53483105D01*
X110074000Y-52491895D01*
X110075290Y-52465637D01*
X110079148Y-52439631D01*
X110085535Y-52414129D01*
X110094392Y-52389376D01*
X110105633Y-52365610D01*
X110119148Y-52343061D01*
X110134809Y-52321944D01*
X110152465Y-52302465D01*
X110171944Y-52284809D01*
X110193061Y-52269148D01*
X110215610Y-52255633D01*
X110239376Y-52244392D01*
X110264129Y-52235535D01*
X110289631Y-52229148D01*
X110315637Y-52225290D01*
X110341895Y-52224000D01*
X111658105Y-52224000D01*
X111684363Y-52225290D01*
X111684363Y-52225290D01*
G37*
D18*
X111000000Y-52987500D03*
D11*
G36*
X100996863Y-52075290D02*
G01*
X101022869Y-52079148D01*
X101048371Y-52085535D01*
X101073124Y-52094392D01*
X101096890Y-52105633D01*
X101119439Y-52119148D01*
X101140556Y-52134809D01*
X101160035Y-52152465D01*
X101177691Y-52171944D01*
X101193352Y-52193061D01*
X101206867Y-52215610D01*
X101218108Y-52239376D01*
X101226965Y-52264129D01*
X101233352Y-52289631D01*
X101237210Y-52315637D01*
X101238500Y-52341895D01*
X101238500Y-53658105D01*
X101237210Y-53684363D01*
X101233352Y-53710369D01*
X101226965Y-53735871D01*
X101218108Y-53760624D01*
X101206867Y-53784390D01*
X101193352Y-53806939D01*
X101177691Y-53828056D01*
X101160035Y-53847535D01*
X101140556Y-53865191D01*
X101119439Y-53880852D01*
X101096890Y-53894367D01*
X101073124Y-53905608D01*
X101048371Y-53914465D01*
X101022869Y-53920852D01*
X100996863Y-53924710D01*
X100970605Y-53926000D01*
X99979395Y-53926000D01*
X99953137Y-53924710D01*
X99927131Y-53920852D01*
X99901629Y-53914465D01*
X99876876Y-53905608D01*
X99853110Y-53894367D01*
X99830561Y-53880852D01*
X99809444Y-53865191D01*
X99789965Y-53847535D01*
X99772309Y-53828056D01*
X99756648Y-53806939D01*
X99743133Y-53784390D01*
X99731892Y-53760624D01*
X99723035Y-53735871D01*
X99716648Y-53710369D01*
X99712790Y-53684363D01*
X99711500Y-53658105D01*
X99711500Y-52341895D01*
X99712790Y-52315637D01*
X99716648Y-52289631D01*
X99723035Y-52264129D01*
X99731892Y-52239376D01*
X99743133Y-52215610D01*
X99756648Y-52193061D01*
X99772309Y-52171944D01*
X99789965Y-52152465D01*
X99809444Y-52134809D01*
X99830561Y-52119148D01*
X99853110Y-52105633D01*
X99876876Y-52094392D01*
X99901629Y-52085535D01*
X99927131Y-52079148D01*
X99953137Y-52075290D01*
X99979395Y-52074000D01*
X100970605Y-52074000D01*
X100996863Y-52075290D01*
X100996863Y-52075290D01*
G37*
D18*
X100475000Y-53000000D03*
D11*
G36*
X98021863Y-52075290D02*
G01*
X98047869Y-52079148D01*
X98073371Y-52085535D01*
X98098124Y-52094392D01*
X98121890Y-52105633D01*
X98144439Y-52119148D01*
X98165556Y-52134809D01*
X98185035Y-52152465D01*
X98202691Y-52171944D01*
X98218352Y-52193061D01*
X98231867Y-52215610D01*
X98243108Y-52239376D01*
X98251965Y-52264129D01*
X98258352Y-52289631D01*
X98262210Y-52315637D01*
X98263500Y-52341895D01*
X98263500Y-53658105D01*
X98262210Y-53684363D01*
X98258352Y-53710369D01*
X98251965Y-53735871D01*
X98243108Y-53760624D01*
X98231867Y-53784390D01*
X98218352Y-53806939D01*
X98202691Y-53828056D01*
X98185035Y-53847535D01*
X98165556Y-53865191D01*
X98144439Y-53880852D01*
X98121890Y-53894367D01*
X98098124Y-53905608D01*
X98073371Y-53914465D01*
X98047869Y-53920852D01*
X98021863Y-53924710D01*
X97995605Y-53926000D01*
X97004395Y-53926000D01*
X96978137Y-53924710D01*
X96952131Y-53920852D01*
X96926629Y-53914465D01*
X96901876Y-53905608D01*
X96878110Y-53894367D01*
X96855561Y-53880852D01*
X96834444Y-53865191D01*
X96814965Y-53847535D01*
X96797309Y-53828056D01*
X96781648Y-53806939D01*
X96768133Y-53784390D01*
X96756892Y-53760624D01*
X96748035Y-53735871D01*
X96741648Y-53710369D01*
X96737790Y-53684363D01*
X96736500Y-53658105D01*
X96736500Y-52341895D01*
X96737790Y-52315637D01*
X96741648Y-52289631D01*
X96748035Y-52264129D01*
X96756892Y-52239376D01*
X96768133Y-52215610D01*
X96781648Y-52193061D01*
X96797309Y-52171944D01*
X96814965Y-52152465D01*
X96834444Y-52134809D01*
X96855561Y-52119148D01*
X96878110Y-52105633D01*
X96901876Y-52094392D01*
X96926629Y-52085535D01*
X96952131Y-52079148D01*
X96978137Y-52075290D01*
X97004395Y-52074000D01*
X97995605Y-52074000D01*
X98021863Y-52075290D01*
X98021863Y-52075290D01*
G37*
D18*
X97500000Y-53000000D03*
M02*
