%FSLAX45Y45*%
G04 Gerber Fmt 4.5, Leading zero omitted, Abs format (unit mm)*
G04 Created by KiCad (PCBNEW (5.1.4)-1) date 2021-06-03 13:55:01*
%MOMM*%
%LPD*%
G04 APERTURE LIST*
%ADD10C,0.050000*%
%ADD11C,0.200000*%
%ADD12C,0.300000*%
G04 APERTURE END LIST*
D10*
X17100000Y-2950000D02*
X9250000Y-2950000D01*
X17100000Y-8550000D02*
X17100000Y-2950000D01*
X9250000Y-8550000D02*
X17100000Y-8550000D01*
X9250000Y-2950000D02*
X9250000Y-8550000D01*
D11*
D12*
X9533928Y-9018214D02*
X9533928Y-8718214D01*
X9605357Y-8718214D01*
X9648214Y-8732500D01*
X9676786Y-8761072D01*
X9691071Y-8789643D01*
X9705357Y-8846786D01*
X9705357Y-8889643D01*
X9691071Y-8946786D01*
X9676786Y-8975357D01*
X9648214Y-9003929D01*
X9605357Y-9018214D01*
X9533928Y-9018214D01*
X9833928Y-9018214D02*
X9833928Y-8818214D01*
X9833928Y-8875357D02*
X9848214Y-8846786D01*
X9862500Y-8832500D01*
X9891071Y-8818214D01*
X9919643Y-8818214D01*
X10019643Y-9018214D02*
X10019643Y-8818214D01*
X10019643Y-8718214D02*
X10005357Y-8732500D01*
X10019643Y-8746786D01*
X10033928Y-8732500D01*
X10019643Y-8718214D01*
X10019643Y-8746786D01*
X10205357Y-9018214D02*
X10176786Y-9003929D01*
X10162500Y-8975357D01*
X10162500Y-8718214D01*
X10362500Y-9018214D02*
X10333928Y-9003929D01*
X10319643Y-8975357D01*
X10319643Y-8718214D01*
X10705357Y-9018214D02*
X10705357Y-8718214D01*
X10805357Y-8932500D01*
X10905357Y-8718214D01*
X10905357Y-9018214D01*
X11176786Y-9018214D02*
X11176786Y-8861072D01*
X11162500Y-8832500D01*
X11133928Y-8818214D01*
X11076786Y-8818214D01*
X11048214Y-8832500D01*
X11176786Y-9003929D02*
X11148214Y-9018214D01*
X11076786Y-9018214D01*
X11048214Y-9003929D01*
X11033928Y-8975357D01*
X11033928Y-8946786D01*
X11048214Y-8918214D01*
X11076786Y-8903929D01*
X11148214Y-8903929D01*
X11176786Y-8889643D01*
X11319643Y-8818214D02*
X11319643Y-9118214D01*
X11319643Y-8832500D02*
X11348214Y-8818214D01*
X11405357Y-8818214D01*
X11433928Y-8832500D01*
X11448214Y-8846786D01*
X11462500Y-8875357D01*
X11462500Y-8961072D01*
X11448214Y-8989643D01*
X11433928Y-9003929D01*
X11405357Y-9018214D01*
X11348214Y-9018214D01*
X11319643Y-9003929D01*
X11591071Y-8989643D02*
X11605357Y-9003929D01*
X11591071Y-9018214D01*
X11576786Y-9003929D01*
X11591071Y-8989643D01*
X11591071Y-9018214D01*
X11591071Y-8832500D02*
X11605357Y-8846786D01*
X11591071Y-8861072D01*
X11576786Y-8846786D01*
X11591071Y-8832500D01*
X11591071Y-8861072D01*
M02*
