M48
; DRILL file {KiCad (5.1.4)-1} date 05/09/2021 23:44:08
; FORMAT={-:-/ absolute / metric / decimal}
; #@! TF.CreationDate,2021-09-05T23:44:08-04:00
; #@! TF.GenerationSoftware,Kicad,Pcbnew,(5.1.4)-1
; #@! TF.FileFunction,Plated,1,2,PTH
FMAT,2
METRIC
T1C0.400
T2C1.000
T3C1.100
%
G90
G05
T1
X103.5Y-49.0
X103.5Y-51.5
X103.5Y-54.0
X103.5Y-56.5
X103.5Y-59.0
X103.5Y-61.5
X103.5Y-64.0
X103.5Y-66.5
X103.5Y-69.0
X103.5Y-71.5
X103.5Y-73.5
X103.5Y-76.0
X103.5Y-78.5
X103.5Y-81.0
X103.5Y-83.5
X103.5Y-86.0
X103.5Y-88.5
X103.5Y-91.0
X103.5Y-93.5
X103.5Y-96.0
X103.5Y-99.75
X103.5Y-102.25
X103.5Y-104.75
X103.5Y-107.25
X103.5Y-109.75
X103.5Y-112.25
X103.5Y-114.75
X103.5Y-117.25
X103.5Y-119.75
X103.5Y-122.25
X105.75Y-59.75
X106.0Y-49.0
X106.0Y-96.0
X106.0Y-99.75
X106.0Y-122.25
X106.25Y-93.25
X106.25Y-119.5
X106.5Y-83.5
X106.5Y-85.75
X106.5Y-109.75
X106.5Y-112.0
X106.9Y-89.75
X106.9Y-116.0
X107.0Y-52.0
X108.5Y-49.0
X108.5Y-58.25
X108.5Y-96.0
X108.5Y-99.75
X108.5Y-122.25
X110.938Y-81.812
X110.938Y-108.062
X111.0Y-49.0
X111.0Y-71.5
X111.0Y-73.5
X111.0Y-96.0
X111.0Y-99.75
X111.0Y-122.25
X113.5Y-49.0
X113.5Y-71.5
X113.5Y-73.5
X113.5Y-96.0
X113.5Y-99.75
X113.5Y-122.25
X114.5Y-63.0
X114.75Y-66.75
X114.75Y-69.75
X115.75Y-63.0
X116.0Y-49.0
X116.0Y-71.5
X116.0Y-73.5
X116.0Y-96.0
X116.0Y-99.75
X116.0Y-122.25
X117.25Y-50.75
X118.5Y-49.0
X118.5Y-71.5
X118.5Y-73.5
X118.5Y-96.0
X118.5Y-99.75
X118.5Y-122.25
X119.25Y-89.0
X119.25Y-115.25
X119.75Y-51.0
X119.75Y-52.75
X120.25Y-93.0
X120.25Y-119.25
X121.0Y-49.0
X121.0Y-71.5
X121.0Y-73.5
X121.0Y-96.0
X121.0Y-99.75
X121.0Y-122.25
X121.7Y-89.0
X121.7Y-115.25
X123.0Y-93.0
X123.0Y-119.25
X123.5Y-49.0
X123.5Y-71.5
X123.5Y-73.5
X123.5Y-96.0
X123.5Y-99.75
X123.5Y-122.25
X125.5Y-67.75
X125.5Y-69.5
X126.0Y-49.0
X126.0Y-71.5
X126.0Y-73.5
X126.0Y-96.0
X126.0Y-99.75
X126.0Y-122.25
X126.5Y-56.75
X127.462Y-92.25
X127.462Y-118.5
X127.75Y-54.5
X128.25Y-59.25
X128.5Y-49.0
X128.5Y-71.5
X128.5Y-73.5
X128.5Y-96.0
X128.5Y-99.75
X128.5Y-122.25
X129.0Y-51.75
X130.25Y-76.5
X130.25Y-78.25
X130.25Y-102.75
X130.25Y-104.5
X131.0Y-49.0
X131.0Y-71.5
X131.0Y-73.5
X131.0Y-96.0
X131.0Y-99.75
X131.0Y-122.25
X133.5Y-49.0
X133.5Y-71.5
X133.5Y-73.5
X133.5Y-96.0
X133.5Y-99.75
X133.5Y-122.25
X136.0Y-49.0
X136.0Y-71.5
X136.0Y-73.5
X136.0Y-96.0
X136.0Y-99.75
X136.0Y-122.25
X136.75Y-69.25
X138.25Y-82.0
X138.25Y-108.25
X138.5Y-49.0
X138.5Y-71.5
X138.5Y-73.5
X138.5Y-80.75
X138.5Y-96.0
X138.5Y-99.75
X138.5Y-107.0
X138.5Y-122.25
X138.75Y-89.0
X138.75Y-94.0
X138.75Y-115.25
X138.75Y-120.25
X139.75Y-81.5
X139.75Y-92.25
X139.75Y-107.75
X139.75Y-118.5
X141.0Y-49.0
X141.0Y-51.25
X141.0Y-53.75
X141.0Y-71.5
X141.0Y-73.5
X141.0Y-96.0
X141.0Y-99.75
X141.0Y-122.25
X143.25Y-83.0
X143.25Y-109.25
X143.5Y-49.0
X143.5Y-71.5
X143.5Y-73.5
X143.5Y-96.0
X143.5Y-99.75
X143.5Y-122.25
X143.75Y-51.75
X144.75Y-67.75
X144.75Y-89.0
X144.75Y-115.25
X145.0Y-92.75
X145.0Y-119.0
X146.0Y-49.0
X146.0Y-71.5
X146.0Y-73.5
X146.0Y-96.0
X146.0Y-99.75
X146.0Y-122.25
X147.25Y-68.75
X148.5Y-49.0
X148.5Y-71.5
X148.5Y-73.5
X148.5Y-96.0
X148.5Y-99.75
X148.5Y-122.25
X149.96Y-65.79
X150.0Y-84.75
X150.0Y-86.5
X150.0Y-92.75
X150.0Y-111.0
X150.0Y-112.75
X150.0Y-119.0
X151.0Y-49.0
X151.0Y-96.0
X151.0Y-99.75
X151.0Y-122.25
X152.5Y-53.0
X153.0Y-60.25
X153.5Y-49.0
X153.5Y-96.0
X153.5Y-99.75
X153.5Y-122.25
X154.25Y-76.0
X154.25Y-79.0
X154.25Y-102.25
X154.25Y-105.25
X154.75Y-82.0
X154.75Y-85.0
X154.75Y-108.25
X154.75Y-111.25
X156.0Y-49.0
X156.0Y-51.5
X156.0Y-54.0
X156.0Y-56.5
X156.0Y-59.0
X156.0Y-61.5
X156.0Y-64.0
X156.0Y-66.5
X156.0Y-69.0
X156.0Y-71.5
X156.0Y-73.5
X156.0Y-76.0
X156.0Y-78.5
X156.0Y-81.0
X156.0Y-83.5
X156.0Y-86.0
X156.0Y-88.5
X156.0Y-91.0
X156.0Y-93.5
X156.0Y-96.0
X156.0Y-99.75
X156.0Y-102.25
X156.0Y-104.75
X156.0Y-107.25
X156.0Y-109.75
X156.0Y-112.25
X156.0Y-114.75
X156.0Y-117.25
X156.0Y-119.75
X156.0Y-122.25
T2
X151.75Y-69.96
X151.75Y-72.5
X151.75Y-75.04
X148.25Y-63.25
X148.25Y-65.79
X148.25Y-79.21
X148.25Y-81.75
X108.0Y-63.71
X108.0Y-66.25
X108.0Y-78.71
X108.0Y-81.25
X148.25Y-105.46
X148.25Y-108.0
X108.0Y-69.92
X108.0Y-72.46
X108.0Y-75.0
X108.0Y-104.96
X108.0Y-107.5
T3
X135.0Y-78.92
X135.0Y-81.46
X135.0Y-84.0
X122.75Y-58.75
X122.75Y-61.29
X122.75Y-63.83
X135.0Y-105.17
X135.0Y-107.71
X135.0Y-110.25
T0
M30
