G04 #@! TF.GenerationSoftware,KiCad,Pcbnew,(5.1.4)-1*
G04 #@! TF.CreationDate,2021-06-03T13:44:04-04:00*
G04 #@! TF.ProjectId,controller_power_mod,636f6e74-726f-46c6-9c65-725f706f7765,rev?*
G04 #@! TF.SameCoordinates,Original*
G04 #@! TF.FileFunction,Legend,Top*
G04 #@! TF.FilePolarity,Positive*
%FSLAX46Y46*%
G04 Gerber Fmt 4.6, Leading zero omitted, Abs format (unit mm)*
G04 Created by KiCad (PCBNEW (5.1.4)-1) date 2021-06-03 13:44:04*
%MOMM*%
%LPD*%
G04 APERTURE LIST*
%ADD10C,0.200000*%
%ADD11C,0.100000*%
%ADD12C,0.120000*%
%ADD13C,0.254000*%
%ADD14C,0.150000*%
%ADD15R,2.302000X1.152000*%
%ADD16R,1.152000X1.102000*%
%ADD17R,1.152000X2.302000*%
%ADD18R,1.102000X1.152000*%
%ADD19C,3.102000*%
%ADD20R,3.102000X3.102000*%
%ADD21C,1.527000*%
%ADD22R,2.802000X3.702000*%
%ADD23C,1.252000*%
%ADD24C,1.702000*%
%ADD25R,1.702000X1.702000*%
%ADD26C,2.052000*%
G04 APERTURE END LIST*
D10*
X90000000Y-109600000D02*
G75*
G02X90000000Y-109400000I0J100000D01*
G01*
X90000000Y-109400000D02*
G75*
G02X90000000Y-109600000I0J-100000D01*
G01*
X90000000Y-109400000D02*
X90000000Y-109400000D01*
X90000000Y-109600000D02*
X90000000Y-109600000D01*
D11*
X86200000Y-110800000D02*
X86200000Y-108200000D01*
D10*
X125100000Y-103500000D02*
G75*
G02X124900000Y-103500000I-100000J0D01*
G01*
X124900000Y-103500000D02*
G75*
G02X125100000Y-103500000I100000J0D01*
G01*
X124900000Y-103500000D02*
X124900000Y-103500000D01*
X125100000Y-103500000D02*
X125100000Y-103500000D01*
D11*
X126300000Y-107300000D02*
X123700000Y-107300000D01*
D10*
X124900000Y-78500000D02*
G75*
G02X125100000Y-78500000I100000J0D01*
G01*
X125100000Y-78500000D02*
G75*
G02X124900000Y-78500000I-100000J0D01*
G01*
X125100000Y-78500000D02*
X125100000Y-78500000D01*
X124900000Y-78500000D02*
X124900000Y-78500000D01*
D11*
X123700000Y-74700000D02*
X126300000Y-74700000D01*
D10*
X89500000Y-73600000D02*
G75*
G02X89500000Y-73400000I0J100000D01*
G01*
X89500000Y-73400000D02*
G75*
G02X89500000Y-73600000I0J-100000D01*
G01*
X89500000Y-73400000D02*
X89500000Y-73400000D01*
X89500000Y-73600000D02*
X89500000Y-73600000D01*
D11*
X85700000Y-74800000D02*
X85700000Y-72200000D01*
D12*
X70540000Y-105190000D02*
X60380000Y-105190000D01*
X70540000Y-112810000D02*
X70540000Y-105190000D01*
X60380000Y-112810000D02*
X70540000Y-112810000D01*
X60380000Y-105190000D02*
X60380000Y-112810000D01*
X60380000Y-106460000D02*
X70540000Y-106460000D01*
X60460000Y-75810000D02*
X70620000Y-75810000D01*
X60460000Y-68190000D02*
X60460000Y-75810000D01*
X70620000Y-68190000D02*
X60460000Y-68190000D01*
X70620000Y-75810000D02*
X70620000Y-68190000D01*
X70620000Y-74540000D02*
X60460000Y-74540000D01*
X100590000Y-97885436D02*
X100590000Y-99089564D01*
X102410000Y-97885436D02*
X102410000Y-99089564D01*
X100590000Y-82397936D02*
X100590000Y-83602064D01*
X102410000Y-82397936D02*
X102410000Y-83602064D01*
X111300000Y-101700000D02*
X111300000Y-104900000D01*
X100700000Y-101700000D02*
X111300000Y-101700000D01*
X100700000Y-104900000D02*
X100700000Y-101700000D01*
X100700000Y-112300000D02*
X100700000Y-109100000D01*
X111300000Y-112300000D02*
X100700000Y-112300000D01*
X111300000Y-109100000D02*
X111300000Y-112300000D01*
X128810000Y-99040000D02*
X128810000Y-83800000D01*
X121190000Y-99040000D02*
X121190000Y-83800000D01*
X127540000Y-99040000D02*
X127540000Y-83800000D01*
X128810000Y-83800000D02*
X121190000Y-83800000D01*
X128810000Y-99040000D02*
X121190000Y-99040000D01*
X120710000Y-96286252D02*
X120710000Y-95763748D01*
X119290000Y-96286252D02*
X119290000Y-95763748D01*
X116090000Y-100897936D02*
X116090000Y-102102064D01*
X117910000Y-100897936D02*
X117910000Y-102102064D01*
X117910000Y-96602064D02*
X117910000Y-95397936D01*
X116090000Y-96602064D02*
X116090000Y-95397936D01*
X112715000Y-91740302D02*
X111915000Y-91740302D01*
X112315000Y-91340302D02*
X112315000Y-92140302D01*
X110533000Y-99831000D02*
X109467000Y-99831000D01*
X110768000Y-99791000D02*
X109232000Y-99791000D01*
X110948000Y-99751000D02*
X109052000Y-99751000D01*
X111098000Y-99711000D02*
X108902000Y-99711000D01*
X111229000Y-99671000D02*
X108771000Y-99671000D01*
X111346000Y-99631000D02*
X108654000Y-99631000D01*
X111453000Y-99591000D02*
X108547000Y-99591000D01*
X111552000Y-99551000D02*
X108448000Y-99551000D01*
X111645000Y-99511000D02*
X108355000Y-99511000D01*
X111731000Y-99471000D02*
X108269000Y-99471000D01*
X111813000Y-99431000D02*
X108187000Y-99431000D01*
X111890000Y-99391000D02*
X108110000Y-99391000D01*
X111964000Y-99351000D02*
X108036000Y-99351000D01*
X112034000Y-99311000D02*
X107966000Y-99311000D01*
X112102000Y-99271000D02*
X107898000Y-99271000D01*
X112166000Y-99231000D02*
X107834000Y-99231000D01*
X112228000Y-99191000D02*
X107772000Y-99191000D01*
X112287000Y-99151000D02*
X107713000Y-99151000D01*
X112345000Y-99111000D02*
X107655000Y-99111000D01*
X112400000Y-99071000D02*
X107600000Y-99071000D01*
X112454000Y-99031000D02*
X107546000Y-99031000D01*
X112505000Y-98991000D02*
X107495000Y-98991000D01*
X112556000Y-98951000D02*
X107444000Y-98951000D01*
X112604000Y-98911000D02*
X107396000Y-98911000D01*
X112651000Y-98871000D02*
X107349000Y-98871000D01*
X112697000Y-98831000D02*
X107303000Y-98831000D01*
X112741000Y-98791000D02*
X107259000Y-98791000D01*
X112784000Y-98751000D02*
X107216000Y-98751000D01*
X112826000Y-98711000D02*
X107174000Y-98711000D01*
X112867000Y-98671000D02*
X107133000Y-98671000D01*
X112907000Y-98631000D02*
X107093000Y-98631000D01*
X112945000Y-98591000D02*
X107055000Y-98591000D01*
X112983000Y-98551000D02*
X107017000Y-98551000D01*
X108960000Y-98511000D02*
X106981000Y-98511000D01*
X113019000Y-98511000D02*
X111040000Y-98511000D01*
X108960000Y-98471000D02*
X106945000Y-98471000D01*
X113055000Y-98471000D02*
X111040000Y-98471000D01*
X108960000Y-98431000D02*
X106910000Y-98431000D01*
X113090000Y-98431000D02*
X111040000Y-98431000D01*
X108960000Y-98391000D02*
X106876000Y-98391000D01*
X113124000Y-98391000D02*
X111040000Y-98391000D01*
X108960000Y-98351000D02*
X106844000Y-98351000D01*
X113156000Y-98351000D02*
X111040000Y-98351000D01*
X108960000Y-98311000D02*
X106811000Y-98311000D01*
X113189000Y-98311000D02*
X111040000Y-98311000D01*
X108960000Y-98271000D02*
X106780000Y-98271000D01*
X113220000Y-98271000D02*
X111040000Y-98271000D01*
X108960000Y-98231000D02*
X106750000Y-98231000D01*
X113250000Y-98231000D02*
X111040000Y-98231000D01*
X108960000Y-98191000D02*
X106720000Y-98191000D01*
X113280000Y-98191000D02*
X111040000Y-98191000D01*
X108960000Y-98151000D02*
X106691000Y-98151000D01*
X113309000Y-98151000D02*
X111040000Y-98151000D01*
X108960000Y-98111000D02*
X106662000Y-98111000D01*
X113338000Y-98111000D02*
X111040000Y-98111000D01*
X108960000Y-98071000D02*
X106635000Y-98071000D01*
X113365000Y-98071000D02*
X111040000Y-98071000D01*
X108960000Y-98031000D02*
X106608000Y-98031000D01*
X113392000Y-98031000D02*
X111040000Y-98031000D01*
X108960000Y-97991000D02*
X106582000Y-97991000D01*
X113418000Y-97991000D02*
X111040000Y-97991000D01*
X108960000Y-97951000D02*
X106556000Y-97951000D01*
X113444000Y-97951000D02*
X111040000Y-97951000D01*
X108960000Y-97911000D02*
X106531000Y-97911000D01*
X113469000Y-97911000D02*
X111040000Y-97911000D01*
X108960000Y-97871000D02*
X106507000Y-97871000D01*
X113493000Y-97871000D02*
X111040000Y-97871000D01*
X108960000Y-97831000D02*
X106483000Y-97831000D01*
X113517000Y-97831000D02*
X111040000Y-97831000D01*
X108960000Y-97791000D02*
X106460000Y-97791000D01*
X113540000Y-97791000D02*
X111040000Y-97791000D01*
X108960000Y-97751000D02*
X106438000Y-97751000D01*
X113562000Y-97751000D02*
X111040000Y-97751000D01*
X108960000Y-97711000D02*
X106416000Y-97711000D01*
X113584000Y-97711000D02*
X111040000Y-97711000D01*
X108960000Y-97671000D02*
X106394000Y-97671000D01*
X113606000Y-97671000D02*
X111040000Y-97671000D01*
X108960000Y-97631000D02*
X106373000Y-97631000D01*
X113627000Y-97631000D02*
X111040000Y-97631000D01*
X108960000Y-97591000D02*
X106353000Y-97591000D01*
X113647000Y-97591000D02*
X111040000Y-97591000D01*
X108960000Y-97551000D02*
X106334000Y-97551000D01*
X113666000Y-97551000D02*
X111040000Y-97551000D01*
X108960000Y-97511000D02*
X106314000Y-97511000D01*
X113686000Y-97511000D02*
X111040000Y-97511000D01*
X108960000Y-97471000D02*
X106296000Y-97471000D01*
X113704000Y-97471000D02*
X111040000Y-97471000D01*
X108960000Y-97431000D02*
X106278000Y-97431000D01*
X113722000Y-97431000D02*
X111040000Y-97431000D01*
X108960000Y-97391000D02*
X106260000Y-97391000D01*
X113740000Y-97391000D02*
X111040000Y-97391000D01*
X108960000Y-97351000D02*
X106243000Y-97351000D01*
X113757000Y-97351000D02*
X111040000Y-97351000D01*
X108960000Y-97311000D02*
X106226000Y-97311000D01*
X113774000Y-97311000D02*
X111040000Y-97311000D01*
X108960000Y-97271000D02*
X106210000Y-97271000D01*
X113790000Y-97271000D02*
X111040000Y-97271000D01*
X108960000Y-97231000D02*
X106195000Y-97231000D01*
X113805000Y-97231000D02*
X111040000Y-97231000D01*
X108960000Y-97191000D02*
X106179000Y-97191000D01*
X113821000Y-97191000D02*
X111040000Y-97191000D01*
X108960000Y-97151000D02*
X106165000Y-97151000D01*
X113835000Y-97151000D02*
X111040000Y-97151000D01*
X108960000Y-97111000D02*
X106150000Y-97111000D01*
X113850000Y-97111000D02*
X111040000Y-97111000D01*
X108960000Y-97071000D02*
X106137000Y-97071000D01*
X113863000Y-97071000D02*
X111040000Y-97071000D01*
X108960000Y-97031000D02*
X106123000Y-97031000D01*
X113877000Y-97031000D02*
X111040000Y-97031000D01*
X108960000Y-96991000D02*
X106111000Y-96991000D01*
X113889000Y-96991000D02*
X111040000Y-96991000D01*
X108960000Y-96951000D02*
X106098000Y-96951000D01*
X113902000Y-96951000D02*
X111040000Y-96951000D01*
X108960000Y-96911000D02*
X106086000Y-96911000D01*
X113914000Y-96911000D02*
X111040000Y-96911000D01*
X108960000Y-96871000D02*
X106075000Y-96871000D01*
X113925000Y-96871000D02*
X111040000Y-96871000D01*
X108960000Y-96831000D02*
X106064000Y-96831000D01*
X113936000Y-96831000D02*
X111040000Y-96831000D01*
X108960000Y-96791000D02*
X106053000Y-96791000D01*
X113947000Y-96791000D02*
X111040000Y-96791000D01*
X108960000Y-96751000D02*
X106043000Y-96751000D01*
X113957000Y-96751000D02*
X111040000Y-96751000D01*
X108960000Y-96711000D02*
X106033000Y-96711000D01*
X113967000Y-96711000D02*
X111040000Y-96711000D01*
X108960000Y-96671000D02*
X106024000Y-96671000D01*
X113976000Y-96671000D02*
X111040000Y-96671000D01*
X108960000Y-96631000D02*
X106015000Y-96631000D01*
X113985000Y-96631000D02*
X111040000Y-96631000D01*
X108960000Y-96591000D02*
X106006000Y-96591000D01*
X113994000Y-96591000D02*
X111040000Y-96591000D01*
X108960000Y-96551000D02*
X105998000Y-96551000D01*
X114002000Y-96551000D02*
X111040000Y-96551000D01*
X108960000Y-96511000D02*
X105990000Y-96511000D01*
X114010000Y-96511000D02*
X111040000Y-96511000D01*
X108960000Y-96471000D02*
X105983000Y-96471000D01*
X114017000Y-96471000D02*
X111040000Y-96471000D01*
X114024000Y-96430000D02*
X105976000Y-96430000D01*
X114030000Y-96390000D02*
X105970000Y-96390000D01*
X114037000Y-96350000D02*
X105963000Y-96350000D01*
X114042000Y-96310000D02*
X105958000Y-96310000D01*
X114048000Y-96270000D02*
X105952000Y-96270000D01*
X114052000Y-96230000D02*
X105948000Y-96230000D01*
X114057000Y-96190000D02*
X105943000Y-96190000D01*
X114061000Y-96150000D02*
X105939000Y-96150000D01*
X114065000Y-96110000D02*
X105935000Y-96110000D01*
X114068000Y-96070000D02*
X105932000Y-96070000D01*
X114071000Y-96030000D02*
X105929000Y-96030000D01*
X114074000Y-95990000D02*
X105926000Y-95990000D01*
X114076000Y-95950000D02*
X105924000Y-95950000D01*
X114077000Y-95910000D02*
X105923000Y-95910000D01*
X114079000Y-95870000D02*
X105921000Y-95870000D01*
X114080000Y-95830000D02*
X105920000Y-95830000D01*
X114080000Y-95790000D02*
X105920000Y-95790000D01*
X114080000Y-95750000D02*
X105920000Y-95750000D01*
X114120000Y-95750000D02*
G75*
G03X114120000Y-95750000I-4120000J0D01*
G01*
X90740302Y-106285000D02*
X90740302Y-107085000D01*
X90340302Y-106685000D02*
X91140302Y-106685000D01*
X98831000Y-108467000D02*
X98831000Y-109533000D01*
X98791000Y-108232000D02*
X98791000Y-109768000D01*
X98751000Y-108052000D02*
X98751000Y-109948000D01*
X98711000Y-107902000D02*
X98711000Y-110098000D01*
X98671000Y-107771000D02*
X98671000Y-110229000D01*
X98631000Y-107654000D02*
X98631000Y-110346000D01*
X98591000Y-107547000D02*
X98591000Y-110453000D01*
X98551000Y-107448000D02*
X98551000Y-110552000D01*
X98511000Y-107355000D02*
X98511000Y-110645000D01*
X98471000Y-107269000D02*
X98471000Y-110731000D01*
X98431000Y-107187000D02*
X98431000Y-110813000D01*
X98391000Y-107110000D02*
X98391000Y-110890000D01*
X98351000Y-107036000D02*
X98351000Y-110964000D01*
X98311000Y-106966000D02*
X98311000Y-111034000D01*
X98271000Y-106898000D02*
X98271000Y-111102000D01*
X98231000Y-106834000D02*
X98231000Y-111166000D01*
X98191000Y-106772000D02*
X98191000Y-111228000D01*
X98151000Y-106713000D02*
X98151000Y-111287000D01*
X98111000Y-106655000D02*
X98111000Y-111345000D01*
X98071000Y-106600000D02*
X98071000Y-111400000D01*
X98031000Y-106546000D02*
X98031000Y-111454000D01*
X97991000Y-106495000D02*
X97991000Y-111505000D01*
X97951000Y-106444000D02*
X97951000Y-111556000D01*
X97911000Y-106396000D02*
X97911000Y-111604000D01*
X97871000Y-106349000D02*
X97871000Y-111651000D01*
X97831000Y-106303000D02*
X97831000Y-111697000D01*
X97791000Y-106259000D02*
X97791000Y-111741000D01*
X97751000Y-106216000D02*
X97751000Y-111784000D01*
X97711000Y-106174000D02*
X97711000Y-111826000D01*
X97671000Y-106133000D02*
X97671000Y-111867000D01*
X97631000Y-106093000D02*
X97631000Y-111907000D01*
X97591000Y-106055000D02*
X97591000Y-111945000D01*
X97551000Y-106017000D02*
X97551000Y-111983000D01*
X97511000Y-110040000D02*
X97511000Y-112019000D01*
X97511000Y-105981000D02*
X97511000Y-107960000D01*
X97471000Y-110040000D02*
X97471000Y-112055000D01*
X97471000Y-105945000D02*
X97471000Y-107960000D01*
X97431000Y-110040000D02*
X97431000Y-112090000D01*
X97431000Y-105910000D02*
X97431000Y-107960000D01*
X97391000Y-110040000D02*
X97391000Y-112124000D01*
X97391000Y-105876000D02*
X97391000Y-107960000D01*
X97351000Y-110040000D02*
X97351000Y-112156000D01*
X97351000Y-105844000D02*
X97351000Y-107960000D01*
X97311000Y-110040000D02*
X97311000Y-112189000D01*
X97311000Y-105811000D02*
X97311000Y-107960000D01*
X97271000Y-110040000D02*
X97271000Y-112220000D01*
X97271000Y-105780000D02*
X97271000Y-107960000D01*
X97231000Y-110040000D02*
X97231000Y-112250000D01*
X97231000Y-105750000D02*
X97231000Y-107960000D01*
X97191000Y-110040000D02*
X97191000Y-112280000D01*
X97191000Y-105720000D02*
X97191000Y-107960000D01*
X97151000Y-110040000D02*
X97151000Y-112309000D01*
X97151000Y-105691000D02*
X97151000Y-107960000D01*
X97111000Y-110040000D02*
X97111000Y-112338000D01*
X97111000Y-105662000D02*
X97111000Y-107960000D01*
X97071000Y-110040000D02*
X97071000Y-112365000D01*
X97071000Y-105635000D02*
X97071000Y-107960000D01*
X97031000Y-110040000D02*
X97031000Y-112392000D01*
X97031000Y-105608000D02*
X97031000Y-107960000D01*
X96991000Y-110040000D02*
X96991000Y-112418000D01*
X96991000Y-105582000D02*
X96991000Y-107960000D01*
X96951000Y-110040000D02*
X96951000Y-112444000D01*
X96951000Y-105556000D02*
X96951000Y-107960000D01*
X96911000Y-110040000D02*
X96911000Y-112469000D01*
X96911000Y-105531000D02*
X96911000Y-107960000D01*
X96871000Y-110040000D02*
X96871000Y-112493000D01*
X96871000Y-105507000D02*
X96871000Y-107960000D01*
X96831000Y-110040000D02*
X96831000Y-112517000D01*
X96831000Y-105483000D02*
X96831000Y-107960000D01*
X96791000Y-110040000D02*
X96791000Y-112540000D01*
X96791000Y-105460000D02*
X96791000Y-107960000D01*
X96751000Y-110040000D02*
X96751000Y-112562000D01*
X96751000Y-105438000D02*
X96751000Y-107960000D01*
X96711000Y-110040000D02*
X96711000Y-112584000D01*
X96711000Y-105416000D02*
X96711000Y-107960000D01*
X96671000Y-110040000D02*
X96671000Y-112606000D01*
X96671000Y-105394000D02*
X96671000Y-107960000D01*
X96631000Y-110040000D02*
X96631000Y-112627000D01*
X96631000Y-105373000D02*
X96631000Y-107960000D01*
X96591000Y-110040000D02*
X96591000Y-112647000D01*
X96591000Y-105353000D02*
X96591000Y-107960000D01*
X96551000Y-110040000D02*
X96551000Y-112666000D01*
X96551000Y-105334000D02*
X96551000Y-107960000D01*
X96511000Y-110040000D02*
X96511000Y-112686000D01*
X96511000Y-105314000D02*
X96511000Y-107960000D01*
X96471000Y-110040000D02*
X96471000Y-112704000D01*
X96471000Y-105296000D02*
X96471000Y-107960000D01*
X96431000Y-110040000D02*
X96431000Y-112722000D01*
X96431000Y-105278000D02*
X96431000Y-107960000D01*
X96391000Y-110040000D02*
X96391000Y-112740000D01*
X96391000Y-105260000D02*
X96391000Y-107960000D01*
X96351000Y-110040000D02*
X96351000Y-112757000D01*
X96351000Y-105243000D02*
X96351000Y-107960000D01*
X96311000Y-110040000D02*
X96311000Y-112774000D01*
X96311000Y-105226000D02*
X96311000Y-107960000D01*
X96271000Y-110040000D02*
X96271000Y-112790000D01*
X96271000Y-105210000D02*
X96271000Y-107960000D01*
X96231000Y-110040000D02*
X96231000Y-112805000D01*
X96231000Y-105195000D02*
X96231000Y-107960000D01*
X96191000Y-110040000D02*
X96191000Y-112821000D01*
X96191000Y-105179000D02*
X96191000Y-107960000D01*
X96151000Y-110040000D02*
X96151000Y-112835000D01*
X96151000Y-105165000D02*
X96151000Y-107960000D01*
X96111000Y-110040000D02*
X96111000Y-112850000D01*
X96111000Y-105150000D02*
X96111000Y-107960000D01*
X96071000Y-110040000D02*
X96071000Y-112863000D01*
X96071000Y-105137000D02*
X96071000Y-107960000D01*
X96031000Y-110040000D02*
X96031000Y-112877000D01*
X96031000Y-105123000D02*
X96031000Y-107960000D01*
X95991000Y-110040000D02*
X95991000Y-112889000D01*
X95991000Y-105111000D02*
X95991000Y-107960000D01*
X95951000Y-110040000D02*
X95951000Y-112902000D01*
X95951000Y-105098000D02*
X95951000Y-107960000D01*
X95911000Y-110040000D02*
X95911000Y-112914000D01*
X95911000Y-105086000D02*
X95911000Y-107960000D01*
X95871000Y-110040000D02*
X95871000Y-112925000D01*
X95871000Y-105075000D02*
X95871000Y-107960000D01*
X95831000Y-110040000D02*
X95831000Y-112936000D01*
X95831000Y-105064000D02*
X95831000Y-107960000D01*
X95791000Y-110040000D02*
X95791000Y-112947000D01*
X95791000Y-105053000D02*
X95791000Y-107960000D01*
X95751000Y-110040000D02*
X95751000Y-112957000D01*
X95751000Y-105043000D02*
X95751000Y-107960000D01*
X95711000Y-110040000D02*
X95711000Y-112967000D01*
X95711000Y-105033000D02*
X95711000Y-107960000D01*
X95671000Y-110040000D02*
X95671000Y-112976000D01*
X95671000Y-105024000D02*
X95671000Y-107960000D01*
X95631000Y-110040000D02*
X95631000Y-112985000D01*
X95631000Y-105015000D02*
X95631000Y-107960000D01*
X95591000Y-110040000D02*
X95591000Y-112994000D01*
X95591000Y-105006000D02*
X95591000Y-107960000D01*
X95551000Y-110040000D02*
X95551000Y-113002000D01*
X95551000Y-104998000D02*
X95551000Y-107960000D01*
X95511000Y-110040000D02*
X95511000Y-113010000D01*
X95511000Y-104990000D02*
X95511000Y-107960000D01*
X95471000Y-110040000D02*
X95471000Y-113017000D01*
X95471000Y-104983000D02*
X95471000Y-107960000D01*
X95430000Y-104976000D02*
X95430000Y-113024000D01*
X95390000Y-104970000D02*
X95390000Y-113030000D01*
X95350000Y-104963000D02*
X95350000Y-113037000D01*
X95310000Y-104958000D02*
X95310000Y-113042000D01*
X95270000Y-104952000D02*
X95270000Y-113048000D01*
X95230000Y-104948000D02*
X95230000Y-113052000D01*
X95190000Y-104943000D02*
X95190000Y-113057000D01*
X95150000Y-104939000D02*
X95150000Y-113061000D01*
X95110000Y-104935000D02*
X95110000Y-113065000D01*
X95070000Y-104932000D02*
X95070000Y-113068000D01*
X95030000Y-104929000D02*
X95030000Y-113071000D01*
X94990000Y-104926000D02*
X94990000Y-113074000D01*
X94950000Y-104924000D02*
X94950000Y-113076000D01*
X94910000Y-104923000D02*
X94910000Y-113077000D01*
X94870000Y-104921000D02*
X94870000Y-113079000D01*
X94830000Y-104920000D02*
X94830000Y-113080000D01*
X94790000Y-104920000D02*
X94790000Y-113080000D01*
X94750000Y-104920000D02*
X94750000Y-113080000D01*
X98870000Y-109000000D02*
G75*
G03X98870000Y-109000000I-4120000J0D01*
G01*
D10*
X44400000Y-81000000D02*
G75*
G02X44300000Y-81000000I-50000J0D01*
G01*
X44300000Y-81000000D02*
G75*
G02X44400000Y-81000000I50000J0D01*
G01*
X44400000Y-81000000D02*
G75*
G02X44300000Y-81000000I-50000J0D01*
G01*
X44300000Y-81000000D02*
X44300000Y-81000000D01*
X44400000Y-81000000D02*
X44400000Y-81000000D01*
X44300000Y-81000000D02*
X44300000Y-81000000D01*
D11*
X45610000Y-103800000D02*
X45610000Y-77500000D01*
X98110000Y-103800000D02*
X45610000Y-103800000D01*
X98110000Y-77500000D02*
X98110000Y-103800000D01*
X45610000Y-77500000D02*
X98110000Y-77500000D01*
D12*
X111300000Y-69200000D02*
X111300000Y-72400000D01*
X100700000Y-69200000D02*
X111300000Y-69200000D01*
X100700000Y-72400000D02*
X100700000Y-69200000D01*
X100700000Y-79800000D02*
X100700000Y-76600000D01*
X111300000Y-79800000D02*
X100700000Y-79800000D01*
X111300000Y-76600000D02*
X111300000Y-79800000D01*
X119290000Y-86238748D02*
X119290000Y-86761252D01*
X120710000Y-86238748D02*
X120710000Y-86761252D01*
X116090000Y-85897936D02*
X116090000Y-87102064D01*
X117910000Y-85897936D02*
X117910000Y-87102064D01*
X117910000Y-81602064D02*
X117910000Y-80397936D01*
X116090000Y-81602064D02*
X116090000Y-80397936D01*
X112715000Y-82740302D02*
X111915000Y-82740302D01*
X112315000Y-82340302D02*
X112315000Y-83140302D01*
X110533000Y-90831000D02*
X109467000Y-90831000D01*
X110768000Y-90791000D02*
X109232000Y-90791000D01*
X110948000Y-90751000D02*
X109052000Y-90751000D01*
X111098000Y-90711000D02*
X108902000Y-90711000D01*
X111229000Y-90671000D02*
X108771000Y-90671000D01*
X111346000Y-90631000D02*
X108654000Y-90631000D01*
X111453000Y-90591000D02*
X108547000Y-90591000D01*
X111552000Y-90551000D02*
X108448000Y-90551000D01*
X111645000Y-90511000D02*
X108355000Y-90511000D01*
X111731000Y-90471000D02*
X108269000Y-90471000D01*
X111813000Y-90431000D02*
X108187000Y-90431000D01*
X111890000Y-90391000D02*
X108110000Y-90391000D01*
X111964000Y-90351000D02*
X108036000Y-90351000D01*
X112034000Y-90311000D02*
X107966000Y-90311000D01*
X112102000Y-90271000D02*
X107898000Y-90271000D01*
X112166000Y-90231000D02*
X107834000Y-90231000D01*
X112228000Y-90191000D02*
X107772000Y-90191000D01*
X112287000Y-90151000D02*
X107713000Y-90151000D01*
X112345000Y-90111000D02*
X107655000Y-90111000D01*
X112400000Y-90071000D02*
X107600000Y-90071000D01*
X112454000Y-90031000D02*
X107546000Y-90031000D01*
X112505000Y-89991000D02*
X107495000Y-89991000D01*
X112556000Y-89951000D02*
X107444000Y-89951000D01*
X112604000Y-89911000D02*
X107396000Y-89911000D01*
X112651000Y-89871000D02*
X107349000Y-89871000D01*
X112697000Y-89831000D02*
X107303000Y-89831000D01*
X112741000Y-89791000D02*
X107259000Y-89791000D01*
X112784000Y-89751000D02*
X107216000Y-89751000D01*
X112826000Y-89711000D02*
X107174000Y-89711000D01*
X112867000Y-89671000D02*
X107133000Y-89671000D01*
X112907000Y-89631000D02*
X107093000Y-89631000D01*
X112945000Y-89591000D02*
X107055000Y-89591000D01*
X112983000Y-89551000D02*
X107017000Y-89551000D01*
X108960000Y-89511000D02*
X106981000Y-89511000D01*
X113019000Y-89511000D02*
X111040000Y-89511000D01*
X108960000Y-89471000D02*
X106945000Y-89471000D01*
X113055000Y-89471000D02*
X111040000Y-89471000D01*
X108960000Y-89431000D02*
X106910000Y-89431000D01*
X113090000Y-89431000D02*
X111040000Y-89431000D01*
X108960000Y-89391000D02*
X106876000Y-89391000D01*
X113124000Y-89391000D02*
X111040000Y-89391000D01*
X108960000Y-89351000D02*
X106844000Y-89351000D01*
X113156000Y-89351000D02*
X111040000Y-89351000D01*
X108960000Y-89311000D02*
X106811000Y-89311000D01*
X113189000Y-89311000D02*
X111040000Y-89311000D01*
X108960000Y-89271000D02*
X106780000Y-89271000D01*
X113220000Y-89271000D02*
X111040000Y-89271000D01*
X108960000Y-89231000D02*
X106750000Y-89231000D01*
X113250000Y-89231000D02*
X111040000Y-89231000D01*
X108960000Y-89191000D02*
X106720000Y-89191000D01*
X113280000Y-89191000D02*
X111040000Y-89191000D01*
X108960000Y-89151000D02*
X106691000Y-89151000D01*
X113309000Y-89151000D02*
X111040000Y-89151000D01*
X108960000Y-89111000D02*
X106662000Y-89111000D01*
X113338000Y-89111000D02*
X111040000Y-89111000D01*
X108960000Y-89071000D02*
X106635000Y-89071000D01*
X113365000Y-89071000D02*
X111040000Y-89071000D01*
X108960000Y-89031000D02*
X106608000Y-89031000D01*
X113392000Y-89031000D02*
X111040000Y-89031000D01*
X108960000Y-88991000D02*
X106582000Y-88991000D01*
X113418000Y-88991000D02*
X111040000Y-88991000D01*
X108960000Y-88951000D02*
X106556000Y-88951000D01*
X113444000Y-88951000D02*
X111040000Y-88951000D01*
X108960000Y-88911000D02*
X106531000Y-88911000D01*
X113469000Y-88911000D02*
X111040000Y-88911000D01*
X108960000Y-88871000D02*
X106507000Y-88871000D01*
X113493000Y-88871000D02*
X111040000Y-88871000D01*
X108960000Y-88831000D02*
X106483000Y-88831000D01*
X113517000Y-88831000D02*
X111040000Y-88831000D01*
X108960000Y-88791000D02*
X106460000Y-88791000D01*
X113540000Y-88791000D02*
X111040000Y-88791000D01*
X108960000Y-88751000D02*
X106438000Y-88751000D01*
X113562000Y-88751000D02*
X111040000Y-88751000D01*
X108960000Y-88711000D02*
X106416000Y-88711000D01*
X113584000Y-88711000D02*
X111040000Y-88711000D01*
X108960000Y-88671000D02*
X106394000Y-88671000D01*
X113606000Y-88671000D02*
X111040000Y-88671000D01*
X108960000Y-88631000D02*
X106373000Y-88631000D01*
X113627000Y-88631000D02*
X111040000Y-88631000D01*
X108960000Y-88591000D02*
X106353000Y-88591000D01*
X113647000Y-88591000D02*
X111040000Y-88591000D01*
X108960000Y-88551000D02*
X106334000Y-88551000D01*
X113666000Y-88551000D02*
X111040000Y-88551000D01*
X108960000Y-88511000D02*
X106314000Y-88511000D01*
X113686000Y-88511000D02*
X111040000Y-88511000D01*
X108960000Y-88471000D02*
X106296000Y-88471000D01*
X113704000Y-88471000D02*
X111040000Y-88471000D01*
X108960000Y-88431000D02*
X106278000Y-88431000D01*
X113722000Y-88431000D02*
X111040000Y-88431000D01*
X108960000Y-88391000D02*
X106260000Y-88391000D01*
X113740000Y-88391000D02*
X111040000Y-88391000D01*
X108960000Y-88351000D02*
X106243000Y-88351000D01*
X113757000Y-88351000D02*
X111040000Y-88351000D01*
X108960000Y-88311000D02*
X106226000Y-88311000D01*
X113774000Y-88311000D02*
X111040000Y-88311000D01*
X108960000Y-88271000D02*
X106210000Y-88271000D01*
X113790000Y-88271000D02*
X111040000Y-88271000D01*
X108960000Y-88231000D02*
X106195000Y-88231000D01*
X113805000Y-88231000D02*
X111040000Y-88231000D01*
X108960000Y-88191000D02*
X106179000Y-88191000D01*
X113821000Y-88191000D02*
X111040000Y-88191000D01*
X108960000Y-88151000D02*
X106165000Y-88151000D01*
X113835000Y-88151000D02*
X111040000Y-88151000D01*
X108960000Y-88111000D02*
X106150000Y-88111000D01*
X113850000Y-88111000D02*
X111040000Y-88111000D01*
X108960000Y-88071000D02*
X106137000Y-88071000D01*
X113863000Y-88071000D02*
X111040000Y-88071000D01*
X108960000Y-88031000D02*
X106123000Y-88031000D01*
X113877000Y-88031000D02*
X111040000Y-88031000D01*
X108960000Y-87991000D02*
X106111000Y-87991000D01*
X113889000Y-87991000D02*
X111040000Y-87991000D01*
X108960000Y-87951000D02*
X106098000Y-87951000D01*
X113902000Y-87951000D02*
X111040000Y-87951000D01*
X108960000Y-87911000D02*
X106086000Y-87911000D01*
X113914000Y-87911000D02*
X111040000Y-87911000D01*
X108960000Y-87871000D02*
X106075000Y-87871000D01*
X113925000Y-87871000D02*
X111040000Y-87871000D01*
X108960000Y-87831000D02*
X106064000Y-87831000D01*
X113936000Y-87831000D02*
X111040000Y-87831000D01*
X108960000Y-87791000D02*
X106053000Y-87791000D01*
X113947000Y-87791000D02*
X111040000Y-87791000D01*
X108960000Y-87751000D02*
X106043000Y-87751000D01*
X113957000Y-87751000D02*
X111040000Y-87751000D01*
X108960000Y-87711000D02*
X106033000Y-87711000D01*
X113967000Y-87711000D02*
X111040000Y-87711000D01*
X108960000Y-87671000D02*
X106024000Y-87671000D01*
X113976000Y-87671000D02*
X111040000Y-87671000D01*
X108960000Y-87631000D02*
X106015000Y-87631000D01*
X113985000Y-87631000D02*
X111040000Y-87631000D01*
X108960000Y-87591000D02*
X106006000Y-87591000D01*
X113994000Y-87591000D02*
X111040000Y-87591000D01*
X108960000Y-87551000D02*
X105998000Y-87551000D01*
X114002000Y-87551000D02*
X111040000Y-87551000D01*
X108960000Y-87511000D02*
X105990000Y-87511000D01*
X114010000Y-87511000D02*
X111040000Y-87511000D01*
X108960000Y-87471000D02*
X105983000Y-87471000D01*
X114017000Y-87471000D02*
X111040000Y-87471000D01*
X114024000Y-87430000D02*
X105976000Y-87430000D01*
X114030000Y-87390000D02*
X105970000Y-87390000D01*
X114037000Y-87350000D02*
X105963000Y-87350000D01*
X114042000Y-87310000D02*
X105958000Y-87310000D01*
X114048000Y-87270000D02*
X105952000Y-87270000D01*
X114052000Y-87230000D02*
X105948000Y-87230000D01*
X114057000Y-87190000D02*
X105943000Y-87190000D01*
X114061000Y-87150000D02*
X105939000Y-87150000D01*
X114065000Y-87110000D02*
X105935000Y-87110000D01*
X114068000Y-87070000D02*
X105932000Y-87070000D01*
X114071000Y-87030000D02*
X105929000Y-87030000D01*
X114074000Y-86990000D02*
X105926000Y-86990000D01*
X114076000Y-86950000D02*
X105924000Y-86950000D01*
X114077000Y-86910000D02*
X105923000Y-86910000D01*
X114079000Y-86870000D02*
X105921000Y-86870000D01*
X114080000Y-86830000D02*
X105920000Y-86830000D01*
X114080000Y-86790000D02*
X105920000Y-86790000D01*
X114080000Y-86750000D02*
X105920000Y-86750000D01*
X114120000Y-86750000D02*
G75*
G03X114120000Y-86750000I-4120000J0D01*
G01*
X98759698Y-74715000D02*
X98759698Y-73915000D01*
X99159698Y-74315000D02*
X98359698Y-74315000D01*
X90669000Y-72533000D02*
X90669000Y-71467000D01*
X90709000Y-72768000D02*
X90709000Y-71232000D01*
X90749000Y-72948000D02*
X90749000Y-71052000D01*
X90789000Y-73098000D02*
X90789000Y-70902000D01*
X90829000Y-73229000D02*
X90829000Y-70771000D01*
X90869000Y-73346000D02*
X90869000Y-70654000D01*
X90909000Y-73453000D02*
X90909000Y-70547000D01*
X90949000Y-73552000D02*
X90949000Y-70448000D01*
X90989000Y-73645000D02*
X90989000Y-70355000D01*
X91029000Y-73731000D02*
X91029000Y-70269000D01*
X91069000Y-73813000D02*
X91069000Y-70187000D01*
X91109000Y-73890000D02*
X91109000Y-70110000D01*
X91149000Y-73964000D02*
X91149000Y-70036000D01*
X91189000Y-74034000D02*
X91189000Y-69966000D01*
X91229000Y-74102000D02*
X91229000Y-69898000D01*
X91269000Y-74166000D02*
X91269000Y-69834000D01*
X91309000Y-74228000D02*
X91309000Y-69772000D01*
X91349000Y-74287000D02*
X91349000Y-69713000D01*
X91389000Y-74345000D02*
X91389000Y-69655000D01*
X91429000Y-74400000D02*
X91429000Y-69600000D01*
X91469000Y-74454000D02*
X91469000Y-69546000D01*
X91509000Y-74505000D02*
X91509000Y-69495000D01*
X91549000Y-74556000D02*
X91549000Y-69444000D01*
X91589000Y-74604000D02*
X91589000Y-69396000D01*
X91629000Y-74651000D02*
X91629000Y-69349000D01*
X91669000Y-74697000D02*
X91669000Y-69303000D01*
X91709000Y-74741000D02*
X91709000Y-69259000D01*
X91749000Y-74784000D02*
X91749000Y-69216000D01*
X91789000Y-74826000D02*
X91789000Y-69174000D01*
X91829000Y-74867000D02*
X91829000Y-69133000D01*
X91869000Y-74907000D02*
X91869000Y-69093000D01*
X91909000Y-74945000D02*
X91909000Y-69055000D01*
X91949000Y-74983000D02*
X91949000Y-69017000D01*
X91989000Y-70960000D02*
X91989000Y-68981000D01*
X91989000Y-75019000D02*
X91989000Y-73040000D01*
X92029000Y-70960000D02*
X92029000Y-68945000D01*
X92029000Y-75055000D02*
X92029000Y-73040000D01*
X92069000Y-70960000D02*
X92069000Y-68910000D01*
X92069000Y-75090000D02*
X92069000Y-73040000D01*
X92109000Y-70960000D02*
X92109000Y-68876000D01*
X92109000Y-75124000D02*
X92109000Y-73040000D01*
X92149000Y-70960000D02*
X92149000Y-68844000D01*
X92149000Y-75156000D02*
X92149000Y-73040000D01*
X92189000Y-70960000D02*
X92189000Y-68811000D01*
X92189000Y-75189000D02*
X92189000Y-73040000D01*
X92229000Y-70960000D02*
X92229000Y-68780000D01*
X92229000Y-75220000D02*
X92229000Y-73040000D01*
X92269000Y-70960000D02*
X92269000Y-68750000D01*
X92269000Y-75250000D02*
X92269000Y-73040000D01*
X92309000Y-70960000D02*
X92309000Y-68720000D01*
X92309000Y-75280000D02*
X92309000Y-73040000D01*
X92349000Y-70960000D02*
X92349000Y-68691000D01*
X92349000Y-75309000D02*
X92349000Y-73040000D01*
X92389000Y-70960000D02*
X92389000Y-68662000D01*
X92389000Y-75338000D02*
X92389000Y-73040000D01*
X92429000Y-70960000D02*
X92429000Y-68635000D01*
X92429000Y-75365000D02*
X92429000Y-73040000D01*
X92469000Y-70960000D02*
X92469000Y-68608000D01*
X92469000Y-75392000D02*
X92469000Y-73040000D01*
X92509000Y-70960000D02*
X92509000Y-68582000D01*
X92509000Y-75418000D02*
X92509000Y-73040000D01*
X92549000Y-70960000D02*
X92549000Y-68556000D01*
X92549000Y-75444000D02*
X92549000Y-73040000D01*
X92589000Y-70960000D02*
X92589000Y-68531000D01*
X92589000Y-75469000D02*
X92589000Y-73040000D01*
X92629000Y-70960000D02*
X92629000Y-68507000D01*
X92629000Y-75493000D02*
X92629000Y-73040000D01*
X92669000Y-70960000D02*
X92669000Y-68483000D01*
X92669000Y-75517000D02*
X92669000Y-73040000D01*
X92709000Y-70960000D02*
X92709000Y-68460000D01*
X92709000Y-75540000D02*
X92709000Y-73040000D01*
X92749000Y-70960000D02*
X92749000Y-68438000D01*
X92749000Y-75562000D02*
X92749000Y-73040000D01*
X92789000Y-70960000D02*
X92789000Y-68416000D01*
X92789000Y-75584000D02*
X92789000Y-73040000D01*
X92829000Y-70960000D02*
X92829000Y-68394000D01*
X92829000Y-75606000D02*
X92829000Y-73040000D01*
X92869000Y-70960000D02*
X92869000Y-68373000D01*
X92869000Y-75627000D02*
X92869000Y-73040000D01*
X92909000Y-70960000D02*
X92909000Y-68353000D01*
X92909000Y-75647000D02*
X92909000Y-73040000D01*
X92949000Y-70960000D02*
X92949000Y-68334000D01*
X92949000Y-75666000D02*
X92949000Y-73040000D01*
X92989000Y-70960000D02*
X92989000Y-68314000D01*
X92989000Y-75686000D02*
X92989000Y-73040000D01*
X93029000Y-70960000D02*
X93029000Y-68296000D01*
X93029000Y-75704000D02*
X93029000Y-73040000D01*
X93069000Y-70960000D02*
X93069000Y-68278000D01*
X93069000Y-75722000D02*
X93069000Y-73040000D01*
X93109000Y-70960000D02*
X93109000Y-68260000D01*
X93109000Y-75740000D02*
X93109000Y-73040000D01*
X93149000Y-70960000D02*
X93149000Y-68243000D01*
X93149000Y-75757000D02*
X93149000Y-73040000D01*
X93189000Y-70960000D02*
X93189000Y-68226000D01*
X93189000Y-75774000D02*
X93189000Y-73040000D01*
X93229000Y-70960000D02*
X93229000Y-68210000D01*
X93229000Y-75790000D02*
X93229000Y-73040000D01*
X93269000Y-70960000D02*
X93269000Y-68195000D01*
X93269000Y-75805000D02*
X93269000Y-73040000D01*
X93309000Y-70960000D02*
X93309000Y-68179000D01*
X93309000Y-75821000D02*
X93309000Y-73040000D01*
X93349000Y-70960000D02*
X93349000Y-68165000D01*
X93349000Y-75835000D02*
X93349000Y-73040000D01*
X93389000Y-70960000D02*
X93389000Y-68150000D01*
X93389000Y-75850000D02*
X93389000Y-73040000D01*
X93429000Y-70960000D02*
X93429000Y-68137000D01*
X93429000Y-75863000D02*
X93429000Y-73040000D01*
X93469000Y-70960000D02*
X93469000Y-68123000D01*
X93469000Y-75877000D02*
X93469000Y-73040000D01*
X93509000Y-70960000D02*
X93509000Y-68111000D01*
X93509000Y-75889000D02*
X93509000Y-73040000D01*
X93549000Y-70960000D02*
X93549000Y-68098000D01*
X93549000Y-75902000D02*
X93549000Y-73040000D01*
X93589000Y-70960000D02*
X93589000Y-68086000D01*
X93589000Y-75914000D02*
X93589000Y-73040000D01*
X93629000Y-70960000D02*
X93629000Y-68075000D01*
X93629000Y-75925000D02*
X93629000Y-73040000D01*
X93669000Y-70960000D02*
X93669000Y-68064000D01*
X93669000Y-75936000D02*
X93669000Y-73040000D01*
X93709000Y-70960000D02*
X93709000Y-68053000D01*
X93709000Y-75947000D02*
X93709000Y-73040000D01*
X93749000Y-70960000D02*
X93749000Y-68043000D01*
X93749000Y-75957000D02*
X93749000Y-73040000D01*
X93789000Y-70960000D02*
X93789000Y-68033000D01*
X93789000Y-75967000D02*
X93789000Y-73040000D01*
X93829000Y-70960000D02*
X93829000Y-68024000D01*
X93829000Y-75976000D02*
X93829000Y-73040000D01*
X93869000Y-70960000D02*
X93869000Y-68015000D01*
X93869000Y-75985000D02*
X93869000Y-73040000D01*
X93909000Y-70960000D02*
X93909000Y-68006000D01*
X93909000Y-75994000D02*
X93909000Y-73040000D01*
X93949000Y-70960000D02*
X93949000Y-67998000D01*
X93949000Y-76002000D02*
X93949000Y-73040000D01*
X93989000Y-70960000D02*
X93989000Y-67990000D01*
X93989000Y-76010000D02*
X93989000Y-73040000D01*
X94029000Y-70960000D02*
X94029000Y-67983000D01*
X94029000Y-76017000D02*
X94029000Y-73040000D01*
X94070000Y-76024000D02*
X94070000Y-67976000D01*
X94110000Y-76030000D02*
X94110000Y-67970000D01*
X94150000Y-76037000D02*
X94150000Y-67963000D01*
X94190000Y-76042000D02*
X94190000Y-67958000D01*
X94230000Y-76048000D02*
X94230000Y-67952000D01*
X94270000Y-76052000D02*
X94270000Y-67948000D01*
X94310000Y-76057000D02*
X94310000Y-67943000D01*
X94350000Y-76061000D02*
X94350000Y-67939000D01*
X94390000Y-76065000D02*
X94390000Y-67935000D01*
X94430000Y-76068000D02*
X94430000Y-67932000D01*
X94470000Y-76071000D02*
X94470000Y-67929000D01*
X94510000Y-76074000D02*
X94510000Y-67926000D01*
X94550000Y-76076000D02*
X94550000Y-67924000D01*
X94590000Y-76077000D02*
X94590000Y-67923000D01*
X94630000Y-76079000D02*
X94630000Y-67921000D01*
X94670000Y-76080000D02*
X94670000Y-67920000D01*
X94710000Y-76080000D02*
X94710000Y-67920000D01*
X94750000Y-76080000D02*
X94750000Y-67920000D01*
X98870000Y-72000000D02*
G75*
G03X98870000Y-72000000I-4120000J0D01*
G01*
D13*
X87179523Y-109923333D02*
X88086666Y-109923333D01*
X88268095Y-109983809D01*
X88389047Y-110104761D01*
X88449523Y-110286190D01*
X88449523Y-110407142D01*
X87179523Y-109439523D02*
X87179523Y-108592857D01*
X88449523Y-109137142D01*
X124576666Y-104929523D02*
X124576666Y-105836666D01*
X124516190Y-106018095D01*
X124395238Y-106139047D01*
X124213809Y-106199523D01*
X124092857Y-106199523D01*
X125725714Y-104929523D02*
X125483809Y-104929523D01*
X125362857Y-104990000D01*
X125302380Y-105050476D01*
X125181428Y-105231904D01*
X125120952Y-105473809D01*
X125120952Y-105957619D01*
X125181428Y-106078571D01*
X125241904Y-106139047D01*
X125362857Y-106199523D01*
X125604761Y-106199523D01*
X125725714Y-106139047D01*
X125786190Y-106078571D01*
X125846666Y-105957619D01*
X125846666Y-105655238D01*
X125786190Y-105534285D01*
X125725714Y-105473809D01*
X125604761Y-105413333D01*
X125362857Y-105413333D01*
X125241904Y-105473809D01*
X125181428Y-105534285D01*
X125120952Y-105655238D01*
X124576666Y-75679523D02*
X124576666Y-76586666D01*
X124516190Y-76768095D01*
X124395238Y-76889047D01*
X124213809Y-76949523D01*
X124092857Y-76949523D01*
X125786190Y-75679523D02*
X125181428Y-75679523D01*
X125120952Y-76284285D01*
X125181428Y-76223809D01*
X125302380Y-76163333D01*
X125604761Y-76163333D01*
X125725714Y-76223809D01*
X125786190Y-76284285D01*
X125846666Y-76405238D01*
X125846666Y-76707619D01*
X125786190Y-76828571D01*
X125725714Y-76889047D01*
X125604761Y-76949523D01*
X125302380Y-76949523D01*
X125181428Y-76889047D01*
X125120952Y-76828571D01*
X86679523Y-73923333D02*
X87586666Y-73923333D01*
X87768095Y-73983809D01*
X87889047Y-74104761D01*
X87949523Y-74286190D01*
X87949523Y-74407142D01*
X87102857Y-72774285D02*
X87949523Y-72774285D01*
X86619047Y-73076666D02*
X87526190Y-73379047D01*
X87526190Y-72592857D01*
D14*
X65126666Y-113532380D02*
X65126666Y-114246666D01*
X65079047Y-114389523D01*
X64983809Y-114484761D01*
X64840952Y-114532380D01*
X64745714Y-114532380D01*
X65555238Y-113627619D02*
X65602857Y-113580000D01*
X65698095Y-113532380D01*
X65936190Y-113532380D01*
X66031428Y-113580000D01*
X66079047Y-113627619D01*
X66126666Y-113722857D01*
X66126666Y-113818095D01*
X66079047Y-113960952D01*
X65507619Y-114532380D01*
X66126666Y-114532380D01*
X65206666Y-66372380D02*
X65206666Y-67086666D01*
X65159047Y-67229523D01*
X65063809Y-67324761D01*
X64920952Y-67372380D01*
X64825714Y-67372380D01*
X66206666Y-67372380D02*
X65635238Y-67372380D01*
X65920952Y-67372380D02*
X65920952Y-66372380D01*
X65825714Y-66515238D01*
X65730476Y-66610476D01*
X65635238Y-66658095D01*
X103677142Y-99130357D02*
X103724761Y-99177976D01*
X103772380Y-99320833D01*
X103772380Y-99416071D01*
X103724761Y-99558928D01*
X103629523Y-99654166D01*
X103534285Y-99701785D01*
X103343809Y-99749404D01*
X103200952Y-99749404D01*
X103010476Y-99701785D01*
X102915238Y-99654166D01*
X102820000Y-99558928D01*
X102772380Y-99416071D01*
X102772380Y-99320833D01*
X102820000Y-99177976D01*
X102867619Y-99130357D01*
X103772380Y-98177976D02*
X103772380Y-98749404D01*
X103772380Y-98463690D02*
X102772380Y-98463690D01*
X102915238Y-98558928D01*
X103010476Y-98654166D01*
X103058095Y-98749404D01*
X103772380Y-97701785D02*
X103772380Y-97511309D01*
X103724761Y-97416071D01*
X103677142Y-97368452D01*
X103534285Y-97273214D01*
X103343809Y-97225595D01*
X102962857Y-97225595D01*
X102867619Y-97273214D01*
X102820000Y-97320833D01*
X102772380Y-97416071D01*
X102772380Y-97606547D01*
X102820000Y-97701785D01*
X102867619Y-97749404D01*
X102962857Y-97797023D01*
X103200952Y-97797023D01*
X103296190Y-97749404D01*
X103343809Y-97701785D01*
X103391428Y-97606547D01*
X103391428Y-97416071D01*
X103343809Y-97320833D01*
X103296190Y-97273214D01*
X103200952Y-97225595D01*
X103677142Y-83642857D02*
X103724761Y-83690476D01*
X103772380Y-83833333D01*
X103772380Y-83928571D01*
X103724761Y-84071428D01*
X103629523Y-84166666D01*
X103534285Y-84214285D01*
X103343809Y-84261904D01*
X103200952Y-84261904D01*
X103010476Y-84214285D01*
X102915238Y-84166666D01*
X102820000Y-84071428D01*
X102772380Y-83928571D01*
X102772380Y-83833333D01*
X102820000Y-83690476D01*
X102867619Y-83642857D01*
X103772380Y-82690476D02*
X103772380Y-83261904D01*
X103772380Y-82976190D02*
X102772380Y-82976190D01*
X102915238Y-83071428D01*
X103010476Y-83166666D01*
X103058095Y-83261904D01*
X103200952Y-82119047D02*
X103153333Y-82214285D01*
X103105714Y-82261904D01*
X103010476Y-82309523D01*
X102962857Y-82309523D01*
X102867619Y-82261904D01*
X102820000Y-82214285D01*
X102772380Y-82119047D01*
X102772380Y-81928571D01*
X102820000Y-81833333D01*
X102867619Y-81785714D01*
X102962857Y-81738095D01*
X103010476Y-81738095D01*
X103105714Y-81785714D01*
X103153333Y-81833333D01*
X103200952Y-81928571D01*
X103200952Y-82119047D01*
X103248571Y-82214285D01*
X103296190Y-82261904D01*
X103391428Y-82309523D01*
X103581904Y-82309523D01*
X103677142Y-82261904D01*
X103724761Y-82214285D01*
X103772380Y-82119047D01*
X103772380Y-81928571D01*
X103724761Y-81833333D01*
X103677142Y-81785714D01*
X103581904Y-81738095D01*
X103391428Y-81738095D01*
X103296190Y-81785714D01*
X103248571Y-81833333D01*
X103200952Y-81928571D01*
X105833333Y-101102380D02*
X105357142Y-101102380D01*
X105357142Y-100102380D01*
X106119047Y-100197619D02*
X106166666Y-100150000D01*
X106261904Y-100102380D01*
X106500000Y-100102380D01*
X106595238Y-100150000D01*
X106642857Y-100197619D01*
X106690476Y-100292857D01*
X106690476Y-100388095D01*
X106642857Y-100530952D01*
X106071428Y-101102380D01*
X106690476Y-101102380D01*
X118452380Y-91833333D02*
X119166666Y-91833333D01*
X119309523Y-91880952D01*
X119404761Y-91976190D01*
X119452380Y-92119047D01*
X119452380Y-92214285D01*
X118452380Y-91452380D02*
X118452380Y-90833333D01*
X118833333Y-91166666D01*
X118833333Y-91023809D01*
X118880952Y-90928571D01*
X118928571Y-90880952D01*
X119023809Y-90833333D01*
X119261904Y-90833333D01*
X119357142Y-90880952D01*
X119404761Y-90928571D01*
X119452380Y-91023809D01*
X119452380Y-91309523D01*
X119404761Y-91404761D01*
X119357142Y-91452380D01*
X120357142Y-100142857D02*
X120404761Y-100190476D01*
X120452380Y-100333333D01*
X120452380Y-100428571D01*
X120404761Y-100571428D01*
X120309523Y-100666666D01*
X120214285Y-100714285D01*
X120023809Y-100761904D01*
X119880952Y-100761904D01*
X119690476Y-100714285D01*
X119595238Y-100666666D01*
X119500000Y-100571428D01*
X119452380Y-100428571D01*
X119452380Y-100333333D01*
X119500000Y-100190476D01*
X119547619Y-100142857D01*
X120452380Y-99190476D02*
X120452380Y-99761904D01*
X120452380Y-99476190D02*
X119452380Y-99476190D01*
X119595238Y-99571428D01*
X119690476Y-99666666D01*
X119738095Y-99761904D01*
X119452380Y-98571428D02*
X119452380Y-98476190D01*
X119500000Y-98380952D01*
X119547619Y-98333333D01*
X119642857Y-98285714D01*
X119833333Y-98238095D01*
X120071428Y-98238095D01*
X120261904Y-98285714D01*
X120357142Y-98333333D01*
X120404761Y-98380952D01*
X120452380Y-98476190D01*
X120452380Y-98571428D01*
X120404761Y-98666666D01*
X120357142Y-98714285D01*
X120261904Y-98761904D01*
X120071428Y-98809523D01*
X119833333Y-98809523D01*
X119642857Y-98761904D01*
X119547619Y-98714285D01*
X119500000Y-98666666D01*
X119452380Y-98571428D01*
X119177142Y-101666666D02*
X119224761Y-101714285D01*
X119272380Y-101857142D01*
X119272380Y-101952380D01*
X119224761Y-102095238D01*
X119129523Y-102190476D01*
X119034285Y-102238095D01*
X118843809Y-102285714D01*
X118700952Y-102285714D01*
X118510476Y-102238095D01*
X118415238Y-102190476D01*
X118320000Y-102095238D01*
X118272380Y-101952380D01*
X118272380Y-101857142D01*
X118320000Y-101714285D01*
X118367619Y-101666666D01*
X119272380Y-101190476D02*
X119272380Y-101000000D01*
X119224761Y-100904761D01*
X119177142Y-100857142D01*
X119034285Y-100761904D01*
X118843809Y-100714285D01*
X118462857Y-100714285D01*
X118367619Y-100761904D01*
X118320000Y-100809523D01*
X118272380Y-100904761D01*
X118272380Y-101095238D01*
X118320000Y-101190476D01*
X118367619Y-101238095D01*
X118462857Y-101285714D01*
X118700952Y-101285714D01*
X118796190Y-101238095D01*
X118843809Y-101190476D01*
X118891428Y-101095238D01*
X118891428Y-100904761D01*
X118843809Y-100809523D01*
X118796190Y-100761904D01*
X118700952Y-100714285D01*
X115537142Y-96166666D02*
X115584761Y-96214285D01*
X115632380Y-96357142D01*
X115632380Y-96452380D01*
X115584761Y-96595238D01*
X115489523Y-96690476D01*
X115394285Y-96738095D01*
X115203809Y-96785714D01*
X115060952Y-96785714D01*
X114870476Y-96738095D01*
X114775238Y-96690476D01*
X114680000Y-96595238D01*
X114632380Y-96452380D01*
X114632380Y-96357142D01*
X114680000Y-96214285D01*
X114727619Y-96166666D01*
X115060952Y-95595238D02*
X115013333Y-95690476D01*
X114965714Y-95738095D01*
X114870476Y-95785714D01*
X114822857Y-95785714D01*
X114727619Y-95738095D01*
X114680000Y-95690476D01*
X114632380Y-95595238D01*
X114632380Y-95404761D01*
X114680000Y-95309523D01*
X114727619Y-95261904D01*
X114822857Y-95214285D01*
X114870476Y-95214285D01*
X114965714Y-95261904D01*
X115013333Y-95309523D01*
X115060952Y-95404761D01*
X115060952Y-95595238D01*
X115108571Y-95690476D01*
X115156190Y-95738095D01*
X115251428Y-95785714D01*
X115441904Y-95785714D01*
X115537142Y-95738095D01*
X115584761Y-95690476D01*
X115632380Y-95595238D01*
X115632380Y-95404761D01*
X115584761Y-95309523D01*
X115537142Y-95261904D01*
X115441904Y-95214285D01*
X115251428Y-95214285D01*
X115156190Y-95261904D01*
X115108571Y-95309523D01*
X115060952Y-95404761D01*
X113857142Y-100166666D02*
X113904761Y-100214285D01*
X113952380Y-100357142D01*
X113952380Y-100452380D01*
X113904761Y-100595238D01*
X113809523Y-100690476D01*
X113714285Y-100738095D01*
X113523809Y-100785714D01*
X113380952Y-100785714D01*
X113190476Y-100738095D01*
X113095238Y-100690476D01*
X113000000Y-100595238D01*
X112952380Y-100452380D01*
X112952380Y-100357142D01*
X113000000Y-100214285D01*
X113047619Y-100166666D01*
X112952380Y-99833333D02*
X112952380Y-99166666D01*
X113952380Y-99595238D01*
X98333333Y-105857142D02*
X98285714Y-105904761D01*
X98142857Y-105952380D01*
X98047619Y-105952380D01*
X97904761Y-105904761D01*
X97809523Y-105809523D01*
X97761904Y-105714285D01*
X97714285Y-105523809D01*
X97714285Y-105380952D01*
X97761904Y-105190476D01*
X97809523Y-105095238D01*
X97904761Y-105000000D01*
X98047619Y-104952380D01*
X98142857Y-104952380D01*
X98285714Y-105000000D01*
X98333333Y-105047619D01*
X99190476Y-104952380D02*
X99000000Y-104952380D01*
X98904761Y-105000000D01*
X98857142Y-105047619D01*
X98761904Y-105190476D01*
X98714285Y-105380952D01*
X98714285Y-105761904D01*
X98761904Y-105857142D01*
X98809523Y-105904761D01*
X98904761Y-105952380D01*
X99095238Y-105952380D01*
X99190476Y-105904761D01*
X99238095Y-105857142D01*
X99285714Y-105761904D01*
X99285714Y-105523809D01*
X99238095Y-105428571D01*
X99190476Y-105380952D01*
X99095238Y-105333333D01*
X98904761Y-105333333D01*
X98809523Y-105380952D01*
X98761904Y-105428571D01*
X98714285Y-105523809D01*
D13*
X58457857Y-101074523D02*
X58457857Y-99804523D01*
X58941666Y-99804523D01*
X59062619Y-99865000D01*
X59123095Y-99925476D01*
X59183571Y-100046428D01*
X59183571Y-100227857D01*
X59123095Y-100348809D01*
X59062619Y-100409285D01*
X58941666Y-100469761D01*
X58457857Y-100469761D01*
X59667380Y-101014047D02*
X59848809Y-101074523D01*
X60151190Y-101074523D01*
X60272142Y-101014047D01*
X60332619Y-100953571D01*
X60393095Y-100832619D01*
X60393095Y-100711666D01*
X60332619Y-100590714D01*
X60272142Y-100530238D01*
X60151190Y-100469761D01*
X59909285Y-100409285D01*
X59788333Y-100348809D01*
X59727857Y-100288333D01*
X59667380Y-100167380D01*
X59667380Y-100046428D01*
X59727857Y-99925476D01*
X59788333Y-99865000D01*
X59909285Y-99804523D01*
X60211666Y-99804523D01*
X60393095Y-99865000D01*
X61602619Y-101074523D02*
X60876904Y-101074523D01*
X61239761Y-101074523D02*
X61239761Y-99804523D01*
X61118809Y-99985952D01*
X60997857Y-100106904D01*
X60876904Y-100167380D01*
D14*
X105833333Y-81452380D02*
X105357142Y-81452380D01*
X105357142Y-80452380D01*
X106690476Y-81452380D02*
X106119047Y-81452380D01*
X106404761Y-81452380D02*
X106404761Y-80452380D01*
X106309523Y-80595238D01*
X106214285Y-80690476D01*
X106119047Y-80738095D01*
X120357142Y-83666666D02*
X120404761Y-83714285D01*
X120452380Y-83857142D01*
X120452380Y-83952380D01*
X120404761Y-84095238D01*
X120309523Y-84190476D01*
X120214285Y-84238095D01*
X120023809Y-84285714D01*
X119880952Y-84285714D01*
X119690476Y-84238095D01*
X119595238Y-84190476D01*
X119500000Y-84095238D01*
X119452380Y-83952380D01*
X119452380Y-83857142D01*
X119500000Y-83714285D01*
X119547619Y-83666666D01*
X119452380Y-82761904D02*
X119452380Y-83238095D01*
X119928571Y-83285714D01*
X119880952Y-83238095D01*
X119833333Y-83142857D01*
X119833333Y-82904761D01*
X119880952Y-82809523D01*
X119928571Y-82761904D01*
X120023809Y-82714285D01*
X120261904Y-82714285D01*
X120357142Y-82761904D01*
X120404761Y-82809523D01*
X120452380Y-82904761D01*
X120452380Y-83142857D01*
X120404761Y-83238095D01*
X120357142Y-83285714D01*
X115357142Y-86666666D02*
X115404761Y-86714285D01*
X115452380Y-86857142D01*
X115452380Y-86952380D01*
X115404761Y-87095238D01*
X115309523Y-87190476D01*
X115214285Y-87238095D01*
X115023809Y-87285714D01*
X114880952Y-87285714D01*
X114690476Y-87238095D01*
X114595238Y-87190476D01*
X114500000Y-87095238D01*
X114452380Y-86952380D01*
X114452380Y-86857142D01*
X114500000Y-86714285D01*
X114547619Y-86666666D01*
X114785714Y-85809523D02*
X115452380Y-85809523D01*
X114404761Y-86047619D02*
X115119047Y-86285714D01*
X115119047Y-85666666D01*
X115537142Y-81166666D02*
X115584761Y-81214285D01*
X115632380Y-81357142D01*
X115632380Y-81452380D01*
X115584761Y-81595238D01*
X115489523Y-81690476D01*
X115394285Y-81738095D01*
X115203809Y-81785714D01*
X115060952Y-81785714D01*
X114870476Y-81738095D01*
X114775238Y-81690476D01*
X114680000Y-81595238D01*
X114632380Y-81452380D01*
X114632380Y-81357142D01*
X114680000Y-81214285D01*
X114727619Y-81166666D01*
X114632380Y-80833333D02*
X114632380Y-80214285D01*
X115013333Y-80547619D01*
X115013333Y-80404761D01*
X115060952Y-80309523D01*
X115108571Y-80261904D01*
X115203809Y-80214285D01*
X115441904Y-80214285D01*
X115537142Y-80261904D01*
X115584761Y-80309523D01*
X115632380Y-80404761D01*
X115632380Y-80690476D01*
X115584761Y-80785714D01*
X115537142Y-80833333D01*
X113857142Y-83166666D02*
X113904761Y-83214285D01*
X113952380Y-83357142D01*
X113952380Y-83452380D01*
X113904761Y-83595238D01*
X113809523Y-83690476D01*
X113714285Y-83738095D01*
X113523809Y-83785714D01*
X113380952Y-83785714D01*
X113190476Y-83738095D01*
X113095238Y-83690476D01*
X113000000Y-83595238D01*
X112952380Y-83452380D01*
X112952380Y-83357142D01*
X113000000Y-83214285D01*
X113047619Y-83166666D01*
X113047619Y-82785714D02*
X113000000Y-82738095D01*
X112952380Y-82642857D01*
X112952380Y-82404761D01*
X113000000Y-82309523D01*
X113047619Y-82261904D01*
X113142857Y-82214285D01*
X113238095Y-82214285D01*
X113380952Y-82261904D01*
X113952380Y-82833333D01*
X113952380Y-82214285D01*
X97833333Y-76357142D02*
X97785714Y-76404761D01*
X97642857Y-76452380D01*
X97547619Y-76452380D01*
X97404761Y-76404761D01*
X97309523Y-76309523D01*
X97261904Y-76214285D01*
X97214285Y-76023809D01*
X97214285Y-75880952D01*
X97261904Y-75690476D01*
X97309523Y-75595238D01*
X97404761Y-75500000D01*
X97547619Y-75452380D01*
X97642857Y-75452380D01*
X97785714Y-75500000D01*
X97833333Y-75547619D01*
X98785714Y-76452380D02*
X98214285Y-76452380D01*
X98500000Y-76452380D02*
X98500000Y-75452380D01*
X98404761Y-75595238D01*
X98309523Y-75690476D01*
X98214285Y-75738095D01*
%LPC*%
D15*
X87500000Y-108025000D03*
X87500000Y-110975000D03*
D16*
X89025000Y-109500000D03*
D17*
X123525000Y-106000000D03*
X126475000Y-106000000D03*
D18*
X125000000Y-104475000D03*
D17*
X126475000Y-76000000D03*
X123525000Y-76000000D03*
D18*
X125000000Y-77525000D03*
D15*
X87000000Y-72025000D03*
X87000000Y-74975000D03*
D16*
X88525000Y-73500000D03*
D19*
X62920000Y-109000000D03*
D20*
X68000000Y-109000000D03*
D19*
X68080000Y-72000000D03*
D20*
X63000000Y-72000000D03*
D11*
G36*
X102184363Y-99212790D02*
G01*
X102210369Y-99216648D01*
X102235871Y-99223035D01*
X102260624Y-99231892D01*
X102284390Y-99243133D01*
X102306939Y-99256648D01*
X102328056Y-99272309D01*
X102347535Y-99289965D01*
X102365191Y-99309444D01*
X102380852Y-99330561D01*
X102394367Y-99353110D01*
X102405608Y-99376876D01*
X102414465Y-99401629D01*
X102420852Y-99427131D01*
X102424710Y-99453137D01*
X102426000Y-99479395D01*
X102426000Y-100470605D01*
X102424710Y-100496863D01*
X102420852Y-100522869D01*
X102414465Y-100548371D01*
X102405608Y-100573124D01*
X102394367Y-100596890D01*
X102380852Y-100619439D01*
X102365191Y-100640556D01*
X102347535Y-100660035D01*
X102328056Y-100677691D01*
X102306939Y-100693352D01*
X102284390Y-100706867D01*
X102260624Y-100718108D01*
X102235871Y-100726965D01*
X102210369Y-100733352D01*
X102184363Y-100737210D01*
X102158105Y-100738500D01*
X100841895Y-100738500D01*
X100815637Y-100737210D01*
X100789631Y-100733352D01*
X100764129Y-100726965D01*
X100739376Y-100718108D01*
X100715610Y-100706867D01*
X100693061Y-100693352D01*
X100671944Y-100677691D01*
X100652465Y-100660035D01*
X100634809Y-100640556D01*
X100619148Y-100619439D01*
X100605633Y-100596890D01*
X100594392Y-100573124D01*
X100585535Y-100548371D01*
X100579148Y-100522869D01*
X100575290Y-100496863D01*
X100574000Y-100470605D01*
X100574000Y-99479395D01*
X100575290Y-99453137D01*
X100579148Y-99427131D01*
X100585535Y-99401629D01*
X100594392Y-99376876D01*
X100605633Y-99353110D01*
X100619148Y-99330561D01*
X100634809Y-99309444D01*
X100652465Y-99289965D01*
X100671944Y-99272309D01*
X100693061Y-99256648D01*
X100715610Y-99243133D01*
X100739376Y-99231892D01*
X100764129Y-99223035D01*
X100789631Y-99216648D01*
X100815637Y-99212790D01*
X100841895Y-99211500D01*
X102158105Y-99211500D01*
X102184363Y-99212790D01*
X102184363Y-99212790D01*
G37*
D21*
X101500000Y-99975000D03*
D11*
G36*
X102184363Y-96237790D02*
G01*
X102210369Y-96241648D01*
X102235871Y-96248035D01*
X102260624Y-96256892D01*
X102284390Y-96268133D01*
X102306939Y-96281648D01*
X102328056Y-96297309D01*
X102347535Y-96314965D01*
X102365191Y-96334444D01*
X102380852Y-96355561D01*
X102394367Y-96378110D01*
X102405608Y-96401876D01*
X102414465Y-96426629D01*
X102420852Y-96452131D01*
X102424710Y-96478137D01*
X102426000Y-96504395D01*
X102426000Y-97495605D01*
X102424710Y-97521863D01*
X102420852Y-97547869D01*
X102414465Y-97573371D01*
X102405608Y-97598124D01*
X102394367Y-97621890D01*
X102380852Y-97644439D01*
X102365191Y-97665556D01*
X102347535Y-97685035D01*
X102328056Y-97702691D01*
X102306939Y-97718352D01*
X102284390Y-97731867D01*
X102260624Y-97743108D01*
X102235871Y-97751965D01*
X102210369Y-97758352D01*
X102184363Y-97762210D01*
X102158105Y-97763500D01*
X100841895Y-97763500D01*
X100815637Y-97762210D01*
X100789631Y-97758352D01*
X100764129Y-97751965D01*
X100739376Y-97743108D01*
X100715610Y-97731867D01*
X100693061Y-97718352D01*
X100671944Y-97702691D01*
X100652465Y-97685035D01*
X100634809Y-97665556D01*
X100619148Y-97644439D01*
X100605633Y-97621890D01*
X100594392Y-97598124D01*
X100585535Y-97573371D01*
X100579148Y-97547869D01*
X100575290Y-97521863D01*
X100574000Y-97495605D01*
X100574000Y-96504395D01*
X100575290Y-96478137D01*
X100579148Y-96452131D01*
X100585535Y-96426629D01*
X100594392Y-96401876D01*
X100605633Y-96378110D01*
X100619148Y-96355561D01*
X100634809Y-96334444D01*
X100652465Y-96314965D01*
X100671944Y-96297309D01*
X100693061Y-96281648D01*
X100715610Y-96268133D01*
X100739376Y-96256892D01*
X100764129Y-96248035D01*
X100789631Y-96241648D01*
X100815637Y-96237790D01*
X100841895Y-96236500D01*
X102158105Y-96236500D01*
X102184363Y-96237790D01*
X102184363Y-96237790D01*
G37*
D21*
X101500000Y-97000000D03*
D11*
G36*
X102184363Y-83725290D02*
G01*
X102210369Y-83729148D01*
X102235871Y-83735535D01*
X102260624Y-83744392D01*
X102284390Y-83755633D01*
X102306939Y-83769148D01*
X102328056Y-83784809D01*
X102347535Y-83802465D01*
X102365191Y-83821944D01*
X102380852Y-83843061D01*
X102394367Y-83865610D01*
X102405608Y-83889376D01*
X102414465Y-83914129D01*
X102420852Y-83939631D01*
X102424710Y-83965637D01*
X102426000Y-83991895D01*
X102426000Y-84983105D01*
X102424710Y-85009363D01*
X102420852Y-85035369D01*
X102414465Y-85060871D01*
X102405608Y-85085624D01*
X102394367Y-85109390D01*
X102380852Y-85131939D01*
X102365191Y-85153056D01*
X102347535Y-85172535D01*
X102328056Y-85190191D01*
X102306939Y-85205852D01*
X102284390Y-85219367D01*
X102260624Y-85230608D01*
X102235871Y-85239465D01*
X102210369Y-85245852D01*
X102184363Y-85249710D01*
X102158105Y-85251000D01*
X100841895Y-85251000D01*
X100815637Y-85249710D01*
X100789631Y-85245852D01*
X100764129Y-85239465D01*
X100739376Y-85230608D01*
X100715610Y-85219367D01*
X100693061Y-85205852D01*
X100671944Y-85190191D01*
X100652465Y-85172535D01*
X100634809Y-85153056D01*
X100619148Y-85131939D01*
X100605633Y-85109390D01*
X100594392Y-85085624D01*
X100585535Y-85060871D01*
X100579148Y-85035369D01*
X100575290Y-85009363D01*
X100574000Y-84983105D01*
X100574000Y-83991895D01*
X100575290Y-83965637D01*
X100579148Y-83939631D01*
X100585535Y-83914129D01*
X100594392Y-83889376D01*
X100605633Y-83865610D01*
X100619148Y-83843061D01*
X100634809Y-83821944D01*
X100652465Y-83802465D01*
X100671944Y-83784809D01*
X100693061Y-83769148D01*
X100715610Y-83755633D01*
X100739376Y-83744392D01*
X100764129Y-83735535D01*
X100789631Y-83729148D01*
X100815637Y-83725290D01*
X100841895Y-83724000D01*
X102158105Y-83724000D01*
X102184363Y-83725290D01*
X102184363Y-83725290D01*
G37*
D21*
X101500000Y-84487500D03*
D11*
G36*
X102184363Y-80750290D02*
G01*
X102210369Y-80754148D01*
X102235871Y-80760535D01*
X102260624Y-80769392D01*
X102284390Y-80780633D01*
X102306939Y-80794148D01*
X102328056Y-80809809D01*
X102347535Y-80827465D01*
X102365191Y-80846944D01*
X102380852Y-80868061D01*
X102394367Y-80890610D01*
X102405608Y-80914376D01*
X102414465Y-80939129D01*
X102420852Y-80964631D01*
X102424710Y-80990637D01*
X102426000Y-81016895D01*
X102426000Y-82008105D01*
X102424710Y-82034363D01*
X102420852Y-82060369D01*
X102414465Y-82085871D01*
X102405608Y-82110624D01*
X102394367Y-82134390D01*
X102380852Y-82156939D01*
X102365191Y-82178056D01*
X102347535Y-82197535D01*
X102328056Y-82215191D01*
X102306939Y-82230852D01*
X102284390Y-82244367D01*
X102260624Y-82255608D01*
X102235871Y-82264465D01*
X102210369Y-82270852D01*
X102184363Y-82274710D01*
X102158105Y-82276000D01*
X100841895Y-82276000D01*
X100815637Y-82274710D01*
X100789631Y-82270852D01*
X100764129Y-82264465D01*
X100739376Y-82255608D01*
X100715610Y-82244367D01*
X100693061Y-82230852D01*
X100671944Y-82215191D01*
X100652465Y-82197535D01*
X100634809Y-82178056D01*
X100619148Y-82156939D01*
X100605633Y-82134390D01*
X100594392Y-82110624D01*
X100585535Y-82085871D01*
X100579148Y-82060369D01*
X100575290Y-82034363D01*
X100574000Y-82008105D01*
X100574000Y-81016895D01*
X100575290Y-80990637D01*
X100579148Y-80964631D01*
X100585535Y-80939129D01*
X100594392Y-80914376D01*
X100605633Y-80890610D01*
X100619148Y-80868061D01*
X100634809Y-80846944D01*
X100652465Y-80827465D01*
X100671944Y-80809809D01*
X100693061Y-80794148D01*
X100715610Y-80780633D01*
X100739376Y-80769392D01*
X100764129Y-80760535D01*
X100789631Y-80754148D01*
X100815637Y-80750290D01*
X100841895Y-80749000D01*
X102158105Y-80749000D01*
X102184363Y-80750290D01*
X102184363Y-80750290D01*
G37*
D21*
X101500000Y-81512500D03*
D22*
X110150000Y-107000000D03*
X101850000Y-107000000D03*
D19*
X125000000Y-86340000D03*
X125000000Y-91420000D03*
D20*
X125000000Y-96500000D03*
D11*
G36*
X120505505Y-94375311D02*
G01*
X120531925Y-94379230D01*
X120557835Y-94385720D01*
X120582983Y-94394718D01*
X120607128Y-94406138D01*
X120630038Y-94419869D01*
X120651492Y-94435780D01*
X120671282Y-94453718D01*
X120689220Y-94473508D01*
X120705131Y-94494962D01*
X120718862Y-94517872D01*
X120730282Y-94542017D01*
X120739280Y-94567165D01*
X120745770Y-94593075D01*
X120749689Y-94619495D01*
X120751000Y-94646173D01*
X120751000Y-95353827D01*
X120749689Y-95380505D01*
X120745770Y-95406925D01*
X120739280Y-95432835D01*
X120730282Y-95457983D01*
X120718862Y-95482128D01*
X120705131Y-95505038D01*
X120689220Y-95526492D01*
X120671282Y-95546282D01*
X120651492Y-95564220D01*
X120630038Y-95580131D01*
X120607128Y-95593862D01*
X120582983Y-95605282D01*
X120557835Y-95614280D01*
X120531925Y-95620770D01*
X120505505Y-95624689D01*
X120478827Y-95626000D01*
X119521173Y-95626000D01*
X119494495Y-95624689D01*
X119468075Y-95620770D01*
X119442165Y-95614280D01*
X119417017Y-95605282D01*
X119392872Y-95593862D01*
X119369962Y-95580131D01*
X119348508Y-95564220D01*
X119328718Y-95546282D01*
X119310780Y-95526492D01*
X119294869Y-95505038D01*
X119281138Y-95482128D01*
X119269718Y-95457983D01*
X119260720Y-95432835D01*
X119254230Y-95406925D01*
X119250311Y-95380505D01*
X119249000Y-95353827D01*
X119249000Y-94646173D01*
X119250311Y-94619495D01*
X119254230Y-94593075D01*
X119260720Y-94567165D01*
X119269718Y-94542017D01*
X119281138Y-94517872D01*
X119294869Y-94494962D01*
X119310780Y-94473508D01*
X119328718Y-94453718D01*
X119348508Y-94435780D01*
X119369962Y-94419869D01*
X119392872Y-94406138D01*
X119417017Y-94394718D01*
X119442165Y-94385720D01*
X119468075Y-94379230D01*
X119494495Y-94375311D01*
X119521173Y-94374000D01*
X120478827Y-94374000D01*
X120505505Y-94375311D01*
X120505505Y-94375311D01*
G37*
D23*
X120000000Y-95000000D03*
D11*
G36*
X120505505Y-96425311D02*
G01*
X120531925Y-96429230D01*
X120557835Y-96435720D01*
X120582983Y-96444718D01*
X120607128Y-96456138D01*
X120630038Y-96469869D01*
X120651492Y-96485780D01*
X120671282Y-96503718D01*
X120689220Y-96523508D01*
X120705131Y-96544962D01*
X120718862Y-96567872D01*
X120730282Y-96592017D01*
X120739280Y-96617165D01*
X120745770Y-96643075D01*
X120749689Y-96669495D01*
X120751000Y-96696173D01*
X120751000Y-97403827D01*
X120749689Y-97430505D01*
X120745770Y-97456925D01*
X120739280Y-97482835D01*
X120730282Y-97507983D01*
X120718862Y-97532128D01*
X120705131Y-97555038D01*
X120689220Y-97576492D01*
X120671282Y-97596282D01*
X120651492Y-97614220D01*
X120630038Y-97630131D01*
X120607128Y-97643862D01*
X120582983Y-97655282D01*
X120557835Y-97664280D01*
X120531925Y-97670770D01*
X120505505Y-97674689D01*
X120478827Y-97676000D01*
X119521173Y-97676000D01*
X119494495Y-97674689D01*
X119468075Y-97670770D01*
X119442165Y-97664280D01*
X119417017Y-97655282D01*
X119392872Y-97643862D01*
X119369962Y-97630131D01*
X119348508Y-97614220D01*
X119328718Y-97596282D01*
X119310780Y-97576492D01*
X119294869Y-97555038D01*
X119281138Y-97532128D01*
X119269718Y-97507983D01*
X119260720Y-97482835D01*
X119254230Y-97456925D01*
X119250311Y-97430505D01*
X119249000Y-97403827D01*
X119249000Y-96696173D01*
X119250311Y-96669495D01*
X119254230Y-96643075D01*
X119260720Y-96617165D01*
X119269718Y-96592017D01*
X119281138Y-96567872D01*
X119294869Y-96544962D01*
X119310780Y-96523508D01*
X119328718Y-96503718D01*
X119348508Y-96485780D01*
X119369962Y-96469869D01*
X119392872Y-96456138D01*
X119417017Y-96444718D01*
X119442165Y-96435720D01*
X119468075Y-96429230D01*
X119494495Y-96425311D01*
X119521173Y-96424000D01*
X120478827Y-96424000D01*
X120505505Y-96425311D01*
X120505505Y-96425311D01*
G37*
D23*
X120000000Y-97050000D03*
D11*
G36*
X117684363Y-102225290D02*
G01*
X117710369Y-102229148D01*
X117735871Y-102235535D01*
X117760624Y-102244392D01*
X117784390Y-102255633D01*
X117806939Y-102269148D01*
X117828056Y-102284809D01*
X117847535Y-102302465D01*
X117865191Y-102321944D01*
X117880852Y-102343061D01*
X117894367Y-102365610D01*
X117905608Y-102389376D01*
X117914465Y-102414129D01*
X117920852Y-102439631D01*
X117924710Y-102465637D01*
X117926000Y-102491895D01*
X117926000Y-103483105D01*
X117924710Y-103509363D01*
X117920852Y-103535369D01*
X117914465Y-103560871D01*
X117905608Y-103585624D01*
X117894367Y-103609390D01*
X117880852Y-103631939D01*
X117865191Y-103653056D01*
X117847535Y-103672535D01*
X117828056Y-103690191D01*
X117806939Y-103705852D01*
X117784390Y-103719367D01*
X117760624Y-103730608D01*
X117735871Y-103739465D01*
X117710369Y-103745852D01*
X117684363Y-103749710D01*
X117658105Y-103751000D01*
X116341895Y-103751000D01*
X116315637Y-103749710D01*
X116289631Y-103745852D01*
X116264129Y-103739465D01*
X116239376Y-103730608D01*
X116215610Y-103719367D01*
X116193061Y-103705852D01*
X116171944Y-103690191D01*
X116152465Y-103672535D01*
X116134809Y-103653056D01*
X116119148Y-103631939D01*
X116105633Y-103609390D01*
X116094392Y-103585624D01*
X116085535Y-103560871D01*
X116079148Y-103535369D01*
X116075290Y-103509363D01*
X116074000Y-103483105D01*
X116074000Y-102491895D01*
X116075290Y-102465637D01*
X116079148Y-102439631D01*
X116085535Y-102414129D01*
X116094392Y-102389376D01*
X116105633Y-102365610D01*
X116119148Y-102343061D01*
X116134809Y-102321944D01*
X116152465Y-102302465D01*
X116171944Y-102284809D01*
X116193061Y-102269148D01*
X116215610Y-102255633D01*
X116239376Y-102244392D01*
X116264129Y-102235535D01*
X116289631Y-102229148D01*
X116315637Y-102225290D01*
X116341895Y-102224000D01*
X117658105Y-102224000D01*
X117684363Y-102225290D01*
X117684363Y-102225290D01*
G37*
D21*
X117000000Y-102987500D03*
D11*
G36*
X117684363Y-99250290D02*
G01*
X117710369Y-99254148D01*
X117735871Y-99260535D01*
X117760624Y-99269392D01*
X117784390Y-99280633D01*
X117806939Y-99294148D01*
X117828056Y-99309809D01*
X117847535Y-99327465D01*
X117865191Y-99346944D01*
X117880852Y-99368061D01*
X117894367Y-99390610D01*
X117905608Y-99414376D01*
X117914465Y-99439129D01*
X117920852Y-99464631D01*
X117924710Y-99490637D01*
X117926000Y-99516895D01*
X117926000Y-100508105D01*
X117924710Y-100534363D01*
X117920852Y-100560369D01*
X117914465Y-100585871D01*
X117905608Y-100610624D01*
X117894367Y-100634390D01*
X117880852Y-100656939D01*
X117865191Y-100678056D01*
X117847535Y-100697535D01*
X117828056Y-100715191D01*
X117806939Y-100730852D01*
X117784390Y-100744367D01*
X117760624Y-100755608D01*
X117735871Y-100764465D01*
X117710369Y-100770852D01*
X117684363Y-100774710D01*
X117658105Y-100776000D01*
X116341895Y-100776000D01*
X116315637Y-100774710D01*
X116289631Y-100770852D01*
X116264129Y-100764465D01*
X116239376Y-100755608D01*
X116215610Y-100744367D01*
X116193061Y-100730852D01*
X116171944Y-100715191D01*
X116152465Y-100697535D01*
X116134809Y-100678056D01*
X116119148Y-100656939D01*
X116105633Y-100634390D01*
X116094392Y-100610624D01*
X116085535Y-100585871D01*
X116079148Y-100560369D01*
X116075290Y-100534363D01*
X116074000Y-100508105D01*
X116074000Y-99516895D01*
X116075290Y-99490637D01*
X116079148Y-99464631D01*
X116085535Y-99439129D01*
X116094392Y-99414376D01*
X116105633Y-99390610D01*
X116119148Y-99368061D01*
X116134809Y-99346944D01*
X116152465Y-99327465D01*
X116171944Y-99309809D01*
X116193061Y-99294148D01*
X116215610Y-99280633D01*
X116239376Y-99269392D01*
X116264129Y-99260535D01*
X116289631Y-99254148D01*
X116315637Y-99250290D01*
X116341895Y-99249000D01*
X117658105Y-99249000D01*
X117684363Y-99250290D01*
X117684363Y-99250290D01*
G37*
D21*
X117000000Y-100012500D03*
D11*
G36*
X117684363Y-93750290D02*
G01*
X117710369Y-93754148D01*
X117735871Y-93760535D01*
X117760624Y-93769392D01*
X117784390Y-93780633D01*
X117806939Y-93794148D01*
X117828056Y-93809809D01*
X117847535Y-93827465D01*
X117865191Y-93846944D01*
X117880852Y-93868061D01*
X117894367Y-93890610D01*
X117905608Y-93914376D01*
X117914465Y-93939129D01*
X117920852Y-93964631D01*
X117924710Y-93990637D01*
X117926000Y-94016895D01*
X117926000Y-95008105D01*
X117924710Y-95034363D01*
X117920852Y-95060369D01*
X117914465Y-95085871D01*
X117905608Y-95110624D01*
X117894367Y-95134390D01*
X117880852Y-95156939D01*
X117865191Y-95178056D01*
X117847535Y-95197535D01*
X117828056Y-95215191D01*
X117806939Y-95230852D01*
X117784390Y-95244367D01*
X117760624Y-95255608D01*
X117735871Y-95264465D01*
X117710369Y-95270852D01*
X117684363Y-95274710D01*
X117658105Y-95276000D01*
X116341895Y-95276000D01*
X116315637Y-95274710D01*
X116289631Y-95270852D01*
X116264129Y-95264465D01*
X116239376Y-95255608D01*
X116215610Y-95244367D01*
X116193061Y-95230852D01*
X116171944Y-95215191D01*
X116152465Y-95197535D01*
X116134809Y-95178056D01*
X116119148Y-95156939D01*
X116105633Y-95134390D01*
X116094392Y-95110624D01*
X116085535Y-95085871D01*
X116079148Y-95060369D01*
X116075290Y-95034363D01*
X116074000Y-95008105D01*
X116074000Y-94016895D01*
X116075290Y-93990637D01*
X116079148Y-93964631D01*
X116085535Y-93939129D01*
X116094392Y-93914376D01*
X116105633Y-93890610D01*
X116119148Y-93868061D01*
X116134809Y-93846944D01*
X116152465Y-93827465D01*
X116171944Y-93809809D01*
X116193061Y-93794148D01*
X116215610Y-93780633D01*
X116239376Y-93769392D01*
X116264129Y-93760535D01*
X116289631Y-93754148D01*
X116315637Y-93750290D01*
X116341895Y-93749000D01*
X117658105Y-93749000D01*
X117684363Y-93750290D01*
X117684363Y-93750290D01*
G37*
D21*
X117000000Y-94512500D03*
D11*
G36*
X117684363Y-96725290D02*
G01*
X117710369Y-96729148D01*
X117735871Y-96735535D01*
X117760624Y-96744392D01*
X117784390Y-96755633D01*
X117806939Y-96769148D01*
X117828056Y-96784809D01*
X117847535Y-96802465D01*
X117865191Y-96821944D01*
X117880852Y-96843061D01*
X117894367Y-96865610D01*
X117905608Y-96889376D01*
X117914465Y-96914129D01*
X117920852Y-96939631D01*
X117924710Y-96965637D01*
X117926000Y-96991895D01*
X117926000Y-97983105D01*
X117924710Y-98009363D01*
X117920852Y-98035369D01*
X117914465Y-98060871D01*
X117905608Y-98085624D01*
X117894367Y-98109390D01*
X117880852Y-98131939D01*
X117865191Y-98153056D01*
X117847535Y-98172535D01*
X117828056Y-98190191D01*
X117806939Y-98205852D01*
X117784390Y-98219367D01*
X117760624Y-98230608D01*
X117735871Y-98239465D01*
X117710369Y-98245852D01*
X117684363Y-98249710D01*
X117658105Y-98251000D01*
X116341895Y-98251000D01*
X116315637Y-98249710D01*
X116289631Y-98245852D01*
X116264129Y-98239465D01*
X116239376Y-98230608D01*
X116215610Y-98219367D01*
X116193061Y-98205852D01*
X116171944Y-98190191D01*
X116152465Y-98172535D01*
X116134809Y-98153056D01*
X116119148Y-98131939D01*
X116105633Y-98109390D01*
X116094392Y-98085624D01*
X116085535Y-98060871D01*
X116079148Y-98035369D01*
X116075290Y-98009363D01*
X116074000Y-97983105D01*
X116074000Y-96991895D01*
X116075290Y-96965637D01*
X116079148Y-96939631D01*
X116085535Y-96914129D01*
X116094392Y-96889376D01*
X116105633Y-96865610D01*
X116119148Y-96843061D01*
X116134809Y-96821944D01*
X116152465Y-96802465D01*
X116171944Y-96784809D01*
X116193061Y-96769148D01*
X116215610Y-96755633D01*
X116239376Y-96744392D01*
X116264129Y-96735535D01*
X116289631Y-96729148D01*
X116315637Y-96725290D01*
X116341895Y-96724000D01*
X117658105Y-96724000D01*
X117684363Y-96725290D01*
X117684363Y-96725290D01*
G37*
D21*
X117000000Y-97487500D03*
D24*
X110000000Y-97500000D03*
D25*
X110000000Y-94000000D03*
D24*
X96500000Y-109000000D03*
D25*
X93000000Y-109000000D03*
D26*
X94720000Y-81000000D03*
X94720000Y-91160000D03*
X94720000Y-101320000D03*
X49000000Y-101320000D03*
X49000000Y-81000000D03*
D22*
X110150000Y-74500000D03*
X101850000Y-74500000D03*
D11*
G36*
X120505505Y-86900311D02*
G01*
X120531925Y-86904230D01*
X120557835Y-86910720D01*
X120582983Y-86919718D01*
X120607128Y-86931138D01*
X120630038Y-86944869D01*
X120651492Y-86960780D01*
X120671282Y-86978718D01*
X120689220Y-86998508D01*
X120705131Y-87019962D01*
X120718862Y-87042872D01*
X120730282Y-87067017D01*
X120739280Y-87092165D01*
X120745770Y-87118075D01*
X120749689Y-87144495D01*
X120751000Y-87171173D01*
X120751000Y-87878827D01*
X120749689Y-87905505D01*
X120745770Y-87931925D01*
X120739280Y-87957835D01*
X120730282Y-87982983D01*
X120718862Y-88007128D01*
X120705131Y-88030038D01*
X120689220Y-88051492D01*
X120671282Y-88071282D01*
X120651492Y-88089220D01*
X120630038Y-88105131D01*
X120607128Y-88118862D01*
X120582983Y-88130282D01*
X120557835Y-88139280D01*
X120531925Y-88145770D01*
X120505505Y-88149689D01*
X120478827Y-88151000D01*
X119521173Y-88151000D01*
X119494495Y-88149689D01*
X119468075Y-88145770D01*
X119442165Y-88139280D01*
X119417017Y-88130282D01*
X119392872Y-88118862D01*
X119369962Y-88105131D01*
X119348508Y-88089220D01*
X119328718Y-88071282D01*
X119310780Y-88051492D01*
X119294869Y-88030038D01*
X119281138Y-88007128D01*
X119269718Y-87982983D01*
X119260720Y-87957835D01*
X119254230Y-87931925D01*
X119250311Y-87905505D01*
X119249000Y-87878827D01*
X119249000Y-87171173D01*
X119250311Y-87144495D01*
X119254230Y-87118075D01*
X119260720Y-87092165D01*
X119269718Y-87067017D01*
X119281138Y-87042872D01*
X119294869Y-87019962D01*
X119310780Y-86998508D01*
X119328718Y-86978718D01*
X119348508Y-86960780D01*
X119369962Y-86944869D01*
X119392872Y-86931138D01*
X119417017Y-86919718D01*
X119442165Y-86910720D01*
X119468075Y-86904230D01*
X119494495Y-86900311D01*
X119521173Y-86899000D01*
X120478827Y-86899000D01*
X120505505Y-86900311D01*
X120505505Y-86900311D01*
G37*
D23*
X120000000Y-87525000D03*
D11*
G36*
X120505505Y-84850311D02*
G01*
X120531925Y-84854230D01*
X120557835Y-84860720D01*
X120582983Y-84869718D01*
X120607128Y-84881138D01*
X120630038Y-84894869D01*
X120651492Y-84910780D01*
X120671282Y-84928718D01*
X120689220Y-84948508D01*
X120705131Y-84969962D01*
X120718862Y-84992872D01*
X120730282Y-85017017D01*
X120739280Y-85042165D01*
X120745770Y-85068075D01*
X120749689Y-85094495D01*
X120751000Y-85121173D01*
X120751000Y-85828827D01*
X120749689Y-85855505D01*
X120745770Y-85881925D01*
X120739280Y-85907835D01*
X120730282Y-85932983D01*
X120718862Y-85957128D01*
X120705131Y-85980038D01*
X120689220Y-86001492D01*
X120671282Y-86021282D01*
X120651492Y-86039220D01*
X120630038Y-86055131D01*
X120607128Y-86068862D01*
X120582983Y-86080282D01*
X120557835Y-86089280D01*
X120531925Y-86095770D01*
X120505505Y-86099689D01*
X120478827Y-86101000D01*
X119521173Y-86101000D01*
X119494495Y-86099689D01*
X119468075Y-86095770D01*
X119442165Y-86089280D01*
X119417017Y-86080282D01*
X119392872Y-86068862D01*
X119369962Y-86055131D01*
X119348508Y-86039220D01*
X119328718Y-86021282D01*
X119310780Y-86001492D01*
X119294869Y-85980038D01*
X119281138Y-85957128D01*
X119269718Y-85932983D01*
X119260720Y-85907835D01*
X119254230Y-85881925D01*
X119250311Y-85855505D01*
X119249000Y-85828827D01*
X119249000Y-85121173D01*
X119250311Y-85094495D01*
X119254230Y-85068075D01*
X119260720Y-85042165D01*
X119269718Y-85017017D01*
X119281138Y-84992872D01*
X119294869Y-84969962D01*
X119310780Y-84948508D01*
X119328718Y-84928718D01*
X119348508Y-84910780D01*
X119369962Y-84894869D01*
X119392872Y-84881138D01*
X119417017Y-84869718D01*
X119442165Y-84860720D01*
X119468075Y-84854230D01*
X119494495Y-84850311D01*
X119521173Y-84849000D01*
X120478827Y-84849000D01*
X120505505Y-84850311D01*
X120505505Y-84850311D01*
G37*
D23*
X120000000Y-85475000D03*
D11*
G36*
X117684363Y-87225290D02*
G01*
X117710369Y-87229148D01*
X117735871Y-87235535D01*
X117760624Y-87244392D01*
X117784390Y-87255633D01*
X117806939Y-87269148D01*
X117828056Y-87284809D01*
X117847535Y-87302465D01*
X117865191Y-87321944D01*
X117880852Y-87343061D01*
X117894367Y-87365610D01*
X117905608Y-87389376D01*
X117914465Y-87414129D01*
X117920852Y-87439631D01*
X117924710Y-87465637D01*
X117926000Y-87491895D01*
X117926000Y-88483105D01*
X117924710Y-88509363D01*
X117920852Y-88535369D01*
X117914465Y-88560871D01*
X117905608Y-88585624D01*
X117894367Y-88609390D01*
X117880852Y-88631939D01*
X117865191Y-88653056D01*
X117847535Y-88672535D01*
X117828056Y-88690191D01*
X117806939Y-88705852D01*
X117784390Y-88719367D01*
X117760624Y-88730608D01*
X117735871Y-88739465D01*
X117710369Y-88745852D01*
X117684363Y-88749710D01*
X117658105Y-88751000D01*
X116341895Y-88751000D01*
X116315637Y-88749710D01*
X116289631Y-88745852D01*
X116264129Y-88739465D01*
X116239376Y-88730608D01*
X116215610Y-88719367D01*
X116193061Y-88705852D01*
X116171944Y-88690191D01*
X116152465Y-88672535D01*
X116134809Y-88653056D01*
X116119148Y-88631939D01*
X116105633Y-88609390D01*
X116094392Y-88585624D01*
X116085535Y-88560871D01*
X116079148Y-88535369D01*
X116075290Y-88509363D01*
X116074000Y-88483105D01*
X116074000Y-87491895D01*
X116075290Y-87465637D01*
X116079148Y-87439631D01*
X116085535Y-87414129D01*
X116094392Y-87389376D01*
X116105633Y-87365610D01*
X116119148Y-87343061D01*
X116134809Y-87321944D01*
X116152465Y-87302465D01*
X116171944Y-87284809D01*
X116193061Y-87269148D01*
X116215610Y-87255633D01*
X116239376Y-87244392D01*
X116264129Y-87235535D01*
X116289631Y-87229148D01*
X116315637Y-87225290D01*
X116341895Y-87224000D01*
X117658105Y-87224000D01*
X117684363Y-87225290D01*
X117684363Y-87225290D01*
G37*
D21*
X117000000Y-87987500D03*
D11*
G36*
X117684363Y-84250290D02*
G01*
X117710369Y-84254148D01*
X117735871Y-84260535D01*
X117760624Y-84269392D01*
X117784390Y-84280633D01*
X117806939Y-84294148D01*
X117828056Y-84309809D01*
X117847535Y-84327465D01*
X117865191Y-84346944D01*
X117880852Y-84368061D01*
X117894367Y-84390610D01*
X117905608Y-84414376D01*
X117914465Y-84439129D01*
X117920852Y-84464631D01*
X117924710Y-84490637D01*
X117926000Y-84516895D01*
X117926000Y-85508105D01*
X117924710Y-85534363D01*
X117920852Y-85560369D01*
X117914465Y-85585871D01*
X117905608Y-85610624D01*
X117894367Y-85634390D01*
X117880852Y-85656939D01*
X117865191Y-85678056D01*
X117847535Y-85697535D01*
X117828056Y-85715191D01*
X117806939Y-85730852D01*
X117784390Y-85744367D01*
X117760624Y-85755608D01*
X117735871Y-85764465D01*
X117710369Y-85770852D01*
X117684363Y-85774710D01*
X117658105Y-85776000D01*
X116341895Y-85776000D01*
X116315637Y-85774710D01*
X116289631Y-85770852D01*
X116264129Y-85764465D01*
X116239376Y-85755608D01*
X116215610Y-85744367D01*
X116193061Y-85730852D01*
X116171944Y-85715191D01*
X116152465Y-85697535D01*
X116134809Y-85678056D01*
X116119148Y-85656939D01*
X116105633Y-85634390D01*
X116094392Y-85610624D01*
X116085535Y-85585871D01*
X116079148Y-85560369D01*
X116075290Y-85534363D01*
X116074000Y-85508105D01*
X116074000Y-84516895D01*
X116075290Y-84490637D01*
X116079148Y-84464631D01*
X116085535Y-84439129D01*
X116094392Y-84414376D01*
X116105633Y-84390610D01*
X116119148Y-84368061D01*
X116134809Y-84346944D01*
X116152465Y-84327465D01*
X116171944Y-84309809D01*
X116193061Y-84294148D01*
X116215610Y-84280633D01*
X116239376Y-84269392D01*
X116264129Y-84260535D01*
X116289631Y-84254148D01*
X116315637Y-84250290D01*
X116341895Y-84249000D01*
X117658105Y-84249000D01*
X117684363Y-84250290D01*
X117684363Y-84250290D01*
G37*
D21*
X117000000Y-85012500D03*
D11*
G36*
X117684363Y-78750290D02*
G01*
X117710369Y-78754148D01*
X117735871Y-78760535D01*
X117760624Y-78769392D01*
X117784390Y-78780633D01*
X117806939Y-78794148D01*
X117828056Y-78809809D01*
X117847535Y-78827465D01*
X117865191Y-78846944D01*
X117880852Y-78868061D01*
X117894367Y-78890610D01*
X117905608Y-78914376D01*
X117914465Y-78939129D01*
X117920852Y-78964631D01*
X117924710Y-78990637D01*
X117926000Y-79016895D01*
X117926000Y-80008105D01*
X117924710Y-80034363D01*
X117920852Y-80060369D01*
X117914465Y-80085871D01*
X117905608Y-80110624D01*
X117894367Y-80134390D01*
X117880852Y-80156939D01*
X117865191Y-80178056D01*
X117847535Y-80197535D01*
X117828056Y-80215191D01*
X117806939Y-80230852D01*
X117784390Y-80244367D01*
X117760624Y-80255608D01*
X117735871Y-80264465D01*
X117710369Y-80270852D01*
X117684363Y-80274710D01*
X117658105Y-80276000D01*
X116341895Y-80276000D01*
X116315637Y-80274710D01*
X116289631Y-80270852D01*
X116264129Y-80264465D01*
X116239376Y-80255608D01*
X116215610Y-80244367D01*
X116193061Y-80230852D01*
X116171944Y-80215191D01*
X116152465Y-80197535D01*
X116134809Y-80178056D01*
X116119148Y-80156939D01*
X116105633Y-80134390D01*
X116094392Y-80110624D01*
X116085535Y-80085871D01*
X116079148Y-80060369D01*
X116075290Y-80034363D01*
X116074000Y-80008105D01*
X116074000Y-79016895D01*
X116075290Y-78990637D01*
X116079148Y-78964631D01*
X116085535Y-78939129D01*
X116094392Y-78914376D01*
X116105633Y-78890610D01*
X116119148Y-78868061D01*
X116134809Y-78846944D01*
X116152465Y-78827465D01*
X116171944Y-78809809D01*
X116193061Y-78794148D01*
X116215610Y-78780633D01*
X116239376Y-78769392D01*
X116264129Y-78760535D01*
X116289631Y-78754148D01*
X116315637Y-78750290D01*
X116341895Y-78749000D01*
X117658105Y-78749000D01*
X117684363Y-78750290D01*
X117684363Y-78750290D01*
G37*
D21*
X117000000Y-79512500D03*
D11*
G36*
X117684363Y-81725290D02*
G01*
X117710369Y-81729148D01*
X117735871Y-81735535D01*
X117760624Y-81744392D01*
X117784390Y-81755633D01*
X117806939Y-81769148D01*
X117828056Y-81784809D01*
X117847535Y-81802465D01*
X117865191Y-81821944D01*
X117880852Y-81843061D01*
X117894367Y-81865610D01*
X117905608Y-81889376D01*
X117914465Y-81914129D01*
X117920852Y-81939631D01*
X117924710Y-81965637D01*
X117926000Y-81991895D01*
X117926000Y-82983105D01*
X117924710Y-83009363D01*
X117920852Y-83035369D01*
X117914465Y-83060871D01*
X117905608Y-83085624D01*
X117894367Y-83109390D01*
X117880852Y-83131939D01*
X117865191Y-83153056D01*
X117847535Y-83172535D01*
X117828056Y-83190191D01*
X117806939Y-83205852D01*
X117784390Y-83219367D01*
X117760624Y-83230608D01*
X117735871Y-83239465D01*
X117710369Y-83245852D01*
X117684363Y-83249710D01*
X117658105Y-83251000D01*
X116341895Y-83251000D01*
X116315637Y-83249710D01*
X116289631Y-83245852D01*
X116264129Y-83239465D01*
X116239376Y-83230608D01*
X116215610Y-83219367D01*
X116193061Y-83205852D01*
X116171944Y-83190191D01*
X116152465Y-83172535D01*
X116134809Y-83153056D01*
X116119148Y-83131939D01*
X116105633Y-83109390D01*
X116094392Y-83085624D01*
X116085535Y-83060871D01*
X116079148Y-83035369D01*
X116075290Y-83009363D01*
X116074000Y-82983105D01*
X116074000Y-81991895D01*
X116075290Y-81965637D01*
X116079148Y-81939631D01*
X116085535Y-81914129D01*
X116094392Y-81889376D01*
X116105633Y-81865610D01*
X116119148Y-81843061D01*
X116134809Y-81821944D01*
X116152465Y-81802465D01*
X116171944Y-81784809D01*
X116193061Y-81769148D01*
X116215610Y-81755633D01*
X116239376Y-81744392D01*
X116264129Y-81735535D01*
X116289631Y-81729148D01*
X116315637Y-81725290D01*
X116341895Y-81724000D01*
X117658105Y-81724000D01*
X117684363Y-81725290D01*
X117684363Y-81725290D01*
G37*
D21*
X117000000Y-82487500D03*
D24*
X110000000Y-88500000D03*
D25*
X110000000Y-85000000D03*
D24*
X93000000Y-72000000D03*
D25*
X96500000Y-72000000D03*
M02*
