G04 #@! TF.GenerationSoftware,KiCad,Pcbnew,(5.1.4)-1*
G04 #@! TF.CreationDate,2021-06-03T13:44:04-04:00*
G04 #@! TF.ProjectId,controller_power_mod,636f6e74-726f-46c6-9c65-725f706f7765,rev?*
G04 #@! TF.SameCoordinates,Original*
G04 #@! TF.FileFunction,Soldermask,Top*
G04 #@! TF.FilePolarity,Negative*
%FSLAX46Y46*%
G04 Gerber Fmt 4.6, Leading zero omitted, Abs format (unit mm)*
G04 Created by KiCad (PCBNEW (5.1.4)-1) date 2021-06-03 13:44:04*
%MOMM*%
%LPD*%
G04 APERTURE LIST*
%ADD10C,0.100000*%
G04 APERTURE END LIST*
D10*
G36*
X88651000Y-111551000D02*
G01*
X86349000Y-111551000D01*
X86349000Y-110399000D01*
X88651000Y-110399000D01*
X88651000Y-111551000D01*
X88651000Y-111551000D01*
G37*
G36*
X69551000Y-110551000D02*
G01*
X66449000Y-110551000D01*
X66449000Y-107449000D01*
X69551000Y-107449000D01*
X69551000Y-110551000D01*
X69551000Y-110551000D01*
G37*
G36*
X63222585Y-107478802D02*
G01*
X63372410Y-107508604D01*
X63654674Y-107625521D01*
X63908705Y-107795259D01*
X64124741Y-108011295D01*
X64294479Y-108265326D01*
X64411396Y-108547590D01*
X64471000Y-108847240D01*
X64471000Y-109152760D01*
X64411396Y-109452410D01*
X64294479Y-109734674D01*
X64124741Y-109988705D01*
X63908705Y-110204741D01*
X63654674Y-110374479D01*
X63372410Y-110491396D01*
X63222585Y-110521198D01*
X63072761Y-110551000D01*
X62767239Y-110551000D01*
X62617415Y-110521198D01*
X62467590Y-110491396D01*
X62185326Y-110374479D01*
X61931295Y-110204741D01*
X61715259Y-109988705D01*
X61545521Y-109734674D01*
X61428604Y-109452410D01*
X61369000Y-109152760D01*
X61369000Y-108847240D01*
X61428604Y-108547590D01*
X61545521Y-108265326D01*
X61715259Y-108011295D01*
X61931295Y-107795259D01*
X62185326Y-107625521D01*
X62467590Y-107508604D01*
X62617415Y-107478802D01*
X62767239Y-107449000D01*
X63072761Y-107449000D01*
X63222585Y-107478802D01*
X63222585Y-107478802D01*
G37*
G36*
X89601000Y-110051000D02*
G01*
X88449000Y-110051000D01*
X88449000Y-108949000D01*
X89601000Y-108949000D01*
X89601000Y-110051000D01*
X89601000Y-110051000D01*
G37*
G36*
X93851000Y-109851000D02*
G01*
X92149000Y-109851000D01*
X92149000Y-108149000D01*
X93851000Y-108149000D01*
X93851000Y-109851000D01*
X93851000Y-109851000D01*
G37*
G36*
X96748228Y-108181703D02*
G01*
X96903100Y-108245853D01*
X97042481Y-108338985D01*
X97161015Y-108457519D01*
X97254147Y-108596900D01*
X97318297Y-108751772D01*
X97351000Y-108916184D01*
X97351000Y-109083816D01*
X97318297Y-109248228D01*
X97254147Y-109403100D01*
X97161015Y-109542481D01*
X97042481Y-109661015D01*
X96903100Y-109754147D01*
X96748228Y-109818297D01*
X96583816Y-109851000D01*
X96416184Y-109851000D01*
X96251772Y-109818297D01*
X96096900Y-109754147D01*
X95957519Y-109661015D01*
X95838985Y-109542481D01*
X95745853Y-109403100D01*
X95681703Y-109248228D01*
X95649000Y-109083816D01*
X95649000Y-108916184D01*
X95681703Y-108751772D01*
X95745853Y-108596900D01*
X95838985Y-108457519D01*
X95957519Y-108338985D01*
X96096900Y-108245853D01*
X96251772Y-108181703D01*
X96416184Y-108149000D01*
X96583816Y-108149000D01*
X96748228Y-108181703D01*
X96748228Y-108181703D01*
G37*
G36*
X111551000Y-108851000D02*
G01*
X108749000Y-108851000D01*
X108749000Y-105149000D01*
X111551000Y-105149000D01*
X111551000Y-108851000D01*
X111551000Y-108851000D01*
G37*
G36*
X103251000Y-108851000D02*
G01*
X100449000Y-108851000D01*
X100449000Y-105149000D01*
X103251000Y-105149000D01*
X103251000Y-108851000D01*
X103251000Y-108851000D01*
G37*
G36*
X88651000Y-108601000D02*
G01*
X86349000Y-108601000D01*
X86349000Y-107449000D01*
X88651000Y-107449000D01*
X88651000Y-108601000D01*
X88651000Y-108601000D01*
G37*
G36*
X124101000Y-107151000D02*
G01*
X122949000Y-107151000D01*
X122949000Y-104849000D01*
X124101000Y-104849000D01*
X124101000Y-107151000D01*
X124101000Y-107151000D01*
G37*
G36*
X127051000Y-107151000D02*
G01*
X125899000Y-107151000D01*
X125899000Y-104849000D01*
X127051000Y-104849000D01*
X127051000Y-107151000D01*
X127051000Y-107151000D01*
G37*
G36*
X125551000Y-105051000D02*
G01*
X124449000Y-105051000D01*
X124449000Y-103899000D01*
X125551000Y-103899000D01*
X125551000Y-105051000D01*
X125551000Y-105051000D01*
G37*
G36*
X117775562Y-102228181D02*
G01*
X117810481Y-102238774D01*
X117842663Y-102255976D01*
X117870873Y-102279127D01*
X117894024Y-102307337D01*
X117911226Y-102339519D01*
X117921819Y-102374438D01*
X117926000Y-102416895D01*
X117926000Y-103558105D01*
X117921819Y-103600562D01*
X117911226Y-103635481D01*
X117894024Y-103667663D01*
X117870873Y-103695873D01*
X117842663Y-103719024D01*
X117810481Y-103736226D01*
X117775562Y-103746819D01*
X117733105Y-103751000D01*
X116266895Y-103751000D01*
X116224438Y-103746819D01*
X116189519Y-103736226D01*
X116157337Y-103719024D01*
X116129127Y-103695873D01*
X116105976Y-103667663D01*
X116088774Y-103635481D01*
X116078181Y-103600562D01*
X116074000Y-103558105D01*
X116074000Y-102416895D01*
X116078181Y-102374438D01*
X116088774Y-102339519D01*
X116105976Y-102307337D01*
X116129127Y-102279127D01*
X116157337Y-102255976D01*
X116189519Y-102238774D01*
X116224438Y-102228181D01*
X116266895Y-102224000D01*
X117733105Y-102224000D01*
X117775562Y-102228181D01*
X117775562Y-102228181D01*
G37*
G36*
X49299272Y-100333428D02*
G01*
X49485991Y-100410770D01*
X49485993Y-100410771D01*
X49654037Y-100523054D01*
X49796946Y-100665963D01*
X49860598Y-100761226D01*
X49909230Y-100834009D01*
X49986572Y-101020728D01*
X50026000Y-101218947D01*
X50026000Y-101421053D01*
X49986572Y-101619272D01*
X49909230Y-101805991D01*
X49909229Y-101805993D01*
X49796946Y-101974037D01*
X49654037Y-102116946D01*
X49485993Y-102229229D01*
X49485992Y-102229230D01*
X49485991Y-102229230D01*
X49299272Y-102306572D01*
X49101053Y-102346000D01*
X48898947Y-102346000D01*
X48700728Y-102306572D01*
X48514009Y-102229230D01*
X48514008Y-102229230D01*
X48514007Y-102229229D01*
X48345963Y-102116946D01*
X48203054Y-101974037D01*
X48090771Y-101805993D01*
X48090770Y-101805991D01*
X48013428Y-101619272D01*
X47974000Y-101421053D01*
X47974000Y-101218947D01*
X48013428Y-101020728D01*
X48090770Y-100834009D01*
X48139402Y-100761226D01*
X48203054Y-100665963D01*
X48345963Y-100523054D01*
X48514007Y-100410771D01*
X48514009Y-100410770D01*
X48700728Y-100333428D01*
X48898947Y-100294000D01*
X49101053Y-100294000D01*
X49299272Y-100333428D01*
X49299272Y-100333428D01*
G37*
G36*
X95019272Y-100333428D02*
G01*
X95205991Y-100410770D01*
X95205993Y-100410771D01*
X95374037Y-100523054D01*
X95516946Y-100665963D01*
X95580598Y-100761226D01*
X95629230Y-100834009D01*
X95706572Y-101020728D01*
X95746000Y-101218947D01*
X95746000Y-101421053D01*
X95706572Y-101619272D01*
X95629230Y-101805991D01*
X95629229Y-101805993D01*
X95516946Y-101974037D01*
X95374037Y-102116946D01*
X95205993Y-102229229D01*
X95205992Y-102229230D01*
X95205991Y-102229230D01*
X95019272Y-102306572D01*
X94821053Y-102346000D01*
X94618947Y-102346000D01*
X94420728Y-102306572D01*
X94234009Y-102229230D01*
X94234008Y-102229230D01*
X94234007Y-102229229D01*
X94065963Y-102116946D01*
X93923054Y-101974037D01*
X93810771Y-101805993D01*
X93810770Y-101805991D01*
X93733428Y-101619272D01*
X93694000Y-101421053D01*
X93694000Y-101218947D01*
X93733428Y-101020728D01*
X93810770Y-100834009D01*
X93859402Y-100761226D01*
X93923054Y-100665963D01*
X94065963Y-100523054D01*
X94234007Y-100410771D01*
X94234009Y-100410770D01*
X94420728Y-100333428D01*
X94618947Y-100294000D01*
X94821053Y-100294000D01*
X95019272Y-100333428D01*
X95019272Y-100333428D01*
G37*
G36*
X117775562Y-99253181D02*
G01*
X117810481Y-99263774D01*
X117842663Y-99280976D01*
X117870873Y-99304127D01*
X117894024Y-99332337D01*
X117911226Y-99364519D01*
X117921819Y-99399438D01*
X117926000Y-99441895D01*
X117926000Y-100583105D01*
X117921819Y-100625562D01*
X117911226Y-100660481D01*
X117894024Y-100692663D01*
X117870873Y-100720873D01*
X117842663Y-100744024D01*
X117810481Y-100761226D01*
X117775562Y-100771819D01*
X117733105Y-100776000D01*
X116266895Y-100776000D01*
X116224438Y-100771819D01*
X116189519Y-100761226D01*
X116157337Y-100744024D01*
X116129127Y-100720873D01*
X116105976Y-100692663D01*
X116088774Y-100660481D01*
X116078181Y-100625562D01*
X116074000Y-100583105D01*
X116074000Y-99441895D01*
X116078181Y-99399438D01*
X116088774Y-99364519D01*
X116105976Y-99332337D01*
X116129127Y-99304127D01*
X116157337Y-99280976D01*
X116189519Y-99263774D01*
X116224438Y-99253181D01*
X116266895Y-99249000D01*
X117733105Y-99249000D01*
X117775562Y-99253181D01*
X117775562Y-99253181D01*
G37*
G36*
X102275562Y-99215681D02*
G01*
X102310481Y-99226274D01*
X102342663Y-99243476D01*
X102370873Y-99266627D01*
X102394024Y-99294837D01*
X102411226Y-99327019D01*
X102421819Y-99361938D01*
X102426000Y-99404395D01*
X102426000Y-100545605D01*
X102421819Y-100588062D01*
X102411226Y-100622981D01*
X102394024Y-100655163D01*
X102370873Y-100683373D01*
X102342663Y-100706524D01*
X102310481Y-100723726D01*
X102275562Y-100734319D01*
X102233105Y-100738500D01*
X100766895Y-100738500D01*
X100724438Y-100734319D01*
X100689519Y-100723726D01*
X100657337Y-100706524D01*
X100629127Y-100683373D01*
X100605976Y-100655163D01*
X100588774Y-100622981D01*
X100578181Y-100588062D01*
X100574000Y-100545605D01*
X100574000Y-99404395D01*
X100578181Y-99361938D01*
X100588774Y-99327019D01*
X100605976Y-99294837D01*
X100629127Y-99266627D01*
X100657337Y-99243476D01*
X100689519Y-99226274D01*
X100724438Y-99215681D01*
X100766895Y-99211500D01*
X102233105Y-99211500D01*
X102275562Y-99215681D01*
X102275562Y-99215681D01*
G37*
G36*
X110248228Y-96681703D02*
G01*
X110403100Y-96745853D01*
X110542481Y-96838985D01*
X110661015Y-96957519D01*
X110754147Y-97096900D01*
X110818297Y-97251772D01*
X110851000Y-97416184D01*
X110851000Y-97583816D01*
X110818297Y-97748228D01*
X110754147Y-97903100D01*
X110661015Y-98042481D01*
X110542481Y-98161015D01*
X110403100Y-98254147D01*
X110248228Y-98318297D01*
X110083816Y-98351000D01*
X109916184Y-98351000D01*
X109751772Y-98318297D01*
X109596900Y-98254147D01*
X109457519Y-98161015D01*
X109338985Y-98042481D01*
X109245853Y-97903100D01*
X109181703Y-97748228D01*
X109149000Y-97583816D01*
X109149000Y-97416184D01*
X109181703Y-97251772D01*
X109245853Y-97096900D01*
X109338985Y-96957519D01*
X109457519Y-96838985D01*
X109596900Y-96745853D01*
X109751772Y-96681703D01*
X109916184Y-96649000D01*
X110083816Y-96649000D01*
X110248228Y-96681703D01*
X110248228Y-96681703D01*
G37*
G36*
X117775562Y-96728181D02*
G01*
X117810481Y-96738774D01*
X117842663Y-96755976D01*
X117870873Y-96779127D01*
X117894024Y-96807337D01*
X117911226Y-96839519D01*
X117921819Y-96874438D01*
X117926000Y-96916895D01*
X117926000Y-98058105D01*
X117921819Y-98100562D01*
X117911226Y-98135481D01*
X117894024Y-98167663D01*
X117870873Y-98195873D01*
X117842663Y-98219024D01*
X117810481Y-98236226D01*
X117775562Y-98246819D01*
X117733105Y-98251000D01*
X116266895Y-98251000D01*
X116224438Y-98246819D01*
X116189519Y-98236226D01*
X116157337Y-98219024D01*
X116129127Y-98195873D01*
X116105976Y-98167663D01*
X116088774Y-98135481D01*
X116078181Y-98100562D01*
X116074000Y-98058105D01*
X116074000Y-96916895D01*
X116078181Y-96874438D01*
X116088774Y-96839519D01*
X116105976Y-96807337D01*
X116129127Y-96779127D01*
X116157337Y-96755976D01*
X116189519Y-96738774D01*
X116224438Y-96728181D01*
X116266895Y-96724000D01*
X117733105Y-96724000D01*
X117775562Y-96728181D01*
X117775562Y-96728181D01*
G37*
G36*
X126551000Y-98051000D02*
G01*
X123449000Y-98051000D01*
X123449000Y-94949000D01*
X126551000Y-94949000D01*
X126551000Y-98051000D01*
X126551000Y-98051000D01*
G37*
G36*
X102275562Y-96240681D02*
G01*
X102310481Y-96251274D01*
X102342663Y-96268476D01*
X102370873Y-96291627D01*
X102394024Y-96319837D01*
X102411226Y-96352019D01*
X102421819Y-96386938D01*
X102426000Y-96429395D01*
X102426000Y-97570605D01*
X102421819Y-97613062D01*
X102411226Y-97647981D01*
X102394024Y-97680163D01*
X102370873Y-97708373D01*
X102342663Y-97731524D01*
X102310481Y-97748726D01*
X102275562Y-97759319D01*
X102233105Y-97763500D01*
X100766895Y-97763500D01*
X100724438Y-97759319D01*
X100689519Y-97748726D01*
X100657337Y-97731524D01*
X100629127Y-97708373D01*
X100605976Y-97680163D01*
X100588774Y-97647981D01*
X100578181Y-97613062D01*
X100574000Y-97570605D01*
X100574000Y-96429395D01*
X100578181Y-96386938D01*
X100588774Y-96352019D01*
X100605976Y-96319837D01*
X100629127Y-96291627D01*
X100657337Y-96268476D01*
X100689519Y-96251274D01*
X100724438Y-96240681D01*
X100766895Y-96236500D01*
X102233105Y-96236500D01*
X102275562Y-96240681D01*
X102275562Y-96240681D01*
G37*
G36*
X120588674Y-96428465D02*
G01*
X120626367Y-96439899D01*
X120661103Y-96458466D01*
X120691548Y-96483452D01*
X120716534Y-96513897D01*
X120735101Y-96548633D01*
X120746535Y-96586326D01*
X120751000Y-96631661D01*
X120751000Y-97468339D01*
X120746535Y-97513674D01*
X120735101Y-97551367D01*
X120716534Y-97586103D01*
X120691548Y-97616548D01*
X120661103Y-97641534D01*
X120626367Y-97660101D01*
X120588674Y-97671535D01*
X120543339Y-97676000D01*
X119456661Y-97676000D01*
X119411326Y-97671535D01*
X119373633Y-97660101D01*
X119338897Y-97641534D01*
X119308452Y-97616548D01*
X119283466Y-97586103D01*
X119264899Y-97551367D01*
X119253465Y-97513674D01*
X119249000Y-97468339D01*
X119249000Y-96631661D01*
X119253465Y-96586326D01*
X119264899Y-96548633D01*
X119283466Y-96513897D01*
X119308452Y-96483452D01*
X119338897Y-96458466D01*
X119373633Y-96439899D01*
X119411326Y-96428465D01*
X119456661Y-96424000D01*
X120543339Y-96424000D01*
X120588674Y-96428465D01*
X120588674Y-96428465D01*
G37*
G36*
X120588674Y-94378465D02*
G01*
X120626367Y-94389899D01*
X120661103Y-94408466D01*
X120691548Y-94433452D01*
X120716534Y-94463897D01*
X120735101Y-94498633D01*
X120746535Y-94536326D01*
X120751000Y-94581661D01*
X120751000Y-95418339D01*
X120746535Y-95463674D01*
X120735101Y-95501367D01*
X120716534Y-95536103D01*
X120691548Y-95566548D01*
X120661103Y-95591534D01*
X120626367Y-95610101D01*
X120588674Y-95621535D01*
X120543339Y-95626000D01*
X119456661Y-95626000D01*
X119411326Y-95621535D01*
X119373633Y-95610101D01*
X119338897Y-95591534D01*
X119308452Y-95566548D01*
X119283466Y-95536103D01*
X119264899Y-95501367D01*
X119253465Y-95463674D01*
X119249000Y-95418339D01*
X119249000Y-94581661D01*
X119253465Y-94536326D01*
X119264899Y-94498633D01*
X119283466Y-94463897D01*
X119308452Y-94433452D01*
X119338897Y-94408466D01*
X119373633Y-94389899D01*
X119411326Y-94378465D01*
X119456661Y-94374000D01*
X120543339Y-94374000D01*
X120588674Y-94378465D01*
X120588674Y-94378465D01*
G37*
G36*
X117775562Y-93753181D02*
G01*
X117810481Y-93763774D01*
X117842663Y-93780976D01*
X117870873Y-93804127D01*
X117894024Y-93832337D01*
X117911226Y-93864519D01*
X117921819Y-93899438D01*
X117926000Y-93941895D01*
X117926000Y-95083105D01*
X117921819Y-95125562D01*
X117911226Y-95160481D01*
X117894024Y-95192663D01*
X117870873Y-95220873D01*
X117842663Y-95244024D01*
X117810481Y-95261226D01*
X117775562Y-95271819D01*
X117733105Y-95276000D01*
X116266895Y-95276000D01*
X116224438Y-95271819D01*
X116189519Y-95261226D01*
X116157337Y-95244024D01*
X116129127Y-95220873D01*
X116105976Y-95192663D01*
X116088774Y-95160481D01*
X116078181Y-95125562D01*
X116074000Y-95083105D01*
X116074000Y-93941895D01*
X116078181Y-93899438D01*
X116088774Y-93864519D01*
X116105976Y-93832337D01*
X116129127Y-93804127D01*
X116157337Y-93780976D01*
X116189519Y-93763774D01*
X116224438Y-93753181D01*
X116266895Y-93749000D01*
X117733105Y-93749000D01*
X117775562Y-93753181D01*
X117775562Y-93753181D01*
G37*
G36*
X110851000Y-94851000D02*
G01*
X109149000Y-94851000D01*
X109149000Y-93149000D01*
X110851000Y-93149000D01*
X110851000Y-94851000D01*
X110851000Y-94851000D01*
G37*
G36*
X125302585Y-89898802D02*
G01*
X125452410Y-89928604D01*
X125734674Y-90045521D01*
X125988705Y-90215259D01*
X126204741Y-90431295D01*
X126374479Y-90685326D01*
X126491396Y-90967590D01*
X126491396Y-90967591D01*
X126551000Y-91267239D01*
X126551000Y-91572761D01*
X126536433Y-91645993D01*
X126491396Y-91872410D01*
X126374479Y-92154674D01*
X126204741Y-92408705D01*
X125988705Y-92624741D01*
X125734674Y-92794479D01*
X125452410Y-92911396D01*
X125302585Y-92941198D01*
X125152761Y-92971000D01*
X124847239Y-92971000D01*
X124697415Y-92941198D01*
X124547590Y-92911396D01*
X124265326Y-92794479D01*
X124011295Y-92624741D01*
X123795259Y-92408705D01*
X123625521Y-92154674D01*
X123508604Y-91872410D01*
X123463567Y-91645993D01*
X123449000Y-91572761D01*
X123449000Y-91267239D01*
X123508604Y-90967591D01*
X123508604Y-90967590D01*
X123625521Y-90685326D01*
X123795259Y-90431295D01*
X124011295Y-90215259D01*
X124265326Y-90045521D01*
X124547590Y-89928604D01*
X124697415Y-89898802D01*
X124847239Y-89869000D01*
X125152761Y-89869000D01*
X125302585Y-89898802D01*
X125302585Y-89898802D01*
G37*
G36*
X95019272Y-90173428D02*
G01*
X95205991Y-90250770D01*
X95205993Y-90250771D01*
X95374037Y-90363054D01*
X95516946Y-90505963D01*
X95629229Y-90674007D01*
X95629230Y-90674009D01*
X95706572Y-90860728D01*
X95746000Y-91058947D01*
X95746000Y-91261053D01*
X95706572Y-91459272D01*
X95659563Y-91572760D01*
X95629229Y-91645993D01*
X95516946Y-91814037D01*
X95374037Y-91956946D01*
X95205993Y-92069229D01*
X95205992Y-92069230D01*
X95205991Y-92069230D01*
X95019272Y-92146572D01*
X94821053Y-92186000D01*
X94618947Y-92186000D01*
X94420728Y-92146572D01*
X94234009Y-92069230D01*
X94234008Y-92069230D01*
X94234007Y-92069229D01*
X94065963Y-91956946D01*
X93923054Y-91814037D01*
X93810771Y-91645993D01*
X93780437Y-91572760D01*
X93733428Y-91459272D01*
X93694000Y-91261053D01*
X93694000Y-91058947D01*
X93733428Y-90860728D01*
X93810770Y-90674009D01*
X93810771Y-90674007D01*
X93923054Y-90505963D01*
X94065963Y-90363054D01*
X94234007Y-90250771D01*
X94234009Y-90250770D01*
X94420728Y-90173428D01*
X94618947Y-90134000D01*
X94821053Y-90134000D01*
X95019272Y-90173428D01*
X95019272Y-90173428D01*
G37*
G36*
X110248228Y-87681703D02*
G01*
X110403100Y-87745853D01*
X110542481Y-87838985D01*
X110661015Y-87957519D01*
X110754147Y-88096900D01*
X110818297Y-88251772D01*
X110851000Y-88416184D01*
X110851000Y-88583816D01*
X110818297Y-88748228D01*
X110754147Y-88903100D01*
X110661015Y-89042481D01*
X110542481Y-89161015D01*
X110403100Y-89254147D01*
X110248228Y-89318297D01*
X110083816Y-89351000D01*
X109916184Y-89351000D01*
X109751772Y-89318297D01*
X109596900Y-89254147D01*
X109457519Y-89161015D01*
X109338985Y-89042481D01*
X109245853Y-88903100D01*
X109181703Y-88748228D01*
X109149000Y-88583816D01*
X109149000Y-88416184D01*
X109181703Y-88251772D01*
X109245853Y-88096900D01*
X109338985Y-87957519D01*
X109457519Y-87838985D01*
X109596900Y-87745853D01*
X109751772Y-87681703D01*
X109916184Y-87649000D01*
X110083816Y-87649000D01*
X110248228Y-87681703D01*
X110248228Y-87681703D01*
G37*
G36*
X117775562Y-87228181D02*
G01*
X117810481Y-87238774D01*
X117842663Y-87255976D01*
X117870873Y-87279127D01*
X117894024Y-87307337D01*
X117911226Y-87339519D01*
X117921819Y-87374438D01*
X117926000Y-87416895D01*
X117926000Y-88558105D01*
X117921819Y-88600562D01*
X117911226Y-88635481D01*
X117894024Y-88667663D01*
X117870873Y-88695873D01*
X117842663Y-88719024D01*
X117810481Y-88736226D01*
X117775562Y-88746819D01*
X117733105Y-88751000D01*
X116266895Y-88751000D01*
X116224438Y-88746819D01*
X116189519Y-88736226D01*
X116157337Y-88719024D01*
X116129127Y-88695873D01*
X116105976Y-88667663D01*
X116088774Y-88635481D01*
X116078181Y-88600562D01*
X116074000Y-88558105D01*
X116074000Y-87416895D01*
X116078181Y-87374438D01*
X116088774Y-87339519D01*
X116105976Y-87307337D01*
X116129127Y-87279127D01*
X116157337Y-87255976D01*
X116189519Y-87238774D01*
X116224438Y-87228181D01*
X116266895Y-87224000D01*
X117733105Y-87224000D01*
X117775562Y-87228181D01*
X117775562Y-87228181D01*
G37*
G36*
X120588674Y-86903465D02*
G01*
X120626367Y-86914899D01*
X120661103Y-86933466D01*
X120691548Y-86958452D01*
X120716534Y-86988897D01*
X120735101Y-87023633D01*
X120746535Y-87061326D01*
X120751000Y-87106661D01*
X120751000Y-87943339D01*
X120746535Y-87988674D01*
X120735101Y-88026367D01*
X120716534Y-88061103D01*
X120691548Y-88091548D01*
X120661103Y-88116534D01*
X120626367Y-88135101D01*
X120588674Y-88146535D01*
X120543339Y-88151000D01*
X119456661Y-88151000D01*
X119411326Y-88146535D01*
X119373633Y-88135101D01*
X119338897Y-88116534D01*
X119308452Y-88091548D01*
X119283466Y-88061103D01*
X119264899Y-88026367D01*
X119253465Y-87988674D01*
X119249000Y-87943339D01*
X119249000Y-87106661D01*
X119253465Y-87061326D01*
X119264899Y-87023633D01*
X119283466Y-86988897D01*
X119308452Y-86958452D01*
X119338897Y-86933466D01*
X119373633Y-86914899D01*
X119411326Y-86903465D01*
X119456661Y-86899000D01*
X120543339Y-86899000D01*
X120588674Y-86903465D01*
X120588674Y-86903465D01*
G37*
G36*
X125302585Y-84818802D02*
G01*
X125452410Y-84848604D01*
X125734674Y-84965521D01*
X125988705Y-85135259D01*
X126204741Y-85351295D01*
X126374479Y-85605326D01*
X126491396Y-85887590D01*
X126551000Y-86187240D01*
X126551000Y-86492760D01*
X126491396Y-86792410D01*
X126374479Y-87074674D01*
X126204741Y-87328705D01*
X125988705Y-87544741D01*
X125734674Y-87714479D01*
X125452410Y-87831396D01*
X125414257Y-87838985D01*
X125152761Y-87891000D01*
X124847239Y-87891000D01*
X124585743Y-87838985D01*
X124547590Y-87831396D01*
X124265326Y-87714479D01*
X124011295Y-87544741D01*
X123795259Y-87328705D01*
X123625521Y-87074674D01*
X123508604Y-86792410D01*
X123449000Y-86492760D01*
X123449000Y-86187240D01*
X123508604Y-85887590D01*
X123625521Y-85605326D01*
X123795259Y-85351295D01*
X124011295Y-85135259D01*
X124265326Y-84965521D01*
X124547590Y-84848604D01*
X124697415Y-84818802D01*
X124847239Y-84789000D01*
X125152761Y-84789000D01*
X125302585Y-84818802D01*
X125302585Y-84818802D01*
G37*
G36*
X120588674Y-84853465D02*
G01*
X120626367Y-84864899D01*
X120661103Y-84883466D01*
X120691548Y-84908452D01*
X120716534Y-84938897D01*
X120735101Y-84973633D01*
X120746535Y-85011326D01*
X120751000Y-85056661D01*
X120751000Y-85893339D01*
X120746535Y-85938674D01*
X120735101Y-85976367D01*
X120716534Y-86011103D01*
X120691548Y-86041548D01*
X120661103Y-86066534D01*
X120626367Y-86085101D01*
X120588674Y-86096535D01*
X120543339Y-86101000D01*
X119456661Y-86101000D01*
X119411326Y-86096535D01*
X119373633Y-86085101D01*
X119338897Y-86066534D01*
X119308452Y-86041548D01*
X119283466Y-86011103D01*
X119264899Y-85976367D01*
X119253465Y-85938674D01*
X119249000Y-85893339D01*
X119249000Y-85056661D01*
X119253465Y-85011326D01*
X119264899Y-84973633D01*
X119283466Y-84938897D01*
X119308452Y-84908452D01*
X119338897Y-84883466D01*
X119373633Y-84864899D01*
X119411326Y-84853465D01*
X119456661Y-84849000D01*
X120543339Y-84849000D01*
X120588674Y-84853465D01*
X120588674Y-84853465D01*
G37*
G36*
X110851000Y-85851000D02*
G01*
X109149000Y-85851000D01*
X109149000Y-84149000D01*
X110851000Y-84149000D01*
X110851000Y-85851000D01*
X110851000Y-85851000D01*
G37*
G36*
X117775562Y-84253181D02*
G01*
X117810481Y-84263774D01*
X117842663Y-84280976D01*
X117870873Y-84304127D01*
X117894024Y-84332337D01*
X117911226Y-84364519D01*
X117921819Y-84399438D01*
X117926000Y-84441895D01*
X117926000Y-85583105D01*
X117921819Y-85625562D01*
X117911226Y-85660481D01*
X117894024Y-85692663D01*
X117870873Y-85720873D01*
X117842663Y-85744024D01*
X117810481Y-85761226D01*
X117775562Y-85771819D01*
X117733105Y-85776000D01*
X116266895Y-85776000D01*
X116224438Y-85771819D01*
X116189519Y-85761226D01*
X116157337Y-85744024D01*
X116129127Y-85720873D01*
X116105976Y-85692663D01*
X116088774Y-85660481D01*
X116078181Y-85625562D01*
X116074000Y-85583105D01*
X116074000Y-84441895D01*
X116078181Y-84399438D01*
X116088774Y-84364519D01*
X116105976Y-84332337D01*
X116129127Y-84304127D01*
X116157337Y-84280976D01*
X116189519Y-84263774D01*
X116224438Y-84253181D01*
X116266895Y-84249000D01*
X117733105Y-84249000D01*
X117775562Y-84253181D01*
X117775562Y-84253181D01*
G37*
G36*
X102275562Y-83728181D02*
G01*
X102310481Y-83738774D01*
X102342663Y-83755976D01*
X102370873Y-83779127D01*
X102394024Y-83807337D01*
X102411226Y-83839519D01*
X102421819Y-83874438D01*
X102426000Y-83916895D01*
X102426000Y-85058105D01*
X102421819Y-85100562D01*
X102411226Y-85135481D01*
X102394024Y-85167663D01*
X102370873Y-85195873D01*
X102342663Y-85219024D01*
X102310481Y-85236226D01*
X102275562Y-85246819D01*
X102233105Y-85251000D01*
X100766895Y-85251000D01*
X100724438Y-85246819D01*
X100689519Y-85236226D01*
X100657337Y-85219024D01*
X100629127Y-85195873D01*
X100605976Y-85167663D01*
X100588774Y-85135481D01*
X100578181Y-85100562D01*
X100574000Y-85058105D01*
X100574000Y-83916895D01*
X100578181Y-83874438D01*
X100588774Y-83839519D01*
X100605976Y-83807337D01*
X100629127Y-83779127D01*
X100657337Y-83755976D01*
X100689519Y-83738774D01*
X100724438Y-83728181D01*
X100766895Y-83724000D01*
X102233105Y-83724000D01*
X102275562Y-83728181D01*
X102275562Y-83728181D01*
G37*
G36*
X117775562Y-81728181D02*
G01*
X117810481Y-81738774D01*
X117842663Y-81755976D01*
X117870873Y-81779127D01*
X117894024Y-81807337D01*
X117911226Y-81839519D01*
X117921819Y-81874438D01*
X117926000Y-81916895D01*
X117926000Y-83058105D01*
X117921819Y-83100562D01*
X117911226Y-83135481D01*
X117894024Y-83167663D01*
X117870873Y-83195873D01*
X117842663Y-83219024D01*
X117810481Y-83236226D01*
X117775562Y-83246819D01*
X117733105Y-83251000D01*
X116266895Y-83251000D01*
X116224438Y-83246819D01*
X116189519Y-83236226D01*
X116157337Y-83219024D01*
X116129127Y-83195873D01*
X116105976Y-83167663D01*
X116088774Y-83135481D01*
X116078181Y-83100562D01*
X116074000Y-83058105D01*
X116074000Y-81916895D01*
X116078181Y-81874438D01*
X116088774Y-81839519D01*
X116105976Y-81807337D01*
X116129127Y-81779127D01*
X116157337Y-81755976D01*
X116189519Y-81738774D01*
X116224438Y-81728181D01*
X116266895Y-81724000D01*
X117733105Y-81724000D01*
X117775562Y-81728181D01*
X117775562Y-81728181D01*
G37*
G36*
X102275562Y-80753181D02*
G01*
X102310481Y-80763774D01*
X102342663Y-80780976D01*
X102370873Y-80804127D01*
X102394024Y-80832337D01*
X102411226Y-80864519D01*
X102421819Y-80899438D01*
X102426000Y-80941895D01*
X102426000Y-82083105D01*
X102421819Y-82125562D01*
X102411226Y-82160481D01*
X102394024Y-82192663D01*
X102370873Y-82220873D01*
X102342663Y-82244024D01*
X102310481Y-82261226D01*
X102275562Y-82271819D01*
X102233105Y-82276000D01*
X100766895Y-82276000D01*
X100724438Y-82271819D01*
X100689519Y-82261226D01*
X100657337Y-82244024D01*
X100629127Y-82220873D01*
X100605976Y-82192663D01*
X100588774Y-82160481D01*
X100578181Y-82125562D01*
X100574000Y-82083105D01*
X100574000Y-80941895D01*
X100578181Y-80899438D01*
X100588774Y-80864519D01*
X100605976Y-80832337D01*
X100629127Y-80804127D01*
X100657337Y-80780976D01*
X100689519Y-80763774D01*
X100724438Y-80753181D01*
X100766895Y-80749000D01*
X102233105Y-80749000D01*
X102275562Y-80753181D01*
X102275562Y-80753181D01*
G37*
G36*
X95019272Y-80013428D02*
G01*
X95187486Y-80083105D01*
X95205993Y-80090771D01*
X95374037Y-80203054D01*
X95516946Y-80345963D01*
X95629229Y-80514007D01*
X95629230Y-80514009D01*
X95706572Y-80700728D01*
X95746000Y-80898947D01*
X95746000Y-81101053D01*
X95706572Y-81299272D01*
X95629230Y-81485991D01*
X95629229Y-81485993D01*
X95516946Y-81654037D01*
X95374037Y-81796946D01*
X95205993Y-81909229D01*
X95205992Y-81909230D01*
X95205991Y-81909230D01*
X95019272Y-81986572D01*
X94821053Y-82026000D01*
X94618947Y-82026000D01*
X94420728Y-81986572D01*
X94234009Y-81909230D01*
X94234008Y-81909230D01*
X94234007Y-81909229D01*
X94065963Y-81796946D01*
X93923054Y-81654037D01*
X93810771Y-81485993D01*
X93810770Y-81485991D01*
X93733428Y-81299272D01*
X93694000Y-81101053D01*
X93694000Y-80898947D01*
X93733428Y-80700728D01*
X93810770Y-80514009D01*
X93810771Y-80514007D01*
X93923054Y-80345963D01*
X94065963Y-80203054D01*
X94234007Y-80090771D01*
X94252514Y-80083105D01*
X94420728Y-80013428D01*
X94618947Y-79974000D01*
X94821053Y-79974000D01*
X95019272Y-80013428D01*
X95019272Y-80013428D01*
G37*
G36*
X49299272Y-80013428D02*
G01*
X49467486Y-80083105D01*
X49485993Y-80090771D01*
X49654037Y-80203054D01*
X49796946Y-80345963D01*
X49909229Y-80514007D01*
X49909230Y-80514009D01*
X49986572Y-80700728D01*
X50026000Y-80898947D01*
X50026000Y-81101053D01*
X49986572Y-81299272D01*
X49909230Y-81485991D01*
X49909229Y-81485993D01*
X49796946Y-81654037D01*
X49654037Y-81796946D01*
X49485993Y-81909229D01*
X49485992Y-81909230D01*
X49485991Y-81909230D01*
X49299272Y-81986572D01*
X49101053Y-82026000D01*
X48898947Y-82026000D01*
X48700728Y-81986572D01*
X48514009Y-81909230D01*
X48514008Y-81909230D01*
X48514007Y-81909229D01*
X48345963Y-81796946D01*
X48203054Y-81654037D01*
X48090771Y-81485993D01*
X48090770Y-81485991D01*
X48013428Y-81299272D01*
X47974000Y-81101053D01*
X47974000Y-80898947D01*
X48013428Y-80700728D01*
X48090770Y-80514009D01*
X48090771Y-80514007D01*
X48203054Y-80345963D01*
X48345963Y-80203054D01*
X48514007Y-80090771D01*
X48532514Y-80083105D01*
X48700728Y-80013428D01*
X48898947Y-79974000D01*
X49101053Y-79974000D01*
X49299272Y-80013428D01*
X49299272Y-80013428D01*
G37*
G36*
X117775562Y-78753181D02*
G01*
X117810481Y-78763774D01*
X117842663Y-78780976D01*
X117870873Y-78804127D01*
X117894024Y-78832337D01*
X117911226Y-78864519D01*
X117921819Y-78899438D01*
X117926000Y-78941895D01*
X117926000Y-80083105D01*
X117921819Y-80125562D01*
X117911226Y-80160481D01*
X117894024Y-80192663D01*
X117870873Y-80220873D01*
X117842663Y-80244024D01*
X117810481Y-80261226D01*
X117775562Y-80271819D01*
X117733105Y-80276000D01*
X116266895Y-80276000D01*
X116224438Y-80271819D01*
X116189519Y-80261226D01*
X116157337Y-80244024D01*
X116129127Y-80220873D01*
X116105976Y-80192663D01*
X116088774Y-80160481D01*
X116078181Y-80125562D01*
X116074000Y-80083105D01*
X116074000Y-78941895D01*
X116078181Y-78899438D01*
X116088774Y-78864519D01*
X116105976Y-78832337D01*
X116129127Y-78804127D01*
X116157337Y-78780976D01*
X116189519Y-78763774D01*
X116224438Y-78753181D01*
X116266895Y-78749000D01*
X117733105Y-78749000D01*
X117775562Y-78753181D01*
X117775562Y-78753181D01*
G37*
G36*
X125551000Y-78101000D02*
G01*
X124449000Y-78101000D01*
X124449000Y-76949000D01*
X125551000Y-76949000D01*
X125551000Y-78101000D01*
X125551000Y-78101000D01*
G37*
G36*
X127051000Y-77151000D02*
G01*
X125899000Y-77151000D01*
X125899000Y-74849000D01*
X127051000Y-74849000D01*
X127051000Y-77151000D01*
X127051000Y-77151000D01*
G37*
G36*
X124101000Y-77151000D02*
G01*
X122949000Y-77151000D01*
X122949000Y-74849000D01*
X124101000Y-74849000D01*
X124101000Y-77151000D01*
X124101000Y-77151000D01*
G37*
G36*
X111551000Y-76351000D02*
G01*
X108749000Y-76351000D01*
X108749000Y-72649000D01*
X111551000Y-72649000D01*
X111551000Y-76351000D01*
X111551000Y-76351000D01*
G37*
G36*
X103251000Y-76351000D02*
G01*
X100449000Y-76351000D01*
X100449000Y-72649000D01*
X103251000Y-72649000D01*
X103251000Y-76351000D01*
X103251000Y-76351000D01*
G37*
G36*
X88151000Y-75551000D02*
G01*
X85849000Y-75551000D01*
X85849000Y-74399000D01*
X88151000Y-74399000D01*
X88151000Y-75551000D01*
X88151000Y-75551000D01*
G37*
G36*
X89101000Y-74051000D02*
G01*
X87949000Y-74051000D01*
X87949000Y-72949000D01*
X89101000Y-72949000D01*
X89101000Y-74051000D01*
X89101000Y-74051000D01*
G37*
G36*
X68382585Y-70478802D02*
G01*
X68532410Y-70508604D01*
X68814674Y-70625521D01*
X69068705Y-70795259D01*
X69284741Y-71011295D01*
X69454479Y-71265326D01*
X69571396Y-71547590D01*
X69631000Y-71847240D01*
X69631000Y-72152760D01*
X69571396Y-72452410D01*
X69454479Y-72734674D01*
X69284741Y-72988705D01*
X69068705Y-73204741D01*
X68814674Y-73374479D01*
X68532410Y-73491396D01*
X68382585Y-73521198D01*
X68232761Y-73551000D01*
X67927239Y-73551000D01*
X67777415Y-73521198D01*
X67627590Y-73491396D01*
X67345326Y-73374479D01*
X67091295Y-73204741D01*
X66875259Y-72988705D01*
X66705521Y-72734674D01*
X66588604Y-72452410D01*
X66529000Y-72152760D01*
X66529000Y-71847240D01*
X66588604Y-71547590D01*
X66705521Y-71265326D01*
X66875259Y-71011295D01*
X67091295Y-70795259D01*
X67345326Y-70625521D01*
X67627590Y-70508604D01*
X67777415Y-70478802D01*
X67927239Y-70449000D01*
X68232761Y-70449000D01*
X68382585Y-70478802D01*
X68382585Y-70478802D01*
G37*
G36*
X64551000Y-73551000D02*
G01*
X61449000Y-73551000D01*
X61449000Y-70449000D01*
X64551000Y-70449000D01*
X64551000Y-73551000D01*
X64551000Y-73551000D01*
G37*
G36*
X97351000Y-72851000D02*
G01*
X95649000Y-72851000D01*
X95649000Y-71149000D01*
X97351000Y-71149000D01*
X97351000Y-72851000D01*
X97351000Y-72851000D01*
G37*
G36*
X93248228Y-71181703D02*
G01*
X93403100Y-71245853D01*
X93542481Y-71338985D01*
X93661015Y-71457519D01*
X93754147Y-71596900D01*
X93818297Y-71751772D01*
X93851000Y-71916184D01*
X93851000Y-72083816D01*
X93818297Y-72248228D01*
X93754147Y-72403100D01*
X93661015Y-72542481D01*
X93542481Y-72661015D01*
X93403100Y-72754147D01*
X93248228Y-72818297D01*
X93083816Y-72851000D01*
X92916184Y-72851000D01*
X92751772Y-72818297D01*
X92596900Y-72754147D01*
X92457519Y-72661015D01*
X92338985Y-72542481D01*
X92245853Y-72403100D01*
X92181703Y-72248228D01*
X92149000Y-72083816D01*
X92149000Y-71916184D01*
X92181703Y-71751772D01*
X92245853Y-71596900D01*
X92338985Y-71457519D01*
X92457519Y-71338985D01*
X92596900Y-71245853D01*
X92751772Y-71181703D01*
X92916184Y-71149000D01*
X93083816Y-71149000D01*
X93248228Y-71181703D01*
X93248228Y-71181703D01*
G37*
G36*
X88151000Y-72601000D02*
G01*
X85849000Y-72601000D01*
X85849000Y-71449000D01*
X88151000Y-71449000D01*
X88151000Y-72601000D01*
X88151000Y-72601000D01*
G37*
M02*
