G04 #@! TF.GenerationSoftware,KiCad,Pcbnew,(5.1.4)-1*
G04 #@! TF.CreationDate,2021-06-03T13:44:04-04:00*
G04 #@! TF.ProjectId,controller_power_mod,636f6e74-726f-46c6-9c65-725f706f7765,rev?*
G04 #@! TF.SameCoordinates,Original*
G04 #@! TF.FileFunction,Soldermask,Bot*
G04 #@! TF.FilePolarity,Negative*
%FSLAX46Y46*%
G04 Gerber Fmt 4.6, Leading zero omitted, Abs format (unit mm)*
G04 Created by KiCad (PCBNEW (5.1.4)-1) date 2021-06-03 13:44:04*
%MOMM*%
%LPD*%
G04 APERTURE LIST*
%ADD10C,0.100000*%
G04 APERTURE END LIST*
D10*
G36*
X69551000Y-110551000D02*
G01*
X66449000Y-110551000D01*
X66449000Y-107449000D01*
X69551000Y-107449000D01*
X69551000Y-110551000D01*
X69551000Y-110551000D01*
G37*
G36*
X63222585Y-107478802D02*
G01*
X63372410Y-107508604D01*
X63654674Y-107625521D01*
X63908705Y-107795259D01*
X64124741Y-108011295D01*
X64294479Y-108265326D01*
X64411396Y-108547590D01*
X64471000Y-108847240D01*
X64471000Y-109152760D01*
X64411396Y-109452410D01*
X64294479Y-109734674D01*
X64124741Y-109988705D01*
X63908705Y-110204741D01*
X63654674Y-110374479D01*
X63372410Y-110491396D01*
X63222585Y-110521198D01*
X63072761Y-110551000D01*
X62767239Y-110551000D01*
X62617415Y-110521198D01*
X62467590Y-110491396D01*
X62185326Y-110374479D01*
X61931295Y-110204741D01*
X61715259Y-109988705D01*
X61545521Y-109734674D01*
X61428604Y-109452410D01*
X61369000Y-109152760D01*
X61369000Y-108847240D01*
X61428604Y-108547590D01*
X61545521Y-108265326D01*
X61715259Y-108011295D01*
X61931295Y-107795259D01*
X62185326Y-107625521D01*
X62467590Y-107508604D01*
X62617415Y-107478802D01*
X62767239Y-107449000D01*
X63072761Y-107449000D01*
X63222585Y-107478802D01*
X63222585Y-107478802D01*
G37*
G36*
X93851000Y-109851000D02*
G01*
X92149000Y-109851000D01*
X92149000Y-108149000D01*
X93851000Y-108149000D01*
X93851000Y-109851000D01*
X93851000Y-109851000D01*
G37*
G36*
X96748228Y-108181703D02*
G01*
X96903100Y-108245853D01*
X97042481Y-108338985D01*
X97161015Y-108457519D01*
X97254147Y-108596900D01*
X97318297Y-108751772D01*
X97351000Y-108916184D01*
X97351000Y-109083816D01*
X97318297Y-109248228D01*
X97254147Y-109403100D01*
X97161015Y-109542481D01*
X97042481Y-109661015D01*
X96903100Y-109754147D01*
X96748228Y-109818297D01*
X96583816Y-109851000D01*
X96416184Y-109851000D01*
X96251772Y-109818297D01*
X96096900Y-109754147D01*
X95957519Y-109661015D01*
X95838985Y-109542481D01*
X95745853Y-109403100D01*
X95681703Y-109248228D01*
X95649000Y-109083816D01*
X95649000Y-108916184D01*
X95681703Y-108751772D01*
X95745853Y-108596900D01*
X95838985Y-108457519D01*
X95957519Y-108338985D01*
X96096900Y-108245853D01*
X96251772Y-108181703D01*
X96416184Y-108149000D01*
X96583816Y-108149000D01*
X96748228Y-108181703D01*
X96748228Y-108181703D01*
G37*
G36*
X95019272Y-100333428D02*
G01*
X95205991Y-100410770D01*
X95205993Y-100410771D01*
X95374037Y-100523054D01*
X95516946Y-100665963D01*
X95629229Y-100834007D01*
X95629230Y-100834009D01*
X95706572Y-101020728D01*
X95746000Y-101218947D01*
X95746000Y-101421053D01*
X95706572Y-101619272D01*
X95629230Y-101805991D01*
X95629229Y-101805993D01*
X95516946Y-101974037D01*
X95374037Y-102116946D01*
X95205993Y-102229229D01*
X95205992Y-102229230D01*
X95205991Y-102229230D01*
X95019272Y-102306572D01*
X94821053Y-102346000D01*
X94618947Y-102346000D01*
X94420728Y-102306572D01*
X94234009Y-102229230D01*
X94234008Y-102229230D01*
X94234007Y-102229229D01*
X94065963Y-102116946D01*
X93923054Y-101974037D01*
X93810771Y-101805993D01*
X93810770Y-101805991D01*
X93733428Y-101619272D01*
X93694000Y-101421053D01*
X93694000Y-101218947D01*
X93733428Y-101020728D01*
X93810770Y-100834009D01*
X93810771Y-100834007D01*
X93923054Y-100665963D01*
X94065963Y-100523054D01*
X94234007Y-100410771D01*
X94234009Y-100410770D01*
X94420728Y-100333428D01*
X94618947Y-100294000D01*
X94821053Y-100294000D01*
X95019272Y-100333428D01*
X95019272Y-100333428D01*
G37*
G36*
X49299272Y-100333428D02*
G01*
X49485991Y-100410770D01*
X49485993Y-100410771D01*
X49654037Y-100523054D01*
X49796946Y-100665963D01*
X49909229Y-100834007D01*
X49909230Y-100834009D01*
X49986572Y-101020728D01*
X50026000Y-101218947D01*
X50026000Y-101421053D01*
X49986572Y-101619272D01*
X49909230Y-101805991D01*
X49909229Y-101805993D01*
X49796946Y-101974037D01*
X49654037Y-102116946D01*
X49485993Y-102229229D01*
X49485992Y-102229230D01*
X49485991Y-102229230D01*
X49299272Y-102306572D01*
X49101053Y-102346000D01*
X48898947Y-102346000D01*
X48700728Y-102306572D01*
X48514009Y-102229230D01*
X48514008Y-102229230D01*
X48514007Y-102229229D01*
X48345963Y-102116946D01*
X48203054Y-101974037D01*
X48090771Y-101805993D01*
X48090770Y-101805991D01*
X48013428Y-101619272D01*
X47974000Y-101421053D01*
X47974000Y-101218947D01*
X48013428Y-101020728D01*
X48090770Y-100834009D01*
X48090771Y-100834007D01*
X48203054Y-100665963D01*
X48345963Y-100523054D01*
X48514007Y-100410771D01*
X48514009Y-100410770D01*
X48700728Y-100333428D01*
X48898947Y-100294000D01*
X49101053Y-100294000D01*
X49299272Y-100333428D01*
X49299272Y-100333428D01*
G37*
G36*
X110248228Y-96681703D02*
G01*
X110403100Y-96745853D01*
X110542481Y-96838985D01*
X110661015Y-96957519D01*
X110754147Y-97096900D01*
X110818297Y-97251772D01*
X110851000Y-97416184D01*
X110851000Y-97583816D01*
X110818297Y-97748228D01*
X110754147Y-97903100D01*
X110661015Y-98042481D01*
X110542481Y-98161015D01*
X110403100Y-98254147D01*
X110248228Y-98318297D01*
X110083816Y-98351000D01*
X109916184Y-98351000D01*
X109751772Y-98318297D01*
X109596900Y-98254147D01*
X109457519Y-98161015D01*
X109338985Y-98042481D01*
X109245853Y-97903100D01*
X109181703Y-97748228D01*
X109149000Y-97583816D01*
X109149000Y-97416184D01*
X109181703Y-97251772D01*
X109245853Y-97096900D01*
X109338985Y-96957519D01*
X109457519Y-96838985D01*
X109596900Y-96745853D01*
X109751772Y-96681703D01*
X109916184Y-96649000D01*
X110083816Y-96649000D01*
X110248228Y-96681703D01*
X110248228Y-96681703D01*
G37*
G36*
X126551000Y-98051000D02*
G01*
X123449000Y-98051000D01*
X123449000Y-94949000D01*
X126551000Y-94949000D01*
X126551000Y-98051000D01*
X126551000Y-98051000D01*
G37*
G36*
X110851000Y-94851000D02*
G01*
X109149000Y-94851000D01*
X109149000Y-93149000D01*
X110851000Y-93149000D01*
X110851000Y-94851000D01*
X110851000Y-94851000D01*
G37*
G36*
X125302585Y-89898802D02*
G01*
X125452410Y-89928604D01*
X125734674Y-90045521D01*
X125988705Y-90215259D01*
X126204741Y-90431295D01*
X126374479Y-90685326D01*
X126491396Y-90967590D01*
X126491396Y-90967591D01*
X126551000Y-91267239D01*
X126551000Y-91572761D01*
X126536433Y-91645993D01*
X126491396Y-91872410D01*
X126374479Y-92154674D01*
X126204741Y-92408705D01*
X125988705Y-92624741D01*
X125734674Y-92794479D01*
X125452410Y-92911396D01*
X125302585Y-92941198D01*
X125152761Y-92971000D01*
X124847239Y-92971000D01*
X124697415Y-92941198D01*
X124547590Y-92911396D01*
X124265326Y-92794479D01*
X124011295Y-92624741D01*
X123795259Y-92408705D01*
X123625521Y-92154674D01*
X123508604Y-91872410D01*
X123463567Y-91645993D01*
X123449000Y-91572761D01*
X123449000Y-91267239D01*
X123508604Y-90967591D01*
X123508604Y-90967590D01*
X123625521Y-90685326D01*
X123795259Y-90431295D01*
X124011295Y-90215259D01*
X124265326Y-90045521D01*
X124547590Y-89928604D01*
X124697415Y-89898802D01*
X124847239Y-89869000D01*
X125152761Y-89869000D01*
X125302585Y-89898802D01*
X125302585Y-89898802D01*
G37*
G36*
X95019272Y-90173428D02*
G01*
X95205991Y-90250770D01*
X95205993Y-90250771D01*
X95374037Y-90363054D01*
X95516946Y-90505963D01*
X95629229Y-90674007D01*
X95629230Y-90674009D01*
X95706572Y-90860728D01*
X95746000Y-91058947D01*
X95746000Y-91261053D01*
X95706572Y-91459272D01*
X95659563Y-91572760D01*
X95629229Y-91645993D01*
X95516946Y-91814037D01*
X95374037Y-91956946D01*
X95205993Y-92069229D01*
X95205992Y-92069230D01*
X95205991Y-92069230D01*
X95019272Y-92146572D01*
X94821053Y-92186000D01*
X94618947Y-92186000D01*
X94420728Y-92146572D01*
X94234009Y-92069230D01*
X94234008Y-92069230D01*
X94234007Y-92069229D01*
X94065963Y-91956946D01*
X93923054Y-91814037D01*
X93810771Y-91645993D01*
X93780437Y-91572760D01*
X93733428Y-91459272D01*
X93694000Y-91261053D01*
X93694000Y-91058947D01*
X93733428Y-90860728D01*
X93810770Y-90674009D01*
X93810771Y-90674007D01*
X93923054Y-90505963D01*
X94065963Y-90363054D01*
X94234007Y-90250771D01*
X94234009Y-90250770D01*
X94420728Y-90173428D01*
X94618947Y-90134000D01*
X94821053Y-90134000D01*
X95019272Y-90173428D01*
X95019272Y-90173428D01*
G37*
G36*
X110248228Y-87681703D02*
G01*
X110403100Y-87745853D01*
X110542481Y-87838985D01*
X110661015Y-87957519D01*
X110754147Y-88096900D01*
X110818297Y-88251772D01*
X110851000Y-88416184D01*
X110851000Y-88583816D01*
X110818297Y-88748228D01*
X110754147Y-88903100D01*
X110661015Y-89042481D01*
X110542481Y-89161015D01*
X110403100Y-89254147D01*
X110248228Y-89318297D01*
X110083816Y-89351000D01*
X109916184Y-89351000D01*
X109751772Y-89318297D01*
X109596900Y-89254147D01*
X109457519Y-89161015D01*
X109338985Y-89042481D01*
X109245853Y-88903100D01*
X109181703Y-88748228D01*
X109149000Y-88583816D01*
X109149000Y-88416184D01*
X109181703Y-88251772D01*
X109245853Y-88096900D01*
X109338985Y-87957519D01*
X109457519Y-87838985D01*
X109596900Y-87745853D01*
X109751772Y-87681703D01*
X109916184Y-87649000D01*
X110083816Y-87649000D01*
X110248228Y-87681703D01*
X110248228Y-87681703D01*
G37*
G36*
X125302585Y-84818802D02*
G01*
X125452410Y-84848604D01*
X125734674Y-84965521D01*
X125988705Y-85135259D01*
X126204741Y-85351295D01*
X126374479Y-85605326D01*
X126491396Y-85887590D01*
X126551000Y-86187240D01*
X126551000Y-86492760D01*
X126491396Y-86792410D01*
X126374479Y-87074674D01*
X126204741Y-87328705D01*
X125988705Y-87544741D01*
X125734674Y-87714479D01*
X125452410Y-87831396D01*
X125414257Y-87838985D01*
X125152761Y-87891000D01*
X124847239Y-87891000D01*
X124585743Y-87838985D01*
X124547590Y-87831396D01*
X124265326Y-87714479D01*
X124011295Y-87544741D01*
X123795259Y-87328705D01*
X123625521Y-87074674D01*
X123508604Y-86792410D01*
X123449000Y-86492760D01*
X123449000Y-86187240D01*
X123508604Y-85887590D01*
X123625521Y-85605326D01*
X123795259Y-85351295D01*
X124011295Y-85135259D01*
X124265326Y-84965521D01*
X124547590Y-84848604D01*
X124697415Y-84818802D01*
X124847239Y-84789000D01*
X125152761Y-84789000D01*
X125302585Y-84818802D01*
X125302585Y-84818802D01*
G37*
G36*
X110851000Y-85851000D02*
G01*
X109149000Y-85851000D01*
X109149000Y-84149000D01*
X110851000Y-84149000D01*
X110851000Y-85851000D01*
X110851000Y-85851000D01*
G37*
G36*
X95019272Y-80013428D02*
G01*
X95205991Y-80090770D01*
X95205993Y-80090771D01*
X95374037Y-80203054D01*
X95516946Y-80345963D01*
X95629229Y-80514007D01*
X95629230Y-80514009D01*
X95706572Y-80700728D01*
X95746000Y-80898947D01*
X95746000Y-81101053D01*
X95706572Y-81299272D01*
X95629230Y-81485991D01*
X95629229Y-81485993D01*
X95516946Y-81654037D01*
X95374037Y-81796946D01*
X95205993Y-81909229D01*
X95205992Y-81909230D01*
X95205991Y-81909230D01*
X95019272Y-81986572D01*
X94821053Y-82026000D01*
X94618947Y-82026000D01*
X94420728Y-81986572D01*
X94234009Y-81909230D01*
X94234008Y-81909230D01*
X94234007Y-81909229D01*
X94065963Y-81796946D01*
X93923054Y-81654037D01*
X93810771Y-81485993D01*
X93810770Y-81485991D01*
X93733428Y-81299272D01*
X93694000Y-81101053D01*
X93694000Y-80898947D01*
X93733428Y-80700728D01*
X93810770Y-80514009D01*
X93810771Y-80514007D01*
X93923054Y-80345963D01*
X94065963Y-80203054D01*
X94234007Y-80090771D01*
X94234009Y-80090770D01*
X94420728Y-80013428D01*
X94618947Y-79974000D01*
X94821053Y-79974000D01*
X95019272Y-80013428D01*
X95019272Y-80013428D01*
G37*
G36*
X49299272Y-80013428D02*
G01*
X49485991Y-80090770D01*
X49485993Y-80090771D01*
X49654037Y-80203054D01*
X49796946Y-80345963D01*
X49909229Y-80514007D01*
X49909230Y-80514009D01*
X49986572Y-80700728D01*
X50026000Y-80898947D01*
X50026000Y-81101053D01*
X49986572Y-81299272D01*
X49909230Y-81485991D01*
X49909229Y-81485993D01*
X49796946Y-81654037D01*
X49654037Y-81796946D01*
X49485993Y-81909229D01*
X49485992Y-81909230D01*
X49485991Y-81909230D01*
X49299272Y-81986572D01*
X49101053Y-82026000D01*
X48898947Y-82026000D01*
X48700728Y-81986572D01*
X48514009Y-81909230D01*
X48514008Y-81909230D01*
X48514007Y-81909229D01*
X48345963Y-81796946D01*
X48203054Y-81654037D01*
X48090771Y-81485993D01*
X48090770Y-81485991D01*
X48013428Y-81299272D01*
X47974000Y-81101053D01*
X47974000Y-80898947D01*
X48013428Y-80700728D01*
X48090770Y-80514009D01*
X48090771Y-80514007D01*
X48203054Y-80345963D01*
X48345963Y-80203054D01*
X48514007Y-80090771D01*
X48514009Y-80090770D01*
X48700728Y-80013428D01*
X48898947Y-79974000D01*
X49101053Y-79974000D01*
X49299272Y-80013428D01*
X49299272Y-80013428D01*
G37*
G36*
X64551000Y-73551000D02*
G01*
X61449000Y-73551000D01*
X61449000Y-70449000D01*
X64551000Y-70449000D01*
X64551000Y-73551000D01*
X64551000Y-73551000D01*
G37*
G36*
X68382585Y-70478802D02*
G01*
X68532410Y-70508604D01*
X68814674Y-70625521D01*
X69068705Y-70795259D01*
X69284741Y-71011295D01*
X69454479Y-71265326D01*
X69571396Y-71547590D01*
X69631000Y-71847240D01*
X69631000Y-72152760D01*
X69571396Y-72452410D01*
X69454479Y-72734674D01*
X69284741Y-72988705D01*
X69068705Y-73204741D01*
X68814674Y-73374479D01*
X68532410Y-73491396D01*
X68382585Y-73521198D01*
X68232761Y-73551000D01*
X67927239Y-73551000D01*
X67777415Y-73521198D01*
X67627590Y-73491396D01*
X67345326Y-73374479D01*
X67091295Y-73204741D01*
X66875259Y-72988705D01*
X66705521Y-72734674D01*
X66588604Y-72452410D01*
X66529000Y-72152760D01*
X66529000Y-71847240D01*
X66588604Y-71547590D01*
X66705521Y-71265326D01*
X66875259Y-71011295D01*
X67091295Y-70795259D01*
X67345326Y-70625521D01*
X67627590Y-70508604D01*
X67777415Y-70478802D01*
X67927239Y-70449000D01*
X68232761Y-70449000D01*
X68382585Y-70478802D01*
X68382585Y-70478802D01*
G37*
G36*
X93248228Y-71181703D02*
G01*
X93403100Y-71245853D01*
X93542481Y-71338985D01*
X93661015Y-71457519D01*
X93754147Y-71596900D01*
X93818297Y-71751772D01*
X93851000Y-71916184D01*
X93851000Y-72083816D01*
X93818297Y-72248228D01*
X93754147Y-72403100D01*
X93661015Y-72542481D01*
X93542481Y-72661015D01*
X93403100Y-72754147D01*
X93248228Y-72818297D01*
X93083816Y-72851000D01*
X92916184Y-72851000D01*
X92751772Y-72818297D01*
X92596900Y-72754147D01*
X92457519Y-72661015D01*
X92338985Y-72542481D01*
X92245853Y-72403100D01*
X92181703Y-72248228D01*
X92149000Y-72083816D01*
X92149000Y-71916184D01*
X92181703Y-71751772D01*
X92245853Y-71596900D01*
X92338985Y-71457519D01*
X92457519Y-71338985D01*
X92596900Y-71245853D01*
X92751772Y-71181703D01*
X92916184Y-71149000D01*
X93083816Y-71149000D01*
X93248228Y-71181703D01*
X93248228Y-71181703D01*
G37*
G36*
X97351000Y-72851000D02*
G01*
X95649000Y-72851000D01*
X95649000Y-71149000D01*
X97351000Y-71149000D01*
X97351000Y-72851000D01*
X97351000Y-72851000D01*
G37*
M02*
