M48
; DRILL file {KiCad (5.1.4)-1} date 03/06/2021 13:44:48
; FORMAT={-:-/ absolute / metric / decimal}
; #@! TF.CreationDate,2021-06-03T13:44:48-04:00
; #@! TF.GenerationSoftware,Kicad,Pcbnew,(5.1.4)-1
; #@! TF.FileFunction,Plated,1,2,PTH
FMAT,2
METRIC
T1C0.400
T2C0.800
T3C1.300
T4C1.520
T5C3.600
%
G90
G05
T1
X85.5Y-106.5
X85.5Y-112.0
X86.0Y-69.5
X86.0Y-76.5
X87.5Y-106.5
X87.5Y-110.5
X87.5Y-112.5
X88.0Y-69.5
X88.0Y-76.5
X90.0Y-70.0
X90.0Y-76.0
X90.0Y-107.0
X90.0Y-112.5
X90.5Y-72.5
X91.0Y-109.0
X91.5Y-70.0
X91.5Y-76.0
X91.5Y-107.0
X91.5Y-112.5
X93.0Y-70.0
X93.0Y-76.0
X93.0Y-107.0
X93.0Y-112.5
X97.0Y-91.5
X98.5Y-91.5
X99.0Y-86.0
X99.0Y-95.0
X100.0Y-91.5
X101.5Y-86.0
X101.5Y-91.5
X101.5Y-95.0
X103.0Y-91.5
X103.5Y-84.0
X103.5Y-86.0
X103.5Y-95.0
X103.5Y-97.0
X104.5Y-91.5
X106.0Y-91.5
X107.5Y-91.5
X108.0Y-89.0
X108.0Y-94.0
X109.0Y-91.5
X110.5Y-91.5
X112.0Y-89.0
X112.0Y-91.5
X112.0Y-94.0
X113.5Y-91.5
X115.0Y-89.0
X115.0Y-91.5
X115.0Y-94.0
X115.5Y-78.0
X115.5Y-104.5
X117.0Y-78.0
X117.0Y-90.0
X117.0Y-91.5
X117.0Y-93.0
X117.0Y-104.5
X120.0Y-90.0
X120.0Y-91.5
X120.0Y-93.0
X125.0Y-75.5
X125.0Y-106.5
X128.0Y-68.5
X128.0Y-69.5
X128.0Y-73.5
X128.0Y-74.5
X128.0Y-75.5
X128.0Y-76.5
X128.0Y-106.5
X128.0Y-107.5
X128.0Y-108.5
X128.0Y-111.5
X128.0Y-112.5
T2
X110.0Y-94.0
X110.0Y-97.5
X93.0Y-72.0
X96.5Y-72.0
X93.0Y-109.0
X96.5Y-109.0
X110.0Y-85.0
X110.0Y-88.5
T3
X49.0Y-81.0
X49.0Y-101.32
X94.72Y-81.0
X94.72Y-91.16
X94.72Y-101.32
T4
X62.92Y-109.0
X68.0Y-109.0
X125.0Y-86.34
X125.0Y-91.42
X125.0Y-96.5
X63.0Y-72.0
X68.08Y-72.0
T5
X46.0Y-71.5
X46.0Y-110.0
X78.5Y-71.5
X78.5Y-110.0
X125.0Y-71.5
X125.0Y-110.0
T0
M30
