G04 #@! TF.GenerationSoftware,KiCad,Pcbnew,(5.1.4)-1*
G04 #@! TF.CreationDate,2021-06-03T13:44:03-04:00*
G04 #@! TF.ProjectId,controller_power_mod,636f6e74-726f-46c6-9c65-725f706f7765,rev?*
G04 #@! TF.SameCoordinates,Original*
G04 #@! TF.FileFunction,Copper,L1,Top*
G04 #@! TF.FilePolarity,Positive*
%FSLAX46Y46*%
G04 Gerber Fmt 4.6, Leading zero omitted, Abs format (unit mm)*
G04 Created by KiCad (PCBNEW (5.1.4)-1) date 2021-06-03 13:44:03*
%MOMM*%
%LPD*%
G04 APERTURE LIST*
%ADD10C,0.300000*%
%ADD11R,2.200000X1.050000*%
%ADD12R,1.050000X1.000000*%
%ADD13R,1.050000X2.200000*%
%ADD14R,1.000000X1.050000*%
%ADD15C,3.000000*%
%ADD16R,3.000000X3.000000*%
%ADD17C,0.100000*%
%ADD18C,1.425000*%
%ADD19R,2.700000X3.600000*%
%ADD20C,1.150000*%
%ADD21C,1.600000*%
%ADD22R,1.600000X1.600000*%
%ADD23C,1.950000*%
%ADD24C,4.000000*%
%ADD25C,0.800000*%
%ADD26C,0.500000*%
%ADD27C,1.500000*%
%ADD28C,0.254000*%
%ADD29C,0.250000*%
G04 APERTURE END LIST*
D10*
X71250000Y-85578571D02*
X71250000Y-84078571D01*
X71250000Y-84792857D02*
X72107142Y-84792857D01*
X72107142Y-85578571D02*
X72107142Y-84078571D01*
X72678571Y-84578571D02*
X73464285Y-84578571D01*
X72678571Y-85578571D01*
X73464285Y-85578571D01*
X75892857Y-85578571D02*
X75178571Y-85578571D01*
X75178571Y-84078571D01*
X76392857Y-85578571D02*
X76392857Y-84578571D01*
X76392857Y-84078571D02*
X76321428Y-84150000D01*
X76392857Y-84221428D01*
X76464285Y-84150000D01*
X76392857Y-84078571D01*
X76392857Y-84221428D01*
X77107142Y-84578571D02*
X77107142Y-85578571D01*
X77107142Y-84721428D02*
X77178571Y-84650000D01*
X77321428Y-84578571D01*
X77535714Y-84578571D01*
X77678571Y-84650000D01*
X77750000Y-84792857D01*
X77750000Y-85578571D01*
X70535714Y-87342857D02*
X70035714Y-87342857D01*
X70035714Y-88128571D02*
X70035714Y-86628571D01*
X70750000Y-86628571D01*
X71321428Y-88128571D02*
X71321428Y-87128571D01*
X71321428Y-86628571D02*
X71250000Y-86700000D01*
X71321428Y-86771428D01*
X71392857Y-86700000D01*
X71321428Y-86628571D01*
X71321428Y-86771428D01*
X72250000Y-88128571D02*
X72107142Y-88057142D01*
X72035714Y-87914285D01*
X72035714Y-86628571D01*
X72607142Y-87128571D02*
X73178571Y-87128571D01*
X72821428Y-86628571D02*
X72821428Y-87914285D01*
X72892857Y-88057142D01*
X73035714Y-88128571D01*
X73178571Y-88128571D01*
X74250000Y-88057142D02*
X74107142Y-88128571D01*
X73821428Y-88128571D01*
X73678571Y-88057142D01*
X73607142Y-87914285D01*
X73607142Y-87342857D01*
X73678571Y-87200000D01*
X73821428Y-87128571D01*
X74107142Y-87128571D01*
X74250000Y-87200000D01*
X74321428Y-87342857D01*
X74321428Y-87485714D01*
X73607142Y-87628571D01*
X74964285Y-88128571D02*
X74964285Y-87128571D01*
X74964285Y-87414285D02*
X75035714Y-87271428D01*
X75107142Y-87200000D01*
X75250000Y-87128571D01*
X75392857Y-87128571D01*
X76464285Y-88057142D02*
X76321428Y-88128571D01*
X76035714Y-88128571D01*
X75892857Y-88057142D01*
X75821428Y-87914285D01*
X75821428Y-87342857D01*
X75892857Y-87200000D01*
X76035714Y-87128571D01*
X76321428Y-87128571D01*
X76464285Y-87200000D01*
X76535714Y-87342857D01*
X76535714Y-87485714D01*
X75821428Y-87628571D01*
X77821428Y-88128571D02*
X77821428Y-86628571D01*
X77821428Y-88057142D02*
X77678571Y-88128571D01*
X77392857Y-88128571D01*
X77250000Y-88057142D01*
X77178571Y-87985714D01*
X77107142Y-87842857D01*
X77107142Y-87414285D01*
X77178571Y-87271428D01*
X77250000Y-87200000D01*
X77392857Y-87128571D01*
X77678571Y-87128571D01*
X77821428Y-87200000D01*
X68892857Y-90607142D02*
X69107142Y-90678571D01*
X69464285Y-90678571D01*
X69607142Y-90607142D01*
X69678571Y-90535714D01*
X69750000Y-90392857D01*
X69750000Y-90250000D01*
X69678571Y-90107142D01*
X69607142Y-90035714D01*
X69464285Y-89964285D01*
X69178571Y-89892857D01*
X69035714Y-89821428D01*
X68964285Y-89750000D01*
X68892857Y-89607142D01*
X68892857Y-89464285D01*
X68964285Y-89321428D01*
X69035714Y-89250000D01*
X69178571Y-89178571D01*
X69535714Y-89178571D01*
X69750000Y-89250000D01*
X70250000Y-89678571D02*
X70535714Y-90678571D01*
X70821428Y-89964285D01*
X71107142Y-90678571D01*
X71392857Y-89678571D01*
X71964285Y-90678571D02*
X71964285Y-89678571D01*
X71964285Y-89178571D02*
X71892857Y-89250000D01*
X71964285Y-89321428D01*
X72035714Y-89250000D01*
X71964285Y-89178571D01*
X71964285Y-89321428D01*
X72464285Y-89678571D02*
X73035714Y-89678571D01*
X72678571Y-89178571D02*
X72678571Y-90464285D01*
X72750000Y-90607142D01*
X72892857Y-90678571D01*
X73035714Y-90678571D01*
X74178571Y-90607142D02*
X74035714Y-90678571D01*
X73750000Y-90678571D01*
X73607142Y-90607142D01*
X73535714Y-90535714D01*
X73464285Y-90392857D01*
X73464285Y-89964285D01*
X73535714Y-89821428D01*
X73607142Y-89750000D01*
X73750000Y-89678571D01*
X74035714Y-89678571D01*
X74178571Y-89750000D01*
X74821428Y-90678571D02*
X74821428Y-89178571D01*
X75464285Y-90678571D02*
X75464285Y-89892857D01*
X75392857Y-89750000D01*
X75250000Y-89678571D01*
X75035714Y-89678571D01*
X74892857Y-89750000D01*
X74821428Y-89821428D01*
X76178571Y-90678571D02*
X76178571Y-89678571D01*
X76178571Y-89178571D02*
X76107142Y-89250000D01*
X76178571Y-89321428D01*
X76250000Y-89250000D01*
X76178571Y-89178571D01*
X76178571Y-89321428D01*
X76892857Y-89678571D02*
X76892857Y-90678571D01*
X76892857Y-89821428D02*
X76964285Y-89750000D01*
X77107142Y-89678571D01*
X77321428Y-89678571D01*
X77464285Y-89750000D01*
X77535714Y-89892857D01*
X77535714Y-90678571D01*
X78892857Y-89678571D02*
X78892857Y-90892857D01*
X78821428Y-91035714D01*
X78750000Y-91107142D01*
X78607142Y-91178571D01*
X78392857Y-91178571D01*
X78250000Y-91107142D01*
X78892857Y-90607142D02*
X78750000Y-90678571D01*
X78464285Y-90678571D01*
X78321428Y-90607142D01*
X78250000Y-90535714D01*
X78178571Y-90392857D01*
X78178571Y-89964285D01*
X78250000Y-89821428D01*
X78321428Y-89750000D01*
X78464285Y-89678571D01*
X78750000Y-89678571D01*
X78892857Y-89750000D01*
X70392857Y-93085714D02*
X70321428Y-93157142D01*
X70107142Y-93228571D01*
X69964285Y-93228571D01*
X69750000Y-93157142D01*
X69607142Y-93014285D01*
X69535714Y-92871428D01*
X69464285Y-92585714D01*
X69464285Y-92371428D01*
X69535714Y-92085714D01*
X69607142Y-91942857D01*
X69750000Y-91800000D01*
X69964285Y-91728571D01*
X70107142Y-91728571D01*
X70321428Y-91800000D01*
X70392857Y-91871428D01*
X71250000Y-93228571D02*
X71107142Y-93157142D01*
X71035714Y-93085714D01*
X70964285Y-92942857D01*
X70964285Y-92514285D01*
X71035714Y-92371428D01*
X71107142Y-92300000D01*
X71250000Y-92228571D01*
X71464285Y-92228571D01*
X71607142Y-92300000D01*
X71678571Y-92371428D01*
X71750000Y-92514285D01*
X71750000Y-92942857D01*
X71678571Y-93085714D01*
X71607142Y-93157142D01*
X71464285Y-93228571D01*
X71250000Y-93228571D01*
X72392857Y-92228571D02*
X72392857Y-93228571D01*
X72392857Y-92371428D02*
X72464285Y-92300000D01*
X72607142Y-92228571D01*
X72821428Y-92228571D01*
X72964285Y-92300000D01*
X73035714Y-92442857D01*
X73035714Y-93228571D01*
X73607142Y-92228571D02*
X73964285Y-93228571D01*
X74321428Y-92228571D01*
X75464285Y-93157142D02*
X75321428Y-93228571D01*
X75035714Y-93228571D01*
X74892857Y-93157142D01*
X74821428Y-93014285D01*
X74821428Y-92442857D01*
X74892857Y-92300000D01*
X75035714Y-92228571D01*
X75321428Y-92228571D01*
X75464285Y-92300000D01*
X75535714Y-92442857D01*
X75535714Y-92585714D01*
X74821428Y-92728571D01*
X76178571Y-93228571D02*
X76178571Y-92228571D01*
X76178571Y-92514285D02*
X76250000Y-92371428D01*
X76321428Y-92300000D01*
X76464285Y-92228571D01*
X76607142Y-92228571D01*
X76892857Y-92228571D02*
X77464285Y-92228571D01*
X77107142Y-91728571D02*
X77107142Y-93014285D01*
X77178571Y-93157142D01*
X77321428Y-93228571D01*
X77464285Y-93228571D01*
X78535714Y-93157142D02*
X78392857Y-93228571D01*
X78107142Y-93228571D01*
X77964285Y-93157142D01*
X77892857Y-93014285D01*
X77892857Y-92442857D01*
X77964285Y-92300000D01*
X78107142Y-92228571D01*
X78392857Y-92228571D01*
X78535714Y-92300000D01*
X78607142Y-92442857D01*
X78607142Y-92585714D01*
X77892857Y-92728571D01*
X79250000Y-93228571D02*
X79250000Y-92228571D01*
X79250000Y-92514285D02*
X79321428Y-92371428D01*
X79392857Y-92300000D01*
X79535714Y-92228571D01*
X79678571Y-92228571D01*
X72464285Y-94992857D02*
X72678571Y-95064285D01*
X72750000Y-95135714D01*
X72821428Y-95278571D01*
X72821428Y-95492857D01*
X72750000Y-95635714D01*
X72678571Y-95707142D01*
X72535714Y-95778571D01*
X71964285Y-95778571D01*
X71964285Y-94278571D01*
X72464285Y-94278571D01*
X72607142Y-94350000D01*
X72678571Y-94421428D01*
X72750000Y-94564285D01*
X72750000Y-94707142D01*
X72678571Y-94850000D01*
X72607142Y-94921428D01*
X72464285Y-94992857D01*
X71964285Y-94992857D01*
X73464285Y-94992857D02*
X73964285Y-94992857D01*
X74178571Y-95778571D02*
X73464285Y-95778571D01*
X73464285Y-94278571D01*
X74178571Y-94278571D01*
X75678571Y-95635714D02*
X75607142Y-95707142D01*
X75392857Y-95778571D01*
X75250000Y-95778571D01*
X75035714Y-95707142D01*
X74892857Y-95564285D01*
X74821428Y-95421428D01*
X74750000Y-95135714D01*
X74750000Y-94921428D01*
X74821428Y-94635714D01*
X74892857Y-94492857D01*
X75035714Y-94350000D01*
X75250000Y-94278571D01*
X75392857Y-94278571D01*
X75607142Y-94350000D01*
X75678571Y-94421428D01*
X77035714Y-94278571D02*
X76321428Y-94278571D01*
X76250000Y-94992857D01*
X76321428Y-94921428D01*
X76464285Y-94850000D01*
X76821428Y-94850000D01*
X76964285Y-94921428D01*
X77035714Y-94992857D01*
X77107142Y-95135714D01*
X77107142Y-95492857D01*
X77035714Y-95635714D01*
X76964285Y-95707142D01*
X76821428Y-95778571D01*
X76464285Y-95778571D01*
X76321428Y-95707142D01*
X76250000Y-95635714D01*
D11*
X87500000Y-108025000D03*
X87500000Y-110975000D03*
D12*
X89025000Y-109500000D03*
D13*
X123525000Y-106000000D03*
X126475000Y-106000000D03*
D14*
X125000000Y-104475000D03*
D13*
X126475000Y-76000000D03*
X123525000Y-76000000D03*
D14*
X125000000Y-77525000D03*
D11*
X87000000Y-72025000D03*
X87000000Y-74975000D03*
D12*
X88525000Y-73500000D03*
D15*
X62920000Y-109000000D03*
D16*
X68000000Y-109000000D03*
D15*
X68080000Y-72000000D03*
D16*
X63000000Y-72000000D03*
D17*
G36*
X102149504Y-99263704D02*
G01*
X102173773Y-99267304D01*
X102197571Y-99273265D01*
X102220671Y-99281530D01*
X102242849Y-99292020D01*
X102263893Y-99304633D01*
X102283598Y-99319247D01*
X102301777Y-99335723D01*
X102318253Y-99353902D01*
X102332867Y-99373607D01*
X102345480Y-99394651D01*
X102355970Y-99416829D01*
X102364235Y-99439929D01*
X102370196Y-99463727D01*
X102373796Y-99487996D01*
X102375000Y-99512500D01*
X102375000Y-100437500D01*
X102373796Y-100462004D01*
X102370196Y-100486273D01*
X102364235Y-100510071D01*
X102355970Y-100533171D01*
X102345480Y-100555349D01*
X102332867Y-100576393D01*
X102318253Y-100596098D01*
X102301777Y-100614277D01*
X102283598Y-100630753D01*
X102263893Y-100645367D01*
X102242849Y-100657980D01*
X102220671Y-100668470D01*
X102197571Y-100676735D01*
X102173773Y-100682696D01*
X102149504Y-100686296D01*
X102125000Y-100687500D01*
X100875000Y-100687500D01*
X100850496Y-100686296D01*
X100826227Y-100682696D01*
X100802429Y-100676735D01*
X100779329Y-100668470D01*
X100757151Y-100657980D01*
X100736107Y-100645367D01*
X100716402Y-100630753D01*
X100698223Y-100614277D01*
X100681747Y-100596098D01*
X100667133Y-100576393D01*
X100654520Y-100555349D01*
X100644030Y-100533171D01*
X100635765Y-100510071D01*
X100629804Y-100486273D01*
X100626204Y-100462004D01*
X100625000Y-100437500D01*
X100625000Y-99512500D01*
X100626204Y-99487996D01*
X100629804Y-99463727D01*
X100635765Y-99439929D01*
X100644030Y-99416829D01*
X100654520Y-99394651D01*
X100667133Y-99373607D01*
X100681747Y-99353902D01*
X100698223Y-99335723D01*
X100716402Y-99319247D01*
X100736107Y-99304633D01*
X100757151Y-99292020D01*
X100779329Y-99281530D01*
X100802429Y-99273265D01*
X100826227Y-99267304D01*
X100850496Y-99263704D01*
X100875000Y-99262500D01*
X102125000Y-99262500D01*
X102149504Y-99263704D01*
X102149504Y-99263704D01*
G37*
D18*
X101500000Y-99975000D03*
D17*
G36*
X102149504Y-96288704D02*
G01*
X102173773Y-96292304D01*
X102197571Y-96298265D01*
X102220671Y-96306530D01*
X102242849Y-96317020D01*
X102263893Y-96329633D01*
X102283598Y-96344247D01*
X102301777Y-96360723D01*
X102318253Y-96378902D01*
X102332867Y-96398607D01*
X102345480Y-96419651D01*
X102355970Y-96441829D01*
X102364235Y-96464929D01*
X102370196Y-96488727D01*
X102373796Y-96512996D01*
X102375000Y-96537500D01*
X102375000Y-97462500D01*
X102373796Y-97487004D01*
X102370196Y-97511273D01*
X102364235Y-97535071D01*
X102355970Y-97558171D01*
X102345480Y-97580349D01*
X102332867Y-97601393D01*
X102318253Y-97621098D01*
X102301777Y-97639277D01*
X102283598Y-97655753D01*
X102263893Y-97670367D01*
X102242849Y-97682980D01*
X102220671Y-97693470D01*
X102197571Y-97701735D01*
X102173773Y-97707696D01*
X102149504Y-97711296D01*
X102125000Y-97712500D01*
X100875000Y-97712500D01*
X100850496Y-97711296D01*
X100826227Y-97707696D01*
X100802429Y-97701735D01*
X100779329Y-97693470D01*
X100757151Y-97682980D01*
X100736107Y-97670367D01*
X100716402Y-97655753D01*
X100698223Y-97639277D01*
X100681747Y-97621098D01*
X100667133Y-97601393D01*
X100654520Y-97580349D01*
X100644030Y-97558171D01*
X100635765Y-97535071D01*
X100629804Y-97511273D01*
X100626204Y-97487004D01*
X100625000Y-97462500D01*
X100625000Y-96537500D01*
X100626204Y-96512996D01*
X100629804Y-96488727D01*
X100635765Y-96464929D01*
X100644030Y-96441829D01*
X100654520Y-96419651D01*
X100667133Y-96398607D01*
X100681747Y-96378902D01*
X100698223Y-96360723D01*
X100716402Y-96344247D01*
X100736107Y-96329633D01*
X100757151Y-96317020D01*
X100779329Y-96306530D01*
X100802429Y-96298265D01*
X100826227Y-96292304D01*
X100850496Y-96288704D01*
X100875000Y-96287500D01*
X102125000Y-96287500D01*
X102149504Y-96288704D01*
X102149504Y-96288704D01*
G37*
D18*
X101500000Y-97000000D03*
D17*
G36*
X102149504Y-83776204D02*
G01*
X102173773Y-83779804D01*
X102197571Y-83785765D01*
X102220671Y-83794030D01*
X102242849Y-83804520D01*
X102263893Y-83817133D01*
X102283598Y-83831747D01*
X102301777Y-83848223D01*
X102318253Y-83866402D01*
X102332867Y-83886107D01*
X102345480Y-83907151D01*
X102355970Y-83929329D01*
X102364235Y-83952429D01*
X102370196Y-83976227D01*
X102373796Y-84000496D01*
X102375000Y-84025000D01*
X102375000Y-84950000D01*
X102373796Y-84974504D01*
X102370196Y-84998773D01*
X102364235Y-85022571D01*
X102355970Y-85045671D01*
X102345480Y-85067849D01*
X102332867Y-85088893D01*
X102318253Y-85108598D01*
X102301777Y-85126777D01*
X102283598Y-85143253D01*
X102263893Y-85157867D01*
X102242849Y-85170480D01*
X102220671Y-85180970D01*
X102197571Y-85189235D01*
X102173773Y-85195196D01*
X102149504Y-85198796D01*
X102125000Y-85200000D01*
X100875000Y-85200000D01*
X100850496Y-85198796D01*
X100826227Y-85195196D01*
X100802429Y-85189235D01*
X100779329Y-85180970D01*
X100757151Y-85170480D01*
X100736107Y-85157867D01*
X100716402Y-85143253D01*
X100698223Y-85126777D01*
X100681747Y-85108598D01*
X100667133Y-85088893D01*
X100654520Y-85067849D01*
X100644030Y-85045671D01*
X100635765Y-85022571D01*
X100629804Y-84998773D01*
X100626204Y-84974504D01*
X100625000Y-84950000D01*
X100625000Y-84025000D01*
X100626204Y-84000496D01*
X100629804Y-83976227D01*
X100635765Y-83952429D01*
X100644030Y-83929329D01*
X100654520Y-83907151D01*
X100667133Y-83886107D01*
X100681747Y-83866402D01*
X100698223Y-83848223D01*
X100716402Y-83831747D01*
X100736107Y-83817133D01*
X100757151Y-83804520D01*
X100779329Y-83794030D01*
X100802429Y-83785765D01*
X100826227Y-83779804D01*
X100850496Y-83776204D01*
X100875000Y-83775000D01*
X102125000Y-83775000D01*
X102149504Y-83776204D01*
X102149504Y-83776204D01*
G37*
D18*
X101500000Y-84487500D03*
D17*
G36*
X102149504Y-80801204D02*
G01*
X102173773Y-80804804D01*
X102197571Y-80810765D01*
X102220671Y-80819030D01*
X102242849Y-80829520D01*
X102263893Y-80842133D01*
X102283598Y-80856747D01*
X102301777Y-80873223D01*
X102318253Y-80891402D01*
X102332867Y-80911107D01*
X102345480Y-80932151D01*
X102355970Y-80954329D01*
X102364235Y-80977429D01*
X102370196Y-81001227D01*
X102373796Y-81025496D01*
X102375000Y-81050000D01*
X102375000Y-81975000D01*
X102373796Y-81999504D01*
X102370196Y-82023773D01*
X102364235Y-82047571D01*
X102355970Y-82070671D01*
X102345480Y-82092849D01*
X102332867Y-82113893D01*
X102318253Y-82133598D01*
X102301777Y-82151777D01*
X102283598Y-82168253D01*
X102263893Y-82182867D01*
X102242849Y-82195480D01*
X102220671Y-82205970D01*
X102197571Y-82214235D01*
X102173773Y-82220196D01*
X102149504Y-82223796D01*
X102125000Y-82225000D01*
X100875000Y-82225000D01*
X100850496Y-82223796D01*
X100826227Y-82220196D01*
X100802429Y-82214235D01*
X100779329Y-82205970D01*
X100757151Y-82195480D01*
X100736107Y-82182867D01*
X100716402Y-82168253D01*
X100698223Y-82151777D01*
X100681747Y-82133598D01*
X100667133Y-82113893D01*
X100654520Y-82092849D01*
X100644030Y-82070671D01*
X100635765Y-82047571D01*
X100629804Y-82023773D01*
X100626204Y-81999504D01*
X100625000Y-81975000D01*
X100625000Y-81050000D01*
X100626204Y-81025496D01*
X100629804Y-81001227D01*
X100635765Y-80977429D01*
X100644030Y-80954329D01*
X100654520Y-80932151D01*
X100667133Y-80911107D01*
X100681747Y-80891402D01*
X100698223Y-80873223D01*
X100716402Y-80856747D01*
X100736107Y-80842133D01*
X100757151Y-80829520D01*
X100779329Y-80819030D01*
X100802429Y-80810765D01*
X100826227Y-80804804D01*
X100850496Y-80801204D01*
X100875000Y-80800000D01*
X102125000Y-80800000D01*
X102149504Y-80801204D01*
X102149504Y-80801204D01*
G37*
D18*
X101500000Y-81512500D03*
D19*
X110150000Y-107000000D03*
X101850000Y-107000000D03*
D15*
X125000000Y-86340000D03*
X125000000Y-91420000D03*
D16*
X125000000Y-96500000D03*
D17*
G36*
X120474505Y-94426204D02*
G01*
X120498773Y-94429804D01*
X120522572Y-94435765D01*
X120545671Y-94444030D01*
X120567850Y-94454520D01*
X120588893Y-94467132D01*
X120608599Y-94481747D01*
X120626777Y-94498223D01*
X120643253Y-94516401D01*
X120657868Y-94536107D01*
X120670480Y-94557150D01*
X120680970Y-94579329D01*
X120689235Y-94602428D01*
X120695196Y-94626227D01*
X120698796Y-94650495D01*
X120700000Y-94674999D01*
X120700000Y-95325001D01*
X120698796Y-95349505D01*
X120695196Y-95373773D01*
X120689235Y-95397572D01*
X120680970Y-95420671D01*
X120670480Y-95442850D01*
X120657868Y-95463893D01*
X120643253Y-95483599D01*
X120626777Y-95501777D01*
X120608599Y-95518253D01*
X120588893Y-95532868D01*
X120567850Y-95545480D01*
X120545671Y-95555970D01*
X120522572Y-95564235D01*
X120498773Y-95570196D01*
X120474505Y-95573796D01*
X120450001Y-95575000D01*
X119549999Y-95575000D01*
X119525495Y-95573796D01*
X119501227Y-95570196D01*
X119477428Y-95564235D01*
X119454329Y-95555970D01*
X119432150Y-95545480D01*
X119411107Y-95532868D01*
X119391401Y-95518253D01*
X119373223Y-95501777D01*
X119356747Y-95483599D01*
X119342132Y-95463893D01*
X119329520Y-95442850D01*
X119319030Y-95420671D01*
X119310765Y-95397572D01*
X119304804Y-95373773D01*
X119301204Y-95349505D01*
X119300000Y-95325001D01*
X119300000Y-94674999D01*
X119301204Y-94650495D01*
X119304804Y-94626227D01*
X119310765Y-94602428D01*
X119319030Y-94579329D01*
X119329520Y-94557150D01*
X119342132Y-94536107D01*
X119356747Y-94516401D01*
X119373223Y-94498223D01*
X119391401Y-94481747D01*
X119411107Y-94467132D01*
X119432150Y-94454520D01*
X119454329Y-94444030D01*
X119477428Y-94435765D01*
X119501227Y-94429804D01*
X119525495Y-94426204D01*
X119549999Y-94425000D01*
X120450001Y-94425000D01*
X120474505Y-94426204D01*
X120474505Y-94426204D01*
G37*
D20*
X120000000Y-95000000D03*
D17*
G36*
X120474505Y-96476204D02*
G01*
X120498773Y-96479804D01*
X120522572Y-96485765D01*
X120545671Y-96494030D01*
X120567850Y-96504520D01*
X120588893Y-96517132D01*
X120608599Y-96531747D01*
X120626777Y-96548223D01*
X120643253Y-96566401D01*
X120657868Y-96586107D01*
X120670480Y-96607150D01*
X120680970Y-96629329D01*
X120689235Y-96652428D01*
X120695196Y-96676227D01*
X120698796Y-96700495D01*
X120700000Y-96724999D01*
X120700000Y-97375001D01*
X120698796Y-97399505D01*
X120695196Y-97423773D01*
X120689235Y-97447572D01*
X120680970Y-97470671D01*
X120670480Y-97492850D01*
X120657868Y-97513893D01*
X120643253Y-97533599D01*
X120626777Y-97551777D01*
X120608599Y-97568253D01*
X120588893Y-97582868D01*
X120567850Y-97595480D01*
X120545671Y-97605970D01*
X120522572Y-97614235D01*
X120498773Y-97620196D01*
X120474505Y-97623796D01*
X120450001Y-97625000D01*
X119549999Y-97625000D01*
X119525495Y-97623796D01*
X119501227Y-97620196D01*
X119477428Y-97614235D01*
X119454329Y-97605970D01*
X119432150Y-97595480D01*
X119411107Y-97582868D01*
X119391401Y-97568253D01*
X119373223Y-97551777D01*
X119356747Y-97533599D01*
X119342132Y-97513893D01*
X119329520Y-97492850D01*
X119319030Y-97470671D01*
X119310765Y-97447572D01*
X119304804Y-97423773D01*
X119301204Y-97399505D01*
X119300000Y-97375001D01*
X119300000Y-96724999D01*
X119301204Y-96700495D01*
X119304804Y-96676227D01*
X119310765Y-96652428D01*
X119319030Y-96629329D01*
X119329520Y-96607150D01*
X119342132Y-96586107D01*
X119356747Y-96566401D01*
X119373223Y-96548223D01*
X119391401Y-96531747D01*
X119411107Y-96517132D01*
X119432150Y-96504520D01*
X119454329Y-96494030D01*
X119477428Y-96485765D01*
X119501227Y-96479804D01*
X119525495Y-96476204D01*
X119549999Y-96475000D01*
X120450001Y-96475000D01*
X120474505Y-96476204D01*
X120474505Y-96476204D01*
G37*
D20*
X120000000Y-97050000D03*
D17*
G36*
X117649504Y-102276204D02*
G01*
X117673773Y-102279804D01*
X117697571Y-102285765D01*
X117720671Y-102294030D01*
X117742849Y-102304520D01*
X117763893Y-102317133D01*
X117783598Y-102331747D01*
X117801777Y-102348223D01*
X117818253Y-102366402D01*
X117832867Y-102386107D01*
X117845480Y-102407151D01*
X117855970Y-102429329D01*
X117864235Y-102452429D01*
X117870196Y-102476227D01*
X117873796Y-102500496D01*
X117875000Y-102525000D01*
X117875000Y-103450000D01*
X117873796Y-103474504D01*
X117870196Y-103498773D01*
X117864235Y-103522571D01*
X117855970Y-103545671D01*
X117845480Y-103567849D01*
X117832867Y-103588893D01*
X117818253Y-103608598D01*
X117801777Y-103626777D01*
X117783598Y-103643253D01*
X117763893Y-103657867D01*
X117742849Y-103670480D01*
X117720671Y-103680970D01*
X117697571Y-103689235D01*
X117673773Y-103695196D01*
X117649504Y-103698796D01*
X117625000Y-103700000D01*
X116375000Y-103700000D01*
X116350496Y-103698796D01*
X116326227Y-103695196D01*
X116302429Y-103689235D01*
X116279329Y-103680970D01*
X116257151Y-103670480D01*
X116236107Y-103657867D01*
X116216402Y-103643253D01*
X116198223Y-103626777D01*
X116181747Y-103608598D01*
X116167133Y-103588893D01*
X116154520Y-103567849D01*
X116144030Y-103545671D01*
X116135765Y-103522571D01*
X116129804Y-103498773D01*
X116126204Y-103474504D01*
X116125000Y-103450000D01*
X116125000Y-102525000D01*
X116126204Y-102500496D01*
X116129804Y-102476227D01*
X116135765Y-102452429D01*
X116144030Y-102429329D01*
X116154520Y-102407151D01*
X116167133Y-102386107D01*
X116181747Y-102366402D01*
X116198223Y-102348223D01*
X116216402Y-102331747D01*
X116236107Y-102317133D01*
X116257151Y-102304520D01*
X116279329Y-102294030D01*
X116302429Y-102285765D01*
X116326227Y-102279804D01*
X116350496Y-102276204D01*
X116375000Y-102275000D01*
X117625000Y-102275000D01*
X117649504Y-102276204D01*
X117649504Y-102276204D01*
G37*
D18*
X117000000Y-102987500D03*
D17*
G36*
X117649504Y-99301204D02*
G01*
X117673773Y-99304804D01*
X117697571Y-99310765D01*
X117720671Y-99319030D01*
X117742849Y-99329520D01*
X117763893Y-99342133D01*
X117783598Y-99356747D01*
X117801777Y-99373223D01*
X117818253Y-99391402D01*
X117832867Y-99411107D01*
X117845480Y-99432151D01*
X117855970Y-99454329D01*
X117864235Y-99477429D01*
X117870196Y-99501227D01*
X117873796Y-99525496D01*
X117875000Y-99550000D01*
X117875000Y-100475000D01*
X117873796Y-100499504D01*
X117870196Y-100523773D01*
X117864235Y-100547571D01*
X117855970Y-100570671D01*
X117845480Y-100592849D01*
X117832867Y-100613893D01*
X117818253Y-100633598D01*
X117801777Y-100651777D01*
X117783598Y-100668253D01*
X117763893Y-100682867D01*
X117742849Y-100695480D01*
X117720671Y-100705970D01*
X117697571Y-100714235D01*
X117673773Y-100720196D01*
X117649504Y-100723796D01*
X117625000Y-100725000D01*
X116375000Y-100725000D01*
X116350496Y-100723796D01*
X116326227Y-100720196D01*
X116302429Y-100714235D01*
X116279329Y-100705970D01*
X116257151Y-100695480D01*
X116236107Y-100682867D01*
X116216402Y-100668253D01*
X116198223Y-100651777D01*
X116181747Y-100633598D01*
X116167133Y-100613893D01*
X116154520Y-100592849D01*
X116144030Y-100570671D01*
X116135765Y-100547571D01*
X116129804Y-100523773D01*
X116126204Y-100499504D01*
X116125000Y-100475000D01*
X116125000Y-99550000D01*
X116126204Y-99525496D01*
X116129804Y-99501227D01*
X116135765Y-99477429D01*
X116144030Y-99454329D01*
X116154520Y-99432151D01*
X116167133Y-99411107D01*
X116181747Y-99391402D01*
X116198223Y-99373223D01*
X116216402Y-99356747D01*
X116236107Y-99342133D01*
X116257151Y-99329520D01*
X116279329Y-99319030D01*
X116302429Y-99310765D01*
X116326227Y-99304804D01*
X116350496Y-99301204D01*
X116375000Y-99300000D01*
X117625000Y-99300000D01*
X117649504Y-99301204D01*
X117649504Y-99301204D01*
G37*
D18*
X117000000Y-100012500D03*
D17*
G36*
X117649504Y-93801204D02*
G01*
X117673773Y-93804804D01*
X117697571Y-93810765D01*
X117720671Y-93819030D01*
X117742849Y-93829520D01*
X117763893Y-93842133D01*
X117783598Y-93856747D01*
X117801777Y-93873223D01*
X117818253Y-93891402D01*
X117832867Y-93911107D01*
X117845480Y-93932151D01*
X117855970Y-93954329D01*
X117864235Y-93977429D01*
X117870196Y-94001227D01*
X117873796Y-94025496D01*
X117875000Y-94050000D01*
X117875000Y-94975000D01*
X117873796Y-94999504D01*
X117870196Y-95023773D01*
X117864235Y-95047571D01*
X117855970Y-95070671D01*
X117845480Y-95092849D01*
X117832867Y-95113893D01*
X117818253Y-95133598D01*
X117801777Y-95151777D01*
X117783598Y-95168253D01*
X117763893Y-95182867D01*
X117742849Y-95195480D01*
X117720671Y-95205970D01*
X117697571Y-95214235D01*
X117673773Y-95220196D01*
X117649504Y-95223796D01*
X117625000Y-95225000D01*
X116375000Y-95225000D01*
X116350496Y-95223796D01*
X116326227Y-95220196D01*
X116302429Y-95214235D01*
X116279329Y-95205970D01*
X116257151Y-95195480D01*
X116236107Y-95182867D01*
X116216402Y-95168253D01*
X116198223Y-95151777D01*
X116181747Y-95133598D01*
X116167133Y-95113893D01*
X116154520Y-95092849D01*
X116144030Y-95070671D01*
X116135765Y-95047571D01*
X116129804Y-95023773D01*
X116126204Y-94999504D01*
X116125000Y-94975000D01*
X116125000Y-94050000D01*
X116126204Y-94025496D01*
X116129804Y-94001227D01*
X116135765Y-93977429D01*
X116144030Y-93954329D01*
X116154520Y-93932151D01*
X116167133Y-93911107D01*
X116181747Y-93891402D01*
X116198223Y-93873223D01*
X116216402Y-93856747D01*
X116236107Y-93842133D01*
X116257151Y-93829520D01*
X116279329Y-93819030D01*
X116302429Y-93810765D01*
X116326227Y-93804804D01*
X116350496Y-93801204D01*
X116375000Y-93800000D01*
X117625000Y-93800000D01*
X117649504Y-93801204D01*
X117649504Y-93801204D01*
G37*
D18*
X117000000Y-94512500D03*
D17*
G36*
X117649504Y-96776204D02*
G01*
X117673773Y-96779804D01*
X117697571Y-96785765D01*
X117720671Y-96794030D01*
X117742849Y-96804520D01*
X117763893Y-96817133D01*
X117783598Y-96831747D01*
X117801777Y-96848223D01*
X117818253Y-96866402D01*
X117832867Y-96886107D01*
X117845480Y-96907151D01*
X117855970Y-96929329D01*
X117864235Y-96952429D01*
X117870196Y-96976227D01*
X117873796Y-97000496D01*
X117875000Y-97025000D01*
X117875000Y-97950000D01*
X117873796Y-97974504D01*
X117870196Y-97998773D01*
X117864235Y-98022571D01*
X117855970Y-98045671D01*
X117845480Y-98067849D01*
X117832867Y-98088893D01*
X117818253Y-98108598D01*
X117801777Y-98126777D01*
X117783598Y-98143253D01*
X117763893Y-98157867D01*
X117742849Y-98170480D01*
X117720671Y-98180970D01*
X117697571Y-98189235D01*
X117673773Y-98195196D01*
X117649504Y-98198796D01*
X117625000Y-98200000D01*
X116375000Y-98200000D01*
X116350496Y-98198796D01*
X116326227Y-98195196D01*
X116302429Y-98189235D01*
X116279329Y-98180970D01*
X116257151Y-98170480D01*
X116236107Y-98157867D01*
X116216402Y-98143253D01*
X116198223Y-98126777D01*
X116181747Y-98108598D01*
X116167133Y-98088893D01*
X116154520Y-98067849D01*
X116144030Y-98045671D01*
X116135765Y-98022571D01*
X116129804Y-97998773D01*
X116126204Y-97974504D01*
X116125000Y-97950000D01*
X116125000Y-97025000D01*
X116126204Y-97000496D01*
X116129804Y-96976227D01*
X116135765Y-96952429D01*
X116144030Y-96929329D01*
X116154520Y-96907151D01*
X116167133Y-96886107D01*
X116181747Y-96866402D01*
X116198223Y-96848223D01*
X116216402Y-96831747D01*
X116236107Y-96817133D01*
X116257151Y-96804520D01*
X116279329Y-96794030D01*
X116302429Y-96785765D01*
X116326227Y-96779804D01*
X116350496Y-96776204D01*
X116375000Y-96775000D01*
X117625000Y-96775000D01*
X117649504Y-96776204D01*
X117649504Y-96776204D01*
G37*
D18*
X117000000Y-97487500D03*
D21*
X110000000Y-97500000D03*
D22*
X110000000Y-94000000D03*
D21*
X96500000Y-109000000D03*
D22*
X93000000Y-109000000D03*
D23*
X94720000Y-81000000D03*
X94720000Y-91160000D03*
X94720000Y-101320000D03*
X49000000Y-101320000D03*
X49000000Y-81000000D03*
D19*
X110150000Y-74500000D03*
X101850000Y-74500000D03*
D17*
G36*
X120474505Y-86951204D02*
G01*
X120498773Y-86954804D01*
X120522572Y-86960765D01*
X120545671Y-86969030D01*
X120567850Y-86979520D01*
X120588893Y-86992132D01*
X120608599Y-87006747D01*
X120626777Y-87023223D01*
X120643253Y-87041401D01*
X120657868Y-87061107D01*
X120670480Y-87082150D01*
X120680970Y-87104329D01*
X120689235Y-87127428D01*
X120695196Y-87151227D01*
X120698796Y-87175495D01*
X120700000Y-87199999D01*
X120700000Y-87850001D01*
X120698796Y-87874505D01*
X120695196Y-87898773D01*
X120689235Y-87922572D01*
X120680970Y-87945671D01*
X120670480Y-87967850D01*
X120657868Y-87988893D01*
X120643253Y-88008599D01*
X120626777Y-88026777D01*
X120608599Y-88043253D01*
X120588893Y-88057868D01*
X120567850Y-88070480D01*
X120545671Y-88080970D01*
X120522572Y-88089235D01*
X120498773Y-88095196D01*
X120474505Y-88098796D01*
X120450001Y-88100000D01*
X119549999Y-88100000D01*
X119525495Y-88098796D01*
X119501227Y-88095196D01*
X119477428Y-88089235D01*
X119454329Y-88080970D01*
X119432150Y-88070480D01*
X119411107Y-88057868D01*
X119391401Y-88043253D01*
X119373223Y-88026777D01*
X119356747Y-88008599D01*
X119342132Y-87988893D01*
X119329520Y-87967850D01*
X119319030Y-87945671D01*
X119310765Y-87922572D01*
X119304804Y-87898773D01*
X119301204Y-87874505D01*
X119300000Y-87850001D01*
X119300000Y-87199999D01*
X119301204Y-87175495D01*
X119304804Y-87151227D01*
X119310765Y-87127428D01*
X119319030Y-87104329D01*
X119329520Y-87082150D01*
X119342132Y-87061107D01*
X119356747Y-87041401D01*
X119373223Y-87023223D01*
X119391401Y-87006747D01*
X119411107Y-86992132D01*
X119432150Y-86979520D01*
X119454329Y-86969030D01*
X119477428Y-86960765D01*
X119501227Y-86954804D01*
X119525495Y-86951204D01*
X119549999Y-86950000D01*
X120450001Y-86950000D01*
X120474505Y-86951204D01*
X120474505Y-86951204D01*
G37*
D20*
X120000000Y-87525000D03*
D17*
G36*
X120474505Y-84901204D02*
G01*
X120498773Y-84904804D01*
X120522572Y-84910765D01*
X120545671Y-84919030D01*
X120567850Y-84929520D01*
X120588893Y-84942132D01*
X120608599Y-84956747D01*
X120626777Y-84973223D01*
X120643253Y-84991401D01*
X120657868Y-85011107D01*
X120670480Y-85032150D01*
X120680970Y-85054329D01*
X120689235Y-85077428D01*
X120695196Y-85101227D01*
X120698796Y-85125495D01*
X120700000Y-85149999D01*
X120700000Y-85800001D01*
X120698796Y-85824505D01*
X120695196Y-85848773D01*
X120689235Y-85872572D01*
X120680970Y-85895671D01*
X120670480Y-85917850D01*
X120657868Y-85938893D01*
X120643253Y-85958599D01*
X120626777Y-85976777D01*
X120608599Y-85993253D01*
X120588893Y-86007868D01*
X120567850Y-86020480D01*
X120545671Y-86030970D01*
X120522572Y-86039235D01*
X120498773Y-86045196D01*
X120474505Y-86048796D01*
X120450001Y-86050000D01*
X119549999Y-86050000D01*
X119525495Y-86048796D01*
X119501227Y-86045196D01*
X119477428Y-86039235D01*
X119454329Y-86030970D01*
X119432150Y-86020480D01*
X119411107Y-86007868D01*
X119391401Y-85993253D01*
X119373223Y-85976777D01*
X119356747Y-85958599D01*
X119342132Y-85938893D01*
X119329520Y-85917850D01*
X119319030Y-85895671D01*
X119310765Y-85872572D01*
X119304804Y-85848773D01*
X119301204Y-85824505D01*
X119300000Y-85800001D01*
X119300000Y-85149999D01*
X119301204Y-85125495D01*
X119304804Y-85101227D01*
X119310765Y-85077428D01*
X119319030Y-85054329D01*
X119329520Y-85032150D01*
X119342132Y-85011107D01*
X119356747Y-84991401D01*
X119373223Y-84973223D01*
X119391401Y-84956747D01*
X119411107Y-84942132D01*
X119432150Y-84929520D01*
X119454329Y-84919030D01*
X119477428Y-84910765D01*
X119501227Y-84904804D01*
X119525495Y-84901204D01*
X119549999Y-84900000D01*
X120450001Y-84900000D01*
X120474505Y-84901204D01*
X120474505Y-84901204D01*
G37*
D20*
X120000000Y-85475000D03*
D17*
G36*
X117649504Y-87276204D02*
G01*
X117673773Y-87279804D01*
X117697571Y-87285765D01*
X117720671Y-87294030D01*
X117742849Y-87304520D01*
X117763893Y-87317133D01*
X117783598Y-87331747D01*
X117801777Y-87348223D01*
X117818253Y-87366402D01*
X117832867Y-87386107D01*
X117845480Y-87407151D01*
X117855970Y-87429329D01*
X117864235Y-87452429D01*
X117870196Y-87476227D01*
X117873796Y-87500496D01*
X117875000Y-87525000D01*
X117875000Y-88450000D01*
X117873796Y-88474504D01*
X117870196Y-88498773D01*
X117864235Y-88522571D01*
X117855970Y-88545671D01*
X117845480Y-88567849D01*
X117832867Y-88588893D01*
X117818253Y-88608598D01*
X117801777Y-88626777D01*
X117783598Y-88643253D01*
X117763893Y-88657867D01*
X117742849Y-88670480D01*
X117720671Y-88680970D01*
X117697571Y-88689235D01*
X117673773Y-88695196D01*
X117649504Y-88698796D01*
X117625000Y-88700000D01*
X116375000Y-88700000D01*
X116350496Y-88698796D01*
X116326227Y-88695196D01*
X116302429Y-88689235D01*
X116279329Y-88680970D01*
X116257151Y-88670480D01*
X116236107Y-88657867D01*
X116216402Y-88643253D01*
X116198223Y-88626777D01*
X116181747Y-88608598D01*
X116167133Y-88588893D01*
X116154520Y-88567849D01*
X116144030Y-88545671D01*
X116135765Y-88522571D01*
X116129804Y-88498773D01*
X116126204Y-88474504D01*
X116125000Y-88450000D01*
X116125000Y-87525000D01*
X116126204Y-87500496D01*
X116129804Y-87476227D01*
X116135765Y-87452429D01*
X116144030Y-87429329D01*
X116154520Y-87407151D01*
X116167133Y-87386107D01*
X116181747Y-87366402D01*
X116198223Y-87348223D01*
X116216402Y-87331747D01*
X116236107Y-87317133D01*
X116257151Y-87304520D01*
X116279329Y-87294030D01*
X116302429Y-87285765D01*
X116326227Y-87279804D01*
X116350496Y-87276204D01*
X116375000Y-87275000D01*
X117625000Y-87275000D01*
X117649504Y-87276204D01*
X117649504Y-87276204D01*
G37*
D18*
X117000000Y-87987500D03*
D17*
G36*
X117649504Y-84301204D02*
G01*
X117673773Y-84304804D01*
X117697571Y-84310765D01*
X117720671Y-84319030D01*
X117742849Y-84329520D01*
X117763893Y-84342133D01*
X117783598Y-84356747D01*
X117801777Y-84373223D01*
X117818253Y-84391402D01*
X117832867Y-84411107D01*
X117845480Y-84432151D01*
X117855970Y-84454329D01*
X117864235Y-84477429D01*
X117870196Y-84501227D01*
X117873796Y-84525496D01*
X117875000Y-84550000D01*
X117875000Y-85475000D01*
X117873796Y-85499504D01*
X117870196Y-85523773D01*
X117864235Y-85547571D01*
X117855970Y-85570671D01*
X117845480Y-85592849D01*
X117832867Y-85613893D01*
X117818253Y-85633598D01*
X117801777Y-85651777D01*
X117783598Y-85668253D01*
X117763893Y-85682867D01*
X117742849Y-85695480D01*
X117720671Y-85705970D01*
X117697571Y-85714235D01*
X117673773Y-85720196D01*
X117649504Y-85723796D01*
X117625000Y-85725000D01*
X116375000Y-85725000D01*
X116350496Y-85723796D01*
X116326227Y-85720196D01*
X116302429Y-85714235D01*
X116279329Y-85705970D01*
X116257151Y-85695480D01*
X116236107Y-85682867D01*
X116216402Y-85668253D01*
X116198223Y-85651777D01*
X116181747Y-85633598D01*
X116167133Y-85613893D01*
X116154520Y-85592849D01*
X116144030Y-85570671D01*
X116135765Y-85547571D01*
X116129804Y-85523773D01*
X116126204Y-85499504D01*
X116125000Y-85475000D01*
X116125000Y-84550000D01*
X116126204Y-84525496D01*
X116129804Y-84501227D01*
X116135765Y-84477429D01*
X116144030Y-84454329D01*
X116154520Y-84432151D01*
X116167133Y-84411107D01*
X116181747Y-84391402D01*
X116198223Y-84373223D01*
X116216402Y-84356747D01*
X116236107Y-84342133D01*
X116257151Y-84329520D01*
X116279329Y-84319030D01*
X116302429Y-84310765D01*
X116326227Y-84304804D01*
X116350496Y-84301204D01*
X116375000Y-84300000D01*
X117625000Y-84300000D01*
X117649504Y-84301204D01*
X117649504Y-84301204D01*
G37*
D18*
X117000000Y-85012500D03*
D17*
G36*
X117649504Y-78801204D02*
G01*
X117673773Y-78804804D01*
X117697571Y-78810765D01*
X117720671Y-78819030D01*
X117742849Y-78829520D01*
X117763893Y-78842133D01*
X117783598Y-78856747D01*
X117801777Y-78873223D01*
X117818253Y-78891402D01*
X117832867Y-78911107D01*
X117845480Y-78932151D01*
X117855970Y-78954329D01*
X117864235Y-78977429D01*
X117870196Y-79001227D01*
X117873796Y-79025496D01*
X117875000Y-79050000D01*
X117875000Y-79975000D01*
X117873796Y-79999504D01*
X117870196Y-80023773D01*
X117864235Y-80047571D01*
X117855970Y-80070671D01*
X117845480Y-80092849D01*
X117832867Y-80113893D01*
X117818253Y-80133598D01*
X117801777Y-80151777D01*
X117783598Y-80168253D01*
X117763893Y-80182867D01*
X117742849Y-80195480D01*
X117720671Y-80205970D01*
X117697571Y-80214235D01*
X117673773Y-80220196D01*
X117649504Y-80223796D01*
X117625000Y-80225000D01*
X116375000Y-80225000D01*
X116350496Y-80223796D01*
X116326227Y-80220196D01*
X116302429Y-80214235D01*
X116279329Y-80205970D01*
X116257151Y-80195480D01*
X116236107Y-80182867D01*
X116216402Y-80168253D01*
X116198223Y-80151777D01*
X116181747Y-80133598D01*
X116167133Y-80113893D01*
X116154520Y-80092849D01*
X116144030Y-80070671D01*
X116135765Y-80047571D01*
X116129804Y-80023773D01*
X116126204Y-79999504D01*
X116125000Y-79975000D01*
X116125000Y-79050000D01*
X116126204Y-79025496D01*
X116129804Y-79001227D01*
X116135765Y-78977429D01*
X116144030Y-78954329D01*
X116154520Y-78932151D01*
X116167133Y-78911107D01*
X116181747Y-78891402D01*
X116198223Y-78873223D01*
X116216402Y-78856747D01*
X116236107Y-78842133D01*
X116257151Y-78829520D01*
X116279329Y-78819030D01*
X116302429Y-78810765D01*
X116326227Y-78804804D01*
X116350496Y-78801204D01*
X116375000Y-78800000D01*
X117625000Y-78800000D01*
X117649504Y-78801204D01*
X117649504Y-78801204D01*
G37*
D18*
X117000000Y-79512500D03*
D17*
G36*
X117649504Y-81776204D02*
G01*
X117673773Y-81779804D01*
X117697571Y-81785765D01*
X117720671Y-81794030D01*
X117742849Y-81804520D01*
X117763893Y-81817133D01*
X117783598Y-81831747D01*
X117801777Y-81848223D01*
X117818253Y-81866402D01*
X117832867Y-81886107D01*
X117845480Y-81907151D01*
X117855970Y-81929329D01*
X117864235Y-81952429D01*
X117870196Y-81976227D01*
X117873796Y-82000496D01*
X117875000Y-82025000D01*
X117875000Y-82950000D01*
X117873796Y-82974504D01*
X117870196Y-82998773D01*
X117864235Y-83022571D01*
X117855970Y-83045671D01*
X117845480Y-83067849D01*
X117832867Y-83088893D01*
X117818253Y-83108598D01*
X117801777Y-83126777D01*
X117783598Y-83143253D01*
X117763893Y-83157867D01*
X117742849Y-83170480D01*
X117720671Y-83180970D01*
X117697571Y-83189235D01*
X117673773Y-83195196D01*
X117649504Y-83198796D01*
X117625000Y-83200000D01*
X116375000Y-83200000D01*
X116350496Y-83198796D01*
X116326227Y-83195196D01*
X116302429Y-83189235D01*
X116279329Y-83180970D01*
X116257151Y-83170480D01*
X116236107Y-83157867D01*
X116216402Y-83143253D01*
X116198223Y-83126777D01*
X116181747Y-83108598D01*
X116167133Y-83088893D01*
X116154520Y-83067849D01*
X116144030Y-83045671D01*
X116135765Y-83022571D01*
X116129804Y-82998773D01*
X116126204Y-82974504D01*
X116125000Y-82950000D01*
X116125000Y-82025000D01*
X116126204Y-82000496D01*
X116129804Y-81976227D01*
X116135765Y-81952429D01*
X116144030Y-81929329D01*
X116154520Y-81907151D01*
X116167133Y-81886107D01*
X116181747Y-81866402D01*
X116198223Y-81848223D01*
X116216402Y-81831747D01*
X116236107Y-81817133D01*
X116257151Y-81804520D01*
X116279329Y-81794030D01*
X116302429Y-81785765D01*
X116326227Y-81779804D01*
X116350496Y-81776204D01*
X116375000Y-81775000D01*
X117625000Y-81775000D01*
X117649504Y-81776204D01*
X117649504Y-81776204D01*
G37*
D18*
X117000000Y-82487500D03*
D21*
X110000000Y-88500000D03*
D22*
X110000000Y-85000000D03*
D21*
X93000000Y-72000000D03*
D22*
X96500000Y-72000000D03*
D24*
X125000000Y-71500000D03*
X125000000Y-110000000D03*
X46000000Y-110000000D03*
X46000000Y-71500000D03*
X78500000Y-71500000D03*
X78500000Y-110000000D03*
D25*
X113500000Y-91500000D03*
X115000000Y-91500000D03*
X117000000Y-91500000D03*
X117000000Y-90000000D03*
X117000000Y-93000000D03*
X120000000Y-93000000D03*
X120000000Y-91500000D03*
X120000000Y-90000000D03*
X112000000Y-91500000D03*
X110500000Y-91500000D03*
X109000000Y-91500000D03*
X107500000Y-91500000D03*
X106000000Y-91500000D03*
X104500000Y-91500000D03*
X103000000Y-91500000D03*
X101500000Y-91500000D03*
X100000000Y-91500000D03*
X98500000Y-91500000D03*
X97000000Y-91500000D03*
X117000000Y-78000000D03*
X117000000Y-104500000D03*
X125000000Y-75500000D03*
X128000000Y-68500000D03*
X128000000Y-69500000D03*
X128000000Y-73500000D03*
X128000000Y-74500000D03*
X128000000Y-75500000D03*
X128000000Y-76500000D03*
X128000000Y-106500000D03*
X128000000Y-107500000D03*
X128000000Y-108500000D03*
X128000000Y-111500000D03*
X128000000Y-112500000D03*
X125000000Y-106500000D03*
X93000000Y-76000000D03*
X91500000Y-76000000D03*
X90000000Y-76000000D03*
X88000000Y-76500000D03*
X86000000Y-76500000D03*
X86000000Y-69500000D03*
X88000000Y-69500000D03*
X90000000Y-70000000D03*
X91500000Y-70000000D03*
X90500000Y-72500000D03*
X93000000Y-112500000D03*
X91500000Y-112500000D03*
X90000000Y-112500000D03*
X87500000Y-112500000D03*
X85500000Y-112000000D03*
X87500000Y-110500000D03*
X91000000Y-109000000D03*
X90000000Y-107000000D03*
X91500000Y-107000000D03*
X93000000Y-107000000D03*
X87500000Y-106500000D03*
X85500000Y-106500000D03*
X93000000Y-70000000D03*
X103500000Y-84000000D03*
X103500000Y-86000000D03*
X101500000Y-86000000D03*
X99000000Y-86000000D03*
X99000000Y-95000000D03*
X101500000Y-95000000D03*
X103500000Y-95000000D03*
X103500000Y-97000000D03*
X112000000Y-89000000D03*
X108000000Y-89000000D03*
X108000000Y-94000000D03*
X112000000Y-94000000D03*
X115000000Y-89000000D03*
X115000000Y-94000000D03*
X115500000Y-104500000D03*
X115500000Y-78000000D03*
D26*
X88550000Y-73500000D02*
X89050000Y-74000000D01*
X88525000Y-73500000D02*
X88550000Y-73500000D01*
X89050000Y-74000000D02*
X94500000Y-74000000D01*
X94500000Y-74000000D02*
X96500000Y-72000000D01*
X125000000Y-78550000D02*
X124500000Y-79050000D01*
X125000000Y-77525000D02*
X125000000Y-78550000D01*
X117000000Y-79512500D02*
X117000000Y-78000000D01*
X117000000Y-102987500D02*
X117000000Y-104500000D01*
X117000000Y-102987500D02*
X117000000Y-103000000D01*
X117000000Y-103000000D02*
X115500000Y-104500000D01*
X117000000Y-79512500D02*
X117000000Y-79500000D01*
X117000000Y-79500000D02*
X115500000Y-78000000D01*
X95500000Y-110000000D02*
X96500000Y-109000000D01*
X95500000Y-111000000D02*
X95500000Y-110000000D01*
X90050000Y-110500000D02*
X90550000Y-111000000D01*
X94500000Y-111000000D02*
X96500000Y-109000000D01*
X90550000Y-111000000D02*
X94500000Y-111000000D01*
X90025000Y-110500000D02*
X89025000Y-109500000D01*
X90050000Y-110500000D02*
X90025000Y-110500000D01*
D27*
X55000000Y-77000000D02*
X55000000Y-105000000D01*
X53000000Y-77000000D02*
X49000000Y-81000000D01*
X55000000Y-77000000D02*
X53000000Y-77000000D01*
D28*
G36*
X65373000Y-73947394D02*
G01*
X61947394Y-77373000D01*
X57000000Y-77373000D01*
X56975224Y-77375440D01*
X56951399Y-77382667D01*
X56929443Y-77394403D01*
X56910197Y-77410197D01*
X55910197Y-78410197D01*
X55894403Y-78429443D01*
X55882667Y-78451399D01*
X55875440Y-78475224D01*
X55873000Y-78500000D01*
X55873000Y-102500000D01*
X55875440Y-102524776D01*
X55882667Y-102548601D01*
X55894403Y-102570557D01*
X55910197Y-102589803D01*
X56410197Y-103089803D01*
X56429443Y-103105597D01*
X56451399Y-103117333D01*
X56475224Y-103124560D01*
X56500000Y-103127000D01*
X66947394Y-103127000D01*
X70373000Y-106552606D01*
X70373000Y-112848000D01*
X60277606Y-112848000D01*
X56170869Y-108741263D01*
X60293000Y-108741263D01*
X60293000Y-109258737D01*
X60393954Y-109766268D01*
X60591983Y-110244351D01*
X60879476Y-110674615D01*
X61245385Y-111040524D01*
X61675649Y-111328017D01*
X62153732Y-111526046D01*
X62661263Y-111627000D01*
X63178737Y-111627000D01*
X63686268Y-111526046D01*
X64164351Y-111328017D01*
X64594615Y-111040524D01*
X64960524Y-110674615D01*
X65077197Y-110500000D01*
X66121176Y-110500000D01*
X66128455Y-110573905D01*
X66150012Y-110644970D01*
X66185019Y-110710463D01*
X66232131Y-110767869D01*
X66289537Y-110814981D01*
X66355030Y-110849988D01*
X66426095Y-110871545D01*
X66500000Y-110878824D01*
X67657750Y-110877000D01*
X67752000Y-110782750D01*
X67752000Y-109248000D01*
X68248000Y-109248000D01*
X68248000Y-110782750D01*
X68342250Y-110877000D01*
X69500000Y-110878824D01*
X69573905Y-110871545D01*
X69644970Y-110849988D01*
X69710463Y-110814981D01*
X69767869Y-110767869D01*
X69814981Y-110710463D01*
X69849988Y-110644970D01*
X69871545Y-110573905D01*
X69878824Y-110500000D01*
X69877000Y-109342250D01*
X69782750Y-109248000D01*
X68248000Y-109248000D01*
X67752000Y-109248000D01*
X66217250Y-109248000D01*
X66123000Y-109342250D01*
X66121176Y-110500000D01*
X65077197Y-110500000D01*
X65248017Y-110244351D01*
X65446046Y-109766268D01*
X65547000Y-109258737D01*
X65547000Y-108741263D01*
X65446046Y-108233732D01*
X65248017Y-107755649D01*
X65077198Y-107500000D01*
X66121176Y-107500000D01*
X66123000Y-108657750D01*
X66217250Y-108752000D01*
X67752000Y-108752000D01*
X67752000Y-107217250D01*
X68248000Y-107217250D01*
X68248000Y-108752000D01*
X69782750Y-108752000D01*
X69877000Y-108657750D01*
X69878824Y-107500000D01*
X69871545Y-107426095D01*
X69849988Y-107355030D01*
X69814981Y-107289537D01*
X69767869Y-107232131D01*
X69710463Y-107185019D01*
X69644970Y-107150012D01*
X69573905Y-107128455D01*
X69500000Y-107121176D01*
X68342250Y-107123000D01*
X68248000Y-107217250D01*
X67752000Y-107217250D01*
X67657750Y-107123000D01*
X66500000Y-107121176D01*
X66426095Y-107128455D01*
X66355030Y-107150012D01*
X66289537Y-107185019D01*
X66232131Y-107232131D01*
X66185019Y-107289537D01*
X66150012Y-107355030D01*
X66128455Y-107426095D01*
X66121176Y-107500000D01*
X65077198Y-107500000D01*
X64960524Y-107325385D01*
X64594615Y-106959476D01*
X64164351Y-106671983D01*
X63686268Y-106473954D01*
X63178737Y-106373000D01*
X62661263Y-106373000D01*
X62153732Y-106473954D01*
X61675649Y-106671983D01*
X61245385Y-106959476D01*
X60879476Y-107325385D01*
X60591983Y-107755649D01*
X60393954Y-108233732D01*
X60293000Y-108741263D01*
X56170869Y-108741263D01*
X51839803Y-104410197D01*
X51820557Y-104394403D01*
X51798601Y-104382667D01*
X51774776Y-104375440D01*
X51750000Y-104373000D01*
X47052606Y-104373000D01*
X45627000Y-102947394D01*
X45627000Y-101112971D01*
X46898000Y-101112971D01*
X46898000Y-101527029D01*
X46978778Y-101933131D01*
X47137231Y-102315671D01*
X47367270Y-102659947D01*
X47660053Y-102952730D01*
X48004329Y-103182769D01*
X48386869Y-103341222D01*
X48792971Y-103422000D01*
X49207029Y-103422000D01*
X49613131Y-103341222D01*
X49995671Y-103182769D01*
X50339947Y-102952730D01*
X50632730Y-102659947D01*
X50862769Y-102315671D01*
X51021222Y-101933131D01*
X51102000Y-101527029D01*
X51102000Y-101112971D01*
X51021222Y-100706869D01*
X50862769Y-100324329D01*
X50632730Y-99980053D01*
X50339947Y-99687270D01*
X49995671Y-99457231D01*
X49613131Y-99298778D01*
X49207029Y-99218000D01*
X48792971Y-99218000D01*
X48386869Y-99298778D01*
X48004329Y-99457231D01*
X47660053Y-99687270D01*
X47367270Y-99980053D01*
X47137231Y-100324329D01*
X46978778Y-100706869D01*
X46898000Y-101112971D01*
X45627000Y-101112971D01*
X45627000Y-82051984D01*
X48298741Y-82051984D01*
X48415523Y-82226385D01*
X48666009Y-82316846D01*
X48929331Y-82356702D01*
X49195368Y-82344421D01*
X49453897Y-82280474D01*
X49584477Y-82226385D01*
X49701259Y-82051984D01*
X49000000Y-81350725D01*
X48298741Y-82051984D01*
X45627000Y-82051984D01*
X45627000Y-80929331D01*
X47643298Y-80929331D01*
X47655579Y-81195368D01*
X47719526Y-81453897D01*
X47773615Y-81584477D01*
X47948016Y-81701259D01*
X48649275Y-81000000D01*
X49350725Y-81000000D01*
X50051984Y-81701259D01*
X50226385Y-81584477D01*
X50316846Y-81333991D01*
X50356702Y-81070669D01*
X50344421Y-80804632D01*
X50280474Y-80546103D01*
X50226385Y-80415523D01*
X50051984Y-80298741D01*
X49350725Y-81000000D01*
X48649275Y-81000000D01*
X47948016Y-80298741D01*
X47773615Y-80415523D01*
X47683154Y-80666009D01*
X47643298Y-80929331D01*
X45627000Y-80929331D01*
X45627000Y-79948016D01*
X48298741Y-79948016D01*
X49000000Y-80649275D01*
X49701259Y-79948016D01*
X49584477Y-79773615D01*
X49333991Y-79683154D01*
X49070669Y-79643298D01*
X48804632Y-79655579D01*
X48546103Y-79719526D01*
X48415523Y-79773615D01*
X48298741Y-79948016D01*
X45627000Y-79948016D01*
X45627000Y-79052606D01*
X47052606Y-77627000D01*
X51000000Y-77627000D01*
X51024776Y-77624560D01*
X51048601Y-77617333D01*
X51070557Y-77605597D01*
X51089803Y-77589803D01*
X55179606Y-73500000D01*
X61121176Y-73500000D01*
X61128455Y-73573905D01*
X61150012Y-73644970D01*
X61185019Y-73710463D01*
X61232131Y-73767869D01*
X61289537Y-73814981D01*
X61355030Y-73849988D01*
X61426095Y-73871545D01*
X61500000Y-73878824D01*
X62657750Y-73877000D01*
X62752000Y-73782750D01*
X62752000Y-72248000D01*
X63248000Y-72248000D01*
X63248000Y-73782750D01*
X63342250Y-73877000D01*
X64500000Y-73878824D01*
X64573905Y-73871545D01*
X64644970Y-73849988D01*
X64710463Y-73814981D01*
X64767869Y-73767869D01*
X64814981Y-73710463D01*
X64849988Y-73644970D01*
X64871545Y-73573905D01*
X64878824Y-73500000D01*
X64877000Y-72342250D01*
X64782750Y-72248000D01*
X63248000Y-72248000D01*
X62752000Y-72248000D01*
X61217250Y-72248000D01*
X61123000Y-72342250D01*
X61121176Y-73500000D01*
X55179606Y-73500000D01*
X58179606Y-70500000D01*
X61121176Y-70500000D01*
X61123000Y-71657750D01*
X61217250Y-71752000D01*
X62752000Y-71752000D01*
X62752000Y-70217250D01*
X63248000Y-70217250D01*
X63248000Y-71752000D01*
X64782750Y-71752000D01*
X64877000Y-71657750D01*
X64878824Y-70500000D01*
X64871545Y-70426095D01*
X64849988Y-70355030D01*
X64814981Y-70289537D01*
X64767869Y-70232131D01*
X64710463Y-70185019D01*
X64644970Y-70150012D01*
X64573905Y-70128455D01*
X64500000Y-70121176D01*
X63342250Y-70123000D01*
X63248000Y-70217250D01*
X62752000Y-70217250D01*
X62657750Y-70123000D01*
X61500000Y-70121176D01*
X61426095Y-70128455D01*
X61355030Y-70150012D01*
X61289537Y-70185019D01*
X61232131Y-70232131D01*
X61185019Y-70289537D01*
X61150012Y-70355030D01*
X61128455Y-70426095D01*
X61121176Y-70500000D01*
X58179606Y-70500000D01*
X60527606Y-68152000D01*
X65373000Y-68152000D01*
X65373000Y-73947394D01*
X65373000Y-73947394D01*
G37*
X65373000Y-73947394D02*
X61947394Y-77373000D01*
X57000000Y-77373000D01*
X56975224Y-77375440D01*
X56951399Y-77382667D01*
X56929443Y-77394403D01*
X56910197Y-77410197D01*
X55910197Y-78410197D01*
X55894403Y-78429443D01*
X55882667Y-78451399D01*
X55875440Y-78475224D01*
X55873000Y-78500000D01*
X55873000Y-102500000D01*
X55875440Y-102524776D01*
X55882667Y-102548601D01*
X55894403Y-102570557D01*
X55910197Y-102589803D01*
X56410197Y-103089803D01*
X56429443Y-103105597D01*
X56451399Y-103117333D01*
X56475224Y-103124560D01*
X56500000Y-103127000D01*
X66947394Y-103127000D01*
X70373000Y-106552606D01*
X70373000Y-112848000D01*
X60277606Y-112848000D01*
X56170869Y-108741263D01*
X60293000Y-108741263D01*
X60293000Y-109258737D01*
X60393954Y-109766268D01*
X60591983Y-110244351D01*
X60879476Y-110674615D01*
X61245385Y-111040524D01*
X61675649Y-111328017D01*
X62153732Y-111526046D01*
X62661263Y-111627000D01*
X63178737Y-111627000D01*
X63686268Y-111526046D01*
X64164351Y-111328017D01*
X64594615Y-111040524D01*
X64960524Y-110674615D01*
X65077197Y-110500000D01*
X66121176Y-110500000D01*
X66128455Y-110573905D01*
X66150012Y-110644970D01*
X66185019Y-110710463D01*
X66232131Y-110767869D01*
X66289537Y-110814981D01*
X66355030Y-110849988D01*
X66426095Y-110871545D01*
X66500000Y-110878824D01*
X67657750Y-110877000D01*
X67752000Y-110782750D01*
X67752000Y-109248000D01*
X68248000Y-109248000D01*
X68248000Y-110782750D01*
X68342250Y-110877000D01*
X69500000Y-110878824D01*
X69573905Y-110871545D01*
X69644970Y-110849988D01*
X69710463Y-110814981D01*
X69767869Y-110767869D01*
X69814981Y-110710463D01*
X69849988Y-110644970D01*
X69871545Y-110573905D01*
X69878824Y-110500000D01*
X69877000Y-109342250D01*
X69782750Y-109248000D01*
X68248000Y-109248000D01*
X67752000Y-109248000D01*
X66217250Y-109248000D01*
X66123000Y-109342250D01*
X66121176Y-110500000D01*
X65077197Y-110500000D01*
X65248017Y-110244351D01*
X65446046Y-109766268D01*
X65547000Y-109258737D01*
X65547000Y-108741263D01*
X65446046Y-108233732D01*
X65248017Y-107755649D01*
X65077198Y-107500000D01*
X66121176Y-107500000D01*
X66123000Y-108657750D01*
X66217250Y-108752000D01*
X67752000Y-108752000D01*
X67752000Y-107217250D01*
X68248000Y-107217250D01*
X68248000Y-108752000D01*
X69782750Y-108752000D01*
X69877000Y-108657750D01*
X69878824Y-107500000D01*
X69871545Y-107426095D01*
X69849988Y-107355030D01*
X69814981Y-107289537D01*
X69767869Y-107232131D01*
X69710463Y-107185019D01*
X69644970Y-107150012D01*
X69573905Y-107128455D01*
X69500000Y-107121176D01*
X68342250Y-107123000D01*
X68248000Y-107217250D01*
X67752000Y-107217250D01*
X67657750Y-107123000D01*
X66500000Y-107121176D01*
X66426095Y-107128455D01*
X66355030Y-107150012D01*
X66289537Y-107185019D01*
X66232131Y-107232131D01*
X66185019Y-107289537D01*
X66150012Y-107355030D01*
X66128455Y-107426095D01*
X66121176Y-107500000D01*
X65077198Y-107500000D01*
X64960524Y-107325385D01*
X64594615Y-106959476D01*
X64164351Y-106671983D01*
X63686268Y-106473954D01*
X63178737Y-106373000D01*
X62661263Y-106373000D01*
X62153732Y-106473954D01*
X61675649Y-106671983D01*
X61245385Y-106959476D01*
X60879476Y-107325385D01*
X60591983Y-107755649D01*
X60393954Y-108233732D01*
X60293000Y-108741263D01*
X56170869Y-108741263D01*
X51839803Y-104410197D01*
X51820557Y-104394403D01*
X51798601Y-104382667D01*
X51774776Y-104375440D01*
X51750000Y-104373000D01*
X47052606Y-104373000D01*
X45627000Y-102947394D01*
X45627000Y-101112971D01*
X46898000Y-101112971D01*
X46898000Y-101527029D01*
X46978778Y-101933131D01*
X47137231Y-102315671D01*
X47367270Y-102659947D01*
X47660053Y-102952730D01*
X48004329Y-103182769D01*
X48386869Y-103341222D01*
X48792971Y-103422000D01*
X49207029Y-103422000D01*
X49613131Y-103341222D01*
X49995671Y-103182769D01*
X50339947Y-102952730D01*
X50632730Y-102659947D01*
X50862769Y-102315671D01*
X51021222Y-101933131D01*
X51102000Y-101527029D01*
X51102000Y-101112971D01*
X51021222Y-100706869D01*
X50862769Y-100324329D01*
X50632730Y-99980053D01*
X50339947Y-99687270D01*
X49995671Y-99457231D01*
X49613131Y-99298778D01*
X49207029Y-99218000D01*
X48792971Y-99218000D01*
X48386869Y-99298778D01*
X48004329Y-99457231D01*
X47660053Y-99687270D01*
X47367270Y-99980053D01*
X47137231Y-100324329D01*
X46978778Y-100706869D01*
X46898000Y-101112971D01*
X45627000Y-101112971D01*
X45627000Y-82051984D01*
X48298741Y-82051984D01*
X48415523Y-82226385D01*
X48666009Y-82316846D01*
X48929331Y-82356702D01*
X49195368Y-82344421D01*
X49453897Y-82280474D01*
X49584477Y-82226385D01*
X49701259Y-82051984D01*
X49000000Y-81350725D01*
X48298741Y-82051984D01*
X45627000Y-82051984D01*
X45627000Y-80929331D01*
X47643298Y-80929331D01*
X47655579Y-81195368D01*
X47719526Y-81453897D01*
X47773615Y-81584477D01*
X47948016Y-81701259D01*
X48649275Y-81000000D01*
X49350725Y-81000000D01*
X50051984Y-81701259D01*
X50226385Y-81584477D01*
X50316846Y-81333991D01*
X50356702Y-81070669D01*
X50344421Y-80804632D01*
X50280474Y-80546103D01*
X50226385Y-80415523D01*
X50051984Y-80298741D01*
X49350725Y-81000000D01*
X48649275Y-81000000D01*
X47948016Y-80298741D01*
X47773615Y-80415523D01*
X47683154Y-80666009D01*
X47643298Y-80929331D01*
X45627000Y-80929331D01*
X45627000Y-79948016D01*
X48298741Y-79948016D01*
X49000000Y-80649275D01*
X49701259Y-79948016D01*
X49584477Y-79773615D01*
X49333991Y-79683154D01*
X49070669Y-79643298D01*
X48804632Y-79655579D01*
X48546103Y-79719526D01*
X48415523Y-79773615D01*
X48298741Y-79948016D01*
X45627000Y-79948016D01*
X45627000Y-79052606D01*
X47052606Y-77627000D01*
X51000000Y-77627000D01*
X51024776Y-77624560D01*
X51048601Y-77617333D01*
X51070557Y-77605597D01*
X51089803Y-77589803D01*
X55179606Y-73500000D01*
X61121176Y-73500000D01*
X61128455Y-73573905D01*
X61150012Y-73644970D01*
X61185019Y-73710463D01*
X61232131Y-73767869D01*
X61289537Y-73814981D01*
X61355030Y-73849988D01*
X61426095Y-73871545D01*
X61500000Y-73878824D01*
X62657750Y-73877000D01*
X62752000Y-73782750D01*
X62752000Y-72248000D01*
X63248000Y-72248000D01*
X63248000Y-73782750D01*
X63342250Y-73877000D01*
X64500000Y-73878824D01*
X64573905Y-73871545D01*
X64644970Y-73849988D01*
X64710463Y-73814981D01*
X64767869Y-73767869D01*
X64814981Y-73710463D01*
X64849988Y-73644970D01*
X64871545Y-73573905D01*
X64878824Y-73500000D01*
X64877000Y-72342250D01*
X64782750Y-72248000D01*
X63248000Y-72248000D01*
X62752000Y-72248000D01*
X61217250Y-72248000D01*
X61123000Y-72342250D01*
X61121176Y-73500000D01*
X55179606Y-73500000D01*
X58179606Y-70500000D01*
X61121176Y-70500000D01*
X61123000Y-71657750D01*
X61217250Y-71752000D01*
X62752000Y-71752000D01*
X62752000Y-70217250D01*
X63248000Y-70217250D01*
X63248000Y-71752000D01*
X64782750Y-71752000D01*
X64877000Y-71657750D01*
X64878824Y-70500000D01*
X64871545Y-70426095D01*
X64849988Y-70355030D01*
X64814981Y-70289537D01*
X64767869Y-70232131D01*
X64710463Y-70185019D01*
X64644970Y-70150012D01*
X64573905Y-70128455D01*
X64500000Y-70121176D01*
X63342250Y-70123000D01*
X63248000Y-70217250D01*
X62752000Y-70217250D01*
X62657750Y-70123000D01*
X61500000Y-70121176D01*
X61426095Y-70128455D01*
X61355030Y-70150012D01*
X61289537Y-70185019D01*
X61232131Y-70232131D01*
X61185019Y-70289537D01*
X61150012Y-70355030D01*
X61128455Y-70426095D01*
X61121176Y-70500000D01*
X58179606Y-70500000D01*
X60527606Y-68152000D01*
X65373000Y-68152000D01*
X65373000Y-73947394D01*
D29*
G36*
X103875000Y-82375000D02*
G01*
X102720031Y-82375000D01*
X102723131Y-82369200D01*
X102744574Y-82298513D01*
X102751814Y-82225000D01*
X102750000Y-81731250D01*
X102656250Y-81637500D01*
X101625000Y-81637500D01*
X101625000Y-81657500D01*
X101375000Y-81657500D01*
X101375000Y-81637500D01*
X100343750Y-81637500D01*
X100250000Y-81731250D01*
X100248186Y-82225000D01*
X100255426Y-82298513D01*
X100276869Y-82369200D01*
X100311691Y-82434347D01*
X100346483Y-82476741D01*
X97948224Y-84875000D01*
X92625000Y-84875000D01*
X92625000Y-81976925D01*
X93919852Y-81976925D01*
X94027170Y-82166262D01*
X94268009Y-82279018D01*
X94526217Y-82342620D01*
X94791873Y-82354627D01*
X95054767Y-82314577D01*
X95304796Y-82224007D01*
X95412830Y-82166262D01*
X95520148Y-81976925D01*
X94720000Y-81176777D01*
X93919852Y-81976925D01*
X92625000Y-81976925D01*
X92625000Y-81071873D01*
X93365373Y-81071873D01*
X93405423Y-81334767D01*
X93495993Y-81584796D01*
X93553738Y-81692830D01*
X93743075Y-81800148D01*
X94543223Y-81000000D01*
X94896777Y-81000000D01*
X95696925Y-81800148D01*
X95886262Y-81692830D01*
X95999018Y-81451991D01*
X96062620Y-81193783D01*
X96074627Y-80928127D01*
X96055108Y-80800000D01*
X100248186Y-80800000D01*
X100250000Y-81293750D01*
X100343750Y-81387500D01*
X101375000Y-81387500D01*
X101375000Y-80518750D01*
X101625000Y-80518750D01*
X101625000Y-81387500D01*
X102656250Y-81387500D01*
X102750000Y-81293750D01*
X102751814Y-80800000D01*
X102744574Y-80726487D01*
X102723131Y-80655800D01*
X102688309Y-80590653D01*
X102641448Y-80533552D01*
X102584347Y-80486691D01*
X102519200Y-80451869D01*
X102448513Y-80430426D01*
X102375000Y-80423186D01*
X101718750Y-80425000D01*
X101625000Y-80518750D01*
X101375000Y-80518750D01*
X101281250Y-80425000D01*
X100625000Y-80423186D01*
X100551487Y-80430426D01*
X100480800Y-80451869D01*
X100415653Y-80486691D01*
X100358552Y-80533552D01*
X100311691Y-80590653D01*
X100276869Y-80655800D01*
X100255426Y-80726487D01*
X100248186Y-80800000D01*
X96055108Y-80800000D01*
X96034577Y-80665233D01*
X95944007Y-80415204D01*
X95886262Y-80307170D01*
X95696925Y-80199852D01*
X94896777Y-81000000D01*
X94543223Y-81000000D01*
X93743075Y-80199852D01*
X93553738Y-80307170D01*
X93440982Y-80548009D01*
X93377380Y-80806217D01*
X93365373Y-81071873D01*
X92625000Y-81071873D01*
X92625000Y-80023075D01*
X93919852Y-80023075D01*
X94720000Y-80823223D01*
X95520148Y-80023075D01*
X95412830Y-79833738D01*
X95171991Y-79720982D01*
X94913783Y-79657380D01*
X94648127Y-79645373D01*
X94385233Y-79685423D01*
X94135204Y-79775993D01*
X94027170Y-79833738D01*
X93919852Y-80023075D01*
X92625000Y-80023075D01*
X92625000Y-79051776D01*
X95088388Y-76588388D01*
X95103934Y-76569446D01*
X95115485Y-76547835D01*
X95122598Y-76524386D01*
X95125000Y-76500000D01*
X95125000Y-76300000D01*
X100123186Y-76300000D01*
X100130426Y-76373513D01*
X100151869Y-76444200D01*
X100186691Y-76509347D01*
X100233552Y-76566448D01*
X100290653Y-76613309D01*
X100355800Y-76648131D01*
X100426487Y-76669574D01*
X100500000Y-76676814D01*
X101631250Y-76675000D01*
X101725000Y-76581250D01*
X101725000Y-74625000D01*
X101975000Y-74625000D01*
X101975000Y-76581250D01*
X102068750Y-76675000D01*
X103200000Y-76676814D01*
X103273513Y-76669574D01*
X103344200Y-76648131D01*
X103409347Y-76613309D01*
X103466448Y-76566448D01*
X103513309Y-76509347D01*
X103548131Y-76444200D01*
X103569574Y-76373513D01*
X103576814Y-76300000D01*
X103575000Y-74718750D01*
X103481250Y-74625000D01*
X101975000Y-74625000D01*
X101725000Y-74625000D01*
X100218750Y-74625000D01*
X100125000Y-74718750D01*
X100123186Y-76300000D01*
X95125000Y-76300000D01*
X95125000Y-72800000D01*
X95323186Y-72800000D01*
X95330426Y-72873513D01*
X95351869Y-72944200D01*
X95386691Y-73009347D01*
X95433552Y-73066448D01*
X95490653Y-73113309D01*
X95555800Y-73148131D01*
X95626487Y-73169574D01*
X95700000Y-73176814D01*
X96281250Y-73175000D01*
X96375000Y-73081250D01*
X96375000Y-72125000D01*
X96625000Y-72125000D01*
X96625000Y-73081250D01*
X96718750Y-73175000D01*
X97300000Y-73176814D01*
X97373513Y-73169574D01*
X97444200Y-73148131D01*
X97509347Y-73113309D01*
X97566448Y-73066448D01*
X97613309Y-73009347D01*
X97648131Y-72944200D01*
X97669574Y-72873513D01*
X97676814Y-72800000D01*
X97676502Y-72700000D01*
X100123186Y-72700000D01*
X100125000Y-74281250D01*
X100218750Y-74375000D01*
X101725000Y-74375000D01*
X101725000Y-72418750D01*
X101975000Y-72418750D01*
X101975000Y-74375000D01*
X103481250Y-74375000D01*
X103575000Y-74281250D01*
X103576814Y-72700000D01*
X103569574Y-72626487D01*
X103548131Y-72555800D01*
X103513309Y-72490653D01*
X103466448Y-72433552D01*
X103409347Y-72386691D01*
X103344200Y-72351869D01*
X103273513Y-72330426D01*
X103200000Y-72323186D01*
X102068750Y-72325000D01*
X101975000Y-72418750D01*
X101725000Y-72418750D01*
X101631250Y-72325000D01*
X100500000Y-72323186D01*
X100426487Y-72330426D01*
X100355800Y-72351869D01*
X100290653Y-72386691D01*
X100233552Y-72433552D01*
X100186691Y-72490653D01*
X100151869Y-72555800D01*
X100130426Y-72626487D01*
X100123186Y-72700000D01*
X97676502Y-72700000D01*
X97675000Y-72218750D01*
X97581250Y-72125000D01*
X96625000Y-72125000D01*
X96375000Y-72125000D01*
X95418750Y-72125000D01*
X95325000Y-72218750D01*
X95323186Y-72800000D01*
X95125000Y-72800000D01*
X95125000Y-71200000D01*
X95323186Y-71200000D01*
X95325000Y-71781250D01*
X95418750Y-71875000D01*
X96375000Y-71875000D01*
X96375000Y-70918750D01*
X96625000Y-70918750D01*
X96625000Y-71875000D01*
X97581250Y-71875000D01*
X97675000Y-71781250D01*
X97676814Y-71200000D01*
X97669574Y-71126487D01*
X97648131Y-71055800D01*
X97613309Y-70990653D01*
X97566448Y-70933552D01*
X97509347Y-70886691D01*
X97444200Y-70851869D01*
X97373513Y-70830426D01*
X97300000Y-70823186D01*
X96718750Y-70825000D01*
X96625000Y-70918750D01*
X96375000Y-70918750D01*
X96281250Y-70825000D01*
X95700000Y-70823186D01*
X95626487Y-70830426D01*
X95555800Y-70851869D01*
X95490653Y-70886691D01*
X95433552Y-70933552D01*
X95386691Y-70990653D01*
X95351869Y-71055800D01*
X95330426Y-71126487D01*
X95323186Y-71200000D01*
X95125000Y-71200000D01*
X95125000Y-67625000D01*
X103875000Y-67625000D01*
X103875000Y-82375000D01*
X103875000Y-82375000D01*
G37*
X103875000Y-82375000D02*
X102720031Y-82375000D01*
X102723131Y-82369200D01*
X102744574Y-82298513D01*
X102751814Y-82225000D01*
X102750000Y-81731250D01*
X102656250Y-81637500D01*
X101625000Y-81637500D01*
X101625000Y-81657500D01*
X101375000Y-81657500D01*
X101375000Y-81637500D01*
X100343750Y-81637500D01*
X100250000Y-81731250D01*
X100248186Y-82225000D01*
X100255426Y-82298513D01*
X100276869Y-82369200D01*
X100311691Y-82434347D01*
X100346483Y-82476741D01*
X97948224Y-84875000D01*
X92625000Y-84875000D01*
X92625000Y-81976925D01*
X93919852Y-81976925D01*
X94027170Y-82166262D01*
X94268009Y-82279018D01*
X94526217Y-82342620D01*
X94791873Y-82354627D01*
X95054767Y-82314577D01*
X95304796Y-82224007D01*
X95412830Y-82166262D01*
X95520148Y-81976925D01*
X94720000Y-81176777D01*
X93919852Y-81976925D01*
X92625000Y-81976925D01*
X92625000Y-81071873D01*
X93365373Y-81071873D01*
X93405423Y-81334767D01*
X93495993Y-81584796D01*
X93553738Y-81692830D01*
X93743075Y-81800148D01*
X94543223Y-81000000D01*
X94896777Y-81000000D01*
X95696925Y-81800148D01*
X95886262Y-81692830D01*
X95999018Y-81451991D01*
X96062620Y-81193783D01*
X96074627Y-80928127D01*
X96055108Y-80800000D01*
X100248186Y-80800000D01*
X100250000Y-81293750D01*
X100343750Y-81387500D01*
X101375000Y-81387500D01*
X101375000Y-80518750D01*
X101625000Y-80518750D01*
X101625000Y-81387500D01*
X102656250Y-81387500D01*
X102750000Y-81293750D01*
X102751814Y-80800000D01*
X102744574Y-80726487D01*
X102723131Y-80655800D01*
X102688309Y-80590653D01*
X102641448Y-80533552D01*
X102584347Y-80486691D01*
X102519200Y-80451869D01*
X102448513Y-80430426D01*
X102375000Y-80423186D01*
X101718750Y-80425000D01*
X101625000Y-80518750D01*
X101375000Y-80518750D01*
X101281250Y-80425000D01*
X100625000Y-80423186D01*
X100551487Y-80430426D01*
X100480800Y-80451869D01*
X100415653Y-80486691D01*
X100358552Y-80533552D01*
X100311691Y-80590653D01*
X100276869Y-80655800D01*
X100255426Y-80726487D01*
X100248186Y-80800000D01*
X96055108Y-80800000D01*
X96034577Y-80665233D01*
X95944007Y-80415204D01*
X95886262Y-80307170D01*
X95696925Y-80199852D01*
X94896777Y-81000000D01*
X94543223Y-81000000D01*
X93743075Y-80199852D01*
X93553738Y-80307170D01*
X93440982Y-80548009D01*
X93377380Y-80806217D01*
X93365373Y-81071873D01*
X92625000Y-81071873D01*
X92625000Y-80023075D01*
X93919852Y-80023075D01*
X94720000Y-80823223D01*
X95520148Y-80023075D01*
X95412830Y-79833738D01*
X95171991Y-79720982D01*
X94913783Y-79657380D01*
X94648127Y-79645373D01*
X94385233Y-79685423D01*
X94135204Y-79775993D01*
X94027170Y-79833738D01*
X93919852Y-80023075D01*
X92625000Y-80023075D01*
X92625000Y-79051776D01*
X95088388Y-76588388D01*
X95103934Y-76569446D01*
X95115485Y-76547835D01*
X95122598Y-76524386D01*
X95125000Y-76500000D01*
X95125000Y-76300000D01*
X100123186Y-76300000D01*
X100130426Y-76373513D01*
X100151869Y-76444200D01*
X100186691Y-76509347D01*
X100233552Y-76566448D01*
X100290653Y-76613309D01*
X100355800Y-76648131D01*
X100426487Y-76669574D01*
X100500000Y-76676814D01*
X101631250Y-76675000D01*
X101725000Y-76581250D01*
X101725000Y-74625000D01*
X101975000Y-74625000D01*
X101975000Y-76581250D01*
X102068750Y-76675000D01*
X103200000Y-76676814D01*
X103273513Y-76669574D01*
X103344200Y-76648131D01*
X103409347Y-76613309D01*
X103466448Y-76566448D01*
X103513309Y-76509347D01*
X103548131Y-76444200D01*
X103569574Y-76373513D01*
X103576814Y-76300000D01*
X103575000Y-74718750D01*
X103481250Y-74625000D01*
X101975000Y-74625000D01*
X101725000Y-74625000D01*
X100218750Y-74625000D01*
X100125000Y-74718750D01*
X100123186Y-76300000D01*
X95125000Y-76300000D01*
X95125000Y-72800000D01*
X95323186Y-72800000D01*
X95330426Y-72873513D01*
X95351869Y-72944200D01*
X95386691Y-73009347D01*
X95433552Y-73066448D01*
X95490653Y-73113309D01*
X95555800Y-73148131D01*
X95626487Y-73169574D01*
X95700000Y-73176814D01*
X96281250Y-73175000D01*
X96375000Y-73081250D01*
X96375000Y-72125000D01*
X96625000Y-72125000D01*
X96625000Y-73081250D01*
X96718750Y-73175000D01*
X97300000Y-73176814D01*
X97373513Y-73169574D01*
X97444200Y-73148131D01*
X97509347Y-73113309D01*
X97566448Y-73066448D01*
X97613309Y-73009347D01*
X97648131Y-72944200D01*
X97669574Y-72873513D01*
X97676814Y-72800000D01*
X97676502Y-72700000D01*
X100123186Y-72700000D01*
X100125000Y-74281250D01*
X100218750Y-74375000D01*
X101725000Y-74375000D01*
X101725000Y-72418750D01*
X101975000Y-72418750D01*
X101975000Y-74375000D01*
X103481250Y-74375000D01*
X103575000Y-74281250D01*
X103576814Y-72700000D01*
X103569574Y-72626487D01*
X103548131Y-72555800D01*
X103513309Y-72490653D01*
X103466448Y-72433552D01*
X103409347Y-72386691D01*
X103344200Y-72351869D01*
X103273513Y-72330426D01*
X103200000Y-72323186D01*
X102068750Y-72325000D01*
X101975000Y-72418750D01*
X101725000Y-72418750D01*
X101631250Y-72325000D01*
X100500000Y-72323186D01*
X100426487Y-72330426D01*
X100355800Y-72351869D01*
X100290653Y-72386691D01*
X100233552Y-72433552D01*
X100186691Y-72490653D01*
X100151869Y-72555800D01*
X100130426Y-72626487D01*
X100123186Y-72700000D01*
X97676502Y-72700000D01*
X97675000Y-72218750D01*
X97581250Y-72125000D01*
X96625000Y-72125000D01*
X96375000Y-72125000D01*
X95418750Y-72125000D01*
X95325000Y-72218750D01*
X95323186Y-72800000D01*
X95125000Y-72800000D01*
X95125000Y-71200000D01*
X95323186Y-71200000D01*
X95325000Y-71781250D01*
X95418750Y-71875000D01*
X96375000Y-71875000D01*
X96375000Y-70918750D01*
X96625000Y-70918750D01*
X96625000Y-71875000D01*
X97581250Y-71875000D01*
X97675000Y-71781250D01*
X97676814Y-71200000D01*
X97669574Y-71126487D01*
X97648131Y-71055800D01*
X97613309Y-70990653D01*
X97566448Y-70933552D01*
X97509347Y-70886691D01*
X97444200Y-70851869D01*
X97373513Y-70830426D01*
X97300000Y-70823186D01*
X96718750Y-70825000D01*
X96625000Y-70918750D01*
X96375000Y-70918750D01*
X96281250Y-70825000D01*
X95700000Y-70823186D01*
X95626487Y-70830426D01*
X95555800Y-70851869D01*
X95490653Y-70886691D01*
X95433552Y-70933552D01*
X95386691Y-70990653D01*
X95351869Y-71055800D01*
X95330426Y-71126487D01*
X95323186Y-71200000D01*
X95125000Y-71200000D01*
X95125000Y-67625000D01*
X103875000Y-67625000D01*
X103875000Y-82375000D01*
D28*
G36*
X100157925Y-98587471D02*
G01*
X100176759Y-98603753D01*
X100198408Y-98616048D01*
X100222039Y-98623884D01*
X100250000Y-98627000D01*
X103873000Y-98627000D01*
X103873000Y-113373000D01*
X95127000Y-113373000D01*
X95127000Y-109924765D01*
X95925960Y-109924765D01*
X96020921Y-110081319D01*
X96241082Y-110154005D01*
X96471192Y-110182344D01*
X96702409Y-110165246D01*
X96925848Y-110103368D01*
X96979079Y-110081319D01*
X97074040Y-109924765D01*
X96500000Y-109350725D01*
X95925960Y-109924765D01*
X95127000Y-109924765D01*
X95127000Y-108971192D01*
X95317656Y-108971192D01*
X95334754Y-109202409D01*
X95396632Y-109425848D01*
X95418681Y-109479079D01*
X95575235Y-109574040D01*
X96149275Y-109000000D01*
X96850725Y-109000000D01*
X97424765Y-109574040D01*
X97581319Y-109479079D01*
X97654005Y-109258918D01*
X97682344Y-109028808D01*
X97665425Y-108800000D01*
X100121176Y-108800000D01*
X100128455Y-108873905D01*
X100150012Y-108944970D01*
X100185019Y-109010463D01*
X100232131Y-109067869D01*
X100289537Y-109114981D01*
X100355030Y-109149988D01*
X100426095Y-109171545D01*
X100500000Y-109178824D01*
X101507750Y-109177000D01*
X101602000Y-109082750D01*
X101602000Y-107248000D01*
X102098000Y-107248000D01*
X102098000Y-109082750D01*
X102192250Y-109177000D01*
X103200000Y-109178824D01*
X103273905Y-109171545D01*
X103344970Y-109149988D01*
X103410463Y-109114981D01*
X103467869Y-109067869D01*
X103514981Y-109010463D01*
X103549988Y-108944970D01*
X103571545Y-108873905D01*
X103578824Y-108800000D01*
X103577000Y-107342250D01*
X103482750Y-107248000D01*
X102098000Y-107248000D01*
X101602000Y-107248000D01*
X100217250Y-107248000D01*
X100123000Y-107342250D01*
X100121176Y-108800000D01*
X97665425Y-108800000D01*
X97665246Y-108797591D01*
X97603368Y-108574152D01*
X97581319Y-108520921D01*
X97424765Y-108425960D01*
X96850725Y-109000000D01*
X96149275Y-109000000D01*
X95575235Y-108425960D01*
X95418681Y-108520921D01*
X95345995Y-108741082D01*
X95317656Y-108971192D01*
X95127000Y-108971192D01*
X95127000Y-108075235D01*
X95925960Y-108075235D01*
X96500000Y-108649275D01*
X97074040Y-108075235D01*
X96979079Y-107918681D01*
X96758918Y-107845995D01*
X96528808Y-107817656D01*
X96297591Y-107834754D01*
X96074152Y-107896632D01*
X96020921Y-107918681D01*
X95925960Y-108075235D01*
X95127000Y-108075235D01*
X95127000Y-105200000D01*
X100121176Y-105200000D01*
X100123000Y-106657750D01*
X100217250Y-106752000D01*
X101602000Y-106752000D01*
X101602000Y-104917250D01*
X102098000Y-104917250D01*
X102098000Y-106752000D01*
X103482750Y-106752000D01*
X103577000Y-106657750D01*
X103578824Y-105200000D01*
X103571545Y-105126095D01*
X103549988Y-105055030D01*
X103514981Y-104989537D01*
X103467869Y-104932131D01*
X103410463Y-104885019D01*
X103344970Y-104850012D01*
X103273905Y-104828455D01*
X103200000Y-104821176D01*
X102192250Y-104823000D01*
X102098000Y-104917250D01*
X101602000Y-104917250D01*
X101507750Y-104823000D01*
X100500000Y-104821176D01*
X100426095Y-104828455D01*
X100355030Y-104850012D01*
X100289537Y-104885019D01*
X100232131Y-104932131D01*
X100185019Y-104989537D01*
X100150012Y-105055030D01*
X100128455Y-105126095D01*
X100121176Y-105200000D01*
X95127000Y-105200000D01*
X95127000Y-105000000D01*
X95124560Y-104975224D01*
X95117333Y-104951399D01*
X95105597Y-104929443D01*
X95089803Y-104910197D01*
X92627000Y-102447394D01*
X92627000Y-102371984D01*
X94018741Y-102371984D01*
X94135523Y-102546385D01*
X94386009Y-102636846D01*
X94649331Y-102676702D01*
X94915368Y-102664421D01*
X95173897Y-102600474D01*
X95304477Y-102546385D01*
X95421259Y-102371984D01*
X94720000Y-101670725D01*
X94018741Y-102371984D01*
X92627000Y-102371984D01*
X92627000Y-101249331D01*
X93363298Y-101249331D01*
X93375579Y-101515368D01*
X93439526Y-101773897D01*
X93493615Y-101904477D01*
X93668016Y-102021259D01*
X94369275Y-101320000D01*
X95070725Y-101320000D01*
X95771984Y-102021259D01*
X95946385Y-101904477D01*
X96036846Y-101653991D01*
X96076702Y-101390669D01*
X96064421Y-101124632D01*
X96000474Y-100866103D01*
X95946385Y-100735523D01*
X95874668Y-100687500D01*
X100246176Y-100687500D01*
X100253455Y-100761405D01*
X100275012Y-100832470D01*
X100310019Y-100897963D01*
X100357131Y-100955369D01*
X100414537Y-101002481D01*
X100480030Y-101037488D01*
X100551095Y-101059045D01*
X100625000Y-101066324D01*
X101157750Y-101064500D01*
X101252000Y-100970250D01*
X101252000Y-100223000D01*
X101748000Y-100223000D01*
X101748000Y-100970250D01*
X101842250Y-101064500D01*
X102375000Y-101066324D01*
X102448905Y-101059045D01*
X102519970Y-101037488D01*
X102585463Y-101002481D01*
X102642869Y-100955369D01*
X102689981Y-100897963D01*
X102724988Y-100832470D01*
X102746545Y-100761405D01*
X102753824Y-100687500D01*
X102752000Y-100317250D01*
X102657750Y-100223000D01*
X101748000Y-100223000D01*
X101252000Y-100223000D01*
X100342250Y-100223000D01*
X100248000Y-100317250D01*
X100246176Y-100687500D01*
X95874668Y-100687500D01*
X95771984Y-100618741D01*
X95070725Y-101320000D01*
X94369275Y-101320000D01*
X93668016Y-100618741D01*
X93493615Y-100735523D01*
X93403154Y-100986009D01*
X93363298Y-101249331D01*
X92627000Y-101249331D01*
X92627000Y-100268016D01*
X94018741Y-100268016D01*
X94720000Y-100969275D01*
X95421259Y-100268016D01*
X95304477Y-100093615D01*
X95053991Y-100003154D01*
X94790669Y-99963298D01*
X94524632Y-99975579D01*
X94266103Y-100039526D01*
X94135523Y-100093615D01*
X94018741Y-100268016D01*
X92627000Y-100268016D01*
X92627000Y-99262500D01*
X100246176Y-99262500D01*
X100248000Y-99632750D01*
X100342250Y-99727000D01*
X101252000Y-99727000D01*
X101252000Y-98979750D01*
X101748000Y-98979750D01*
X101748000Y-99727000D01*
X102657750Y-99727000D01*
X102752000Y-99632750D01*
X102753824Y-99262500D01*
X102746545Y-99188595D01*
X102724988Y-99117530D01*
X102689981Y-99052037D01*
X102642869Y-98994631D01*
X102585463Y-98947519D01*
X102519970Y-98912512D01*
X102448905Y-98890955D01*
X102375000Y-98883676D01*
X101842250Y-98885500D01*
X101748000Y-98979750D01*
X101252000Y-98979750D01*
X101157750Y-98885500D01*
X100625000Y-98883676D01*
X100551095Y-98890955D01*
X100480030Y-98912512D01*
X100414537Y-98947519D01*
X100357131Y-98994631D01*
X100310019Y-99052037D01*
X100275012Y-99117530D01*
X100253455Y-99188595D01*
X100246176Y-99262500D01*
X92627000Y-99262500D01*
X92627000Y-96127000D01*
X97820478Y-96127000D01*
X100157925Y-98587471D01*
X100157925Y-98587471D01*
G37*
X100157925Y-98587471D02*
X100176759Y-98603753D01*
X100198408Y-98616048D01*
X100222039Y-98623884D01*
X100250000Y-98627000D01*
X103873000Y-98627000D01*
X103873000Y-113373000D01*
X95127000Y-113373000D01*
X95127000Y-109924765D01*
X95925960Y-109924765D01*
X96020921Y-110081319D01*
X96241082Y-110154005D01*
X96471192Y-110182344D01*
X96702409Y-110165246D01*
X96925848Y-110103368D01*
X96979079Y-110081319D01*
X97074040Y-109924765D01*
X96500000Y-109350725D01*
X95925960Y-109924765D01*
X95127000Y-109924765D01*
X95127000Y-108971192D01*
X95317656Y-108971192D01*
X95334754Y-109202409D01*
X95396632Y-109425848D01*
X95418681Y-109479079D01*
X95575235Y-109574040D01*
X96149275Y-109000000D01*
X96850725Y-109000000D01*
X97424765Y-109574040D01*
X97581319Y-109479079D01*
X97654005Y-109258918D01*
X97682344Y-109028808D01*
X97665425Y-108800000D01*
X100121176Y-108800000D01*
X100128455Y-108873905D01*
X100150012Y-108944970D01*
X100185019Y-109010463D01*
X100232131Y-109067869D01*
X100289537Y-109114981D01*
X100355030Y-109149988D01*
X100426095Y-109171545D01*
X100500000Y-109178824D01*
X101507750Y-109177000D01*
X101602000Y-109082750D01*
X101602000Y-107248000D01*
X102098000Y-107248000D01*
X102098000Y-109082750D01*
X102192250Y-109177000D01*
X103200000Y-109178824D01*
X103273905Y-109171545D01*
X103344970Y-109149988D01*
X103410463Y-109114981D01*
X103467869Y-109067869D01*
X103514981Y-109010463D01*
X103549988Y-108944970D01*
X103571545Y-108873905D01*
X103578824Y-108800000D01*
X103577000Y-107342250D01*
X103482750Y-107248000D01*
X102098000Y-107248000D01*
X101602000Y-107248000D01*
X100217250Y-107248000D01*
X100123000Y-107342250D01*
X100121176Y-108800000D01*
X97665425Y-108800000D01*
X97665246Y-108797591D01*
X97603368Y-108574152D01*
X97581319Y-108520921D01*
X97424765Y-108425960D01*
X96850725Y-109000000D01*
X96149275Y-109000000D01*
X95575235Y-108425960D01*
X95418681Y-108520921D01*
X95345995Y-108741082D01*
X95317656Y-108971192D01*
X95127000Y-108971192D01*
X95127000Y-108075235D01*
X95925960Y-108075235D01*
X96500000Y-108649275D01*
X97074040Y-108075235D01*
X96979079Y-107918681D01*
X96758918Y-107845995D01*
X96528808Y-107817656D01*
X96297591Y-107834754D01*
X96074152Y-107896632D01*
X96020921Y-107918681D01*
X95925960Y-108075235D01*
X95127000Y-108075235D01*
X95127000Y-105200000D01*
X100121176Y-105200000D01*
X100123000Y-106657750D01*
X100217250Y-106752000D01*
X101602000Y-106752000D01*
X101602000Y-104917250D01*
X102098000Y-104917250D01*
X102098000Y-106752000D01*
X103482750Y-106752000D01*
X103577000Y-106657750D01*
X103578824Y-105200000D01*
X103571545Y-105126095D01*
X103549988Y-105055030D01*
X103514981Y-104989537D01*
X103467869Y-104932131D01*
X103410463Y-104885019D01*
X103344970Y-104850012D01*
X103273905Y-104828455D01*
X103200000Y-104821176D01*
X102192250Y-104823000D01*
X102098000Y-104917250D01*
X101602000Y-104917250D01*
X101507750Y-104823000D01*
X100500000Y-104821176D01*
X100426095Y-104828455D01*
X100355030Y-104850012D01*
X100289537Y-104885019D01*
X100232131Y-104932131D01*
X100185019Y-104989537D01*
X100150012Y-105055030D01*
X100128455Y-105126095D01*
X100121176Y-105200000D01*
X95127000Y-105200000D01*
X95127000Y-105000000D01*
X95124560Y-104975224D01*
X95117333Y-104951399D01*
X95105597Y-104929443D01*
X95089803Y-104910197D01*
X92627000Y-102447394D01*
X92627000Y-102371984D01*
X94018741Y-102371984D01*
X94135523Y-102546385D01*
X94386009Y-102636846D01*
X94649331Y-102676702D01*
X94915368Y-102664421D01*
X95173897Y-102600474D01*
X95304477Y-102546385D01*
X95421259Y-102371984D01*
X94720000Y-101670725D01*
X94018741Y-102371984D01*
X92627000Y-102371984D01*
X92627000Y-101249331D01*
X93363298Y-101249331D01*
X93375579Y-101515368D01*
X93439526Y-101773897D01*
X93493615Y-101904477D01*
X93668016Y-102021259D01*
X94369275Y-101320000D01*
X95070725Y-101320000D01*
X95771984Y-102021259D01*
X95946385Y-101904477D01*
X96036846Y-101653991D01*
X96076702Y-101390669D01*
X96064421Y-101124632D01*
X96000474Y-100866103D01*
X95946385Y-100735523D01*
X95874668Y-100687500D01*
X100246176Y-100687500D01*
X100253455Y-100761405D01*
X100275012Y-100832470D01*
X100310019Y-100897963D01*
X100357131Y-100955369D01*
X100414537Y-101002481D01*
X100480030Y-101037488D01*
X100551095Y-101059045D01*
X100625000Y-101066324D01*
X101157750Y-101064500D01*
X101252000Y-100970250D01*
X101252000Y-100223000D01*
X101748000Y-100223000D01*
X101748000Y-100970250D01*
X101842250Y-101064500D01*
X102375000Y-101066324D01*
X102448905Y-101059045D01*
X102519970Y-101037488D01*
X102585463Y-101002481D01*
X102642869Y-100955369D01*
X102689981Y-100897963D01*
X102724988Y-100832470D01*
X102746545Y-100761405D01*
X102753824Y-100687500D01*
X102752000Y-100317250D01*
X102657750Y-100223000D01*
X101748000Y-100223000D01*
X101252000Y-100223000D01*
X100342250Y-100223000D01*
X100248000Y-100317250D01*
X100246176Y-100687500D01*
X95874668Y-100687500D01*
X95771984Y-100618741D01*
X95070725Y-101320000D01*
X94369275Y-101320000D01*
X93668016Y-100618741D01*
X93493615Y-100735523D01*
X93403154Y-100986009D01*
X93363298Y-101249331D01*
X92627000Y-101249331D01*
X92627000Y-100268016D01*
X94018741Y-100268016D01*
X94720000Y-100969275D01*
X95421259Y-100268016D01*
X95304477Y-100093615D01*
X95053991Y-100003154D01*
X94790669Y-99963298D01*
X94524632Y-99975579D01*
X94266103Y-100039526D01*
X94135523Y-100093615D01*
X94018741Y-100268016D01*
X92627000Y-100268016D01*
X92627000Y-99262500D01*
X100246176Y-99262500D01*
X100248000Y-99632750D01*
X100342250Y-99727000D01*
X101252000Y-99727000D01*
X101252000Y-98979750D01*
X101748000Y-98979750D01*
X101748000Y-99727000D01*
X102657750Y-99727000D01*
X102752000Y-99632750D01*
X102753824Y-99262500D01*
X102746545Y-99188595D01*
X102724988Y-99117530D01*
X102689981Y-99052037D01*
X102642869Y-98994631D01*
X102585463Y-98947519D01*
X102519970Y-98912512D01*
X102448905Y-98890955D01*
X102375000Y-98883676D01*
X101842250Y-98885500D01*
X101748000Y-98979750D01*
X101252000Y-98979750D01*
X101157750Y-98885500D01*
X100625000Y-98883676D01*
X100551095Y-98890955D01*
X100480030Y-98912512D01*
X100414537Y-98947519D01*
X100357131Y-98994631D01*
X100310019Y-99052037D01*
X100275012Y-99117530D01*
X100253455Y-99188595D01*
X100246176Y-99262500D01*
X92627000Y-99262500D01*
X92627000Y-96127000D01*
X97820478Y-96127000D01*
X100157925Y-98587471D01*
G36*
X128873000Y-104873000D02*
G01*
X127501769Y-104873000D01*
X127494736Y-104801591D01*
X127466031Y-104706964D01*
X127419417Y-104619755D01*
X127356684Y-104543316D01*
X127280245Y-104480583D01*
X127193036Y-104433969D01*
X127098409Y-104405264D01*
X127000000Y-104395572D01*
X125950000Y-104395572D01*
X125877000Y-104402762D01*
X125877000Y-104226998D01*
X125782752Y-104226998D01*
X125877000Y-104132750D01*
X125878824Y-103950000D01*
X125871545Y-103876095D01*
X125849988Y-103805030D01*
X125814981Y-103739537D01*
X125767869Y-103682131D01*
X125710463Y-103635019D01*
X125644970Y-103600012D01*
X125573905Y-103578455D01*
X125500000Y-103571176D01*
X125342250Y-103573000D01*
X125248000Y-103667250D01*
X125248000Y-104227000D01*
X125268000Y-104227000D01*
X125268000Y-104723000D01*
X125248000Y-104723000D01*
X125248000Y-104743000D01*
X124752000Y-104743000D01*
X124752000Y-104723000D01*
X124732000Y-104723000D01*
X124732000Y-104227000D01*
X124752000Y-104227000D01*
X124752000Y-103667250D01*
X124657750Y-103573000D01*
X124500000Y-103571176D01*
X124426095Y-103578455D01*
X124355030Y-103600012D01*
X124289537Y-103635019D01*
X124232131Y-103682131D01*
X124185019Y-103739537D01*
X124150012Y-103805030D01*
X124128455Y-103876095D01*
X124121176Y-103950000D01*
X124123000Y-104132750D01*
X124217248Y-104226998D01*
X124123000Y-104226998D01*
X124123000Y-104402762D01*
X124050000Y-104395572D01*
X123000000Y-104395572D01*
X122901591Y-104405264D01*
X122806964Y-104433969D01*
X122719755Y-104480583D01*
X122643316Y-104543316D01*
X122580583Y-104619755D01*
X122533969Y-104706964D01*
X122505264Y-104801591D01*
X122498231Y-104873000D01*
X122000000Y-104873000D01*
X121975224Y-104875440D01*
X121951399Y-104882667D01*
X121929443Y-104894403D01*
X121910197Y-104910197D01*
X121894403Y-104929443D01*
X121882667Y-104951399D01*
X121875440Y-104975224D01*
X121873000Y-105000000D01*
X121873000Y-113373000D01*
X108127000Y-113373000D01*
X108127000Y-108800000D01*
X108421176Y-108800000D01*
X108428455Y-108873905D01*
X108450012Y-108944970D01*
X108485019Y-109010463D01*
X108532131Y-109067869D01*
X108589537Y-109114981D01*
X108655030Y-109149988D01*
X108726095Y-109171545D01*
X108800000Y-109178824D01*
X109807750Y-109177000D01*
X109902000Y-109082750D01*
X109902000Y-107248000D01*
X110398000Y-107248000D01*
X110398000Y-109082750D01*
X110492250Y-109177000D01*
X111500000Y-109178824D01*
X111573905Y-109171545D01*
X111644970Y-109149988D01*
X111710463Y-109114981D01*
X111767869Y-109067869D01*
X111814981Y-109010463D01*
X111849988Y-108944970D01*
X111871545Y-108873905D01*
X111878824Y-108800000D01*
X111877000Y-107342250D01*
X111782750Y-107248000D01*
X110398000Y-107248000D01*
X109902000Y-107248000D01*
X108517250Y-107248000D01*
X108423000Y-107342250D01*
X108421176Y-108800000D01*
X108127000Y-108800000D01*
X108127000Y-105200000D01*
X108421176Y-105200000D01*
X108423000Y-106657750D01*
X108517250Y-106752000D01*
X109902000Y-106752000D01*
X109902000Y-104917250D01*
X110398000Y-104917250D01*
X110398000Y-106752000D01*
X111782750Y-106752000D01*
X111877000Y-106657750D01*
X111878824Y-105200000D01*
X111871545Y-105126095D01*
X111849988Y-105055030D01*
X111814981Y-104989537D01*
X111767869Y-104932131D01*
X111710463Y-104885019D01*
X111644970Y-104850012D01*
X111573905Y-104828455D01*
X111500000Y-104821176D01*
X110492250Y-104823000D01*
X110398000Y-104917250D01*
X109902000Y-104917250D01*
X109807750Y-104823000D01*
X108800000Y-104821176D01*
X108726095Y-104828455D01*
X108655030Y-104850012D01*
X108589537Y-104885019D01*
X108532131Y-104932131D01*
X108485019Y-104989537D01*
X108450012Y-105055030D01*
X108428455Y-105126095D01*
X108421176Y-105200000D01*
X108127000Y-105200000D01*
X108127000Y-104411161D01*
X114598000Y-104411161D01*
X114598000Y-104588839D01*
X114632664Y-104763104D01*
X114700658Y-104927257D01*
X114799371Y-105074991D01*
X114925009Y-105200629D01*
X115072743Y-105299342D01*
X115236896Y-105367336D01*
X115411161Y-105402000D01*
X115588839Y-105402000D01*
X115763104Y-105367336D01*
X115927257Y-105299342D01*
X116074991Y-105200629D01*
X116200629Y-105074991D01*
X116250000Y-105001102D01*
X116299371Y-105074991D01*
X116425009Y-105200629D01*
X116572743Y-105299342D01*
X116736896Y-105367336D01*
X116911161Y-105402000D01*
X117088839Y-105402000D01*
X117263104Y-105367336D01*
X117427257Y-105299342D01*
X117574991Y-105200629D01*
X117700629Y-105074991D01*
X117799342Y-104927257D01*
X117867336Y-104763104D01*
X117902000Y-104588839D01*
X117902000Y-104411161D01*
X117867336Y-104236896D01*
X117839433Y-104169532D01*
X117913707Y-104147001D01*
X118044138Y-104077284D01*
X118158461Y-103983461D01*
X118252284Y-103869138D01*
X118322001Y-103738707D01*
X118364932Y-103597182D01*
X118379428Y-103450000D01*
X118379428Y-102525000D01*
X118364932Y-102377818D01*
X118322001Y-102236293D01*
X118252284Y-102105862D01*
X118158461Y-101991539D01*
X118044138Y-101897716D01*
X117913707Y-101827999D01*
X117772182Y-101785068D01*
X117625000Y-101770572D01*
X116375000Y-101770572D01*
X116227818Y-101785068D01*
X116086293Y-101827999D01*
X115955862Y-101897716D01*
X115841539Y-101991539D01*
X115747716Y-102105862D01*
X115677999Y-102236293D01*
X115635068Y-102377818D01*
X115620572Y-102525000D01*
X115620572Y-103315940D01*
X115320472Y-103616039D01*
X115236896Y-103632664D01*
X115072743Y-103700658D01*
X114925009Y-103799371D01*
X114799371Y-103925009D01*
X114700658Y-104072743D01*
X114632664Y-104236896D01*
X114598000Y-104411161D01*
X108127000Y-104411161D01*
X108127000Y-100725000D01*
X115746176Y-100725000D01*
X115753455Y-100798905D01*
X115775012Y-100869970D01*
X115810019Y-100935463D01*
X115857131Y-100992869D01*
X115914537Y-101039981D01*
X115980030Y-101074988D01*
X116051095Y-101096545D01*
X116125000Y-101103824D01*
X116657750Y-101102000D01*
X116752000Y-101007750D01*
X116752000Y-100260500D01*
X117248000Y-100260500D01*
X117248000Y-101007750D01*
X117342250Y-101102000D01*
X117875000Y-101103824D01*
X117948905Y-101096545D01*
X118019970Y-101074988D01*
X118085463Y-101039981D01*
X118142869Y-100992869D01*
X118189981Y-100935463D01*
X118224988Y-100869970D01*
X118246545Y-100798905D01*
X118253824Y-100725000D01*
X118252000Y-100354750D01*
X118157750Y-100260500D01*
X117248000Y-100260500D01*
X116752000Y-100260500D01*
X115842250Y-100260500D01*
X115748000Y-100354750D01*
X115746176Y-100725000D01*
X108127000Y-100725000D01*
X108127000Y-99500000D01*
X108124560Y-99475224D01*
X108117333Y-99451399D01*
X108105597Y-99429443D01*
X108089803Y-99410197D01*
X107979606Y-99300000D01*
X115746176Y-99300000D01*
X115748000Y-99670250D01*
X115842250Y-99764500D01*
X116752000Y-99764500D01*
X116752000Y-99017250D01*
X117248000Y-99017250D01*
X117248000Y-99764500D01*
X118157750Y-99764500D01*
X118252000Y-99670250D01*
X118253824Y-99300000D01*
X118246545Y-99226095D01*
X118224988Y-99155030D01*
X118189981Y-99089537D01*
X118142869Y-99032131D01*
X118085463Y-98985019D01*
X118019970Y-98950012D01*
X117948905Y-98928455D01*
X117875000Y-98921176D01*
X117342250Y-98923000D01*
X117248000Y-99017250D01*
X116752000Y-99017250D01*
X116657750Y-98923000D01*
X116125000Y-98921176D01*
X116051095Y-98928455D01*
X115980030Y-98950012D01*
X115914537Y-98985019D01*
X115857131Y-99032131D01*
X115810019Y-99089537D01*
X115775012Y-99155030D01*
X115753455Y-99226095D01*
X115746176Y-99300000D01*
X107979606Y-99300000D01*
X107127000Y-98447394D01*
X107127000Y-98424765D01*
X109425960Y-98424765D01*
X109520921Y-98581319D01*
X109741082Y-98654005D01*
X109971192Y-98682344D01*
X110202409Y-98665246D01*
X110425848Y-98603368D01*
X110479079Y-98581319D01*
X110574040Y-98424765D01*
X110349275Y-98200000D01*
X115746176Y-98200000D01*
X115753455Y-98273905D01*
X115775012Y-98344970D01*
X115810019Y-98410463D01*
X115857131Y-98467869D01*
X115914537Y-98514981D01*
X115980030Y-98549988D01*
X116051095Y-98571545D01*
X116125000Y-98578824D01*
X116657750Y-98577000D01*
X116752000Y-98482750D01*
X116752000Y-97735500D01*
X117248000Y-97735500D01*
X117248000Y-98482750D01*
X117342250Y-98577000D01*
X117875000Y-98578824D01*
X117948905Y-98571545D01*
X118019970Y-98549988D01*
X118085463Y-98514981D01*
X118142869Y-98467869D01*
X118189981Y-98410463D01*
X118224988Y-98344970D01*
X118246545Y-98273905D01*
X118253824Y-98200000D01*
X118252000Y-97829750D01*
X118157750Y-97735500D01*
X117248000Y-97735500D01*
X116752000Y-97735500D01*
X115842250Y-97735500D01*
X115748000Y-97829750D01*
X115746176Y-98200000D01*
X110349275Y-98200000D01*
X110000000Y-97850725D01*
X109425960Y-98424765D01*
X107127000Y-98424765D01*
X107127000Y-97471192D01*
X108817656Y-97471192D01*
X108834754Y-97702409D01*
X108896632Y-97925848D01*
X108918681Y-97979079D01*
X109075235Y-98074040D01*
X109649275Y-97500000D01*
X110350725Y-97500000D01*
X110924765Y-98074040D01*
X111081319Y-97979079D01*
X111154005Y-97758918D01*
X111170497Y-97625000D01*
X118921176Y-97625000D01*
X118928455Y-97698905D01*
X118950012Y-97769970D01*
X118985019Y-97835463D01*
X119032131Y-97892869D01*
X119089537Y-97939981D01*
X119155030Y-97974988D01*
X119226095Y-97996545D01*
X119300000Y-98003824D01*
X119657750Y-98002000D01*
X119752000Y-97907750D01*
X119752000Y-97298000D01*
X120248000Y-97298000D01*
X120248000Y-97907750D01*
X120342250Y-98002000D01*
X120700000Y-98003824D01*
X120738825Y-98000000D01*
X123121176Y-98000000D01*
X123128455Y-98073905D01*
X123150012Y-98144970D01*
X123185019Y-98210463D01*
X123232131Y-98267869D01*
X123289537Y-98314981D01*
X123355030Y-98349988D01*
X123426095Y-98371545D01*
X123500000Y-98378824D01*
X124657750Y-98377000D01*
X124752000Y-98282750D01*
X124752000Y-96748000D01*
X125248000Y-96748000D01*
X125248000Y-98282750D01*
X125342250Y-98377000D01*
X126500000Y-98378824D01*
X126573905Y-98371545D01*
X126644970Y-98349988D01*
X126710463Y-98314981D01*
X126767869Y-98267869D01*
X126814981Y-98210463D01*
X126849988Y-98144970D01*
X126871545Y-98073905D01*
X126878824Y-98000000D01*
X126877000Y-96842250D01*
X126782750Y-96748000D01*
X125248000Y-96748000D01*
X124752000Y-96748000D01*
X123217250Y-96748000D01*
X123123000Y-96842250D01*
X123121176Y-98000000D01*
X120738825Y-98000000D01*
X120773905Y-97996545D01*
X120844970Y-97974988D01*
X120910463Y-97939981D01*
X120967869Y-97892869D01*
X121014981Y-97835463D01*
X121049988Y-97769970D01*
X121071545Y-97698905D01*
X121078824Y-97625000D01*
X121077000Y-97392250D01*
X120982750Y-97298000D01*
X120248000Y-97298000D01*
X119752000Y-97298000D01*
X119017250Y-97298000D01*
X118923000Y-97392250D01*
X118921176Y-97625000D01*
X111170497Y-97625000D01*
X111182344Y-97528808D01*
X111165246Y-97297591D01*
X111103368Y-97074152D01*
X111081319Y-97020921D01*
X110924765Y-96925960D01*
X110350725Y-97500000D01*
X109649275Y-97500000D01*
X109075235Y-96925960D01*
X108918681Y-97020921D01*
X108845995Y-97241082D01*
X108817656Y-97471192D01*
X107127000Y-97471192D01*
X107127000Y-96575235D01*
X109425960Y-96575235D01*
X110000000Y-97149275D01*
X110374275Y-96775000D01*
X115746176Y-96775000D01*
X115748000Y-97145250D01*
X115842250Y-97239500D01*
X116752000Y-97239500D01*
X116752000Y-96492250D01*
X117248000Y-96492250D01*
X117248000Y-97239500D01*
X118157750Y-97239500D01*
X118252000Y-97145250D01*
X118253824Y-96775000D01*
X118246545Y-96701095D01*
X118224988Y-96630030D01*
X118189981Y-96564537D01*
X118142869Y-96507131D01*
X118085463Y-96460019D01*
X118019970Y-96425012D01*
X117948905Y-96403455D01*
X117875000Y-96396176D01*
X117342250Y-96398000D01*
X117248000Y-96492250D01*
X116752000Y-96492250D01*
X116657750Y-96398000D01*
X116125000Y-96396176D01*
X116051095Y-96403455D01*
X115980030Y-96425012D01*
X115914537Y-96460019D01*
X115857131Y-96507131D01*
X115810019Y-96564537D01*
X115775012Y-96630030D01*
X115753455Y-96701095D01*
X115746176Y-96775000D01*
X110374275Y-96775000D01*
X110574040Y-96575235D01*
X110479079Y-96418681D01*
X110258918Y-96345995D01*
X110028808Y-96317656D01*
X109797591Y-96334754D01*
X109574152Y-96396632D01*
X109520921Y-96418681D01*
X109425960Y-96575235D01*
X107127000Y-96575235D01*
X107127000Y-96552606D01*
X107552606Y-96127000D01*
X119151311Y-96127000D01*
X119089537Y-96160019D01*
X119032131Y-96207131D01*
X118985019Y-96264537D01*
X118950012Y-96330030D01*
X118928455Y-96401095D01*
X118921176Y-96475000D01*
X118923000Y-96707750D01*
X119017250Y-96802000D01*
X119752000Y-96802000D01*
X119752000Y-96782000D01*
X120248000Y-96782000D01*
X120248000Y-96802000D01*
X120982750Y-96802000D01*
X121077000Y-96707750D01*
X121078824Y-96475000D01*
X121071545Y-96401095D01*
X121049988Y-96330030D01*
X121014981Y-96264537D01*
X120967869Y-96207131D01*
X120910463Y-96160019D01*
X120844970Y-96125012D01*
X120773905Y-96103455D01*
X120700000Y-96096176D01*
X120342250Y-96098000D01*
X120248002Y-96192248D01*
X120248002Y-96098000D01*
X120079814Y-96098000D01*
X120089803Y-96089803D01*
X120100178Y-96079428D01*
X120450001Y-96079428D01*
X120597182Y-96064932D01*
X120738708Y-96022001D01*
X120869138Y-95952284D01*
X120983461Y-95858461D01*
X121077284Y-95744138D01*
X121147001Y-95613708D01*
X121189932Y-95472182D01*
X121204428Y-95325001D01*
X121204428Y-95000000D01*
X123121176Y-95000000D01*
X123123000Y-96157750D01*
X123217250Y-96252000D01*
X124752000Y-96252000D01*
X124752000Y-94717250D01*
X125248000Y-94717250D01*
X125248000Y-96252000D01*
X126782750Y-96252000D01*
X126877000Y-96157750D01*
X126878824Y-95000000D01*
X126871545Y-94926095D01*
X126849988Y-94855030D01*
X126814981Y-94789537D01*
X126767869Y-94732131D01*
X126710463Y-94685019D01*
X126644970Y-94650012D01*
X126573905Y-94628455D01*
X126500000Y-94621176D01*
X125342250Y-94623000D01*
X125248000Y-94717250D01*
X124752000Y-94717250D01*
X124657750Y-94623000D01*
X123500000Y-94621176D01*
X123426095Y-94628455D01*
X123355030Y-94650012D01*
X123289537Y-94685019D01*
X123232131Y-94732131D01*
X123185019Y-94789537D01*
X123150012Y-94855030D01*
X123128455Y-94926095D01*
X123121176Y-95000000D01*
X121204428Y-95000000D01*
X121204428Y-94975178D01*
X122052606Y-94127000D01*
X128873000Y-94127000D01*
X128873000Y-104873000D01*
X128873000Y-104873000D01*
G37*
X128873000Y-104873000D02*
X127501769Y-104873000D01*
X127494736Y-104801591D01*
X127466031Y-104706964D01*
X127419417Y-104619755D01*
X127356684Y-104543316D01*
X127280245Y-104480583D01*
X127193036Y-104433969D01*
X127098409Y-104405264D01*
X127000000Y-104395572D01*
X125950000Y-104395572D01*
X125877000Y-104402762D01*
X125877000Y-104226998D01*
X125782752Y-104226998D01*
X125877000Y-104132750D01*
X125878824Y-103950000D01*
X125871545Y-103876095D01*
X125849988Y-103805030D01*
X125814981Y-103739537D01*
X125767869Y-103682131D01*
X125710463Y-103635019D01*
X125644970Y-103600012D01*
X125573905Y-103578455D01*
X125500000Y-103571176D01*
X125342250Y-103573000D01*
X125248000Y-103667250D01*
X125248000Y-104227000D01*
X125268000Y-104227000D01*
X125268000Y-104723000D01*
X125248000Y-104723000D01*
X125248000Y-104743000D01*
X124752000Y-104743000D01*
X124752000Y-104723000D01*
X124732000Y-104723000D01*
X124732000Y-104227000D01*
X124752000Y-104227000D01*
X124752000Y-103667250D01*
X124657750Y-103573000D01*
X124500000Y-103571176D01*
X124426095Y-103578455D01*
X124355030Y-103600012D01*
X124289537Y-103635019D01*
X124232131Y-103682131D01*
X124185019Y-103739537D01*
X124150012Y-103805030D01*
X124128455Y-103876095D01*
X124121176Y-103950000D01*
X124123000Y-104132750D01*
X124217248Y-104226998D01*
X124123000Y-104226998D01*
X124123000Y-104402762D01*
X124050000Y-104395572D01*
X123000000Y-104395572D01*
X122901591Y-104405264D01*
X122806964Y-104433969D01*
X122719755Y-104480583D01*
X122643316Y-104543316D01*
X122580583Y-104619755D01*
X122533969Y-104706964D01*
X122505264Y-104801591D01*
X122498231Y-104873000D01*
X122000000Y-104873000D01*
X121975224Y-104875440D01*
X121951399Y-104882667D01*
X121929443Y-104894403D01*
X121910197Y-104910197D01*
X121894403Y-104929443D01*
X121882667Y-104951399D01*
X121875440Y-104975224D01*
X121873000Y-105000000D01*
X121873000Y-113373000D01*
X108127000Y-113373000D01*
X108127000Y-108800000D01*
X108421176Y-108800000D01*
X108428455Y-108873905D01*
X108450012Y-108944970D01*
X108485019Y-109010463D01*
X108532131Y-109067869D01*
X108589537Y-109114981D01*
X108655030Y-109149988D01*
X108726095Y-109171545D01*
X108800000Y-109178824D01*
X109807750Y-109177000D01*
X109902000Y-109082750D01*
X109902000Y-107248000D01*
X110398000Y-107248000D01*
X110398000Y-109082750D01*
X110492250Y-109177000D01*
X111500000Y-109178824D01*
X111573905Y-109171545D01*
X111644970Y-109149988D01*
X111710463Y-109114981D01*
X111767869Y-109067869D01*
X111814981Y-109010463D01*
X111849988Y-108944970D01*
X111871545Y-108873905D01*
X111878824Y-108800000D01*
X111877000Y-107342250D01*
X111782750Y-107248000D01*
X110398000Y-107248000D01*
X109902000Y-107248000D01*
X108517250Y-107248000D01*
X108423000Y-107342250D01*
X108421176Y-108800000D01*
X108127000Y-108800000D01*
X108127000Y-105200000D01*
X108421176Y-105200000D01*
X108423000Y-106657750D01*
X108517250Y-106752000D01*
X109902000Y-106752000D01*
X109902000Y-104917250D01*
X110398000Y-104917250D01*
X110398000Y-106752000D01*
X111782750Y-106752000D01*
X111877000Y-106657750D01*
X111878824Y-105200000D01*
X111871545Y-105126095D01*
X111849988Y-105055030D01*
X111814981Y-104989537D01*
X111767869Y-104932131D01*
X111710463Y-104885019D01*
X111644970Y-104850012D01*
X111573905Y-104828455D01*
X111500000Y-104821176D01*
X110492250Y-104823000D01*
X110398000Y-104917250D01*
X109902000Y-104917250D01*
X109807750Y-104823000D01*
X108800000Y-104821176D01*
X108726095Y-104828455D01*
X108655030Y-104850012D01*
X108589537Y-104885019D01*
X108532131Y-104932131D01*
X108485019Y-104989537D01*
X108450012Y-105055030D01*
X108428455Y-105126095D01*
X108421176Y-105200000D01*
X108127000Y-105200000D01*
X108127000Y-104411161D01*
X114598000Y-104411161D01*
X114598000Y-104588839D01*
X114632664Y-104763104D01*
X114700658Y-104927257D01*
X114799371Y-105074991D01*
X114925009Y-105200629D01*
X115072743Y-105299342D01*
X115236896Y-105367336D01*
X115411161Y-105402000D01*
X115588839Y-105402000D01*
X115763104Y-105367336D01*
X115927257Y-105299342D01*
X116074991Y-105200629D01*
X116200629Y-105074991D01*
X116250000Y-105001102D01*
X116299371Y-105074991D01*
X116425009Y-105200629D01*
X116572743Y-105299342D01*
X116736896Y-105367336D01*
X116911161Y-105402000D01*
X117088839Y-105402000D01*
X117263104Y-105367336D01*
X117427257Y-105299342D01*
X117574991Y-105200629D01*
X117700629Y-105074991D01*
X117799342Y-104927257D01*
X117867336Y-104763104D01*
X117902000Y-104588839D01*
X117902000Y-104411161D01*
X117867336Y-104236896D01*
X117839433Y-104169532D01*
X117913707Y-104147001D01*
X118044138Y-104077284D01*
X118158461Y-103983461D01*
X118252284Y-103869138D01*
X118322001Y-103738707D01*
X118364932Y-103597182D01*
X118379428Y-103450000D01*
X118379428Y-102525000D01*
X118364932Y-102377818D01*
X118322001Y-102236293D01*
X118252284Y-102105862D01*
X118158461Y-101991539D01*
X118044138Y-101897716D01*
X117913707Y-101827999D01*
X117772182Y-101785068D01*
X117625000Y-101770572D01*
X116375000Y-101770572D01*
X116227818Y-101785068D01*
X116086293Y-101827999D01*
X115955862Y-101897716D01*
X115841539Y-101991539D01*
X115747716Y-102105862D01*
X115677999Y-102236293D01*
X115635068Y-102377818D01*
X115620572Y-102525000D01*
X115620572Y-103315940D01*
X115320472Y-103616039D01*
X115236896Y-103632664D01*
X115072743Y-103700658D01*
X114925009Y-103799371D01*
X114799371Y-103925009D01*
X114700658Y-104072743D01*
X114632664Y-104236896D01*
X114598000Y-104411161D01*
X108127000Y-104411161D01*
X108127000Y-100725000D01*
X115746176Y-100725000D01*
X115753455Y-100798905D01*
X115775012Y-100869970D01*
X115810019Y-100935463D01*
X115857131Y-100992869D01*
X115914537Y-101039981D01*
X115980030Y-101074988D01*
X116051095Y-101096545D01*
X116125000Y-101103824D01*
X116657750Y-101102000D01*
X116752000Y-101007750D01*
X116752000Y-100260500D01*
X117248000Y-100260500D01*
X117248000Y-101007750D01*
X117342250Y-101102000D01*
X117875000Y-101103824D01*
X117948905Y-101096545D01*
X118019970Y-101074988D01*
X118085463Y-101039981D01*
X118142869Y-100992869D01*
X118189981Y-100935463D01*
X118224988Y-100869970D01*
X118246545Y-100798905D01*
X118253824Y-100725000D01*
X118252000Y-100354750D01*
X118157750Y-100260500D01*
X117248000Y-100260500D01*
X116752000Y-100260500D01*
X115842250Y-100260500D01*
X115748000Y-100354750D01*
X115746176Y-100725000D01*
X108127000Y-100725000D01*
X108127000Y-99500000D01*
X108124560Y-99475224D01*
X108117333Y-99451399D01*
X108105597Y-99429443D01*
X108089803Y-99410197D01*
X107979606Y-99300000D01*
X115746176Y-99300000D01*
X115748000Y-99670250D01*
X115842250Y-99764500D01*
X116752000Y-99764500D01*
X116752000Y-99017250D01*
X117248000Y-99017250D01*
X117248000Y-99764500D01*
X118157750Y-99764500D01*
X118252000Y-99670250D01*
X118253824Y-99300000D01*
X118246545Y-99226095D01*
X118224988Y-99155030D01*
X118189981Y-99089537D01*
X118142869Y-99032131D01*
X118085463Y-98985019D01*
X118019970Y-98950012D01*
X117948905Y-98928455D01*
X117875000Y-98921176D01*
X117342250Y-98923000D01*
X117248000Y-99017250D01*
X116752000Y-99017250D01*
X116657750Y-98923000D01*
X116125000Y-98921176D01*
X116051095Y-98928455D01*
X115980030Y-98950012D01*
X115914537Y-98985019D01*
X115857131Y-99032131D01*
X115810019Y-99089537D01*
X115775012Y-99155030D01*
X115753455Y-99226095D01*
X115746176Y-99300000D01*
X107979606Y-99300000D01*
X107127000Y-98447394D01*
X107127000Y-98424765D01*
X109425960Y-98424765D01*
X109520921Y-98581319D01*
X109741082Y-98654005D01*
X109971192Y-98682344D01*
X110202409Y-98665246D01*
X110425848Y-98603368D01*
X110479079Y-98581319D01*
X110574040Y-98424765D01*
X110349275Y-98200000D01*
X115746176Y-98200000D01*
X115753455Y-98273905D01*
X115775012Y-98344970D01*
X115810019Y-98410463D01*
X115857131Y-98467869D01*
X115914537Y-98514981D01*
X115980030Y-98549988D01*
X116051095Y-98571545D01*
X116125000Y-98578824D01*
X116657750Y-98577000D01*
X116752000Y-98482750D01*
X116752000Y-97735500D01*
X117248000Y-97735500D01*
X117248000Y-98482750D01*
X117342250Y-98577000D01*
X117875000Y-98578824D01*
X117948905Y-98571545D01*
X118019970Y-98549988D01*
X118085463Y-98514981D01*
X118142869Y-98467869D01*
X118189981Y-98410463D01*
X118224988Y-98344970D01*
X118246545Y-98273905D01*
X118253824Y-98200000D01*
X118252000Y-97829750D01*
X118157750Y-97735500D01*
X117248000Y-97735500D01*
X116752000Y-97735500D01*
X115842250Y-97735500D01*
X115748000Y-97829750D01*
X115746176Y-98200000D01*
X110349275Y-98200000D01*
X110000000Y-97850725D01*
X109425960Y-98424765D01*
X107127000Y-98424765D01*
X107127000Y-97471192D01*
X108817656Y-97471192D01*
X108834754Y-97702409D01*
X108896632Y-97925848D01*
X108918681Y-97979079D01*
X109075235Y-98074040D01*
X109649275Y-97500000D01*
X110350725Y-97500000D01*
X110924765Y-98074040D01*
X111081319Y-97979079D01*
X111154005Y-97758918D01*
X111170497Y-97625000D01*
X118921176Y-97625000D01*
X118928455Y-97698905D01*
X118950012Y-97769970D01*
X118985019Y-97835463D01*
X119032131Y-97892869D01*
X119089537Y-97939981D01*
X119155030Y-97974988D01*
X119226095Y-97996545D01*
X119300000Y-98003824D01*
X119657750Y-98002000D01*
X119752000Y-97907750D01*
X119752000Y-97298000D01*
X120248000Y-97298000D01*
X120248000Y-97907750D01*
X120342250Y-98002000D01*
X120700000Y-98003824D01*
X120738825Y-98000000D01*
X123121176Y-98000000D01*
X123128455Y-98073905D01*
X123150012Y-98144970D01*
X123185019Y-98210463D01*
X123232131Y-98267869D01*
X123289537Y-98314981D01*
X123355030Y-98349988D01*
X123426095Y-98371545D01*
X123500000Y-98378824D01*
X124657750Y-98377000D01*
X124752000Y-98282750D01*
X124752000Y-96748000D01*
X125248000Y-96748000D01*
X125248000Y-98282750D01*
X125342250Y-98377000D01*
X126500000Y-98378824D01*
X126573905Y-98371545D01*
X126644970Y-98349988D01*
X126710463Y-98314981D01*
X126767869Y-98267869D01*
X126814981Y-98210463D01*
X126849988Y-98144970D01*
X126871545Y-98073905D01*
X126878824Y-98000000D01*
X126877000Y-96842250D01*
X126782750Y-96748000D01*
X125248000Y-96748000D01*
X124752000Y-96748000D01*
X123217250Y-96748000D01*
X123123000Y-96842250D01*
X123121176Y-98000000D01*
X120738825Y-98000000D01*
X120773905Y-97996545D01*
X120844970Y-97974988D01*
X120910463Y-97939981D01*
X120967869Y-97892869D01*
X121014981Y-97835463D01*
X121049988Y-97769970D01*
X121071545Y-97698905D01*
X121078824Y-97625000D01*
X121077000Y-97392250D01*
X120982750Y-97298000D01*
X120248000Y-97298000D01*
X119752000Y-97298000D01*
X119017250Y-97298000D01*
X118923000Y-97392250D01*
X118921176Y-97625000D01*
X111170497Y-97625000D01*
X111182344Y-97528808D01*
X111165246Y-97297591D01*
X111103368Y-97074152D01*
X111081319Y-97020921D01*
X110924765Y-96925960D01*
X110350725Y-97500000D01*
X109649275Y-97500000D01*
X109075235Y-96925960D01*
X108918681Y-97020921D01*
X108845995Y-97241082D01*
X108817656Y-97471192D01*
X107127000Y-97471192D01*
X107127000Y-96575235D01*
X109425960Y-96575235D01*
X110000000Y-97149275D01*
X110374275Y-96775000D01*
X115746176Y-96775000D01*
X115748000Y-97145250D01*
X115842250Y-97239500D01*
X116752000Y-97239500D01*
X116752000Y-96492250D01*
X117248000Y-96492250D01*
X117248000Y-97239500D01*
X118157750Y-97239500D01*
X118252000Y-97145250D01*
X118253824Y-96775000D01*
X118246545Y-96701095D01*
X118224988Y-96630030D01*
X118189981Y-96564537D01*
X118142869Y-96507131D01*
X118085463Y-96460019D01*
X118019970Y-96425012D01*
X117948905Y-96403455D01*
X117875000Y-96396176D01*
X117342250Y-96398000D01*
X117248000Y-96492250D01*
X116752000Y-96492250D01*
X116657750Y-96398000D01*
X116125000Y-96396176D01*
X116051095Y-96403455D01*
X115980030Y-96425012D01*
X115914537Y-96460019D01*
X115857131Y-96507131D01*
X115810019Y-96564537D01*
X115775012Y-96630030D01*
X115753455Y-96701095D01*
X115746176Y-96775000D01*
X110374275Y-96775000D01*
X110574040Y-96575235D01*
X110479079Y-96418681D01*
X110258918Y-96345995D01*
X110028808Y-96317656D01*
X109797591Y-96334754D01*
X109574152Y-96396632D01*
X109520921Y-96418681D01*
X109425960Y-96575235D01*
X107127000Y-96575235D01*
X107127000Y-96552606D01*
X107552606Y-96127000D01*
X119151311Y-96127000D01*
X119089537Y-96160019D01*
X119032131Y-96207131D01*
X118985019Y-96264537D01*
X118950012Y-96330030D01*
X118928455Y-96401095D01*
X118921176Y-96475000D01*
X118923000Y-96707750D01*
X119017250Y-96802000D01*
X119752000Y-96802000D01*
X119752000Y-96782000D01*
X120248000Y-96782000D01*
X120248000Y-96802000D01*
X120982750Y-96802000D01*
X121077000Y-96707750D01*
X121078824Y-96475000D01*
X121071545Y-96401095D01*
X121049988Y-96330030D01*
X121014981Y-96264537D01*
X120967869Y-96207131D01*
X120910463Y-96160019D01*
X120844970Y-96125012D01*
X120773905Y-96103455D01*
X120700000Y-96096176D01*
X120342250Y-96098000D01*
X120248002Y-96192248D01*
X120248002Y-96098000D01*
X120079814Y-96098000D01*
X120089803Y-96089803D01*
X120100178Y-96079428D01*
X120450001Y-96079428D01*
X120597182Y-96064932D01*
X120738708Y-96022001D01*
X120869138Y-95952284D01*
X120983461Y-95858461D01*
X121077284Y-95744138D01*
X121147001Y-95613708D01*
X121189932Y-95472182D01*
X121204428Y-95325001D01*
X121204428Y-95000000D01*
X123121176Y-95000000D01*
X123123000Y-96157750D01*
X123217250Y-96252000D01*
X124752000Y-96252000D01*
X124752000Y-94717250D01*
X125248000Y-94717250D01*
X125248000Y-96252000D01*
X126782750Y-96252000D01*
X126877000Y-96157750D01*
X126878824Y-95000000D01*
X126871545Y-94926095D01*
X126849988Y-94855030D01*
X126814981Y-94789537D01*
X126767869Y-94732131D01*
X126710463Y-94685019D01*
X126644970Y-94650012D01*
X126573905Y-94628455D01*
X126500000Y-94621176D01*
X125342250Y-94623000D01*
X125248000Y-94717250D01*
X124752000Y-94717250D01*
X124657750Y-94623000D01*
X123500000Y-94621176D01*
X123426095Y-94628455D01*
X123355030Y-94650012D01*
X123289537Y-94685019D01*
X123232131Y-94732131D01*
X123185019Y-94789537D01*
X123150012Y-94855030D01*
X123128455Y-94926095D01*
X123121176Y-95000000D01*
X121204428Y-95000000D01*
X121204428Y-94975178D01*
X122052606Y-94127000D01*
X128873000Y-94127000D01*
X128873000Y-104873000D01*
G36*
X121873000Y-77500000D02*
G01*
X121875440Y-77524776D01*
X121882667Y-77548601D01*
X121894403Y-77570557D01*
X121910197Y-77589803D01*
X121929443Y-77605597D01*
X121951399Y-77617333D01*
X121975224Y-77624560D01*
X122000000Y-77627000D01*
X124123000Y-77627000D01*
X124123000Y-77773002D01*
X124217248Y-77773002D01*
X124123000Y-77867250D01*
X124121176Y-78050000D01*
X124128455Y-78123905D01*
X124150012Y-78194970D01*
X124185019Y-78260463D01*
X124232131Y-78317869D01*
X124289537Y-78364981D01*
X124355030Y-78399988D01*
X124426095Y-78421545D01*
X124500000Y-78428824D01*
X124657750Y-78427000D01*
X124752000Y-78332750D01*
X124752000Y-77773000D01*
X124732000Y-77773000D01*
X124732000Y-77627000D01*
X125268000Y-77627000D01*
X125268000Y-77773000D01*
X125248000Y-77773000D01*
X125248000Y-78332750D01*
X125342250Y-78427000D01*
X125500000Y-78428824D01*
X125573905Y-78421545D01*
X125644970Y-78399988D01*
X125710463Y-78364981D01*
X125767869Y-78317869D01*
X125814981Y-78260463D01*
X125849988Y-78194970D01*
X125871545Y-78123905D01*
X125878824Y-78050000D01*
X125877000Y-77867250D01*
X125782752Y-77773002D01*
X125877000Y-77773002D01*
X125877000Y-77627000D01*
X128873000Y-77627000D01*
X128873000Y-88373000D01*
X122052606Y-88373000D01*
X121449791Y-87770185D01*
X123920540Y-87770185D01*
X124101651Y-87998395D01*
X124442448Y-88141788D01*
X124804673Y-88215940D01*
X125174404Y-88218001D01*
X125537432Y-88147891D01*
X125879808Y-88008305D01*
X125898349Y-87998395D01*
X126079460Y-87770185D01*
X125000000Y-86690725D01*
X123920540Y-87770185D01*
X121449791Y-87770185D01*
X121204428Y-87524822D01*
X121204428Y-87199999D01*
X121189932Y-87052818D01*
X121147001Y-86911292D01*
X121077284Y-86780862D01*
X120983461Y-86666539D01*
X120869138Y-86572716D01*
X120760046Y-86514404D01*
X123121999Y-86514404D01*
X123192109Y-86877432D01*
X123331695Y-87219808D01*
X123341605Y-87238349D01*
X123569815Y-87419460D01*
X124649275Y-86340000D01*
X125350725Y-86340000D01*
X126430185Y-87419460D01*
X126658395Y-87238349D01*
X126801788Y-86897552D01*
X126875940Y-86535327D01*
X126878001Y-86165596D01*
X126807891Y-85802568D01*
X126668305Y-85460192D01*
X126658395Y-85441651D01*
X126430185Y-85260540D01*
X125350725Y-86340000D01*
X124649275Y-86340000D01*
X123569815Y-85260540D01*
X123341605Y-85441651D01*
X123198212Y-85782448D01*
X123124060Y-86144673D01*
X123121999Y-86514404D01*
X120760046Y-86514404D01*
X120738708Y-86502999D01*
X120597182Y-86460068D01*
X120450001Y-86445572D01*
X120125178Y-86445572D01*
X120106606Y-86427000D01*
X120248002Y-86427000D01*
X120248002Y-86332752D01*
X120342250Y-86427000D01*
X120700000Y-86428824D01*
X120773905Y-86421545D01*
X120844970Y-86399988D01*
X120910463Y-86364981D01*
X120967869Y-86317869D01*
X121014981Y-86260463D01*
X121049988Y-86194970D01*
X121071545Y-86123905D01*
X121078824Y-86050000D01*
X121077000Y-85817250D01*
X120982750Y-85723000D01*
X120248000Y-85723000D01*
X120248000Y-85743000D01*
X119752000Y-85743000D01*
X119752000Y-85723000D01*
X119017250Y-85723000D01*
X118923000Y-85817250D01*
X118921176Y-86050000D01*
X118928455Y-86123905D01*
X118950012Y-86194970D01*
X118985019Y-86260463D01*
X119032131Y-86317869D01*
X119089537Y-86364981D01*
X119104539Y-86373000D01*
X115000000Y-86373000D01*
X114998521Y-86373009D01*
X113999294Y-86384646D01*
X107553463Y-86384646D01*
X107127000Y-85948249D01*
X107127000Y-85800000D01*
X108821176Y-85800000D01*
X108828455Y-85873905D01*
X108850012Y-85944970D01*
X108885019Y-86010463D01*
X108932131Y-86067869D01*
X108989537Y-86114981D01*
X109055030Y-86149988D01*
X109126095Y-86171545D01*
X109200000Y-86178824D01*
X109657750Y-86177000D01*
X109752000Y-86082750D01*
X109752000Y-85248000D01*
X110248000Y-85248000D01*
X110248000Y-86082750D01*
X110342250Y-86177000D01*
X110800000Y-86178824D01*
X110873905Y-86171545D01*
X110944970Y-86149988D01*
X111010463Y-86114981D01*
X111067869Y-86067869D01*
X111114981Y-86010463D01*
X111149988Y-85944970D01*
X111171545Y-85873905D01*
X111178824Y-85800000D01*
X111178526Y-85725000D01*
X115746176Y-85725000D01*
X115753455Y-85798905D01*
X115775012Y-85869970D01*
X115810019Y-85935463D01*
X115857131Y-85992869D01*
X115914537Y-86039981D01*
X115980030Y-86074988D01*
X116051095Y-86096545D01*
X116125000Y-86103824D01*
X116657750Y-86102000D01*
X116752000Y-86007750D01*
X116752000Y-85260500D01*
X117248000Y-85260500D01*
X117248000Y-86007750D01*
X117342250Y-86102000D01*
X117875000Y-86103824D01*
X117948905Y-86096545D01*
X118019970Y-86074988D01*
X118085463Y-86039981D01*
X118142869Y-85992869D01*
X118189981Y-85935463D01*
X118224988Y-85869970D01*
X118246545Y-85798905D01*
X118253824Y-85725000D01*
X118252000Y-85354750D01*
X118157750Y-85260500D01*
X117248000Y-85260500D01*
X116752000Y-85260500D01*
X115842250Y-85260500D01*
X115748000Y-85354750D01*
X115746176Y-85725000D01*
X111178526Y-85725000D01*
X111177000Y-85342250D01*
X111082750Y-85248000D01*
X110248000Y-85248000D01*
X109752000Y-85248000D01*
X108917250Y-85248000D01*
X108823000Y-85342250D01*
X108821176Y-85800000D01*
X107127000Y-85800000D01*
X107127000Y-84900000D01*
X118921176Y-84900000D01*
X118923000Y-85132750D01*
X119017250Y-85227000D01*
X119752000Y-85227000D01*
X119752000Y-84617250D01*
X120248000Y-84617250D01*
X120248000Y-85227000D01*
X120982750Y-85227000D01*
X121077000Y-85132750D01*
X121078747Y-84909815D01*
X123920540Y-84909815D01*
X125000000Y-85989275D01*
X126079460Y-84909815D01*
X125898349Y-84681605D01*
X125557552Y-84538212D01*
X125195327Y-84464060D01*
X124825596Y-84461999D01*
X124462568Y-84532109D01*
X124120192Y-84671695D01*
X124101651Y-84681605D01*
X123920540Y-84909815D01*
X121078747Y-84909815D01*
X121078824Y-84900000D01*
X121071545Y-84826095D01*
X121049988Y-84755030D01*
X121014981Y-84689537D01*
X120967869Y-84632131D01*
X120910463Y-84585019D01*
X120844970Y-84550012D01*
X120773905Y-84528455D01*
X120700000Y-84521176D01*
X120342250Y-84523000D01*
X120248000Y-84617250D01*
X119752000Y-84617250D01*
X119657750Y-84523000D01*
X119300000Y-84521176D01*
X119226095Y-84528455D01*
X119155030Y-84550012D01*
X119089537Y-84585019D01*
X119032131Y-84632131D01*
X118985019Y-84689537D01*
X118950012Y-84755030D01*
X118928455Y-84826095D01*
X118921176Y-84900000D01*
X107127000Y-84900000D01*
X107127000Y-84200000D01*
X108821176Y-84200000D01*
X108823000Y-84657750D01*
X108917250Y-84752000D01*
X109752000Y-84752000D01*
X109752000Y-83917250D01*
X110248000Y-83917250D01*
X110248000Y-84752000D01*
X111082750Y-84752000D01*
X111177000Y-84657750D01*
X111178425Y-84300000D01*
X115746176Y-84300000D01*
X115748000Y-84670250D01*
X115842250Y-84764500D01*
X116752000Y-84764500D01*
X116752000Y-84017250D01*
X117248000Y-84017250D01*
X117248000Y-84764500D01*
X118157750Y-84764500D01*
X118252000Y-84670250D01*
X118253824Y-84300000D01*
X118246545Y-84226095D01*
X118224988Y-84155030D01*
X118189981Y-84089537D01*
X118142869Y-84032131D01*
X118085463Y-83985019D01*
X118019970Y-83950012D01*
X117948905Y-83928455D01*
X117875000Y-83921176D01*
X117342250Y-83923000D01*
X117248000Y-84017250D01*
X116752000Y-84017250D01*
X116657750Y-83923000D01*
X116125000Y-83921176D01*
X116051095Y-83928455D01*
X115980030Y-83950012D01*
X115914537Y-83985019D01*
X115857131Y-84032131D01*
X115810019Y-84089537D01*
X115775012Y-84155030D01*
X115753455Y-84226095D01*
X115746176Y-84300000D01*
X111178425Y-84300000D01*
X111178824Y-84200000D01*
X111171545Y-84126095D01*
X111149988Y-84055030D01*
X111114981Y-83989537D01*
X111067869Y-83932131D01*
X111010463Y-83885019D01*
X110944970Y-83850012D01*
X110873905Y-83828455D01*
X110800000Y-83821176D01*
X110342250Y-83823000D01*
X110248000Y-83917250D01*
X109752000Y-83917250D01*
X109657750Y-83823000D01*
X109200000Y-83821176D01*
X109126095Y-83828455D01*
X109055030Y-83850012D01*
X108989537Y-83885019D01*
X108932131Y-83932131D01*
X108885019Y-83989537D01*
X108850012Y-84055030D01*
X108828455Y-84126095D01*
X108821176Y-84200000D01*
X107127000Y-84200000D01*
X107127000Y-84052606D01*
X107979606Y-83200000D01*
X115746176Y-83200000D01*
X115753455Y-83273905D01*
X115775012Y-83344970D01*
X115810019Y-83410463D01*
X115857131Y-83467869D01*
X115914537Y-83514981D01*
X115980030Y-83549988D01*
X116051095Y-83571545D01*
X116125000Y-83578824D01*
X116657750Y-83577000D01*
X116752000Y-83482750D01*
X116752000Y-82735500D01*
X117248000Y-82735500D01*
X117248000Y-83482750D01*
X117342250Y-83577000D01*
X117875000Y-83578824D01*
X117948905Y-83571545D01*
X118019970Y-83549988D01*
X118085463Y-83514981D01*
X118142869Y-83467869D01*
X118189981Y-83410463D01*
X118224988Y-83344970D01*
X118246545Y-83273905D01*
X118253824Y-83200000D01*
X118252000Y-82829750D01*
X118157750Y-82735500D01*
X117248000Y-82735500D01*
X116752000Y-82735500D01*
X115842250Y-82735500D01*
X115748000Y-82829750D01*
X115746176Y-83200000D01*
X107979606Y-83200000D01*
X108089803Y-83089803D01*
X108105597Y-83070557D01*
X108117333Y-83048601D01*
X108124560Y-83024776D01*
X108127000Y-83000000D01*
X108127000Y-81775000D01*
X115746176Y-81775000D01*
X115748000Y-82145250D01*
X115842250Y-82239500D01*
X116752000Y-82239500D01*
X116752000Y-81492250D01*
X117248000Y-81492250D01*
X117248000Y-82239500D01*
X118157750Y-82239500D01*
X118252000Y-82145250D01*
X118253824Y-81775000D01*
X118246545Y-81701095D01*
X118224988Y-81630030D01*
X118189981Y-81564537D01*
X118142869Y-81507131D01*
X118085463Y-81460019D01*
X118019970Y-81425012D01*
X117948905Y-81403455D01*
X117875000Y-81396176D01*
X117342250Y-81398000D01*
X117248000Y-81492250D01*
X116752000Y-81492250D01*
X116657750Y-81398000D01*
X116125000Y-81396176D01*
X116051095Y-81403455D01*
X115980030Y-81425012D01*
X115914537Y-81460019D01*
X115857131Y-81507131D01*
X115810019Y-81564537D01*
X115775012Y-81630030D01*
X115753455Y-81701095D01*
X115746176Y-81775000D01*
X108127000Y-81775000D01*
X108127000Y-77911161D01*
X114598000Y-77911161D01*
X114598000Y-78088839D01*
X114632664Y-78263104D01*
X114700658Y-78427257D01*
X114799371Y-78574991D01*
X114925009Y-78700629D01*
X115072743Y-78799342D01*
X115236896Y-78867336D01*
X115320472Y-78883961D01*
X115620572Y-79184060D01*
X115620572Y-79975000D01*
X115635068Y-80122182D01*
X115677999Y-80263707D01*
X115747716Y-80394138D01*
X115841539Y-80508461D01*
X115955862Y-80602284D01*
X116086293Y-80672001D01*
X116227818Y-80714932D01*
X116375000Y-80729428D01*
X117625000Y-80729428D01*
X117772182Y-80714932D01*
X117913707Y-80672001D01*
X118044138Y-80602284D01*
X118158461Y-80508461D01*
X118252284Y-80394138D01*
X118322001Y-80263707D01*
X118364932Y-80122182D01*
X118379428Y-79975000D01*
X118379428Y-79050000D01*
X118364932Y-78902818D01*
X118322001Y-78761293D01*
X118252284Y-78630862D01*
X118158461Y-78516539D01*
X118044138Y-78422716D01*
X117913707Y-78352999D01*
X117839433Y-78330468D01*
X117867336Y-78263104D01*
X117902000Y-78088839D01*
X117902000Y-77911161D01*
X117867336Y-77736896D01*
X117799342Y-77572743D01*
X117700629Y-77425009D01*
X117574991Y-77299371D01*
X117427257Y-77200658D01*
X117263104Y-77132664D01*
X117088839Y-77098000D01*
X116911161Y-77098000D01*
X116736896Y-77132664D01*
X116572743Y-77200658D01*
X116425009Y-77299371D01*
X116299371Y-77425009D01*
X116250000Y-77498898D01*
X116200629Y-77425009D01*
X116074991Y-77299371D01*
X115927257Y-77200658D01*
X115763104Y-77132664D01*
X115588839Y-77098000D01*
X115411161Y-77098000D01*
X115236896Y-77132664D01*
X115072743Y-77200658D01*
X114925009Y-77299371D01*
X114799371Y-77425009D01*
X114700658Y-77572743D01*
X114632664Y-77736896D01*
X114598000Y-77911161D01*
X108127000Y-77911161D01*
X108127000Y-76300000D01*
X108421176Y-76300000D01*
X108428455Y-76373905D01*
X108450012Y-76444970D01*
X108485019Y-76510463D01*
X108532131Y-76567869D01*
X108589537Y-76614981D01*
X108655030Y-76649988D01*
X108726095Y-76671545D01*
X108800000Y-76678824D01*
X109807750Y-76677000D01*
X109902000Y-76582750D01*
X109902000Y-74748000D01*
X110398000Y-74748000D01*
X110398000Y-76582750D01*
X110492250Y-76677000D01*
X111500000Y-76678824D01*
X111573905Y-76671545D01*
X111644970Y-76649988D01*
X111710463Y-76614981D01*
X111767869Y-76567869D01*
X111814981Y-76510463D01*
X111849988Y-76444970D01*
X111871545Y-76373905D01*
X111878824Y-76300000D01*
X111877000Y-74842250D01*
X111782750Y-74748000D01*
X110398000Y-74748000D01*
X109902000Y-74748000D01*
X108517250Y-74748000D01*
X108423000Y-74842250D01*
X108421176Y-76300000D01*
X108127000Y-76300000D01*
X108127000Y-72700000D01*
X108421176Y-72700000D01*
X108423000Y-74157750D01*
X108517250Y-74252000D01*
X109902000Y-74252000D01*
X109902000Y-72417250D01*
X110398000Y-72417250D01*
X110398000Y-74252000D01*
X111782750Y-74252000D01*
X111877000Y-74157750D01*
X111878824Y-72700000D01*
X111871545Y-72626095D01*
X111849988Y-72555030D01*
X111814981Y-72489537D01*
X111767869Y-72432131D01*
X111710463Y-72385019D01*
X111644970Y-72350012D01*
X111573905Y-72328455D01*
X111500000Y-72321176D01*
X110492250Y-72323000D01*
X110398000Y-72417250D01*
X109902000Y-72417250D01*
X109807750Y-72323000D01*
X108800000Y-72321176D01*
X108726095Y-72328455D01*
X108655030Y-72350012D01*
X108589537Y-72385019D01*
X108532131Y-72432131D01*
X108485019Y-72489537D01*
X108450012Y-72555030D01*
X108428455Y-72626095D01*
X108421176Y-72700000D01*
X108127000Y-72700000D01*
X108127000Y-67627000D01*
X121873000Y-67627000D01*
X121873000Y-77500000D01*
X121873000Y-77500000D01*
G37*
X121873000Y-77500000D02*
X121875440Y-77524776D01*
X121882667Y-77548601D01*
X121894403Y-77570557D01*
X121910197Y-77589803D01*
X121929443Y-77605597D01*
X121951399Y-77617333D01*
X121975224Y-77624560D01*
X122000000Y-77627000D01*
X124123000Y-77627000D01*
X124123000Y-77773002D01*
X124217248Y-77773002D01*
X124123000Y-77867250D01*
X124121176Y-78050000D01*
X124128455Y-78123905D01*
X124150012Y-78194970D01*
X124185019Y-78260463D01*
X124232131Y-78317869D01*
X124289537Y-78364981D01*
X124355030Y-78399988D01*
X124426095Y-78421545D01*
X124500000Y-78428824D01*
X124657750Y-78427000D01*
X124752000Y-78332750D01*
X124752000Y-77773000D01*
X124732000Y-77773000D01*
X124732000Y-77627000D01*
X125268000Y-77627000D01*
X125268000Y-77773000D01*
X125248000Y-77773000D01*
X125248000Y-78332750D01*
X125342250Y-78427000D01*
X125500000Y-78428824D01*
X125573905Y-78421545D01*
X125644970Y-78399988D01*
X125710463Y-78364981D01*
X125767869Y-78317869D01*
X125814981Y-78260463D01*
X125849988Y-78194970D01*
X125871545Y-78123905D01*
X125878824Y-78050000D01*
X125877000Y-77867250D01*
X125782752Y-77773002D01*
X125877000Y-77773002D01*
X125877000Y-77627000D01*
X128873000Y-77627000D01*
X128873000Y-88373000D01*
X122052606Y-88373000D01*
X121449791Y-87770185D01*
X123920540Y-87770185D01*
X124101651Y-87998395D01*
X124442448Y-88141788D01*
X124804673Y-88215940D01*
X125174404Y-88218001D01*
X125537432Y-88147891D01*
X125879808Y-88008305D01*
X125898349Y-87998395D01*
X126079460Y-87770185D01*
X125000000Y-86690725D01*
X123920540Y-87770185D01*
X121449791Y-87770185D01*
X121204428Y-87524822D01*
X121204428Y-87199999D01*
X121189932Y-87052818D01*
X121147001Y-86911292D01*
X121077284Y-86780862D01*
X120983461Y-86666539D01*
X120869138Y-86572716D01*
X120760046Y-86514404D01*
X123121999Y-86514404D01*
X123192109Y-86877432D01*
X123331695Y-87219808D01*
X123341605Y-87238349D01*
X123569815Y-87419460D01*
X124649275Y-86340000D01*
X125350725Y-86340000D01*
X126430185Y-87419460D01*
X126658395Y-87238349D01*
X126801788Y-86897552D01*
X126875940Y-86535327D01*
X126878001Y-86165596D01*
X126807891Y-85802568D01*
X126668305Y-85460192D01*
X126658395Y-85441651D01*
X126430185Y-85260540D01*
X125350725Y-86340000D01*
X124649275Y-86340000D01*
X123569815Y-85260540D01*
X123341605Y-85441651D01*
X123198212Y-85782448D01*
X123124060Y-86144673D01*
X123121999Y-86514404D01*
X120760046Y-86514404D01*
X120738708Y-86502999D01*
X120597182Y-86460068D01*
X120450001Y-86445572D01*
X120125178Y-86445572D01*
X120106606Y-86427000D01*
X120248002Y-86427000D01*
X120248002Y-86332752D01*
X120342250Y-86427000D01*
X120700000Y-86428824D01*
X120773905Y-86421545D01*
X120844970Y-86399988D01*
X120910463Y-86364981D01*
X120967869Y-86317869D01*
X121014981Y-86260463D01*
X121049988Y-86194970D01*
X121071545Y-86123905D01*
X121078824Y-86050000D01*
X121077000Y-85817250D01*
X120982750Y-85723000D01*
X120248000Y-85723000D01*
X120248000Y-85743000D01*
X119752000Y-85743000D01*
X119752000Y-85723000D01*
X119017250Y-85723000D01*
X118923000Y-85817250D01*
X118921176Y-86050000D01*
X118928455Y-86123905D01*
X118950012Y-86194970D01*
X118985019Y-86260463D01*
X119032131Y-86317869D01*
X119089537Y-86364981D01*
X119104539Y-86373000D01*
X115000000Y-86373000D01*
X114998521Y-86373009D01*
X113999294Y-86384646D01*
X107553463Y-86384646D01*
X107127000Y-85948249D01*
X107127000Y-85800000D01*
X108821176Y-85800000D01*
X108828455Y-85873905D01*
X108850012Y-85944970D01*
X108885019Y-86010463D01*
X108932131Y-86067869D01*
X108989537Y-86114981D01*
X109055030Y-86149988D01*
X109126095Y-86171545D01*
X109200000Y-86178824D01*
X109657750Y-86177000D01*
X109752000Y-86082750D01*
X109752000Y-85248000D01*
X110248000Y-85248000D01*
X110248000Y-86082750D01*
X110342250Y-86177000D01*
X110800000Y-86178824D01*
X110873905Y-86171545D01*
X110944970Y-86149988D01*
X111010463Y-86114981D01*
X111067869Y-86067869D01*
X111114981Y-86010463D01*
X111149988Y-85944970D01*
X111171545Y-85873905D01*
X111178824Y-85800000D01*
X111178526Y-85725000D01*
X115746176Y-85725000D01*
X115753455Y-85798905D01*
X115775012Y-85869970D01*
X115810019Y-85935463D01*
X115857131Y-85992869D01*
X115914537Y-86039981D01*
X115980030Y-86074988D01*
X116051095Y-86096545D01*
X116125000Y-86103824D01*
X116657750Y-86102000D01*
X116752000Y-86007750D01*
X116752000Y-85260500D01*
X117248000Y-85260500D01*
X117248000Y-86007750D01*
X117342250Y-86102000D01*
X117875000Y-86103824D01*
X117948905Y-86096545D01*
X118019970Y-86074988D01*
X118085463Y-86039981D01*
X118142869Y-85992869D01*
X118189981Y-85935463D01*
X118224988Y-85869970D01*
X118246545Y-85798905D01*
X118253824Y-85725000D01*
X118252000Y-85354750D01*
X118157750Y-85260500D01*
X117248000Y-85260500D01*
X116752000Y-85260500D01*
X115842250Y-85260500D01*
X115748000Y-85354750D01*
X115746176Y-85725000D01*
X111178526Y-85725000D01*
X111177000Y-85342250D01*
X111082750Y-85248000D01*
X110248000Y-85248000D01*
X109752000Y-85248000D01*
X108917250Y-85248000D01*
X108823000Y-85342250D01*
X108821176Y-85800000D01*
X107127000Y-85800000D01*
X107127000Y-84900000D01*
X118921176Y-84900000D01*
X118923000Y-85132750D01*
X119017250Y-85227000D01*
X119752000Y-85227000D01*
X119752000Y-84617250D01*
X120248000Y-84617250D01*
X120248000Y-85227000D01*
X120982750Y-85227000D01*
X121077000Y-85132750D01*
X121078747Y-84909815D01*
X123920540Y-84909815D01*
X125000000Y-85989275D01*
X126079460Y-84909815D01*
X125898349Y-84681605D01*
X125557552Y-84538212D01*
X125195327Y-84464060D01*
X124825596Y-84461999D01*
X124462568Y-84532109D01*
X124120192Y-84671695D01*
X124101651Y-84681605D01*
X123920540Y-84909815D01*
X121078747Y-84909815D01*
X121078824Y-84900000D01*
X121071545Y-84826095D01*
X121049988Y-84755030D01*
X121014981Y-84689537D01*
X120967869Y-84632131D01*
X120910463Y-84585019D01*
X120844970Y-84550012D01*
X120773905Y-84528455D01*
X120700000Y-84521176D01*
X120342250Y-84523000D01*
X120248000Y-84617250D01*
X119752000Y-84617250D01*
X119657750Y-84523000D01*
X119300000Y-84521176D01*
X119226095Y-84528455D01*
X119155030Y-84550012D01*
X119089537Y-84585019D01*
X119032131Y-84632131D01*
X118985019Y-84689537D01*
X118950012Y-84755030D01*
X118928455Y-84826095D01*
X118921176Y-84900000D01*
X107127000Y-84900000D01*
X107127000Y-84200000D01*
X108821176Y-84200000D01*
X108823000Y-84657750D01*
X108917250Y-84752000D01*
X109752000Y-84752000D01*
X109752000Y-83917250D01*
X110248000Y-83917250D01*
X110248000Y-84752000D01*
X111082750Y-84752000D01*
X111177000Y-84657750D01*
X111178425Y-84300000D01*
X115746176Y-84300000D01*
X115748000Y-84670250D01*
X115842250Y-84764500D01*
X116752000Y-84764500D01*
X116752000Y-84017250D01*
X117248000Y-84017250D01*
X117248000Y-84764500D01*
X118157750Y-84764500D01*
X118252000Y-84670250D01*
X118253824Y-84300000D01*
X118246545Y-84226095D01*
X118224988Y-84155030D01*
X118189981Y-84089537D01*
X118142869Y-84032131D01*
X118085463Y-83985019D01*
X118019970Y-83950012D01*
X117948905Y-83928455D01*
X117875000Y-83921176D01*
X117342250Y-83923000D01*
X117248000Y-84017250D01*
X116752000Y-84017250D01*
X116657750Y-83923000D01*
X116125000Y-83921176D01*
X116051095Y-83928455D01*
X115980030Y-83950012D01*
X115914537Y-83985019D01*
X115857131Y-84032131D01*
X115810019Y-84089537D01*
X115775012Y-84155030D01*
X115753455Y-84226095D01*
X115746176Y-84300000D01*
X111178425Y-84300000D01*
X111178824Y-84200000D01*
X111171545Y-84126095D01*
X111149988Y-84055030D01*
X111114981Y-83989537D01*
X111067869Y-83932131D01*
X111010463Y-83885019D01*
X110944970Y-83850012D01*
X110873905Y-83828455D01*
X110800000Y-83821176D01*
X110342250Y-83823000D01*
X110248000Y-83917250D01*
X109752000Y-83917250D01*
X109657750Y-83823000D01*
X109200000Y-83821176D01*
X109126095Y-83828455D01*
X109055030Y-83850012D01*
X108989537Y-83885019D01*
X108932131Y-83932131D01*
X108885019Y-83989537D01*
X108850012Y-84055030D01*
X108828455Y-84126095D01*
X108821176Y-84200000D01*
X107127000Y-84200000D01*
X107127000Y-84052606D01*
X107979606Y-83200000D01*
X115746176Y-83200000D01*
X115753455Y-83273905D01*
X115775012Y-83344970D01*
X115810019Y-83410463D01*
X115857131Y-83467869D01*
X115914537Y-83514981D01*
X115980030Y-83549988D01*
X116051095Y-83571545D01*
X116125000Y-83578824D01*
X116657750Y-83577000D01*
X116752000Y-83482750D01*
X116752000Y-82735500D01*
X117248000Y-82735500D01*
X117248000Y-83482750D01*
X117342250Y-83577000D01*
X117875000Y-83578824D01*
X117948905Y-83571545D01*
X118019970Y-83549988D01*
X118085463Y-83514981D01*
X118142869Y-83467869D01*
X118189981Y-83410463D01*
X118224988Y-83344970D01*
X118246545Y-83273905D01*
X118253824Y-83200000D01*
X118252000Y-82829750D01*
X118157750Y-82735500D01*
X117248000Y-82735500D01*
X116752000Y-82735500D01*
X115842250Y-82735500D01*
X115748000Y-82829750D01*
X115746176Y-83200000D01*
X107979606Y-83200000D01*
X108089803Y-83089803D01*
X108105597Y-83070557D01*
X108117333Y-83048601D01*
X108124560Y-83024776D01*
X108127000Y-83000000D01*
X108127000Y-81775000D01*
X115746176Y-81775000D01*
X115748000Y-82145250D01*
X115842250Y-82239500D01*
X116752000Y-82239500D01*
X116752000Y-81492250D01*
X117248000Y-81492250D01*
X117248000Y-82239500D01*
X118157750Y-82239500D01*
X118252000Y-82145250D01*
X118253824Y-81775000D01*
X118246545Y-81701095D01*
X118224988Y-81630030D01*
X118189981Y-81564537D01*
X118142869Y-81507131D01*
X118085463Y-81460019D01*
X118019970Y-81425012D01*
X117948905Y-81403455D01*
X117875000Y-81396176D01*
X117342250Y-81398000D01*
X117248000Y-81492250D01*
X116752000Y-81492250D01*
X116657750Y-81398000D01*
X116125000Y-81396176D01*
X116051095Y-81403455D01*
X115980030Y-81425012D01*
X115914537Y-81460019D01*
X115857131Y-81507131D01*
X115810019Y-81564537D01*
X115775012Y-81630030D01*
X115753455Y-81701095D01*
X115746176Y-81775000D01*
X108127000Y-81775000D01*
X108127000Y-77911161D01*
X114598000Y-77911161D01*
X114598000Y-78088839D01*
X114632664Y-78263104D01*
X114700658Y-78427257D01*
X114799371Y-78574991D01*
X114925009Y-78700629D01*
X115072743Y-78799342D01*
X115236896Y-78867336D01*
X115320472Y-78883961D01*
X115620572Y-79184060D01*
X115620572Y-79975000D01*
X115635068Y-80122182D01*
X115677999Y-80263707D01*
X115747716Y-80394138D01*
X115841539Y-80508461D01*
X115955862Y-80602284D01*
X116086293Y-80672001D01*
X116227818Y-80714932D01*
X116375000Y-80729428D01*
X117625000Y-80729428D01*
X117772182Y-80714932D01*
X117913707Y-80672001D01*
X118044138Y-80602284D01*
X118158461Y-80508461D01*
X118252284Y-80394138D01*
X118322001Y-80263707D01*
X118364932Y-80122182D01*
X118379428Y-79975000D01*
X118379428Y-79050000D01*
X118364932Y-78902818D01*
X118322001Y-78761293D01*
X118252284Y-78630862D01*
X118158461Y-78516539D01*
X118044138Y-78422716D01*
X117913707Y-78352999D01*
X117839433Y-78330468D01*
X117867336Y-78263104D01*
X117902000Y-78088839D01*
X117902000Y-77911161D01*
X117867336Y-77736896D01*
X117799342Y-77572743D01*
X117700629Y-77425009D01*
X117574991Y-77299371D01*
X117427257Y-77200658D01*
X117263104Y-77132664D01*
X117088839Y-77098000D01*
X116911161Y-77098000D01*
X116736896Y-77132664D01*
X116572743Y-77200658D01*
X116425009Y-77299371D01*
X116299371Y-77425009D01*
X116250000Y-77498898D01*
X116200629Y-77425009D01*
X116074991Y-77299371D01*
X115927257Y-77200658D01*
X115763104Y-77132664D01*
X115588839Y-77098000D01*
X115411161Y-77098000D01*
X115236896Y-77132664D01*
X115072743Y-77200658D01*
X114925009Y-77299371D01*
X114799371Y-77425009D01*
X114700658Y-77572743D01*
X114632664Y-77736896D01*
X114598000Y-77911161D01*
X108127000Y-77911161D01*
X108127000Y-76300000D01*
X108421176Y-76300000D01*
X108428455Y-76373905D01*
X108450012Y-76444970D01*
X108485019Y-76510463D01*
X108532131Y-76567869D01*
X108589537Y-76614981D01*
X108655030Y-76649988D01*
X108726095Y-76671545D01*
X108800000Y-76678824D01*
X109807750Y-76677000D01*
X109902000Y-76582750D01*
X109902000Y-74748000D01*
X110398000Y-74748000D01*
X110398000Y-76582750D01*
X110492250Y-76677000D01*
X111500000Y-76678824D01*
X111573905Y-76671545D01*
X111644970Y-76649988D01*
X111710463Y-76614981D01*
X111767869Y-76567869D01*
X111814981Y-76510463D01*
X111849988Y-76444970D01*
X111871545Y-76373905D01*
X111878824Y-76300000D01*
X111877000Y-74842250D01*
X111782750Y-74748000D01*
X110398000Y-74748000D01*
X109902000Y-74748000D01*
X108517250Y-74748000D01*
X108423000Y-74842250D01*
X108421176Y-76300000D01*
X108127000Y-76300000D01*
X108127000Y-72700000D01*
X108421176Y-72700000D01*
X108423000Y-74157750D01*
X108517250Y-74252000D01*
X109902000Y-74252000D01*
X109902000Y-72417250D01*
X110398000Y-72417250D01*
X110398000Y-74252000D01*
X111782750Y-74252000D01*
X111877000Y-74157750D01*
X111878824Y-72700000D01*
X111871545Y-72626095D01*
X111849988Y-72555030D01*
X111814981Y-72489537D01*
X111767869Y-72432131D01*
X111710463Y-72385019D01*
X111644970Y-72350012D01*
X111573905Y-72328455D01*
X111500000Y-72321176D01*
X110492250Y-72323000D01*
X110398000Y-72417250D01*
X109902000Y-72417250D01*
X109807750Y-72323000D01*
X108800000Y-72321176D01*
X108726095Y-72328455D01*
X108655030Y-72350012D01*
X108589537Y-72385019D01*
X108532131Y-72432131D01*
X108485019Y-72489537D01*
X108450012Y-72555030D01*
X108428455Y-72626095D01*
X108421176Y-72700000D01*
X108127000Y-72700000D01*
X108127000Y-67627000D01*
X121873000Y-67627000D01*
X121873000Y-77500000D01*
G36*
X106373000Y-84052606D02*
G01*
X106373000Y-86500000D01*
X106375440Y-86524776D01*
X106382667Y-86548601D01*
X106394403Y-86570557D01*
X106410197Y-86589803D01*
X106910197Y-87089803D01*
X106929443Y-87105597D01*
X106951399Y-87117333D01*
X106975224Y-87124560D01*
X107000000Y-87127000D01*
X115776632Y-87127000D01*
X115775012Y-87130030D01*
X115753455Y-87201095D01*
X115746176Y-87275000D01*
X115748000Y-87645250D01*
X115842250Y-87739500D01*
X116752000Y-87739500D01*
X116752000Y-87719500D01*
X117248000Y-87719500D01*
X117248000Y-87739500D01*
X118157750Y-87739500D01*
X118252000Y-87645250D01*
X118253824Y-87275000D01*
X118246545Y-87201095D01*
X118224988Y-87130030D01*
X118223368Y-87127000D01*
X118922563Y-87127000D01*
X118923000Y-87182750D01*
X119017250Y-87277000D01*
X119752000Y-87277000D01*
X119752000Y-87257000D01*
X120077394Y-87257000D01*
X120268000Y-87447606D01*
X120268000Y-87773000D01*
X120248000Y-87773000D01*
X120248000Y-88382750D01*
X120342250Y-88477000D01*
X120700000Y-88478824D01*
X120773905Y-88471545D01*
X120844970Y-88449988D01*
X120910463Y-88414981D01*
X120967869Y-88367869D01*
X121014981Y-88310463D01*
X121049988Y-88244970D01*
X121053567Y-88233173D01*
X121910197Y-89089803D01*
X121929443Y-89105597D01*
X121951399Y-89117333D01*
X121975224Y-89124560D01*
X122000000Y-89127000D01*
X128873000Y-89127000D01*
X128873000Y-93373000D01*
X122000000Y-93373000D01*
X121975224Y-93375440D01*
X121951399Y-93382667D01*
X121929443Y-93394403D01*
X121910197Y-93410197D01*
X121046636Y-94273758D01*
X121014981Y-94214537D01*
X120967869Y-94157131D01*
X120910463Y-94110019D01*
X120844970Y-94075012D01*
X120773905Y-94053455D01*
X120700000Y-94046176D01*
X120342250Y-94048000D01*
X120248000Y-94142250D01*
X120248000Y-94752000D01*
X120268000Y-94752000D01*
X120268000Y-95052394D01*
X120052394Y-95268000D01*
X119752000Y-95268000D01*
X119752000Y-95248000D01*
X119017250Y-95248000D01*
X118923000Y-95342250D01*
X118922759Y-95373000D01*
X118223368Y-95373000D01*
X118224988Y-95369970D01*
X118246545Y-95298905D01*
X118253824Y-95225000D01*
X118252000Y-94854750D01*
X118157750Y-94760500D01*
X117248000Y-94760500D01*
X117248000Y-94780500D01*
X116752000Y-94780500D01*
X116752000Y-94760500D01*
X115842250Y-94760500D01*
X115748000Y-94854750D01*
X115746176Y-95225000D01*
X115753455Y-95298905D01*
X115775012Y-95369970D01*
X115776632Y-95373000D01*
X107000000Y-95373000D01*
X106975224Y-95375440D01*
X106951399Y-95382667D01*
X106929443Y-95394403D01*
X106910197Y-95410197D01*
X106410197Y-95910197D01*
X106394403Y-95929443D01*
X106382667Y-95951399D01*
X106375440Y-95975224D01*
X106373000Y-96000000D01*
X106373000Y-96947394D01*
X105447394Y-97873000D01*
X102716687Y-97873000D01*
X102724988Y-97857470D01*
X102746545Y-97786405D01*
X102753824Y-97712500D01*
X102752000Y-97342250D01*
X102657750Y-97248000D01*
X101748000Y-97248000D01*
X101748000Y-97268000D01*
X101252000Y-97268000D01*
X101252000Y-97248000D01*
X100342250Y-97248000D01*
X100248000Y-97342250D01*
X100246891Y-97567285D01*
X98967106Y-96287500D01*
X100246176Y-96287500D01*
X100248000Y-96657750D01*
X100342250Y-96752000D01*
X101252000Y-96752000D01*
X101252000Y-96004750D01*
X101748000Y-96004750D01*
X101748000Y-96752000D01*
X102657750Y-96752000D01*
X102752000Y-96657750D01*
X102753824Y-96287500D01*
X102746545Y-96213595D01*
X102724988Y-96142530D01*
X102689981Y-96077037D01*
X102642869Y-96019631D01*
X102585463Y-95972519D01*
X102519970Y-95937512D01*
X102448905Y-95915955D01*
X102375000Y-95908676D01*
X101842250Y-95910500D01*
X101748000Y-96004750D01*
X101252000Y-96004750D01*
X101157750Y-95910500D01*
X100625000Y-95908676D01*
X100551095Y-95915955D01*
X100480030Y-95937512D01*
X100414537Y-95972519D01*
X100357131Y-96019631D01*
X100310019Y-96077037D01*
X100275012Y-96142530D01*
X100253455Y-96213595D01*
X100246176Y-96287500D01*
X98967106Y-96287500D01*
X98089803Y-95410197D01*
X98070557Y-95394403D01*
X98048601Y-95382667D01*
X98024776Y-95375440D01*
X98000000Y-95373000D01*
X92627000Y-95373000D01*
X92627000Y-94800000D01*
X108821176Y-94800000D01*
X108828455Y-94873905D01*
X108850012Y-94944970D01*
X108885019Y-95010463D01*
X108932131Y-95067869D01*
X108989537Y-95114981D01*
X109055030Y-95149988D01*
X109126095Y-95171545D01*
X109200000Y-95178824D01*
X109657750Y-95177000D01*
X109752000Y-95082750D01*
X109752000Y-94248000D01*
X110248000Y-94248000D01*
X110248000Y-95082750D01*
X110342250Y-95177000D01*
X110800000Y-95178824D01*
X110873905Y-95171545D01*
X110944970Y-95149988D01*
X111010463Y-95114981D01*
X111067869Y-95067869D01*
X111114981Y-95010463D01*
X111149988Y-94944970D01*
X111171545Y-94873905D01*
X111178824Y-94800000D01*
X111177330Y-94425000D01*
X118921176Y-94425000D01*
X118923000Y-94657750D01*
X119017250Y-94752000D01*
X119752000Y-94752000D01*
X119752000Y-94142250D01*
X119657750Y-94048000D01*
X119300000Y-94046176D01*
X119226095Y-94053455D01*
X119155030Y-94075012D01*
X119089537Y-94110019D01*
X119032131Y-94157131D01*
X118985019Y-94214537D01*
X118950012Y-94280030D01*
X118928455Y-94351095D01*
X118921176Y-94425000D01*
X111177330Y-94425000D01*
X111177000Y-94342250D01*
X111082750Y-94248000D01*
X110248000Y-94248000D01*
X109752000Y-94248000D01*
X108917250Y-94248000D01*
X108823000Y-94342250D01*
X108821176Y-94800000D01*
X92627000Y-94800000D01*
X92627000Y-93800000D01*
X115746176Y-93800000D01*
X115748000Y-94170250D01*
X115842250Y-94264500D01*
X116752000Y-94264500D01*
X116752000Y-93517250D01*
X117248000Y-93517250D01*
X117248000Y-94264500D01*
X118157750Y-94264500D01*
X118252000Y-94170250D01*
X118253824Y-93800000D01*
X118246545Y-93726095D01*
X118224988Y-93655030D01*
X118189981Y-93589537D01*
X118142869Y-93532131D01*
X118085463Y-93485019D01*
X118019970Y-93450012D01*
X117948905Y-93428455D01*
X117875000Y-93421176D01*
X117342250Y-93423000D01*
X117248000Y-93517250D01*
X116752000Y-93517250D01*
X116657750Y-93423000D01*
X116125000Y-93421176D01*
X116051095Y-93428455D01*
X115980030Y-93450012D01*
X115914537Y-93485019D01*
X115857131Y-93532131D01*
X115810019Y-93589537D01*
X115775012Y-93655030D01*
X115753455Y-93726095D01*
X115746176Y-93800000D01*
X92627000Y-93800000D01*
X92627000Y-93200000D01*
X108821176Y-93200000D01*
X108823000Y-93657750D01*
X108917250Y-93752000D01*
X109752000Y-93752000D01*
X109752000Y-92917250D01*
X110248000Y-92917250D01*
X110248000Y-93752000D01*
X111082750Y-93752000D01*
X111177000Y-93657750D01*
X111178824Y-93200000D01*
X111171545Y-93126095D01*
X111149988Y-93055030D01*
X111114981Y-92989537D01*
X111067869Y-92932131D01*
X111010463Y-92885019D01*
X110945294Y-92850185D01*
X123920540Y-92850185D01*
X124101651Y-93078395D01*
X124442448Y-93221788D01*
X124804673Y-93295940D01*
X125174404Y-93298001D01*
X125537432Y-93227891D01*
X125879808Y-93088305D01*
X125898349Y-93078395D01*
X126079460Y-92850185D01*
X125000000Y-91770725D01*
X123920540Y-92850185D01*
X110945294Y-92850185D01*
X110944970Y-92850012D01*
X110873905Y-92828455D01*
X110800000Y-92821176D01*
X110342250Y-92823000D01*
X110248000Y-92917250D01*
X109752000Y-92917250D01*
X109657750Y-92823000D01*
X109200000Y-92821176D01*
X109126095Y-92828455D01*
X109055030Y-92850012D01*
X108989537Y-92885019D01*
X108932131Y-92932131D01*
X108885019Y-92989537D01*
X108850012Y-93055030D01*
X108828455Y-93126095D01*
X108821176Y-93200000D01*
X92627000Y-93200000D01*
X92627000Y-92211984D01*
X94018741Y-92211984D01*
X94135523Y-92386385D01*
X94386009Y-92476846D01*
X94649331Y-92516702D01*
X94915368Y-92504421D01*
X95173897Y-92440474D01*
X95304477Y-92386385D01*
X95421259Y-92211984D01*
X94720000Y-91510725D01*
X94018741Y-92211984D01*
X92627000Y-92211984D01*
X92627000Y-91089331D01*
X93363298Y-91089331D01*
X93375579Y-91355368D01*
X93439526Y-91613897D01*
X93493615Y-91744477D01*
X93668016Y-91861259D01*
X94369275Y-91160000D01*
X95070725Y-91160000D01*
X95771984Y-91861259D01*
X95946385Y-91744477D01*
X96000582Y-91594404D01*
X123121999Y-91594404D01*
X123192109Y-91957432D01*
X123331695Y-92299808D01*
X123341605Y-92318349D01*
X123569815Y-92499460D01*
X124649275Y-91420000D01*
X125350725Y-91420000D01*
X126430185Y-92499460D01*
X126658395Y-92318349D01*
X126801788Y-91977552D01*
X126875940Y-91615327D01*
X126878001Y-91245596D01*
X126807891Y-90882568D01*
X126668305Y-90540192D01*
X126658395Y-90521651D01*
X126430185Y-90340540D01*
X125350725Y-91420000D01*
X124649275Y-91420000D01*
X123569815Y-90340540D01*
X123341605Y-90521651D01*
X123198212Y-90862448D01*
X123124060Y-91224673D01*
X123121999Y-91594404D01*
X96000582Y-91594404D01*
X96036846Y-91493991D01*
X96076702Y-91230669D01*
X96064421Y-90964632D01*
X96000474Y-90706103D01*
X95946385Y-90575523D01*
X95771984Y-90458741D01*
X95070725Y-91160000D01*
X94369275Y-91160000D01*
X93668016Y-90458741D01*
X93493615Y-90575523D01*
X93403154Y-90826009D01*
X93363298Y-91089331D01*
X92627000Y-91089331D01*
X92627000Y-90108016D01*
X94018741Y-90108016D01*
X94720000Y-90809275D01*
X95421259Y-90108016D01*
X95342110Y-89989815D01*
X123920540Y-89989815D01*
X125000000Y-91069275D01*
X126079460Y-89989815D01*
X125898349Y-89761605D01*
X125557552Y-89618212D01*
X125195327Y-89544060D01*
X124825596Y-89541999D01*
X124462568Y-89612109D01*
X124120192Y-89751695D01*
X124101651Y-89761605D01*
X123920540Y-89989815D01*
X95342110Y-89989815D01*
X95304477Y-89933615D01*
X95053991Y-89843154D01*
X94790669Y-89803298D01*
X94524632Y-89815579D01*
X94266103Y-89879526D01*
X94135523Y-89933615D01*
X94018741Y-90108016D01*
X92627000Y-90108016D01*
X92627000Y-89424765D01*
X109425960Y-89424765D01*
X109520921Y-89581319D01*
X109741082Y-89654005D01*
X109971192Y-89682344D01*
X110202409Y-89665246D01*
X110425848Y-89603368D01*
X110479079Y-89581319D01*
X110574040Y-89424765D01*
X110000000Y-88850725D01*
X109425960Y-89424765D01*
X92627000Y-89424765D01*
X92627000Y-88471192D01*
X108817656Y-88471192D01*
X108834754Y-88702409D01*
X108896632Y-88925848D01*
X108918681Y-88979079D01*
X109075235Y-89074040D01*
X109649275Y-88500000D01*
X110350725Y-88500000D01*
X110924765Y-89074040D01*
X111081319Y-88979079D01*
X111154005Y-88758918D01*
X111161260Y-88700000D01*
X115746176Y-88700000D01*
X115753455Y-88773905D01*
X115775012Y-88844970D01*
X115810019Y-88910463D01*
X115857131Y-88967869D01*
X115914537Y-89014981D01*
X115980030Y-89049988D01*
X116051095Y-89071545D01*
X116125000Y-89078824D01*
X116657750Y-89077000D01*
X116752000Y-88982750D01*
X116752000Y-88235500D01*
X117248000Y-88235500D01*
X117248000Y-88982750D01*
X117342250Y-89077000D01*
X117875000Y-89078824D01*
X117948905Y-89071545D01*
X118019970Y-89049988D01*
X118085463Y-89014981D01*
X118142869Y-88967869D01*
X118189981Y-88910463D01*
X118224988Y-88844970D01*
X118246545Y-88773905D01*
X118253824Y-88700000D01*
X118252000Y-88329750D01*
X118157750Y-88235500D01*
X117248000Y-88235500D01*
X116752000Y-88235500D01*
X115842250Y-88235500D01*
X115748000Y-88329750D01*
X115746176Y-88700000D01*
X111161260Y-88700000D01*
X111182344Y-88528808D01*
X111165246Y-88297591D01*
X111110527Y-88100000D01*
X118921176Y-88100000D01*
X118928455Y-88173905D01*
X118950012Y-88244970D01*
X118985019Y-88310463D01*
X119032131Y-88367869D01*
X119089537Y-88414981D01*
X119155030Y-88449988D01*
X119226095Y-88471545D01*
X119300000Y-88478824D01*
X119657750Y-88477000D01*
X119752000Y-88382750D01*
X119752000Y-87773000D01*
X119017250Y-87773000D01*
X118923000Y-87867250D01*
X118921176Y-88100000D01*
X111110527Y-88100000D01*
X111103368Y-88074152D01*
X111081319Y-88020921D01*
X110924765Y-87925960D01*
X110350725Y-88500000D01*
X109649275Y-88500000D01*
X109075235Y-87925960D01*
X108918681Y-88020921D01*
X108845995Y-88241082D01*
X108817656Y-88471192D01*
X92627000Y-88471192D01*
X92627000Y-87575235D01*
X109425960Y-87575235D01*
X110000000Y-88149275D01*
X110574040Y-87575235D01*
X110479079Y-87418681D01*
X110258918Y-87345995D01*
X110028808Y-87317656D01*
X109797591Y-87334754D01*
X109574152Y-87396632D01*
X109520921Y-87418681D01*
X109425960Y-87575235D01*
X92627000Y-87575235D01*
X92627000Y-85627000D01*
X98000000Y-85627000D01*
X98024776Y-85624560D01*
X98048601Y-85617333D01*
X98070557Y-85605597D01*
X98089803Y-85589803D01*
X98479606Y-85200000D01*
X100246176Y-85200000D01*
X100253455Y-85273905D01*
X100275012Y-85344970D01*
X100310019Y-85410463D01*
X100357131Y-85467869D01*
X100414537Y-85514981D01*
X100480030Y-85549988D01*
X100551095Y-85571545D01*
X100625000Y-85578824D01*
X101157750Y-85577000D01*
X101252000Y-85482750D01*
X101252000Y-84735500D01*
X101748000Y-84735500D01*
X101748000Y-85482750D01*
X101842250Y-85577000D01*
X102375000Y-85578824D01*
X102448905Y-85571545D01*
X102519970Y-85549988D01*
X102585463Y-85514981D01*
X102642869Y-85467869D01*
X102689981Y-85410463D01*
X102724988Y-85344970D01*
X102746545Y-85273905D01*
X102753824Y-85200000D01*
X102752000Y-84829750D01*
X102657750Y-84735500D01*
X101748000Y-84735500D01*
X101252000Y-84735500D01*
X100342250Y-84735500D01*
X100248000Y-84829750D01*
X100246176Y-85200000D01*
X98479606Y-85200000D01*
X99904606Y-83775000D01*
X100246176Y-83775000D01*
X100248000Y-84145250D01*
X100342250Y-84239500D01*
X101252000Y-84239500D01*
X101252000Y-83492250D01*
X101748000Y-83492250D01*
X101748000Y-84239500D01*
X102657750Y-84239500D01*
X102752000Y-84145250D01*
X102753824Y-83775000D01*
X102746545Y-83701095D01*
X102724988Y-83630030D01*
X102689981Y-83564537D01*
X102642869Y-83507131D01*
X102585463Y-83460019D01*
X102519970Y-83425012D01*
X102448905Y-83403455D01*
X102375000Y-83396176D01*
X101842250Y-83398000D01*
X101748000Y-83492250D01*
X101252000Y-83492250D01*
X101157750Y-83398000D01*
X100625000Y-83396176D01*
X100551095Y-83403455D01*
X100480030Y-83425012D01*
X100414537Y-83460019D01*
X100357131Y-83507131D01*
X100310019Y-83564537D01*
X100275012Y-83630030D01*
X100253455Y-83701095D01*
X100246176Y-83775000D01*
X99904606Y-83775000D01*
X100552606Y-83127000D01*
X105447394Y-83127000D01*
X106373000Y-84052606D01*
X106373000Y-84052606D01*
G37*
X106373000Y-84052606D02*
X106373000Y-86500000D01*
X106375440Y-86524776D01*
X106382667Y-86548601D01*
X106394403Y-86570557D01*
X106410197Y-86589803D01*
X106910197Y-87089803D01*
X106929443Y-87105597D01*
X106951399Y-87117333D01*
X106975224Y-87124560D01*
X107000000Y-87127000D01*
X115776632Y-87127000D01*
X115775012Y-87130030D01*
X115753455Y-87201095D01*
X115746176Y-87275000D01*
X115748000Y-87645250D01*
X115842250Y-87739500D01*
X116752000Y-87739500D01*
X116752000Y-87719500D01*
X117248000Y-87719500D01*
X117248000Y-87739500D01*
X118157750Y-87739500D01*
X118252000Y-87645250D01*
X118253824Y-87275000D01*
X118246545Y-87201095D01*
X118224988Y-87130030D01*
X118223368Y-87127000D01*
X118922563Y-87127000D01*
X118923000Y-87182750D01*
X119017250Y-87277000D01*
X119752000Y-87277000D01*
X119752000Y-87257000D01*
X120077394Y-87257000D01*
X120268000Y-87447606D01*
X120268000Y-87773000D01*
X120248000Y-87773000D01*
X120248000Y-88382750D01*
X120342250Y-88477000D01*
X120700000Y-88478824D01*
X120773905Y-88471545D01*
X120844970Y-88449988D01*
X120910463Y-88414981D01*
X120967869Y-88367869D01*
X121014981Y-88310463D01*
X121049988Y-88244970D01*
X121053567Y-88233173D01*
X121910197Y-89089803D01*
X121929443Y-89105597D01*
X121951399Y-89117333D01*
X121975224Y-89124560D01*
X122000000Y-89127000D01*
X128873000Y-89127000D01*
X128873000Y-93373000D01*
X122000000Y-93373000D01*
X121975224Y-93375440D01*
X121951399Y-93382667D01*
X121929443Y-93394403D01*
X121910197Y-93410197D01*
X121046636Y-94273758D01*
X121014981Y-94214537D01*
X120967869Y-94157131D01*
X120910463Y-94110019D01*
X120844970Y-94075012D01*
X120773905Y-94053455D01*
X120700000Y-94046176D01*
X120342250Y-94048000D01*
X120248000Y-94142250D01*
X120248000Y-94752000D01*
X120268000Y-94752000D01*
X120268000Y-95052394D01*
X120052394Y-95268000D01*
X119752000Y-95268000D01*
X119752000Y-95248000D01*
X119017250Y-95248000D01*
X118923000Y-95342250D01*
X118922759Y-95373000D01*
X118223368Y-95373000D01*
X118224988Y-95369970D01*
X118246545Y-95298905D01*
X118253824Y-95225000D01*
X118252000Y-94854750D01*
X118157750Y-94760500D01*
X117248000Y-94760500D01*
X117248000Y-94780500D01*
X116752000Y-94780500D01*
X116752000Y-94760500D01*
X115842250Y-94760500D01*
X115748000Y-94854750D01*
X115746176Y-95225000D01*
X115753455Y-95298905D01*
X115775012Y-95369970D01*
X115776632Y-95373000D01*
X107000000Y-95373000D01*
X106975224Y-95375440D01*
X106951399Y-95382667D01*
X106929443Y-95394403D01*
X106910197Y-95410197D01*
X106410197Y-95910197D01*
X106394403Y-95929443D01*
X106382667Y-95951399D01*
X106375440Y-95975224D01*
X106373000Y-96000000D01*
X106373000Y-96947394D01*
X105447394Y-97873000D01*
X102716687Y-97873000D01*
X102724988Y-97857470D01*
X102746545Y-97786405D01*
X102753824Y-97712500D01*
X102752000Y-97342250D01*
X102657750Y-97248000D01*
X101748000Y-97248000D01*
X101748000Y-97268000D01*
X101252000Y-97268000D01*
X101252000Y-97248000D01*
X100342250Y-97248000D01*
X100248000Y-97342250D01*
X100246891Y-97567285D01*
X98967106Y-96287500D01*
X100246176Y-96287500D01*
X100248000Y-96657750D01*
X100342250Y-96752000D01*
X101252000Y-96752000D01*
X101252000Y-96004750D01*
X101748000Y-96004750D01*
X101748000Y-96752000D01*
X102657750Y-96752000D01*
X102752000Y-96657750D01*
X102753824Y-96287500D01*
X102746545Y-96213595D01*
X102724988Y-96142530D01*
X102689981Y-96077037D01*
X102642869Y-96019631D01*
X102585463Y-95972519D01*
X102519970Y-95937512D01*
X102448905Y-95915955D01*
X102375000Y-95908676D01*
X101842250Y-95910500D01*
X101748000Y-96004750D01*
X101252000Y-96004750D01*
X101157750Y-95910500D01*
X100625000Y-95908676D01*
X100551095Y-95915955D01*
X100480030Y-95937512D01*
X100414537Y-95972519D01*
X100357131Y-96019631D01*
X100310019Y-96077037D01*
X100275012Y-96142530D01*
X100253455Y-96213595D01*
X100246176Y-96287500D01*
X98967106Y-96287500D01*
X98089803Y-95410197D01*
X98070557Y-95394403D01*
X98048601Y-95382667D01*
X98024776Y-95375440D01*
X98000000Y-95373000D01*
X92627000Y-95373000D01*
X92627000Y-94800000D01*
X108821176Y-94800000D01*
X108828455Y-94873905D01*
X108850012Y-94944970D01*
X108885019Y-95010463D01*
X108932131Y-95067869D01*
X108989537Y-95114981D01*
X109055030Y-95149988D01*
X109126095Y-95171545D01*
X109200000Y-95178824D01*
X109657750Y-95177000D01*
X109752000Y-95082750D01*
X109752000Y-94248000D01*
X110248000Y-94248000D01*
X110248000Y-95082750D01*
X110342250Y-95177000D01*
X110800000Y-95178824D01*
X110873905Y-95171545D01*
X110944970Y-95149988D01*
X111010463Y-95114981D01*
X111067869Y-95067869D01*
X111114981Y-95010463D01*
X111149988Y-94944970D01*
X111171545Y-94873905D01*
X111178824Y-94800000D01*
X111177330Y-94425000D01*
X118921176Y-94425000D01*
X118923000Y-94657750D01*
X119017250Y-94752000D01*
X119752000Y-94752000D01*
X119752000Y-94142250D01*
X119657750Y-94048000D01*
X119300000Y-94046176D01*
X119226095Y-94053455D01*
X119155030Y-94075012D01*
X119089537Y-94110019D01*
X119032131Y-94157131D01*
X118985019Y-94214537D01*
X118950012Y-94280030D01*
X118928455Y-94351095D01*
X118921176Y-94425000D01*
X111177330Y-94425000D01*
X111177000Y-94342250D01*
X111082750Y-94248000D01*
X110248000Y-94248000D01*
X109752000Y-94248000D01*
X108917250Y-94248000D01*
X108823000Y-94342250D01*
X108821176Y-94800000D01*
X92627000Y-94800000D01*
X92627000Y-93800000D01*
X115746176Y-93800000D01*
X115748000Y-94170250D01*
X115842250Y-94264500D01*
X116752000Y-94264500D01*
X116752000Y-93517250D01*
X117248000Y-93517250D01*
X117248000Y-94264500D01*
X118157750Y-94264500D01*
X118252000Y-94170250D01*
X118253824Y-93800000D01*
X118246545Y-93726095D01*
X118224988Y-93655030D01*
X118189981Y-93589537D01*
X118142869Y-93532131D01*
X118085463Y-93485019D01*
X118019970Y-93450012D01*
X117948905Y-93428455D01*
X117875000Y-93421176D01*
X117342250Y-93423000D01*
X117248000Y-93517250D01*
X116752000Y-93517250D01*
X116657750Y-93423000D01*
X116125000Y-93421176D01*
X116051095Y-93428455D01*
X115980030Y-93450012D01*
X115914537Y-93485019D01*
X115857131Y-93532131D01*
X115810019Y-93589537D01*
X115775012Y-93655030D01*
X115753455Y-93726095D01*
X115746176Y-93800000D01*
X92627000Y-93800000D01*
X92627000Y-93200000D01*
X108821176Y-93200000D01*
X108823000Y-93657750D01*
X108917250Y-93752000D01*
X109752000Y-93752000D01*
X109752000Y-92917250D01*
X110248000Y-92917250D01*
X110248000Y-93752000D01*
X111082750Y-93752000D01*
X111177000Y-93657750D01*
X111178824Y-93200000D01*
X111171545Y-93126095D01*
X111149988Y-93055030D01*
X111114981Y-92989537D01*
X111067869Y-92932131D01*
X111010463Y-92885019D01*
X110945294Y-92850185D01*
X123920540Y-92850185D01*
X124101651Y-93078395D01*
X124442448Y-93221788D01*
X124804673Y-93295940D01*
X125174404Y-93298001D01*
X125537432Y-93227891D01*
X125879808Y-93088305D01*
X125898349Y-93078395D01*
X126079460Y-92850185D01*
X125000000Y-91770725D01*
X123920540Y-92850185D01*
X110945294Y-92850185D01*
X110944970Y-92850012D01*
X110873905Y-92828455D01*
X110800000Y-92821176D01*
X110342250Y-92823000D01*
X110248000Y-92917250D01*
X109752000Y-92917250D01*
X109657750Y-92823000D01*
X109200000Y-92821176D01*
X109126095Y-92828455D01*
X109055030Y-92850012D01*
X108989537Y-92885019D01*
X108932131Y-92932131D01*
X108885019Y-92989537D01*
X108850012Y-93055030D01*
X108828455Y-93126095D01*
X108821176Y-93200000D01*
X92627000Y-93200000D01*
X92627000Y-92211984D01*
X94018741Y-92211984D01*
X94135523Y-92386385D01*
X94386009Y-92476846D01*
X94649331Y-92516702D01*
X94915368Y-92504421D01*
X95173897Y-92440474D01*
X95304477Y-92386385D01*
X95421259Y-92211984D01*
X94720000Y-91510725D01*
X94018741Y-92211984D01*
X92627000Y-92211984D01*
X92627000Y-91089331D01*
X93363298Y-91089331D01*
X93375579Y-91355368D01*
X93439526Y-91613897D01*
X93493615Y-91744477D01*
X93668016Y-91861259D01*
X94369275Y-91160000D01*
X95070725Y-91160000D01*
X95771984Y-91861259D01*
X95946385Y-91744477D01*
X96000582Y-91594404D01*
X123121999Y-91594404D01*
X123192109Y-91957432D01*
X123331695Y-92299808D01*
X123341605Y-92318349D01*
X123569815Y-92499460D01*
X124649275Y-91420000D01*
X125350725Y-91420000D01*
X126430185Y-92499460D01*
X126658395Y-92318349D01*
X126801788Y-91977552D01*
X126875940Y-91615327D01*
X126878001Y-91245596D01*
X126807891Y-90882568D01*
X126668305Y-90540192D01*
X126658395Y-90521651D01*
X126430185Y-90340540D01*
X125350725Y-91420000D01*
X124649275Y-91420000D01*
X123569815Y-90340540D01*
X123341605Y-90521651D01*
X123198212Y-90862448D01*
X123124060Y-91224673D01*
X123121999Y-91594404D01*
X96000582Y-91594404D01*
X96036846Y-91493991D01*
X96076702Y-91230669D01*
X96064421Y-90964632D01*
X96000474Y-90706103D01*
X95946385Y-90575523D01*
X95771984Y-90458741D01*
X95070725Y-91160000D01*
X94369275Y-91160000D01*
X93668016Y-90458741D01*
X93493615Y-90575523D01*
X93403154Y-90826009D01*
X93363298Y-91089331D01*
X92627000Y-91089331D01*
X92627000Y-90108016D01*
X94018741Y-90108016D01*
X94720000Y-90809275D01*
X95421259Y-90108016D01*
X95342110Y-89989815D01*
X123920540Y-89989815D01*
X125000000Y-91069275D01*
X126079460Y-89989815D01*
X125898349Y-89761605D01*
X125557552Y-89618212D01*
X125195327Y-89544060D01*
X124825596Y-89541999D01*
X124462568Y-89612109D01*
X124120192Y-89751695D01*
X124101651Y-89761605D01*
X123920540Y-89989815D01*
X95342110Y-89989815D01*
X95304477Y-89933615D01*
X95053991Y-89843154D01*
X94790669Y-89803298D01*
X94524632Y-89815579D01*
X94266103Y-89879526D01*
X94135523Y-89933615D01*
X94018741Y-90108016D01*
X92627000Y-90108016D01*
X92627000Y-89424765D01*
X109425960Y-89424765D01*
X109520921Y-89581319D01*
X109741082Y-89654005D01*
X109971192Y-89682344D01*
X110202409Y-89665246D01*
X110425848Y-89603368D01*
X110479079Y-89581319D01*
X110574040Y-89424765D01*
X110000000Y-88850725D01*
X109425960Y-89424765D01*
X92627000Y-89424765D01*
X92627000Y-88471192D01*
X108817656Y-88471192D01*
X108834754Y-88702409D01*
X108896632Y-88925848D01*
X108918681Y-88979079D01*
X109075235Y-89074040D01*
X109649275Y-88500000D01*
X110350725Y-88500000D01*
X110924765Y-89074040D01*
X111081319Y-88979079D01*
X111154005Y-88758918D01*
X111161260Y-88700000D01*
X115746176Y-88700000D01*
X115753455Y-88773905D01*
X115775012Y-88844970D01*
X115810019Y-88910463D01*
X115857131Y-88967869D01*
X115914537Y-89014981D01*
X115980030Y-89049988D01*
X116051095Y-89071545D01*
X116125000Y-89078824D01*
X116657750Y-89077000D01*
X116752000Y-88982750D01*
X116752000Y-88235500D01*
X117248000Y-88235500D01*
X117248000Y-88982750D01*
X117342250Y-89077000D01*
X117875000Y-89078824D01*
X117948905Y-89071545D01*
X118019970Y-89049988D01*
X118085463Y-89014981D01*
X118142869Y-88967869D01*
X118189981Y-88910463D01*
X118224988Y-88844970D01*
X118246545Y-88773905D01*
X118253824Y-88700000D01*
X118252000Y-88329750D01*
X118157750Y-88235500D01*
X117248000Y-88235500D01*
X116752000Y-88235500D01*
X115842250Y-88235500D01*
X115748000Y-88329750D01*
X115746176Y-88700000D01*
X111161260Y-88700000D01*
X111182344Y-88528808D01*
X111165246Y-88297591D01*
X111110527Y-88100000D01*
X118921176Y-88100000D01*
X118928455Y-88173905D01*
X118950012Y-88244970D01*
X118985019Y-88310463D01*
X119032131Y-88367869D01*
X119089537Y-88414981D01*
X119155030Y-88449988D01*
X119226095Y-88471545D01*
X119300000Y-88478824D01*
X119657750Y-88477000D01*
X119752000Y-88382750D01*
X119752000Y-87773000D01*
X119017250Y-87773000D01*
X118923000Y-87867250D01*
X118921176Y-88100000D01*
X111110527Y-88100000D01*
X111103368Y-88074152D01*
X111081319Y-88020921D01*
X110924765Y-87925960D01*
X110350725Y-88500000D01*
X109649275Y-88500000D01*
X109075235Y-87925960D01*
X108918681Y-88020921D01*
X108845995Y-88241082D01*
X108817656Y-88471192D01*
X92627000Y-88471192D01*
X92627000Y-87575235D01*
X109425960Y-87575235D01*
X110000000Y-88149275D01*
X110574040Y-87575235D01*
X110479079Y-87418681D01*
X110258918Y-87345995D01*
X110028808Y-87317656D01*
X109797591Y-87334754D01*
X109574152Y-87396632D01*
X109520921Y-87418681D01*
X109425960Y-87575235D01*
X92627000Y-87575235D01*
X92627000Y-85627000D01*
X98000000Y-85627000D01*
X98024776Y-85624560D01*
X98048601Y-85617333D01*
X98070557Y-85605597D01*
X98089803Y-85589803D01*
X98479606Y-85200000D01*
X100246176Y-85200000D01*
X100253455Y-85273905D01*
X100275012Y-85344970D01*
X100310019Y-85410463D01*
X100357131Y-85467869D01*
X100414537Y-85514981D01*
X100480030Y-85549988D01*
X100551095Y-85571545D01*
X100625000Y-85578824D01*
X101157750Y-85577000D01*
X101252000Y-85482750D01*
X101252000Y-84735500D01*
X101748000Y-84735500D01*
X101748000Y-85482750D01*
X101842250Y-85577000D01*
X102375000Y-85578824D01*
X102448905Y-85571545D01*
X102519970Y-85549988D01*
X102585463Y-85514981D01*
X102642869Y-85467869D01*
X102689981Y-85410463D01*
X102724988Y-85344970D01*
X102746545Y-85273905D01*
X102753824Y-85200000D01*
X102752000Y-84829750D01*
X102657750Y-84735500D01*
X101748000Y-84735500D01*
X101252000Y-84735500D01*
X100342250Y-84735500D01*
X100248000Y-84829750D01*
X100246176Y-85200000D01*
X98479606Y-85200000D01*
X99904606Y-83775000D01*
X100246176Y-83775000D01*
X100248000Y-84145250D01*
X100342250Y-84239500D01*
X101252000Y-84239500D01*
X101252000Y-83492250D01*
X101748000Y-83492250D01*
X101748000Y-84239500D01*
X102657750Y-84239500D01*
X102752000Y-84145250D01*
X102753824Y-83775000D01*
X102746545Y-83701095D01*
X102724988Y-83630030D01*
X102689981Y-83564537D01*
X102642869Y-83507131D01*
X102585463Y-83460019D01*
X102519970Y-83425012D01*
X102448905Y-83403455D01*
X102375000Y-83396176D01*
X101842250Y-83398000D01*
X101748000Y-83492250D01*
X101252000Y-83492250D01*
X101157750Y-83398000D01*
X100625000Y-83396176D01*
X100551095Y-83403455D01*
X100480030Y-83425012D01*
X100414537Y-83460019D01*
X100357131Y-83507131D01*
X100310019Y-83564537D01*
X100275012Y-83630030D01*
X100253455Y-83701095D01*
X100246176Y-83775000D01*
X99904606Y-83775000D01*
X100552606Y-83127000D01*
X105447394Y-83127000D01*
X106373000Y-84052606D01*
G36*
X125573000Y-105657750D02*
G01*
X125667250Y-105752000D01*
X126227000Y-105752000D01*
X126227000Y-105732000D01*
X126723000Y-105732000D01*
X126723000Y-105752000D01*
X127282750Y-105752000D01*
X127377000Y-105657750D01*
X127377074Y-105627000D01*
X128873000Y-105627000D01*
X128873000Y-113373000D01*
X122627000Y-113373000D01*
X122627000Y-110809111D01*
X122782756Y-111185141D01*
X123056570Y-111594932D01*
X123405068Y-111943430D01*
X123814859Y-112217244D01*
X124270194Y-112405849D01*
X124753575Y-112502000D01*
X125246425Y-112502000D01*
X125729806Y-112405849D01*
X126185141Y-112217244D01*
X126594932Y-111943430D01*
X126943430Y-111594932D01*
X127217244Y-111185141D01*
X127405849Y-110729806D01*
X127502000Y-110246425D01*
X127502000Y-109753575D01*
X127405849Y-109270194D01*
X127217244Y-108814859D01*
X126943430Y-108405068D01*
X126594932Y-108056570D01*
X126185141Y-107782756D01*
X125729806Y-107594151D01*
X125246425Y-107498000D01*
X124753575Y-107498000D01*
X124270194Y-107594151D01*
X123814859Y-107782756D01*
X123405068Y-108056570D01*
X123056570Y-108405068D01*
X122782756Y-108814859D01*
X122627000Y-109190889D01*
X122627000Y-107159132D01*
X122628455Y-107173905D01*
X122650012Y-107244970D01*
X122685019Y-107310463D01*
X122732131Y-107367869D01*
X122789537Y-107414981D01*
X122855030Y-107449988D01*
X122926095Y-107471545D01*
X123000000Y-107478824D01*
X123182750Y-107477000D01*
X123277000Y-107382750D01*
X123277000Y-106248000D01*
X123773000Y-106248000D01*
X123773000Y-107382750D01*
X123867250Y-107477000D01*
X124050000Y-107478824D01*
X124123905Y-107471545D01*
X124194970Y-107449988D01*
X124260463Y-107414981D01*
X124317869Y-107367869D01*
X124364981Y-107310463D01*
X124399988Y-107244970D01*
X124421545Y-107173905D01*
X124428824Y-107100000D01*
X125571176Y-107100000D01*
X125578455Y-107173905D01*
X125600012Y-107244970D01*
X125635019Y-107310463D01*
X125682131Y-107367869D01*
X125739537Y-107414981D01*
X125805030Y-107449988D01*
X125876095Y-107471545D01*
X125950000Y-107478824D01*
X126132750Y-107477000D01*
X126227000Y-107382750D01*
X126227000Y-106248000D01*
X126723000Y-106248000D01*
X126723000Y-107382750D01*
X126817250Y-107477000D01*
X127000000Y-107478824D01*
X127073905Y-107471545D01*
X127144970Y-107449988D01*
X127210463Y-107414981D01*
X127267869Y-107367869D01*
X127314981Y-107310463D01*
X127349988Y-107244970D01*
X127371545Y-107173905D01*
X127378824Y-107100000D01*
X127377000Y-106342250D01*
X127282750Y-106248000D01*
X126723000Y-106248000D01*
X126227000Y-106248000D01*
X125667250Y-106248000D01*
X125573000Y-106342250D01*
X125571176Y-107100000D01*
X124428824Y-107100000D01*
X124427000Y-106342250D01*
X124332750Y-106248000D01*
X123773000Y-106248000D01*
X123277000Y-106248000D01*
X123257000Y-106248000D01*
X123257000Y-105752000D01*
X123277000Y-105752000D01*
X123277000Y-105732000D01*
X123773000Y-105732000D01*
X123773000Y-105752000D01*
X124332750Y-105752000D01*
X124427000Y-105657750D01*
X124427074Y-105627000D01*
X125572926Y-105627000D01*
X125573000Y-105657750D01*
X125573000Y-105657750D01*
G37*
X125573000Y-105657750D02*
X125667250Y-105752000D01*
X126227000Y-105752000D01*
X126227000Y-105732000D01*
X126723000Y-105732000D01*
X126723000Y-105752000D01*
X127282750Y-105752000D01*
X127377000Y-105657750D01*
X127377074Y-105627000D01*
X128873000Y-105627000D01*
X128873000Y-113373000D01*
X122627000Y-113373000D01*
X122627000Y-110809111D01*
X122782756Y-111185141D01*
X123056570Y-111594932D01*
X123405068Y-111943430D01*
X123814859Y-112217244D01*
X124270194Y-112405849D01*
X124753575Y-112502000D01*
X125246425Y-112502000D01*
X125729806Y-112405849D01*
X126185141Y-112217244D01*
X126594932Y-111943430D01*
X126943430Y-111594932D01*
X127217244Y-111185141D01*
X127405849Y-110729806D01*
X127502000Y-110246425D01*
X127502000Y-109753575D01*
X127405849Y-109270194D01*
X127217244Y-108814859D01*
X126943430Y-108405068D01*
X126594932Y-108056570D01*
X126185141Y-107782756D01*
X125729806Y-107594151D01*
X125246425Y-107498000D01*
X124753575Y-107498000D01*
X124270194Y-107594151D01*
X123814859Y-107782756D01*
X123405068Y-108056570D01*
X123056570Y-108405068D01*
X122782756Y-108814859D01*
X122627000Y-109190889D01*
X122627000Y-107159132D01*
X122628455Y-107173905D01*
X122650012Y-107244970D01*
X122685019Y-107310463D01*
X122732131Y-107367869D01*
X122789537Y-107414981D01*
X122855030Y-107449988D01*
X122926095Y-107471545D01*
X123000000Y-107478824D01*
X123182750Y-107477000D01*
X123277000Y-107382750D01*
X123277000Y-106248000D01*
X123773000Y-106248000D01*
X123773000Y-107382750D01*
X123867250Y-107477000D01*
X124050000Y-107478824D01*
X124123905Y-107471545D01*
X124194970Y-107449988D01*
X124260463Y-107414981D01*
X124317869Y-107367869D01*
X124364981Y-107310463D01*
X124399988Y-107244970D01*
X124421545Y-107173905D01*
X124428824Y-107100000D01*
X125571176Y-107100000D01*
X125578455Y-107173905D01*
X125600012Y-107244970D01*
X125635019Y-107310463D01*
X125682131Y-107367869D01*
X125739537Y-107414981D01*
X125805030Y-107449988D01*
X125876095Y-107471545D01*
X125950000Y-107478824D01*
X126132750Y-107477000D01*
X126227000Y-107382750D01*
X126227000Y-106248000D01*
X126723000Y-106248000D01*
X126723000Y-107382750D01*
X126817250Y-107477000D01*
X127000000Y-107478824D01*
X127073905Y-107471545D01*
X127144970Y-107449988D01*
X127210463Y-107414981D01*
X127267869Y-107367869D01*
X127314981Y-107310463D01*
X127349988Y-107244970D01*
X127371545Y-107173905D01*
X127378824Y-107100000D01*
X127377000Y-106342250D01*
X127282750Y-106248000D01*
X126723000Y-106248000D01*
X126227000Y-106248000D01*
X125667250Y-106248000D01*
X125573000Y-106342250D01*
X125571176Y-107100000D01*
X124428824Y-107100000D01*
X124427000Y-106342250D01*
X124332750Y-106248000D01*
X123773000Y-106248000D01*
X123277000Y-106248000D01*
X123257000Y-106248000D01*
X123257000Y-105752000D01*
X123277000Y-105752000D01*
X123277000Y-105732000D01*
X123773000Y-105732000D01*
X123773000Y-105752000D01*
X124332750Y-105752000D01*
X124427000Y-105657750D01*
X124427074Y-105627000D01*
X125572926Y-105627000D01*
X125573000Y-105657750D01*
G36*
X128873000Y-76873000D02*
G01*
X127378278Y-76873000D01*
X127377000Y-76342250D01*
X127282750Y-76248000D01*
X126723000Y-76248000D01*
X126723000Y-76268000D01*
X126227000Y-76268000D01*
X126227000Y-76248000D01*
X125667250Y-76248000D01*
X125573000Y-76342250D01*
X125572614Y-76502724D01*
X125500000Y-76495572D01*
X124500000Y-76495572D01*
X124427386Y-76502724D01*
X124427000Y-76342250D01*
X124332750Y-76248000D01*
X123773000Y-76248000D01*
X123773000Y-76268000D01*
X123277000Y-76268000D01*
X123277000Y-76248000D01*
X123257000Y-76248000D01*
X123257000Y-75752000D01*
X123277000Y-75752000D01*
X123277000Y-74617250D01*
X123773000Y-74617250D01*
X123773000Y-75752000D01*
X124332750Y-75752000D01*
X124427000Y-75657750D01*
X124428824Y-74900000D01*
X125571176Y-74900000D01*
X125573000Y-75657750D01*
X125667250Y-75752000D01*
X126227000Y-75752000D01*
X126227000Y-74617250D01*
X126723000Y-74617250D01*
X126723000Y-75752000D01*
X127282750Y-75752000D01*
X127377000Y-75657750D01*
X127378824Y-74900000D01*
X127371545Y-74826095D01*
X127349988Y-74755030D01*
X127314981Y-74689537D01*
X127267869Y-74632131D01*
X127210463Y-74585019D01*
X127144970Y-74550012D01*
X127073905Y-74528455D01*
X127000000Y-74521176D01*
X126817250Y-74523000D01*
X126723000Y-74617250D01*
X126227000Y-74617250D01*
X126132750Y-74523000D01*
X125950000Y-74521176D01*
X125876095Y-74528455D01*
X125805030Y-74550012D01*
X125739537Y-74585019D01*
X125682131Y-74632131D01*
X125635019Y-74689537D01*
X125600012Y-74755030D01*
X125578455Y-74826095D01*
X125571176Y-74900000D01*
X124428824Y-74900000D01*
X124421545Y-74826095D01*
X124399988Y-74755030D01*
X124364981Y-74689537D01*
X124317869Y-74632131D01*
X124260463Y-74585019D01*
X124194970Y-74550012D01*
X124123905Y-74528455D01*
X124050000Y-74521176D01*
X123867250Y-74523000D01*
X123773000Y-74617250D01*
X123277000Y-74617250D01*
X123182750Y-74523000D01*
X123000000Y-74521176D01*
X122926095Y-74528455D01*
X122855030Y-74550012D01*
X122789537Y-74585019D01*
X122732131Y-74632131D01*
X122685019Y-74689537D01*
X122650012Y-74755030D01*
X122628455Y-74826095D01*
X122627000Y-74840868D01*
X122627000Y-72309111D01*
X122782756Y-72685141D01*
X123056570Y-73094932D01*
X123405068Y-73443430D01*
X123814859Y-73717244D01*
X124270194Y-73905849D01*
X124753575Y-74002000D01*
X125246425Y-74002000D01*
X125729806Y-73905849D01*
X126185141Y-73717244D01*
X126594932Y-73443430D01*
X126943430Y-73094932D01*
X127217244Y-72685141D01*
X127405849Y-72229806D01*
X127502000Y-71746425D01*
X127502000Y-71253575D01*
X127405849Y-70770194D01*
X127217244Y-70314859D01*
X126943430Y-69905068D01*
X126594932Y-69556570D01*
X126185141Y-69282756D01*
X125729806Y-69094151D01*
X125246425Y-68998000D01*
X124753575Y-68998000D01*
X124270194Y-69094151D01*
X123814859Y-69282756D01*
X123405068Y-69556570D01*
X123056570Y-69905068D01*
X122782756Y-70314859D01*
X122627000Y-70690889D01*
X122627000Y-67627000D01*
X128873000Y-67627000D01*
X128873000Y-76873000D01*
X128873000Y-76873000D01*
G37*
X128873000Y-76873000D02*
X127378278Y-76873000D01*
X127377000Y-76342250D01*
X127282750Y-76248000D01*
X126723000Y-76248000D01*
X126723000Y-76268000D01*
X126227000Y-76268000D01*
X126227000Y-76248000D01*
X125667250Y-76248000D01*
X125573000Y-76342250D01*
X125572614Y-76502724D01*
X125500000Y-76495572D01*
X124500000Y-76495572D01*
X124427386Y-76502724D01*
X124427000Y-76342250D01*
X124332750Y-76248000D01*
X123773000Y-76248000D01*
X123773000Y-76268000D01*
X123277000Y-76268000D01*
X123277000Y-76248000D01*
X123257000Y-76248000D01*
X123257000Y-75752000D01*
X123277000Y-75752000D01*
X123277000Y-74617250D01*
X123773000Y-74617250D01*
X123773000Y-75752000D01*
X124332750Y-75752000D01*
X124427000Y-75657750D01*
X124428824Y-74900000D01*
X125571176Y-74900000D01*
X125573000Y-75657750D01*
X125667250Y-75752000D01*
X126227000Y-75752000D01*
X126227000Y-74617250D01*
X126723000Y-74617250D01*
X126723000Y-75752000D01*
X127282750Y-75752000D01*
X127377000Y-75657750D01*
X127378824Y-74900000D01*
X127371545Y-74826095D01*
X127349988Y-74755030D01*
X127314981Y-74689537D01*
X127267869Y-74632131D01*
X127210463Y-74585019D01*
X127144970Y-74550012D01*
X127073905Y-74528455D01*
X127000000Y-74521176D01*
X126817250Y-74523000D01*
X126723000Y-74617250D01*
X126227000Y-74617250D01*
X126132750Y-74523000D01*
X125950000Y-74521176D01*
X125876095Y-74528455D01*
X125805030Y-74550012D01*
X125739537Y-74585019D01*
X125682131Y-74632131D01*
X125635019Y-74689537D01*
X125600012Y-74755030D01*
X125578455Y-74826095D01*
X125571176Y-74900000D01*
X124428824Y-74900000D01*
X124421545Y-74826095D01*
X124399988Y-74755030D01*
X124364981Y-74689537D01*
X124317869Y-74632131D01*
X124260463Y-74585019D01*
X124194970Y-74550012D01*
X124123905Y-74528455D01*
X124050000Y-74521176D01*
X123867250Y-74523000D01*
X123773000Y-74617250D01*
X123277000Y-74617250D01*
X123182750Y-74523000D01*
X123000000Y-74521176D01*
X122926095Y-74528455D01*
X122855030Y-74550012D01*
X122789537Y-74585019D01*
X122732131Y-74632131D01*
X122685019Y-74689537D01*
X122650012Y-74755030D01*
X122628455Y-74826095D01*
X122627000Y-74840868D01*
X122627000Y-72309111D01*
X122782756Y-72685141D01*
X123056570Y-73094932D01*
X123405068Y-73443430D01*
X123814859Y-73717244D01*
X124270194Y-73905849D01*
X124753575Y-74002000D01*
X125246425Y-74002000D01*
X125729806Y-73905849D01*
X126185141Y-73717244D01*
X126594932Y-73443430D01*
X126943430Y-73094932D01*
X127217244Y-72685141D01*
X127405849Y-72229806D01*
X127502000Y-71746425D01*
X127502000Y-71253575D01*
X127405849Y-70770194D01*
X127217244Y-70314859D01*
X126943430Y-69905068D01*
X126594932Y-69556570D01*
X126185141Y-69282756D01*
X125729806Y-69094151D01*
X125246425Y-68998000D01*
X124753575Y-68998000D01*
X124270194Y-69094151D01*
X123814859Y-69282756D01*
X123405068Y-69556570D01*
X123056570Y-69905068D01*
X122782756Y-70314859D01*
X122627000Y-70690889D01*
X122627000Y-67627000D01*
X128873000Y-67627000D01*
X128873000Y-76873000D01*
G36*
X93873000Y-105552606D02*
G01*
X93873000Y-107828366D01*
X93800000Y-107821176D01*
X93342250Y-107823000D01*
X93248000Y-107917250D01*
X93248000Y-108752000D01*
X93268000Y-108752000D01*
X93268000Y-109248000D01*
X93248000Y-109248000D01*
X93248000Y-110082750D01*
X93342250Y-110177000D01*
X93800000Y-110178824D01*
X93873000Y-110171634D01*
X93873000Y-110248000D01*
X90861488Y-110248000D01*
X90607867Y-109994379D01*
X90584317Y-109965683D01*
X90469810Y-109871710D01*
X90449161Y-109860673D01*
X90388488Y-109800000D01*
X91821176Y-109800000D01*
X91828455Y-109873905D01*
X91850012Y-109944970D01*
X91885019Y-110010463D01*
X91932131Y-110067869D01*
X91989537Y-110114981D01*
X92055030Y-110149988D01*
X92126095Y-110171545D01*
X92200000Y-110178824D01*
X92657750Y-110177000D01*
X92752000Y-110082750D01*
X92752000Y-109248000D01*
X91917250Y-109248000D01*
X91823000Y-109342250D01*
X91821176Y-109800000D01*
X90388488Y-109800000D01*
X90054428Y-109465940D01*
X90054428Y-109000000D01*
X90044736Y-108901591D01*
X90016031Y-108806964D01*
X89969417Y-108719755D01*
X89906684Y-108643316D01*
X89830245Y-108580583D01*
X89743036Y-108533969D01*
X89648409Y-108505264D01*
X89550000Y-108495572D01*
X88978281Y-108495572D01*
X88977000Y-108367250D01*
X88882750Y-108273000D01*
X87748000Y-108273000D01*
X87748000Y-108832750D01*
X87842250Y-108927000D01*
X88002724Y-108927386D01*
X87995572Y-109000000D01*
X87995572Y-110000000D01*
X88002724Y-110072614D01*
X87842250Y-110073000D01*
X87748000Y-110167250D01*
X87748000Y-110727000D01*
X88882750Y-110727000D01*
X88977000Y-110632750D01*
X88978159Y-110516647D01*
X89467133Y-111005621D01*
X89490683Y-111034317D01*
X89605190Y-111128290D01*
X89625839Y-111139327D01*
X89992133Y-111505621D01*
X90015683Y-111534317D01*
X90130190Y-111628290D01*
X90260830Y-111698118D01*
X90402582Y-111741119D01*
X90513062Y-111752000D01*
X90513064Y-111752000D01*
X90550000Y-111755638D01*
X90586935Y-111752000D01*
X93873000Y-111752000D01*
X93873000Y-113373000D01*
X85127000Y-113373000D01*
X85127000Y-111500000D01*
X86021176Y-111500000D01*
X86028455Y-111573905D01*
X86050012Y-111644970D01*
X86085019Y-111710463D01*
X86132131Y-111767869D01*
X86189537Y-111814981D01*
X86255030Y-111849988D01*
X86326095Y-111871545D01*
X86400000Y-111878824D01*
X87157750Y-111877000D01*
X87252000Y-111782750D01*
X87252000Y-111223000D01*
X87748000Y-111223000D01*
X87748000Y-111782750D01*
X87842250Y-111877000D01*
X88600000Y-111878824D01*
X88673905Y-111871545D01*
X88744970Y-111849988D01*
X88810463Y-111814981D01*
X88867869Y-111767869D01*
X88914981Y-111710463D01*
X88949988Y-111644970D01*
X88971545Y-111573905D01*
X88978824Y-111500000D01*
X88977000Y-111317250D01*
X88882750Y-111223000D01*
X87748000Y-111223000D01*
X87252000Y-111223000D01*
X86117250Y-111223000D01*
X86023000Y-111317250D01*
X86021176Y-111500000D01*
X85127000Y-111500000D01*
X85127000Y-110450000D01*
X86021176Y-110450000D01*
X86023000Y-110632750D01*
X86117250Y-110727000D01*
X87252000Y-110727000D01*
X87252000Y-110167250D01*
X87157750Y-110073000D01*
X86400000Y-110071176D01*
X86326095Y-110078455D01*
X86255030Y-110100012D01*
X86189537Y-110135019D01*
X86132131Y-110182131D01*
X86085019Y-110239537D01*
X86050012Y-110305030D01*
X86028455Y-110376095D01*
X86021176Y-110450000D01*
X85127000Y-110450000D01*
X85127000Y-108550000D01*
X86021176Y-108550000D01*
X86028455Y-108623905D01*
X86050012Y-108694970D01*
X86085019Y-108760463D01*
X86132131Y-108817869D01*
X86189537Y-108864981D01*
X86255030Y-108899988D01*
X86326095Y-108921545D01*
X86400000Y-108928824D01*
X87157750Y-108927000D01*
X87252000Y-108832750D01*
X87252000Y-108273000D01*
X86117250Y-108273000D01*
X86023000Y-108367250D01*
X86021176Y-108550000D01*
X85127000Y-108550000D01*
X85127000Y-108200000D01*
X91821176Y-108200000D01*
X91823000Y-108657750D01*
X91917250Y-108752000D01*
X92752000Y-108752000D01*
X92752000Y-107917250D01*
X92657750Y-107823000D01*
X92200000Y-107821176D01*
X92126095Y-107828455D01*
X92055030Y-107850012D01*
X91989537Y-107885019D01*
X91932131Y-107932131D01*
X91885019Y-107989537D01*
X91850012Y-108055030D01*
X91828455Y-108126095D01*
X91821176Y-108200000D01*
X85127000Y-108200000D01*
X85127000Y-107500000D01*
X86021176Y-107500000D01*
X86023000Y-107682750D01*
X86117250Y-107777000D01*
X87252000Y-107777000D01*
X87252000Y-107217250D01*
X87748000Y-107217250D01*
X87748000Y-107777000D01*
X88882750Y-107777000D01*
X88977000Y-107682750D01*
X88978824Y-107500000D01*
X88971545Y-107426095D01*
X88949988Y-107355030D01*
X88914981Y-107289537D01*
X88867869Y-107232131D01*
X88810463Y-107185019D01*
X88744970Y-107150012D01*
X88673905Y-107128455D01*
X88600000Y-107121176D01*
X87842250Y-107123000D01*
X87748000Y-107217250D01*
X87252000Y-107217250D01*
X87157750Y-107123000D01*
X86400000Y-107121176D01*
X86326095Y-107128455D01*
X86255030Y-107150012D01*
X86189537Y-107185019D01*
X86132131Y-107232131D01*
X86085019Y-107289537D01*
X86050012Y-107355030D01*
X86028455Y-107426095D01*
X86021176Y-107500000D01*
X85127000Y-107500000D01*
X85127000Y-103627000D01*
X91947394Y-103627000D01*
X93873000Y-105552606D01*
X93873000Y-105552606D01*
G37*
X93873000Y-105552606D02*
X93873000Y-107828366D01*
X93800000Y-107821176D01*
X93342250Y-107823000D01*
X93248000Y-107917250D01*
X93248000Y-108752000D01*
X93268000Y-108752000D01*
X93268000Y-109248000D01*
X93248000Y-109248000D01*
X93248000Y-110082750D01*
X93342250Y-110177000D01*
X93800000Y-110178824D01*
X93873000Y-110171634D01*
X93873000Y-110248000D01*
X90861488Y-110248000D01*
X90607867Y-109994379D01*
X90584317Y-109965683D01*
X90469810Y-109871710D01*
X90449161Y-109860673D01*
X90388488Y-109800000D01*
X91821176Y-109800000D01*
X91828455Y-109873905D01*
X91850012Y-109944970D01*
X91885019Y-110010463D01*
X91932131Y-110067869D01*
X91989537Y-110114981D01*
X92055030Y-110149988D01*
X92126095Y-110171545D01*
X92200000Y-110178824D01*
X92657750Y-110177000D01*
X92752000Y-110082750D01*
X92752000Y-109248000D01*
X91917250Y-109248000D01*
X91823000Y-109342250D01*
X91821176Y-109800000D01*
X90388488Y-109800000D01*
X90054428Y-109465940D01*
X90054428Y-109000000D01*
X90044736Y-108901591D01*
X90016031Y-108806964D01*
X89969417Y-108719755D01*
X89906684Y-108643316D01*
X89830245Y-108580583D01*
X89743036Y-108533969D01*
X89648409Y-108505264D01*
X89550000Y-108495572D01*
X88978281Y-108495572D01*
X88977000Y-108367250D01*
X88882750Y-108273000D01*
X87748000Y-108273000D01*
X87748000Y-108832750D01*
X87842250Y-108927000D01*
X88002724Y-108927386D01*
X87995572Y-109000000D01*
X87995572Y-110000000D01*
X88002724Y-110072614D01*
X87842250Y-110073000D01*
X87748000Y-110167250D01*
X87748000Y-110727000D01*
X88882750Y-110727000D01*
X88977000Y-110632750D01*
X88978159Y-110516647D01*
X89467133Y-111005621D01*
X89490683Y-111034317D01*
X89605190Y-111128290D01*
X89625839Y-111139327D01*
X89992133Y-111505621D01*
X90015683Y-111534317D01*
X90130190Y-111628290D01*
X90260830Y-111698118D01*
X90402582Y-111741119D01*
X90513062Y-111752000D01*
X90513064Y-111752000D01*
X90550000Y-111755638D01*
X90586935Y-111752000D01*
X93873000Y-111752000D01*
X93873000Y-113373000D01*
X85127000Y-113373000D01*
X85127000Y-111500000D01*
X86021176Y-111500000D01*
X86028455Y-111573905D01*
X86050012Y-111644970D01*
X86085019Y-111710463D01*
X86132131Y-111767869D01*
X86189537Y-111814981D01*
X86255030Y-111849988D01*
X86326095Y-111871545D01*
X86400000Y-111878824D01*
X87157750Y-111877000D01*
X87252000Y-111782750D01*
X87252000Y-111223000D01*
X87748000Y-111223000D01*
X87748000Y-111782750D01*
X87842250Y-111877000D01*
X88600000Y-111878824D01*
X88673905Y-111871545D01*
X88744970Y-111849988D01*
X88810463Y-111814981D01*
X88867869Y-111767869D01*
X88914981Y-111710463D01*
X88949988Y-111644970D01*
X88971545Y-111573905D01*
X88978824Y-111500000D01*
X88977000Y-111317250D01*
X88882750Y-111223000D01*
X87748000Y-111223000D01*
X87252000Y-111223000D01*
X86117250Y-111223000D01*
X86023000Y-111317250D01*
X86021176Y-111500000D01*
X85127000Y-111500000D01*
X85127000Y-110450000D01*
X86021176Y-110450000D01*
X86023000Y-110632750D01*
X86117250Y-110727000D01*
X87252000Y-110727000D01*
X87252000Y-110167250D01*
X87157750Y-110073000D01*
X86400000Y-110071176D01*
X86326095Y-110078455D01*
X86255030Y-110100012D01*
X86189537Y-110135019D01*
X86132131Y-110182131D01*
X86085019Y-110239537D01*
X86050012Y-110305030D01*
X86028455Y-110376095D01*
X86021176Y-110450000D01*
X85127000Y-110450000D01*
X85127000Y-108550000D01*
X86021176Y-108550000D01*
X86028455Y-108623905D01*
X86050012Y-108694970D01*
X86085019Y-108760463D01*
X86132131Y-108817869D01*
X86189537Y-108864981D01*
X86255030Y-108899988D01*
X86326095Y-108921545D01*
X86400000Y-108928824D01*
X87157750Y-108927000D01*
X87252000Y-108832750D01*
X87252000Y-108273000D01*
X86117250Y-108273000D01*
X86023000Y-108367250D01*
X86021176Y-108550000D01*
X85127000Y-108550000D01*
X85127000Y-108200000D01*
X91821176Y-108200000D01*
X91823000Y-108657750D01*
X91917250Y-108752000D01*
X92752000Y-108752000D01*
X92752000Y-107917250D01*
X92657750Y-107823000D01*
X92200000Y-107821176D01*
X92126095Y-107828455D01*
X92055030Y-107850012D01*
X91989537Y-107885019D01*
X91932131Y-107932131D01*
X91885019Y-107989537D01*
X91850012Y-108055030D01*
X91828455Y-108126095D01*
X91821176Y-108200000D01*
X85127000Y-108200000D01*
X85127000Y-107500000D01*
X86021176Y-107500000D01*
X86023000Y-107682750D01*
X86117250Y-107777000D01*
X87252000Y-107777000D01*
X87252000Y-107217250D01*
X87748000Y-107217250D01*
X87748000Y-107777000D01*
X88882750Y-107777000D01*
X88977000Y-107682750D01*
X88978824Y-107500000D01*
X88971545Y-107426095D01*
X88949988Y-107355030D01*
X88914981Y-107289537D01*
X88867869Y-107232131D01*
X88810463Y-107185019D01*
X88744970Y-107150012D01*
X88673905Y-107128455D01*
X88600000Y-107121176D01*
X87842250Y-107123000D01*
X87748000Y-107217250D01*
X87252000Y-107217250D01*
X87157750Y-107123000D01*
X86400000Y-107121176D01*
X86326095Y-107128455D01*
X86255030Y-107150012D01*
X86189537Y-107185019D01*
X86132131Y-107232131D01*
X86085019Y-107289537D01*
X86050012Y-107355030D01*
X86028455Y-107426095D01*
X86021176Y-107500000D01*
X85127000Y-107500000D01*
X85127000Y-103627000D01*
X91947394Y-103627000D01*
X93873000Y-105552606D01*
G36*
X93873000Y-71477725D02*
G01*
X93350725Y-72000000D01*
X93873000Y-72522275D01*
X93873000Y-73248000D01*
X89554428Y-73248000D01*
X89554428Y-73000000D01*
X89547019Y-72924765D01*
X92425960Y-72924765D01*
X92520921Y-73081319D01*
X92741082Y-73154005D01*
X92971192Y-73182344D01*
X93202409Y-73165246D01*
X93425848Y-73103368D01*
X93479079Y-73081319D01*
X93574040Y-72924765D01*
X93000000Y-72350725D01*
X92425960Y-72924765D01*
X89547019Y-72924765D01*
X89544736Y-72901591D01*
X89516031Y-72806964D01*
X89469417Y-72719755D01*
X89406684Y-72643316D01*
X89330245Y-72580583D01*
X89243036Y-72533969D01*
X89148409Y-72505264D01*
X89050000Y-72495572D01*
X88478281Y-72495572D01*
X88477000Y-72367250D01*
X88382750Y-72273000D01*
X87248000Y-72273000D01*
X87248000Y-72832750D01*
X87342250Y-72927000D01*
X87502724Y-72927386D01*
X87495572Y-73000000D01*
X87495572Y-74000000D01*
X87502724Y-74072614D01*
X87342250Y-74073000D01*
X87248000Y-74167250D01*
X87248000Y-74727000D01*
X88382750Y-74727000D01*
X88477000Y-74632750D01*
X88478281Y-74504428D01*
X88490940Y-74504428D01*
X88492133Y-74505621D01*
X88515683Y-74534317D01*
X88630190Y-74628290D01*
X88760830Y-74698118D01*
X88902582Y-74741119D01*
X89013062Y-74752000D01*
X89013064Y-74752000D01*
X89050000Y-74755638D01*
X89086935Y-74752000D01*
X93873000Y-74752000D01*
X93873000Y-75947394D01*
X92447394Y-77373000D01*
X85127000Y-77373000D01*
X85127000Y-75500000D01*
X85521176Y-75500000D01*
X85528455Y-75573905D01*
X85550012Y-75644970D01*
X85585019Y-75710463D01*
X85632131Y-75767869D01*
X85689537Y-75814981D01*
X85755030Y-75849988D01*
X85826095Y-75871545D01*
X85900000Y-75878824D01*
X86657750Y-75877000D01*
X86752000Y-75782750D01*
X86752000Y-75223000D01*
X87248000Y-75223000D01*
X87248000Y-75782750D01*
X87342250Y-75877000D01*
X88100000Y-75878824D01*
X88173905Y-75871545D01*
X88244970Y-75849988D01*
X88310463Y-75814981D01*
X88367869Y-75767869D01*
X88414981Y-75710463D01*
X88449988Y-75644970D01*
X88471545Y-75573905D01*
X88478824Y-75500000D01*
X88477000Y-75317250D01*
X88382750Y-75223000D01*
X87248000Y-75223000D01*
X86752000Y-75223000D01*
X85617250Y-75223000D01*
X85523000Y-75317250D01*
X85521176Y-75500000D01*
X85127000Y-75500000D01*
X85127000Y-74450000D01*
X85521176Y-74450000D01*
X85523000Y-74632750D01*
X85617250Y-74727000D01*
X86752000Y-74727000D01*
X86752000Y-74167250D01*
X86657750Y-74073000D01*
X85900000Y-74071176D01*
X85826095Y-74078455D01*
X85755030Y-74100012D01*
X85689537Y-74135019D01*
X85632131Y-74182131D01*
X85585019Y-74239537D01*
X85550012Y-74305030D01*
X85528455Y-74376095D01*
X85521176Y-74450000D01*
X85127000Y-74450000D01*
X85127000Y-72550000D01*
X85521176Y-72550000D01*
X85528455Y-72623905D01*
X85550012Y-72694970D01*
X85585019Y-72760463D01*
X85632131Y-72817869D01*
X85689537Y-72864981D01*
X85755030Y-72899988D01*
X85826095Y-72921545D01*
X85900000Y-72928824D01*
X86657750Y-72927000D01*
X86752000Y-72832750D01*
X86752000Y-72273000D01*
X85617250Y-72273000D01*
X85523000Y-72367250D01*
X85521176Y-72550000D01*
X85127000Y-72550000D01*
X85127000Y-71971192D01*
X91817656Y-71971192D01*
X91834754Y-72202409D01*
X91896632Y-72425848D01*
X91918681Y-72479079D01*
X92075235Y-72574040D01*
X92649275Y-72000000D01*
X92075235Y-71425960D01*
X91918681Y-71520921D01*
X91845995Y-71741082D01*
X91817656Y-71971192D01*
X85127000Y-71971192D01*
X85127000Y-71500000D01*
X85521176Y-71500000D01*
X85523000Y-71682750D01*
X85617250Y-71777000D01*
X86752000Y-71777000D01*
X86752000Y-71217250D01*
X87248000Y-71217250D01*
X87248000Y-71777000D01*
X88382750Y-71777000D01*
X88477000Y-71682750D01*
X88478824Y-71500000D01*
X88471545Y-71426095D01*
X88449988Y-71355030D01*
X88414981Y-71289537D01*
X88367869Y-71232131D01*
X88310463Y-71185019D01*
X88244970Y-71150012D01*
X88173905Y-71128455D01*
X88100000Y-71121176D01*
X87342250Y-71123000D01*
X87248000Y-71217250D01*
X86752000Y-71217250D01*
X86657750Y-71123000D01*
X85900000Y-71121176D01*
X85826095Y-71128455D01*
X85755030Y-71150012D01*
X85689537Y-71185019D01*
X85632131Y-71232131D01*
X85585019Y-71289537D01*
X85550012Y-71355030D01*
X85528455Y-71426095D01*
X85521176Y-71500000D01*
X85127000Y-71500000D01*
X85127000Y-71075235D01*
X92425960Y-71075235D01*
X93000000Y-71649275D01*
X93574040Y-71075235D01*
X93479079Y-70918681D01*
X93258918Y-70845995D01*
X93028808Y-70817656D01*
X92797591Y-70834754D01*
X92574152Y-70896632D01*
X92520921Y-70918681D01*
X92425960Y-71075235D01*
X85127000Y-71075235D01*
X85127000Y-67627000D01*
X93873000Y-67627000D01*
X93873000Y-71477725D01*
X93873000Y-71477725D01*
G37*
X93873000Y-71477725D02*
X93350725Y-72000000D01*
X93873000Y-72522275D01*
X93873000Y-73248000D01*
X89554428Y-73248000D01*
X89554428Y-73000000D01*
X89547019Y-72924765D01*
X92425960Y-72924765D01*
X92520921Y-73081319D01*
X92741082Y-73154005D01*
X92971192Y-73182344D01*
X93202409Y-73165246D01*
X93425848Y-73103368D01*
X93479079Y-73081319D01*
X93574040Y-72924765D01*
X93000000Y-72350725D01*
X92425960Y-72924765D01*
X89547019Y-72924765D01*
X89544736Y-72901591D01*
X89516031Y-72806964D01*
X89469417Y-72719755D01*
X89406684Y-72643316D01*
X89330245Y-72580583D01*
X89243036Y-72533969D01*
X89148409Y-72505264D01*
X89050000Y-72495572D01*
X88478281Y-72495572D01*
X88477000Y-72367250D01*
X88382750Y-72273000D01*
X87248000Y-72273000D01*
X87248000Y-72832750D01*
X87342250Y-72927000D01*
X87502724Y-72927386D01*
X87495572Y-73000000D01*
X87495572Y-74000000D01*
X87502724Y-74072614D01*
X87342250Y-74073000D01*
X87248000Y-74167250D01*
X87248000Y-74727000D01*
X88382750Y-74727000D01*
X88477000Y-74632750D01*
X88478281Y-74504428D01*
X88490940Y-74504428D01*
X88492133Y-74505621D01*
X88515683Y-74534317D01*
X88630190Y-74628290D01*
X88760830Y-74698118D01*
X88902582Y-74741119D01*
X89013062Y-74752000D01*
X89013064Y-74752000D01*
X89050000Y-74755638D01*
X89086935Y-74752000D01*
X93873000Y-74752000D01*
X93873000Y-75947394D01*
X92447394Y-77373000D01*
X85127000Y-77373000D01*
X85127000Y-75500000D01*
X85521176Y-75500000D01*
X85528455Y-75573905D01*
X85550012Y-75644970D01*
X85585019Y-75710463D01*
X85632131Y-75767869D01*
X85689537Y-75814981D01*
X85755030Y-75849988D01*
X85826095Y-75871545D01*
X85900000Y-75878824D01*
X86657750Y-75877000D01*
X86752000Y-75782750D01*
X86752000Y-75223000D01*
X87248000Y-75223000D01*
X87248000Y-75782750D01*
X87342250Y-75877000D01*
X88100000Y-75878824D01*
X88173905Y-75871545D01*
X88244970Y-75849988D01*
X88310463Y-75814981D01*
X88367869Y-75767869D01*
X88414981Y-75710463D01*
X88449988Y-75644970D01*
X88471545Y-75573905D01*
X88478824Y-75500000D01*
X88477000Y-75317250D01*
X88382750Y-75223000D01*
X87248000Y-75223000D01*
X86752000Y-75223000D01*
X85617250Y-75223000D01*
X85523000Y-75317250D01*
X85521176Y-75500000D01*
X85127000Y-75500000D01*
X85127000Y-74450000D01*
X85521176Y-74450000D01*
X85523000Y-74632750D01*
X85617250Y-74727000D01*
X86752000Y-74727000D01*
X86752000Y-74167250D01*
X86657750Y-74073000D01*
X85900000Y-74071176D01*
X85826095Y-74078455D01*
X85755030Y-74100012D01*
X85689537Y-74135019D01*
X85632131Y-74182131D01*
X85585019Y-74239537D01*
X85550012Y-74305030D01*
X85528455Y-74376095D01*
X85521176Y-74450000D01*
X85127000Y-74450000D01*
X85127000Y-72550000D01*
X85521176Y-72550000D01*
X85528455Y-72623905D01*
X85550012Y-72694970D01*
X85585019Y-72760463D01*
X85632131Y-72817869D01*
X85689537Y-72864981D01*
X85755030Y-72899988D01*
X85826095Y-72921545D01*
X85900000Y-72928824D01*
X86657750Y-72927000D01*
X86752000Y-72832750D01*
X86752000Y-72273000D01*
X85617250Y-72273000D01*
X85523000Y-72367250D01*
X85521176Y-72550000D01*
X85127000Y-72550000D01*
X85127000Y-71971192D01*
X91817656Y-71971192D01*
X91834754Y-72202409D01*
X91896632Y-72425848D01*
X91918681Y-72479079D01*
X92075235Y-72574040D01*
X92649275Y-72000000D01*
X92075235Y-71425960D01*
X91918681Y-71520921D01*
X91845995Y-71741082D01*
X91817656Y-71971192D01*
X85127000Y-71971192D01*
X85127000Y-71500000D01*
X85521176Y-71500000D01*
X85523000Y-71682750D01*
X85617250Y-71777000D01*
X86752000Y-71777000D01*
X86752000Y-71217250D01*
X87248000Y-71217250D01*
X87248000Y-71777000D01*
X88382750Y-71777000D01*
X88477000Y-71682750D01*
X88478824Y-71500000D01*
X88471545Y-71426095D01*
X88449988Y-71355030D01*
X88414981Y-71289537D01*
X88367869Y-71232131D01*
X88310463Y-71185019D01*
X88244970Y-71150012D01*
X88173905Y-71128455D01*
X88100000Y-71121176D01*
X87342250Y-71123000D01*
X87248000Y-71217250D01*
X86752000Y-71217250D01*
X86657750Y-71123000D01*
X85900000Y-71121176D01*
X85826095Y-71128455D01*
X85755030Y-71150012D01*
X85689537Y-71185019D01*
X85632131Y-71232131D01*
X85585019Y-71289537D01*
X85550012Y-71355030D01*
X85528455Y-71426095D01*
X85521176Y-71500000D01*
X85127000Y-71500000D01*
X85127000Y-71075235D01*
X92425960Y-71075235D01*
X93000000Y-71649275D01*
X93574040Y-71075235D01*
X93479079Y-70918681D01*
X93258918Y-70845995D01*
X93028808Y-70817656D01*
X92797591Y-70834754D01*
X92574152Y-70896632D01*
X92520921Y-70918681D01*
X92425960Y-71075235D01*
X85127000Y-71075235D01*
X85127000Y-67627000D01*
X93873000Y-67627000D01*
X93873000Y-71477725D01*
M02*
