%FSLAX45Y45*%
G04 Gerber Fmt 4.5, Leading zero omitted, Abs format (unit mm)*
G04 Created by KiCad (PCBNEW (5.1.4)-1) date 2021-06-03 13:44:48*
%MOMM*%
%LPD*%
G04 APERTURE LIST*
%ADD10C,0.050000*%
%ADD11C,0.200000*%
%ADD12C,0.300000*%
G04 APERTURE END LIST*
D10*
X12950000Y-11400000D02*
X4300000Y-11400000D01*
X12950000Y-6700000D02*
X12950000Y-11400000D01*
X4300000Y-6700000D02*
X4300000Y-11400000D01*
X12950000Y-6700000D02*
X4300000Y-6700000D01*
D11*
D12*
X4583928Y-11868214D02*
X4583928Y-11568214D01*
X4655357Y-11568214D01*
X4698214Y-11582500D01*
X4726786Y-11611071D01*
X4741071Y-11639643D01*
X4755357Y-11696786D01*
X4755357Y-11739643D01*
X4741071Y-11796786D01*
X4726786Y-11825357D01*
X4698214Y-11853929D01*
X4655357Y-11868214D01*
X4583928Y-11868214D01*
X4883928Y-11868214D02*
X4883928Y-11668214D01*
X4883928Y-11725357D02*
X4898214Y-11696786D01*
X4912500Y-11682500D01*
X4941071Y-11668214D01*
X4969643Y-11668214D01*
X5069643Y-11868214D02*
X5069643Y-11668214D01*
X5069643Y-11568214D02*
X5055357Y-11582500D01*
X5069643Y-11596786D01*
X5083928Y-11582500D01*
X5069643Y-11568214D01*
X5069643Y-11596786D01*
X5255357Y-11868214D02*
X5226786Y-11853929D01*
X5212500Y-11825357D01*
X5212500Y-11568214D01*
X5412500Y-11868214D02*
X5383928Y-11853929D01*
X5369643Y-11825357D01*
X5369643Y-11568214D01*
X5755357Y-11868214D02*
X5755357Y-11568214D01*
X5855357Y-11782500D01*
X5955357Y-11568214D01*
X5955357Y-11868214D01*
X6226786Y-11868214D02*
X6226786Y-11711071D01*
X6212500Y-11682500D01*
X6183928Y-11668214D01*
X6126786Y-11668214D01*
X6098214Y-11682500D01*
X6226786Y-11853929D02*
X6198214Y-11868214D01*
X6126786Y-11868214D01*
X6098214Y-11853929D01*
X6083928Y-11825357D01*
X6083928Y-11796786D01*
X6098214Y-11768214D01*
X6126786Y-11753929D01*
X6198214Y-11753929D01*
X6226786Y-11739643D01*
X6369643Y-11668214D02*
X6369643Y-11968214D01*
X6369643Y-11682500D02*
X6398214Y-11668214D01*
X6455357Y-11668214D01*
X6483928Y-11682500D01*
X6498214Y-11696786D01*
X6512500Y-11725357D01*
X6512500Y-11811071D01*
X6498214Y-11839643D01*
X6483928Y-11853929D01*
X6455357Y-11868214D01*
X6398214Y-11868214D01*
X6369643Y-11853929D01*
X6641071Y-11839643D02*
X6655357Y-11853929D01*
X6641071Y-11868214D01*
X6626786Y-11853929D01*
X6641071Y-11839643D01*
X6641071Y-11868214D01*
X6641071Y-11682500D02*
X6655357Y-11696786D01*
X6641071Y-11711071D01*
X6626786Y-11696786D01*
X6641071Y-11682500D01*
X6641071Y-11711071D01*
M02*
