G04 #@! TF.GenerationSoftware,KiCad,Pcbnew,(5.1.4)-1*
G04 #@! TF.CreationDate,2021-09-06T11:03:46-04:00*
G04 #@! TF.ProjectId,relay_array,72656c61-795f-4617-9272-61792e6b6963,rev?*
G04 #@! TF.SameCoordinates,Original*
G04 #@! TF.FileFunction,Legend,Bot*
G04 #@! TF.FilePolarity,Positive*
%FSLAX46Y46*%
G04 Gerber Fmt 4.6, Leading zero omitted, Abs format (unit mm)*
G04 Created by KiCad (PCBNEW (5.1.4)-1) date 2021-09-06 11:03:46*
%MOMM*%
%LPD*%
G04 APERTURE LIST*
%ADD10C,1.852000*%
%ADD11C,3.602000*%
%ADD12O,1.802000X1.802000*%
%ADD13R,1.802000X1.802000*%
G04 APERTURE END LIST*
%LPC*%
D10*
X211350000Y-112500000D03*
D11*
X215150000Y-99700000D03*
D10*
X201150000Y-112500000D03*
D11*
X197350000Y-97200000D03*
X197350000Y-89600000D03*
D10*
X181350000Y-112500000D03*
D11*
X185150000Y-99700000D03*
D10*
X171150000Y-112500000D03*
D11*
X167350000Y-97200000D03*
X167350000Y-89600000D03*
D12*
X218580000Y-136000000D03*
X216040000Y-136000000D03*
D13*
X213500000Y-136000000D03*
D12*
X209040000Y-136000000D03*
D13*
X206500000Y-136000000D03*
D12*
X202790000Y-136000000D03*
D13*
X200250000Y-136000000D03*
D12*
X196540000Y-136000000D03*
D13*
X194000000Y-136000000D03*
D12*
X188580000Y-136000000D03*
X186040000Y-136000000D03*
D13*
X183500000Y-136000000D03*
D12*
X179040000Y-136000000D03*
D13*
X176500000Y-136000000D03*
D12*
X172790000Y-136000000D03*
D13*
X170250000Y-136000000D03*
D12*
X166540000Y-136000000D03*
D13*
X164000000Y-136000000D03*
D12*
X158580000Y-136000000D03*
X156040000Y-136000000D03*
D13*
X153500000Y-136000000D03*
D12*
X149040000Y-136000000D03*
D13*
X146500000Y-136000000D03*
D12*
X142790000Y-136000000D03*
D13*
X140250000Y-136000000D03*
D12*
X136540000Y-136000000D03*
D13*
X134000000Y-136000000D03*
D10*
X151350000Y-112500000D03*
D11*
X155150000Y-99700000D03*
D10*
X141150000Y-112500000D03*
D11*
X137350000Y-97200000D03*
X137350000Y-89600000D03*
M02*
