G04 #@! TF.GenerationSoftware,KiCad,Pcbnew,(5.1.4)-1*
G04 #@! TF.CreationDate,2021-09-06T11:03:46-04:00*
G04 #@! TF.ProjectId,relay_array,72656c61-795f-4617-9272-61792e6b6963,rev?*
G04 #@! TF.SameCoordinates,Original*
G04 #@! TF.FileFunction,Soldermask,Bot*
G04 #@! TF.FilePolarity,Negative*
%FSLAX46Y46*%
G04 Gerber Fmt 4.6, Leading zero omitted, Abs format (unit mm)*
G04 Created by KiCad (PCBNEW (5.1.4)-1) date 2021-09-06 11:03:46*
%MOMM*%
%LPD*%
G04 APERTURE LIST*
%ADD10C,0.100000*%
G04 APERTURE END LIST*
D10*
G36*
X134901000Y-136901000D02*
G01*
X133099000Y-136901000D01*
X133099000Y-135099000D01*
X134901000Y-135099000D01*
X134901000Y-136901000D01*
X134901000Y-136901000D01*
G37*
G36*
X207401000Y-136901000D02*
G01*
X205599000Y-136901000D01*
X205599000Y-135099000D01*
X207401000Y-135099000D01*
X207401000Y-136901000D01*
X207401000Y-136901000D01*
G37*
G36*
X209150442Y-135105518D02*
G01*
X209216627Y-135112037D01*
X209386466Y-135163557D01*
X209542991Y-135247222D01*
X209578729Y-135276552D01*
X209680186Y-135359814D01*
X209763448Y-135461271D01*
X209792778Y-135497009D01*
X209876443Y-135653534D01*
X209927963Y-135823373D01*
X209945359Y-136000000D01*
X209927963Y-136176627D01*
X209876443Y-136346466D01*
X209792778Y-136502991D01*
X209763448Y-136538729D01*
X209680186Y-136640186D01*
X209578729Y-136723448D01*
X209542991Y-136752778D01*
X209386466Y-136836443D01*
X209216627Y-136887963D01*
X209150442Y-136894482D01*
X209084260Y-136901000D01*
X208995740Y-136901000D01*
X208929558Y-136894482D01*
X208863373Y-136887963D01*
X208693534Y-136836443D01*
X208537009Y-136752778D01*
X208501271Y-136723448D01*
X208399814Y-136640186D01*
X208316552Y-136538729D01*
X208287222Y-136502991D01*
X208203557Y-136346466D01*
X208152037Y-136176627D01*
X208134641Y-136000000D01*
X208152037Y-135823373D01*
X208203557Y-135653534D01*
X208287222Y-135497009D01*
X208316552Y-135461271D01*
X208399814Y-135359814D01*
X208501271Y-135276552D01*
X208537009Y-135247222D01*
X208693534Y-135163557D01*
X208863373Y-135112037D01*
X208929558Y-135105518D01*
X208995740Y-135099000D01*
X209084260Y-135099000D01*
X209150442Y-135105518D01*
X209150442Y-135105518D01*
G37*
G36*
X214401000Y-136901000D02*
G01*
X212599000Y-136901000D01*
X212599000Y-135099000D01*
X214401000Y-135099000D01*
X214401000Y-136901000D01*
X214401000Y-136901000D01*
G37*
G36*
X202900442Y-135105518D02*
G01*
X202966627Y-135112037D01*
X203136466Y-135163557D01*
X203292991Y-135247222D01*
X203328729Y-135276552D01*
X203430186Y-135359814D01*
X203513448Y-135461271D01*
X203542778Y-135497009D01*
X203626443Y-135653534D01*
X203677963Y-135823373D01*
X203695359Y-136000000D01*
X203677963Y-136176627D01*
X203626443Y-136346466D01*
X203542778Y-136502991D01*
X203513448Y-136538729D01*
X203430186Y-136640186D01*
X203328729Y-136723448D01*
X203292991Y-136752778D01*
X203136466Y-136836443D01*
X202966627Y-136887963D01*
X202900442Y-136894482D01*
X202834260Y-136901000D01*
X202745740Y-136901000D01*
X202679558Y-136894482D01*
X202613373Y-136887963D01*
X202443534Y-136836443D01*
X202287009Y-136752778D01*
X202251271Y-136723448D01*
X202149814Y-136640186D01*
X202066552Y-136538729D01*
X202037222Y-136502991D01*
X201953557Y-136346466D01*
X201902037Y-136176627D01*
X201884641Y-136000000D01*
X201902037Y-135823373D01*
X201953557Y-135653534D01*
X202037222Y-135497009D01*
X202066552Y-135461271D01*
X202149814Y-135359814D01*
X202251271Y-135276552D01*
X202287009Y-135247222D01*
X202443534Y-135163557D01*
X202613373Y-135112037D01*
X202679558Y-135105518D01*
X202745740Y-135099000D01*
X202834260Y-135099000D01*
X202900442Y-135105518D01*
X202900442Y-135105518D01*
G37*
G36*
X201151000Y-136901000D02*
G01*
X199349000Y-136901000D01*
X199349000Y-135099000D01*
X201151000Y-135099000D01*
X201151000Y-136901000D01*
X201151000Y-136901000D01*
G37*
G36*
X196650442Y-135105518D02*
G01*
X196716627Y-135112037D01*
X196886466Y-135163557D01*
X197042991Y-135247222D01*
X197078729Y-135276552D01*
X197180186Y-135359814D01*
X197263448Y-135461271D01*
X197292778Y-135497009D01*
X197376443Y-135653534D01*
X197427963Y-135823373D01*
X197445359Y-136000000D01*
X197427963Y-136176627D01*
X197376443Y-136346466D01*
X197292778Y-136502991D01*
X197263448Y-136538729D01*
X197180186Y-136640186D01*
X197078729Y-136723448D01*
X197042991Y-136752778D01*
X196886466Y-136836443D01*
X196716627Y-136887963D01*
X196650442Y-136894482D01*
X196584260Y-136901000D01*
X196495740Y-136901000D01*
X196429558Y-136894482D01*
X196363373Y-136887963D01*
X196193534Y-136836443D01*
X196037009Y-136752778D01*
X196001271Y-136723448D01*
X195899814Y-136640186D01*
X195816552Y-136538729D01*
X195787222Y-136502991D01*
X195703557Y-136346466D01*
X195652037Y-136176627D01*
X195634641Y-136000000D01*
X195652037Y-135823373D01*
X195703557Y-135653534D01*
X195787222Y-135497009D01*
X195816552Y-135461271D01*
X195899814Y-135359814D01*
X196001271Y-135276552D01*
X196037009Y-135247222D01*
X196193534Y-135163557D01*
X196363373Y-135112037D01*
X196429558Y-135105518D01*
X196495740Y-135099000D01*
X196584260Y-135099000D01*
X196650442Y-135105518D01*
X196650442Y-135105518D01*
G37*
G36*
X194901000Y-136901000D02*
G01*
X193099000Y-136901000D01*
X193099000Y-135099000D01*
X194901000Y-135099000D01*
X194901000Y-136901000D01*
X194901000Y-136901000D01*
G37*
G36*
X188690442Y-135105518D02*
G01*
X188756627Y-135112037D01*
X188926466Y-135163557D01*
X189082991Y-135247222D01*
X189118729Y-135276552D01*
X189220186Y-135359814D01*
X189303448Y-135461271D01*
X189332778Y-135497009D01*
X189416443Y-135653534D01*
X189467963Y-135823373D01*
X189485359Y-136000000D01*
X189467963Y-136176627D01*
X189416443Y-136346466D01*
X189332778Y-136502991D01*
X189303448Y-136538729D01*
X189220186Y-136640186D01*
X189118729Y-136723448D01*
X189082991Y-136752778D01*
X188926466Y-136836443D01*
X188756627Y-136887963D01*
X188690442Y-136894482D01*
X188624260Y-136901000D01*
X188535740Y-136901000D01*
X188469558Y-136894482D01*
X188403373Y-136887963D01*
X188233534Y-136836443D01*
X188077009Y-136752778D01*
X188041271Y-136723448D01*
X187939814Y-136640186D01*
X187856552Y-136538729D01*
X187827222Y-136502991D01*
X187743557Y-136346466D01*
X187692037Y-136176627D01*
X187674641Y-136000000D01*
X187692037Y-135823373D01*
X187743557Y-135653534D01*
X187827222Y-135497009D01*
X187856552Y-135461271D01*
X187939814Y-135359814D01*
X188041271Y-135276552D01*
X188077009Y-135247222D01*
X188233534Y-135163557D01*
X188403373Y-135112037D01*
X188469558Y-135105518D01*
X188535740Y-135099000D01*
X188624260Y-135099000D01*
X188690442Y-135105518D01*
X188690442Y-135105518D01*
G37*
G36*
X186150442Y-135105518D02*
G01*
X186216627Y-135112037D01*
X186386466Y-135163557D01*
X186542991Y-135247222D01*
X186578729Y-135276552D01*
X186680186Y-135359814D01*
X186763448Y-135461271D01*
X186792778Y-135497009D01*
X186876443Y-135653534D01*
X186927963Y-135823373D01*
X186945359Y-136000000D01*
X186927963Y-136176627D01*
X186876443Y-136346466D01*
X186792778Y-136502991D01*
X186763448Y-136538729D01*
X186680186Y-136640186D01*
X186578729Y-136723448D01*
X186542991Y-136752778D01*
X186386466Y-136836443D01*
X186216627Y-136887963D01*
X186150442Y-136894482D01*
X186084260Y-136901000D01*
X185995740Y-136901000D01*
X185929558Y-136894482D01*
X185863373Y-136887963D01*
X185693534Y-136836443D01*
X185537009Y-136752778D01*
X185501271Y-136723448D01*
X185399814Y-136640186D01*
X185316552Y-136538729D01*
X185287222Y-136502991D01*
X185203557Y-136346466D01*
X185152037Y-136176627D01*
X185134641Y-136000000D01*
X185152037Y-135823373D01*
X185203557Y-135653534D01*
X185287222Y-135497009D01*
X185316552Y-135461271D01*
X185399814Y-135359814D01*
X185501271Y-135276552D01*
X185537009Y-135247222D01*
X185693534Y-135163557D01*
X185863373Y-135112037D01*
X185929558Y-135105518D01*
X185995740Y-135099000D01*
X186084260Y-135099000D01*
X186150442Y-135105518D01*
X186150442Y-135105518D01*
G37*
G36*
X184401000Y-136901000D02*
G01*
X182599000Y-136901000D01*
X182599000Y-135099000D01*
X184401000Y-135099000D01*
X184401000Y-136901000D01*
X184401000Y-136901000D01*
G37*
G36*
X179150442Y-135105518D02*
G01*
X179216627Y-135112037D01*
X179386466Y-135163557D01*
X179542991Y-135247222D01*
X179578729Y-135276552D01*
X179680186Y-135359814D01*
X179763448Y-135461271D01*
X179792778Y-135497009D01*
X179876443Y-135653534D01*
X179927963Y-135823373D01*
X179945359Y-136000000D01*
X179927963Y-136176627D01*
X179876443Y-136346466D01*
X179792778Y-136502991D01*
X179763448Y-136538729D01*
X179680186Y-136640186D01*
X179578729Y-136723448D01*
X179542991Y-136752778D01*
X179386466Y-136836443D01*
X179216627Y-136887963D01*
X179150442Y-136894482D01*
X179084260Y-136901000D01*
X178995740Y-136901000D01*
X178929558Y-136894482D01*
X178863373Y-136887963D01*
X178693534Y-136836443D01*
X178537009Y-136752778D01*
X178501271Y-136723448D01*
X178399814Y-136640186D01*
X178316552Y-136538729D01*
X178287222Y-136502991D01*
X178203557Y-136346466D01*
X178152037Y-136176627D01*
X178134641Y-136000000D01*
X178152037Y-135823373D01*
X178203557Y-135653534D01*
X178287222Y-135497009D01*
X178316552Y-135461271D01*
X178399814Y-135359814D01*
X178501271Y-135276552D01*
X178537009Y-135247222D01*
X178693534Y-135163557D01*
X178863373Y-135112037D01*
X178929558Y-135105518D01*
X178995740Y-135099000D01*
X179084260Y-135099000D01*
X179150442Y-135105518D01*
X179150442Y-135105518D01*
G37*
G36*
X216150442Y-135105518D02*
G01*
X216216627Y-135112037D01*
X216386466Y-135163557D01*
X216542991Y-135247222D01*
X216578729Y-135276552D01*
X216680186Y-135359814D01*
X216763448Y-135461271D01*
X216792778Y-135497009D01*
X216876443Y-135653534D01*
X216927963Y-135823373D01*
X216945359Y-136000000D01*
X216927963Y-136176627D01*
X216876443Y-136346466D01*
X216792778Y-136502991D01*
X216763448Y-136538729D01*
X216680186Y-136640186D01*
X216578729Y-136723448D01*
X216542991Y-136752778D01*
X216386466Y-136836443D01*
X216216627Y-136887963D01*
X216150442Y-136894482D01*
X216084260Y-136901000D01*
X215995740Y-136901000D01*
X215929558Y-136894482D01*
X215863373Y-136887963D01*
X215693534Y-136836443D01*
X215537009Y-136752778D01*
X215501271Y-136723448D01*
X215399814Y-136640186D01*
X215316552Y-136538729D01*
X215287222Y-136502991D01*
X215203557Y-136346466D01*
X215152037Y-136176627D01*
X215134641Y-136000000D01*
X215152037Y-135823373D01*
X215203557Y-135653534D01*
X215287222Y-135497009D01*
X215316552Y-135461271D01*
X215399814Y-135359814D01*
X215501271Y-135276552D01*
X215537009Y-135247222D01*
X215693534Y-135163557D01*
X215863373Y-135112037D01*
X215929558Y-135105518D01*
X215995740Y-135099000D01*
X216084260Y-135099000D01*
X216150442Y-135105518D01*
X216150442Y-135105518D01*
G37*
G36*
X218690442Y-135105518D02*
G01*
X218756627Y-135112037D01*
X218926466Y-135163557D01*
X219082991Y-135247222D01*
X219118729Y-135276552D01*
X219220186Y-135359814D01*
X219303448Y-135461271D01*
X219332778Y-135497009D01*
X219416443Y-135653534D01*
X219467963Y-135823373D01*
X219485359Y-136000000D01*
X219467963Y-136176627D01*
X219416443Y-136346466D01*
X219332778Y-136502991D01*
X219303448Y-136538729D01*
X219220186Y-136640186D01*
X219118729Y-136723448D01*
X219082991Y-136752778D01*
X218926466Y-136836443D01*
X218756627Y-136887963D01*
X218690442Y-136894482D01*
X218624260Y-136901000D01*
X218535740Y-136901000D01*
X218469558Y-136894482D01*
X218403373Y-136887963D01*
X218233534Y-136836443D01*
X218077009Y-136752778D01*
X218041271Y-136723448D01*
X217939814Y-136640186D01*
X217856552Y-136538729D01*
X217827222Y-136502991D01*
X217743557Y-136346466D01*
X217692037Y-136176627D01*
X217674641Y-136000000D01*
X217692037Y-135823373D01*
X217743557Y-135653534D01*
X217827222Y-135497009D01*
X217856552Y-135461271D01*
X217939814Y-135359814D01*
X218041271Y-135276552D01*
X218077009Y-135247222D01*
X218233534Y-135163557D01*
X218403373Y-135112037D01*
X218469558Y-135105518D01*
X218535740Y-135099000D01*
X218624260Y-135099000D01*
X218690442Y-135105518D01*
X218690442Y-135105518D01*
G37*
G36*
X171151000Y-136901000D02*
G01*
X169349000Y-136901000D01*
X169349000Y-135099000D01*
X171151000Y-135099000D01*
X171151000Y-136901000D01*
X171151000Y-136901000D01*
G37*
G36*
X166650442Y-135105518D02*
G01*
X166716627Y-135112037D01*
X166886466Y-135163557D01*
X167042991Y-135247222D01*
X167078729Y-135276552D01*
X167180186Y-135359814D01*
X167263448Y-135461271D01*
X167292778Y-135497009D01*
X167376443Y-135653534D01*
X167427963Y-135823373D01*
X167445359Y-136000000D01*
X167427963Y-136176627D01*
X167376443Y-136346466D01*
X167292778Y-136502991D01*
X167263448Y-136538729D01*
X167180186Y-136640186D01*
X167078729Y-136723448D01*
X167042991Y-136752778D01*
X166886466Y-136836443D01*
X166716627Y-136887963D01*
X166650442Y-136894482D01*
X166584260Y-136901000D01*
X166495740Y-136901000D01*
X166429558Y-136894482D01*
X166363373Y-136887963D01*
X166193534Y-136836443D01*
X166037009Y-136752778D01*
X166001271Y-136723448D01*
X165899814Y-136640186D01*
X165816552Y-136538729D01*
X165787222Y-136502991D01*
X165703557Y-136346466D01*
X165652037Y-136176627D01*
X165634641Y-136000000D01*
X165652037Y-135823373D01*
X165703557Y-135653534D01*
X165787222Y-135497009D01*
X165816552Y-135461271D01*
X165899814Y-135359814D01*
X166001271Y-135276552D01*
X166037009Y-135247222D01*
X166193534Y-135163557D01*
X166363373Y-135112037D01*
X166429558Y-135105518D01*
X166495740Y-135099000D01*
X166584260Y-135099000D01*
X166650442Y-135105518D01*
X166650442Y-135105518D01*
G37*
G36*
X164901000Y-136901000D02*
G01*
X163099000Y-136901000D01*
X163099000Y-135099000D01*
X164901000Y-135099000D01*
X164901000Y-136901000D01*
X164901000Y-136901000D01*
G37*
G36*
X158690442Y-135105518D02*
G01*
X158756627Y-135112037D01*
X158926466Y-135163557D01*
X159082991Y-135247222D01*
X159118729Y-135276552D01*
X159220186Y-135359814D01*
X159303448Y-135461271D01*
X159332778Y-135497009D01*
X159416443Y-135653534D01*
X159467963Y-135823373D01*
X159485359Y-136000000D01*
X159467963Y-136176627D01*
X159416443Y-136346466D01*
X159332778Y-136502991D01*
X159303448Y-136538729D01*
X159220186Y-136640186D01*
X159118729Y-136723448D01*
X159082991Y-136752778D01*
X158926466Y-136836443D01*
X158756627Y-136887963D01*
X158690442Y-136894482D01*
X158624260Y-136901000D01*
X158535740Y-136901000D01*
X158469558Y-136894482D01*
X158403373Y-136887963D01*
X158233534Y-136836443D01*
X158077009Y-136752778D01*
X158041271Y-136723448D01*
X157939814Y-136640186D01*
X157856552Y-136538729D01*
X157827222Y-136502991D01*
X157743557Y-136346466D01*
X157692037Y-136176627D01*
X157674641Y-136000000D01*
X157692037Y-135823373D01*
X157743557Y-135653534D01*
X157827222Y-135497009D01*
X157856552Y-135461271D01*
X157939814Y-135359814D01*
X158041271Y-135276552D01*
X158077009Y-135247222D01*
X158233534Y-135163557D01*
X158403373Y-135112037D01*
X158469558Y-135105518D01*
X158535740Y-135099000D01*
X158624260Y-135099000D01*
X158690442Y-135105518D01*
X158690442Y-135105518D01*
G37*
G36*
X156150442Y-135105518D02*
G01*
X156216627Y-135112037D01*
X156386466Y-135163557D01*
X156542991Y-135247222D01*
X156578729Y-135276552D01*
X156680186Y-135359814D01*
X156763448Y-135461271D01*
X156792778Y-135497009D01*
X156876443Y-135653534D01*
X156927963Y-135823373D01*
X156945359Y-136000000D01*
X156927963Y-136176627D01*
X156876443Y-136346466D01*
X156792778Y-136502991D01*
X156763448Y-136538729D01*
X156680186Y-136640186D01*
X156578729Y-136723448D01*
X156542991Y-136752778D01*
X156386466Y-136836443D01*
X156216627Y-136887963D01*
X156150442Y-136894482D01*
X156084260Y-136901000D01*
X155995740Y-136901000D01*
X155929558Y-136894482D01*
X155863373Y-136887963D01*
X155693534Y-136836443D01*
X155537009Y-136752778D01*
X155501271Y-136723448D01*
X155399814Y-136640186D01*
X155316552Y-136538729D01*
X155287222Y-136502991D01*
X155203557Y-136346466D01*
X155152037Y-136176627D01*
X155134641Y-136000000D01*
X155152037Y-135823373D01*
X155203557Y-135653534D01*
X155287222Y-135497009D01*
X155316552Y-135461271D01*
X155399814Y-135359814D01*
X155501271Y-135276552D01*
X155537009Y-135247222D01*
X155693534Y-135163557D01*
X155863373Y-135112037D01*
X155929558Y-135105518D01*
X155995740Y-135099000D01*
X156084260Y-135099000D01*
X156150442Y-135105518D01*
X156150442Y-135105518D01*
G37*
G36*
X154401000Y-136901000D02*
G01*
X152599000Y-136901000D01*
X152599000Y-135099000D01*
X154401000Y-135099000D01*
X154401000Y-136901000D01*
X154401000Y-136901000D01*
G37*
G36*
X149150442Y-135105518D02*
G01*
X149216627Y-135112037D01*
X149386466Y-135163557D01*
X149542991Y-135247222D01*
X149578729Y-135276552D01*
X149680186Y-135359814D01*
X149763448Y-135461271D01*
X149792778Y-135497009D01*
X149876443Y-135653534D01*
X149927963Y-135823373D01*
X149945359Y-136000000D01*
X149927963Y-136176627D01*
X149876443Y-136346466D01*
X149792778Y-136502991D01*
X149763448Y-136538729D01*
X149680186Y-136640186D01*
X149578729Y-136723448D01*
X149542991Y-136752778D01*
X149386466Y-136836443D01*
X149216627Y-136887963D01*
X149150442Y-136894482D01*
X149084260Y-136901000D01*
X148995740Y-136901000D01*
X148929558Y-136894482D01*
X148863373Y-136887963D01*
X148693534Y-136836443D01*
X148537009Y-136752778D01*
X148501271Y-136723448D01*
X148399814Y-136640186D01*
X148316552Y-136538729D01*
X148287222Y-136502991D01*
X148203557Y-136346466D01*
X148152037Y-136176627D01*
X148134641Y-136000000D01*
X148152037Y-135823373D01*
X148203557Y-135653534D01*
X148287222Y-135497009D01*
X148316552Y-135461271D01*
X148399814Y-135359814D01*
X148501271Y-135276552D01*
X148537009Y-135247222D01*
X148693534Y-135163557D01*
X148863373Y-135112037D01*
X148929558Y-135105518D01*
X148995740Y-135099000D01*
X149084260Y-135099000D01*
X149150442Y-135105518D01*
X149150442Y-135105518D01*
G37*
G36*
X147401000Y-136901000D02*
G01*
X145599000Y-136901000D01*
X145599000Y-135099000D01*
X147401000Y-135099000D01*
X147401000Y-136901000D01*
X147401000Y-136901000D01*
G37*
G36*
X142900442Y-135105518D02*
G01*
X142966627Y-135112037D01*
X143136466Y-135163557D01*
X143292991Y-135247222D01*
X143328729Y-135276552D01*
X143430186Y-135359814D01*
X143513448Y-135461271D01*
X143542778Y-135497009D01*
X143626443Y-135653534D01*
X143677963Y-135823373D01*
X143695359Y-136000000D01*
X143677963Y-136176627D01*
X143626443Y-136346466D01*
X143542778Y-136502991D01*
X143513448Y-136538729D01*
X143430186Y-136640186D01*
X143328729Y-136723448D01*
X143292991Y-136752778D01*
X143136466Y-136836443D01*
X142966627Y-136887963D01*
X142900442Y-136894482D01*
X142834260Y-136901000D01*
X142745740Y-136901000D01*
X142679558Y-136894482D01*
X142613373Y-136887963D01*
X142443534Y-136836443D01*
X142287009Y-136752778D01*
X142251271Y-136723448D01*
X142149814Y-136640186D01*
X142066552Y-136538729D01*
X142037222Y-136502991D01*
X141953557Y-136346466D01*
X141902037Y-136176627D01*
X141884641Y-136000000D01*
X141902037Y-135823373D01*
X141953557Y-135653534D01*
X142037222Y-135497009D01*
X142066552Y-135461271D01*
X142149814Y-135359814D01*
X142251271Y-135276552D01*
X142287009Y-135247222D01*
X142443534Y-135163557D01*
X142613373Y-135112037D01*
X142679558Y-135105518D01*
X142745740Y-135099000D01*
X142834260Y-135099000D01*
X142900442Y-135105518D01*
X142900442Y-135105518D01*
G37*
G36*
X141151000Y-136901000D02*
G01*
X139349000Y-136901000D01*
X139349000Y-135099000D01*
X141151000Y-135099000D01*
X141151000Y-136901000D01*
X141151000Y-136901000D01*
G37*
G36*
X136650442Y-135105518D02*
G01*
X136716627Y-135112037D01*
X136886466Y-135163557D01*
X137042991Y-135247222D01*
X137078729Y-135276552D01*
X137180186Y-135359814D01*
X137263448Y-135461271D01*
X137292778Y-135497009D01*
X137376443Y-135653534D01*
X137427963Y-135823373D01*
X137445359Y-136000000D01*
X137427963Y-136176627D01*
X137376443Y-136346466D01*
X137292778Y-136502991D01*
X137263448Y-136538729D01*
X137180186Y-136640186D01*
X137078729Y-136723448D01*
X137042991Y-136752778D01*
X136886466Y-136836443D01*
X136716627Y-136887963D01*
X136650442Y-136894482D01*
X136584260Y-136901000D01*
X136495740Y-136901000D01*
X136429558Y-136894482D01*
X136363373Y-136887963D01*
X136193534Y-136836443D01*
X136037009Y-136752778D01*
X136001271Y-136723448D01*
X135899814Y-136640186D01*
X135816552Y-136538729D01*
X135787222Y-136502991D01*
X135703557Y-136346466D01*
X135652037Y-136176627D01*
X135634641Y-136000000D01*
X135652037Y-135823373D01*
X135703557Y-135653534D01*
X135787222Y-135497009D01*
X135816552Y-135461271D01*
X135899814Y-135359814D01*
X136001271Y-135276552D01*
X136037009Y-135247222D01*
X136193534Y-135163557D01*
X136363373Y-135112037D01*
X136429558Y-135105518D01*
X136495740Y-135099000D01*
X136584260Y-135099000D01*
X136650442Y-135105518D01*
X136650442Y-135105518D01*
G37*
G36*
X177401000Y-136901000D02*
G01*
X175599000Y-136901000D01*
X175599000Y-135099000D01*
X177401000Y-135099000D01*
X177401000Y-136901000D01*
X177401000Y-136901000D01*
G37*
G36*
X172900442Y-135105518D02*
G01*
X172966627Y-135112037D01*
X173136466Y-135163557D01*
X173292991Y-135247222D01*
X173328729Y-135276552D01*
X173430186Y-135359814D01*
X173513448Y-135461271D01*
X173542778Y-135497009D01*
X173626443Y-135653534D01*
X173677963Y-135823373D01*
X173695359Y-136000000D01*
X173677963Y-136176627D01*
X173626443Y-136346466D01*
X173542778Y-136502991D01*
X173513448Y-136538729D01*
X173430186Y-136640186D01*
X173328729Y-136723448D01*
X173292991Y-136752778D01*
X173136466Y-136836443D01*
X172966627Y-136887963D01*
X172900442Y-136894482D01*
X172834260Y-136901000D01*
X172745740Y-136901000D01*
X172679558Y-136894482D01*
X172613373Y-136887963D01*
X172443534Y-136836443D01*
X172287009Y-136752778D01*
X172251271Y-136723448D01*
X172149814Y-136640186D01*
X172066552Y-136538729D01*
X172037222Y-136502991D01*
X171953557Y-136346466D01*
X171902037Y-136176627D01*
X171884641Y-136000000D01*
X171902037Y-135823373D01*
X171953557Y-135653534D01*
X172037222Y-135497009D01*
X172066552Y-135461271D01*
X172149814Y-135359814D01*
X172251271Y-135276552D01*
X172287009Y-135247222D01*
X172443534Y-135163557D01*
X172613373Y-135112037D01*
X172679558Y-135105518D01*
X172745740Y-135099000D01*
X172834260Y-135099000D01*
X172900442Y-135105518D01*
X172900442Y-135105518D01*
G37*
G36*
X151620104Y-111609585D02*
G01*
X151788626Y-111679389D01*
X151940291Y-111780728D01*
X152069272Y-111909709D01*
X152170611Y-112061374D01*
X152240415Y-112229896D01*
X152276000Y-112408797D01*
X152276000Y-112591203D01*
X152240415Y-112770104D01*
X152170611Y-112938626D01*
X152069272Y-113090291D01*
X151940291Y-113219272D01*
X151788626Y-113320611D01*
X151620104Y-113390415D01*
X151441203Y-113426000D01*
X151258797Y-113426000D01*
X151079896Y-113390415D01*
X150911374Y-113320611D01*
X150759709Y-113219272D01*
X150630728Y-113090291D01*
X150529389Y-112938626D01*
X150459585Y-112770104D01*
X150424000Y-112591203D01*
X150424000Y-112408797D01*
X150459585Y-112229896D01*
X150529389Y-112061374D01*
X150630728Y-111909709D01*
X150759709Y-111780728D01*
X150911374Y-111679389D01*
X151079896Y-111609585D01*
X151258797Y-111574000D01*
X151441203Y-111574000D01*
X151620104Y-111609585D01*
X151620104Y-111609585D01*
G37*
G36*
X201420104Y-111609585D02*
G01*
X201588626Y-111679389D01*
X201740291Y-111780728D01*
X201869272Y-111909709D01*
X201970611Y-112061374D01*
X202040415Y-112229896D01*
X202076000Y-112408797D01*
X202076000Y-112591203D01*
X202040415Y-112770104D01*
X201970611Y-112938626D01*
X201869272Y-113090291D01*
X201740291Y-113219272D01*
X201588626Y-113320611D01*
X201420104Y-113390415D01*
X201241203Y-113426000D01*
X201058797Y-113426000D01*
X200879896Y-113390415D01*
X200711374Y-113320611D01*
X200559709Y-113219272D01*
X200430728Y-113090291D01*
X200329389Y-112938626D01*
X200259585Y-112770104D01*
X200224000Y-112591203D01*
X200224000Y-112408797D01*
X200259585Y-112229896D01*
X200329389Y-112061374D01*
X200430728Y-111909709D01*
X200559709Y-111780728D01*
X200711374Y-111679389D01*
X200879896Y-111609585D01*
X201058797Y-111574000D01*
X201241203Y-111574000D01*
X201420104Y-111609585D01*
X201420104Y-111609585D01*
G37*
G36*
X181620104Y-111609585D02*
G01*
X181788626Y-111679389D01*
X181940291Y-111780728D01*
X182069272Y-111909709D01*
X182170611Y-112061374D01*
X182240415Y-112229896D01*
X182276000Y-112408797D01*
X182276000Y-112591203D01*
X182240415Y-112770104D01*
X182170611Y-112938626D01*
X182069272Y-113090291D01*
X181940291Y-113219272D01*
X181788626Y-113320611D01*
X181620104Y-113390415D01*
X181441203Y-113426000D01*
X181258797Y-113426000D01*
X181079896Y-113390415D01*
X180911374Y-113320611D01*
X180759709Y-113219272D01*
X180630728Y-113090291D01*
X180529389Y-112938626D01*
X180459585Y-112770104D01*
X180424000Y-112591203D01*
X180424000Y-112408797D01*
X180459585Y-112229896D01*
X180529389Y-112061374D01*
X180630728Y-111909709D01*
X180759709Y-111780728D01*
X180911374Y-111679389D01*
X181079896Y-111609585D01*
X181258797Y-111574000D01*
X181441203Y-111574000D01*
X181620104Y-111609585D01*
X181620104Y-111609585D01*
G37*
G36*
X171420104Y-111609585D02*
G01*
X171588626Y-111679389D01*
X171740291Y-111780728D01*
X171869272Y-111909709D01*
X171970611Y-112061374D01*
X172040415Y-112229896D01*
X172076000Y-112408797D01*
X172076000Y-112591203D01*
X172040415Y-112770104D01*
X171970611Y-112938626D01*
X171869272Y-113090291D01*
X171740291Y-113219272D01*
X171588626Y-113320611D01*
X171420104Y-113390415D01*
X171241203Y-113426000D01*
X171058797Y-113426000D01*
X170879896Y-113390415D01*
X170711374Y-113320611D01*
X170559709Y-113219272D01*
X170430728Y-113090291D01*
X170329389Y-112938626D01*
X170259585Y-112770104D01*
X170224000Y-112591203D01*
X170224000Y-112408797D01*
X170259585Y-112229896D01*
X170329389Y-112061374D01*
X170430728Y-111909709D01*
X170559709Y-111780728D01*
X170711374Y-111679389D01*
X170879896Y-111609585D01*
X171058797Y-111574000D01*
X171241203Y-111574000D01*
X171420104Y-111609585D01*
X171420104Y-111609585D01*
G37*
G36*
X141420104Y-111609585D02*
G01*
X141588626Y-111679389D01*
X141740291Y-111780728D01*
X141869272Y-111909709D01*
X141970611Y-112061374D01*
X142040415Y-112229896D01*
X142076000Y-112408797D01*
X142076000Y-112591203D01*
X142040415Y-112770104D01*
X141970611Y-112938626D01*
X141869272Y-113090291D01*
X141740291Y-113219272D01*
X141588626Y-113320611D01*
X141420104Y-113390415D01*
X141241203Y-113426000D01*
X141058797Y-113426000D01*
X140879896Y-113390415D01*
X140711374Y-113320611D01*
X140559709Y-113219272D01*
X140430728Y-113090291D01*
X140329389Y-112938626D01*
X140259585Y-112770104D01*
X140224000Y-112591203D01*
X140224000Y-112408797D01*
X140259585Y-112229896D01*
X140329389Y-112061374D01*
X140430728Y-111909709D01*
X140559709Y-111780728D01*
X140711374Y-111679389D01*
X140879896Y-111609585D01*
X141058797Y-111574000D01*
X141241203Y-111574000D01*
X141420104Y-111609585D01*
X141420104Y-111609585D01*
G37*
G36*
X211620104Y-111609585D02*
G01*
X211788626Y-111679389D01*
X211940291Y-111780728D01*
X212069272Y-111909709D01*
X212170611Y-112061374D01*
X212240415Y-112229896D01*
X212276000Y-112408797D01*
X212276000Y-112591203D01*
X212240415Y-112770104D01*
X212170611Y-112938626D01*
X212069272Y-113090291D01*
X211940291Y-113219272D01*
X211788626Y-113320611D01*
X211620104Y-113390415D01*
X211441203Y-113426000D01*
X211258797Y-113426000D01*
X211079896Y-113390415D01*
X210911374Y-113320611D01*
X210759709Y-113219272D01*
X210630728Y-113090291D01*
X210529389Y-112938626D01*
X210459585Y-112770104D01*
X210424000Y-112591203D01*
X210424000Y-112408797D01*
X210459585Y-112229896D01*
X210529389Y-112061374D01*
X210630728Y-111909709D01*
X210759709Y-111780728D01*
X210911374Y-111679389D01*
X211079896Y-111609585D01*
X211258797Y-111574000D01*
X211441203Y-111574000D01*
X211620104Y-111609585D01*
X211620104Y-111609585D01*
G37*
G36*
X215675331Y-97968211D02*
G01*
X216003092Y-98103974D01*
X216298070Y-98301072D01*
X216548928Y-98551930D01*
X216746026Y-98846908D01*
X216881789Y-99174669D01*
X216951000Y-99522616D01*
X216951000Y-99877384D01*
X216881789Y-100225331D01*
X216746026Y-100553092D01*
X216548928Y-100848070D01*
X216298070Y-101098928D01*
X216003092Y-101296026D01*
X215675331Y-101431789D01*
X215327384Y-101501000D01*
X214972616Y-101501000D01*
X214624669Y-101431789D01*
X214296908Y-101296026D01*
X214001930Y-101098928D01*
X213751072Y-100848070D01*
X213553974Y-100553092D01*
X213418211Y-100225331D01*
X213349000Y-99877384D01*
X213349000Y-99522616D01*
X213418211Y-99174669D01*
X213553974Y-98846908D01*
X213751072Y-98551930D01*
X214001930Y-98301072D01*
X214296908Y-98103974D01*
X214624669Y-97968211D01*
X214972616Y-97899000D01*
X215327384Y-97899000D01*
X215675331Y-97968211D01*
X215675331Y-97968211D01*
G37*
G36*
X185675331Y-97968211D02*
G01*
X186003092Y-98103974D01*
X186298070Y-98301072D01*
X186548928Y-98551930D01*
X186746026Y-98846908D01*
X186881789Y-99174669D01*
X186951000Y-99522616D01*
X186951000Y-99877384D01*
X186881789Y-100225331D01*
X186746026Y-100553092D01*
X186548928Y-100848070D01*
X186298070Y-101098928D01*
X186003092Y-101296026D01*
X185675331Y-101431789D01*
X185327384Y-101501000D01*
X184972616Y-101501000D01*
X184624669Y-101431789D01*
X184296908Y-101296026D01*
X184001930Y-101098928D01*
X183751072Y-100848070D01*
X183553974Y-100553092D01*
X183418211Y-100225331D01*
X183349000Y-99877384D01*
X183349000Y-99522616D01*
X183418211Y-99174669D01*
X183553974Y-98846908D01*
X183751072Y-98551930D01*
X184001930Y-98301072D01*
X184296908Y-98103974D01*
X184624669Y-97968211D01*
X184972616Y-97899000D01*
X185327384Y-97899000D01*
X185675331Y-97968211D01*
X185675331Y-97968211D01*
G37*
G36*
X155675331Y-97968211D02*
G01*
X156003092Y-98103974D01*
X156298070Y-98301072D01*
X156548928Y-98551930D01*
X156746026Y-98846908D01*
X156881789Y-99174669D01*
X156951000Y-99522616D01*
X156951000Y-99877384D01*
X156881789Y-100225331D01*
X156746026Y-100553092D01*
X156548928Y-100848070D01*
X156298070Y-101098928D01*
X156003092Y-101296026D01*
X155675331Y-101431789D01*
X155327384Y-101501000D01*
X154972616Y-101501000D01*
X154624669Y-101431789D01*
X154296908Y-101296026D01*
X154001930Y-101098928D01*
X153751072Y-100848070D01*
X153553974Y-100553092D01*
X153418211Y-100225331D01*
X153349000Y-99877384D01*
X153349000Y-99522616D01*
X153418211Y-99174669D01*
X153553974Y-98846908D01*
X153751072Y-98551930D01*
X154001930Y-98301072D01*
X154296908Y-98103974D01*
X154624669Y-97968211D01*
X154972616Y-97899000D01*
X155327384Y-97899000D01*
X155675331Y-97968211D01*
X155675331Y-97968211D01*
G37*
G36*
X167875331Y-95468211D02*
G01*
X168203092Y-95603974D01*
X168498070Y-95801072D01*
X168748928Y-96051930D01*
X168946026Y-96346908D01*
X169081789Y-96674669D01*
X169151000Y-97022616D01*
X169151000Y-97377384D01*
X169081789Y-97725331D01*
X168946026Y-98053092D01*
X168748928Y-98348070D01*
X168498070Y-98598928D01*
X168203092Y-98796026D01*
X167875331Y-98931789D01*
X167527384Y-99001000D01*
X167172616Y-99001000D01*
X166824669Y-98931789D01*
X166496908Y-98796026D01*
X166201930Y-98598928D01*
X165951072Y-98348070D01*
X165753974Y-98053092D01*
X165618211Y-97725331D01*
X165549000Y-97377384D01*
X165549000Y-97022616D01*
X165618211Y-96674669D01*
X165753974Y-96346908D01*
X165951072Y-96051930D01*
X166201930Y-95801072D01*
X166496908Y-95603974D01*
X166824669Y-95468211D01*
X167172616Y-95399000D01*
X167527384Y-95399000D01*
X167875331Y-95468211D01*
X167875331Y-95468211D01*
G37*
G36*
X137875331Y-95468211D02*
G01*
X138203092Y-95603974D01*
X138498070Y-95801072D01*
X138748928Y-96051930D01*
X138946026Y-96346908D01*
X139081789Y-96674669D01*
X139151000Y-97022616D01*
X139151000Y-97377384D01*
X139081789Y-97725331D01*
X138946026Y-98053092D01*
X138748928Y-98348070D01*
X138498070Y-98598928D01*
X138203092Y-98796026D01*
X137875331Y-98931789D01*
X137527384Y-99001000D01*
X137172616Y-99001000D01*
X136824669Y-98931789D01*
X136496908Y-98796026D01*
X136201930Y-98598928D01*
X135951072Y-98348070D01*
X135753974Y-98053092D01*
X135618211Y-97725331D01*
X135549000Y-97377384D01*
X135549000Y-97022616D01*
X135618211Y-96674669D01*
X135753974Y-96346908D01*
X135951072Y-96051930D01*
X136201930Y-95801072D01*
X136496908Y-95603974D01*
X136824669Y-95468211D01*
X137172616Y-95399000D01*
X137527384Y-95399000D01*
X137875331Y-95468211D01*
X137875331Y-95468211D01*
G37*
G36*
X197875331Y-95468211D02*
G01*
X198203092Y-95603974D01*
X198498070Y-95801072D01*
X198748928Y-96051930D01*
X198946026Y-96346908D01*
X199081789Y-96674669D01*
X199151000Y-97022616D01*
X199151000Y-97377384D01*
X199081789Y-97725331D01*
X198946026Y-98053092D01*
X198748928Y-98348070D01*
X198498070Y-98598928D01*
X198203092Y-98796026D01*
X197875331Y-98931789D01*
X197527384Y-99001000D01*
X197172616Y-99001000D01*
X196824669Y-98931789D01*
X196496908Y-98796026D01*
X196201930Y-98598928D01*
X195951072Y-98348070D01*
X195753974Y-98053092D01*
X195618211Y-97725331D01*
X195549000Y-97377384D01*
X195549000Y-97022616D01*
X195618211Y-96674669D01*
X195753974Y-96346908D01*
X195951072Y-96051930D01*
X196201930Y-95801072D01*
X196496908Y-95603974D01*
X196824669Y-95468211D01*
X197172616Y-95399000D01*
X197527384Y-95399000D01*
X197875331Y-95468211D01*
X197875331Y-95468211D01*
G37*
G36*
X197875331Y-87868211D02*
G01*
X198203092Y-88003974D01*
X198498070Y-88201072D01*
X198748928Y-88451930D01*
X198946026Y-88746908D01*
X199081789Y-89074669D01*
X199151000Y-89422616D01*
X199151000Y-89777384D01*
X199081789Y-90125331D01*
X198946026Y-90453092D01*
X198748928Y-90748070D01*
X198498070Y-90998928D01*
X198203092Y-91196026D01*
X197875331Y-91331789D01*
X197527384Y-91401000D01*
X197172616Y-91401000D01*
X196824669Y-91331789D01*
X196496908Y-91196026D01*
X196201930Y-90998928D01*
X195951072Y-90748070D01*
X195753974Y-90453092D01*
X195618211Y-90125331D01*
X195549000Y-89777384D01*
X195549000Y-89422616D01*
X195618211Y-89074669D01*
X195753974Y-88746908D01*
X195951072Y-88451930D01*
X196201930Y-88201072D01*
X196496908Y-88003974D01*
X196824669Y-87868211D01*
X197172616Y-87799000D01*
X197527384Y-87799000D01*
X197875331Y-87868211D01*
X197875331Y-87868211D01*
G37*
G36*
X167875331Y-87868211D02*
G01*
X168203092Y-88003974D01*
X168498070Y-88201072D01*
X168748928Y-88451930D01*
X168946026Y-88746908D01*
X169081789Y-89074669D01*
X169151000Y-89422616D01*
X169151000Y-89777384D01*
X169081789Y-90125331D01*
X168946026Y-90453092D01*
X168748928Y-90748070D01*
X168498070Y-90998928D01*
X168203092Y-91196026D01*
X167875331Y-91331789D01*
X167527384Y-91401000D01*
X167172616Y-91401000D01*
X166824669Y-91331789D01*
X166496908Y-91196026D01*
X166201930Y-90998928D01*
X165951072Y-90748070D01*
X165753974Y-90453092D01*
X165618211Y-90125331D01*
X165549000Y-89777384D01*
X165549000Y-89422616D01*
X165618211Y-89074669D01*
X165753974Y-88746908D01*
X165951072Y-88451930D01*
X166201930Y-88201072D01*
X166496908Y-88003974D01*
X166824669Y-87868211D01*
X167172616Y-87799000D01*
X167527384Y-87799000D01*
X167875331Y-87868211D01*
X167875331Y-87868211D01*
G37*
G36*
X137875331Y-87868211D02*
G01*
X138203092Y-88003974D01*
X138498070Y-88201072D01*
X138748928Y-88451930D01*
X138946026Y-88746908D01*
X139081789Y-89074669D01*
X139151000Y-89422616D01*
X139151000Y-89777384D01*
X139081789Y-90125331D01*
X138946026Y-90453092D01*
X138748928Y-90748070D01*
X138498070Y-90998928D01*
X138203092Y-91196026D01*
X137875331Y-91331789D01*
X137527384Y-91401000D01*
X137172616Y-91401000D01*
X136824669Y-91331789D01*
X136496908Y-91196026D01*
X136201930Y-90998928D01*
X135951072Y-90748070D01*
X135753974Y-90453092D01*
X135618211Y-90125331D01*
X135549000Y-89777384D01*
X135549000Y-89422616D01*
X135618211Y-89074669D01*
X135753974Y-88746908D01*
X135951072Y-88451930D01*
X136201930Y-88201072D01*
X136496908Y-88003974D01*
X136824669Y-87868211D01*
X137172616Y-87799000D01*
X137527384Y-87799000D01*
X137875331Y-87868211D01*
X137875331Y-87868211D01*
G37*
M02*
