%FSLAX45Y45*%
G04 Gerber Fmt 4.5, Leading zero omitted, Abs format (unit mm)*
G04 Created by KiCad (PCBNEW (5.1.4)-1) date 2021-09-06 11:03:48*
%MOMM*%
%LPD*%
G04 APERTURE LIST*
%ADD10C,0.050000*%
%ADD11C,0.200000*%
%ADD12C,0.300000*%
G04 APERTURE END LIST*
D10*
X22125000Y-13875000D02*
X13125000Y-13875000D01*
X22125000Y-8625000D02*
X13125000Y-8625000D01*
X22125000Y-13875000D02*
X22125000Y-8625000D01*
X13125000Y-8625000D02*
X13125000Y-13875000D01*
D11*
D12*
X13408928Y-14343214D02*
X13408928Y-14043214D01*
X13480357Y-14043214D01*
X13523214Y-14057500D01*
X13551786Y-14086071D01*
X13566071Y-14114643D01*
X13580357Y-14171786D01*
X13580357Y-14214643D01*
X13566071Y-14271786D01*
X13551786Y-14300357D01*
X13523214Y-14328929D01*
X13480357Y-14343214D01*
X13408928Y-14343214D01*
X13708928Y-14343214D02*
X13708928Y-14143214D01*
X13708928Y-14200357D02*
X13723214Y-14171786D01*
X13737500Y-14157500D01*
X13766071Y-14143214D01*
X13794643Y-14143214D01*
X13894643Y-14343214D02*
X13894643Y-14143214D01*
X13894643Y-14043214D02*
X13880357Y-14057500D01*
X13894643Y-14071786D01*
X13908928Y-14057500D01*
X13894643Y-14043214D01*
X13894643Y-14071786D01*
X14080357Y-14343214D02*
X14051786Y-14328929D01*
X14037500Y-14300357D01*
X14037500Y-14043214D01*
X14237500Y-14343214D02*
X14208928Y-14328929D01*
X14194643Y-14300357D01*
X14194643Y-14043214D01*
X14580357Y-14343214D02*
X14580357Y-14043214D01*
X14680357Y-14257500D01*
X14780357Y-14043214D01*
X14780357Y-14343214D01*
X15051786Y-14343214D02*
X15051786Y-14186071D01*
X15037500Y-14157500D01*
X15008928Y-14143214D01*
X14951786Y-14143214D01*
X14923214Y-14157500D01*
X15051786Y-14328929D02*
X15023214Y-14343214D01*
X14951786Y-14343214D01*
X14923214Y-14328929D01*
X14908928Y-14300357D01*
X14908928Y-14271786D01*
X14923214Y-14243214D01*
X14951786Y-14228929D01*
X15023214Y-14228929D01*
X15051786Y-14214643D01*
X15194643Y-14143214D02*
X15194643Y-14443214D01*
X15194643Y-14157500D02*
X15223214Y-14143214D01*
X15280357Y-14143214D01*
X15308928Y-14157500D01*
X15323214Y-14171786D01*
X15337500Y-14200357D01*
X15337500Y-14286071D01*
X15323214Y-14314643D01*
X15308928Y-14328929D01*
X15280357Y-14343214D01*
X15223214Y-14343214D01*
X15194643Y-14328929D01*
X15466071Y-14314643D02*
X15480357Y-14328929D01*
X15466071Y-14343214D01*
X15451786Y-14328929D01*
X15466071Y-14314643D01*
X15466071Y-14343214D01*
X15466071Y-14157500D02*
X15480357Y-14171786D01*
X15466071Y-14186071D01*
X15451786Y-14171786D01*
X15466071Y-14157500D01*
X15466071Y-14186071D01*
M02*
