M48
; DRILL file {KiCad (5.1.4)-1} date 06/09/2021 11:03:48
; FORMAT={-:-/ absolute / metric / decimal}
; #@! TF.CreationDate,2021-09-06T11:03:48-04:00
; #@! TF.GenerationSoftware,Kicad,Pcbnew,(5.1.4)-1
; #@! TF.FileFunction,Plated,1,2,PTH
FMAT,2
METRIC
T1C0.400
T2C1.000
T3C1.250
T4C2.500
%
G90
G05
T1
X133.75Y-119.0
X135.25Y-123.75
X137.5Y-122.0
X138.0Y-119.0
X138.5Y-122.0
X138.5Y-125.25
X142.0Y-119.0
X143.5Y-122.0
X144.25Y-125.25
X144.5Y-122.0
X146.0Y-119.25
X147.5Y-118.25
X149.0Y-122.25
X149.5Y-129.5
X149.75Y-120.25
X149.75Y-133.5
X150.5Y-121.012
X150.5Y-124.0
X151.5Y-119.25
X152.0Y-125.5
X152.75Y-118.5
X153.165Y-123.14
X154.25Y-129.75
X154.25Y-131.25
X154.5Y-119.25
X156.0Y-132.0
X156.25Y-126.25
X157.25Y-131.75
X157.75Y-118.0
X159.0Y-118.75
X159.25Y-126.5
X163.75Y-119.0
X165.25Y-123.75
X167.5Y-122.0
X168.0Y-119.0
X168.5Y-125.25
X168.75Y-122.0
X172.0Y-119.0
X173.5Y-122.0
X174.25Y-125.25
X174.5Y-122.0
X176.0Y-119.25
X177.5Y-118.25
X179.0Y-122.25
X179.5Y-129.5
X179.75Y-120.25
X179.75Y-133.5
X180.5Y-121.012
X180.5Y-124.0
X181.5Y-119.25
X182.0Y-125.5
X182.75Y-118.5
X183.165Y-123.14
X184.25Y-129.75
X184.25Y-131.25
X184.5Y-119.25
X186.0Y-132.0
X186.25Y-126.25
X187.25Y-131.75
X187.75Y-118.0
X189.0Y-118.75
X189.25Y-126.5
X193.75Y-119.0
X195.25Y-123.75
X197.5Y-122.0
X198.0Y-119.0
X198.5Y-125.25
X198.75Y-122.0
X202.0Y-119.0
X203.5Y-122.0
X204.25Y-125.25
X204.5Y-122.0
X206.0Y-119.25
X207.5Y-118.25
X209.0Y-122.25
X209.5Y-129.5
X209.75Y-120.25
X209.75Y-133.5
X210.5Y-121.012
X210.5Y-124.0
X211.5Y-119.25
X212.0Y-125.5
X212.75Y-118.5
X213.165Y-123.14
X214.25Y-129.75
X214.25Y-131.25
X214.5Y-119.25
X216.0Y-132.0
X216.25Y-126.25
X217.25Y-131.75
X217.75Y-118.0
X219.0Y-118.75
X219.25Y-126.5
T2
X164.0Y-136.0
X166.54Y-136.0
X170.25Y-136.0
X172.79Y-136.0
X200.25Y-136.0
X202.79Y-136.0
X176.5Y-136.0
X179.04Y-136.0
X134.0Y-136.0
X136.54Y-136.0
X153.5Y-136.0
X156.04Y-136.0
X158.58Y-136.0
X206.5Y-136.0
X209.04Y-136.0
X140.25Y-136.0
X142.79Y-136.0
X213.5Y-136.0
X216.04Y-136.0
X218.58Y-136.0
X183.5Y-136.0
X186.04Y-136.0
X188.58Y-136.0
X194.0Y-136.0
X196.54Y-136.0
X146.5Y-136.0
X149.04Y-136.0
T3
X171.15Y-112.5
X181.35Y-112.5
X201.15Y-112.5
X211.35Y-112.5
X141.15Y-112.5
X151.35Y-112.5
T4
X167.35Y-89.6
X167.35Y-97.2
X185.15Y-99.7
X197.35Y-89.6
X197.35Y-97.2
X215.15Y-99.7
X137.35Y-89.6
X137.35Y-97.2
X155.15Y-99.7
T0
M30
