G04 #@! TF.GenerationSoftware,KiCad,Pcbnew,(5.1.4)-1*
G04 #@! TF.CreationDate,2021-09-06T11:03:46-04:00*
G04 #@! TF.ProjectId,relay_array,72656c61-795f-4617-9272-61792e6b6963,rev?*
G04 #@! TF.SameCoordinates,Original*
G04 #@! TF.FileFunction,Copper,L2,Bot*
G04 #@! TF.FilePolarity,Positive*
%FSLAX46Y46*%
G04 Gerber Fmt 4.6, Leading zero omitted, Abs format (unit mm)*
G04 Created by KiCad (PCBNEW (5.1.4)-1) date 2021-09-06 11:03:46*
%MOMM*%
%LPD*%
G04 APERTURE LIST*
%ADD10C,1.750000*%
%ADD11C,3.500000*%
%ADD12O,1.700000X1.700000*%
%ADD13R,1.700000X1.700000*%
%ADD14C,0.800000*%
%ADD15C,0.500000*%
%ADD16C,1.000000*%
%ADD17C,0.250000*%
%ADD18C,0.254000*%
G04 APERTURE END LIST*
D10*
X211350000Y-112500000D03*
D11*
X215150000Y-99700000D03*
D10*
X201150000Y-112500000D03*
D11*
X197350000Y-97200000D03*
X197350000Y-89600000D03*
D10*
X181350000Y-112500000D03*
D11*
X185150000Y-99700000D03*
D10*
X171150000Y-112500000D03*
D11*
X167350000Y-97200000D03*
X167350000Y-89600000D03*
D12*
X218580000Y-136000000D03*
X216040000Y-136000000D03*
D13*
X213500000Y-136000000D03*
D12*
X209040000Y-136000000D03*
D13*
X206500000Y-136000000D03*
D12*
X202790000Y-136000000D03*
D13*
X200250000Y-136000000D03*
D12*
X196540000Y-136000000D03*
D13*
X194000000Y-136000000D03*
D12*
X188580000Y-136000000D03*
X186040000Y-136000000D03*
D13*
X183500000Y-136000000D03*
D12*
X179040000Y-136000000D03*
D13*
X176500000Y-136000000D03*
D12*
X172790000Y-136000000D03*
D13*
X170250000Y-136000000D03*
D12*
X166540000Y-136000000D03*
D13*
X164000000Y-136000000D03*
D12*
X158580000Y-136000000D03*
X156040000Y-136000000D03*
D13*
X153500000Y-136000000D03*
D12*
X149040000Y-136000000D03*
D13*
X146500000Y-136000000D03*
D12*
X142790000Y-136000000D03*
D13*
X140250000Y-136000000D03*
D12*
X136540000Y-136000000D03*
D13*
X134000000Y-136000000D03*
D10*
X151350000Y-112500000D03*
D11*
X155150000Y-99700000D03*
D10*
X141150000Y-112500000D03*
D11*
X137350000Y-97200000D03*
X137350000Y-89600000D03*
D14*
X150500000Y-124000000D03*
X154250000Y-129750000D03*
X156000000Y-132000000D03*
X157250000Y-131750000D03*
X153165000Y-123140000D03*
X144500000Y-122000000D03*
X152000000Y-125500000D03*
X149000000Y-122250000D03*
X137500000Y-122000000D03*
X143500000Y-122000000D03*
X138500000Y-122000000D03*
X138500000Y-125250000D03*
X144250000Y-125250000D03*
X159250000Y-126500000D03*
X156250000Y-126250000D03*
X159000000Y-118750000D03*
X152750000Y-118500000D03*
X154500000Y-119250000D03*
X151500000Y-119250000D03*
X147500000Y-118250000D03*
X146000000Y-119250000D03*
X157750000Y-118000000D03*
X149500000Y-129500000D03*
X149750000Y-133500000D03*
X142000000Y-119000000D03*
X138000000Y-119000000D03*
X133750000Y-119000000D03*
X180500000Y-124000000D03*
X184250000Y-129750000D03*
X186000000Y-132000000D03*
X187250000Y-131750000D03*
X183165000Y-123140000D03*
X174500000Y-122000000D03*
X182000000Y-125500000D03*
X179000000Y-122250000D03*
X167500000Y-122000000D03*
X173500000Y-122000000D03*
X168750000Y-122000000D03*
X168500000Y-125250000D03*
X174250000Y-125250000D03*
X189250000Y-126500000D03*
X186250000Y-126250000D03*
X189000000Y-118750000D03*
X182750000Y-118500000D03*
X184500000Y-119250000D03*
X181500000Y-119250000D03*
X177500000Y-118250000D03*
X176000000Y-119250000D03*
X187750000Y-118000000D03*
X179500000Y-129500000D03*
X179750000Y-133500000D03*
X172000000Y-119000000D03*
X168000000Y-119000000D03*
X163750000Y-119000000D03*
X210500000Y-124000000D03*
X214250000Y-129750000D03*
X216000000Y-132000000D03*
X217250000Y-131750000D03*
X213165000Y-123140000D03*
X204500000Y-122000000D03*
X212000000Y-125500000D03*
X209000000Y-122250000D03*
X197500000Y-122000000D03*
X203500000Y-122000000D03*
X198750000Y-122000000D03*
X198500000Y-125250000D03*
X204250000Y-125250000D03*
X219250000Y-126500000D03*
X216250000Y-126250000D03*
X219000000Y-118750000D03*
X212750000Y-118500000D03*
X214500000Y-119250000D03*
X211500000Y-119250000D03*
X207500000Y-118250000D03*
X206000000Y-119250000D03*
X217750000Y-118000000D03*
X209500000Y-129500000D03*
X209750000Y-133500000D03*
X202000000Y-119000000D03*
X198000000Y-119000000D03*
X193750000Y-119000000D03*
X154250000Y-131250000D03*
X135250000Y-123750000D03*
X150500000Y-121012500D03*
X149750000Y-120250000D03*
X180500000Y-121012500D03*
X179750000Y-120250000D03*
X210500000Y-121012500D03*
X209750000Y-120250000D03*
X184250000Y-131250000D03*
X165250000Y-123750000D03*
X214250000Y-131250000D03*
X195250000Y-123750000D03*
D15*
X153500000Y-136000000D02*
X154115998Y-136000000D01*
X183500000Y-136000000D02*
X184115998Y-136000000D01*
X213500000Y-136000000D02*
X214115998Y-136000000D01*
X145750000Y-123750000D02*
X135250000Y-123750000D01*
X154250000Y-131250000D02*
X153250000Y-131250000D01*
X153250000Y-131250000D02*
X145750000Y-123750000D01*
D16*
X156040000Y-134797919D02*
X158750000Y-132087919D01*
X156040000Y-136000000D02*
X156040000Y-134797919D01*
X158750000Y-132087919D02*
X158750000Y-129000000D01*
X158750000Y-129000000D02*
X157750000Y-128000000D01*
X157750000Y-128000000D02*
X157750000Y-124000000D01*
X157750000Y-124000000D02*
X154762500Y-121012500D01*
X154762500Y-121012500D02*
X150500000Y-121012500D01*
X186040000Y-134797919D02*
X188750000Y-132087919D01*
X186040000Y-136000000D02*
X186040000Y-134797919D01*
X188750000Y-132087919D02*
X188750000Y-129000000D01*
X188750000Y-129000000D02*
X187750000Y-128000000D01*
X187750000Y-128000000D02*
X187750000Y-124000000D01*
X187750000Y-124000000D02*
X184762500Y-121012500D01*
X184762500Y-121012500D02*
X180500000Y-121012500D01*
X216040000Y-134797919D02*
X218750000Y-132087919D01*
X216040000Y-136000000D02*
X216040000Y-134797919D01*
X218750000Y-132087919D02*
X218750000Y-129000000D01*
X218750000Y-129000000D02*
X217750000Y-128000000D01*
X217750000Y-128000000D02*
X217750000Y-124000000D01*
X217750000Y-124000000D02*
X214762500Y-121012500D01*
X214762500Y-121012500D02*
X210500000Y-121012500D01*
D15*
X175750000Y-123750000D02*
X165250000Y-123750000D01*
X184250000Y-131250000D02*
X183250000Y-131250000D01*
X183250000Y-131250000D02*
X175750000Y-123750000D01*
X205750000Y-123750000D02*
X195250000Y-123750000D01*
X214250000Y-131250000D02*
X213250000Y-131250000D01*
X213250000Y-131250000D02*
X205750000Y-123750000D01*
D17*
G36*
X159625000Y-128292843D02*
G01*
X159584572Y-128243582D01*
X159549344Y-128200656D01*
X159506416Y-128165426D01*
X158875000Y-127534011D01*
X158875000Y-124055261D01*
X158880443Y-123999999D01*
X158865763Y-123850954D01*
X158858722Y-123779462D01*
X158794393Y-123567398D01*
X158689929Y-123371960D01*
X158549344Y-123200656D01*
X158506416Y-123165426D01*
X155597078Y-120256089D01*
X155561844Y-120213156D01*
X155390540Y-120072571D01*
X155195102Y-119968107D01*
X154983038Y-119903778D01*
X154817764Y-119887500D01*
X154817761Y-119887500D01*
X154762500Y-119882057D01*
X154707239Y-119887500D01*
X150709300Y-119887500D01*
X150658344Y-119764480D01*
X150546170Y-119596600D01*
X150403400Y-119453830D01*
X150235520Y-119341656D01*
X150048982Y-119264390D01*
X149850954Y-119225000D01*
X149649046Y-119225000D01*
X149451018Y-119264390D01*
X149264480Y-119341656D01*
X149096600Y-119453830D01*
X148953830Y-119596600D01*
X148841656Y-119764480D01*
X148764390Y-119951018D01*
X148725000Y-120149046D01*
X148725000Y-120350954D01*
X148764390Y-120548982D01*
X148841656Y-120735520D01*
X148953830Y-120903400D01*
X149096600Y-121046170D01*
X149264480Y-121158344D01*
X149389001Y-121209922D01*
X149391278Y-121233038D01*
X149455607Y-121445102D01*
X149560071Y-121640540D01*
X149700656Y-121811844D01*
X149871960Y-121952429D01*
X150067398Y-122056893D01*
X150279462Y-122121222D01*
X150444736Y-122137500D01*
X154296511Y-122137500D01*
X156625001Y-124465991D01*
X156625000Y-127944738D01*
X156619557Y-128000000D01*
X156625000Y-128055261D01*
X156625000Y-128055263D01*
X156641278Y-128220537D01*
X156705607Y-128432601D01*
X156810071Y-128628040D01*
X156950656Y-128799344D01*
X156993589Y-128834578D01*
X157625001Y-129465990D01*
X157625000Y-131621929D01*
X155283585Y-133963345D01*
X155240657Y-133998575D01*
X155205428Y-134041502D01*
X155100072Y-134169879D01*
X154995607Y-134365318D01*
X154969194Y-134452392D01*
X154931278Y-134577381D01*
X154921048Y-134681250D01*
X154909557Y-134797919D01*
X154915000Y-134853180D01*
X154915000Y-134881193D01*
X154872183Y-134801089D01*
X154794080Y-134705920D01*
X154698911Y-134627817D01*
X154590334Y-134569781D01*
X154472521Y-134534043D01*
X154350000Y-134521976D01*
X153781250Y-134525000D01*
X153625000Y-134681250D01*
X153625000Y-135875000D01*
X153645000Y-135875000D01*
X153645000Y-136125000D01*
X153625000Y-136125000D01*
X153625000Y-136145000D01*
X153375000Y-136145000D01*
X153375000Y-136125000D01*
X152181250Y-136125000D01*
X152025000Y-136281250D01*
X152021976Y-136850000D01*
X152034043Y-136972521D01*
X152069781Y-137090334D01*
X152127817Y-137198911D01*
X152205920Y-137294080D01*
X152301089Y-137372183D01*
X152306359Y-137375000D01*
X150625000Y-137375000D01*
X150625000Y-135150000D01*
X152021976Y-135150000D01*
X152025000Y-135718750D01*
X152181250Y-135875000D01*
X153375000Y-135875000D01*
X153375000Y-134681250D01*
X153218750Y-134525000D01*
X152650000Y-134521976D01*
X152527479Y-134534043D01*
X152409666Y-134569781D01*
X152301089Y-134627817D01*
X152205920Y-134705920D01*
X152127817Y-134801089D01*
X152069781Y-134909666D01*
X152034043Y-135027479D01*
X152021976Y-135150000D01*
X150625000Y-135150000D01*
X150625000Y-134250000D01*
X150622598Y-134225614D01*
X150615485Y-134202165D01*
X150603934Y-134180554D01*
X150588388Y-134161612D01*
X150569446Y-134146066D01*
X150547835Y-134134515D01*
X150524386Y-134127402D01*
X150500000Y-134125000D01*
X132625000Y-134125000D01*
X132625000Y-123649046D01*
X134225000Y-123649046D01*
X134225000Y-123850954D01*
X134264390Y-124048982D01*
X134341656Y-124235520D01*
X134453830Y-124403400D01*
X134596600Y-124546170D01*
X134764480Y-124658344D01*
X134951018Y-124735610D01*
X135149046Y-124775000D01*
X135350954Y-124775000D01*
X135548982Y-124735610D01*
X135735520Y-124658344D01*
X135785423Y-124625000D01*
X145387564Y-124625000D01*
X152600888Y-131838325D01*
X152628288Y-131871712D01*
X152761524Y-131981056D01*
X152913532Y-132062305D01*
X153078470Y-132112339D01*
X153250000Y-132129233D01*
X153292979Y-132125000D01*
X153714577Y-132125000D01*
X153764480Y-132158344D01*
X153951018Y-132235610D01*
X154149046Y-132275000D01*
X154350954Y-132275000D01*
X154548982Y-132235610D01*
X154735520Y-132158344D01*
X154903400Y-132046170D01*
X155046170Y-131903400D01*
X155158344Y-131735520D01*
X155235610Y-131548982D01*
X155275000Y-131350954D01*
X155275000Y-131149046D01*
X155235610Y-130951018D01*
X155158344Y-130764480D01*
X155046170Y-130596600D01*
X154903400Y-130453830D01*
X154735520Y-130341656D01*
X154548982Y-130264390D01*
X154350954Y-130225000D01*
X154149046Y-130225000D01*
X153951018Y-130264390D01*
X153764480Y-130341656D01*
X153714577Y-130375000D01*
X153612437Y-130375000D01*
X146399117Y-123161681D01*
X146371712Y-123128288D01*
X146238476Y-123018944D01*
X146086468Y-122937695D01*
X145921530Y-122887661D01*
X145792979Y-122875000D01*
X145750000Y-122870767D01*
X145707021Y-122875000D01*
X135785423Y-122875000D01*
X135735520Y-122841656D01*
X135548982Y-122764390D01*
X135350954Y-122725000D01*
X135149046Y-122725000D01*
X134951018Y-122764390D01*
X134764480Y-122841656D01*
X134596600Y-122953830D01*
X134453830Y-123096600D01*
X134341656Y-123264480D01*
X134264390Y-123451018D01*
X134225000Y-123649046D01*
X132625000Y-123649046D01*
X132625000Y-117625000D01*
X159625000Y-117625000D01*
X159625000Y-128292843D01*
X159625000Y-128292843D01*
G37*
X159625000Y-128292843D02*
X159584572Y-128243582D01*
X159549344Y-128200656D01*
X159506416Y-128165426D01*
X158875000Y-127534011D01*
X158875000Y-124055261D01*
X158880443Y-123999999D01*
X158865763Y-123850954D01*
X158858722Y-123779462D01*
X158794393Y-123567398D01*
X158689929Y-123371960D01*
X158549344Y-123200656D01*
X158506416Y-123165426D01*
X155597078Y-120256089D01*
X155561844Y-120213156D01*
X155390540Y-120072571D01*
X155195102Y-119968107D01*
X154983038Y-119903778D01*
X154817764Y-119887500D01*
X154817761Y-119887500D01*
X154762500Y-119882057D01*
X154707239Y-119887500D01*
X150709300Y-119887500D01*
X150658344Y-119764480D01*
X150546170Y-119596600D01*
X150403400Y-119453830D01*
X150235520Y-119341656D01*
X150048982Y-119264390D01*
X149850954Y-119225000D01*
X149649046Y-119225000D01*
X149451018Y-119264390D01*
X149264480Y-119341656D01*
X149096600Y-119453830D01*
X148953830Y-119596600D01*
X148841656Y-119764480D01*
X148764390Y-119951018D01*
X148725000Y-120149046D01*
X148725000Y-120350954D01*
X148764390Y-120548982D01*
X148841656Y-120735520D01*
X148953830Y-120903400D01*
X149096600Y-121046170D01*
X149264480Y-121158344D01*
X149389001Y-121209922D01*
X149391278Y-121233038D01*
X149455607Y-121445102D01*
X149560071Y-121640540D01*
X149700656Y-121811844D01*
X149871960Y-121952429D01*
X150067398Y-122056893D01*
X150279462Y-122121222D01*
X150444736Y-122137500D01*
X154296511Y-122137500D01*
X156625001Y-124465991D01*
X156625000Y-127944738D01*
X156619557Y-128000000D01*
X156625000Y-128055261D01*
X156625000Y-128055263D01*
X156641278Y-128220537D01*
X156705607Y-128432601D01*
X156810071Y-128628040D01*
X156950656Y-128799344D01*
X156993589Y-128834578D01*
X157625001Y-129465990D01*
X157625000Y-131621929D01*
X155283585Y-133963345D01*
X155240657Y-133998575D01*
X155205428Y-134041502D01*
X155100072Y-134169879D01*
X154995607Y-134365318D01*
X154969194Y-134452392D01*
X154931278Y-134577381D01*
X154921048Y-134681250D01*
X154909557Y-134797919D01*
X154915000Y-134853180D01*
X154915000Y-134881193D01*
X154872183Y-134801089D01*
X154794080Y-134705920D01*
X154698911Y-134627817D01*
X154590334Y-134569781D01*
X154472521Y-134534043D01*
X154350000Y-134521976D01*
X153781250Y-134525000D01*
X153625000Y-134681250D01*
X153625000Y-135875000D01*
X153645000Y-135875000D01*
X153645000Y-136125000D01*
X153625000Y-136125000D01*
X153625000Y-136145000D01*
X153375000Y-136145000D01*
X153375000Y-136125000D01*
X152181250Y-136125000D01*
X152025000Y-136281250D01*
X152021976Y-136850000D01*
X152034043Y-136972521D01*
X152069781Y-137090334D01*
X152127817Y-137198911D01*
X152205920Y-137294080D01*
X152301089Y-137372183D01*
X152306359Y-137375000D01*
X150625000Y-137375000D01*
X150625000Y-135150000D01*
X152021976Y-135150000D01*
X152025000Y-135718750D01*
X152181250Y-135875000D01*
X153375000Y-135875000D01*
X153375000Y-134681250D01*
X153218750Y-134525000D01*
X152650000Y-134521976D01*
X152527479Y-134534043D01*
X152409666Y-134569781D01*
X152301089Y-134627817D01*
X152205920Y-134705920D01*
X152127817Y-134801089D01*
X152069781Y-134909666D01*
X152034043Y-135027479D01*
X152021976Y-135150000D01*
X150625000Y-135150000D01*
X150625000Y-134250000D01*
X150622598Y-134225614D01*
X150615485Y-134202165D01*
X150603934Y-134180554D01*
X150588388Y-134161612D01*
X150569446Y-134146066D01*
X150547835Y-134134515D01*
X150524386Y-134127402D01*
X150500000Y-134125000D01*
X132625000Y-134125000D01*
X132625000Y-123649046D01*
X134225000Y-123649046D01*
X134225000Y-123850954D01*
X134264390Y-124048982D01*
X134341656Y-124235520D01*
X134453830Y-124403400D01*
X134596600Y-124546170D01*
X134764480Y-124658344D01*
X134951018Y-124735610D01*
X135149046Y-124775000D01*
X135350954Y-124775000D01*
X135548982Y-124735610D01*
X135735520Y-124658344D01*
X135785423Y-124625000D01*
X145387564Y-124625000D01*
X152600888Y-131838325D01*
X152628288Y-131871712D01*
X152761524Y-131981056D01*
X152913532Y-132062305D01*
X153078470Y-132112339D01*
X153250000Y-132129233D01*
X153292979Y-132125000D01*
X153714577Y-132125000D01*
X153764480Y-132158344D01*
X153951018Y-132235610D01*
X154149046Y-132275000D01*
X154350954Y-132275000D01*
X154548982Y-132235610D01*
X154735520Y-132158344D01*
X154903400Y-132046170D01*
X155046170Y-131903400D01*
X155158344Y-131735520D01*
X155235610Y-131548982D01*
X155275000Y-131350954D01*
X155275000Y-131149046D01*
X155235610Y-130951018D01*
X155158344Y-130764480D01*
X155046170Y-130596600D01*
X154903400Y-130453830D01*
X154735520Y-130341656D01*
X154548982Y-130264390D01*
X154350954Y-130225000D01*
X154149046Y-130225000D01*
X153951018Y-130264390D01*
X153764480Y-130341656D01*
X153714577Y-130375000D01*
X153612437Y-130375000D01*
X146399117Y-123161681D01*
X146371712Y-123128288D01*
X146238476Y-123018944D01*
X146086468Y-122937695D01*
X145921530Y-122887661D01*
X145792979Y-122875000D01*
X145750000Y-122870767D01*
X145707021Y-122875000D01*
X135785423Y-122875000D01*
X135735520Y-122841656D01*
X135548982Y-122764390D01*
X135350954Y-122725000D01*
X135149046Y-122725000D01*
X134951018Y-122764390D01*
X134764480Y-122841656D01*
X134596600Y-122953830D01*
X134453830Y-123096600D01*
X134341656Y-123264480D01*
X134264390Y-123451018D01*
X134225000Y-123649046D01*
X132625000Y-123649046D01*
X132625000Y-117625000D01*
X159625000Y-117625000D01*
X159625000Y-128292843D01*
G36*
X159625000Y-133500000D02*
G01*
X159627402Y-133524386D01*
X159634515Y-133547835D01*
X159646066Y-133569446D01*
X159661612Y-133588388D01*
X159680554Y-133603934D01*
X159702165Y-133615485D01*
X159725614Y-133622598D01*
X159750000Y-133625000D01*
X159875000Y-133625000D01*
X159875000Y-135293777D01*
X159812351Y-135176569D01*
X159628028Y-134951972D01*
X159403431Y-134767649D01*
X159147189Y-134630685D01*
X158869150Y-134546343D01*
X158652452Y-134525000D01*
X158507548Y-134525000D01*
X158290850Y-134546343D01*
X158012811Y-134630685D01*
X157756569Y-134767649D01*
X157531972Y-134951972D01*
X157347649Y-135176569D01*
X157310000Y-135247005D01*
X157272351Y-135176569D01*
X157263331Y-135165578D01*
X159506416Y-132922493D01*
X159549344Y-132887263D01*
X159625000Y-132795076D01*
X159625000Y-133500000D01*
X159625000Y-133500000D01*
G37*
X159625000Y-133500000D02*
X159627402Y-133524386D01*
X159634515Y-133547835D01*
X159646066Y-133569446D01*
X159661612Y-133588388D01*
X159680554Y-133603934D01*
X159702165Y-133615485D01*
X159725614Y-133622598D01*
X159750000Y-133625000D01*
X159875000Y-133625000D01*
X159875000Y-135293777D01*
X159812351Y-135176569D01*
X159628028Y-134951972D01*
X159403431Y-134767649D01*
X159147189Y-134630685D01*
X158869150Y-134546343D01*
X158652452Y-134525000D01*
X158507548Y-134525000D01*
X158290850Y-134546343D01*
X158012811Y-134630685D01*
X157756569Y-134767649D01*
X157531972Y-134951972D01*
X157347649Y-135176569D01*
X157310000Y-135247005D01*
X157272351Y-135176569D01*
X157263331Y-135165578D01*
X159506416Y-132922493D01*
X159549344Y-132887263D01*
X159625000Y-132795076D01*
X159625000Y-133500000D01*
G36*
X189625000Y-128292843D02*
G01*
X189584572Y-128243582D01*
X189549344Y-128200656D01*
X189506416Y-128165426D01*
X188875000Y-127534011D01*
X188875000Y-124055261D01*
X188880443Y-123999999D01*
X188865763Y-123850954D01*
X188858722Y-123779462D01*
X188794393Y-123567398D01*
X188689929Y-123371960D01*
X188549344Y-123200656D01*
X188506416Y-123165426D01*
X185597078Y-120256089D01*
X185561844Y-120213156D01*
X185390540Y-120072571D01*
X185195102Y-119968107D01*
X184983038Y-119903778D01*
X184817764Y-119887500D01*
X184817761Y-119887500D01*
X184762500Y-119882057D01*
X184707239Y-119887500D01*
X180709300Y-119887500D01*
X180658344Y-119764480D01*
X180546170Y-119596600D01*
X180403400Y-119453830D01*
X180235520Y-119341656D01*
X180048982Y-119264390D01*
X179850954Y-119225000D01*
X179649046Y-119225000D01*
X179451018Y-119264390D01*
X179264480Y-119341656D01*
X179096600Y-119453830D01*
X178953830Y-119596600D01*
X178841656Y-119764480D01*
X178764390Y-119951018D01*
X178725000Y-120149046D01*
X178725000Y-120350954D01*
X178764390Y-120548982D01*
X178841656Y-120735520D01*
X178953830Y-120903400D01*
X179096600Y-121046170D01*
X179264480Y-121158344D01*
X179389001Y-121209922D01*
X179391278Y-121233038D01*
X179455607Y-121445102D01*
X179560071Y-121640540D01*
X179700656Y-121811844D01*
X179871960Y-121952429D01*
X180067398Y-122056893D01*
X180279462Y-122121222D01*
X180444736Y-122137500D01*
X184296511Y-122137500D01*
X186625001Y-124465991D01*
X186625000Y-127944738D01*
X186619557Y-128000000D01*
X186625000Y-128055261D01*
X186625000Y-128055263D01*
X186641278Y-128220537D01*
X186705607Y-128432601D01*
X186810071Y-128628040D01*
X186950656Y-128799344D01*
X186993589Y-128834578D01*
X187625001Y-129465990D01*
X187625000Y-131621929D01*
X185283585Y-133963345D01*
X185240657Y-133998575D01*
X185205428Y-134041502D01*
X185100072Y-134169879D01*
X184995607Y-134365318D01*
X184969194Y-134452392D01*
X184931278Y-134577381D01*
X184921048Y-134681250D01*
X184909557Y-134797919D01*
X184915000Y-134853180D01*
X184915000Y-134881193D01*
X184872183Y-134801089D01*
X184794080Y-134705920D01*
X184698911Y-134627817D01*
X184590334Y-134569781D01*
X184472521Y-134534043D01*
X184350000Y-134521976D01*
X183781250Y-134525000D01*
X183625000Y-134681250D01*
X183625000Y-135875000D01*
X183645000Y-135875000D01*
X183645000Y-136125000D01*
X183625000Y-136125000D01*
X183625000Y-136145000D01*
X183375000Y-136145000D01*
X183375000Y-136125000D01*
X182181250Y-136125000D01*
X182025000Y-136281250D01*
X182021976Y-136850000D01*
X182034043Y-136972521D01*
X182069781Y-137090334D01*
X182127817Y-137198911D01*
X182205920Y-137294080D01*
X182301089Y-137372183D01*
X182306359Y-137375000D01*
X180625000Y-137375000D01*
X180625000Y-135150000D01*
X182021976Y-135150000D01*
X182025000Y-135718750D01*
X182181250Y-135875000D01*
X183375000Y-135875000D01*
X183375000Y-134681250D01*
X183218750Y-134525000D01*
X182650000Y-134521976D01*
X182527479Y-134534043D01*
X182409666Y-134569781D01*
X182301089Y-134627817D01*
X182205920Y-134705920D01*
X182127817Y-134801089D01*
X182069781Y-134909666D01*
X182034043Y-135027479D01*
X182021976Y-135150000D01*
X180625000Y-135150000D01*
X180625000Y-134250000D01*
X180622598Y-134225614D01*
X180615485Y-134202165D01*
X180603934Y-134180554D01*
X180588388Y-134161612D01*
X180569446Y-134146066D01*
X180547835Y-134134515D01*
X180524386Y-134127402D01*
X180500000Y-134125000D01*
X162625000Y-134125000D01*
X162625000Y-133625000D01*
X162750000Y-133625000D01*
X162774386Y-133622598D01*
X162797835Y-133615485D01*
X162819446Y-133603934D01*
X162838388Y-133588388D01*
X162853934Y-133569446D01*
X162865485Y-133547835D01*
X162872598Y-133524386D01*
X162875000Y-133500000D01*
X162875000Y-123649046D01*
X164225000Y-123649046D01*
X164225000Y-123850954D01*
X164264390Y-124048982D01*
X164341656Y-124235520D01*
X164453830Y-124403400D01*
X164596600Y-124546170D01*
X164764480Y-124658344D01*
X164951018Y-124735610D01*
X165149046Y-124775000D01*
X165350954Y-124775000D01*
X165548982Y-124735610D01*
X165735520Y-124658344D01*
X165785423Y-124625000D01*
X175387564Y-124625000D01*
X182600888Y-131838325D01*
X182628288Y-131871712D01*
X182761524Y-131981056D01*
X182913532Y-132062305D01*
X183078470Y-132112339D01*
X183250000Y-132129233D01*
X183292979Y-132125000D01*
X183714577Y-132125000D01*
X183764480Y-132158344D01*
X183951018Y-132235610D01*
X184149046Y-132275000D01*
X184350954Y-132275000D01*
X184548982Y-132235610D01*
X184735520Y-132158344D01*
X184903400Y-132046170D01*
X185046170Y-131903400D01*
X185158344Y-131735520D01*
X185235610Y-131548982D01*
X185275000Y-131350954D01*
X185275000Y-131149046D01*
X185235610Y-130951018D01*
X185158344Y-130764480D01*
X185046170Y-130596600D01*
X184903400Y-130453830D01*
X184735520Y-130341656D01*
X184548982Y-130264390D01*
X184350954Y-130225000D01*
X184149046Y-130225000D01*
X183951018Y-130264390D01*
X183764480Y-130341656D01*
X183714577Y-130375000D01*
X183612437Y-130375000D01*
X176399117Y-123161681D01*
X176371712Y-123128288D01*
X176238476Y-123018944D01*
X176086468Y-122937695D01*
X175921530Y-122887661D01*
X175792979Y-122875000D01*
X175750000Y-122870767D01*
X175707021Y-122875000D01*
X165785423Y-122875000D01*
X165735520Y-122841656D01*
X165548982Y-122764390D01*
X165350954Y-122725000D01*
X165149046Y-122725000D01*
X164951018Y-122764390D01*
X164764480Y-122841656D01*
X164596600Y-122953830D01*
X164453830Y-123096600D01*
X164341656Y-123264480D01*
X164264390Y-123451018D01*
X164225000Y-123649046D01*
X162875000Y-123649046D01*
X162875000Y-117625000D01*
X189625000Y-117625000D01*
X189625000Y-128292843D01*
X189625000Y-128292843D01*
G37*
X189625000Y-128292843D02*
X189584572Y-128243582D01*
X189549344Y-128200656D01*
X189506416Y-128165426D01*
X188875000Y-127534011D01*
X188875000Y-124055261D01*
X188880443Y-123999999D01*
X188865763Y-123850954D01*
X188858722Y-123779462D01*
X188794393Y-123567398D01*
X188689929Y-123371960D01*
X188549344Y-123200656D01*
X188506416Y-123165426D01*
X185597078Y-120256089D01*
X185561844Y-120213156D01*
X185390540Y-120072571D01*
X185195102Y-119968107D01*
X184983038Y-119903778D01*
X184817764Y-119887500D01*
X184817761Y-119887500D01*
X184762500Y-119882057D01*
X184707239Y-119887500D01*
X180709300Y-119887500D01*
X180658344Y-119764480D01*
X180546170Y-119596600D01*
X180403400Y-119453830D01*
X180235520Y-119341656D01*
X180048982Y-119264390D01*
X179850954Y-119225000D01*
X179649046Y-119225000D01*
X179451018Y-119264390D01*
X179264480Y-119341656D01*
X179096600Y-119453830D01*
X178953830Y-119596600D01*
X178841656Y-119764480D01*
X178764390Y-119951018D01*
X178725000Y-120149046D01*
X178725000Y-120350954D01*
X178764390Y-120548982D01*
X178841656Y-120735520D01*
X178953830Y-120903400D01*
X179096600Y-121046170D01*
X179264480Y-121158344D01*
X179389001Y-121209922D01*
X179391278Y-121233038D01*
X179455607Y-121445102D01*
X179560071Y-121640540D01*
X179700656Y-121811844D01*
X179871960Y-121952429D01*
X180067398Y-122056893D01*
X180279462Y-122121222D01*
X180444736Y-122137500D01*
X184296511Y-122137500D01*
X186625001Y-124465991D01*
X186625000Y-127944738D01*
X186619557Y-128000000D01*
X186625000Y-128055261D01*
X186625000Y-128055263D01*
X186641278Y-128220537D01*
X186705607Y-128432601D01*
X186810071Y-128628040D01*
X186950656Y-128799344D01*
X186993589Y-128834578D01*
X187625001Y-129465990D01*
X187625000Y-131621929D01*
X185283585Y-133963345D01*
X185240657Y-133998575D01*
X185205428Y-134041502D01*
X185100072Y-134169879D01*
X184995607Y-134365318D01*
X184969194Y-134452392D01*
X184931278Y-134577381D01*
X184921048Y-134681250D01*
X184909557Y-134797919D01*
X184915000Y-134853180D01*
X184915000Y-134881193D01*
X184872183Y-134801089D01*
X184794080Y-134705920D01*
X184698911Y-134627817D01*
X184590334Y-134569781D01*
X184472521Y-134534043D01*
X184350000Y-134521976D01*
X183781250Y-134525000D01*
X183625000Y-134681250D01*
X183625000Y-135875000D01*
X183645000Y-135875000D01*
X183645000Y-136125000D01*
X183625000Y-136125000D01*
X183625000Y-136145000D01*
X183375000Y-136145000D01*
X183375000Y-136125000D01*
X182181250Y-136125000D01*
X182025000Y-136281250D01*
X182021976Y-136850000D01*
X182034043Y-136972521D01*
X182069781Y-137090334D01*
X182127817Y-137198911D01*
X182205920Y-137294080D01*
X182301089Y-137372183D01*
X182306359Y-137375000D01*
X180625000Y-137375000D01*
X180625000Y-135150000D01*
X182021976Y-135150000D01*
X182025000Y-135718750D01*
X182181250Y-135875000D01*
X183375000Y-135875000D01*
X183375000Y-134681250D01*
X183218750Y-134525000D01*
X182650000Y-134521976D01*
X182527479Y-134534043D01*
X182409666Y-134569781D01*
X182301089Y-134627817D01*
X182205920Y-134705920D01*
X182127817Y-134801089D01*
X182069781Y-134909666D01*
X182034043Y-135027479D01*
X182021976Y-135150000D01*
X180625000Y-135150000D01*
X180625000Y-134250000D01*
X180622598Y-134225614D01*
X180615485Y-134202165D01*
X180603934Y-134180554D01*
X180588388Y-134161612D01*
X180569446Y-134146066D01*
X180547835Y-134134515D01*
X180524386Y-134127402D01*
X180500000Y-134125000D01*
X162625000Y-134125000D01*
X162625000Y-133625000D01*
X162750000Y-133625000D01*
X162774386Y-133622598D01*
X162797835Y-133615485D01*
X162819446Y-133603934D01*
X162838388Y-133588388D01*
X162853934Y-133569446D01*
X162865485Y-133547835D01*
X162872598Y-133524386D01*
X162875000Y-133500000D01*
X162875000Y-123649046D01*
X164225000Y-123649046D01*
X164225000Y-123850954D01*
X164264390Y-124048982D01*
X164341656Y-124235520D01*
X164453830Y-124403400D01*
X164596600Y-124546170D01*
X164764480Y-124658344D01*
X164951018Y-124735610D01*
X165149046Y-124775000D01*
X165350954Y-124775000D01*
X165548982Y-124735610D01*
X165735520Y-124658344D01*
X165785423Y-124625000D01*
X175387564Y-124625000D01*
X182600888Y-131838325D01*
X182628288Y-131871712D01*
X182761524Y-131981056D01*
X182913532Y-132062305D01*
X183078470Y-132112339D01*
X183250000Y-132129233D01*
X183292979Y-132125000D01*
X183714577Y-132125000D01*
X183764480Y-132158344D01*
X183951018Y-132235610D01*
X184149046Y-132275000D01*
X184350954Y-132275000D01*
X184548982Y-132235610D01*
X184735520Y-132158344D01*
X184903400Y-132046170D01*
X185046170Y-131903400D01*
X185158344Y-131735520D01*
X185235610Y-131548982D01*
X185275000Y-131350954D01*
X185275000Y-131149046D01*
X185235610Y-130951018D01*
X185158344Y-130764480D01*
X185046170Y-130596600D01*
X184903400Y-130453830D01*
X184735520Y-130341656D01*
X184548982Y-130264390D01*
X184350954Y-130225000D01*
X184149046Y-130225000D01*
X183951018Y-130264390D01*
X183764480Y-130341656D01*
X183714577Y-130375000D01*
X183612437Y-130375000D01*
X176399117Y-123161681D01*
X176371712Y-123128288D01*
X176238476Y-123018944D01*
X176086468Y-122937695D01*
X175921530Y-122887661D01*
X175792979Y-122875000D01*
X175750000Y-122870767D01*
X175707021Y-122875000D01*
X165785423Y-122875000D01*
X165735520Y-122841656D01*
X165548982Y-122764390D01*
X165350954Y-122725000D01*
X165149046Y-122725000D01*
X164951018Y-122764390D01*
X164764480Y-122841656D01*
X164596600Y-122953830D01*
X164453830Y-123096600D01*
X164341656Y-123264480D01*
X164264390Y-123451018D01*
X164225000Y-123649046D01*
X162875000Y-123649046D01*
X162875000Y-117625000D01*
X189625000Y-117625000D01*
X189625000Y-128292843D01*
G36*
X189625000Y-133500000D02*
G01*
X189627402Y-133524386D01*
X189634515Y-133547835D01*
X189646066Y-133569446D01*
X189661612Y-133588388D01*
X189680554Y-133603934D01*
X189702165Y-133615485D01*
X189725614Y-133622598D01*
X189750000Y-133625000D01*
X189875000Y-133625000D01*
X189875000Y-135293777D01*
X189812351Y-135176569D01*
X189628028Y-134951972D01*
X189403431Y-134767649D01*
X189147189Y-134630685D01*
X188869150Y-134546343D01*
X188652452Y-134525000D01*
X188507548Y-134525000D01*
X188290850Y-134546343D01*
X188012811Y-134630685D01*
X187756569Y-134767649D01*
X187531972Y-134951972D01*
X187347649Y-135176569D01*
X187310000Y-135247005D01*
X187272351Y-135176569D01*
X187263331Y-135165578D01*
X189506416Y-132922493D01*
X189549344Y-132887263D01*
X189625000Y-132795076D01*
X189625000Y-133500000D01*
X189625000Y-133500000D01*
G37*
X189625000Y-133500000D02*
X189627402Y-133524386D01*
X189634515Y-133547835D01*
X189646066Y-133569446D01*
X189661612Y-133588388D01*
X189680554Y-133603934D01*
X189702165Y-133615485D01*
X189725614Y-133622598D01*
X189750000Y-133625000D01*
X189875000Y-133625000D01*
X189875000Y-135293777D01*
X189812351Y-135176569D01*
X189628028Y-134951972D01*
X189403431Y-134767649D01*
X189147189Y-134630685D01*
X188869150Y-134546343D01*
X188652452Y-134525000D01*
X188507548Y-134525000D01*
X188290850Y-134546343D01*
X188012811Y-134630685D01*
X187756569Y-134767649D01*
X187531972Y-134951972D01*
X187347649Y-135176569D01*
X187310000Y-135247005D01*
X187272351Y-135176569D01*
X187263331Y-135165578D01*
X189506416Y-132922493D01*
X189549344Y-132887263D01*
X189625000Y-132795076D01*
X189625000Y-133500000D01*
D18*
G36*
X192623000Y-133373000D02*
G01*
X189877000Y-133373000D01*
X189877000Y-132224897D01*
X189885000Y-132143671D01*
X189885000Y-132143670D01*
X189890491Y-132087919D01*
X189885000Y-132032167D01*
X189885000Y-129055752D01*
X189890491Y-129000000D01*
X189877000Y-128863022D01*
X189877000Y-117627000D01*
X192623000Y-117627000D01*
X192623000Y-133373000D01*
X192623000Y-133373000D01*
G37*
X192623000Y-133373000D02*
X189877000Y-133373000D01*
X189877000Y-132224897D01*
X189885000Y-132143671D01*
X189885000Y-132143670D01*
X189890491Y-132087919D01*
X189885000Y-132032167D01*
X189885000Y-129055752D01*
X189890491Y-129000000D01*
X189877000Y-128863022D01*
X189877000Y-117627000D01*
X192623000Y-117627000D01*
X192623000Y-133373000D01*
D17*
G36*
X219625000Y-128292843D02*
G01*
X219584572Y-128243582D01*
X219549344Y-128200656D01*
X219506416Y-128165426D01*
X218875000Y-127534011D01*
X218875000Y-124055261D01*
X218880443Y-123999999D01*
X218865763Y-123850954D01*
X218858722Y-123779462D01*
X218794393Y-123567398D01*
X218689929Y-123371960D01*
X218549344Y-123200656D01*
X218506416Y-123165426D01*
X215597078Y-120256089D01*
X215561844Y-120213156D01*
X215390540Y-120072571D01*
X215195102Y-119968107D01*
X214983038Y-119903778D01*
X214817764Y-119887500D01*
X214817761Y-119887500D01*
X214762500Y-119882057D01*
X214707239Y-119887500D01*
X210709300Y-119887500D01*
X210658344Y-119764480D01*
X210546170Y-119596600D01*
X210403400Y-119453830D01*
X210235520Y-119341656D01*
X210048982Y-119264390D01*
X209850954Y-119225000D01*
X209649046Y-119225000D01*
X209451018Y-119264390D01*
X209264480Y-119341656D01*
X209096600Y-119453830D01*
X208953830Y-119596600D01*
X208841656Y-119764480D01*
X208764390Y-119951018D01*
X208725000Y-120149046D01*
X208725000Y-120350954D01*
X208764390Y-120548982D01*
X208841656Y-120735520D01*
X208953830Y-120903400D01*
X209096600Y-121046170D01*
X209264480Y-121158344D01*
X209389001Y-121209922D01*
X209391278Y-121233038D01*
X209455607Y-121445102D01*
X209560071Y-121640540D01*
X209700656Y-121811844D01*
X209871960Y-121952429D01*
X210067398Y-122056893D01*
X210279462Y-122121222D01*
X210444736Y-122137500D01*
X214296511Y-122137500D01*
X216625001Y-124465991D01*
X216625000Y-127944738D01*
X216619557Y-128000000D01*
X216625000Y-128055261D01*
X216625000Y-128055263D01*
X216641278Y-128220537D01*
X216705607Y-128432601D01*
X216810071Y-128628040D01*
X216950656Y-128799344D01*
X216993589Y-128834578D01*
X217625001Y-129465990D01*
X217625000Y-131621929D01*
X215283585Y-133963345D01*
X215240657Y-133998575D01*
X215205428Y-134041502D01*
X215100072Y-134169879D01*
X214995607Y-134365318D01*
X214969194Y-134452392D01*
X214931278Y-134577381D01*
X214921048Y-134681250D01*
X214909557Y-134797919D01*
X214915000Y-134853180D01*
X214915000Y-134881193D01*
X214872183Y-134801089D01*
X214794080Y-134705920D01*
X214698911Y-134627817D01*
X214590334Y-134569781D01*
X214472521Y-134534043D01*
X214350000Y-134521976D01*
X213781250Y-134525000D01*
X213625000Y-134681250D01*
X213625000Y-135875000D01*
X213645000Y-135875000D01*
X213645000Y-136125000D01*
X213625000Y-136125000D01*
X213625000Y-136145000D01*
X213375000Y-136145000D01*
X213375000Y-136125000D01*
X212181250Y-136125000D01*
X212025000Y-136281250D01*
X212021976Y-136850000D01*
X212034043Y-136972521D01*
X212069781Y-137090334D01*
X212127817Y-137198911D01*
X212205920Y-137294080D01*
X212301089Y-137372183D01*
X212306359Y-137375000D01*
X210625000Y-137375000D01*
X210625000Y-135150000D01*
X212021976Y-135150000D01*
X212025000Y-135718750D01*
X212181250Y-135875000D01*
X213375000Y-135875000D01*
X213375000Y-134681250D01*
X213218750Y-134525000D01*
X212650000Y-134521976D01*
X212527479Y-134534043D01*
X212409666Y-134569781D01*
X212301089Y-134627817D01*
X212205920Y-134705920D01*
X212127817Y-134801089D01*
X212069781Y-134909666D01*
X212034043Y-135027479D01*
X212021976Y-135150000D01*
X210625000Y-135150000D01*
X210625000Y-134250000D01*
X210622598Y-134225614D01*
X210615485Y-134202165D01*
X210603934Y-134180554D01*
X210588388Y-134161612D01*
X210569446Y-134146066D01*
X210547835Y-134134515D01*
X210524386Y-134127402D01*
X210500000Y-134125000D01*
X192625000Y-134125000D01*
X192625000Y-133625000D01*
X192750000Y-133625000D01*
X192774386Y-133622598D01*
X192797835Y-133615485D01*
X192819446Y-133603934D01*
X192838388Y-133588388D01*
X192853934Y-133569446D01*
X192865485Y-133547835D01*
X192872598Y-133524386D01*
X192875000Y-133500000D01*
X192875000Y-123649046D01*
X194225000Y-123649046D01*
X194225000Y-123850954D01*
X194264390Y-124048982D01*
X194341656Y-124235520D01*
X194453830Y-124403400D01*
X194596600Y-124546170D01*
X194764480Y-124658344D01*
X194951018Y-124735610D01*
X195149046Y-124775000D01*
X195350954Y-124775000D01*
X195548982Y-124735610D01*
X195735520Y-124658344D01*
X195785423Y-124625000D01*
X205387564Y-124625000D01*
X212600888Y-131838325D01*
X212628288Y-131871712D01*
X212761524Y-131981056D01*
X212913532Y-132062305D01*
X213078470Y-132112339D01*
X213250000Y-132129233D01*
X213292979Y-132125000D01*
X213714577Y-132125000D01*
X213764480Y-132158344D01*
X213951018Y-132235610D01*
X214149046Y-132275000D01*
X214350954Y-132275000D01*
X214548982Y-132235610D01*
X214735520Y-132158344D01*
X214903400Y-132046170D01*
X215046170Y-131903400D01*
X215158344Y-131735520D01*
X215235610Y-131548982D01*
X215275000Y-131350954D01*
X215275000Y-131149046D01*
X215235610Y-130951018D01*
X215158344Y-130764480D01*
X215046170Y-130596600D01*
X214903400Y-130453830D01*
X214735520Y-130341656D01*
X214548982Y-130264390D01*
X214350954Y-130225000D01*
X214149046Y-130225000D01*
X213951018Y-130264390D01*
X213764480Y-130341656D01*
X213714577Y-130375000D01*
X213612437Y-130375000D01*
X206399117Y-123161681D01*
X206371712Y-123128288D01*
X206238476Y-123018944D01*
X206086468Y-122937695D01*
X205921530Y-122887661D01*
X205792979Y-122875000D01*
X205750000Y-122870767D01*
X205707021Y-122875000D01*
X195785423Y-122875000D01*
X195735520Y-122841656D01*
X195548982Y-122764390D01*
X195350954Y-122725000D01*
X195149046Y-122725000D01*
X194951018Y-122764390D01*
X194764480Y-122841656D01*
X194596600Y-122953830D01*
X194453830Y-123096600D01*
X194341656Y-123264480D01*
X194264390Y-123451018D01*
X194225000Y-123649046D01*
X192875000Y-123649046D01*
X192875000Y-117625000D01*
X219625000Y-117625000D01*
X219625000Y-128292843D01*
X219625000Y-128292843D01*
G37*
X219625000Y-128292843D02*
X219584572Y-128243582D01*
X219549344Y-128200656D01*
X219506416Y-128165426D01*
X218875000Y-127534011D01*
X218875000Y-124055261D01*
X218880443Y-123999999D01*
X218865763Y-123850954D01*
X218858722Y-123779462D01*
X218794393Y-123567398D01*
X218689929Y-123371960D01*
X218549344Y-123200656D01*
X218506416Y-123165426D01*
X215597078Y-120256089D01*
X215561844Y-120213156D01*
X215390540Y-120072571D01*
X215195102Y-119968107D01*
X214983038Y-119903778D01*
X214817764Y-119887500D01*
X214817761Y-119887500D01*
X214762500Y-119882057D01*
X214707239Y-119887500D01*
X210709300Y-119887500D01*
X210658344Y-119764480D01*
X210546170Y-119596600D01*
X210403400Y-119453830D01*
X210235520Y-119341656D01*
X210048982Y-119264390D01*
X209850954Y-119225000D01*
X209649046Y-119225000D01*
X209451018Y-119264390D01*
X209264480Y-119341656D01*
X209096600Y-119453830D01*
X208953830Y-119596600D01*
X208841656Y-119764480D01*
X208764390Y-119951018D01*
X208725000Y-120149046D01*
X208725000Y-120350954D01*
X208764390Y-120548982D01*
X208841656Y-120735520D01*
X208953830Y-120903400D01*
X209096600Y-121046170D01*
X209264480Y-121158344D01*
X209389001Y-121209922D01*
X209391278Y-121233038D01*
X209455607Y-121445102D01*
X209560071Y-121640540D01*
X209700656Y-121811844D01*
X209871960Y-121952429D01*
X210067398Y-122056893D01*
X210279462Y-122121222D01*
X210444736Y-122137500D01*
X214296511Y-122137500D01*
X216625001Y-124465991D01*
X216625000Y-127944738D01*
X216619557Y-128000000D01*
X216625000Y-128055261D01*
X216625000Y-128055263D01*
X216641278Y-128220537D01*
X216705607Y-128432601D01*
X216810071Y-128628040D01*
X216950656Y-128799344D01*
X216993589Y-128834578D01*
X217625001Y-129465990D01*
X217625000Y-131621929D01*
X215283585Y-133963345D01*
X215240657Y-133998575D01*
X215205428Y-134041502D01*
X215100072Y-134169879D01*
X214995607Y-134365318D01*
X214969194Y-134452392D01*
X214931278Y-134577381D01*
X214921048Y-134681250D01*
X214909557Y-134797919D01*
X214915000Y-134853180D01*
X214915000Y-134881193D01*
X214872183Y-134801089D01*
X214794080Y-134705920D01*
X214698911Y-134627817D01*
X214590334Y-134569781D01*
X214472521Y-134534043D01*
X214350000Y-134521976D01*
X213781250Y-134525000D01*
X213625000Y-134681250D01*
X213625000Y-135875000D01*
X213645000Y-135875000D01*
X213645000Y-136125000D01*
X213625000Y-136125000D01*
X213625000Y-136145000D01*
X213375000Y-136145000D01*
X213375000Y-136125000D01*
X212181250Y-136125000D01*
X212025000Y-136281250D01*
X212021976Y-136850000D01*
X212034043Y-136972521D01*
X212069781Y-137090334D01*
X212127817Y-137198911D01*
X212205920Y-137294080D01*
X212301089Y-137372183D01*
X212306359Y-137375000D01*
X210625000Y-137375000D01*
X210625000Y-135150000D01*
X212021976Y-135150000D01*
X212025000Y-135718750D01*
X212181250Y-135875000D01*
X213375000Y-135875000D01*
X213375000Y-134681250D01*
X213218750Y-134525000D01*
X212650000Y-134521976D01*
X212527479Y-134534043D01*
X212409666Y-134569781D01*
X212301089Y-134627817D01*
X212205920Y-134705920D01*
X212127817Y-134801089D01*
X212069781Y-134909666D01*
X212034043Y-135027479D01*
X212021976Y-135150000D01*
X210625000Y-135150000D01*
X210625000Y-134250000D01*
X210622598Y-134225614D01*
X210615485Y-134202165D01*
X210603934Y-134180554D01*
X210588388Y-134161612D01*
X210569446Y-134146066D01*
X210547835Y-134134515D01*
X210524386Y-134127402D01*
X210500000Y-134125000D01*
X192625000Y-134125000D01*
X192625000Y-133625000D01*
X192750000Y-133625000D01*
X192774386Y-133622598D01*
X192797835Y-133615485D01*
X192819446Y-133603934D01*
X192838388Y-133588388D01*
X192853934Y-133569446D01*
X192865485Y-133547835D01*
X192872598Y-133524386D01*
X192875000Y-133500000D01*
X192875000Y-123649046D01*
X194225000Y-123649046D01*
X194225000Y-123850954D01*
X194264390Y-124048982D01*
X194341656Y-124235520D01*
X194453830Y-124403400D01*
X194596600Y-124546170D01*
X194764480Y-124658344D01*
X194951018Y-124735610D01*
X195149046Y-124775000D01*
X195350954Y-124775000D01*
X195548982Y-124735610D01*
X195735520Y-124658344D01*
X195785423Y-124625000D01*
X205387564Y-124625000D01*
X212600888Y-131838325D01*
X212628288Y-131871712D01*
X212761524Y-131981056D01*
X212913532Y-132062305D01*
X213078470Y-132112339D01*
X213250000Y-132129233D01*
X213292979Y-132125000D01*
X213714577Y-132125000D01*
X213764480Y-132158344D01*
X213951018Y-132235610D01*
X214149046Y-132275000D01*
X214350954Y-132275000D01*
X214548982Y-132235610D01*
X214735520Y-132158344D01*
X214903400Y-132046170D01*
X215046170Y-131903400D01*
X215158344Y-131735520D01*
X215235610Y-131548982D01*
X215275000Y-131350954D01*
X215275000Y-131149046D01*
X215235610Y-130951018D01*
X215158344Y-130764480D01*
X215046170Y-130596600D01*
X214903400Y-130453830D01*
X214735520Y-130341656D01*
X214548982Y-130264390D01*
X214350954Y-130225000D01*
X214149046Y-130225000D01*
X213951018Y-130264390D01*
X213764480Y-130341656D01*
X213714577Y-130375000D01*
X213612437Y-130375000D01*
X206399117Y-123161681D01*
X206371712Y-123128288D01*
X206238476Y-123018944D01*
X206086468Y-122937695D01*
X205921530Y-122887661D01*
X205792979Y-122875000D01*
X205750000Y-122870767D01*
X205707021Y-122875000D01*
X195785423Y-122875000D01*
X195735520Y-122841656D01*
X195548982Y-122764390D01*
X195350954Y-122725000D01*
X195149046Y-122725000D01*
X194951018Y-122764390D01*
X194764480Y-122841656D01*
X194596600Y-122953830D01*
X194453830Y-123096600D01*
X194341656Y-123264480D01*
X194264390Y-123451018D01*
X194225000Y-123649046D01*
X192875000Y-123649046D01*
X192875000Y-117625000D01*
X219625000Y-117625000D01*
X219625000Y-128292843D01*
G36*
X219625000Y-133500000D02*
G01*
X219627402Y-133524386D01*
X219634515Y-133547835D01*
X219646066Y-133569446D01*
X219661612Y-133588388D01*
X219680554Y-133603934D01*
X219702165Y-133615485D01*
X219725614Y-133622598D01*
X219750000Y-133625000D01*
X219875000Y-133625000D01*
X219875000Y-135293777D01*
X219812351Y-135176569D01*
X219628028Y-134951972D01*
X219403431Y-134767649D01*
X219147189Y-134630685D01*
X218869150Y-134546343D01*
X218652452Y-134525000D01*
X218507548Y-134525000D01*
X218290850Y-134546343D01*
X218012811Y-134630685D01*
X217756569Y-134767649D01*
X217531972Y-134951972D01*
X217347649Y-135176569D01*
X217310000Y-135247005D01*
X217272351Y-135176569D01*
X217263331Y-135165578D01*
X219506416Y-132922493D01*
X219549344Y-132887263D01*
X219625000Y-132795076D01*
X219625000Y-133500000D01*
X219625000Y-133500000D01*
G37*
X219625000Y-133500000D02*
X219627402Y-133524386D01*
X219634515Y-133547835D01*
X219646066Y-133569446D01*
X219661612Y-133588388D01*
X219680554Y-133603934D01*
X219702165Y-133615485D01*
X219725614Y-133622598D01*
X219750000Y-133625000D01*
X219875000Y-133625000D01*
X219875000Y-135293777D01*
X219812351Y-135176569D01*
X219628028Y-134951972D01*
X219403431Y-134767649D01*
X219147189Y-134630685D01*
X218869150Y-134546343D01*
X218652452Y-134525000D01*
X218507548Y-134525000D01*
X218290850Y-134546343D01*
X218012811Y-134630685D01*
X217756569Y-134767649D01*
X217531972Y-134951972D01*
X217347649Y-135176569D01*
X217310000Y-135247005D01*
X217272351Y-135176569D01*
X217263331Y-135165578D01*
X219506416Y-132922493D01*
X219549344Y-132887263D01*
X219625000Y-132795076D01*
X219625000Y-133500000D01*
D18*
G36*
X220590000Y-133373000D02*
G01*
X219877000Y-133373000D01*
X219877000Y-132224897D01*
X219885000Y-132143671D01*
X219885000Y-132143670D01*
X219890491Y-132087919D01*
X219885000Y-132032167D01*
X219885000Y-129055752D01*
X219890491Y-129000000D01*
X219877000Y-128863022D01*
X219877000Y-117627000D01*
X220590000Y-117627000D01*
X220590000Y-133373000D01*
X220590000Y-133373000D01*
G37*
X220590000Y-133373000D02*
X219877000Y-133373000D01*
X219877000Y-132224897D01*
X219885000Y-132143671D01*
X219885000Y-132143670D01*
X219890491Y-132087919D01*
X219885000Y-132032167D01*
X219885000Y-129055752D01*
X219890491Y-129000000D01*
X219877000Y-128863022D01*
X219877000Y-117627000D01*
X220590000Y-117627000D01*
X220590000Y-133373000D01*
G36*
X162623000Y-133373000D02*
G01*
X159877000Y-133373000D01*
X159877000Y-132224897D01*
X159885000Y-132143671D01*
X159885000Y-132143670D01*
X159890491Y-132087919D01*
X159885000Y-132032167D01*
X159885000Y-129055752D01*
X159890491Y-129000000D01*
X159877000Y-128863022D01*
X159877000Y-117627000D01*
X162623000Y-117627000D01*
X162623000Y-133373000D01*
X162623000Y-133373000D01*
G37*
X162623000Y-133373000D02*
X159877000Y-133373000D01*
X159877000Y-132224897D01*
X159885000Y-132143671D01*
X159885000Y-132143670D01*
X159890491Y-132087919D01*
X159885000Y-132032167D01*
X159885000Y-129055752D01*
X159890491Y-129000000D01*
X159877000Y-128863022D01*
X159877000Y-117627000D01*
X162623000Y-117627000D01*
X162623000Y-133373000D01*
M02*
