G04 #@! TF.GenerationSoftware,KiCad,Pcbnew,(5.1.4)-1*
G04 #@! TF.CreationDate,2021-09-06T11:03:46-04:00*
G04 #@! TF.ProjectId,relay_array,72656c61-795f-4617-9272-61792e6b6963,rev?*
G04 #@! TF.SameCoordinates,Original*
G04 #@! TF.FileFunction,Soldermask,Top*
G04 #@! TF.FilePolarity,Negative*
%FSLAX46Y46*%
G04 Gerber Fmt 4.6, Leading zero omitted, Abs format (unit mm)*
G04 Created by KiCad (PCBNEW (5.1.4)-1) date 2021-09-06 11:03:46*
%MOMM*%
%LPD*%
G04 APERTURE LIST*
%ADD10C,0.100000*%
G04 APERTURE END LIST*
D10*
G36*
X141151000Y-136901000D02*
G01*
X139349000Y-136901000D01*
X139349000Y-135099000D01*
X141151000Y-135099000D01*
X141151000Y-136901000D01*
X141151000Y-136901000D01*
G37*
G36*
X179150442Y-135105518D02*
G01*
X179216627Y-135112037D01*
X179386466Y-135163557D01*
X179542991Y-135247222D01*
X179578729Y-135276552D01*
X179680186Y-135359814D01*
X179763448Y-135461271D01*
X179792778Y-135497009D01*
X179876443Y-135653534D01*
X179927963Y-135823373D01*
X179945359Y-136000000D01*
X179927963Y-136176627D01*
X179876443Y-136346466D01*
X179792778Y-136502991D01*
X179763448Y-136538729D01*
X179680186Y-136640186D01*
X179578729Y-136723448D01*
X179542991Y-136752778D01*
X179386466Y-136836443D01*
X179216627Y-136887963D01*
X179150442Y-136894482D01*
X179084260Y-136901000D01*
X178995740Y-136901000D01*
X178929558Y-136894482D01*
X178863373Y-136887963D01*
X178693534Y-136836443D01*
X178537009Y-136752778D01*
X178501271Y-136723448D01*
X178399814Y-136640186D01*
X178316552Y-136538729D01*
X178287222Y-136502991D01*
X178203557Y-136346466D01*
X178152037Y-136176627D01*
X178134641Y-136000000D01*
X178152037Y-135823373D01*
X178203557Y-135653534D01*
X178287222Y-135497009D01*
X178316552Y-135461271D01*
X178399814Y-135359814D01*
X178501271Y-135276552D01*
X178537009Y-135247222D01*
X178693534Y-135163557D01*
X178863373Y-135112037D01*
X178929558Y-135105518D01*
X178995740Y-135099000D01*
X179084260Y-135099000D01*
X179150442Y-135105518D01*
X179150442Y-135105518D01*
G37*
G36*
X134901000Y-136901000D02*
G01*
X133099000Y-136901000D01*
X133099000Y-135099000D01*
X134901000Y-135099000D01*
X134901000Y-136901000D01*
X134901000Y-136901000D01*
G37*
G36*
X216150442Y-135105518D02*
G01*
X216216627Y-135112037D01*
X216386466Y-135163557D01*
X216542991Y-135247222D01*
X216578729Y-135276552D01*
X216680186Y-135359814D01*
X216763448Y-135461271D01*
X216792778Y-135497009D01*
X216876443Y-135653534D01*
X216927963Y-135823373D01*
X216945359Y-136000000D01*
X216927963Y-136176627D01*
X216876443Y-136346466D01*
X216792778Y-136502991D01*
X216763448Y-136538729D01*
X216680186Y-136640186D01*
X216578729Y-136723448D01*
X216542991Y-136752778D01*
X216386466Y-136836443D01*
X216216627Y-136887963D01*
X216150442Y-136894482D01*
X216084260Y-136901000D01*
X215995740Y-136901000D01*
X215929558Y-136894482D01*
X215863373Y-136887963D01*
X215693534Y-136836443D01*
X215537009Y-136752778D01*
X215501271Y-136723448D01*
X215399814Y-136640186D01*
X215316552Y-136538729D01*
X215287222Y-136502991D01*
X215203557Y-136346466D01*
X215152037Y-136176627D01*
X215134641Y-136000000D01*
X215152037Y-135823373D01*
X215203557Y-135653534D01*
X215287222Y-135497009D01*
X215316552Y-135461271D01*
X215399814Y-135359814D01*
X215501271Y-135276552D01*
X215537009Y-135247222D01*
X215693534Y-135163557D01*
X215863373Y-135112037D01*
X215929558Y-135105518D01*
X215995740Y-135099000D01*
X216084260Y-135099000D01*
X216150442Y-135105518D01*
X216150442Y-135105518D01*
G37*
G36*
X214401000Y-136901000D02*
G01*
X212599000Y-136901000D01*
X212599000Y-135099000D01*
X214401000Y-135099000D01*
X214401000Y-136901000D01*
X214401000Y-136901000D01*
G37*
G36*
X209150442Y-135105518D02*
G01*
X209216627Y-135112037D01*
X209386466Y-135163557D01*
X209542991Y-135247222D01*
X209578729Y-135276552D01*
X209680186Y-135359814D01*
X209763448Y-135461271D01*
X209792778Y-135497009D01*
X209876443Y-135653534D01*
X209927963Y-135823373D01*
X209945359Y-136000000D01*
X209927963Y-136176627D01*
X209876443Y-136346466D01*
X209792778Y-136502991D01*
X209763448Y-136538729D01*
X209680186Y-136640186D01*
X209578729Y-136723448D01*
X209542991Y-136752778D01*
X209386466Y-136836443D01*
X209216627Y-136887963D01*
X209150442Y-136894482D01*
X209084260Y-136901000D01*
X208995740Y-136901000D01*
X208929558Y-136894482D01*
X208863373Y-136887963D01*
X208693534Y-136836443D01*
X208537009Y-136752778D01*
X208501271Y-136723448D01*
X208399814Y-136640186D01*
X208316552Y-136538729D01*
X208287222Y-136502991D01*
X208203557Y-136346466D01*
X208152037Y-136176627D01*
X208134641Y-136000000D01*
X208152037Y-135823373D01*
X208203557Y-135653534D01*
X208287222Y-135497009D01*
X208316552Y-135461271D01*
X208399814Y-135359814D01*
X208501271Y-135276552D01*
X208537009Y-135247222D01*
X208693534Y-135163557D01*
X208863373Y-135112037D01*
X208929558Y-135105518D01*
X208995740Y-135099000D01*
X209084260Y-135099000D01*
X209150442Y-135105518D01*
X209150442Y-135105518D01*
G37*
G36*
X207401000Y-136901000D02*
G01*
X205599000Y-136901000D01*
X205599000Y-135099000D01*
X207401000Y-135099000D01*
X207401000Y-136901000D01*
X207401000Y-136901000D01*
G37*
G36*
X202900442Y-135105518D02*
G01*
X202966627Y-135112037D01*
X203136466Y-135163557D01*
X203292991Y-135247222D01*
X203328729Y-135276552D01*
X203430186Y-135359814D01*
X203513448Y-135461271D01*
X203542778Y-135497009D01*
X203626443Y-135653534D01*
X203677963Y-135823373D01*
X203695359Y-136000000D01*
X203677963Y-136176627D01*
X203626443Y-136346466D01*
X203542778Y-136502991D01*
X203513448Y-136538729D01*
X203430186Y-136640186D01*
X203328729Y-136723448D01*
X203292991Y-136752778D01*
X203136466Y-136836443D01*
X202966627Y-136887963D01*
X202900442Y-136894482D01*
X202834260Y-136901000D01*
X202745740Y-136901000D01*
X202679558Y-136894482D01*
X202613373Y-136887963D01*
X202443534Y-136836443D01*
X202287009Y-136752778D01*
X202251271Y-136723448D01*
X202149814Y-136640186D01*
X202066552Y-136538729D01*
X202037222Y-136502991D01*
X201953557Y-136346466D01*
X201902037Y-136176627D01*
X201884641Y-136000000D01*
X201902037Y-135823373D01*
X201953557Y-135653534D01*
X202037222Y-135497009D01*
X202066552Y-135461271D01*
X202149814Y-135359814D01*
X202251271Y-135276552D01*
X202287009Y-135247222D01*
X202443534Y-135163557D01*
X202613373Y-135112037D01*
X202679558Y-135105518D01*
X202745740Y-135099000D01*
X202834260Y-135099000D01*
X202900442Y-135105518D01*
X202900442Y-135105518D01*
G37*
G36*
X201151000Y-136901000D02*
G01*
X199349000Y-136901000D01*
X199349000Y-135099000D01*
X201151000Y-135099000D01*
X201151000Y-136901000D01*
X201151000Y-136901000D01*
G37*
G36*
X196650442Y-135105518D02*
G01*
X196716627Y-135112037D01*
X196886466Y-135163557D01*
X197042991Y-135247222D01*
X197078729Y-135276552D01*
X197180186Y-135359814D01*
X197263448Y-135461271D01*
X197292778Y-135497009D01*
X197376443Y-135653534D01*
X197427963Y-135823373D01*
X197445359Y-136000000D01*
X197427963Y-136176627D01*
X197376443Y-136346466D01*
X197292778Y-136502991D01*
X197263448Y-136538729D01*
X197180186Y-136640186D01*
X197078729Y-136723448D01*
X197042991Y-136752778D01*
X196886466Y-136836443D01*
X196716627Y-136887963D01*
X196650442Y-136894482D01*
X196584260Y-136901000D01*
X196495740Y-136901000D01*
X196429558Y-136894482D01*
X196363373Y-136887963D01*
X196193534Y-136836443D01*
X196037009Y-136752778D01*
X196001271Y-136723448D01*
X195899814Y-136640186D01*
X195816552Y-136538729D01*
X195787222Y-136502991D01*
X195703557Y-136346466D01*
X195652037Y-136176627D01*
X195634641Y-136000000D01*
X195652037Y-135823373D01*
X195703557Y-135653534D01*
X195787222Y-135497009D01*
X195816552Y-135461271D01*
X195899814Y-135359814D01*
X196001271Y-135276552D01*
X196037009Y-135247222D01*
X196193534Y-135163557D01*
X196363373Y-135112037D01*
X196429558Y-135105518D01*
X196495740Y-135099000D01*
X196584260Y-135099000D01*
X196650442Y-135105518D01*
X196650442Y-135105518D01*
G37*
G36*
X194901000Y-136901000D02*
G01*
X193099000Y-136901000D01*
X193099000Y-135099000D01*
X194901000Y-135099000D01*
X194901000Y-136901000D01*
X194901000Y-136901000D01*
G37*
G36*
X188690442Y-135105518D02*
G01*
X188756627Y-135112037D01*
X188926466Y-135163557D01*
X189082991Y-135247222D01*
X189118729Y-135276552D01*
X189220186Y-135359814D01*
X189303448Y-135461271D01*
X189332778Y-135497009D01*
X189416443Y-135653534D01*
X189467963Y-135823373D01*
X189485359Y-136000000D01*
X189467963Y-136176627D01*
X189416443Y-136346466D01*
X189332778Y-136502991D01*
X189303448Y-136538729D01*
X189220186Y-136640186D01*
X189118729Y-136723448D01*
X189082991Y-136752778D01*
X188926466Y-136836443D01*
X188756627Y-136887963D01*
X188690442Y-136894482D01*
X188624260Y-136901000D01*
X188535740Y-136901000D01*
X188469558Y-136894482D01*
X188403373Y-136887963D01*
X188233534Y-136836443D01*
X188077009Y-136752778D01*
X188041271Y-136723448D01*
X187939814Y-136640186D01*
X187856552Y-136538729D01*
X187827222Y-136502991D01*
X187743557Y-136346466D01*
X187692037Y-136176627D01*
X187674641Y-136000000D01*
X187692037Y-135823373D01*
X187743557Y-135653534D01*
X187827222Y-135497009D01*
X187856552Y-135461271D01*
X187939814Y-135359814D01*
X188041271Y-135276552D01*
X188077009Y-135247222D01*
X188233534Y-135163557D01*
X188403373Y-135112037D01*
X188469558Y-135105518D01*
X188535740Y-135099000D01*
X188624260Y-135099000D01*
X188690442Y-135105518D01*
X188690442Y-135105518D01*
G37*
G36*
X186150442Y-135105518D02*
G01*
X186216627Y-135112037D01*
X186386466Y-135163557D01*
X186542991Y-135247222D01*
X186578729Y-135276552D01*
X186680186Y-135359814D01*
X186763448Y-135461271D01*
X186792778Y-135497009D01*
X186876443Y-135653534D01*
X186927963Y-135823373D01*
X186945359Y-136000000D01*
X186927963Y-136176627D01*
X186876443Y-136346466D01*
X186792778Y-136502991D01*
X186763448Y-136538729D01*
X186680186Y-136640186D01*
X186578729Y-136723448D01*
X186542991Y-136752778D01*
X186386466Y-136836443D01*
X186216627Y-136887963D01*
X186150442Y-136894482D01*
X186084260Y-136901000D01*
X185995740Y-136901000D01*
X185929558Y-136894482D01*
X185863373Y-136887963D01*
X185693534Y-136836443D01*
X185537009Y-136752778D01*
X185501271Y-136723448D01*
X185399814Y-136640186D01*
X185316552Y-136538729D01*
X185287222Y-136502991D01*
X185203557Y-136346466D01*
X185152037Y-136176627D01*
X185134641Y-136000000D01*
X185152037Y-135823373D01*
X185203557Y-135653534D01*
X185287222Y-135497009D01*
X185316552Y-135461271D01*
X185399814Y-135359814D01*
X185501271Y-135276552D01*
X185537009Y-135247222D01*
X185693534Y-135163557D01*
X185863373Y-135112037D01*
X185929558Y-135105518D01*
X185995740Y-135099000D01*
X186084260Y-135099000D01*
X186150442Y-135105518D01*
X186150442Y-135105518D01*
G37*
G36*
X184401000Y-136901000D02*
G01*
X182599000Y-136901000D01*
X182599000Y-135099000D01*
X184401000Y-135099000D01*
X184401000Y-136901000D01*
X184401000Y-136901000D01*
G37*
G36*
X177401000Y-136901000D02*
G01*
X175599000Y-136901000D01*
X175599000Y-135099000D01*
X177401000Y-135099000D01*
X177401000Y-136901000D01*
X177401000Y-136901000D01*
G37*
G36*
X136650442Y-135105518D02*
G01*
X136716627Y-135112037D01*
X136886466Y-135163557D01*
X137042991Y-135247222D01*
X137078729Y-135276552D01*
X137180186Y-135359814D01*
X137263448Y-135461271D01*
X137292778Y-135497009D01*
X137376443Y-135653534D01*
X137427963Y-135823373D01*
X137445359Y-136000000D01*
X137427963Y-136176627D01*
X137376443Y-136346466D01*
X137292778Y-136502991D01*
X137263448Y-136538729D01*
X137180186Y-136640186D01*
X137078729Y-136723448D01*
X137042991Y-136752778D01*
X136886466Y-136836443D01*
X136716627Y-136887963D01*
X136650442Y-136894482D01*
X136584260Y-136901000D01*
X136495740Y-136901000D01*
X136429558Y-136894482D01*
X136363373Y-136887963D01*
X136193534Y-136836443D01*
X136037009Y-136752778D01*
X136001271Y-136723448D01*
X135899814Y-136640186D01*
X135816552Y-136538729D01*
X135787222Y-136502991D01*
X135703557Y-136346466D01*
X135652037Y-136176627D01*
X135634641Y-136000000D01*
X135652037Y-135823373D01*
X135703557Y-135653534D01*
X135787222Y-135497009D01*
X135816552Y-135461271D01*
X135899814Y-135359814D01*
X136001271Y-135276552D01*
X136037009Y-135247222D01*
X136193534Y-135163557D01*
X136363373Y-135112037D01*
X136429558Y-135105518D01*
X136495740Y-135099000D01*
X136584260Y-135099000D01*
X136650442Y-135105518D01*
X136650442Y-135105518D01*
G37*
G36*
X142900442Y-135105518D02*
G01*
X142966627Y-135112037D01*
X143136466Y-135163557D01*
X143292991Y-135247222D01*
X143328729Y-135276552D01*
X143430186Y-135359814D01*
X143513448Y-135461271D01*
X143542778Y-135497009D01*
X143626443Y-135653534D01*
X143677963Y-135823373D01*
X143695359Y-136000000D01*
X143677963Y-136176627D01*
X143626443Y-136346466D01*
X143542778Y-136502991D01*
X143513448Y-136538729D01*
X143430186Y-136640186D01*
X143328729Y-136723448D01*
X143292991Y-136752778D01*
X143136466Y-136836443D01*
X142966627Y-136887963D01*
X142900442Y-136894482D01*
X142834260Y-136901000D01*
X142745740Y-136901000D01*
X142679558Y-136894482D01*
X142613373Y-136887963D01*
X142443534Y-136836443D01*
X142287009Y-136752778D01*
X142251271Y-136723448D01*
X142149814Y-136640186D01*
X142066552Y-136538729D01*
X142037222Y-136502991D01*
X141953557Y-136346466D01*
X141902037Y-136176627D01*
X141884641Y-136000000D01*
X141902037Y-135823373D01*
X141953557Y-135653534D01*
X142037222Y-135497009D01*
X142066552Y-135461271D01*
X142149814Y-135359814D01*
X142251271Y-135276552D01*
X142287009Y-135247222D01*
X142443534Y-135163557D01*
X142613373Y-135112037D01*
X142679558Y-135105518D01*
X142745740Y-135099000D01*
X142834260Y-135099000D01*
X142900442Y-135105518D01*
X142900442Y-135105518D01*
G37*
G36*
X147401000Y-136901000D02*
G01*
X145599000Y-136901000D01*
X145599000Y-135099000D01*
X147401000Y-135099000D01*
X147401000Y-136901000D01*
X147401000Y-136901000D01*
G37*
G36*
X149150442Y-135105518D02*
G01*
X149216627Y-135112037D01*
X149386466Y-135163557D01*
X149542991Y-135247222D01*
X149578729Y-135276552D01*
X149680186Y-135359814D01*
X149763448Y-135461271D01*
X149792778Y-135497009D01*
X149876443Y-135653534D01*
X149927963Y-135823373D01*
X149945359Y-136000000D01*
X149927963Y-136176627D01*
X149876443Y-136346466D01*
X149792778Y-136502991D01*
X149763448Y-136538729D01*
X149680186Y-136640186D01*
X149578729Y-136723448D01*
X149542991Y-136752778D01*
X149386466Y-136836443D01*
X149216627Y-136887963D01*
X149150442Y-136894482D01*
X149084260Y-136901000D01*
X148995740Y-136901000D01*
X148929558Y-136894482D01*
X148863373Y-136887963D01*
X148693534Y-136836443D01*
X148537009Y-136752778D01*
X148501271Y-136723448D01*
X148399814Y-136640186D01*
X148316552Y-136538729D01*
X148287222Y-136502991D01*
X148203557Y-136346466D01*
X148152037Y-136176627D01*
X148134641Y-136000000D01*
X148152037Y-135823373D01*
X148203557Y-135653534D01*
X148287222Y-135497009D01*
X148316552Y-135461271D01*
X148399814Y-135359814D01*
X148501271Y-135276552D01*
X148537009Y-135247222D01*
X148693534Y-135163557D01*
X148863373Y-135112037D01*
X148929558Y-135105518D01*
X148995740Y-135099000D01*
X149084260Y-135099000D01*
X149150442Y-135105518D01*
X149150442Y-135105518D01*
G37*
G36*
X154401000Y-136901000D02*
G01*
X152599000Y-136901000D01*
X152599000Y-135099000D01*
X154401000Y-135099000D01*
X154401000Y-136901000D01*
X154401000Y-136901000D01*
G37*
G36*
X156150442Y-135105518D02*
G01*
X156216627Y-135112037D01*
X156386466Y-135163557D01*
X156542991Y-135247222D01*
X156578729Y-135276552D01*
X156680186Y-135359814D01*
X156763448Y-135461271D01*
X156792778Y-135497009D01*
X156876443Y-135653534D01*
X156927963Y-135823373D01*
X156945359Y-136000000D01*
X156927963Y-136176627D01*
X156876443Y-136346466D01*
X156792778Y-136502991D01*
X156763448Y-136538729D01*
X156680186Y-136640186D01*
X156578729Y-136723448D01*
X156542991Y-136752778D01*
X156386466Y-136836443D01*
X156216627Y-136887963D01*
X156150442Y-136894482D01*
X156084260Y-136901000D01*
X155995740Y-136901000D01*
X155929558Y-136894482D01*
X155863373Y-136887963D01*
X155693534Y-136836443D01*
X155537009Y-136752778D01*
X155501271Y-136723448D01*
X155399814Y-136640186D01*
X155316552Y-136538729D01*
X155287222Y-136502991D01*
X155203557Y-136346466D01*
X155152037Y-136176627D01*
X155134641Y-136000000D01*
X155152037Y-135823373D01*
X155203557Y-135653534D01*
X155287222Y-135497009D01*
X155316552Y-135461271D01*
X155399814Y-135359814D01*
X155501271Y-135276552D01*
X155537009Y-135247222D01*
X155693534Y-135163557D01*
X155863373Y-135112037D01*
X155929558Y-135105518D01*
X155995740Y-135099000D01*
X156084260Y-135099000D01*
X156150442Y-135105518D01*
X156150442Y-135105518D01*
G37*
G36*
X158690442Y-135105518D02*
G01*
X158756627Y-135112037D01*
X158926466Y-135163557D01*
X159082991Y-135247222D01*
X159118729Y-135276552D01*
X159220186Y-135359814D01*
X159303448Y-135461271D01*
X159332778Y-135497009D01*
X159416443Y-135653534D01*
X159467963Y-135823373D01*
X159485359Y-136000000D01*
X159467963Y-136176627D01*
X159416443Y-136346466D01*
X159332778Y-136502991D01*
X159303448Y-136538729D01*
X159220186Y-136640186D01*
X159118729Y-136723448D01*
X159082991Y-136752778D01*
X158926466Y-136836443D01*
X158756627Y-136887963D01*
X158690442Y-136894482D01*
X158624260Y-136901000D01*
X158535740Y-136901000D01*
X158469558Y-136894482D01*
X158403373Y-136887963D01*
X158233534Y-136836443D01*
X158077009Y-136752778D01*
X158041271Y-136723448D01*
X157939814Y-136640186D01*
X157856552Y-136538729D01*
X157827222Y-136502991D01*
X157743557Y-136346466D01*
X157692037Y-136176627D01*
X157674641Y-136000000D01*
X157692037Y-135823373D01*
X157743557Y-135653534D01*
X157827222Y-135497009D01*
X157856552Y-135461271D01*
X157939814Y-135359814D01*
X158041271Y-135276552D01*
X158077009Y-135247222D01*
X158233534Y-135163557D01*
X158403373Y-135112037D01*
X158469558Y-135105518D01*
X158535740Y-135099000D01*
X158624260Y-135099000D01*
X158690442Y-135105518D01*
X158690442Y-135105518D01*
G37*
G36*
X164901000Y-136901000D02*
G01*
X163099000Y-136901000D01*
X163099000Y-135099000D01*
X164901000Y-135099000D01*
X164901000Y-136901000D01*
X164901000Y-136901000D01*
G37*
G36*
X166650442Y-135105518D02*
G01*
X166716627Y-135112037D01*
X166886466Y-135163557D01*
X167042991Y-135247222D01*
X167078729Y-135276552D01*
X167180186Y-135359814D01*
X167263448Y-135461271D01*
X167292778Y-135497009D01*
X167376443Y-135653534D01*
X167427963Y-135823373D01*
X167445359Y-136000000D01*
X167427963Y-136176627D01*
X167376443Y-136346466D01*
X167292778Y-136502991D01*
X167263448Y-136538729D01*
X167180186Y-136640186D01*
X167078729Y-136723448D01*
X167042991Y-136752778D01*
X166886466Y-136836443D01*
X166716627Y-136887963D01*
X166650442Y-136894482D01*
X166584260Y-136901000D01*
X166495740Y-136901000D01*
X166429558Y-136894482D01*
X166363373Y-136887963D01*
X166193534Y-136836443D01*
X166037009Y-136752778D01*
X166001271Y-136723448D01*
X165899814Y-136640186D01*
X165816552Y-136538729D01*
X165787222Y-136502991D01*
X165703557Y-136346466D01*
X165652037Y-136176627D01*
X165634641Y-136000000D01*
X165652037Y-135823373D01*
X165703557Y-135653534D01*
X165787222Y-135497009D01*
X165816552Y-135461271D01*
X165899814Y-135359814D01*
X166001271Y-135276552D01*
X166037009Y-135247222D01*
X166193534Y-135163557D01*
X166363373Y-135112037D01*
X166429558Y-135105518D01*
X166495740Y-135099000D01*
X166584260Y-135099000D01*
X166650442Y-135105518D01*
X166650442Y-135105518D01*
G37*
G36*
X171151000Y-136901000D02*
G01*
X169349000Y-136901000D01*
X169349000Y-135099000D01*
X171151000Y-135099000D01*
X171151000Y-136901000D01*
X171151000Y-136901000D01*
G37*
G36*
X218690442Y-135105518D02*
G01*
X218756627Y-135112037D01*
X218926466Y-135163557D01*
X219082991Y-135247222D01*
X219118729Y-135276552D01*
X219220186Y-135359814D01*
X219303448Y-135461271D01*
X219332778Y-135497009D01*
X219416443Y-135653534D01*
X219467963Y-135823373D01*
X219485359Y-136000000D01*
X219467963Y-136176627D01*
X219416443Y-136346466D01*
X219332778Y-136502991D01*
X219303448Y-136538729D01*
X219220186Y-136640186D01*
X219118729Y-136723448D01*
X219082991Y-136752778D01*
X218926466Y-136836443D01*
X218756627Y-136887963D01*
X218690442Y-136894482D01*
X218624260Y-136901000D01*
X218535740Y-136901000D01*
X218469558Y-136894482D01*
X218403373Y-136887963D01*
X218233534Y-136836443D01*
X218077009Y-136752778D01*
X218041271Y-136723448D01*
X217939814Y-136640186D01*
X217856552Y-136538729D01*
X217827222Y-136502991D01*
X217743557Y-136346466D01*
X217692037Y-136176627D01*
X217674641Y-136000000D01*
X217692037Y-135823373D01*
X217743557Y-135653534D01*
X217827222Y-135497009D01*
X217856552Y-135461271D01*
X217939814Y-135359814D01*
X218041271Y-135276552D01*
X218077009Y-135247222D01*
X218233534Y-135163557D01*
X218403373Y-135112037D01*
X218469558Y-135105518D01*
X218535740Y-135099000D01*
X218624260Y-135099000D01*
X218690442Y-135105518D01*
X218690442Y-135105518D01*
G37*
G36*
X172900442Y-135105518D02*
G01*
X172966627Y-135112037D01*
X173136466Y-135163557D01*
X173292991Y-135247222D01*
X173328729Y-135276552D01*
X173430186Y-135359814D01*
X173513448Y-135461271D01*
X173542778Y-135497009D01*
X173626443Y-135653534D01*
X173677963Y-135823373D01*
X173695359Y-136000000D01*
X173677963Y-136176627D01*
X173626443Y-136346466D01*
X173542778Y-136502991D01*
X173513448Y-136538729D01*
X173430186Y-136640186D01*
X173328729Y-136723448D01*
X173292991Y-136752778D01*
X173136466Y-136836443D01*
X172966627Y-136887963D01*
X172900442Y-136894482D01*
X172834260Y-136901000D01*
X172745740Y-136901000D01*
X172679558Y-136894482D01*
X172613373Y-136887963D01*
X172443534Y-136836443D01*
X172287009Y-136752778D01*
X172251271Y-136723448D01*
X172149814Y-136640186D01*
X172066552Y-136538729D01*
X172037222Y-136502991D01*
X171953557Y-136346466D01*
X171902037Y-136176627D01*
X171884641Y-136000000D01*
X171902037Y-135823373D01*
X171953557Y-135653534D01*
X172037222Y-135497009D01*
X172066552Y-135461271D01*
X172149814Y-135359814D01*
X172251271Y-135276552D01*
X172287009Y-135247222D01*
X172443534Y-135163557D01*
X172613373Y-135112037D01*
X172679558Y-135105518D01*
X172745740Y-135099000D01*
X172834260Y-135099000D01*
X172900442Y-135105518D01*
X172900442Y-135105518D01*
G37*
G36*
X155088674Y-132653465D02*
G01*
X155126367Y-132664899D01*
X155161103Y-132683466D01*
X155191548Y-132708452D01*
X155216534Y-132738897D01*
X155235101Y-132773633D01*
X155246535Y-132811326D01*
X155251000Y-132856661D01*
X155251000Y-133693339D01*
X155246535Y-133738674D01*
X155235101Y-133776367D01*
X155216534Y-133811103D01*
X155191548Y-133841548D01*
X155161103Y-133866534D01*
X155126367Y-133885101D01*
X155088674Y-133896535D01*
X155043339Y-133901000D01*
X153956661Y-133901000D01*
X153911326Y-133896535D01*
X153873633Y-133885101D01*
X153838897Y-133866534D01*
X153808452Y-133841548D01*
X153783466Y-133811103D01*
X153764899Y-133776367D01*
X153753465Y-133738674D01*
X153749000Y-133693339D01*
X153749000Y-132856661D01*
X153753465Y-132811326D01*
X153764899Y-132773633D01*
X153783466Y-132738897D01*
X153808452Y-132708452D01*
X153838897Y-132683466D01*
X153873633Y-132664899D01*
X153911326Y-132653465D01*
X153956661Y-132649000D01*
X155043339Y-132649000D01*
X155088674Y-132653465D01*
X155088674Y-132653465D01*
G37*
G36*
X215088674Y-132653465D02*
G01*
X215126367Y-132664899D01*
X215161103Y-132683466D01*
X215191548Y-132708452D01*
X215216534Y-132738897D01*
X215235101Y-132773633D01*
X215246535Y-132811326D01*
X215251000Y-132856661D01*
X215251000Y-133693339D01*
X215246535Y-133738674D01*
X215235101Y-133776367D01*
X215216534Y-133811103D01*
X215191548Y-133841548D01*
X215161103Y-133866534D01*
X215126367Y-133885101D01*
X215088674Y-133896535D01*
X215043339Y-133901000D01*
X213956661Y-133901000D01*
X213911326Y-133896535D01*
X213873633Y-133885101D01*
X213838897Y-133866534D01*
X213808452Y-133841548D01*
X213783466Y-133811103D01*
X213764899Y-133776367D01*
X213753465Y-133738674D01*
X213749000Y-133693339D01*
X213749000Y-132856661D01*
X213753465Y-132811326D01*
X213764899Y-132773633D01*
X213783466Y-132738897D01*
X213808452Y-132708452D01*
X213838897Y-132683466D01*
X213873633Y-132664899D01*
X213911326Y-132653465D01*
X213956661Y-132649000D01*
X215043339Y-132649000D01*
X215088674Y-132653465D01*
X215088674Y-132653465D01*
G37*
G36*
X185088674Y-132653465D02*
G01*
X185126367Y-132664899D01*
X185161103Y-132683466D01*
X185191548Y-132708452D01*
X185216534Y-132738897D01*
X185235101Y-132773633D01*
X185246535Y-132811326D01*
X185251000Y-132856661D01*
X185251000Y-133693339D01*
X185246535Y-133738674D01*
X185235101Y-133776367D01*
X185216534Y-133811103D01*
X185191548Y-133841548D01*
X185161103Y-133866534D01*
X185126367Y-133885101D01*
X185088674Y-133896535D01*
X185043339Y-133901000D01*
X183956661Y-133901000D01*
X183911326Y-133896535D01*
X183873633Y-133885101D01*
X183838897Y-133866534D01*
X183808452Y-133841548D01*
X183783466Y-133811103D01*
X183764899Y-133776367D01*
X183753465Y-133738674D01*
X183749000Y-133693339D01*
X183749000Y-132856661D01*
X183753465Y-132811326D01*
X183764899Y-132773633D01*
X183783466Y-132738897D01*
X183808452Y-132708452D01*
X183838897Y-132683466D01*
X183873633Y-132664899D01*
X183911326Y-132653465D01*
X183956661Y-132649000D01*
X185043339Y-132649000D01*
X185088674Y-132653465D01*
X185088674Y-132653465D01*
G37*
G36*
X176301000Y-133801000D02*
G01*
X175199000Y-133801000D01*
X175199000Y-132699000D01*
X176301000Y-132699000D01*
X176301000Y-133801000D01*
X176301000Y-133801000D01*
G37*
G36*
X206301000Y-133801000D02*
G01*
X205199000Y-133801000D01*
X205199000Y-132699000D01*
X206301000Y-132699000D01*
X206301000Y-133801000D01*
X206301000Y-133801000D01*
G37*
G36*
X146301000Y-133801000D02*
G01*
X145199000Y-133801000D01*
X145199000Y-132699000D01*
X146301000Y-132699000D01*
X146301000Y-133801000D01*
X146301000Y-133801000D01*
G37*
G36*
X178338674Y-132428465D02*
G01*
X178376367Y-132439899D01*
X178411103Y-132458466D01*
X178441548Y-132483452D01*
X178466534Y-132513897D01*
X178485101Y-132548633D01*
X178496535Y-132586326D01*
X178501000Y-132631661D01*
X178501000Y-133468339D01*
X178496535Y-133513674D01*
X178485101Y-133551367D01*
X178466534Y-133586103D01*
X178441548Y-133616548D01*
X178411103Y-133641534D01*
X178376367Y-133660101D01*
X178338674Y-133671535D01*
X178293339Y-133676000D01*
X177206661Y-133676000D01*
X177161326Y-133671535D01*
X177123633Y-133660101D01*
X177088897Y-133641534D01*
X177058452Y-133616548D01*
X177033466Y-133586103D01*
X177014899Y-133551367D01*
X177003465Y-133513674D01*
X176999000Y-133468339D01*
X176999000Y-132631661D01*
X177003465Y-132586326D01*
X177014899Y-132548633D01*
X177033466Y-132513897D01*
X177058452Y-132483452D01*
X177088897Y-132458466D01*
X177123633Y-132439899D01*
X177161326Y-132428465D01*
X177206661Y-132424000D01*
X178293339Y-132424000D01*
X178338674Y-132428465D01*
X178338674Y-132428465D01*
G37*
G36*
X208338674Y-132428465D02*
G01*
X208376367Y-132439899D01*
X208411103Y-132458466D01*
X208441548Y-132483452D01*
X208466534Y-132513897D01*
X208485101Y-132548633D01*
X208496535Y-132586326D01*
X208501000Y-132631661D01*
X208501000Y-133468339D01*
X208496535Y-133513674D01*
X208485101Y-133551367D01*
X208466534Y-133586103D01*
X208441548Y-133616548D01*
X208411103Y-133641534D01*
X208376367Y-133660101D01*
X208338674Y-133671535D01*
X208293339Y-133676000D01*
X207206661Y-133676000D01*
X207161326Y-133671535D01*
X207123633Y-133660101D01*
X207088897Y-133641534D01*
X207058452Y-133616548D01*
X207033466Y-133586103D01*
X207014899Y-133551367D01*
X207003465Y-133513674D01*
X206999000Y-133468339D01*
X206999000Y-132631661D01*
X207003465Y-132586326D01*
X207014899Y-132548633D01*
X207033466Y-132513897D01*
X207058452Y-132483452D01*
X207088897Y-132458466D01*
X207123633Y-132439899D01*
X207161326Y-132428465D01*
X207206661Y-132424000D01*
X208293339Y-132424000D01*
X208338674Y-132428465D01*
X208338674Y-132428465D01*
G37*
G36*
X148338674Y-132428465D02*
G01*
X148376367Y-132439899D01*
X148411103Y-132458466D01*
X148441548Y-132483452D01*
X148466534Y-132513897D01*
X148485101Y-132548633D01*
X148496535Y-132586326D01*
X148501000Y-132631661D01*
X148501000Y-133468339D01*
X148496535Y-133513674D01*
X148485101Y-133551367D01*
X148466534Y-133586103D01*
X148441548Y-133616548D01*
X148411103Y-133641534D01*
X148376367Y-133660101D01*
X148338674Y-133671535D01*
X148293339Y-133676000D01*
X147206661Y-133676000D01*
X147161326Y-133671535D01*
X147123633Y-133660101D01*
X147088897Y-133641534D01*
X147058452Y-133616548D01*
X147033466Y-133586103D01*
X147014899Y-133551367D01*
X147003465Y-133513674D01*
X146999000Y-133468339D01*
X146999000Y-132631661D01*
X147003465Y-132586326D01*
X147014899Y-132548633D01*
X147033466Y-132513897D01*
X147058452Y-132483452D01*
X147088897Y-132458466D01*
X147123633Y-132439899D01*
X147161326Y-132428465D01*
X147206661Y-132424000D01*
X148293339Y-132424000D01*
X148338674Y-132428465D01*
X148338674Y-132428465D01*
G37*
G36*
X140301000Y-133551000D02*
G01*
X139199000Y-133551000D01*
X139199000Y-132449000D01*
X140301000Y-132449000D01*
X140301000Y-133551000D01*
X140301000Y-133551000D01*
G37*
G36*
X134301000Y-133551000D02*
G01*
X133199000Y-133551000D01*
X133199000Y-132449000D01*
X134301000Y-132449000D01*
X134301000Y-133551000D01*
X134301000Y-133551000D01*
G37*
G36*
X194301000Y-133551000D02*
G01*
X193199000Y-133551000D01*
X193199000Y-132449000D01*
X194301000Y-132449000D01*
X194301000Y-133551000D01*
X194301000Y-133551000D01*
G37*
G36*
X200301000Y-133551000D02*
G01*
X199199000Y-133551000D01*
X199199000Y-132449000D01*
X200301000Y-132449000D01*
X200301000Y-133551000D01*
X200301000Y-133551000D01*
G37*
G36*
X170301000Y-133551000D02*
G01*
X169199000Y-133551000D01*
X169199000Y-132449000D01*
X170301000Y-132449000D01*
X170301000Y-133551000D01*
X170301000Y-133551000D01*
G37*
G36*
X164301000Y-133551000D02*
G01*
X163199000Y-133551000D01*
X163199000Y-132449000D01*
X164301000Y-132449000D01*
X164301000Y-133551000D01*
X164301000Y-133551000D01*
G37*
G36*
X136338674Y-132153465D02*
G01*
X136376367Y-132164899D01*
X136411103Y-132183466D01*
X136441548Y-132208452D01*
X136466534Y-132238897D01*
X136485101Y-132273633D01*
X136496535Y-132311326D01*
X136501000Y-132356661D01*
X136501000Y-133193339D01*
X136496535Y-133238674D01*
X136485101Y-133276367D01*
X136466534Y-133311103D01*
X136441548Y-133341548D01*
X136411103Y-133366534D01*
X136376367Y-133385101D01*
X136338674Y-133396535D01*
X136293339Y-133401000D01*
X135206661Y-133401000D01*
X135161326Y-133396535D01*
X135123633Y-133385101D01*
X135088897Y-133366534D01*
X135058452Y-133341548D01*
X135033466Y-133311103D01*
X135014899Y-133276367D01*
X135003465Y-133238674D01*
X134999000Y-133193339D01*
X134999000Y-132356661D01*
X135003465Y-132311326D01*
X135014899Y-132273633D01*
X135033466Y-132238897D01*
X135058452Y-132208452D01*
X135088897Y-132183466D01*
X135123633Y-132164899D01*
X135161326Y-132153465D01*
X135206661Y-132149000D01*
X136293339Y-132149000D01*
X136338674Y-132153465D01*
X136338674Y-132153465D01*
G37*
G36*
X166338674Y-132153465D02*
G01*
X166376367Y-132164899D01*
X166411103Y-132183466D01*
X166441548Y-132208452D01*
X166466534Y-132238897D01*
X166485101Y-132273633D01*
X166496535Y-132311326D01*
X166501000Y-132356661D01*
X166501000Y-133193339D01*
X166496535Y-133238674D01*
X166485101Y-133276367D01*
X166466534Y-133311103D01*
X166441548Y-133341548D01*
X166411103Y-133366534D01*
X166376367Y-133385101D01*
X166338674Y-133396535D01*
X166293339Y-133401000D01*
X165206661Y-133401000D01*
X165161326Y-133396535D01*
X165123633Y-133385101D01*
X165088897Y-133366534D01*
X165058452Y-133341548D01*
X165033466Y-133311103D01*
X165014899Y-133276367D01*
X165003465Y-133238674D01*
X164999000Y-133193339D01*
X164999000Y-132356661D01*
X165003465Y-132311326D01*
X165014899Y-132273633D01*
X165033466Y-132238897D01*
X165058452Y-132208452D01*
X165088897Y-132183466D01*
X165123633Y-132164899D01*
X165161326Y-132153465D01*
X165206661Y-132149000D01*
X166293339Y-132149000D01*
X166338674Y-132153465D01*
X166338674Y-132153465D01*
G37*
G36*
X202338674Y-132153465D02*
G01*
X202376367Y-132164899D01*
X202411103Y-132183466D01*
X202441548Y-132208452D01*
X202466534Y-132238897D01*
X202485101Y-132273633D01*
X202496535Y-132311326D01*
X202501000Y-132356661D01*
X202501000Y-133193339D01*
X202496535Y-133238674D01*
X202485101Y-133276367D01*
X202466534Y-133311103D01*
X202441548Y-133341548D01*
X202411103Y-133366534D01*
X202376367Y-133385101D01*
X202338674Y-133396535D01*
X202293339Y-133401000D01*
X201206661Y-133401000D01*
X201161326Y-133396535D01*
X201123633Y-133385101D01*
X201088897Y-133366534D01*
X201058452Y-133341548D01*
X201033466Y-133311103D01*
X201014899Y-133276367D01*
X201003465Y-133238674D01*
X200999000Y-133193339D01*
X200999000Y-132356661D01*
X201003465Y-132311326D01*
X201014899Y-132273633D01*
X201033466Y-132238897D01*
X201058452Y-132208452D01*
X201088897Y-132183466D01*
X201123633Y-132164899D01*
X201161326Y-132153465D01*
X201206661Y-132149000D01*
X202293339Y-132149000D01*
X202338674Y-132153465D01*
X202338674Y-132153465D01*
G37*
G36*
X196338674Y-132153465D02*
G01*
X196376367Y-132164899D01*
X196411103Y-132183466D01*
X196441548Y-132208452D01*
X196466534Y-132238897D01*
X196485101Y-132273633D01*
X196496535Y-132311326D01*
X196501000Y-132356661D01*
X196501000Y-133193339D01*
X196496535Y-133238674D01*
X196485101Y-133276367D01*
X196466534Y-133311103D01*
X196441548Y-133341548D01*
X196411103Y-133366534D01*
X196376367Y-133385101D01*
X196338674Y-133396535D01*
X196293339Y-133401000D01*
X195206661Y-133401000D01*
X195161326Y-133396535D01*
X195123633Y-133385101D01*
X195088897Y-133366534D01*
X195058452Y-133341548D01*
X195033466Y-133311103D01*
X195014899Y-133276367D01*
X195003465Y-133238674D01*
X194999000Y-133193339D01*
X194999000Y-132356661D01*
X195003465Y-132311326D01*
X195014899Y-132273633D01*
X195033466Y-132238897D01*
X195058452Y-132208452D01*
X195088897Y-132183466D01*
X195123633Y-132164899D01*
X195161326Y-132153465D01*
X195206661Y-132149000D01*
X196293339Y-132149000D01*
X196338674Y-132153465D01*
X196338674Y-132153465D01*
G37*
G36*
X142338674Y-132153465D02*
G01*
X142376367Y-132164899D01*
X142411103Y-132183466D01*
X142441548Y-132208452D01*
X142466534Y-132238897D01*
X142485101Y-132273633D01*
X142496535Y-132311326D01*
X142501000Y-132356661D01*
X142501000Y-133193339D01*
X142496535Y-133238674D01*
X142485101Y-133276367D01*
X142466534Y-133311103D01*
X142441548Y-133341548D01*
X142411103Y-133366534D01*
X142376367Y-133385101D01*
X142338674Y-133396535D01*
X142293339Y-133401000D01*
X141206661Y-133401000D01*
X141161326Y-133396535D01*
X141123633Y-133385101D01*
X141088897Y-133366534D01*
X141058452Y-133341548D01*
X141033466Y-133311103D01*
X141014899Y-133276367D01*
X141003465Y-133238674D01*
X140999000Y-133193339D01*
X140999000Y-132356661D01*
X141003465Y-132311326D01*
X141014899Y-132273633D01*
X141033466Y-132238897D01*
X141058452Y-132208452D01*
X141088897Y-132183466D01*
X141123633Y-132164899D01*
X141161326Y-132153465D01*
X141206661Y-132149000D01*
X142293339Y-132149000D01*
X142338674Y-132153465D01*
X142338674Y-132153465D01*
G37*
G36*
X172338674Y-132153465D02*
G01*
X172376367Y-132164899D01*
X172411103Y-132183466D01*
X172441548Y-132208452D01*
X172466534Y-132238897D01*
X172485101Y-132273633D01*
X172496535Y-132311326D01*
X172501000Y-132356661D01*
X172501000Y-133193339D01*
X172496535Y-133238674D01*
X172485101Y-133276367D01*
X172466534Y-133311103D01*
X172441548Y-133341548D01*
X172411103Y-133366534D01*
X172376367Y-133385101D01*
X172338674Y-133396535D01*
X172293339Y-133401000D01*
X171206661Y-133401000D01*
X171161326Y-133396535D01*
X171123633Y-133385101D01*
X171088897Y-133366534D01*
X171058452Y-133341548D01*
X171033466Y-133311103D01*
X171014899Y-133276367D01*
X171003465Y-133238674D01*
X170999000Y-133193339D01*
X170999000Y-132356661D01*
X171003465Y-132311326D01*
X171014899Y-132273633D01*
X171033466Y-132238897D01*
X171058452Y-132208452D01*
X171088897Y-132183466D01*
X171123633Y-132164899D01*
X171161326Y-132153465D01*
X171206661Y-132149000D01*
X172293339Y-132149000D01*
X172338674Y-132153465D01*
X172338674Y-132153465D01*
G37*
G36*
X158275562Y-131228181D02*
G01*
X158310481Y-131238774D01*
X158342663Y-131255976D01*
X158370873Y-131279127D01*
X158394024Y-131307337D01*
X158411226Y-131339519D01*
X158421819Y-131374438D01*
X158426000Y-131416895D01*
X158426000Y-132558105D01*
X158421819Y-132600562D01*
X158411226Y-132635481D01*
X158394024Y-132667663D01*
X158370873Y-132695873D01*
X158342663Y-132719024D01*
X158310481Y-132736226D01*
X158275562Y-132746819D01*
X158233105Y-132751000D01*
X156766895Y-132751000D01*
X156724438Y-132746819D01*
X156689519Y-132736226D01*
X156657337Y-132719024D01*
X156629127Y-132695873D01*
X156605976Y-132667663D01*
X156588774Y-132635481D01*
X156578181Y-132600562D01*
X156574000Y-132558105D01*
X156574000Y-131416895D01*
X156578181Y-131374438D01*
X156588774Y-131339519D01*
X156605976Y-131307337D01*
X156629127Y-131279127D01*
X156657337Y-131255976D01*
X156689519Y-131238774D01*
X156724438Y-131228181D01*
X156766895Y-131224000D01*
X158233105Y-131224000D01*
X158275562Y-131228181D01*
X158275562Y-131228181D01*
G37*
G36*
X188275562Y-131228181D02*
G01*
X188310481Y-131238774D01*
X188342663Y-131255976D01*
X188370873Y-131279127D01*
X188394024Y-131307337D01*
X188411226Y-131339519D01*
X188421819Y-131374438D01*
X188426000Y-131416895D01*
X188426000Y-132558105D01*
X188421819Y-132600562D01*
X188411226Y-132635481D01*
X188394024Y-132667663D01*
X188370873Y-132695873D01*
X188342663Y-132719024D01*
X188310481Y-132736226D01*
X188275562Y-132746819D01*
X188233105Y-132751000D01*
X186766895Y-132751000D01*
X186724438Y-132746819D01*
X186689519Y-132736226D01*
X186657337Y-132719024D01*
X186629127Y-132695873D01*
X186605976Y-132667663D01*
X186588774Y-132635481D01*
X186578181Y-132600562D01*
X186574000Y-132558105D01*
X186574000Y-131416895D01*
X186578181Y-131374438D01*
X186588774Y-131339519D01*
X186605976Y-131307337D01*
X186629127Y-131279127D01*
X186657337Y-131255976D01*
X186689519Y-131238774D01*
X186724438Y-131228181D01*
X186766895Y-131224000D01*
X188233105Y-131224000D01*
X188275562Y-131228181D01*
X188275562Y-131228181D01*
G37*
G36*
X218275562Y-131228181D02*
G01*
X218310481Y-131238774D01*
X218342663Y-131255976D01*
X218370873Y-131279127D01*
X218394024Y-131307337D01*
X218411226Y-131339519D01*
X218421819Y-131374438D01*
X218426000Y-131416895D01*
X218426000Y-132558105D01*
X218421819Y-132600562D01*
X218411226Y-132635481D01*
X218394024Y-132667663D01*
X218370873Y-132695873D01*
X218342663Y-132719024D01*
X218310481Y-132736226D01*
X218275562Y-132746819D01*
X218233105Y-132751000D01*
X216766895Y-132751000D01*
X216724438Y-132746819D01*
X216689519Y-132736226D01*
X216657337Y-132719024D01*
X216629127Y-132695873D01*
X216605976Y-132667663D01*
X216588774Y-132635481D01*
X216578181Y-132600562D01*
X216574000Y-132558105D01*
X216574000Y-131416895D01*
X216578181Y-131374438D01*
X216588774Y-131339519D01*
X216605976Y-131307337D01*
X216629127Y-131279127D01*
X216657337Y-131255976D01*
X216689519Y-131238774D01*
X216724438Y-131228181D01*
X216766895Y-131224000D01*
X218233105Y-131224000D01*
X218275562Y-131228181D01*
X218275562Y-131228181D01*
G37*
G36*
X182738674Y-130503465D02*
G01*
X182776367Y-130514899D01*
X182811103Y-130533466D01*
X182841548Y-130558452D01*
X182866534Y-130588897D01*
X182885101Y-130623633D01*
X182896535Y-130661326D01*
X182901000Y-130706661D01*
X182901000Y-131793339D01*
X182896535Y-131838674D01*
X182885101Y-131876367D01*
X182866534Y-131911103D01*
X182841548Y-131941548D01*
X182811103Y-131966534D01*
X182776367Y-131985101D01*
X182738674Y-131996535D01*
X182693339Y-132001000D01*
X181856661Y-132001000D01*
X181811326Y-131996535D01*
X181773633Y-131985101D01*
X181738897Y-131966534D01*
X181708452Y-131941548D01*
X181683466Y-131911103D01*
X181664899Y-131876367D01*
X181653465Y-131838674D01*
X181649000Y-131793339D01*
X181649000Y-130706661D01*
X181653465Y-130661326D01*
X181664899Y-130623633D01*
X181683466Y-130588897D01*
X181708452Y-130558452D01*
X181738897Y-130533466D01*
X181773633Y-130514899D01*
X181811326Y-130503465D01*
X181856661Y-130499000D01*
X182693339Y-130499000D01*
X182738674Y-130503465D01*
X182738674Y-130503465D01*
G37*
G36*
X180688674Y-130503465D02*
G01*
X180726367Y-130514899D01*
X180761103Y-130533466D01*
X180791548Y-130558452D01*
X180816534Y-130588897D01*
X180835101Y-130623633D01*
X180846535Y-130661326D01*
X180851000Y-130706661D01*
X180851000Y-131793339D01*
X180846535Y-131838674D01*
X180835101Y-131876367D01*
X180816534Y-131911103D01*
X180791548Y-131941548D01*
X180761103Y-131966534D01*
X180726367Y-131985101D01*
X180688674Y-131996535D01*
X180643339Y-132001000D01*
X179806661Y-132001000D01*
X179761326Y-131996535D01*
X179723633Y-131985101D01*
X179688897Y-131966534D01*
X179658452Y-131941548D01*
X179633466Y-131911103D01*
X179614899Y-131876367D01*
X179603465Y-131838674D01*
X179599000Y-131793339D01*
X179599000Y-130706661D01*
X179603465Y-130661326D01*
X179614899Y-130623633D01*
X179633466Y-130588897D01*
X179658452Y-130558452D01*
X179688897Y-130533466D01*
X179723633Y-130514899D01*
X179761326Y-130503465D01*
X179806661Y-130499000D01*
X180643339Y-130499000D01*
X180688674Y-130503465D01*
X180688674Y-130503465D01*
G37*
G36*
X150688674Y-130503465D02*
G01*
X150726367Y-130514899D01*
X150761103Y-130533466D01*
X150791548Y-130558452D01*
X150816534Y-130588897D01*
X150835101Y-130623633D01*
X150846535Y-130661326D01*
X150851000Y-130706661D01*
X150851000Y-131793339D01*
X150846535Y-131838674D01*
X150835101Y-131876367D01*
X150816534Y-131911103D01*
X150791548Y-131941548D01*
X150761103Y-131966534D01*
X150726367Y-131985101D01*
X150688674Y-131996535D01*
X150643339Y-132001000D01*
X149806661Y-132001000D01*
X149761326Y-131996535D01*
X149723633Y-131985101D01*
X149688897Y-131966534D01*
X149658452Y-131941548D01*
X149633466Y-131911103D01*
X149614899Y-131876367D01*
X149603465Y-131838674D01*
X149599000Y-131793339D01*
X149599000Y-130706661D01*
X149603465Y-130661326D01*
X149614899Y-130623633D01*
X149633466Y-130588897D01*
X149658452Y-130558452D01*
X149688897Y-130533466D01*
X149723633Y-130514899D01*
X149761326Y-130503465D01*
X149806661Y-130499000D01*
X150643339Y-130499000D01*
X150688674Y-130503465D01*
X150688674Y-130503465D01*
G37*
G36*
X210688674Y-130503465D02*
G01*
X210726367Y-130514899D01*
X210761103Y-130533466D01*
X210791548Y-130558452D01*
X210816534Y-130588897D01*
X210835101Y-130623633D01*
X210846535Y-130661326D01*
X210851000Y-130706661D01*
X210851000Y-131793339D01*
X210846535Y-131838674D01*
X210835101Y-131876367D01*
X210816534Y-131911103D01*
X210791548Y-131941548D01*
X210761103Y-131966534D01*
X210726367Y-131985101D01*
X210688674Y-131996535D01*
X210643339Y-132001000D01*
X209806661Y-132001000D01*
X209761326Y-131996535D01*
X209723633Y-131985101D01*
X209688897Y-131966534D01*
X209658452Y-131941548D01*
X209633466Y-131911103D01*
X209614899Y-131876367D01*
X209603465Y-131838674D01*
X209599000Y-131793339D01*
X209599000Y-130706661D01*
X209603465Y-130661326D01*
X209614899Y-130623633D01*
X209633466Y-130588897D01*
X209658452Y-130558452D01*
X209688897Y-130533466D01*
X209723633Y-130514899D01*
X209761326Y-130503465D01*
X209806661Y-130499000D01*
X210643339Y-130499000D01*
X210688674Y-130503465D01*
X210688674Y-130503465D01*
G37*
G36*
X212738674Y-130503465D02*
G01*
X212776367Y-130514899D01*
X212811103Y-130533466D01*
X212841548Y-130558452D01*
X212866534Y-130588897D01*
X212885101Y-130623633D01*
X212896535Y-130661326D01*
X212901000Y-130706661D01*
X212901000Y-131793339D01*
X212896535Y-131838674D01*
X212885101Y-131876367D01*
X212866534Y-131911103D01*
X212841548Y-131941548D01*
X212811103Y-131966534D01*
X212776367Y-131985101D01*
X212738674Y-131996535D01*
X212693339Y-132001000D01*
X211856661Y-132001000D01*
X211811326Y-131996535D01*
X211773633Y-131985101D01*
X211738897Y-131966534D01*
X211708452Y-131941548D01*
X211683466Y-131911103D01*
X211664899Y-131876367D01*
X211653465Y-131838674D01*
X211649000Y-131793339D01*
X211649000Y-130706661D01*
X211653465Y-130661326D01*
X211664899Y-130623633D01*
X211683466Y-130588897D01*
X211708452Y-130558452D01*
X211738897Y-130533466D01*
X211773633Y-130514899D01*
X211811326Y-130503465D01*
X211856661Y-130499000D01*
X212693339Y-130499000D01*
X212738674Y-130503465D01*
X212738674Y-130503465D01*
G37*
G36*
X152738674Y-130503465D02*
G01*
X152776367Y-130514899D01*
X152811103Y-130533466D01*
X152841548Y-130558452D01*
X152866534Y-130588897D01*
X152885101Y-130623633D01*
X152896535Y-130661326D01*
X152901000Y-130706661D01*
X152901000Y-131793339D01*
X152896535Y-131838674D01*
X152885101Y-131876367D01*
X152866534Y-131911103D01*
X152841548Y-131941548D01*
X152811103Y-131966534D01*
X152776367Y-131985101D01*
X152738674Y-131996535D01*
X152693339Y-132001000D01*
X151856661Y-132001000D01*
X151811326Y-131996535D01*
X151773633Y-131985101D01*
X151738897Y-131966534D01*
X151708452Y-131941548D01*
X151683466Y-131911103D01*
X151664899Y-131876367D01*
X151653465Y-131838674D01*
X151649000Y-131793339D01*
X151649000Y-130706661D01*
X151653465Y-130661326D01*
X151664899Y-130623633D01*
X151683466Y-130588897D01*
X151708452Y-130558452D01*
X151738897Y-130533466D01*
X151773633Y-130514899D01*
X151811326Y-130503465D01*
X151856661Y-130499000D01*
X152693339Y-130499000D01*
X152738674Y-130503465D01*
X152738674Y-130503465D01*
G37*
G36*
X185088674Y-130603465D02*
G01*
X185126367Y-130614899D01*
X185161103Y-130633466D01*
X185191548Y-130658452D01*
X185216534Y-130688897D01*
X185235101Y-130723633D01*
X185246535Y-130761326D01*
X185251000Y-130806661D01*
X185251000Y-131643339D01*
X185246535Y-131688674D01*
X185235101Y-131726367D01*
X185216534Y-131761103D01*
X185191548Y-131791548D01*
X185161103Y-131816534D01*
X185126367Y-131835101D01*
X185088674Y-131846535D01*
X185043339Y-131851000D01*
X183956661Y-131851000D01*
X183911326Y-131846535D01*
X183873633Y-131835101D01*
X183838897Y-131816534D01*
X183808452Y-131791548D01*
X183783466Y-131761103D01*
X183764899Y-131726367D01*
X183753465Y-131688674D01*
X183749000Y-131643339D01*
X183749000Y-130806661D01*
X183753465Y-130761326D01*
X183764899Y-130723633D01*
X183783466Y-130688897D01*
X183808452Y-130658452D01*
X183838897Y-130633466D01*
X183873633Y-130614899D01*
X183911326Y-130603465D01*
X183956661Y-130599000D01*
X185043339Y-130599000D01*
X185088674Y-130603465D01*
X185088674Y-130603465D01*
G37*
G36*
X215088674Y-130603465D02*
G01*
X215126367Y-130614899D01*
X215161103Y-130633466D01*
X215191548Y-130658452D01*
X215216534Y-130688897D01*
X215235101Y-130723633D01*
X215246535Y-130761326D01*
X215251000Y-130806661D01*
X215251000Y-131643339D01*
X215246535Y-131688674D01*
X215235101Y-131726367D01*
X215216534Y-131761103D01*
X215191548Y-131791548D01*
X215161103Y-131816534D01*
X215126367Y-131835101D01*
X215088674Y-131846535D01*
X215043339Y-131851000D01*
X213956661Y-131851000D01*
X213911326Y-131846535D01*
X213873633Y-131835101D01*
X213838897Y-131816534D01*
X213808452Y-131791548D01*
X213783466Y-131761103D01*
X213764899Y-131726367D01*
X213753465Y-131688674D01*
X213749000Y-131643339D01*
X213749000Y-130806661D01*
X213753465Y-130761326D01*
X213764899Y-130723633D01*
X213783466Y-130688897D01*
X213808452Y-130658452D01*
X213838897Y-130633466D01*
X213873633Y-130614899D01*
X213911326Y-130603465D01*
X213956661Y-130599000D01*
X215043339Y-130599000D01*
X215088674Y-130603465D01*
X215088674Y-130603465D01*
G37*
G36*
X155088674Y-130603465D02*
G01*
X155126367Y-130614899D01*
X155161103Y-130633466D01*
X155191548Y-130658452D01*
X155216534Y-130688897D01*
X155235101Y-130723633D01*
X155246535Y-130761326D01*
X155251000Y-130806661D01*
X155251000Y-131643339D01*
X155246535Y-131688674D01*
X155235101Y-131726367D01*
X155216534Y-131761103D01*
X155191548Y-131791548D01*
X155161103Y-131816534D01*
X155126367Y-131835101D01*
X155088674Y-131846535D01*
X155043339Y-131851000D01*
X153956661Y-131851000D01*
X153911326Y-131846535D01*
X153873633Y-131835101D01*
X153838897Y-131816534D01*
X153808452Y-131791548D01*
X153783466Y-131761103D01*
X153764899Y-131726367D01*
X153753465Y-131688674D01*
X153749000Y-131643339D01*
X153749000Y-130806661D01*
X153753465Y-130761326D01*
X153764899Y-130723633D01*
X153783466Y-130688897D01*
X153808452Y-130658452D01*
X153838897Y-130633466D01*
X153873633Y-130614899D01*
X153911326Y-130603465D01*
X153956661Y-130599000D01*
X155043339Y-130599000D01*
X155088674Y-130603465D01*
X155088674Y-130603465D01*
G37*
G36*
X178338674Y-130378465D02*
G01*
X178376367Y-130389899D01*
X178411103Y-130408466D01*
X178441548Y-130433452D01*
X178466534Y-130463897D01*
X178485101Y-130498633D01*
X178496535Y-130536326D01*
X178501000Y-130581661D01*
X178501000Y-131418339D01*
X178496535Y-131463674D01*
X178485101Y-131501367D01*
X178466534Y-131536103D01*
X178441548Y-131566548D01*
X178411103Y-131591534D01*
X178376367Y-131610101D01*
X178338674Y-131621535D01*
X178293339Y-131626000D01*
X177206661Y-131626000D01*
X177161326Y-131621535D01*
X177123633Y-131610101D01*
X177088897Y-131591534D01*
X177058452Y-131566548D01*
X177033466Y-131536103D01*
X177014899Y-131501367D01*
X177003465Y-131463674D01*
X176999000Y-131418339D01*
X176999000Y-130581661D01*
X177003465Y-130536326D01*
X177014899Y-130498633D01*
X177033466Y-130463897D01*
X177058452Y-130433452D01*
X177088897Y-130408466D01*
X177123633Y-130389899D01*
X177161326Y-130378465D01*
X177206661Y-130374000D01*
X178293339Y-130374000D01*
X178338674Y-130378465D01*
X178338674Y-130378465D01*
G37*
G36*
X208338674Y-130378465D02*
G01*
X208376367Y-130389899D01*
X208411103Y-130408466D01*
X208441548Y-130433452D01*
X208466534Y-130463897D01*
X208485101Y-130498633D01*
X208496535Y-130536326D01*
X208501000Y-130581661D01*
X208501000Y-131418339D01*
X208496535Y-131463674D01*
X208485101Y-131501367D01*
X208466534Y-131536103D01*
X208441548Y-131566548D01*
X208411103Y-131591534D01*
X208376367Y-131610101D01*
X208338674Y-131621535D01*
X208293339Y-131626000D01*
X207206661Y-131626000D01*
X207161326Y-131621535D01*
X207123633Y-131610101D01*
X207088897Y-131591534D01*
X207058452Y-131566548D01*
X207033466Y-131536103D01*
X207014899Y-131501367D01*
X207003465Y-131463674D01*
X206999000Y-131418339D01*
X206999000Y-130581661D01*
X207003465Y-130536326D01*
X207014899Y-130498633D01*
X207033466Y-130463897D01*
X207058452Y-130433452D01*
X207088897Y-130408466D01*
X207123633Y-130389899D01*
X207161326Y-130378465D01*
X207206661Y-130374000D01*
X208293339Y-130374000D01*
X208338674Y-130378465D01*
X208338674Y-130378465D01*
G37*
G36*
X148338674Y-130378465D02*
G01*
X148376367Y-130389899D01*
X148411103Y-130408466D01*
X148441548Y-130433452D01*
X148466534Y-130463897D01*
X148485101Y-130498633D01*
X148496535Y-130536326D01*
X148501000Y-130581661D01*
X148501000Y-131418339D01*
X148496535Y-131463674D01*
X148485101Y-131501367D01*
X148466534Y-131536103D01*
X148441548Y-131566548D01*
X148411103Y-131591534D01*
X148376367Y-131610101D01*
X148338674Y-131621535D01*
X148293339Y-131626000D01*
X147206661Y-131626000D01*
X147161326Y-131621535D01*
X147123633Y-131610101D01*
X147088897Y-131591534D01*
X147058452Y-131566548D01*
X147033466Y-131536103D01*
X147014899Y-131501367D01*
X147003465Y-131463674D01*
X146999000Y-131418339D01*
X146999000Y-130581661D01*
X147003465Y-130536326D01*
X147014899Y-130498633D01*
X147033466Y-130463897D01*
X147058452Y-130433452D01*
X147088897Y-130408466D01*
X147123633Y-130389899D01*
X147161326Y-130378465D01*
X147206661Y-130374000D01*
X148293339Y-130374000D01*
X148338674Y-130378465D01*
X148338674Y-130378465D01*
G37*
G36*
X196338674Y-130103465D02*
G01*
X196376367Y-130114899D01*
X196411103Y-130133466D01*
X196441548Y-130158452D01*
X196466534Y-130188897D01*
X196485101Y-130223633D01*
X196496535Y-130261326D01*
X196501000Y-130306661D01*
X196501000Y-131143339D01*
X196496535Y-131188674D01*
X196485101Y-131226367D01*
X196466534Y-131261103D01*
X196441548Y-131291548D01*
X196411103Y-131316534D01*
X196376367Y-131335101D01*
X196338674Y-131346535D01*
X196293339Y-131351000D01*
X195206661Y-131351000D01*
X195161326Y-131346535D01*
X195123633Y-131335101D01*
X195088897Y-131316534D01*
X195058452Y-131291548D01*
X195033466Y-131261103D01*
X195014899Y-131226367D01*
X195003465Y-131188674D01*
X194999000Y-131143339D01*
X194999000Y-130306661D01*
X195003465Y-130261326D01*
X195014899Y-130223633D01*
X195033466Y-130188897D01*
X195058452Y-130158452D01*
X195088897Y-130133466D01*
X195123633Y-130114899D01*
X195161326Y-130103465D01*
X195206661Y-130099000D01*
X196293339Y-130099000D01*
X196338674Y-130103465D01*
X196338674Y-130103465D01*
G37*
G36*
X202338674Y-130103465D02*
G01*
X202376367Y-130114899D01*
X202411103Y-130133466D01*
X202441548Y-130158452D01*
X202466534Y-130188897D01*
X202485101Y-130223633D01*
X202496535Y-130261326D01*
X202501000Y-130306661D01*
X202501000Y-131143339D01*
X202496535Y-131188674D01*
X202485101Y-131226367D01*
X202466534Y-131261103D01*
X202441548Y-131291548D01*
X202411103Y-131316534D01*
X202376367Y-131335101D01*
X202338674Y-131346535D01*
X202293339Y-131351000D01*
X201206661Y-131351000D01*
X201161326Y-131346535D01*
X201123633Y-131335101D01*
X201088897Y-131316534D01*
X201058452Y-131291548D01*
X201033466Y-131261103D01*
X201014899Y-131226367D01*
X201003465Y-131188674D01*
X200999000Y-131143339D01*
X200999000Y-130306661D01*
X201003465Y-130261326D01*
X201014899Y-130223633D01*
X201033466Y-130188897D01*
X201058452Y-130158452D01*
X201088897Y-130133466D01*
X201123633Y-130114899D01*
X201161326Y-130103465D01*
X201206661Y-130099000D01*
X202293339Y-130099000D01*
X202338674Y-130103465D01*
X202338674Y-130103465D01*
G37*
G36*
X172338674Y-130103465D02*
G01*
X172376367Y-130114899D01*
X172411103Y-130133466D01*
X172441548Y-130158452D01*
X172466534Y-130188897D01*
X172485101Y-130223633D01*
X172496535Y-130261326D01*
X172501000Y-130306661D01*
X172501000Y-131143339D01*
X172496535Y-131188674D01*
X172485101Y-131226367D01*
X172466534Y-131261103D01*
X172441548Y-131291548D01*
X172411103Y-131316534D01*
X172376367Y-131335101D01*
X172338674Y-131346535D01*
X172293339Y-131351000D01*
X171206661Y-131351000D01*
X171161326Y-131346535D01*
X171123633Y-131335101D01*
X171088897Y-131316534D01*
X171058452Y-131291548D01*
X171033466Y-131261103D01*
X171014899Y-131226367D01*
X171003465Y-131188674D01*
X170999000Y-131143339D01*
X170999000Y-130306661D01*
X171003465Y-130261326D01*
X171014899Y-130223633D01*
X171033466Y-130188897D01*
X171058452Y-130158452D01*
X171088897Y-130133466D01*
X171123633Y-130114899D01*
X171161326Y-130103465D01*
X171206661Y-130099000D01*
X172293339Y-130099000D01*
X172338674Y-130103465D01*
X172338674Y-130103465D01*
G37*
G36*
X166338674Y-130103465D02*
G01*
X166376367Y-130114899D01*
X166411103Y-130133466D01*
X166441548Y-130158452D01*
X166466534Y-130188897D01*
X166485101Y-130223633D01*
X166496535Y-130261326D01*
X166501000Y-130306661D01*
X166501000Y-131143339D01*
X166496535Y-131188674D01*
X166485101Y-131226367D01*
X166466534Y-131261103D01*
X166441548Y-131291548D01*
X166411103Y-131316534D01*
X166376367Y-131335101D01*
X166338674Y-131346535D01*
X166293339Y-131351000D01*
X165206661Y-131351000D01*
X165161326Y-131346535D01*
X165123633Y-131335101D01*
X165088897Y-131316534D01*
X165058452Y-131291548D01*
X165033466Y-131261103D01*
X165014899Y-131226367D01*
X165003465Y-131188674D01*
X164999000Y-131143339D01*
X164999000Y-130306661D01*
X165003465Y-130261326D01*
X165014899Y-130223633D01*
X165033466Y-130188897D01*
X165058452Y-130158452D01*
X165088897Y-130133466D01*
X165123633Y-130114899D01*
X165161326Y-130103465D01*
X165206661Y-130099000D01*
X166293339Y-130099000D01*
X166338674Y-130103465D01*
X166338674Y-130103465D01*
G37*
G36*
X142338674Y-130103465D02*
G01*
X142376367Y-130114899D01*
X142411103Y-130133466D01*
X142441548Y-130158452D01*
X142466534Y-130188897D01*
X142485101Y-130223633D01*
X142496535Y-130261326D01*
X142501000Y-130306661D01*
X142501000Y-131143339D01*
X142496535Y-131188674D01*
X142485101Y-131226367D01*
X142466534Y-131261103D01*
X142441548Y-131291548D01*
X142411103Y-131316534D01*
X142376367Y-131335101D01*
X142338674Y-131346535D01*
X142293339Y-131351000D01*
X141206661Y-131351000D01*
X141161326Y-131346535D01*
X141123633Y-131335101D01*
X141088897Y-131316534D01*
X141058452Y-131291548D01*
X141033466Y-131261103D01*
X141014899Y-131226367D01*
X141003465Y-131188674D01*
X140999000Y-131143339D01*
X140999000Y-130306661D01*
X141003465Y-130261326D01*
X141014899Y-130223633D01*
X141033466Y-130188897D01*
X141058452Y-130158452D01*
X141088897Y-130133466D01*
X141123633Y-130114899D01*
X141161326Y-130103465D01*
X141206661Y-130099000D01*
X142293339Y-130099000D01*
X142338674Y-130103465D01*
X142338674Y-130103465D01*
G37*
G36*
X136338674Y-130103465D02*
G01*
X136376367Y-130114899D01*
X136411103Y-130133466D01*
X136441548Y-130158452D01*
X136466534Y-130188897D01*
X136485101Y-130223633D01*
X136496535Y-130261326D01*
X136501000Y-130306661D01*
X136501000Y-131143339D01*
X136496535Y-131188674D01*
X136485101Y-131226367D01*
X136466534Y-131261103D01*
X136441548Y-131291548D01*
X136411103Y-131316534D01*
X136376367Y-131335101D01*
X136338674Y-131346535D01*
X136293339Y-131351000D01*
X135206661Y-131351000D01*
X135161326Y-131346535D01*
X135123633Y-131335101D01*
X135088897Y-131316534D01*
X135058452Y-131291548D01*
X135033466Y-131261103D01*
X135014899Y-131226367D01*
X135003465Y-131188674D01*
X134999000Y-131143339D01*
X134999000Y-130306661D01*
X135003465Y-130261326D01*
X135014899Y-130223633D01*
X135033466Y-130188897D01*
X135058452Y-130158452D01*
X135088897Y-130133466D01*
X135123633Y-130114899D01*
X135161326Y-130103465D01*
X135206661Y-130099000D01*
X136293339Y-130099000D01*
X136338674Y-130103465D01*
X136338674Y-130103465D01*
G37*
G36*
X146301000Y-131301000D02*
G01*
X145199000Y-131301000D01*
X145199000Y-130199000D01*
X146301000Y-130199000D01*
X146301000Y-131301000D01*
X146301000Y-131301000D01*
G37*
G36*
X176301000Y-131301000D02*
G01*
X175199000Y-131301000D01*
X175199000Y-130199000D01*
X176301000Y-130199000D01*
X176301000Y-131301000D01*
X176301000Y-131301000D01*
G37*
G36*
X206301000Y-131301000D02*
G01*
X205199000Y-131301000D01*
X205199000Y-130199000D01*
X206301000Y-130199000D01*
X206301000Y-131301000D01*
X206301000Y-131301000D01*
G37*
G36*
X164301000Y-131051000D02*
G01*
X163199000Y-131051000D01*
X163199000Y-129949000D01*
X164301000Y-129949000D01*
X164301000Y-131051000D01*
X164301000Y-131051000D01*
G37*
G36*
X170301000Y-131051000D02*
G01*
X169199000Y-131051000D01*
X169199000Y-129949000D01*
X170301000Y-129949000D01*
X170301000Y-131051000D01*
X170301000Y-131051000D01*
G37*
G36*
X140301000Y-131051000D02*
G01*
X139199000Y-131051000D01*
X139199000Y-129949000D01*
X140301000Y-129949000D01*
X140301000Y-131051000D01*
X140301000Y-131051000D01*
G37*
G36*
X194301000Y-131051000D02*
G01*
X193199000Y-131051000D01*
X193199000Y-129949000D01*
X194301000Y-129949000D01*
X194301000Y-131051000D01*
X194301000Y-131051000D01*
G37*
G36*
X134301000Y-131051000D02*
G01*
X133199000Y-131051000D01*
X133199000Y-129949000D01*
X134301000Y-129949000D01*
X134301000Y-131051000D01*
X134301000Y-131051000D01*
G37*
G36*
X200301000Y-131051000D02*
G01*
X199199000Y-131051000D01*
X199199000Y-129949000D01*
X200301000Y-129949000D01*
X200301000Y-131051000D01*
X200301000Y-131051000D01*
G37*
G36*
X188275562Y-128253181D02*
G01*
X188310481Y-128263774D01*
X188342663Y-128280976D01*
X188370873Y-128304127D01*
X188394024Y-128332337D01*
X188411226Y-128364519D01*
X188421819Y-128399438D01*
X188426000Y-128441895D01*
X188426000Y-129583105D01*
X188421819Y-129625562D01*
X188411226Y-129660481D01*
X188394024Y-129692663D01*
X188370873Y-129720873D01*
X188342663Y-129744024D01*
X188310481Y-129761226D01*
X188275562Y-129771819D01*
X188233105Y-129776000D01*
X186766895Y-129776000D01*
X186724438Y-129771819D01*
X186689519Y-129761226D01*
X186657337Y-129744024D01*
X186629127Y-129720873D01*
X186605976Y-129692663D01*
X186588774Y-129660481D01*
X186578181Y-129625562D01*
X186574000Y-129583105D01*
X186574000Y-128441895D01*
X186578181Y-128399438D01*
X186588774Y-128364519D01*
X186605976Y-128332337D01*
X186629127Y-128304127D01*
X186657337Y-128280976D01*
X186689519Y-128263774D01*
X186724438Y-128253181D01*
X186766895Y-128249000D01*
X188233105Y-128249000D01*
X188275562Y-128253181D01*
X188275562Y-128253181D01*
G37*
G36*
X158275562Y-128253181D02*
G01*
X158310481Y-128263774D01*
X158342663Y-128280976D01*
X158370873Y-128304127D01*
X158394024Y-128332337D01*
X158411226Y-128364519D01*
X158421819Y-128399438D01*
X158426000Y-128441895D01*
X158426000Y-129583105D01*
X158421819Y-129625562D01*
X158411226Y-129660481D01*
X158394024Y-129692663D01*
X158370873Y-129720873D01*
X158342663Y-129744024D01*
X158310481Y-129761226D01*
X158275562Y-129771819D01*
X158233105Y-129776000D01*
X156766895Y-129776000D01*
X156724438Y-129771819D01*
X156689519Y-129761226D01*
X156657337Y-129744024D01*
X156629127Y-129720873D01*
X156605976Y-129692663D01*
X156588774Y-129660481D01*
X156578181Y-129625562D01*
X156574000Y-129583105D01*
X156574000Y-128441895D01*
X156578181Y-128399438D01*
X156588774Y-128364519D01*
X156605976Y-128332337D01*
X156629127Y-128304127D01*
X156657337Y-128280976D01*
X156689519Y-128263774D01*
X156724438Y-128253181D01*
X156766895Y-128249000D01*
X158233105Y-128249000D01*
X158275562Y-128253181D01*
X158275562Y-128253181D01*
G37*
G36*
X218275562Y-128253181D02*
G01*
X218310481Y-128263774D01*
X218342663Y-128280976D01*
X218370873Y-128304127D01*
X218394024Y-128332337D01*
X218411226Y-128364519D01*
X218421819Y-128399438D01*
X218426000Y-128441895D01*
X218426000Y-129583105D01*
X218421819Y-129625562D01*
X218411226Y-129660481D01*
X218394024Y-129692663D01*
X218370873Y-129720873D01*
X218342663Y-129744024D01*
X218310481Y-129761226D01*
X218275562Y-129771819D01*
X218233105Y-129776000D01*
X216766895Y-129776000D01*
X216724438Y-129771819D01*
X216689519Y-129761226D01*
X216657337Y-129744024D01*
X216629127Y-129720873D01*
X216605976Y-129692663D01*
X216588774Y-129660481D01*
X216578181Y-129625562D01*
X216574000Y-129583105D01*
X216574000Y-128441895D01*
X216578181Y-128399438D01*
X216588774Y-128364519D01*
X216605976Y-128332337D01*
X216629127Y-128304127D01*
X216657337Y-128280976D01*
X216689519Y-128263774D01*
X216724438Y-128253181D01*
X216766895Y-128249000D01*
X218233105Y-128249000D01*
X218275562Y-128253181D01*
X218275562Y-128253181D01*
G37*
G36*
X211838674Y-128403465D02*
G01*
X211876367Y-128414899D01*
X211911103Y-128433466D01*
X211941548Y-128458452D01*
X211966534Y-128488897D01*
X211985101Y-128523633D01*
X211996535Y-128561326D01*
X212001000Y-128606661D01*
X212001000Y-129443339D01*
X211996535Y-129488674D01*
X211985101Y-129526367D01*
X211966534Y-129561103D01*
X211941548Y-129591548D01*
X211911103Y-129616534D01*
X211876367Y-129635101D01*
X211838674Y-129646535D01*
X211793339Y-129651000D01*
X210706661Y-129651000D01*
X210661326Y-129646535D01*
X210623633Y-129635101D01*
X210588897Y-129616534D01*
X210558452Y-129591548D01*
X210533466Y-129561103D01*
X210514899Y-129526367D01*
X210503465Y-129488674D01*
X210499000Y-129443339D01*
X210499000Y-128606661D01*
X210503465Y-128561326D01*
X210514899Y-128523633D01*
X210533466Y-128488897D01*
X210558452Y-128458452D01*
X210588897Y-128433466D01*
X210623633Y-128414899D01*
X210661326Y-128403465D01*
X210706661Y-128399000D01*
X211793339Y-128399000D01*
X211838674Y-128403465D01*
X211838674Y-128403465D01*
G37*
G36*
X181838674Y-128403465D02*
G01*
X181876367Y-128414899D01*
X181911103Y-128433466D01*
X181941548Y-128458452D01*
X181966534Y-128488897D01*
X181985101Y-128523633D01*
X181996535Y-128561326D01*
X182001000Y-128606661D01*
X182001000Y-129443339D01*
X181996535Y-129488674D01*
X181985101Y-129526367D01*
X181966534Y-129561103D01*
X181941548Y-129591548D01*
X181911103Y-129616534D01*
X181876367Y-129635101D01*
X181838674Y-129646535D01*
X181793339Y-129651000D01*
X180706661Y-129651000D01*
X180661326Y-129646535D01*
X180623633Y-129635101D01*
X180588897Y-129616534D01*
X180558452Y-129591548D01*
X180533466Y-129561103D01*
X180514899Y-129526367D01*
X180503465Y-129488674D01*
X180499000Y-129443339D01*
X180499000Y-128606661D01*
X180503465Y-128561326D01*
X180514899Y-128523633D01*
X180533466Y-128488897D01*
X180558452Y-128458452D01*
X180588897Y-128433466D01*
X180623633Y-128414899D01*
X180661326Y-128403465D01*
X180706661Y-128399000D01*
X181793339Y-128399000D01*
X181838674Y-128403465D01*
X181838674Y-128403465D01*
G37*
G36*
X151838674Y-128403465D02*
G01*
X151876367Y-128414899D01*
X151911103Y-128433466D01*
X151941548Y-128458452D01*
X151966534Y-128488897D01*
X151985101Y-128523633D01*
X151996535Y-128561326D01*
X152001000Y-128606661D01*
X152001000Y-129443339D01*
X151996535Y-129488674D01*
X151985101Y-129526367D01*
X151966534Y-129561103D01*
X151941548Y-129591548D01*
X151911103Y-129616534D01*
X151876367Y-129635101D01*
X151838674Y-129646535D01*
X151793339Y-129651000D01*
X150706661Y-129651000D01*
X150661326Y-129646535D01*
X150623633Y-129635101D01*
X150588897Y-129616534D01*
X150558452Y-129591548D01*
X150533466Y-129561103D01*
X150514899Y-129526367D01*
X150503465Y-129488674D01*
X150499000Y-129443339D01*
X150499000Y-128606661D01*
X150503465Y-128561326D01*
X150514899Y-128523633D01*
X150533466Y-128488897D01*
X150558452Y-128458452D01*
X150588897Y-128433466D01*
X150623633Y-128414899D01*
X150661326Y-128403465D01*
X150706661Y-128399000D01*
X151793339Y-128399000D01*
X151838674Y-128403465D01*
X151838674Y-128403465D01*
G37*
G36*
X153606000Y-129561000D02*
G01*
X152994000Y-129561000D01*
X152994000Y-128759000D01*
X153606000Y-128759000D01*
X153606000Y-129561000D01*
X153606000Y-129561000D01*
G37*
G36*
X155506000Y-129561000D02*
G01*
X154894000Y-129561000D01*
X154894000Y-128759000D01*
X155506000Y-128759000D01*
X155506000Y-129561000D01*
X155506000Y-129561000D01*
G37*
G36*
X215506000Y-129561000D02*
G01*
X214894000Y-129561000D01*
X214894000Y-128759000D01*
X215506000Y-128759000D01*
X215506000Y-129561000D01*
X215506000Y-129561000D01*
G37*
G36*
X154556000Y-129561000D02*
G01*
X153944000Y-129561000D01*
X153944000Y-128759000D01*
X154556000Y-128759000D01*
X154556000Y-129561000D01*
X154556000Y-129561000D01*
G37*
G36*
X214556000Y-129561000D02*
G01*
X213944000Y-129561000D01*
X213944000Y-128759000D01*
X214556000Y-128759000D01*
X214556000Y-129561000D01*
X214556000Y-129561000D01*
G37*
G36*
X184556000Y-129561000D02*
G01*
X183944000Y-129561000D01*
X183944000Y-128759000D01*
X184556000Y-128759000D01*
X184556000Y-129561000D01*
X184556000Y-129561000D01*
G37*
G36*
X183606000Y-129561000D02*
G01*
X182994000Y-129561000D01*
X182994000Y-128759000D01*
X183606000Y-128759000D01*
X183606000Y-129561000D01*
X183606000Y-129561000D01*
G37*
G36*
X213606000Y-129561000D02*
G01*
X212994000Y-129561000D01*
X212994000Y-128759000D01*
X213606000Y-128759000D01*
X213606000Y-129561000D01*
X213606000Y-129561000D01*
G37*
G36*
X185506000Y-129561000D02*
G01*
X184894000Y-129561000D01*
X184894000Y-128759000D01*
X185506000Y-128759000D01*
X185506000Y-129561000D01*
X185506000Y-129561000D01*
G37*
G36*
X176101000Y-129451000D02*
G01*
X175359000Y-129451000D01*
X175359000Y-127349000D01*
X176101000Y-127349000D01*
X176101000Y-129451000D01*
X176101000Y-129451000D01*
G37*
G36*
X202641000Y-129451000D02*
G01*
X201899000Y-129451000D01*
X201899000Y-127349000D01*
X202641000Y-127349000D01*
X202641000Y-129451000D01*
X202641000Y-129451000D01*
G37*
G36*
X206101000Y-129451000D02*
G01*
X205359000Y-129451000D01*
X205359000Y-127349000D01*
X206101000Y-127349000D01*
X206101000Y-129451000D01*
X206101000Y-129451000D01*
G37*
G36*
X208641000Y-129451000D02*
G01*
X207899000Y-129451000D01*
X207899000Y-127349000D01*
X208641000Y-127349000D01*
X208641000Y-129451000D01*
X208641000Y-129451000D01*
G37*
G36*
X136641000Y-129451000D02*
G01*
X135899000Y-129451000D01*
X135899000Y-127349000D01*
X136641000Y-127349000D01*
X136641000Y-129451000D01*
X136641000Y-129451000D01*
G37*
G36*
X146101000Y-129451000D02*
G01*
X145359000Y-129451000D01*
X145359000Y-127349000D01*
X146101000Y-127349000D01*
X146101000Y-129451000D01*
X146101000Y-129451000D01*
G37*
G36*
X148641000Y-129451000D02*
G01*
X147899000Y-129451000D01*
X147899000Y-127349000D01*
X148641000Y-127349000D01*
X148641000Y-129451000D01*
X148641000Y-129451000D01*
G37*
G36*
X164101000Y-129451000D02*
G01*
X163359000Y-129451000D01*
X163359000Y-127349000D01*
X164101000Y-127349000D01*
X164101000Y-129451000D01*
X164101000Y-129451000D01*
G37*
G36*
X166641000Y-129451000D02*
G01*
X165899000Y-129451000D01*
X165899000Y-127349000D01*
X166641000Y-127349000D01*
X166641000Y-129451000D01*
X166641000Y-129451000D01*
G37*
G36*
X178641000Y-129451000D02*
G01*
X177899000Y-129451000D01*
X177899000Y-127349000D01*
X178641000Y-127349000D01*
X178641000Y-129451000D01*
X178641000Y-129451000D01*
G37*
G36*
X194101000Y-129451000D02*
G01*
X193359000Y-129451000D01*
X193359000Y-127349000D01*
X194101000Y-127349000D01*
X194101000Y-129451000D01*
X194101000Y-129451000D01*
G37*
G36*
X134101000Y-129451000D02*
G01*
X133359000Y-129451000D01*
X133359000Y-127349000D01*
X134101000Y-127349000D01*
X134101000Y-129451000D01*
X134101000Y-129451000D01*
G37*
G36*
X140101000Y-129451000D02*
G01*
X139359000Y-129451000D01*
X139359000Y-127349000D01*
X140101000Y-127349000D01*
X140101000Y-129451000D01*
X140101000Y-129451000D01*
G37*
G36*
X142641000Y-129451000D02*
G01*
X141899000Y-129451000D01*
X141899000Y-127349000D01*
X142641000Y-127349000D01*
X142641000Y-129451000D01*
X142641000Y-129451000D01*
G37*
G36*
X170101000Y-129451000D02*
G01*
X169359000Y-129451000D01*
X169359000Y-127349000D01*
X170101000Y-127349000D01*
X170101000Y-129451000D01*
X170101000Y-129451000D01*
G37*
G36*
X172641000Y-129451000D02*
G01*
X171899000Y-129451000D01*
X171899000Y-127349000D01*
X172641000Y-127349000D01*
X172641000Y-129451000D01*
X172641000Y-129451000D01*
G37*
G36*
X196641000Y-129451000D02*
G01*
X195899000Y-129451000D01*
X195899000Y-127349000D01*
X196641000Y-127349000D01*
X196641000Y-129451000D01*
X196641000Y-129451000D01*
G37*
G36*
X200101000Y-129451000D02*
G01*
X199359000Y-129451000D01*
X199359000Y-127349000D01*
X200101000Y-127349000D01*
X200101000Y-129451000D01*
X200101000Y-129451000D01*
G37*
G36*
X151838674Y-126353465D02*
G01*
X151876367Y-126364899D01*
X151911103Y-126383466D01*
X151941548Y-126408452D01*
X151966534Y-126438897D01*
X151985101Y-126473633D01*
X151996535Y-126511326D01*
X152001000Y-126556661D01*
X152001000Y-127393339D01*
X151996535Y-127438674D01*
X151985101Y-127476367D01*
X151966534Y-127511103D01*
X151941548Y-127541548D01*
X151911103Y-127566534D01*
X151876367Y-127585101D01*
X151838674Y-127596535D01*
X151793339Y-127601000D01*
X150706661Y-127601000D01*
X150661326Y-127596535D01*
X150623633Y-127585101D01*
X150588897Y-127566534D01*
X150558452Y-127541548D01*
X150533466Y-127511103D01*
X150514899Y-127476367D01*
X150503465Y-127438674D01*
X150499000Y-127393339D01*
X150499000Y-126556661D01*
X150503465Y-126511326D01*
X150514899Y-126473633D01*
X150533466Y-126438897D01*
X150558452Y-126408452D01*
X150588897Y-126383466D01*
X150623633Y-126364899D01*
X150661326Y-126353465D01*
X150706661Y-126349000D01*
X151793339Y-126349000D01*
X151838674Y-126353465D01*
X151838674Y-126353465D01*
G37*
G36*
X211838674Y-126353465D02*
G01*
X211876367Y-126364899D01*
X211911103Y-126383466D01*
X211941548Y-126408452D01*
X211966534Y-126438897D01*
X211985101Y-126473633D01*
X211996535Y-126511326D01*
X212001000Y-126556661D01*
X212001000Y-127393339D01*
X211996535Y-127438674D01*
X211985101Y-127476367D01*
X211966534Y-127511103D01*
X211941548Y-127541548D01*
X211911103Y-127566534D01*
X211876367Y-127585101D01*
X211838674Y-127596535D01*
X211793339Y-127601000D01*
X210706661Y-127601000D01*
X210661326Y-127596535D01*
X210623633Y-127585101D01*
X210588897Y-127566534D01*
X210558452Y-127541548D01*
X210533466Y-127511103D01*
X210514899Y-127476367D01*
X210503465Y-127438674D01*
X210499000Y-127393339D01*
X210499000Y-126556661D01*
X210503465Y-126511326D01*
X210514899Y-126473633D01*
X210533466Y-126438897D01*
X210558452Y-126408452D01*
X210588897Y-126383466D01*
X210623633Y-126364899D01*
X210661326Y-126353465D01*
X210706661Y-126349000D01*
X211793339Y-126349000D01*
X211838674Y-126353465D01*
X211838674Y-126353465D01*
G37*
G36*
X181838674Y-126353465D02*
G01*
X181876367Y-126364899D01*
X181911103Y-126383466D01*
X181941548Y-126408452D01*
X181966534Y-126438897D01*
X181985101Y-126473633D01*
X181996535Y-126511326D01*
X182001000Y-126556661D01*
X182001000Y-127393339D01*
X181996535Y-127438674D01*
X181985101Y-127476367D01*
X181966534Y-127511103D01*
X181941548Y-127541548D01*
X181911103Y-127566534D01*
X181876367Y-127585101D01*
X181838674Y-127596535D01*
X181793339Y-127601000D01*
X180706661Y-127601000D01*
X180661326Y-127596535D01*
X180623633Y-127585101D01*
X180588897Y-127566534D01*
X180558452Y-127541548D01*
X180533466Y-127511103D01*
X180514899Y-127476367D01*
X180503465Y-127438674D01*
X180499000Y-127393339D01*
X180499000Y-126556661D01*
X180503465Y-126511326D01*
X180514899Y-126473633D01*
X180533466Y-126438897D01*
X180558452Y-126408452D01*
X180588897Y-126383466D01*
X180623633Y-126364899D01*
X180661326Y-126353465D01*
X180706661Y-126349000D01*
X181793339Y-126349000D01*
X181838674Y-126353465D01*
X181838674Y-126353465D01*
G37*
G36*
X153606000Y-127241000D02*
G01*
X152994000Y-127241000D01*
X152994000Y-126439000D01*
X153606000Y-126439000D01*
X153606000Y-127241000D01*
X153606000Y-127241000D01*
G37*
G36*
X215506000Y-127241000D02*
G01*
X214894000Y-127241000D01*
X214894000Y-126439000D01*
X215506000Y-126439000D01*
X215506000Y-127241000D01*
X215506000Y-127241000D01*
G37*
G36*
X214556000Y-127241000D02*
G01*
X213944000Y-127241000D01*
X213944000Y-126439000D01*
X214556000Y-126439000D01*
X214556000Y-127241000D01*
X214556000Y-127241000D01*
G37*
G36*
X213606000Y-127241000D02*
G01*
X212994000Y-127241000D01*
X212994000Y-126439000D01*
X213606000Y-126439000D01*
X213606000Y-127241000D01*
X213606000Y-127241000D01*
G37*
G36*
X183606000Y-127241000D02*
G01*
X182994000Y-127241000D01*
X182994000Y-126439000D01*
X183606000Y-126439000D01*
X183606000Y-127241000D01*
X183606000Y-127241000D01*
G37*
G36*
X184556000Y-127241000D02*
G01*
X183944000Y-127241000D01*
X183944000Y-126439000D01*
X184556000Y-126439000D01*
X184556000Y-127241000D01*
X184556000Y-127241000D01*
G37*
G36*
X185506000Y-127241000D02*
G01*
X184894000Y-127241000D01*
X184894000Y-126439000D01*
X185506000Y-126439000D01*
X185506000Y-127241000D01*
X185506000Y-127241000D01*
G37*
G36*
X154556000Y-127241000D02*
G01*
X153944000Y-127241000D01*
X153944000Y-126439000D01*
X154556000Y-126439000D01*
X154556000Y-127241000D01*
X154556000Y-127241000D01*
G37*
G36*
X155506000Y-127241000D02*
G01*
X154894000Y-127241000D01*
X154894000Y-126439000D01*
X155506000Y-126439000D01*
X155506000Y-127241000D01*
X155506000Y-127241000D01*
G37*
G36*
X219480000Y-124920000D02*
G01*
X217790000Y-124920000D01*
X217790000Y-124794999D01*
X217787598Y-124770613D01*
X217780485Y-124747164D01*
X217768934Y-124725553D01*
X217753389Y-124706611D01*
X217734447Y-124691066D01*
X217712836Y-124679515D01*
X217689387Y-124672402D01*
X217665001Y-124670000D01*
X214715000Y-124670000D01*
X214715000Y-120330000D01*
X217665001Y-120330000D01*
X217689387Y-120327598D01*
X217712836Y-120320485D01*
X217734447Y-120308934D01*
X217753389Y-120293389D01*
X217768934Y-120274447D01*
X217780485Y-120252836D01*
X217787598Y-120229387D01*
X217790000Y-120205001D01*
X217790000Y-120080000D01*
X219480000Y-120080000D01*
X219480000Y-124920000D01*
X219480000Y-124920000D01*
G37*
G36*
X189480000Y-124920000D02*
G01*
X187790000Y-124920000D01*
X187790000Y-124794999D01*
X187787598Y-124770613D01*
X187780485Y-124747164D01*
X187768934Y-124725553D01*
X187753389Y-124706611D01*
X187734447Y-124691066D01*
X187712836Y-124679515D01*
X187689387Y-124672402D01*
X187665001Y-124670000D01*
X184715000Y-124670000D01*
X184715000Y-120330000D01*
X187665001Y-120330000D01*
X187689387Y-120327598D01*
X187712836Y-120320485D01*
X187734447Y-120308934D01*
X187753389Y-120293389D01*
X187768934Y-120274447D01*
X187780485Y-120252836D01*
X187787598Y-120229387D01*
X187790000Y-120205001D01*
X187790000Y-120080000D01*
X189480000Y-120080000D01*
X189480000Y-124920000D01*
X189480000Y-124920000D01*
G37*
G36*
X159480000Y-124920000D02*
G01*
X157790000Y-124920000D01*
X157790000Y-124794999D01*
X157787598Y-124770613D01*
X157780485Y-124747164D01*
X157768934Y-124725553D01*
X157753389Y-124706611D01*
X157734447Y-124691066D01*
X157712836Y-124679515D01*
X157689387Y-124672402D01*
X157665001Y-124670000D01*
X154715000Y-124670000D01*
X154715000Y-120330000D01*
X157665001Y-120330000D01*
X157689387Y-120327598D01*
X157712836Y-120320485D01*
X157734447Y-120308934D01*
X157753389Y-120293389D01*
X157768934Y-120274447D01*
X157780485Y-120252836D01*
X157787598Y-120229387D01*
X157790000Y-120205001D01*
X157790000Y-120080000D01*
X159480000Y-120080000D01*
X159480000Y-124920000D01*
X159480000Y-124920000D01*
G37*
G36*
X153810000Y-124830000D02*
G01*
X152520000Y-124830000D01*
X152520000Y-123990000D01*
X153810000Y-123990000D01*
X153810000Y-124830000D01*
X153810000Y-124830000D01*
G37*
G36*
X183810000Y-124830000D02*
G01*
X182520000Y-124830000D01*
X182520000Y-123990000D01*
X183810000Y-123990000D01*
X183810000Y-124830000D01*
X183810000Y-124830000D01*
G37*
G36*
X213810000Y-124830000D02*
G01*
X212520000Y-124830000D01*
X212520000Y-123990000D01*
X213810000Y-123990000D01*
X213810000Y-124830000D01*
X213810000Y-124830000D01*
G37*
G36*
X211275562Y-123228181D02*
G01*
X211310481Y-123238774D01*
X211342663Y-123255976D01*
X211370873Y-123279127D01*
X211394024Y-123307337D01*
X211411226Y-123339519D01*
X211421819Y-123374438D01*
X211426000Y-123416895D01*
X211426000Y-124558105D01*
X211421819Y-124600562D01*
X211411226Y-124635481D01*
X211394024Y-124667663D01*
X211370873Y-124695873D01*
X211342663Y-124719024D01*
X211310481Y-124736226D01*
X211275562Y-124746819D01*
X211233105Y-124751000D01*
X209766895Y-124751000D01*
X209724438Y-124746819D01*
X209689519Y-124736226D01*
X209657337Y-124719024D01*
X209629127Y-124695873D01*
X209605976Y-124667663D01*
X209588774Y-124635481D01*
X209578181Y-124600562D01*
X209574000Y-124558105D01*
X209574000Y-123416895D01*
X209578181Y-123374438D01*
X209588774Y-123339519D01*
X209605976Y-123307337D01*
X209629127Y-123279127D01*
X209657337Y-123255976D01*
X209689519Y-123238774D01*
X209724438Y-123228181D01*
X209766895Y-123224000D01*
X211233105Y-123224000D01*
X211275562Y-123228181D01*
X211275562Y-123228181D01*
G37*
G36*
X181275562Y-123228181D02*
G01*
X181310481Y-123238774D01*
X181342663Y-123255976D01*
X181370873Y-123279127D01*
X181394024Y-123307337D01*
X181411226Y-123339519D01*
X181421819Y-123374438D01*
X181426000Y-123416895D01*
X181426000Y-124558105D01*
X181421819Y-124600562D01*
X181411226Y-124635481D01*
X181394024Y-124667663D01*
X181370873Y-124695873D01*
X181342663Y-124719024D01*
X181310481Y-124736226D01*
X181275562Y-124746819D01*
X181233105Y-124751000D01*
X179766895Y-124751000D01*
X179724438Y-124746819D01*
X179689519Y-124736226D01*
X179657337Y-124719024D01*
X179629127Y-124695873D01*
X179605976Y-124667663D01*
X179588774Y-124635481D01*
X179578181Y-124600562D01*
X179574000Y-124558105D01*
X179574000Y-123416895D01*
X179578181Y-123374438D01*
X179588774Y-123339519D01*
X179605976Y-123307337D01*
X179629127Y-123279127D01*
X179657337Y-123255976D01*
X179689519Y-123238774D01*
X179724438Y-123228181D01*
X179766895Y-123224000D01*
X181233105Y-123224000D01*
X181275562Y-123228181D01*
X181275562Y-123228181D01*
G37*
G36*
X151275562Y-123228181D02*
G01*
X151310481Y-123238774D01*
X151342663Y-123255976D01*
X151370873Y-123279127D01*
X151394024Y-123307337D01*
X151411226Y-123339519D01*
X151421819Y-123374438D01*
X151426000Y-123416895D01*
X151426000Y-124558105D01*
X151421819Y-124600562D01*
X151411226Y-124635481D01*
X151394024Y-124667663D01*
X151370873Y-124695873D01*
X151342663Y-124719024D01*
X151310481Y-124736226D01*
X151275562Y-124746819D01*
X151233105Y-124751000D01*
X149766895Y-124751000D01*
X149724438Y-124746819D01*
X149689519Y-124736226D01*
X149657337Y-124719024D01*
X149629127Y-124695873D01*
X149605976Y-124667663D01*
X149588774Y-124635481D01*
X149578181Y-124600562D01*
X149574000Y-124558105D01*
X149574000Y-123416895D01*
X149578181Y-123374438D01*
X149588774Y-123339519D01*
X149605976Y-123307337D01*
X149629127Y-123279127D01*
X149657337Y-123255976D01*
X149689519Y-123238774D01*
X149724438Y-123228181D01*
X149766895Y-123224000D01*
X151233105Y-123224000D01*
X151275562Y-123228181D01*
X151275562Y-123228181D01*
G37*
G36*
X153810000Y-123560000D02*
G01*
X152520000Y-123560000D01*
X152520000Y-122720000D01*
X153810000Y-122720000D01*
X153810000Y-123560000D01*
X153810000Y-123560000D01*
G37*
G36*
X213810000Y-123560000D02*
G01*
X212520000Y-123560000D01*
X212520000Y-122720000D01*
X213810000Y-122720000D01*
X213810000Y-123560000D01*
X213810000Y-123560000D01*
G37*
G36*
X183810000Y-123560000D02*
G01*
X182520000Y-123560000D01*
X182520000Y-122720000D01*
X183810000Y-122720000D01*
X183810000Y-123560000D01*
X183810000Y-123560000D01*
G37*
G36*
X206101000Y-123151000D02*
G01*
X205359000Y-123151000D01*
X205359000Y-121049000D01*
X206101000Y-121049000D01*
X206101000Y-123151000D01*
X206101000Y-123151000D01*
G37*
G36*
X172641000Y-123151000D02*
G01*
X171899000Y-123151000D01*
X171899000Y-121049000D01*
X172641000Y-121049000D01*
X172641000Y-123151000D01*
X172641000Y-123151000D01*
G37*
G36*
X140101000Y-123151000D02*
G01*
X139359000Y-123151000D01*
X139359000Y-121049000D01*
X140101000Y-121049000D01*
X140101000Y-123151000D01*
X140101000Y-123151000D01*
G37*
G36*
X142641000Y-123151000D02*
G01*
X141899000Y-123151000D01*
X141899000Y-121049000D01*
X142641000Y-121049000D01*
X142641000Y-123151000D01*
X142641000Y-123151000D01*
G37*
G36*
X194101000Y-123151000D02*
G01*
X193359000Y-123151000D01*
X193359000Y-121049000D01*
X194101000Y-121049000D01*
X194101000Y-123151000D01*
X194101000Y-123151000D01*
G37*
G36*
X164101000Y-123151000D02*
G01*
X163359000Y-123151000D01*
X163359000Y-121049000D01*
X164101000Y-121049000D01*
X164101000Y-123151000D01*
X164101000Y-123151000D01*
G37*
G36*
X166641000Y-123151000D02*
G01*
X165899000Y-123151000D01*
X165899000Y-121049000D01*
X166641000Y-121049000D01*
X166641000Y-123151000D01*
X166641000Y-123151000D01*
G37*
G36*
X170101000Y-123151000D02*
G01*
X169359000Y-123151000D01*
X169359000Y-121049000D01*
X170101000Y-121049000D01*
X170101000Y-123151000D01*
X170101000Y-123151000D01*
G37*
G36*
X136641000Y-123151000D02*
G01*
X135899000Y-123151000D01*
X135899000Y-121049000D01*
X136641000Y-121049000D01*
X136641000Y-123151000D01*
X136641000Y-123151000D01*
G37*
G36*
X208641000Y-123151000D02*
G01*
X207899000Y-123151000D01*
X207899000Y-121049000D01*
X208641000Y-121049000D01*
X208641000Y-123151000D01*
X208641000Y-123151000D01*
G37*
G36*
X176101000Y-123151000D02*
G01*
X175359000Y-123151000D01*
X175359000Y-121049000D01*
X176101000Y-121049000D01*
X176101000Y-123151000D01*
X176101000Y-123151000D01*
G37*
G36*
X178641000Y-123151000D02*
G01*
X177899000Y-123151000D01*
X177899000Y-121049000D01*
X178641000Y-121049000D01*
X178641000Y-123151000D01*
X178641000Y-123151000D01*
G37*
G36*
X146101000Y-123151000D02*
G01*
X145359000Y-123151000D01*
X145359000Y-121049000D01*
X146101000Y-121049000D01*
X146101000Y-123151000D01*
X146101000Y-123151000D01*
G37*
G36*
X148641000Y-123151000D02*
G01*
X147899000Y-123151000D01*
X147899000Y-121049000D01*
X148641000Y-121049000D01*
X148641000Y-123151000D01*
X148641000Y-123151000D01*
G37*
G36*
X200101000Y-123151000D02*
G01*
X199359000Y-123151000D01*
X199359000Y-121049000D01*
X200101000Y-121049000D01*
X200101000Y-123151000D01*
X200101000Y-123151000D01*
G37*
G36*
X202641000Y-123151000D02*
G01*
X201899000Y-123151000D01*
X201899000Y-121049000D01*
X202641000Y-121049000D01*
X202641000Y-123151000D01*
X202641000Y-123151000D01*
G37*
G36*
X134101000Y-123151000D02*
G01*
X133359000Y-123151000D01*
X133359000Y-121049000D01*
X134101000Y-121049000D01*
X134101000Y-123151000D01*
X134101000Y-123151000D01*
G37*
G36*
X196641000Y-123151000D02*
G01*
X195899000Y-123151000D01*
X195899000Y-121049000D01*
X196641000Y-121049000D01*
X196641000Y-123151000D01*
X196641000Y-123151000D01*
G37*
G36*
X153810000Y-122280000D02*
G01*
X152520000Y-122280000D01*
X152520000Y-121440000D01*
X153810000Y-121440000D01*
X153810000Y-122280000D01*
X153810000Y-122280000D01*
G37*
G36*
X213810000Y-122280000D02*
G01*
X212520000Y-122280000D01*
X212520000Y-121440000D01*
X213810000Y-121440000D01*
X213810000Y-122280000D01*
X213810000Y-122280000D01*
G37*
G36*
X183810000Y-122280000D02*
G01*
X182520000Y-122280000D01*
X182520000Y-121440000D01*
X183810000Y-121440000D01*
X183810000Y-122280000D01*
X183810000Y-122280000D01*
G37*
G36*
X151275562Y-120253181D02*
G01*
X151310481Y-120263774D01*
X151342663Y-120280976D01*
X151370873Y-120304127D01*
X151394024Y-120332337D01*
X151411226Y-120364519D01*
X151421819Y-120399438D01*
X151426000Y-120441895D01*
X151426000Y-121583105D01*
X151421819Y-121625562D01*
X151411226Y-121660481D01*
X151394024Y-121692663D01*
X151370873Y-121720873D01*
X151342663Y-121744024D01*
X151310481Y-121761226D01*
X151275562Y-121771819D01*
X151233105Y-121776000D01*
X149766895Y-121776000D01*
X149724438Y-121771819D01*
X149689519Y-121761226D01*
X149657337Y-121744024D01*
X149629127Y-121720873D01*
X149605976Y-121692663D01*
X149588774Y-121660481D01*
X149578181Y-121625562D01*
X149574000Y-121583105D01*
X149574000Y-120441895D01*
X149578181Y-120399438D01*
X149588774Y-120364519D01*
X149605976Y-120332337D01*
X149629127Y-120304127D01*
X149657337Y-120280976D01*
X149689519Y-120263774D01*
X149724438Y-120253181D01*
X149766895Y-120249000D01*
X151233105Y-120249000D01*
X151275562Y-120253181D01*
X151275562Y-120253181D01*
G37*
G36*
X211275562Y-120253181D02*
G01*
X211310481Y-120263774D01*
X211342663Y-120280976D01*
X211370873Y-120304127D01*
X211394024Y-120332337D01*
X211411226Y-120364519D01*
X211421819Y-120399438D01*
X211426000Y-120441895D01*
X211426000Y-121583105D01*
X211421819Y-121625562D01*
X211411226Y-121660481D01*
X211394024Y-121692663D01*
X211370873Y-121720873D01*
X211342663Y-121744024D01*
X211310481Y-121761226D01*
X211275562Y-121771819D01*
X211233105Y-121776000D01*
X209766895Y-121776000D01*
X209724438Y-121771819D01*
X209689519Y-121761226D01*
X209657337Y-121744024D01*
X209629127Y-121720873D01*
X209605976Y-121692663D01*
X209588774Y-121660481D01*
X209578181Y-121625562D01*
X209574000Y-121583105D01*
X209574000Y-120441895D01*
X209578181Y-120399438D01*
X209588774Y-120364519D01*
X209605976Y-120332337D01*
X209629127Y-120304127D01*
X209657337Y-120280976D01*
X209689519Y-120263774D01*
X209724438Y-120253181D01*
X209766895Y-120249000D01*
X211233105Y-120249000D01*
X211275562Y-120253181D01*
X211275562Y-120253181D01*
G37*
G36*
X181275562Y-120253181D02*
G01*
X181310481Y-120263774D01*
X181342663Y-120280976D01*
X181370873Y-120304127D01*
X181394024Y-120332337D01*
X181411226Y-120364519D01*
X181421819Y-120399438D01*
X181426000Y-120441895D01*
X181426000Y-121583105D01*
X181421819Y-121625562D01*
X181411226Y-121660481D01*
X181394024Y-121692663D01*
X181370873Y-121720873D01*
X181342663Y-121744024D01*
X181310481Y-121761226D01*
X181275562Y-121771819D01*
X181233105Y-121776000D01*
X179766895Y-121776000D01*
X179724438Y-121771819D01*
X179689519Y-121761226D01*
X179657337Y-121744024D01*
X179629127Y-121720873D01*
X179605976Y-121692663D01*
X179588774Y-121660481D01*
X179578181Y-121625562D01*
X179574000Y-121583105D01*
X179574000Y-120441895D01*
X179578181Y-120399438D01*
X179588774Y-120364519D01*
X179605976Y-120332337D01*
X179629127Y-120304127D01*
X179657337Y-120280976D01*
X179689519Y-120263774D01*
X179724438Y-120253181D01*
X179766895Y-120249000D01*
X181233105Y-120249000D01*
X181275562Y-120253181D01*
X181275562Y-120253181D01*
G37*
G36*
X213810000Y-121010000D02*
G01*
X212520000Y-121010000D01*
X212520000Y-120170000D01*
X213810000Y-120170000D01*
X213810000Y-121010000D01*
X213810000Y-121010000D01*
G37*
G36*
X153810000Y-121010000D02*
G01*
X152520000Y-121010000D01*
X152520000Y-120170000D01*
X153810000Y-120170000D01*
X153810000Y-121010000D01*
X153810000Y-121010000D01*
G37*
G36*
X183810000Y-121010000D02*
G01*
X182520000Y-121010000D01*
X182520000Y-120170000D01*
X183810000Y-120170000D01*
X183810000Y-121010000D01*
X183810000Y-121010000D01*
G37*
G36*
X211620104Y-111609585D02*
G01*
X211788626Y-111679389D01*
X211940291Y-111780728D01*
X212069272Y-111909709D01*
X212170611Y-112061374D01*
X212240415Y-112229896D01*
X212276000Y-112408797D01*
X212276000Y-112591203D01*
X212240415Y-112770104D01*
X212170611Y-112938626D01*
X212069272Y-113090291D01*
X211940291Y-113219272D01*
X211788626Y-113320611D01*
X211620104Y-113390415D01*
X211441203Y-113426000D01*
X211258797Y-113426000D01*
X211079896Y-113390415D01*
X210911374Y-113320611D01*
X210759709Y-113219272D01*
X210630728Y-113090291D01*
X210529389Y-112938626D01*
X210459585Y-112770104D01*
X210424000Y-112591203D01*
X210424000Y-112408797D01*
X210459585Y-112229896D01*
X210529389Y-112061374D01*
X210630728Y-111909709D01*
X210759709Y-111780728D01*
X210911374Y-111679389D01*
X211079896Y-111609585D01*
X211258797Y-111574000D01*
X211441203Y-111574000D01*
X211620104Y-111609585D01*
X211620104Y-111609585D01*
G37*
G36*
X171420104Y-111609585D02*
G01*
X171588626Y-111679389D01*
X171740291Y-111780728D01*
X171869272Y-111909709D01*
X171970611Y-112061374D01*
X172040415Y-112229896D01*
X172076000Y-112408797D01*
X172076000Y-112591203D01*
X172040415Y-112770104D01*
X171970611Y-112938626D01*
X171869272Y-113090291D01*
X171740291Y-113219272D01*
X171588626Y-113320611D01*
X171420104Y-113390415D01*
X171241203Y-113426000D01*
X171058797Y-113426000D01*
X170879896Y-113390415D01*
X170711374Y-113320611D01*
X170559709Y-113219272D01*
X170430728Y-113090291D01*
X170329389Y-112938626D01*
X170259585Y-112770104D01*
X170224000Y-112591203D01*
X170224000Y-112408797D01*
X170259585Y-112229896D01*
X170329389Y-112061374D01*
X170430728Y-111909709D01*
X170559709Y-111780728D01*
X170711374Y-111679389D01*
X170879896Y-111609585D01*
X171058797Y-111574000D01*
X171241203Y-111574000D01*
X171420104Y-111609585D01*
X171420104Y-111609585D01*
G37*
G36*
X181620104Y-111609585D02*
G01*
X181788626Y-111679389D01*
X181940291Y-111780728D01*
X182069272Y-111909709D01*
X182170611Y-112061374D01*
X182240415Y-112229896D01*
X182276000Y-112408797D01*
X182276000Y-112591203D01*
X182240415Y-112770104D01*
X182170611Y-112938626D01*
X182069272Y-113090291D01*
X181940291Y-113219272D01*
X181788626Y-113320611D01*
X181620104Y-113390415D01*
X181441203Y-113426000D01*
X181258797Y-113426000D01*
X181079896Y-113390415D01*
X180911374Y-113320611D01*
X180759709Y-113219272D01*
X180630728Y-113090291D01*
X180529389Y-112938626D01*
X180459585Y-112770104D01*
X180424000Y-112591203D01*
X180424000Y-112408797D01*
X180459585Y-112229896D01*
X180529389Y-112061374D01*
X180630728Y-111909709D01*
X180759709Y-111780728D01*
X180911374Y-111679389D01*
X181079896Y-111609585D01*
X181258797Y-111574000D01*
X181441203Y-111574000D01*
X181620104Y-111609585D01*
X181620104Y-111609585D01*
G37*
G36*
X151620104Y-111609585D02*
G01*
X151788626Y-111679389D01*
X151940291Y-111780728D01*
X152069272Y-111909709D01*
X152170611Y-112061374D01*
X152240415Y-112229896D01*
X152276000Y-112408797D01*
X152276000Y-112591203D01*
X152240415Y-112770104D01*
X152170611Y-112938626D01*
X152069272Y-113090291D01*
X151940291Y-113219272D01*
X151788626Y-113320611D01*
X151620104Y-113390415D01*
X151441203Y-113426000D01*
X151258797Y-113426000D01*
X151079896Y-113390415D01*
X150911374Y-113320611D01*
X150759709Y-113219272D01*
X150630728Y-113090291D01*
X150529389Y-112938626D01*
X150459585Y-112770104D01*
X150424000Y-112591203D01*
X150424000Y-112408797D01*
X150459585Y-112229896D01*
X150529389Y-112061374D01*
X150630728Y-111909709D01*
X150759709Y-111780728D01*
X150911374Y-111679389D01*
X151079896Y-111609585D01*
X151258797Y-111574000D01*
X151441203Y-111574000D01*
X151620104Y-111609585D01*
X151620104Y-111609585D01*
G37*
G36*
X141420104Y-111609585D02*
G01*
X141588626Y-111679389D01*
X141740291Y-111780728D01*
X141869272Y-111909709D01*
X141970611Y-112061374D01*
X142040415Y-112229896D01*
X142076000Y-112408797D01*
X142076000Y-112591203D01*
X142040415Y-112770104D01*
X141970611Y-112938626D01*
X141869272Y-113090291D01*
X141740291Y-113219272D01*
X141588626Y-113320611D01*
X141420104Y-113390415D01*
X141241203Y-113426000D01*
X141058797Y-113426000D01*
X140879896Y-113390415D01*
X140711374Y-113320611D01*
X140559709Y-113219272D01*
X140430728Y-113090291D01*
X140329389Y-112938626D01*
X140259585Y-112770104D01*
X140224000Y-112591203D01*
X140224000Y-112408797D01*
X140259585Y-112229896D01*
X140329389Y-112061374D01*
X140430728Y-111909709D01*
X140559709Y-111780728D01*
X140711374Y-111679389D01*
X140879896Y-111609585D01*
X141058797Y-111574000D01*
X141241203Y-111574000D01*
X141420104Y-111609585D01*
X141420104Y-111609585D01*
G37*
G36*
X201420104Y-111609585D02*
G01*
X201588626Y-111679389D01*
X201740291Y-111780728D01*
X201869272Y-111909709D01*
X201970611Y-112061374D01*
X202040415Y-112229896D01*
X202076000Y-112408797D01*
X202076000Y-112591203D01*
X202040415Y-112770104D01*
X201970611Y-112938626D01*
X201869272Y-113090291D01*
X201740291Y-113219272D01*
X201588626Y-113320611D01*
X201420104Y-113390415D01*
X201241203Y-113426000D01*
X201058797Y-113426000D01*
X200879896Y-113390415D01*
X200711374Y-113320611D01*
X200559709Y-113219272D01*
X200430728Y-113090291D01*
X200329389Y-112938626D01*
X200259585Y-112770104D01*
X200224000Y-112591203D01*
X200224000Y-112408797D01*
X200259585Y-112229896D01*
X200329389Y-112061374D01*
X200430728Y-111909709D01*
X200559709Y-111780728D01*
X200711374Y-111679389D01*
X200879896Y-111609585D01*
X201058797Y-111574000D01*
X201241203Y-111574000D01*
X201420104Y-111609585D01*
X201420104Y-111609585D01*
G37*
G36*
X155675331Y-97968211D02*
G01*
X156003092Y-98103974D01*
X156298070Y-98301072D01*
X156548928Y-98551930D01*
X156746026Y-98846908D01*
X156881789Y-99174669D01*
X156951000Y-99522616D01*
X156951000Y-99877384D01*
X156881789Y-100225331D01*
X156746026Y-100553092D01*
X156548928Y-100848070D01*
X156298070Y-101098928D01*
X156003092Y-101296026D01*
X155675331Y-101431789D01*
X155327384Y-101501000D01*
X154972616Y-101501000D01*
X154624669Y-101431789D01*
X154296908Y-101296026D01*
X154001930Y-101098928D01*
X153751072Y-100848070D01*
X153553974Y-100553092D01*
X153418211Y-100225331D01*
X153349000Y-99877384D01*
X153349000Y-99522616D01*
X153418211Y-99174669D01*
X153553974Y-98846908D01*
X153751072Y-98551930D01*
X154001930Y-98301072D01*
X154296908Y-98103974D01*
X154624669Y-97968211D01*
X154972616Y-97899000D01*
X155327384Y-97899000D01*
X155675331Y-97968211D01*
X155675331Y-97968211D01*
G37*
G36*
X215675331Y-97968211D02*
G01*
X216003092Y-98103974D01*
X216298070Y-98301072D01*
X216548928Y-98551930D01*
X216746026Y-98846908D01*
X216881789Y-99174669D01*
X216951000Y-99522616D01*
X216951000Y-99877384D01*
X216881789Y-100225331D01*
X216746026Y-100553092D01*
X216548928Y-100848070D01*
X216298070Y-101098928D01*
X216003092Y-101296026D01*
X215675331Y-101431789D01*
X215327384Y-101501000D01*
X214972616Y-101501000D01*
X214624669Y-101431789D01*
X214296908Y-101296026D01*
X214001930Y-101098928D01*
X213751072Y-100848070D01*
X213553974Y-100553092D01*
X213418211Y-100225331D01*
X213349000Y-99877384D01*
X213349000Y-99522616D01*
X213418211Y-99174669D01*
X213553974Y-98846908D01*
X213751072Y-98551930D01*
X214001930Y-98301072D01*
X214296908Y-98103974D01*
X214624669Y-97968211D01*
X214972616Y-97899000D01*
X215327384Y-97899000D01*
X215675331Y-97968211D01*
X215675331Y-97968211D01*
G37*
G36*
X185675331Y-97968211D02*
G01*
X186003092Y-98103974D01*
X186298070Y-98301072D01*
X186548928Y-98551930D01*
X186746026Y-98846908D01*
X186881789Y-99174669D01*
X186951000Y-99522616D01*
X186951000Y-99877384D01*
X186881789Y-100225331D01*
X186746026Y-100553092D01*
X186548928Y-100848070D01*
X186298070Y-101098928D01*
X186003092Y-101296026D01*
X185675331Y-101431789D01*
X185327384Y-101501000D01*
X184972616Y-101501000D01*
X184624669Y-101431789D01*
X184296908Y-101296026D01*
X184001930Y-101098928D01*
X183751072Y-100848070D01*
X183553974Y-100553092D01*
X183418211Y-100225331D01*
X183349000Y-99877384D01*
X183349000Y-99522616D01*
X183418211Y-99174669D01*
X183553974Y-98846908D01*
X183751072Y-98551930D01*
X184001930Y-98301072D01*
X184296908Y-98103974D01*
X184624669Y-97968211D01*
X184972616Y-97899000D01*
X185327384Y-97899000D01*
X185675331Y-97968211D01*
X185675331Y-97968211D01*
G37*
G36*
X197875331Y-95468211D02*
G01*
X198203092Y-95603974D01*
X198498070Y-95801072D01*
X198748928Y-96051930D01*
X198946026Y-96346908D01*
X199081789Y-96674669D01*
X199151000Y-97022616D01*
X199151000Y-97377384D01*
X199081789Y-97725331D01*
X198946026Y-98053092D01*
X198748928Y-98348070D01*
X198498070Y-98598928D01*
X198203092Y-98796026D01*
X197875331Y-98931789D01*
X197527384Y-99001000D01*
X197172616Y-99001000D01*
X196824669Y-98931789D01*
X196496908Y-98796026D01*
X196201930Y-98598928D01*
X195951072Y-98348070D01*
X195753974Y-98053092D01*
X195618211Y-97725331D01*
X195549000Y-97377384D01*
X195549000Y-97022616D01*
X195618211Y-96674669D01*
X195753974Y-96346908D01*
X195951072Y-96051930D01*
X196201930Y-95801072D01*
X196496908Y-95603974D01*
X196824669Y-95468211D01*
X197172616Y-95399000D01*
X197527384Y-95399000D01*
X197875331Y-95468211D01*
X197875331Y-95468211D01*
G37*
G36*
X167875331Y-95468211D02*
G01*
X168203092Y-95603974D01*
X168498070Y-95801072D01*
X168748928Y-96051930D01*
X168946026Y-96346908D01*
X169081789Y-96674669D01*
X169151000Y-97022616D01*
X169151000Y-97377384D01*
X169081789Y-97725331D01*
X168946026Y-98053092D01*
X168748928Y-98348070D01*
X168498070Y-98598928D01*
X168203092Y-98796026D01*
X167875331Y-98931789D01*
X167527384Y-99001000D01*
X167172616Y-99001000D01*
X166824669Y-98931789D01*
X166496908Y-98796026D01*
X166201930Y-98598928D01*
X165951072Y-98348070D01*
X165753974Y-98053092D01*
X165618211Y-97725331D01*
X165549000Y-97377384D01*
X165549000Y-97022616D01*
X165618211Y-96674669D01*
X165753974Y-96346908D01*
X165951072Y-96051930D01*
X166201930Y-95801072D01*
X166496908Y-95603974D01*
X166824669Y-95468211D01*
X167172616Y-95399000D01*
X167527384Y-95399000D01*
X167875331Y-95468211D01*
X167875331Y-95468211D01*
G37*
G36*
X137875331Y-95468211D02*
G01*
X138203092Y-95603974D01*
X138498070Y-95801072D01*
X138748928Y-96051930D01*
X138946026Y-96346908D01*
X139081789Y-96674669D01*
X139151000Y-97022616D01*
X139151000Y-97377384D01*
X139081789Y-97725331D01*
X138946026Y-98053092D01*
X138748928Y-98348070D01*
X138498070Y-98598928D01*
X138203092Y-98796026D01*
X137875331Y-98931789D01*
X137527384Y-99001000D01*
X137172616Y-99001000D01*
X136824669Y-98931789D01*
X136496908Y-98796026D01*
X136201930Y-98598928D01*
X135951072Y-98348070D01*
X135753974Y-98053092D01*
X135618211Y-97725331D01*
X135549000Y-97377384D01*
X135549000Y-97022616D01*
X135618211Y-96674669D01*
X135753974Y-96346908D01*
X135951072Y-96051930D01*
X136201930Y-95801072D01*
X136496908Y-95603974D01*
X136824669Y-95468211D01*
X137172616Y-95399000D01*
X137527384Y-95399000D01*
X137875331Y-95468211D01*
X137875331Y-95468211D01*
G37*
G36*
X197875331Y-87868211D02*
G01*
X198203092Y-88003974D01*
X198498070Y-88201072D01*
X198748928Y-88451930D01*
X198946026Y-88746908D01*
X199081789Y-89074669D01*
X199151000Y-89422616D01*
X199151000Y-89777384D01*
X199081789Y-90125331D01*
X198946026Y-90453092D01*
X198748928Y-90748070D01*
X198498070Y-90998928D01*
X198203092Y-91196026D01*
X197875331Y-91331789D01*
X197527384Y-91401000D01*
X197172616Y-91401000D01*
X196824669Y-91331789D01*
X196496908Y-91196026D01*
X196201930Y-90998928D01*
X195951072Y-90748070D01*
X195753974Y-90453092D01*
X195618211Y-90125331D01*
X195549000Y-89777384D01*
X195549000Y-89422616D01*
X195618211Y-89074669D01*
X195753974Y-88746908D01*
X195951072Y-88451930D01*
X196201930Y-88201072D01*
X196496908Y-88003974D01*
X196824669Y-87868211D01*
X197172616Y-87799000D01*
X197527384Y-87799000D01*
X197875331Y-87868211D01*
X197875331Y-87868211D01*
G37*
G36*
X167875331Y-87868211D02*
G01*
X168203092Y-88003974D01*
X168498070Y-88201072D01*
X168748928Y-88451930D01*
X168946026Y-88746908D01*
X169081789Y-89074669D01*
X169151000Y-89422616D01*
X169151000Y-89777384D01*
X169081789Y-90125331D01*
X168946026Y-90453092D01*
X168748928Y-90748070D01*
X168498070Y-90998928D01*
X168203092Y-91196026D01*
X167875331Y-91331789D01*
X167527384Y-91401000D01*
X167172616Y-91401000D01*
X166824669Y-91331789D01*
X166496908Y-91196026D01*
X166201930Y-90998928D01*
X165951072Y-90748070D01*
X165753974Y-90453092D01*
X165618211Y-90125331D01*
X165549000Y-89777384D01*
X165549000Y-89422616D01*
X165618211Y-89074669D01*
X165753974Y-88746908D01*
X165951072Y-88451930D01*
X166201930Y-88201072D01*
X166496908Y-88003974D01*
X166824669Y-87868211D01*
X167172616Y-87799000D01*
X167527384Y-87799000D01*
X167875331Y-87868211D01*
X167875331Y-87868211D01*
G37*
G36*
X137875331Y-87868211D02*
G01*
X138203092Y-88003974D01*
X138498070Y-88201072D01*
X138748928Y-88451930D01*
X138946026Y-88746908D01*
X139081789Y-89074669D01*
X139151000Y-89422616D01*
X139151000Y-89777384D01*
X139081789Y-90125331D01*
X138946026Y-90453092D01*
X138748928Y-90748070D01*
X138498070Y-90998928D01*
X138203092Y-91196026D01*
X137875331Y-91331789D01*
X137527384Y-91401000D01*
X137172616Y-91401000D01*
X136824669Y-91331789D01*
X136496908Y-91196026D01*
X136201930Y-90998928D01*
X135951072Y-90748070D01*
X135753974Y-90453092D01*
X135618211Y-90125331D01*
X135549000Y-89777384D01*
X135549000Y-89422616D01*
X135618211Y-89074669D01*
X135753974Y-88746908D01*
X135951072Y-88451930D01*
X136201930Y-88201072D01*
X136496908Y-88003974D01*
X136824669Y-87868211D01*
X137172616Y-87799000D01*
X137527384Y-87799000D01*
X137875331Y-87868211D01*
X137875331Y-87868211D01*
G37*
M02*
