G04 #@! TF.GenerationSoftware,KiCad,Pcbnew,(5.1.4)-1*
G04 #@! TF.CreationDate,2021-09-06T11:03:46-04:00*
G04 #@! TF.ProjectId,relay_array,72656c61-795f-4617-9272-61792e6b6963,rev?*
G04 #@! TF.SameCoordinates,Original*
G04 #@! TF.FileFunction,Paste,Top*
G04 #@! TF.FilePolarity,Positive*
%FSLAX46Y46*%
G04 Gerber Fmt 4.6, Leading zero omitted, Abs format (unit mm)*
G04 Created by KiCad (PCBNEW (5.1.4)-1) date 2021-09-06 11:03:46*
%MOMM*%
%LPD*%
G04 APERTURE LIST*
%ADD10R,0.640000X2.000000*%
%ADD11C,0.100000*%
%ADD12C,1.150000*%
%ADD13R,1.000000X1.000000*%
%ADD14C,1.425000*%
%ADD15R,0.600000X0.900000*%
%ADD16R,0.900000X0.600000*%
%ADD17R,1.050000X0.600000*%
%ADD18R,0.510000X0.700000*%
G04 APERTURE END LIST*
D10*
X193730000Y-122100000D03*
X196270000Y-122100000D03*
X196270000Y-128400000D03*
X193730000Y-128400000D03*
X163730000Y-122100000D03*
X166270000Y-122100000D03*
X166270000Y-128400000D03*
X163730000Y-128400000D03*
X133730000Y-122100000D03*
X136270000Y-122100000D03*
X136270000Y-128400000D03*
X133730000Y-128400000D03*
X205730000Y-122100000D03*
X208270000Y-122100000D03*
X208270000Y-128400000D03*
X205730000Y-128400000D03*
X175730000Y-122100000D03*
X178270000Y-122100000D03*
X178270000Y-128400000D03*
X175730000Y-128400000D03*
X145730000Y-122100000D03*
X148270000Y-122100000D03*
X148270000Y-128400000D03*
X145730000Y-128400000D03*
X199730000Y-122100000D03*
X202270000Y-122100000D03*
X202270000Y-128400000D03*
X199730000Y-128400000D03*
X169730000Y-122100000D03*
X172270000Y-122100000D03*
X172270000Y-128400000D03*
X169730000Y-128400000D03*
X139730000Y-122100000D03*
X142270000Y-122100000D03*
X142270000Y-128400000D03*
X139730000Y-128400000D03*
D11*
G36*
X172224505Y-132201204D02*
G01*
X172248773Y-132204804D01*
X172272572Y-132210765D01*
X172295671Y-132219030D01*
X172317850Y-132229520D01*
X172338893Y-132242132D01*
X172358599Y-132256747D01*
X172376777Y-132273223D01*
X172393253Y-132291401D01*
X172407868Y-132311107D01*
X172420480Y-132332150D01*
X172430970Y-132354329D01*
X172439235Y-132377428D01*
X172445196Y-132401227D01*
X172448796Y-132425495D01*
X172450000Y-132449999D01*
X172450000Y-133100001D01*
X172448796Y-133124505D01*
X172445196Y-133148773D01*
X172439235Y-133172572D01*
X172430970Y-133195671D01*
X172420480Y-133217850D01*
X172407868Y-133238893D01*
X172393253Y-133258599D01*
X172376777Y-133276777D01*
X172358599Y-133293253D01*
X172338893Y-133307868D01*
X172317850Y-133320480D01*
X172295671Y-133330970D01*
X172272572Y-133339235D01*
X172248773Y-133345196D01*
X172224505Y-133348796D01*
X172200001Y-133350000D01*
X171299999Y-133350000D01*
X171275495Y-133348796D01*
X171251227Y-133345196D01*
X171227428Y-133339235D01*
X171204329Y-133330970D01*
X171182150Y-133320480D01*
X171161107Y-133307868D01*
X171141401Y-133293253D01*
X171123223Y-133276777D01*
X171106747Y-133258599D01*
X171092132Y-133238893D01*
X171079520Y-133217850D01*
X171069030Y-133195671D01*
X171060765Y-133172572D01*
X171054804Y-133148773D01*
X171051204Y-133124505D01*
X171050000Y-133100001D01*
X171050000Y-132449999D01*
X171051204Y-132425495D01*
X171054804Y-132401227D01*
X171060765Y-132377428D01*
X171069030Y-132354329D01*
X171079520Y-132332150D01*
X171092132Y-132311107D01*
X171106747Y-132291401D01*
X171123223Y-132273223D01*
X171141401Y-132256747D01*
X171161107Y-132242132D01*
X171182150Y-132229520D01*
X171204329Y-132219030D01*
X171227428Y-132210765D01*
X171251227Y-132204804D01*
X171275495Y-132201204D01*
X171299999Y-132200000D01*
X172200001Y-132200000D01*
X172224505Y-132201204D01*
X172224505Y-132201204D01*
G37*
D12*
X171750000Y-132775000D03*
D11*
G36*
X172224505Y-130151204D02*
G01*
X172248773Y-130154804D01*
X172272572Y-130160765D01*
X172295671Y-130169030D01*
X172317850Y-130179520D01*
X172338893Y-130192132D01*
X172358599Y-130206747D01*
X172376777Y-130223223D01*
X172393253Y-130241401D01*
X172407868Y-130261107D01*
X172420480Y-130282150D01*
X172430970Y-130304329D01*
X172439235Y-130327428D01*
X172445196Y-130351227D01*
X172448796Y-130375495D01*
X172450000Y-130399999D01*
X172450000Y-131050001D01*
X172448796Y-131074505D01*
X172445196Y-131098773D01*
X172439235Y-131122572D01*
X172430970Y-131145671D01*
X172420480Y-131167850D01*
X172407868Y-131188893D01*
X172393253Y-131208599D01*
X172376777Y-131226777D01*
X172358599Y-131243253D01*
X172338893Y-131257868D01*
X172317850Y-131270480D01*
X172295671Y-131280970D01*
X172272572Y-131289235D01*
X172248773Y-131295196D01*
X172224505Y-131298796D01*
X172200001Y-131300000D01*
X171299999Y-131300000D01*
X171275495Y-131298796D01*
X171251227Y-131295196D01*
X171227428Y-131289235D01*
X171204329Y-131280970D01*
X171182150Y-131270480D01*
X171161107Y-131257868D01*
X171141401Y-131243253D01*
X171123223Y-131226777D01*
X171106747Y-131208599D01*
X171092132Y-131188893D01*
X171079520Y-131167850D01*
X171069030Y-131145671D01*
X171060765Y-131122572D01*
X171054804Y-131098773D01*
X171051204Y-131074505D01*
X171050000Y-131050001D01*
X171050000Y-130399999D01*
X171051204Y-130375495D01*
X171054804Y-130351227D01*
X171060765Y-130327428D01*
X171069030Y-130304329D01*
X171079520Y-130282150D01*
X171092132Y-130261107D01*
X171106747Y-130241401D01*
X171123223Y-130223223D01*
X171141401Y-130206747D01*
X171161107Y-130192132D01*
X171182150Y-130179520D01*
X171204329Y-130169030D01*
X171227428Y-130160765D01*
X171251227Y-130154804D01*
X171275495Y-130151204D01*
X171299999Y-130150000D01*
X172200001Y-130150000D01*
X172224505Y-130151204D01*
X172224505Y-130151204D01*
G37*
D12*
X171750000Y-130725000D03*
D13*
X163750000Y-130500000D03*
X163750000Y-133000000D03*
X175750000Y-130750000D03*
X175750000Y-133250000D03*
D11*
G36*
X211149504Y-123276204D02*
G01*
X211173773Y-123279804D01*
X211197571Y-123285765D01*
X211220671Y-123294030D01*
X211242849Y-123304520D01*
X211263893Y-123317133D01*
X211283598Y-123331747D01*
X211301777Y-123348223D01*
X211318253Y-123366402D01*
X211332867Y-123386107D01*
X211345480Y-123407151D01*
X211355970Y-123429329D01*
X211364235Y-123452429D01*
X211370196Y-123476227D01*
X211373796Y-123500496D01*
X211375000Y-123525000D01*
X211375000Y-124450000D01*
X211373796Y-124474504D01*
X211370196Y-124498773D01*
X211364235Y-124522571D01*
X211355970Y-124545671D01*
X211345480Y-124567849D01*
X211332867Y-124588893D01*
X211318253Y-124608598D01*
X211301777Y-124626777D01*
X211283598Y-124643253D01*
X211263893Y-124657867D01*
X211242849Y-124670480D01*
X211220671Y-124680970D01*
X211197571Y-124689235D01*
X211173773Y-124695196D01*
X211149504Y-124698796D01*
X211125000Y-124700000D01*
X209875000Y-124700000D01*
X209850496Y-124698796D01*
X209826227Y-124695196D01*
X209802429Y-124689235D01*
X209779329Y-124680970D01*
X209757151Y-124670480D01*
X209736107Y-124657867D01*
X209716402Y-124643253D01*
X209698223Y-124626777D01*
X209681747Y-124608598D01*
X209667133Y-124588893D01*
X209654520Y-124567849D01*
X209644030Y-124545671D01*
X209635765Y-124522571D01*
X209629804Y-124498773D01*
X209626204Y-124474504D01*
X209625000Y-124450000D01*
X209625000Y-123525000D01*
X209626204Y-123500496D01*
X209629804Y-123476227D01*
X209635765Y-123452429D01*
X209644030Y-123429329D01*
X209654520Y-123407151D01*
X209667133Y-123386107D01*
X209681747Y-123366402D01*
X209698223Y-123348223D01*
X209716402Y-123331747D01*
X209736107Y-123317133D01*
X209757151Y-123304520D01*
X209779329Y-123294030D01*
X209802429Y-123285765D01*
X209826227Y-123279804D01*
X209850496Y-123276204D01*
X209875000Y-123275000D01*
X211125000Y-123275000D01*
X211149504Y-123276204D01*
X211149504Y-123276204D01*
G37*
D14*
X210500000Y-123987500D03*
D11*
G36*
X211149504Y-120301204D02*
G01*
X211173773Y-120304804D01*
X211197571Y-120310765D01*
X211220671Y-120319030D01*
X211242849Y-120329520D01*
X211263893Y-120342133D01*
X211283598Y-120356747D01*
X211301777Y-120373223D01*
X211318253Y-120391402D01*
X211332867Y-120411107D01*
X211345480Y-120432151D01*
X211355970Y-120454329D01*
X211364235Y-120477429D01*
X211370196Y-120501227D01*
X211373796Y-120525496D01*
X211375000Y-120550000D01*
X211375000Y-121475000D01*
X211373796Y-121499504D01*
X211370196Y-121523773D01*
X211364235Y-121547571D01*
X211355970Y-121570671D01*
X211345480Y-121592849D01*
X211332867Y-121613893D01*
X211318253Y-121633598D01*
X211301777Y-121651777D01*
X211283598Y-121668253D01*
X211263893Y-121682867D01*
X211242849Y-121695480D01*
X211220671Y-121705970D01*
X211197571Y-121714235D01*
X211173773Y-121720196D01*
X211149504Y-121723796D01*
X211125000Y-121725000D01*
X209875000Y-121725000D01*
X209850496Y-121723796D01*
X209826227Y-121720196D01*
X209802429Y-121714235D01*
X209779329Y-121705970D01*
X209757151Y-121695480D01*
X209736107Y-121682867D01*
X209716402Y-121668253D01*
X209698223Y-121651777D01*
X209681747Y-121633598D01*
X209667133Y-121613893D01*
X209654520Y-121592849D01*
X209644030Y-121570671D01*
X209635765Y-121547571D01*
X209629804Y-121523773D01*
X209626204Y-121499504D01*
X209625000Y-121475000D01*
X209625000Y-120550000D01*
X209626204Y-120525496D01*
X209629804Y-120501227D01*
X209635765Y-120477429D01*
X209644030Y-120454329D01*
X209654520Y-120432151D01*
X209667133Y-120411107D01*
X209681747Y-120391402D01*
X209698223Y-120373223D01*
X209716402Y-120356747D01*
X209736107Y-120342133D01*
X209757151Y-120329520D01*
X209779329Y-120319030D01*
X209802429Y-120310765D01*
X209826227Y-120304804D01*
X209850496Y-120301204D01*
X209875000Y-120300000D01*
X211125000Y-120300000D01*
X211149504Y-120301204D01*
X211149504Y-120301204D01*
G37*
D14*
X210500000Y-121012500D03*
D13*
X205750000Y-130750000D03*
X205750000Y-133250000D03*
D11*
G36*
X166224505Y-132201204D02*
G01*
X166248773Y-132204804D01*
X166272572Y-132210765D01*
X166295671Y-132219030D01*
X166317850Y-132229520D01*
X166338893Y-132242132D01*
X166358599Y-132256747D01*
X166376777Y-132273223D01*
X166393253Y-132291401D01*
X166407868Y-132311107D01*
X166420480Y-132332150D01*
X166430970Y-132354329D01*
X166439235Y-132377428D01*
X166445196Y-132401227D01*
X166448796Y-132425495D01*
X166450000Y-132449999D01*
X166450000Y-133100001D01*
X166448796Y-133124505D01*
X166445196Y-133148773D01*
X166439235Y-133172572D01*
X166430970Y-133195671D01*
X166420480Y-133217850D01*
X166407868Y-133238893D01*
X166393253Y-133258599D01*
X166376777Y-133276777D01*
X166358599Y-133293253D01*
X166338893Y-133307868D01*
X166317850Y-133320480D01*
X166295671Y-133330970D01*
X166272572Y-133339235D01*
X166248773Y-133345196D01*
X166224505Y-133348796D01*
X166200001Y-133350000D01*
X165299999Y-133350000D01*
X165275495Y-133348796D01*
X165251227Y-133345196D01*
X165227428Y-133339235D01*
X165204329Y-133330970D01*
X165182150Y-133320480D01*
X165161107Y-133307868D01*
X165141401Y-133293253D01*
X165123223Y-133276777D01*
X165106747Y-133258599D01*
X165092132Y-133238893D01*
X165079520Y-133217850D01*
X165069030Y-133195671D01*
X165060765Y-133172572D01*
X165054804Y-133148773D01*
X165051204Y-133124505D01*
X165050000Y-133100001D01*
X165050000Y-132449999D01*
X165051204Y-132425495D01*
X165054804Y-132401227D01*
X165060765Y-132377428D01*
X165069030Y-132354329D01*
X165079520Y-132332150D01*
X165092132Y-132311107D01*
X165106747Y-132291401D01*
X165123223Y-132273223D01*
X165141401Y-132256747D01*
X165161107Y-132242132D01*
X165182150Y-132229520D01*
X165204329Y-132219030D01*
X165227428Y-132210765D01*
X165251227Y-132204804D01*
X165275495Y-132201204D01*
X165299999Y-132200000D01*
X166200001Y-132200000D01*
X166224505Y-132201204D01*
X166224505Y-132201204D01*
G37*
D12*
X165750000Y-132775000D03*
D11*
G36*
X166224505Y-130151204D02*
G01*
X166248773Y-130154804D01*
X166272572Y-130160765D01*
X166295671Y-130169030D01*
X166317850Y-130179520D01*
X166338893Y-130192132D01*
X166358599Y-130206747D01*
X166376777Y-130223223D01*
X166393253Y-130241401D01*
X166407868Y-130261107D01*
X166420480Y-130282150D01*
X166430970Y-130304329D01*
X166439235Y-130327428D01*
X166445196Y-130351227D01*
X166448796Y-130375495D01*
X166450000Y-130399999D01*
X166450000Y-131050001D01*
X166448796Y-131074505D01*
X166445196Y-131098773D01*
X166439235Y-131122572D01*
X166430970Y-131145671D01*
X166420480Y-131167850D01*
X166407868Y-131188893D01*
X166393253Y-131208599D01*
X166376777Y-131226777D01*
X166358599Y-131243253D01*
X166338893Y-131257868D01*
X166317850Y-131270480D01*
X166295671Y-131280970D01*
X166272572Y-131289235D01*
X166248773Y-131295196D01*
X166224505Y-131298796D01*
X166200001Y-131300000D01*
X165299999Y-131300000D01*
X165275495Y-131298796D01*
X165251227Y-131295196D01*
X165227428Y-131289235D01*
X165204329Y-131280970D01*
X165182150Y-131270480D01*
X165161107Y-131257868D01*
X165141401Y-131243253D01*
X165123223Y-131226777D01*
X165106747Y-131208599D01*
X165092132Y-131188893D01*
X165079520Y-131167850D01*
X165069030Y-131145671D01*
X165060765Y-131122572D01*
X165054804Y-131098773D01*
X165051204Y-131074505D01*
X165050000Y-131050001D01*
X165050000Y-130399999D01*
X165051204Y-130375495D01*
X165054804Y-130351227D01*
X165060765Y-130327428D01*
X165069030Y-130304329D01*
X165079520Y-130282150D01*
X165092132Y-130261107D01*
X165106747Y-130241401D01*
X165123223Y-130223223D01*
X165141401Y-130206747D01*
X165161107Y-130192132D01*
X165182150Y-130179520D01*
X165204329Y-130169030D01*
X165227428Y-130160765D01*
X165251227Y-130154804D01*
X165275495Y-130151204D01*
X165299999Y-130150000D01*
X166200001Y-130150000D01*
X166224505Y-130151204D01*
X166224505Y-130151204D01*
G37*
D12*
X165750000Y-130725000D03*
D15*
X186185000Y-121350000D03*
X185335000Y-121350000D03*
X187035000Y-121350000D03*
X186185000Y-123650000D03*
X185335000Y-123650000D03*
X187035000Y-123650000D03*
X187035000Y-122500000D03*
X185335000Y-122500000D03*
D16*
X188885000Y-120620000D03*
X188885000Y-124380000D03*
X188885000Y-121900000D03*
D17*
X183165000Y-121860000D03*
X183165000Y-120590000D03*
X183165000Y-123140000D03*
X183165000Y-124410000D03*
D16*
X188885000Y-123100000D03*
D15*
X186185000Y-122500000D03*
D11*
G36*
X218149504Y-131276204D02*
G01*
X218173773Y-131279804D01*
X218197571Y-131285765D01*
X218220671Y-131294030D01*
X218242849Y-131304520D01*
X218263893Y-131317133D01*
X218283598Y-131331747D01*
X218301777Y-131348223D01*
X218318253Y-131366402D01*
X218332867Y-131386107D01*
X218345480Y-131407151D01*
X218355970Y-131429329D01*
X218364235Y-131452429D01*
X218370196Y-131476227D01*
X218373796Y-131500496D01*
X218375000Y-131525000D01*
X218375000Y-132450000D01*
X218373796Y-132474504D01*
X218370196Y-132498773D01*
X218364235Y-132522571D01*
X218355970Y-132545671D01*
X218345480Y-132567849D01*
X218332867Y-132588893D01*
X218318253Y-132608598D01*
X218301777Y-132626777D01*
X218283598Y-132643253D01*
X218263893Y-132657867D01*
X218242849Y-132670480D01*
X218220671Y-132680970D01*
X218197571Y-132689235D01*
X218173773Y-132695196D01*
X218149504Y-132698796D01*
X218125000Y-132700000D01*
X216875000Y-132700000D01*
X216850496Y-132698796D01*
X216826227Y-132695196D01*
X216802429Y-132689235D01*
X216779329Y-132680970D01*
X216757151Y-132670480D01*
X216736107Y-132657867D01*
X216716402Y-132643253D01*
X216698223Y-132626777D01*
X216681747Y-132608598D01*
X216667133Y-132588893D01*
X216654520Y-132567849D01*
X216644030Y-132545671D01*
X216635765Y-132522571D01*
X216629804Y-132498773D01*
X216626204Y-132474504D01*
X216625000Y-132450000D01*
X216625000Y-131525000D01*
X216626204Y-131500496D01*
X216629804Y-131476227D01*
X216635765Y-131452429D01*
X216644030Y-131429329D01*
X216654520Y-131407151D01*
X216667133Y-131386107D01*
X216681747Y-131366402D01*
X216698223Y-131348223D01*
X216716402Y-131331747D01*
X216736107Y-131317133D01*
X216757151Y-131304520D01*
X216779329Y-131294030D01*
X216802429Y-131285765D01*
X216826227Y-131279804D01*
X216850496Y-131276204D01*
X216875000Y-131275000D01*
X218125000Y-131275000D01*
X218149504Y-131276204D01*
X218149504Y-131276204D01*
G37*
D14*
X217500000Y-131987500D03*
D11*
G36*
X218149504Y-128301204D02*
G01*
X218173773Y-128304804D01*
X218197571Y-128310765D01*
X218220671Y-128319030D01*
X218242849Y-128329520D01*
X218263893Y-128342133D01*
X218283598Y-128356747D01*
X218301777Y-128373223D01*
X218318253Y-128391402D01*
X218332867Y-128411107D01*
X218345480Y-128432151D01*
X218355970Y-128454329D01*
X218364235Y-128477429D01*
X218370196Y-128501227D01*
X218373796Y-128525496D01*
X218375000Y-128550000D01*
X218375000Y-129475000D01*
X218373796Y-129499504D01*
X218370196Y-129523773D01*
X218364235Y-129547571D01*
X218355970Y-129570671D01*
X218345480Y-129592849D01*
X218332867Y-129613893D01*
X218318253Y-129633598D01*
X218301777Y-129651777D01*
X218283598Y-129668253D01*
X218263893Y-129682867D01*
X218242849Y-129695480D01*
X218220671Y-129705970D01*
X218197571Y-129714235D01*
X218173773Y-129720196D01*
X218149504Y-129723796D01*
X218125000Y-129725000D01*
X216875000Y-129725000D01*
X216850496Y-129723796D01*
X216826227Y-129720196D01*
X216802429Y-129714235D01*
X216779329Y-129705970D01*
X216757151Y-129695480D01*
X216736107Y-129682867D01*
X216716402Y-129668253D01*
X216698223Y-129651777D01*
X216681747Y-129633598D01*
X216667133Y-129613893D01*
X216654520Y-129592849D01*
X216644030Y-129570671D01*
X216635765Y-129547571D01*
X216629804Y-129523773D01*
X216626204Y-129499504D01*
X216625000Y-129475000D01*
X216625000Y-128550000D01*
X216626204Y-128525496D01*
X216629804Y-128501227D01*
X216635765Y-128477429D01*
X216644030Y-128454329D01*
X216654520Y-128432151D01*
X216667133Y-128411107D01*
X216681747Y-128391402D01*
X216698223Y-128373223D01*
X216716402Y-128356747D01*
X216736107Y-128342133D01*
X216757151Y-128329520D01*
X216779329Y-128319030D01*
X216802429Y-128310765D01*
X216826227Y-128304804D01*
X216850496Y-128301204D01*
X216875000Y-128300000D01*
X218125000Y-128300000D01*
X218149504Y-128301204D01*
X218149504Y-128301204D01*
G37*
D14*
X217500000Y-129012500D03*
D11*
G36*
X181149504Y-123276204D02*
G01*
X181173773Y-123279804D01*
X181197571Y-123285765D01*
X181220671Y-123294030D01*
X181242849Y-123304520D01*
X181263893Y-123317133D01*
X181283598Y-123331747D01*
X181301777Y-123348223D01*
X181318253Y-123366402D01*
X181332867Y-123386107D01*
X181345480Y-123407151D01*
X181355970Y-123429329D01*
X181364235Y-123452429D01*
X181370196Y-123476227D01*
X181373796Y-123500496D01*
X181375000Y-123525000D01*
X181375000Y-124450000D01*
X181373796Y-124474504D01*
X181370196Y-124498773D01*
X181364235Y-124522571D01*
X181355970Y-124545671D01*
X181345480Y-124567849D01*
X181332867Y-124588893D01*
X181318253Y-124608598D01*
X181301777Y-124626777D01*
X181283598Y-124643253D01*
X181263893Y-124657867D01*
X181242849Y-124670480D01*
X181220671Y-124680970D01*
X181197571Y-124689235D01*
X181173773Y-124695196D01*
X181149504Y-124698796D01*
X181125000Y-124700000D01*
X179875000Y-124700000D01*
X179850496Y-124698796D01*
X179826227Y-124695196D01*
X179802429Y-124689235D01*
X179779329Y-124680970D01*
X179757151Y-124670480D01*
X179736107Y-124657867D01*
X179716402Y-124643253D01*
X179698223Y-124626777D01*
X179681747Y-124608598D01*
X179667133Y-124588893D01*
X179654520Y-124567849D01*
X179644030Y-124545671D01*
X179635765Y-124522571D01*
X179629804Y-124498773D01*
X179626204Y-124474504D01*
X179625000Y-124450000D01*
X179625000Y-123525000D01*
X179626204Y-123500496D01*
X179629804Y-123476227D01*
X179635765Y-123452429D01*
X179644030Y-123429329D01*
X179654520Y-123407151D01*
X179667133Y-123386107D01*
X179681747Y-123366402D01*
X179698223Y-123348223D01*
X179716402Y-123331747D01*
X179736107Y-123317133D01*
X179757151Y-123304520D01*
X179779329Y-123294030D01*
X179802429Y-123285765D01*
X179826227Y-123279804D01*
X179850496Y-123276204D01*
X179875000Y-123275000D01*
X181125000Y-123275000D01*
X181149504Y-123276204D01*
X181149504Y-123276204D01*
G37*
D14*
X180500000Y-123987500D03*
D11*
G36*
X181149504Y-120301204D02*
G01*
X181173773Y-120304804D01*
X181197571Y-120310765D01*
X181220671Y-120319030D01*
X181242849Y-120329520D01*
X181263893Y-120342133D01*
X181283598Y-120356747D01*
X181301777Y-120373223D01*
X181318253Y-120391402D01*
X181332867Y-120411107D01*
X181345480Y-120432151D01*
X181355970Y-120454329D01*
X181364235Y-120477429D01*
X181370196Y-120501227D01*
X181373796Y-120525496D01*
X181375000Y-120550000D01*
X181375000Y-121475000D01*
X181373796Y-121499504D01*
X181370196Y-121523773D01*
X181364235Y-121547571D01*
X181355970Y-121570671D01*
X181345480Y-121592849D01*
X181332867Y-121613893D01*
X181318253Y-121633598D01*
X181301777Y-121651777D01*
X181283598Y-121668253D01*
X181263893Y-121682867D01*
X181242849Y-121695480D01*
X181220671Y-121705970D01*
X181197571Y-121714235D01*
X181173773Y-121720196D01*
X181149504Y-121723796D01*
X181125000Y-121725000D01*
X179875000Y-121725000D01*
X179850496Y-121723796D01*
X179826227Y-121720196D01*
X179802429Y-121714235D01*
X179779329Y-121705970D01*
X179757151Y-121695480D01*
X179736107Y-121682867D01*
X179716402Y-121668253D01*
X179698223Y-121651777D01*
X179681747Y-121633598D01*
X179667133Y-121613893D01*
X179654520Y-121592849D01*
X179644030Y-121570671D01*
X179635765Y-121547571D01*
X179629804Y-121523773D01*
X179626204Y-121499504D01*
X179625000Y-121475000D01*
X179625000Y-120550000D01*
X179626204Y-120525496D01*
X179629804Y-120501227D01*
X179635765Y-120477429D01*
X179644030Y-120454329D01*
X179654520Y-120432151D01*
X179667133Y-120411107D01*
X179681747Y-120391402D01*
X179698223Y-120373223D01*
X179716402Y-120356747D01*
X179736107Y-120342133D01*
X179757151Y-120329520D01*
X179779329Y-120319030D01*
X179802429Y-120310765D01*
X179826227Y-120304804D01*
X179850496Y-120301204D01*
X179875000Y-120300000D01*
X181125000Y-120300000D01*
X181149504Y-120301204D01*
X181149504Y-120301204D01*
G37*
D14*
X180500000Y-121012500D03*
D13*
X169750000Y-130500000D03*
X169750000Y-133000000D03*
D11*
G36*
X188149504Y-131276204D02*
G01*
X188173773Y-131279804D01*
X188197571Y-131285765D01*
X188220671Y-131294030D01*
X188242849Y-131304520D01*
X188263893Y-131317133D01*
X188283598Y-131331747D01*
X188301777Y-131348223D01*
X188318253Y-131366402D01*
X188332867Y-131386107D01*
X188345480Y-131407151D01*
X188355970Y-131429329D01*
X188364235Y-131452429D01*
X188370196Y-131476227D01*
X188373796Y-131500496D01*
X188375000Y-131525000D01*
X188375000Y-132450000D01*
X188373796Y-132474504D01*
X188370196Y-132498773D01*
X188364235Y-132522571D01*
X188355970Y-132545671D01*
X188345480Y-132567849D01*
X188332867Y-132588893D01*
X188318253Y-132608598D01*
X188301777Y-132626777D01*
X188283598Y-132643253D01*
X188263893Y-132657867D01*
X188242849Y-132670480D01*
X188220671Y-132680970D01*
X188197571Y-132689235D01*
X188173773Y-132695196D01*
X188149504Y-132698796D01*
X188125000Y-132700000D01*
X186875000Y-132700000D01*
X186850496Y-132698796D01*
X186826227Y-132695196D01*
X186802429Y-132689235D01*
X186779329Y-132680970D01*
X186757151Y-132670480D01*
X186736107Y-132657867D01*
X186716402Y-132643253D01*
X186698223Y-132626777D01*
X186681747Y-132608598D01*
X186667133Y-132588893D01*
X186654520Y-132567849D01*
X186644030Y-132545671D01*
X186635765Y-132522571D01*
X186629804Y-132498773D01*
X186626204Y-132474504D01*
X186625000Y-132450000D01*
X186625000Y-131525000D01*
X186626204Y-131500496D01*
X186629804Y-131476227D01*
X186635765Y-131452429D01*
X186644030Y-131429329D01*
X186654520Y-131407151D01*
X186667133Y-131386107D01*
X186681747Y-131366402D01*
X186698223Y-131348223D01*
X186716402Y-131331747D01*
X186736107Y-131317133D01*
X186757151Y-131304520D01*
X186779329Y-131294030D01*
X186802429Y-131285765D01*
X186826227Y-131279804D01*
X186850496Y-131276204D01*
X186875000Y-131275000D01*
X188125000Y-131275000D01*
X188149504Y-131276204D01*
X188149504Y-131276204D01*
G37*
D14*
X187500000Y-131987500D03*
D11*
G36*
X188149504Y-128301204D02*
G01*
X188173773Y-128304804D01*
X188197571Y-128310765D01*
X188220671Y-128319030D01*
X188242849Y-128329520D01*
X188263893Y-128342133D01*
X188283598Y-128356747D01*
X188301777Y-128373223D01*
X188318253Y-128391402D01*
X188332867Y-128411107D01*
X188345480Y-128432151D01*
X188355970Y-128454329D01*
X188364235Y-128477429D01*
X188370196Y-128501227D01*
X188373796Y-128525496D01*
X188375000Y-128550000D01*
X188375000Y-129475000D01*
X188373796Y-129499504D01*
X188370196Y-129523773D01*
X188364235Y-129547571D01*
X188355970Y-129570671D01*
X188345480Y-129592849D01*
X188332867Y-129613893D01*
X188318253Y-129633598D01*
X188301777Y-129651777D01*
X188283598Y-129668253D01*
X188263893Y-129682867D01*
X188242849Y-129695480D01*
X188220671Y-129705970D01*
X188197571Y-129714235D01*
X188173773Y-129720196D01*
X188149504Y-129723796D01*
X188125000Y-129725000D01*
X186875000Y-129725000D01*
X186850496Y-129723796D01*
X186826227Y-129720196D01*
X186802429Y-129714235D01*
X186779329Y-129705970D01*
X186757151Y-129695480D01*
X186736107Y-129682867D01*
X186716402Y-129668253D01*
X186698223Y-129651777D01*
X186681747Y-129633598D01*
X186667133Y-129613893D01*
X186654520Y-129592849D01*
X186644030Y-129570671D01*
X186635765Y-129547571D01*
X186629804Y-129523773D01*
X186626204Y-129499504D01*
X186625000Y-129475000D01*
X186625000Y-128550000D01*
X186626204Y-128525496D01*
X186629804Y-128501227D01*
X186635765Y-128477429D01*
X186644030Y-128454329D01*
X186654520Y-128432151D01*
X186667133Y-128411107D01*
X186681747Y-128391402D01*
X186698223Y-128373223D01*
X186716402Y-128356747D01*
X186736107Y-128342133D01*
X186757151Y-128329520D01*
X186779329Y-128319030D01*
X186802429Y-128310765D01*
X186826227Y-128304804D01*
X186850496Y-128301204D01*
X186875000Y-128300000D01*
X188125000Y-128300000D01*
X188149504Y-128301204D01*
X188149504Y-128301204D01*
G37*
D14*
X187500000Y-129012500D03*
D13*
X193750000Y-130500000D03*
X193750000Y-133000000D03*
D15*
X216185000Y-121350000D03*
X215335000Y-121350000D03*
X217035000Y-121350000D03*
X216185000Y-123650000D03*
X215335000Y-123650000D03*
X217035000Y-123650000D03*
X217035000Y-122500000D03*
X215335000Y-122500000D03*
D16*
X218885000Y-120620000D03*
X218885000Y-124380000D03*
X218885000Y-121900000D03*
D17*
X213165000Y-121860000D03*
X213165000Y-120590000D03*
X213165000Y-123140000D03*
X213165000Y-124410000D03*
D16*
X218885000Y-123100000D03*
D15*
X216185000Y-122500000D03*
D13*
X199750000Y-130500000D03*
X199750000Y-133000000D03*
D18*
X213300000Y-126840000D03*
X214250000Y-126840000D03*
X215200000Y-126840000D03*
X215200000Y-129160000D03*
X214250000Y-129160000D03*
X213300000Y-129160000D03*
D11*
G36*
X211724505Y-128451204D02*
G01*
X211748773Y-128454804D01*
X211772572Y-128460765D01*
X211795671Y-128469030D01*
X211817850Y-128479520D01*
X211838893Y-128492132D01*
X211858599Y-128506747D01*
X211876777Y-128523223D01*
X211893253Y-128541401D01*
X211907868Y-128561107D01*
X211920480Y-128582150D01*
X211930970Y-128604329D01*
X211939235Y-128627428D01*
X211945196Y-128651227D01*
X211948796Y-128675495D01*
X211950000Y-128699999D01*
X211950000Y-129350001D01*
X211948796Y-129374505D01*
X211945196Y-129398773D01*
X211939235Y-129422572D01*
X211930970Y-129445671D01*
X211920480Y-129467850D01*
X211907868Y-129488893D01*
X211893253Y-129508599D01*
X211876777Y-129526777D01*
X211858599Y-129543253D01*
X211838893Y-129557868D01*
X211817850Y-129570480D01*
X211795671Y-129580970D01*
X211772572Y-129589235D01*
X211748773Y-129595196D01*
X211724505Y-129598796D01*
X211700001Y-129600000D01*
X210799999Y-129600000D01*
X210775495Y-129598796D01*
X210751227Y-129595196D01*
X210727428Y-129589235D01*
X210704329Y-129580970D01*
X210682150Y-129570480D01*
X210661107Y-129557868D01*
X210641401Y-129543253D01*
X210623223Y-129526777D01*
X210606747Y-129508599D01*
X210592132Y-129488893D01*
X210579520Y-129467850D01*
X210569030Y-129445671D01*
X210560765Y-129422572D01*
X210554804Y-129398773D01*
X210551204Y-129374505D01*
X210550000Y-129350001D01*
X210550000Y-128699999D01*
X210551204Y-128675495D01*
X210554804Y-128651227D01*
X210560765Y-128627428D01*
X210569030Y-128604329D01*
X210579520Y-128582150D01*
X210592132Y-128561107D01*
X210606747Y-128541401D01*
X210623223Y-128523223D01*
X210641401Y-128506747D01*
X210661107Y-128492132D01*
X210682150Y-128479520D01*
X210704329Y-128469030D01*
X210727428Y-128460765D01*
X210751227Y-128454804D01*
X210775495Y-128451204D01*
X210799999Y-128450000D01*
X211700001Y-128450000D01*
X211724505Y-128451204D01*
X211724505Y-128451204D01*
G37*
D12*
X211250000Y-129025000D03*
D11*
G36*
X211724505Y-126401204D02*
G01*
X211748773Y-126404804D01*
X211772572Y-126410765D01*
X211795671Y-126419030D01*
X211817850Y-126429520D01*
X211838893Y-126442132D01*
X211858599Y-126456747D01*
X211876777Y-126473223D01*
X211893253Y-126491401D01*
X211907868Y-126511107D01*
X211920480Y-126532150D01*
X211930970Y-126554329D01*
X211939235Y-126577428D01*
X211945196Y-126601227D01*
X211948796Y-126625495D01*
X211950000Y-126649999D01*
X211950000Y-127300001D01*
X211948796Y-127324505D01*
X211945196Y-127348773D01*
X211939235Y-127372572D01*
X211930970Y-127395671D01*
X211920480Y-127417850D01*
X211907868Y-127438893D01*
X211893253Y-127458599D01*
X211876777Y-127476777D01*
X211858599Y-127493253D01*
X211838893Y-127507868D01*
X211817850Y-127520480D01*
X211795671Y-127530970D01*
X211772572Y-127539235D01*
X211748773Y-127545196D01*
X211724505Y-127548796D01*
X211700001Y-127550000D01*
X210799999Y-127550000D01*
X210775495Y-127548796D01*
X210751227Y-127545196D01*
X210727428Y-127539235D01*
X210704329Y-127530970D01*
X210682150Y-127520480D01*
X210661107Y-127507868D01*
X210641401Y-127493253D01*
X210623223Y-127476777D01*
X210606747Y-127458599D01*
X210592132Y-127438893D01*
X210579520Y-127417850D01*
X210569030Y-127395671D01*
X210560765Y-127372572D01*
X210554804Y-127348773D01*
X210551204Y-127324505D01*
X210550000Y-127300001D01*
X210550000Y-126649999D01*
X210551204Y-126625495D01*
X210554804Y-126601227D01*
X210560765Y-126577428D01*
X210569030Y-126554329D01*
X210579520Y-126532150D01*
X210592132Y-126511107D01*
X210606747Y-126491401D01*
X210623223Y-126473223D01*
X210641401Y-126456747D01*
X210661107Y-126442132D01*
X210682150Y-126429520D01*
X210704329Y-126419030D01*
X210727428Y-126410765D01*
X210751227Y-126404804D01*
X210775495Y-126401204D01*
X210799999Y-126400000D01*
X211700001Y-126400000D01*
X211724505Y-126401204D01*
X211724505Y-126401204D01*
G37*
D12*
X211250000Y-126975000D03*
D11*
G36*
X214974505Y-132701204D02*
G01*
X214998773Y-132704804D01*
X215022572Y-132710765D01*
X215045671Y-132719030D01*
X215067850Y-132729520D01*
X215088893Y-132742132D01*
X215108599Y-132756747D01*
X215126777Y-132773223D01*
X215143253Y-132791401D01*
X215157868Y-132811107D01*
X215170480Y-132832150D01*
X215180970Y-132854329D01*
X215189235Y-132877428D01*
X215195196Y-132901227D01*
X215198796Y-132925495D01*
X215200000Y-132949999D01*
X215200000Y-133600001D01*
X215198796Y-133624505D01*
X215195196Y-133648773D01*
X215189235Y-133672572D01*
X215180970Y-133695671D01*
X215170480Y-133717850D01*
X215157868Y-133738893D01*
X215143253Y-133758599D01*
X215126777Y-133776777D01*
X215108599Y-133793253D01*
X215088893Y-133807868D01*
X215067850Y-133820480D01*
X215045671Y-133830970D01*
X215022572Y-133839235D01*
X214998773Y-133845196D01*
X214974505Y-133848796D01*
X214950001Y-133850000D01*
X214049999Y-133850000D01*
X214025495Y-133848796D01*
X214001227Y-133845196D01*
X213977428Y-133839235D01*
X213954329Y-133830970D01*
X213932150Y-133820480D01*
X213911107Y-133807868D01*
X213891401Y-133793253D01*
X213873223Y-133776777D01*
X213856747Y-133758599D01*
X213842132Y-133738893D01*
X213829520Y-133717850D01*
X213819030Y-133695671D01*
X213810765Y-133672572D01*
X213804804Y-133648773D01*
X213801204Y-133624505D01*
X213800000Y-133600001D01*
X213800000Y-132949999D01*
X213801204Y-132925495D01*
X213804804Y-132901227D01*
X213810765Y-132877428D01*
X213819030Y-132854329D01*
X213829520Y-132832150D01*
X213842132Y-132811107D01*
X213856747Y-132791401D01*
X213873223Y-132773223D01*
X213891401Y-132756747D01*
X213911107Y-132742132D01*
X213932150Y-132729520D01*
X213954329Y-132719030D01*
X213977428Y-132710765D01*
X214001227Y-132704804D01*
X214025495Y-132701204D01*
X214049999Y-132700000D01*
X214950001Y-132700000D01*
X214974505Y-132701204D01*
X214974505Y-132701204D01*
G37*
D12*
X214500000Y-133275000D03*
D11*
G36*
X214974505Y-130651204D02*
G01*
X214998773Y-130654804D01*
X215022572Y-130660765D01*
X215045671Y-130669030D01*
X215067850Y-130679520D01*
X215088893Y-130692132D01*
X215108599Y-130706747D01*
X215126777Y-130723223D01*
X215143253Y-130741401D01*
X215157868Y-130761107D01*
X215170480Y-130782150D01*
X215180970Y-130804329D01*
X215189235Y-130827428D01*
X215195196Y-130851227D01*
X215198796Y-130875495D01*
X215200000Y-130899999D01*
X215200000Y-131550001D01*
X215198796Y-131574505D01*
X215195196Y-131598773D01*
X215189235Y-131622572D01*
X215180970Y-131645671D01*
X215170480Y-131667850D01*
X215157868Y-131688893D01*
X215143253Y-131708599D01*
X215126777Y-131726777D01*
X215108599Y-131743253D01*
X215088893Y-131757868D01*
X215067850Y-131770480D01*
X215045671Y-131780970D01*
X215022572Y-131789235D01*
X214998773Y-131795196D01*
X214974505Y-131798796D01*
X214950001Y-131800000D01*
X214049999Y-131800000D01*
X214025495Y-131798796D01*
X214001227Y-131795196D01*
X213977428Y-131789235D01*
X213954329Y-131780970D01*
X213932150Y-131770480D01*
X213911107Y-131757868D01*
X213891401Y-131743253D01*
X213873223Y-131726777D01*
X213856747Y-131708599D01*
X213842132Y-131688893D01*
X213829520Y-131667850D01*
X213819030Y-131645671D01*
X213810765Y-131622572D01*
X213804804Y-131598773D01*
X213801204Y-131574505D01*
X213800000Y-131550001D01*
X213800000Y-130899999D01*
X213801204Y-130875495D01*
X213804804Y-130851227D01*
X213810765Y-130827428D01*
X213819030Y-130804329D01*
X213829520Y-130782150D01*
X213842132Y-130761107D01*
X213856747Y-130741401D01*
X213873223Y-130723223D01*
X213891401Y-130706747D01*
X213911107Y-130692132D01*
X213932150Y-130679520D01*
X213954329Y-130669030D01*
X213977428Y-130660765D01*
X214001227Y-130654804D01*
X214025495Y-130651204D01*
X214049999Y-130650000D01*
X214950001Y-130650000D01*
X214974505Y-130651204D01*
X214974505Y-130651204D01*
G37*
D12*
X214500000Y-131225000D03*
D11*
G36*
X208224505Y-132476204D02*
G01*
X208248773Y-132479804D01*
X208272572Y-132485765D01*
X208295671Y-132494030D01*
X208317850Y-132504520D01*
X208338893Y-132517132D01*
X208358599Y-132531747D01*
X208376777Y-132548223D01*
X208393253Y-132566401D01*
X208407868Y-132586107D01*
X208420480Y-132607150D01*
X208430970Y-132629329D01*
X208439235Y-132652428D01*
X208445196Y-132676227D01*
X208448796Y-132700495D01*
X208450000Y-132724999D01*
X208450000Y-133375001D01*
X208448796Y-133399505D01*
X208445196Y-133423773D01*
X208439235Y-133447572D01*
X208430970Y-133470671D01*
X208420480Y-133492850D01*
X208407868Y-133513893D01*
X208393253Y-133533599D01*
X208376777Y-133551777D01*
X208358599Y-133568253D01*
X208338893Y-133582868D01*
X208317850Y-133595480D01*
X208295671Y-133605970D01*
X208272572Y-133614235D01*
X208248773Y-133620196D01*
X208224505Y-133623796D01*
X208200001Y-133625000D01*
X207299999Y-133625000D01*
X207275495Y-133623796D01*
X207251227Y-133620196D01*
X207227428Y-133614235D01*
X207204329Y-133605970D01*
X207182150Y-133595480D01*
X207161107Y-133582868D01*
X207141401Y-133568253D01*
X207123223Y-133551777D01*
X207106747Y-133533599D01*
X207092132Y-133513893D01*
X207079520Y-133492850D01*
X207069030Y-133470671D01*
X207060765Y-133447572D01*
X207054804Y-133423773D01*
X207051204Y-133399505D01*
X207050000Y-133375001D01*
X207050000Y-132724999D01*
X207051204Y-132700495D01*
X207054804Y-132676227D01*
X207060765Y-132652428D01*
X207069030Y-132629329D01*
X207079520Y-132607150D01*
X207092132Y-132586107D01*
X207106747Y-132566401D01*
X207123223Y-132548223D01*
X207141401Y-132531747D01*
X207161107Y-132517132D01*
X207182150Y-132504520D01*
X207204329Y-132494030D01*
X207227428Y-132485765D01*
X207251227Y-132479804D01*
X207275495Y-132476204D01*
X207299999Y-132475000D01*
X208200001Y-132475000D01*
X208224505Y-132476204D01*
X208224505Y-132476204D01*
G37*
D12*
X207750000Y-133050000D03*
D11*
G36*
X208224505Y-130426204D02*
G01*
X208248773Y-130429804D01*
X208272572Y-130435765D01*
X208295671Y-130444030D01*
X208317850Y-130454520D01*
X208338893Y-130467132D01*
X208358599Y-130481747D01*
X208376777Y-130498223D01*
X208393253Y-130516401D01*
X208407868Y-130536107D01*
X208420480Y-130557150D01*
X208430970Y-130579329D01*
X208439235Y-130602428D01*
X208445196Y-130626227D01*
X208448796Y-130650495D01*
X208450000Y-130674999D01*
X208450000Y-131325001D01*
X208448796Y-131349505D01*
X208445196Y-131373773D01*
X208439235Y-131397572D01*
X208430970Y-131420671D01*
X208420480Y-131442850D01*
X208407868Y-131463893D01*
X208393253Y-131483599D01*
X208376777Y-131501777D01*
X208358599Y-131518253D01*
X208338893Y-131532868D01*
X208317850Y-131545480D01*
X208295671Y-131555970D01*
X208272572Y-131564235D01*
X208248773Y-131570196D01*
X208224505Y-131573796D01*
X208200001Y-131575000D01*
X207299999Y-131575000D01*
X207275495Y-131573796D01*
X207251227Y-131570196D01*
X207227428Y-131564235D01*
X207204329Y-131555970D01*
X207182150Y-131545480D01*
X207161107Y-131532868D01*
X207141401Y-131518253D01*
X207123223Y-131501777D01*
X207106747Y-131483599D01*
X207092132Y-131463893D01*
X207079520Y-131442850D01*
X207069030Y-131420671D01*
X207060765Y-131397572D01*
X207054804Y-131373773D01*
X207051204Y-131349505D01*
X207050000Y-131325001D01*
X207050000Y-130674999D01*
X207051204Y-130650495D01*
X207054804Y-130626227D01*
X207060765Y-130602428D01*
X207069030Y-130579329D01*
X207079520Y-130557150D01*
X207092132Y-130536107D01*
X207106747Y-130516401D01*
X207123223Y-130498223D01*
X207141401Y-130481747D01*
X207161107Y-130467132D01*
X207182150Y-130454520D01*
X207204329Y-130444030D01*
X207227428Y-130435765D01*
X207251227Y-130429804D01*
X207275495Y-130426204D01*
X207299999Y-130425000D01*
X208200001Y-130425000D01*
X208224505Y-130426204D01*
X208224505Y-130426204D01*
G37*
D12*
X207750000Y-131000000D03*
D11*
G36*
X180574505Y-130551204D02*
G01*
X180598773Y-130554804D01*
X180622572Y-130560765D01*
X180645671Y-130569030D01*
X180667850Y-130579520D01*
X180688893Y-130592132D01*
X180708599Y-130606747D01*
X180726777Y-130623223D01*
X180743253Y-130641401D01*
X180757868Y-130661107D01*
X180770480Y-130682150D01*
X180780970Y-130704329D01*
X180789235Y-130727428D01*
X180795196Y-130751227D01*
X180798796Y-130775495D01*
X180800000Y-130799999D01*
X180800000Y-131700001D01*
X180798796Y-131724505D01*
X180795196Y-131748773D01*
X180789235Y-131772572D01*
X180780970Y-131795671D01*
X180770480Y-131817850D01*
X180757868Y-131838893D01*
X180743253Y-131858599D01*
X180726777Y-131876777D01*
X180708599Y-131893253D01*
X180688893Y-131907868D01*
X180667850Y-131920480D01*
X180645671Y-131930970D01*
X180622572Y-131939235D01*
X180598773Y-131945196D01*
X180574505Y-131948796D01*
X180550001Y-131950000D01*
X179899999Y-131950000D01*
X179875495Y-131948796D01*
X179851227Y-131945196D01*
X179827428Y-131939235D01*
X179804329Y-131930970D01*
X179782150Y-131920480D01*
X179761107Y-131907868D01*
X179741401Y-131893253D01*
X179723223Y-131876777D01*
X179706747Y-131858599D01*
X179692132Y-131838893D01*
X179679520Y-131817850D01*
X179669030Y-131795671D01*
X179660765Y-131772572D01*
X179654804Y-131748773D01*
X179651204Y-131724505D01*
X179650000Y-131700001D01*
X179650000Y-130799999D01*
X179651204Y-130775495D01*
X179654804Y-130751227D01*
X179660765Y-130727428D01*
X179669030Y-130704329D01*
X179679520Y-130682150D01*
X179692132Y-130661107D01*
X179706747Y-130641401D01*
X179723223Y-130623223D01*
X179741401Y-130606747D01*
X179761107Y-130592132D01*
X179782150Y-130579520D01*
X179804329Y-130569030D01*
X179827428Y-130560765D01*
X179851227Y-130554804D01*
X179875495Y-130551204D01*
X179899999Y-130550000D01*
X180550001Y-130550000D01*
X180574505Y-130551204D01*
X180574505Y-130551204D01*
G37*
D12*
X180225000Y-131250000D03*
D11*
G36*
X182624505Y-130551204D02*
G01*
X182648773Y-130554804D01*
X182672572Y-130560765D01*
X182695671Y-130569030D01*
X182717850Y-130579520D01*
X182738893Y-130592132D01*
X182758599Y-130606747D01*
X182776777Y-130623223D01*
X182793253Y-130641401D01*
X182807868Y-130661107D01*
X182820480Y-130682150D01*
X182830970Y-130704329D01*
X182839235Y-130727428D01*
X182845196Y-130751227D01*
X182848796Y-130775495D01*
X182850000Y-130799999D01*
X182850000Y-131700001D01*
X182848796Y-131724505D01*
X182845196Y-131748773D01*
X182839235Y-131772572D01*
X182830970Y-131795671D01*
X182820480Y-131817850D01*
X182807868Y-131838893D01*
X182793253Y-131858599D01*
X182776777Y-131876777D01*
X182758599Y-131893253D01*
X182738893Y-131907868D01*
X182717850Y-131920480D01*
X182695671Y-131930970D01*
X182672572Y-131939235D01*
X182648773Y-131945196D01*
X182624505Y-131948796D01*
X182600001Y-131950000D01*
X181949999Y-131950000D01*
X181925495Y-131948796D01*
X181901227Y-131945196D01*
X181877428Y-131939235D01*
X181854329Y-131930970D01*
X181832150Y-131920480D01*
X181811107Y-131907868D01*
X181791401Y-131893253D01*
X181773223Y-131876777D01*
X181756747Y-131858599D01*
X181742132Y-131838893D01*
X181729520Y-131817850D01*
X181719030Y-131795671D01*
X181710765Y-131772572D01*
X181704804Y-131748773D01*
X181701204Y-131724505D01*
X181700000Y-131700001D01*
X181700000Y-130799999D01*
X181701204Y-130775495D01*
X181704804Y-130751227D01*
X181710765Y-130727428D01*
X181719030Y-130704329D01*
X181729520Y-130682150D01*
X181742132Y-130661107D01*
X181756747Y-130641401D01*
X181773223Y-130623223D01*
X181791401Y-130606747D01*
X181811107Y-130592132D01*
X181832150Y-130579520D01*
X181854329Y-130569030D01*
X181877428Y-130560765D01*
X181901227Y-130554804D01*
X181925495Y-130551204D01*
X181949999Y-130550000D01*
X182600001Y-130550000D01*
X182624505Y-130551204D01*
X182624505Y-130551204D01*
G37*
D12*
X182275000Y-131250000D03*
D11*
G36*
X184974505Y-132701204D02*
G01*
X184998773Y-132704804D01*
X185022572Y-132710765D01*
X185045671Y-132719030D01*
X185067850Y-132729520D01*
X185088893Y-132742132D01*
X185108599Y-132756747D01*
X185126777Y-132773223D01*
X185143253Y-132791401D01*
X185157868Y-132811107D01*
X185170480Y-132832150D01*
X185180970Y-132854329D01*
X185189235Y-132877428D01*
X185195196Y-132901227D01*
X185198796Y-132925495D01*
X185200000Y-132949999D01*
X185200000Y-133600001D01*
X185198796Y-133624505D01*
X185195196Y-133648773D01*
X185189235Y-133672572D01*
X185180970Y-133695671D01*
X185170480Y-133717850D01*
X185157868Y-133738893D01*
X185143253Y-133758599D01*
X185126777Y-133776777D01*
X185108599Y-133793253D01*
X185088893Y-133807868D01*
X185067850Y-133820480D01*
X185045671Y-133830970D01*
X185022572Y-133839235D01*
X184998773Y-133845196D01*
X184974505Y-133848796D01*
X184950001Y-133850000D01*
X184049999Y-133850000D01*
X184025495Y-133848796D01*
X184001227Y-133845196D01*
X183977428Y-133839235D01*
X183954329Y-133830970D01*
X183932150Y-133820480D01*
X183911107Y-133807868D01*
X183891401Y-133793253D01*
X183873223Y-133776777D01*
X183856747Y-133758599D01*
X183842132Y-133738893D01*
X183829520Y-133717850D01*
X183819030Y-133695671D01*
X183810765Y-133672572D01*
X183804804Y-133648773D01*
X183801204Y-133624505D01*
X183800000Y-133600001D01*
X183800000Y-132949999D01*
X183801204Y-132925495D01*
X183804804Y-132901227D01*
X183810765Y-132877428D01*
X183819030Y-132854329D01*
X183829520Y-132832150D01*
X183842132Y-132811107D01*
X183856747Y-132791401D01*
X183873223Y-132773223D01*
X183891401Y-132756747D01*
X183911107Y-132742132D01*
X183932150Y-132729520D01*
X183954329Y-132719030D01*
X183977428Y-132710765D01*
X184001227Y-132704804D01*
X184025495Y-132701204D01*
X184049999Y-132700000D01*
X184950001Y-132700000D01*
X184974505Y-132701204D01*
X184974505Y-132701204D01*
G37*
D12*
X184500000Y-133275000D03*
D11*
G36*
X184974505Y-130651204D02*
G01*
X184998773Y-130654804D01*
X185022572Y-130660765D01*
X185045671Y-130669030D01*
X185067850Y-130679520D01*
X185088893Y-130692132D01*
X185108599Y-130706747D01*
X185126777Y-130723223D01*
X185143253Y-130741401D01*
X185157868Y-130761107D01*
X185170480Y-130782150D01*
X185180970Y-130804329D01*
X185189235Y-130827428D01*
X185195196Y-130851227D01*
X185198796Y-130875495D01*
X185200000Y-130899999D01*
X185200000Y-131550001D01*
X185198796Y-131574505D01*
X185195196Y-131598773D01*
X185189235Y-131622572D01*
X185180970Y-131645671D01*
X185170480Y-131667850D01*
X185157868Y-131688893D01*
X185143253Y-131708599D01*
X185126777Y-131726777D01*
X185108599Y-131743253D01*
X185088893Y-131757868D01*
X185067850Y-131770480D01*
X185045671Y-131780970D01*
X185022572Y-131789235D01*
X184998773Y-131795196D01*
X184974505Y-131798796D01*
X184950001Y-131800000D01*
X184049999Y-131800000D01*
X184025495Y-131798796D01*
X184001227Y-131795196D01*
X183977428Y-131789235D01*
X183954329Y-131780970D01*
X183932150Y-131770480D01*
X183911107Y-131757868D01*
X183891401Y-131743253D01*
X183873223Y-131726777D01*
X183856747Y-131708599D01*
X183842132Y-131688893D01*
X183829520Y-131667850D01*
X183819030Y-131645671D01*
X183810765Y-131622572D01*
X183804804Y-131598773D01*
X183801204Y-131574505D01*
X183800000Y-131550001D01*
X183800000Y-130899999D01*
X183801204Y-130875495D01*
X183804804Y-130851227D01*
X183810765Y-130827428D01*
X183819030Y-130804329D01*
X183829520Y-130782150D01*
X183842132Y-130761107D01*
X183856747Y-130741401D01*
X183873223Y-130723223D01*
X183891401Y-130706747D01*
X183911107Y-130692132D01*
X183932150Y-130679520D01*
X183954329Y-130669030D01*
X183977428Y-130660765D01*
X184001227Y-130654804D01*
X184025495Y-130651204D01*
X184049999Y-130650000D01*
X184950001Y-130650000D01*
X184974505Y-130651204D01*
X184974505Y-130651204D01*
G37*
D12*
X184500000Y-131225000D03*
D18*
X183300000Y-126840000D03*
X184250000Y-126840000D03*
X185200000Y-126840000D03*
X185200000Y-129160000D03*
X184250000Y-129160000D03*
X183300000Y-129160000D03*
D11*
G36*
X196224505Y-132201204D02*
G01*
X196248773Y-132204804D01*
X196272572Y-132210765D01*
X196295671Y-132219030D01*
X196317850Y-132229520D01*
X196338893Y-132242132D01*
X196358599Y-132256747D01*
X196376777Y-132273223D01*
X196393253Y-132291401D01*
X196407868Y-132311107D01*
X196420480Y-132332150D01*
X196430970Y-132354329D01*
X196439235Y-132377428D01*
X196445196Y-132401227D01*
X196448796Y-132425495D01*
X196450000Y-132449999D01*
X196450000Y-133100001D01*
X196448796Y-133124505D01*
X196445196Y-133148773D01*
X196439235Y-133172572D01*
X196430970Y-133195671D01*
X196420480Y-133217850D01*
X196407868Y-133238893D01*
X196393253Y-133258599D01*
X196376777Y-133276777D01*
X196358599Y-133293253D01*
X196338893Y-133307868D01*
X196317850Y-133320480D01*
X196295671Y-133330970D01*
X196272572Y-133339235D01*
X196248773Y-133345196D01*
X196224505Y-133348796D01*
X196200001Y-133350000D01*
X195299999Y-133350000D01*
X195275495Y-133348796D01*
X195251227Y-133345196D01*
X195227428Y-133339235D01*
X195204329Y-133330970D01*
X195182150Y-133320480D01*
X195161107Y-133307868D01*
X195141401Y-133293253D01*
X195123223Y-133276777D01*
X195106747Y-133258599D01*
X195092132Y-133238893D01*
X195079520Y-133217850D01*
X195069030Y-133195671D01*
X195060765Y-133172572D01*
X195054804Y-133148773D01*
X195051204Y-133124505D01*
X195050000Y-133100001D01*
X195050000Y-132449999D01*
X195051204Y-132425495D01*
X195054804Y-132401227D01*
X195060765Y-132377428D01*
X195069030Y-132354329D01*
X195079520Y-132332150D01*
X195092132Y-132311107D01*
X195106747Y-132291401D01*
X195123223Y-132273223D01*
X195141401Y-132256747D01*
X195161107Y-132242132D01*
X195182150Y-132229520D01*
X195204329Y-132219030D01*
X195227428Y-132210765D01*
X195251227Y-132204804D01*
X195275495Y-132201204D01*
X195299999Y-132200000D01*
X196200001Y-132200000D01*
X196224505Y-132201204D01*
X196224505Y-132201204D01*
G37*
D12*
X195750000Y-132775000D03*
D11*
G36*
X196224505Y-130151204D02*
G01*
X196248773Y-130154804D01*
X196272572Y-130160765D01*
X196295671Y-130169030D01*
X196317850Y-130179520D01*
X196338893Y-130192132D01*
X196358599Y-130206747D01*
X196376777Y-130223223D01*
X196393253Y-130241401D01*
X196407868Y-130261107D01*
X196420480Y-130282150D01*
X196430970Y-130304329D01*
X196439235Y-130327428D01*
X196445196Y-130351227D01*
X196448796Y-130375495D01*
X196450000Y-130399999D01*
X196450000Y-131050001D01*
X196448796Y-131074505D01*
X196445196Y-131098773D01*
X196439235Y-131122572D01*
X196430970Y-131145671D01*
X196420480Y-131167850D01*
X196407868Y-131188893D01*
X196393253Y-131208599D01*
X196376777Y-131226777D01*
X196358599Y-131243253D01*
X196338893Y-131257868D01*
X196317850Y-131270480D01*
X196295671Y-131280970D01*
X196272572Y-131289235D01*
X196248773Y-131295196D01*
X196224505Y-131298796D01*
X196200001Y-131300000D01*
X195299999Y-131300000D01*
X195275495Y-131298796D01*
X195251227Y-131295196D01*
X195227428Y-131289235D01*
X195204329Y-131280970D01*
X195182150Y-131270480D01*
X195161107Y-131257868D01*
X195141401Y-131243253D01*
X195123223Y-131226777D01*
X195106747Y-131208599D01*
X195092132Y-131188893D01*
X195079520Y-131167850D01*
X195069030Y-131145671D01*
X195060765Y-131122572D01*
X195054804Y-131098773D01*
X195051204Y-131074505D01*
X195050000Y-131050001D01*
X195050000Y-130399999D01*
X195051204Y-130375495D01*
X195054804Y-130351227D01*
X195060765Y-130327428D01*
X195069030Y-130304329D01*
X195079520Y-130282150D01*
X195092132Y-130261107D01*
X195106747Y-130241401D01*
X195123223Y-130223223D01*
X195141401Y-130206747D01*
X195161107Y-130192132D01*
X195182150Y-130179520D01*
X195204329Y-130169030D01*
X195227428Y-130160765D01*
X195251227Y-130154804D01*
X195275495Y-130151204D01*
X195299999Y-130150000D01*
X196200001Y-130150000D01*
X196224505Y-130151204D01*
X196224505Y-130151204D01*
G37*
D12*
X195750000Y-130725000D03*
D11*
G36*
X202224505Y-132201204D02*
G01*
X202248773Y-132204804D01*
X202272572Y-132210765D01*
X202295671Y-132219030D01*
X202317850Y-132229520D01*
X202338893Y-132242132D01*
X202358599Y-132256747D01*
X202376777Y-132273223D01*
X202393253Y-132291401D01*
X202407868Y-132311107D01*
X202420480Y-132332150D01*
X202430970Y-132354329D01*
X202439235Y-132377428D01*
X202445196Y-132401227D01*
X202448796Y-132425495D01*
X202450000Y-132449999D01*
X202450000Y-133100001D01*
X202448796Y-133124505D01*
X202445196Y-133148773D01*
X202439235Y-133172572D01*
X202430970Y-133195671D01*
X202420480Y-133217850D01*
X202407868Y-133238893D01*
X202393253Y-133258599D01*
X202376777Y-133276777D01*
X202358599Y-133293253D01*
X202338893Y-133307868D01*
X202317850Y-133320480D01*
X202295671Y-133330970D01*
X202272572Y-133339235D01*
X202248773Y-133345196D01*
X202224505Y-133348796D01*
X202200001Y-133350000D01*
X201299999Y-133350000D01*
X201275495Y-133348796D01*
X201251227Y-133345196D01*
X201227428Y-133339235D01*
X201204329Y-133330970D01*
X201182150Y-133320480D01*
X201161107Y-133307868D01*
X201141401Y-133293253D01*
X201123223Y-133276777D01*
X201106747Y-133258599D01*
X201092132Y-133238893D01*
X201079520Y-133217850D01*
X201069030Y-133195671D01*
X201060765Y-133172572D01*
X201054804Y-133148773D01*
X201051204Y-133124505D01*
X201050000Y-133100001D01*
X201050000Y-132449999D01*
X201051204Y-132425495D01*
X201054804Y-132401227D01*
X201060765Y-132377428D01*
X201069030Y-132354329D01*
X201079520Y-132332150D01*
X201092132Y-132311107D01*
X201106747Y-132291401D01*
X201123223Y-132273223D01*
X201141401Y-132256747D01*
X201161107Y-132242132D01*
X201182150Y-132229520D01*
X201204329Y-132219030D01*
X201227428Y-132210765D01*
X201251227Y-132204804D01*
X201275495Y-132201204D01*
X201299999Y-132200000D01*
X202200001Y-132200000D01*
X202224505Y-132201204D01*
X202224505Y-132201204D01*
G37*
D12*
X201750000Y-132775000D03*
D11*
G36*
X202224505Y-130151204D02*
G01*
X202248773Y-130154804D01*
X202272572Y-130160765D01*
X202295671Y-130169030D01*
X202317850Y-130179520D01*
X202338893Y-130192132D01*
X202358599Y-130206747D01*
X202376777Y-130223223D01*
X202393253Y-130241401D01*
X202407868Y-130261107D01*
X202420480Y-130282150D01*
X202430970Y-130304329D01*
X202439235Y-130327428D01*
X202445196Y-130351227D01*
X202448796Y-130375495D01*
X202450000Y-130399999D01*
X202450000Y-131050001D01*
X202448796Y-131074505D01*
X202445196Y-131098773D01*
X202439235Y-131122572D01*
X202430970Y-131145671D01*
X202420480Y-131167850D01*
X202407868Y-131188893D01*
X202393253Y-131208599D01*
X202376777Y-131226777D01*
X202358599Y-131243253D01*
X202338893Y-131257868D01*
X202317850Y-131270480D01*
X202295671Y-131280970D01*
X202272572Y-131289235D01*
X202248773Y-131295196D01*
X202224505Y-131298796D01*
X202200001Y-131300000D01*
X201299999Y-131300000D01*
X201275495Y-131298796D01*
X201251227Y-131295196D01*
X201227428Y-131289235D01*
X201204329Y-131280970D01*
X201182150Y-131270480D01*
X201161107Y-131257868D01*
X201141401Y-131243253D01*
X201123223Y-131226777D01*
X201106747Y-131208599D01*
X201092132Y-131188893D01*
X201079520Y-131167850D01*
X201069030Y-131145671D01*
X201060765Y-131122572D01*
X201054804Y-131098773D01*
X201051204Y-131074505D01*
X201050000Y-131050001D01*
X201050000Y-130399999D01*
X201051204Y-130375495D01*
X201054804Y-130351227D01*
X201060765Y-130327428D01*
X201069030Y-130304329D01*
X201079520Y-130282150D01*
X201092132Y-130261107D01*
X201106747Y-130241401D01*
X201123223Y-130223223D01*
X201141401Y-130206747D01*
X201161107Y-130192132D01*
X201182150Y-130179520D01*
X201204329Y-130169030D01*
X201227428Y-130160765D01*
X201251227Y-130154804D01*
X201275495Y-130151204D01*
X201299999Y-130150000D01*
X202200001Y-130150000D01*
X202224505Y-130151204D01*
X202224505Y-130151204D01*
G37*
D12*
X201750000Y-130725000D03*
D11*
G36*
X181724505Y-128451204D02*
G01*
X181748773Y-128454804D01*
X181772572Y-128460765D01*
X181795671Y-128469030D01*
X181817850Y-128479520D01*
X181838893Y-128492132D01*
X181858599Y-128506747D01*
X181876777Y-128523223D01*
X181893253Y-128541401D01*
X181907868Y-128561107D01*
X181920480Y-128582150D01*
X181930970Y-128604329D01*
X181939235Y-128627428D01*
X181945196Y-128651227D01*
X181948796Y-128675495D01*
X181950000Y-128699999D01*
X181950000Y-129350001D01*
X181948796Y-129374505D01*
X181945196Y-129398773D01*
X181939235Y-129422572D01*
X181930970Y-129445671D01*
X181920480Y-129467850D01*
X181907868Y-129488893D01*
X181893253Y-129508599D01*
X181876777Y-129526777D01*
X181858599Y-129543253D01*
X181838893Y-129557868D01*
X181817850Y-129570480D01*
X181795671Y-129580970D01*
X181772572Y-129589235D01*
X181748773Y-129595196D01*
X181724505Y-129598796D01*
X181700001Y-129600000D01*
X180799999Y-129600000D01*
X180775495Y-129598796D01*
X180751227Y-129595196D01*
X180727428Y-129589235D01*
X180704329Y-129580970D01*
X180682150Y-129570480D01*
X180661107Y-129557868D01*
X180641401Y-129543253D01*
X180623223Y-129526777D01*
X180606747Y-129508599D01*
X180592132Y-129488893D01*
X180579520Y-129467850D01*
X180569030Y-129445671D01*
X180560765Y-129422572D01*
X180554804Y-129398773D01*
X180551204Y-129374505D01*
X180550000Y-129350001D01*
X180550000Y-128699999D01*
X180551204Y-128675495D01*
X180554804Y-128651227D01*
X180560765Y-128627428D01*
X180569030Y-128604329D01*
X180579520Y-128582150D01*
X180592132Y-128561107D01*
X180606747Y-128541401D01*
X180623223Y-128523223D01*
X180641401Y-128506747D01*
X180661107Y-128492132D01*
X180682150Y-128479520D01*
X180704329Y-128469030D01*
X180727428Y-128460765D01*
X180751227Y-128454804D01*
X180775495Y-128451204D01*
X180799999Y-128450000D01*
X181700001Y-128450000D01*
X181724505Y-128451204D01*
X181724505Y-128451204D01*
G37*
D12*
X181250000Y-129025000D03*
D11*
G36*
X181724505Y-126401204D02*
G01*
X181748773Y-126404804D01*
X181772572Y-126410765D01*
X181795671Y-126419030D01*
X181817850Y-126429520D01*
X181838893Y-126442132D01*
X181858599Y-126456747D01*
X181876777Y-126473223D01*
X181893253Y-126491401D01*
X181907868Y-126511107D01*
X181920480Y-126532150D01*
X181930970Y-126554329D01*
X181939235Y-126577428D01*
X181945196Y-126601227D01*
X181948796Y-126625495D01*
X181950000Y-126649999D01*
X181950000Y-127300001D01*
X181948796Y-127324505D01*
X181945196Y-127348773D01*
X181939235Y-127372572D01*
X181930970Y-127395671D01*
X181920480Y-127417850D01*
X181907868Y-127438893D01*
X181893253Y-127458599D01*
X181876777Y-127476777D01*
X181858599Y-127493253D01*
X181838893Y-127507868D01*
X181817850Y-127520480D01*
X181795671Y-127530970D01*
X181772572Y-127539235D01*
X181748773Y-127545196D01*
X181724505Y-127548796D01*
X181700001Y-127550000D01*
X180799999Y-127550000D01*
X180775495Y-127548796D01*
X180751227Y-127545196D01*
X180727428Y-127539235D01*
X180704329Y-127530970D01*
X180682150Y-127520480D01*
X180661107Y-127507868D01*
X180641401Y-127493253D01*
X180623223Y-127476777D01*
X180606747Y-127458599D01*
X180592132Y-127438893D01*
X180579520Y-127417850D01*
X180569030Y-127395671D01*
X180560765Y-127372572D01*
X180554804Y-127348773D01*
X180551204Y-127324505D01*
X180550000Y-127300001D01*
X180550000Y-126649999D01*
X180551204Y-126625495D01*
X180554804Y-126601227D01*
X180560765Y-126577428D01*
X180569030Y-126554329D01*
X180579520Y-126532150D01*
X180592132Y-126511107D01*
X180606747Y-126491401D01*
X180623223Y-126473223D01*
X180641401Y-126456747D01*
X180661107Y-126442132D01*
X180682150Y-126429520D01*
X180704329Y-126419030D01*
X180727428Y-126410765D01*
X180751227Y-126404804D01*
X180775495Y-126401204D01*
X180799999Y-126400000D01*
X181700001Y-126400000D01*
X181724505Y-126401204D01*
X181724505Y-126401204D01*
G37*
D12*
X181250000Y-126975000D03*
D11*
G36*
X210574505Y-130551204D02*
G01*
X210598773Y-130554804D01*
X210622572Y-130560765D01*
X210645671Y-130569030D01*
X210667850Y-130579520D01*
X210688893Y-130592132D01*
X210708599Y-130606747D01*
X210726777Y-130623223D01*
X210743253Y-130641401D01*
X210757868Y-130661107D01*
X210770480Y-130682150D01*
X210780970Y-130704329D01*
X210789235Y-130727428D01*
X210795196Y-130751227D01*
X210798796Y-130775495D01*
X210800000Y-130799999D01*
X210800000Y-131700001D01*
X210798796Y-131724505D01*
X210795196Y-131748773D01*
X210789235Y-131772572D01*
X210780970Y-131795671D01*
X210770480Y-131817850D01*
X210757868Y-131838893D01*
X210743253Y-131858599D01*
X210726777Y-131876777D01*
X210708599Y-131893253D01*
X210688893Y-131907868D01*
X210667850Y-131920480D01*
X210645671Y-131930970D01*
X210622572Y-131939235D01*
X210598773Y-131945196D01*
X210574505Y-131948796D01*
X210550001Y-131950000D01*
X209899999Y-131950000D01*
X209875495Y-131948796D01*
X209851227Y-131945196D01*
X209827428Y-131939235D01*
X209804329Y-131930970D01*
X209782150Y-131920480D01*
X209761107Y-131907868D01*
X209741401Y-131893253D01*
X209723223Y-131876777D01*
X209706747Y-131858599D01*
X209692132Y-131838893D01*
X209679520Y-131817850D01*
X209669030Y-131795671D01*
X209660765Y-131772572D01*
X209654804Y-131748773D01*
X209651204Y-131724505D01*
X209650000Y-131700001D01*
X209650000Y-130799999D01*
X209651204Y-130775495D01*
X209654804Y-130751227D01*
X209660765Y-130727428D01*
X209669030Y-130704329D01*
X209679520Y-130682150D01*
X209692132Y-130661107D01*
X209706747Y-130641401D01*
X209723223Y-130623223D01*
X209741401Y-130606747D01*
X209761107Y-130592132D01*
X209782150Y-130579520D01*
X209804329Y-130569030D01*
X209827428Y-130560765D01*
X209851227Y-130554804D01*
X209875495Y-130551204D01*
X209899999Y-130550000D01*
X210550001Y-130550000D01*
X210574505Y-130551204D01*
X210574505Y-130551204D01*
G37*
D12*
X210225000Y-131250000D03*
D11*
G36*
X212624505Y-130551204D02*
G01*
X212648773Y-130554804D01*
X212672572Y-130560765D01*
X212695671Y-130569030D01*
X212717850Y-130579520D01*
X212738893Y-130592132D01*
X212758599Y-130606747D01*
X212776777Y-130623223D01*
X212793253Y-130641401D01*
X212807868Y-130661107D01*
X212820480Y-130682150D01*
X212830970Y-130704329D01*
X212839235Y-130727428D01*
X212845196Y-130751227D01*
X212848796Y-130775495D01*
X212850000Y-130799999D01*
X212850000Y-131700001D01*
X212848796Y-131724505D01*
X212845196Y-131748773D01*
X212839235Y-131772572D01*
X212830970Y-131795671D01*
X212820480Y-131817850D01*
X212807868Y-131838893D01*
X212793253Y-131858599D01*
X212776777Y-131876777D01*
X212758599Y-131893253D01*
X212738893Y-131907868D01*
X212717850Y-131920480D01*
X212695671Y-131930970D01*
X212672572Y-131939235D01*
X212648773Y-131945196D01*
X212624505Y-131948796D01*
X212600001Y-131950000D01*
X211949999Y-131950000D01*
X211925495Y-131948796D01*
X211901227Y-131945196D01*
X211877428Y-131939235D01*
X211854329Y-131930970D01*
X211832150Y-131920480D01*
X211811107Y-131907868D01*
X211791401Y-131893253D01*
X211773223Y-131876777D01*
X211756747Y-131858599D01*
X211742132Y-131838893D01*
X211729520Y-131817850D01*
X211719030Y-131795671D01*
X211710765Y-131772572D01*
X211704804Y-131748773D01*
X211701204Y-131724505D01*
X211700000Y-131700001D01*
X211700000Y-130799999D01*
X211701204Y-130775495D01*
X211704804Y-130751227D01*
X211710765Y-130727428D01*
X211719030Y-130704329D01*
X211729520Y-130682150D01*
X211742132Y-130661107D01*
X211756747Y-130641401D01*
X211773223Y-130623223D01*
X211791401Y-130606747D01*
X211811107Y-130592132D01*
X211832150Y-130579520D01*
X211854329Y-130569030D01*
X211877428Y-130560765D01*
X211901227Y-130554804D01*
X211925495Y-130551204D01*
X211949999Y-130550000D01*
X212600001Y-130550000D01*
X212624505Y-130551204D01*
X212624505Y-130551204D01*
G37*
D12*
X212275000Y-131250000D03*
D11*
G36*
X178224505Y-132476204D02*
G01*
X178248773Y-132479804D01*
X178272572Y-132485765D01*
X178295671Y-132494030D01*
X178317850Y-132504520D01*
X178338893Y-132517132D01*
X178358599Y-132531747D01*
X178376777Y-132548223D01*
X178393253Y-132566401D01*
X178407868Y-132586107D01*
X178420480Y-132607150D01*
X178430970Y-132629329D01*
X178439235Y-132652428D01*
X178445196Y-132676227D01*
X178448796Y-132700495D01*
X178450000Y-132724999D01*
X178450000Y-133375001D01*
X178448796Y-133399505D01*
X178445196Y-133423773D01*
X178439235Y-133447572D01*
X178430970Y-133470671D01*
X178420480Y-133492850D01*
X178407868Y-133513893D01*
X178393253Y-133533599D01*
X178376777Y-133551777D01*
X178358599Y-133568253D01*
X178338893Y-133582868D01*
X178317850Y-133595480D01*
X178295671Y-133605970D01*
X178272572Y-133614235D01*
X178248773Y-133620196D01*
X178224505Y-133623796D01*
X178200001Y-133625000D01*
X177299999Y-133625000D01*
X177275495Y-133623796D01*
X177251227Y-133620196D01*
X177227428Y-133614235D01*
X177204329Y-133605970D01*
X177182150Y-133595480D01*
X177161107Y-133582868D01*
X177141401Y-133568253D01*
X177123223Y-133551777D01*
X177106747Y-133533599D01*
X177092132Y-133513893D01*
X177079520Y-133492850D01*
X177069030Y-133470671D01*
X177060765Y-133447572D01*
X177054804Y-133423773D01*
X177051204Y-133399505D01*
X177050000Y-133375001D01*
X177050000Y-132724999D01*
X177051204Y-132700495D01*
X177054804Y-132676227D01*
X177060765Y-132652428D01*
X177069030Y-132629329D01*
X177079520Y-132607150D01*
X177092132Y-132586107D01*
X177106747Y-132566401D01*
X177123223Y-132548223D01*
X177141401Y-132531747D01*
X177161107Y-132517132D01*
X177182150Y-132504520D01*
X177204329Y-132494030D01*
X177227428Y-132485765D01*
X177251227Y-132479804D01*
X177275495Y-132476204D01*
X177299999Y-132475000D01*
X178200001Y-132475000D01*
X178224505Y-132476204D01*
X178224505Y-132476204D01*
G37*
D12*
X177750000Y-133050000D03*
D11*
G36*
X178224505Y-130426204D02*
G01*
X178248773Y-130429804D01*
X178272572Y-130435765D01*
X178295671Y-130444030D01*
X178317850Y-130454520D01*
X178338893Y-130467132D01*
X178358599Y-130481747D01*
X178376777Y-130498223D01*
X178393253Y-130516401D01*
X178407868Y-130536107D01*
X178420480Y-130557150D01*
X178430970Y-130579329D01*
X178439235Y-130602428D01*
X178445196Y-130626227D01*
X178448796Y-130650495D01*
X178450000Y-130674999D01*
X178450000Y-131325001D01*
X178448796Y-131349505D01*
X178445196Y-131373773D01*
X178439235Y-131397572D01*
X178430970Y-131420671D01*
X178420480Y-131442850D01*
X178407868Y-131463893D01*
X178393253Y-131483599D01*
X178376777Y-131501777D01*
X178358599Y-131518253D01*
X178338893Y-131532868D01*
X178317850Y-131545480D01*
X178295671Y-131555970D01*
X178272572Y-131564235D01*
X178248773Y-131570196D01*
X178224505Y-131573796D01*
X178200001Y-131575000D01*
X177299999Y-131575000D01*
X177275495Y-131573796D01*
X177251227Y-131570196D01*
X177227428Y-131564235D01*
X177204329Y-131555970D01*
X177182150Y-131545480D01*
X177161107Y-131532868D01*
X177141401Y-131518253D01*
X177123223Y-131501777D01*
X177106747Y-131483599D01*
X177092132Y-131463893D01*
X177079520Y-131442850D01*
X177069030Y-131420671D01*
X177060765Y-131397572D01*
X177054804Y-131373773D01*
X177051204Y-131349505D01*
X177050000Y-131325001D01*
X177050000Y-130674999D01*
X177051204Y-130650495D01*
X177054804Y-130626227D01*
X177060765Y-130602428D01*
X177069030Y-130579329D01*
X177079520Y-130557150D01*
X177092132Y-130536107D01*
X177106747Y-130516401D01*
X177123223Y-130498223D01*
X177141401Y-130481747D01*
X177161107Y-130467132D01*
X177182150Y-130454520D01*
X177204329Y-130444030D01*
X177227428Y-130435765D01*
X177251227Y-130429804D01*
X177275495Y-130426204D01*
X177299999Y-130425000D01*
X178200001Y-130425000D01*
X178224505Y-130426204D01*
X178224505Y-130426204D01*
G37*
D12*
X177750000Y-131000000D03*
D11*
G36*
X151724505Y-128451204D02*
G01*
X151748773Y-128454804D01*
X151772572Y-128460765D01*
X151795671Y-128469030D01*
X151817850Y-128479520D01*
X151838893Y-128492132D01*
X151858599Y-128506747D01*
X151876777Y-128523223D01*
X151893253Y-128541401D01*
X151907868Y-128561107D01*
X151920480Y-128582150D01*
X151930970Y-128604329D01*
X151939235Y-128627428D01*
X151945196Y-128651227D01*
X151948796Y-128675495D01*
X151950000Y-128699999D01*
X151950000Y-129350001D01*
X151948796Y-129374505D01*
X151945196Y-129398773D01*
X151939235Y-129422572D01*
X151930970Y-129445671D01*
X151920480Y-129467850D01*
X151907868Y-129488893D01*
X151893253Y-129508599D01*
X151876777Y-129526777D01*
X151858599Y-129543253D01*
X151838893Y-129557868D01*
X151817850Y-129570480D01*
X151795671Y-129580970D01*
X151772572Y-129589235D01*
X151748773Y-129595196D01*
X151724505Y-129598796D01*
X151700001Y-129600000D01*
X150799999Y-129600000D01*
X150775495Y-129598796D01*
X150751227Y-129595196D01*
X150727428Y-129589235D01*
X150704329Y-129580970D01*
X150682150Y-129570480D01*
X150661107Y-129557868D01*
X150641401Y-129543253D01*
X150623223Y-129526777D01*
X150606747Y-129508599D01*
X150592132Y-129488893D01*
X150579520Y-129467850D01*
X150569030Y-129445671D01*
X150560765Y-129422572D01*
X150554804Y-129398773D01*
X150551204Y-129374505D01*
X150550000Y-129350001D01*
X150550000Y-128699999D01*
X150551204Y-128675495D01*
X150554804Y-128651227D01*
X150560765Y-128627428D01*
X150569030Y-128604329D01*
X150579520Y-128582150D01*
X150592132Y-128561107D01*
X150606747Y-128541401D01*
X150623223Y-128523223D01*
X150641401Y-128506747D01*
X150661107Y-128492132D01*
X150682150Y-128479520D01*
X150704329Y-128469030D01*
X150727428Y-128460765D01*
X150751227Y-128454804D01*
X150775495Y-128451204D01*
X150799999Y-128450000D01*
X151700001Y-128450000D01*
X151724505Y-128451204D01*
X151724505Y-128451204D01*
G37*
D12*
X151250000Y-129025000D03*
D11*
G36*
X151724505Y-126401204D02*
G01*
X151748773Y-126404804D01*
X151772572Y-126410765D01*
X151795671Y-126419030D01*
X151817850Y-126429520D01*
X151838893Y-126442132D01*
X151858599Y-126456747D01*
X151876777Y-126473223D01*
X151893253Y-126491401D01*
X151907868Y-126511107D01*
X151920480Y-126532150D01*
X151930970Y-126554329D01*
X151939235Y-126577428D01*
X151945196Y-126601227D01*
X151948796Y-126625495D01*
X151950000Y-126649999D01*
X151950000Y-127300001D01*
X151948796Y-127324505D01*
X151945196Y-127348773D01*
X151939235Y-127372572D01*
X151930970Y-127395671D01*
X151920480Y-127417850D01*
X151907868Y-127438893D01*
X151893253Y-127458599D01*
X151876777Y-127476777D01*
X151858599Y-127493253D01*
X151838893Y-127507868D01*
X151817850Y-127520480D01*
X151795671Y-127530970D01*
X151772572Y-127539235D01*
X151748773Y-127545196D01*
X151724505Y-127548796D01*
X151700001Y-127550000D01*
X150799999Y-127550000D01*
X150775495Y-127548796D01*
X150751227Y-127545196D01*
X150727428Y-127539235D01*
X150704329Y-127530970D01*
X150682150Y-127520480D01*
X150661107Y-127507868D01*
X150641401Y-127493253D01*
X150623223Y-127476777D01*
X150606747Y-127458599D01*
X150592132Y-127438893D01*
X150579520Y-127417850D01*
X150569030Y-127395671D01*
X150560765Y-127372572D01*
X150554804Y-127348773D01*
X150551204Y-127324505D01*
X150550000Y-127300001D01*
X150550000Y-126649999D01*
X150551204Y-126625495D01*
X150554804Y-126601227D01*
X150560765Y-126577428D01*
X150569030Y-126554329D01*
X150579520Y-126532150D01*
X150592132Y-126511107D01*
X150606747Y-126491401D01*
X150623223Y-126473223D01*
X150641401Y-126456747D01*
X150661107Y-126442132D01*
X150682150Y-126429520D01*
X150704329Y-126419030D01*
X150727428Y-126410765D01*
X150751227Y-126404804D01*
X150775495Y-126401204D01*
X150799999Y-126400000D01*
X151700001Y-126400000D01*
X151724505Y-126401204D01*
X151724505Y-126401204D01*
G37*
D12*
X151250000Y-126975000D03*
D11*
G36*
X158149504Y-131276204D02*
G01*
X158173773Y-131279804D01*
X158197571Y-131285765D01*
X158220671Y-131294030D01*
X158242849Y-131304520D01*
X158263893Y-131317133D01*
X158283598Y-131331747D01*
X158301777Y-131348223D01*
X158318253Y-131366402D01*
X158332867Y-131386107D01*
X158345480Y-131407151D01*
X158355970Y-131429329D01*
X158364235Y-131452429D01*
X158370196Y-131476227D01*
X158373796Y-131500496D01*
X158375000Y-131525000D01*
X158375000Y-132450000D01*
X158373796Y-132474504D01*
X158370196Y-132498773D01*
X158364235Y-132522571D01*
X158355970Y-132545671D01*
X158345480Y-132567849D01*
X158332867Y-132588893D01*
X158318253Y-132608598D01*
X158301777Y-132626777D01*
X158283598Y-132643253D01*
X158263893Y-132657867D01*
X158242849Y-132670480D01*
X158220671Y-132680970D01*
X158197571Y-132689235D01*
X158173773Y-132695196D01*
X158149504Y-132698796D01*
X158125000Y-132700000D01*
X156875000Y-132700000D01*
X156850496Y-132698796D01*
X156826227Y-132695196D01*
X156802429Y-132689235D01*
X156779329Y-132680970D01*
X156757151Y-132670480D01*
X156736107Y-132657867D01*
X156716402Y-132643253D01*
X156698223Y-132626777D01*
X156681747Y-132608598D01*
X156667133Y-132588893D01*
X156654520Y-132567849D01*
X156644030Y-132545671D01*
X156635765Y-132522571D01*
X156629804Y-132498773D01*
X156626204Y-132474504D01*
X156625000Y-132450000D01*
X156625000Y-131525000D01*
X156626204Y-131500496D01*
X156629804Y-131476227D01*
X156635765Y-131452429D01*
X156644030Y-131429329D01*
X156654520Y-131407151D01*
X156667133Y-131386107D01*
X156681747Y-131366402D01*
X156698223Y-131348223D01*
X156716402Y-131331747D01*
X156736107Y-131317133D01*
X156757151Y-131304520D01*
X156779329Y-131294030D01*
X156802429Y-131285765D01*
X156826227Y-131279804D01*
X156850496Y-131276204D01*
X156875000Y-131275000D01*
X158125000Y-131275000D01*
X158149504Y-131276204D01*
X158149504Y-131276204D01*
G37*
D14*
X157500000Y-131987500D03*
D11*
G36*
X158149504Y-128301204D02*
G01*
X158173773Y-128304804D01*
X158197571Y-128310765D01*
X158220671Y-128319030D01*
X158242849Y-128329520D01*
X158263893Y-128342133D01*
X158283598Y-128356747D01*
X158301777Y-128373223D01*
X158318253Y-128391402D01*
X158332867Y-128411107D01*
X158345480Y-128432151D01*
X158355970Y-128454329D01*
X158364235Y-128477429D01*
X158370196Y-128501227D01*
X158373796Y-128525496D01*
X158375000Y-128550000D01*
X158375000Y-129475000D01*
X158373796Y-129499504D01*
X158370196Y-129523773D01*
X158364235Y-129547571D01*
X158355970Y-129570671D01*
X158345480Y-129592849D01*
X158332867Y-129613893D01*
X158318253Y-129633598D01*
X158301777Y-129651777D01*
X158283598Y-129668253D01*
X158263893Y-129682867D01*
X158242849Y-129695480D01*
X158220671Y-129705970D01*
X158197571Y-129714235D01*
X158173773Y-129720196D01*
X158149504Y-129723796D01*
X158125000Y-129725000D01*
X156875000Y-129725000D01*
X156850496Y-129723796D01*
X156826227Y-129720196D01*
X156802429Y-129714235D01*
X156779329Y-129705970D01*
X156757151Y-129695480D01*
X156736107Y-129682867D01*
X156716402Y-129668253D01*
X156698223Y-129651777D01*
X156681747Y-129633598D01*
X156667133Y-129613893D01*
X156654520Y-129592849D01*
X156644030Y-129570671D01*
X156635765Y-129547571D01*
X156629804Y-129523773D01*
X156626204Y-129499504D01*
X156625000Y-129475000D01*
X156625000Y-128550000D01*
X156626204Y-128525496D01*
X156629804Y-128501227D01*
X156635765Y-128477429D01*
X156644030Y-128454329D01*
X156654520Y-128432151D01*
X156667133Y-128411107D01*
X156681747Y-128391402D01*
X156698223Y-128373223D01*
X156716402Y-128356747D01*
X156736107Y-128342133D01*
X156757151Y-128329520D01*
X156779329Y-128319030D01*
X156802429Y-128310765D01*
X156826227Y-128304804D01*
X156850496Y-128301204D01*
X156875000Y-128300000D01*
X158125000Y-128300000D01*
X158149504Y-128301204D01*
X158149504Y-128301204D01*
G37*
D14*
X157500000Y-129012500D03*
D11*
G36*
X150574505Y-130551204D02*
G01*
X150598773Y-130554804D01*
X150622572Y-130560765D01*
X150645671Y-130569030D01*
X150667850Y-130579520D01*
X150688893Y-130592132D01*
X150708599Y-130606747D01*
X150726777Y-130623223D01*
X150743253Y-130641401D01*
X150757868Y-130661107D01*
X150770480Y-130682150D01*
X150780970Y-130704329D01*
X150789235Y-130727428D01*
X150795196Y-130751227D01*
X150798796Y-130775495D01*
X150800000Y-130799999D01*
X150800000Y-131700001D01*
X150798796Y-131724505D01*
X150795196Y-131748773D01*
X150789235Y-131772572D01*
X150780970Y-131795671D01*
X150770480Y-131817850D01*
X150757868Y-131838893D01*
X150743253Y-131858599D01*
X150726777Y-131876777D01*
X150708599Y-131893253D01*
X150688893Y-131907868D01*
X150667850Y-131920480D01*
X150645671Y-131930970D01*
X150622572Y-131939235D01*
X150598773Y-131945196D01*
X150574505Y-131948796D01*
X150550001Y-131950000D01*
X149899999Y-131950000D01*
X149875495Y-131948796D01*
X149851227Y-131945196D01*
X149827428Y-131939235D01*
X149804329Y-131930970D01*
X149782150Y-131920480D01*
X149761107Y-131907868D01*
X149741401Y-131893253D01*
X149723223Y-131876777D01*
X149706747Y-131858599D01*
X149692132Y-131838893D01*
X149679520Y-131817850D01*
X149669030Y-131795671D01*
X149660765Y-131772572D01*
X149654804Y-131748773D01*
X149651204Y-131724505D01*
X149650000Y-131700001D01*
X149650000Y-130799999D01*
X149651204Y-130775495D01*
X149654804Y-130751227D01*
X149660765Y-130727428D01*
X149669030Y-130704329D01*
X149679520Y-130682150D01*
X149692132Y-130661107D01*
X149706747Y-130641401D01*
X149723223Y-130623223D01*
X149741401Y-130606747D01*
X149761107Y-130592132D01*
X149782150Y-130579520D01*
X149804329Y-130569030D01*
X149827428Y-130560765D01*
X149851227Y-130554804D01*
X149875495Y-130551204D01*
X149899999Y-130550000D01*
X150550001Y-130550000D01*
X150574505Y-130551204D01*
X150574505Y-130551204D01*
G37*
D12*
X150225000Y-131250000D03*
D11*
G36*
X152624505Y-130551204D02*
G01*
X152648773Y-130554804D01*
X152672572Y-130560765D01*
X152695671Y-130569030D01*
X152717850Y-130579520D01*
X152738893Y-130592132D01*
X152758599Y-130606747D01*
X152776777Y-130623223D01*
X152793253Y-130641401D01*
X152807868Y-130661107D01*
X152820480Y-130682150D01*
X152830970Y-130704329D01*
X152839235Y-130727428D01*
X152845196Y-130751227D01*
X152848796Y-130775495D01*
X152850000Y-130799999D01*
X152850000Y-131700001D01*
X152848796Y-131724505D01*
X152845196Y-131748773D01*
X152839235Y-131772572D01*
X152830970Y-131795671D01*
X152820480Y-131817850D01*
X152807868Y-131838893D01*
X152793253Y-131858599D01*
X152776777Y-131876777D01*
X152758599Y-131893253D01*
X152738893Y-131907868D01*
X152717850Y-131920480D01*
X152695671Y-131930970D01*
X152672572Y-131939235D01*
X152648773Y-131945196D01*
X152624505Y-131948796D01*
X152600001Y-131950000D01*
X151949999Y-131950000D01*
X151925495Y-131948796D01*
X151901227Y-131945196D01*
X151877428Y-131939235D01*
X151854329Y-131930970D01*
X151832150Y-131920480D01*
X151811107Y-131907868D01*
X151791401Y-131893253D01*
X151773223Y-131876777D01*
X151756747Y-131858599D01*
X151742132Y-131838893D01*
X151729520Y-131817850D01*
X151719030Y-131795671D01*
X151710765Y-131772572D01*
X151704804Y-131748773D01*
X151701204Y-131724505D01*
X151700000Y-131700001D01*
X151700000Y-130799999D01*
X151701204Y-130775495D01*
X151704804Y-130751227D01*
X151710765Y-130727428D01*
X151719030Y-130704329D01*
X151729520Y-130682150D01*
X151742132Y-130661107D01*
X151756747Y-130641401D01*
X151773223Y-130623223D01*
X151791401Y-130606747D01*
X151811107Y-130592132D01*
X151832150Y-130579520D01*
X151854329Y-130569030D01*
X151877428Y-130560765D01*
X151901227Y-130554804D01*
X151925495Y-130551204D01*
X151949999Y-130550000D01*
X152600001Y-130550000D01*
X152624505Y-130551204D01*
X152624505Y-130551204D01*
G37*
D12*
X152275000Y-131250000D03*
D11*
G36*
X154974505Y-132701204D02*
G01*
X154998773Y-132704804D01*
X155022572Y-132710765D01*
X155045671Y-132719030D01*
X155067850Y-132729520D01*
X155088893Y-132742132D01*
X155108599Y-132756747D01*
X155126777Y-132773223D01*
X155143253Y-132791401D01*
X155157868Y-132811107D01*
X155170480Y-132832150D01*
X155180970Y-132854329D01*
X155189235Y-132877428D01*
X155195196Y-132901227D01*
X155198796Y-132925495D01*
X155200000Y-132949999D01*
X155200000Y-133600001D01*
X155198796Y-133624505D01*
X155195196Y-133648773D01*
X155189235Y-133672572D01*
X155180970Y-133695671D01*
X155170480Y-133717850D01*
X155157868Y-133738893D01*
X155143253Y-133758599D01*
X155126777Y-133776777D01*
X155108599Y-133793253D01*
X155088893Y-133807868D01*
X155067850Y-133820480D01*
X155045671Y-133830970D01*
X155022572Y-133839235D01*
X154998773Y-133845196D01*
X154974505Y-133848796D01*
X154950001Y-133850000D01*
X154049999Y-133850000D01*
X154025495Y-133848796D01*
X154001227Y-133845196D01*
X153977428Y-133839235D01*
X153954329Y-133830970D01*
X153932150Y-133820480D01*
X153911107Y-133807868D01*
X153891401Y-133793253D01*
X153873223Y-133776777D01*
X153856747Y-133758599D01*
X153842132Y-133738893D01*
X153829520Y-133717850D01*
X153819030Y-133695671D01*
X153810765Y-133672572D01*
X153804804Y-133648773D01*
X153801204Y-133624505D01*
X153800000Y-133600001D01*
X153800000Y-132949999D01*
X153801204Y-132925495D01*
X153804804Y-132901227D01*
X153810765Y-132877428D01*
X153819030Y-132854329D01*
X153829520Y-132832150D01*
X153842132Y-132811107D01*
X153856747Y-132791401D01*
X153873223Y-132773223D01*
X153891401Y-132756747D01*
X153911107Y-132742132D01*
X153932150Y-132729520D01*
X153954329Y-132719030D01*
X153977428Y-132710765D01*
X154001227Y-132704804D01*
X154025495Y-132701204D01*
X154049999Y-132700000D01*
X154950001Y-132700000D01*
X154974505Y-132701204D01*
X154974505Y-132701204D01*
G37*
D12*
X154500000Y-133275000D03*
D11*
G36*
X154974505Y-130651204D02*
G01*
X154998773Y-130654804D01*
X155022572Y-130660765D01*
X155045671Y-130669030D01*
X155067850Y-130679520D01*
X155088893Y-130692132D01*
X155108599Y-130706747D01*
X155126777Y-130723223D01*
X155143253Y-130741401D01*
X155157868Y-130761107D01*
X155170480Y-130782150D01*
X155180970Y-130804329D01*
X155189235Y-130827428D01*
X155195196Y-130851227D01*
X155198796Y-130875495D01*
X155200000Y-130899999D01*
X155200000Y-131550001D01*
X155198796Y-131574505D01*
X155195196Y-131598773D01*
X155189235Y-131622572D01*
X155180970Y-131645671D01*
X155170480Y-131667850D01*
X155157868Y-131688893D01*
X155143253Y-131708599D01*
X155126777Y-131726777D01*
X155108599Y-131743253D01*
X155088893Y-131757868D01*
X155067850Y-131770480D01*
X155045671Y-131780970D01*
X155022572Y-131789235D01*
X154998773Y-131795196D01*
X154974505Y-131798796D01*
X154950001Y-131800000D01*
X154049999Y-131800000D01*
X154025495Y-131798796D01*
X154001227Y-131795196D01*
X153977428Y-131789235D01*
X153954329Y-131780970D01*
X153932150Y-131770480D01*
X153911107Y-131757868D01*
X153891401Y-131743253D01*
X153873223Y-131726777D01*
X153856747Y-131708599D01*
X153842132Y-131688893D01*
X153829520Y-131667850D01*
X153819030Y-131645671D01*
X153810765Y-131622572D01*
X153804804Y-131598773D01*
X153801204Y-131574505D01*
X153800000Y-131550001D01*
X153800000Y-130899999D01*
X153801204Y-130875495D01*
X153804804Y-130851227D01*
X153810765Y-130827428D01*
X153819030Y-130804329D01*
X153829520Y-130782150D01*
X153842132Y-130761107D01*
X153856747Y-130741401D01*
X153873223Y-130723223D01*
X153891401Y-130706747D01*
X153911107Y-130692132D01*
X153932150Y-130679520D01*
X153954329Y-130669030D01*
X153977428Y-130660765D01*
X154001227Y-130654804D01*
X154025495Y-130651204D01*
X154049999Y-130650000D01*
X154950001Y-130650000D01*
X154974505Y-130651204D01*
X154974505Y-130651204D01*
G37*
D12*
X154500000Y-131225000D03*
D11*
G36*
X148224505Y-132476204D02*
G01*
X148248773Y-132479804D01*
X148272572Y-132485765D01*
X148295671Y-132494030D01*
X148317850Y-132504520D01*
X148338893Y-132517132D01*
X148358599Y-132531747D01*
X148376777Y-132548223D01*
X148393253Y-132566401D01*
X148407868Y-132586107D01*
X148420480Y-132607150D01*
X148430970Y-132629329D01*
X148439235Y-132652428D01*
X148445196Y-132676227D01*
X148448796Y-132700495D01*
X148450000Y-132724999D01*
X148450000Y-133375001D01*
X148448796Y-133399505D01*
X148445196Y-133423773D01*
X148439235Y-133447572D01*
X148430970Y-133470671D01*
X148420480Y-133492850D01*
X148407868Y-133513893D01*
X148393253Y-133533599D01*
X148376777Y-133551777D01*
X148358599Y-133568253D01*
X148338893Y-133582868D01*
X148317850Y-133595480D01*
X148295671Y-133605970D01*
X148272572Y-133614235D01*
X148248773Y-133620196D01*
X148224505Y-133623796D01*
X148200001Y-133625000D01*
X147299999Y-133625000D01*
X147275495Y-133623796D01*
X147251227Y-133620196D01*
X147227428Y-133614235D01*
X147204329Y-133605970D01*
X147182150Y-133595480D01*
X147161107Y-133582868D01*
X147141401Y-133568253D01*
X147123223Y-133551777D01*
X147106747Y-133533599D01*
X147092132Y-133513893D01*
X147079520Y-133492850D01*
X147069030Y-133470671D01*
X147060765Y-133447572D01*
X147054804Y-133423773D01*
X147051204Y-133399505D01*
X147050000Y-133375001D01*
X147050000Y-132724999D01*
X147051204Y-132700495D01*
X147054804Y-132676227D01*
X147060765Y-132652428D01*
X147069030Y-132629329D01*
X147079520Y-132607150D01*
X147092132Y-132586107D01*
X147106747Y-132566401D01*
X147123223Y-132548223D01*
X147141401Y-132531747D01*
X147161107Y-132517132D01*
X147182150Y-132504520D01*
X147204329Y-132494030D01*
X147227428Y-132485765D01*
X147251227Y-132479804D01*
X147275495Y-132476204D01*
X147299999Y-132475000D01*
X148200001Y-132475000D01*
X148224505Y-132476204D01*
X148224505Y-132476204D01*
G37*
D12*
X147750000Y-133050000D03*
D11*
G36*
X148224505Y-130426204D02*
G01*
X148248773Y-130429804D01*
X148272572Y-130435765D01*
X148295671Y-130444030D01*
X148317850Y-130454520D01*
X148338893Y-130467132D01*
X148358599Y-130481747D01*
X148376777Y-130498223D01*
X148393253Y-130516401D01*
X148407868Y-130536107D01*
X148420480Y-130557150D01*
X148430970Y-130579329D01*
X148439235Y-130602428D01*
X148445196Y-130626227D01*
X148448796Y-130650495D01*
X148450000Y-130674999D01*
X148450000Y-131325001D01*
X148448796Y-131349505D01*
X148445196Y-131373773D01*
X148439235Y-131397572D01*
X148430970Y-131420671D01*
X148420480Y-131442850D01*
X148407868Y-131463893D01*
X148393253Y-131483599D01*
X148376777Y-131501777D01*
X148358599Y-131518253D01*
X148338893Y-131532868D01*
X148317850Y-131545480D01*
X148295671Y-131555970D01*
X148272572Y-131564235D01*
X148248773Y-131570196D01*
X148224505Y-131573796D01*
X148200001Y-131575000D01*
X147299999Y-131575000D01*
X147275495Y-131573796D01*
X147251227Y-131570196D01*
X147227428Y-131564235D01*
X147204329Y-131555970D01*
X147182150Y-131545480D01*
X147161107Y-131532868D01*
X147141401Y-131518253D01*
X147123223Y-131501777D01*
X147106747Y-131483599D01*
X147092132Y-131463893D01*
X147079520Y-131442850D01*
X147069030Y-131420671D01*
X147060765Y-131397572D01*
X147054804Y-131373773D01*
X147051204Y-131349505D01*
X147050000Y-131325001D01*
X147050000Y-130674999D01*
X147051204Y-130650495D01*
X147054804Y-130626227D01*
X147060765Y-130602428D01*
X147069030Y-130579329D01*
X147079520Y-130557150D01*
X147092132Y-130536107D01*
X147106747Y-130516401D01*
X147123223Y-130498223D01*
X147141401Y-130481747D01*
X147161107Y-130467132D01*
X147182150Y-130454520D01*
X147204329Y-130444030D01*
X147227428Y-130435765D01*
X147251227Y-130429804D01*
X147275495Y-130426204D01*
X147299999Y-130425000D01*
X148200001Y-130425000D01*
X148224505Y-130426204D01*
X148224505Y-130426204D01*
G37*
D12*
X147750000Y-131000000D03*
D11*
G36*
X142224505Y-132201204D02*
G01*
X142248773Y-132204804D01*
X142272572Y-132210765D01*
X142295671Y-132219030D01*
X142317850Y-132229520D01*
X142338893Y-132242132D01*
X142358599Y-132256747D01*
X142376777Y-132273223D01*
X142393253Y-132291401D01*
X142407868Y-132311107D01*
X142420480Y-132332150D01*
X142430970Y-132354329D01*
X142439235Y-132377428D01*
X142445196Y-132401227D01*
X142448796Y-132425495D01*
X142450000Y-132449999D01*
X142450000Y-133100001D01*
X142448796Y-133124505D01*
X142445196Y-133148773D01*
X142439235Y-133172572D01*
X142430970Y-133195671D01*
X142420480Y-133217850D01*
X142407868Y-133238893D01*
X142393253Y-133258599D01*
X142376777Y-133276777D01*
X142358599Y-133293253D01*
X142338893Y-133307868D01*
X142317850Y-133320480D01*
X142295671Y-133330970D01*
X142272572Y-133339235D01*
X142248773Y-133345196D01*
X142224505Y-133348796D01*
X142200001Y-133350000D01*
X141299999Y-133350000D01*
X141275495Y-133348796D01*
X141251227Y-133345196D01*
X141227428Y-133339235D01*
X141204329Y-133330970D01*
X141182150Y-133320480D01*
X141161107Y-133307868D01*
X141141401Y-133293253D01*
X141123223Y-133276777D01*
X141106747Y-133258599D01*
X141092132Y-133238893D01*
X141079520Y-133217850D01*
X141069030Y-133195671D01*
X141060765Y-133172572D01*
X141054804Y-133148773D01*
X141051204Y-133124505D01*
X141050000Y-133100001D01*
X141050000Y-132449999D01*
X141051204Y-132425495D01*
X141054804Y-132401227D01*
X141060765Y-132377428D01*
X141069030Y-132354329D01*
X141079520Y-132332150D01*
X141092132Y-132311107D01*
X141106747Y-132291401D01*
X141123223Y-132273223D01*
X141141401Y-132256747D01*
X141161107Y-132242132D01*
X141182150Y-132229520D01*
X141204329Y-132219030D01*
X141227428Y-132210765D01*
X141251227Y-132204804D01*
X141275495Y-132201204D01*
X141299999Y-132200000D01*
X142200001Y-132200000D01*
X142224505Y-132201204D01*
X142224505Y-132201204D01*
G37*
D12*
X141750000Y-132775000D03*
D11*
G36*
X142224505Y-130151204D02*
G01*
X142248773Y-130154804D01*
X142272572Y-130160765D01*
X142295671Y-130169030D01*
X142317850Y-130179520D01*
X142338893Y-130192132D01*
X142358599Y-130206747D01*
X142376777Y-130223223D01*
X142393253Y-130241401D01*
X142407868Y-130261107D01*
X142420480Y-130282150D01*
X142430970Y-130304329D01*
X142439235Y-130327428D01*
X142445196Y-130351227D01*
X142448796Y-130375495D01*
X142450000Y-130399999D01*
X142450000Y-131050001D01*
X142448796Y-131074505D01*
X142445196Y-131098773D01*
X142439235Y-131122572D01*
X142430970Y-131145671D01*
X142420480Y-131167850D01*
X142407868Y-131188893D01*
X142393253Y-131208599D01*
X142376777Y-131226777D01*
X142358599Y-131243253D01*
X142338893Y-131257868D01*
X142317850Y-131270480D01*
X142295671Y-131280970D01*
X142272572Y-131289235D01*
X142248773Y-131295196D01*
X142224505Y-131298796D01*
X142200001Y-131300000D01*
X141299999Y-131300000D01*
X141275495Y-131298796D01*
X141251227Y-131295196D01*
X141227428Y-131289235D01*
X141204329Y-131280970D01*
X141182150Y-131270480D01*
X141161107Y-131257868D01*
X141141401Y-131243253D01*
X141123223Y-131226777D01*
X141106747Y-131208599D01*
X141092132Y-131188893D01*
X141079520Y-131167850D01*
X141069030Y-131145671D01*
X141060765Y-131122572D01*
X141054804Y-131098773D01*
X141051204Y-131074505D01*
X141050000Y-131050001D01*
X141050000Y-130399999D01*
X141051204Y-130375495D01*
X141054804Y-130351227D01*
X141060765Y-130327428D01*
X141069030Y-130304329D01*
X141079520Y-130282150D01*
X141092132Y-130261107D01*
X141106747Y-130241401D01*
X141123223Y-130223223D01*
X141141401Y-130206747D01*
X141161107Y-130192132D01*
X141182150Y-130179520D01*
X141204329Y-130169030D01*
X141227428Y-130160765D01*
X141251227Y-130154804D01*
X141275495Y-130151204D01*
X141299999Y-130150000D01*
X142200001Y-130150000D01*
X142224505Y-130151204D01*
X142224505Y-130151204D01*
G37*
D12*
X141750000Y-130725000D03*
D11*
G36*
X136224505Y-132201204D02*
G01*
X136248773Y-132204804D01*
X136272572Y-132210765D01*
X136295671Y-132219030D01*
X136317850Y-132229520D01*
X136338893Y-132242132D01*
X136358599Y-132256747D01*
X136376777Y-132273223D01*
X136393253Y-132291401D01*
X136407868Y-132311107D01*
X136420480Y-132332150D01*
X136430970Y-132354329D01*
X136439235Y-132377428D01*
X136445196Y-132401227D01*
X136448796Y-132425495D01*
X136450000Y-132449999D01*
X136450000Y-133100001D01*
X136448796Y-133124505D01*
X136445196Y-133148773D01*
X136439235Y-133172572D01*
X136430970Y-133195671D01*
X136420480Y-133217850D01*
X136407868Y-133238893D01*
X136393253Y-133258599D01*
X136376777Y-133276777D01*
X136358599Y-133293253D01*
X136338893Y-133307868D01*
X136317850Y-133320480D01*
X136295671Y-133330970D01*
X136272572Y-133339235D01*
X136248773Y-133345196D01*
X136224505Y-133348796D01*
X136200001Y-133350000D01*
X135299999Y-133350000D01*
X135275495Y-133348796D01*
X135251227Y-133345196D01*
X135227428Y-133339235D01*
X135204329Y-133330970D01*
X135182150Y-133320480D01*
X135161107Y-133307868D01*
X135141401Y-133293253D01*
X135123223Y-133276777D01*
X135106747Y-133258599D01*
X135092132Y-133238893D01*
X135079520Y-133217850D01*
X135069030Y-133195671D01*
X135060765Y-133172572D01*
X135054804Y-133148773D01*
X135051204Y-133124505D01*
X135050000Y-133100001D01*
X135050000Y-132449999D01*
X135051204Y-132425495D01*
X135054804Y-132401227D01*
X135060765Y-132377428D01*
X135069030Y-132354329D01*
X135079520Y-132332150D01*
X135092132Y-132311107D01*
X135106747Y-132291401D01*
X135123223Y-132273223D01*
X135141401Y-132256747D01*
X135161107Y-132242132D01*
X135182150Y-132229520D01*
X135204329Y-132219030D01*
X135227428Y-132210765D01*
X135251227Y-132204804D01*
X135275495Y-132201204D01*
X135299999Y-132200000D01*
X136200001Y-132200000D01*
X136224505Y-132201204D01*
X136224505Y-132201204D01*
G37*
D12*
X135750000Y-132775000D03*
D11*
G36*
X136224505Y-130151204D02*
G01*
X136248773Y-130154804D01*
X136272572Y-130160765D01*
X136295671Y-130169030D01*
X136317850Y-130179520D01*
X136338893Y-130192132D01*
X136358599Y-130206747D01*
X136376777Y-130223223D01*
X136393253Y-130241401D01*
X136407868Y-130261107D01*
X136420480Y-130282150D01*
X136430970Y-130304329D01*
X136439235Y-130327428D01*
X136445196Y-130351227D01*
X136448796Y-130375495D01*
X136450000Y-130399999D01*
X136450000Y-131050001D01*
X136448796Y-131074505D01*
X136445196Y-131098773D01*
X136439235Y-131122572D01*
X136430970Y-131145671D01*
X136420480Y-131167850D01*
X136407868Y-131188893D01*
X136393253Y-131208599D01*
X136376777Y-131226777D01*
X136358599Y-131243253D01*
X136338893Y-131257868D01*
X136317850Y-131270480D01*
X136295671Y-131280970D01*
X136272572Y-131289235D01*
X136248773Y-131295196D01*
X136224505Y-131298796D01*
X136200001Y-131300000D01*
X135299999Y-131300000D01*
X135275495Y-131298796D01*
X135251227Y-131295196D01*
X135227428Y-131289235D01*
X135204329Y-131280970D01*
X135182150Y-131270480D01*
X135161107Y-131257868D01*
X135141401Y-131243253D01*
X135123223Y-131226777D01*
X135106747Y-131208599D01*
X135092132Y-131188893D01*
X135079520Y-131167850D01*
X135069030Y-131145671D01*
X135060765Y-131122572D01*
X135054804Y-131098773D01*
X135051204Y-131074505D01*
X135050000Y-131050001D01*
X135050000Y-130399999D01*
X135051204Y-130375495D01*
X135054804Y-130351227D01*
X135060765Y-130327428D01*
X135069030Y-130304329D01*
X135079520Y-130282150D01*
X135092132Y-130261107D01*
X135106747Y-130241401D01*
X135123223Y-130223223D01*
X135141401Y-130206747D01*
X135161107Y-130192132D01*
X135182150Y-130179520D01*
X135204329Y-130169030D01*
X135227428Y-130160765D01*
X135251227Y-130154804D01*
X135275495Y-130151204D01*
X135299999Y-130150000D01*
X136200001Y-130150000D01*
X136224505Y-130151204D01*
X136224505Y-130151204D01*
G37*
D12*
X135750000Y-130725000D03*
D13*
X145750000Y-130750000D03*
X145750000Y-133250000D03*
X139750000Y-130500000D03*
X139750000Y-133000000D03*
X133750000Y-130500000D03*
X133750000Y-133000000D03*
D18*
X153300000Y-126840000D03*
X154250000Y-126840000D03*
X155200000Y-126840000D03*
X155200000Y-129160000D03*
X154250000Y-129160000D03*
X153300000Y-129160000D03*
D15*
X156185000Y-121350000D03*
X155335000Y-121350000D03*
X157035000Y-121350000D03*
X156185000Y-123650000D03*
X155335000Y-123650000D03*
X157035000Y-123650000D03*
X157035000Y-122500000D03*
X155335000Y-122500000D03*
D16*
X158885000Y-120620000D03*
X158885000Y-124380000D03*
X158885000Y-121900000D03*
D17*
X153165000Y-121860000D03*
X153165000Y-120590000D03*
X153165000Y-123140000D03*
X153165000Y-124410000D03*
D16*
X158885000Y-123100000D03*
D15*
X156185000Y-122500000D03*
D11*
G36*
X151149504Y-123276204D02*
G01*
X151173773Y-123279804D01*
X151197571Y-123285765D01*
X151220671Y-123294030D01*
X151242849Y-123304520D01*
X151263893Y-123317133D01*
X151283598Y-123331747D01*
X151301777Y-123348223D01*
X151318253Y-123366402D01*
X151332867Y-123386107D01*
X151345480Y-123407151D01*
X151355970Y-123429329D01*
X151364235Y-123452429D01*
X151370196Y-123476227D01*
X151373796Y-123500496D01*
X151375000Y-123525000D01*
X151375000Y-124450000D01*
X151373796Y-124474504D01*
X151370196Y-124498773D01*
X151364235Y-124522571D01*
X151355970Y-124545671D01*
X151345480Y-124567849D01*
X151332867Y-124588893D01*
X151318253Y-124608598D01*
X151301777Y-124626777D01*
X151283598Y-124643253D01*
X151263893Y-124657867D01*
X151242849Y-124670480D01*
X151220671Y-124680970D01*
X151197571Y-124689235D01*
X151173773Y-124695196D01*
X151149504Y-124698796D01*
X151125000Y-124700000D01*
X149875000Y-124700000D01*
X149850496Y-124698796D01*
X149826227Y-124695196D01*
X149802429Y-124689235D01*
X149779329Y-124680970D01*
X149757151Y-124670480D01*
X149736107Y-124657867D01*
X149716402Y-124643253D01*
X149698223Y-124626777D01*
X149681747Y-124608598D01*
X149667133Y-124588893D01*
X149654520Y-124567849D01*
X149644030Y-124545671D01*
X149635765Y-124522571D01*
X149629804Y-124498773D01*
X149626204Y-124474504D01*
X149625000Y-124450000D01*
X149625000Y-123525000D01*
X149626204Y-123500496D01*
X149629804Y-123476227D01*
X149635765Y-123452429D01*
X149644030Y-123429329D01*
X149654520Y-123407151D01*
X149667133Y-123386107D01*
X149681747Y-123366402D01*
X149698223Y-123348223D01*
X149716402Y-123331747D01*
X149736107Y-123317133D01*
X149757151Y-123304520D01*
X149779329Y-123294030D01*
X149802429Y-123285765D01*
X149826227Y-123279804D01*
X149850496Y-123276204D01*
X149875000Y-123275000D01*
X151125000Y-123275000D01*
X151149504Y-123276204D01*
X151149504Y-123276204D01*
G37*
D14*
X150500000Y-123987500D03*
D11*
G36*
X151149504Y-120301204D02*
G01*
X151173773Y-120304804D01*
X151197571Y-120310765D01*
X151220671Y-120319030D01*
X151242849Y-120329520D01*
X151263893Y-120342133D01*
X151283598Y-120356747D01*
X151301777Y-120373223D01*
X151318253Y-120391402D01*
X151332867Y-120411107D01*
X151345480Y-120432151D01*
X151355970Y-120454329D01*
X151364235Y-120477429D01*
X151370196Y-120501227D01*
X151373796Y-120525496D01*
X151375000Y-120550000D01*
X151375000Y-121475000D01*
X151373796Y-121499504D01*
X151370196Y-121523773D01*
X151364235Y-121547571D01*
X151355970Y-121570671D01*
X151345480Y-121592849D01*
X151332867Y-121613893D01*
X151318253Y-121633598D01*
X151301777Y-121651777D01*
X151283598Y-121668253D01*
X151263893Y-121682867D01*
X151242849Y-121695480D01*
X151220671Y-121705970D01*
X151197571Y-121714235D01*
X151173773Y-121720196D01*
X151149504Y-121723796D01*
X151125000Y-121725000D01*
X149875000Y-121725000D01*
X149850496Y-121723796D01*
X149826227Y-121720196D01*
X149802429Y-121714235D01*
X149779329Y-121705970D01*
X149757151Y-121695480D01*
X149736107Y-121682867D01*
X149716402Y-121668253D01*
X149698223Y-121651777D01*
X149681747Y-121633598D01*
X149667133Y-121613893D01*
X149654520Y-121592849D01*
X149644030Y-121570671D01*
X149635765Y-121547571D01*
X149629804Y-121523773D01*
X149626204Y-121499504D01*
X149625000Y-121475000D01*
X149625000Y-120550000D01*
X149626204Y-120525496D01*
X149629804Y-120501227D01*
X149635765Y-120477429D01*
X149644030Y-120454329D01*
X149654520Y-120432151D01*
X149667133Y-120411107D01*
X149681747Y-120391402D01*
X149698223Y-120373223D01*
X149716402Y-120356747D01*
X149736107Y-120342133D01*
X149757151Y-120329520D01*
X149779329Y-120319030D01*
X149802429Y-120310765D01*
X149826227Y-120304804D01*
X149850496Y-120301204D01*
X149875000Y-120300000D01*
X151125000Y-120300000D01*
X151149504Y-120301204D01*
X151149504Y-120301204D01*
G37*
D14*
X150500000Y-121012500D03*
M02*
