%FSLAX45Y45*%
G04 Gerber Fmt 4.5, Leading zero omitted, Abs format (unit mm)*
G04 Created by KiCad (PCBNEW (5.1.4)-1) date 2021-09-06 11:03:48*
%MOMM*%
%LPD*%
G04 APERTURE LIST*
%ADD10C,0.050000*%
%ADD11C,0.200000*%
%ADD12C,0.300000*%
G04 APERTURE END LIST*
D10*
X22125000Y-13875000D02*
X13125000Y-13875000D01*
X22125000Y-8625000D02*
X13125000Y-8625000D01*
X22125000Y-13875000D02*
X22125000Y-8625000D01*
X13125000Y-8625000D02*
X13125000Y-13875000D01*
D11*
X13355000Y-11880000D02*
X13395000Y-11920000D01*
X13395000Y-11880000D02*
X13355000Y-11920000D01*
X13505000Y-12355000D02*
X13545000Y-12395000D01*
X13545000Y-12355000D02*
X13505000Y-12395000D01*
X13730000Y-12180000D02*
X13770000Y-12220000D01*
X13770000Y-12180000D02*
X13730000Y-12220000D01*
X13780000Y-11880000D02*
X13820000Y-11920000D01*
X13820000Y-11880000D02*
X13780000Y-11920000D01*
X13830000Y-12180000D02*
X13870000Y-12220000D01*
X13870000Y-12180000D02*
X13830000Y-12220000D01*
X13830000Y-12505000D02*
X13870000Y-12545000D01*
X13870000Y-12505000D02*
X13830000Y-12545000D01*
X14180000Y-11880000D02*
X14220000Y-11920000D01*
X14220000Y-11880000D02*
X14180000Y-11920000D01*
X14330000Y-12180000D02*
X14370000Y-12220000D01*
X14370000Y-12180000D02*
X14330000Y-12220000D01*
X14405000Y-12505000D02*
X14445000Y-12545000D01*
X14445000Y-12505000D02*
X14405000Y-12545000D01*
X14430000Y-12180000D02*
X14470000Y-12220000D01*
X14470000Y-12180000D02*
X14430000Y-12220000D01*
X14580000Y-11905000D02*
X14620000Y-11945000D01*
X14620000Y-11905000D02*
X14580000Y-11945000D01*
X14730000Y-11805000D02*
X14770000Y-11845000D01*
X14770000Y-11805000D02*
X14730000Y-11845000D01*
X14880000Y-12205000D02*
X14920000Y-12245000D01*
X14920000Y-12205000D02*
X14880000Y-12245000D01*
X14930000Y-12930000D02*
X14970000Y-12970000D01*
X14970000Y-12930000D02*
X14930000Y-12970000D01*
X14955000Y-12005000D02*
X14995000Y-12045000D01*
X14995000Y-12005000D02*
X14955000Y-12045000D01*
X14955000Y-13330000D02*
X14995000Y-13370000D01*
X14995000Y-13330000D02*
X14955000Y-13370000D01*
X15030000Y-12081250D02*
X15070000Y-12121250D01*
X15070000Y-12081250D02*
X15030000Y-12121250D01*
X15030000Y-12380000D02*
X15070000Y-12420000D01*
X15070000Y-12380000D02*
X15030000Y-12420000D01*
X15130000Y-11905000D02*
X15170000Y-11945000D01*
X15170000Y-11905000D02*
X15130000Y-11945000D01*
X15180000Y-12530000D02*
X15220000Y-12570000D01*
X15220000Y-12530000D02*
X15180000Y-12570000D01*
X15255000Y-11830000D02*
X15295000Y-11870000D01*
X15295000Y-11830000D02*
X15255000Y-11870000D01*
X15296500Y-12294000D02*
X15336500Y-12334000D01*
X15336500Y-12294000D02*
X15296500Y-12334000D01*
X15405000Y-12955000D02*
X15445000Y-12995000D01*
X15445000Y-12955000D02*
X15405000Y-12995000D01*
X15405000Y-13105000D02*
X15445000Y-13145000D01*
X15445000Y-13105000D02*
X15405000Y-13145000D01*
X15430000Y-11905000D02*
X15470000Y-11945000D01*
X15470000Y-11905000D02*
X15430000Y-11945000D01*
X15580000Y-13180000D02*
X15620000Y-13220000D01*
X15620000Y-13180000D02*
X15580000Y-13220000D01*
X15605000Y-12605000D02*
X15645000Y-12645000D01*
X15645000Y-12605000D02*
X15605000Y-12645000D01*
X15705000Y-13155000D02*
X15745000Y-13195000D01*
X15745000Y-13155000D02*
X15705000Y-13195000D01*
X15755000Y-11780000D02*
X15795000Y-11820000D01*
X15795000Y-11780000D02*
X15755000Y-11820000D01*
X15880000Y-11855000D02*
X15920000Y-11895000D01*
X15920000Y-11855000D02*
X15880000Y-11895000D01*
X15905000Y-12630000D02*
X15945000Y-12670000D01*
X15945000Y-12630000D02*
X15905000Y-12670000D01*
X16355000Y-11880000D02*
X16395000Y-11920000D01*
X16395000Y-11880000D02*
X16355000Y-11920000D01*
X16505000Y-12355000D02*
X16545000Y-12395000D01*
X16545000Y-12355000D02*
X16505000Y-12395000D01*
X16730000Y-12180000D02*
X16770000Y-12220000D01*
X16770000Y-12180000D02*
X16730000Y-12220000D01*
X16780000Y-11880000D02*
X16820000Y-11920000D01*
X16820000Y-11880000D02*
X16780000Y-11920000D01*
X16830000Y-12505000D02*
X16870000Y-12545000D01*
X16870000Y-12505000D02*
X16830000Y-12545000D01*
X16855000Y-12180000D02*
X16895000Y-12220000D01*
X16895000Y-12180000D02*
X16855000Y-12220000D01*
X17180000Y-11880000D02*
X17220000Y-11920000D01*
X17220000Y-11880000D02*
X17180000Y-11920000D01*
X17330000Y-12180000D02*
X17370000Y-12220000D01*
X17370000Y-12180000D02*
X17330000Y-12220000D01*
X17405000Y-12505000D02*
X17445000Y-12545000D01*
X17445000Y-12505000D02*
X17405000Y-12545000D01*
X17430000Y-12180000D02*
X17470000Y-12220000D01*
X17470000Y-12180000D02*
X17430000Y-12220000D01*
X17580000Y-11905000D02*
X17620000Y-11945000D01*
X17620000Y-11905000D02*
X17580000Y-11945000D01*
X17730000Y-11805000D02*
X17770000Y-11845000D01*
X17770000Y-11805000D02*
X17730000Y-11845000D01*
X17880000Y-12205000D02*
X17920000Y-12245000D01*
X17920000Y-12205000D02*
X17880000Y-12245000D01*
X17930000Y-12930000D02*
X17970000Y-12970000D01*
X17970000Y-12930000D02*
X17930000Y-12970000D01*
X17955000Y-12005000D02*
X17995000Y-12045000D01*
X17995000Y-12005000D02*
X17955000Y-12045000D01*
X17955000Y-13330000D02*
X17995000Y-13370000D01*
X17995000Y-13330000D02*
X17955000Y-13370000D01*
X18030000Y-12081250D02*
X18070000Y-12121250D01*
X18070000Y-12081250D02*
X18030000Y-12121250D01*
X18030000Y-12380000D02*
X18070000Y-12420000D01*
X18070000Y-12380000D02*
X18030000Y-12420000D01*
X18130000Y-11905000D02*
X18170000Y-11945000D01*
X18170000Y-11905000D02*
X18130000Y-11945000D01*
X18180000Y-12530000D02*
X18220000Y-12570000D01*
X18220000Y-12530000D02*
X18180000Y-12570000D01*
X18255000Y-11830000D02*
X18295000Y-11870000D01*
X18295000Y-11830000D02*
X18255000Y-11870000D01*
X18296500Y-12294000D02*
X18336500Y-12334000D01*
X18336500Y-12294000D02*
X18296500Y-12334000D01*
X18405000Y-12955000D02*
X18445000Y-12995000D01*
X18445000Y-12955000D02*
X18405000Y-12995000D01*
X18405000Y-13105000D02*
X18445000Y-13145000D01*
X18445000Y-13105000D02*
X18405000Y-13145000D01*
X18430000Y-11905000D02*
X18470000Y-11945000D01*
X18470000Y-11905000D02*
X18430000Y-11945000D01*
X18580000Y-13180000D02*
X18620000Y-13220000D01*
X18620000Y-13180000D02*
X18580000Y-13220000D01*
X18605000Y-12605000D02*
X18645000Y-12645000D01*
X18645000Y-12605000D02*
X18605000Y-12645000D01*
X18705000Y-13155000D02*
X18745000Y-13195000D01*
X18745000Y-13155000D02*
X18705000Y-13195000D01*
X18755000Y-11780000D02*
X18795000Y-11820000D01*
X18795000Y-11780000D02*
X18755000Y-11820000D01*
X18880000Y-11855000D02*
X18920000Y-11895000D01*
X18920000Y-11855000D02*
X18880000Y-11895000D01*
X18905000Y-12630000D02*
X18945000Y-12670000D01*
X18945000Y-12630000D02*
X18905000Y-12670000D01*
X19355000Y-11880000D02*
X19395000Y-11920000D01*
X19395000Y-11880000D02*
X19355000Y-11920000D01*
X19505000Y-12355000D02*
X19545000Y-12395000D01*
X19545000Y-12355000D02*
X19505000Y-12395000D01*
X19730000Y-12180000D02*
X19770000Y-12220000D01*
X19770000Y-12180000D02*
X19730000Y-12220000D01*
X19780000Y-11880000D02*
X19820000Y-11920000D01*
X19820000Y-11880000D02*
X19780000Y-11920000D01*
X19830000Y-12505000D02*
X19870000Y-12545000D01*
X19870000Y-12505000D02*
X19830000Y-12545000D01*
X19855000Y-12180000D02*
X19895000Y-12220000D01*
X19895000Y-12180000D02*
X19855000Y-12220000D01*
X20180000Y-11880000D02*
X20220000Y-11920000D01*
X20220000Y-11880000D02*
X20180000Y-11920000D01*
X20330000Y-12180000D02*
X20370000Y-12220000D01*
X20370000Y-12180000D02*
X20330000Y-12220000D01*
X20405000Y-12505000D02*
X20445000Y-12545000D01*
X20445000Y-12505000D02*
X20405000Y-12545000D01*
X20430000Y-12180000D02*
X20470000Y-12220000D01*
X20470000Y-12180000D02*
X20430000Y-12220000D01*
X20580000Y-11905000D02*
X20620000Y-11945000D01*
X20620000Y-11905000D02*
X20580000Y-11945000D01*
X20730000Y-11805000D02*
X20770000Y-11845000D01*
X20770000Y-11805000D02*
X20730000Y-11845000D01*
X20880000Y-12205000D02*
X20920000Y-12245000D01*
X20920000Y-12205000D02*
X20880000Y-12245000D01*
X20930000Y-12930000D02*
X20970000Y-12970000D01*
X20970000Y-12930000D02*
X20930000Y-12970000D01*
X20955000Y-12005000D02*
X20995000Y-12045000D01*
X20995000Y-12005000D02*
X20955000Y-12045000D01*
X20955000Y-13330000D02*
X20995000Y-13370000D01*
X20995000Y-13330000D02*
X20955000Y-13370000D01*
X21030000Y-12081250D02*
X21070000Y-12121250D01*
X21070000Y-12081250D02*
X21030000Y-12121250D01*
X21030000Y-12380000D02*
X21070000Y-12420000D01*
X21070000Y-12380000D02*
X21030000Y-12420000D01*
X21130000Y-11905000D02*
X21170000Y-11945000D01*
X21170000Y-11905000D02*
X21130000Y-11945000D01*
X21180000Y-12530000D02*
X21220000Y-12570000D01*
X21220000Y-12530000D02*
X21180000Y-12570000D01*
X21255000Y-11830000D02*
X21295000Y-11870000D01*
X21295000Y-11830000D02*
X21255000Y-11870000D01*
X21296500Y-12294000D02*
X21336500Y-12334000D01*
X21336500Y-12294000D02*
X21296500Y-12334000D01*
X21405000Y-12955000D02*
X21445000Y-12995000D01*
X21445000Y-12955000D02*
X21405000Y-12995000D01*
X21405000Y-13105000D02*
X21445000Y-13145000D01*
X21445000Y-13105000D02*
X21405000Y-13145000D01*
X21430000Y-11905000D02*
X21470000Y-11945000D01*
X21470000Y-11905000D02*
X21430000Y-11945000D01*
X21580000Y-13180000D02*
X21620000Y-13220000D01*
X21620000Y-13180000D02*
X21580000Y-13220000D01*
X21605000Y-12605000D02*
X21645000Y-12645000D01*
X21645000Y-12605000D02*
X21605000Y-12645000D01*
X21705000Y-13155000D02*
X21745000Y-13195000D01*
X21745000Y-13155000D02*
X21705000Y-13195000D01*
X21755000Y-11780000D02*
X21795000Y-11820000D01*
X21795000Y-11780000D02*
X21755000Y-11820000D01*
X21880000Y-11855000D02*
X21920000Y-11895000D01*
X21920000Y-11855000D02*
X21880000Y-11895000D01*
X21905000Y-12630000D02*
X21945000Y-12670000D01*
X21945000Y-12630000D02*
X21905000Y-12670000D01*
X16450000Y-13600000D02*
G75*
G03X16450000Y-13600000I-50000J0D01*
G01*
X16704000Y-13600000D02*
G75*
G03X16704000Y-13600000I-50000J0D01*
G01*
X17075000Y-13600000D02*
G75*
G03X17075000Y-13600000I-50000J0D01*
G01*
X17329000Y-13600000D02*
G75*
G03X17329000Y-13600000I-50000J0D01*
G01*
X20075000Y-13600000D02*
G75*
G03X20075000Y-13600000I-50000J0D01*
G01*
X20329000Y-13600000D02*
G75*
G03X20329000Y-13600000I-50000J0D01*
G01*
X17700000Y-13600000D02*
G75*
G03X17700000Y-13600000I-50000J0D01*
G01*
X17954000Y-13600000D02*
G75*
G03X17954000Y-13600000I-50000J0D01*
G01*
X13450000Y-13600000D02*
G75*
G03X13450000Y-13600000I-50000J0D01*
G01*
X13704000Y-13600000D02*
G75*
G03X13704000Y-13600000I-50000J0D01*
G01*
X15400000Y-13600000D02*
G75*
G03X15400000Y-13600000I-50000J0D01*
G01*
X15654000Y-13600000D02*
G75*
G03X15654000Y-13600000I-50000J0D01*
G01*
X15908000Y-13600000D02*
G75*
G03X15908000Y-13600000I-50000J0D01*
G01*
X20700000Y-13600000D02*
G75*
G03X20700000Y-13600000I-50000J0D01*
G01*
X20954000Y-13600000D02*
G75*
G03X20954000Y-13600000I-50000J0D01*
G01*
X14075000Y-13600000D02*
G75*
G03X14075000Y-13600000I-50000J0D01*
G01*
X14329000Y-13600000D02*
G75*
G03X14329000Y-13600000I-50000J0D01*
G01*
X21400000Y-13600000D02*
G75*
G03X21400000Y-13600000I-50000J0D01*
G01*
X21654000Y-13600000D02*
G75*
G03X21654000Y-13600000I-50000J0D01*
G01*
X21908000Y-13600000D02*
G75*
G03X21908000Y-13600000I-50000J0D01*
G01*
X18400000Y-13600000D02*
G75*
G03X18400000Y-13600000I-50000J0D01*
G01*
X18654000Y-13600000D02*
G75*
G03X18654000Y-13600000I-50000J0D01*
G01*
X18908000Y-13600000D02*
G75*
G03X18908000Y-13600000I-50000J0D01*
G01*
X19450000Y-13600000D02*
G75*
G03X19450000Y-13600000I-50000J0D01*
G01*
X19704000Y-13600000D02*
G75*
G03X19704000Y-13600000I-50000J0D01*
G01*
X14700000Y-13600000D02*
G75*
G03X14700000Y-13600000I-50000J0D01*
G01*
X14954000Y-13600000D02*
G75*
G03X14954000Y-13600000I-50000J0D01*
G01*
X17115000Y-11187500D02*
X17115000Y-11312500D01*
X17052500Y-11250000D02*
X17177500Y-11250000D01*
X18135000Y-11187500D02*
X18135000Y-11312500D01*
X18072500Y-11250000D02*
X18197500Y-11250000D01*
X20115000Y-11187500D02*
X20115000Y-11312500D01*
X20052500Y-11250000D02*
X20177500Y-11250000D01*
X21135000Y-11187500D02*
X21135000Y-11312500D01*
X21072500Y-11250000D02*
X21197500Y-11250000D01*
X14115000Y-11187500D02*
X14115000Y-11312500D01*
X14052500Y-11250000D02*
X14177500Y-11250000D01*
X15135000Y-11187500D02*
X15135000Y-11312500D01*
X15072500Y-11250000D02*
X15197500Y-11250000D01*
X16823389Y-9048389D02*
X16823389Y-8871611D01*
X16646611Y-8871611D01*
X16646611Y-9048389D01*
X16823389Y-9048389D01*
X16823389Y-9808389D02*
X16823389Y-9631611D01*
X16646611Y-9631611D01*
X16646611Y-9808389D01*
X16823389Y-9808389D01*
X18603389Y-10058389D02*
X18603389Y-9881611D01*
X18426611Y-9881611D01*
X18426611Y-10058389D01*
X18603389Y-10058389D01*
X19823389Y-9048389D02*
X19823389Y-8871611D01*
X19646611Y-8871611D01*
X19646611Y-9048389D01*
X19823389Y-9048389D01*
X19823389Y-9808389D02*
X19823389Y-9631611D01*
X19646611Y-9631611D01*
X19646611Y-9808389D01*
X19823389Y-9808389D01*
X21603389Y-10058389D02*
X21603389Y-9881611D01*
X21426611Y-9881611D01*
X21426611Y-10058389D01*
X21603389Y-10058389D01*
X13823389Y-9048389D02*
X13823389Y-8871611D01*
X13646611Y-8871611D01*
X13646611Y-9048389D01*
X13823389Y-9048389D01*
X13823389Y-9808389D02*
X13823389Y-9631611D01*
X13646611Y-9631611D01*
X13646611Y-9808389D01*
X13823389Y-9808389D01*
X15603389Y-10058389D02*
X15603389Y-9881611D01*
X15426611Y-9881611D01*
X15426611Y-10058389D01*
X15603389Y-10058389D01*
D12*
X13408928Y-14343214D02*
X13408928Y-14043214D01*
X13480357Y-14043214D01*
X13523214Y-14057500D01*
X13551786Y-14086071D01*
X13566071Y-14114643D01*
X13580357Y-14171786D01*
X13580357Y-14214643D01*
X13566071Y-14271786D01*
X13551786Y-14300357D01*
X13523214Y-14328929D01*
X13480357Y-14343214D01*
X13408928Y-14343214D01*
X13708928Y-14343214D02*
X13708928Y-14143214D01*
X13708928Y-14200357D02*
X13723214Y-14171786D01*
X13737500Y-14157500D01*
X13766071Y-14143214D01*
X13794643Y-14143214D01*
X13894643Y-14343214D02*
X13894643Y-14143214D01*
X13894643Y-14043214D02*
X13880357Y-14057500D01*
X13894643Y-14071786D01*
X13908928Y-14057500D01*
X13894643Y-14043214D01*
X13894643Y-14071786D01*
X14080357Y-14343214D02*
X14051786Y-14328929D01*
X14037500Y-14300357D01*
X14037500Y-14043214D01*
X14237500Y-14343214D02*
X14208928Y-14328929D01*
X14194643Y-14300357D01*
X14194643Y-14043214D01*
X14580357Y-14343214D02*
X14580357Y-14043214D01*
X14680357Y-14257500D01*
X14780357Y-14043214D01*
X14780357Y-14343214D01*
X15051786Y-14343214D02*
X15051786Y-14186071D01*
X15037500Y-14157500D01*
X15008928Y-14143214D01*
X14951786Y-14143214D01*
X14923214Y-14157500D01*
X15051786Y-14328929D02*
X15023214Y-14343214D01*
X14951786Y-14343214D01*
X14923214Y-14328929D01*
X14908928Y-14300357D01*
X14908928Y-14271786D01*
X14923214Y-14243214D01*
X14951786Y-14228929D01*
X15023214Y-14228929D01*
X15051786Y-14214643D01*
X15194643Y-14143214D02*
X15194643Y-14443214D01*
X15194643Y-14157500D02*
X15223214Y-14143214D01*
X15280357Y-14143214D01*
X15308928Y-14157500D01*
X15323214Y-14171786D01*
X15337500Y-14200357D01*
X15337500Y-14286071D01*
X15323214Y-14314643D01*
X15308928Y-14328929D01*
X15280357Y-14343214D01*
X15223214Y-14343214D01*
X15194643Y-14328929D01*
X15466071Y-14314643D02*
X15480357Y-14328929D01*
X15466071Y-14343214D01*
X15451786Y-14328929D01*
X15466071Y-14314643D01*
X15466071Y-14343214D01*
X15466071Y-14157500D02*
X15480357Y-14171786D01*
X15466071Y-14186071D01*
X15451786Y-14171786D01*
X15466071Y-14157500D01*
X15466071Y-14186071D01*
X13082500Y-14817500D02*
X13122500Y-14857500D01*
X13122500Y-14817500D02*
X13082500Y-14857500D01*
X13466071Y-14673214D02*
X13494643Y-14673214D01*
X13523214Y-14687500D01*
X13537500Y-14701786D01*
X13551786Y-14730357D01*
X13566071Y-14787500D01*
X13566071Y-14858929D01*
X13551786Y-14916071D01*
X13537500Y-14944643D01*
X13523214Y-14958929D01*
X13494643Y-14973214D01*
X13466071Y-14973214D01*
X13437500Y-14958929D01*
X13423214Y-14944643D01*
X13408928Y-14916071D01*
X13394643Y-14858929D01*
X13394643Y-14787500D01*
X13408928Y-14730357D01*
X13423214Y-14701786D01*
X13437500Y-14687500D01*
X13466071Y-14673214D01*
X13694643Y-14944643D02*
X13708928Y-14958929D01*
X13694643Y-14973214D01*
X13680357Y-14958929D01*
X13694643Y-14944643D01*
X13694643Y-14973214D01*
X13966071Y-14773214D02*
X13966071Y-14973214D01*
X13894643Y-14658929D02*
X13823214Y-14873214D01*
X14008928Y-14873214D01*
X14180357Y-14673214D02*
X14208928Y-14673214D01*
X14237500Y-14687500D01*
X14251786Y-14701786D01*
X14266071Y-14730357D01*
X14280357Y-14787500D01*
X14280357Y-14858929D01*
X14266071Y-14916071D01*
X14251786Y-14944643D01*
X14237500Y-14958929D01*
X14208928Y-14973214D01*
X14180357Y-14973214D01*
X14151786Y-14958929D01*
X14137500Y-14944643D01*
X14123214Y-14916071D01*
X14108928Y-14858929D01*
X14108928Y-14787500D01*
X14123214Y-14730357D01*
X14137500Y-14701786D01*
X14151786Y-14687500D01*
X14180357Y-14673214D01*
X14408928Y-14973214D02*
X14408928Y-14773214D01*
X14408928Y-14801786D02*
X14423214Y-14787500D01*
X14451786Y-14773214D01*
X14494643Y-14773214D01*
X14523214Y-14787500D01*
X14537500Y-14816071D01*
X14537500Y-14973214D01*
X14537500Y-14816071D02*
X14551786Y-14787500D01*
X14580357Y-14773214D01*
X14623214Y-14773214D01*
X14651786Y-14787500D01*
X14666071Y-14816071D01*
X14666071Y-14973214D01*
X14808928Y-14973214D02*
X14808928Y-14773214D01*
X14808928Y-14801786D02*
X14823214Y-14787500D01*
X14851786Y-14773214D01*
X14894643Y-14773214D01*
X14923214Y-14787500D01*
X14937500Y-14816071D01*
X14937500Y-14973214D01*
X14937500Y-14816071D02*
X14951786Y-14787500D01*
X14980357Y-14773214D01*
X15023214Y-14773214D01*
X15051786Y-14787500D01*
X15066071Y-14816071D01*
X15066071Y-14973214D01*
X15651786Y-14658929D02*
X15394643Y-15044643D01*
X16037500Y-14673214D02*
X16066071Y-14673214D01*
X16094643Y-14687500D01*
X16108928Y-14701786D01*
X16123214Y-14730357D01*
X16137500Y-14787500D01*
X16137500Y-14858929D01*
X16123214Y-14916071D01*
X16108928Y-14944643D01*
X16094643Y-14958929D01*
X16066071Y-14973214D01*
X16037500Y-14973214D01*
X16008928Y-14958929D01*
X15994643Y-14944643D01*
X15980357Y-14916071D01*
X15966071Y-14858929D01*
X15966071Y-14787500D01*
X15980357Y-14730357D01*
X15994643Y-14701786D01*
X16008928Y-14687500D01*
X16037500Y-14673214D01*
X16266071Y-14944643D02*
X16280357Y-14958929D01*
X16266071Y-14973214D01*
X16251786Y-14958929D01*
X16266071Y-14944643D01*
X16266071Y-14973214D01*
X16466071Y-14673214D02*
X16494643Y-14673214D01*
X16523214Y-14687500D01*
X16537500Y-14701786D01*
X16551786Y-14730357D01*
X16566071Y-14787500D01*
X16566071Y-14858929D01*
X16551786Y-14916071D01*
X16537500Y-14944643D01*
X16523214Y-14958929D01*
X16494643Y-14973214D01*
X16466071Y-14973214D01*
X16437500Y-14958929D01*
X16423214Y-14944643D01*
X16408928Y-14916071D01*
X16394643Y-14858929D01*
X16394643Y-14787500D01*
X16408928Y-14730357D01*
X16423214Y-14701786D01*
X16437500Y-14687500D01*
X16466071Y-14673214D01*
X16851786Y-14973214D02*
X16680357Y-14973214D01*
X16766071Y-14973214D02*
X16766071Y-14673214D01*
X16737500Y-14716071D01*
X16708928Y-14744643D01*
X16680357Y-14758929D01*
X17108928Y-14673214D02*
X17051786Y-14673214D01*
X17023214Y-14687500D01*
X17008928Y-14701786D01*
X16980357Y-14744643D01*
X16966071Y-14801786D01*
X16966071Y-14916071D01*
X16980357Y-14944643D01*
X16994643Y-14958929D01*
X17023214Y-14973214D01*
X17080357Y-14973214D01*
X17108928Y-14958929D01*
X17123214Y-14944643D01*
X17137500Y-14916071D01*
X17137500Y-14844643D01*
X17123214Y-14816071D01*
X17108928Y-14801786D01*
X17080357Y-14787500D01*
X17023214Y-14787500D01*
X16994643Y-14801786D01*
X16980357Y-14816071D01*
X16966071Y-14844643D01*
X17251786Y-14673214D02*
X17251786Y-14730357D01*
X17366071Y-14673214D02*
X17366071Y-14730357D01*
X17808928Y-15087500D02*
X17794643Y-15073214D01*
X17766071Y-15030357D01*
X17751786Y-15001786D01*
X17737500Y-14958929D01*
X17723214Y-14887500D01*
X17723214Y-14830357D01*
X17737500Y-14758929D01*
X17751786Y-14716071D01*
X17766071Y-14687500D01*
X17794643Y-14644643D01*
X17808928Y-14630357D01*
X17937500Y-14973214D02*
X17994643Y-14973214D01*
X18023214Y-14958929D01*
X18037500Y-14944643D01*
X18066071Y-14901786D01*
X18080357Y-14844643D01*
X18080357Y-14730357D01*
X18066071Y-14701786D01*
X18051786Y-14687500D01*
X18023214Y-14673214D01*
X17966071Y-14673214D01*
X17937500Y-14687500D01*
X17923214Y-14701786D01*
X17908928Y-14730357D01*
X17908928Y-14801786D01*
X17923214Y-14830357D01*
X17937500Y-14844643D01*
X17966071Y-14858929D01*
X18023214Y-14858929D01*
X18051786Y-14844643D01*
X18066071Y-14830357D01*
X18080357Y-14801786D01*
X18180357Y-14673214D02*
X18366071Y-14673214D01*
X18266071Y-14787500D01*
X18308928Y-14787500D01*
X18337500Y-14801786D01*
X18351786Y-14816071D01*
X18366071Y-14844643D01*
X18366071Y-14916071D01*
X18351786Y-14944643D01*
X18337500Y-14958929D01*
X18308928Y-14973214D01*
X18223214Y-14973214D01*
X18194643Y-14958929D01*
X18180357Y-14944643D01*
X18723214Y-14973214D02*
X18723214Y-14673214D01*
X18851786Y-14973214D02*
X18851786Y-14816071D01*
X18837500Y-14787500D01*
X18808928Y-14773214D01*
X18766071Y-14773214D01*
X18737500Y-14787500D01*
X18723214Y-14801786D01*
X19037500Y-14973214D02*
X19008928Y-14958929D01*
X18994643Y-14944643D01*
X18980357Y-14916071D01*
X18980357Y-14830357D01*
X18994643Y-14801786D01*
X19008928Y-14787500D01*
X19037500Y-14773214D01*
X19080357Y-14773214D01*
X19108928Y-14787500D01*
X19123214Y-14801786D01*
X19137500Y-14830357D01*
X19137500Y-14916071D01*
X19123214Y-14944643D01*
X19108928Y-14958929D01*
X19080357Y-14973214D01*
X19037500Y-14973214D01*
X19308928Y-14973214D02*
X19280357Y-14958929D01*
X19266071Y-14930357D01*
X19266071Y-14673214D01*
X19537500Y-14958929D02*
X19508928Y-14973214D01*
X19451786Y-14973214D01*
X19423214Y-14958929D01*
X19408928Y-14930357D01*
X19408928Y-14816071D01*
X19423214Y-14787500D01*
X19451786Y-14773214D01*
X19508928Y-14773214D01*
X19537500Y-14787500D01*
X19551786Y-14816071D01*
X19551786Y-14844643D01*
X19408928Y-14873214D01*
X19666071Y-14958929D02*
X19694643Y-14973214D01*
X19751786Y-14973214D01*
X19780357Y-14958929D01*
X19794643Y-14930357D01*
X19794643Y-14916071D01*
X19780357Y-14887500D01*
X19751786Y-14873214D01*
X19708928Y-14873214D01*
X19680357Y-14858929D01*
X19666071Y-14830357D01*
X19666071Y-14816071D01*
X19680357Y-14787500D01*
X19708928Y-14773214D01*
X19751786Y-14773214D01*
X19780357Y-14787500D01*
X19894643Y-15087500D02*
X19908928Y-15073214D01*
X19937500Y-15030357D01*
X19951786Y-15001786D01*
X19966071Y-14958929D01*
X19980357Y-14887500D01*
X19980357Y-14830357D01*
X19966071Y-14758929D01*
X19951786Y-14716071D01*
X19937500Y-14687500D01*
X19908928Y-14644643D01*
X19894643Y-14630357D01*
X13122500Y-15233500D02*
G75*
G03X13122500Y-15233500I-50000J0D01*
G01*
X13566071Y-15369214D02*
X13394643Y-15369214D01*
X13480357Y-15369214D02*
X13480357Y-15069214D01*
X13451786Y-15112071D01*
X13423214Y-15140643D01*
X13394643Y-15154929D01*
X13694643Y-15340643D02*
X13708928Y-15354929D01*
X13694643Y-15369214D01*
X13680357Y-15354929D01*
X13694643Y-15340643D01*
X13694643Y-15369214D01*
X13894643Y-15069214D02*
X13923214Y-15069214D01*
X13951786Y-15083500D01*
X13966071Y-15097786D01*
X13980357Y-15126357D01*
X13994643Y-15183500D01*
X13994643Y-15254929D01*
X13980357Y-15312071D01*
X13966071Y-15340643D01*
X13951786Y-15354929D01*
X13923214Y-15369214D01*
X13894643Y-15369214D01*
X13866071Y-15354929D01*
X13851786Y-15340643D01*
X13837500Y-15312071D01*
X13823214Y-15254929D01*
X13823214Y-15183500D01*
X13837500Y-15126357D01*
X13851786Y-15097786D01*
X13866071Y-15083500D01*
X13894643Y-15069214D01*
X14180357Y-15069214D02*
X14208928Y-15069214D01*
X14237500Y-15083500D01*
X14251786Y-15097786D01*
X14266071Y-15126357D01*
X14280357Y-15183500D01*
X14280357Y-15254929D01*
X14266071Y-15312071D01*
X14251786Y-15340643D01*
X14237500Y-15354929D01*
X14208928Y-15369214D01*
X14180357Y-15369214D01*
X14151786Y-15354929D01*
X14137500Y-15340643D01*
X14123214Y-15312071D01*
X14108928Y-15254929D01*
X14108928Y-15183500D01*
X14123214Y-15126357D01*
X14137500Y-15097786D01*
X14151786Y-15083500D01*
X14180357Y-15069214D01*
X14408928Y-15369214D02*
X14408928Y-15169214D01*
X14408928Y-15197786D02*
X14423214Y-15183500D01*
X14451786Y-15169214D01*
X14494643Y-15169214D01*
X14523214Y-15183500D01*
X14537500Y-15212071D01*
X14537500Y-15369214D01*
X14537500Y-15212071D02*
X14551786Y-15183500D01*
X14580357Y-15169214D01*
X14623214Y-15169214D01*
X14651786Y-15183500D01*
X14666071Y-15212071D01*
X14666071Y-15369214D01*
X14808928Y-15369214D02*
X14808928Y-15169214D01*
X14808928Y-15197786D02*
X14823214Y-15183500D01*
X14851786Y-15169214D01*
X14894643Y-15169214D01*
X14923214Y-15183500D01*
X14937500Y-15212071D01*
X14937500Y-15369214D01*
X14937500Y-15212071D02*
X14951786Y-15183500D01*
X14980357Y-15169214D01*
X15023214Y-15169214D01*
X15051786Y-15183500D01*
X15066071Y-15212071D01*
X15066071Y-15369214D01*
X15651786Y-15054929D02*
X15394643Y-15440643D01*
X16037500Y-15069214D02*
X16066071Y-15069214D01*
X16094643Y-15083500D01*
X16108928Y-15097786D01*
X16123214Y-15126357D01*
X16137500Y-15183500D01*
X16137500Y-15254929D01*
X16123214Y-15312071D01*
X16108928Y-15340643D01*
X16094643Y-15354929D01*
X16066071Y-15369214D01*
X16037500Y-15369214D01*
X16008928Y-15354929D01*
X15994643Y-15340643D01*
X15980357Y-15312071D01*
X15966071Y-15254929D01*
X15966071Y-15183500D01*
X15980357Y-15126357D01*
X15994643Y-15097786D01*
X16008928Y-15083500D01*
X16037500Y-15069214D01*
X16266071Y-15340643D02*
X16280357Y-15354929D01*
X16266071Y-15369214D01*
X16251786Y-15354929D01*
X16266071Y-15340643D01*
X16266071Y-15369214D01*
X16466071Y-15069214D02*
X16494643Y-15069214D01*
X16523214Y-15083500D01*
X16537500Y-15097786D01*
X16551786Y-15126357D01*
X16566071Y-15183500D01*
X16566071Y-15254929D01*
X16551786Y-15312071D01*
X16537500Y-15340643D01*
X16523214Y-15354929D01*
X16494643Y-15369214D01*
X16466071Y-15369214D01*
X16437500Y-15354929D01*
X16423214Y-15340643D01*
X16408928Y-15312071D01*
X16394643Y-15254929D01*
X16394643Y-15183500D01*
X16408928Y-15126357D01*
X16423214Y-15097786D01*
X16437500Y-15083500D01*
X16466071Y-15069214D01*
X16666071Y-15069214D02*
X16851786Y-15069214D01*
X16751786Y-15183500D01*
X16794643Y-15183500D01*
X16823214Y-15197786D01*
X16837500Y-15212071D01*
X16851786Y-15240643D01*
X16851786Y-15312071D01*
X16837500Y-15340643D01*
X16823214Y-15354929D01*
X16794643Y-15369214D01*
X16708928Y-15369214D01*
X16680357Y-15354929D01*
X16666071Y-15340643D01*
X16994643Y-15369214D02*
X17051786Y-15369214D01*
X17080357Y-15354929D01*
X17094643Y-15340643D01*
X17123214Y-15297786D01*
X17137500Y-15240643D01*
X17137500Y-15126357D01*
X17123214Y-15097786D01*
X17108928Y-15083500D01*
X17080357Y-15069214D01*
X17023214Y-15069214D01*
X16994643Y-15083500D01*
X16980357Y-15097786D01*
X16966071Y-15126357D01*
X16966071Y-15197786D01*
X16980357Y-15226357D01*
X16994643Y-15240643D01*
X17023214Y-15254929D01*
X17080357Y-15254929D01*
X17108928Y-15240643D01*
X17123214Y-15226357D01*
X17137500Y-15197786D01*
X17251786Y-15069214D02*
X17251786Y-15126357D01*
X17366071Y-15069214D02*
X17366071Y-15126357D01*
X17808928Y-15483500D02*
X17794643Y-15469214D01*
X17766071Y-15426357D01*
X17751786Y-15397786D01*
X17737500Y-15354929D01*
X17723214Y-15283500D01*
X17723214Y-15226357D01*
X17737500Y-15154929D01*
X17751786Y-15112071D01*
X17766071Y-15083500D01*
X17794643Y-15040643D01*
X17808928Y-15026357D01*
X17908928Y-15097786D02*
X17923214Y-15083500D01*
X17951786Y-15069214D01*
X18023214Y-15069214D01*
X18051786Y-15083500D01*
X18066071Y-15097786D01*
X18080357Y-15126357D01*
X18080357Y-15154929D01*
X18066071Y-15197786D01*
X17894643Y-15369214D01*
X18080357Y-15369214D01*
X18180357Y-15069214D02*
X18380357Y-15069214D01*
X18251786Y-15369214D01*
X18723214Y-15369214D02*
X18723214Y-15069214D01*
X18851786Y-15369214D02*
X18851786Y-15212071D01*
X18837500Y-15183500D01*
X18808928Y-15169214D01*
X18766071Y-15169214D01*
X18737500Y-15183500D01*
X18723214Y-15197786D01*
X19037500Y-15369214D02*
X19008928Y-15354929D01*
X18994643Y-15340643D01*
X18980357Y-15312071D01*
X18980357Y-15226357D01*
X18994643Y-15197786D01*
X19008928Y-15183500D01*
X19037500Y-15169214D01*
X19080357Y-15169214D01*
X19108928Y-15183500D01*
X19123214Y-15197786D01*
X19137500Y-15226357D01*
X19137500Y-15312071D01*
X19123214Y-15340643D01*
X19108928Y-15354929D01*
X19080357Y-15369214D01*
X19037500Y-15369214D01*
X19308928Y-15369214D02*
X19280357Y-15354929D01*
X19266071Y-15326357D01*
X19266071Y-15069214D01*
X19537500Y-15354929D02*
X19508928Y-15369214D01*
X19451786Y-15369214D01*
X19423214Y-15354929D01*
X19408928Y-15326357D01*
X19408928Y-15212071D01*
X19423214Y-15183500D01*
X19451786Y-15169214D01*
X19508928Y-15169214D01*
X19537500Y-15183500D01*
X19551786Y-15212071D01*
X19551786Y-15240643D01*
X19408928Y-15269214D01*
X19666071Y-15354929D02*
X19694643Y-15369214D01*
X19751786Y-15369214D01*
X19780357Y-15354929D01*
X19794643Y-15326357D01*
X19794643Y-15312071D01*
X19780357Y-15283500D01*
X19751786Y-15269214D01*
X19708928Y-15269214D01*
X19680357Y-15254929D01*
X19666071Y-15226357D01*
X19666071Y-15212071D01*
X19680357Y-15183500D01*
X19708928Y-15169214D01*
X19751786Y-15169214D01*
X19780357Y-15183500D01*
X19894643Y-15483500D02*
X19908928Y-15469214D01*
X19937500Y-15426357D01*
X19951786Y-15397786D01*
X19966071Y-15354929D01*
X19980357Y-15283500D01*
X19980357Y-15226357D01*
X19966071Y-15154929D01*
X19951786Y-15112071D01*
X19937500Y-15083500D01*
X19908928Y-15040643D01*
X19894643Y-15026357D01*
X13060000Y-15567000D02*
X13060000Y-15692000D01*
X12997500Y-15629500D02*
X13122500Y-15629500D01*
X13566071Y-15765214D02*
X13394643Y-15765214D01*
X13480357Y-15765214D02*
X13480357Y-15465214D01*
X13451786Y-15508071D01*
X13423214Y-15536643D01*
X13394643Y-15550929D01*
X13694643Y-15736643D02*
X13708928Y-15750929D01*
X13694643Y-15765214D01*
X13680357Y-15750929D01*
X13694643Y-15736643D01*
X13694643Y-15765214D01*
X13823214Y-15493786D02*
X13837500Y-15479500D01*
X13866071Y-15465214D01*
X13937500Y-15465214D01*
X13966071Y-15479500D01*
X13980357Y-15493786D01*
X13994643Y-15522357D01*
X13994643Y-15550929D01*
X13980357Y-15593786D01*
X13808928Y-15765214D01*
X13994643Y-15765214D01*
X14266071Y-15465214D02*
X14123214Y-15465214D01*
X14108928Y-15608071D01*
X14123214Y-15593786D01*
X14151786Y-15579500D01*
X14223214Y-15579500D01*
X14251786Y-15593786D01*
X14266071Y-15608071D01*
X14280357Y-15636643D01*
X14280357Y-15708071D01*
X14266071Y-15736643D01*
X14251786Y-15750929D01*
X14223214Y-15765214D01*
X14151786Y-15765214D01*
X14123214Y-15750929D01*
X14108928Y-15736643D01*
X14408928Y-15765214D02*
X14408928Y-15565214D01*
X14408928Y-15593786D02*
X14423214Y-15579500D01*
X14451786Y-15565214D01*
X14494643Y-15565214D01*
X14523214Y-15579500D01*
X14537500Y-15608071D01*
X14537500Y-15765214D01*
X14537500Y-15608071D02*
X14551786Y-15579500D01*
X14580357Y-15565214D01*
X14623214Y-15565214D01*
X14651786Y-15579500D01*
X14666071Y-15608071D01*
X14666071Y-15765214D01*
X14808928Y-15765214D02*
X14808928Y-15565214D01*
X14808928Y-15593786D02*
X14823214Y-15579500D01*
X14851786Y-15565214D01*
X14894643Y-15565214D01*
X14923214Y-15579500D01*
X14937500Y-15608071D01*
X14937500Y-15765214D01*
X14937500Y-15608071D02*
X14951786Y-15579500D01*
X14980357Y-15565214D01*
X15023214Y-15565214D01*
X15051786Y-15579500D01*
X15066071Y-15608071D01*
X15066071Y-15765214D01*
X15651786Y-15450929D02*
X15394643Y-15836643D01*
X16037500Y-15465214D02*
X16066071Y-15465214D01*
X16094643Y-15479500D01*
X16108928Y-15493786D01*
X16123214Y-15522357D01*
X16137500Y-15579500D01*
X16137500Y-15650929D01*
X16123214Y-15708071D01*
X16108928Y-15736643D01*
X16094643Y-15750929D01*
X16066071Y-15765214D01*
X16037500Y-15765214D01*
X16008928Y-15750929D01*
X15994643Y-15736643D01*
X15980357Y-15708071D01*
X15966071Y-15650929D01*
X15966071Y-15579500D01*
X15980357Y-15522357D01*
X15994643Y-15493786D01*
X16008928Y-15479500D01*
X16037500Y-15465214D01*
X16266071Y-15736643D02*
X16280357Y-15750929D01*
X16266071Y-15765214D01*
X16251786Y-15750929D01*
X16266071Y-15736643D01*
X16266071Y-15765214D01*
X16466071Y-15465214D02*
X16494643Y-15465214D01*
X16523214Y-15479500D01*
X16537500Y-15493786D01*
X16551786Y-15522357D01*
X16566071Y-15579500D01*
X16566071Y-15650929D01*
X16551786Y-15708071D01*
X16537500Y-15736643D01*
X16523214Y-15750929D01*
X16494643Y-15765214D01*
X16466071Y-15765214D01*
X16437500Y-15750929D01*
X16423214Y-15736643D01*
X16408928Y-15708071D01*
X16394643Y-15650929D01*
X16394643Y-15579500D01*
X16408928Y-15522357D01*
X16423214Y-15493786D01*
X16437500Y-15479500D01*
X16466071Y-15465214D01*
X16823214Y-15565214D02*
X16823214Y-15765214D01*
X16751786Y-15450929D02*
X16680357Y-15665214D01*
X16866071Y-15665214D01*
X16994643Y-15765214D02*
X17051786Y-15765214D01*
X17080357Y-15750929D01*
X17094643Y-15736643D01*
X17123214Y-15693786D01*
X17137500Y-15636643D01*
X17137500Y-15522357D01*
X17123214Y-15493786D01*
X17108928Y-15479500D01*
X17080357Y-15465214D01*
X17023214Y-15465214D01*
X16994643Y-15479500D01*
X16980357Y-15493786D01*
X16966071Y-15522357D01*
X16966071Y-15593786D01*
X16980357Y-15622357D01*
X16994643Y-15636643D01*
X17023214Y-15650929D01*
X17080357Y-15650929D01*
X17108928Y-15636643D01*
X17123214Y-15622357D01*
X17137500Y-15593786D01*
X17251786Y-15465214D02*
X17251786Y-15522357D01*
X17366071Y-15465214D02*
X17366071Y-15522357D01*
X17808928Y-15879500D02*
X17794643Y-15865214D01*
X17766071Y-15822357D01*
X17751786Y-15793786D01*
X17737500Y-15750929D01*
X17723214Y-15679500D01*
X17723214Y-15622357D01*
X17737500Y-15550929D01*
X17751786Y-15508071D01*
X17766071Y-15479500D01*
X17794643Y-15436643D01*
X17808928Y-15422357D01*
X18051786Y-15465214D02*
X17994643Y-15465214D01*
X17966071Y-15479500D01*
X17951786Y-15493786D01*
X17923214Y-15536643D01*
X17908928Y-15593786D01*
X17908928Y-15708071D01*
X17923214Y-15736643D01*
X17937500Y-15750929D01*
X17966071Y-15765214D01*
X18023214Y-15765214D01*
X18051786Y-15750929D01*
X18066071Y-15736643D01*
X18080357Y-15708071D01*
X18080357Y-15636643D01*
X18066071Y-15608071D01*
X18051786Y-15593786D01*
X18023214Y-15579500D01*
X17966071Y-15579500D01*
X17937500Y-15593786D01*
X17923214Y-15608071D01*
X17908928Y-15636643D01*
X18437500Y-15765214D02*
X18437500Y-15465214D01*
X18566071Y-15765214D02*
X18566071Y-15608071D01*
X18551786Y-15579500D01*
X18523214Y-15565214D01*
X18480357Y-15565214D01*
X18451786Y-15579500D01*
X18437500Y-15593786D01*
X18751786Y-15765214D02*
X18723214Y-15750929D01*
X18708928Y-15736643D01*
X18694643Y-15708071D01*
X18694643Y-15622357D01*
X18708928Y-15593786D01*
X18723214Y-15579500D01*
X18751786Y-15565214D01*
X18794643Y-15565214D01*
X18823214Y-15579500D01*
X18837500Y-15593786D01*
X18851786Y-15622357D01*
X18851786Y-15708071D01*
X18837500Y-15736643D01*
X18823214Y-15750929D01*
X18794643Y-15765214D01*
X18751786Y-15765214D01*
X19023214Y-15765214D02*
X18994643Y-15750929D01*
X18980357Y-15722357D01*
X18980357Y-15465214D01*
X19251786Y-15750929D02*
X19223214Y-15765214D01*
X19166071Y-15765214D01*
X19137500Y-15750929D01*
X19123214Y-15722357D01*
X19123214Y-15608071D01*
X19137500Y-15579500D01*
X19166071Y-15565214D01*
X19223214Y-15565214D01*
X19251786Y-15579500D01*
X19266071Y-15608071D01*
X19266071Y-15636643D01*
X19123214Y-15665214D01*
X19380357Y-15750929D02*
X19408928Y-15765214D01*
X19466071Y-15765214D01*
X19494643Y-15750929D01*
X19508928Y-15722357D01*
X19508928Y-15708071D01*
X19494643Y-15679500D01*
X19466071Y-15665214D01*
X19423214Y-15665214D01*
X19394643Y-15650929D01*
X19380357Y-15622357D01*
X19380357Y-15608071D01*
X19394643Y-15579500D01*
X19423214Y-15565214D01*
X19466071Y-15565214D01*
X19494643Y-15579500D01*
X19608928Y-15879500D02*
X19623214Y-15865214D01*
X19651786Y-15822357D01*
X19666071Y-15793786D01*
X19680357Y-15750929D01*
X19694643Y-15679500D01*
X19694643Y-15622357D01*
X19680357Y-15550929D01*
X19666071Y-15508071D01*
X19651786Y-15479500D01*
X19623214Y-15436643D01*
X19608928Y-15422357D01*
X13085889Y-16113889D02*
X13085889Y-15937111D01*
X12909111Y-15937111D01*
X12909111Y-16113889D01*
X13085889Y-16113889D01*
X13394643Y-15889786D02*
X13408928Y-15875500D01*
X13437500Y-15861214D01*
X13508928Y-15861214D01*
X13537500Y-15875500D01*
X13551786Y-15889786D01*
X13566071Y-15918357D01*
X13566071Y-15946929D01*
X13551786Y-15989786D01*
X13380357Y-16161214D01*
X13566071Y-16161214D01*
X13694643Y-16132643D02*
X13708928Y-16146929D01*
X13694643Y-16161214D01*
X13680357Y-16146929D01*
X13694643Y-16132643D01*
X13694643Y-16161214D01*
X13980357Y-15861214D02*
X13837500Y-15861214D01*
X13823214Y-16004071D01*
X13837500Y-15989786D01*
X13866071Y-15975500D01*
X13937500Y-15975500D01*
X13966071Y-15989786D01*
X13980357Y-16004071D01*
X13994643Y-16032643D01*
X13994643Y-16104071D01*
X13980357Y-16132643D01*
X13966071Y-16146929D01*
X13937500Y-16161214D01*
X13866071Y-16161214D01*
X13837500Y-16146929D01*
X13823214Y-16132643D01*
X14180357Y-15861214D02*
X14208928Y-15861214D01*
X14237500Y-15875500D01*
X14251786Y-15889786D01*
X14266071Y-15918357D01*
X14280357Y-15975500D01*
X14280357Y-16046929D01*
X14266071Y-16104071D01*
X14251786Y-16132643D01*
X14237500Y-16146929D01*
X14208928Y-16161214D01*
X14180357Y-16161214D01*
X14151786Y-16146929D01*
X14137500Y-16132643D01*
X14123214Y-16104071D01*
X14108928Y-16046929D01*
X14108928Y-15975500D01*
X14123214Y-15918357D01*
X14137500Y-15889786D01*
X14151786Y-15875500D01*
X14180357Y-15861214D01*
X14408928Y-16161214D02*
X14408928Y-15961214D01*
X14408928Y-15989786D02*
X14423214Y-15975500D01*
X14451786Y-15961214D01*
X14494643Y-15961214D01*
X14523214Y-15975500D01*
X14537500Y-16004071D01*
X14537500Y-16161214D01*
X14537500Y-16004071D02*
X14551786Y-15975500D01*
X14580357Y-15961214D01*
X14623214Y-15961214D01*
X14651786Y-15975500D01*
X14666071Y-16004071D01*
X14666071Y-16161214D01*
X14808928Y-16161214D02*
X14808928Y-15961214D01*
X14808928Y-15989786D02*
X14823214Y-15975500D01*
X14851786Y-15961214D01*
X14894643Y-15961214D01*
X14923214Y-15975500D01*
X14937500Y-16004071D01*
X14937500Y-16161214D01*
X14937500Y-16004071D02*
X14951786Y-15975500D01*
X14980357Y-15961214D01*
X15023214Y-15961214D01*
X15051786Y-15975500D01*
X15066071Y-16004071D01*
X15066071Y-16161214D01*
X15651786Y-15846929D02*
X15394643Y-16232643D01*
X16037500Y-15861214D02*
X16066071Y-15861214D01*
X16094643Y-15875500D01*
X16108928Y-15889786D01*
X16123214Y-15918357D01*
X16137500Y-15975500D01*
X16137500Y-16046929D01*
X16123214Y-16104071D01*
X16108928Y-16132643D01*
X16094643Y-16146929D01*
X16066071Y-16161214D01*
X16037500Y-16161214D01*
X16008928Y-16146929D01*
X15994643Y-16132643D01*
X15980357Y-16104071D01*
X15966071Y-16046929D01*
X15966071Y-15975500D01*
X15980357Y-15918357D01*
X15994643Y-15889786D01*
X16008928Y-15875500D01*
X16037500Y-15861214D01*
X16266071Y-16132643D02*
X16280357Y-16146929D01*
X16266071Y-16161214D01*
X16251786Y-16146929D01*
X16266071Y-16132643D01*
X16266071Y-16161214D01*
X16466071Y-15861214D02*
X16494643Y-15861214D01*
X16523214Y-15875500D01*
X16537500Y-15889786D01*
X16551786Y-15918357D01*
X16566071Y-15975500D01*
X16566071Y-16046929D01*
X16551786Y-16104071D01*
X16537500Y-16132643D01*
X16523214Y-16146929D01*
X16494643Y-16161214D01*
X16466071Y-16161214D01*
X16437500Y-16146929D01*
X16423214Y-16132643D01*
X16408928Y-16104071D01*
X16394643Y-16046929D01*
X16394643Y-15975500D01*
X16408928Y-15918357D01*
X16423214Y-15889786D01*
X16437500Y-15875500D01*
X16466071Y-15861214D01*
X16708928Y-16161214D02*
X16766071Y-16161214D01*
X16794643Y-16146929D01*
X16808928Y-16132643D01*
X16837500Y-16089786D01*
X16851786Y-16032643D01*
X16851786Y-15918357D01*
X16837500Y-15889786D01*
X16823214Y-15875500D01*
X16794643Y-15861214D01*
X16737500Y-15861214D01*
X16708928Y-15875500D01*
X16694643Y-15889786D01*
X16680357Y-15918357D01*
X16680357Y-15989786D01*
X16694643Y-16018357D01*
X16708928Y-16032643D01*
X16737500Y-16046929D01*
X16794643Y-16046929D01*
X16823214Y-16032643D01*
X16837500Y-16018357D01*
X16851786Y-15989786D01*
X17023214Y-15989786D02*
X16994643Y-15975500D01*
X16980357Y-15961214D01*
X16966071Y-15932643D01*
X16966071Y-15918357D01*
X16980357Y-15889786D01*
X16994643Y-15875500D01*
X17023214Y-15861214D01*
X17080357Y-15861214D01*
X17108928Y-15875500D01*
X17123214Y-15889786D01*
X17137500Y-15918357D01*
X17137500Y-15932643D01*
X17123214Y-15961214D01*
X17108928Y-15975500D01*
X17080357Y-15989786D01*
X17023214Y-15989786D01*
X16994643Y-16004071D01*
X16980357Y-16018357D01*
X16966071Y-16046929D01*
X16966071Y-16104071D01*
X16980357Y-16132643D01*
X16994643Y-16146929D01*
X17023214Y-16161214D01*
X17080357Y-16161214D01*
X17108928Y-16146929D01*
X17123214Y-16132643D01*
X17137500Y-16104071D01*
X17137500Y-16046929D01*
X17123214Y-16018357D01*
X17108928Y-16004071D01*
X17080357Y-15989786D01*
X17251786Y-15861214D02*
X17251786Y-15918357D01*
X17366071Y-15861214D02*
X17366071Y-15918357D01*
X17808928Y-16275500D02*
X17794643Y-16261214D01*
X17766071Y-16218357D01*
X17751786Y-16189786D01*
X17737500Y-16146929D01*
X17723214Y-16075500D01*
X17723214Y-16018357D01*
X17737500Y-15946929D01*
X17751786Y-15904071D01*
X17766071Y-15875500D01*
X17794643Y-15832643D01*
X17808928Y-15818357D01*
X17937500Y-16161214D02*
X17994643Y-16161214D01*
X18023214Y-16146929D01*
X18037500Y-16132643D01*
X18066071Y-16089786D01*
X18080357Y-16032643D01*
X18080357Y-15918357D01*
X18066071Y-15889786D01*
X18051786Y-15875500D01*
X18023214Y-15861214D01*
X17966071Y-15861214D01*
X17937500Y-15875500D01*
X17923214Y-15889786D01*
X17908928Y-15918357D01*
X17908928Y-15989786D01*
X17923214Y-16018357D01*
X17937500Y-16032643D01*
X17966071Y-16046929D01*
X18023214Y-16046929D01*
X18051786Y-16032643D01*
X18066071Y-16018357D01*
X18080357Y-15989786D01*
X18437500Y-16161214D02*
X18437500Y-15861214D01*
X18566071Y-16161214D02*
X18566071Y-16004071D01*
X18551786Y-15975500D01*
X18523214Y-15961214D01*
X18480357Y-15961214D01*
X18451786Y-15975500D01*
X18437500Y-15989786D01*
X18751786Y-16161214D02*
X18723214Y-16146929D01*
X18708928Y-16132643D01*
X18694643Y-16104071D01*
X18694643Y-16018357D01*
X18708928Y-15989786D01*
X18723214Y-15975500D01*
X18751786Y-15961214D01*
X18794643Y-15961214D01*
X18823214Y-15975500D01*
X18837500Y-15989786D01*
X18851786Y-16018357D01*
X18851786Y-16104071D01*
X18837500Y-16132643D01*
X18823214Y-16146929D01*
X18794643Y-16161214D01*
X18751786Y-16161214D01*
X19023214Y-16161214D02*
X18994643Y-16146929D01*
X18980357Y-16118357D01*
X18980357Y-15861214D01*
X19251786Y-16146929D02*
X19223214Y-16161214D01*
X19166071Y-16161214D01*
X19137500Y-16146929D01*
X19123214Y-16118357D01*
X19123214Y-16004071D01*
X19137500Y-15975500D01*
X19166071Y-15961214D01*
X19223214Y-15961214D01*
X19251786Y-15975500D01*
X19266071Y-16004071D01*
X19266071Y-16032643D01*
X19123214Y-16061214D01*
X19380357Y-16146929D02*
X19408928Y-16161214D01*
X19466071Y-16161214D01*
X19494643Y-16146929D01*
X19508928Y-16118357D01*
X19508928Y-16104071D01*
X19494643Y-16075500D01*
X19466071Y-16061214D01*
X19423214Y-16061214D01*
X19394643Y-16046929D01*
X19380357Y-16018357D01*
X19380357Y-16004071D01*
X19394643Y-15975500D01*
X19423214Y-15961214D01*
X19466071Y-15961214D01*
X19494643Y-15975500D01*
X19608928Y-16275500D02*
X19623214Y-16261214D01*
X19651786Y-16218357D01*
X19666071Y-16189786D01*
X19680357Y-16146929D01*
X19694643Y-16075500D01*
X19694643Y-16018357D01*
X19680357Y-15946929D01*
X19666071Y-15904071D01*
X19651786Y-15875500D01*
X19623214Y-15832643D01*
X19608928Y-15818357D01*
M02*
