G04 #@! TF.GenerationSoftware,KiCad,Pcbnew,(5.1.4)-1*
G04 #@! TF.CreationDate,2021-06-03T21:11:04-04:00*
G04 #@! TF.ProjectId,shunt_current_control_v2,7368756e-745f-4637-9572-72656e745f63,rev?*
G04 #@! TF.SameCoordinates,Original*
G04 #@! TF.FileFunction,Legend,Bot*
G04 #@! TF.FilePolarity,Positive*
%FSLAX46Y46*%
G04 Gerber Fmt 4.6, Leading zero omitted, Abs format (unit mm)*
G04 Created by KiCad (PCBNEW (5.1.4)-1) date 2021-06-03 21:11:04*
%MOMM*%
%LPD*%
G04 APERTURE LIST*
%ADD10C,0.120000*%
%ADD11C,0.200000*%
%ADD12C,0.100000*%
%ADD13C,0.150000*%
%ADD14C,0.254000*%
%ADD15C,1.700000*%
%ADD16R,1.150000X2.300000*%
%ADD17R,1.100000X1.150000*%
%ADD18C,1.250000*%
%ADD19C,1.350000*%
%ADD20C,0.500000*%
%ADD21R,1.700000X1.700000*%
%ADD22C,3.100000*%
%ADD23R,3.100000X3.100000*%
%ADD24O,1.900000X1.900000*%
%ADD25R,1.900000X1.900000*%
%ADD26O,3.300000X3.300000*%
%ADD27O,2.600000X4.600000*%
%ADD28R,2.600000X4.600000*%
%ADD29O,3.500000X3.500000*%
%ADD30C,2.400000*%
G04 APERTURE END LIST*
D10*
X106870000Y-114750000D02*
G75*
G03X106870000Y-114750000I-4120000J0D01*
G01*
D11*
X143150000Y-102000000D02*
G75*
G03X143350000Y-102000000I100000J0D01*
G01*
X143350000Y-102000000D02*
G75*
G03X143150000Y-102000000I-100000J0D01*
G01*
X143350000Y-102000000D02*
X143350000Y-102000000D01*
X143150000Y-102000000D02*
X143150000Y-102000000D01*
D12*
X141950000Y-105800000D02*
X144550000Y-105800000D01*
D10*
X133790000Y-60011252D02*
X133790000Y-59488748D01*
X135210000Y-60011252D02*
X135210000Y-59488748D01*
X138340000Y-60352064D02*
X138340000Y-59147936D01*
X140160000Y-60352064D02*
X140160000Y-59147936D01*
D11*
X88850000Y-102000000D02*
G75*
G03X88650000Y-102000000I-100000J0D01*
G01*
X88650000Y-102000000D02*
G75*
G03X88850000Y-102000000I100000J0D01*
G01*
X88650000Y-102000000D02*
X88650000Y-102000000D01*
X88850000Y-102000000D02*
X88850000Y-102000000D01*
D12*
X90050000Y-98200000D02*
X87450000Y-98200000D01*
D11*
X88350000Y-118500000D02*
G75*
G03X88150000Y-118500000I-100000J0D01*
G01*
X88150000Y-118500000D02*
G75*
G03X88350000Y-118500000I100000J0D01*
G01*
X88150000Y-118500000D02*
X88150000Y-118500000D01*
X88350000Y-118500000D02*
X88350000Y-118500000D01*
D12*
X89550000Y-114700000D02*
X86950000Y-114700000D01*
D10*
X72900000Y-119800000D02*
X74300000Y-119800000D01*
X75000000Y-119100000D02*
X75000000Y-118500000D01*
X74300000Y-117800000D02*
X72900000Y-117800000D01*
X72200000Y-118500000D02*
X72200000Y-119100000D01*
X72200000Y-119100000D02*
G75*
G03X72900000Y-119800000I700000J0D01*
G01*
X72900000Y-117800000D02*
G75*
G03X72200000Y-118500000I0J-700000D01*
G01*
X75000000Y-118500000D02*
G75*
G03X74300000Y-117800000I-700000J0D01*
G01*
X74300000Y-119800000D02*
G75*
G03X75000000Y-119100000I0J700000D01*
G01*
X74600000Y-112900000D02*
X74600000Y-114300000D01*
X75300000Y-115000000D02*
X75900000Y-115000000D01*
X76600000Y-114300000D02*
X76600000Y-112900000D01*
X75900000Y-112200000D02*
X75300000Y-112200000D01*
X75300000Y-112200000D02*
G75*
G03X74600000Y-112900000I0J-700000D01*
G01*
X76600000Y-112900000D02*
G75*
G03X75900000Y-112200000I-700000J0D01*
G01*
X75900000Y-115000000D02*
G75*
G03X76600000Y-114300000I0J700000D01*
G01*
X74600000Y-114300000D02*
G75*
G03X75300000Y-115000000I700000J0D01*
G01*
X76540000Y-126761252D02*
X76540000Y-126238748D01*
X77960000Y-126761252D02*
X77960000Y-126238748D01*
X81040000Y-101261252D02*
X81040000Y-100738748D01*
X82460000Y-101261252D02*
X82460000Y-100738748D01*
X80500000Y-93300000D02*
X80500000Y-94700000D01*
X81200000Y-95400000D02*
X81800000Y-95400000D01*
X82500000Y-94700000D02*
X82500000Y-93300000D01*
X81800000Y-92600000D02*
X81200000Y-92600000D01*
X81200000Y-92600000D02*
G75*
G03X80500000Y-93300000I0J-700000D01*
G01*
X82500000Y-93300000D02*
G75*
G03X81800000Y-92600000I-700000J0D01*
G01*
X81800000Y-95400000D02*
G75*
G03X82500000Y-94700000I0J700000D01*
G01*
X80500000Y-94700000D02*
G75*
G03X81200000Y-95400000I700000J0D01*
G01*
X76900000Y-95400000D02*
X78300000Y-95400000D01*
X79000000Y-94700000D02*
X79000000Y-94100000D01*
X78300000Y-93400000D02*
X76900000Y-93400000D01*
X76200000Y-94100000D02*
X76200000Y-94700000D01*
X76200000Y-94700000D02*
G75*
G03X76900000Y-95400000I700000J0D01*
G01*
X76900000Y-93400000D02*
G75*
G03X76200000Y-94100000I0J-700000D01*
G01*
X79000000Y-94100000D02*
G75*
G03X78300000Y-93400000I-700000J0D01*
G01*
X78300000Y-95400000D02*
G75*
G03X79000000Y-94700000I0J700000D01*
G01*
X74290000Y-126736252D02*
X74290000Y-126213748D01*
X75710000Y-126736252D02*
X75710000Y-126213748D01*
X83040000Y-101261252D02*
X83040000Y-100738748D01*
X84460000Y-101261252D02*
X84460000Y-100738748D01*
D13*
X97857142Y-114107142D02*
X97904761Y-114059523D01*
X97952380Y-113916666D01*
X97952380Y-113821428D01*
X97904761Y-113678571D01*
X97809523Y-113583333D01*
X97714285Y-113535714D01*
X97523809Y-113488095D01*
X97380952Y-113488095D01*
X97190476Y-113535714D01*
X97095238Y-113583333D01*
X97000000Y-113678571D01*
X96952380Y-113821428D01*
X96952380Y-113916666D01*
X97000000Y-114059523D01*
X97047619Y-114107142D01*
X96952380Y-115011904D02*
X96952380Y-114535714D01*
X97428571Y-114488095D01*
X97380952Y-114535714D01*
X97333333Y-114630952D01*
X97333333Y-114869047D01*
X97380952Y-114964285D01*
X97428571Y-115011904D01*
X97523809Y-115059523D01*
X97761904Y-115059523D01*
X97857142Y-115011904D01*
X97904761Y-114964285D01*
X97952380Y-114869047D01*
X97952380Y-114630952D01*
X97904761Y-114535714D01*
X97857142Y-114488095D01*
X96952380Y-115678571D02*
X96952380Y-115773809D01*
X97000000Y-115869047D01*
X97047619Y-115916666D01*
X97142857Y-115964285D01*
X97333333Y-116011904D01*
X97571428Y-116011904D01*
X97761904Y-115964285D01*
X97857142Y-115916666D01*
X97904761Y-115869047D01*
X97952380Y-115773809D01*
X97952380Y-115678571D01*
X97904761Y-115583333D01*
X97857142Y-115535714D01*
X97761904Y-115488095D01*
X97571428Y-115440476D01*
X97333333Y-115440476D01*
X97142857Y-115488095D01*
X97047619Y-115535714D01*
X97000000Y-115583333D01*
X96952380Y-115678571D01*
D14*
X144528095Y-106554523D02*
X144528095Y-107461666D01*
X144588571Y-107643095D01*
X144709523Y-107764047D01*
X144890952Y-107824523D01*
X145011904Y-107824523D01*
X143258095Y-107824523D02*
X143983809Y-107824523D01*
X143620952Y-107824523D02*
X143620952Y-106554523D01*
X143741904Y-106735952D01*
X143862857Y-106856904D01*
X143983809Y-106917380D01*
X142834761Y-106554523D02*
X142048571Y-106554523D01*
X142471904Y-107038333D01*
X142290476Y-107038333D01*
X142169523Y-107098809D01*
X142109047Y-107159285D01*
X142048571Y-107280238D01*
X142048571Y-107582619D01*
X142109047Y-107703571D01*
X142169523Y-107764047D01*
X142290476Y-107824523D01*
X142653333Y-107824523D01*
X142774285Y-107764047D01*
X142834761Y-107703571D01*
D13*
X136507142Y-59107142D02*
X136554761Y-59059523D01*
X136602380Y-58916666D01*
X136602380Y-58821428D01*
X136554761Y-58678571D01*
X136459523Y-58583333D01*
X136364285Y-58535714D01*
X136173809Y-58488095D01*
X136030952Y-58488095D01*
X135840476Y-58535714D01*
X135745238Y-58583333D01*
X135650000Y-58678571D01*
X135602380Y-58821428D01*
X135602380Y-58916666D01*
X135650000Y-59059523D01*
X135697619Y-59107142D01*
X135935714Y-59964285D02*
X136602380Y-59964285D01*
X135554761Y-59726190D02*
X136269047Y-59488095D01*
X136269047Y-60107142D01*
X136602380Y-60535714D02*
X136602380Y-60726190D01*
X136554761Y-60821428D01*
X136507142Y-60869047D01*
X136364285Y-60964285D01*
X136173809Y-61011904D01*
X135792857Y-61011904D01*
X135697619Y-60964285D01*
X135650000Y-60916666D01*
X135602380Y-60821428D01*
X135602380Y-60630952D01*
X135650000Y-60535714D01*
X135697619Y-60488095D01*
X135792857Y-60440476D01*
X136030952Y-60440476D01*
X136126190Y-60488095D01*
X136173809Y-60535714D01*
X136221428Y-60630952D01*
X136221428Y-60821428D01*
X136173809Y-60916666D01*
X136126190Y-60964285D01*
X136030952Y-61011904D01*
X141427142Y-59107142D02*
X141474761Y-59059523D01*
X141522380Y-58916666D01*
X141522380Y-58821428D01*
X141474761Y-58678571D01*
X141379523Y-58583333D01*
X141284285Y-58535714D01*
X141093809Y-58488095D01*
X140950952Y-58488095D01*
X140760476Y-58535714D01*
X140665238Y-58583333D01*
X140570000Y-58678571D01*
X140522380Y-58821428D01*
X140522380Y-58916666D01*
X140570000Y-59059523D01*
X140617619Y-59107142D01*
X140855714Y-59964285D02*
X141522380Y-59964285D01*
X140474761Y-59726190D02*
X141189047Y-59488095D01*
X141189047Y-60107142D01*
X140950952Y-60630952D02*
X140903333Y-60535714D01*
X140855714Y-60488095D01*
X140760476Y-60440476D01*
X140712857Y-60440476D01*
X140617619Y-60488095D01*
X140570000Y-60535714D01*
X140522380Y-60630952D01*
X140522380Y-60821428D01*
X140570000Y-60916666D01*
X140617619Y-60964285D01*
X140712857Y-61011904D01*
X140760476Y-61011904D01*
X140855714Y-60964285D01*
X140903333Y-60916666D01*
X140950952Y-60821428D01*
X140950952Y-60630952D01*
X140998571Y-60535714D01*
X141046190Y-60488095D01*
X141141428Y-60440476D01*
X141331904Y-60440476D01*
X141427142Y-60488095D01*
X141474761Y-60535714D01*
X141522380Y-60630952D01*
X141522380Y-60821428D01*
X141474761Y-60916666D01*
X141427142Y-60964285D01*
X141331904Y-61011904D01*
X141141428Y-61011904D01*
X141046190Y-60964285D01*
X140998571Y-60916666D01*
X140950952Y-60821428D01*
D14*
X94528095Y-98054523D02*
X94528095Y-98961666D01*
X94588571Y-99143095D01*
X94709523Y-99264047D01*
X94890952Y-99324523D01*
X95011904Y-99324523D01*
X93258095Y-99324523D02*
X93983809Y-99324523D01*
X93620952Y-99324523D02*
X93620952Y-98054523D01*
X93741904Y-98235952D01*
X93862857Y-98356904D01*
X93983809Y-98417380D01*
X92109047Y-98054523D02*
X92713809Y-98054523D01*
X92774285Y-98659285D01*
X92713809Y-98598809D01*
X92592857Y-98538333D01*
X92290476Y-98538333D01*
X92169523Y-98598809D01*
X92109047Y-98659285D01*
X92048571Y-98780238D01*
X92048571Y-99082619D01*
X92109047Y-99203571D01*
X92169523Y-99264047D01*
X92290476Y-99324523D01*
X92592857Y-99324523D01*
X92713809Y-99264047D01*
X92774285Y-99203571D01*
X93778095Y-114804523D02*
X93778095Y-115711666D01*
X93838571Y-115893095D01*
X93959523Y-116014047D01*
X94140952Y-116074523D01*
X94261904Y-116074523D01*
X92508095Y-116074523D02*
X93233809Y-116074523D01*
X92870952Y-116074523D02*
X92870952Y-114804523D01*
X92991904Y-114985952D01*
X93112857Y-115106904D01*
X93233809Y-115167380D01*
X91419523Y-115227857D02*
X91419523Y-116074523D01*
X91721904Y-114744047D02*
X92024285Y-115651190D01*
X91238095Y-115651190D01*
D13*
X77607142Y-121857142D02*
X77654761Y-121809523D01*
X77702380Y-121666666D01*
X77702380Y-121571428D01*
X77654761Y-121428571D01*
X77559523Y-121333333D01*
X77464285Y-121285714D01*
X77273809Y-121238095D01*
X77130952Y-121238095D01*
X76940476Y-121285714D01*
X76845238Y-121333333D01*
X76750000Y-121428571D01*
X76702380Y-121571428D01*
X76702380Y-121666666D01*
X76750000Y-121809523D01*
X76797619Y-121857142D01*
X77035714Y-122714285D02*
X77702380Y-122714285D01*
X76654761Y-122476190D02*
X77369047Y-122238095D01*
X77369047Y-122857142D01*
X76702380Y-123142857D02*
X76702380Y-123809523D01*
X77702380Y-123380952D01*
X82107142Y-96857142D02*
X82154761Y-96809523D01*
X82202380Y-96666666D01*
X82202380Y-96571428D01*
X82154761Y-96428571D01*
X82059523Y-96333333D01*
X81964285Y-96285714D01*
X81773809Y-96238095D01*
X81630952Y-96238095D01*
X81440476Y-96285714D01*
X81345238Y-96333333D01*
X81250000Y-96428571D01*
X81202380Y-96571428D01*
X81202380Y-96666666D01*
X81250000Y-96809523D01*
X81297619Y-96857142D01*
X81535714Y-97714285D02*
X82202380Y-97714285D01*
X81154761Y-97476190D02*
X81869047Y-97238095D01*
X81869047Y-97857142D01*
X81202380Y-98714285D02*
X81202380Y-98238095D01*
X81678571Y-98190476D01*
X81630952Y-98238095D01*
X81583333Y-98333333D01*
X81583333Y-98571428D01*
X81630952Y-98666666D01*
X81678571Y-98714285D01*
X81773809Y-98761904D01*
X82011904Y-98761904D01*
X82107142Y-98714285D01*
X82154761Y-98666666D01*
X82202380Y-98571428D01*
X82202380Y-98333333D01*
X82154761Y-98238095D01*
X82107142Y-98190476D01*
X75357142Y-121857142D02*
X75404761Y-121809523D01*
X75452380Y-121666666D01*
X75452380Y-121571428D01*
X75404761Y-121428571D01*
X75309523Y-121333333D01*
X75214285Y-121285714D01*
X75023809Y-121238095D01*
X74880952Y-121238095D01*
X74690476Y-121285714D01*
X74595238Y-121333333D01*
X74500000Y-121428571D01*
X74452380Y-121571428D01*
X74452380Y-121666666D01*
X74500000Y-121809523D01*
X74547619Y-121857142D01*
X75452380Y-122809523D02*
X75452380Y-122238095D01*
X75452380Y-122523809D02*
X74452380Y-122523809D01*
X74595238Y-122428571D01*
X74690476Y-122333333D01*
X74738095Y-122238095D01*
X74547619Y-123190476D02*
X74500000Y-123238095D01*
X74452380Y-123333333D01*
X74452380Y-123571428D01*
X74500000Y-123666666D01*
X74547619Y-123714285D01*
X74642857Y-123761904D01*
X74738095Y-123761904D01*
X74880952Y-123714285D01*
X75452380Y-123142857D01*
X75452380Y-123761904D01*
X84107142Y-97333333D02*
X84154761Y-97285714D01*
X84202380Y-97142857D01*
X84202380Y-97047619D01*
X84154761Y-96904761D01*
X84059523Y-96809523D01*
X83964285Y-96761904D01*
X83773809Y-96714285D01*
X83630952Y-96714285D01*
X83440476Y-96761904D01*
X83345238Y-96809523D01*
X83250000Y-96904761D01*
X83202380Y-97047619D01*
X83202380Y-97142857D01*
X83250000Y-97285714D01*
X83297619Y-97333333D01*
X83202380Y-97666666D02*
X83202380Y-98285714D01*
X83583333Y-97952380D01*
X83583333Y-98095238D01*
X83630952Y-98190476D01*
X83678571Y-98238095D01*
X83773809Y-98285714D01*
X84011904Y-98285714D01*
X84107142Y-98238095D01*
X84154761Y-98190476D01*
X84202380Y-98095238D01*
X84202380Y-97809523D01*
X84154761Y-97714285D01*
X84107142Y-97666666D01*
%LPC*%
D12*
G36*
X162250000Y-54250000D02*
G01*
X65000000Y-54250000D01*
X65000000Y-36000000D01*
X162250000Y-36000000D01*
X162250000Y-54250000D01*
G37*
X162250000Y-54250000D02*
X65000000Y-54250000D01*
X65000000Y-36000000D01*
X162250000Y-36000000D01*
X162250000Y-54250000D01*
D15*
X102750000Y-116500000D03*
X102750000Y-113000000D03*
D16*
X144725000Y-104500000D03*
X141775000Y-104500000D03*
D17*
X143250000Y-102975000D03*
D12*
G36*
X135004897Y-58101308D02*
G01*
X135031275Y-58105221D01*
X135057143Y-58111701D01*
X135082252Y-58120685D01*
X135106358Y-58132086D01*
X135129232Y-58145796D01*
X135150651Y-58161682D01*
X135170410Y-58179590D01*
X135188318Y-58199349D01*
X135204204Y-58220768D01*
X135217914Y-58243642D01*
X135229315Y-58267748D01*
X135238299Y-58292857D01*
X135244779Y-58318725D01*
X135248692Y-58345103D01*
X135250000Y-58371738D01*
X135250000Y-59078262D01*
X135248692Y-59104897D01*
X135244779Y-59131275D01*
X135238299Y-59157143D01*
X135229315Y-59182252D01*
X135217914Y-59206358D01*
X135204204Y-59229232D01*
X135188318Y-59250651D01*
X135170410Y-59270410D01*
X135150651Y-59288318D01*
X135129232Y-59304204D01*
X135106358Y-59317914D01*
X135082252Y-59329315D01*
X135057143Y-59338299D01*
X135031275Y-59344779D01*
X135004897Y-59348692D01*
X134978262Y-59350000D01*
X134021738Y-59350000D01*
X133995103Y-59348692D01*
X133968725Y-59344779D01*
X133942857Y-59338299D01*
X133917748Y-59329315D01*
X133893642Y-59317914D01*
X133870768Y-59304204D01*
X133849349Y-59288318D01*
X133829590Y-59270410D01*
X133811682Y-59250651D01*
X133795796Y-59229232D01*
X133782086Y-59206358D01*
X133770685Y-59182252D01*
X133761701Y-59157143D01*
X133755221Y-59131275D01*
X133751308Y-59104897D01*
X133750000Y-59078262D01*
X133750000Y-58371738D01*
X133751308Y-58345103D01*
X133755221Y-58318725D01*
X133761701Y-58292857D01*
X133770685Y-58267748D01*
X133782086Y-58243642D01*
X133795796Y-58220768D01*
X133811682Y-58199349D01*
X133829590Y-58179590D01*
X133849349Y-58161682D01*
X133870768Y-58145796D01*
X133893642Y-58132086D01*
X133917748Y-58120685D01*
X133942857Y-58111701D01*
X133968725Y-58105221D01*
X133995103Y-58101308D01*
X134021738Y-58100000D01*
X134978262Y-58100000D01*
X135004897Y-58101308D01*
X135004897Y-58101308D01*
G37*
D18*
X134500000Y-58725000D03*
D12*
G36*
X135004897Y-60151308D02*
G01*
X135031275Y-60155221D01*
X135057143Y-60161701D01*
X135082252Y-60170685D01*
X135106358Y-60182086D01*
X135129232Y-60195796D01*
X135150651Y-60211682D01*
X135170410Y-60229590D01*
X135188318Y-60249349D01*
X135204204Y-60270768D01*
X135217914Y-60293642D01*
X135229315Y-60317748D01*
X135238299Y-60342857D01*
X135244779Y-60368725D01*
X135248692Y-60395103D01*
X135250000Y-60421738D01*
X135250000Y-61128262D01*
X135248692Y-61154897D01*
X135244779Y-61181275D01*
X135238299Y-61207143D01*
X135229315Y-61232252D01*
X135217914Y-61256358D01*
X135204204Y-61279232D01*
X135188318Y-61300651D01*
X135170410Y-61320410D01*
X135150651Y-61338318D01*
X135129232Y-61354204D01*
X135106358Y-61367914D01*
X135082252Y-61379315D01*
X135057143Y-61388299D01*
X135031275Y-61394779D01*
X135004897Y-61398692D01*
X134978262Y-61400000D01*
X134021738Y-61400000D01*
X133995103Y-61398692D01*
X133968725Y-61394779D01*
X133942857Y-61388299D01*
X133917748Y-61379315D01*
X133893642Y-61367914D01*
X133870768Y-61354204D01*
X133849349Y-61338318D01*
X133829590Y-61320410D01*
X133811682Y-61300651D01*
X133795796Y-61279232D01*
X133782086Y-61256358D01*
X133770685Y-61232252D01*
X133761701Y-61207143D01*
X133755221Y-61181275D01*
X133751308Y-61154897D01*
X133750000Y-61128262D01*
X133750000Y-60421738D01*
X133751308Y-60395103D01*
X133755221Y-60368725D01*
X133761701Y-60342857D01*
X133770685Y-60317748D01*
X133782086Y-60293642D01*
X133795796Y-60270768D01*
X133811682Y-60249349D01*
X133829590Y-60229590D01*
X133849349Y-60211682D01*
X133870768Y-60195796D01*
X133893642Y-60182086D01*
X133917748Y-60170685D01*
X133942857Y-60161701D01*
X133968725Y-60155221D01*
X133995103Y-60151308D01*
X134021738Y-60150000D01*
X134978262Y-60150000D01*
X135004897Y-60151308D01*
X135004897Y-60151308D01*
G37*
D18*
X134500000Y-60775000D03*
D12*
G36*
X139931465Y-57676300D02*
G01*
X139957674Y-57680188D01*
X139983377Y-57686626D01*
X140008325Y-57695553D01*
X140032277Y-57706881D01*
X140055004Y-57720503D01*
X140076286Y-57736287D01*
X140095919Y-57754081D01*
X140113713Y-57773714D01*
X140129497Y-57794996D01*
X140143119Y-57817723D01*
X140154447Y-57841675D01*
X140163374Y-57866623D01*
X140169812Y-57892326D01*
X140173700Y-57918535D01*
X140175000Y-57945000D01*
X140175000Y-58755000D01*
X140173700Y-58781465D01*
X140169812Y-58807674D01*
X140163374Y-58833377D01*
X140154447Y-58858325D01*
X140143119Y-58882277D01*
X140129497Y-58905004D01*
X140113713Y-58926286D01*
X140095919Y-58945919D01*
X140076286Y-58963713D01*
X140055004Y-58979497D01*
X140032277Y-58993119D01*
X140008325Y-59004447D01*
X139983377Y-59013374D01*
X139957674Y-59019812D01*
X139931465Y-59023700D01*
X139905000Y-59025000D01*
X138595000Y-59025000D01*
X138568535Y-59023700D01*
X138542326Y-59019812D01*
X138516623Y-59013374D01*
X138491675Y-59004447D01*
X138467723Y-58993119D01*
X138444996Y-58979497D01*
X138423714Y-58963713D01*
X138404081Y-58945919D01*
X138386287Y-58926286D01*
X138370503Y-58905004D01*
X138356881Y-58882277D01*
X138345553Y-58858325D01*
X138336626Y-58833377D01*
X138330188Y-58807674D01*
X138326300Y-58781465D01*
X138325000Y-58755000D01*
X138325000Y-57945000D01*
X138326300Y-57918535D01*
X138330188Y-57892326D01*
X138336626Y-57866623D01*
X138345553Y-57841675D01*
X138356881Y-57817723D01*
X138370503Y-57794996D01*
X138386287Y-57773714D01*
X138404081Y-57754081D01*
X138423714Y-57736287D01*
X138444996Y-57720503D01*
X138467723Y-57706881D01*
X138491675Y-57695553D01*
X138516623Y-57686626D01*
X138542326Y-57680188D01*
X138568535Y-57676300D01*
X138595000Y-57675000D01*
X139905000Y-57675000D01*
X139931465Y-57676300D01*
X139931465Y-57676300D01*
G37*
D19*
X139250000Y-58350000D03*
D12*
G36*
X139931465Y-60476300D02*
G01*
X139957674Y-60480188D01*
X139983377Y-60486626D01*
X140008325Y-60495553D01*
X140032277Y-60506881D01*
X140055004Y-60520503D01*
X140076286Y-60536287D01*
X140095919Y-60554081D01*
X140113713Y-60573714D01*
X140129497Y-60594996D01*
X140143119Y-60617723D01*
X140154447Y-60641675D01*
X140163374Y-60666623D01*
X140169812Y-60692326D01*
X140173700Y-60718535D01*
X140175000Y-60745000D01*
X140175000Y-61555000D01*
X140173700Y-61581465D01*
X140169812Y-61607674D01*
X140163374Y-61633377D01*
X140154447Y-61658325D01*
X140143119Y-61682277D01*
X140129497Y-61705004D01*
X140113713Y-61726286D01*
X140095919Y-61745919D01*
X140076286Y-61763713D01*
X140055004Y-61779497D01*
X140032277Y-61793119D01*
X140008325Y-61804447D01*
X139983377Y-61813374D01*
X139957674Y-61819812D01*
X139931465Y-61823700D01*
X139905000Y-61825000D01*
X138595000Y-61825000D01*
X138568535Y-61823700D01*
X138542326Y-61819812D01*
X138516623Y-61813374D01*
X138491675Y-61804447D01*
X138467723Y-61793119D01*
X138444996Y-61779497D01*
X138423714Y-61763713D01*
X138404081Y-61745919D01*
X138386287Y-61726286D01*
X138370503Y-61705004D01*
X138356881Y-61682277D01*
X138345553Y-61658325D01*
X138336626Y-61633377D01*
X138330188Y-61607674D01*
X138326300Y-61581465D01*
X138325000Y-61555000D01*
X138325000Y-60745000D01*
X138326300Y-60718535D01*
X138330188Y-60692326D01*
X138336626Y-60666623D01*
X138345553Y-60641675D01*
X138356881Y-60617723D01*
X138370503Y-60594996D01*
X138386287Y-60573714D01*
X138404081Y-60554081D01*
X138423714Y-60536287D01*
X138444996Y-60520503D01*
X138467723Y-60506881D01*
X138491675Y-60495553D01*
X138516623Y-60486626D01*
X138542326Y-60480188D01*
X138568535Y-60476300D01*
X138595000Y-60475000D01*
X139905000Y-60475000D01*
X139931465Y-60476300D01*
X139931465Y-60476300D01*
G37*
D19*
X139250000Y-61150000D03*
D16*
X87275000Y-99500000D03*
X90225000Y-99500000D03*
D17*
X88750000Y-101025000D03*
D16*
X86775000Y-116000000D03*
X89725000Y-116000000D03*
D17*
X88250000Y-117525000D03*
D20*
X72950000Y-118800000D03*
D12*
G36*
X73459755Y-118000961D02*
G01*
X73469134Y-118003806D01*
X73477779Y-118008427D01*
X73485355Y-118014645D01*
X73491573Y-118022221D01*
X73496194Y-118030866D01*
X73499039Y-118040245D01*
X73500000Y-118050000D01*
X73500000Y-119550000D01*
X73499039Y-119559755D01*
X73496194Y-119569134D01*
X73491573Y-119577779D01*
X73485355Y-119585355D01*
X73477779Y-119591573D01*
X73469134Y-119596194D01*
X73459755Y-119599039D01*
X73450000Y-119600000D01*
X72950000Y-119600000D01*
X72943889Y-119599398D01*
X72925466Y-119599398D01*
X72920565Y-119599157D01*
X72871734Y-119594347D01*
X72866881Y-119593627D01*
X72818756Y-119584055D01*
X72813995Y-119582863D01*
X72767040Y-119568619D01*
X72762421Y-119566966D01*
X72717088Y-119548189D01*
X72712651Y-119546091D01*
X72669378Y-119522960D01*
X72665171Y-119520438D01*
X72624372Y-119493178D01*
X72620430Y-119490254D01*
X72582501Y-119459126D01*
X72578866Y-119455831D01*
X72544169Y-119421134D01*
X72540874Y-119417499D01*
X72509746Y-119379570D01*
X72506822Y-119375628D01*
X72479562Y-119334829D01*
X72477040Y-119330622D01*
X72453909Y-119287349D01*
X72451811Y-119282912D01*
X72433034Y-119237579D01*
X72431381Y-119232960D01*
X72417137Y-119186005D01*
X72415945Y-119181244D01*
X72406373Y-119133119D01*
X72405653Y-119128266D01*
X72400843Y-119079435D01*
X72400602Y-119074534D01*
X72400602Y-119056111D01*
X72400000Y-119050000D01*
X72400000Y-118550000D01*
X72400602Y-118543889D01*
X72400602Y-118525466D01*
X72400843Y-118520565D01*
X72405653Y-118471734D01*
X72406373Y-118466881D01*
X72415945Y-118418756D01*
X72417137Y-118413995D01*
X72431381Y-118367040D01*
X72433034Y-118362421D01*
X72451811Y-118317088D01*
X72453909Y-118312651D01*
X72477040Y-118269378D01*
X72479562Y-118265171D01*
X72506822Y-118224372D01*
X72509746Y-118220430D01*
X72540874Y-118182501D01*
X72544169Y-118178866D01*
X72578866Y-118144169D01*
X72582501Y-118140874D01*
X72620430Y-118109746D01*
X72624372Y-118106822D01*
X72665171Y-118079562D01*
X72669378Y-118077040D01*
X72712651Y-118053909D01*
X72717088Y-118051811D01*
X72762421Y-118033034D01*
X72767040Y-118031381D01*
X72813995Y-118017137D01*
X72818756Y-118015945D01*
X72866881Y-118006373D01*
X72871734Y-118005653D01*
X72920565Y-118000843D01*
X72925466Y-118000602D01*
X72943889Y-118000602D01*
X72950000Y-118000000D01*
X73450000Y-118000000D01*
X73459755Y-118000961D01*
X73459755Y-118000961D01*
G37*
D20*
X74250000Y-118800000D03*
D12*
G36*
X74256111Y-118000602D02*
G01*
X74274534Y-118000602D01*
X74279435Y-118000843D01*
X74328266Y-118005653D01*
X74333119Y-118006373D01*
X74381244Y-118015945D01*
X74386005Y-118017137D01*
X74432960Y-118031381D01*
X74437579Y-118033034D01*
X74482912Y-118051811D01*
X74487349Y-118053909D01*
X74530622Y-118077040D01*
X74534829Y-118079562D01*
X74575628Y-118106822D01*
X74579570Y-118109746D01*
X74617499Y-118140874D01*
X74621134Y-118144169D01*
X74655831Y-118178866D01*
X74659126Y-118182501D01*
X74690254Y-118220430D01*
X74693178Y-118224372D01*
X74720438Y-118265171D01*
X74722960Y-118269378D01*
X74746091Y-118312651D01*
X74748189Y-118317088D01*
X74766966Y-118362421D01*
X74768619Y-118367040D01*
X74782863Y-118413995D01*
X74784055Y-118418756D01*
X74793627Y-118466881D01*
X74794347Y-118471734D01*
X74799157Y-118520565D01*
X74799398Y-118525466D01*
X74799398Y-118543889D01*
X74800000Y-118550000D01*
X74800000Y-119050000D01*
X74799398Y-119056111D01*
X74799398Y-119074534D01*
X74799157Y-119079435D01*
X74794347Y-119128266D01*
X74793627Y-119133119D01*
X74784055Y-119181244D01*
X74782863Y-119186005D01*
X74768619Y-119232960D01*
X74766966Y-119237579D01*
X74748189Y-119282912D01*
X74746091Y-119287349D01*
X74722960Y-119330622D01*
X74720438Y-119334829D01*
X74693178Y-119375628D01*
X74690254Y-119379570D01*
X74659126Y-119417499D01*
X74655831Y-119421134D01*
X74621134Y-119455831D01*
X74617499Y-119459126D01*
X74579570Y-119490254D01*
X74575628Y-119493178D01*
X74534829Y-119520438D01*
X74530622Y-119522960D01*
X74487349Y-119546091D01*
X74482912Y-119548189D01*
X74437579Y-119566966D01*
X74432960Y-119568619D01*
X74386005Y-119582863D01*
X74381244Y-119584055D01*
X74333119Y-119593627D01*
X74328266Y-119594347D01*
X74279435Y-119599157D01*
X74274534Y-119599398D01*
X74256111Y-119599398D01*
X74250000Y-119600000D01*
X73750000Y-119600000D01*
X73740245Y-119599039D01*
X73730866Y-119596194D01*
X73722221Y-119591573D01*
X73714645Y-119585355D01*
X73708427Y-119577779D01*
X73703806Y-119569134D01*
X73700961Y-119559755D01*
X73700000Y-119550000D01*
X73700000Y-118050000D01*
X73700961Y-118040245D01*
X73703806Y-118030866D01*
X73708427Y-118022221D01*
X73714645Y-118014645D01*
X73722221Y-118008427D01*
X73730866Y-118003806D01*
X73740245Y-118000961D01*
X73750000Y-118000000D01*
X74250000Y-118000000D01*
X74256111Y-118000602D01*
X74256111Y-118000602D01*
G37*
D20*
X75600000Y-112950000D03*
D12*
G36*
X76399039Y-113459755D02*
G01*
X76396194Y-113469134D01*
X76391573Y-113477779D01*
X76385355Y-113485355D01*
X76377779Y-113491573D01*
X76369134Y-113496194D01*
X76359755Y-113499039D01*
X76350000Y-113500000D01*
X74850000Y-113500000D01*
X74840245Y-113499039D01*
X74830866Y-113496194D01*
X74822221Y-113491573D01*
X74814645Y-113485355D01*
X74808427Y-113477779D01*
X74803806Y-113469134D01*
X74800961Y-113459755D01*
X74800000Y-113450000D01*
X74800000Y-112950000D01*
X74800602Y-112943889D01*
X74800602Y-112925466D01*
X74800843Y-112920565D01*
X74805653Y-112871734D01*
X74806373Y-112866881D01*
X74815945Y-112818756D01*
X74817137Y-112813995D01*
X74831381Y-112767040D01*
X74833034Y-112762421D01*
X74851811Y-112717088D01*
X74853909Y-112712651D01*
X74877040Y-112669378D01*
X74879562Y-112665171D01*
X74906822Y-112624372D01*
X74909746Y-112620430D01*
X74940874Y-112582501D01*
X74944169Y-112578866D01*
X74978866Y-112544169D01*
X74982501Y-112540874D01*
X75020430Y-112509746D01*
X75024372Y-112506822D01*
X75065171Y-112479562D01*
X75069378Y-112477040D01*
X75112651Y-112453909D01*
X75117088Y-112451811D01*
X75162421Y-112433034D01*
X75167040Y-112431381D01*
X75213995Y-112417137D01*
X75218756Y-112415945D01*
X75266881Y-112406373D01*
X75271734Y-112405653D01*
X75320565Y-112400843D01*
X75325466Y-112400602D01*
X75343889Y-112400602D01*
X75350000Y-112400000D01*
X75850000Y-112400000D01*
X75856111Y-112400602D01*
X75874534Y-112400602D01*
X75879435Y-112400843D01*
X75928266Y-112405653D01*
X75933119Y-112406373D01*
X75981244Y-112415945D01*
X75986005Y-112417137D01*
X76032960Y-112431381D01*
X76037579Y-112433034D01*
X76082912Y-112451811D01*
X76087349Y-112453909D01*
X76130622Y-112477040D01*
X76134829Y-112479562D01*
X76175628Y-112506822D01*
X76179570Y-112509746D01*
X76217499Y-112540874D01*
X76221134Y-112544169D01*
X76255831Y-112578866D01*
X76259126Y-112582501D01*
X76290254Y-112620430D01*
X76293178Y-112624372D01*
X76320438Y-112665171D01*
X76322960Y-112669378D01*
X76346091Y-112712651D01*
X76348189Y-112717088D01*
X76366966Y-112762421D01*
X76368619Y-112767040D01*
X76382863Y-112813995D01*
X76384055Y-112818756D01*
X76393627Y-112866881D01*
X76394347Y-112871734D01*
X76399157Y-112920565D01*
X76399398Y-112925466D01*
X76399398Y-112943889D01*
X76400000Y-112950000D01*
X76400000Y-113450000D01*
X76399039Y-113459755D01*
X76399039Y-113459755D01*
G37*
D20*
X75600000Y-114250000D03*
D12*
G36*
X76399398Y-114256111D02*
G01*
X76399398Y-114274534D01*
X76399157Y-114279435D01*
X76394347Y-114328266D01*
X76393627Y-114333119D01*
X76384055Y-114381244D01*
X76382863Y-114386005D01*
X76368619Y-114432960D01*
X76366966Y-114437579D01*
X76348189Y-114482912D01*
X76346091Y-114487349D01*
X76322960Y-114530622D01*
X76320438Y-114534829D01*
X76293178Y-114575628D01*
X76290254Y-114579570D01*
X76259126Y-114617499D01*
X76255831Y-114621134D01*
X76221134Y-114655831D01*
X76217499Y-114659126D01*
X76179570Y-114690254D01*
X76175628Y-114693178D01*
X76134829Y-114720438D01*
X76130622Y-114722960D01*
X76087349Y-114746091D01*
X76082912Y-114748189D01*
X76037579Y-114766966D01*
X76032960Y-114768619D01*
X75986005Y-114782863D01*
X75981244Y-114784055D01*
X75933119Y-114793627D01*
X75928266Y-114794347D01*
X75879435Y-114799157D01*
X75874534Y-114799398D01*
X75856111Y-114799398D01*
X75850000Y-114800000D01*
X75350000Y-114800000D01*
X75343889Y-114799398D01*
X75325466Y-114799398D01*
X75320565Y-114799157D01*
X75271734Y-114794347D01*
X75266881Y-114793627D01*
X75218756Y-114784055D01*
X75213995Y-114782863D01*
X75167040Y-114768619D01*
X75162421Y-114766966D01*
X75117088Y-114748189D01*
X75112651Y-114746091D01*
X75069378Y-114722960D01*
X75065171Y-114720438D01*
X75024372Y-114693178D01*
X75020430Y-114690254D01*
X74982501Y-114659126D01*
X74978866Y-114655831D01*
X74944169Y-114621134D01*
X74940874Y-114617499D01*
X74909746Y-114579570D01*
X74906822Y-114575628D01*
X74879562Y-114534829D01*
X74877040Y-114530622D01*
X74853909Y-114487349D01*
X74851811Y-114482912D01*
X74833034Y-114437579D01*
X74831381Y-114432960D01*
X74817137Y-114386005D01*
X74815945Y-114381244D01*
X74806373Y-114333119D01*
X74805653Y-114328266D01*
X74800843Y-114279435D01*
X74800602Y-114274534D01*
X74800602Y-114256111D01*
X74800000Y-114250000D01*
X74800000Y-113750000D01*
X74800961Y-113740245D01*
X74803806Y-113730866D01*
X74808427Y-113722221D01*
X74814645Y-113714645D01*
X74822221Y-113708427D01*
X74830866Y-113703806D01*
X74840245Y-113700961D01*
X74850000Y-113700000D01*
X76350000Y-113700000D01*
X76359755Y-113700961D01*
X76369134Y-113703806D01*
X76377779Y-113708427D01*
X76385355Y-113714645D01*
X76391573Y-113722221D01*
X76396194Y-113730866D01*
X76399039Y-113740245D01*
X76400000Y-113750000D01*
X76400000Y-114250000D01*
X76399398Y-114256111D01*
X76399398Y-114256111D01*
G37*
G36*
X77754897Y-124851308D02*
G01*
X77781275Y-124855221D01*
X77807143Y-124861701D01*
X77832252Y-124870685D01*
X77856358Y-124882086D01*
X77879232Y-124895796D01*
X77900651Y-124911682D01*
X77920410Y-124929590D01*
X77938318Y-124949349D01*
X77954204Y-124970768D01*
X77967914Y-124993642D01*
X77979315Y-125017748D01*
X77988299Y-125042857D01*
X77994779Y-125068725D01*
X77998692Y-125095103D01*
X78000000Y-125121738D01*
X78000000Y-125828262D01*
X77998692Y-125854897D01*
X77994779Y-125881275D01*
X77988299Y-125907143D01*
X77979315Y-125932252D01*
X77967914Y-125956358D01*
X77954204Y-125979232D01*
X77938318Y-126000651D01*
X77920410Y-126020410D01*
X77900651Y-126038318D01*
X77879232Y-126054204D01*
X77856358Y-126067914D01*
X77832252Y-126079315D01*
X77807143Y-126088299D01*
X77781275Y-126094779D01*
X77754897Y-126098692D01*
X77728262Y-126100000D01*
X76771738Y-126100000D01*
X76745103Y-126098692D01*
X76718725Y-126094779D01*
X76692857Y-126088299D01*
X76667748Y-126079315D01*
X76643642Y-126067914D01*
X76620768Y-126054204D01*
X76599349Y-126038318D01*
X76579590Y-126020410D01*
X76561682Y-126000651D01*
X76545796Y-125979232D01*
X76532086Y-125956358D01*
X76520685Y-125932252D01*
X76511701Y-125907143D01*
X76505221Y-125881275D01*
X76501308Y-125854897D01*
X76500000Y-125828262D01*
X76500000Y-125121738D01*
X76501308Y-125095103D01*
X76505221Y-125068725D01*
X76511701Y-125042857D01*
X76520685Y-125017748D01*
X76532086Y-124993642D01*
X76545796Y-124970768D01*
X76561682Y-124949349D01*
X76579590Y-124929590D01*
X76599349Y-124911682D01*
X76620768Y-124895796D01*
X76643642Y-124882086D01*
X76667748Y-124870685D01*
X76692857Y-124861701D01*
X76718725Y-124855221D01*
X76745103Y-124851308D01*
X76771738Y-124850000D01*
X77728262Y-124850000D01*
X77754897Y-124851308D01*
X77754897Y-124851308D01*
G37*
D18*
X77250000Y-125475000D03*
D12*
G36*
X77754897Y-126901308D02*
G01*
X77781275Y-126905221D01*
X77807143Y-126911701D01*
X77832252Y-126920685D01*
X77856358Y-126932086D01*
X77879232Y-126945796D01*
X77900651Y-126961682D01*
X77920410Y-126979590D01*
X77938318Y-126999349D01*
X77954204Y-127020768D01*
X77967914Y-127043642D01*
X77979315Y-127067748D01*
X77988299Y-127092857D01*
X77994779Y-127118725D01*
X77998692Y-127145103D01*
X78000000Y-127171738D01*
X78000000Y-127878262D01*
X77998692Y-127904897D01*
X77994779Y-127931275D01*
X77988299Y-127957143D01*
X77979315Y-127982252D01*
X77967914Y-128006358D01*
X77954204Y-128029232D01*
X77938318Y-128050651D01*
X77920410Y-128070410D01*
X77900651Y-128088318D01*
X77879232Y-128104204D01*
X77856358Y-128117914D01*
X77832252Y-128129315D01*
X77807143Y-128138299D01*
X77781275Y-128144779D01*
X77754897Y-128148692D01*
X77728262Y-128150000D01*
X76771738Y-128150000D01*
X76745103Y-128148692D01*
X76718725Y-128144779D01*
X76692857Y-128138299D01*
X76667748Y-128129315D01*
X76643642Y-128117914D01*
X76620768Y-128104204D01*
X76599349Y-128088318D01*
X76579590Y-128070410D01*
X76561682Y-128050651D01*
X76545796Y-128029232D01*
X76532086Y-128006358D01*
X76520685Y-127982252D01*
X76511701Y-127957143D01*
X76505221Y-127931275D01*
X76501308Y-127904897D01*
X76500000Y-127878262D01*
X76500000Y-127171738D01*
X76501308Y-127145103D01*
X76505221Y-127118725D01*
X76511701Y-127092857D01*
X76520685Y-127067748D01*
X76532086Y-127043642D01*
X76545796Y-127020768D01*
X76561682Y-126999349D01*
X76579590Y-126979590D01*
X76599349Y-126961682D01*
X76620768Y-126945796D01*
X76643642Y-126932086D01*
X76667748Y-126920685D01*
X76692857Y-126911701D01*
X76718725Y-126905221D01*
X76745103Y-126901308D01*
X76771738Y-126900000D01*
X77728262Y-126900000D01*
X77754897Y-126901308D01*
X77754897Y-126901308D01*
G37*
D18*
X77250000Y-127525000D03*
D12*
G36*
X82254897Y-99351308D02*
G01*
X82281275Y-99355221D01*
X82307143Y-99361701D01*
X82332252Y-99370685D01*
X82356358Y-99382086D01*
X82379232Y-99395796D01*
X82400651Y-99411682D01*
X82420410Y-99429590D01*
X82438318Y-99449349D01*
X82454204Y-99470768D01*
X82467914Y-99493642D01*
X82479315Y-99517748D01*
X82488299Y-99542857D01*
X82494779Y-99568725D01*
X82498692Y-99595103D01*
X82500000Y-99621738D01*
X82500000Y-100328262D01*
X82498692Y-100354897D01*
X82494779Y-100381275D01*
X82488299Y-100407143D01*
X82479315Y-100432252D01*
X82467914Y-100456358D01*
X82454204Y-100479232D01*
X82438318Y-100500651D01*
X82420410Y-100520410D01*
X82400651Y-100538318D01*
X82379232Y-100554204D01*
X82356358Y-100567914D01*
X82332252Y-100579315D01*
X82307143Y-100588299D01*
X82281275Y-100594779D01*
X82254897Y-100598692D01*
X82228262Y-100600000D01*
X81271738Y-100600000D01*
X81245103Y-100598692D01*
X81218725Y-100594779D01*
X81192857Y-100588299D01*
X81167748Y-100579315D01*
X81143642Y-100567914D01*
X81120768Y-100554204D01*
X81099349Y-100538318D01*
X81079590Y-100520410D01*
X81061682Y-100500651D01*
X81045796Y-100479232D01*
X81032086Y-100456358D01*
X81020685Y-100432252D01*
X81011701Y-100407143D01*
X81005221Y-100381275D01*
X81001308Y-100354897D01*
X81000000Y-100328262D01*
X81000000Y-99621738D01*
X81001308Y-99595103D01*
X81005221Y-99568725D01*
X81011701Y-99542857D01*
X81020685Y-99517748D01*
X81032086Y-99493642D01*
X81045796Y-99470768D01*
X81061682Y-99449349D01*
X81079590Y-99429590D01*
X81099349Y-99411682D01*
X81120768Y-99395796D01*
X81143642Y-99382086D01*
X81167748Y-99370685D01*
X81192857Y-99361701D01*
X81218725Y-99355221D01*
X81245103Y-99351308D01*
X81271738Y-99350000D01*
X82228262Y-99350000D01*
X82254897Y-99351308D01*
X82254897Y-99351308D01*
G37*
D18*
X81750000Y-99975000D03*
D12*
G36*
X82254897Y-101401308D02*
G01*
X82281275Y-101405221D01*
X82307143Y-101411701D01*
X82332252Y-101420685D01*
X82356358Y-101432086D01*
X82379232Y-101445796D01*
X82400651Y-101461682D01*
X82420410Y-101479590D01*
X82438318Y-101499349D01*
X82454204Y-101520768D01*
X82467914Y-101543642D01*
X82479315Y-101567748D01*
X82488299Y-101592857D01*
X82494779Y-101618725D01*
X82498692Y-101645103D01*
X82500000Y-101671738D01*
X82500000Y-102378262D01*
X82498692Y-102404897D01*
X82494779Y-102431275D01*
X82488299Y-102457143D01*
X82479315Y-102482252D01*
X82467914Y-102506358D01*
X82454204Y-102529232D01*
X82438318Y-102550651D01*
X82420410Y-102570410D01*
X82400651Y-102588318D01*
X82379232Y-102604204D01*
X82356358Y-102617914D01*
X82332252Y-102629315D01*
X82307143Y-102638299D01*
X82281275Y-102644779D01*
X82254897Y-102648692D01*
X82228262Y-102650000D01*
X81271738Y-102650000D01*
X81245103Y-102648692D01*
X81218725Y-102644779D01*
X81192857Y-102638299D01*
X81167748Y-102629315D01*
X81143642Y-102617914D01*
X81120768Y-102604204D01*
X81099349Y-102588318D01*
X81079590Y-102570410D01*
X81061682Y-102550651D01*
X81045796Y-102529232D01*
X81032086Y-102506358D01*
X81020685Y-102482252D01*
X81011701Y-102457143D01*
X81005221Y-102431275D01*
X81001308Y-102404897D01*
X81000000Y-102378262D01*
X81000000Y-101671738D01*
X81001308Y-101645103D01*
X81005221Y-101618725D01*
X81011701Y-101592857D01*
X81020685Y-101567748D01*
X81032086Y-101543642D01*
X81045796Y-101520768D01*
X81061682Y-101499349D01*
X81079590Y-101479590D01*
X81099349Y-101461682D01*
X81120768Y-101445796D01*
X81143642Y-101432086D01*
X81167748Y-101420685D01*
X81192857Y-101411701D01*
X81218725Y-101405221D01*
X81245103Y-101401308D01*
X81271738Y-101400000D01*
X82228262Y-101400000D01*
X82254897Y-101401308D01*
X82254897Y-101401308D01*
G37*
D18*
X81750000Y-102025000D03*
D20*
X81500000Y-93350000D03*
D12*
G36*
X82299039Y-93859755D02*
G01*
X82296194Y-93869134D01*
X82291573Y-93877779D01*
X82285355Y-93885355D01*
X82277779Y-93891573D01*
X82269134Y-93896194D01*
X82259755Y-93899039D01*
X82250000Y-93900000D01*
X80750000Y-93900000D01*
X80740245Y-93899039D01*
X80730866Y-93896194D01*
X80722221Y-93891573D01*
X80714645Y-93885355D01*
X80708427Y-93877779D01*
X80703806Y-93869134D01*
X80700961Y-93859755D01*
X80700000Y-93850000D01*
X80700000Y-93350000D01*
X80700602Y-93343889D01*
X80700602Y-93325466D01*
X80700843Y-93320565D01*
X80705653Y-93271734D01*
X80706373Y-93266881D01*
X80715945Y-93218756D01*
X80717137Y-93213995D01*
X80731381Y-93167040D01*
X80733034Y-93162421D01*
X80751811Y-93117088D01*
X80753909Y-93112651D01*
X80777040Y-93069378D01*
X80779562Y-93065171D01*
X80806822Y-93024372D01*
X80809746Y-93020430D01*
X80840874Y-92982501D01*
X80844169Y-92978866D01*
X80878866Y-92944169D01*
X80882501Y-92940874D01*
X80920430Y-92909746D01*
X80924372Y-92906822D01*
X80965171Y-92879562D01*
X80969378Y-92877040D01*
X81012651Y-92853909D01*
X81017088Y-92851811D01*
X81062421Y-92833034D01*
X81067040Y-92831381D01*
X81113995Y-92817137D01*
X81118756Y-92815945D01*
X81166881Y-92806373D01*
X81171734Y-92805653D01*
X81220565Y-92800843D01*
X81225466Y-92800602D01*
X81243889Y-92800602D01*
X81250000Y-92800000D01*
X81750000Y-92800000D01*
X81756111Y-92800602D01*
X81774534Y-92800602D01*
X81779435Y-92800843D01*
X81828266Y-92805653D01*
X81833119Y-92806373D01*
X81881244Y-92815945D01*
X81886005Y-92817137D01*
X81932960Y-92831381D01*
X81937579Y-92833034D01*
X81982912Y-92851811D01*
X81987349Y-92853909D01*
X82030622Y-92877040D01*
X82034829Y-92879562D01*
X82075628Y-92906822D01*
X82079570Y-92909746D01*
X82117499Y-92940874D01*
X82121134Y-92944169D01*
X82155831Y-92978866D01*
X82159126Y-92982501D01*
X82190254Y-93020430D01*
X82193178Y-93024372D01*
X82220438Y-93065171D01*
X82222960Y-93069378D01*
X82246091Y-93112651D01*
X82248189Y-93117088D01*
X82266966Y-93162421D01*
X82268619Y-93167040D01*
X82282863Y-93213995D01*
X82284055Y-93218756D01*
X82293627Y-93266881D01*
X82294347Y-93271734D01*
X82299157Y-93320565D01*
X82299398Y-93325466D01*
X82299398Y-93343889D01*
X82300000Y-93350000D01*
X82300000Y-93850000D01*
X82299039Y-93859755D01*
X82299039Y-93859755D01*
G37*
D20*
X81500000Y-94650000D03*
D12*
G36*
X82299398Y-94656111D02*
G01*
X82299398Y-94674534D01*
X82299157Y-94679435D01*
X82294347Y-94728266D01*
X82293627Y-94733119D01*
X82284055Y-94781244D01*
X82282863Y-94786005D01*
X82268619Y-94832960D01*
X82266966Y-94837579D01*
X82248189Y-94882912D01*
X82246091Y-94887349D01*
X82222960Y-94930622D01*
X82220438Y-94934829D01*
X82193178Y-94975628D01*
X82190254Y-94979570D01*
X82159126Y-95017499D01*
X82155831Y-95021134D01*
X82121134Y-95055831D01*
X82117499Y-95059126D01*
X82079570Y-95090254D01*
X82075628Y-95093178D01*
X82034829Y-95120438D01*
X82030622Y-95122960D01*
X81987349Y-95146091D01*
X81982912Y-95148189D01*
X81937579Y-95166966D01*
X81932960Y-95168619D01*
X81886005Y-95182863D01*
X81881244Y-95184055D01*
X81833119Y-95193627D01*
X81828266Y-95194347D01*
X81779435Y-95199157D01*
X81774534Y-95199398D01*
X81756111Y-95199398D01*
X81750000Y-95200000D01*
X81250000Y-95200000D01*
X81243889Y-95199398D01*
X81225466Y-95199398D01*
X81220565Y-95199157D01*
X81171734Y-95194347D01*
X81166881Y-95193627D01*
X81118756Y-95184055D01*
X81113995Y-95182863D01*
X81067040Y-95168619D01*
X81062421Y-95166966D01*
X81017088Y-95148189D01*
X81012651Y-95146091D01*
X80969378Y-95122960D01*
X80965171Y-95120438D01*
X80924372Y-95093178D01*
X80920430Y-95090254D01*
X80882501Y-95059126D01*
X80878866Y-95055831D01*
X80844169Y-95021134D01*
X80840874Y-95017499D01*
X80809746Y-94979570D01*
X80806822Y-94975628D01*
X80779562Y-94934829D01*
X80777040Y-94930622D01*
X80753909Y-94887349D01*
X80751811Y-94882912D01*
X80733034Y-94837579D01*
X80731381Y-94832960D01*
X80717137Y-94786005D01*
X80715945Y-94781244D01*
X80706373Y-94733119D01*
X80705653Y-94728266D01*
X80700843Y-94679435D01*
X80700602Y-94674534D01*
X80700602Y-94656111D01*
X80700000Y-94650000D01*
X80700000Y-94150000D01*
X80700961Y-94140245D01*
X80703806Y-94130866D01*
X80708427Y-94122221D01*
X80714645Y-94114645D01*
X80722221Y-94108427D01*
X80730866Y-94103806D01*
X80740245Y-94100961D01*
X80750000Y-94100000D01*
X82250000Y-94100000D01*
X82259755Y-94100961D01*
X82269134Y-94103806D01*
X82277779Y-94108427D01*
X82285355Y-94114645D01*
X82291573Y-94122221D01*
X82296194Y-94130866D01*
X82299039Y-94140245D01*
X82300000Y-94150000D01*
X82300000Y-94650000D01*
X82299398Y-94656111D01*
X82299398Y-94656111D01*
G37*
D20*
X76950000Y-94400000D03*
D12*
G36*
X77459755Y-93600961D02*
G01*
X77469134Y-93603806D01*
X77477779Y-93608427D01*
X77485355Y-93614645D01*
X77491573Y-93622221D01*
X77496194Y-93630866D01*
X77499039Y-93640245D01*
X77500000Y-93650000D01*
X77500000Y-95150000D01*
X77499039Y-95159755D01*
X77496194Y-95169134D01*
X77491573Y-95177779D01*
X77485355Y-95185355D01*
X77477779Y-95191573D01*
X77469134Y-95196194D01*
X77459755Y-95199039D01*
X77450000Y-95200000D01*
X76950000Y-95200000D01*
X76943889Y-95199398D01*
X76925466Y-95199398D01*
X76920565Y-95199157D01*
X76871734Y-95194347D01*
X76866881Y-95193627D01*
X76818756Y-95184055D01*
X76813995Y-95182863D01*
X76767040Y-95168619D01*
X76762421Y-95166966D01*
X76717088Y-95148189D01*
X76712651Y-95146091D01*
X76669378Y-95122960D01*
X76665171Y-95120438D01*
X76624372Y-95093178D01*
X76620430Y-95090254D01*
X76582501Y-95059126D01*
X76578866Y-95055831D01*
X76544169Y-95021134D01*
X76540874Y-95017499D01*
X76509746Y-94979570D01*
X76506822Y-94975628D01*
X76479562Y-94934829D01*
X76477040Y-94930622D01*
X76453909Y-94887349D01*
X76451811Y-94882912D01*
X76433034Y-94837579D01*
X76431381Y-94832960D01*
X76417137Y-94786005D01*
X76415945Y-94781244D01*
X76406373Y-94733119D01*
X76405653Y-94728266D01*
X76400843Y-94679435D01*
X76400602Y-94674534D01*
X76400602Y-94656111D01*
X76400000Y-94650000D01*
X76400000Y-94150000D01*
X76400602Y-94143889D01*
X76400602Y-94125466D01*
X76400843Y-94120565D01*
X76405653Y-94071734D01*
X76406373Y-94066881D01*
X76415945Y-94018756D01*
X76417137Y-94013995D01*
X76431381Y-93967040D01*
X76433034Y-93962421D01*
X76451811Y-93917088D01*
X76453909Y-93912651D01*
X76477040Y-93869378D01*
X76479562Y-93865171D01*
X76506822Y-93824372D01*
X76509746Y-93820430D01*
X76540874Y-93782501D01*
X76544169Y-93778866D01*
X76578866Y-93744169D01*
X76582501Y-93740874D01*
X76620430Y-93709746D01*
X76624372Y-93706822D01*
X76665171Y-93679562D01*
X76669378Y-93677040D01*
X76712651Y-93653909D01*
X76717088Y-93651811D01*
X76762421Y-93633034D01*
X76767040Y-93631381D01*
X76813995Y-93617137D01*
X76818756Y-93615945D01*
X76866881Y-93606373D01*
X76871734Y-93605653D01*
X76920565Y-93600843D01*
X76925466Y-93600602D01*
X76943889Y-93600602D01*
X76950000Y-93600000D01*
X77450000Y-93600000D01*
X77459755Y-93600961D01*
X77459755Y-93600961D01*
G37*
D20*
X78250000Y-94400000D03*
D12*
G36*
X78256111Y-93600602D02*
G01*
X78274534Y-93600602D01*
X78279435Y-93600843D01*
X78328266Y-93605653D01*
X78333119Y-93606373D01*
X78381244Y-93615945D01*
X78386005Y-93617137D01*
X78432960Y-93631381D01*
X78437579Y-93633034D01*
X78482912Y-93651811D01*
X78487349Y-93653909D01*
X78530622Y-93677040D01*
X78534829Y-93679562D01*
X78575628Y-93706822D01*
X78579570Y-93709746D01*
X78617499Y-93740874D01*
X78621134Y-93744169D01*
X78655831Y-93778866D01*
X78659126Y-93782501D01*
X78690254Y-93820430D01*
X78693178Y-93824372D01*
X78720438Y-93865171D01*
X78722960Y-93869378D01*
X78746091Y-93912651D01*
X78748189Y-93917088D01*
X78766966Y-93962421D01*
X78768619Y-93967040D01*
X78782863Y-94013995D01*
X78784055Y-94018756D01*
X78793627Y-94066881D01*
X78794347Y-94071734D01*
X78799157Y-94120565D01*
X78799398Y-94125466D01*
X78799398Y-94143889D01*
X78800000Y-94150000D01*
X78800000Y-94650000D01*
X78799398Y-94656111D01*
X78799398Y-94674534D01*
X78799157Y-94679435D01*
X78794347Y-94728266D01*
X78793627Y-94733119D01*
X78784055Y-94781244D01*
X78782863Y-94786005D01*
X78768619Y-94832960D01*
X78766966Y-94837579D01*
X78748189Y-94882912D01*
X78746091Y-94887349D01*
X78722960Y-94930622D01*
X78720438Y-94934829D01*
X78693178Y-94975628D01*
X78690254Y-94979570D01*
X78659126Y-95017499D01*
X78655831Y-95021134D01*
X78621134Y-95055831D01*
X78617499Y-95059126D01*
X78579570Y-95090254D01*
X78575628Y-95093178D01*
X78534829Y-95120438D01*
X78530622Y-95122960D01*
X78487349Y-95146091D01*
X78482912Y-95148189D01*
X78437579Y-95166966D01*
X78432960Y-95168619D01*
X78386005Y-95182863D01*
X78381244Y-95184055D01*
X78333119Y-95193627D01*
X78328266Y-95194347D01*
X78279435Y-95199157D01*
X78274534Y-95199398D01*
X78256111Y-95199398D01*
X78250000Y-95200000D01*
X77750000Y-95200000D01*
X77740245Y-95199039D01*
X77730866Y-95196194D01*
X77722221Y-95191573D01*
X77714645Y-95185355D01*
X77708427Y-95177779D01*
X77703806Y-95169134D01*
X77700961Y-95159755D01*
X77700000Y-95150000D01*
X77700000Y-93650000D01*
X77700961Y-93640245D01*
X77703806Y-93630866D01*
X77708427Y-93622221D01*
X77714645Y-93614645D01*
X77722221Y-93608427D01*
X77730866Y-93603806D01*
X77740245Y-93600961D01*
X77750000Y-93600000D01*
X78250000Y-93600000D01*
X78256111Y-93600602D01*
X78256111Y-93600602D01*
G37*
D15*
X90500000Y-72300000D03*
D21*
X90500000Y-68500000D03*
D12*
G36*
X75504897Y-124826308D02*
G01*
X75531275Y-124830221D01*
X75557143Y-124836701D01*
X75582252Y-124845685D01*
X75606358Y-124857086D01*
X75629232Y-124870796D01*
X75650651Y-124886682D01*
X75670410Y-124904590D01*
X75688318Y-124924349D01*
X75704204Y-124945768D01*
X75717914Y-124968642D01*
X75729315Y-124992748D01*
X75738299Y-125017857D01*
X75744779Y-125043725D01*
X75748692Y-125070103D01*
X75750000Y-125096738D01*
X75750000Y-125803262D01*
X75748692Y-125829897D01*
X75744779Y-125856275D01*
X75738299Y-125882143D01*
X75729315Y-125907252D01*
X75717914Y-125931358D01*
X75704204Y-125954232D01*
X75688318Y-125975651D01*
X75670410Y-125995410D01*
X75650651Y-126013318D01*
X75629232Y-126029204D01*
X75606358Y-126042914D01*
X75582252Y-126054315D01*
X75557143Y-126063299D01*
X75531275Y-126069779D01*
X75504897Y-126073692D01*
X75478262Y-126075000D01*
X74521738Y-126075000D01*
X74495103Y-126073692D01*
X74468725Y-126069779D01*
X74442857Y-126063299D01*
X74417748Y-126054315D01*
X74393642Y-126042914D01*
X74370768Y-126029204D01*
X74349349Y-126013318D01*
X74329590Y-125995410D01*
X74311682Y-125975651D01*
X74295796Y-125954232D01*
X74282086Y-125931358D01*
X74270685Y-125907252D01*
X74261701Y-125882143D01*
X74255221Y-125856275D01*
X74251308Y-125829897D01*
X74250000Y-125803262D01*
X74250000Y-125096738D01*
X74251308Y-125070103D01*
X74255221Y-125043725D01*
X74261701Y-125017857D01*
X74270685Y-124992748D01*
X74282086Y-124968642D01*
X74295796Y-124945768D01*
X74311682Y-124924349D01*
X74329590Y-124904590D01*
X74349349Y-124886682D01*
X74370768Y-124870796D01*
X74393642Y-124857086D01*
X74417748Y-124845685D01*
X74442857Y-124836701D01*
X74468725Y-124830221D01*
X74495103Y-124826308D01*
X74521738Y-124825000D01*
X75478262Y-124825000D01*
X75504897Y-124826308D01*
X75504897Y-124826308D01*
G37*
D18*
X75000000Y-125450000D03*
D12*
G36*
X75504897Y-126876308D02*
G01*
X75531275Y-126880221D01*
X75557143Y-126886701D01*
X75582252Y-126895685D01*
X75606358Y-126907086D01*
X75629232Y-126920796D01*
X75650651Y-126936682D01*
X75670410Y-126954590D01*
X75688318Y-126974349D01*
X75704204Y-126995768D01*
X75717914Y-127018642D01*
X75729315Y-127042748D01*
X75738299Y-127067857D01*
X75744779Y-127093725D01*
X75748692Y-127120103D01*
X75750000Y-127146738D01*
X75750000Y-127853262D01*
X75748692Y-127879897D01*
X75744779Y-127906275D01*
X75738299Y-127932143D01*
X75729315Y-127957252D01*
X75717914Y-127981358D01*
X75704204Y-128004232D01*
X75688318Y-128025651D01*
X75670410Y-128045410D01*
X75650651Y-128063318D01*
X75629232Y-128079204D01*
X75606358Y-128092914D01*
X75582252Y-128104315D01*
X75557143Y-128113299D01*
X75531275Y-128119779D01*
X75504897Y-128123692D01*
X75478262Y-128125000D01*
X74521738Y-128125000D01*
X74495103Y-128123692D01*
X74468725Y-128119779D01*
X74442857Y-128113299D01*
X74417748Y-128104315D01*
X74393642Y-128092914D01*
X74370768Y-128079204D01*
X74349349Y-128063318D01*
X74329590Y-128045410D01*
X74311682Y-128025651D01*
X74295796Y-128004232D01*
X74282086Y-127981358D01*
X74270685Y-127957252D01*
X74261701Y-127932143D01*
X74255221Y-127906275D01*
X74251308Y-127879897D01*
X74250000Y-127853262D01*
X74250000Y-127146738D01*
X74251308Y-127120103D01*
X74255221Y-127093725D01*
X74261701Y-127067857D01*
X74270685Y-127042748D01*
X74282086Y-127018642D01*
X74295796Y-126995768D01*
X74311682Y-126974349D01*
X74329590Y-126954590D01*
X74349349Y-126936682D01*
X74370768Y-126920796D01*
X74393642Y-126907086D01*
X74417748Y-126895685D01*
X74442857Y-126886701D01*
X74468725Y-126880221D01*
X74495103Y-126876308D01*
X74521738Y-126875000D01*
X75478262Y-126875000D01*
X75504897Y-126876308D01*
X75504897Y-126876308D01*
G37*
D18*
X75000000Y-127500000D03*
D22*
X70000000Y-110160000D03*
X70000000Y-105080000D03*
D23*
X70000000Y-100000000D03*
D24*
X100420000Y-77500000D03*
X102960000Y-77500000D03*
D25*
X105500000Y-77500000D03*
D26*
X102960000Y-88600000D03*
D27*
X125880000Y-59610000D03*
X120430000Y-59610000D03*
D28*
X114980000Y-59610000D03*
D29*
X120430000Y-40810000D03*
D27*
X104400000Y-59500000D03*
X98950000Y-59500000D03*
D28*
X93500000Y-59500000D03*
D29*
X98950000Y-40700000D03*
D30*
X145080000Y-79420000D03*
X145080000Y-81960000D03*
X145080000Y-84500000D03*
X140000000Y-84500000D03*
X140000000Y-81960000D03*
X140000000Y-79420000D03*
X145080000Y-64500000D03*
X145080000Y-67040000D03*
X145080000Y-69580000D03*
X140000000Y-69580000D03*
X140000000Y-67040000D03*
X140000000Y-64500000D03*
X80080000Y-79500000D03*
X80080000Y-82040000D03*
X80080000Y-84580000D03*
X75000000Y-84580000D03*
X75000000Y-82040000D03*
X75000000Y-79500000D03*
X80080000Y-64420000D03*
X80080000Y-66960000D03*
X80080000Y-69500000D03*
X75000000Y-69500000D03*
X75000000Y-66960000D03*
X75000000Y-64420000D03*
D12*
G36*
X84254897Y-99351308D02*
G01*
X84281275Y-99355221D01*
X84307143Y-99361701D01*
X84332252Y-99370685D01*
X84356358Y-99382086D01*
X84379232Y-99395796D01*
X84400651Y-99411682D01*
X84420410Y-99429590D01*
X84438318Y-99449349D01*
X84454204Y-99470768D01*
X84467914Y-99493642D01*
X84479315Y-99517748D01*
X84488299Y-99542857D01*
X84494779Y-99568725D01*
X84498692Y-99595103D01*
X84500000Y-99621738D01*
X84500000Y-100328262D01*
X84498692Y-100354897D01*
X84494779Y-100381275D01*
X84488299Y-100407143D01*
X84479315Y-100432252D01*
X84467914Y-100456358D01*
X84454204Y-100479232D01*
X84438318Y-100500651D01*
X84420410Y-100520410D01*
X84400651Y-100538318D01*
X84379232Y-100554204D01*
X84356358Y-100567914D01*
X84332252Y-100579315D01*
X84307143Y-100588299D01*
X84281275Y-100594779D01*
X84254897Y-100598692D01*
X84228262Y-100600000D01*
X83271738Y-100600000D01*
X83245103Y-100598692D01*
X83218725Y-100594779D01*
X83192857Y-100588299D01*
X83167748Y-100579315D01*
X83143642Y-100567914D01*
X83120768Y-100554204D01*
X83099349Y-100538318D01*
X83079590Y-100520410D01*
X83061682Y-100500651D01*
X83045796Y-100479232D01*
X83032086Y-100456358D01*
X83020685Y-100432252D01*
X83011701Y-100407143D01*
X83005221Y-100381275D01*
X83001308Y-100354897D01*
X83000000Y-100328262D01*
X83000000Y-99621738D01*
X83001308Y-99595103D01*
X83005221Y-99568725D01*
X83011701Y-99542857D01*
X83020685Y-99517748D01*
X83032086Y-99493642D01*
X83045796Y-99470768D01*
X83061682Y-99449349D01*
X83079590Y-99429590D01*
X83099349Y-99411682D01*
X83120768Y-99395796D01*
X83143642Y-99382086D01*
X83167748Y-99370685D01*
X83192857Y-99361701D01*
X83218725Y-99355221D01*
X83245103Y-99351308D01*
X83271738Y-99350000D01*
X84228262Y-99350000D01*
X84254897Y-99351308D01*
X84254897Y-99351308D01*
G37*
D18*
X83750000Y-99975000D03*
D12*
G36*
X84254897Y-101401308D02*
G01*
X84281275Y-101405221D01*
X84307143Y-101411701D01*
X84332252Y-101420685D01*
X84356358Y-101432086D01*
X84379232Y-101445796D01*
X84400651Y-101461682D01*
X84420410Y-101479590D01*
X84438318Y-101499349D01*
X84454204Y-101520768D01*
X84467914Y-101543642D01*
X84479315Y-101567748D01*
X84488299Y-101592857D01*
X84494779Y-101618725D01*
X84498692Y-101645103D01*
X84500000Y-101671738D01*
X84500000Y-102378262D01*
X84498692Y-102404897D01*
X84494779Y-102431275D01*
X84488299Y-102457143D01*
X84479315Y-102482252D01*
X84467914Y-102506358D01*
X84454204Y-102529232D01*
X84438318Y-102550651D01*
X84420410Y-102570410D01*
X84400651Y-102588318D01*
X84379232Y-102604204D01*
X84356358Y-102617914D01*
X84332252Y-102629315D01*
X84307143Y-102638299D01*
X84281275Y-102644779D01*
X84254897Y-102648692D01*
X84228262Y-102650000D01*
X83271738Y-102650000D01*
X83245103Y-102648692D01*
X83218725Y-102644779D01*
X83192857Y-102638299D01*
X83167748Y-102629315D01*
X83143642Y-102617914D01*
X83120768Y-102604204D01*
X83099349Y-102588318D01*
X83079590Y-102570410D01*
X83061682Y-102550651D01*
X83045796Y-102529232D01*
X83032086Y-102506358D01*
X83020685Y-102482252D01*
X83011701Y-102457143D01*
X83005221Y-102431275D01*
X83001308Y-102404897D01*
X83000000Y-102378262D01*
X83000000Y-101671738D01*
X83001308Y-101645103D01*
X83005221Y-101618725D01*
X83011701Y-101592857D01*
X83020685Y-101567748D01*
X83032086Y-101543642D01*
X83045796Y-101520768D01*
X83061682Y-101499349D01*
X83079590Y-101479590D01*
X83099349Y-101461682D01*
X83120768Y-101445796D01*
X83143642Y-101432086D01*
X83167748Y-101420685D01*
X83192857Y-101411701D01*
X83218725Y-101405221D01*
X83245103Y-101401308D01*
X83271738Y-101400000D01*
X84228262Y-101400000D01*
X84254897Y-101401308D01*
X84254897Y-101401308D01*
G37*
D18*
X83750000Y-102025000D03*
M02*
