M48
; DRILL file {KiCad (5.1.4)-1} date 03/06/2021 21:11:10
; FORMAT={-:-/ absolute / metric / decimal}
; #@! TF.CreationDate,2021-06-03T21:11:10-04:00
; #@! TF.GenerationSoftware,Kicad,Pcbnew,(5.1.4)-1
; #@! TF.FileFunction,Plated,1,4,PTH
FMAT,2
METRIC
T1C0.400
T2C0.800
T3C1.000
T4C1.500
T5C1.520
T6C1.600
T7C3.600
%
G90
G05
T1
X66.0Y-93.5
X66.0Y-94.5
X66.0Y-95.5
X66.0Y-96.5
X66.0Y-104.0
X66.0Y-105.0
X66.0Y-106.0
X66.0Y-124.0
X66.0Y-125.0
X66.0Y-126.0
X66.0Y-127.0
X66.0Y-128.0
X66.0Y-129.0
X66.0Y-130.0
X66.0Y-131.0
X66.0Y-132.0
X66.0Y-133.0
X66.0Y-134.0
X66.0Y-135.0
X66.75Y-92.5
X66.75Y-97.25
X66.75Y-103.25
X66.75Y-106.75
X66.8Y-37.8
X66.8Y-39.8
X66.8Y-41.8
X66.8Y-43.8
X66.8Y-45.8
X66.8Y-47.8
X66.8Y-49.8
X66.8Y-51.8
X67.0Y-135.0
X67.75Y-92.5
X67.75Y-124.25
X67.75Y-128.25
X68.0Y-135.0
X68.75Y-92.5
X68.8Y-37.8
X68.8Y-39.8
X68.8Y-41.8
X68.8Y-43.8
X68.8Y-45.8
X68.8Y-47.8
X68.8Y-49.8
X68.8Y-51.8
X69.0Y-124.25
X69.0Y-135.0
X69.75Y-92.5
X69.75Y-128.25
X70.0Y-135.0
X70.25Y-124.25
X70.75Y-92.5
X70.8Y-37.8
X70.8Y-39.8
X70.8Y-41.8
X70.8Y-43.8
X70.8Y-45.8
X70.8Y-47.8
X70.8Y-49.8
X70.8Y-51.8
X71.0Y-135.0
X71.5Y-124.25
X71.75Y-92.5
X72.0Y-135.0
X72.25Y-119.75
X72.25Y-121.0
X72.25Y-122.25
X72.25Y-123.5
X72.5Y-130.25
X72.75Y-92.5
X72.8Y-37.8
X72.8Y-39.8
X72.8Y-41.8
X72.8Y-43.8
X72.8Y-45.8
X72.8Y-47.8
X72.8Y-49.8
X72.8Y-51.8
X73.0Y-103.75
X73.0Y-105.0
X73.0Y-106.5
X73.0Y-135.0
X73.2Y-114.2
X73.2Y-115.2
X73.2Y-116.2
X73.2Y-117.2
X73.5Y-102.75
X73.6Y-132.6
X73.75Y-92.5
X74.0Y-107.0
X74.0Y-108.0
X74.0Y-109.0
X74.0Y-110.0
X74.0Y-111.0
X74.0Y-112.0
X74.0Y-135.0
X74.5Y-127.5
X74.75Y-92.5
X74.8Y-37.8
X74.8Y-39.8
X74.8Y-41.8
X74.8Y-43.8
X74.8Y-45.8
X74.8Y-47.8
X74.8Y-49.8
X74.8Y-51.8
X75.0Y-135.0
X75.45Y-128.05
X75.5Y-105.5
X75.5Y-112.5
X75.6Y-132.6
X75.75Y-92.5
X76.0Y-135.0
X76.5Y-107.0
X76.5Y-128.25
X76.5Y-130.0
X76.8Y-37.8
X76.8Y-39.8
X76.8Y-41.8
X76.8Y-43.8
X76.8Y-45.8
X76.8Y-47.8
X76.8Y-49.8
X76.8Y-51.8
X76.8Y-92.8
X77.0Y-135.0
X77.25Y-105.5
X77.25Y-112.5
X77.25Y-129.0
X77.4Y-132.6
X77.5Y-99.5
X77.5Y-101.0
X77.5Y-102.75
X78.0Y-92.8
X78.0Y-107.75
X78.0Y-135.0
X78.75Y-102.0
X78.75Y-104.0
X78.8Y-37.8
X78.8Y-39.8
X78.8Y-41.8
X78.8Y-43.8
X78.8Y-45.8
X78.8Y-47.8
X78.8Y-49.8
X78.8Y-51.8
X78.8Y-105.8
X79.0Y-112.75
X79.0Y-135.0
X79.2Y-92.8
X79.2Y-120.0
X79.2Y-132.6
X79.5Y-94.5
X79.5Y-95.5
X79.5Y-96.5
X79.5Y-97.5
X79.5Y-124.25
X79.5Y-127.25
X79.6Y-107.4
X79.75Y-113.5
X79.8Y-118.6
X80.0Y-116.4
X80.0Y-135.0
X80.5Y-109.5
X80.5Y-111.25
X80.6Y-92.75
X80.6Y-114.6
X80.6Y-120.6
X80.75Y-129.25
X80.8Y-37.8
X80.8Y-39.8
X80.8Y-41.8
X80.8Y-43.8
X80.8Y-45.8
X80.8Y-47.8
X80.8Y-49.8
X80.8Y-51.8
X81.0Y-107.6
X81.0Y-135.0
X81.2Y-132.6
X82.0Y-135.0
X82.375Y-92.825
X82.4Y-108.2
X82.4Y-109.6
X82.4Y-111.0
X82.4Y-112.4
X82.5Y-102.0
X82.5Y-103.25
X82.5Y-125.75
X82.6Y-120.6
X82.8Y-37.8
X82.8Y-39.8
X82.8Y-41.8
X82.8Y-43.8
X82.8Y-45.8
X82.8Y-47.8
X82.8Y-49.8
X82.8Y-51.8
X83.0Y-115.0
X83.0Y-132.6
X83.0Y-135.0
X83.75Y-102.0
X83.75Y-103.25
X84.0Y-113.0
X84.0Y-135.0
X84.2Y-92.6
X84.6Y-120.6
X84.6Y-132.6
X84.8Y-37.8
X84.8Y-39.8
X84.8Y-41.8
X84.8Y-43.8
X84.8Y-45.8
X84.8Y-47.8
X84.8Y-49.8
X84.8Y-51.8
X85.0Y-135.0
X85.25Y-115.25
X85.25Y-117.5
X85.25Y-119.25
X85.4Y-92.8
X85.4Y-97.2
X85.4Y-113.0
X85.5Y-100.25
X85.5Y-102.75
X85.6Y-101.4
X86.0Y-135.0
X86.25Y-104.25
X86.25Y-105.25
X86.25Y-106.25
X86.4Y-92.8
X86.4Y-120.6
X86.6Y-132.6
X86.8Y-37.8
X86.8Y-39.8
X86.8Y-41.8
X86.8Y-43.8
X86.8Y-45.8
X86.8Y-47.8
X86.8Y-49.8
X86.8Y-51.8
X86.8Y-113.0
X87.0Y-135.0
X87.4Y-92.8
X87.6Y-97.2
X88.0Y-125.4
X88.0Y-126.8
X88.0Y-128.2
X88.0Y-129.8
X88.0Y-131.6
X88.0Y-135.0
X88.2Y-108.8
X88.2Y-110.4
X88.2Y-112.0
X88.25Y-107.0
X88.25Y-114.5
X88.4Y-92.8
X88.4Y-118.0
X88.5Y-102.25
X88.5Y-103.25
X88.75Y-101.0
X88.8Y-37.8
X88.8Y-39.8
X88.8Y-41.8
X88.8Y-43.8
X88.8Y-45.8
X88.8Y-47.8
X88.8Y-49.8
X88.8Y-51.8
X89.0Y-135.0
X89.4Y-92.8
X89.8Y-108.6
X90.0Y-97.2
X90.4Y-92.8
X90.4Y-128.2
X90.4Y-129.2
X90.4Y-130.2
X90.4Y-131.2
X90.4Y-132.2
X90.4Y-133.2
X90.4Y-134.2
X90.4Y-135.2
X90.6Y-112.6
X90.6Y-118.6
X90.6Y-120.0
X90.6Y-121.6
X90.6Y-125.0
X90.6Y-126.0
X90.8Y-37.8
X90.8Y-39.8
X90.8Y-41.8
X90.8Y-43.8
X90.8Y-45.8
X90.8Y-47.8
X90.8Y-49.8
X90.8Y-51.8
X90.8Y-127.2
X91.25Y-101.0
X91.4Y-92.8
X91.5Y-101.75
X91.6Y-117.4
X91.8Y-110.0
X92.2Y-97.2
X92.4Y-92.8
X92.4Y-110.8
X92.4Y-118.4
X92.8Y-37.8
X92.8Y-39.8
X92.8Y-41.8
X92.8Y-43.8
X92.8Y-45.8
X92.8Y-47.8
X92.8Y-49.8
X92.8Y-51.8
X93.2Y-126.0
X93.6Y-92.8
X93.8Y-107.6
X94.0Y-127.2
X94.4Y-109.2
X94.6Y-97.2
X94.8Y-37.8
X94.8Y-39.8
X94.8Y-41.8
X94.8Y-43.8
X94.8Y-45.8
X94.8Y-47.8
X94.8Y-49.8
X94.8Y-51.8
X94.8Y-92.8
X95.0Y-82.0
X95.0Y-84.0
X95.0Y-86.0
X95.0Y-88.0
X95.0Y-90.0
X95.0Y-127.2
X95.25Y-110.75
X95.8Y-93.4
X95.8Y-107.6
X96.0Y-127.2
X96.25Y-112.0
X96.8Y-37.8
X96.8Y-43.8
X96.8Y-45.8
X96.8Y-47.8
X96.8Y-49.8
X96.8Y-51.8
X97.0Y-127.2
X97.4Y-120.6
X97.5Y-91.5
X97.8Y-107.6
X98.0Y-127.2
X98.25Y-110.5
X98.4Y-103.2
X98.4Y-104.6
X98.5Y-106.25
X98.8Y-43.8
X98.8Y-45.8
X98.8Y-47.8
X98.8Y-49.8
X98.8Y-51.8
X99.0Y-99.0
X99.0Y-127.2
X100.0Y-108.5
X100.0Y-113.5
X100.0Y-116.0
X100.0Y-121.25
X100.0Y-127.2
X100.4Y-103.2
X100.4Y-104.6
X100.5Y-99.0
X100.8Y-37.8
X100.8Y-43.8
X100.8Y-45.8
X100.8Y-47.8
X100.8Y-49.8
X100.8Y-51.8
X101.0Y-127.2
X101.25Y-110.0
X101.8Y-98.4
X102.0Y-106.0
X102.0Y-127.2
X102.2Y-121.4
X102.8Y-37.8
X102.8Y-39.8
X102.8Y-41.8
X102.8Y-43.8
X102.8Y-45.8
X102.8Y-47.8
X102.8Y-49.8
X102.8Y-51.8
X103.0Y-127.2
X103.5Y-102.6
X103.5Y-108.0
X103.5Y-110.0
X104.0Y-127.2
X104.75Y-113.5
X104.75Y-115.75
X104.8Y-37.8
X104.8Y-39.8
X104.8Y-41.8
X104.8Y-43.8
X104.8Y-45.8
X104.8Y-47.8
X104.8Y-49.8
X104.8Y-51.8
X105.0Y-99.25
X105.0Y-109.5
X105.0Y-118.75
X105.0Y-127.2
X105.5Y-100.975
X105.5Y-103.0
X106.0Y-75.0
X106.0Y-80.0
X106.0Y-82.0
X106.0Y-84.0
X106.0Y-86.0
X106.0Y-88.0
X106.0Y-90.0
X106.0Y-92.0
X106.0Y-127.2
X106.5Y-95.5
X106.5Y-124.25
X106.8Y-37.8
X106.8Y-39.8
X106.8Y-41.8
X106.8Y-43.8
X106.8Y-45.8
X106.8Y-47.8
X106.8Y-49.8
X106.8Y-51.8
X107.0Y-108.8
X107.0Y-127.2
X107.2Y-118.0
X107.25Y-73.5
X107.4Y-134.0
X107.75Y-75.75
X108.0Y-127.2
X108.4Y-96.4
X108.5Y-124.25
X108.75Y-107.25
X108.8Y-37.8
X108.8Y-39.8
X108.8Y-41.8
X108.8Y-43.8
X108.8Y-45.8
X108.8Y-47.8
X108.8Y-49.8
X108.8Y-51.8
X109.0Y-127.2
X109.25Y-77.25
X109.5Y-69.5
X109.5Y-80.0
X109.5Y-82.0
X109.5Y-84.0
X109.5Y-86.0
X109.5Y-88.0
X109.5Y-90.0
X109.5Y-114.05
X109.6Y-120.2
X109.75Y-102.0
X109.8Y-111.2
X110.0Y-93.5
X110.0Y-96.5
X110.0Y-109.0
X110.0Y-127.2
X110.2Y-112.0
X110.4Y-118.8
X110.5Y-124.25
X110.8Y-37.8
X110.8Y-39.8
X110.8Y-41.8
X110.8Y-43.8
X110.8Y-45.8
X110.8Y-47.8
X110.8Y-49.8
X110.8Y-51.8
X111.0Y-127.2
X111.4Y-119.8
X111.8Y-95.0
X112.0Y-74.5
X112.0Y-96.5
X112.0Y-123.0
X112.0Y-127.2
X112.2Y-117.4
X112.2Y-129.4
X112.2Y-133.6
X112.4Y-118.6
X112.8Y-37.8
X112.8Y-39.8
X112.8Y-41.8
X112.8Y-43.8
X112.8Y-45.8
X112.8Y-47.8
X112.8Y-49.8
X112.8Y-51.8
X113.0Y-76.0
X113.0Y-78.0
X113.0Y-80.0
X113.0Y-82.0
X113.0Y-84.0
X113.0Y-86.0
X113.0Y-88.0
X113.0Y-90.0
X113.0Y-92.0
X113.0Y-95.0
X113.0Y-100.5
X113.0Y-110.5
X113.0Y-111.5
X113.0Y-127.2
X113.5Y-96.5
X113.5Y-99.0
X113.5Y-105.5
X113.5Y-123.0
X113.5Y-124.75
X114.0Y-95.0
X114.0Y-127.2
X114.25Y-104.25
X114.5Y-97.5
X114.6Y-115.8
X114.8Y-37.8
X114.8Y-39.8
X114.8Y-41.8
X114.8Y-43.8
X114.8Y-45.8
X114.8Y-47.8
X114.8Y-49.8
X114.8Y-51.8
X115.0Y-95.5
X115.0Y-100.5
X115.0Y-107.5
X115.0Y-127.2
X115.4Y-112.2
X115.4Y-119.4
X115.5Y-123.5
X115.5Y-125.5
X116.0Y-96.5
X116.0Y-98.0
X116.0Y-113.2
X116.0Y-127.2
X116.2Y-116.0
X116.75Y-125.75
X116.8Y-37.8
X116.8Y-39.8
X116.8Y-41.8
X116.8Y-43.8
X116.8Y-45.8
X116.8Y-47.8
X116.8Y-49.8
X116.8Y-51.8
X117.0Y-97.0
X117.0Y-100.5
X117.0Y-107.5
X117.0Y-127.2
X117.5Y-109.0
X118.0Y-97.0
X118.0Y-112.5
X118.0Y-127.2
X118.4Y-124.4
X118.5Y-101.0
X118.5Y-103.0
X118.5Y-105.0
X118.5Y-110.5
X118.8Y-37.8
X118.8Y-43.8
X118.8Y-45.8
X118.8Y-47.8
X118.8Y-49.8
X118.8Y-51.8
X119.0Y-97.0
X119.0Y-125.2
X119.0Y-127.2
X119.5Y-74.0
X119.5Y-76.0
X119.5Y-78.0
X119.5Y-80.0
X119.5Y-82.0
X119.5Y-84.0
X119.5Y-86.0
X119.5Y-88.0
X119.5Y-90.0
X119.5Y-92.0
X119.5Y-109.0
X120.0Y-97.0
X120.0Y-127.2
X120.5Y-99.5
X120.5Y-101.0
X120.5Y-103.0
X120.5Y-105.0
X120.5Y-107.0
X120.6Y-120.0
X120.8Y-37.8
X120.8Y-43.8
X120.8Y-45.8
X120.8Y-47.8
X120.8Y-49.8
X120.8Y-51.8
X121.0Y-97.0
X121.0Y-127.2
X121.4Y-112.2
X121.4Y-121.8
X121.4Y-124.8
X121.4Y-126.0
X121.8Y-115.6
X122.0Y-97.0
X122.0Y-127.2
X122.8Y-37.8
X122.8Y-43.8
X122.8Y-45.8
X122.8Y-47.8
X122.8Y-49.8
X122.8Y-51.8
X122.8Y-116.8
X123.0Y-97.0
X123.0Y-115.2
X123.0Y-127.2
X123.2Y-120.2
X123.5Y-104.5
X123.5Y-106.5
X124.0Y-97.0
X124.4Y-113.4
X124.6Y-120.2
X124.6Y-124.8
X124.8Y-37.8
X124.8Y-39.8
X124.8Y-41.8
X124.8Y-43.8
X124.8Y-45.8
X124.8Y-47.8
X124.8Y-49.8
X124.8Y-51.8
X124.9Y-118.5
X125.2Y-125.8
X125.8Y-120.2
X125.8Y-126.6
X126.0Y-104.5
X126.2Y-118.5
X126.8Y-37.8
X126.8Y-39.8
X126.8Y-41.8
X126.8Y-43.8
X126.8Y-45.8
X126.8Y-47.8
X126.8Y-49.8
X126.8Y-51.8
X127.0Y-127.2
X128.0Y-97.0
X128.0Y-108.5
X128.0Y-127.2
X128.8Y-37.8
X128.8Y-39.8
X128.8Y-41.8
X128.8Y-43.8
X128.8Y-45.8
X128.8Y-47.8
X128.8Y-49.8
X128.8Y-51.8
X129.0Y-97.0
X129.0Y-97.0
X129.0Y-127.2
X129.5Y-108.5
X130.0Y-97.0
X130.0Y-127.2
X130.4Y-134.0
X130.5Y-105.0
X130.5Y-121.5
X130.8Y-37.8
X130.8Y-39.8
X130.8Y-41.8
X130.8Y-43.8
X130.8Y-45.8
X130.8Y-47.8
X130.8Y-49.8
X130.8Y-51.8
X131.0Y-97.0
X131.0Y-102.5
X131.0Y-108.5
X131.0Y-117.4
X131.0Y-127.2
X131.5Y-118.5
X132.0Y-97.0
X132.0Y-105.0
X132.0Y-122.0
X132.0Y-127.2
X132.2Y-116.6
X132.4Y-111.6
X132.5Y-73.0
X132.5Y-77.0
X132.5Y-81.0
X132.5Y-85.0
X132.5Y-89.0
X132.5Y-93.0
X132.5Y-102.5
X132.8Y-37.8
X132.8Y-39.8
X132.8Y-41.8
X132.8Y-43.8
X132.8Y-45.8
X132.8Y-47.8
X132.8Y-49.8
X132.8Y-51.8
X133.0Y-97.0
X133.0Y-123.5
X133.0Y-134.0
X133.2Y-127.2
X133.5Y-105.0
X133.75Y-98.25
X133.75Y-99.5
X134.0Y-75.0
X134.0Y-79.0
X134.0Y-83.0
X134.0Y-87.0
X134.0Y-91.0
X134.0Y-96.5
X134.0Y-102.5
X134.0Y-112.0
X134.0Y-124.5
X134.0Y-129.0
X134.25Y-113.75
X134.4Y-111.2
X134.4Y-127.2
X134.5Y-115.0
X134.5Y-116.0
X134.75Y-120.75
X134.8Y-37.8
X134.8Y-39.8
X134.8Y-41.8
X134.8Y-43.8
X134.8Y-45.8
X134.8Y-47.8
X134.8Y-49.8
X134.8Y-51.8
X135.0Y-95.5
X135.0Y-110.6
X135.2Y-128.0
X135.5Y-103.0
X135.6Y-104.4
X136.0Y-94.5
X136.0Y-129.0
X136.0Y-132.0
X136.0Y-133.0
X136.0Y-134.0
X136.0Y-135.0
X136.25Y-122.0
X136.5Y-119.0
X136.8Y-37.8
X136.8Y-39.8
X136.8Y-41.8
X136.8Y-43.8
X136.8Y-45.8
X136.8Y-47.8
X136.8Y-49.8
X136.8Y-51.8
X137.0Y-94.0
X137.0Y-105.25
X137.0Y-112.0
X137.0Y-113.5
X137.0Y-129.0
X137.0Y-135.0
X137.25Y-95.75
X137.75Y-102.5
X138.0Y-94.0
X138.0Y-129.0
X138.0Y-132.0
X138.0Y-135.0
X138.8Y-37.8
X138.8Y-39.8
X138.8Y-41.8
X138.8Y-43.8
X138.8Y-45.8
X138.8Y-47.8
X138.8Y-49.8
X138.8Y-51.8
X139.0Y-94.0
X139.0Y-127.0
X139.0Y-129.0
X139.0Y-135.0
X139.75Y-96.0
X140.0Y-94.0
X140.0Y-129.0
X140.0Y-132.0
X140.0Y-135.0
X140.8Y-37.8
X140.8Y-39.8
X140.8Y-41.8
X140.8Y-43.8
X140.8Y-45.8
X140.8Y-47.8
X140.8Y-49.8
X140.8Y-51.8
X141.0Y-94.0
X141.0Y-113.0
X141.0Y-127.0
X141.0Y-129.0
X141.0Y-135.0
X141.5Y-103.25
X141.5Y-117.5
X141.5Y-120.0
X142.0Y-94.0
X142.0Y-129.0
X142.0Y-132.0
X142.0Y-135.0
X142.25Y-96.0
X142.25Y-98.75
X142.8Y-37.8
X142.8Y-39.8
X142.8Y-41.8
X142.8Y-43.8
X142.8Y-45.8
X142.8Y-47.8
X142.8Y-49.8
X142.8Y-51.8
X143.0Y-94.0
X143.0Y-113.4
X143.0Y-127.0
X143.0Y-129.0
X143.0Y-135.0
X143.5Y-115.0
X143.5Y-117.5
X143.75Y-95.75
X144.0Y-94.0
X144.0Y-129.0
X144.0Y-132.0
X144.0Y-135.0
X144.75Y-103.25
X144.8Y-37.8
X144.8Y-39.8
X144.8Y-41.8
X144.8Y-43.8
X144.8Y-45.8
X144.8Y-47.8
X144.8Y-49.8
X144.8Y-51.8
X145.0Y-94.0
X145.0Y-127.0
X145.0Y-129.0
X145.0Y-135.0
X146.0Y-94.0
X146.0Y-97.5
X146.0Y-103.25
X146.0Y-129.0
X146.0Y-132.0
X146.0Y-135.0
X146.8Y-37.8
X146.8Y-39.8
X146.8Y-41.8
X146.8Y-43.8
X146.8Y-45.8
X146.8Y-47.8
X146.8Y-49.8
X146.8Y-51.8
X146.8Y-109.6
X147.0Y-94.0
X147.0Y-115.0
X147.0Y-117.5
X147.0Y-127.0
X147.0Y-129.0
X147.0Y-135.0
X147.5Y-103.25
X148.0Y-94.0
X148.0Y-100.5
X148.0Y-117.5
X148.0Y-129.0
X148.0Y-132.0
X148.0Y-135.0
X148.75Y-95.25
X148.75Y-97.0
X148.8Y-37.8
X148.8Y-39.8
X148.8Y-41.8
X148.8Y-43.8
X148.8Y-45.8
X148.8Y-47.8
X148.8Y-49.8
X148.8Y-51.8
X149.0Y-94.0
X149.0Y-117.5
X149.0Y-127.0
X149.0Y-129.0
X149.0Y-135.0
X150.0Y-94.0
X150.0Y-114.4
X150.0Y-117.5
X150.0Y-129.0
X150.0Y-132.0
X150.0Y-135.0
X150.25Y-96.5
X150.5Y-127.0
X150.8Y-37.8
X150.8Y-39.8
X150.8Y-41.8
X150.8Y-43.8
X150.8Y-45.8
X150.8Y-47.8
X150.8Y-49.8
X150.8Y-51.8
X151.0Y-94.0
X151.0Y-117.5
X151.0Y-129.0
X151.0Y-135.0
X151.25Y-97.75
X151.25Y-99.5
X151.25Y-101.25
X152.0Y-94.0
X152.0Y-110.0
X152.0Y-111.5
X152.0Y-113.0
X152.0Y-114.5
X152.0Y-116.0
X152.0Y-117.5
X152.0Y-127.5
X152.0Y-128.5
X152.0Y-132.0
X152.0Y-135.0
X152.25Y-107.0
X152.8Y-37.8
X152.8Y-39.8
X152.8Y-41.8
X152.8Y-43.8
X152.8Y-45.8
X152.8Y-47.8
X152.8Y-49.8
X152.8Y-51.8
X153.0Y-94.0
X153.0Y-102.25
X153.0Y-135.0
X153.5Y-117.5
X153.5Y-127.5
X153.75Y-115.75
X154.0Y-94.0
X154.0Y-104.0
X154.0Y-132.0
X154.0Y-135.0
X154.5Y-126.5
X154.6Y-112.8
X154.8Y-37.8
X154.8Y-39.8
X154.8Y-41.8
X154.8Y-43.8
X154.8Y-45.8
X154.8Y-47.8
X154.8Y-49.8
X154.8Y-51.8
X155.0Y-94.0
X155.0Y-117.5
X155.0Y-135.0
X155.25Y-130.0
X155.5Y-119.0
X155.5Y-120.5
X155.5Y-122.0
X155.5Y-123.5
X155.5Y-125.0
X156.0Y-63.75
X156.0Y-65.75
X156.0Y-67.75
X156.0Y-69.75
X156.0Y-71.75
X156.0Y-73.75
X156.0Y-75.75
X156.0Y-77.75
X156.0Y-79.75
X156.0Y-81.75
X156.0Y-83.75
X156.0Y-85.75
X156.0Y-87.75
X156.0Y-89.75
X156.0Y-94.0
X156.0Y-135.0
X156.25Y-104.0
X156.5Y-111.5
X156.5Y-113.0
X156.8Y-37.8
X156.8Y-39.8
X156.8Y-41.8
X156.8Y-43.8
X156.8Y-45.8
X156.8Y-47.8
X156.8Y-49.8
X156.8Y-51.8
X157.0Y-94.0
X157.0Y-135.0
X157.25Y-108.0
X157.25Y-114.25
X157.5Y-128.0
X158.0Y-94.0
X158.0Y-135.0
X158.25Y-115.25
X158.75Y-63.0
X158.75Y-116.25
X158.75Y-127.25
X158.8Y-37.8
X158.8Y-39.8
X158.8Y-41.8
X158.8Y-43.8
X158.8Y-45.8
X158.8Y-47.8
X158.8Y-49.8
X158.8Y-51.8
X159.0Y-94.0
X159.0Y-135.0
X159.25Y-117.75
X159.25Y-119.75
X159.25Y-121.75
X159.25Y-123.75
X159.25Y-125.75
X160.0Y-94.0
X160.0Y-135.0
X160.8Y-37.8
X160.8Y-39.8
X160.8Y-41.8
X160.8Y-43.8
X160.8Y-45.8
X160.8Y-47.8
X160.8Y-49.8
X160.8Y-51.8
X161.0Y-61.0
X161.0Y-63.0
X161.0Y-65.0
X161.0Y-67.0
X161.0Y-69.0
X161.0Y-71.0
X161.0Y-73.0
X161.0Y-75.0
X161.0Y-77.0
X161.0Y-79.0
X161.0Y-81.0
X161.0Y-83.0
X161.0Y-85.0
X161.0Y-87.0
X161.0Y-89.0
X161.0Y-91.0
X161.0Y-94.0
X161.5Y-95.0
X161.5Y-96.0
X161.5Y-97.0
X161.5Y-98.0
X161.5Y-99.0
X161.5Y-100.0
X161.5Y-101.0
X161.5Y-102.0
X161.5Y-103.0
X161.5Y-104.0
X161.5Y-105.0
X161.5Y-106.0
X161.5Y-107.0
X161.5Y-108.0
X161.5Y-109.0
X161.5Y-110.0
X161.5Y-111.0
X161.5Y-112.0
X161.5Y-113.0
X161.5Y-114.0
X161.5Y-115.0
X161.5Y-116.0
X161.5Y-117.0
X161.5Y-118.0
X161.5Y-119.0
X161.5Y-120.0
X161.5Y-121.0
X161.5Y-122.0
X161.5Y-123.0
X161.5Y-124.0
X161.5Y-125.0
X161.5Y-126.0
X161.5Y-127.0
X161.5Y-128.0
X161.5Y-129.0
X161.5Y-130.0
X161.5Y-131.0
X161.5Y-132.0
X161.5Y-133.0
X161.5Y-134.0
X161.5Y-135.0
T2
X102.75Y-113.0
X102.75Y-116.5
X90.5Y-68.5
X90.5Y-72.3
T3
X100.42Y-77.5
X102.96Y-77.5
X105.5Y-77.5
T4
X114.98Y-59.61
X120.43Y-59.61
X125.88Y-59.61
X93.5Y-59.5
X98.95Y-59.5
X104.4Y-59.5
T5
X70.0Y-100.0
X70.0Y-105.08
X70.0Y-110.16
T6
X140.0Y-79.42
X140.0Y-81.96
X140.0Y-84.5
X145.08Y-79.42
X145.08Y-81.96
X145.08Y-84.5
X75.0Y-64.42
X75.0Y-66.96
X75.0Y-69.5
X80.08Y-64.42
X80.08Y-66.96
X80.08Y-69.5
X140.0Y-64.5
X140.0Y-67.04
X140.0Y-69.58
X145.08Y-64.5
X145.08Y-67.04
X145.08Y-69.58
X75.0Y-79.5
X75.0Y-82.04
X75.0Y-84.58
X80.08Y-79.5
X80.08Y-82.04
X80.08Y-84.58
T7
X69.5Y-59.0
X69.5Y-131.5
X158.0Y-59.0
X158.0Y-97.5
X158.0Y-131.5
T0
M30
