G04 #@! TF.GenerationSoftware,KiCad,Pcbnew,(5.1.4)-1*
G04 #@! TF.CreationDate,2021-09-06T14:48:02-04:00*
G04 #@! TF.ProjectId,shunt_current_control_v2,7368756e-745f-4637-9572-72656e745f63,rev?*
G04 #@! TF.SameCoordinates,Original*
G04 #@! TF.FileFunction,Soldermask,Bot*
G04 #@! TF.FilePolarity,Negative*
%FSLAX46Y46*%
G04 Gerber Fmt 4.6, Leading zero omitted, Abs format (unit mm)*
G04 Created by KiCad (PCBNEW (5.1.4)-1) date 2021-09-06 14:48:02*
%MOMM*%
%LPD*%
G04 APERTURE LIST*
%ADD10C,0.100000*%
G04 APERTURE END LIST*
D10*
G36*
X77838023Y-126904457D02*
G01*
X77875636Y-126915867D01*
X77910293Y-126934391D01*
X77940675Y-126959325D01*
X77965609Y-126989707D01*
X77984133Y-127024364D01*
X77995543Y-127061977D01*
X78000000Y-127107228D01*
X78000000Y-127942772D01*
X77995543Y-127988023D01*
X77984133Y-128025636D01*
X77965609Y-128060293D01*
X77940675Y-128090675D01*
X77910293Y-128115609D01*
X77875636Y-128134133D01*
X77838023Y-128145543D01*
X77792772Y-128150000D01*
X76707228Y-128150000D01*
X76661977Y-128145543D01*
X76624364Y-128134133D01*
X76589707Y-128115609D01*
X76559325Y-128090675D01*
X76534391Y-128060293D01*
X76515867Y-128025636D01*
X76504457Y-127988023D01*
X76500000Y-127942772D01*
X76500000Y-127107228D01*
X76504457Y-127061977D01*
X76515867Y-127024364D01*
X76534391Y-126989707D01*
X76559325Y-126959325D01*
X76589707Y-126934391D01*
X76624364Y-126915867D01*
X76661977Y-126904457D01*
X76707228Y-126900000D01*
X77792772Y-126900000D01*
X77838023Y-126904457D01*
X77838023Y-126904457D01*
G37*
G36*
X75588023Y-126879457D02*
G01*
X75625636Y-126890867D01*
X75660293Y-126909391D01*
X75690675Y-126934325D01*
X75715609Y-126964707D01*
X75734133Y-126999364D01*
X75745543Y-127036977D01*
X75750000Y-127082228D01*
X75750000Y-127917772D01*
X75745543Y-127963023D01*
X75734133Y-128000636D01*
X75715609Y-128035293D01*
X75690675Y-128065675D01*
X75660293Y-128090609D01*
X75625636Y-128109133D01*
X75588023Y-128120543D01*
X75542772Y-128125000D01*
X74457228Y-128125000D01*
X74411977Y-128120543D01*
X74374364Y-128109133D01*
X74339707Y-128090609D01*
X74309325Y-128065675D01*
X74284391Y-128035293D01*
X74265867Y-128000636D01*
X74254457Y-127963023D01*
X74250000Y-127917772D01*
X74250000Y-127082228D01*
X74254457Y-127036977D01*
X74265867Y-126999364D01*
X74284391Y-126964707D01*
X74309325Y-126934325D01*
X74339707Y-126909391D01*
X74374364Y-126890867D01*
X74411977Y-126879457D01*
X74457228Y-126875000D01*
X75542772Y-126875000D01*
X75588023Y-126879457D01*
X75588023Y-126879457D01*
G37*
G36*
X77838023Y-124854457D02*
G01*
X77875636Y-124865867D01*
X77910293Y-124884391D01*
X77940675Y-124909325D01*
X77965609Y-124939707D01*
X77984133Y-124974364D01*
X77995543Y-125011977D01*
X78000000Y-125057228D01*
X78000000Y-125892772D01*
X77995543Y-125938023D01*
X77984133Y-125975636D01*
X77965609Y-126010293D01*
X77940675Y-126040675D01*
X77910293Y-126065609D01*
X77875636Y-126084133D01*
X77838023Y-126095543D01*
X77792772Y-126100000D01*
X76707228Y-126100000D01*
X76661977Y-126095543D01*
X76624364Y-126084133D01*
X76589707Y-126065609D01*
X76559325Y-126040675D01*
X76534391Y-126010293D01*
X76515867Y-125975636D01*
X76504457Y-125938023D01*
X76500000Y-125892772D01*
X76500000Y-125057228D01*
X76504457Y-125011977D01*
X76515867Y-124974364D01*
X76534391Y-124939707D01*
X76559325Y-124909325D01*
X76589707Y-124884391D01*
X76624364Y-124865867D01*
X76661977Y-124854457D01*
X76707228Y-124850000D01*
X77792772Y-124850000D01*
X77838023Y-124854457D01*
X77838023Y-124854457D01*
G37*
G36*
X75588023Y-124829457D02*
G01*
X75625636Y-124840867D01*
X75660293Y-124859391D01*
X75690675Y-124884325D01*
X75715609Y-124914707D01*
X75734133Y-124949364D01*
X75745543Y-124986977D01*
X75750000Y-125032228D01*
X75750000Y-125867772D01*
X75745543Y-125913023D01*
X75734133Y-125950636D01*
X75715609Y-125985293D01*
X75690675Y-126015675D01*
X75660293Y-126040609D01*
X75625636Y-126059133D01*
X75588023Y-126070543D01*
X75542772Y-126075000D01*
X74457228Y-126075000D01*
X74411977Y-126070543D01*
X74374364Y-126059133D01*
X74339707Y-126040609D01*
X74309325Y-126015675D01*
X74284391Y-125985293D01*
X74265867Y-125950636D01*
X74254457Y-125913023D01*
X74250000Y-125867772D01*
X74250000Y-125032228D01*
X74254457Y-124986977D01*
X74265867Y-124949364D01*
X74284391Y-124914707D01*
X74309325Y-124884325D01*
X74339707Y-124859391D01*
X74374364Y-124840867D01*
X74411977Y-124829457D01*
X74457228Y-124825000D01*
X75542772Y-124825000D01*
X75588023Y-124829457D01*
X75588023Y-124829457D01*
G37*
G36*
X73459802Y-118000723D02*
G01*
X73469225Y-118003581D01*
X73469227Y-118003582D01*
X73477913Y-118008225D01*
X73477914Y-118008226D01*
X73477916Y-118008227D01*
X73485527Y-118014473D01*
X73494487Y-118025391D01*
X73503373Y-118038691D01*
X73520700Y-118056018D01*
X73541074Y-118069632D01*
X73563713Y-118079010D01*
X73587746Y-118083791D01*
X73612250Y-118083791D01*
X73636283Y-118079011D01*
X73658922Y-118069634D01*
X73679297Y-118056021D01*
X73696624Y-118038694D01*
X73705511Y-118025393D01*
X73714473Y-118014473D01*
X73722084Y-118008227D01*
X73722086Y-118008226D01*
X73722087Y-118008225D01*
X73730773Y-118003582D01*
X73730775Y-118003581D01*
X73740198Y-118000723D01*
X73756141Y-117999153D01*
X74243860Y-117999153D01*
X74255326Y-118000282D01*
X74259802Y-118000723D01*
X74259803Y-118000723D01*
X74262196Y-118000959D01*
X74274448Y-118001561D01*
X74292868Y-118001561D01*
X74305365Y-118002792D01*
X74308811Y-118003131D01*
X74308812Y-118003131D01*
X74314953Y-118003736D01*
X74399038Y-118020462D01*
X74404940Y-118022252D01*
X74404944Y-118022253D01*
X74414369Y-118025112D01*
X74414372Y-118025113D01*
X74420279Y-118026905D01*
X74499474Y-118059708D01*
X74504919Y-118062619D01*
X74504925Y-118062621D01*
X74513611Y-118067264D01*
X74513615Y-118067267D01*
X74519056Y-118070175D01*
X74590343Y-118117807D01*
X74607488Y-118131878D01*
X74668122Y-118192512D01*
X74682193Y-118209657D01*
X74729825Y-118280944D01*
X74732733Y-118286385D01*
X74732736Y-118286389D01*
X74737379Y-118295075D01*
X74737381Y-118295081D01*
X74740292Y-118300526D01*
X74773095Y-118379721D01*
X74779538Y-118400962D01*
X74796264Y-118485047D01*
X74798439Y-118507132D01*
X74798439Y-118525552D01*
X74799041Y-118537804D01*
X74800847Y-118556140D01*
X74800847Y-119043860D01*
X74799041Y-119062196D01*
X74798439Y-119074448D01*
X74798439Y-119092868D01*
X74796264Y-119114953D01*
X74779538Y-119199038D01*
X74773095Y-119220279D01*
X74740292Y-119299474D01*
X74737381Y-119304919D01*
X74737379Y-119304925D01*
X74732736Y-119313611D01*
X74732733Y-119313615D01*
X74729825Y-119319056D01*
X74682193Y-119390343D01*
X74668122Y-119407488D01*
X74607488Y-119468122D01*
X74590343Y-119482193D01*
X74519056Y-119529825D01*
X74513615Y-119532733D01*
X74513611Y-119532736D01*
X74504925Y-119537379D01*
X74504919Y-119537381D01*
X74499474Y-119540292D01*
X74420279Y-119573095D01*
X74414372Y-119574887D01*
X74414369Y-119574888D01*
X74404944Y-119577747D01*
X74404940Y-119577748D01*
X74399038Y-119579538D01*
X74314953Y-119596264D01*
X74308812Y-119596869D01*
X74308811Y-119596869D01*
X74305365Y-119597208D01*
X74292868Y-119598439D01*
X74274448Y-119598439D01*
X74262196Y-119599041D01*
X74259803Y-119599277D01*
X74259802Y-119599277D01*
X74255326Y-119599718D01*
X74243860Y-119600847D01*
X73756141Y-119600847D01*
X73740198Y-119599277D01*
X73730775Y-119596419D01*
X73730485Y-119596264D01*
X73722087Y-119591775D01*
X73722086Y-119591774D01*
X73722084Y-119591773D01*
X73714473Y-119585527D01*
X73705513Y-119574609D01*
X73696627Y-119561309D01*
X73679300Y-119543982D01*
X73658926Y-119530368D01*
X73636287Y-119520990D01*
X73612254Y-119516209D01*
X73587750Y-119516209D01*
X73563717Y-119520989D01*
X73541078Y-119530366D01*
X73520703Y-119543979D01*
X73503376Y-119561306D01*
X73494489Y-119574607D01*
X73485527Y-119585527D01*
X73477916Y-119591773D01*
X73477914Y-119591774D01*
X73477913Y-119591775D01*
X73469515Y-119596264D01*
X73469225Y-119596419D01*
X73459802Y-119599277D01*
X73443859Y-119600847D01*
X72956140Y-119600847D01*
X72944674Y-119599718D01*
X72940198Y-119599277D01*
X72940197Y-119599277D01*
X72937804Y-119599041D01*
X72925552Y-119598439D01*
X72907132Y-119598439D01*
X72894635Y-119597208D01*
X72891189Y-119596869D01*
X72891188Y-119596869D01*
X72885047Y-119596264D01*
X72800962Y-119579538D01*
X72795060Y-119577748D01*
X72795056Y-119577747D01*
X72785631Y-119574888D01*
X72785628Y-119574887D01*
X72779721Y-119573095D01*
X72700526Y-119540292D01*
X72695081Y-119537381D01*
X72695075Y-119537379D01*
X72686389Y-119532736D01*
X72686385Y-119532733D01*
X72680944Y-119529825D01*
X72609657Y-119482193D01*
X72592512Y-119468122D01*
X72531878Y-119407488D01*
X72517807Y-119390343D01*
X72470175Y-119319056D01*
X72467267Y-119313615D01*
X72467264Y-119313611D01*
X72462621Y-119304925D01*
X72462619Y-119304919D01*
X72459708Y-119299474D01*
X72426905Y-119220279D01*
X72420462Y-119199038D01*
X72403736Y-119114953D01*
X72401561Y-119092868D01*
X72401561Y-119074448D01*
X72400959Y-119062196D01*
X72399153Y-119043860D01*
X72399153Y-118556140D01*
X72400959Y-118537804D01*
X72401561Y-118525552D01*
X72401561Y-118507132D01*
X72403736Y-118485047D01*
X72420462Y-118400962D01*
X72426905Y-118379721D01*
X72459708Y-118300526D01*
X72462619Y-118295081D01*
X72462621Y-118295075D01*
X72467264Y-118286389D01*
X72467267Y-118286385D01*
X72470175Y-118280944D01*
X72517807Y-118209657D01*
X72531878Y-118192512D01*
X72592512Y-118131878D01*
X72609657Y-118117807D01*
X72680944Y-118070175D01*
X72686385Y-118067267D01*
X72686389Y-118067264D01*
X72695075Y-118062621D01*
X72695081Y-118062619D01*
X72700526Y-118059708D01*
X72779721Y-118026905D01*
X72785628Y-118025113D01*
X72785631Y-118025112D01*
X72795056Y-118022253D01*
X72795060Y-118022252D01*
X72800962Y-118020462D01*
X72885047Y-118003736D01*
X72891188Y-118003131D01*
X72891189Y-118003131D01*
X72894635Y-118002792D01*
X72907132Y-118001561D01*
X72925552Y-118001561D01*
X72937804Y-118000959D01*
X72940197Y-118000723D01*
X72940198Y-118000723D01*
X72944674Y-118000282D01*
X72956140Y-117999153D01*
X73443859Y-117999153D01*
X73459802Y-118000723D01*
X73459802Y-118000723D01*
G37*
G36*
X88800000Y-118100000D02*
G01*
X87700000Y-118100000D01*
X87700000Y-116950000D01*
X88800000Y-116950000D01*
X88800000Y-118100000D01*
X88800000Y-118100000D01*
G37*
G36*
X102997935Y-115682664D02*
G01*
X103152624Y-115746739D01*
X103152626Y-115746740D01*
X103291844Y-115839762D01*
X103410238Y-115958156D01*
X103503260Y-116097374D01*
X103503261Y-116097376D01*
X103567336Y-116252065D01*
X103600000Y-116416281D01*
X103600000Y-116583719D01*
X103567336Y-116747935D01*
X103503261Y-116902624D01*
X103503260Y-116902626D01*
X103410238Y-117041844D01*
X103291844Y-117160238D01*
X103152626Y-117253260D01*
X103152625Y-117253261D01*
X103152624Y-117253261D01*
X102997935Y-117317336D01*
X102833719Y-117350000D01*
X102666281Y-117350000D01*
X102502065Y-117317336D01*
X102347376Y-117253261D01*
X102347375Y-117253261D01*
X102347374Y-117253260D01*
X102208156Y-117160238D01*
X102089762Y-117041844D01*
X101996740Y-116902626D01*
X101996739Y-116902624D01*
X101932664Y-116747935D01*
X101900000Y-116583719D01*
X101900000Y-116416281D01*
X101932664Y-116252065D01*
X101996739Y-116097376D01*
X101996740Y-116097374D01*
X102089762Y-115958156D01*
X102208156Y-115839762D01*
X102347374Y-115746740D01*
X102347376Y-115746739D01*
X102502065Y-115682664D01*
X102666281Y-115650000D01*
X102833719Y-115650000D01*
X102997935Y-115682664D01*
X102997935Y-115682664D01*
G37*
G36*
X87350000Y-117150000D02*
G01*
X86200000Y-117150000D01*
X86200000Y-114850000D01*
X87350000Y-114850000D01*
X87350000Y-117150000D01*
X87350000Y-117150000D01*
G37*
G36*
X90300000Y-117150000D02*
G01*
X89150000Y-117150000D01*
X89150000Y-114850000D01*
X90300000Y-114850000D01*
X90300000Y-117150000D01*
X90300000Y-117150000D01*
G37*
G36*
X75855326Y-112400282D02*
G01*
X75859802Y-112400723D01*
X75859803Y-112400723D01*
X75862196Y-112400959D01*
X75874448Y-112401561D01*
X75892868Y-112401561D01*
X75905365Y-112402792D01*
X75908811Y-112403131D01*
X75908812Y-112403131D01*
X75914953Y-112403736D01*
X75999038Y-112420462D01*
X76004940Y-112422252D01*
X76004944Y-112422253D01*
X76014369Y-112425112D01*
X76014372Y-112425113D01*
X76020279Y-112426905D01*
X76099474Y-112459708D01*
X76104919Y-112462619D01*
X76104925Y-112462621D01*
X76113611Y-112467264D01*
X76113615Y-112467267D01*
X76119056Y-112470175D01*
X76190343Y-112517807D01*
X76207488Y-112531878D01*
X76268122Y-112592512D01*
X76282193Y-112609657D01*
X76329825Y-112680944D01*
X76332733Y-112686385D01*
X76332736Y-112686389D01*
X76337379Y-112695075D01*
X76337381Y-112695081D01*
X76340292Y-112700526D01*
X76373095Y-112779721D01*
X76379538Y-112800962D01*
X76396264Y-112885047D01*
X76398439Y-112907132D01*
X76398439Y-112925552D01*
X76399041Y-112937804D01*
X76400847Y-112956140D01*
X76400847Y-113443859D01*
X76399277Y-113459802D01*
X76396419Y-113469225D01*
X76391773Y-113477916D01*
X76385527Y-113485527D01*
X76374609Y-113494487D01*
X76361309Y-113503373D01*
X76343982Y-113520700D01*
X76330368Y-113541074D01*
X76320990Y-113563713D01*
X76316209Y-113587746D01*
X76316209Y-113612250D01*
X76320989Y-113636283D01*
X76330366Y-113658922D01*
X76343979Y-113679297D01*
X76361306Y-113696624D01*
X76374607Y-113705511D01*
X76385527Y-113714473D01*
X76391773Y-113722084D01*
X76396419Y-113730775D01*
X76399277Y-113740198D01*
X76400847Y-113756141D01*
X76400847Y-114243860D01*
X76399041Y-114262196D01*
X76398439Y-114274448D01*
X76398439Y-114292868D01*
X76396264Y-114314953D01*
X76379538Y-114399038D01*
X76373095Y-114420279D01*
X76340292Y-114499474D01*
X76337381Y-114504919D01*
X76337379Y-114504925D01*
X76332736Y-114513611D01*
X76332733Y-114513615D01*
X76329825Y-114519056D01*
X76282193Y-114590343D01*
X76268122Y-114607488D01*
X76207488Y-114668122D01*
X76190343Y-114682193D01*
X76119056Y-114729825D01*
X76113615Y-114732733D01*
X76113611Y-114732736D01*
X76104925Y-114737379D01*
X76104919Y-114737381D01*
X76099474Y-114740292D01*
X76020279Y-114773095D01*
X76014372Y-114774887D01*
X76014369Y-114774888D01*
X76004944Y-114777747D01*
X76004940Y-114777748D01*
X75999038Y-114779538D01*
X75914953Y-114796264D01*
X75908812Y-114796869D01*
X75908811Y-114796869D01*
X75905365Y-114797208D01*
X75892868Y-114798439D01*
X75874448Y-114798439D01*
X75862196Y-114799041D01*
X75859803Y-114799277D01*
X75859802Y-114799277D01*
X75855326Y-114799718D01*
X75843860Y-114800847D01*
X75356140Y-114800847D01*
X75344674Y-114799718D01*
X75340198Y-114799277D01*
X75340197Y-114799277D01*
X75337804Y-114799041D01*
X75325552Y-114798439D01*
X75307132Y-114798439D01*
X75294635Y-114797208D01*
X75291189Y-114796869D01*
X75291188Y-114796869D01*
X75285047Y-114796264D01*
X75200962Y-114779538D01*
X75195060Y-114777748D01*
X75195056Y-114777747D01*
X75185631Y-114774888D01*
X75185628Y-114774887D01*
X75179721Y-114773095D01*
X75100526Y-114740292D01*
X75095081Y-114737381D01*
X75095075Y-114737379D01*
X75086389Y-114732736D01*
X75086385Y-114732733D01*
X75080944Y-114729825D01*
X75009657Y-114682193D01*
X74992512Y-114668122D01*
X74931878Y-114607488D01*
X74917807Y-114590343D01*
X74870175Y-114519056D01*
X74867267Y-114513615D01*
X74867264Y-114513611D01*
X74862621Y-114504925D01*
X74862619Y-114504919D01*
X74859708Y-114499474D01*
X74826905Y-114420279D01*
X74820462Y-114399038D01*
X74803736Y-114314953D01*
X74801561Y-114292868D01*
X74801561Y-114274448D01*
X74800959Y-114262196D01*
X74799153Y-114243860D01*
X74799153Y-113756141D01*
X74800723Y-113740198D01*
X74803581Y-113730775D01*
X74808227Y-113722084D01*
X74814473Y-113714473D01*
X74825391Y-113705513D01*
X74838691Y-113696627D01*
X74856018Y-113679300D01*
X74869632Y-113658926D01*
X74879010Y-113636287D01*
X74883791Y-113612254D01*
X74883791Y-113587750D01*
X74879011Y-113563717D01*
X74869634Y-113541078D01*
X74856021Y-113520703D01*
X74838694Y-113503376D01*
X74825393Y-113494489D01*
X74814473Y-113485527D01*
X74808227Y-113477916D01*
X74803581Y-113469225D01*
X74800723Y-113459802D01*
X74799153Y-113443859D01*
X74799153Y-112956140D01*
X74800959Y-112937804D01*
X74801561Y-112925552D01*
X74801561Y-112907132D01*
X74803736Y-112885047D01*
X74820462Y-112800962D01*
X74826905Y-112779721D01*
X74859708Y-112700526D01*
X74862619Y-112695081D01*
X74862621Y-112695075D01*
X74867264Y-112686389D01*
X74867267Y-112686385D01*
X74870175Y-112680944D01*
X74917807Y-112609657D01*
X74931878Y-112592512D01*
X74992512Y-112531878D01*
X75009657Y-112517807D01*
X75080944Y-112470175D01*
X75086385Y-112467267D01*
X75086389Y-112467264D01*
X75095075Y-112462621D01*
X75095081Y-112462619D01*
X75100526Y-112459708D01*
X75179721Y-112426905D01*
X75185628Y-112425113D01*
X75185631Y-112425112D01*
X75195056Y-112422253D01*
X75195060Y-112422252D01*
X75200962Y-112420462D01*
X75285047Y-112403736D01*
X75291188Y-112403131D01*
X75291189Y-112403131D01*
X75294635Y-112402792D01*
X75307132Y-112401561D01*
X75325552Y-112401561D01*
X75337804Y-112400959D01*
X75340197Y-112400723D01*
X75340198Y-112400723D01*
X75344674Y-112400282D01*
X75356140Y-112399153D01*
X75843860Y-112399153D01*
X75855326Y-112400282D01*
X75855326Y-112400282D01*
G37*
G36*
X102997935Y-112182664D02*
G01*
X103152624Y-112246739D01*
X103152626Y-112246740D01*
X103291844Y-112339762D01*
X103410238Y-112458156D01*
X103456885Y-112527969D01*
X103503261Y-112597376D01*
X103567336Y-112752065D01*
X103600000Y-112916281D01*
X103600000Y-113083719D01*
X103567336Y-113247935D01*
X103503261Y-113402624D01*
X103503260Y-113402626D01*
X103410238Y-113541844D01*
X103291844Y-113660238D01*
X103152626Y-113753260D01*
X103152625Y-113753261D01*
X103152624Y-113753261D01*
X102997935Y-113817336D01*
X102833719Y-113850000D01*
X102666281Y-113850000D01*
X102502065Y-113817336D01*
X102347376Y-113753261D01*
X102347375Y-113753261D01*
X102347374Y-113753260D01*
X102208156Y-113660238D01*
X102089762Y-113541844D01*
X101996740Y-113402626D01*
X101996739Y-113402624D01*
X101932664Y-113247935D01*
X101900000Y-113083719D01*
X101900000Y-112916281D01*
X101932664Y-112752065D01*
X101996739Y-112597376D01*
X102043115Y-112527969D01*
X102089762Y-112458156D01*
X102208156Y-112339762D01*
X102347374Y-112246740D01*
X102347376Y-112246739D01*
X102502065Y-112182664D01*
X102666281Y-112150000D01*
X102833719Y-112150000D01*
X102997935Y-112182664D01*
X102997935Y-112182664D01*
G37*
G36*
X70302390Y-108639782D02*
G01*
X70452118Y-108669565D01*
X70568960Y-108717963D01*
X70734199Y-108786407D01*
X70734200Y-108786408D01*
X70988068Y-108956036D01*
X71203964Y-109171932D01*
X71317306Y-109341561D01*
X71373593Y-109425801D01*
X71490435Y-109707883D01*
X71550000Y-110007337D01*
X71550000Y-110312663D01*
X71490435Y-110612117D01*
X71373593Y-110894199D01*
X71373592Y-110894200D01*
X71203964Y-111148068D01*
X70988068Y-111363964D01*
X70818439Y-111477306D01*
X70734199Y-111533593D01*
X70568960Y-111602037D01*
X70452118Y-111650435D01*
X70302390Y-111680218D01*
X70152663Y-111710000D01*
X69847337Y-111710000D01*
X69697610Y-111680218D01*
X69547882Y-111650435D01*
X69431040Y-111602037D01*
X69265801Y-111533593D01*
X69181561Y-111477306D01*
X69011932Y-111363964D01*
X68796036Y-111148068D01*
X68626408Y-110894200D01*
X68626407Y-110894199D01*
X68509565Y-110612117D01*
X68450000Y-110312663D01*
X68450000Y-110007337D01*
X68509565Y-109707883D01*
X68626407Y-109425801D01*
X68682694Y-109341561D01*
X68796036Y-109171932D01*
X69011932Y-108956036D01*
X69265800Y-108786408D01*
X69265801Y-108786407D01*
X69431040Y-108717963D01*
X69547882Y-108669565D01*
X69697610Y-108639782D01*
X69847337Y-108610000D01*
X70152663Y-108610000D01*
X70302390Y-108639782D01*
X70302390Y-108639782D01*
G37*
G36*
X70302390Y-103559783D02*
G01*
X70452118Y-103589565D01*
X70568960Y-103637963D01*
X70734199Y-103706407D01*
X70734200Y-103706408D01*
X70988068Y-103876036D01*
X71203964Y-104091932D01*
X71317306Y-104261561D01*
X71373593Y-104345801D01*
X71490435Y-104627883D01*
X71550000Y-104927337D01*
X71550000Y-105232663D01*
X71490435Y-105532117D01*
X71373593Y-105814199D01*
X71373592Y-105814200D01*
X71203964Y-106068068D01*
X70988068Y-106283964D01*
X70818439Y-106397306D01*
X70734199Y-106453593D01*
X70568960Y-106522037D01*
X70452118Y-106570435D01*
X70302390Y-106600217D01*
X70152663Y-106630000D01*
X69847337Y-106630000D01*
X69697610Y-106600217D01*
X69547882Y-106570435D01*
X69431040Y-106522037D01*
X69265801Y-106453593D01*
X69181561Y-106397306D01*
X69011932Y-106283964D01*
X68796036Y-106068068D01*
X68626408Y-105814200D01*
X68626407Y-105814199D01*
X68509565Y-105532117D01*
X68450000Y-105232663D01*
X68450000Y-104927337D01*
X68509565Y-104627883D01*
X68626407Y-104345801D01*
X68682694Y-104261561D01*
X68796036Y-104091932D01*
X69011932Y-103876036D01*
X69265800Y-103706408D01*
X69265801Y-103706407D01*
X69431040Y-103637963D01*
X69547882Y-103589565D01*
X69697610Y-103559783D01*
X69847337Y-103530000D01*
X70152663Y-103530000D01*
X70302390Y-103559783D01*
X70302390Y-103559783D01*
G37*
G36*
X84338023Y-101404457D02*
G01*
X84375636Y-101415867D01*
X84410293Y-101434391D01*
X84440675Y-101459325D01*
X84465609Y-101489707D01*
X84484133Y-101524364D01*
X84495543Y-101561977D01*
X84500000Y-101607228D01*
X84500000Y-102442772D01*
X84495543Y-102488023D01*
X84484133Y-102525636D01*
X84465609Y-102560293D01*
X84440675Y-102590675D01*
X84410293Y-102615609D01*
X84375636Y-102634133D01*
X84338023Y-102645543D01*
X84292772Y-102650000D01*
X83207228Y-102650000D01*
X83161977Y-102645543D01*
X83124364Y-102634133D01*
X83089707Y-102615609D01*
X83059325Y-102590675D01*
X83034391Y-102560293D01*
X83015867Y-102525636D01*
X83004457Y-102488023D01*
X83000000Y-102442772D01*
X83000000Y-101607228D01*
X83004457Y-101561977D01*
X83015867Y-101524364D01*
X83034391Y-101489707D01*
X83059325Y-101459325D01*
X83089707Y-101434391D01*
X83124364Y-101415867D01*
X83161977Y-101404457D01*
X83207228Y-101400000D01*
X84292772Y-101400000D01*
X84338023Y-101404457D01*
X84338023Y-101404457D01*
G37*
G36*
X82338023Y-101404457D02*
G01*
X82375636Y-101415867D01*
X82410293Y-101434391D01*
X82440675Y-101459325D01*
X82465609Y-101489707D01*
X82484133Y-101524364D01*
X82495543Y-101561977D01*
X82500000Y-101607228D01*
X82500000Y-102442772D01*
X82495543Y-102488023D01*
X82484133Y-102525636D01*
X82465609Y-102560293D01*
X82440675Y-102590675D01*
X82410293Y-102615609D01*
X82375636Y-102634133D01*
X82338023Y-102645543D01*
X82292772Y-102650000D01*
X81207228Y-102650000D01*
X81161977Y-102645543D01*
X81124364Y-102634133D01*
X81089707Y-102615609D01*
X81059325Y-102590675D01*
X81034391Y-102560293D01*
X81015867Y-102525636D01*
X81004457Y-102488023D01*
X81000000Y-102442772D01*
X81000000Y-101607228D01*
X81004457Y-101561977D01*
X81015867Y-101524364D01*
X81034391Y-101489707D01*
X81059325Y-101459325D01*
X81089707Y-101434391D01*
X81124364Y-101415867D01*
X81161977Y-101404457D01*
X81207228Y-101400000D01*
X82292772Y-101400000D01*
X82338023Y-101404457D01*
X82338023Y-101404457D01*
G37*
G36*
X89300000Y-101600000D02*
G01*
X88200000Y-101600000D01*
X88200000Y-100450000D01*
X89300000Y-100450000D01*
X89300000Y-101600000D01*
X89300000Y-101600000D01*
G37*
G36*
X71550000Y-101550000D02*
G01*
X68450000Y-101550000D01*
X68450000Y-98450000D01*
X71550000Y-98450000D01*
X71550000Y-101550000D01*
X71550000Y-101550000D01*
G37*
G36*
X87850000Y-100650000D02*
G01*
X86700000Y-100650000D01*
X86700000Y-98350000D01*
X87850000Y-98350000D01*
X87850000Y-100650000D01*
X87850000Y-100650000D01*
G37*
G36*
X90800000Y-100650000D02*
G01*
X89650000Y-100650000D01*
X89650000Y-98350000D01*
X90800000Y-98350000D01*
X90800000Y-100650000D01*
X90800000Y-100650000D01*
G37*
G36*
X84338023Y-99354457D02*
G01*
X84375636Y-99365867D01*
X84410293Y-99384391D01*
X84440675Y-99409325D01*
X84465609Y-99439707D01*
X84484133Y-99474364D01*
X84495543Y-99511977D01*
X84500000Y-99557228D01*
X84500000Y-100392772D01*
X84495543Y-100438023D01*
X84484133Y-100475636D01*
X84465609Y-100510293D01*
X84440675Y-100540675D01*
X84410293Y-100565609D01*
X84375636Y-100584133D01*
X84338023Y-100595543D01*
X84292772Y-100600000D01*
X83207228Y-100600000D01*
X83161977Y-100595543D01*
X83124364Y-100584133D01*
X83089707Y-100565609D01*
X83059325Y-100540675D01*
X83034391Y-100510293D01*
X83015867Y-100475636D01*
X83004457Y-100438023D01*
X83000000Y-100392772D01*
X83000000Y-99557228D01*
X83004457Y-99511977D01*
X83015867Y-99474364D01*
X83034391Y-99439707D01*
X83059325Y-99409325D01*
X83089707Y-99384391D01*
X83124364Y-99365867D01*
X83161977Y-99354457D01*
X83207228Y-99350000D01*
X84292772Y-99350000D01*
X84338023Y-99354457D01*
X84338023Y-99354457D01*
G37*
G36*
X82338023Y-99354457D02*
G01*
X82375636Y-99365867D01*
X82410293Y-99384391D01*
X82440675Y-99409325D01*
X82465609Y-99439707D01*
X82484133Y-99474364D01*
X82495543Y-99511977D01*
X82500000Y-99557228D01*
X82500000Y-100392772D01*
X82495543Y-100438023D01*
X82484133Y-100475636D01*
X82465609Y-100510293D01*
X82440675Y-100540675D01*
X82410293Y-100565609D01*
X82375636Y-100584133D01*
X82338023Y-100595543D01*
X82292772Y-100600000D01*
X81207228Y-100600000D01*
X81161977Y-100595543D01*
X81124364Y-100584133D01*
X81089707Y-100565609D01*
X81059325Y-100540675D01*
X81034391Y-100510293D01*
X81015867Y-100475636D01*
X81004457Y-100438023D01*
X81000000Y-100392772D01*
X81000000Y-99557228D01*
X81004457Y-99511977D01*
X81015867Y-99474364D01*
X81034391Y-99439707D01*
X81059325Y-99409325D01*
X81089707Y-99384391D01*
X81124364Y-99365867D01*
X81161977Y-99354457D01*
X81207228Y-99350000D01*
X82292772Y-99350000D01*
X82338023Y-99354457D01*
X82338023Y-99354457D01*
G37*
G36*
X153775000Y-99850000D02*
G01*
X152675000Y-99850000D01*
X152675000Y-98700000D01*
X153775000Y-98700000D01*
X153775000Y-99850000D01*
X153775000Y-99850000D01*
G37*
G36*
X152325000Y-98900000D02*
G01*
X151175000Y-98900000D01*
X151175000Y-96600000D01*
X152325000Y-96600000D01*
X152325000Y-98900000D01*
X152325000Y-98900000D01*
G37*
G36*
X155275000Y-98900000D02*
G01*
X154125000Y-98900000D01*
X154125000Y-96600000D01*
X155275000Y-96600000D01*
X155275000Y-98900000D01*
X155275000Y-98900000D01*
G37*
G36*
X77459802Y-93600723D02*
G01*
X77469225Y-93603581D01*
X77469227Y-93603582D01*
X77477913Y-93608225D01*
X77477914Y-93608226D01*
X77477916Y-93608227D01*
X77485527Y-93614473D01*
X77494487Y-93625391D01*
X77503373Y-93638691D01*
X77520700Y-93656018D01*
X77541074Y-93669632D01*
X77563713Y-93679010D01*
X77587746Y-93683791D01*
X77612250Y-93683791D01*
X77636283Y-93679011D01*
X77658922Y-93669634D01*
X77679297Y-93656021D01*
X77696624Y-93638694D01*
X77705511Y-93625393D01*
X77714473Y-93614473D01*
X77722084Y-93608227D01*
X77722086Y-93608226D01*
X77722087Y-93608225D01*
X77730773Y-93603582D01*
X77730775Y-93603581D01*
X77740198Y-93600723D01*
X77756141Y-93599153D01*
X78243860Y-93599153D01*
X78255326Y-93600282D01*
X78259802Y-93600723D01*
X78259803Y-93600723D01*
X78262196Y-93600959D01*
X78274448Y-93601561D01*
X78292868Y-93601561D01*
X78305365Y-93602792D01*
X78308811Y-93603131D01*
X78308812Y-93603131D01*
X78314953Y-93603736D01*
X78399038Y-93620462D01*
X78404940Y-93622252D01*
X78404944Y-93622253D01*
X78414369Y-93625112D01*
X78414372Y-93625113D01*
X78420279Y-93626905D01*
X78499474Y-93659708D01*
X78504919Y-93662619D01*
X78504925Y-93662621D01*
X78513611Y-93667264D01*
X78513615Y-93667267D01*
X78519056Y-93670175D01*
X78590343Y-93717807D01*
X78607488Y-93731878D01*
X78668122Y-93792512D01*
X78682193Y-93809657D01*
X78729825Y-93880944D01*
X78732733Y-93886385D01*
X78732736Y-93886389D01*
X78737379Y-93895075D01*
X78737381Y-93895081D01*
X78740292Y-93900526D01*
X78773095Y-93979721D01*
X78774887Y-93985628D01*
X78774888Y-93985631D01*
X78775531Y-93987750D01*
X78779538Y-94000962D01*
X78796264Y-94085047D01*
X78798439Y-94107132D01*
X78798439Y-94125552D01*
X78799041Y-94137804D01*
X78800847Y-94156140D01*
X78800847Y-94643860D01*
X78799041Y-94662196D01*
X78798439Y-94674448D01*
X78798439Y-94692868D01*
X78796264Y-94714953D01*
X78779538Y-94799038D01*
X78773095Y-94820279D01*
X78740292Y-94899474D01*
X78737381Y-94904919D01*
X78737379Y-94904925D01*
X78732736Y-94913611D01*
X78732733Y-94913615D01*
X78729825Y-94919056D01*
X78682193Y-94990343D01*
X78668122Y-95007488D01*
X78607488Y-95068122D01*
X78590343Y-95082193D01*
X78519056Y-95129825D01*
X78513615Y-95132733D01*
X78513611Y-95132736D01*
X78504925Y-95137379D01*
X78504919Y-95137381D01*
X78499474Y-95140292D01*
X78420279Y-95173095D01*
X78414372Y-95174887D01*
X78414369Y-95174888D01*
X78404944Y-95177747D01*
X78404940Y-95177748D01*
X78399038Y-95179538D01*
X78314953Y-95196264D01*
X78308812Y-95196869D01*
X78308811Y-95196869D01*
X78305365Y-95197208D01*
X78292868Y-95198439D01*
X78274448Y-95198439D01*
X78262196Y-95199041D01*
X78259803Y-95199277D01*
X78259802Y-95199277D01*
X78255326Y-95199718D01*
X78243860Y-95200847D01*
X77756141Y-95200847D01*
X77740198Y-95199277D01*
X77730775Y-95196419D01*
X77730485Y-95196264D01*
X77722087Y-95191775D01*
X77722086Y-95191774D01*
X77722084Y-95191773D01*
X77714473Y-95185527D01*
X77705513Y-95174609D01*
X77696627Y-95161309D01*
X77679300Y-95143982D01*
X77658926Y-95130368D01*
X77636287Y-95120990D01*
X77612254Y-95116209D01*
X77587750Y-95116209D01*
X77563717Y-95120989D01*
X77541078Y-95130366D01*
X77520703Y-95143979D01*
X77503376Y-95161306D01*
X77494489Y-95174607D01*
X77485527Y-95185527D01*
X77477916Y-95191773D01*
X77477914Y-95191774D01*
X77477913Y-95191775D01*
X77469515Y-95196264D01*
X77469225Y-95196419D01*
X77459802Y-95199277D01*
X77443859Y-95200847D01*
X76956140Y-95200847D01*
X76944674Y-95199718D01*
X76940198Y-95199277D01*
X76940197Y-95199277D01*
X76937804Y-95199041D01*
X76925552Y-95198439D01*
X76907132Y-95198439D01*
X76894635Y-95197208D01*
X76891189Y-95196869D01*
X76891188Y-95196869D01*
X76885047Y-95196264D01*
X76800962Y-95179538D01*
X76795060Y-95177748D01*
X76795056Y-95177747D01*
X76785631Y-95174888D01*
X76785628Y-95174887D01*
X76779721Y-95173095D01*
X76700526Y-95140292D01*
X76695081Y-95137381D01*
X76695075Y-95137379D01*
X76686389Y-95132736D01*
X76686385Y-95132733D01*
X76680944Y-95129825D01*
X76609657Y-95082193D01*
X76592512Y-95068122D01*
X76531878Y-95007488D01*
X76517807Y-94990343D01*
X76470175Y-94919056D01*
X76467267Y-94913615D01*
X76467264Y-94913611D01*
X76462621Y-94904925D01*
X76462619Y-94904919D01*
X76459708Y-94899474D01*
X76426905Y-94820279D01*
X76420462Y-94799038D01*
X76403736Y-94714953D01*
X76401561Y-94692868D01*
X76401561Y-94674448D01*
X76400959Y-94662196D01*
X76399153Y-94643860D01*
X76399153Y-94156140D01*
X76400959Y-94137804D01*
X76401561Y-94125552D01*
X76401561Y-94107132D01*
X76403736Y-94085047D01*
X76420462Y-94000962D01*
X76424470Y-93987750D01*
X76425112Y-93985631D01*
X76425113Y-93985628D01*
X76426905Y-93979721D01*
X76459708Y-93900526D01*
X76462619Y-93895081D01*
X76462621Y-93895075D01*
X76467264Y-93886389D01*
X76467267Y-93886385D01*
X76470175Y-93880944D01*
X76517807Y-93809657D01*
X76531878Y-93792512D01*
X76592512Y-93731878D01*
X76609657Y-93717807D01*
X76680944Y-93670175D01*
X76686385Y-93667267D01*
X76686389Y-93667264D01*
X76695075Y-93662621D01*
X76695081Y-93662619D01*
X76700526Y-93659708D01*
X76779721Y-93626905D01*
X76785628Y-93625113D01*
X76785631Y-93625112D01*
X76795056Y-93622253D01*
X76795060Y-93622252D01*
X76800962Y-93620462D01*
X76885047Y-93603736D01*
X76891188Y-93603131D01*
X76891189Y-93603131D01*
X76894635Y-93602792D01*
X76907132Y-93601561D01*
X76925552Y-93601561D01*
X76937804Y-93600959D01*
X76940197Y-93600723D01*
X76940198Y-93600723D01*
X76944674Y-93600282D01*
X76956140Y-93599153D01*
X77443859Y-93599153D01*
X77459802Y-93600723D01*
X77459802Y-93600723D01*
G37*
G36*
X81755326Y-92800282D02*
G01*
X81759802Y-92800723D01*
X81759803Y-92800723D01*
X81762196Y-92800959D01*
X81774448Y-92801561D01*
X81792868Y-92801561D01*
X81805365Y-92802792D01*
X81808811Y-92803131D01*
X81808812Y-92803131D01*
X81814953Y-92803736D01*
X81899038Y-92820462D01*
X81904940Y-92822252D01*
X81904944Y-92822253D01*
X81914369Y-92825112D01*
X81914372Y-92825113D01*
X81920279Y-92826905D01*
X81999474Y-92859708D01*
X82004919Y-92862619D01*
X82004925Y-92862621D01*
X82013611Y-92867264D01*
X82013615Y-92867267D01*
X82019056Y-92870175D01*
X82090343Y-92917807D01*
X82107488Y-92931878D01*
X82168122Y-92992512D01*
X82182193Y-93009657D01*
X82229825Y-93080944D01*
X82232733Y-93086385D01*
X82232736Y-93086389D01*
X82237379Y-93095075D01*
X82237381Y-93095081D01*
X82240292Y-93100526D01*
X82273095Y-93179721D01*
X82279538Y-93200962D01*
X82296264Y-93285047D01*
X82298439Y-93307132D01*
X82298439Y-93325552D01*
X82299041Y-93337804D01*
X82300847Y-93356140D01*
X82300847Y-93843859D01*
X82299277Y-93859802D01*
X82296419Y-93869225D01*
X82291773Y-93877916D01*
X82285527Y-93885527D01*
X82274609Y-93894487D01*
X82261309Y-93903373D01*
X82243982Y-93920700D01*
X82230368Y-93941074D01*
X82220990Y-93963713D01*
X82216209Y-93987746D01*
X82216209Y-94012250D01*
X82220989Y-94036283D01*
X82230366Y-94058922D01*
X82243979Y-94079297D01*
X82261306Y-94096624D01*
X82274607Y-94105511D01*
X82285527Y-94114473D01*
X82291773Y-94122084D01*
X82296419Y-94130775D01*
X82299277Y-94140198D01*
X82300847Y-94156141D01*
X82300847Y-94643860D01*
X82299041Y-94662196D01*
X82298439Y-94674448D01*
X82298439Y-94692868D01*
X82296264Y-94714953D01*
X82279538Y-94799038D01*
X82273095Y-94820279D01*
X82240292Y-94899474D01*
X82237381Y-94904919D01*
X82237379Y-94904925D01*
X82232736Y-94913611D01*
X82232733Y-94913615D01*
X82229825Y-94919056D01*
X82182193Y-94990343D01*
X82168122Y-95007488D01*
X82107488Y-95068122D01*
X82090343Y-95082193D01*
X82019056Y-95129825D01*
X82013615Y-95132733D01*
X82013611Y-95132736D01*
X82004925Y-95137379D01*
X82004919Y-95137381D01*
X81999474Y-95140292D01*
X81920279Y-95173095D01*
X81914372Y-95174887D01*
X81914369Y-95174888D01*
X81904944Y-95177747D01*
X81904940Y-95177748D01*
X81899038Y-95179538D01*
X81814953Y-95196264D01*
X81808812Y-95196869D01*
X81808811Y-95196869D01*
X81805365Y-95197208D01*
X81792868Y-95198439D01*
X81774448Y-95198439D01*
X81762196Y-95199041D01*
X81759803Y-95199277D01*
X81759802Y-95199277D01*
X81755326Y-95199718D01*
X81743860Y-95200847D01*
X81256140Y-95200847D01*
X81244674Y-95199718D01*
X81240198Y-95199277D01*
X81240197Y-95199277D01*
X81237804Y-95199041D01*
X81225552Y-95198439D01*
X81207132Y-95198439D01*
X81194635Y-95197208D01*
X81191189Y-95196869D01*
X81191188Y-95196869D01*
X81185047Y-95196264D01*
X81100962Y-95179538D01*
X81095060Y-95177748D01*
X81095056Y-95177747D01*
X81085631Y-95174888D01*
X81085628Y-95174887D01*
X81079721Y-95173095D01*
X81000526Y-95140292D01*
X80995081Y-95137381D01*
X80995075Y-95137379D01*
X80986389Y-95132736D01*
X80986385Y-95132733D01*
X80980944Y-95129825D01*
X80909657Y-95082193D01*
X80892512Y-95068122D01*
X80831878Y-95007488D01*
X80817807Y-94990343D01*
X80770175Y-94919056D01*
X80767267Y-94913615D01*
X80767264Y-94913611D01*
X80762621Y-94904925D01*
X80762619Y-94904919D01*
X80759708Y-94899474D01*
X80726905Y-94820279D01*
X80720462Y-94799038D01*
X80703736Y-94714953D01*
X80701561Y-94692868D01*
X80701561Y-94674448D01*
X80700959Y-94662196D01*
X80699153Y-94643860D01*
X80699153Y-94156141D01*
X80700723Y-94140198D01*
X80703581Y-94130775D01*
X80708227Y-94122084D01*
X80714473Y-94114473D01*
X80725391Y-94105513D01*
X80738691Y-94096627D01*
X80756018Y-94079300D01*
X80769632Y-94058926D01*
X80779010Y-94036287D01*
X80783791Y-94012254D01*
X80783791Y-93987750D01*
X80779011Y-93963717D01*
X80769634Y-93941078D01*
X80756021Y-93920703D01*
X80738694Y-93903376D01*
X80725393Y-93894489D01*
X80714473Y-93885527D01*
X80708227Y-93877916D01*
X80703581Y-93869225D01*
X80700723Y-93859802D01*
X80699153Y-93843859D01*
X80699153Y-93356140D01*
X80700959Y-93337804D01*
X80701561Y-93325552D01*
X80701561Y-93307132D01*
X80703736Y-93285047D01*
X80720462Y-93200962D01*
X80726905Y-93179721D01*
X80759708Y-93100526D01*
X80762619Y-93095081D01*
X80762621Y-93095075D01*
X80767264Y-93086389D01*
X80767267Y-93086385D01*
X80770175Y-93080944D01*
X80817807Y-93009657D01*
X80831878Y-92992512D01*
X80892512Y-92931878D01*
X80909657Y-92917807D01*
X80980944Y-92870175D01*
X80986385Y-92867267D01*
X80986389Y-92867264D01*
X80995075Y-92862621D01*
X80995081Y-92862619D01*
X81000526Y-92859708D01*
X81079721Y-92826905D01*
X81085628Y-92825113D01*
X81085631Y-92825112D01*
X81095056Y-92822253D01*
X81095060Y-92822252D01*
X81100962Y-92820462D01*
X81185047Y-92803736D01*
X81191188Y-92803131D01*
X81191189Y-92803131D01*
X81194635Y-92802792D01*
X81207132Y-92801561D01*
X81225552Y-92801561D01*
X81237804Y-92800959D01*
X81240197Y-92800723D01*
X81240198Y-92800723D01*
X81244674Y-92800282D01*
X81256140Y-92799153D01*
X81743860Y-92799153D01*
X81755326Y-92800282D01*
X81755326Y-92800282D01*
G37*
G36*
X106476232Y-82813746D02*
G01*
X106565770Y-82840907D01*
X106655309Y-82868068D01*
X106743523Y-82915220D01*
X106820345Y-82956282D01*
X106820347Y-82956283D01*
X106820346Y-82956283D01*
X106965002Y-83074998D01*
X107083717Y-83219654D01*
X107171932Y-83384691D01*
X107226254Y-83563769D01*
X107244596Y-83750000D01*
X107226254Y-83936231D01*
X107171932Y-84115309D01*
X107083717Y-84280346D01*
X106965002Y-84425002D01*
X106833315Y-84533073D01*
X106820345Y-84543718D01*
X106743523Y-84584780D01*
X106655309Y-84631932D01*
X106565770Y-84659093D01*
X106476232Y-84686254D01*
X106336666Y-84700000D01*
X106243334Y-84700000D01*
X106103768Y-84686254D01*
X106014230Y-84659093D01*
X105924691Y-84631932D01*
X105836477Y-84584780D01*
X105759655Y-84543718D01*
X105746685Y-84533073D01*
X105614998Y-84425002D01*
X105496283Y-84280346D01*
X105408068Y-84115309D01*
X105353746Y-83936231D01*
X105335404Y-83750000D01*
X105353746Y-83563769D01*
X105408068Y-83384691D01*
X105496283Y-83219654D01*
X105614998Y-83074998D01*
X105759654Y-82956283D01*
X105759653Y-82956283D01*
X105759655Y-82956282D01*
X105836477Y-82915220D01*
X105924691Y-82868068D01*
X106014230Y-82840907D01*
X106103768Y-82813746D01*
X106243334Y-82800000D01*
X106336666Y-82800000D01*
X106476232Y-82813746D01*
X106476232Y-82813746D01*
G37*
G36*
X95516232Y-82813746D02*
G01*
X95605770Y-82840907D01*
X95695309Y-82868068D01*
X95783523Y-82915220D01*
X95860345Y-82956282D01*
X95860347Y-82956283D01*
X95860346Y-82956283D01*
X96005002Y-83074998D01*
X96123717Y-83219654D01*
X96211932Y-83384691D01*
X96266254Y-83563769D01*
X96284596Y-83750000D01*
X96266254Y-83936231D01*
X96211932Y-84115309D01*
X96123717Y-84280346D01*
X96005002Y-84425002D01*
X95873315Y-84533073D01*
X95860345Y-84543718D01*
X95783523Y-84584780D01*
X95695309Y-84631932D01*
X95605770Y-84659093D01*
X95516232Y-84686254D01*
X95376666Y-84700000D01*
X95283334Y-84700000D01*
X95143768Y-84686254D01*
X95054230Y-84659093D01*
X94964691Y-84631932D01*
X94876477Y-84584780D01*
X94799655Y-84543718D01*
X94786685Y-84533073D01*
X94654998Y-84425002D01*
X94536283Y-84280346D01*
X94448068Y-84115309D01*
X94393746Y-83936231D01*
X94375404Y-83750000D01*
X94393746Y-83563769D01*
X94448068Y-83384691D01*
X94536283Y-83219654D01*
X94654998Y-83074998D01*
X94799654Y-82956283D01*
X94799653Y-82956283D01*
X94799655Y-82956282D01*
X94876477Y-82915220D01*
X94964691Y-82868068D01*
X95054230Y-82840907D01*
X95143768Y-82813746D01*
X95283334Y-82800000D01*
X95376666Y-82800000D01*
X95516232Y-82813746D01*
X95516232Y-82813746D01*
G37*
G36*
X104700000Y-84700000D02*
G01*
X102800000Y-84700000D01*
X102800000Y-82800000D01*
X104700000Y-82800000D01*
X104700000Y-84700000D01*
X104700000Y-84700000D01*
G37*
G36*
X92976232Y-82813746D02*
G01*
X93065770Y-82840907D01*
X93155309Y-82868068D01*
X93243523Y-82915220D01*
X93320345Y-82956282D01*
X93320347Y-82956283D01*
X93320346Y-82956283D01*
X93465002Y-83074998D01*
X93583717Y-83219654D01*
X93671932Y-83384691D01*
X93726254Y-83563769D01*
X93744596Y-83750000D01*
X93726254Y-83936231D01*
X93671932Y-84115309D01*
X93583717Y-84280346D01*
X93465002Y-84425002D01*
X93333315Y-84533073D01*
X93320345Y-84543718D01*
X93243523Y-84584780D01*
X93155309Y-84631932D01*
X93065770Y-84659093D01*
X92976232Y-84686254D01*
X92836666Y-84700000D01*
X92743334Y-84700000D01*
X92603768Y-84686254D01*
X92514230Y-84659093D01*
X92424691Y-84631932D01*
X92336477Y-84584780D01*
X92259655Y-84543718D01*
X92246685Y-84533073D01*
X92114998Y-84425002D01*
X91996283Y-84280346D01*
X91908068Y-84115309D01*
X91853746Y-83936231D01*
X91835404Y-83750000D01*
X91853746Y-83563769D01*
X91908068Y-83384691D01*
X91996283Y-83219654D01*
X92114998Y-83074998D01*
X92259654Y-82956283D01*
X92259653Y-82956283D01*
X92259655Y-82956282D01*
X92336477Y-82915220D01*
X92424691Y-82868068D01*
X92514230Y-82840907D01*
X92603768Y-82813746D01*
X92743334Y-82800000D01*
X92836666Y-82800000D01*
X92976232Y-82813746D01*
X92976232Y-82813746D01*
G37*
G36*
X109016232Y-82813746D02*
G01*
X109105770Y-82840907D01*
X109195309Y-82868068D01*
X109283523Y-82915220D01*
X109360345Y-82956282D01*
X109360347Y-82956283D01*
X109360346Y-82956283D01*
X109505002Y-83074998D01*
X109623717Y-83219654D01*
X109711932Y-83384691D01*
X109766254Y-83563769D01*
X109784596Y-83750000D01*
X109766254Y-83936231D01*
X109711932Y-84115309D01*
X109623717Y-84280346D01*
X109505002Y-84425002D01*
X109373315Y-84533073D01*
X109360345Y-84543718D01*
X109283523Y-84584780D01*
X109195309Y-84631932D01*
X109105770Y-84659093D01*
X109016232Y-84686254D01*
X108876666Y-84700000D01*
X108783334Y-84700000D01*
X108643768Y-84686254D01*
X108554230Y-84659093D01*
X108464691Y-84631932D01*
X108376477Y-84584780D01*
X108299655Y-84543718D01*
X108286685Y-84533073D01*
X108154998Y-84425002D01*
X108036283Y-84280346D01*
X107948068Y-84115309D01*
X107893746Y-83936231D01*
X107875404Y-83750000D01*
X107893746Y-83563769D01*
X107948068Y-83384691D01*
X108036283Y-83219654D01*
X108154998Y-83074998D01*
X108299654Y-82956283D01*
X108299653Y-82956283D01*
X108299655Y-82956282D01*
X108376477Y-82915220D01*
X108464691Y-82868068D01*
X108554230Y-82840907D01*
X108643768Y-82813746D01*
X108783334Y-82800000D01*
X108876666Y-82800000D01*
X109016232Y-82813746D01*
X109016232Y-82813746D01*
G37*
G36*
X91200000Y-84700000D02*
G01*
X89300000Y-84700000D01*
X89300000Y-82800000D01*
X91200000Y-82800000D01*
X91200000Y-84700000D01*
X91200000Y-84700000D01*
G37*
G36*
X154430026Y-69346115D02*
G01*
X154648411Y-69436573D01*
X154648413Y-69436574D01*
X154844955Y-69567899D01*
X155012101Y-69735045D01*
X155143427Y-69931589D01*
X155233885Y-70149974D01*
X155280000Y-70381809D01*
X155280000Y-70618191D01*
X155233885Y-70850026D01*
X155161875Y-71023874D01*
X155143426Y-71068413D01*
X155012101Y-71264955D01*
X154844955Y-71432101D01*
X154648413Y-71563426D01*
X154648412Y-71563427D01*
X154648411Y-71563427D01*
X154428503Y-71654516D01*
X154406892Y-71666067D01*
X154387950Y-71681612D01*
X154372405Y-71700554D01*
X154360854Y-71722165D01*
X154353741Y-71745614D01*
X154351339Y-71770000D01*
X154353741Y-71794386D01*
X154360854Y-71817835D01*
X154372405Y-71839446D01*
X154387950Y-71858388D01*
X154406892Y-71873933D01*
X154428503Y-71885484D01*
X154648411Y-71976573D01*
X154648413Y-71976574D01*
X154706692Y-72015515D01*
X154844955Y-72107899D01*
X155012101Y-72275045D01*
X155143427Y-72471589D01*
X155233885Y-72689974D01*
X155280000Y-72921809D01*
X155280000Y-73158191D01*
X155233885Y-73390026D01*
X155181467Y-73516574D01*
X155143426Y-73608413D01*
X155012101Y-73804955D01*
X154844955Y-73972101D01*
X154648413Y-74103426D01*
X154648412Y-74103427D01*
X154648411Y-74103427D01*
X154428503Y-74194516D01*
X154406892Y-74206067D01*
X154387950Y-74221612D01*
X154372405Y-74240554D01*
X154360854Y-74262165D01*
X154353741Y-74285614D01*
X154351339Y-74310000D01*
X154353741Y-74334386D01*
X154360854Y-74357835D01*
X154372405Y-74379446D01*
X154387950Y-74398388D01*
X154406892Y-74413933D01*
X154428503Y-74425484D01*
X154648411Y-74516573D01*
X154648413Y-74516574D01*
X154844955Y-74647899D01*
X155012101Y-74815045D01*
X155143427Y-75011589D01*
X155233885Y-75229974D01*
X155280000Y-75461809D01*
X155280000Y-75698191D01*
X155233885Y-75930026D01*
X155143427Y-76148411D01*
X155143426Y-76148413D01*
X155012101Y-76344955D01*
X154844955Y-76512101D01*
X154648413Y-76643426D01*
X154648412Y-76643427D01*
X154648411Y-76643427D01*
X154430026Y-76733885D01*
X154198191Y-76780000D01*
X153961809Y-76780000D01*
X153729974Y-76733885D01*
X153511589Y-76643427D01*
X153511588Y-76643427D01*
X153511587Y-76643426D01*
X153315045Y-76512101D01*
X153147899Y-76344955D01*
X153016574Y-76148413D01*
X153016573Y-76148411D01*
X152926115Y-75930026D01*
X152880000Y-75698191D01*
X152880000Y-75461809D01*
X152926115Y-75229974D01*
X153016573Y-75011589D01*
X153147899Y-74815045D01*
X153315045Y-74647899D01*
X153511587Y-74516574D01*
X153511589Y-74516573D01*
X153731497Y-74425484D01*
X153753108Y-74413933D01*
X153772050Y-74398388D01*
X153787595Y-74379446D01*
X153799146Y-74357835D01*
X153806259Y-74334386D01*
X153808661Y-74310000D01*
X153806259Y-74285614D01*
X153799146Y-74262165D01*
X153787595Y-74240554D01*
X153772050Y-74221612D01*
X153753108Y-74206067D01*
X153731497Y-74194516D01*
X153511589Y-74103427D01*
X153511588Y-74103427D01*
X153511587Y-74103426D01*
X153315045Y-73972101D01*
X153147899Y-73804955D01*
X153016574Y-73608413D01*
X152978533Y-73516574D01*
X152926115Y-73390026D01*
X152880000Y-73158191D01*
X152880000Y-72921809D01*
X152926115Y-72689974D01*
X153016573Y-72471589D01*
X153147899Y-72275045D01*
X153315045Y-72107899D01*
X153453308Y-72015515D01*
X153511587Y-71976574D01*
X153511589Y-71976573D01*
X153731497Y-71885484D01*
X153753108Y-71873933D01*
X153772050Y-71858388D01*
X153787595Y-71839446D01*
X153799146Y-71817835D01*
X153806259Y-71794386D01*
X153808661Y-71770000D01*
X153806259Y-71745614D01*
X153799146Y-71722165D01*
X153787595Y-71700554D01*
X153772050Y-71681612D01*
X153753108Y-71666067D01*
X153731497Y-71654516D01*
X153511589Y-71563427D01*
X153511588Y-71563427D01*
X153511587Y-71563426D01*
X153315045Y-71432101D01*
X153147899Y-71264955D01*
X153016574Y-71068413D01*
X152998125Y-71023874D01*
X152926115Y-70850026D01*
X152880000Y-70618191D01*
X152880000Y-70381809D01*
X152926115Y-70149974D01*
X153016573Y-69931589D01*
X153147899Y-69735045D01*
X153315045Y-69567899D01*
X153511587Y-69436574D01*
X153511589Y-69436573D01*
X153729974Y-69346115D01*
X153961809Y-69300000D01*
X154198191Y-69300000D01*
X154430026Y-69346115D01*
X154430026Y-69346115D01*
G37*
G36*
X149350026Y-69346115D02*
G01*
X149568411Y-69436573D01*
X149568413Y-69436574D01*
X149764955Y-69567899D01*
X149932101Y-69735045D01*
X150063427Y-69931589D01*
X150153885Y-70149974D01*
X150200000Y-70381809D01*
X150200000Y-70618191D01*
X150153885Y-70850026D01*
X150081875Y-71023874D01*
X150063426Y-71068413D01*
X149932101Y-71264955D01*
X149764955Y-71432101D01*
X149568413Y-71563426D01*
X149568412Y-71563427D01*
X149568411Y-71563427D01*
X149348503Y-71654516D01*
X149326892Y-71666067D01*
X149307950Y-71681612D01*
X149292405Y-71700554D01*
X149280854Y-71722165D01*
X149273741Y-71745614D01*
X149271339Y-71770000D01*
X149273741Y-71794386D01*
X149280854Y-71817835D01*
X149292405Y-71839446D01*
X149307950Y-71858388D01*
X149326892Y-71873933D01*
X149348503Y-71885484D01*
X149568411Y-71976573D01*
X149568413Y-71976574D01*
X149626692Y-72015515D01*
X149764955Y-72107899D01*
X149932101Y-72275045D01*
X150063427Y-72471589D01*
X150153885Y-72689974D01*
X150200000Y-72921809D01*
X150200000Y-73158191D01*
X150153885Y-73390026D01*
X150101467Y-73516574D01*
X150063426Y-73608413D01*
X149932101Y-73804955D01*
X149764955Y-73972101D01*
X149568413Y-74103426D01*
X149568412Y-74103427D01*
X149568411Y-74103427D01*
X149348503Y-74194516D01*
X149326892Y-74206067D01*
X149307950Y-74221612D01*
X149292405Y-74240554D01*
X149280854Y-74262165D01*
X149273741Y-74285614D01*
X149271339Y-74310000D01*
X149273741Y-74334386D01*
X149280854Y-74357835D01*
X149292405Y-74379446D01*
X149307950Y-74398388D01*
X149326892Y-74413933D01*
X149348503Y-74425484D01*
X149568411Y-74516573D01*
X149568413Y-74516574D01*
X149764955Y-74647899D01*
X149932101Y-74815045D01*
X150063427Y-75011589D01*
X150153885Y-75229974D01*
X150200000Y-75461809D01*
X150200000Y-75698191D01*
X150153885Y-75930026D01*
X150063427Y-76148411D01*
X150063426Y-76148413D01*
X149932101Y-76344955D01*
X149764955Y-76512101D01*
X149568413Y-76643426D01*
X149568412Y-76643427D01*
X149568411Y-76643427D01*
X149350026Y-76733885D01*
X149118191Y-76780000D01*
X148881809Y-76780000D01*
X148649974Y-76733885D01*
X148431589Y-76643427D01*
X148431588Y-76643427D01*
X148431587Y-76643426D01*
X148235045Y-76512101D01*
X148067899Y-76344955D01*
X147936574Y-76148413D01*
X147936573Y-76148411D01*
X147846115Y-75930026D01*
X147800000Y-75698191D01*
X147800000Y-75461809D01*
X147846115Y-75229974D01*
X147936573Y-75011589D01*
X148067899Y-74815045D01*
X148235045Y-74647899D01*
X148431587Y-74516574D01*
X148431589Y-74516573D01*
X148651497Y-74425484D01*
X148673108Y-74413933D01*
X148692050Y-74398388D01*
X148707595Y-74379446D01*
X148719146Y-74357835D01*
X148726259Y-74334386D01*
X148728661Y-74310000D01*
X148726259Y-74285614D01*
X148719146Y-74262165D01*
X148707595Y-74240554D01*
X148692050Y-74221612D01*
X148673108Y-74206067D01*
X148651497Y-74194516D01*
X148431589Y-74103427D01*
X148431588Y-74103427D01*
X148431587Y-74103426D01*
X148235045Y-73972101D01*
X148067899Y-73804955D01*
X147936574Y-73608413D01*
X147898533Y-73516574D01*
X147846115Y-73390026D01*
X147800000Y-73158191D01*
X147800000Y-72921809D01*
X147846115Y-72689974D01*
X147936573Y-72471589D01*
X148067899Y-72275045D01*
X148235045Y-72107899D01*
X148373308Y-72015515D01*
X148431587Y-71976574D01*
X148431589Y-71976573D01*
X148651497Y-71885484D01*
X148673108Y-71873933D01*
X148692050Y-71858388D01*
X148707595Y-71839446D01*
X148719146Y-71817835D01*
X148726259Y-71794386D01*
X148728661Y-71770000D01*
X148726259Y-71745614D01*
X148719146Y-71722165D01*
X148707595Y-71700554D01*
X148692050Y-71681612D01*
X148673108Y-71666067D01*
X148651497Y-71654516D01*
X148431589Y-71563427D01*
X148431588Y-71563427D01*
X148431587Y-71563426D01*
X148235045Y-71432101D01*
X148067899Y-71264955D01*
X147936574Y-71068413D01*
X147918125Y-71023874D01*
X147846115Y-70850026D01*
X147800000Y-70618191D01*
X147800000Y-70381809D01*
X147846115Y-70149974D01*
X147936573Y-69931589D01*
X148067899Y-69735045D01*
X148235045Y-69567899D01*
X148431587Y-69436574D01*
X148431589Y-69436573D01*
X148649974Y-69346115D01*
X148881809Y-69300000D01*
X149118191Y-69300000D01*
X149350026Y-69346115D01*
X149350026Y-69346115D01*
G37*
G36*
X75100026Y-68346115D02*
G01*
X75318411Y-68436573D01*
X75318413Y-68436574D01*
X75514955Y-68567899D01*
X75682101Y-68735045D01*
X75813427Y-68931589D01*
X75903885Y-69149974D01*
X75950000Y-69381809D01*
X75950000Y-69618191D01*
X75903885Y-69850026D01*
X75813427Y-70068411D01*
X75813426Y-70068413D01*
X75682101Y-70264955D01*
X75514955Y-70432101D01*
X75318413Y-70563426D01*
X75318412Y-70563427D01*
X75318411Y-70563427D01*
X75098503Y-70654516D01*
X75076892Y-70666067D01*
X75057950Y-70681612D01*
X75042405Y-70700554D01*
X75030854Y-70722165D01*
X75023741Y-70745614D01*
X75021339Y-70770000D01*
X75023741Y-70794386D01*
X75030854Y-70817835D01*
X75042405Y-70839446D01*
X75057950Y-70858388D01*
X75076892Y-70873933D01*
X75098503Y-70885484D01*
X75318411Y-70976573D01*
X75318413Y-70976574D01*
X75389204Y-71023875D01*
X75514955Y-71107899D01*
X75682101Y-71275045D01*
X75813427Y-71471589D01*
X75903885Y-71689974D01*
X75950000Y-71921809D01*
X75950000Y-72158191D01*
X75903885Y-72390026D01*
X75813427Y-72608411D01*
X75813426Y-72608413D01*
X75682101Y-72804955D01*
X75514955Y-72972101D01*
X75318413Y-73103426D01*
X75318412Y-73103427D01*
X75318411Y-73103427D01*
X75098503Y-73194516D01*
X75076892Y-73206067D01*
X75057950Y-73221612D01*
X75042405Y-73240554D01*
X75030854Y-73262165D01*
X75023741Y-73285614D01*
X75021339Y-73310000D01*
X75023741Y-73334386D01*
X75030854Y-73357835D01*
X75042405Y-73379446D01*
X75057950Y-73398388D01*
X75076892Y-73413933D01*
X75098503Y-73425484D01*
X75318411Y-73516573D01*
X75318413Y-73516574D01*
X75400054Y-73571125D01*
X75514955Y-73647899D01*
X75682101Y-73815045D01*
X75813427Y-74011589D01*
X75903885Y-74229974D01*
X75950000Y-74461809D01*
X75950000Y-74698191D01*
X75903885Y-74930026D01*
X75813427Y-75148411D01*
X75813426Y-75148413D01*
X75682101Y-75344955D01*
X75514955Y-75512101D01*
X75318413Y-75643426D01*
X75318412Y-75643427D01*
X75318411Y-75643427D01*
X75100026Y-75733885D01*
X74868191Y-75780000D01*
X74631809Y-75780000D01*
X74399974Y-75733885D01*
X74181589Y-75643427D01*
X74181588Y-75643427D01*
X74181587Y-75643426D01*
X73985045Y-75512101D01*
X73817899Y-75344955D01*
X73686574Y-75148413D01*
X73686573Y-75148411D01*
X73596115Y-74930026D01*
X73550000Y-74698191D01*
X73550000Y-74461809D01*
X73596115Y-74229974D01*
X73686573Y-74011589D01*
X73817899Y-73815045D01*
X73985045Y-73647899D01*
X74099946Y-73571125D01*
X74181587Y-73516574D01*
X74181589Y-73516573D01*
X74401497Y-73425484D01*
X74423108Y-73413933D01*
X74442050Y-73398388D01*
X74457595Y-73379446D01*
X74469146Y-73357835D01*
X74476259Y-73334386D01*
X74478661Y-73310000D01*
X74476259Y-73285614D01*
X74469146Y-73262165D01*
X74457595Y-73240554D01*
X74442050Y-73221612D01*
X74423108Y-73206067D01*
X74401497Y-73194516D01*
X74181589Y-73103427D01*
X74181588Y-73103427D01*
X74181587Y-73103426D01*
X73985045Y-72972101D01*
X73817899Y-72804955D01*
X73686574Y-72608413D01*
X73686573Y-72608411D01*
X73596115Y-72390026D01*
X73550000Y-72158191D01*
X73550000Y-71921809D01*
X73596115Y-71689974D01*
X73686573Y-71471589D01*
X73817899Y-71275045D01*
X73985045Y-71107899D01*
X74110796Y-71023875D01*
X74181587Y-70976574D01*
X74181589Y-70976573D01*
X74401497Y-70885484D01*
X74423108Y-70873933D01*
X74442050Y-70858388D01*
X74457595Y-70839446D01*
X74469146Y-70817835D01*
X74476259Y-70794386D01*
X74478661Y-70770000D01*
X74476259Y-70745614D01*
X74469146Y-70722165D01*
X74457595Y-70700554D01*
X74442050Y-70681612D01*
X74423108Y-70666067D01*
X74401497Y-70654516D01*
X74181589Y-70563427D01*
X74181588Y-70563427D01*
X74181587Y-70563426D01*
X73985045Y-70432101D01*
X73817899Y-70264955D01*
X73686574Y-70068413D01*
X73686573Y-70068411D01*
X73596115Y-69850026D01*
X73550000Y-69618191D01*
X73550000Y-69381809D01*
X73596115Y-69149974D01*
X73686573Y-68931589D01*
X73817899Y-68735045D01*
X73985045Y-68567899D01*
X74181587Y-68436574D01*
X74181589Y-68436573D01*
X74399974Y-68346115D01*
X74631809Y-68300000D01*
X74868191Y-68300000D01*
X75100026Y-68346115D01*
X75100026Y-68346115D01*
G37*
G36*
X80180026Y-68346115D02*
G01*
X80398411Y-68436573D01*
X80398413Y-68436574D01*
X80594955Y-68567899D01*
X80762101Y-68735045D01*
X80893427Y-68931589D01*
X80983885Y-69149974D01*
X81030000Y-69381809D01*
X81030000Y-69618191D01*
X80983885Y-69850026D01*
X80893427Y-70068411D01*
X80893426Y-70068413D01*
X80762101Y-70264955D01*
X80594955Y-70432101D01*
X80398413Y-70563426D01*
X80398412Y-70563427D01*
X80398411Y-70563427D01*
X80178503Y-70654516D01*
X80156892Y-70666067D01*
X80137950Y-70681612D01*
X80122405Y-70700554D01*
X80110854Y-70722165D01*
X80103741Y-70745614D01*
X80101339Y-70770000D01*
X80103741Y-70794386D01*
X80110854Y-70817835D01*
X80122405Y-70839446D01*
X80137950Y-70858388D01*
X80156892Y-70873933D01*
X80178503Y-70885484D01*
X80398411Y-70976573D01*
X80398413Y-70976574D01*
X80469204Y-71023875D01*
X80594955Y-71107899D01*
X80762101Y-71275045D01*
X80893427Y-71471589D01*
X80983885Y-71689974D01*
X81030000Y-71921809D01*
X81030000Y-72158191D01*
X80983885Y-72390026D01*
X80893427Y-72608411D01*
X80893426Y-72608413D01*
X80762101Y-72804955D01*
X80594955Y-72972101D01*
X80398413Y-73103426D01*
X80398412Y-73103427D01*
X80398411Y-73103427D01*
X80178503Y-73194516D01*
X80156892Y-73206067D01*
X80137950Y-73221612D01*
X80122405Y-73240554D01*
X80110854Y-73262165D01*
X80103741Y-73285614D01*
X80101339Y-73310000D01*
X80103741Y-73334386D01*
X80110854Y-73357835D01*
X80122405Y-73379446D01*
X80137950Y-73398388D01*
X80156892Y-73413933D01*
X80178503Y-73425484D01*
X80398411Y-73516573D01*
X80398413Y-73516574D01*
X80480054Y-73571125D01*
X80594955Y-73647899D01*
X80762101Y-73815045D01*
X80893427Y-74011589D01*
X80983885Y-74229974D01*
X81030000Y-74461809D01*
X81030000Y-74698191D01*
X80983885Y-74930026D01*
X80893427Y-75148411D01*
X80893426Y-75148413D01*
X80762101Y-75344955D01*
X80594955Y-75512101D01*
X80398413Y-75643426D01*
X80398412Y-75643427D01*
X80398411Y-75643427D01*
X80180026Y-75733885D01*
X79948191Y-75780000D01*
X79711809Y-75780000D01*
X79479974Y-75733885D01*
X79261589Y-75643427D01*
X79261588Y-75643427D01*
X79261587Y-75643426D01*
X79065045Y-75512101D01*
X78897899Y-75344955D01*
X78766574Y-75148413D01*
X78766573Y-75148411D01*
X78676115Y-74930026D01*
X78630000Y-74698191D01*
X78630000Y-74461809D01*
X78676115Y-74229974D01*
X78766573Y-74011589D01*
X78897899Y-73815045D01*
X79065045Y-73647899D01*
X79179946Y-73571125D01*
X79261587Y-73516574D01*
X79261589Y-73516573D01*
X79481497Y-73425484D01*
X79503108Y-73413933D01*
X79522050Y-73398388D01*
X79537595Y-73379446D01*
X79549146Y-73357835D01*
X79556259Y-73334386D01*
X79558661Y-73310000D01*
X79556259Y-73285614D01*
X79549146Y-73262165D01*
X79537595Y-73240554D01*
X79522050Y-73221612D01*
X79503108Y-73206067D01*
X79481497Y-73194516D01*
X79261589Y-73103427D01*
X79261588Y-73103427D01*
X79261587Y-73103426D01*
X79065045Y-72972101D01*
X78897899Y-72804955D01*
X78766574Y-72608413D01*
X78766573Y-72608411D01*
X78676115Y-72390026D01*
X78630000Y-72158191D01*
X78630000Y-71921809D01*
X78676115Y-71689974D01*
X78766573Y-71471589D01*
X78897899Y-71275045D01*
X79065045Y-71107899D01*
X79190796Y-71023875D01*
X79261587Y-70976574D01*
X79261589Y-70976573D01*
X79481497Y-70885484D01*
X79503108Y-70873933D01*
X79522050Y-70858388D01*
X79537595Y-70839446D01*
X79549146Y-70817835D01*
X79556259Y-70794386D01*
X79558661Y-70770000D01*
X79556259Y-70745614D01*
X79549146Y-70722165D01*
X79537595Y-70700554D01*
X79522050Y-70681612D01*
X79503108Y-70666067D01*
X79481497Y-70654516D01*
X79261589Y-70563427D01*
X79261588Y-70563427D01*
X79261587Y-70563426D01*
X79065045Y-70432101D01*
X78897899Y-70264955D01*
X78766574Y-70068413D01*
X78766573Y-70068411D01*
X78676115Y-69850026D01*
X78630000Y-69618191D01*
X78630000Y-69381809D01*
X78676115Y-69149974D01*
X78766573Y-68931589D01*
X78897899Y-68735045D01*
X79065045Y-68567899D01*
X79261587Y-68436574D01*
X79261589Y-68436573D01*
X79479974Y-68346115D01*
X79711809Y-68300000D01*
X79948191Y-68300000D01*
X80180026Y-68346115D01*
X80180026Y-68346115D01*
G37*
G36*
X93113455Y-71023874D02*
G01*
X93260280Y-71068413D01*
X93424483Y-71118223D01*
X93424485Y-71118224D01*
X93711125Y-71271437D01*
X93962371Y-71477629D01*
X94168563Y-71728875D01*
X94321776Y-72015515D01*
X94416126Y-72326545D01*
X94447983Y-72650000D01*
X94416126Y-72973455D01*
X94376699Y-73103427D01*
X94335103Y-73240554D01*
X94321776Y-73284485D01*
X94168563Y-73571125D01*
X93962371Y-73822371D01*
X93711125Y-74028563D01*
X93424485Y-74181776D01*
X93424483Y-74181777D01*
X93312251Y-74215822D01*
X93113455Y-74276126D01*
X92871056Y-74300000D01*
X92708944Y-74300000D01*
X92466545Y-74276126D01*
X92267749Y-74215822D01*
X92155517Y-74181777D01*
X92155515Y-74181776D01*
X91868875Y-74028563D01*
X91617629Y-73822371D01*
X91411437Y-73571125D01*
X91258224Y-73284485D01*
X91244898Y-73240554D01*
X91203301Y-73103427D01*
X91163874Y-72973455D01*
X91132017Y-72650000D01*
X91163874Y-72326545D01*
X91258224Y-72015515D01*
X91411437Y-71728875D01*
X91617629Y-71477629D01*
X91868875Y-71271437D01*
X92155515Y-71118224D01*
X92155517Y-71118223D01*
X92319720Y-71068413D01*
X92466545Y-71023874D01*
X92708944Y-71000000D01*
X92871056Y-71000000D01*
X93113455Y-71023874D01*
X93113455Y-71023874D01*
G37*
G36*
X106613455Y-71023874D02*
G01*
X106760280Y-71068413D01*
X106924483Y-71118223D01*
X106924485Y-71118224D01*
X107211125Y-71271437D01*
X107462371Y-71477629D01*
X107668563Y-71728875D01*
X107821776Y-72015515D01*
X107916126Y-72326545D01*
X107947983Y-72650000D01*
X107916126Y-72973455D01*
X107876699Y-73103427D01*
X107835103Y-73240554D01*
X107821776Y-73284485D01*
X107668563Y-73571125D01*
X107462371Y-73822371D01*
X107211125Y-74028563D01*
X106924485Y-74181776D01*
X106924483Y-74181777D01*
X106812251Y-74215822D01*
X106613455Y-74276126D01*
X106371056Y-74300000D01*
X106208944Y-74300000D01*
X105966545Y-74276126D01*
X105767749Y-74215822D01*
X105655517Y-74181777D01*
X105655515Y-74181776D01*
X105368875Y-74028563D01*
X105117629Y-73822371D01*
X104911437Y-73571125D01*
X104758224Y-73284485D01*
X104744898Y-73240554D01*
X104703301Y-73103427D01*
X104663874Y-72973455D01*
X104632017Y-72650000D01*
X104663874Y-72326545D01*
X104758224Y-72015515D01*
X104911437Y-71728875D01*
X105117629Y-71477629D01*
X105368875Y-71271437D01*
X105655515Y-71118224D01*
X105655517Y-71118223D01*
X105819720Y-71068413D01*
X105966545Y-71023874D01*
X106208944Y-71000000D01*
X106371056Y-71000000D01*
X106613455Y-71023874D01*
X106613455Y-71023874D01*
G37*
G36*
X102628687Y-58705027D02*
G01*
X102806274Y-58740350D01*
X102997362Y-58819502D01*
X103169336Y-58934411D01*
X103315589Y-59080664D01*
X103430498Y-59252638D01*
X103509650Y-59443726D01*
X103544973Y-59621313D01*
X103550000Y-59646583D01*
X103550000Y-59825001D01*
X103552402Y-59849387D01*
X103559515Y-59872836D01*
X103571066Y-59894447D01*
X103586611Y-59913389D01*
X103605553Y-59928934D01*
X103627164Y-59940485D01*
X103650613Y-59947598D01*
X103674999Y-59950000D01*
X103853417Y-59950000D01*
X103878687Y-59955027D01*
X104056274Y-59990350D01*
X104247362Y-60069502D01*
X104419336Y-60184411D01*
X104565589Y-60330664D01*
X104680498Y-60502638D01*
X104759650Y-60693726D01*
X104800000Y-60896584D01*
X104800000Y-61103416D01*
X104759650Y-61306274D01*
X104680498Y-61497362D01*
X104565589Y-61669336D01*
X104419336Y-61815589D01*
X104247362Y-61930498D01*
X104056274Y-62009650D01*
X103878687Y-62044973D01*
X103853417Y-62050000D01*
X103646583Y-62050000D01*
X103621313Y-62044973D01*
X103443726Y-62009650D01*
X103252638Y-61930498D01*
X103080664Y-61815589D01*
X102934411Y-61669336D01*
X102819502Y-61497362D01*
X102740350Y-61306274D01*
X102700000Y-61103416D01*
X102700000Y-60924999D01*
X102697598Y-60900613D01*
X102690485Y-60877164D01*
X102678934Y-60855553D01*
X102663389Y-60836611D01*
X102644447Y-60821066D01*
X102622836Y-60809515D01*
X102599387Y-60802402D01*
X102575001Y-60800000D01*
X102396583Y-60800000D01*
X102371313Y-60794973D01*
X102193726Y-60759650D01*
X102002638Y-60680498D01*
X101830664Y-60565589D01*
X101684411Y-60419336D01*
X101569502Y-60247362D01*
X101490350Y-60056274D01*
X101450000Y-59853416D01*
X101450000Y-59646584D01*
X101490350Y-59443726D01*
X101569502Y-59252638D01*
X101684411Y-59080664D01*
X101830664Y-58934411D01*
X102002638Y-58819502D01*
X102193726Y-58740350D01*
X102371313Y-58705027D01*
X102396583Y-58700000D01*
X102603417Y-58700000D01*
X102628687Y-58705027D01*
X102628687Y-58705027D01*
G37*
G36*
X92878687Y-59955027D02*
G01*
X93056274Y-59990350D01*
X93247362Y-60069502D01*
X93419336Y-60184411D01*
X93565589Y-60330664D01*
X93680498Y-60502638D01*
X93759650Y-60693726D01*
X93800000Y-60896584D01*
X93800000Y-61103416D01*
X93759650Y-61306274D01*
X93680498Y-61497362D01*
X93565589Y-61669336D01*
X93419336Y-61815589D01*
X93247362Y-61930498D01*
X93056274Y-62009650D01*
X92878687Y-62044973D01*
X92853417Y-62050000D01*
X92646583Y-62050000D01*
X92621313Y-62044973D01*
X92443726Y-62009650D01*
X92252638Y-61930498D01*
X92080664Y-61815589D01*
X91934411Y-61669336D01*
X91819502Y-61497362D01*
X91740350Y-61306274D01*
X91700000Y-61103416D01*
X91700000Y-60896584D01*
X91740350Y-60693726D01*
X91819502Y-60502638D01*
X91934411Y-60330664D01*
X92080664Y-60184411D01*
X92252638Y-60069502D01*
X92443726Y-59990350D01*
X92621313Y-59955027D01*
X92646583Y-59950000D01*
X92853417Y-59950000D01*
X92878687Y-59955027D01*
X92878687Y-59955027D01*
G37*
G36*
X75350026Y-51096115D02*
G01*
X75568411Y-51186573D01*
X75568413Y-51186574D01*
X75764955Y-51317899D01*
X75932101Y-51485045D01*
X76063427Y-51681589D01*
X76153885Y-51899974D01*
X76200000Y-52131809D01*
X76200000Y-52368191D01*
X76153885Y-52600026D01*
X76063427Y-52818411D01*
X76063426Y-52818413D01*
X75932101Y-53014955D01*
X75764955Y-53182101D01*
X75568413Y-53313426D01*
X75568412Y-53313427D01*
X75568411Y-53313427D01*
X75348503Y-53404516D01*
X75326892Y-53416067D01*
X75307950Y-53431612D01*
X75292405Y-53450554D01*
X75280854Y-53472165D01*
X75273741Y-53495614D01*
X75271339Y-53520000D01*
X75273741Y-53544386D01*
X75280854Y-53567835D01*
X75292405Y-53589446D01*
X75307950Y-53608388D01*
X75326892Y-53623933D01*
X75348503Y-53635484D01*
X75568411Y-53726573D01*
X75568413Y-53726574D01*
X75764955Y-53857899D01*
X75932101Y-54025045D01*
X76063427Y-54221589D01*
X76153885Y-54439974D01*
X76200000Y-54671809D01*
X76200000Y-54908191D01*
X76153885Y-55140026D01*
X76063427Y-55358411D01*
X76063426Y-55358413D01*
X75932101Y-55554955D01*
X75764955Y-55722101D01*
X75568413Y-55853426D01*
X75568412Y-55853427D01*
X75568411Y-55853427D01*
X75348503Y-55944516D01*
X75326892Y-55956067D01*
X75307950Y-55971612D01*
X75292405Y-55990554D01*
X75280854Y-56012165D01*
X75273741Y-56035614D01*
X75271339Y-56060000D01*
X75273741Y-56084386D01*
X75280854Y-56107835D01*
X75292405Y-56129446D01*
X75307950Y-56148388D01*
X75326892Y-56163933D01*
X75348503Y-56175484D01*
X75568411Y-56266573D01*
X75568413Y-56266574D01*
X75764955Y-56397899D01*
X75932101Y-56565045D01*
X76063427Y-56761589D01*
X76153885Y-56979974D01*
X76200000Y-57211809D01*
X76200000Y-57448191D01*
X76153885Y-57680026D01*
X76063427Y-57898411D01*
X76063426Y-57898413D01*
X75932101Y-58094955D01*
X75764955Y-58262101D01*
X75568413Y-58393426D01*
X75568412Y-58393427D01*
X75568411Y-58393427D01*
X75350026Y-58483885D01*
X75118191Y-58530000D01*
X74881809Y-58530000D01*
X74649974Y-58483885D01*
X74431589Y-58393427D01*
X74431588Y-58393427D01*
X74431587Y-58393426D01*
X74235045Y-58262101D01*
X74067899Y-58094955D01*
X73936574Y-57898413D01*
X73936573Y-57898411D01*
X73846115Y-57680026D01*
X73800000Y-57448191D01*
X73800000Y-57211809D01*
X73846115Y-56979974D01*
X73936573Y-56761589D01*
X74067899Y-56565045D01*
X74235045Y-56397899D01*
X74431587Y-56266574D01*
X74431589Y-56266573D01*
X74651497Y-56175484D01*
X74673108Y-56163933D01*
X74692050Y-56148388D01*
X74707595Y-56129446D01*
X74719146Y-56107835D01*
X74726259Y-56084386D01*
X74728661Y-56060000D01*
X74726259Y-56035614D01*
X74719146Y-56012165D01*
X74707595Y-55990554D01*
X74692050Y-55971612D01*
X74673108Y-55956067D01*
X74651497Y-55944516D01*
X74431589Y-55853427D01*
X74431588Y-55853427D01*
X74431587Y-55853426D01*
X74235045Y-55722101D01*
X74067899Y-55554955D01*
X73936574Y-55358413D01*
X73936573Y-55358411D01*
X73846115Y-55140026D01*
X73800000Y-54908191D01*
X73800000Y-54671809D01*
X73846115Y-54439974D01*
X73936573Y-54221589D01*
X74067899Y-54025045D01*
X74235045Y-53857899D01*
X74431587Y-53726574D01*
X74431589Y-53726573D01*
X74651497Y-53635484D01*
X74673108Y-53623933D01*
X74692050Y-53608388D01*
X74707595Y-53589446D01*
X74719146Y-53567835D01*
X74726259Y-53544386D01*
X74728661Y-53520000D01*
X74726259Y-53495614D01*
X74719146Y-53472165D01*
X74707595Y-53450554D01*
X74692050Y-53431612D01*
X74673108Y-53416067D01*
X74651497Y-53404516D01*
X74431589Y-53313427D01*
X74431588Y-53313427D01*
X74431587Y-53313426D01*
X74235045Y-53182101D01*
X74067899Y-53014955D01*
X73936574Y-52818413D01*
X73936573Y-52818411D01*
X73846115Y-52600026D01*
X73800000Y-52368191D01*
X73800000Y-52131809D01*
X73846115Y-51899974D01*
X73936573Y-51681589D01*
X74067899Y-51485045D01*
X74235045Y-51317899D01*
X74431587Y-51186574D01*
X74431589Y-51186573D01*
X74649974Y-51096115D01*
X74881809Y-51050000D01*
X75118191Y-51050000D01*
X75350026Y-51096115D01*
X75350026Y-51096115D01*
G37*
G36*
X80430026Y-51096115D02*
G01*
X80648411Y-51186573D01*
X80648413Y-51186574D01*
X80844955Y-51317899D01*
X81012101Y-51485045D01*
X81143427Y-51681589D01*
X81233885Y-51899974D01*
X81280000Y-52131809D01*
X81280000Y-52368191D01*
X81233885Y-52600026D01*
X81143427Y-52818411D01*
X81143426Y-52818413D01*
X81012101Y-53014955D01*
X80844955Y-53182101D01*
X80648413Y-53313426D01*
X80648412Y-53313427D01*
X80648411Y-53313427D01*
X80428503Y-53404516D01*
X80406892Y-53416067D01*
X80387950Y-53431612D01*
X80372405Y-53450554D01*
X80360854Y-53472165D01*
X80353741Y-53495614D01*
X80351339Y-53520000D01*
X80353741Y-53544386D01*
X80360854Y-53567835D01*
X80372405Y-53589446D01*
X80387950Y-53608388D01*
X80406892Y-53623933D01*
X80428503Y-53635484D01*
X80648411Y-53726573D01*
X80648413Y-53726574D01*
X80844955Y-53857899D01*
X81012101Y-54025045D01*
X81143427Y-54221589D01*
X81233885Y-54439974D01*
X81280000Y-54671809D01*
X81280000Y-54908191D01*
X81233885Y-55140026D01*
X81143427Y-55358411D01*
X81143426Y-55358413D01*
X81012101Y-55554955D01*
X80844955Y-55722101D01*
X80648413Y-55853426D01*
X80648412Y-55853427D01*
X80648411Y-55853427D01*
X80428503Y-55944516D01*
X80406892Y-55956067D01*
X80387950Y-55971612D01*
X80372405Y-55990554D01*
X80360854Y-56012165D01*
X80353741Y-56035614D01*
X80351339Y-56060000D01*
X80353741Y-56084386D01*
X80360854Y-56107835D01*
X80372405Y-56129446D01*
X80387950Y-56148388D01*
X80406892Y-56163933D01*
X80428503Y-56175484D01*
X80648411Y-56266573D01*
X80648413Y-56266574D01*
X80844955Y-56397899D01*
X81012101Y-56565045D01*
X81143427Y-56761589D01*
X81233885Y-56979974D01*
X81280000Y-57211809D01*
X81280000Y-57448191D01*
X81233885Y-57680026D01*
X81143427Y-57898411D01*
X81143426Y-57898413D01*
X81012101Y-58094955D01*
X80844955Y-58262101D01*
X80648413Y-58393426D01*
X80648412Y-58393427D01*
X80648411Y-58393427D01*
X80430026Y-58483885D01*
X80198191Y-58530000D01*
X79961809Y-58530000D01*
X79729974Y-58483885D01*
X79511589Y-58393427D01*
X79511588Y-58393427D01*
X79511587Y-58393426D01*
X79315045Y-58262101D01*
X79147899Y-58094955D01*
X79016574Y-57898413D01*
X79016573Y-57898411D01*
X78926115Y-57680026D01*
X78880000Y-57448191D01*
X78880000Y-57211809D01*
X78926115Y-56979974D01*
X79016573Y-56761589D01*
X79147899Y-56565045D01*
X79315045Y-56397899D01*
X79511587Y-56266574D01*
X79511589Y-56266573D01*
X79731497Y-56175484D01*
X79753108Y-56163933D01*
X79772050Y-56148388D01*
X79787595Y-56129446D01*
X79799146Y-56107835D01*
X79806259Y-56084386D01*
X79808661Y-56060000D01*
X79806259Y-56035614D01*
X79799146Y-56012165D01*
X79787595Y-55990554D01*
X79772050Y-55971612D01*
X79753108Y-55956067D01*
X79731497Y-55944516D01*
X79511589Y-55853427D01*
X79511588Y-55853427D01*
X79511587Y-55853426D01*
X79315045Y-55722101D01*
X79147899Y-55554955D01*
X79016574Y-55358413D01*
X79016573Y-55358411D01*
X78926115Y-55140026D01*
X78880000Y-54908191D01*
X78880000Y-54671809D01*
X78926115Y-54439974D01*
X79016573Y-54221589D01*
X79147899Y-54025045D01*
X79315045Y-53857899D01*
X79511587Y-53726574D01*
X79511589Y-53726573D01*
X79731497Y-53635484D01*
X79753108Y-53623933D01*
X79772050Y-53608388D01*
X79787595Y-53589446D01*
X79799146Y-53567835D01*
X79806259Y-53544386D01*
X79808661Y-53520000D01*
X79806259Y-53495614D01*
X79799146Y-53472165D01*
X79787595Y-53450554D01*
X79772050Y-53431612D01*
X79753108Y-53416067D01*
X79731497Y-53404516D01*
X79511589Y-53313427D01*
X79511588Y-53313427D01*
X79511587Y-53313426D01*
X79315045Y-53182101D01*
X79147899Y-53014955D01*
X79016574Y-52818413D01*
X79016573Y-52818411D01*
X78926115Y-52600026D01*
X78880000Y-52368191D01*
X78880000Y-52131809D01*
X78926115Y-51899974D01*
X79016573Y-51681589D01*
X79147899Y-51485045D01*
X79315045Y-51317899D01*
X79511587Y-51186574D01*
X79511589Y-51186573D01*
X79729974Y-51096115D01*
X79961809Y-51050000D01*
X80198191Y-51050000D01*
X80430026Y-51096115D01*
X80430026Y-51096115D01*
G37*
G36*
X154180026Y-51096115D02*
G01*
X154398411Y-51186573D01*
X154398413Y-51186574D01*
X154594955Y-51317899D01*
X154762101Y-51485045D01*
X154893427Y-51681589D01*
X154983885Y-51899974D01*
X155030000Y-52131809D01*
X155030000Y-52368191D01*
X154983885Y-52600026D01*
X154893427Y-52818411D01*
X154893426Y-52818413D01*
X154762101Y-53014955D01*
X154594955Y-53182101D01*
X154398413Y-53313426D01*
X154398412Y-53313427D01*
X154398411Y-53313427D01*
X154178503Y-53404516D01*
X154156892Y-53416067D01*
X154137950Y-53431612D01*
X154122405Y-53450554D01*
X154110854Y-53472165D01*
X154103741Y-53495614D01*
X154101339Y-53520000D01*
X154103741Y-53544386D01*
X154110854Y-53567835D01*
X154122405Y-53589446D01*
X154137950Y-53608388D01*
X154156892Y-53623933D01*
X154178503Y-53635484D01*
X154398411Y-53726573D01*
X154398413Y-53726574D01*
X154594955Y-53857899D01*
X154762101Y-54025045D01*
X154893427Y-54221589D01*
X154983885Y-54439974D01*
X155030000Y-54671809D01*
X155030000Y-54908191D01*
X154983885Y-55140026D01*
X154893427Y-55358411D01*
X154893426Y-55358413D01*
X154762101Y-55554955D01*
X154594955Y-55722101D01*
X154398413Y-55853426D01*
X154398412Y-55853427D01*
X154398411Y-55853427D01*
X154178503Y-55944516D01*
X154156892Y-55956067D01*
X154137950Y-55971612D01*
X154122405Y-55990554D01*
X154110854Y-56012165D01*
X154103741Y-56035614D01*
X154101339Y-56060000D01*
X154103741Y-56084386D01*
X154110854Y-56107835D01*
X154122405Y-56129446D01*
X154137950Y-56148388D01*
X154156892Y-56163933D01*
X154178503Y-56175484D01*
X154398411Y-56266573D01*
X154398413Y-56266574D01*
X154594955Y-56397899D01*
X154762101Y-56565045D01*
X154893427Y-56761589D01*
X154983885Y-56979974D01*
X155030000Y-57211809D01*
X155030000Y-57448191D01*
X154983885Y-57680026D01*
X154893427Y-57898411D01*
X154893426Y-57898413D01*
X154762101Y-58094955D01*
X154594955Y-58262101D01*
X154398413Y-58393426D01*
X154398412Y-58393427D01*
X154398411Y-58393427D01*
X154180026Y-58483885D01*
X153948191Y-58530000D01*
X153711809Y-58530000D01*
X153479974Y-58483885D01*
X153261589Y-58393427D01*
X153261588Y-58393427D01*
X153261587Y-58393426D01*
X153065045Y-58262101D01*
X152897899Y-58094955D01*
X152766574Y-57898413D01*
X152766573Y-57898411D01*
X152676115Y-57680026D01*
X152630000Y-57448191D01*
X152630000Y-57211809D01*
X152676115Y-56979974D01*
X152766573Y-56761589D01*
X152897899Y-56565045D01*
X153065045Y-56397899D01*
X153261587Y-56266574D01*
X153261589Y-56266573D01*
X153481497Y-56175484D01*
X153503108Y-56163933D01*
X153522050Y-56148388D01*
X153537595Y-56129446D01*
X153549146Y-56107835D01*
X153556259Y-56084386D01*
X153558661Y-56060000D01*
X153556259Y-56035614D01*
X153549146Y-56012165D01*
X153537595Y-55990554D01*
X153522050Y-55971612D01*
X153503108Y-55956067D01*
X153481497Y-55944516D01*
X153261589Y-55853427D01*
X153261588Y-55853427D01*
X153261587Y-55853426D01*
X153065045Y-55722101D01*
X152897899Y-55554955D01*
X152766574Y-55358413D01*
X152766573Y-55358411D01*
X152676115Y-55140026D01*
X152630000Y-54908191D01*
X152630000Y-54671809D01*
X152676115Y-54439974D01*
X152766573Y-54221589D01*
X152897899Y-54025045D01*
X153065045Y-53857899D01*
X153261587Y-53726574D01*
X153261589Y-53726573D01*
X153481497Y-53635484D01*
X153503108Y-53623933D01*
X153522050Y-53608388D01*
X153537595Y-53589446D01*
X153549146Y-53567835D01*
X153556259Y-53544386D01*
X153558661Y-53520000D01*
X153556259Y-53495614D01*
X153549146Y-53472165D01*
X153537595Y-53450554D01*
X153522050Y-53431612D01*
X153503108Y-53416067D01*
X153481497Y-53404516D01*
X153261589Y-53313427D01*
X153261588Y-53313427D01*
X153261587Y-53313426D01*
X153065045Y-53182101D01*
X152897899Y-53014955D01*
X152766574Y-52818413D01*
X152766573Y-52818411D01*
X152676115Y-52600026D01*
X152630000Y-52368191D01*
X152630000Y-52131809D01*
X152676115Y-51899974D01*
X152766573Y-51681589D01*
X152897899Y-51485045D01*
X153065045Y-51317899D01*
X153261587Y-51186574D01*
X153261589Y-51186573D01*
X153479974Y-51096115D01*
X153711809Y-51050000D01*
X153948191Y-51050000D01*
X154180026Y-51096115D01*
X154180026Y-51096115D01*
G37*
G36*
X149100026Y-51096115D02*
G01*
X149318411Y-51186573D01*
X149318413Y-51186574D01*
X149514955Y-51317899D01*
X149682101Y-51485045D01*
X149813427Y-51681589D01*
X149903885Y-51899974D01*
X149950000Y-52131809D01*
X149950000Y-52368191D01*
X149903885Y-52600026D01*
X149813427Y-52818411D01*
X149813426Y-52818413D01*
X149682101Y-53014955D01*
X149514955Y-53182101D01*
X149318413Y-53313426D01*
X149318412Y-53313427D01*
X149318411Y-53313427D01*
X149098503Y-53404516D01*
X149076892Y-53416067D01*
X149057950Y-53431612D01*
X149042405Y-53450554D01*
X149030854Y-53472165D01*
X149023741Y-53495614D01*
X149021339Y-53520000D01*
X149023741Y-53544386D01*
X149030854Y-53567835D01*
X149042405Y-53589446D01*
X149057950Y-53608388D01*
X149076892Y-53623933D01*
X149098503Y-53635484D01*
X149318411Y-53726573D01*
X149318413Y-53726574D01*
X149514955Y-53857899D01*
X149682101Y-54025045D01*
X149813427Y-54221589D01*
X149903885Y-54439974D01*
X149950000Y-54671809D01*
X149950000Y-54908191D01*
X149903885Y-55140026D01*
X149813427Y-55358411D01*
X149813426Y-55358413D01*
X149682101Y-55554955D01*
X149514955Y-55722101D01*
X149318413Y-55853426D01*
X149318412Y-55853427D01*
X149318411Y-55853427D01*
X149098503Y-55944516D01*
X149076892Y-55956067D01*
X149057950Y-55971612D01*
X149042405Y-55990554D01*
X149030854Y-56012165D01*
X149023741Y-56035614D01*
X149021339Y-56060000D01*
X149023741Y-56084386D01*
X149030854Y-56107835D01*
X149042405Y-56129446D01*
X149057950Y-56148388D01*
X149076892Y-56163933D01*
X149098503Y-56175484D01*
X149318411Y-56266573D01*
X149318413Y-56266574D01*
X149514955Y-56397899D01*
X149682101Y-56565045D01*
X149813427Y-56761589D01*
X149903885Y-56979974D01*
X149950000Y-57211809D01*
X149950000Y-57448191D01*
X149903885Y-57680026D01*
X149813427Y-57898411D01*
X149813426Y-57898413D01*
X149682101Y-58094955D01*
X149514955Y-58262101D01*
X149318413Y-58393426D01*
X149318412Y-58393427D01*
X149318411Y-58393427D01*
X149100026Y-58483885D01*
X148868191Y-58530000D01*
X148631809Y-58530000D01*
X148399974Y-58483885D01*
X148181589Y-58393427D01*
X148181588Y-58393427D01*
X148181587Y-58393426D01*
X147985045Y-58262101D01*
X147817899Y-58094955D01*
X147686574Y-57898413D01*
X147686573Y-57898411D01*
X147596115Y-57680026D01*
X147550000Y-57448191D01*
X147550000Y-57211809D01*
X147596115Y-56979974D01*
X147686573Y-56761589D01*
X147817899Y-56565045D01*
X147985045Y-56397899D01*
X148181587Y-56266574D01*
X148181589Y-56266573D01*
X148401497Y-56175484D01*
X148423108Y-56163933D01*
X148442050Y-56148388D01*
X148457595Y-56129446D01*
X148469146Y-56107835D01*
X148476259Y-56084386D01*
X148478661Y-56060000D01*
X148476259Y-56035614D01*
X148469146Y-56012165D01*
X148457595Y-55990554D01*
X148442050Y-55971612D01*
X148423108Y-55956067D01*
X148401497Y-55944516D01*
X148181589Y-55853427D01*
X148181588Y-55853427D01*
X148181587Y-55853426D01*
X147985045Y-55722101D01*
X147817899Y-55554955D01*
X147686574Y-55358413D01*
X147686573Y-55358411D01*
X147596115Y-55140026D01*
X147550000Y-54908191D01*
X147550000Y-54671809D01*
X147596115Y-54439974D01*
X147686573Y-54221589D01*
X147817899Y-54025045D01*
X147985045Y-53857899D01*
X148181587Y-53726574D01*
X148181589Y-53726573D01*
X148401497Y-53635484D01*
X148423108Y-53623933D01*
X148442050Y-53608388D01*
X148457595Y-53589446D01*
X148469146Y-53567835D01*
X148476259Y-53544386D01*
X148478661Y-53520000D01*
X148476259Y-53495614D01*
X148469146Y-53472165D01*
X148457595Y-53450554D01*
X148442050Y-53431612D01*
X148423108Y-53416067D01*
X148401497Y-53404516D01*
X148181589Y-53313427D01*
X148181588Y-53313427D01*
X148181587Y-53313426D01*
X147985045Y-53182101D01*
X147817899Y-53014955D01*
X147686574Y-52818413D01*
X147686573Y-52818411D01*
X147596115Y-52600026D01*
X147550000Y-52368191D01*
X147550000Y-52131809D01*
X147596115Y-51899974D01*
X147686573Y-51681589D01*
X147817899Y-51485045D01*
X147985045Y-51317899D01*
X148181587Y-51186574D01*
X148181589Y-51186573D01*
X148399974Y-51096115D01*
X148631809Y-51050000D01*
X148868191Y-51050000D01*
X149100026Y-51096115D01*
X149100026Y-51096115D01*
G37*
G36*
X104800000Y-56075001D02*
G01*
X104802402Y-56099387D01*
X104809515Y-56122836D01*
X104821066Y-56144447D01*
X104836611Y-56163389D01*
X104855553Y-56178934D01*
X104877164Y-56190485D01*
X104900613Y-56197598D01*
X104924999Y-56200000D01*
X106050000Y-56200000D01*
X106050000Y-58300000D01*
X103950000Y-58300000D01*
X103950000Y-57174999D01*
X103947598Y-57150613D01*
X103940485Y-57127164D01*
X103928934Y-57105553D01*
X103913389Y-57086611D01*
X103894447Y-57071066D01*
X103872836Y-57059515D01*
X103849387Y-57052402D01*
X103825001Y-57050000D01*
X102700000Y-57050000D01*
X102700000Y-54950000D01*
X104800000Y-54950000D01*
X104800000Y-56075001D01*
X104800000Y-56075001D01*
G37*
G36*
X93800000Y-57050000D02*
G01*
X91700000Y-57050000D01*
X91700000Y-54950000D01*
X93800000Y-54950000D01*
X93800000Y-57050000D01*
X93800000Y-57050000D01*
G37*
G36*
X134884844Y-42968810D02*
G01*
X135129895Y-43043145D01*
X135355735Y-43163860D01*
X135553687Y-43326313D01*
X135716140Y-43524264D01*
X135836855Y-43750104D01*
X135911190Y-43995155D01*
X135930000Y-44186136D01*
X135930000Y-46313864D01*
X135911190Y-46504845D01*
X135836855Y-46749896D01*
X135716140Y-46975736D01*
X135553687Y-47173687D01*
X135355736Y-47336140D01*
X135129896Y-47456855D01*
X134884845Y-47531190D01*
X134630000Y-47556290D01*
X134375156Y-47531190D01*
X134130105Y-47456855D01*
X133904265Y-47336140D01*
X133706314Y-47173687D01*
X133543861Y-46975736D01*
X133423146Y-46749896D01*
X133348811Y-46504845D01*
X133330001Y-46313864D01*
X133330000Y-44186137D01*
X133348810Y-43995156D01*
X133423145Y-43750105D01*
X133543860Y-43524265D01*
X133706313Y-43326313D01*
X133904264Y-43163860D01*
X134130104Y-43043145D01*
X134375155Y-42968810D01*
X134630000Y-42943710D01*
X134884844Y-42968810D01*
X134884844Y-42968810D01*
G37*
G36*
X113404844Y-42968810D02*
G01*
X113649895Y-43043145D01*
X113875735Y-43163860D01*
X114073687Y-43326313D01*
X114236140Y-43524264D01*
X114356855Y-43750104D01*
X114431190Y-43995155D01*
X114450000Y-44186136D01*
X114450000Y-46313864D01*
X114431190Y-46504845D01*
X114356855Y-46749896D01*
X114236140Y-46975736D01*
X114073687Y-47173687D01*
X113875736Y-47336140D01*
X113649896Y-47456855D01*
X113404845Y-47531190D01*
X113150000Y-47556290D01*
X112895156Y-47531190D01*
X112650105Y-47456855D01*
X112424265Y-47336140D01*
X112226314Y-47173687D01*
X112063861Y-46975736D01*
X111943146Y-46749896D01*
X111868811Y-46504845D01*
X111850001Y-46313864D01*
X111850000Y-44186137D01*
X111868810Y-43995156D01*
X111943145Y-43750105D01*
X112063860Y-43524265D01*
X112226313Y-43326313D01*
X112424264Y-43163860D01*
X112650104Y-43043145D01*
X112895155Y-42968810D01*
X113150000Y-42943710D01*
X113404844Y-42968810D01*
X113404844Y-42968810D01*
G37*
G36*
X129434844Y-42968810D02*
G01*
X129679895Y-43043145D01*
X129905735Y-43163860D01*
X130103687Y-43326313D01*
X130266140Y-43524264D01*
X130386855Y-43750104D01*
X130461190Y-43995155D01*
X130480000Y-44186136D01*
X130480000Y-46313864D01*
X130461190Y-46504845D01*
X130386855Y-46749896D01*
X130266140Y-46975736D01*
X130103687Y-47173687D01*
X129905736Y-47336140D01*
X129679896Y-47456855D01*
X129434845Y-47531190D01*
X129180000Y-47556290D01*
X128925156Y-47531190D01*
X128680105Y-47456855D01*
X128454265Y-47336140D01*
X128256314Y-47173687D01*
X128093861Y-46975736D01*
X127973146Y-46749896D01*
X127898811Y-46504845D01*
X127880001Y-46313864D01*
X127880000Y-44186137D01*
X127898810Y-43995156D01*
X127973145Y-43750105D01*
X128093860Y-43524265D01*
X128256313Y-43326313D01*
X128454264Y-43163860D01*
X128680104Y-43043145D01*
X128925155Y-42968810D01*
X129180000Y-42943710D01*
X129434844Y-42968810D01*
X129434844Y-42968810D01*
G37*
G36*
X107954844Y-42968810D02*
G01*
X108199895Y-43043145D01*
X108425735Y-43163860D01*
X108623687Y-43326313D01*
X108786140Y-43524264D01*
X108906855Y-43750104D01*
X108981190Y-43995155D01*
X109000000Y-44186136D01*
X109000000Y-46313864D01*
X108981190Y-46504845D01*
X108906855Y-46749896D01*
X108786140Y-46975736D01*
X108623687Y-47173687D01*
X108425736Y-47336140D01*
X108199896Y-47456855D01*
X107954845Y-47531190D01*
X107700000Y-47556290D01*
X107445156Y-47531190D01*
X107200105Y-47456855D01*
X106974265Y-47336140D01*
X106776314Y-47173687D01*
X106613861Y-46975736D01*
X106493146Y-46749896D01*
X106418811Y-46504845D01*
X106400001Y-46313864D01*
X106400000Y-44186137D01*
X106418810Y-43995156D01*
X106493145Y-43750105D01*
X106613860Y-43524265D01*
X106776313Y-43326313D01*
X106974264Y-43163860D01*
X107200104Y-43043145D01*
X107445155Y-42968810D01*
X107700000Y-42943710D01*
X107954844Y-42968810D01*
X107954844Y-42968810D01*
G37*
G36*
X103550000Y-47550000D02*
G01*
X100950000Y-47550000D01*
X100950000Y-42950000D01*
X103550000Y-42950000D01*
X103550000Y-47550000D01*
X103550000Y-47550000D01*
G37*
G36*
X125030000Y-47550000D02*
G01*
X122430000Y-47550000D01*
X122430000Y-42950000D01*
X125030000Y-42950000D01*
X125030000Y-47550000D01*
X125030000Y-47550000D01*
G37*
G36*
X129838023Y-40404457D02*
G01*
X129875636Y-40415867D01*
X129910293Y-40434391D01*
X129940675Y-40459325D01*
X129965609Y-40489707D01*
X129984133Y-40524364D01*
X129995543Y-40561977D01*
X130000000Y-40607228D01*
X130000000Y-41442772D01*
X129995543Y-41488023D01*
X129984133Y-41525636D01*
X129965609Y-41560293D01*
X129940675Y-41590675D01*
X129910293Y-41615609D01*
X129875636Y-41634133D01*
X129838023Y-41645543D01*
X129792772Y-41650000D01*
X128707228Y-41650000D01*
X128661977Y-41645543D01*
X128624364Y-41634133D01*
X128589707Y-41615609D01*
X128559325Y-41590675D01*
X128534391Y-41560293D01*
X128515867Y-41525636D01*
X128504457Y-41488023D01*
X128500000Y-41442772D01*
X128500000Y-40607228D01*
X128504457Y-40561977D01*
X128515867Y-40524364D01*
X128534391Y-40489707D01*
X128559325Y-40459325D01*
X128589707Y-40434391D01*
X128624364Y-40415867D01*
X128661977Y-40404457D01*
X128707228Y-40400000D01*
X129792772Y-40400000D01*
X129838023Y-40404457D01*
X129838023Y-40404457D01*
G37*
G36*
X108338023Y-40404457D02*
G01*
X108375636Y-40415867D01*
X108410293Y-40434391D01*
X108440675Y-40459325D01*
X108465609Y-40489707D01*
X108484133Y-40524364D01*
X108495543Y-40561977D01*
X108500000Y-40607228D01*
X108500000Y-41442772D01*
X108495543Y-41488023D01*
X108484133Y-41525636D01*
X108465609Y-41560293D01*
X108440675Y-41590675D01*
X108410293Y-41615609D01*
X108375636Y-41634133D01*
X108338023Y-41645543D01*
X108292772Y-41650000D01*
X107207228Y-41650000D01*
X107161977Y-41645543D01*
X107124364Y-41634133D01*
X107089707Y-41615609D01*
X107059325Y-41590675D01*
X107034391Y-41560293D01*
X107015867Y-41525636D01*
X107004457Y-41488023D01*
X107000000Y-41442772D01*
X107000000Y-40607228D01*
X107004457Y-40561977D01*
X107015867Y-40524364D01*
X107034391Y-40489707D01*
X107059325Y-40459325D01*
X107089707Y-40434391D01*
X107124364Y-40415867D01*
X107161977Y-40404457D01*
X107207228Y-40400000D01*
X108292772Y-40400000D01*
X108338023Y-40404457D01*
X108338023Y-40404457D01*
G37*
G36*
X108338023Y-38354457D02*
G01*
X108375636Y-38365867D01*
X108410293Y-38384391D01*
X108440675Y-38409325D01*
X108465609Y-38439707D01*
X108484133Y-38474364D01*
X108495543Y-38511977D01*
X108500000Y-38557228D01*
X108500000Y-39392772D01*
X108495543Y-39438023D01*
X108484133Y-39475636D01*
X108465609Y-39510293D01*
X108440675Y-39540675D01*
X108410293Y-39565609D01*
X108375636Y-39584133D01*
X108338023Y-39595543D01*
X108292772Y-39600000D01*
X107207228Y-39600000D01*
X107161977Y-39595543D01*
X107124364Y-39584133D01*
X107089707Y-39565609D01*
X107059325Y-39540675D01*
X107034391Y-39510293D01*
X107015867Y-39475636D01*
X107004457Y-39438023D01*
X107000000Y-39392772D01*
X107000000Y-38557228D01*
X107004457Y-38511977D01*
X107015867Y-38474364D01*
X107034391Y-38439707D01*
X107059325Y-38409325D01*
X107089707Y-38384391D01*
X107124364Y-38365867D01*
X107161977Y-38354457D01*
X107207228Y-38350000D01*
X108292772Y-38350000D01*
X108338023Y-38354457D01*
X108338023Y-38354457D01*
G37*
G36*
X129838023Y-38354457D02*
G01*
X129875636Y-38365867D01*
X129910293Y-38384391D01*
X129940675Y-38409325D01*
X129965609Y-38439707D01*
X129984133Y-38474364D01*
X129995543Y-38511977D01*
X130000000Y-38557228D01*
X130000000Y-39392772D01*
X129995543Y-39438023D01*
X129984133Y-39475636D01*
X129965609Y-39510293D01*
X129940675Y-39540675D01*
X129910293Y-39565609D01*
X129875636Y-39584133D01*
X129838023Y-39595543D01*
X129792772Y-39600000D01*
X128707228Y-39600000D01*
X128661977Y-39595543D01*
X128624364Y-39584133D01*
X128589707Y-39565609D01*
X128559325Y-39540675D01*
X128534391Y-39510293D01*
X128515867Y-39475636D01*
X128504457Y-39438023D01*
X128500000Y-39392772D01*
X128500000Y-38557228D01*
X128504457Y-38511977D01*
X128515867Y-38474364D01*
X128534391Y-38439707D01*
X128559325Y-38409325D01*
X128589707Y-38384391D01*
X128624364Y-38365867D01*
X128661977Y-38354457D01*
X128707228Y-38350000D01*
X129792772Y-38350000D01*
X129838023Y-38354457D01*
X129838023Y-38354457D01*
G37*
M02*
