G04 #@! TF.GenerationSoftware,KiCad,Pcbnew,(5.1.4)-1*
G04 #@! TF.CreationDate,2021-06-03T21:11:03-04:00*
G04 #@! TF.ProjectId,shunt_current_control_v2,7368756e-745f-4637-9572-72656e745f63,rev?*
G04 #@! TF.SameCoordinates,Original*
G04 #@! TF.FileFunction,Copper,L3,Inr*
G04 #@! TF.FilePolarity,Positive*
%FSLAX46Y46*%
G04 Gerber Fmt 4.6, Leading zero omitted, Abs format (unit mm)*
G04 Created by KiCad (PCBNEW (5.1.4)-1) date 2021-06-03 21:11:03*
%MOMM*%
%LPD*%
G04 APERTURE LIST*
%ADD10C,1.600000*%
%ADD11R,1.600000X1.600000*%
%ADD12C,3.000000*%
%ADD13R,3.000000X3.000000*%
%ADD14O,1.800000X1.800000*%
%ADD15R,1.800000X1.800000*%
%ADD16O,2.500000X4.500000*%
%ADD17R,2.500000X4.500000*%
%ADD18C,2.300000*%
%ADD19C,4.000000*%
%ADD20C,0.800000*%
%ADD21C,0.500000*%
%ADD22C,0.250000*%
%ADD23C,0.375000*%
G04 APERTURE END LIST*
D10*
X102750000Y-116500000D03*
X102750000Y-113000000D03*
X90500000Y-72300000D03*
D11*
X90500000Y-68500000D03*
D12*
X70000000Y-110160000D03*
X70000000Y-105080000D03*
D13*
X70000000Y-100000000D03*
D14*
X100420000Y-77500000D03*
X102960000Y-77500000D03*
D15*
X105500000Y-77500000D03*
D16*
X125880000Y-59610000D03*
X120430000Y-59610000D03*
D17*
X114980000Y-59610000D03*
D16*
X104400000Y-59500000D03*
X98950000Y-59500000D03*
D17*
X93500000Y-59500000D03*
D18*
X145080000Y-79420000D03*
X145080000Y-81960000D03*
X145080000Y-84500000D03*
X140000000Y-84500000D03*
X140000000Y-81960000D03*
X140000000Y-79420000D03*
X145080000Y-64500000D03*
X145080000Y-67040000D03*
X145080000Y-69580000D03*
X140000000Y-69580000D03*
X140000000Y-67040000D03*
X140000000Y-64500000D03*
X80080000Y-79500000D03*
X80080000Y-82040000D03*
X80080000Y-84580000D03*
X75000000Y-84580000D03*
X75000000Y-82040000D03*
X75000000Y-79500000D03*
X80080000Y-64420000D03*
X80080000Y-66960000D03*
X80080000Y-69500000D03*
X75000000Y-69500000D03*
X75000000Y-66960000D03*
X75000000Y-64420000D03*
D19*
X158000000Y-131500000D03*
X69500000Y-131500000D03*
X69500000Y-59000000D03*
X158000000Y-59000000D03*
X158000000Y-97500000D03*
D20*
X115500000Y-123500000D03*
X110200000Y-112000000D03*
X103500000Y-102600000D03*
X161000000Y-61000000D03*
X106000000Y-80000000D03*
X106000000Y-82000000D03*
X106000000Y-84000000D03*
X106000000Y-86000000D03*
X106000000Y-88000000D03*
X106000000Y-90000000D03*
X106000000Y-92000000D03*
X109250000Y-77250000D03*
X109500000Y-80000000D03*
X109500000Y-82000000D03*
X109500000Y-84000000D03*
X109500000Y-86000000D03*
X109500000Y-88000000D03*
X109500000Y-90000000D03*
X95000000Y-82000000D03*
X95000000Y-84000000D03*
X95000000Y-86000000D03*
X95000000Y-88000000D03*
X95000000Y-90000000D03*
X113000000Y-76000000D03*
X113000000Y-78000000D03*
X113000000Y-80000000D03*
X113000000Y-82000000D03*
X113000000Y-84000000D03*
X113000000Y-86000000D03*
X113000000Y-88000000D03*
X113000000Y-90000000D03*
X113000000Y-92000000D03*
X112000000Y-74500000D03*
X107250000Y-73500000D03*
X106000000Y-75000000D03*
X107750000Y-75750000D03*
X119500000Y-74000000D03*
X119500000Y-76000000D03*
X119500000Y-78000000D03*
X119500000Y-80000000D03*
X119500000Y-82000000D03*
X119500000Y-84000000D03*
X119500000Y-86000000D03*
X119500000Y-88000000D03*
X119500000Y-90000000D03*
X119500000Y-92000000D03*
X105500000Y-103000000D03*
X109750000Y-102000000D03*
X105000000Y-99250000D03*
X86250000Y-104250000D03*
X86250000Y-105250000D03*
X86250000Y-106250000D03*
X85500000Y-102750000D03*
X77500000Y-99500000D03*
X76800000Y-92800000D03*
X77500000Y-101000000D03*
X77500000Y-102750000D03*
X78750000Y-102000000D03*
X78750000Y-104000000D03*
X80600000Y-92750000D03*
X85500000Y-100250000D03*
X85600000Y-101400000D03*
X80750000Y-129250000D03*
X134250000Y-113750000D03*
X132400000Y-111600000D03*
X131000000Y-117400000D03*
X132200000Y-116600000D03*
X102200000Y-121400000D03*
X100000000Y-121250000D03*
X106500000Y-124250000D03*
X112400000Y-118600000D03*
X109600000Y-120200000D03*
X107200000Y-118000000D03*
X115400000Y-119400000D03*
X116200000Y-116000000D03*
X109800000Y-111200000D03*
X123000000Y-115200000D03*
X118000000Y-112500000D03*
X118500000Y-110500000D03*
X122800000Y-116800000D03*
X120600000Y-120000000D03*
X112200000Y-133600000D03*
X133000000Y-134000000D03*
X130400000Y-134000000D03*
X107400000Y-134000000D03*
X85400000Y-92800000D03*
X86400000Y-92800000D03*
X87400000Y-92800000D03*
X88400000Y-92800000D03*
X89400000Y-92800000D03*
X90400000Y-92800000D03*
X91400000Y-92800000D03*
X92400000Y-92800000D03*
X93600000Y-92800000D03*
X94800000Y-92800000D03*
X84200000Y-92600000D03*
X82374774Y-92825226D03*
X79200000Y-92800000D03*
X78000000Y-92800000D03*
X90000000Y-97200000D03*
X101800000Y-98400000D03*
X98400000Y-104600000D03*
X98400000Y-103200000D03*
X99000000Y-99000000D03*
X100500000Y-99000000D03*
X95800000Y-93400000D03*
X111800000Y-95000000D03*
X108400000Y-96400000D03*
X112000000Y-96500000D03*
X115000000Y-95500000D03*
X100400000Y-103200000D03*
X100400000Y-104600000D03*
X93800000Y-107600000D03*
X95800000Y-107600000D03*
X97800000Y-107600000D03*
X82400000Y-108200000D03*
X82400000Y-109600000D03*
X82400000Y-111000000D03*
X82400000Y-112400000D03*
X84000000Y-113000000D03*
X85400000Y-113000000D03*
X86800000Y-113000000D03*
X88200000Y-112000000D03*
X88200000Y-110400000D03*
X88200000Y-108800000D03*
X89800000Y-108600000D03*
X94400000Y-109200000D03*
X90600000Y-112600000D03*
X81000000Y-107600000D03*
X79600000Y-107400000D03*
X78800000Y-105800000D03*
X85400000Y-97200000D03*
X94600000Y-97200000D03*
X87600000Y-97200000D03*
X92200000Y-97200000D03*
X80600000Y-114600000D03*
X80000000Y-116400000D03*
X79800000Y-118600000D03*
X79200000Y-120000000D03*
X80600000Y-120600000D03*
X82600000Y-120600000D03*
X84600000Y-120600000D03*
X86400000Y-120600000D03*
X88000000Y-125400000D03*
X88000000Y-126800000D03*
X88000000Y-128200000D03*
X88000000Y-129800000D03*
X88000000Y-131600000D03*
X86600000Y-132600000D03*
X84600000Y-132600000D03*
X83000000Y-132600000D03*
X81200000Y-132600000D03*
X79200000Y-132600000D03*
X77400000Y-132600000D03*
X75600000Y-132600000D03*
X73600000Y-132600000D03*
X91600000Y-117400000D03*
X92400000Y-118400000D03*
X90600000Y-118600000D03*
X90600000Y-120000000D03*
X90600000Y-121600000D03*
X90800000Y-127200000D03*
X90400000Y-128200000D03*
X90400000Y-129200000D03*
X90400000Y-130200000D03*
X90400000Y-131200000D03*
X90400000Y-132200000D03*
X90400000Y-133200000D03*
X90400000Y-134200000D03*
X90400000Y-135200000D03*
X94000000Y-127200000D03*
X90600000Y-125000000D03*
X90600000Y-126000000D03*
X93200000Y-126000000D03*
X95000000Y-127200000D03*
X96000000Y-127200000D03*
X97000000Y-127200000D03*
X98000000Y-127200000D03*
X99000000Y-127200000D03*
X100000000Y-127200000D03*
X101000000Y-127200000D03*
X102000000Y-127200000D03*
X103000000Y-127200000D03*
X104000000Y-127200000D03*
X105000000Y-127200000D03*
X106000000Y-127200000D03*
X107000000Y-127200000D03*
X108000000Y-127200000D03*
X109000000Y-127200000D03*
X110000000Y-127200000D03*
X111000000Y-127200000D03*
X112000000Y-127200000D03*
X113000000Y-127200000D03*
X114000000Y-127200000D03*
X115000000Y-127200000D03*
X116000000Y-127200000D03*
X117000000Y-127200000D03*
X118000000Y-127200000D03*
X119000000Y-127200000D03*
X120000000Y-127200000D03*
X121000000Y-127200000D03*
X122000000Y-127200000D03*
X123000000Y-127200000D03*
X127000000Y-127200000D03*
X128000000Y-127200000D03*
X129000000Y-127200000D03*
X130000000Y-127200000D03*
X131000000Y-127200000D03*
X132000000Y-127200000D03*
X125800000Y-126600000D03*
X125200000Y-125800000D03*
X124600000Y-124800000D03*
X121400000Y-124800000D03*
X121400000Y-126000000D03*
X123200000Y-120200000D03*
X124600000Y-120200000D03*
X125800000Y-120200000D03*
X133200000Y-127200000D03*
X134400000Y-127200000D03*
X135200000Y-128000000D03*
X136000000Y-129000000D03*
X136000000Y-132000000D03*
X136000000Y-133000000D03*
X136000000Y-134000000D03*
X136000000Y-135000000D03*
X137000000Y-129000000D03*
X138000000Y-129000000D03*
X139000000Y-129000000D03*
X140000000Y-129000000D03*
X141000000Y-129000000D03*
X142000000Y-129000000D03*
X143000000Y-129000000D03*
X144000000Y-129000000D03*
X145000000Y-129000000D03*
X146000000Y-129000000D03*
X147000000Y-129000000D03*
X148000000Y-129000000D03*
X149000000Y-129000000D03*
X150000000Y-129000000D03*
X151000000Y-129000000D03*
X152000000Y-128500000D03*
X137000000Y-135000000D03*
X138000000Y-135000000D03*
X139000000Y-135000000D03*
X140000000Y-135000000D03*
X141000000Y-135000000D03*
X142000000Y-135000000D03*
X143000000Y-135000000D03*
X144000000Y-135000000D03*
X145000000Y-135000000D03*
X146000000Y-135000000D03*
X147000000Y-135000000D03*
X148000000Y-135000000D03*
X149000000Y-135000000D03*
X150000000Y-135000000D03*
X151000000Y-135000000D03*
X152000000Y-135000000D03*
X153000000Y-135000000D03*
X154000000Y-135000000D03*
X155000000Y-135000000D03*
X66000000Y-135000000D03*
X67000000Y-135000000D03*
X68000000Y-135000000D03*
X69000000Y-135000000D03*
X70000000Y-135000000D03*
X71000000Y-135000000D03*
X72000000Y-135000000D03*
X73000000Y-135000000D03*
X74000000Y-135000000D03*
X75000000Y-135000000D03*
X76000000Y-135000000D03*
X77000000Y-135000000D03*
X78000000Y-135000000D03*
X79000000Y-135000000D03*
X80000000Y-135000000D03*
X81000000Y-135000000D03*
X82000000Y-135000000D03*
X83000000Y-135000000D03*
X84000000Y-135000000D03*
X85000000Y-135000000D03*
X86000000Y-135000000D03*
X87000000Y-135000000D03*
X88000000Y-135000000D03*
X89000000Y-135000000D03*
X131500000Y-118500000D03*
X134500000Y-115000000D03*
X134500000Y-116000000D03*
X137000000Y-112000000D03*
X137000000Y-113500000D03*
X141000000Y-113000000D03*
X143500000Y-115000000D03*
X143500000Y-117500000D03*
X141500000Y-117500000D03*
X141500000Y-120000000D03*
X136500000Y-119000000D03*
X130500000Y-121500000D03*
X132000000Y-122000000D03*
X133000000Y-123500000D03*
X134000000Y-124500000D03*
X139000000Y-127000000D03*
X141000000Y-127000000D03*
X143000000Y-127000000D03*
X145000000Y-127000000D03*
X147000000Y-127000000D03*
X147000000Y-117500000D03*
X148000000Y-117500000D03*
X149000000Y-117500000D03*
X150000000Y-117500000D03*
X151000000Y-117500000D03*
X152000000Y-117500000D03*
X152000000Y-116000000D03*
X152000000Y-114500000D03*
X152000000Y-113000000D03*
X152000000Y-111500000D03*
X152000000Y-110000000D03*
X153500000Y-117500000D03*
X155000000Y-117500000D03*
X155500000Y-119000000D03*
X155500000Y-120500000D03*
X155500000Y-122000000D03*
X155500000Y-123500000D03*
X155500000Y-125000000D03*
X154500000Y-126500000D03*
X153500000Y-127500000D03*
X149000000Y-127000000D03*
X150500000Y-127000000D03*
X152000000Y-127500000D03*
X147000000Y-115000000D03*
X117000000Y-97000000D03*
X131000000Y-102500000D03*
X132500000Y-102500000D03*
X134000000Y-102500000D03*
X135500000Y-103000000D03*
X130500000Y-105000000D03*
X132000000Y-105000000D03*
X133500000Y-105000000D03*
X129000000Y-97000000D03*
X118000000Y-97000000D03*
X119000000Y-97000000D03*
X120000000Y-97000000D03*
X121000000Y-97000000D03*
X122000000Y-97000000D03*
X123000000Y-97000000D03*
X124000000Y-97000000D03*
X128000000Y-97000000D03*
X129000000Y-97000000D03*
X130000000Y-97000000D03*
X131000000Y-97000000D03*
X132000000Y-97000000D03*
X133000000Y-97000000D03*
X134000000Y-96500000D03*
X135000000Y-95500000D03*
X136000000Y-94500000D03*
X137000000Y-94000000D03*
X138000000Y-94000000D03*
X139000000Y-94000000D03*
X140000000Y-94000000D03*
X141000000Y-94000000D03*
X142000000Y-94000000D03*
X143000000Y-94000000D03*
X144000000Y-94000000D03*
X145000000Y-94000000D03*
X146000000Y-94000000D03*
X147000000Y-94000000D03*
X148000000Y-94000000D03*
X149000000Y-94000000D03*
X150000000Y-94000000D03*
X151000000Y-94000000D03*
X152000000Y-94000000D03*
X153000000Y-94000000D03*
X154000000Y-94000000D03*
X155000000Y-94000000D03*
X156000000Y-94000000D03*
X157000000Y-94000000D03*
X158000000Y-94000000D03*
X159000000Y-94000000D03*
X160000000Y-94000000D03*
X161000000Y-94000000D03*
X116000000Y-96500000D03*
X114000000Y-95000000D03*
X113000000Y-95000000D03*
X113500000Y-96500000D03*
X114500000Y-97500000D03*
X116000000Y-98000000D03*
X123500000Y-104500000D03*
X126000000Y-104500000D03*
X120500000Y-99500000D03*
X120500000Y-101000000D03*
X120500000Y-103000000D03*
X120500000Y-105000000D03*
X128000000Y-108500000D03*
X123500000Y-106500000D03*
X131000000Y-108500000D03*
X129500000Y-108500000D03*
X120500000Y-107000000D03*
X119500000Y-109000000D03*
X117500000Y-109000000D03*
X113000000Y-110500000D03*
X113000000Y-111500000D03*
X115000000Y-107500000D03*
X117000000Y-107500000D03*
X118500000Y-105000000D03*
X118500000Y-103000000D03*
X118500000Y-101000000D03*
X114250000Y-104250000D03*
X113000000Y-100500000D03*
X115000000Y-100500000D03*
X117000000Y-100500000D03*
X113500000Y-105500000D03*
X113500000Y-99000000D03*
X102000000Y-106000000D03*
X103500000Y-108000000D03*
X105000000Y-109500000D03*
X108750000Y-107250000D03*
X110000000Y-109000000D03*
X104750000Y-113500000D03*
X104750000Y-115750000D03*
X100000000Y-116000000D03*
X100000000Y-113500000D03*
X101250000Y-110000000D03*
X103500000Y-110000000D03*
X105000000Y-118750000D03*
X112000000Y-123000000D03*
X108500000Y-124250000D03*
X110500000Y-124250000D03*
X113500000Y-124750000D03*
X115500000Y-125500000D03*
X116750000Y-125750000D03*
X113500000Y-123000000D03*
X134750000Y-120750000D03*
X136250000Y-122000000D03*
X152250000Y-107000000D03*
X147500000Y-103250000D03*
X151250000Y-99500000D03*
X151250000Y-101250000D03*
X137250000Y-95750000D03*
X151250000Y-97750000D03*
X150250000Y-96500000D03*
X148750000Y-95250000D03*
X133750000Y-98250000D03*
X133750000Y-99500000D03*
X153000000Y-102250000D03*
X154000000Y-104000000D03*
X156500000Y-111500000D03*
X156500000Y-113000000D03*
X157250000Y-114250000D03*
X153750000Y-115750000D03*
X158250000Y-115250000D03*
X158750000Y-116250000D03*
X159250000Y-117750000D03*
X159250000Y-119750000D03*
X159250000Y-121750000D03*
X159250000Y-123750000D03*
X159250000Y-125750000D03*
X158750000Y-127250000D03*
X157500000Y-128000000D03*
X155250000Y-130000000D03*
X138000000Y-132000000D03*
X140000000Y-132000000D03*
X142000000Y-132000000D03*
X144000000Y-132000000D03*
X146000000Y-132000000D03*
X148000000Y-132000000D03*
X150000000Y-132000000D03*
X152000000Y-132000000D03*
X154000000Y-132000000D03*
X161500000Y-95000000D03*
X161500000Y-96000000D03*
X161500000Y-97000000D03*
X161500000Y-98000000D03*
X161500000Y-99000000D03*
X161500000Y-100000000D03*
X161500000Y-101000000D03*
X161500000Y-102000000D03*
X161500000Y-103000000D03*
X161500000Y-104000000D03*
X161500000Y-105000000D03*
X161500000Y-106000000D03*
X161500000Y-107000000D03*
X161500000Y-108000000D03*
X161500000Y-109000000D03*
X161500000Y-110000000D03*
X161500000Y-111000000D03*
X161500000Y-112000000D03*
X161500000Y-113000000D03*
X161500000Y-114000000D03*
X161500000Y-115000000D03*
X161500000Y-116000000D03*
X161500000Y-117000000D03*
X161500000Y-118000000D03*
X161500000Y-119000000D03*
X161500000Y-120000000D03*
X161500000Y-121000000D03*
X161500000Y-122000000D03*
X161500000Y-123000000D03*
X161500000Y-124000000D03*
X161500000Y-125000000D03*
X161500000Y-126000000D03*
X161500000Y-127000000D03*
X161500000Y-128000000D03*
X161500000Y-129000000D03*
X161500000Y-130000000D03*
X161500000Y-131000000D03*
X161500000Y-132000000D03*
X161500000Y-133000000D03*
X161500000Y-134000000D03*
X161500000Y-135000000D03*
X156000000Y-135000000D03*
X157000000Y-135000000D03*
X158000000Y-135000000D03*
X159000000Y-135000000D03*
X160000000Y-135000000D03*
X66000000Y-124000000D03*
X66000000Y-125000000D03*
X66000000Y-126000000D03*
X66000000Y-127000000D03*
X66000000Y-128000000D03*
X66000000Y-129000000D03*
X66000000Y-130000000D03*
X66000000Y-131000000D03*
X66000000Y-132000000D03*
X66000000Y-133000000D03*
X66000000Y-134000000D03*
X66750000Y-92500000D03*
X66000000Y-93500000D03*
X66000000Y-94500000D03*
X66000000Y-95500000D03*
X66000000Y-96500000D03*
X66750000Y-97250000D03*
X66750000Y-103250000D03*
X66000000Y-104000000D03*
X66000000Y-105000000D03*
X66000000Y-106000000D03*
X66750000Y-106750000D03*
X72250000Y-119750000D03*
X72250000Y-121000000D03*
X72250000Y-122250000D03*
X72250000Y-123500000D03*
X71500000Y-124250000D03*
X70250000Y-124250000D03*
X69000000Y-124250000D03*
X67750000Y-124250000D03*
X74000000Y-112000000D03*
X74000000Y-111000000D03*
X74000000Y-110000000D03*
X74000000Y-109000000D03*
X74000000Y-108000000D03*
X74000000Y-107000000D03*
X73000000Y-106500000D03*
X73500000Y-102750000D03*
X73000000Y-103750000D03*
X73000000Y-105000000D03*
X77250000Y-112500000D03*
X75500000Y-112500000D03*
X79000000Y-112750000D03*
X79750000Y-113500000D03*
X75500000Y-105500000D03*
X76500000Y-107000000D03*
X77250000Y-105500000D03*
X78000000Y-107750000D03*
X80500000Y-109500000D03*
X80500000Y-111250000D03*
X85250000Y-115250000D03*
X85250000Y-117500000D03*
X85250000Y-119250000D03*
X83000000Y-115000000D03*
X88250000Y-114500000D03*
X100000000Y-108500000D03*
X96250000Y-112000000D03*
X95250000Y-110750000D03*
X98500000Y-106250000D03*
X67750000Y-92500000D03*
X68750000Y-92500000D03*
X69750000Y-92500000D03*
X70750000Y-92500000D03*
X71750000Y-92500000D03*
X72750000Y-92500000D03*
X73750000Y-92500000D03*
X74750000Y-92500000D03*
X75750000Y-92500000D03*
X97500000Y-91500000D03*
X110000000Y-93500000D03*
X161000000Y-63000000D03*
X161000000Y-65000000D03*
X161000000Y-67000000D03*
X161000000Y-69000000D03*
X161000000Y-71000000D03*
X161000000Y-73000000D03*
X161000000Y-75000000D03*
X161000000Y-77000000D03*
X161000000Y-79000000D03*
X161000000Y-81000000D03*
X161000000Y-83000000D03*
X161000000Y-85000000D03*
X161000000Y-87000000D03*
X161000000Y-89000000D03*
X161000000Y-91000000D03*
X158750000Y-63000000D03*
X156000000Y-63750000D03*
X156000000Y-65750000D03*
X156000000Y-67750000D03*
X156000000Y-69750000D03*
X156000000Y-71750000D03*
X156000000Y-73750000D03*
X156000000Y-75750000D03*
X156000000Y-77750000D03*
X156000000Y-79750000D03*
X156000000Y-81750000D03*
X156000000Y-83750000D03*
X156000000Y-85750000D03*
X156000000Y-87750000D03*
X156000000Y-89750000D03*
X67750000Y-128250000D03*
X156250000Y-104000000D03*
X157250000Y-108000000D03*
X72500000Y-130250000D03*
X69750000Y-128250000D03*
X148750000Y-97000000D03*
X146000000Y-97500000D03*
X143750000Y-95750000D03*
X142250000Y-96000000D03*
X142250000Y-98750000D03*
X137000000Y-105250000D03*
X148000000Y-100500000D03*
X141500000Y-103250000D03*
X144750000Y-103250000D03*
X146000000Y-103250000D03*
X139750000Y-96000000D03*
X98250000Y-110500000D03*
X154600000Y-112800000D03*
X112200000Y-129400000D03*
X134000000Y-129000000D03*
X137750000Y-102500000D03*
X66800000Y-37800000D03*
X68800000Y-37800000D03*
X70800000Y-37800000D03*
X72800000Y-37800000D03*
X74800000Y-37800000D03*
X76800000Y-37800000D03*
X78800000Y-37800000D03*
X80800000Y-37800000D03*
X82800000Y-37800000D03*
X84800000Y-37800000D03*
X86800000Y-37800000D03*
X88800000Y-37800000D03*
X90800000Y-37800000D03*
X92800000Y-37800000D03*
X94800000Y-37800000D03*
X96800000Y-37800000D03*
X100800000Y-37800000D03*
X102800000Y-37800000D03*
X104800000Y-37800000D03*
X106800000Y-37800000D03*
X108800000Y-37800000D03*
X110800000Y-37800000D03*
X112800000Y-37800000D03*
X114800000Y-37800000D03*
X116800000Y-37800000D03*
X118800000Y-37800000D03*
X120800000Y-37800000D03*
X122800000Y-37800000D03*
X124800000Y-37800000D03*
X126800000Y-37800000D03*
X128800000Y-37800000D03*
X130800000Y-37800000D03*
X132800000Y-37800000D03*
X134800000Y-37800000D03*
X136800000Y-37800000D03*
X138800000Y-37800000D03*
X140800000Y-37800000D03*
X142800000Y-37800000D03*
X144800000Y-37800000D03*
X146800000Y-37800000D03*
X148800000Y-37800000D03*
X150800000Y-37800000D03*
X152800000Y-37800000D03*
X154800000Y-37800000D03*
X156800000Y-37800000D03*
X158800000Y-37800000D03*
X160800000Y-37800000D03*
X66800000Y-39800000D03*
X68800000Y-39800000D03*
X70800000Y-39800000D03*
X72800000Y-39800000D03*
X74800000Y-39800000D03*
X76800000Y-39800000D03*
X78800000Y-39800000D03*
X80800000Y-39800000D03*
X82800000Y-39800000D03*
X84800000Y-39800000D03*
X86800000Y-39800000D03*
X88800000Y-39800000D03*
X90800000Y-39800000D03*
X92800000Y-39800000D03*
X94800000Y-39800000D03*
X102800000Y-39800000D03*
X104800000Y-39800000D03*
X106800000Y-39800000D03*
X108800000Y-39800000D03*
X110800000Y-39800000D03*
X112800000Y-39800000D03*
X114800000Y-39800000D03*
X116800000Y-39800000D03*
X124800000Y-39800000D03*
X126800000Y-39800000D03*
X128800000Y-39800000D03*
X130800000Y-39800000D03*
X132800000Y-39800000D03*
X134800000Y-39800000D03*
X136800000Y-39800000D03*
X138800000Y-39800000D03*
X140800000Y-39800000D03*
X142800000Y-39800000D03*
X144800000Y-39800000D03*
X146800000Y-39800000D03*
X148800000Y-39800000D03*
X150800000Y-39800000D03*
X152800000Y-39800000D03*
X154800000Y-39800000D03*
X156800000Y-39800000D03*
X158800000Y-39800000D03*
X160800000Y-39800000D03*
X66800000Y-41800000D03*
X68800000Y-41800000D03*
X70800000Y-41800000D03*
X72800000Y-41800000D03*
X74800000Y-41800000D03*
X76800000Y-41800000D03*
X78800000Y-41800000D03*
X80800000Y-41800000D03*
X82800000Y-41800000D03*
X84800000Y-41800000D03*
X86800000Y-41800000D03*
X88800000Y-41800000D03*
X90800000Y-41800000D03*
X92800000Y-41800000D03*
X94800000Y-41800000D03*
X102800000Y-41800000D03*
X104800000Y-41800000D03*
X106800000Y-41800000D03*
X108800000Y-41800000D03*
X110800000Y-41800000D03*
X112800000Y-41800000D03*
X114800000Y-41800000D03*
X116800000Y-41800000D03*
X124800000Y-41800000D03*
X126800000Y-41800000D03*
X128800000Y-41800000D03*
X130800000Y-41800000D03*
X132800000Y-41800000D03*
X134800000Y-41800000D03*
X136800000Y-41800000D03*
X138800000Y-41800000D03*
X140800000Y-41800000D03*
X142800000Y-41800000D03*
X144800000Y-41800000D03*
X146800000Y-41800000D03*
X148800000Y-41800000D03*
X150800000Y-41800000D03*
X152800000Y-41800000D03*
X154800000Y-41800000D03*
X156800000Y-41800000D03*
X158800000Y-41800000D03*
X160800000Y-41800000D03*
X66800000Y-43800000D03*
X68800000Y-43800000D03*
X70800000Y-43800000D03*
X72800000Y-43800000D03*
X74800000Y-43800000D03*
X76800000Y-43800000D03*
X78800000Y-43800000D03*
X80800000Y-43800000D03*
X82800000Y-43800000D03*
X84800000Y-43800000D03*
X86800000Y-43800000D03*
X88800000Y-43800000D03*
X90800000Y-43800000D03*
X92800000Y-43800000D03*
X94800000Y-43800000D03*
X96800000Y-43800000D03*
X98800000Y-43800000D03*
X100800000Y-43800000D03*
X102800000Y-43800000D03*
X104800000Y-43800000D03*
X106800000Y-43800000D03*
X108800000Y-43800000D03*
X110800000Y-43800000D03*
X112800000Y-43800000D03*
X114800000Y-43800000D03*
X116800000Y-43800000D03*
X118800000Y-43800000D03*
X120800000Y-43800000D03*
X122800000Y-43800000D03*
X124800000Y-43800000D03*
X126800000Y-43800000D03*
X128800000Y-43800000D03*
X130800000Y-43800000D03*
X132800000Y-43800000D03*
X134800000Y-43800000D03*
X136800000Y-43800000D03*
X138800000Y-43800000D03*
X140800000Y-43800000D03*
X142800000Y-43800000D03*
X144800000Y-43800000D03*
X146800000Y-43800000D03*
X148800000Y-43800000D03*
X150800000Y-43800000D03*
X152800000Y-43800000D03*
X154800000Y-43800000D03*
X156800000Y-43800000D03*
X158800000Y-43800000D03*
X160800000Y-43800000D03*
X66800000Y-45800000D03*
X68800000Y-45800000D03*
X70800000Y-45800000D03*
X72800000Y-45800000D03*
X74800000Y-45800000D03*
X76800000Y-45800000D03*
X78800000Y-45800000D03*
X80800000Y-45800000D03*
X82800000Y-45800000D03*
X84800000Y-45800000D03*
X86800000Y-45800000D03*
X88800000Y-45800000D03*
X90800000Y-45800000D03*
X92800000Y-45800000D03*
X94800000Y-45800000D03*
X96800000Y-45800000D03*
X98800000Y-45800000D03*
X100800000Y-45800000D03*
X102800000Y-45800000D03*
X104800000Y-45800000D03*
X106800000Y-45800000D03*
X108800000Y-45800000D03*
X110800000Y-45800000D03*
X112800000Y-45800000D03*
X114800000Y-45800000D03*
X116800000Y-45800000D03*
X118800000Y-45800000D03*
X120800000Y-45800000D03*
X122800000Y-45800000D03*
X124800000Y-45800000D03*
X126800000Y-45800000D03*
X128800000Y-45800000D03*
X130800000Y-45800000D03*
X132800000Y-45800000D03*
X134800000Y-45800000D03*
X136800000Y-45800000D03*
X138800000Y-45800000D03*
X140800000Y-45800000D03*
X142800000Y-45800000D03*
X144800000Y-45800000D03*
X146800000Y-45800000D03*
X148800000Y-45800000D03*
X150800000Y-45800000D03*
X152800000Y-45800000D03*
X154800000Y-45800000D03*
X156800000Y-45800000D03*
X158800000Y-45800000D03*
X160800000Y-45800000D03*
X66800000Y-47800000D03*
X68800000Y-47800000D03*
X70800000Y-47800000D03*
X72800000Y-47800000D03*
X74800000Y-47800000D03*
X76800000Y-47800000D03*
X78800000Y-47800000D03*
X80800000Y-47800000D03*
X82800000Y-47800000D03*
X84800000Y-47800000D03*
X86800000Y-47800000D03*
X88800000Y-47800000D03*
X90800000Y-47800000D03*
X92800000Y-47800000D03*
X94800000Y-47800000D03*
X96800000Y-47800000D03*
X98800000Y-47800000D03*
X100800000Y-47800000D03*
X102800000Y-47800000D03*
X104800000Y-47800000D03*
X106800000Y-47800000D03*
X108800000Y-47800000D03*
X110800000Y-47800000D03*
X112800000Y-47800000D03*
X114800000Y-47800000D03*
X116800000Y-47800000D03*
X118800000Y-47800000D03*
X120800000Y-47800000D03*
X122800000Y-47800000D03*
X124800000Y-47800000D03*
X126800000Y-47800000D03*
X128800000Y-47800000D03*
X130800000Y-47800000D03*
X132800000Y-47800000D03*
X134800000Y-47800000D03*
X136800000Y-47800000D03*
X138800000Y-47800000D03*
X140800000Y-47800000D03*
X142800000Y-47800000D03*
X144800000Y-47800000D03*
X146800000Y-47800000D03*
X148800000Y-47800000D03*
X150800000Y-47800000D03*
X152800000Y-47800000D03*
X154800000Y-47800000D03*
X156800000Y-47800000D03*
X158800000Y-47800000D03*
X160800000Y-47800000D03*
X66800000Y-49800000D03*
X68800000Y-49800000D03*
X70800000Y-49800000D03*
X72800000Y-49800000D03*
X74800000Y-49800000D03*
X76800000Y-49800000D03*
X78800000Y-49800000D03*
X80800000Y-49800000D03*
X82800000Y-49800000D03*
X84800000Y-49800000D03*
X86800000Y-49800000D03*
X88800000Y-49800000D03*
X90800000Y-49800000D03*
X92800000Y-49800000D03*
X94800000Y-49800000D03*
X96800000Y-49800000D03*
X98800000Y-49800000D03*
X100800000Y-49800000D03*
X102800000Y-49800000D03*
X104800000Y-49800000D03*
X106800000Y-49800000D03*
X108800000Y-49800000D03*
X110800000Y-49800000D03*
X112800000Y-49800000D03*
X114800000Y-49800000D03*
X116800000Y-49800000D03*
X118800000Y-49800000D03*
X120800000Y-49800000D03*
X122800000Y-49800000D03*
X124800000Y-49800000D03*
X126800000Y-49800000D03*
X128800000Y-49800000D03*
X130800000Y-49800000D03*
X132800000Y-49800000D03*
X134800000Y-49800000D03*
X136800000Y-49800000D03*
X138800000Y-49800000D03*
X140800000Y-49800000D03*
X142800000Y-49800000D03*
X144800000Y-49800000D03*
X146800000Y-49800000D03*
X148800000Y-49800000D03*
X150800000Y-49800000D03*
X152800000Y-49800000D03*
X154800000Y-49800000D03*
X156800000Y-49800000D03*
X158800000Y-49800000D03*
X160800000Y-49800000D03*
X66800000Y-51800000D03*
X68800000Y-51800000D03*
X70800000Y-51800000D03*
X72800000Y-51800000D03*
X74800000Y-51800000D03*
X76800000Y-51800000D03*
X78800000Y-51800000D03*
X80800000Y-51800000D03*
X82800000Y-51800000D03*
X84800000Y-51800000D03*
X86800000Y-51800000D03*
X88800000Y-51800000D03*
X90800000Y-51800000D03*
X92800000Y-51800000D03*
X94800000Y-51800000D03*
X96800000Y-51800000D03*
X98800000Y-51800000D03*
X100800000Y-51800000D03*
X102800000Y-51800000D03*
X104800000Y-51800000D03*
X106800000Y-51800000D03*
X108800000Y-51800000D03*
X110800000Y-51800000D03*
X112800000Y-51800000D03*
X114800000Y-51800000D03*
X116800000Y-51800000D03*
X118800000Y-51800000D03*
X120800000Y-51800000D03*
X122800000Y-51800000D03*
X124800000Y-51800000D03*
X126800000Y-51800000D03*
X128800000Y-51800000D03*
X130800000Y-51800000D03*
X132800000Y-51800000D03*
X134800000Y-51800000D03*
X136800000Y-51800000D03*
X138800000Y-51800000D03*
X140800000Y-51800000D03*
X142800000Y-51800000D03*
X144800000Y-51800000D03*
X146800000Y-51800000D03*
X148800000Y-51800000D03*
X150800000Y-51800000D03*
X152800000Y-51800000D03*
X154800000Y-51800000D03*
X156800000Y-51800000D03*
X158800000Y-51800000D03*
X160800000Y-51800000D03*
X109500000Y-69500000D03*
X110000000Y-96500000D03*
X132500000Y-73000000D03*
X134000000Y-75000000D03*
X132500000Y-77000000D03*
X134000000Y-79000000D03*
X132500000Y-81000000D03*
X134000000Y-83000000D03*
X132500000Y-85000000D03*
X134000000Y-87000000D03*
X132500000Y-89000000D03*
X134000000Y-91000000D03*
X132500000Y-93000000D03*
X79500000Y-97500000D03*
X79500000Y-96500000D03*
X79500000Y-95500000D03*
X79500000Y-94500000D03*
X83750000Y-102000000D03*
X82500000Y-102000000D03*
X82500000Y-103250000D03*
X83750000Y-103250000D03*
X88250000Y-107000000D03*
X106500000Y-95500000D03*
X76500000Y-130000000D03*
X76500000Y-128250000D03*
X74500000Y-127500000D03*
X75450250Y-128049750D03*
X77250000Y-129000000D03*
X73200000Y-114200000D03*
X73200000Y-115200000D03*
X73200000Y-116200000D03*
X73200000Y-117200000D03*
X105500000Y-100975000D03*
X88500000Y-103250000D03*
X88500000Y-102250000D03*
X88750000Y-101000000D03*
X91250000Y-101000000D03*
X91500000Y-101750000D03*
X97400000Y-120600000D03*
X116000000Y-113200000D03*
X91800000Y-110000000D03*
X92400000Y-110800000D03*
X115400000Y-112200000D03*
X126200000Y-118500000D03*
X124900000Y-118500000D03*
X134400000Y-111200000D03*
X135000000Y-110600000D03*
X134000000Y-112000000D03*
X82500000Y-125750000D03*
X79500000Y-124250000D03*
X79500000Y-127250000D03*
X88400000Y-118000000D03*
X109500000Y-114050000D03*
X111400000Y-119800000D03*
X110400000Y-118800000D03*
X121400000Y-112200000D03*
X118400000Y-124400000D03*
X119000000Y-125200000D03*
X143000000Y-113400000D03*
X107000000Y-108800000D03*
X135600000Y-104400000D03*
X146800000Y-109600000D03*
X112200000Y-117400000D03*
X114600000Y-115800000D03*
X121800000Y-115600000D03*
X121400000Y-121800000D03*
X124400000Y-113400000D03*
X150000000Y-114400000D03*
D21*
X109500000Y-69500000D02*
X109500000Y-75500000D01*
X109500000Y-75500000D02*
X111000000Y-77000000D01*
X111000000Y-77000000D02*
X111000000Y-91000000D01*
X111000000Y-91000000D02*
X108500000Y-93500000D01*
X108500000Y-93500000D02*
X108500000Y-95000000D01*
X108500000Y-95000000D02*
X110000000Y-96500000D01*
D22*
X82000000Y-99000000D02*
X81000000Y-100000000D01*
X82000000Y-98000000D02*
X82000000Y-99000000D01*
X83750000Y-105000000D02*
X83750000Y-103250000D01*
X88250000Y-107000000D02*
X85750000Y-107000000D01*
X85750000Y-107000000D02*
X83750000Y-105000000D01*
D21*
X106500000Y-93500000D02*
X106500000Y-95500000D01*
X108000000Y-92000000D02*
X106500000Y-93500000D01*
X108000000Y-78500000D02*
X108000000Y-92000000D01*
X105500000Y-77500000D02*
X107000000Y-77500000D01*
X107000000Y-77500000D02*
X108000000Y-78500000D01*
X135600000Y-104400000D02*
X136165685Y-104400000D01*
X136165685Y-104400000D02*
X143200000Y-104400000D01*
X143200000Y-104400000D02*
X146800000Y-108000000D01*
X146800000Y-108000000D02*
X146800000Y-109600000D01*
X112200000Y-117400000D02*
X113000000Y-117400000D01*
X113000000Y-117400000D02*
X114600000Y-115800000D01*
D23*
X121800000Y-115600000D02*
X121800000Y-121400000D01*
X121800000Y-121400000D02*
X121400000Y-121800000D01*
X148600000Y-116400000D02*
X150000000Y-115000000D01*
X127800000Y-110000000D02*
X130600000Y-110000000D01*
X124400000Y-113400000D02*
X127800000Y-110000000D01*
X142800000Y-116400000D02*
X148600000Y-116400000D01*
X130600000Y-110000000D02*
X131400000Y-109200000D01*
X150000000Y-115000000D02*
X150000000Y-114400000D01*
X138800000Y-112400000D02*
X142800000Y-116400000D01*
X131400000Y-109200000D02*
X136200000Y-109200000D01*
X136200000Y-109200000D02*
X138800000Y-111800000D01*
X138800000Y-111800000D02*
X138800000Y-112400000D01*
D22*
G36*
X161350001Y-58875000D02*
G01*
X161125000Y-58875000D01*
X161125000Y-57000000D01*
X161122598Y-56975614D01*
X161115485Y-56952165D01*
X161103934Y-56930554D01*
X161088388Y-56911612D01*
X159838388Y-55661612D01*
X159819446Y-55646066D01*
X159797835Y-55634515D01*
X159774386Y-55627402D01*
X159750000Y-55625000D01*
X156000000Y-55625000D01*
X155975614Y-55627402D01*
X155952165Y-55634515D01*
X155930554Y-55646066D01*
X155911612Y-55661612D01*
X154911612Y-56661612D01*
X154896066Y-56680554D01*
X154884515Y-56702165D01*
X154877402Y-56725614D01*
X154875000Y-56750000D01*
X154875000Y-58875000D01*
X130000000Y-58875000D01*
X129975614Y-58877402D01*
X129952165Y-58884515D01*
X129930554Y-58896066D01*
X129911612Y-58911612D01*
X128255000Y-60568224D01*
X128255000Y-58493331D01*
X128220635Y-58144419D01*
X128084830Y-57696729D01*
X127864295Y-57284137D01*
X127567504Y-56922496D01*
X127205862Y-56625705D01*
X126793270Y-56405170D01*
X126345580Y-56269365D01*
X125880000Y-56223509D01*
X125414419Y-56269365D01*
X124966729Y-56405170D01*
X124554137Y-56625705D01*
X124192496Y-56922496D01*
X123895705Y-57284138D01*
X123675170Y-57696730D01*
X123539365Y-58144420D01*
X123505000Y-58493332D01*
X123505000Y-60726669D01*
X123539365Y-61075581D01*
X123675170Y-61523271D01*
X123895706Y-61935863D01*
X124192497Y-62297504D01*
X124554138Y-62594295D01*
X124966730Y-62814830D01*
X125414420Y-62950635D01*
X125831509Y-62991715D01*
X119448224Y-69375000D01*
X118715990Y-69375000D01*
X119295495Y-68795495D01*
X119435403Y-68625017D01*
X119539364Y-68430519D01*
X119603383Y-68219477D01*
X119625000Y-68000000D01*
X119625000Y-56500000D01*
X119603383Y-56280523D01*
X119539364Y-56069481D01*
X119435403Y-55874983D01*
X119295495Y-55704505D01*
X116795495Y-53204505D01*
X116625017Y-53064597D01*
X116430519Y-52960636D01*
X116219477Y-52896617D01*
X116000000Y-52875000D01*
X93000000Y-52875000D01*
X92875765Y-52881881D01*
X92660017Y-52927602D01*
X92457336Y-53014535D01*
X92275508Y-53139339D01*
X92121523Y-53297218D01*
X90121523Y-55797218D01*
X89960636Y-56069481D01*
X89896617Y-56280523D01*
X89875000Y-56500000D01*
X89875000Y-63000000D01*
X89896617Y-63219477D01*
X89960636Y-63430519D01*
X90064597Y-63625017D01*
X90204505Y-63795495D01*
X93375000Y-66965990D01*
X93375000Y-69375000D01*
X89000000Y-69375000D01*
X88975614Y-69377402D01*
X88952165Y-69384515D01*
X88930554Y-69396066D01*
X88911612Y-69411612D01*
X85448224Y-72875000D01*
X66150000Y-72875000D01*
X66150000Y-57000000D01*
X66375000Y-57000000D01*
X66375000Y-61000000D01*
X66377402Y-61024386D01*
X66384515Y-61047835D01*
X66396066Y-61069446D01*
X66411612Y-61088388D01*
X67661612Y-62338388D01*
X67680554Y-62353934D01*
X67702165Y-62365485D01*
X67725614Y-62372598D01*
X67750000Y-62375000D01*
X71000000Y-62375000D01*
X71013187Y-62374303D01*
X71037183Y-62369341D01*
X71059751Y-62359794D01*
X71080023Y-62346028D01*
X72580023Y-61096028D01*
X72603934Y-61069446D01*
X72615485Y-61047835D01*
X72622598Y-61024386D01*
X72625000Y-61000000D01*
X72625000Y-57000000D01*
X72622598Y-56975614D01*
X72615485Y-56952165D01*
X72603934Y-56930554D01*
X72588388Y-56911612D01*
X71338388Y-55661612D01*
X71319446Y-55646066D01*
X71297835Y-55634515D01*
X71274386Y-55627402D01*
X71250000Y-55625000D01*
X67750000Y-55625000D01*
X67725614Y-55627402D01*
X67702165Y-55634515D01*
X67680554Y-55646066D01*
X67661612Y-55661612D01*
X66411612Y-56911612D01*
X66396066Y-56930554D01*
X66384515Y-56952165D01*
X66377402Y-56975614D01*
X66375000Y-57000000D01*
X66150000Y-57000000D01*
X66150000Y-40700000D01*
X96111332Y-40700000D01*
X96165876Y-41253797D01*
X96327413Y-41786311D01*
X96589734Y-42277079D01*
X96942759Y-42707241D01*
X97372921Y-43060266D01*
X97863689Y-43322587D01*
X98396203Y-43484124D01*
X98811226Y-43525000D01*
X99088774Y-43525000D01*
X99503797Y-43484124D01*
X100036311Y-43322587D01*
X100527079Y-43060266D01*
X100957241Y-42707241D01*
X101310266Y-42277079D01*
X101572587Y-41786311D01*
X101734124Y-41253797D01*
X101777833Y-40810000D01*
X117591332Y-40810000D01*
X117645876Y-41363797D01*
X117807413Y-41896311D01*
X118069734Y-42387079D01*
X118422759Y-42817241D01*
X118852921Y-43170266D01*
X119343689Y-43432587D01*
X119876203Y-43594124D01*
X120291226Y-43635000D01*
X120568774Y-43635000D01*
X120983797Y-43594124D01*
X121516311Y-43432587D01*
X122007079Y-43170266D01*
X122437241Y-42817241D01*
X122790266Y-42387079D01*
X123052587Y-41896311D01*
X123214124Y-41363797D01*
X123268668Y-40810000D01*
X123214124Y-40256203D01*
X123052587Y-39723689D01*
X122790266Y-39232921D01*
X122437241Y-38802759D01*
X122007079Y-38449734D01*
X121516311Y-38187413D01*
X120983797Y-38025876D01*
X120568774Y-37985000D01*
X120291226Y-37985000D01*
X119876203Y-38025876D01*
X119343689Y-38187413D01*
X118852921Y-38449734D01*
X118422759Y-38802759D01*
X118069734Y-39232921D01*
X117807413Y-39723689D01*
X117645876Y-40256203D01*
X117591332Y-40810000D01*
X101777833Y-40810000D01*
X101788668Y-40700000D01*
X101734124Y-40146203D01*
X101572587Y-39613689D01*
X101310266Y-39122921D01*
X100957241Y-38692759D01*
X100527079Y-38339734D01*
X100036311Y-38077413D01*
X99503797Y-37915876D01*
X99088774Y-37875000D01*
X98811226Y-37875000D01*
X98396203Y-37915876D01*
X97863689Y-38077413D01*
X97372921Y-38339734D01*
X96942759Y-38692759D01*
X96589734Y-39122921D01*
X96327413Y-39613689D01*
X96165876Y-40146203D01*
X96111332Y-40700000D01*
X66150000Y-40700000D01*
X66150000Y-37150000D01*
X161350001Y-37150000D01*
X161350001Y-58875000D01*
X161350001Y-58875000D01*
G37*
X161350001Y-58875000D02*
X161125000Y-58875000D01*
X161125000Y-57000000D01*
X161122598Y-56975614D01*
X161115485Y-56952165D01*
X161103934Y-56930554D01*
X161088388Y-56911612D01*
X159838388Y-55661612D01*
X159819446Y-55646066D01*
X159797835Y-55634515D01*
X159774386Y-55627402D01*
X159750000Y-55625000D01*
X156000000Y-55625000D01*
X155975614Y-55627402D01*
X155952165Y-55634515D01*
X155930554Y-55646066D01*
X155911612Y-55661612D01*
X154911612Y-56661612D01*
X154896066Y-56680554D01*
X154884515Y-56702165D01*
X154877402Y-56725614D01*
X154875000Y-56750000D01*
X154875000Y-58875000D01*
X130000000Y-58875000D01*
X129975614Y-58877402D01*
X129952165Y-58884515D01*
X129930554Y-58896066D01*
X129911612Y-58911612D01*
X128255000Y-60568224D01*
X128255000Y-58493331D01*
X128220635Y-58144419D01*
X128084830Y-57696729D01*
X127864295Y-57284137D01*
X127567504Y-56922496D01*
X127205862Y-56625705D01*
X126793270Y-56405170D01*
X126345580Y-56269365D01*
X125880000Y-56223509D01*
X125414419Y-56269365D01*
X124966729Y-56405170D01*
X124554137Y-56625705D01*
X124192496Y-56922496D01*
X123895705Y-57284138D01*
X123675170Y-57696730D01*
X123539365Y-58144420D01*
X123505000Y-58493332D01*
X123505000Y-60726669D01*
X123539365Y-61075581D01*
X123675170Y-61523271D01*
X123895706Y-61935863D01*
X124192497Y-62297504D01*
X124554138Y-62594295D01*
X124966730Y-62814830D01*
X125414420Y-62950635D01*
X125831509Y-62991715D01*
X119448224Y-69375000D01*
X118715990Y-69375000D01*
X119295495Y-68795495D01*
X119435403Y-68625017D01*
X119539364Y-68430519D01*
X119603383Y-68219477D01*
X119625000Y-68000000D01*
X119625000Y-56500000D01*
X119603383Y-56280523D01*
X119539364Y-56069481D01*
X119435403Y-55874983D01*
X119295495Y-55704505D01*
X116795495Y-53204505D01*
X116625017Y-53064597D01*
X116430519Y-52960636D01*
X116219477Y-52896617D01*
X116000000Y-52875000D01*
X93000000Y-52875000D01*
X92875765Y-52881881D01*
X92660017Y-52927602D01*
X92457336Y-53014535D01*
X92275508Y-53139339D01*
X92121523Y-53297218D01*
X90121523Y-55797218D01*
X89960636Y-56069481D01*
X89896617Y-56280523D01*
X89875000Y-56500000D01*
X89875000Y-63000000D01*
X89896617Y-63219477D01*
X89960636Y-63430519D01*
X90064597Y-63625017D01*
X90204505Y-63795495D01*
X93375000Y-66965990D01*
X93375000Y-69375000D01*
X89000000Y-69375000D01*
X88975614Y-69377402D01*
X88952165Y-69384515D01*
X88930554Y-69396066D01*
X88911612Y-69411612D01*
X85448224Y-72875000D01*
X66150000Y-72875000D01*
X66150000Y-57000000D01*
X66375000Y-57000000D01*
X66375000Y-61000000D01*
X66377402Y-61024386D01*
X66384515Y-61047835D01*
X66396066Y-61069446D01*
X66411612Y-61088388D01*
X67661612Y-62338388D01*
X67680554Y-62353934D01*
X67702165Y-62365485D01*
X67725614Y-62372598D01*
X67750000Y-62375000D01*
X71000000Y-62375000D01*
X71013187Y-62374303D01*
X71037183Y-62369341D01*
X71059751Y-62359794D01*
X71080023Y-62346028D01*
X72580023Y-61096028D01*
X72603934Y-61069446D01*
X72615485Y-61047835D01*
X72622598Y-61024386D01*
X72625000Y-61000000D01*
X72625000Y-57000000D01*
X72622598Y-56975614D01*
X72615485Y-56952165D01*
X72603934Y-56930554D01*
X72588388Y-56911612D01*
X71338388Y-55661612D01*
X71319446Y-55646066D01*
X71297835Y-55634515D01*
X71274386Y-55627402D01*
X71250000Y-55625000D01*
X67750000Y-55625000D01*
X67725614Y-55627402D01*
X67702165Y-55634515D01*
X67680554Y-55646066D01*
X67661612Y-55661612D01*
X66411612Y-56911612D01*
X66396066Y-56930554D01*
X66384515Y-56952165D01*
X66377402Y-56975614D01*
X66375000Y-57000000D01*
X66150000Y-57000000D01*
X66150000Y-40700000D01*
X96111332Y-40700000D01*
X96165876Y-41253797D01*
X96327413Y-41786311D01*
X96589734Y-42277079D01*
X96942759Y-42707241D01*
X97372921Y-43060266D01*
X97863689Y-43322587D01*
X98396203Y-43484124D01*
X98811226Y-43525000D01*
X99088774Y-43525000D01*
X99503797Y-43484124D01*
X100036311Y-43322587D01*
X100527079Y-43060266D01*
X100957241Y-42707241D01*
X101310266Y-42277079D01*
X101572587Y-41786311D01*
X101734124Y-41253797D01*
X101777833Y-40810000D01*
X117591332Y-40810000D01*
X117645876Y-41363797D01*
X117807413Y-41896311D01*
X118069734Y-42387079D01*
X118422759Y-42817241D01*
X118852921Y-43170266D01*
X119343689Y-43432587D01*
X119876203Y-43594124D01*
X120291226Y-43635000D01*
X120568774Y-43635000D01*
X120983797Y-43594124D01*
X121516311Y-43432587D01*
X122007079Y-43170266D01*
X122437241Y-42817241D01*
X122790266Y-42387079D01*
X123052587Y-41896311D01*
X123214124Y-41363797D01*
X123268668Y-40810000D01*
X123214124Y-40256203D01*
X123052587Y-39723689D01*
X122790266Y-39232921D01*
X122437241Y-38802759D01*
X122007079Y-38449734D01*
X121516311Y-38187413D01*
X120983797Y-38025876D01*
X120568774Y-37985000D01*
X120291226Y-37985000D01*
X119876203Y-38025876D01*
X119343689Y-38187413D01*
X118852921Y-38449734D01*
X118422759Y-38802759D01*
X118069734Y-39232921D01*
X117807413Y-39723689D01*
X117645876Y-40256203D01*
X117591332Y-40810000D01*
X101777833Y-40810000D01*
X101788668Y-40700000D01*
X101734124Y-40146203D01*
X101572587Y-39613689D01*
X101310266Y-39122921D01*
X100957241Y-38692759D01*
X100527079Y-38339734D01*
X100036311Y-38077413D01*
X99503797Y-37915876D01*
X99088774Y-37875000D01*
X98811226Y-37875000D01*
X98396203Y-37915876D01*
X97863689Y-38077413D01*
X97372921Y-38339734D01*
X96942759Y-38692759D01*
X96589734Y-39122921D01*
X96327413Y-39613689D01*
X96165876Y-40146203D01*
X96111332Y-40700000D01*
X66150000Y-40700000D01*
X66150000Y-37150000D01*
X161350001Y-37150000D01*
X161350001Y-58875000D01*
G36*
X155766842Y-60832706D02*
G01*
X156167294Y-61233158D01*
X156638177Y-61547792D01*
X157161393Y-61764515D01*
X157716837Y-61875000D01*
X158283163Y-61875000D01*
X158838607Y-61764515D01*
X159361823Y-61547792D01*
X159832706Y-61233158D01*
X160233158Y-60832706D01*
X160371943Y-60625000D01*
X161600001Y-60625000D01*
X161600000Y-92375000D01*
X157875000Y-92375000D01*
X157875000Y-76000000D01*
X157858187Y-75829296D01*
X157808395Y-75665152D01*
X157727536Y-75513876D01*
X157618718Y-75381282D01*
X157486124Y-75272464D01*
X157334848Y-75191605D01*
X157170704Y-75141813D01*
X157000000Y-75125000D01*
X140362436Y-75125000D01*
X138118718Y-72881282D01*
X137986124Y-72772464D01*
X137834848Y-72691605D01*
X137670704Y-72641813D01*
X137500000Y-72625000D01*
X135862436Y-72625000D01*
X133118718Y-69881282D01*
X132986124Y-69772464D01*
X132834848Y-69691605D01*
X132670704Y-69641813D01*
X132500000Y-69625000D01*
X128500000Y-69625000D01*
X128329296Y-69641813D01*
X128165152Y-69691605D01*
X128013876Y-69772464D01*
X127881282Y-69881282D01*
X127772464Y-70013876D01*
X127691605Y-70165152D01*
X127641813Y-70329296D01*
X127625000Y-70500000D01*
X127625000Y-94352288D01*
X120051622Y-94374846D01*
X118088388Y-92411612D01*
X118069446Y-92396066D01*
X118047835Y-92384515D01*
X118024386Y-92377402D01*
X118000000Y-92375000D01*
X111215990Y-92375000D01*
X111756416Y-91834574D01*
X111799344Y-91799344D01*
X111939929Y-91628040D01*
X112044393Y-91432602D01*
X112108722Y-91220538D01*
X112125000Y-91055264D01*
X112125000Y-91055262D01*
X112130443Y-91000000D01*
X112125000Y-90944739D01*
X112125000Y-77055253D01*
X112130442Y-76999999D01*
X112125000Y-76944745D01*
X112125000Y-76944736D01*
X112108722Y-76779462D01*
X112044393Y-76567398D01*
X111939929Y-76371960D01*
X111939928Y-76371958D01*
X111850945Y-76263532D01*
X111799344Y-76200656D01*
X111756416Y-76165426D01*
X110625000Y-75034011D01*
X110625000Y-72625000D01*
X115000000Y-72625000D01*
X115219477Y-72603383D01*
X115430519Y-72539364D01*
X115625017Y-72435403D01*
X115795495Y-72295495D01*
X117465990Y-70625000D01*
X121000000Y-70625000D01*
X121024386Y-70622598D01*
X121047835Y-70615485D01*
X121069446Y-70603934D01*
X121088388Y-70588388D01*
X127376221Y-64300555D01*
X137975000Y-64300555D01*
X137975000Y-64699445D01*
X138052820Y-65090671D01*
X138205468Y-65459197D01*
X138413140Y-65770000D01*
X138205468Y-66080803D01*
X138052820Y-66449329D01*
X137975000Y-66840555D01*
X137975000Y-67239445D01*
X138052820Y-67630671D01*
X138205468Y-67999197D01*
X138413140Y-68310000D01*
X138205468Y-68620803D01*
X138052820Y-68989329D01*
X137975000Y-69380555D01*
X137975000Y-69779445D01*
X138052820Y-70170671D01*
X138205468Y-70539197D01*
X138427080Y-70870862D01*
X138709138Y-71152920D01*
X139040803Y-71374532D01*
X139409329Y-71527180D01*
X139800555Y-71605000D01*
X140199445Y-71605000D01*
X140590671Y-71527180D01*
X140959197Y-71374532D01*
X141290862Y-71152920D01*
X141572920Y-70870862D01*
X141794532Y-70539197D01*
X141947180Y-70170671D01*
X142025000Y-69779445D01*
X142025000Y-69380555D01*
X141947180Y-68989329D01*
X141794532Y-68620803D01*
X141586860Y-68310000D01*
X141794532Y-67999197D01*
X141947180Y-67630671D01*
X142025000Y-67239445D01*
X142025000Y-66840555D01*
X141947180Y-66449329D01*
X141794532Y-66080803D01*
X141586860Y-65770000D01*
X141794532Y-65459197D01*
X141947180Y-65090671D01*
X142025000Y-64699445D01*
X142025000Y-64300555D01*
X143055000Y-64300555D01*
X143055000Y-64699445D01*
X143132820Y-65090671D01*
X143285468Y-65459197D01*
X143493140Y-65770000D01*
X143285468Y-66080803D01*
X143132820Y-66449329D01*
X143055000Y-66840555D01*
X143055000Y-67239445D01*
X143132820Y-67630671D01*
X143285468Y-67999197D01*
X143493140Y-68310000D01*
X143285468Y-68620803D01*
X143132820Y-68989329D01*
X143055000Y-69380555D01*
X143055000Y-69779445D01*
X143132820Y-70170671D01*
X143285468Y-70539197D01*
X143507080Y-70870862D01*
X143789138Y-71152920D01*
X144120803Y-71374532D01*
X144489329Y-71527180D01*
X144880555Y-71605000D01*
X145279445Y-71605000D01*
X145670671Y-71527180D01*
X146039197Y-71374532D01*
X146370862Y-71152920D01*
X146652920Y-70870862D01*
X146874532Y-70539197D01*
X147027180Y-70170671D01*
X147105000Y-69779445D01*
X147105000Y-69380555D01*
X147027180Y-68989329D01*
X146874532Y-68620803D01*
X146666860Y-68310000D01*
X146874532Y-67999197D01*
X147027180Y-67630671D01*
X147105000Y-67239445D01*
X147105000Y-66840555D01*
X147027180Y-66449329D01*
X146874532Y-66080803D01*
X146666860Y-65770000D01*
X146874532Y-65459197D01*
X147027180Y-65090671D01*
X147105000Y-64699445D01*
X147105000Y-64300555D01*
X147027180Y-63909329D01*
X146874532Y-63540803D01*
X146652920Y-63209138D01*
X146370862Y-62927080D01*
X146039197Y-62705468D01*
X145670671Y-62552820D01*
X145279445Y-62475000D01*
X144880555Y-62475000D01*
X144489329Y-62552820D01*
X144120803Y-62705468D01*
X143789138Y-62927080D01*
X143507080Y-63209138D01*
X143285468Y-63540803D01*
X143132820Y-63909329D01*
X143055000Y-64300555D01*
X142025000Y-64300555D01*
X141947180Y-63909329D01*
X141794532Y-63540803D01*
X141572920Y-63209138D01*
X141290862Y-62927080D01*
X140959197Y-62705468D01*
X140590671Y-62552820D01*
X140199445Y-62475000D01*
X139800555Y-62475000D01*
X139409329Y-62552820D01*
X139040803Y-62705468D01*
X138709138Y-62927080D01*
X138427080Y-63209138D01*
X138205468Y-63540803D01*
X138052820Y-63909329D01*
X137975000Y-64300555D01*
X127376221Y-64300555D01*
X131051776Y-60625000D01*
X155628057Y-60625000D01*
X155766842Y-60832706D01*
X155766842Y-60832706D01*
G37*
X155766842Y-60832706D02*
X156167294Y-61233158D01*
X156638177Y-61547792D01*
X157161393Y-61764515D01*
X157716837Y-61875000D01*
X158283163Y-61875000D01*
X158838607Y-61764515D01*
X159361823Y-61547792D01*
X159832706Y-61233158D01*
X160233158Y-60832706D01*
X160371943Y-60625000D01*
X161600001Y-60625000D01*
X161600000Y-92375000D01*
X157875000Y-92375000D01*
X157875000Y-76000000D01*
X157858187Y-75829296D01*
X157808395Y-75665152D01*
X157727536Y-75513876D01*
X157618718Y-75381282D01*
X157486124Y-75272464D01*
X157334848Y-75191605D01*
X157170704Y-75141813D01*
X157000000Y-75125000D01*
X140362436Y-75125000D01*
X138118718Y-72881282D01*
X137986124Y-72772464D01*
X137834848Y-72691605D01*
X137670704Y-72641813D01*
X137500000Y-72625000D01*
X135862436Y-72625000D01*
X133118718Y-69881282D01*
X132986124Y-69772464D01*
X132834848Y-69691605D01*
X132670704Y-69641813D01*
X132500000Y-69625000D01*
X128500000Y-69625000D01*
X128329296Y-69641813D01*
X128165152Y-69691605D01*
X128013876Y-69772464D01*
X127881282Y-69881282D01*
X127772464Y-70013876D01*
X127691605Y-70165152D01*
X127641813Y-70329296D01*
X127625000Y-70500000D01*
X127625000Y-94352288D01*
X120051622Y-94374846D01*
X118088388Y-92411612D01*
X118069446Y-92396066D01*
X118047835Y-92384515D01*
X118024386Y-92377402D01*
X118000000Y-92375000D01*
X111215990Y-92375000D01*
X111756416Y-91834574D01*
X111799344Y-91799344D01*
X111939929Y-91628040D01*
X112044393Y-91432602D01*
X112108722Y-91220538D01*
X112125000Y-91055264D01*
X112125000Y-91055262D01*
X112130443Y-91000000D01*
X112125000Y-90944739D01*
X112125000Y-77055253D01*
X112130442Y-76999999D01*
X112125000Y-76944745D01*
X112125000Y-76944736D01*
X112108722Y-76779462D01*
X112044393Y-76567398D01*
X111939929Y-76371960D01*
X111939928Y-76371958D01*
X111850945Y-76263532D01*
X111799344Y-76200656D01*
X111756416Y-76165426D01*
X110625000Y-75034011D01*
X110625000Y-72625000D01*
X115000000Y-72625000D01*
X115219477Y-72603383D01*
X115430519Y-72539364D01*
X115625017Y-72435403D01*
X115795495Y-72295495D01*
X117465990Y-70625000D01*
X121000000Y-70625000D01*
X121024386Y-70622598D01*
X121047835Y-70615485D01*
X121069446Y-70603934D01*
X121088388Y-70588388D01*
X127376221Y-64300555D01*
X137975000Y-64300555D01*
X137975000Y-64699445D01*
X138052820Y-65090671D01*
X138205468Y-65459197D01*
X138413140Y-65770000D01*
X138205468Y-66080803D01*
X138052820Y-66449329D01*
X137975000Y-66840555D01*
X137975000Y-67239445D01*
X138052820Y-67630671D01*
X138205468Y-67999197D01*
X138413140Y-68310000D01*
X138205468Y-68620803D01*
X138052820Y-68989329D01*
X137975000Y-69380555D01*
X137975000Y-69779445D01*
X138052820Y-70170671D01*
X138205468Y-70539197D01*
X138427080Y-70870862D01*
X138709138Y-71152920D01*
X139040803Y-71374532D01*
X139409329Y-71527180D01*
X139800555Y-71605000D01*
X140199445Y-71605000D01*
X140590671Y-71527180D01*
X140959197Y-71374532D01*
X141290862Y-71152920D01*
X141572920Y-70870862D01*
X141794532Y-70539197D01*
X141947180Y-70170671D01*
X142025000Y-69779445D01*
X142025000Y-69380555D01*
X141947180Y-68989329D01*
X141794532Y-68620803D01*
X141586860Y-68310000D01*
X141794532Y-67999197D01*
X141947180Y-67630671D01*
X142025000Y-67239445D01*
X142025000Y-66840555D01*
X141947180Y-66449329D01*
X141794532Y-66080803D01*
X141586860Y-65770000D01*
X141794532Y-65459197D01*
X141947180Y-65090671D01*
X142025000Y-64699445D01*
X142025000Y-64300555D01*
X143055000Y-64300555D01*
X143055000Y-64699445D01*
X143132820Y-65090671D01*
X143285468Y-65459197D01*
X143493140Y-65770000D01*
X143285468Y-66080803D01*
X143132820Y-66449329D01*
X143055000Y-66840555D01*
X143055000Y-67239445D01*
X143132820Y-67630671D01*
X143285468Y-67999197D01*
X143493140Y-68310000D01*
X143285468Y-68620803D01*
X143132820Y-68989329D01*
X143055000Y-69380555D01*
X143055000Y-69779445D01*
X143132820Y-70170671D01*
X143285468Y-70539197D01*
X143507080Y-70870862D01*
X143789138Y-71152920D01*
X144120803Y-71374532D01*
X144489329Y-71527180D01*
X144880555Y-71605000D01*
X145279445Y-71605000D01*
X145670671Y-71527180D01*
X146039197Y-71374532D01*
X146370862Y-71152920D01*
X146652920Y-70870862D01*
X146874532Y-70539197D01*
X147027180Y-70170671D01*
X147105000Y-69779445D01*
X147105000Y-69380555D01*
X147027180Y-68989329D01*
X146874532Y-68620803D01*
X146666860Y-68310000D01*
X146874532Y-67999197D01*
X147027180Y-67630671D01*
X147105000Y-67239445D01*
X147105000Y-66840555D01*
X147027180Y-66449329D01*
X146874532Y-66080803D01*
X146666860Y-65770000D01*
X146874532Y-65459197D01*
X147027180Y-65090671D01*
X147105000Y-64699445D01*
X147105000Y-64300555D01*
X147027180Y-63909329D01*
X146874532Y-63540803D01*
X146652920Y-63209138D01*
X146370862Y-62927080D01*
X146039197Y-62705468D01*
X145670671Y-62552820D01*
X145279445Y-62475000D01*
X144880555Y-62475000D01*
X144489329Y-62552820D01*
X144120803Y-62705468D01*
X143789138Y-62927080D01*
X143507080Y-63209138D01*
X143285468Y-63540803D01*
X143132820Y-63909329D01*
X143055000Y-64300555D01*
X142025000Y-64300555D01*
X141947180Y-63909329D01*
X141794532Y-63540803D01*
X141572920Y-63209138D01*
X141290862Y-62927080D01*
X140959197Y-62705468D01*
X140590671Y-62552820D01*
X140199445Y-62475000D01*
X139800555Y-62475000D01*
X139409329Y-62552820D01*
X139040803Y-62705468D01*
X138709138Y-62927080D01*
X138427080Y-63209138D01*
X138205468Y-63540803D01*
X138052820Y-63909329D01*
X137975000Y-64300555D01*
X127376221Y-64300555D01*
X131051776Y-60625000D01*
X155628057Y-60625000D01*
X155766842Y-60832706D01*
G36*
X106875001Y-91534009D02*
G01*
X105743589Y-92665422D01*
X105700656Y-92700656D01*
X105560071Y-92871960D01*
X105558446Y-92875000D01*
X104215990Y-92875000D01*
X105295495Y-91795495D01*
X105435403Y-91625017D01*
X105539364Y-91430519D01*
X105603383Y-91219477D01*
X105625000Y-91000000D01*
X105625000Y-79500000D01*
X105603383Y-79280523D01*
X105602992Y-79279233D01*
X106400000Y-79279233D01*
X106571530Y-79262339D01*
X106736468Y-79212305D01*
X106875000Y-79138259D01*
X106875001Y-91534009D01*
X106875001Y-91534009D01*
G37*
X106875001Y-91534009D02*
X105743589Y-92665422D01*
X105700656Y-92700656D01*
X105560071Y-92871960D01*
X105558446Y-92875000D01*
X104215990Y-92875000D01*
X105295495Y-91795495D01*
X105435403Y-91625017D01*
X105539364Y-91430519D01*
X105603383Y-91219477D01*
X105625000Y-91000000D01*
X105625000Y-79500000D01*
X105603383Y-79280523D01*
X105602992Y-79279233D01*
X106400000Y-79279233D01*
X106571530Y-79262339D01*
X106736468Y-79212305D01*
X106875000Y-79138259D01*
X106875001Y-91534009D01*
G36*
X93375000Y-78500000D02*
G01*
X93396617Y-78719477D01*
X93460636Y-78930519D01*
X93564597Y-79125017D01*
X93704505Y-79295495D01*
X95704505Y-81295495D01*
X95874983Y-81435403D01*
X96069481Y-81539364D01*
X96280523Y-81603383D01*
X96500000Y-81625000D01*
X98943794Y-81625000D01*
X98896617Y-81780523D01*
X98875000Y-82000000D01*
X98875000Y-83034010D01*
X97204505Y-84704505D01*
X97064597Y-84874983D01*
X96960636Y-85069481D01*
X96896617Y-85280523D01*
X96875000Y-85500000D01*
X96875000Y-91698224D01*
X96088388Y-90911612D01*
X96069446Y-90896066D01*
X96047835Y-90884515D01*
X96024386Y-90877402D01*
X96000000Y-90875000D01*
X65900000Y-90875000D01*
X65900000Y-74625000D01*
X86000000Y-74625000D01*
X86024386Y-74622598D01*
X86047835Y-74615485D01*
X86069446Y-74603934D01*
X86088388Y-74588388D01*
X90051776Y-70625000D01*
X93375000Y-70625000D01*
X93375000Y-78500000D01*
X93375000Y-78500000D01*
G37*
X93375000Y-78500000D02*
X93396617Y-78719477D01*
X93460636Y-78930519D01*
X93564597Y-79125017D01*
X93704505Y-79295495D01*
X95704505Y-81295495D01*
X95874983Y-81435403D01*
X96069481Y-81539364D01*
X96280523Y-81603383D01*
X96500000Y-81625000D01*
X98943794Y-81625000D01*
X98896617Y-81780523D01*
X98875000Y-82000000D01*
X98875000Y-83034010D01*
X97204505Y-84704505D01*
X97064597Y-84874983D01*
X96960636Y-85069481D01*
X96896617Y-85280523D01*
X96875000Y-85500000D01*
X96875000Y-91698224D01*
X96088388Y-90911612D01*
X96069446Y-90896066D01*
X96047835Y-90884515D01*
X96024386Y-90877402D01*
X96000000Y-90875000D01*
X65900000Y-90875000D01*
X65900000Y-74625000D01*
X86000000Y-74625000D01*
X86024386Y-74622598D01*
X86047835Y-74615485D01*
X86069446Y-74603934D01*
X86088388Y-74588388D01*
X90051776Y-70625000D01*
X93375000Y-70625000D01*
X93375000Y-78500000D01*
G36*
X108375001Y-75444729D02*
G01*
X108369557Y-75500000D01*
X108391279Y-75720538D01*
X108455607Y-75932601D01*
X108491633Y-76000000D01*
X108560072Y-76128040D01*
X108700657Y-76299344D01*
X108743584Y-76334574D01*
X109875000Y-77465990D01*
X109875001Y-90534009D01*
X109125000Y-91284010D01*
X109125000Y-78555262D01*
X109130443Y-78500000D01*
X109125000Y-78444736D01*
X109108722Y-78279462D01*
X109044393Y-78067398D01*
X108972343Y-77932602D01*
X108939929Y-77871959D01*
X108834572Y-77743582D01*
X108799344Y-77700656D01*
X108756416Y-77665426D01*
X107834578Y-76743589D01*
X107799344Y-76700656D01*
X107628040Y-76560071D01*
X107432602Y-76455607D01*
X107254150Y-76401474D01*
X107212305Y-76263532D01*
X107131056Y-76111524D01*
X107021712Y-75978288D01*
X106888476Y-75868944D01*
X106736468Y-75787695D01*
X106571530Y-75737661D01*
X106400000Y-75720767D01*
X104808841Y-75720767D01*
X104795495Y-75704505D01*
X104625017Y-75564597D01*
X104430519Y-75460636D01*
X104219477Y-75396617D01*
X104196624Y-75394366D01*
X106965990Y-72625000D01*
X108375001Y-72625000D01*
X108375001Y-75444729D01*
X108375001Y-75444729D01*
G37*
X108375001Y-75444729D02*
X108369557Y-75500000D01*
X108391279Y-75720538D01*
X108455607Y-75932601D01*
X108491633Y-76000000D01*
X108560072Y-76128040D01*
X108700657Y-76299344D01*
X108743584Y-76334574D01*
X109875000Y-77465990D01*
X109875001Y-90534009D01*
X109125000Y-91284010D01*
X109125000Y-78555262D01*
X109130443Y-78500000D01*
X109125000Y-78444736D01*
X109108722Y-78279462D01*
X109044393Y-78067398D01*
X108972343Y-77932602D01*
X108939929Y-77871959D01*
X108834572Y-77743582D01*
X108799344Y-77700656D01*
X108756416Y-77665426D01*
X107834578Y-76743589D01*
X107799344Y-76700656D01*
X107628040Y-76560071D01*
X107432602Y-76455607D01*
X107254150Y-76401474D01*
X107212305Y-76263532D01*
X107131056Y-76111524D01*
X107021712Y-75978288D01*
X106888476Y-75868944D01*
X106736468Y-75787695D01*
X106571530Y-75737661D01*
X106400000Y-75720767D01*
X104808841Y-75720767D01*
X104795495Y-75704505D01*
X104625017Y-75564597D01*
X104430519Y-75460636D01*
X104219477Y-75396617D01*
X104196624Y-75394366D01*
X106965990Y-72625000D01*
X108375001Y-72625000D01*
X108375001Y-75444729D01*
G36*
X135411612Y-73588388D02*
G01*
X135430554Y-73603934D01*
X135452165Y-73615485D01*
X135475614Y-73622598D01*
X135500000Y-73625000D01*
X137448224Y-73625000D01*
X139911612Y-76088388D01*
X139930554Y-76103934D01*
X139952165Y-76115485D01*
X139975614Y-76122598D01*
X140000000Y-76125000D01*
X155181177Y-76125000D01*
X155202430Y-76176310D01*
X155300924Y-76323717D01*
X155426283Y-76449076D01*
X155573690Y-76547570D01*
X155737480Y-76615414D01*
X155911358Y-76650000D01*
X156088642Y-76650000D01*
X156262520Y-76615414D01*
X156426310Y-76547570D01*
X156573717Y-76449076D01*
X156699076Y-76323717D01*
X156797570Y-76176310D01*
X156818823Y-76125000D01*
X156875000Y-76125000D01*
X156875000Y-77535673D01*
X156865414Y-77487480D01*
X156797570Y-77323690D01*
X156699076Y-77176283D01*
X156573717Y-77050924D01*
X156426310Y-76952430D01*
X156262520Y-76884586D01*
X156088642Y-76850000D01*
X155911358Y-76850000D01*
X155737480Y-76884586D01*
X155573690Y-76952430D01*
X155426283Y-77050924D01*
X155300924Y-77176283D01*
X155202430Y-77323690D01*
X155134586Y-77487480D01*
X155100000Y-77661358D01*
X155100000Y-77838642D01*
X155134586Y-78012520D01*
X155202430Y-78176310D01*
X155300924Y-78323717D01*
X155426283Y-78449076D01*
X155573690Y-78547570D01*
X155737480Y-78615414D01*
X155911358Y-78650000D01*
X156088642Y-78650000D01*
X156262520Y-78615414D01*
X156426310Y-78547570D01*
X156573717Y-78449076D01*
X156699076Y-78323717D01*
X156797570Y-78176310D01*
X156865414Y-78012520D01*
X156875000Y-77964327D01*
X156875000Y-79535673D01*
X156865414Y-79487480D01*
X156797570Y-79323690D01*
X156699076Y-79176283D01*
X156573717Y-79050924D01*
X156426310Y-78952430D01*
X156262520Y-78884586D01*
X156088642Y-78850000D01*
X155911358Y-78850000D01*
X155737480Y-78884586D01*
X155573690Y-78952430D01*
X155426283Y-79050924D01*
X155300924Y-79176283D01*
X155202430Y-79323690D01*
X155134586Y-79487480D01*
X155100000Y-79661358D01*
X155100000Y-79838642D01*
X155134586Y-80012520D01*
X155202430Y-80176310D01*
X155300924Y-80323717D01*
X155426283Y-80449076D01*
X155573690Y-80547570D01*
X155737480Y-80615414D01*
X155911358Y-80650000D01*
X156088642Y-80650000D01*
X156262520Y-80615414D01*
X156426310Y-80547570D01*
X156573717Y-80449076D01*
X156699076Y-80323717D01*
X156797570Y-80176310D01*
X156865414Y-80012520D01*
X156875000Y-79964327D01*
X156875000Y-81535673D01*
X156865414Y-81487480D01*
X156797570Y-81323690D01*
X156699076Y-81176283D01*
X156573717Y-81050924D01*
X156426310Y-80952430D01*
X156262520Y-80884586D01*
X156088642Y-80850000D01*
X155911358Y-80850000D01*
X155737480Y-80884586D01*
X155573690Y-80952430D01*
X155426283Y-81050924D01*
X155300924Y-81176283D01*
X155202430Y-81323690D01*
X155134586Y-81487480D01*
X155100000Y-81661358D01*
X155100000Y-81838642D01*
X155134586Y-82012520D01*
X155202430Y-82176310D01*
X155300924Y-82323717D01*
X155426283Y-82449076D01*
X155573690Y-82547570D01*
X155737480Y-82615414D01*
X155911358Y-82650000D01*
X156088642Y-82650000D01*
X156262520Y-82615414D01*
X156426310Y-82547570D01*
X156573717Y-82449076D01*
X156699076Y-82323717D01*
X156797570Y-82176310D01*
X156865414Y-82012520D01*
X156875000Y-81964327D01*
X156875000Y-83535673D01*
X156865414Y-83487480D01*
X156797570Y-83323690D01*
X156699076Y-83176283D01*
X156573717Y-83050924D01*
X156426310Y-82952430D01*
X156262520Y-82884586D01*
X156088642Y-82850000D01*
X155911358Y-82850000D01*
X155737480Y-82884586D01*
X155573690Y-82952430D01*
X155426283Y-83050924D01*
X155300924Y-83176283D01*
X155202430Y-83323690D01*
X155134586Y-83487480D01*
X155100000Y-83661358D01*
X155100000Y-83838642D01*
X155134586Y-84012520D01*
X155202430Y-84176310D01*
X155300924Y-84323717D01*
X155426283Y-84449076D01*
X155573690Y-84547570D01*
X155737480Y-84615414D01*
X155911358Y-84650000D01*
X156088642Y-84650000D01*
X156262520Y-84615414D01*
X156426310Y-84547570D01*
X156573717Y-84449076D01*
X156699076Y-84323717D01*
X156797570Y-84176310D01*
X156865414Y-84012520D01*
X156875000Y-83964327D01*
X156875000Y-85535673D01*
X156865414Y-85487480D01*
X156797570Y-85323690D01*
X156699076Y-85176283D01*
X156573717Y-85050924D01*
X156426310Y-84952430D01*
X156262520Y-84884586D01*
X156088642Y-84850000D01*
X155911358Y-84850000D01*
X155737480Y-84884586D01*
X155573690Y-84952430D01*
X155426283Y-85050924D01*
X155300924Y-85176283D01*
X155202430Y-85323690D01*
X155134586Y-85487480D01*
X155100000Y-85661358D01*
X155100000Y-85838642D01*
X155134586Y-86012520D01*
X155202430Y-86176310D01*
X155300924Y-86323717D01*
X155426283Y-86449076D01*
X155573690Y-86547570D01*
X155737480Y-86615414D01*
X155911358Y-86650000D01*
X156088642Y-86650000D01*
X156262520Y-86615414D01*
X156426310Y-86547570D01*
X156573717Y-86449076D01*
X156699076Y-86323717D01*
X156797570Y-86176310D01*
X156865414Y-86012520D01*
X156875000Y-85964327D01*
X156875000Y-87535673D01*
X156865414Y-87487480D01*
X156797570Y-87323690D01*
X156699076Y-87176283D01*
X156573717Y-87050924D01*
X156426310Y-86952430D01*
X156262520Y-86884586D01*
X156088642Y-86850000D01*
X155911358Y-86850000D01*
X155737480Y-86884586D01*
X155573690Y-86952430D01*
X155426283Y-87050924D01*
X155300924Y-87176283D01*
X155202430Y-87323690D01*
X155134586Y-87487480D01*
X155100000Y-87661358D01*
X155100000Y-87838642D01*
X155134586Y-88012520D01*
X155202430Y-88176310D01*
X155300924Y-88323717D01*
X155426283Y-88449076D01*
X155573690Y-88547570D01*
X155737480Y-88615414D01*
X155911358Y-88650000D01*
X156088642Y-88650000D01*
X156262520Y-88615414D01*
X156426310Y-88547570D01*
X156573717Y-88449076D01*
X156699076Y-88323717D01*
X156797570Y-88176310D01*
X156865414Y-88012520D01*
X156875000Y-87964327D01*
X156875000Y-89535673D01*
X156865414Y-89487480D01*
X156797570Y-89323690D01*
X156699076Y-89176283D01*
X156573717Y-89050924D01*
X156426310Y-88952430D01*
X156262520Y-88884586D01*
X156088642Y-88850000D01*
X155911358Y-88850000D01*
X155737480Y-88884586D01*
X155573690Y-88952430D01*
X155426283Y-89050924D01*
X155300924Y-89176283D01*
X155202430Y-89323690D01*
X155134586Y-89487480D01*
X155100000Y-89661358D01*
X155100000Y-89838642D01*
X155134586Y-90012520D01*
X155202430Y-90176310D01*
X155300924Y-90323717D01*
X155426283Y-90449076D01*
X155573690Y-90547570D01*
X155737480Y-90615414D01*
X155911358Y-90650000D01*
X156088642Y-90650000D01*
X156262520Y-90615414D01*
X156426310Y-90547570D01*
X156573717Y-90449076D01*
X156699076Y-90323717D01*
X156797570Y-90176310D01*
X156865414Y-90012520D01*
X156875000Y-89964327D01*
X156875000Y-92375000D01*
X135000000Y-92375000D01*
X134975614Y-92377402D01*
X134952165Y-92384515D01*
X134930554Y-92396066D01*
X134911612Y-92411612D01*
X132948224Y-94375000D01*
X128625000Y-94375000D01*
X128625000Y-70625000D01*
X132448224Y-70625000D01*
X135411612Y-73588388D01*
X135411612Y-73588388D01*
G37*
X135411612Y-73588388D02*
X135430554Y-73603934D01*
X135452165Y-73615485D01*
X135475614Y-73622598D01*
X135500000Y-73625000D01*
X137448224Y-73625000D01*
X139911612Y-76088388D01*
X139930554Y-76103934D01*
X139952165Y-76115485D01*
X139975614Y-76122598D01*
X140000000Y-76125000D01*
X155181177Y-76125000D01*
X155202430Y-76176310D01*
X155300924Y-76323717D01*
X155426283Y-76449076D01*
X155573690Y-76547570D01*
X155737480Y-76615414D01*
X155911358Y-76650000D01*
X156088642Y-76650000D01*
X156262520Y-76615414D01*
X156426310Y-76547570D01*
X156573717Y-76449076D01*
X156699076Y-76323717D01*
X156797570Y-76176310D01*
X156818823Y-76125000D01*
X156875000Y-76125000D01*
X156875000Y-77535673D01*
X156865414Y-77487480D01*
X156797570Y-77323690D01*
X156699076Y-77176283D01*
X156573717Y-77050924D01*
X156426310Y-76952430D01*
X156262520Y-76884586D01*
X156088642Y-76850000D01*
X155911358Y-76850000D01*
X155737480Y-76884586D01*
X155573690Y-76952430D01*
X155426283Y-77050924D01*
X155300924Y-77176283D01*
X155202430Y-77323690D01*
X155134586Y-77487480D01*
X155100000Y-77661358D01*
X155100000Y-77838642D01*
X155134586Y-78012520D01*
X155202430Y-78176310D01*
X155300924Y-78323717D01*
X155426283Y-78449076D01*
X155573690Y-78547570D01*
X155737480Y-78615414D01*
X155911358Y-78650000D01*
X156088642Y-78650000D01*
X156262520Y-78615414D01*
X156426310Y-78547570D01*
X156573717Y-78449076D01*
X156699076Y-78323717D01*
X156797570Y-78176310D01*
X156865414Y-78012520D01*
X156875000Y-77964327D01*
X156875000Y-79535673D01*
X156865414Y-79487480D01*
X156797570Y-79323690D01*
X156699076Y-79176283D01*
X156573717Y-79050924D01*
X156426310Y-78952430D01*
X156262520Y-78884586D01*
X156088642Y-78850000D01*
X155911358Y-78850000D01*
X155737480Y-78884586D01*
X155573690Y-78952430D01*
X155426283Y-79050924D01*
X155300924Y-79176283D01*
X155202430Y-79323690D01*
X155134586Y-79487480D01*
X155100000Y-79661358D01*
X155100000Y-79838642D01*
X155134586Y-80012520D01*
X155202430Y-80176310D01*
X155300924Y-80323717D01*
X155426283Y-80449076D01*
X155573690Y-80547570D01*
X155737480Y-80615414D01*
X155911358Y-80650000D01*
X156088642Y-80650000D01*
X156262520Y-80615414D01*
X156426310Y-80547570D01*
X156573717Y-80449076D01*
X156699076Y-80323717D01*
X156797570Y-80176310D01*
X156865414Y-80012520D01*
X156875000Y-79964327D01*
X156875000Y-81535673D01*
X156865414Y-81487480D01*
X156797570Y-81323690D01*
X156699076Y-81176283D01*
X156573717Y-81050924D01*
X156426310Y-80952430D01*
X156262520Y-80884586D01*
X156088642Y-80850000D01*
X155911358Y-80850000D01*
X155737480Y-80884586D01*
X155573690Y-80952430D01*
X155426283Y-81050924D01*
X155300924Y-81176283D01*
X155202430Y-81323690D01*
X155134586Y-81487480D01*
X155100000Y-81661358D01*
X155100000Y-81838642D01*
X155134586Y-82012520D01*
X155202430Y-82176310D01*
X155300924Y-82323717D01*
X155426283Y-82449076D01*
X155573690Y-82547570D01*
X155737480Y-82615414D01*
X155911358Y-82650000D01*
X156088642Y-82650000D01*
X156262520Y-82615414D01*
X156426310Y-82547570D01*
X156573717Y-82449076D01*
X156699076Y-82323717D01*
X156797570Y-82176310D01*
X156865414Y-82012520D01*
X156875000Y-81964327D01*
X156875000Y-83535673D01*
X156865414Y-83487480D01*
X156797570Y-83323690D01*
X156699076Y-83176283D01*
X156573717Y-83050924D01*
X156426310Y-82952430D01*
X156262520Y-82884586D01*
X156088642Y-82850000D01*
X155911358Y-82850000D01*
X155737480Y-82884586D01*
X155573690Y-82952430D01*
X155426283Y-83050924D01*
X155300924Y-83176283D01*
X155202430Y-83323690D01*
X155134586Y-83487480D01*
X155100000Y-83661358D01*
X155100000Y-83838642D01*
X155134586Y-84012520D01*
X155202430Y-84176310D01*
X155300924Y-84323717D01*
X155426283Y-84449076D01*
X155573690Y-84547570D01*
X155737480Y-84615414D01*
X155911358Y-84650000D01*
X156088642Y-84650000D01*
X156262520Y-84615414D01*
X156426310Y-84547570D01*
X156573717Y-84449076D01*
X156699076Y-84323717D01*
X156797570Y-84176310D01*
X156865414Y-84012520D01*
X156875000Y-83964327D01*
X156875000Y-85535673D01*
X156865414Y-85487480D01*
X156797570Y-85323690D01*
X156699076Y-85176283D01*
X156573717Y-85050924D01*
X156426310Y-84952430D01*
X156262520Y-84884586D01*
X156088642Y-84850000D01*
X155911358Y-84850000D01*
X155737480Y-84884586D01*
X155573690Y-84952430D01*
X155426283Y-85050924D01*
X155300924Y-85176283D01*
X155202430Y-85323690D01*
X155134586Y-85487480D01*
X155100000Y-85661358D01*
X155100000Y-85838642D01*
X155134586Y-86012520D01*
X155202430Y-86176310D01*
X155300924Y-86323717D01*
X155426283Y-86449076D01*
X155573690Y-86547570D01*
X155737480Y-86615414D01*
X155911358Y-86650000D01*
X156088642Y-86650000D01*
X156262520Y-86615414D01*
X156426310Y-86547570D01*
X156573717Y-86449076D01*
X156699076Y-86323717D01*
X156797570Y-86176310D01*
X156865414Y-86012520D01*
X156875000Y-85964327D01*
X156875000Y-87535673D01*
X156865414Y-87487480D01*
X156797570Y-87323690D01*
X156699076Y-87176283D01*
X156573717Y-87050924D01*
X156426310Y-86952430D01*
X156262520Y-86884586D01*
X156088642Y-86850000D01*
X155911358Y-86850000D01*
X155737480Y-86884586D01*
X155573690Y-86952430D01*
X155426283Y-87050924D01*
X155300924Y-87176283D01*
X155202430Y-87323690D01*
X155134586Y-87487480D01*
X155100000Y-87661358D01*
X155100000Y-87838642D01*
X155134586Y-88012520D01*
X155202430Y-88176310D01*
X155300924Y-88323717D01*
X155426283Y-88449076D01*
X155573690Y-88547570D01*
X155737480Y-88615414D01*
X155911358Y-88650000D01*
X156088642Y-88650000D01*
X156262520Y-88615414D01*
X156426310Y-88547570D01*
X156573717Y-88449076D01*
X156699076Y-88323717D01*
X156797570Y-88176310D01*
X156865414Y-88012520D01*
X156875000Y-87964327D01*
X156875000Y-89535673D01*
X156865414Y-89487480D01*
X156797570Y-89323690D01*
X156699076Y-89176283D01*
X156573717Y-89050924D01*
X156426310Y-88952430D01*
X156262520Y-88884586D01*
X156088642Y-88850000D01*
X155911358Y-88850000D01*
X155737480Y-88884586D01*
X155573690Y-88952430D01*
X155426283Y-89050924D01*
X155300924Y-89176283D01*
X155202430Y-89323690D01*
X155134586Y-89487480D01*
X155100000Y-89661358D01*
X155100000Y-89838642D01*
X155134586Y-90012520D01*
X155202430Y-90176310D01*
X155300924Y-90323717D01*
X155426283Y-90449076D01*
X155573690Y-90547570D01*
X155737480Y-90615414D01*
X155911358Y-90650000D01*
X156088642Y-90650000D01*
X156262520Y-90615414D01*
X156426310Y-90547570D01*
X156573717Y-90449076D01*
X156699076Y-90323717D01*
X156797570Y-90176310D01*
X156865414Y-90012520D01*
X156875000Y-89964327D01*
X156875000Y-92375000D01*
X135000000Y-92375000D01*
X134975614Y-92377402D01*
X134952165Y-92384515D01*
X134930554Y-92396066D01*
X134911612Y-92411612D01*
X132948224Y-94375000D01*
X128625000Y-94375000D01*
X128625000Y-70625000D01*
X132448224Y-70625000D01*
X135411612Y-73588388D01*
G36*
X118375000Y-56551776D02*
G01*
X118375000Y-57416418D01*
X118225170Y-57696730D01*
X118089365Y-58144420D01*
X118055000Y-58493332D01*
X118055000Y-60726669D01*
X118089365Y-61075581D01*
X118225170Y-61523271D01*
X118375000Y-61803582D01*
X118375000Y-67948224D01*
X114948224Y-71375000D01*
X110875000Y-71375000D01*
X110875000Y-70165474D01*
X110966395Y-69944826D01*
X111025000Y-69650199D01*
X111025000Y-69349801D01*
X110966395Y-69055174D01*
X110851438Y-68777642D01*
X110684545Y-68527869D01*
X110472131Y-68315455D01*
X110222358Y-68148562D01*
X109944826Y-68033605D01*
X109650199Y-67975000D01*
X109349801Y-67975000D01*
X109055174Y-68033605D01*
X108777642Y-68148562D01*
X108527869Y-68315455D01*
X108315455Y-68527869D01*
X108148562Y-68777642D01*
X108033605Y-69055174D01*
X107975000Y-69349801D01*
X107975000Y-69650199D01*
X108033605Y-69944826D01*
X108125000Y-70165474D01*
X108125000Y-71375000D01*
X106500000Y-71375000D01*
X106475614Y-71377402D01*
X106452165Y-71384515D01*
X106430554Y-71396066D01*
X106411612Y-71411612D01*
X102448224Y-75375000D01*
X102000000Y-75375000D01*
X101780523Y-75396617D01*
X101569481Y-75460636D01*
X101374983Y-75564597D01*
X101204505Y-75704505D01*
X101064597Y-75874983D01*
X100960636Y-76069481D01*
X100896617Y-76280523D01*
X100875000Y-76500000D01*
X100875000Y-79937500D01*
X100291667Y-80375000D01*
X96551776Y-80375000D01*
X94625000Y-78448224D01*
X94625000Y-66500000D01*
X94622598Y-66475614D01*
X94615485Y-66452165D01*
X94603934Y-66430554D01*
X94588388Y-66411612D01*
X91125000Y-62948224D01*
X91125000Y-58383332D01*
X96575000Y-58383332D01*
X96575000Y-60616669D01*
X96609365Y-60965581D01*
X96745170Y-61413271D01*
X96965706Y-61825863D01*
X97262497Y-62187504D01*
X97624138Y-62484295D01*
X98036730Y-62704830D01*
X98484420Y-62840635D01*
X98950000Y-62886491D01*
X99415581Y-62840635D01*
X99863271Y-62704830D01*
X100275863Y-62484295D01*
X100637504Y-62187504D01*
X100934295Y-61825863D01*
X101154830Y-61413271D01*
X101290635Y-60965581D01*
X101325000Y-60616669D01*
X101325000Y-58383332D01*
X102025000Y-58383332D01*
X102025000Y-60616669D01*
X102059365Y-60965581D01*
X102195170Y-61413271D01*
X102415706Y-61825863D01*
X102712497Y-62187504D01*
X103074138Y-62484295D01*
X103486730Y-62704830D01*
X103934420Y-62840635D01*
X104400000Y-62886491D01*
X104865581Y-62840635D01*
X105313271Y-62704830D01*
X105725863Y-62484295D01*
X106087504Y-62187504D01*
X106384295Y-61825863D01*
X106604830Y-61413271D01*
X106740635Y-60965581D01*
X106775000Y-60616669D01*
X106775000Y-58383331D01*
X106740635Y-58034419D01*
X106604830Y-57586729D01*
X106384295Y-57174137D01*
X106087504Y-56812496D01*
X105725862Y-56515705D01*
X105313270Y-56295170D01*
X104865580Y-56159365D01*
X104400000Y-56113509D01*
X103934419Y-56159365D01*
X103486729Y-56295170D01*
X103074137Y-56515705D01*
X102712496Y-56812496D01*
X102415705Y-57174138D01*
X102195170Y-57586730D01*
X102059365Y-58034420D01*
X102025000Y-58383332D01*
X101325000Y-58383332D01*
X101325000Y-58383331D01*
X101290635Y-58034419D01*
X101154830Y-57586729D01*
X100934295Y-57174137D01*
X100637504Y-56812496D01*
X100275862Y-56515705D01*
X99863270Y-56295170D01*
X99415580Y-56159365D01*
X98950000Y-56113509D01*
X98484419Y-56159365D01*
X98036729Y-56295170D01*
X97624137Y-56515705D01*
X97262496Y-56812496D01*
X96965705Y-57174138D01*
X96745170Y-57586730D01*
X96609365Y-58034420D01*
X96575000Y-58383332D01*
X91125000Y-58383332D01*
X91125000Y-56543848D01*
X93060079Y-54125000D01*
X115948224Y-54125000D01*
X118375000Y-56551776D01*
X118375000Y-56551776D01*
G37*
X118375000Y-56551776D02*
X118375000Y-57416418D01*
X118225170Y-57696730D01*
X118089365Y-58144420D01*
X118055000Y-58493332D01*
X118055000Y-60726669D01*
X118089365Y-61075581D01*
X118225170Y-61523271D01*
X118375000Y-61803582D01*
X118375000Y-67948224D01*
X114948224Y-71375000D01*
X110875000Y-71375000D01*
X110875000Y-70165474D01*
X110966395Y-69944826D01*
X111025000Y-69650199D01*
X111025000Y-69349801D01*
X110966395Y-69055174D01*
X110851438Y-68777642D01*
X110684545Y-68527869D01*
X110472131Y-68315455D01*
X110222358Y-68148562D01*
X109944826Y-68033605D01*
X109650199Y-67975000D01*
X109349801Y-67975000D01*
X109055174Y-68033605D01*
X108777642Y-68148562D01*
X108527869Y-68315455D01*
X108315455Y-68527869D01*
X108148562Y-68777642D01*
X108033605Y-69055174D01*
X107975000Y-69349801D01*
X107975000Y-69650199D01*
X108033605Y-69944826D01*
X108125000Y-70165474D01*
X108125000Y-71375000D01*
X106500000Y-71375000D01*
X106475614Y-71377402D01*
X106452165Y-71384515D01*
X106430554Y-71396066D01*
X106411612Y-71411612D01*
X102448224Y-75375000D01*
X102000000Y-75375000D01*
X101780523Y-75396617D01*
X101569481Y-75460636D01*
X101374983Y-75564597D01*
X101204505Y-75704505D01*
X101064597Y-75874983D01*
X100960636Y-76069481D01*
X100896617Y-76280523D01*
X100875000Y-76500000D01*
X100875000Y-79937500D01*
X100291667Y-80375000D01*
X96551776Y-80375000D01*
X94625000Y-78448224D01*
X94625000Y-66500000D01*
X94622598Y-66475614D01*
X94615485Y-66452165D01*
X94603934Y-66430554D01*
X94588388Y-66411612D01*
X91125000Y-62948224D01*
X91125000Y-58383332D01*
X96575000Y-58383332D01*
X96575000Y-60616669D01*
X96609365Y-60965581D01*
X96745170Y-61413271D01*
X96965706Y-61825863D01*
X97262497Y-62187504D01*
X97624138Y-62484295D01*
X98036730Y-62704830D01*
X98484420Y-62840635D01*
X98950000Y-62886491D01*
X99415581Y-62840635D01*
X99863271Y-62704830D01*
X100275863Y-62484295D01*
X100637504Y-62187504D01*
X100934295Y-61825863D01*
X101154830Y-61413271D01*
X101290635Y-60965581D01*
X101325000Y-60616669D01*
X101325000Y-58383332D01*
X102025000Y-58383332D01*
X102025000Y-60616669D01*
X102059365Y-60965581D01*
X102195170Y-61413271D01*
X102415706Y-61825863D01*
X102712497Y-62187504D01*
X103074138Y-62484295D01*
X103486730Y-62704830D01*
X103934420Y-62840635D01*
X104400000Y-62886491D01*
X104865581Y-62840635D01*
X105313271Y-62704830D01*
X105725863Y-62484295D01*
X106087504Y-62187504D01*
X106384295Y-61825863D01*
X106604830Y-61413271D01*
X106740635Y-60965581D01*
X106775000Y-60616669D01*
X106775000Y-58383331D01*
X106740635Y-58034419D01*
X106604830Y-57586729D01*
X106384295Y-57174137D01*
X106087504Y-56812496D01*
X105725862Y-56515705D01*
X105313270Y-56295170D01*
X104865580Y-56159365D01*
X104400000Y-56113509D01*
X103934419Y-56159365D01*
X103486729Y-56295170D01*
X103074137Y-56515705D01*
X102712496Y-56812496D01*
X102415705Y-57174138D01*
X102195170Y-57586730D01*
X102059365Y-58034420D01*
X102025000Y-58383332D01*
X101325000Y-58383332D01*
X101325000Y-58383331D01*
X101290635Y-58034419D01*
X101154830Y-57586729D01*
X100934295Y-57174137D01*
X100637504Y-56812496D01*
X100275862Y-56515705D01*
X99863270Y-56295170D01*
X99415580Y-56159365D01*
X98950000Y-56113509D01*
X98484419Y-56159365D01*
X98036729Y-56295170D01*
X97624137Y-56515705D01*
X97262496Y-56812496D01*
X96965705Y-57174138D01*
X96745170Y-57586730D01*
X96609365Y-58034420D01*
X96575000Y-58383332D01*
X91125000Y-58383332D01*
X91125000Y-56543848D01*
X93060079Y-54125000D01*
X115948224Y-54125000D01*
X118375000Y-56551776D01*
G36*
X103469557Y-78400000D02*
G01*
X103491278Y-78620538D01*
X103555607Y-78832602D01*
X103660071Y-79028040D01*
X103800656Y-79199344D01*
X103971960Y-79339929D01*
X104167398Y-79444393D01*
X104311256Y-79488032D01*
X104375000Y-79551776D01*
X104375000Y-86266488D01*
X104007858Y-86070247D01*
X103494193Y-85914428D01*
X103093871Y-85875000D01*
X102826129Y-85875000D01*
X102425807Y-85914428D01*
X101912142Y-86070247D01*
X101438746Y-86323282D01*
X101023811Y-86663811D01*
X100683282Y-87078746D01*
X100430247Y-87552142D01*
X100274428Y-88065807D01*
X100221815Y-88600000D01*
X100274428Y-89134193D01*
X100430247Y-89647858D01*
X100683282Y-90121254D01*
X101023811Y-90536189D01*
X101438746Y-90876718D01*
X101912142Y-91129753D01*
X102425807Y-91285572D01*
X102826129Y-91325000D01*
X103093871Y-91325000D01*
X103494193Y-91285572D01*
X104007858Y-91129753D01*
X104375000Y-90933512D01*
X104375000Y-90948224D01*
X102411612Y-92911612D01*
X102396066Y-92930554D01*
X102384515Y-92952165D01*
X102377402Y-92975614D01*
X102375000Y-93000000D01*
X102375000Y-96275000D01*
X97548718Y-96275000D01*
X97526518Y-94121601D01*
X97542165Y-94117674D01*
X97564312Y-94107187D01*
X97588388Y-94088388D01*
X98088388Y-93588388D01*
X98103934Y-93569446D01*
X98115485Y-93547835D01*
X98122598Y-93524386D01*
X98125000Y-93500000D01*
X98125000Y-92891765D01*
X98222358Y-92851438D01*
X98472131Y-92684545D01*
X98684545Y-92472131D01*
X98851438Y-92222358D01*
X98966395Y-91944826D01*
X99025000Y-91650199D01*
X99025000Y-91349801D01*
X98966395Y-91055174D01*
X98851438Y-90777642D01*
X98684545Y-90527869D01*
X98472131Y-90315455D01*
X98222358Y-90148562D01*
X98125000Y-90108235D01*
X98125000Y-85551776D01*
X100088388Y-83588388D01*
X100103934Y-83569446D01*
X100115485Y-83547835D01*
X100122598Y-83524386D01*
X100125000Y-83500000D01*
X100125000Y-82062500D01*
X102075000Y-80600000D01*
X102093068Y-80583447D01*
X102107559Y-80563687D01*
X102117917Y-80541479D01*
X102123744Y-80517678D01*
X102125000Y-80500000D01*
X102125000Y-78605914D01*
X102299908Y-78278683D01*
X102415700Y-77896969D01*
X102454798Y-77500000D01*
X102415700Y-77103031D01*
X102299908Y-76721317D01*
X102248426Y-76625000D01*
X103469557Y-76625000D01*
X103469557Y-78400000D01*
X103469557Y-78400000D01*
G37*
X103469557Y-78400000D02*
X103491278Y-78620538D01*
X103555607Y-78832602D01*
X103660071Y-79028040D01*
X103800656Y-79199344D01*
X103971960Y-79339929D01*
X104167398Y-79444393D01*
X104311256Y-79488032D01*
X104375000Y-79551776D01*
X104375000Y-86266488D01*
X104007858Y-86070247D01*
X103494193Y-85914428D01*
X103093871Y-85875000D01*
X102826129Y-85875000D01*
X102425807Y-85914428D01*
X101912142Y-86070247D01*
X101438746Y-86323282D01*
X101023811Y-86663811D01*
X100683282Y-87078746D01*
X100430247Y-87552142D01*
X100274428Y-88065807D01*
X100221815Y-88600000D01*
X100274428Y-89134193D01*
X100430247Y-89647858D01*
X100683282Y-90121254D01*
X101023811Y-90536189D01*
X101438746Y-90876718D01*
X101912142Y-91129753D01*
X102425807Y-91285572D01*
X102826129Y-91325000D01*
X103093871Y-91325000D01*
X103494193Y-91285572D01*
X104007858Y-91129753D01*
X104375000Y-90933512D01*
X104375000Y-90948224D01*
X102411612Y-92911612D01*
X102396066Y-92930554D01*
X102384515Y-92952165D01*
X102377402Y-92975614D01*
X102375000Y-93000000D01*
X102375000Y-96275000D01*
X97548718Y-96275000D01*
X97526518Y-94121601D01*
X97542165Y-94117674D01*
X97564312Y-94107187D01*
X97588388Y-94088388D01*
X98088388Y-93588388D01*
X98103934Y-93569446D01*
X98115485Y-93547835D01*
X98122598Y-93524386D01*
X98125000Y-93500000D01*
X98125000Y-92891765D01*
X98222358Y-92851438D01*
X98472131Y-92684545D01*
X98684545Y-92472131D01*
X98851438Y-92222358D01*
X98966395Y-91944826D01*
X99025000Y-91650199D01*
X99025000Y-91349801D01*
X98966395Y-91055174D01*
X98851438Y-90777642D01*
X98684545Y-90527869D01*
X98472131Y-90315455D01*
X98222358Y-90148562D01*
X98125000Y-90108235D01*
X98125000Y-85551776D01*
X100088388Y-83588388D01*
X100103934Y-83569446D01*
X100115485Y-83547835D01*
X100122598Y-83524386D01*
X100125000Y-83500000D01*
X100125000Y-82062500D01*
X102075000Y-80600000D01*
X102093068Y-80583447D01*
X102107559Y-80563687D01*
X102117917Y-80541479D01*
X102123744Y-80517678D01*
X102125000Y-80500000D01*
X102125000Y-78605914D01*
X102299908Y-78278683D01*
X102415700Y-77896969D01*
X102454798Y-77500000D01*
X102415700Y-77103031D01*
X102299908Y-76721317D01*
X102248426Y-76625000D01*
X103469557Y-76625000D01*
X103469557Y-78400000D01*
G36*
X95373690Y-94197570D02*
G01*
X95537480Y-94265414D01*
X95711358Y-94300000D01*
X95888642Y-94300000D01*
X96062520Y-94265414D01*
X96226310Y-94197570D01*
X96334919Y-94125000D01*
X102275000Y-94125000D01*
X102275000Y-96951674D01*
X101776522Y-97500000D01*
X101711358Y-97500000D01*
X101537480Y-97534586D01*
X101373690Y-97602430D01*
X101226283Y-97700924D01*
X101100924Y-97826283D01*
X101002430Y-97973690D01*
X100934586Y-98137480D01*
X100922020Y-98200653D01*
X100762520Y-98134586D01*
X100588642Y-98100000D01*
X100411358Y-98100000D01*
X100237480Y-98134586D01*
X100073690Y-98202430D01*
X99926283Y-98300924D01*
X99800924Y-98426283D01*
X99750000Y-98502496D01*
X99699076Y-98426283D01*
X99573717Y-98300924D01*
X99426310Y-98202430D01*
X99262520Y-98134586D01*
X99088642Y-98100000D01*
X98911358Y-98100000D01*
X98737480Y-98134586D01*
X98573690Y-98202430D01*
X98426283Y-98300924D01*
X98300924Y-98426283D01*
X98202430Y-98573690D01*
X98134586Y-98737480D01*
X98100000Y-98911358D01*
X98100000Y-99082348D01*
X84749601Y-99125001D01*
X84725222Y-99127480D01*
X84701796Y-99134668D01*
X84680222Y-99146289D01*
X84661330Y-99161894D01*
X84645845Y-99180886D01*
X84634363Y-99202534D01*
X84627325Y-99226006D01*
X84625000Y-99250000D01*
X84625000Y-100035673D01*
X84600000Y-100161358D01*
X84600000Y-100338642D01*
X84625000Y-100464327D01*
X84625000Y-102535673D01*
X84600000Y-102661358D01*
X84600000Y-102838642D01*
X84625000Y-102964327D01*
X84625000Y-105125000D01*
X83551776Y-105125000D01*
X78375000Y-99948224D01*
X78375000Y-99714327D01*
X78400000Y-99588642D01*
X78400000Y-99411358D01*
X78375000Y-99285673D01*
X78375000Y-97111358D01*
X84500000Y-97111358D01*
X84500000Y-97288642D01*
X84534586Y-97462520D01*
X84602430Y-97626310D01*
X84700924Y-97773717D01*
X84826283Y-97899076D01*
X84973690Y-97997570D01*
X85137480Y-98065414D01*
X85311358Y-98100000D01*
X85488642Y-98100000D01*
X85662520Y-98065414D01*
X85826310Y-97997570D01*
X85973717Y-97899076D01*
X86099076Y-97773717D01*
X86197570Y-97626310D01*
X86265414Y-97462520D01*
X86300000Y-97288642D01*
X86300000Y-97111358D01*
X86700000Y-97111358D01*
X86700000Y-97288642D01*
X86734586Y-97462520D01*
X86802430Y-97626310D01*
X86900924Y-97773717D01*
X87026283Y-97899076D01*
X87173690Y-97997570D01*
X87337480Y-98065414D01*
X87511358Y-98100000D01*
X87688642Y-98100000D01*
X87862520Y-98065414D01*
X88026310Y-97997570D01*
X88173717Y-97899076D01*
X88299076Y-97773717D01*
X88397570Y-97626310D01*
X88465414Y-97462520D01*
X88500000Y-97288642D01*
X88500000Y-97111358D01*
X89100000Y-97111358D01*
X89100000Y-97288642D01*
X89134586Y-97462520D01*
X89202430Y-97626310D01*
X89300924Y-97773717D01*
X89426283Y-97899076D01*
X89573690Y-97997570D01*
X89737480Y-98065414D01*
X89911358Y-98100000D01*
X90088642Y-98100000D01*
X90262520Y-98065414D01*
X90426310Y-97997570D01*
X90573717Y-97899076D01*
X90699076Y-97773717D01*
X90797570Y-97626310D01*
X90865414Y-97462520D01*
X90900000Y-97288642D01*
X90900000Y-97111358D01*
X91300000Y-97111358D01*
X91300000Y-97288642D01*
X91334586Y-97462520D01*
X91402430Y-97626310D01*
X91500924Y-97773717D01*
X91626283Y-97899076D01*
X91773690Y-97997570D01*
X91937480Y-98065414D01*
X92111358Y-98100000D01*
X92288642Y-98100000D01*
X92462520Y-98065414D01*
X92626310Y-97997570D01*
X92773717Y-97899076D01*
X92899076Y-97773717D01*
X92997570Y-97626310D01*
X93065414Y-97462520D01*
X93100000Y-97288642D01*
X93100000Y-97111358D01*
X93700000Y-97111358D01*
X93700000Y-97288642D01*
X93734586Y-97462520D01*
X93802430Y-97626310D01*
X93900924Y-97773717D01*
X94026283Y-97899076D01*
X94173690Y-97997570D01*
X94337480Y-98065414D01*
X94511358Y-98100000D01*
X94688642Y-98100000D01*
X94862520Y-98065414D01*
X95026310Y-97997570D01*
X95173717Y-97899076D01*
X95299076Y-97773717D01*
X95397570Y-97626310D01*
X95465414Y-97462520D01*
X95500000Y-97288642D01*
X95500000Y-97111358D01*
X95465414Y-96937480D01*
X95397570Y-96773690D01*
X95299076Y-96626283D01*
X95173717Y-96500924D01*
X95026310Y-96402430D01*
X94862520Y-96334586D01*
X94688642Y-96300000D01*
X94511358Y-96300000D01*
X94337480Y-96334586D01*
X94173690Y-96402430D01*
X94026283Y-96500924D01*
X93900924Y-96626283D01*
X93802430Y-96773690D01*
X93734586Y-96937480D01*
X93700000Y-97111358D01*
X93100000Y-97111358D01*
X93065414Y-96937480D01*
X92997570Y-96773690D01*
X92899076Y-96626283D01*
X92773717Y-96500924D01*
X92626310Y-96402430D01*
X92462520Y-96334586D01*
X92288642Y-96300000D01*
X92111358Y-96300000D01*
X91937480Y-96334586D01*
X91773690Y-96402430D01*
X91626283Y-96500924D01*
X91500924Y-96626283D01*
X91402430Y-96773690D01*
X91334586Y-96937480D01*
X91300000Y-97111358D01*
X90900000Y-97111358D01*
X90865414Y-96937480D01*
X90797570Y-96773690D01*
X90699076Y-96626283D01*
X90573717Y-96500924D01*
X90426310Y-96402430D01*
X90262520Y-96334586D01*
X90088642Y-96300000D01*
X89911358Y-96300000D01*
X89737480Y-96334586D01*
X89573690Y-96402430D01*
X89426283Y-96500924D01*
X89300924Y-96626283D01*
X89202430Y-96773690D01*
X89134586Y-96937480D01*
X89100000Y-97111358D01*
X88500000Y-97111358D01*
X88465414Y-96937480D01*
X88397570Y-96773690D01*
X88299076Y-96626283D01*
X88173717Y-96500924D01*
X88026310Y-96402430D01*
X87862520Y-96334586D01*
X87688642Y-96300000D01*
X87511358Y-96300000D01*
X87337480Y-96334586D01*
X87173690Y-96402430D01*
X87026283Y-96500924D01*
X86900924Y-96626283D01*
X86802430Y-96773690D01*
X86734586Y-96937480D01*
X86700000Y-97111358D01*
X86300000Y-97111358D01*
X86265414Y-96937480D01*
X86197570Y-96773690D01*
X86099076Y-96626283D01*
X85973717Y-96500924D01*
X85826310Y-96402430D01*
X85662520Y-96334586D01*
X85488642Y-96300000D01*
X85311358Y-96300000D01*
X85137480Y-96334586D01*
X84973690Y-96402430D01*
X84826283Y-96500924D01*
X84700924Y-96626283D01*
X84602430Y-96773690D01*
X84534586Y-96937480D01*
X84500000Y-97111358D01*
X78375000Y-97111358D01*
X78375000Y-94125000D01*
X95265081Y-94125000D01*
X95373690Y-94197570D01*
X95373690Y-94197570D01*
G37*
X95373690Y-94197570D02*
X95537480Y-94265414D01*
X95711358Y-94300000D01*
X95888642Y-94300000D01*
X96062520Y-94265414D01*
X96226310Y-94197570D01*
X96334919Y-94125000D01*
X102275000Y-94125000D01*
X102275000Y-96951674D01*
X101776522Y-97500000D01*
X101711358Y-97500000D01*
X101537480Y-97534586D01*
X101373690Y-97602430D01*
X101226283Y-97700924D01*
X101100924Y-97826283D01*
X101002430Y-97973690D01*
X100934586Y-98137480D01*
X100922020Y-98200653D01*
X100762520Y-98134586D01*
X100588642Y-98100000D01*
X100411358Y-98100000D01*
X100237480Y-98134586D01*
X100073690Y-98202430D01*
X99926283Y-98300924D01*
X99800924Y-98426283D01*
X99750000Y-98502496D01*
X99699076Y-98426283D01*
X99573717Y-98300924D01*
X99426310Y-98202430D01*
X99262520Y-98134586D01*
X99088642Y-98100000D01*
X98911358Y-98100000D01*
X98737480Y-98134586D01*
X98573690Y-98202430D01*
X98426283Y-98300924D01*
X98300924Y-98426283D01*
X98202430Y-98573690D01*
X98134586Y-98737480D01*
X98100000Y-98911358D01*
X98100000Y-99082348D01*
X84749601Y-99125001D01*
X84725222Y-99127480D01*
X84701796Y-99134668D01*
X84680222Y-99146289D01*
X84661330Y-99161894D01*
X84645845Y-99180886D01*
X84634363Y-99202534D01*
X84627325Y-99226006D01*
X84625000Y-99250000D01*
X84625000Y-100035673D01*
X84600000Y-100161358D01*
X84600000Y-100338642D01*
X84625000Y-100464327D01*
X84625000Y-102535673D01*
X84600000Y-102661358D01*
X84600000Y-102838642D01*
X84625000Y-102964327D01*
X84625000Y-105125000D01*
X83551776Y-105125000D01*
X78375000Y-99948224D01*
X78375000Y-99714327D01*
X78400000Y-99588642D01*
X78400000Y-99411358D01*
X78375000Y-99285673D01*
X78375000Y-97111358D01*
X84500000Y-97111358D01*
X84500000Y-97288642D01*
X84534586Y-97462520D01*
X84602430Y-97626310D01*
X84700924Y-97773717D01*
X84826283Y-97899076D01*
X84973690Y-97997570D01*
X85137480Y-98065414D01*
X85311358Y-98100000D01*
X85488642Y-98100000D01*
X85662520Y-98065414D01*
X85826310Y-97997570D01*
X85973717Y-97899076D01*
X86099076Y-97773717D01*
X86197570Y-97626310D01*
X86265414Y-97462520D01*
X86300000Y-97288642D01*
X86300000Y-97111358D01*
X86700000Y-97111358D01*
X86700000Y-97288642D01*
X86734586Y-97462520D01*
X86802430Y-97626310D01*
X86900924Y-97773717D01*
X87026283Y-97899076D01*
X87173690Y-97997570D01*
X87337480Y-98065414D01*
X87511358Y-98100000D01*
X87688642Y-98100000D01*
X87862520Y-98065414D01*
X88026310Y-97997570D01*
X88173717Y-97899076D01*
X88299076Y-97773717D01*
X88397570Y-97626310D01*
X88465414Y-97462520D01*
X88500000Y-97288642D01*
X88500000Y-97111358D01*
X89100000Y-97111358D01*
X89100000Y-97288642D01*
X89134586Y-97462520D01*
X89202430Y-97626310D01*
X89300924Y-97773717D01*
X89426283Y-97899076D01*
X89573690Y-97997570D01*
X89737480Y-98065414D01*
X89911358Y-98100000D01*
X90088642Y-98100000D01*
X90262520Y-98065414D01*
X90426310Y-97997570D01*
X90573717Y-97899076D01*
X90699076Y-97773717D01*
X90797570Y-97626310D01*
X90865414Y-97462520D01*
X90900000Y-97288642D01*
X90900000Y-97111358D01*
X91300000Y-97111358D01*
X91300000Y-97288642D01*
X91334586Y-97462520D01*
X91402430Y-97626310D01*
X91500924Y-97773717D01*
X91626283Y-97899076D01*
X91773690Y-97997570D01*
X91937480Y-98065414D01*
X92111358Y-98100000D01*
X92288642Y-98100000D01*
X92462520Y-98065414D01*
X92626310Y-97997570D01*
X92773717Y-97899076D01*
X92899076Y-97773717D01*
X92997570Y-97626310D01*
X93065414Y-97462520D01*
X93100000Y-97288642D01*
X93100000Y-97111358D01*
X93700000Y-97111358D01*
X93700000Y-97288642D01*
X93734586Y-97462520D01*
X93802430Y-97626310D01*
X93900924Y-97773717D01*
X94026283Y-97899076D01*
X94173690Y-97997570D01*
X94337480Y-98065414D01*
X94511358Y-98100000D01*
X94688642Y-98100000D01*
X94862520Y-98065414D01*
X95026310Y-97997570D01*
X95173717Y-97899076D01*
X95299076Y-97773717D01*
X95397570Y-97626310D01*
X95465414Y-97462520D01*
X95500000Y-97288642D01*
X95500000Y-97111358D01*
X95465414Y-96937480D01*
X95397570Y-96773690D01*
X95299076Y-96626283D01*
X95173717Y-96500924D01*
X95026310Y-96402430D01*
X94862520Y-96334586D01*
X94688642Y-96300000D01*
X94511358Y-96300000D01*
X94337480Y-96334586D01*
X94173690Y-96402430D01*
X94026283Y-96500924D01*
X93900924Y-96626283D01*
X93802430Y-96773690D01*
X93734586Y-96937480D01*
X93700000Y-97111358D01*
X93100000Y-97111358D01*
X93065414Y-96937480D01*
X92997570Y-96773690D01*
X92899076Y-96626283D01*
X92773717Y-96500924D01*
X92626310Y-96402430D01*
X92462520Y-96334586D01*
X92288642Y-96300000D01*
X92111358Y-96300000D01*
X91937480Y-96334586D01*
X91773690Y-96402430D01*
X91626283Y-96500924D01*
X91500924Y-96626283D01*
X91402430Y-96773690D01*
X91334586Y-96937480D01*
X91300000Y-97111358D01*
X90900000Y-97111358D01*
X90865414Y-96937480D01*
X90797570Y-96773690D01*
X90699076Y-96626283D01*
X90573717Y-96500924D01*
X90426310Y-96402430D01*
X90262520Y-96334586D01*
X90088642Y-96300000D01*
X89911358Y-96300000D01*
X89737480Y-96334586D01*
X89573690Y-96402430D01*
X89426283Y-96500924D01*
X89300924Y-96626283D01*
X89202430Y-96773690D01*
X89134586Y-96937480D01*
X89100000Y-97111358D01*
X88500000Y-97111358D01*
X88465414Y-96937480D01*
X88397570Y-96773690D01*
X88299076Y-96626283D01*
X88173717Y-96500924D01*
X88026310Y-96402430D01*
X87862520Y-96334586D01*
X87688642Y-96300000D01*
X87511358Y-96300000D01*
X87337480Y-96334586D01*
X87173690Y-96402430D01*
X87026283Y-96500924D01*
X86900924Y-96626283D01*
X86802430Y-96773690D01*
X86734586Y-96937480D01*
X86700000Y-97111358D01*
X86300000Y-97111358D01*
X86265414Y-96937480D01*
X86197570Y-96773690D01*
X86099076Y-96626283D01*
X85973717Y-96500924D01*
X85826310Y-96402430D01*
X85662520Y-96334586D01*
X85488642Y-96300000D01*
X85311358Y-96300000D01*
X85137480Y-96334586D01*
X84973690Y-96402430D01*
X84826283Y-96500924D01*
X84700924Y-96626283D01*
X84602430Y-96773690D01*
X84534586Y-96937480D01*
X84500000Y-97111358D01*
X78375000Y-97111358D01*
X78375000Y-94125000D01*
X95265081Y-94125000D01*
X95373690Y-94197570D01*
G36*
X77875000Y-129448224D02*
G01*
X76948224Y-130375000D01*
X76125000Y-130375000D01*
X76125000Y-130000000D01*
X76122598Y-129975614D01*
X76115485Y-129952165D01*
X76103934Y-129930554D01*
X76088388Y-129911612D01*
X74125000Y-127948224D01*
X74125000Y-118250000D01*
X74122598Y-118225614D01*
X74115485Y-118202165D01*
X74103934Y-118180554D01*
X74088388Y-118161612D01*
X73588388Y-117661612D01*
X73569446Y-117646066D01*
X73547835Y-117634515D01*
X73524386Y-117627402D01*
X73500000Y-117625000D01*
X71125000Y-117625000D01*
X71125000Y-113875000D01*
X77875000Y-113875000D01*
X77875000Y-129448224D01*
X77875000Y-129448224D01*
G37*
X77875000Y-129448224D02*
X76948224Y-130375000D01*
X76125000Y-130375000D01*
X76125000Y-130000000D01*
X76122598Y-129975614D01*
X76115485Y-129952165D01*
X76103934Y-129930554D01*
X76088388Y-129911612D01*
X74125000Y-127948224D01*
X74125000Y-118250000D01*
X74122598Y-118225614D01*
X74115485Y-118202165D01*
X74103934Y-118180554D01*
X74088388Y-118161612D01*
X73588388Y-117661612D01*
X73569446Y-117646066D01*
X73547835Y-117634515D01*
X73524386Y-117627402D01*
X73500000Y-117625000D01*
X71125000Y-117625000D01*
X71125000Y-113875000D01*
X77875000Y-113875000D01*
X77875000Y-129448224D01*
G36*
X96558309Y-93235085D02*
G01*
X96458203Y-93359660D01*
X96385040Y-93500000D01*
X78250000Y-93500000D01*
X78152455Y-93509607D01*
X78058658Y-93538060D01*
X77972215Y-93584265D01*
X77896447Y-93646447D01*
X77834265Y-93722215D01*
X77788060Y-93808658D01*
X77759607Y-93902455D01*
X77750000Y-94000000D01*
X77750000Y-100000000D01*
X77759607Y-100097545D01*
X77788060Y-100191342D01*
X77834265Y-100277785D01*
X77896447Y-100353553D01*
X83146447Y-105603553D01*
X83222215Y-105665735D01*
X83308658Y-105711940D01*
X83402455Y-105740393D01*
X83500000Y-105750000D01*
X83616118Y-105750000D01*
X85286346Y-107420229D01*
X85305920Y-107444080D01*
X85329769Y-107463652D01*
X85401087Y-107522182D01*
X85401089Y-107522183D01*
X85509666Y-107580219D01*
X85627479Y-107615957D01*
X85719296Y-107625000D01*
X85719305Y-107625000D01*
X85749999Y-107628023D01*
X85780693Y-107625000D01*
X87602207Y-107625000D01*
X87676283Y-107699076D01*
X87823690Y-107797570D01*
X87987480Y-107865414D01*
X88161358Y-107900000D01*
X88338642Y-107900000D01*
X88512520Y-107865414D01*
X88676310Y-107797570D01*
X88823717Y-107699076D01*
X88949076Y-107573717D01*
X89047570Y-107426310D01*
X89115414Y-107262520D01*
X89150000Y-107088642D01*
X89150000Y-106911358D01*
X89115414Y-106737480D01*
X89047570Y-106573690D01*
X88949076Y-106426283D01*
X88823717Y-106300924D01*
X88676310Y-106202430D01*
X88512520Y-106134586D01*
X88338642Y-106100000D01*
X88161358Y-106100000D01*
X87987480Y-106134586D01*
X87823690Y-106202430D01*
X87676283Y-106300924D01*
X87602207Y-106375000D01*
X86008883Y-106375000D01*
X85163902Y-105530019D01*
X85165735Y-105527785D01*
X85211940Y-105441342D01*
X85240393Y-105347545D01*
X85250000Y-105250000D01*
X85250000Y-104311358D01*
X134700000Y-104311358D01*
X134700000Y-104488642D01*
X134734586Y-104662520D01*
X134802430Y-104826310D01*
X134900924Y-104973717D01*
X135026283Y-105099076D01*
X135173690Y-105197570D01*
X135337480Y-105265414D01*
X135511358Y-105300000D01*
X135688642Y-105300000D01*
X135862520Y-105265414D01*
X136026310Y-105197570D01*
X136097504Y-105150000D01*
X142889341Y-105150000D01*
X146050000Y-108310660D01*
X146050001Y-109102495D01*
X146002430Y-109173690D01*
X145934586Y-109337480D01*
X145900000Y-109511358D01*
X145900000Y-109688642D01*
X145934586Y-109862520D01*
X146002430Y-110026310D01*
X146100924Y-110173717D01*
X146226283Y-110299076D01*
X146373690Y-110397570D01*
X146537480Y-110465414D01*
X146711358Y-110500000D01*
X146888642Y-110500000D01*
X147062520Y-110465414D01*
X147226310Y-110397570D01*
X147373717Y-110299076D01*
X147499076Y-110173717D01*
X147597570Y-110026310D01*
X147665414Y-109862520D01*
X147700000Y-109688642D01*
X147700000Y-109511358D01*
X147665414Y-109337480D01*
X147597570Y-109173690D01*
X147550000Y-109102496D01*
X147550000Y-108036828D01*
X147553627Y-108000000D01*
X147550000Y-107963172D01*
X147550000Y-107963165D01*
X147539147Y-107852974D01*
X147496261Y-107711599D01*
X147426619Y-107581307D01*
X147332895Y-107467105D01*
X147304287Y-107443627D01*
X143756379Y-103895720D01*
X143732895Y-103867105D01*
X143618693Y-103773381D01*
X143488401Y-103703739D01*
X143347026Y-103660853D01*
X143236835Y-103650000D01*
X143236827Y-103650000D01*
X143200000Y-103646373D01*
X143163173Y-103650000D01*
X136097504Y-103650000D01*
X136026310Y-103602430D01*
X135862520Y-103534586D01*
X135688642Y-103500000D01*
X135511358Y-103500000D01*
X135337480Y-103534586D01*
X135173690Y-103602430D01*
X135026283Y-103700924D01*
X134900924Y-103826283D01*
X134802430Y-103973690D01*
X134734586Y-104137480D01*
X134700000Y-104311358D01*
X85250000Y-104311358D01*
X85250000Y-102161358D01*
X87600000Y-102161358D01*
X87600000Y-102338642D01*
X87634586Y-102512520D01*
X87702430Y-102676310D01*
X87751668Y-102750000D01*
X87702430Y-102823690D01*
X87634586Y-102987480D01*
X87600000Y-103161358D01*
X87600000Y-103338642D01*
X87634586Y-103512520D01*
X87702430Y-103676310D01*
X87800924Y-103823717D01*
X87926283Y-103949076D01*
X88073690Y-104047570D01*
X88237480Y-104115414D01*
X88411358Y-104150000D01*
X88588642Y-104150000D01*
X88762520Y-104115414D01*
X88926310Y-104047570D01*
X89073717Y-103949076D01*
X89199076Y-103823717D01*
X89297570Y-103676310D01*
X89365414Y-103512520D01*
X89400000Y-103338642D01*
X89400000Y-103161358D01*
X89365414Y-102987480D01*
X89297570Y-102823690D01*
X89248332Y-102750000D01*
X89297570Y-102676310D01*
X89365414Y-102512520D01*
X89400000Y-102338642D01*
X89400000Y-102161358D01*
X89365414Y-101987480D01*
X89297570Y-101823690D01*
X89248076Y-101749617D01*
X89323717Y-101699076D01*
X89449076Y-101573717D01*
X89547570Y-101426310D01*
X89615414Y-101262520D01*
X89650000Y-101088642D01*
X89650000Y-100911358D01*
X90350000Y-100911358D01*
X90350000Y-101088642D01*
X90384586Y-101262520D01*
X90452430Y-101426310D01*
X90550924Y-101573717D01*
X90606398Y-101629191D01*
X90600000Y-101661358D01*
X90600000Y-101838642D01*
X90634586Y-102012520D01*
X90702430Y-102176310D01*
X90800924Y-102323717D01*
X90926283Y-102449076D01*
X91073690Y-102547570D01*
X91237480Y-102615414D01*
X91411358Y-102650000D01*
X91588642Y-102650000D01*
X91762520Y-102615414D01*
X91926310Y-102547570D01*
X92073717Y-102449076D01*
X92111435Y-102411358D01*
X136850000Y-102411358D01*
X136850000Y-102588642D01*
X136884586Y-102762520D01*
X136952430Y-102926310D01*
X137050924Y-103073717D01*
X137176283Y-103199076D01*
X137323690Y-103297570D01*
X137487480Y-103365414D01*
X137661358Y-103400000D01*
X137838642Y-103400000D01*
X138012520Y-103365414D01*
X138176310Y-103297570D01*
X138323717Y-103199076D01*
X138449076Y-103073717D01*
X138547570Y-102926310D01*
X138615414Y-102762520D01*
X138650000Y-102588642D01*
X138650000Y-102411358D01*
X138615414Y-102237480D01*
X138547570Y-102073690D01*
X138449076Y-101926283D01*
X138323717Y-101800924D01*
X138176310Y-101702430D01*
X138012520Y-101634586D01*
X137838642Y-101600000D01*
X137661358Y-101600000D01*
X137487480Y-101634586D01*
X137323690Y-101702430D01*
X137176283Y-101800924D01*
X137050924Y-101926283D01*
X136952430Y-102073690D01*
X136884586Y-102237480D01*
X136850000Y-102411358D01*
X92111435Y-102411358D01*
X92199076Y-102323717D01*
X92297570Y-102176310D01*
X92365414Y-102012520D01*
X92400000Y-101838642D01*
X92400000Y-101661358D01*
X92365414Y-101487480D01*
X92297570Y-101323690D01*
X92199076Y-101176283D01*
X92143602Y-101120809D01*
X92150000Y-101088642D01*
X92150000Y-100911358D01*
X92145028Y-100886358D01*
X104600000Y-100886358D01*
X104600000Y-101063642D01*
X104634586Y-101237520D01*
X104702430Y-101401310D01*
X104800924Y-101548717D01*
X104926283Y-101674076D01*
X105073690Y-101772570D01*
X105237480Y-101840414D01*
X105411358Y-101875000D01*
X105588642Y-101875000D01*
X105762520Y-101840414D01*
X105926310Y-101772570D01*
X106073717Y-101674076D01*
X106199076Y-101548717D01*
X106297570Y-101401310D01*
X106365414Y-101237520D01*
X106400000Y-101063642D01*
X106400000Y-100886358D01*
X106365414Y-100712480D01*
X106297570Y-100548690D01*
X106199076Y-100401283D01*
X106073717Y-100275924D01*
X105926310Y-100177430D01*
X105762520Y-100109586D01*
X105588642Y-100075000D01*
X105411358Y-100075000D01*
X105237480Y-100109586D01*
X105073690Y-100177430D01*
X104926283Y-100275924D01*
X104800924Y-100401283D01*
X104702430Y-100548690D01*
X104634586Y-100712480D01*
X104600000Y-100886358D01*
X92145028Y-100886358D01*
X92115414Y-100737480D01*
X92047570Y-100573690D01*
X91949076Y-100426283D01*
X91823717Y-100300924D01*
X91676310Y-100202430D01*
X91512520Y-100134586D01*
X91338642Y-100100000D01*
X91161358Y-100100000D01*
X90987480Y-100134586D01*
X90823690Y-100202430D01*
X90676283Y-100300924D01*
X90550924Y-100426283D01*
X90452430Y-100573690D01*
X90384586Y-100737480D01*
X90350000Y-100911358D01*
X89650000Y-100911358D01*
X89615414Y-100737480D01*
X89547570Y-100573690D01*
X89449076Y-100426283D01*
X89323717Y-100300924D01*
X89176310Y-100202430D01*
X89012520Y-100134586D01*
X88838642Y-100100000D01*
X88661358Y-100100000D01*
X88487480Y-100134586D01*
X88323690Y-100202430D01*
X88176283Y-100300924D01*
X88050924Y-100426283D01*
X87952430Y-100573690D01*
X87884586Y-100737480D01*
X87850000Y-100911358D01*
X87850000Y-101088642D01*
X87884586Y-101262520D01*
X87952430Y-101426310D01*
X88001924Y-101500383D01*
X87926283Y-101550924D01*
X87800924Y-101676283D01*
X87702430Y-101823690D01*
X87634586Y-101987480D01*
X87600000Y-102161358D01*
X85250000Y-102161358D01*
X85250000Y-99748405D01*
X100401597Y-99699997D01*
X100520760Y-99685198D01*
X100613097Y-99652316D01*
X100697245Y-99602051D01*
X100769970Y-99536336D01*
X102608140Y-97514349D01*
X102719477Y-97503383D01*
X102930519Y-97439364D01*
X103125017Y-97335403D01*
X103295495Y-97195495D01*
X103435403Y-97025017D01*
X103539364Y-96830519D01*
X103603383Y-96619477D01*
X103625000Y-96400000D01*
X103625000Y-94625000D01*
X105750001Y-94625000D01*
X105750001Y-95002495D01*
X105702430Y-95073690D01*
X105634586Y-95237480D01*
X105600000Y-95411358D01*
X105600000Y-95588642D01*
X105634586Y-95762520D01*
X105702430Y-95926310D01*
X105800924Y-96073717D01*
X105926283Y-96199076D01*
X106073690Y-96297570D01*
X106237480Y-96365414D01*
X106411358Y-96400000D01*
X106588642Y-96400000D01*
X106762520Y-96365414D01*
X106926310Y-96297570D01*
X107073717Y-96199076D01*
X107199076Y-96073717D01*
X107297570Y-95926310D01*
X107365414Y-95762520D01*
X107400000Y-95588642D01*
X107400000Y-95411358D01*
X107365414Y-95237480D01*
X107297570Y-95073690D01*
X107250000Y-95002496D01*
X107250000Y-94625000D01*
X107750001Y-94625000D01*
X107750001Y-94963163D01*
X107746373Y-95000000D01*
X107760853Y-95147025D01*
X107803739Y-95288400D01*
X107803740Y-95288401D01*
X107873382Y-95418693D01*
X107916131Y-95470782D01*
X107943624Y-95504283D01*
X107943627Y-95504286D01*
X107967106Y-95532895D01*
X107995715Y-95556374D01*
X109117882Y-96678543D01*
X109134586Y-96762520D01*
X109202430Y-96926310D01*
X109300924Y-97073717D01*
X109426283Y-97199076D01*
X109573690Y-97297570D01*
X109737480Y-97365414D01*
X109911358Y-97400000D01*
X110088642Y-97400000D01*
X110262520Y-97365414D01*
X110426310Y-97297570D01*
X110491858Y-97253772D01*
X155500000Y-97253772D01*
X155500000Y-97746228D01*
X155596074Y-98229223D01*
X155784529Y-98684194D01*
X156058124Y-99093657D01*
X156406343Y-99441876D01*
X156815806Y-99715471D01*
X157270777Y-99903926D01*
X157753772Y-100000000D01*
X158246228Y-100000000D01*
X158729223Y-99903926D01*
X159184194Y-99715471D01*
X159593657Y-99441876D01*
X159941876Y-99093657D01*
X160215471Y-98684194D01*
X160403926Y-98229223D01*
X160500000Y-97746228D01*
X160500000Y-97253772D01*
X160403926Y-96770777D01*
X160215471Y-96315806D01*
X159941876Y-95906343D01*
X159593657Y-95558124D01*
X159184194Y-95284529D01*
X158729223Y-95096074D01*
X158246228Y-95000000D01*
X157753772Y-95000000D01*
X157270777Y-95096074D01*
X156815806Y-95284529D01*
X156406343Y-95558124D01*
X156058124Y-95906343D01*
X155784529Y-96315806D01*
X155596074Y-96770777D01*
X155500000Y-97253772D01*
X110491858Y-97253772D01*
X110573717Y-97199076D01*
X110699076Y-97073717D01*
X110797570Y-96926310D01*
X110865414Y-96762520D01*
X110900000Y-96588642D01*
X110900000Y-96411358D01*
X110865414Y-96237480D01*
X110797570Y-96073690D01*
X110699076Y-95926283D01*
X110573717Y-95800924D01*
X110426310Y-95702430D01*
X110262520Y-95634586D01*
X110178543Y-95617882D01*
X109250000Y-94689341D01*
X109250000Y-94625000D01*
X114948224Y-94625000D01*
X116911612Y-96588388D01*
X116930554Y-96603934D01*
X116952165Y-96615485D01*
X116975614Y-96622598D01*
X117000000Y-96625000D01*
X133000000Y-96625000D01*
X133024386Y-96622598D01*
X133047835Y-96615485D01*
X133069446Y-96603934D01*
X133088388Y-96588388D01*
X136051776Y-93625000D01*
X161975000Y-93625000D01*
X161975000Y-135475000D01*
X65525000Y-135475000D01*
X65525000Y-131253772D01*
X67000000Y-131253772D01*
X67000000Y-131746228D01*
X67096074Y-132229223D01*
X67284529Y-132684194D01*
X67558124Y-133093657D01*
X67906343Y-133441876D01*
X68315806Y-133715471D01*
X68770777Y-133903926D01*
X69253772Y-134000000D01*
X69746228Y-134000000D01*
X70229223Y-133903926D01*
X70684194Y-133715471D01*
X71093657Y-133441876D01*
X71441876Y-133093657D01*
X71715471Y-132684194D01*
X71903926Y-132229223D01*
X72000000Y-131746228D01*
X72000000Y-131253772D01*
X155500000Y-131253772D01*
X155500000Y-131746228D01*
X155596074Y-132229223D01*
X155784529Y-132684194D01*
X156058124Y-133093657D01*
X156406343Y-133441876D01*
X156815806Y-133715471D01*
X157270777Y-133903926D01*
X157753772Y-134000000D01*
X158246228Y-134000000D01*
X158729223Y-133903926D01*
X159184194Y-133715471D01*
X159593657Y-133441876D01*
X159941876Y-133093657D01*
X160215471Y-132684194D01*
X160403926Y-132229223D01*
X160500000Y-131746228D01*
X160500000Y-131253772D01*
X160403926Y-130770777D01*
X160215471Y-130315806D01*
X159941876Y-129906343D01*
X159593657Y-129558124D01*
X159184194Y-129284529D01*
X158729223Y-129096074D01*
X158246228Y-129000000D01*
X157753772Y-129000000D01*
X157270777Y-129096074D01*
X156815806Y-129284529D01*
X156406343Y-129558124D01*
X156058124Y-129906343D01*
X155784529Y-130315806D01*
X155596074Y-130770777D01*
X155500000Y-131253772D01*
X72000000Y-131253772D01*
X71903926Y-130770777D01*
X71715471Y-130315806D01*
X71441876Y-129906343D01*
X71093657Y-129558124D01*
X70684194Y-129284529D01*
X70229223Y-129096074D01*
X69746228Y-129000000D01*
X69253772Y-129000000D01*
X68770777Y-129096074D01*
X68315806Y-129284529D01*
X67906343Y-129558124D01*
X67558124Y-129906343D01*
X67284529Y-130315806D01*
X67096074Y-130770777D01*
X67000000Y-131253772D01*
X65525000Y-131253772D01*
X65525000Y-113750000D01*
X70500000Y-113750000D01*
X70500000Y-117750000D01*
X70509607Y-117847545D01*
X70538060Y-117941342D01*
X70584265Y-118027785D01*
X70646447Y-118103553D01*
X70722215Y-118165735D01*
X70808658Y-118211940D01*
X70902455Y-118240393D01*
X71000000Y-118250000D01*
X73292894Y-118250000D01*
X73500000Y-118457106D01*
X73500000Y-128000000D01*
X73509607Y-128097545D01*
X73538060Y-128191342D01*
X73584265Y-128277785D01*
X73646447Y-128353553D01*
X75500000Y-130207106D01*
X75500000Y-130500000D01*
X75509607Y-130597545D01*
X75538060Y-130691342D01*
X75584265Y-130777785D01*
X75646447Y-130853553D01*
X75722215Y-130915735D01*
X75808658Y-130961940D01*
X75902455Y-130990393D01*
X76000000Y-131000000D01*
X77000000Y-131000000D01*
X77097545Y-130990393D01*
X77191342Y-130961940D01*
X77277785Y-130915735D01*
X77353553Y-130853553D01*
X78353553Y-129853553D01*
X78415735Y-129777785D01*
X78461940Y-129691342D01*
X78490393Y-129597545D01*
X78500000Y-129500000D01*
X78500000Y-129311358D01*
X111300000Y-129311358D01*
X111300000Y-129488642D01*
X111334586Y-129662520D01*
X111402430Y-129826310D01*
X111500924Y-129973717D01*
X111626283Y-130099076D01*
X111773690Y-130197570D01*
X111937480Y-130265414D01*
X112111358Y-130300000D01*
X112288642Y-130300000D01*
X112462520Y-130265414D01*
X112626310Y-130197570D01*
X112773717Y-130099076D01*
X112899076Y-129973717D01*
X112997570Y-129826310D01*
X113065414Y-129662520D01*
X113100000Y-129488642D01*
X113100000Y-129311358D01*
X113065414Y-129137480D01*
X112997570Y-128973690D01*
X112955922Y-128911358D01*
X133100000Y-128911358D01*
X133100000Y-129088642D01*
X133134586Y-129262520D01*
X133202430Y-129426310D01*
X133300924Y-129573717D01*
X133426283Y-129699076D01*
X133573690Y-129797570D01*
X133737480Y-129865414D01*
X133911358Y-129900000D01*
X134088642Y-129900000D01*
X134262520Y-129865414D01*
X134426310Y-129797570D01*
X134573717Y-129699076D01*
X134699076Y-129573717D01*
X134797570Y-129426310D01*
X134865414Y-129262520D01*
X134900000Y-129088642D01*
X134900000Y-128911358D01*
X134865414Y-128737480D01*
X134797570Y-128573690D01*
X134699076Y-128426283D01*
X134573717Y-128300924D01*
X134426310Y-128202430D01*
X134262520Y-128134586D01*
X134088642Y-128100000D01*
X133911358Y-128100000D01*
X133737480Y-128134586D01*
X133573690Y-128202430D01*
X133426283Y-128300924D01*
X133300924Y-128426283D01*
X133202430Y-128573690D01*
X133134586Y-128737480D01*
X133100000Y-128911358D01*
X112955922Y-128911358D01*
X112899076Y-128826283D01*
X112773717Y-128700924D01*
X112626310Y-128602430D01*
X112462520Y-128534586D01*
X112288642Y-128500000D01*
X112111358Y-128500000D01*
X111937480Y-128534586D01*
X111773690Y-128602430D01*
X111626283Y-128700924D01*
X111500924Y-128826283D01*
X111402430Y-128973690D01*
X111334586Y-129137480D01*
X111300000Y-129311358D01*
X78500000Y-129311358D01*
X78500000Y-127161358D01*
X78600000Y-127161358D01*
X78600000Y-127338642D01*
X78634586Y-127512520D01*
X78702430Y-127676310D01*
X78800924Y-127823717D01*
X78926283Y-127949076D01*
X79073690Y-128047570D01*
X79237480Y-128115414D01*
X79411358Y-128150000D01*
X79588642Y-128150000D01*
X79762520Y-128115414D01*
X79926310Y-128047570D01*
X80073717Y-127949076D01*
X80199076Y-127823717D01*
X80297570Y-127676310D01*
X80365414Y-127512520D01*
X80400000Y-127338642D01*
X80400000Y-127161358D01*
X80365414Y-126987480D01*
X80297570Y-126823690D01*
X80199076Y-126676283D01*
X80073717Y-126550924D01*
X79926310Y-126452430D01*
X79762520Y-126384586D01*
X79588642Y-126350000D01*
X79411358Y-126350000D01*
X79237480Y-126384586D01*
X79073690Y-126452430D01*
X78926283Y-126550924D01*
X78800924Y-126676283D01*
X78702430Y-126823690D01*
X78634586Y-126987480D01*
X78600000Y-127161358D01*
X78500000Y-127161358D01*
X78500000Y-125661358D01*
X81600000Y-125661358D01*
X81600000Y-125838642D01*
X81634586Y-126012520D01*
X81702430Y-126176310D01*
X81800924Y-126323717D01*
X81926283Y-126449076D01*
X82073690Y-126547570D01*
X82237480Y-126615414D01*
X82411358Y-126650000D01*
X82588642Y-126650000D01*
X82762520Y-126615414D01*
X82926310Y-126547570D01*
X83073717Y-126449076D01*
X83199076Y-126323717D01*
X83297570Y-126176310D01*
X83365414Y-126012520D01*
X83400000Y-125838642D01*
X83400000Y-125661358D01*
X83365414Y-125487480D01*
X83297570Y-125323690D01*
X83199076Y-125176283D01*
X83073717Y-125050924D01*
X82926310Y-124952430D01*
X82762520Y-124884586D01*
X82588642Y-124850000D01*
X82411358Y-124850000D01*
X82237480Y-124884586D01*
X82073690Y-124952430D01*
X81926283Y-125050924D01*
X81800924Y-125176283D01*
X81702430Y-125323690D01*
X81634586Y-125487480D01*
X81600000Y-125661358D01*
X78500000Y-125661358D01*
X78500000Y-124161358D01*
X78600000Y-124161358D01*
X78600000Y-124338642D01*
X78634586Y-124512520D01*
X78702430Y-124676310D01*
X78800924Y-124823717D01*
X78926283Y-124949076D01*
X79073690Y-125047570D01*
X79237480Y-125115414D01*
X79411358Y-125150000D01*
X79588642Y-125150000D01*
X79762520Y-125115414D01*
X79926310Y-125047570D01*
X80073717Y-124949076D01*
X80199076Y-124823717D01*
X80297570Y-124676310D01*
X80365414Y-124512520D01*
X80400000Y-124338642D01*
X80400000Y-124311358D01*
X117500000Y-124311358D01*
X117500000Y-124488642D01*
X117534586Y-124662520D01*
X117602430Y-124826310D01*
X117700924Y-124973717D01*
X117826283Y-125099076D01*
X117973690Y-125197570D01*
X118100000Y-125249889D01*
X118100000Y-125288642D01*
X118134586Y-125462520D01*
X118202430Y-125626310D01*
X118300924Y-125773717D01*
X118426283Y-125899076D01*
X118573690Y-125997570D01*
X118737480Y-126065414D01*
X118911358Y-126100000D01*
X119088642Y-126100000D01*
X119262520Y-126065414D01*
X119426310Y-125997570D01*
X119573717Y-125899076D01*
X119699076Y-125773717D01*
X119797570Y-125626310D01*
X119865414Y-125462520D01*
X119900000Y-125288642D01*
X119900000Y-125111358D01*
X119865414Y-124937480D01*
X119797570Y-124773690D01*
X119699076Y-124626283D01*
X119573717Y-124500924D01*
X119426310Y-124402430D01*
X119300000Y-124350111D01*
X119300000Y-124311358D01*
X119265414Y-124137480D01*
X119197570Y-123973690D01*
X119099076Y-123826283D01*
X118973717Y-123700924D01*
X118826310Y-123602430D01*
X118662520Y-123534586D01*
X118488642Y-123500000D01*
X118311358Y-123500000D01*
X118137480Y-123534586D01*
X117973690Y-123602430D01*
X117826283Y-123700924D01*
X117700924Y-123826283D01*
X117602430Y-123973690D01*
X117534586Y-124137480D01*
X117500000Y-124311358D01*
X80400000Y-124311358D01*
X80400000Y-124161358D01*
X80365414Y-123987480D01*
X80297570Y-123823690D01*
X80199076Y-123676283D01*
X80073717Y-123550924D01*
X79926310Y-123452430D01*
X79762520Y-123384586D01*
X79588642Y-123350000D01*
X79411358Y-123350000D01*
X79237480Y-123384586D01*
X79073690Y-123452430D01*
X78926283Y-123550924D01*
X78800924Y-123676283D01*
X78702430Y-123823690D01*
X78634586Y-123987480D01*
X78600000Y-124161358D01*
X78500000Y-124161358D01*
X78500000Y-121711358D01*
X120500000Y-121711358D01*
X120500000Y-121888642D01*
X120534586Y-122062520D01*
X120602430Y-122226310D01*
X120700924Y-122373717D01*
X120826283Y-122499076D01*
X120973690Y-122597570D01*
X121137480Y-122665414D01*
X121311358Y-122700000D01*
X121488642Y-122700000D01*
X121662520Y-122665414D01*
X121826310Y-122597570D01*
X121973717Y-122499076D01*
X122099076Y-122373717D01*
X122197570Y-122226310D01*
X122265414Y-122062520D01*
X122300000Y-121888642D01*
X122300000Y-121874460D01*
X122361108Y-121800000D01*
X122374400Y-121783804D01*
X122413123Y-121711358D01*
X122438240Y-121664368D01*
X122477552Y-121534773D01*
X122487500Y-121433769D01*
X122487500Y-121433768D01*
X122490826Y-121400001D01*
X122487500Y-121366234D01*
X122487500Y-118411358D01*
X124000000Y-118411358D01*
X124000000Y-118588642D01*
X124034586Y-118762520D01*
X124102430Y-118926310D01*
X124200924Y-119073717D01*
X124326283Y-119199076D01*
X124473690Y-119297570D01*
X124637480Y-119365414D01*
X124811358Y-119400000D01*
X124988642Y-119400000D01*
X125162520Y-119365414D01*
X125326310Y-119297570D01*
X125473717Y-119199076D01*
X125550000Y-119122793D01*
X125626283Y-119199076D01*
X125773690Y-119297570D01*
X125937480Y-119365414D01*
X126111358Y-119400000D01*
X126288642Y-119400000D01*
X126462520Y-119365414D01*
X126626310Y-119297570D01*
X126773717Y-119199076D01*
X126899076Y-119073717D01*
X126997570Y-118926310D01*
X127065414Y-118762520D01*
X127100000Y-118588642D01*
X127100000Y-118411358D01*
X127065414Y-118237480D01*
X126997570Y-118073690D01*
X126899076Y-117926283D01*
X126773717Y-117800924D01*
X126626310Y-117702430D01*
X126462520Y-117634586D01*
X126288642Y-117600000D01*
X126111358Y-117600000D01*
X125937480Y-117634586D01*
X125773690Y-117702430D01*
X125626283Y-117800924D01*
X125550000Y-117877207D01*
X125473717Y-117800924D01*
X125326310Y-117702430D01*
X125162520Y-117634586D01*
X124988642Y-117600000D01*
X124811358Y-117600000D01*
X124637480Y-117634586D01*
X124473690Y-117702430D01*
X124326283Y-117800924D01*
X124200924Y-117926283D01*
X124102430Y-118073690D01*
X124034586Y-118237480D01*
X124000000Y-118411358D01*
X122487500Y-118411358D01*
X122487500Y-116185293D01*
X122499076Y-116173717D01*
X122597570Y-116026310D01*
X122665414Y-115862520D01*
X122700000Y-115688642D01*
X122700000Y-115511358D01*
X122665414Y-115337480D01*
X122597570Y-115173690D01*
X122499076Y-115026283D01*
X122373717Y-114900924D01*
X122226310Y-114802430D01*
X122062520Y-114734586D01*
X121888642Y-114700000D01*
X121711358Y-114700000D01*
X121537480Y-114734586D01*
X121373690Y-114802430D01*
X121226283Y-114900924D01*
X121100924Y-115026283D01*
X121002430Y-115173690D01*
X120934586Y-115337480D01*
X120900000Y-115511358D01*
X120900000Y-115688642D01*
X120934586Y-115862520D01*
X121002430Y-116026310D01*
X121100924Y-116173717D01*
X121112500Y-116185293D01*
X121112501Y-120944933D01*
X120973690Y-121002430D01*
X120826283Y-121100924D01*
X120700924Y-121226283D01*
X120602430Y-121373690D01*
X120534586Y-121537480D01*
X120500000Y-121711358D01*
X78500000Y-121711358D01*
X78500000Y-120511358D01*
X96500000Y-120511358D01*
X96500000Y-120688642D01*
X96534586Y-120862520D01*
X96602430Y-121026310D01*
X96700924Y-121173717D01*
X96826283Y-121299076D01*
X96973690Y-121397570D01*
X97137480Y-121465414D01*
X97311358Y-121500000D01*
X97488642Y-121500000D01*
X97662520Y-121465414D01*
X97826310Y-121397570D01*
X97973717Y-121299076D01*
X98099076Y-121173717D01*
X98197570Y-121026310D01*
X98265414Y-120862520D01*
X98300000Y-120688642D01*
X98300000Y-120511358D01*
X98265414Y-120337480D01*
X98197570Y-120173690D01*
X98099076Y-120026283D01*
X97973717Y-119900924D01*
X97826310Y-119802430D01*
X97662520Y-119734586D01*
X97488642Y-119700000D01*
X97311358Y-119700000D01*
X97137480Y-119734586D01*
X96973690Y-119802430D01*
X96826283Y-119900924D01*
X96700924Y-120026283D01*
X96602430Y-120173690D01*
X96534586Y-120337480D01*
X96500000Y-120511358D01*
X78500000Y-120511358D01*
X78500000Y-117911358D01*
X87500000Y-117911358D01*
X87500000Y-118088642D01*
X87534586Y-118262520D01*
X87602430Y-118426310D01*
X87700924Y-118573717D01*
X87826283Y-118699076D01*
X87973690Y-118797570D01*
X88137480Y-118865414D01*
X88311358Y-118900000D01*
X88488642Y-118900000D01*
X88662520Y-118865414D01*
X88826310Y-118797570D01*
X88955335Y-118711358D01*
X109500000Y-118711358D01*
X109500000Y-118888642D01*
X109534586Y-119062520D01*
X109602430Y-119226310D01*
X109700924Y-119373717D01*
X109826283Y-119499076D01*
X109973690Y-119597570D01*
X110137480Y-119665414D01*
X110311358Y-119700000D01*
X110488642Y-119700000D01*
X110502820Y-119697180D01*
X110500000Y-119711358D01*
X110500000Y-119888642D01*
X110534586Y-120062520D01*
X110602430Y-120226310D01*
X110700924Y-120373717D01*
X110826283Y-120499076D01*
X110973690Y-120597570D01*
X111137480Y-120665414D01*
X111311358Y-120700000D01*
X111488642Y-120700000D01*
X111662520Y-120665414D01*
X111826310Y-120597570D01*
X111973717Y-120499076D01*
X112099076Y-120373717D01*
X112197570Y-120226310D01*
X112265414Y-120062520D01*
X112300000Y-119888642D01*
X112300000Y-119711358D01*
X112265414Y-119537480D01*
X112197570Y-119373690D01*
X112099076Y-119226283D01*
X111973717Y-119100924D01*
X111826310Y-119002430D01*
X111662520Y-118934586D01*
X111488642Y-118900000D01*
X111311358Y-118900000D01*
X111297180Y-118902820D01*
X111300000Y-118888642D01*
X111300000Y-118711358D01*
X111265414Y-118537480D01*
X111197570Y-118373690D01*
X111099076Y-118226283D01*
X110973717Y-118100924D01*
X110826310Y-118002430D01*
X110662520Y-117934586D01*
X110488642Y-117900000D01*
X110311358Y-117900000D01*
X110137480Y-117934586D01*
X109973690Y-118002430D01*
X109826283Y-118100924D01*
X109700924Y-118226283D01*
X109602430Y-118373690D01*
X109534586Y-118537480D01*
X109500000Y-118711358D01*
X88955335Y-118711358D01*
X88973717Y-118699076D01*
X89099076Y-118573717D01*
X89197570Y-118426310D01*
X89265414Y-118262520D01*
X89300000Y-118088642D01*
X89300000Y-117911358D01*
X89265414Y-117737480D01*
X89197570Y-117573690D01*
X89099076Y-117426283D01*
X88973717Y-117300924D01*
X88826310Y-117202430D01*
X88662520Y-117134586D01*
X88488642Y-117100000D01*
X88311358Y-117100000D01*
X88137480Y-117134586D01*
X87973690Y-117202430D01*
X87826283Y-117300924D01*
X87700924Y-117426283D01*
X87602430Y-117573690D01*
X87534586Y-117737480D01*
X87500000Y-117911358D01*
X78500000Y-117911358D01*
X78500000Y-116371961D01*
X101450000Y-116371961D01*
X101450000Y-116628039D01*
X101499958Y-116879196D01*
X101597955Y-117115781D01*
X101740224Y-117328702D01*
X101921298Y-117509776D01*
X102134219Y-117652045D01*
X102370804Y-117750042D01*
X102621961Y-117800000D01*
X102878039Y-117800000D01*
X103129196Y-117750042D01*
X103365781Y-117652045D01*
X103578702Y-117509776D01*
X103759776Y-117328702D01*
X103771364Y-117311358D01*
X111300000Y-117311358D01*
X111300000Y-117488642D01*
X111334586Y-117662520D01*
X111402430Y-117826310D01*
X111500924Y-117973717D01*
X111626283Y-118099076D01*
X111773690Y-118197570D01*
X111937480Y-118265414D01*
X112111358Y-118300000D01*
X112288642Y-118300000D01*
X112462520Y-118265414D01*
X112626310Y-118197570D01*
X112697504Y-118150000D01*
X112963173Y-118150000D01*
X113000000Y-118153627D01*
X113036827Y-118150000D01*
X113036835Y-118150000D01*
X113147026Y-118139147D01*
X113288401Y-118096261D01*
X113418693Y-118026619D01*
X113532895Y-117932895D01*
X113556378Y-117904281D01*
X114778542Y-116682118D01*
X114862520Y-116665414D01*
X115026310Y-116597570D01*
X115173717Y-116499076D01*
X115299076Y-116373717D01*
X115397570Y-116226310D01*
X115465414Y-116062520D01*
X115500000Y-115888642D01*
X115500000Y-115711358D01*
X115465414Y-115537480D01*
X115397570Y-115373690D01*
X115299076Y-115226283D01*
X115173717Y-115100924D01*
X115026310Y-115002430D01*
X114862520Y-114934586D01*
X114688642Y-114900000D01*
X114511358Y-114900000D01*
X114337480Y-114934586D01*
X114173690Y-115002430D01*
X114026283Y-115100924D01*
X113900924Y-115226283D01*
X113802430Y-115373690D01*
X113734586Y-115537480D01*
X113717882Y-115621458D01*
X112692610Y-116646730D01*
X112626310Y-116602430D01*
X112462520Y-116534586D01*
X112288642Y-116500000D01*
X112111358Y-116500000D01*
X111937480Y-116534586D01*
X111773690Y-116602430D01*
X111626283Y-116700924D01*
X111500924Y-116826283D01*
X111402430Y-116973690D01*
X111334586Y-117137480D01*
X111300000Y-117311358D01*
X103771364Y-117311358D01*
X103902045Y-117115781D01*
X104000042Y-116879196D01*
X104050000Y-116628039D01*
X104050000Y-116371961D01*
X104000042Y-116120804D01*
X103902045Y-115884219D01*
X103759776Y-115671298D01*
X103578702Y-115490224D01*
X103365781Y-115347955D01*
X103129196Y-115249958D01*
X102878039Y-115200000D01*
X102621961Y-115200000D01*
X102370804Y-115249958D01*
X102134219Y-115347955D01*
X101921298Y-115490224D01*
X101740224Y-115671298D01*
X101597955Y-115884219D01*
X101499958Y-116120804D01*
X101450000Y-116371961D01*
X78500000Y-116371961D01*
X78500000Y-113750000D01*
X78490393Y-113652455D01*
X78461940Y-113558658D01*
X78415735Y-113472215D01*
X78353553Y-113396447D01*
X78277785Y-113334265D01*
X78191342Y-113288060D01*
X78097545Y-113259607D01*
X78000000Y-113250000D01*
X71000000Y-113250000D01*
X70902455Y-113259607D01*
X70808658Y-113288060D01*
X70722215Y-113334265D01*
X70646447Y-113396447D01*
X70584265Y-113472215D01*
X70538060Y-113558658D01*
X70509607Y-113652455D01*
X70500000Y-113750000D01*
X65525000Y-113750000D01*
X65525000Y-112871961D01*
X101450000Y-112871961D01*
X101450000Y-113128039D01*
X101499958Y-113379196D01*
X101597955Y-113615781D01*
X101740224Y-113828702D01*
X101921298Y-114009776D01*
X102134219Y-114152045D01*
X102370804Y-114250042D01*
X102621961Y-114300000D01*
X102878039Y-114300000D01*
X103129196Y-114250042D01*
X103365781Y-114152045D01*
X103578702Y-114009776D01*
X103627120Y-113961358D01*
X108600000Y-113961358D01*
X108600000Y-114138642D01*
X108634586Y-114312520D01*
X108702430Y-114476310D01*
X108800924Y-114623717D01*
X108926283Y-114749076D01*
X109073690Y-114847570D01*
X109237480Y-114915414D01*
X109411358Y-114950000D01*
X109588642Y-114950000D01*
X109762520Y-114915414D01*
X109926310Y-114847570D01*
X110073717Y-114749076D01*
X110199076Y-114623717D01*
X110297570Y-114476310D01*
X110365414Y-114312520D01*
X110400000Y-114138642D01*
X110400000Y-113961358D01*
X110365414Y-113787480D01*
X110297570Y-113623690D01*
X110199076Y-113476283D01*
X110073717Y-113350924D01*
X109926310Y-113252430D01*
X109762520Y-113184586D01*
X109588642Y-113150000D01*
X109411358Y-113150000D01*
X109237480Y-113184586D01*
X109073690Y-113252430D01*
X108926283Y-113350924D01*
X108800924Y-113476283D01*
X108702430Y-113623690D01*
X108634586Y-113787480D01*
X108600000Y-113961358D01*
X103627120Y-113961358D01*
X103759776Y-113828702D01*
X103902045Y-113615781D01*
X104000042Y-113379196D01*
X104050000Y-113128039D01*
X104050000Y-112871961D01*
X104000042Y-112620804D01*
X103902045Y-112384219D01*
X103759776Y-112171298D01*
X103699836Y-112111358D01*
X114500000Y-112111358D01*
X114500000Y-112288642D01*
X114534586Y-112462520D01*
X114602430Y-112626310D01*
X114700924Y-112773717D01*
X114826283Y-112899076D01*
X114973690Y-112997570D01*
X115111296Y-113054568D01*
X115100000Y-113111358D01*
X115100000Y-113288642D01*
X115134586Y-113462520D01*
X115202430Y-113626310D01*
X115300924Y-113773717D01*
X115426283Y-113899076D01*
X115573690Y-113997570D01*
X115737480Y-114065414D01*
X115911358Y-114100000D01*
X116088642Y-114100000D01*
X116262520Y-114065414D01*
X116426310Y-113997570D01*
X116573717Y-113899076D01*
X116699076Y-113773717D01*
X116797570Y-113626310D01*
X116865414Y-113462520D01*
X116895481Y-113311358D01*
X123500000Y-113311358D01*
X123500000Y-113488642D01*
X123534586Y-113662520D01*
X123602430Y-113826310D01*
X123700924Y-113973717D01*
X123826283Y-114099076D01*
X123973690Y-114197570D01*
X124137480Y-114265414D01*
X124311358Y-114300000D01*
X124488642Y-114300000D01*
X124662520Y-114265414D01*
X124826310Y-114197570D01*
X124973717Y-114099076D01*
X125099076Y-113973717D01*
X125197570Y-113826310D01*
X125265414Y-113662520D01*
X125300000Y-113488642D01*
X125300000Y-113472271D01*
X128084772Y-110687500D01*
X130566233Y-110687500D01*
X130600000Y-110690826D01*
X130633767Y-110687500D01*
X130633769Y-110687500D01*
X130734773Y-110677552D01*
X130864368Y-110638240D01*
X130983802Y-110574401D01*
X131088488Y-110488488D01*
X131110020Y-110462251D01*
X131684772Y-109887500D01*
X134446373Y-109887500D01*
X134426283Y-109900924D01*
X134300924Y-110026283D01*
X134202430Y-110173690D01*
X134135434Y-110335434D01*
X133973690Y-110402430D01*
X133826283Y-110500924D01*
X133700924Y-110626283D01*
X133602430Y-110773690D01*
X133534586Y-110937480D01*
X133500000Y-111111358D01*
X133500000Y-111251668D01*
X133426283Y-111300924D01*
X133300924Y-111426283D01*
X133202430Y-111573690D01*
X133134586Y-111737480D01*
X133100000Y-111911358D01*
X133100000Y-112088642D01*
X133134586Y-112262520D01*
X133202430Y-112426310D01*
X133300924Y-112573717D01*
X133426283Y-112699076D01*
X133573690Y-112797570D01*
X133737480Y-112865414D01*
X133911358Y-112900000D01*
X134088642Y-112900000D01*
X134262520Y-112865414D01*
X134426310Y-112797570D01*
X134573717Y-112699076D01*
X134699076Y-112573717D01*
X134797570Y-112426310D01*
X134865414Y-112262520D01*
X134900000Y-112088642D01*
X134900000Y-111948332D01*
X134973717Y-111899076D01*
X135099076Y-111773717D01*
X135197570Y-111626310D01*
X135264566Y-111464566D01*
X135426310Y-111397570D01*
X135573717Y-111299076D01*
X135699076Y-111173717D01*
X135797570Y-111026310D01*
X135865414Y-110862520D01*
X135900000Y-110688642D01*
X135900000Y-110511358D01*
X135865414Y-110337480D01*
X135797570Y-110173690D01*
X135699076Y-110026283D01*
X135573717Y-109900924D01*
X135553627Y-109887500D01*
X135915229Y-109887500D01*
X138112500Y-112084772D01*
X138112500Y-112366233D01*
X138109174Y-112400000D01*
X138112500Y-112433767D01*
X138112500Y-112433769D01*
X138122448Y-112534773D01*
X138161760Y-112664368D01*
X138225600Y-112783802D01*
X138311513Y-112888488D01*
X138337744Y-112910015D01*
X142289984Y-116862256D01*
X142311512Y-116888488D01*
X142416198Y-116974401D01*
X142535632Y-117038240D01*
X142665227Y-117077552D01*
X142766231Y-117087500D01*
X142766232Y-117087500D01*
X142799999Y-117090826D01*
X142833766Y-117087500D01*
X148566233Y-117087500D01*
X148600000Y-117090826D01*
X148633767Y-117087500D01*
X148633769Y-117087500D01*
X148734773Y-117077552D01*
X148864368Y-117038240D01*
X148983802Y-116974401D01*
X149088488Y-116888488D01*
X149110020Y-116862251D01*
X150462261Y-115510011D01*
X150488487Y-115488488D01*
X150574401Y-115383802D01*
X150638240Y-115264368D01*
X150677552Y-115134773D01*
X150687500Y-115033769D01*
X150687500Y-115033767D01*
X150690826Y-115000000D01*
X150689209Y-114983584D01*
X150699076Y-114973717D01*
X150797570Y-114826310D01*
X150865414Y-114662520D01*
X150900000Y-114488642D01*
X150900000Y-114311358D01*
X150865414Y-114137480D01*
X150797570Y-113973690D01*
X150699076Y-113826283D01*
X150573717Y-113700924D01*
X150426310Y-113602430D01*
X150262520Y-113534586D01*
X150088642Y-113500000D01*
X149911358Y-113500000D01*
X149737480Y-113534586D01*
X149573690Y-113602430D01*
X149426283Y-113700924D01*
X149300924Y-113826283D01*
X149202430Y-113973690D01*
X149134586Y-114137480D01*
X149100000Y-114311358D01*
X149100000Y-114488642D01*
X149134586Y-114662520D01*
X149202134Y-114825595D01*
X148315229Y-115712500D01*
X143084772Y-115712500D01*
X140683630Y-113311358D01*
X142100000Y-113311358D01*
X142100000Y-113488642D01*
X142134586Y-113662520D01*
X142202430Y-113826310D01*
X142300924Y-113973717D01*
X142426283Y-114099076D01*
X142573690Y-114197570D01*
X142737480Y-114265414D01*
X142911358Y-114300000D01*
X143088642Y-114300000D01*
X143262520Y-114265414D01*
X143426310Y-114197570D01*
X143573717Y-114099076D01*
X143699076Y-113973717D01*
X143797570Y-113826310D01*
X143865414Y-113662520D01*
X143900000Y-113488642D01*
X143900000Y-113311358D01*
X143865414Y-113137480D01*
X143797570Y-112973690D01*
X143699076Y-112826283D01*
X143584151Y-112711358D01*
X153700000Y-112711358D01*
X153700000Y-112888642D01*
X153734586Y-113062520D01*
X153802430Y-113226310D01*
X153900924Y-113373717D01*
X154026283Y-113499076D01*
X154173690Y-113597570D01*
X154337480Y-113665414D01*
X154511358Y-113700000D01*
X154688642Y-113700000D01*
X154862520Y-113665414D01*
X155026310Y-113597570D01*
X155173717Y-113499076D01*
X155299076Y-113373717D01*
X155397570Y-113226310D01*
X155465414Y-113062520D01*
X155500000Y-112888642D01*
X155500000Y-112711358D01*
X155465414Y-112537480D01*
X155397570Y-112373690D01*
X155299076Y-112226283D01*
X155173717Y-112100924D01*
X155026310Y-112002430D01*
X154862520Y-111934586D01*
X154688642Y-111900000D01*
X154511358Y-111900000D01*
X154337480Y-111934586D01*
X154173690Y-112002430D01*
X154026283Y-112100924D01*
X153900924Y-112226283D01*
X153802430Y-112373690D01*
X153734586Y-112537480D01*
X153700000Y-112711358D01*
X143584151Y-112711358D01*
X143573717Y-112700924D01*
X143426310Y-112602430D01*
X143262520Y-112534586D01*
X143088642Y-112500000D01*
X142911358Y-112500000D01*
X142737480Y-112534586D01*
X142573690Y-112602430D01*
X142426283Y-112700924D01*
X142300924Y-112826283D01*
X142202430Y-112973690D01*
X142134586Y-113137480D01*
X142100000Y-113311358D01*
X140683630Y-113311358D01*
X139487500Y-112115229D01*
X139487500Y-111833766D01*
X139490826Y-111799999D01*
X139484668Y-111737480D01*
X139477552Y-111665227D01*
X139438240Y-111535632D01*
X139374401Y-111416198D01*
X139288487Y-111311512D01*
X139262261Y-111289989D01*
X136710020Y-108737749D01*
X136688488Y-108711512D01*
X136583802Y-108625599D01*
X136464368Y-108561760D01*
X136334773Y-108522448D01*
X136233769Y-108512500D01*
X136233767Y-108512500D01*
X136200000Y-108509174D01*
X136166233Y-108512500D01*
X131433767Y-108512500D01*
X131400000Y-108509174D01*
X131366233Y-108512500D01*
X131366231Y-108512500D01*
X131265227Y-108522448D01*
X131135632Y-108561760D01*
X131016198Y-108625599D01*
X130911512Y-108711512D01*
X130889984Y-108737744D01*
X130315229Y-109312500D01*
X127833766Y-109312500D01*
X127799999Y-109309174D01*
X127766232Y-109312500D01*
X127766231Y-109312500D01*
X127665227Y-109322448D01*
X127535632Y-109361760D01*
X127416198Y-109425599D01*
X127311512Y-109511512D01*
X127289985Y-109537743D01*
X124327729Y-112500000D01*
X124311358Y-112500000D01*
X124137480Y-112534586D01*
X123973690Y-112602430D01*
X123826283Y-112700924D01*
X123700924Y-112826283D01*
X123602430Y-112973690D01*
X123534586Y-113137480D01*
X123500000Y-113311358D01*
X116895481Y-113311358D01*
X116900000Y-113288642D01*
X116900000Y-113111358D01*
X116865414Y-112937480D01*
X116797570Y-112773690D01*
X116699076Y-112626283D01*
X116573717Y-112500924D01*
X116426310Y-112402430D01*
X116288704Y-112345432D01*
X116300000Y-112288642D01*
X116300000Y-112111358D01*
X120500000Y-112111358D01*
X120500000Y-112288642D01*
X120534586Y-112462520D01*
X120602430Y-112626310D01*
X120700924Y-112773717D01*
X120826283Y-112899076D01*
X120973690Y-112997570D01*
X121137480Y-113065414D01*
X121311358Y-113100000D01*
X121488642Y-113100000D01*
X121662520Y-113065414D01*
X121826310Y-112997570D01*
X121973717Y-112899076D01*
X122099076Y-112773717D01*
X122197570Y-112626310D01*
X122265414Y-112462520D01*
X122300000Y-112288642D01*
X122300000Y-112111358D01*
X122265414Y-111937480D01*
X122197570Y-111773690D01*
X122099076Y-111626283D01*
X121973717Y-111500924D01*
X121826310Y-111402430D01*
X121662520Y-111334586D01*
X121488642Y-111300000D01*
X121311358Y-111300000D01*
X121137480Y-111334586D01*
X120973690Y-111402430D01*
X120826283Y-111500924D01*
X120700924Y-111626283D01*
X120602430Y-111773690D01*
X120534586Y-111937480D01*
X120500000Y-112111358D01*
X116300000Y-112111358D01*
X116265414Y-111937480D01*
X116197570Y-111773690D01*
X116099076Y-111626283D01*
X115973717Y-111500924D01*
X115826310Y-111402430D01*
X115662520Y-111334586D01*
X115488642Y-111300000D01*
X115311358Y-111300000D01*
X115137480Y-111334586D01*
X114973690Y-111402430D01*
X114826283Y-111500924D01*
X114700924Y-111626283D01*
X114602430Y-111773690D01*
X114534586Y-111937480D01*
X114500000Y-112111358D01*
X103699836Y-112111358D01*
X103578702Y-111990224D01*
X103365781Y-111847955D01*
X103129196Y-111749958D01*
X102878039Y-111700000D01*
X102621961Y-111700000D01*
X102370804Y-111749958D01*
X102134219Y-111847955D01*
X101921298Y-111990224D01*
X101740224Y-112171298D01*
X101597955Y-112384219D01*
X101499958Y-112620804D01*
X101450000Y-112871961D01*
X65525000Y-112871961D01*
X65525000Y-109963017D01*
X68000000Y-109963017D01*
X68000000Y-110356983D01*
X68076859Y-110743378D01*
X68227623Y-111107355D01*
X68446499Y-111434926D01*
X68725074Y-111713501D01*
X69052645Y-111932377D01*
X69416622Y-112083141D01*
X69803017Y-112160000D01*
X70196983Y-112160000D01*
X70583378Y-112083141D01*
X70947355Y-111932377D01*
X71274926Y-111713501D01*
X71553501Y-111434926D01*
X71772377Y-111107355D01*
X71923141Y-110743378D01*
X72000000Y-110356983D01*
X72000000Y-109963017D01*
X71989725Y-109911358D01*
X90900000Y-109911358D01*
X90900000Y-110088642D01*
X90934586Y-110262520D01*
X91002430Y-110426310D01*
X91100924Y-110573717D01*
X91226283Y-110699076D01*
X91373690Y-110797570D01*
X91500000Y-110849889D01*
X91500000Y-110888642D01*
X91534586Y-111062520D01*
X91602430Y-111226310D01*
X91700924Y-111373717D01*
X91826283Y-111499076D01*
X91973690Y-111597570D01*
X92137480Y-111665414D01*
X92311358Y-111700000D01*
X92488642Y-111700000D01*
X92662520Y-111665414D01*
X92826310Y-111597570D01*
X92973717Y-111499076D01*
X93099076Y-111373717D01*
X93197570Y-111226310D01*
X93265414Y-111062520D01*
X93300000Y-110888642D01*
X93300000Y-110711358D01*
X93265414Y-110537480D01*
X93197570Y-110373690D01*
X93099076Y-110226283D01*
X92973717Y-110100924D01*
X92826310Y-110002430D01*
X92700000Y-109950111D01*
X92700000Y-109911358D01*
X92665414Y-109737480D01*
X92597570Y-109573690D01*
X92499076Y-109426283D01*
X92373717Y-109300924D01*
X92226310Y-109202430D01*
X92062520Y-109134586D01*
X91888642Y-109100000D01*
X91711358Y-109100000D01*
X91537480Y-109134586D01*
X91373690Y-109202430D01*
X91226283Y-109300924D01*
X91100924Y-109426283D01*
X91002430Y-109573690D01*
X90934586Y-109737480D01*
X90900000Y-109911358D01*
X71989725Y-109911358D01*
X71923141Y-109576622D01*
X71772377Y-109212645D01*
X71553501Y-108885074D01*
X71379785Y-108711358D01*
X106100000Y-108711358D01*
X106100000Y-108888642D01*
X106134586Y-109062520D01*
X106202430Y-109226310D01*
X106300924Y-109373717D01*
X106426283Y-109499076D01*
X106573690Y-109597570D01*
X106737480Y-109665414D01*
X106911358Y-109700000D01*
X107088642Y-109700000D01*
X107262520Y-109665414D01*
X107426310Y-109597570D01*
X107573717Y-109499076D01*
X107699076Y-109373717D01*
X107797570Y-109226310D01*
X107865414Y-109062520D01*
X107900000Y-108888642D01*
X107900000Y-108711358D01*
X107865414Y-108537480D01*
X107797570Y-108373690D01*
X107699076Y-108226283D01*
X107573717Y-108100924D01*
X107426310Y-108002430D01*
X107262520Y-107934586D01*
X107088642Y-107900000D01*
X106911358Y-107900000D01*
X106737480Y-107934586D01*
X106573690Y-108002430D01*
X106426283Y-108100924D01*
X106300924Y-108226283D01*
X106202430Y-108373690D01*
X106134586Y-108537480D01*
X106100000Y-108711358D01*
X71379785Y-108711358D01*
X71274926Y-108606499D01*
X70947355Y-108387623D01*
X70583378Y-108236859D01*
X70196983Y-108160000D01*
X69803017Y-108160000D01*
X69416622Y-108236859D01*
X69052645Y-108387623D01*
X68725074Y-108606499D01*
X68446499Y-108885074D01*
X68227623Y-109212645D01*
X68076859Y-109576622D01*
X68000000Y-109963017D01*
X65525000Y-109963017D01*
X65525000Y-106564981D01*
X68691796Y-106564981D01*
X68848192Y-106877990D01*
X69221094Y-107068149D01*
X69623929Y-107181904D01*
X70041216Y-107214884D01*
X70456920Y-107165822D01*
X70855064Y-107036603D01*
X71151808Y-106877990D01*
X71308204Y-106564981D01*
X70000000Y-105256777D01*
X68691796Y-106564981D01*
X65525000Y-106564981D01*
X65525000Y-105121216D01*
X67865116Y-105121216D01*
X67914178Y-105536920D01*
X68043397Y-105935064D01*
X68202010Y-106231808D01*
X68515019Y-106388204D01*
X69823223Y-105080000D01*
X70176777Y-105080000D01*
X71484981Y-106388204D01*
X71797990Y-106231808D01*
X71988149Y-105858906D01*
X72101904Y-105456071D01*
X72134884Y-105038784D01*
X72085822Y-104623080D01*
X71956603Y-104224936D01*
X71797990Y-103928192D01*
X71484981Y-103771796D01*
X70176777Y-105080000D01*
X69823223Y-105080000D01*
X68515019Y-103771796D01*
X68202010Y-103928192D01*
X68011851Y-104301094D01*
X67898096Y-104703929D01*
X67865116Y-105121216D01*
X65525000Y-105121216D01*
X65525000Y-103595019D01*
X68691796Y-103595019D01*
X70000000Y-104903223D01*
X71308204Y-103595019D01*
X71151808Y-103282010D01*
X70778906Y-103091851D01*
X70376071Y-102978096D01*
X69958784Y-102945116D01*
X69543080Y-102994178D01*
X69144936Y-103123397D01*
X68848192Y-103282010D01*
X68691796Y-103595019D01*
X65525000Y-103595019D01*
X65525000Y-98500000D01*
X67997581Y-98500000D01*
X67997581Y-101500000D01*
X68007235Y-101598017D01*
X68035825Y-101692267D01*
X68082254Y-101779129D01*
X68144736Y-101855264D01*
X68220871Y-101917746D01*
X68307733Y-101964175D01*
X68401983Y-101992765D01*
X68500000Y-102002419D01*
X71500000Y-102002419D01*
X71598017Y-101992765D01*
X71692267Y-101964175D01*
X71779129Y-101917746D01*
X71855264Y-101855264D01*
X71917746Y-101779129D01*
X71964175Y-101692267D01*
X71992765Y-101598017D01*
X72002419Y-101500000D01*
X72002419Y-98500000D01*
X71992765Y-98401983D01*
X71964175Y-98307733D01*
X71917746Y-98220871D01*
X71855264Y-98144736D01*
X71779129Y-98082254D01*
X71692267Y-98035825D01*
X71598017Y-98007235D01*
X71500000Y-97997581D01*
X68500000Y-97997581D01*
X68401983Y-98007235D01*
X68307733Y-98035825D01*
X68220871Y-98082254D01*
X68144736Y-98144736D01*
X68082254Y-98220871D01*
X68035825Y-98307733D01*
X68007235Y-98401983D01*
X67997581Y-98500000D01*
X65525000Y-98500000D01*
X65525000Y-92125000D01*
X95448224Y-92125000D01*
X96558309Y-93235085D01*
X96558309Y-93235085D01*
G37*
X96558309Y-93235085D02*
X96458203Y-93359660D01*
X96385040Y-93500000D01*
X78250000Y-93500000D01*
X78152455Y-93509607D01*
X78058658Y-93538060D01*
X77972215Y-93584265D01*
X77896447Y-93646447D01*
X77834265Y-93722215D01*
X77788060Y-93808658D01*
X77759607Y-93902455D01*
X77750000Y-94000000D01*
X77750000Y-100000000D01*
X77759607Y-100097545D01*
X77788060Y-100191342D01*
X77834265Y-100277785D01*
X77896447Y-100353553D01*
X83146447Y-105603553D01*
X83222215Y-105665735D01*
X83308658Y-105711940D01*
X83402455Y-105740393D01*
X83500000Y-105750000D01*
X83616118Y-105750000D01*
X85286346Y-107420229D01*
X85305920Y-107444080D01*
X85329769Y-107463652D01*
X85401087Y-107522182D01*
X85401089Y-107522183D01*
X85509666Y-107580219D01*
X85627479Y-107615957D01*
X85719296Y-107625000D01*
X85719305Y-107625000D01*
X85749999Y-107628023D01*
X85780693Y-107625000D01*
X87602207Y-107625000D01*
X87676283Y-107699076D01*
X87823690Y-107797570D01*
X87987480Y-107865414D01*
X88161358Y-107900000D01*
X88338642Y-107900000D01*
X88512520Y-107865414D01*
X88676310Y-107797570D01*
X88823717Y-107699076D01*
X88949076Y-107573717D01*
X89047570Y-107426310D01*
X89115414Y-107262520D01*
X89150000Y-107088642D01*
X89150000Y-106911358D01*
X89115414Y-106737480D01*
X89047570Y-106573690D01*
X88949076Y-106426283D01*
X88823717Y-106300924D01*
X88676310Y-106202430D01*
X88512520Y-106134586D01*
X88338642Y-106100000D01*
X88161358Y-106100000D01*
X87987480Y-106134586D01*
X87823690Y-106202430D01*
X87676283Y-106300924D01*
X87602207Y-106375000D01*
X86008883Y-106375000D01*
X85163902Y-105530019D01*
X85165735Y-105527785D01*
X85211940Y-105441342D01*
X85240393Y-105347545D01*
X85250000Y-105250000D01*
X85250000Y-104311358D01*
X134700000Y-104311358D01*
X134700000Y-104488642D01*
X134734586Y-104662520D01*
X134802430Y-104826310D01*
X134900924Y-104973717D01*
X135026283Y-105099076D01*
X135173690Y-105197570D01*
X135337480Y-105265414D01*
X135511358Y-105300000D01*
X135688642Y-105300000D01*
X135862520Y-105265414D01*
X136026310Y-105197570D01*
X136097504Y-105150000D01*
X142889341Y-105150000D01*
X146050000Y-108310660D01*
X146050001Y-109102495D01*
X146002430Y-109173690D01*
X145934586Y-109337480D01*
X145900000Y-109511358D01*
X145900000Y-109688642D01*
X145934586Y-109862520D01*
X146002430Y-110026310D01*
X146100924Y-110173717D01*
X146226283Y-110299076D01*
X146373690Y-110397570D01*
X146537480Y-110465414D01*
X146711358Y-110500000D01*
X146888642Y-110500000D01*
X147062520Y-110465414D01*
X147226310Y-110397570D01*
X147373717Y-110299076D01*
X147499076Y-110173717D01*
X147597570Y-110026310D01*
X147665414Y-109862520D01*
X147700000Y-109688642D01*
X147700000Y-109511358D01*
X147665414Y-109337480D01*
X147597570Y-109173690D01*
X147550000Y-109102496D01*
X147550000Y-108036828D01*
X147553627Y-108000000D01*
X147550000Y-107963172D01*
X147550000Y-107963165D01*
X147539147Y-107852974D01*
X147496261Y-107711599D01*
X147426619Y-107581307D01*
X147332895Y-107467105D01*
X147304287Y-107443627D01*
X143756379Y-103895720D01*
X143732895Y-103867105D01*
X143618693Y-103773381D01*
X143488401Y-103703739D01*
X143347026Y-103660853D01*
X143236835Y-103650000D01*
X143236827Y-103650000D01*
X143200000Y-103646373D01*
X143163173Y-103650000D01*
X136097504Y-103650000D01*
X136026310Y-103602430D01*
X135862520Y-103534586D01*
X135688642Y-103500000D01*
X135511358Y-103500000D01*
X135337480Y-103534586D01*
X135173690Y-103602430D01*
X135026283Y-103700924D01*
X134900924Y-103826283D01*
X134802430Y-103973690D01*
X134734586Y-104137480D01*
X134700000Y-104311358D01*
X85250000Y-104311358D01*
X85250000Y-102161358D01*
X87600000Y-102161358D01*
X87600000Y-102338642D01*
X87634586Y-102512520D01*
X87702430Y-102676310D01*
X87751668Y-102750000D01*
X87702430Y-102823690D01*
X87634586Y-102987480D01*
X87600000Y-103161358D01*
X87600000Y-103338642D01*
X87634586Y-103512520D01*
X87702430Y-103676310D01*
X87800924Y-103823717D01*
X87926283Y-103949076D01*
X88073690Y-104047570D01*
X88237480Y-104115414D01*
X88411358Y-104150000D01*
X88588642Y-104150000D01*
X88762520Y-104115414D01*
X88926310Y-104047570D01*
X89073717Y-103949076D01*
X89199076Y-103823717D01*
X89297570Y-103676310D01*
X89365414Y-103512520D01*
X89400000Y-103338642D01*
X89400000Y-103161358D01*
X89365414Y-102987480D01*
X89297570Y-102823690D01*
X89248332Y-102750000D01*
X89297570Y-102676310D01*
X89365414Y-102512520D01*
X89400000Y-102338642D01*
X89400000Y-102161358D01*
X89365414Y-101987480D01*
X89297570Y-101823690D01*
X89248076Y-101749617D01*
X89323717Y-101699076D01*
X89449076Y-101573717D01*
X89547570Y-101426310D01*
X89615414Y-101262520D01*
X89650000Y-101088642D01*
X89650000Y-100911358D01*
X90350000Y-100911358D01*
X90350000Y-101088642D01*
X90384586Y-101262520D01*
X90452430Y-101426310D01*
X90550924Y-101573717D01*
X90606398Y-101629191D01*
X90600000Y-101661358D01*
X90600000Y-101838642D01*
X90634586Y-102012520D01*
X90702430Y-102176310D01*
X90800924Y-102323717D01*
X90926283Y-102449076D01*
X91073690Y-102547570D01*
X91237480Y-102615414D01*
X91411358Y-102650000D01*
X91588642Y-102650000D01*
X91762520Y-102615414D01*
X91926310Y-102547570D01*
X92073717Y-102449076D01*
X92111435Y-102411358D01*
X136850000Y-102411358D01*
X136850000Y-102588642D01*
X136884586Y-102762520D01*
X136952430Y-102926310D01*
X137050924Y-103073717D01*
X137176283Y-103199076D01*
X137323690Y-103297570D01*
X137487480Y-103365414D01*
X137661358Y-103400000D01*
X137838642Y-103400000D01*
X138012520Y-103365414D01*
X138176310Y-103297570D01*
X138323717Y-103199076D01*
X138449076Y-103073717D01*
X138547570Y-102926310D01*
X138615414Y-102762520D01*
X138650000Y-102588642D01*
X138650000Y-102411358D01*
X138615414Y-102237480D01*
X138547570Y-102073690D01*
X138449076Y-101926283D01*
X138323717Y-101800924D01*
X138176310Y-101702430D01*
X138012520Y-101634586D01*
X137838642Y-101600000D01*
X137661358Y-101600000D01*
X137487480Y-101634586D01*
X137323690Y-101702430D01*
X137176283Y-101800924D01*
X137050924Y-101926283D01*
X136952430Y-102073690D01*
X136884586Y-102237480D01*
X136850000Y-102411358D01*
X92111435Y-102411358D01*
X92199076Y-102323717D01*
X92297570Y-102176310D01*
X92365414Y-102012520D01*
X92400000Y-101838642D01*
X92400000Y-101661358D01*
X92365414Y-101487480D01*
X92297570Y-101323690D01*
X92199076Y-101176283D01*
X92143602Y-101120809D01*
X92150000Y-101088642D01*
X92150000Y-100911358D01*
X92145028Y-100886358D01*
X104600000Y-100886358D01*
X104600000Y-101063642D01*
X104634586Y-101237520D01*
X104702430Y-101401310D01*
X104800924Y-101548717D01*
X104926283Y-101674076D01*
X105073690Y-101772570D01*
X105237480Y-101840414D01*
X105411358Y-101875000D01*
X105588642Y-101875000D01*
X105762520Y-101840414D01*
X105926310Y-101772570D01*
X106073717Y-101674076D01*
X106199076Y-101548717D01*
X106297570Y-101401310D01*
X106365414Y-101237520D01*
X106400000Y-101063642D01*
X106400000Y-100886358D01*
X106365414Y-100712480D01*
X106297570Y-100548690D01*
X106199076Y-100401283D01*
X106073717Y-100275924D01*
X105926310Y-100177430D01*
X105762520Y-100109586D01*
X105588642Y-100075000D01*
X105411358Y-100075000D01*
X105237480Y-100109586D01*
X105073690Y-100177430D01*
X104926283Y-100275924D01*
X104800924Y-100401283D01*
X104702430Y-100548690D01*
X104634586Y-100712480D01*
X104600000Y-100886358D01*
X92145028Y-100886358D01*
X92115414Y-100737480D01*
X92047570Y-100573690D01*
X91949076Y-100426283D01*
X91823717Y-100300924D01*
X91676310Y-100202430D01*
X91512520Y-100134586D01*
X91338642Y-100100000D01*
X91161358Y-100100000D01*
X90987480Y-100134586D01*
X90823690Y-100202430D01*
X90676283Y-100300924D01*
X90550924Y-100426283D01*
X90452430Y-100573690D01*
X90384586Y-100737480D01*
X90350000Y-100911358D01*
X89650000Y-100911358D01*
X89615414Y-100737480D01*
X89547570Y-100573690D01*
X89449076Y-100426283D01*
X89323717Y-100300924D01*
X89176310Y-100202430D01*
X89012520Y-100134586D01*
X88838642Y-100100000D01*
X88661358Y-100100000D01*
X88487480Y-100134586D01*
X88323690Y-100202430D01*
X88176283Y-100300924D01*
X88050924Y-100426283D01*
X87952430Y-100573690D01*
X87884586Y-100737480D01*
X87850000Y-100911358D01*
X87850000Y-101088642D01*
X87884586Y-101262520D01*
X87952430Y-101426310D01*
X88001924Y-101500383D01*
X87926283Y-101550924D01*
X87800924Y-101676283D01*
X87702430Y-101823690D01*
X87634586Y-101987480D01*
X87600000Y-102161358D01*
X85250000Y-102161358D01*
X85250000Y-99748405D01*
X100401597Y-99699997D01*
X100520760Y-99685198D01*
X100613097Y-99652316D01*
X100697245Y-99602051D01*
X100769970Y-99536336D01*
X102608140Y-97514349D01*
X102719477Y-97503383D01*
X102930519Y-97439364D01*
X103125017Y-97335403D01*
X103295495Y-97195495D01*
X103435403Y-97025017D01*
X103539364Y-96830519D01*
X103603383Y-96619477D01*
X103625000Y-96400000D01*
X103625000Y-94625000D01*
X105750001Y-94625000D01*
X105750001Y-95002495D01*
X105702430Y-95073690D01*
X105634586Y-95237480D01*
X105600000Y-95411358D01*
X105600000Y-95588642D01*
X105634586Y-95762520D01*
X105702430Y-95926310D01*
X105800924Y-96073717D01*
X105926283Y-96199076D01*
X106073690Y-96297570D01*
X106237480Y-96365414D01*
X106411358Y-96400000D01*
X106588642Y-96400000D01*
X106762520Y-96365414D01*
X106926310Y-96297570D01*
X107073717Y-96199076D01*
X107199076Y-96073717D01*
X107297570Y-95926310D01*
X107365414Y-95762520D01*
X107400000Y-95588642D01*
X107400000Y-95411358D01*
X107365414Y-95237480D01*
X107297570Y-95073690D01*
X107250000Y-95002496D01*
X107250000Y-94625000D01*
X107750001Y-94625000D01*
X107750001Y-94963163D01*
X107746373Y-95000000D01*
X107760853Y-95147025D01*
X107803739Y-95288400D01*
X107803740Y-95288401D01*
X107873382Y-95418693D01*
X107916131Y-95470782D01*
X107943624Y-95504283D01*
X107943627Y-95504286D01*
X107967106Y-95532895D01*
X107995715Y-95556374D01*
X109117882Y-96678543D01*
X109134586Y-96762520D01*
X109202430Y-96926310D01*
X109300924Y-97073717D01*
X109426283Y-97199076D01*
X109573690Y-97297570D01*
X109737480Y-97365414D01*
X109911358Y-97400000D01*
X110088642Y-97400000D01*
X110262520Y-97365414D01*
X110426310Y-97297570D01*
X110491858Y-97253772D01*
X155500000Y-97253772D01*
X155500000Y-97746228D01*
X155596074Y-98229223D01*
X155784529Y-98684194D01*
X156058124Y-99093657D01*
X156406343Y-99441876D01*
X156815806Y-99715471D01*
X157270777Y-99903926D01*
X157753772Y-100000000D01*
X158246228Y-100000000D01*
X158729223Y-99903926D01*
X159184194Y-99715471D01*
X159593657Y-99441876D01*
X159941876Y-99093657D01*
X160215471Y-98684194D01*
X160403926Y-98229223D01*
X160500000Y-97746228D01*
X160500000Y-97253772D01*
X160403926Y-96770777D01*
X160215471Y-96315806D01*
X159941876Y-95906343D01*
X159593657Y-95558124D01*
X159184194Y-95284529D01*
X158729223Y-95096074D01*
X158246228Y-95000000D01*
X157753772Y-95000000D01*
X157270777Y-95096074D01*
X156815806Y-95284529D01*
X156406343Y-95558124D01*
X156058124Y-95906343D01*
X155784529Y-96315806D01*
X155596074Y-96770777D01*
X155500000Y-97253772D01*
X110491858Y-97253772D01*
X110573717Y-97199076D01*
X110699076Y-97073717D01*
X110797570Y-96926310D01*
X110865414Y-96762520D01*
X110900000Y-96588642D01*
X110900000Y-96411358D01*
X110865414Y-96237480D01*
X110797570Y-96073690D01*
X110699076Y-95926283D01*
X110573717Y-95800924D01*
X110426310Y-95702430D01*
X110262520Y-95634586D01*
X110178543Y-95617882D01*
X109250000Y-94689341D01*
X109250000Y-94625000D01*
X114948224Y-94625000D01*
X116911612Y-96588388D01*
X116930554Y-96603934D01*
X116952165Y-96615485D01*
X116975614Y-96622598D01*
X117000000Y-96625000D01*
X133000000Y-96625000D01*
X133024386Y-96622598D01*
X133047835Y-96615485D01*
X133069446Y-96603934D01*
X133088388Y-96588388D01*
X136051776Y-93625000D01*
X161975000Y-93625000D01*
X161975000Y-135475000D01*
X65525000Y-135475000D01*
X65525000Y-131253772D01*
X67000000Y-131253772D01*
X67000000Y-131746228D01*
X67096074Y-132229223D01*
X67284529Y-132684194D01*
X67558124Y-133093657D01*
X67906343Y-133441876D01*
X68315806Y-133715471D01*
X68770777Y-133903926D01*
X69253772Y-134000000D01*
X69746228Y-134000000D01*
X70229223Y-133903926D01*
X70684194Y-133715471D01*
X71093657Y-133441876D01*
X71441876Y-133093657D01*
X71715471Y-132684194D01*
X71903926Y-132229223D01*
X72000000Y-131746228D01*
X72000000Y-131253772D01*
X155500000Y-131253772D01*
X155500000Y-131746228D01*
X155596074Y-132229223D01*
X155784529Y-132684194D01*
X156058124Y-133093657D01*
X156406343Y-133441876D01*
X156815806Y-133715471D01*
X157270777Y-133903926D01*
X157753772Y-134000000D01*
X158246228Y-134000000D01*
X158729223Y-133903926D01*
X159184194Y-133715471D01*
X159593657Y-133441876D01*
X159941876Y-133093657D01*
X160215471Y-132684194D01*
X160403926Y-132229223D01*
X160500000Y-131746228D01*
X160500000Y-131253772D01*
X160403926Y-130770777D01*
X160215471Y-130315806D01*
X159941876Y-129906343D01*
X159593657Y-129558124D01*
X159184194Y-129284529D01*
X158729223Y-129096074D01*
X158246228Y-129000000D01*
X157753772Y-129000000D01*
X157270777Y-129096074D01*
X156815806Y-129284529D01*
X156406343Y-129558124D01*
X156058124Y-129906343D01*
X155784529Y-130315806D01*
X155596074Y-130770777D01*
X155500000Y-131253772D01*
X72000000Y-131253772D01*
X71903926Y-130770777D01*
X71715471Y-130315806D01*
X71441876Y-129906343D01*
X71093657Y-129558124D01*
X70684194Y-129284529D01*
X70229223Y-129096074D01*
X69746228Y-129000000D01*
X69253772Y-129000000D01*
X68770777Y-129096074D01*
X68315806Y-129284529D01*
X67906343Y-129558124D01*
X67558124Y-129906343D01*
X67284529Y-130315806D01*
X67096074Y-130770777D01*
X67000000Y-131253772D01*
X65525000Y-131253772D01*
X65525000Y-113750000D01*
X70500000Y-113750000D01*
X70500000Y-117750000D01*
X70509607Y-117847545D01*
X70538060Y-117941342D01*
X70584265Y-118027785D01*
X70646447Y-118103553D01*
X70722215Y-118165735D01*
X70808658Y-118211940D01*
X70902455Y-118240393D01*
X71000000Y-118250000D01*
X73292894Y-118250000D01*
X73500000Y-118457106D01*
X73500000Y-128000000D01*
X73509607Y-128097545D01*
X73538060Y-128191342D01*
X73584265Y-128277785D01*
X73646447Y-128353553D01*
X75500000Y-130207106D01*
X75500000Y-130500000D01*
X75509607Y-130597545D01*
X75538060Y-130691342D01*
X75584265Y-130777785D01*
X75646447Y-130853553D01*
X75722215Y-130915735D01*
X75808658Y-130961940D01*
X75902455Y-130990393D01*
X76000000Y-131000000D01*
X77000000Y-131000000D01*
X77097545Y-130990393D01*
X77191342Y-130961940D01*
X77277785Y-130915735D01*
X77353553Y-130853553D01*
X78353553Y-129853553D01*
X78415735Y-129777785D01*
X78461940Y-129691342D01*
X78490393Y-129597545D01*
X78500000Y-129500000D01*
X78500000Y-129311358D01*
X111300000Y-129311358D01*
X111300000Y-129488642D01*
X111334586Y-129662520D01*
X111402430Y-129826310D01*
X111500924Y-129973717D01*
X111626283Y-130099076D01*
X111773690Y-130197570D01*
X111937480Y-130265414D01*
X112111358Y-130300000D01*
X112288642Y-130300000D01*
X112462520Y-130265414D01*
X112626310Y-130197570D01*
X112773717Y-130099076D01*
X112899076Y-129973717D01*
X112997570Y-129826310D01*
X113065414Y-129662520D01*
X113100000Y-129488642D01*
X113100000Y-129311358D01*
X113065414Y-129137480D01*
X112997570Y-128973690D01*
X112955922Y-128911358D01*
X133100000Y-128911358D01*
X133100000Y-129088642D01*
X133134586Y-129262520D01*
X133202430Y-129426310D01*
X133300924Y-129573717D01*
X133426283Y-129699076D01*
X133573690Y-129797570D01*
X133737480Y-129865414D01*
X133911358Y-129900000D01*
X134088642Y-129900000D01*
X134262520Y-129865414D01*
X134426310Y-129797570D01*
X134573717Y-129699076D01*
X134699076Y-129573717D01*
X134797570Y-129426310D01*
X134865414Y-129262520D01*
X134900000Y-129088642D01*
X134900000Y-128911358D01*
X134865414Y-128737480D01*
X134797570Y-128573690D01*
X134699076Y-128426283D01*
X134573717Y-128300924D01*
X134426310Y-128202430D01*
X134262520Y-128134586D01*
X134088642Y-128100000D01*
X133911358Y-128100000D01*
X133737480Y-128134586D01*
X133573690Y-128202430D01*
X133426283Y-128300924D01*
X133300924Y-128426283D01*
X133202430Y-128573690D01*
X133134586Y-128737480D01*
X133100000Y-128911358D01*
X112955922Y-128911358D01*
X112899076Y-128826283D01*
X112773717Y-128700924D01*
X112626310Y-128602430D01*
X112462520Y-128534586D01*
X112288642Y-128500000D01*
X112111358Y-128500000D01*
X111937480Y-128534586D01*
X111773690Y-128602430D01*
X111626283Y-128700924D01*
X111500924Y-128826283D01*
X111402430Y-128973690D01*
X111334586Y-129137480D01*
X111300000Y-129311358D01*
X78500000Y-129311358D01*
X78500000Y-127161358D01*
X78600000Y-127161358D01*
X78600000Y-127338642D01*
X78634586Y-127512520D01*
X78702430Y-127676310D01*
X78800924Y-127823717D01*
X78926283Y-127949076D01*
X79073690Y-128047570D01*
X79237480Y-128115414D01*
X79411358Y-128150000D01*
X79588642Y-128150000D01*
X79762520Y-128115414D01*
X79926310Y-128047570D01*
X80073717Y-127949076D01*
X80199076Y-127823717D01*
X80297570Y-127676310D01*
X80365414Y-127512520D01*
X80400000Y-127338642D01*
X80400000Y-127161358D01*
X80365414Y-126987480D01*
X80297570Y-126823690D01*
X80199076Y-126676283D01*
X80073717Y-126550924D01*
X79926310Y-126452430D01*
X79762520Y-126384586D01*
X79588642Y-126350000D01*
X79411358Y-126350000D01*
X79237480Y-126384586D01*
X79073690Y-126452430D01*
X78926283Y-126550924D01*
X78800924Y-126676283D01*
X78702430Y-126823690D01*
X78634586Y-126987480D01*
X78600000Y-127161358D01*
X78500000Y-127161358D01*
X78500000Y-125661358D01*
X81600000Y-125661358D01*
X81600000Y-125838642D01*
X81634586Y-126012520D01*
X81702430Y-126176310D01*
X81800924Y-126323717D01*
X81926283Y-126449076D01*
X82073690Y-126547570D01*
X82237480Y-126615414D01*
X82411358Y-126650000D01*
X82588642Y-126650000D01*
X82762520Y-126615414D01*
X82926310Y-126547570D01*
X83073717Y-126449076D01*
X83199076Y-126323717D01*
X83297570Y-126176310D01*
X83365414Y-126012520D01*
X83400000Y-125838642D01*
X83400000Y-125661358D01*
X83365414Y-125487480D01*
X83297570Y-125323690D01*
X83199076Y-125176283D01*
X83073717Y-125050924D01*
X82926310Y-124952430D01*
X82762520Y-124884586D01*
X82588642Y-124850000D01*
X82411358Y-124850000D01*
X82237480Y-124884586D01*
X82073690Y-124952430D01*
X81926283Y-125050924D01*
X81800924Y-125176283D01*
X81702430Y-125323690D01*
X81634586Y-125487480D01*
X81600000Y-125661358D01*
X78500000Y-125661358D01*
X78500000Y-124161358D01*
X78600000Y-124161358D01*
X78600000Y-124338642D01*
X78634586Y-124512520D01*
X78702430Y-124676310D01*
X78800924Y-124823717D01*
X78926283Y-124949076D01*
X79073690Y-125047570D01*
X79237480Y-125115414D01*
X79411358Y-125150000D01*
X79588642Y-125150000D01*
X79762520Y-125115414D01*
X79926310Y-125047570D01*
X80073717Y-124949076D01*
X80199076Y-124823717D01*
X80297570Y-124676310D01*
X80365414Y-124512520D01*
X80400000Y-124338642D01*
X80400000Y-124311358D01*
X117500000Y-124311358D01*
X117500000Y-124488642D01*
X117534586Y-124662520D01*
X117602430Y-124826310D01*
X117700924Y-124973717D01*
X117826283Y-125099076D01*
X117973690Y-125197570D01*
X118100000Y-125249889D01*
X118100000Y-125288642D01*
X118134586Y-125462520D01*
X118202430Y-125626310D01*
X118300924Y-125773717D01*
X118426283Y-125899076D01*
X118573690Y-125997570D01*
X118737480Y-126065414D01*
X118911358Y-126100000D01*
X119088642Y-126100000D01*
X119262520Y-126065414D01*
X119426310Y-125997570D01*
X119573717Y-125899076D01*
X119699076Y-125773717D01*
X119797570Y-125626310D01*
X119865414Y-125462520D01*
X119900000Y-125288642D01*
X119900000Y-125111358D01*
X119865414Y-124937480D01*
X119797570Y-124773690D01*
X119699076Y-124626283D01*
X119573717Y-124500924D01*
X119426310Y-124402430D01*
X119300000Y-124350111D01*
X119300000Y-124311358D01*
X119265414Y-124137480D01*
X119197570Y-123973690D01*
X119099076Y-123826283D01*
X118973717Y-123700924D01*
X118826310Y-123602430D01*
X118662520Y-123534586D01*
X118488642Y-123500000D01*
X118311358Y-123500000D01*
X118137480Y-123534586D01*
X117973690Y-123602430D01*
X117826283Y-123700924D01*
X117700924Y-123826283D01*
X117602430Y-123973690D01*
X117534586Y-124137480D01*
X117500000Y-124311358D01*
X80400000Y-124311358D01*
X80400000Y-124161358D01*
X80365414Y-123987480D01*
X80297570Y-123823690D01*
X80199076Y-123676283D01*
X80073717Y-123550924D01*
X79926310Y-123452430D01*
X79762520Y-123384586D01*
X79588642Y-123350000D01*
X79411358Y-123350000D01*
X79237480Y-123384586D01*
X79073690Y-123452430D01*
X78926283Y-123550924D01*
X78800924Y-123676283D01*
X78702430Y-123823690D01*
X78634586Y-123987480D01*
X78600000Y-124161358D01*
X78500000Y-124161358D01*
X78500000Y-121711358D01*
X120500000Y-121711358D01*
X120500000Y-121888642D01*
X120534586Y-122062520D01*
X120602430Y-122226310D01*
X120700924Y-122373717D01*
X120826283Y-122499076D01*
X120973690Y-122597570D01*
X121137480Y-122665414D01*
X121311358Y-122700000D01*
X121488642Y-122700000D01*
X121662520Y-122665414D01*
X121826310Y-122597570D01*
X121973717Y-122499076D01*
X122099076Y-122373717D01*
X122197570Y-122226310D01*
X122265414Y-122062520D01*
X122300000Y-121888642D01*
X122300000Y-121874460D01*
X122361108Y-121800000D01*
X122374400Y-121783804D01*
X122413123Y-121711358D01*
X122438240Y-121664368D01*
X122477552Y-121534773D01*
X122487500Y-121433769D01*
X122487500Y-121433768D01*
X122490826Y-121400001D01*
X122487500Y-121366234D01*
X122487500Y-118411358D01*
X124000000Y-118411358D01*
X124000000Y-118588642D01*
X124034586Y-118762520D01*
X124102430Y-118926310D01*
X124200924Y-119073717D01*
X124326283Y-119199076D01*
X124473690Y-119297570D01*
X124637480Y-119365414D01*
X124811358Y-119400000D01*
X124988642Y-119400000D01*
X125162520Y-119365414D01*
X125326310Y-119297570D01*
X125473717Y-119199076D01*
X125550000Y-119122793D01*
X125626283Y-119199076D01*
X125773690Y-119297570D01*
X125937480Y-119365414D01*
X126111358Y-119400000D01*
X126288642Y-119400000D01*
X126462520Y-119365414D01*
X126626310Y-119297570D01*
X126773717Y-119199076D01*
X126899076Y-119073717D01*
X126997570Y-118926310D01*
X127065414Y-118762520D01*
X127100000Y-118588642D01*
X127100000Y-118411358D01*
X127065414Y-118237480D01*
X126997570Y-118073690D01*
X126899076Y-117926283D01*
X126773717Y-117800924D01*
X126626310Y-117702430D01*
X126462520Y-117634586D01*
X126288642Y-117600000D01*
X126111358Y-117600000D01*
X125937480Y-117634586D01*
X125773690Y-117702430D01*
X125626283Y-117800924D01*
X125550000Y-117877207D01*
X125473717Y-117800924D01*
X125326310Y-117702430D01*
X125162520Y-117634586D01*
X124988642Y-117600000D01*
X124811358Y-117600000D01*
X124637480Y-117634586D01*
X124473690Y-117702430D01*
X124326283Y-117800924D01*
X124200924Y-117926283D01*
X124102430Y-118073690D01*
X124034586Y-118237480D01*
X124000000Y-118411358D01*
X122487500Y-118411358D01*
X122487500Y-116185293D01*
X122499076Y-116173717D01*
X122597570Y-116026310D01*
X122665414Y-115862520D01*
X122700000Y-115688642D01*
X122700000Y-115511358D01*
X122665414Y-115337480D01*
X122597570Y-115173690D01*
X122499076Y-115026283D01*
X122373717Y-114900924D01*
X122226310Y-114802430D01*
X122062520Y-114734586D01*
X121888642Y-114700000D01*
X121711358Y-114700000D01*
X121537480Y-114734586D01*
X121373690Y-114802430D01*
X121226283Y-114900924D01*
X121100924Y-115026283D01*
X121002430Y-115173690D01*
X120934586Y-115337480D01*
X120900000Y-115511358D01*
X120900000Y-115688642D01*
X120934586Y-115862520D01*
X121002430Y-116026310D01*
X121100924Y-116173717D01*
X121112500Y-116185293D01*
X121112501Y-120944933D01*
X120973690Y-121002430D01*
X120826283Y-121100924D01*
X120700924Y-121226283D01*
X120602430Y-121373690D01*
X120534586Y-121537480D01*
X120500000Y-121711358D01*
X78500000Y-121711358D01*
X78500000Y-120511358D01*
X96500000Y-120511358D01*
X96500000Y-120688642D01*
X96534586Y-120862520D01*
X96602430Y-121026310D01*
X96700924Y-121173717D01*
X96826283Y-121299076D01*
X96973690Y-121397570D01*
X97137480Y-121465414D01*
X97311358Y-121500000D01*
X97488642Y-121500000D01*
X97662520Y-121465414D01*
X97826310Y-121397570D01*
X97973717Y-121299076D01*
X98099076Y-121173717D01*
X98197570Y-121026310D01*
X98265414Y-120862520D01*
X98300000Y-120688642D01*
X98300000Y-120511358D01*
X98265414Y-120337480D01*
X98197570Y-120173690D01*
X98099076Y-120026283D01*
X97973717Y-119900924D01*
X97826310Y-119802430D01*
X97662520Y-119734586D01*
X97488642Y-119700000D01*
X97311358Y-119700000D01*
X97137480Y-119734586D01*
X96973690Y-119802430D01*
X96826283Y-119900924D01*
X96700924Y-120026283D01*
X96602430Y-120173690D01*
X96534586Y-120337480D01*
X96500000Y-120511358D01*
X78500000Y-120511358D01*
X78500000Y-117911358D01*
X87500000Y-117911358D01*
X87500000Y-118088642D01*
X87534586Y-118262520D01*
X87602430Y-118426310D01*
X87700924Y-118573717D01*
X87826283Y-118699076D01*
X87973690Y-118797570D01*
X88137480Y-118865414D01*
X88311358Y-118900000D01*
X88488642Y-118900000D01*
X88662520Y-118865414D01*
X88826310Y-118797570D01*
X88955335Y-118711358D01*
X109500000Y-118711358D01*
X109500000Y-118888642D01*
X109534586Y-119062520D01*
X109602430Y-119226310D01*
X109700924Y-119373717D01*
X109826283Y-119499076D01*
X109973690Y-119597570D01*
X110137480Y-119665414D01*
X110311358Y-119700000D01*
X110488642Y-119700000D01*
X110502820Y-119697180D01*
X110500000Y-119711358D01*
X110500000Y-119888642D01*
X110534586Y-120062520D01*
X110602430Y-120226310D01*
X110700924Y-120373717D01*
X110826283Y-120499076D01*
X110973690Y-120597570D01*
X111137480Y-120665414D01*
X111311358Y-120700000D01*
X111488642Y-120700000D01*
X111662520Y-120665414D01*
X111826310Y-120597570D01*
X111973717Y-120499076D01*
X112099076Y-120373717D01*
X112197570Y-120226310D01*
X112265414Y-120062520D01*
X112300000Y-119888642D01*
X112300000Y-119711358D01*
X112265414Y-119537480D01*
X112197570Y-119373690D01*
X112099076Y-119226283D01*
X111973717Y-119100924D01*
X111826310Y-119002430D01*
X111662520Y-118934586D01*
X111488642Y-118900000D01*
X111311358Y-118900000D01*
X111297180Y-118902820D01*
X111300000Y-118888642D01*
X111300000Y-118711358D01*
X111265414Y-118537480D01*
X111197570Y-118373690D01*
X111099076Y-118226283D01*
X110973717Y-118100924D01*
X110826310Y-118002430D01*
X110662520Y-117934586D01*
X110488642Y-117900000D01*
X110311358Y-117900000D01*
X110137480Y-117934586D01*
X109973690Y-118002430D01*
X109826283Y-118100924D01*
X109700924Y-118226283D01*
X109602430Y-118373690D01*
X109534586Y-118537480D01*
X109500000Y-118711358D01*
X88955335Y-118711358D01*
X88973717Y-118699076D01*
X89099076Y-118573717D01*
X89197570Y-118426310D01*
X89265414Y-118262520D01*
X89300000Y-118088642D01*
X89300000Y-117911358D01*
X89265414Y-117737480D01*
X89197570Y-117573690D01*
X89099076Y-117426283D01*
X88973717Y-117300924D01*
X88826310Y-117202430D01*
X88662520Y-117134586D01*
X88488642Y-117100000D01*
X88311358Y-117100000D01*
X88137480Y-117134586D01*
X87973690Y-117202430D01*
X87826283Y-117300924D01*
X87700924Y-117426283D01*
X87602430Y-117573690D01*
X87534586Y-117737480D01*
X87500000Y-117911358D01*
X78500000Y-117911358D01*
X78500000Y-116371961D01*
X101450000Y-116371961D01*
X101450000Y-116628039D01*
X101499958Y-116879196D01*
X101597955Y-117115781D01*
X101740224Y-117328702D01*
X101921298Y-117509776D01*
X102134219Y-117652045D01*
X102370804Y-117750042D01*
X102621961Y-117800000D01*
X102878039Y-117800000D01*
X103129196Y-117750042D01*
X103365781Y-117652045D01*
X103578702Y-117509776D01*
X103759776Y-117328702D01*
X103771364Y-117311358D01*
X111300000Y-117311358D01*
X111300000Y-117488642D01*
X111334586Y-117662520D01*
X111402430Y-117826310D01*
X111500924Y-117973717D01*
X111626283Y-118099076D01*
X111773690Y-118197570D01*
X111937480Y-118265414D01*
X112111358Y-118300000D01*
X112288642Y-118300000D01*
X112462520Y-118265414D01*
X112626310Y-118197570D01*
X112697504Y-118150000D01*
X112963173Y-118150000D01*
X113000000Y-118153627D01*
X113036827Y-118150000D01*
X113036835Y-118150000D01*
X113147026Y-118139147D01*
X113288401Y-118096261D01*
X113418693Y-118026619D01*
X113532895Y-117932895D01*
X113556378Y-117904281D01*
X114778542Y-116682118D01*
X114862520Y-116665414D01*
X115026310Y-116597570D01*
X115173717Y-116499076D01*
X115299076Y-116373717D01*
X115397570Y-116226310D01*
X115465414Y-116062520D01*
X115500000Y-115888642D01*
X115500000Y-115711358D01*
X115465414Y-115537480D01*
X115397570Y-115373690D01*
X115299076Y-115226283D01*
X115173717Y-115100924D01*
X115026310Y-115002430D01*
X114862520Y-114934586D01*
X114688642Y-114900000D01*
X114511358Y-114900000D01*
X114337480Y-114934586D01*
X114173690Y-115002430D01*
X114026283Y-115100924D01*
X113900924Y-115226283D01*
X113802430Y-115373690D01*
X113734586Y-115537480D01*
X113717882Y-115621458D01*
X112692610Y-116646730D01*
X112626310Y-116602430D01*
X112462520Y-116534586D01*
X112288642Y-116500000D01*
X112111358Y-116500000D01*
X111937480Y-116534586D01*
X111773690Y-116602430D01*
X111626283Y-116700924D01*
X111500924Y-116826283D01*
X111402430Y-116973690D01*
X111334586Y-117137480D01*
X111300000Y-117311358D01*
X103771364Y-117311358D01*
X103902045Y-117115781D01*
X104000042Y-116879196D01*
X104050000Y-116628039D01*
X104050000Y-116371961D01*
X104000042Y-116120804D01*
X103902045Y-115884219D01*
X103759776Y-115671298D01*
X103578702Y-115490224D01*
X103365781Y-115347955D01*
X103129196Y-115249958D01*
X102878039Y-115200000D01*
X102621961Y-115200000D01*
X102370804Y-115249958D01*
X102134219Y-115347955D01*
X101921298Y-115490224D01*
X101740224Y-115671298D01*
X101597955Y-115884219D01*
X101499958Y-116120804D01*
X101450000Y-116371961D01*
X78500000Y-116371961D01*
X78500000Y-113750000D01*
X78490393Y-113652455D01*
X78461940Y-113558658D01*
X78415735Y-113472215D01*
X78353553Y-113396447D01*
X78277785Y-113334265D01*
X78191342Y-113288060D01*
X78097545Y-113259607D01*
X78000000Y-113250000D01*
X71000000Y-113250000D01*
X70902455Y-113259607D01*
X70808658Y-113288060D01*
X70722215Y-113334265D01*
X70646447Y-113396447D01*
X70584265Y-113472215D01*
X70538060Y-113558658D01*
X70509607Y-113652455D01*
X70500000Y-113750000D01*
X65525000Y-113750000D01*
X65525000Y-112871961D01*
X101450000Y-112871961D01*
X101450000Y-113128039D01*
X101499958Y-113379196D01*
X101597955Y-113615781D01*
X101740224Y-113828702D01*
X101921298Y-114009776D01*
X102134219Y-114152045D01*
X102370804Y-114250042D01*
X102621961Y-114300000D01*
X102878039Y-114300000D01*
X103129196Y-114250042D01*
X103365781Y-114152045D01*
X103578702Y-114009776D01*
X103627120Y-113961358D01*
X108600000Y-113961358D01*
X108600000Y-114138642D01*
X108634586Y-114312520D01*
X108702430Y-114476310D01*
X108800924Y-114623717D01*
X108926283Y-114749076D01*
X109073690Y-114847570D01*
X109237480Y-114915414D01*
X109411358Y-114950000D01*
X109588642Y-114950000D01*
X109762520Y-114915414D01*
X109926310Y-114847570D01*
X110073717Y-114749076D01*
X110199076Y-114623717D01*
X110297570Y-114476310D01*
X110365414Y-114312520D01*
X110400000Y-114138642D01*
X110400000Y-113961358D01*
X110365414Y-113787480D01*
X110297570Y-113623690D01*
X110199076Y-113476283D01*
X110073717Y-113350924D01*
X109926310Y-113252430D01*
X109762520Y-113184586D01*
X109588642Y-113150000D01*
X109411358Y-113150000D01*
X109237480Y-113184586D01*
X109073690Y-113252430D01*
X108926283Y-113350924D01*
X108800924Y-113476283D01*
X108702430Y-113623690D01*
X108634586Y-113787480D01*
X108600000Y-113961358D01*
X103627120Y-113961358D01*
X103759776Y-113828702D01*
X103902045Y-113615781D01*
X104000042Y-113379196D01*
X104050000Y-113128039D01*
X104050000Y-112871961D01*
X104000042Y-112620804D01*
X103902045Y-112384219D01*
X103759776Y-112171298D01*
X103699836Y-112111358D01*
X114500000Y-112111358D01*
X114500000Y-112288642D01*
X114534586Y-112462520D01*
X114602430Y-112626310D01*
X114700924Y-112773717D01*
X114826283Y-112899076D01*
X114973690Y-112997570D01*
X115111296Y-113054568D01*
X115100000Y-113111358D01*
X115100000Y-113288642D01*
X115134586Y-113462520D01*
X115202430Y-113626310D01*
X115300924Y-113773717D01*
X115426283Y-113899076D01*
X115573690Y-113997570D01*
X115737480Y-114065414D01*
X115911358Y-114100000D01*
X116088642Y-114100000D01*
X116262520Y-114065414D01*
X116426310Y-113997570D01*
X116573717Y-113899076D01*
X116699076Y-113773717D01*
X116797570Y-113626310D01*
X116865414Y-113462520D01*
X116895481Y-113311358D01*
X123500000Y-113311358D01*
X123500000Y-113488642D01*
X123534586Y-113662520D01*
X123602430Y-113826310D01*
X123700924Y-113973717D01*
X123826283Y-114099076D01*
X123973690Y-114197570D01*
X124137480Y-114265414D01*
X124311358Y-114300000D01*
X124488642Y-114300000D01*
X124662520Y-114265414D01*
X124826310Y-114197570D01*
X124973717Y-114099076D01*
X125099076Y-113973717D01*
X125197570Y-113826310D01*
X125265414Y-113662520D01*
X125300000Y-113488642D01*
X125300000Y-113472271D01*
X128084772Y-110687500D01*
X130566233Y-110687500D01*
X130600000Y-110690826D01*
X130633767Y-110687500D01*
X130633769Y-110687500D01*
X130734773Y-110677552D01*
X130864368Y-110638240D01*
X130983802Y-110574401D01*
X131088488Y-110488488D01*
X131110020Y-110462251D01*
X131684772Y-109887500D01*
X134446373Y-109887500D01*
X134426283Y-109900924D01*
X134300924Y-110026283D01*
X134202430Y-110173690D01*
X134135434Y-110335434D01*
X133973690Y-110402430D01*
X133826283Y-110500924D01*
X133700924Y-110626283D01*
X133602430Y-110773690D01*
X133534586Y-110937480D01*
X133500000Y-111111358D01*
X133500000Y-111251668D01*
X133426283Y-111300924D01*
X133300924Y-111426283D01*
X133202430Y-111573690D01*
X133134586Y-111737480D01*
X133100000Y-111911358D01*
X133100000Y-112088642D01*
X133134586Y-112262520D01*
X133202430Y-112426310D01*
X133300924Y-112573717D01*
X133426283Y-112699076D01*
X133573690Y-112797570D01*
X133737480Y-112865414D01*
X133911358Y-112900000D01*
X134088642Y-112900000D01*
X134262520Y-112865414D01*
X134426310Y-112797570D01*
X134573717Y-112699076D01*
X134699076Y-112573717D01*
X134797570Y-112426310D01*
X134865414Y-112262520D01*
X134900000Y-112088642D01*
X134900000Y-111948332D01*
X134973717Y-111899076D01*
X135099076Y-111773717D01*
X135197570Y-111626310D01*
X135264566Y-111464566D01*
X135426310Y-111397570D01*
X135573717Y-111299076D01*
X135699076Y-111173717D01*
X135797570Y-111026310D01*
X135865414Y-110862520D01*
X135900000Y-110688642D01*
X135900000Y-110511358D01*
X135865414Y-110337480D01*
X135797570Y-110173690D01*
X135699076Y-110026283D01*
X135573717Y-109900924D01*
X135553627Y-109887500D01*
X135915229Y-109887500D01*
X138112500Y-112084772D01*
X138112500Y-112366233D01*
X138109174Y-112400000D01*
X138112500Y-112433767D01*
X138112500Y-112433769D01*
X138122448Y-112534773D01*
X138161760Y-112664368D01*
X138225600Y-112783802D01*
X138311513Y-112888488D01*
X138337744Y-112910015D01*
X142289984Y-116862256D01*
X142311512Y-116888488D01*
X142416198Y-116974401D01*
X142535632Y-117038240D01*
X142665227Y-117077552D01*
X142766231Y-117087500D01*
X142766232Y-117087500D01*
X142799999Y-117090826D01*
X142833766Y-117087500D01*
X148566233Y-117087500D01*
X148600000Y-117090826D01*
X148633767Y-117087500D01*
X148633769Y-117087500D01*
X148734773Y-117077552D01*
X148864368Y-117038240D01*
X148983802Y-116974401D01*
X149088488Y-116888488D01*
X149110020Y-116862251D01*
X150462261Y-115510011D01*
X150488487Y-115488488D01*
X150574401Y-115383802D01*
X150638240Y-115264368D01*
X150677552Y-115134773D01*
X150687500Y-115033769D01*
X150687500Y-115033767D01*
X150690826Y-115000000D01*
X150689209Y-114983584D01*
X150699076Y-114973717D01*
X150797570Y-114826310D01*
X150865414Y-114662520D01*
X150900000Y-114488642D01*
X150900000Y-114311358D01*
X150865414Y-114137480D01*
X150797570Y-113973690D01*
X150699076Y-113826283D01*
X150573717Y-113700924D01*
X150426310Y-113602430D01*
X150262520Y-113534586D01*
X150088642Y-113500000D01*
X149911358Y-113500000D01*
X149737480Y-113534586D01*
X149573690Y-113602430D01*
X149426283Y-113700924D01*
X149300924Y-113826283D01*
X149202430Y-113973690D01*
X149134586Y-114137480D01*
X149100000Y-114311358D01*
X149100000Y-114488642D01*
X149134586Y-114662520D01*
X149202134Y-114825595D01*
X148315229Y-115712500D01*
X143084772Y-115712500D01*
X140683630Y-113311358D01*
X142100000Y-113311358D01*
X142100000Y-113488642D01*
X142134586Y-113662520D01*
X142202430Y-113826310D01*
X142300924Y-113973717D01*
X142426283Y-114099076D01*
X142573690Y-114197570D01*
X142737480Y-114265414D01*
X142911358Y-114300000D01*
X143088642Y-114300000D01*
X143262520Y-114265414D01*
X143426310Y-114197570D01*
X143573717Y-114099076D01*
X143699076Y-113973717D01*
X143797570Y-113826310D01*
X143865414Y-113662520D01*
X143900000Y-113488642D01*
X143900000Y-113311358D01*
X143865414Y-113137480D01*
X143797570Y-112973690D01*
X143699076Y-112826283D01*
X143584151Y-112711358D01*
X153700000Y-112711358D01*
X153700000Y-112888642D01*
X153734586Y-113062520D01*
X153802430Y-113226310D01*
X153900924Y-113373717D01*
X154026283Y-113499076D01*
X154173690Y-113597570D01*
X154337480Y-113665414D01*
X154511358Y-113700000D01*
X154688642Y-113700000D01*
X154862520Y-113665414D01*
X155026310Y-113597570D01*
X155173717Y-113499076D01*
X155299076Y-113373717D01*
X155397570Y-113226310D01*
X155465414Y-113062520D01*
X155500000Y-112888642D01*
X155500000Y-112711358D01*
X155465414Y-112537480D01*
X155397570Y-112373690D01*
X155299076Y-112226283D01*
X155173717Y-112100924D01*
X155026310Y-112002430D01*
X154862520Y-111934586D01*
X154688642Y-111900000D01*
X154511358Y-111900000D01*
X154337480Y-111934586D01*
X154173690Y-112002430D01*
X154026283Y-112100924D01*
X153900924Y-112226283D01*
X153802430Y-112373690D01*
X153734586Y-112537480D01*
X153700000Y-112711358D01*
X143584151Y-112711358D01*
X143573717Y-112700924D01*
X143426310Y-112602430D01*
X143262520Y-112534586D01*
X143088642Y-112500000D01*
X142911358Y-112500000D01*
X142737480Y-112534586D01*
X142573690Y-112602430D01*
X142426283Y-112700924D01*
X142300924Y-112826283D01*
X142202430Y-112973690D01*
X142134586Y-113137480D01*
X142100000Y-113311358D01*
X140683630Y-113311358D01*
X139487500Y-112115229D01*
X139487500Y-111833766D01*
X139490826Y-111799999D01*
X139484668Y-111737480D01*
X139477552Y-111665227D01*
X139438240Y-111535632D01*
X139374401Y-111416198D01*
X139288487Y-111311512D01*
X139262261Y-111289989D01*
X136710020Y-108737749D01*
X136688488Y-108711512D01*
X136583802Y-108625599D01*
X136464368Y-108561760D01*
X136334773Y-108522448D01*
X136233769Y-108512500D01*
X136233767Y-108512500D01*
X136200000Y-108509174D01*
X136166233Y-108512500D01*
X131433767Y-108512500D01*
X131400000Y-108509174D01*
X131366233Y-108512500D01*
X131366231Y-108512500D01*
X131265227Y-108522448D01*
X131135632Y-108561760D01*
X131016198Y-108625599D01*
X130911512Y-108711512D01*
X130889984Y-108737744D01*
X130315229Y-109312500D01*
X127833766Y-109312500D01*
X127799999Y-109309174D01*
X127766232Y-109312500D01*
X127766231Y-109312500D01*
X127665227Y-109322448D01*
X127535632Y-109361760D01*
X127416198Y-109425599D01*
X127311512Y-109511512D01*
X127289985Y-109537743D01*
X124327729Y-112500000D01*
X124311358Y-112500000D01*
X124137480Y-112534586D01*
X123973690Y-112602430D01*
X123826283Y-112700924D01*
X123700924Y-112826283D01*
X123602430Y-112973690D01*
X123534586Y-113137480D01*
X123500000Y-113311358D01*
X116895481Y-113311358D01*
X116900000Y-113288642D01*
X116900000Y-113111358D01*
X116865414Y-112937480D01*
X116797570Y-112773690D01*
X116699076Y-112626283D01*
X116573717Y-112500924D01*
X116426310Y-112402430D01*
X116288704Y-112345432D01*
X116300000Y-112288642D01*
X116300000Y-112111358D01*
X120500000Y-112111358D01*
X120500000Y-112288642D01*
X120534586Y-112462520D01*
X120602430Y-112626310D01*
X120700924Y-112773717D01*
X120826283Y-112899076D01*
X120973690Y-112997570D01*
X121137480Y-113065414D01*
X121311358Y-113100000D01*
X121488642Y-113100000D01*
X121662520Y-113065414D01*
X121826310Y-112997570D01*
X121973717Y-112899076D01*
X122099076Y-112773717D01*
X122197570Y-112626310D01*
X122265414Y-112462520D01*
X122300000Y-112288642D01*
X122300000Y-112111358D01*
X122265414Y-111937480D01*
X122197570Y-111773690D01*
X122099076Y-111626283D01*
X121973717Y-111500924D01*
X121826310Y-111402430D01*
X121662520Y-111334586D01*
X121488642Y-111300000D01*
X121311358Y-111300000D01*
X121137480Y-111334586D01*
X120973690Y-111402430D01*
X120826283Y-111500924D01*
X120700924Y-111626283D01*
X120602430Y-111773690D01*
X120534586Y-111937480D01*
X120500000Y-112111358D01*
X116300000Y-112111358D01*
X116265414Y-111937480D01*
X116197570Y-111773690D01*
X116099076Y-111626283D01*
X115973717Y-111500924D01*
X115826310Y-111402430D01*
X115662520Y-111334586D01*
X115488642Y-111300000D01*
X115311358Y-111300000D01*
X115137480Y-111334586D01*
X114973690Y-111402430D01*
X114826283Y-111500924D01*
X114700924Y-111626283D01*
X114602430Y-111773690D01*
X114534586Y-111937480D01*
X114500000Y-112111358D01*
X103699836Y-112111358D01*
X103578702Y-111990224D01*
X103365781Y-111847955D01*
X103129196Y-111749958D01*
X102878039Y-111700000D01*
X102621961Y-111700000D01*
X102370804Y-111749958D01*
X102134219Y-111847955D01*
X101921298Y-111990224D01*
X101740224Y-112171298D01*
X101597955Y-112384219D01*
X101499958Y-112620804D01*
X101450000Y-112871961D01*
X65525000Y-112871961D01*
X65525000Y-109963017D01*
X68000000Y-109963017D01*
X68000000Y-110356983D01*
X68076859Y-110743378D01*
X68227623Y-111107355D01*
X68446499Y-111434926D01*
X68725074Y-111713501D01*
X69052645Y-111932377D01*
X69416622Y-112083141D01*
X69803017Y-112160000D01*
X70196983Y-112160000D01*
X70583378Y-112083141D01*
X70947355Y-111932377D01*
X71274926Y-111713501D01*
X71553501Y-111434926D01*
X71772377Y-111107355D01*
X71923141Y-110743378D01*
X72000000Y-110356983D01*
X72000000Y-109963017D01*
X71989725Y-109911358D01*
X90900000Y-109911358D01*
X90900000Y-110088642D01*
X90934586Y-110262520D01*
X91002430Y-110426310D01*
X91100924Y-110573717D01*
X91226283Y-110699076D01*
X91373690Y-110797570D01*
X91500000Y-110849889D01*
X91500000Y-110888642D01*
X91534586Y-111062520D01*
X91602430Y-111226310D01*
X91700924Y-111373717D01*
X91826283Y-111499076D01*
X91973690Y-111597570D01*
X92137480Y-111665414D01*
X92311358Y-111700000D01*
X92488642Y-111700000D01*
X92662520Y-111665414D01*
X92826310Y-111597570D01*
X92973717Y-111499076D01*
X93099076Y-111373717D01*
X93197570Y-111226310D01*
X93265414Y-111062520D01*
X93300000Y-110888642D01*
X93300000Y-110711358D01*
X93265414Y-110537480D01*
X93197570Y-110373690D01*
X93099076Y-110226283D01*
X92973717Y-110100924D01*
X92826310Y-110002430D01*
X92700000Y-109950111D01*
X92700000Y-109911358D01*
X92665414Y-109737480D01*
X92597570Y-109573690D01*
X92499076Y-109426283D01*
X92373717Y-109300924D01*
X92226310Y-109202430D01*
X92062520Y-109134586D01*
X91888642Y-109100000D01*
X91711358Y-109100000D01*
X91537480Y-109134586D01*
X91373690Y-109202430D01*
X91226283Y-109300924D01*
X91100924Y-109426283D01*
X91002430Y-109573690D01*
X90934586Y-109737480D01*
X90900000Y-109911358D01*
X71989725Y-109911358D01*
X71923141Y-109576622D01*
X71772377Y-109212645D01*
X71553501Y-108885074D01*
X71379785Y-108711358D01*
X106100000Y-108711358D01*
X106100000Y-108888642D01*
X106134586Y-109062520D01*
X106202430Y-109226310D01*
X106300924Y-109373717D01*
X106426283Y-109499076D01*
X106573690Y-109597570D01*
X106737480Y-109665414D01*
X106911358Y-109700000D01*
X107088642Y-109700000D01*
X107262520Y-109665414D01*
X107426310Y-109597570D01*
X107573717Y-109499076D01*
X107699076Y-109373717D01*
X107797570Y-109226310D01*
X107865414Y-109062520D01*
X107900000Y-108888642D01*
X107900000Y-108711358D01*
X107865414Y-108537480D01*
X107797570Y-108373690D01*
X107699076Y-108226283D01*
X107573717Y-108100924D01*
X107426310Y-108002430D01*
X107262520Y-107934586D01*
X107088642Y-107900000D01*
X106911358Y-107900000D01*
X106737480Y-107934586D01*
X106573690Y-108002430D01*
X106426283Y-108100924D01*
X106300924Y-108226283D01*
X106202430Y-108373690D01*
X106134586Y-108537480D01*
X106100000Y-108711358D01*
X71379785Y-108711358D01*
X71274926Y-108606499D01*
X70947355Y-108387623D01*
X70583378Y-108236859D01*
X70196983Y-108160000D01*
X69803017Y-108160000D01*
X69416622Y-108236859D01*
X69052645Y-108387623D01*
X68725074Y-108606499D01*
X68446499Y-108885074D01*
X68227623Y-109212645D01*
X68076859Y-109576622D01*
X68000000Y-109963017D01*
X65525000Y-109963017D01*
X65525000Y-106564981D01*
X68691796Y-106564981D01*
X68848192Y-106877990D01*
X69221094Y-107068149D01*
X69623929Y-107181904D01*
X70041216Y-107214884D01*
X70456920Y-107165822D01*
X70855064Y-107036603D01*
X71151808Y-106877990D01*
X71308204Y-106564981D01*
X70000000Y-105256777D01*
X68691796Y-106564981D01*
X65525000Y-106564981D01*
X65525000Y-105121216D01*
X67865116Y-105121216D01*
X67914178Y-105536920D01*
X68043397Y-105935064D01*
X68202010Y-106231808D01*
X68515019Y-106388204D01*
X69823223Y-105080000D01*
X70176777Y-105080000D01*
X71484981Y-106388204D01*
X71797990Y-106231808D01*
X71988149Y-105858906D01*
X72101904Y-105456071D01*
X72134884Y-105038784D01*
X72085822Y-104623080D01*
X71956603Y-104224936D01*
X71797990Y-103928192D01*
X71484981Y-103771796D01*
X70176777Y-105080000D01*
X69823223Y-105080000D01*
X68515019Y-103771796D01*
X68202010Y-103928192D01*
X68011851Y-104301094D01*
X67898096Y-104703929D01*
X67865116Y-105121216D01*
X65525000Y-105121216D01*
X65525000Y-103595019D01*
X68691796Y-103595019D01*
X70000000Y-104903223D01*
X71308204Y-103595019D01*
X71151808Y-103282010D01*
X70778906Y-103091851D01*
X70376071Y-102978096D01*
X69958784Y-102945116D01*
X69543080Y-102994178D01*
X69144936Y-103123397D01*
X68848192Y-103282010D01*
X68691796Y-103595019D01*
X65525000Y-103595019D01*
X65525000Y-98500000D01*
X67997581Y-98500000D01*
X67997581Y-101500000D01*
X68007235Y-101598017D01*
X68035825Y-101692267D01*
X68082254Y-101779129D01*
X68144736Y-101855264D01*
X68220871Y-101917746D01*
X68307733Y-101964175D01*
X68401983Y-101992765D01*
X68500000Y-102002419D01*
X71500000Y-102002419D01*
X71598017Y-101992765D01*
X71692267Y-101964175D01*
X71779129Y-101917746D01*
X71855264Y-101855264D01*
X71917746Y-101779129D01*
X71964175Y-101692267D01*
X71992765Y-101598017D01*
X72002419Y-101500000D01*
X72002419Y-98500000D01*
X71992765Y-98401983D01*
X71964175Y-98307733D01*
X71917746Y-98220871D01*
X71855264Y-98144736D01*
X71779129Y-98082254D01*
X71692267Y-98035825D01*
X71598017Y-98007235D01*
X71500000Y-97997581D01*
X68500000Y-97997581D01*
X68401983Y-98007235D01*
X68307733Y-98035825D01*
X68220871Y-98082254D01*
X68144736Y-98144736D01*
X68082254Y-98220871D01*
X68035825Y-98307733D01*
X68007235Y-98401983D01*
X67997581Y-98500000D01*
X65525000Y-98500000D01*
X65525000Y-92125000D01*
X95448224Y-92125000D01*
X96558309Y-93235085D01*
M02*
