M48
; DRILL file {KiCad (5.1.4)-1} date 06/09/2021 14:48:06
; FORMAT={-:-/ absolute / metric / decimal}
; #@! TF.CreationDate,2021-09-06T14:48:06-04:00
; #@! TF.GenerationSoftware,Kicad,Pcbnew,(5.1.4)-1
; #@! TF.FileFunction,Plated,1,4,PTH
FMAT,2
METRIC
T1C0.400
T2C0.800
T3C1.000
T4C1.500
T5C1.520
T6C1.600
T7C3.600
%
G90
G05
T1
X66.0Y-93.5
X66.0Y-95.5
X66.0Y-104.0
X66.0Y-105.0
X66.0Y-106.0
X66.0Y-126.0
X66.0Y-128.0
X66.0Y-130.0
X66.0Y-132.0
X66.0Y-133.75
X66.0Y-135.0
X66.5Y-97.0
X66.5Y-124.75
X66.75Y-83.25
X66.75Y-92.5
X66.75Y-103.25
X66.75Y-106.75
X67.5Y-135.0
X67.75Y-124.25
X67.75Y-128.25
X68.0Y-64.75
X68.0Y-69.75
X68.0Y-74.75
X68.0Y-79.75
X68.0Y-89.75
X68.75Y-83.25
X68.75Y-92.5
X69.0Y-124.25
X69.25Y-135.0
X69.75Y-128.25
X70.25Y-124.25
X70.75Y-83.25
X70.75Y-92.5
X71.0Y-135.0
X71.5Y-124.25
X72.25Y-119.75
X72.25Y-121.0
X72.25Y-122.25
X72.25Y-123.5
X72.5Y-130.25
X72.5Y-135.0
X72.75Y-83.25
X72.75Y-92.5
X73.0Y-103.75
X73.0Y-105.0
X73.0Y-106.5
X73.2Y-114.2
X73.2Y-115.2
X73.2Y-116.2
X73.2Y-117.2
X73.5Y-37.25
X73.5Y-102.75
X73.6Y-132.6
X74.0Y-107.0
X74.0Y-108.0
X74.0Y-109.0
X74.0Y-110.0
X74.0Y-111.0
X74.0Y-112.0
X74.5Y-85.5
X74.5Y-88.0
X74.5Y-90.5
X74.5Y-127.5
X74.5Y-135.0
X74.75Y-83.25
X74.75Y-92.5
X75.25Y-39.75
X75.25Y-42.75
X75.45Y-128.05
X75.5Y-105.5
X75.5Y-112.5
X75.6Y-132.6
X76.0Y-37.25
X76.5Y-107.0
X76.5Y-128.25
X76.5Y-130.0
X76.5Y-135.0
X76.75Y-83.25
X77.25Y-92.5
X77.25Y-105.5
X77.25Y-112.5
X77.25Y-129.0
X77.4Y-132.6
X77.5Y-99.5
X77.5Y-101.0
X77.5Y-102.75
X78.0Y-107.75
X78.5Y-37.25
X78.5Y-135.0
X78.75Y-83.25
X78.75Y-102.0
X78.75Y-104.0
X78.8Y-105.8
X79.0Y-112.75
X79.2Y-92.5
X79.2Y-120.0
X79.2Y-132.6
X79.5Y-94.5
X79.5Y-95.5
X79.5Y-96.5
X79.5Y-97.5
X79.5Y-124.25
X79.5Y-127.25
X79.6Y-107.4
X79.75Y-113.5
X79.8Y-118.6
X80.0Y-116.4
X80.5Y-109.5
X80.5Y-111.25
X80.5Y-135.0
X80.6Y-114.6
X80.6Y-120.6
X80.75Y-83.25
X80.75Y-129.25
X81.0Y-37.25
X81.0Y-107.6
X81.2Y-132.6
X81.25Y-92.5
X82.4Y-108.2
X82.4Y-109.6
X82.4Y-111.0
X82.4Y-112.4
X82.5Y-102.0
X82.5Y-103.25
X82.5Y-125.75
X82.5Y-135.0
X82.6Y-120.6
X82.75Y-83.25
X83.0Y-115.0
X83.0Y-132.6
X83.5Y-37.25
X83.5Y-91.75
X83.75Y-64.75
X83.75Y-67.0
X83.75Y-69.5
X83.75Y-72.0
X83.75Y-74.5
X83.75Y-77.0
X83.75Y-79.25
X83.75Y-102.0
X83.75Y-103.25
X84.0Y-113.0
X84.5Y-135.0
X84.6Y-120.6
X84.6Y-132.6
X85.25Y-115.25
X85.25Y-117.5
X85.25Y-119.25
X85.4Y-97.2
X85.4Y-113.0
X85.5Y-100.25
X85.6Y-101.4
X85.75Y-59.25
X85.75Y-84.0
X85.75Y-102.75
X86.0Y-37.25
X86.0Y-92.75
X86.25Y-104.25
X86.25Y-105.25
X86.25Y-106.25
X86.4Y-120.6
X86.5Y-135.0
X86.6Y-132.6
X86.8Y-113.0
X87.5Y-65.75
X87.5Y-68.25
X87.5Y-70.75
X87.5Y-73.0
X87.5Y-75.5
X87.5Y-77.75
X87.5Y-80.5
X87.5Y-83.25
X87.6Y-97.2
X87.75Y-92.75
X88.0Y-89.5
X88.0Y-125.4
X88.0Y-126.8
X88.0Y-128.2
X88.0Y-129.8
X88.0Y-131.6
X88.2Y-108.8
X88.2Y-110.4
X88.2Y-112.0
X88.25Y-107.0
X88.25Y-114.5
X88.4Y-118.0
X88.5Y-37.25
X88.5Y-102.25
X88.5Y-103.25
X88.5Y-135.0
X88.75Y-101.0
X89.8Y-108.6
X90.0Y-97.2
X90.25Y-80.5
X90.25Y-135.0
X90.4Y-128.2
X90.4Y-130.2
X90.4Y-132.2
X90.4Y-133.75
X90.6Y-112.6
X90.6Y-118.6
X90.6Y-120.0
X90.6Y-121.6
X90.6Y-125.0
X90.6Y-126.0
X90.8Y-127.2
X91.0Y-37.25
X91.25Y-101.0
X91.5Y-101.75
X91.6Y-117.4
X91.8Y-110.0
X92.2Y-97.2
X92.4Y-110.8
X92.4Y-118.4
X92.5Y-80.5
X93.0Y-92.5
X93.2Y-126.0
X93.5Y-37.25
X93.8Y-107.6
X94.0Y-127.2
X94.25Y-80.5
X94.4Y-109.2
X94.6Y-97.2
X95.0Y-89.25
X95.25Y-88.25
X95.25Y-110.75
X95.75Y-86.25
X95.8Y-107.6
X96.0Y-37.25
X96.0Y-80.5
X96.0Y-87.25
X96.0Y-127.2
X96.25Y-112.0
X96.75Y-82.0
X96.75Y-109.25
X97.4Y-120.6
X97.5Y-82.0
X97.75Y-60.5
X97.75Y-62.5
X97.75Y-64.75
X97.75Y-67.0
X97.75Y-69.25
X97.75Y-71.5
X97.75Y-73.75
X97.75Y-76.25
X98.0Y-127.2
X98.25Y-98.25
X98.25Y-102.25
X98.25Y-110.5
X98.5Y-37.25
X99.0Y-81.0
X99.0Y-89.237
X100.0Y-113.5
X100.0Y-116.0
X100.0Y-121.25
X100.0Y-127.2
X101.0Y-37.25
X101.0Y-79.5
X101.0Y-86.0
X101.25Y-84.25
X102.0Y-127.2
X102.2Y-121.4
X102.5Y-85.5
X102.75Y-107.0
X102.75Y-108.5
X103.0Y-127.2
X103.25Y-82.0
X103.5Y-37.25
X103.8Y-99.5
X104.0Y-101.75
X104.0Y-127.2
X104.5Y-81.0
X104.5Y-95.75
X104.75Y-113.5
X104.75Y-115.75
X105.0Y-118.75
X105.0Y-127.2
X105.25Y-101.5
X106.0Y-37.25
X106.0Y-97.0
X106.0Y-127.2
X106.5Y-81.0
X106.5Y-107.25
X106.5Y-124.25
X107.0Y-108.8
X107.2Y-118.0
X107.25Y-39.0
X107.4Y-134.0
X107.75Y-82.0
X108.0Y-127.2
X108.06Y-98.75
X108.25Y-39.0
X108.5Y-37.25
X108.5Y-124.25
X108.75Y-89.5
X108.75Y-107.25
X109.0Y-85.5
X109.0Y-93.0
X109.0Y-95.0
X109.5Y-114.05
X109.6Y-120.2
X109.75Y-86.5
X109.8Y-111.2
X110.0Y-79.25
X110.0Y-90.5
X110.0Y-103.5
X110.0Y-109.0
X110.0Y-127.2
X110.2Y-112.0
X110.4Y-118.8
X110.5Y-124.25
X111.0Y-37.25
X111.4Y-119.8
X112.0Y-123.0
X112.0Y-127.2
X112.2Y-117.4
X112.2Y-129.4
X112.2Y-133.6
X112.25Y-81.0
X112.25Y-89.237
X112.25Y-91.0
X112.4Y-118.6
X112.5Y-105.5
X113.0Y-110.5
X113.0Y-111.5
X113.5Y-37.25
X113.5Y-123.0
X113.5Y-124.75
X114.0Y-97.5
X114.0Y-127.2
X114.25Y-60.25
X114.25Y-63.25
X114.25Y-66.0
X114.25Y-68.75
X114.25Y-71.5
X114.25Y-74.0
X114.25Y-76.75
X114.25Y-94.75
X114.25Y-100.0
X114.6Y-115.8
X115.4Y-112.2
X115.4Y-119.4
X115.5Y-123.5
X115.5Y-125.5
X115.75Y-90.0
X116.0Y-37.25
X116.0Y-113.2
X116.0Y-127.2
X116.2Y-116.0
X116.25Y-83.75
X116.25Y-106.0
X116.25Y-109.25
X116.75Y-125.75
X117.0Y-56.5
X117.0Y-127.2
X117.737Y-82.25
X118.0Y-112.5
X118.0Y-127.2
X118.25Y-98.75
X118.4Y-124.4
X118.5Y-37.25
X119.0Y-125.2
X119.0Y-127.2
X119.25Y-56.25
X119.25Y-62.0
X119.25Y-65.5
X119.25Y-68.5
X119.25Y-72.0
X119.25Y-75.0
X119.25Y-78.0
X120.0Y-96.987
X120.0Y-127.2
X120.25Y-54.5
X120.25Y-82.25
X120.25Y-92.25
X120.25Y-94.25
X120.6Y-120.0
X121.0Y-37.25
X121.0Y-127.2
X121.25Y-83.0
X121.4Y-121.8
X121.4Y-124.8
X121.4Y-126.0
X121.5Y-106.5
X121.75Y-56.25
X121.881Y-99.619
X122.0Y-127.2
X122.4Y-111.7
X122.8Y-115.1
X123.0Y-61.25
X123.0Y-63.25
X123.0Y-65.25
X123.0Y-67.25
X123.0Y-69.25
X123.0Y-71.25
X123.0Y-73.25
X123.0Y-75.25
X123.0Y-77.25
X123.0Y-79.25
X123.0Y-127.2
X123.2Y-120.2
X123.25Y-54.5
X123.5Y-37.25
X123.5Y-104.5
X123.8Y-116.3
X124.0Y-114.7
X124.25Y-106.5
X124.6Y-120.2
X124.6Y-124.8
X124.9Y-118.5
X125.2Y-125.8
X125.25Y-105.25
X125.4Y-112.9
X125.8Y-120.2
X125.8Y-126.6
X126.0Y-37.25
X126.0Y-99.75
X126.2Y-118.5
X126.75Y-90.75
X126.75Y-92.75
X127.0Y-127.2
X127.25Y-99.75
X128.0Y-103.75
X128.0Y-127.2
X128.5Y-37.25
X128.5Y-99.75
X128.75Y-39.0
X129.0Y-95.0
X129.0Y-127.2
X129.75Y-39.0
X130.0Y-108.75
X130.0Y-127.2
X131.0Y-37.25
X131.25Y-91.25
X131.25Y-93.75
X131.25Y-96.5
X131.25Y-99.0
X131.25Y-108.15
X131.75Y-83.5
X132.25Y-101.75
X132.65Y-134.0
X132.75Y-121.5
X133.25Y-117.4
X133.25Y-127.2
X133.5Y-37.25
X133.5Y-109.0
X133.75Y-84.25
X133.75Y-118.5
X134.25Y-122.0
X134.25Y-127.2
X134.45Y-116.6
X134.75Y-92.5
X134.75Y-96.25
X134.75Y-114.55
X135.25Y-123.5
X135.25Y-134.0
X135.45Y-127.2
X135.525Y-99.5
X135.75Y-102.5
X136.0Y-37.25
X136.0Y-105.25
X136.25Y-124.5
X136.25Y-129.0
X136.65Y-127.2
X136.75Y-62.25
X136.75Y-64.75
X136.75Y-67.5
X136.75Y-70.5
X136.75Y-73.5
X136.75Y-76.5
X136.75Y-79.25
X136.75Y-82.25
X137.0Y-113.5
X137.0Y-115.5
X137.0Y-120.75
X137.45Y-128.0
X137.5Y-93.25
X137.5Y-101.0
X137.5Y-110.75
X137.75Y-112.0
X138.0Y-97.75
X138.25Y-87.5
X138.25Y-90.0
X138.25Y-116.25
X138.25Y-129.0
X138.25Y-132.0
X138.25Y-133.5
X138.25Y-135.0
X138.5Y-37.25
X138.5Y-122.0
X138.75Y-119.0
X138.85Y-108.6
X139.25Y-129.0
X139.25Y-135.0
X139.5Y-51.25
X140.25Y-87.5
X140.25Y-132.0
X140.45Y-112.0
X140.45Y-113.5
X140.75Y-96.25
X140.75Y-105.0
X141.0Y-37.25
X141.25Y-127.0
X141.25Y-129.0
X141.25Y-135.0
X142.0Y-99.75
X142.25Y-87.5
X142.25Y-132.0
X142.5Y-111.25
X143.25Y-127.0
X143.25Y-129.0
X143.25Y-135.0
X143.5Y-37.25
X143.75Y-91.75
X143.75Y-117.5
X143.75Y-120.0
X144.25Y-87.5
X144.25Y-132.0
X144.45Y-113.0
X145.25Y-127.0
X145.25Y-129.0
X145.25Y-135.0
X145.75Y-91.5
X145.75Y-115.0
X145.75Y-117.5
X146.0Y-37.25
X146.25Y-87.5
X146.25Y-132.0
X146.45Y-97.8
X146.45Y-113.4
X147.25Y-127.0
X147.25Y-129.0
X147.25Y-135.0
X147.75Y-91.25
X148.25Y-87.5
X148.25Y-132.0
X148.45Y-103.4
X148.5Y-37.25
X149.25Y-115.0
X149.25Y-116.5
X149.25Y-127.0
X149.25Y-129.0
X149.25Y-135.0
X150.25Y-87.5
X150.25Y-109.6
X150.25Y-117.5
X150.25Y-132.0
X150.5Y-111.75
X151.0Y-37.25
X151.25Y-127.0
X151.25Y-129.0
X151.25Y-135.0
X152.05Y-93.8
X152.25Y-87.5
X152.25Y-117.5
X152.25Y-132.0
X152.75Y-115.0
X152.75Y-127.0
X153.25Y-112.5
X153.25Y-129.0
X153.25Y-135.0
X153.5Y-37.25
X154.25Y-87.5
X154.25Y-117.5
X154.25Y-127.75
X154.25Y-132.0
X154.75Y-39.5
X154.75Y-42.75
X154.75Y-97.75
X155.25Y-135.0
X155.45Y-110.0
X155.45Y-111.5
X155.45Y-113.0
X155.45Y-114.5
X155.5Y-92.75
X155.7Y-107.0
X155.75Y-117.5
X155.75Y-127.5
X156.0Y-37.25
X156.0Y-115.75
X156.25Y-87.5
X156.25Y-132.0
X156.75Y-96.0
X156.75Y-99.5
X156.75Y-126.5
X157.25Y-117.5
X157.25Y-135.0
X157.45Y-104.0
X157.5Y-130.0
X157.75Y-119.0
X157.75Y-120.5
X157.75Y-122.0
X157.75Y-123.5
X157.75Y-125.0
X158.05Y-112.8
X158.25Y-87.5
X159.25Y-135.0
X159.7Y-104.0
X159.75Y-128.0
X159.95Y-111.5
X159.95Y-113.0
X160.25Y-87.5
X160.25Y-114.5
X160.7Y-108.0
X160.75Y-46.5
X161.0Y-116.0
X161.0Y-127.25
X161.25Y-135.0
X161.5Y-117.75
X161.5Y-119.75
X161.5Y-121.75
X161.5Y-123.75
X161.5Y-125.75
X162.25Y-87.5
X162.5Y-46.5
X162.5Y-50.5
X162.75Y-134.75
X163.75Y-50.0
X163.75Y-52.0
X163.75Y-54.0
X163.75Y-56.0
X163.75Y-58.0
X163.75Y-60.0
X163.75Y-62.0
X163.75Y-64.0
X163.75Y-66.0
X163.75Y-68.0
X163.75Y-70.0
X163.75Y-72.0
X163.75Y-74.0
X163.75Y-76.0
X163.75Y-78.0
X163.75Y-80.0
X163.75Y-82.0
X163.75Y-84.0
X163.75Y-88.0
X163.75Y-90.0
X163.75Y-92.0
X163.75Y-94.0
X163.75Y-96.0
X163.75Y-98.0
X163.75Y-100.0
X163.75Y-102.0
X163.75Y-104.0
X163.75Y-106.0
X163.75Y-108.0
X163.75Y-110.0
X163.75Y-112.0
X163.75Y-114.0
X163.75Y-116.0
X163.75Y-118.0
X163.75Y-120.0
X163.75Y-122.0
X163.75Y-124.0
X163.75Y-126.0
X163.75Y-128.0
X163.75Y-130.0
X163.75Y-132.0
X163.75Y-134.0
T2
X102.75Y-113.0
X102.75Y-116.5
T3
X103.75Y-83.75
X106.29Y-83.75
X108.83Y-83.75
X90.25Y-83.75
X92.79Y-83.75
X95.33Y-83.75
X102.5Y-59.75
X103.75Y-56.0
X103.75Y-61.0
X105.0Y-57.25
X92.75Y-56.0
X92.75Y-61.0
T4
X102.25Y-45.25
X107.7Y-45.25
X113.15Y-45.25
X123.73Y-45.25
X129.18Y-45.25
X134.63Y-45.25
T5
X70.0Y-100.0
X70.0Y-105.08
X70.0Y-110.16
T6
X74.75Y-69.5
X74.75Y-72.04
X74.75Y-74.58
X79.83Y-69.5
X79.83Y-72.04
X79.83Y-74.58
X149.0Y-70.5
X149.0Y-73.04
X149.0Y-75.58
X154.08Y-70.5
X154.08Y-73.04
X154.08Y-75.58
X148.75Y-52.25
X148.75Y-54.79
X148.75Y-57.33
X153.83Y-52.25
X153.83Y-54.79
X153.83Y-57.33
X75.0Y-52.25
X75.0Y-54.79
X75.0Y-57.33
X80.08Y-52.25
X80.08Y-54.79
X80.08Y-57.33
T7
X69.5Y-41.0
X69.5Y-86.75
X69.5Y-131.5
X160.25Y-41.0
X160.25Y-97.5
X160.25Y-131.5
T0
M30
