G04 #@! TF.GenerationSoftware,KiCad,Pcbnew,(5.1.4)-1*
G04 #@! TF.CreationDate,2021-06-03T21:11:03-04:00*
G04 #@! TF.ProjectId,shunt_current_control_v2,7368756e-745f-4637-9572-72656e745f63,rev?*
G04 #@! TF.SameCoordinates,Original*
G04 #@! TF.FileFunction,Paste,Bot*
G04 #@! TF.FilePolarity,Positive*
%FSLAX46Y46*%
G04 Gerber Fmt 4.6, Leading zero omitted, Abs format (unit mm)*
G04 Created by KiCad (PCBNEW (5.1.4)-1) date 2021-06-03 21:11:03*
%MOMM*%
%LPD*%
G04 APERTURE LIST*
%ADD10R,1.050000X2.200000*%
%ADD11R,1.000000X1.050000*%
%ADD12C,0.100000*%
%ADD13C,1.150000*%
%ADD14C,1.250000*%
G04 APERTURE END LIST*
D10*
X144725000Y-104500000D03*
X141775000Y-104500000D03*
D11*
X143250000Y-102975000D03*
D12*
G36*
X134974505Y-58151204D02*
G01*
X134998773Y-58154804D01*
X135022572Y-58160765D01*
X135045671Y-58169030D01*
X135067850Y-58179520D01*
X135088893Y-58192132D01*
X135108599Y-58206747D01*
X135126777Y-58223223D01*
X135143253Y-58241401D01*
X135157868Y-58261107D01*
X135170480Y-58282150D01*
X135180970Y-58304329D01*
X135189235Y-58327428D01*
X135195196Y-58351227D01*
X135198796Y-58375495D01*
X135200000Y-58399999D01*
X135200000Y-59050001D01*
X135198796Y-59074505D01*
X135195196Y-59098773D01*
X135189235Y-59122572D01*
X135180970Y-59145671D01*
X135170480Y-59167850D01*
X135157868Y-59188893D01*
X135143253Y-59208599D01*
X135126777Y-59226777D01*
X135108599Y-59243253D01*
X135088893Y-59257868D01*
X135067850Y-59270480D01*
X135045671Y-59280970D01*
X135022572Y-59289235D01*
X134998773Y-59295196D01*
X134974505Y-59298796D01*
X134950001Y-59300000D01*
X134049999Y-59300000D01*
X134025495Y-59298796D01*
X134001227Y-59295196D01*
X133977428Y-59289235D01*
X133954329Y-59280970D01*
X133932150Y-59270480D01*
X133911107Y-59257868D01*
X133891401Y-59243253D01*
X133873223Y-59226777D01*
X133856747Y-59208599D01*
X133842132Y-59188893D01*
X133829520Y-59167850D01*
X133819030Y-59145671D01*
X133810765Y-59122572D01*
X133804804Y-59098773D01*
X133801204Y-59074505D01*
X133800000Y-59050001D01*
X133800000Y-58399999D01*
X133801204Y-58375495D01*
X133804804Y-58351227D01*
X133810765Y-58327428D01*
X133819030Y-58304329D01*
X133829520Y-58282150D01*
X133842132Y-58261107D01*
X133856747Y-58241401D01*
X133873223Y-58223223D01*
X133891401Y-58206747D01*
X133911107Y-58192132D01*
X133932150Y-58179520D01*
X133954329Y-58169030D01*
X133977428Y-58160765D01*
X134001227Y-58154804D01*
X134025495Y-58151204D01*
X134049999Y-58150000D01*
X134950001Y-58150000D01*
X134974505Y-58151204D01*
X134974505Y-58151204D01*
G37*
D13*
X134500000Y-58725000D03*
D12*
G36*
X134974505Y-60201204D02*
G01*
X134998773Y-60204804D01*
X135022572Y-60210765D01*
X135045671Y-60219030D01*
X135067850Y-60229520D01*
X135088893Y-60242132D01*
X135108599Y-60256747D01*
X135126777Y-60273223D01*
X135143253Y-60291401D01*
X135157868Y-60311107D01*
X135170480Y-60332150D01*
X135180970Y-60354329D01*
X135189235Y-60377428D01*
X135195196Y-60401227D01*
X135198796Y-60425495D01*
X135200000Y-60449999D01*
X135200000Y-61100001D01*
X135198796Y-61124505D01*
X135195196Y-61148773D01*
X135189235Y-61172572D01*
X135180970Y-61195671D01*
X135170480Y-61217850D01*
X135157868Y-61238893D01*
X135143253Y-61258599D01*
X135126777Y-61276777D01*
X135108599Y-61293253D01*
X135088893Y-61307868D01*
X135067850Y-61320480D01*
X135045671Y-61330970D01*
X135022572Y-61339235D01*
X134998773Y-61345196D01*
X134974505Y-61348796D01*
X134950001Y-61350000D01*
X134049999Y-61350000D01*
X134025495Y-61348796D01*
X134001227Y-61345196D01*
X133977428Y-61339235D01*
X133954329Y-61330970D01*
X133932150Y-61320480D01*
X133911107Y-61307868D01*
X133891401Y-61293253D01*
X133873223Y-61276777D01*
X133856747Y-61258599D01*
X133842132Y-61238893D01*
X133829520Y-61217850D01*
X133819030Y-61195671D01*
X133810765Y-61172572D01*
X133804804Y-61148773D01*
X133801204Y-61124505D01*
X133800000Y-61100001D01*
X133800000Y-60449999D01*
X133801204Y-60425495D01*
X133804804Y-60401227D01*
X133810765Y-60377428D01*
X133819030Y-60354329D01*
X133829520Y-60332150D01*
X133842132Y-60311107D01*
X133856747Y-60291401D01*
X133873223Y-60273223D01*
X133891401Y-60256747D01*
X133911107Y-60242132D01*
X133932150Y-60229520D01*
X133954329Y-60219030D01*
X133977428Y-60210765D01*
X134001227Y-60204804D01*
X134025495Y-60201204D01*
X134049999Y-60200000D01*
X134950001Y-60200000D01*
X134974505Y-60201204D01*
X134974505Y-60201204D01*
G37*
D13*
X134500000Y-60775000D03*
D12*
G36*
X139899504Y-57726204D02*
G01*
X139923773Y-57729804D01*
X139947571Y-57735765D01*
X139970671Y-57744030D01*
X139992849Y-57754520D01*
X140013893Y-57767133D01*
X140033598Y-57781747D01*
X140051777Y-57798223D01*
X140068253Y-57816402D01*
X140082867Y-57836107D01*
X140095480Y-57857151D01*
X140105970Y-57879329D01*
X140114235Y-57902429D01*
X140120196Y-57926227D01*
X140123796Y-57950496D01*
X140125000Y-57975000D01*
X140125000Y-58725000D01*
X140123796Y-58749504D01*
X140120196Y-58773773D01*
X140114235Y-58797571D01*
X140105970Y-58820671D01*
X140095480Y-58842849D01*
X140082867Y-58863893D01*
X140068253Y-58883598D01*
X140051777Y-58901777D01*
X140033598Y-58918253D01*
X140013893Y-58932867D01*
X139992849Y-58945480D01*
X139970671Y-58955970D01*
X139947571Y-58964235D01*
X139923773Y-58970196D01*
X139899504Y-58973796D01*
X139875000Y-58975000D01*
X138625000Y-58975000D01*
X138600496Y-58973796D01*
X138576227Y-58970196D01*
X138552429Y-58964235D01*
X138529329Y-58955970D01*
X138507151Y-58945480D01*
X138486107Y-58932867D01*
X138466402Y-58918253D01*
X138448223Y-58901777D01*
X138431747Y-58883598D01*
X138417133Y-58863893D01*
X138404520Y-58842849D01*
X138394030Y-58820671D01*
X138385765Y-58797571D01*
X138379804Y-58773773D01*
X138376204Y-58749504D01*
X138375000Y-58725000D01*
X138375000Y-57975000D01*
X138376204Y-57950496D01*
X138379804Y-57926227D01*
X138385765Y-57902429D01*
X138394030Y-57879329D01*
X138404520Y-57857151D01*
X138417133Y-57836107D01*
X138431747Y-57816402D01*
X138448223Y-57798223D01*
X138466402Y-57781747D01*
X138486107Y-57767133D01*
X138507151Y-57754520D01*
X138529329Y-57744030D01*
X138552429Y-57735765D01*
X138576227Y-57729804D01*
X138600496Y-57726204D01*
X138625000Y-57725000D01*
X139875000Y-57725000D01*
X139899504Y-57726204D01*
X139899504Y-57726204D01*
G37*
D14*
X139250000Y-58350000D03*
D12*
G36*
X139899504Y-60526204D02*
G01*
X139923773Y-60529804D01*
X139947571Y-60535765D01*
X139970671Y-60544030D01*
X139992849Y-60554520D01*
X140013893Y-60567133D01*
X140033598Y-60581747D01*
X140051777Y-60598223D01*
X140068253Y-60616402D01*
X140082867Y-60636107D01*
X140095480Y-60657151D01*
X140105970Y-60679329D01*
X140114235Y-60702429D01*
X140120196Y-60726227D01*
X140123796Y-60750496D01*
X140125000Y-60775000D01*
X140125000Y-61525000D01*
X140123796Y-61549504D01*
X140120196Y-61573773D01*
X140114235Y-61597571D01*
X140105970Y-61620671D01*
X140095480Y-61642849D01*
X140082867Y-61663893D01*
X140068253Y-61683598D01*
X140051777Y-61701777D01*
X140033598Y-61718253D01*
X140013893Y-61732867D01*
X139992849Y-61745480D01*
X139970671Y-61755970D01*
X139947571Y-61764235D01*
X139923773Y-61770196D01*
X139899504Y-61773796D01*
X139875000Y-61775000D01*
X138625000Y-61775000D01*
X138600496Y-61773796D01*
X138576227Y-61770196D01*
X138552429Y-61764235D01*
X138529329Y-61755970D01*
X138507151Y-61745480D01*
X138486107Y-61732867D01*
X138466402Y-61718253D01*
X138448223Y-61701777D01*
X138431747Y-61683598D01*
X138417133Y-61663893D01*
X138404520Y-61642849D01*
X138394030Y-61620671D01*
X138385765Y-61597571D01*
X138379804Y-61573773D01*
X138376204Y-61549504D01*
X138375000Y-61525000D01*
X138375000Y-60775000D01*
X138376204Y-60750496D01*
X138379804Y-60726227D01*
X138385765Y-60702429D01*
X138394030Y-60679329D01*
X138404520Y-60657151D01*
X138417133Y-60636107D01*
X138431747Y-60616402D01*
X138448223Y-60598223D01*
X138466402Y-60581747D01*
X138486107Y-60567133D01*
X138507151Y-60554520D01*
X138529329Y-60544030D01*
X138552429Y-60535765D01*
X138576227Y-60529804D01*
X138600496Y-60526204D01*
X138625000Y-60525000D01*
X139875000Y-60525000D01*
X139899504Y-60526204D01*
X139899504Y-60526204D01*
G37*
D14*
X139250000Y-61150000D03*
D10*
X87275000Y-99500000D03*
X90225000Y-99500000D03*
D11*
X88750000Y-101025000D03*
D10*
X86775000Y-116000000D03*
X89725000Y-116000000D03*
D11*
X88250000Y-117525000D03*
D12*
G36*
X77724505Y-124901204D02*
G01*
X77748773Y-124904804D01*
X77772572Y-124910765D01*
X77795671Y-124919030D01*
X77817850Y-124929520D01*
X77838893Y-124942132D01*
X77858599Y-124956747D01*
X77876777Y-124973223D01*
X77893253Y-124991401D01*
X77907868Y-125011107D01*
X77920480Y-125032150D01*
X77930970Y-125054329D01*
X77939235Y-125077428D01*
X77945196Y-125101227D01*
X77948796Y-125125495D01*
X77950000Y-125149999D01*
X77950000Y-125800001D01*
X77948796Y-125824505D01*
X77945196Y-125848773D01*
X77939235Y-125872572D01*
X77930970Y-125895671D01*
X77920480Y-125917850D01*
X77907868Y-125938893D01*
X77893253Y-125958599D01*
X77876777Y-125976777D01*
X77858599Y-125993253D01*
X77838893Y-126007868D01*
X77817850Y-126020480D01*
X77795671Y-126030970D01*
X77772572Y-126039235D01*
X77748773Y-126045196D01*
X77724505Y-126048796D01*
X77700001Y-126050000D01*
X76799999Y-126050000D01*
X76775495Y-126048796D01*
X76751227Y-126045196D01*
X76727428Y-126039235D01*
X76704329Y-126030970D01*
X76682150Y-126020480D01*
X76661107Y-126007868D01*
X76641401Y-125993253D01*
X76623223Y-125976777D01*
X76606747Y-125958599D01*
X76592132Y-125938893D01*
X76579520Y-125917850D01*
X76569030Y-125895671D01*
X76560765Y-125872572D01*
X76554804Y-125848773D01*
X76551204Y-125824505D01*
X76550000Y-125800001D01*
X76550000Y-125149999D01*
X76551204Y-125125495D01*
X76554804Y-125101227D01*
X76560765Y-125077428D01*
X76569030Y-125054329D01*
X76579520Y-125032150D01*
X76592132Y-125011107D01*
X76606747Y-124991401D01*
X76623223Y-124973223D01*
X76641401Y-124956747D01*
X76661107Y-124942132D01*
X76682150Y-124929520D01*
X76704329Y-124919030D01*
X76727428Y-124910765D01*
X76751227Y-124904804D01*
X76775495Y-124901204D01*
X76799999Y-124900000D01*
X77700001Y-124900000D01*
X77724505Y-124901204D01*
X77724505Y-124901204D01*
G37*
D13*
X77250000Y-125475000D03*
D12*
G36*
X77724505Y-126951204D02*
G01*
X77748773Y-126954804D01*
X77772572Y-126960765D01*
X77795671Y-126969030D01*
X77817850Y-126979520D01*
X77838893Y-126992132D01*
X77858599Y-127006747D01*
X77876777Y-127023223D01*
X77893253Y-127041401D01*
X77907868Y-127061107D01*
X77920480Y-127082150D01*
X77930970Y-127104329D01*
X77939235Y-127127428D01*
X77945196Y-127151227D01*
X77948796Y-127175495D01*
X77950000Y-127199999D01*
X77950000Y-127850001D01*
X77948796Y-127874505D01*
X77945196Y-127898773D01*
X77939235Y-127922572D01*
X77930970Y-127945671D01*
X77920480Y-127967850D01*
X77907868Y-127988893D01*
X77893253Y-128008599D01*
X77876777Y-128026777D01*
X77858599Y-128043253D01*
X77838893Y-128057868D01*
X77817850Y-128070480D01*
X77795671Y-128080970D01*
X77772572Y-128089235D01*
X77748773Y-128095196D01*
X77724505Y-128098796D01*
X77700001Y-128100000D01*
X76799999Y-128100000D01*
X76775495Y-128098796D01*
X76751227Y-128095196D01*
X76727428Y-128089235D01*
X76704329Y-128080970D01*
X76682150Y-128070480D01*
X76661107Y-128057868D01*
X76641401Y-128043253D01*
X76623223Y-128026777D01*
X76606747Y-128008599D01*
X76592132Y-127988893D01*
X76579520Y-127967850D01*
X76569030Y-127945671D01*
X76560765Y-127922572D01*
X76554804Y-127898773D01*
X76551204Y-127874505D01*
X76550000Y-127850001D01*
X76550000Y-127199999D01*
X76551204Y-127175495D01*
X76554804Y-127151227D01*
X76560765Y-127127428D01*
X76569030Y-127104329D01*
X76579520Y-127082150D01*
X76592132Y-127061107D01*
X76606747Y-127041401D01*
X76623223Y-127023223D01*
X76641401Y-127006747D01*
X76661107Y-126992132D01*
X76682150Y-126979520D01*
X76704329Y-126969030D01*
X76727428Y-126960765D01*
X76751227Y-126954804D01*
X76775495Y-126951204D01*
X76799999Y-126950000D01*
X77700001Y-126950000D01*
X77724505Y-126951204D01*
X77724505Y-126951204D01*
G37*
D13*
X77250000Y-127525000D03*
D12*
G36*
X82224505Y-99401204D02*
G01*
X82248773Y-99404804D01*
X82272572Y-99410765D01*
X82295671Y-99419030D01*
X82317850Y-99429520D01*
X82338893Y-99442132D01*
X82358599Y-99456747D01*
X82376777Y-99473223D01*
X82393253Y-99491401D01*
X82407868Y-99511107D01*
X82420480Y-99532150D01*
X82430970Y-99554329D01*
X82439235Y-99577428D01*
X82445196Y-99601227D01*
X82448796Y-99625495D01*
X82450000Y-99649999D01*
X82450000Y-100300001D01*
X82448796Y-100324505D01*
X82445196Y-100348773D01*
X82439235Y-100372572D01*
X82430970Y-100395671D01*
X82420480Y-100417850D01*
X82407868Y-100438893D01*
X82393253Y-100458599D01*
X82376777Y-100476777D01*
X82358599Y-100493253D01*
X82338893Y-100507868D01*
X82317850Y-100520480D01*
X82295671Y-100530970D01*
X82272572Y-100539235D01*
X82248773Y-100545196D01*
X82224505Y-100548796D01*
X82200001Y-100550000D01*
X81299999Y-100550000D01*
X81275495Y-100548796D01*
X81251227Y-100545196D01*
X81227428Y-100539235D01*
X81204329Y-100530970D01*
X81182150Y-100520480D01*
X81161107Y-100507868D01*
X81141401Y-100493253D01*
X81123223Y-100476777D01*
X81106747Y-100458599D01*
X81092132Y-100438893D01*
X81079520Y-100417850D01*
X81069030Y-100395671D01*
X81060765Y-100372572D01*
X81054804Y-100348773D01*
X81051204Y-100324505D01*
X81050000Y-100300001D01*
X81050000Y-99649999D01*
X81051204Y-99625495D01*
X81054804Y-99601227D01*
X81060765Y-99577428D01*
X81069030Y-99554329D01*
X81079520Y-99532150D01*
X81092132Y-99511107D01*
X81106747Y-99491401D01*
X81123223Y-99473223D01*
X81141401Y-99456747D01*
X81161107Y-99442132D01*
X81182150Y-99429520D01*
X81204329Y-99419030D01*
X81227428Y-99410765D01*
X81251227Y-99404804D01*
X81275495Y-99401204D01*
X81299999Y-99400000D01*
X82200001Y-99400000D01*
X82224505Y-99401204D01*
X82224505Y-99401204D01*
G37*
D13*
X81750000Y-99975000D03*
D12*
G36*
X82224505Y-101451204D02*
G01*
X82248773Y-101454804D01*
X82272572Y-101460765D01*
X82295671Y-101469030D01*
X82317850Y-101479520D01*
X82338893Y-101492132D01*
X82358599Y-101506747D01*
X82376777Y-101523223D01*
X82393253Y-101541401D01*
X82407868Y-101561107D01*
X82420480Y-101582150D01*
X82430970Y-101604329D01*
X82439235Y-101627428D01*
X82445196Y-101651227D01*
X82448796Y-101675495D01*
X82450000Y-101699999D01*
X82450000Y-102350001D01*
X82448796Y-102374505D01*
X82445196Y-102398773D01*
X82439235Y-102422572D01*
X82430970Y-102445671D01*
X82420480Y-102467850D01*
X82407868Y-102488893D01*
X82393253Y-102508599D01*
X82376777Y-102526777D01*
X82358599Y-102543253D01*
X82338893Y-102557868D01*
X82317850Y-102570480D01*
X82295671Y-102580970D01*
X82272572Y-102589235D01*
X82248773Y-102595196D01*
X82224505Y-102598796D01*
X82200001Y-102600000D01*
X81299999Y-102600000D01*
X81275495Y-102598796D01*
X81251227Y-102595196D01*
X81227428Y-102589235D01*
X81204329Y-102580970D01*
X81182150Y-102570480D01*
X81161107Y-102557868D01*
X81141401Y-102543253D01*
X81123223Y-102526777D01*
X81106747Y-102508599D01*
X81092132Y-102488893D01*
X81079520Y-102467850D01*
X81069030Y-102445671D01*
X81060765Y-102422572D01*
X81054804Y-102398773D01*
X81051204Y-102374505D01*
X81050000Y-102350001D01*
X81050000Y-101699999D01*
X81051204Y-101675495D01*
X81054804Y-101651227D01*
X81060765Y-101627428D01*
X81069030Y-101604329D01*
X81079520Y-101582150D01*
X81092132Y-101561107D01*
X81106747Y-101541401D01*
X81123223Y-101523223D01*
X81141401Y-101506747D01*
X81161107Y-101492132D01*
X81182150Y-101479520D01*
X81204329Y-101469030D01*
X81227428Y-101460765D01*
X81251227Y-101454804D01*
X81275495Y-101451204D01*
X81299999Y-101450000D01*
X82200001Y-101450000D01*
X82224505Y-101451204D01*
X82224505Y-101451204D01*
G37*
D13*
X81750000Y-102025000D03*
D12*
G36*
X75474505Y-124876204D02*
G01*
X75498773Y-124879804D01*
X75522572Y-124885765D01*
X75545671Y-124894030D01*
X75567850Y-124904520D01*
X75588893Y-124917132D01*
X75608599Y-124931747D01*
X75626777Y-124948223D01*
X75643253Y-124966401D01*
X75657868Y-124986107D01*
X75670480Y-125007150D01*
X75680970Y-125029329D01*
X75689235Y-125052428D01*
X75695196Y-125076227D01*
X75698796Y-125100495D01*
X75700000Y-125124999D01*
X75700000Y-125775001D01*
X75698796Y-125799505D01*
X75695196Y-125823773D01*
X75689235Y-125847572D01*
X75680970Y-125870671D01*
X75670480Y-125892850D01*
X75657868Y-125913893D01*
X75643253Y-125933599D01*
X75626777Y-125951777D01*
X75608599Y-125968253D01*
X75588893Y-125982868D01*
X75567850Y-125995480D01*
X75545671Y-126005970D01*
X75522572Y-126014235D01*
X75498773Y-126020196D01*
X75474505Y-126023796D01*
X75450001Y-126025000D01*
X74549999Y-126025000D01*
X74525495Y-126023796D01*
X74501227Y-126020196D01*
X74477428Y-126014235D01*
X74454329Y-126005970D01*
X74432150Y-125995480D01*
X74411107Y-125982868D01*
X74391401Y-125968253D01*
X74373223Y-125951777D01*
X74356747Y-125933599D01*
X74342132Y-125913893D01*
X74329520Y-125892850D01*
X74319030Y-125870671D01*
X74310765Y-125847572D01*
X74304804Y-125823773D01*
X74301204Y-125799505D01*
X74300000Y-125775001D01*
X74300000Y-125124999D01*
X74301204Y-125100495D01*
X74304804Y-125076227D01*
X74310765Y-125052428D01*
X74319030Y-125029329D01*
X74329520Y-125007150D01*
X74342132Y-124986107D01*
X74356747Y-124966401D01*
X74373223Y-124948223D01*
X74391401Y-124931747D01*
X74411107Y-124917132D01*
X74432150Y-124904520D01*
X74454329Y-124894030D01*
X74477428Y-124885765D01*
X74501227Y-124879804D01*
X74525495Y-124876204D01*
X74549999Y-124875000D01*
X75450001Y-124875000D01*
X75474505Y-124876204D01*
X75474505Y-124876204D01*
G37*
D13*
X75000000Y-125450000D03*
D12*
G36*
X75474505Y-126926204D02*
G01*
X75498773Y-126929804D01*
X75522572Y-126935765D01*
X75545671Y-126944030D01*
X75567850Y-126954520D01*
X75588893Y-126967132D01*
X75608599Y-126981747D01*
X75626777Y-126998223D01*
X75643253Y-127016401D01*
X75657868Y-127036107D01*
X75670480Y-127057150D01*
X75680970Y-127079329D01*
X75689235Y-127102428D01*
X75695196Y-127126227D01*
X75698796Y-127150495D01*
X75700000Y-127174999D01*
X75700000Y-127825001D01*
X75698796Y-127849505D01*
X75695196Y-127873773D01*
X75689235Y-127897572D01*
X75680970Y-127920671D01*
X75670480Y-127942850D01*
X75657868Y-127963893D01*
X75643253Y-127983599D01*
X75626777Y-128001777D01*
X75608599Y-128018253D01*
X75588893Y-128032868D01*
X75567850Y-128045480D01*
X75545671Y-128055970D01*
X75522572Y-128064235D01*
X75498773Y-128070196D01*
X75474505Y-128073796D01*
X75450001Y-128075000D01*
X74549999Y-128075000D01*
X74525495Y-128073796D01*
X74501227Y-128070196D01*
X74477428Y-128064235D01*
X74454329Y-128055970D01*
X74432150Y-128045480D01*
X74411107Y-128032868D01*
X74391401Y-128018253D01*
X74373223Y-128001777D01*
X74356747Y-127983599D01*
X74342132Y-127963893D01*
X74329520Y-127942850D01*
X74319030Y-127920671D01*
X74310765Y-127897572D01*
X74304804Y-127873773D01*
X74301204Y-127849505D01*
X74300000Y-127825001D01*
X74300000Y-127174999D01*
X74301204Y-127150495D01*
X74304804Y-127126227D01*
X74310765Y-127102428D01*
X74319030Y-127079329D01*
X74329520Y-127057150D01*
X74342132Y-127036107D01*
X74356747Y-127016401D01*
X74373223Y-126998223D01*
X74391401Y-126981747D01*
X74411107Y-126967132D01*
X74432150Y-126954520D01*
X74454329Y-126944030D01*
X74477428Y-126935765D01*
X74501227Y-126929804D01*
X74525495Y-126926204D01*
X74549999Y-126925000D01*
X75450001Y-126925000D01*
X75474505Y-126926204D01*
X75474505Y-126926204D01*
G37*
D13*
X75000000Y-127500000D03*
D12*
G36*
X84224505Y-99401204D02*
G01*
X84248773Y-99404804D01*
X84272572Y-99410765D01*
X84295671Y-99419030D01*
X84317850Y-99429520D01*
X84338893Y-99442132D01*
X84358599Y-99456747D01*
X84376777Y-99473223D01*
X84393253Y-99491401D01*
X84407868Y-99511107D01*
X84420480Y-99532150D01*
X84430970Y-99554329D01*
X84439235Y-99577428D01*
X84445196Y-99601227D01*
X84448796Y-99625495D01*
X84450000Y-99649999D01*
X84450000Y-100300001D01*
X84448796Y-100324505D01*
X84445196Y-100348773D01*
X84439235Y-100372572D01*
X84430970Y-100395671D01*
X84420480Y-100417850D01*
X84407868Y-100438893D01*
X84393253Y-100458599D01*
X84376777Y-100476777D01*
X84358599Y-100493253D01*
X84338893Y-100507868D01*
X84317850Y-100520480D01*
X84295671Y-100530970D01*
X84272572Y-100539235D01*
X84248773Y-100545196D01*
X84224505Y-100548796D01*
X84200001Y-100550000D01*
X83299999Y-100550000D01*
X83275495Y-100548796D01*
X83251227Y-100545196D01*
X83227428Y-100539235D01*
X83204329Y-100530970D01*
X83182150Y-100520480D01*
X83161107Y-100507868D01*
X83141401Y-100493253D01*
X83123223Y-100476777D01*
X83106747Y-100458599D01*
X83092132Y-100438893D01*
X83079520Y-100417850D01*
X83069030Y-100395671D01*
X83060765Y-100372572D01*
X83054804Y-100348773D01*
X83051204Y-100324505D01*
X83050000Y-100300001D01*
X83050000Y-99649999D01*
X83051204Y-99625495D01*
X83054804Y-99601227D01*
X83060765Y-99577428D01*
X83069030Y-99554329D01*
X83079520Y-99532150D01*
X83092132Y-99511107D01*
X83106747Y-99491401D01*
X83123223Y-99473223D01*
X83141401Y-99456747D01*
X83161107Y-99442132D01*
X83182150Y-99429520D01*
X83204329Y-99419030D01*
X83227428Y-99410765D01*
X83251227Y-99404804D01*
X83275495Y-99401204D01*
X83299999Y-99400000D01*
X84200001Y-99400000D01*
X84224505Y-99401204D01*
X84224505Y-99401204D01*
G37*
D13*
X83750000Y-99975000D03*
D12*
G36*
X84224505Y-101451204D02*
G01*
X84248773Y-101454804D01*
X84272572Y-101460765D01*
X84295671Y-101469030D01*
X84317850Y-101479520D01*
X84338893Y-101492132D01*
X84358599Y-101506747D01*
X84376777Y-101523223D01*
X84393253Y-101541401D01*
X84407868Y-101561107D01*
X84420480Y-101582150D01*
X84430970Y-101604329D01*
X84439235Y-101627428D01*
X84445196Y-101651227D01*
X84448796Y-101675495D01*
X84450000Y-101699999D01*
X84450000Y-102350001D01*
X84448796Y-102374505D01*
X84445196Y-102398773D01*
X84439235Y-102422572D01*
X84430970Y-102445671D01*
X84420480Y-102467850D01*
X84407868Y-102488893D01*
X84393253Y-102508599D01*
X84376777Y-102526777D01*
X84358599Y-102543253D01*
X84338893Y-102557868D01*
X84317850Y-102570480D01*
X84295671Y-102580970D01*
X84272572Y-102589235D01*
X84248773Y-102595196D01*
X84224505Y-102598796D01*
X84200001Y-102600000D01*
X83299999Y-102600000D01*
X83275495Y-102598796D01*
X83251227Y-102595196D01*
X83227428Y-102589235D01*
X83204329Y-102580970D01*
X83182150Y-102570480D01*
X83161107Y-102557868D01*
X83141401Y-102543253D01*
X83123223Y-102526777D01*
X83106747Y-102508599D01*
X83092132Y-102488893D01*
X83079520Y-102467850D01*
X83069030Y-102445671D01*
X83060765Y-102422572D01*
X83054804Y-102398773D01*
X83051204Y-102374505D01*
X83050000Y-102350001D01*
X83050000Y-101699999D01*
X83051204Y-101675495D01*
X83054804Y-101651227D01*
X83060765Y-101627428D01*
X83069030Y-101604329D01*
X83079520Y-101582150D01*
X83092132Y-101561107D01*
X83106747Y-101541401D01*
X83123223Y-101523223D01*
X83141401Y-101506747D01*
X83161107Y-101492132D01*
X83182150Y-101479520D01*
X83204329Y-101469030D01*
X83227428Y-101460765D01*
X83251227Y-101454804D01*
X83275495Y-101451204D01*
X83299999Y-101450000D01*
X84200001Y-101450000D01*
X84224505Y-101451204D01*
X84224505Y-101451204D01*
G37*
D13*
X83750000Y-102025000D03*
M02*
