%FSLAX45Y45*%
G04 Gerber Fmt 4.5, Leading zero omitted, Abs format (unit mm)*
G04 Created by KiCad (PCBNEW (5.1.4)-1) date 2021-09-06 14:48:07*
%MOMM*%
%LPD*%
G04 APERTURE LIST*
%ADD10C,0.050000*%
%ADD11C,0.200000*%
%ADD12C,0.300000*%
G04 APERTURE END LIST*
D10*
X6500000Y-3600000D02*
X6500000Y-13600000D01*
X16500000Y-13600000D02*
X16500000Y-3600000D01*
X6500000Y-13600000D02*
X16500000Y-13600000D01*
X6500000Y-3600000D02*
X16500000Y-3600000D01*
D11*
X10469000Y-7105000D02*
X10789000Y-7425000D01*
X10789000Y-7105000D02*
X10469000Y-7425000D01*
X9119000Y-7105000D02*
X9439000Y-7425000D01*
X9439000Y-7105000D02*
X9119000Y-7425000D01*
D12*
X6783928Y-14068214D02*
X6783928Y-13768214D01*
X6855357Y-13768214D01*
X6898214Y-13782500D01*
X6926786Y-13811071D01*
X6941071Y-13839643D01*
X6955357Y-13896786D01*
X6955357Y-13939643D01*
X6941071Y-13996786D01*
X6926786Y-14025357D01*
X6898214Y-14053929D01*
X6855357Y-14068214D01*
X6783928Y-14068214D01*
X7083928Y-14068214D02*
X7083928Y-13868214D01*
X7083928Y-13925357D02*
X7098214Y-13896786D01*
X7112500Y-13882500D01*
X7141071Y-13868214D01*
X7169643Y-13868214D01*
X7269643Y-14068214D02*
X7269643Y-13868214D01*
X7269643Y-13768214D02*
X7255357Y-13782500D01*
X7269643Y-13796786D01*
X7283928Y-13782500D01*
X7269643Y-13768214D01*
X7269643Y-13796786D01*
X7455357Y-14068214D02*
X7426786Y-14053929D01*
X7412500Y-14025357D01*
X7412500Y-13768214D01*
X7612500Y-14068214D02*
X7583928Y-14053929D01*
X7569643Y-14025357D01*
X7569643Y-13768214D01*
X7955357Y-14068214D02*
X7955357Y-13768214D01*
X8055357Y-13982500D01*
X8155357Y-13768214D01*
X8155357Y-14068214D01*
X8426786Y-14068214D02*
X8426786Y-13911071D01*
X8412500Y-13882500D01*
X8383928Y-13868214D01*
X8326786Y-13868214D01*
X8298214Y-13882500D01*
X8426786Y-14053929D02*
X8398214Y-14068214D01*
X8326786Y-14068214D01*
X8298214Y-14053929D01*
X8283928Y-14025357D01*
X8283928Y-13996786D01*
X8298214Y-13968214D01*
X8326786Y-13953929D01*
X8398214Y-13953929D01*
X8426786Y-13939643D01*
X8569643Y-13868214D02*
X8569643Y-14168214D01*
X8569643Y-13882500D02*
X8598214Y-13868214D01*
X8655357Y-13868214D01*
X8683928Y-13882500D01*
X8698214Y-13896786D01*
X8712500Y-13925357D01*
X8712500Y-14011071D01*
X8698214Y-14039643D01*
X8683928Y-14053929D01*
X8655357Y-14068214D01*
X8598214Y-14068214D01*
X8569643Y-14053929D01*
X8841071Y-14039643D02*
X8855357Y-14053929D01*
X8841071Y-14068214D01*
X8826786Y-14053929D01*
X8841071Y-14039643D01*
X8841071Y-14068214D01*
X8841071Y-13882500D02*
X8855357Y-13896786D01*
X8841071Y-13911071D01*
X8826786Y-13896786D01*
X8841071Y-13882500D01*
X8841071Y-13911071D01*
X6177500Y-14402500D02*
X6497500Y-14722500D01*
X6497500Y-14402500D02*
X6177500Y-14722500D01*
X6755357Y-14398214D02*
X6941071Y-14398214D01*
X6841071Y-14512500D01*
X6883928Y-14512500D01*
X6912500Y-14526786D01*
X6926786Y-14541071D01*
X6941071Y-14569643D01*
X6941071Y-14641071D01*
X6926786Y-14669643D01*
X6912500Y-14683929D01*
X6883928Y-14698214D01*
X6798214Y-14698214D01*
X6769643Y-14683929D01*
X6755357Y-14669643D01*
X7069643Y-14669643D02*
X7083928Y-14683929D01*
X7069643Y-14698214D01*
X7055357Y-14683929D01*
X7069643Y-14669643D01*
X7069643Y-14698214D01*
X7198214Y-14426786D02*
X7212500Y-14412500D01*
X7241071Y-14398214D01*
X7312500Y-14398214D01*
X7341071Y-14412500D01*
X7355357Y-14426786D01*
X7369643Y-14455357D01*
X7369643Y-14483929D01*
X7355357Y-14526786D01*
X7183928Y-14698214D01*
X7369643Y-14698214D01*
X7555357Y-14398214D02*
X7583928Y-14398214D01*
X7612500Y-14412500D01*
X7626786Y-14426786D01*
X7641071Y-14455357D01*
X7655357Y-14512500D01*
X7655357Y-14583929D01*
X7641071Y-14641071D01*
X7626786Y-14669643D01*
X7612500Y-14683929D01*
X7583928Y-14698214D01*
X7555357Y-14698214D01*
X7526786Y-14683929D01*
X7512500Y-14669643D01*
X7498214Y-14641071D01*
X7483928Y-14583929D01*
X7483928Y-14512500D01*
X7498214Y-14455357D01*
X7512500Y-14426786D01*
X7526786Y-14412500D01*
X7555357Y-14398214D01*
X7783928Y-14698214D02*
X7783928Y-14498214D01*
X7783928Y-14526786D02*
X7798214Y-14512500D01*
X7826786Y-14498214D01*
X7869643Y-14498214D01*
X7898214Y-14512500D01*
X7912500Y-14541071D01*
X7912500Y-14698214D01*
X7912500Y-14541071D02*
X7926786Y-14512500D01*
X7955357Y-14498214D01*
X7998214Y-14498214D01*
X8026786Y-14512500D01*
X8041071Y-14541071D01*
X8041071Y-14698214D01*
X8183928Y-14698214D02*
X8183928Y-14498214D01*
X8183928Y-14526786D02*
X8198214Y-14512500D01*
X8226786Y-14498214D01*
X8269643Y-14498214D01*
X8298214Y-14512500D01*
X8312500Y-14541071D01*
X8312500Y-14698214D01*
X8312500Y-14541071D02*
X8326786Y-14512500D01*
X8355357Y-14498214D01*
X8398214Y-14498214D01*
X8426786Y-14512500D01*
X8441071Y-14541071D01*
X8441071Y-14698214D01*
X9026786Y-14383929D02*
X8769643Y-14769643D01*
X9412500Y-14398214D02*
X9441071Y-14398214D01*
X9469643Y-14412500D01*
X9483928Y-14426786D01*
X9498214Y-14455357D01*
X9512500Y-14512500D01*
X9512500Y-14583929D01*
X9498214Y-14641071D01*
X9483928Y-14669643D01*
X9469643Y-14683929D01*
X9441071Y-14698214D01*
X9412500Y-14698214D01*
X9383928Y-14683929D01*
X9369643Y-14669643D01*
X9355357Y-14641071D01*
X9341071Y-14583929D01*
X9341071Y-14512500D01*
X9355357Y-14455357D01*
X9369643Y-14426786D01*
X9383928Y-14412500D01*
X9412500Y-14398214D01*
X9641071Y-14669643D02*
X9655357Y-14683929D01*
X9641071Y-14698214D01*
X9626786Y-14683929D01*
X9641071Y-14669643D01*
X9641071Y-14698214D01*
X9941071Y-14698214D02*
X9769643Y-14698214D01*
X9855357Y-14698214D02*
X9855357Y-14398214D01*
X9826786Y-14441071D01*
X9798214Y-14469643D01*
X9769643Y-14483929D01*
X10055357Y-14426786D02*
X10069643Y-14412500D01*
X10098214Y-14398214D01*
X10169643Y-14398214D01*
X10198214Y-14412500D01*
X10212500Y-14426786D01*
X10226786Y-14455357D01*
X10226786Y-14483929D01*
X10212500Y-14526786D01*
X10041071Y-14698214D01*
X10226786Y-14698214D01*
X10483928Y-14398214D02*
X10426786Y-14398214D01*
X10398214Y-14412500D01*
X10383928Y-14426786D01*
X10355357Y-14469643D01*
X10341071Y-14526786D01*
X10341071Y-14641071D01*
X10355357Y-14669643D01*
X10369643Y-14683929D01*
X10398214Y-14698214D01*
X10455357Y-14698214D01*
X10483928Y-14683929D01*
X10498214Y-14669643D01*
X10512500Y-14641071D01*
X10512500Y-14569643D01*
X10498214Y-14541071D01*
X10483928Y-14526786D01*
X10455357Y-14512500D01*
X10398214Y-14512500D01*
X10369643Y-14526786D01*
X10355357Y-14541071D01*
X10341071Y-14569643D01*
X10626786Y-14398214D02*
X10626786Y-14455357D01*
X10741071Y-14398214D02*
X10741071Y-14455357D01*
X11183928Y-14812500D02*
X11169643Y-14798214D01*
X11141071Y-14755357D01*
X11126786Y-14726786D01*
X11112500Y-14683929D01*
X11098214Y-14612500D01*
X11098214Y-14555357D01*
X11112500Y-14483929D01*
X11126786Y-14441071D01*
X11141071Y-14412500D01*
X11169643Y-14369643D01*
X11183928Y-14355357D01*
X11283928Y-14426786D02*
X11298214Y-14412500D01*
X11326786Y-14398214D01*
X11398214Y-14398214D01*
X11426786Y-14412500D01*
X11441071Y-14426786D01*
X11455357Y-14455357D01*
X11455357Y-14483929D01*
X11441071Y-14526786D01*
X11269643Y-14698214D01*
X11455357Y-14698214D01*
X11812500Y-14698214D02*
X11812500Y-14398214D01*
X11941071Y-14698214D02*
X11941071Y-14541071D01*
X11926786Y-14512500D01*
X11898214Y-14498214D01*
X11855357Y-14498214D01*
X11826786Y-14512500D01*
X11812500Y-14526786D01*
X12126786Y-14698214D02*
X12098214Y-14683929D01*
X12083928Y-14669643D01*
X12069643Y-14641071D01*
X12069643Y-14555357D01*
X12083928Y-14526786D01*
X12098214Y-14512500D01*
X12126786Y-14498214D01*
X12169643Y-14498214D01*
X12198214Y-14512500D01*
X12212500Y-14526786D01*
X12226786Y-14555357D01*
X12226786Y-14641071D01*
X12212500Y-14669643D01*
X12198214Y-14683929D01*
X12169643Y-14698214D01*
X12126786Y-14698214D01*
X12398214Y-14698214D02*
X12369643Y-14683929D01*
X12355357Y-14655357D01*
X12355357Y-14398214D01*
X12626786Y-14683929D02*
X12598214Y-14698214D01*
X12541071Y-14698214D01*
X12512500Y-14683929D01*
X12498214Y-14655357D01*
X12498214Y-14541071D01*
X12512500Y-14512500D01*
X12541071Y-14498214D01*
X12598214Y-14498214D01*
X12626786Y-14512500D01*
X12641071Y-14541071D01*
X12641071Y-14569643D01*
X12498214Y-14598214D01*
X12755357Y-14683929D02*
X12783928Y-14698214D01*
X12841071Y-14698214D01*
X12869643Y-14683929D01*
X12883928Y-14655357D01*
X12883928Y-14641071D01*
X12869643Y-14612500D01*
X12841071Y-14598214D01*
X12798214Y-14598214D01*
X12769643Y-14583929D01*
X12755357Y-14555357D01*
X12755357Y-14541071D01*
X12769643Y-14512500D01*
X12798214Y-14498214D01*
X12841071Y-14498214D01*
X12869643Y-14512500D01*
X12983928Y-14812500D02*
X12998214Y-14798214D01*
X13026786Y-14755357D01*
X13041071Y-14726786D01*
X13055357Y-14683929D01*
X13069643Y-14612500D01*
X13069643Y-14555357D01*
X13055357Y-14483929D01*
X13041071Y-14441071D01*
X13026786Y-14412500D01*
X12998214Y-14369643D01*
X12983928Y-14355357D01*
X13526786Y-14812500D02*
X13512500Y-14798214D01*
X13483928Y-14755357D01*
X13469643Y-14726786D01*
X13455357Y-14683929D01*
X13441071Y-14612500D01*
X13441071Y-14555357D01*
X13455357Y-14483929D01*
X13469643Y-14441071D01*
X13483928Y-14412500D01*
X13512500Y-14369643D01*
X13526786Y-14355357D01*
X13641071Y-14498214D02*
X13641071Y-14698214D01*
X13641071Y-14526786D02*
X13655357Y-14512500D01*
X13683928Y-14498214D01*
X13726786Y-14498214D01*
X13755357Y-14512500D01*
X13769643Y-14541071D01*
X13769643Y-14698214D01*
X13955357Y-14698214D02*
X13926786Y-14683929D01*
X13912500Y-14669643D01*
X13898214Y-14641071D01*
X13898214Y-14555357D01*
X13912500Y-14526786D01*
X13926786Y-14512500D01*
X13955357Y-14498214D01*
X13998214Y-14498214D01*
X14026786Y-14512500D01*
X14041071Y-14526786D01*
X14055357Y-14555357D01*
X14055357Y-14641071D01*
X14041071Y-14669643D01*
X14026786Y-14683929D01*
X13998214Y-14698214D01*
X13955357Y-14698214D01*
X14141071Y-14498214D02*
X14255357Y-14498214D01*
X14183928Y-14398214D02*
X14183928Y-14655357D01*
X14198214Y-14683929D01*
X14226786Y-14698214D01*
X14255357Y-14698214D01*
X14583928Y-14498214D02*
X14583928Y-14798214D01*
X14583928Y-14512500D02*
X14612500Y-14498214D01*
X14669643Y-14498214D01*
X14698214Y-14512500D01*
X14712500Y-14526786D01*
X14726786Y-14555357D01*
X14726786Y-14641071D01*
X14712500Y-14669643D01*
X14698214Y-14683929D01*
X14669643Y-14698214D01*
X14612500Y-14698214D01*
X14583928Y-14683929D01*
X14898214Y-14698214D02*
X14869643Y-14683929D01*
X14855357Y-14655357D01*
X14855357Y-14398214D01*
X15141071Y-14698214D02*
X15141071Y-14541071D01*
X15126786Y-14512500D01*
X15098214Y-14498214D01*
X15041071Y-14498214D01*
X15012500Y-14512500D01*
X15141071Y-14683929D02*
X15112500Y-14698214D01*
X15041071Y-14698214D01*
X15012500Y-14683929D01*
X14998214Y-14655357D01*
X14998214Y-14626786D01*
X15012500Y-14598214D01*
X15041071Y-14583929D01*
X15112500Y-14583929D01*
X15141071Y-14569643D01*
X15241071Y-14498214D02*
X15355357Y-14498214D01*
X15283928Y-14398214D02*
X15283928Y-14655357D01*
X15298214Y-14683929D01*
X15326786Y-14698214D01*
X15355357Y-14698214D01*
X15569643Y-14683929D02*
X15541071Y-14698214D01*
X15483928Y-14698214D01*
X15455357Y-14683929D01*
X15441071Y-14655357D01*
X15441071Y-14541071D01*
X15455357Y-14512500D01*
X15483928Y-14498214D01*
X15541071Y-14498214D01*
X15569643Y-14512500D01*
X15583928Y-14541071D01*
X15583928Y-14569643D01*
X15441071Y-14598214D01*
X15841071Y-14698214D02*
X15841071Y-14398214D01*
X15841071Y-14683929D02*
X15812500Y-14698214D01*
X15755357Y-14698214D01*
X15726786Y-14683929D01*
X15712500Y-14669643D01*
X15698214Y-14641071D01*
X15698214Y-14555357D01*
X15712500Y-14526786D01*
X15726786Y-14512500D01*
X15755357Y-14498214D01*
X15812500Y-14498214D01*
X15841071Y-14512500D01*
X15955357Y-14812500D02*
X15969643Y-14798214D01*
X15998214Y-14755357D01*
X16012500Y-14726786D01*
X16026786Y-14683929D01*
X16041071Y-14612500D01*
X16041071Y-14555357D01*
X16026786Y-14483929D01*
X16012500Y-14441071D01*
X15998214Y-14412500D01*
X15969643Y-14369643D01*
X15955357Y-14355357D01*
M02*
