%FSLAX45Y45*%
G04 Gerber Fmt 4.5, Leading zero omitted, Abs format (unit mm)*
G04 Created by KiCad (PCBNEW (5.1.4)-1) date 2021-09-06 14:48:07*
%MOMM*%
%LPD*%
G04 APERTURE LIST*
%ADD10C,0.050000*%
%ADD11C,0.200000*%
%ADD12C,0.300000*%
G04 APERTURE END LIST*
D10*
X6500000Y-3600000D02*
X6500000Y-13600000D01*
X16500000Y-13600000D02*
X16500000Y-3600000D01*
X6500000Y-13600000D02*
X16500000Y-13600000D01*
X6500000Y-3600000D02*
X16500000Y-3600000D01*
D11*
X6580000Y-9330000D02*
X6620000Y-9370000D01*
X6620000Y-9330000D02*
X6580000Y-9370000D01*
X6580000Y-9530000D02*
X6620000Y-9570000D01*
X6620000Y-9530000D02*
X6580000Y-9570000D01*
X6580000Y-10380000D02*
X6620000Y-10420000D01*
X6620000Y-10380000D02*
X6580000Y-10420000D01*
X6580000Y-10480000D02*
X6620000Y-10520000D01*
X6620000Y-10480000D02*
X6580000Y-10520000D01*
X6580000Y-10580000D02*
X6620000Y-10620000D01*
X6620000Y-10580000D02*
X6580000Y-10620000D01*
X6580000Y-12580000D02*
X6620000Y-12620000D01*
X6620000Y-12580000D02*
X6580000Y-12620000D01*
X6580000Y-12780000D02*
X6620000Y-12820000D01*
X6620000Y-12780000D02*
X6580000Y-12820000D01*
X6580000Y-12980000D02*
X6620000Y-13020000D01*
X6620000Y-12980000D02*
X6580000Y-13020000D01*
X6580000Y-13180000D02*
X6620000Y-13220000D01*
X6620000Y-13180000D02*
X6580000Y-13220000D01*
X6580000Y-13355000D02*
X6620000Y-13395000D01*
X6620000Y-13355000D02*
X6580000Y-13395000D01*
X6580000Y-13480000D02*
X6620000Y-13520000D01*
X6620000Y-13480000D02*
X6580000Y-13520000D01*
X6630000Y-9680000D02*
X6670000Y-9720000D01*
X6670000Y-9680000D02*
X6630000Y-9720000D01*
X6630000Y-12455000D02*
X6670000Y-12495000D01*
X6670000Y-12455000D02*
X6630000Y-12495000D01*
X6655000Y-8305000D02*
X6695000Y-8345000D01*
X6695000Y-8305000D02*
X6655000Y-8345000D01*
X6655000Y-9230000D02*
X6695000Y-9270000D01*
X6695000Y-9230000D02*
X6655000Y-9270000D01*
X6655000Y-10305000D02*
X6695000Y-10345000D01*
X6695000Y-10305000D02*
X6655000Y-10345000D01*
X6655000Y-10655000D02*
X6695000Y-10695000D01*
X6695000Y-10655000D02*
X6655000Y-10695000D01*
X6730000Y-13480000D02*
X6770000Y-13520000D01*
X6770000Y-13480000D02*
X6730000Y-13520000D01*
X6755000Y-12405000D02*
X6795000Y-12445000D01*
X6795000Y-12405000D02*
X6755000Y-12445000D01*
X6755000Y-12805000D02*
X6795000Y-12845000D01*
X6795000Y-12805000D02*
X6755000Y-12845000D01*
X6780000Y-6455000D02*
X6820000Y-6495000D01*
X6820000Y-6455000D02*
X6780000Y-6495000D01*
X6780000Y-6955000D02*
X6820000Y-6995000D01*
X6820000Y-6955000D02*
X6780000Y-6995000D01*
X6780000Y-7455000D02*
X6820000Y-7495000D01*
X6820000Y-7455000D02*
X6780000Y-7495000D01*
X6780000Y-7955000D02*
X6820000Y-7995000D01*
X6820000Y-7955000D02*
X6780000Y-7995000D01*
X6780000Y-8955000D02*
X6820000Y-8995000D01*
X6820000Y-8955000D02*
X6780000Y-8995000D01*
X6855000Y-8305000D02*
X6895000Y-8345000D01*
X6895000Y-8305000D02*
X6855000Y-8345000D01*
X6855000Y-9230000D02*
X6895000Y-9270000D01*
X6895000Y-9230000D02*
X6855000Y-9270000D01*
X6880000Y-12405000D02*
X6920000Y-12445000D01*
X6920000Y-12405000D02*
X6880000Y-12445000D01*
X6905000Y-13480000D02*
X6945000Y-13520000D01*
X6945000Y-13480000D02*
X6905000Y-13520000D01*
X6955000Y-12805000D02*
X6995000Y-12845000D01*
X6995000Y-12805000D02*
X6955000Y-12845000D01*
X7005000Y-12405000D02*
X7045000Y-12445000D01*
X7045000Y-12405000D02*
X7005000Y-12445000D01*
X7055000Y-8305000D02*
X7095000Y-8345000D01*
X7095000Y-8305000D02*
X7055000Y-8345000D01*
X7055000Y-9230000D02*
X7095000Y-9270000D01*
X7095000Y-9230000D02*
X7055000Y-9270000D01*
X7080000Y-13480000D02*
X7120000Y-13520000D01*
X7120000Y-13480000D02*
X7080000Y-13520000D01*
X7130000Y-12405000D02*
X7170000Y-12445000D01*
X7170000Y-12405000D02*
X7130000Y-12445000D01*
X7205000Y-11955000D02*
X7245000Y-11995000D01*
X7245000Y-11955000D02*
X7205000Y-11995000D01*
X7205000Y-12080000D02*
X7245000Y-12120000D01*
X7245000Y-12080000D02*
X7205000Y-12120000D01*
X7205000Y-12205000D02*
X7245000Y-12245000D01*
X7245000Y-12205000D02*
X7205000Y-12245000D01*
X7205000Y-12330000D02*
X7245000Y-12370000D01*
X7245000Y-12330000D02*
X7205000Y-12370000D01*
X7230000Y-13005000D02*
X7270000Y-13045000D01*
X7270000Y-13005000D02*
X7230000Y-13045000D01*
X7230000Y-13480000D02*
X7270000Y-13520000D01*
X7270000Y-13480000D02*
X7230000Y-13520000D01*
X7255000Y-8305000D02*
X7295000Y-8345000D01*
X7295000Y-8305000D02*
X7255000Y-8345000D01*
X7255000Y-9230000D02*
X7295000Y-9270000D01*
X7295000Y-9230000D02*
X7255000Y-9270000D01*
X7280000Y-10355000D02*
X7320000Y-10395000D01*
X7320000Y-10355000D02*
X7280000Y-10395000D01*
X7280000Y-10480000D02*
X7320000Y-10520000D01*
X7320000Y-10480000D02*
X7280000Y-10520000D01*
X7280000Y-10630000D02*
X7320000Y-10670000D01*
X7320000Y-10630000D02*
X7280000Y-10670000D01*
X7300000Y-11400000D02*
X7340000Y-11440000D01*
X7340000Y-11400000D02*
X7300000Y-11440000D01*
X7300000Y-11500000D02*
X7340000Y-11540000D01*
X7340000Y-11500000D02*
X7300000Y-11540000D01*
X7300000Y-11600000D02*
X7340000Y-11640000D01*
X7340000Y-11600000D02*
X7300000Y-11640000D01*
X7300000Y-11700000D02*
X7340000Y-11740000D01*
X7340000Y-11700000D02*
X7300000Y-11740000D01*
X7330000Y-3705000D02*
X7370000Y-3745000D01*
X7370000Y-3705000D02*
X7330000Y-3745000D01*
X7330000Y-10255000D02*
X7370000Y-10295000D01*
X7370000Y-10255000D02*
X7330000Y-10295000D01*
X7340000Y-13240000D02*
X7380000Y-13280000D01*
X7380000Y-13240000D02*
X7340000Y-13280000D01*
X7380000Y-10680000D02*
X7420000Y-10720000D01*
X7420000Y-10680000D02*
X7380000Y-10720000D01*
X7380000Y-10780000D02*
X7420000Y-10820000D01*
X7420000Y-10780000D02*
X7380000Y-10820000D01*
X7380000Y-10880000D02*
X7420000Y-10920000D01*
X7420000Y-10880000D02*
X7380000Y-10920000D01*
X7380000Y-10980000D02*
X7420000Y-11020000D01*
X7420000Y-10980000D02*
X7380000Y-11020000D01*
X7380000Y-11080000D02*
X7420000Y-11120000D01*
X7420000Y-11080000D02*
X7380000Y-11120000D01*
X7380000Y-11180000D02*
X7420000Y-11220000D01*
X7420000Y-11180000D02*
X7380000Y-11220000D01*
X7430000Y-8530000D02*
X7470000Y-8570000D01*
X7470000Y-8530000D02*
X7430000Y-8570000D01*
X7430000Y-8780000D02*
X7470000Y-8820000D01*
X7470000Y-8780000D02*
X7430000Y-8820000D01*
X7430000Y-9030000D02*
X7470000Y-9070000D01*
X7470000Y-9030000D02*
X7430000Y-9070000D01*
X7430000Y-12730000D02*
X7470000Y-12770000D01*
X7470000Y-12730000D02*
X7430000Y-12770000D01*
X7430000Y-13480000D02*
X7470000Y-13520000D01*
X7470000Y-13480000D02*
X7430000Y-13520000D01*
X7455000Y-8305000D02*
X7495000Y-8345000D01*
X7495000Y-8305000D02*
X7455000Y-8345000D01*
X7455000Y-9230000D02*
X7495000Y-9270000D01*
X7495000Y-9230000D02*
X7455000Y-9270000D01*
X7505000Y-3955000D02*
X7545000Y-3995000D01*
X7545000Y-3955000D02*
X7505000Y-3995000D01*
X7505000Y-4255000D02*
X7545000Y-4295000D01*
X7545000Y-4255000D02*
X7505000Y-4295000D01*
X7525025Y-12784975D02*
X7565025Y-12824975D01*
X7565025Y-12784975D02*
X7525025Y-12824975D01*
X7530000Y-10530000D02*
X7570000Y-10570000D01*
X7570000Y-10530000D02*
X7530000Y-10570000D01*
X7530000Y-11230000D02*
X7570000Y-11270000D01*
X7570000Y-11230000D02*
X7530000Y-11270000D01*
X7540000Y-13240000D02*
X7580000Y-13280000D01*
X7580000Y-13240000D02*
X7540000Y-13280000D01*
X7580000Y-3705000D02*
X7620000Y-3745000D01*
X7620000Y-3705000D02*
X7580000Y-3745000D01*
X7630000Y-10680000D02*
X7670000Y-10720000D01*
X7670000Y-10680000D02*
X7630000Y-10720000D01*
X7630000Y-12805000D02*
X7670000Y-12845000D01*
X7670000Y-12805000D02*
X7630000Y-12845000D01*
X7630000Y-12980000D02*
X7670000Y-13020000D01*
X7670000Y-12980000D02*
X7630000Y-13020000D01*
X7630000Y-13480000D02*
X7670000Y-13520000D01*
X7670000Y-13480000D02*
X7630000Y-13520000D01*
X7655000Y-8305000D02*
X7695000Y-8345000D01*
X7695000Y-8305000D02*
X7655000Y-8345000D01*
X7705000Y-9230000D02*
X7745000Y-9270000D01*
X7745000Y-9230000D02*
X7705000Y-9270000D01*
X7705000Y-10530000D02*
X7745000Y-10570000D01*
X7745000Y-10530000D02*
X7705000Y-10570000D01*
X7705000Y-11230000D02*
X7745000Y-11270000D01*
X7745000Y-11230000D02*
X7705000Y-11270000D01*
X7705000Y-12880000D02*
X7745000Y-12920000D01*
X7745000Y-12880000D02*
X7705000Y-12920000D01*
X7720000Y-13240000D02*
X7760000Y-13280000D01*
X7760000Y-13240000D02*
X7720000Y-13280000D01*
X7730000Y-9930000D02*
X7770000Y-9970000D01*
X7770000Y-9930000D02*
X7730000Y-9970000D01*
X7730000Y-10080000D02*
X7770000Y-10120000D01*
X7770000Y-10080000D02*
X7730000Y-10120000D01*
X7730000Y-10255000D02*
X7770000Y-10295000D01*
X7770000Y-10255000D02*
X7730000Y-10295000D01*
X7780000Y-10755000D02*
X7820000Y-10795000D01*
X7820000Y-10755000D02*
X7780000Y-10795000D01*
X7830000Y-3705000D02*
X7870000Y-3745000D01*
X7870000Y-3705000D02*
X7830000Y-3745000D01*
X7830000Y-13480000D02*
X7870000Y-13520000D01*
X7870000Y-13480000D02*
X7830000Y-13520000D01*
X7855000Y-8305000D02*
X7895000Y-8345000D01*
X7895000Y-8305000D02*
X7855000Y-8345000D01*
X7855000Y-10180000D02*
X7895000Y-10220000D01*
X7895000Y-10180000D02*
X7855000Y-10220000D01*
X7855000Y-10380000D02*
X7895000Y-10420000D01*
X7895000Y-10380000D02*
X7855000Y-10420000D01*
X7860000Y-10560000D02*
X7900000Y-10600000D01*
X7900000Y-10560000D02*
X7860000Y-10600000D01*
X7880000Y-11255000D02*
X7920000Y-11295000D01*
X7920000Y-11255000D02*
X7880000Y-11295000D01*
X7900000Y-9230000D02*
X7940000Y-9270000D01*
X7940000Y-9230000D02*
X7900000Y-9270000D01*
X7900000Y-11980000D02*
X7940000Y-12020000D01*
X7940000Y-11980000D02*
X7900000Y-12020000D01*
X7900000Y-13240000D02*
X7940000Y-13280000D01*
X7940000Y-13240000D02*
X7900000Y-13280000D01*
X7930000Y-9430000D02*
X7970000Y-9470000D01*
X7970000Y-9430000D02*
X7930000Y-9470000D01*
X7930000Y-9530000D02*
X7970000Y-9570000D01*
X7970000Y-9530000D02*
X7930000Y-9570000D01*
X7930000Y-9630000D02*
X7970000Y-9670000D01*
X7970000Y-9630000D02*
X7930000Y-9670000D01*
X7930000Y-9730000D02*
X7970000Y-9770000D01*
X7970000Y-9730000D02*
X7930000Y-9770000D01*
X7930000Y-12405000D02*
X7970000Y-12445000D01*
X7970000Y-12405000D02*
X7930000Y-12445000D01*
X7930000Y-12705000D02*
X7970000Y-12745000D01*
X7970000Y-12705000D02*
X7930000Y-12745000D01*
X7940000Y-10720000D02*
X7980000Y-10760000D01*
X7980000Y-10720000D02*
X7940000Y-10760000D01*
X7955000Y-11330000D02*
X7995000Y-11370000D01*
X7995000Y-11330000D02*
X7955000Y-11370000D01*
X7960000Y-11840000D02*
X8000000Y-11880000D01*
X8000000Y-11840000D02*
X7960000Y-11880000D01*
X7980000Y-11620000D02*
X8020000Y-11660000D01*
X8020000Y-11620000D02*
X7980000Y-11660000D01*
X8030000Y-10930000D02*
X8070000Y-10970000D01*
X8070000Y-10930000D02*
X8030000Y-10970000D01*
X8030000Y-11105000D02*
X8070000Y-11145000D01*
X8070000Y-11105000D02*
X8030000Y-11145000D01*
X8030000Y-13480000D02*
X8070000Y-13520000D01*
X8070000Y-13480000D02*
X8030000Y-13520000D01*
X8040000Y-11440000D02*
X8080000Y-11480000D01*
X8080000Y-11440000D02*
X8040000Y-11480000D01*
X8040000Y-12040000D02*
X8080000Y-12080000D01*
X8080000Y-12040000D02*
X8040000Y-12080000D01*
X8055000Y-8305000D02*
X8095000Y-8345000D01*
X8095000Y-8305000D02*
X8055000Y-8345000D01*
X8055000Y-12905000D02*
X8095000Y-12945000D01*
X8095000Y-12905000D02*
X8055000Y-12945000D01*
X8080000Y-3705000D02*
X8120000Y-3745000D01*
X8120000Y-3705000D02*
X8080000Y-3745000D01*
X8080000Y-10740000D02*
X8120000Y-10780000D01*
X8120000Y-10740000D02*
X8080000Y-10780000D01*
X8100000Y-13240000D02*
X8140000Y-13280000D01*
X8140000Y-13240000D02*
X8100000Y-13280000D01*
X8105000Y-9230000D02*
X8145000Y-9270000D01*
X8145000Y-9230000D02*
X8105000Y-9270000D01*
X8220000Y-10800000D02*
X8260000Y-10840000D01*
X8260000Y-10800000D02*
X8220000Y-10840000D01*
X8220000Y-10940000D02*
X8260000Y-10980000D01*
X8260000Y-10940000D02*
X8220000Y-10980000D01*
X8220000Y-11080000D02*
X8260000Y-11120000D01*
X8260000Y-11080000D02*
X8220000Y-11120000D01*
X8220000Y-11220000D02*
X8260000Y-11260000D01*
X8260000Y-11220000D02*
X8220000Y-11260000D01*
X8230000Y-10180000D02*
X8270000Y-10220000D01*
X8270000Y-10180000D02*
X8230000Y-10220000D01*
X8230000Y-10305000D02*
X8270000Y-10345000D01*
X8270000Y-10305000D02*
X8230000Y-10345000D01*
X8230000Y-12555000D02*
X8270000Y-12595000D01*
X8270000Y-12555000D02*
X8230000Y-12595000D01*
X8230000Y-13480000D02*
X8270000Y-13520000D01*
X8270000Y-13480000D02*
X8230000Y-13520000D01*
X8240000Y-12040000D02*
X8280000Y-12080000D01*
X8280000Y-12040000D02*
X8240000Y-12080000D01*
X8255000Y-8305000D02*
X8295000Y-8345000D01*
X8295000Y-8305000D02*
X8255000Y-8345000D01*
X8280000Y-11480000D02*
X8320000Y-11520000D01*
X8320000Y-11480000D02*
X8280000Y-11520000D01*
X8280000Y-13240000D02*
X8320000Y-13280000D01*
X8320000Y-13240000D02*
X8280000Y-13280000D01*
X8330000Y-3705000D02*
X8370000Y-3745000D01*
X8370000Y-3705000D02*
X8330000Y-3745000D01*
X8330000Y-9155000D02*
X8370000Y-9195000D01*
X8370000Y-9155000D02*
X8330000Y-9195000D01*
X8355000Y-6455000D02*
X8395000Y-6495000D01*
X8395000Y-6455000D02*
X8355000Y-6495000D01*
X8355000Y-6680000D02*
X8395000Y-6720000D01*
X8395000Y-6680000D02*
X8355000Y-6720000D01*
X8355000Y-6930000D02*
X8395000Y-6970000D01*
X8395000Y-6930000D02*
X8355000Y-6970000D01*
X8355000Y-7180000D02*
X8395000Y-7220000D01*
X8395000Y-7180000D02*
X8355000Y-7220000D01*
X8355000Y-7430000D02*
X8395000Y-7470000D01*
X8395000Y-7430000D02*
X8355000Y-7470000D01*
X8355000Y-7680000D02*
X8395000Y-7720000D01*
X8395000Y-7680000D02*
X8355000Y-7720000D01*
X8355000Y-7905000D02*
X8395000Y-7945000D01*
X8395000Y-7905000D02*
X8355000Y-7945000D01*
X8355000Y-10180000D02*
X8395000Y-10220000D01*
X8395000Y-10180000D02*
X8355000Y-10220000D01*
X8355000Y-10305000D02*
X8395000Y-10345000D01*
X8395000Y-10305000D02*
X8355000Y-10345000D01*
X8380000Y-11280000D02*
X8420000Y-11320000D01*
X8420000Y-11280000D02*
X8380000Y-11320000D01*
X8430000Y-13480000D02*
X8470000Y-13520000D01*
X8470000Y-13480000D02*
X8430000Y-13520000D01*
X8440000Y-12040000D02*
X8480000Y-12080000D01*
X8480000Y-12040000D02*
X8440000Y-12080000D01*
X8440000Y-13240000D02*
X8480000Y-13280000D01*
X8480000Y-13240000D02*
X8440000Y-13280000D01*
X8505000Y-11505000D02*
X8545000Y-11545000D01*
X8545000Y-11505000D02*
X8505000Y-11545000D01*
X8505000Y-11730000D02*
X8545000Y-11770000D01*
X8545000Y-11730000D02*
X8505000Y-11770000D01*
X8505000Y-11905000D02*
X8545000Y-11945000D01*
X8545000Y-11905000D02*
X8505000Y-11945000D01*
X8520000Y-9700000D02*
X8560000Y-9740000D01*
X8560000Y-9700000D02*
X8520000Y-9740000D01*
X8520000Y-11280000D02*
X8560000Y-11320000D01*
X8560000Y-11280000D02*
X8520000Y-11320000D01*
X8530000Y-10005000D02*
X8570000Y-10045000D01*
X8570000Y-10005000D02*
X8530000Y-10045000D01*
X8540000Y-10120000D02*
X8580000Y-10160000D01*
X8580000Y-10120000D02*
X8540000Y-10160000D01*
X8555000Y-5905000D02*
X8595000Y-5945000D01*
X8595000Y-5905000D02*
X8555000Y-5945000D01*
X8555000Y-8380000D02*
X8595000Y-8420000D01*
X8595000Y-8380000D02*
X8555000Y-8420000D01*
X8555000Y-10255000D02*
X8595000Y-10295000D01*
X8595000Y-10255000D02*
X8555000Y-10295000D01*
X8580000Y-3705000D02*
X8620000Y-3745000D01*
X8620000Y-3705000D02*
X8580000Y-3745000D01*
X8580000Y-9255000D02*
X8620000Y-9295000D01*
X8620000Y-9255000D02*
X8580000Y-9295000D01*
X8605000Y-10405000D02*
X8645000Y-10445000D01*
X8645000Y-10405000D02*
X8605000Y-10445000D01*
X8605000Y-10505000D02*
X8645000Y-10545000D01*
X8645000Y-10505000D02*
X8605000Y-10545000D01*
X8605000Y-10605000D02*
X8645000Y-10645000D01*
X8645000Y-10605000D02*
X8605000Y-10645000D01*
X8620000Y-12040000D02*
X8660000Y-12080000D01*
X8660000Y-12040000D02*
X8620000Y-12080000D01*
X8630000Y-13480000D02*
X8670000Y-13520000D01*
X8670000Y-13480000D02*
X8630000Y-13520000D01*
X8640000Y-13240000D02*
X8680000Y-13280000D01*
X8680000Y-13240000D02*
X8640000Y-13280000D01*
X8660000Y-11280000D02*
X8700000Y-11320000D01*
X8700000Y-11280000D02*
X8660000Y-11320000D01*
X8730000Y-6555000D02*
X8770000Y-6595000D01*
X8770000Y-6555000D02*
X8730000Y-6595000D01*
X8730000Y-6805000D02*
X8770000Y-6845000D01*
X8770000Y-6805000D02*
X8730000Y-6845000D01*
X8730000Y-7055000D02*
X8770000Y-7095000D01*
X8770000Y-7055000D02*
X8730000Y-7095000D01*
X8730000Y-7280000D02*
X8770000Y-7320000D01*
X8770000Y-7280000D02*
X8730000Y-7320000D01*
X8730000Y-7530000D02*
X8770000Y-7570000D01*
X8770000Y-7530000D02*
X8730000Y-7570000D01*
X8730000Y-7755000D02*
X8770000Y-7795000D01*
X8770000Y-7755000D02*
X8730000Y-7795000D01*
X8730000Y-8030000D02*
X8770000Y-8070000D01*
X8770000Y-8030000D02*
X8730000Y-8070000D01*
X8730000Y-8305000D02*
X8770000Y-8345000D01*
X8770000Y-8305000D02*
X8730000Y-8345000D01*
X8740000Y-9700000D02*
X8780000Y-9740000D01*
X8780000Y-9700000D02*
X8740000Y-9740000D01*
X8755000Y-9255000D02*
X8795000Y-9295000D01*
X8795000Y-9255000D02*
X8755000Y-9295000D01*
X8780000Y-8930000D02*
X8820000Y-8970000D01*
X8820000Y-8930000D02*
X8780000Y-8970000D01*
X8780000Y-12520000D02*
X8820000Y-12560000D01*
X8820000Y-12520000D02*
X8780000Y-12560000D01*
X8780000Y-12660000D02*
X8820000Y-12700000D01*
X8820000Y-12660000D02*
X8780000Y-12700000D01*
X8780000Y-12800000D02*
X8820000Y-12840000D01*
X8820000Y-12800000D02*
X8780000Y-12840000D01*
X8780000Y-12960000D02*
X8820000Y-13000000D01*
X8820000Y-12960000D02*
X8780000Y-13000000D01*
X8780000Y-13140000D02*
X8820000Y-13180000D01*
X8820000Y-13140000D02*
X8780000Y-13180000D01*
X8800000Y-10860000D02*
X8840000Y-10900000D01*
X8840000Y-10860000D02*
X8800000Y-10900000D01*
X8800000Y-11020000D02*
X8840000Y-11060000D01*
X8840000Y-11020000D02*
X8800000Y-11060000D01*
X8800000Y-11180000D02*
X8840000Y-11220000D01*
X8840000Y-11180000D02*
X8800000Y-11220000D01*
X8805000Y-10680000D02*
X8845000Y-10720000D01*
X8845000Y-10680000D02*
X8805000Y-10720000D01*
X8805000Y-11430000D02*
X8845000Y-11470000D01*
X8845000Y-11430000D02*
X8805000Y-11470000D01*
X8820000Y-11780000D02*
X8860000Y-11820000D01*
X8860000Y-11780000D02*
X8820000Y-11820000D01*
X8830000Y-3705000D02*
X8870000Y-3745000D01*
X8870000Y-3705000D02*
X8830000Y-3745000D01*
X8830000Y-10205000D02*
X8870000Y-10245000D01*
X8870000Y-10205000D02*
X8830000Y-10245000D01*
X8830000Y-10305000D02*
X8870000Y-10345000D01*
X8870000Y-10305000D02*
X8830000Y-10345000D01*
X8830000Y-13480000D02*
X8870000Y-13520000D01*
X8870000Y-13480000D02*
X8830000Y-13520000D01*
X8855000Y-10080000D02*
X8895000Y-10120000D01*
X8895000Y-10080000D02*
X8855000Y-10120000D01*
X8960000Y-10840000D02*
X9000000Y-10880000D01*
X9000000Y-10840000D02*
X8960000Y-10880000D01*
X8980000Y-9700000D02*
X9020000Y-9740000D01*
X9020000Y-9700000D02*
X8980000Y-9740000D01*
X9005000Y-8030000D02*
X9045000Y-8070000D01*
X9045000Y-8030000D02*
X9005000Y-8070000D01*
X9005000Y-13480000D02*
X9045000Y-13520000D01*
X9045000Y-13480000D02*
X9005000Y-13520000D01*
X9020000Y-12800000D02*
X9060000Y-12840000D01*
X9060000Y-12800000D02*
X9020000Y-12840000D01*
X9020000Y-13000000D02*
X9060000Y-13040000D01*
X9060000Y-13000000D02*
X9020000Y-13040000D01*
X9020000Y-13200000D02*
X9060000Y-13240000D01*
X9060000Y-13200000D02*
X9020000Y-13240000D01*
X9020000Y-13355000D02*
X9060000Y-13395000D01*
X9060000Y-13355000D02*
X9020000Y-13395000D01*
X9040000Y-11240000D02*
X9080000Y-11280000D01*
X9080000Y-11240000D02*
X9040000Y-11280000D01*
X9040000Y-11840000D02*
X9080000Y-11880000D01*
X9080000Y-11840000D02*
X9040000Y-11880000D01*
X9040000Y-11980000D02*
X9080000Y-12020000D01*
X9080000Y-11980000D02*
X9040000Y-12020000D01*
X9040000Y-12140000D02*
X9080000Y-12180000D01*
X9080000Y-12140000D02*
X9040000Y-12180000D01*
X9040000Y-12480000D02*
X9080000Y-12520000D01*
X9080000Y-12480000D02*
X9040000Y-12520000D01*
X9040000Y-12580000D02*
X9080000Y-12620000D01*
X9080000Y-12580000D02*
X9040000Y-12620000D01*
X9060000Y-12700000D02*
X9100000Y-12740000D01*
X9100000Y-12700000D02*
X9060000Y-12740000D01*
X9080000Y-3705000D02*
X9120000Y-3745000D01*
X9120000Y-3705000D02*
X9080000Y-3745000D01*
X9105000Y-10080000D02*
X9145000Y-10120000D01*
X9145000Y-10080000D02*
X9105000Y-10120000D01*
X9130000Y-10155000D02*
X9170000Y-10195000D01*
X9170000Y-10155000D02*
X9130000Y-10195000D01*
X9140000Y-11720000D02*
X9180000Y-11760000D01*
X9180000Y-11720000D02*
X9140000Y-11760000D01*
X9160000Y-10980000D02*
X9200000Y-11020000D01*
X9200000Y-10980000D02*
X9160000Y-11020000D01*
X9200000Y-9700000D02*
X9240000Y-9740000D01*
X9240000Y-9700000D02*
X9200000Y-9740000D01*
X9220000Y-11060000D02*
X9260000Y-11100000D01*
X9260000Y-11060000D02*
X9220000Y-11100000D01*
X9220000Y-11820000D02*
X9260000Y-11860000D01*
X9260000Y-11820000D02*
X9220000Y-11860000D01*
X9230000Y-8030000D02*
X9270000Y-8070000D01*
X9270000Y-8030000D02*
X9230000Y-8070000D01*
X9280000Y-9230000D02*
X9320000Y-9270000D01*
X9320000Y-9230000D02*
X9280000Y-9270000D01*
X9300000Y-12580000D02*
X9340000Y-12620000D01*
X9340000Y-12580000D02*
X9300000Y-12620000D01*
X9330000Y-3705000D02*
X9370000Y-3745000D01*
X9370000Y-3705000D02*
X9330000Y-3745000D01*
X9360000Y-10740000D02*
X9400000Y-10780000D01*
X9400000Y-10740000D02*
X9360000Y-10780000D01*
X9380000Y-12700000D02*
X9420000Y-12740000D01*
X9420000Y-12700000D02*
X9380000Y-12740000D01*
X9405000Y-8030000D02*
X9445000Y-8070000D01*
X9445000Y-8030000D02*
X9405000Y-8070000D01*
X9420000Y-10900000D02*
X9460000Y-10940000D01*
X9460000Y-10900000D02*
X9420000Y-10940000D01*
X9440000Y-9700000D02*
X9480000Y-9740000D01*
X9480000Y-9700000D02*
X9440000Y-9740000D01*
X9480000Y-8905000D02*
X9520000Y-8945000D01*
X9520000Y-8905000D02*
X9480000Y-8945000D01*
X9505000Y-8805000D02*
X9545000Y-8845000D01*
X9545000Y-8805000D02*
X9505000Y-8845000D01*
X9505000Y-11055000D02*
X9545000Y-11095000D01*
X9545000Y-11055000D02*
X9505000Y-11095000D01*
X9555000Y-8605000D02*
X9595000Y-8645000D01*
X9595000Y-8605000D02*
X9555000Y-8645000D01*
X9560000Y-10740000D02*
X9600000Y-10780000D01*
X9600000Y-10740000D02*
X9560000Y-10780000D01*
X9580000Y-3705000D02*
X9620000Y-3745000D01*
X9620000Y-3705000D02*
X9580000Y-3745000D01*
X9580000Y-8030000D02*
X9620000Y-8070000D01*
X9620000Y-8030000D02*
X9580000Y-8070000D01*
X9580000Y-8705000D02*
X9620000Y-8745000D01*
X9620000Y-8705000D02*
X9580000Y-8745000D01*
X9580000Y-12700000D02*
X9620000Y-12740000D01*
X9620000Y-12700000D02*
X9580000Y-12740000D01*
X9605000Y-11180000D02*
X9645000Y-11220000D01*
X9645000Y-11180000D02*
X9605000Y-11220000D01*
X9655000Y-8180000D02*
X9695000Y-8220000D01*
X9695000Y-8180000D02*
X9655000Y-8220000D01*
X9655000Y-10905000D02*
X9695000Y-10945000D01*
X9695000Y-10905000D02*
X9655000Y-10945000D01*
X9720000Y-12040000D02*
X9760000Y-12080000D01*
X9760000Y-12040000D02*
X9720000Y-12080000D01*
X9730000Y-8180000D02*
X9770000Y-8220000D01*
X9770000Y-8180000D02*
X9730000Y-8220000D01*
X9755000Y-6030000D02*
X9795000Y-6070000D01*
X9795000Y-6030000D02*
X9755000Y-6070000D01*
X9755000Y-6230000D02*
X9795000Y-6270000D01*
X9795000Y-6230000D02*
X9755000Y-6270000D01*
X9755000Y-6455000D02*
X9795000Y-6495000D01*
X9795000Y-6455000D02*
X9755000Y-6495000D01*
X9755000Y-6680000D02*
X9795000Y-6720000D01*
X9795000Y-6680000D02*
X9755000Y-6720000D01*
X9755000Y-6905000D02*
X9795000Y-6945000D01*
X9795000Y-6905000D02*
X9755000Y-6945000D01*
X9755000Y-7130000D02*
X9795000Y-7170000D01*
X9795000Y-7130000D02*
X9755000Y-7170000D01*
X9755000Y-7355000D02*
X9795000Y-7395000D01*
X9795000Y-7355000D02*
X9755000Y-7395000D01*
X9755000Y-7605000D02*
X9795000Y-7645000D01*
X9795000Y-7605000D02*
X9755000Y-7645000D01*
X9780000Y-12700000D02*
X9820000Y-12740000D01*
X9820000Y-12700000D02*
X9780000Y-12740000D01*
X9805000Y-9805000D02*
X9845000Y-9845000D01*
X9845000Y-9805000D02*
X9805000Y-9845000D01*
X9805000Y-10205000D02*
X9845000Y-10245000D01*
X9845000Y-10205000D02*
X9805000Y-10245000D01*
X9805000Y-11030000D02*
X9845000Y-11070000D01*
X9845000Y-11030000D02*
X9805000Y-11070000D01*
X9830000Y-3705000D02*
X9870000Y-3745000D01*
X9870000Y-3705000D02*
X9830000Y-3745000D01*
X9880000Y-8080000D02*
X9920000Y-8120000D01*
X9920000Y-8080000D02*
X9880000Y-8120000D01*
X9880000Y-8903750D02*
X9920000Y-8943750D01*
X9920000Y-8903750D02*
X9880000Y-8943750D01*
X9980000Y-11330000D02*
X10020000Y-11370000D01*
X10020000Y-11330000D02*
X9980000Y-11370000D01*
X9980000Y-11580000D02*
X10020000Y-11620000D01*
X10020000Y-11580000D02*
X9980000Y-11620000D01*
X9980000Y-12105000D02*
X10020000Y-12145000D01*
X10020000Y-12105000D02*
X9980000Y-12145000D01*
X9980000Y-12700000D02*
X10020000Y-12740000D01*
X10020000Y-12700000D02*
X9980000Y-12740000D01*
X10080000Y-3705000D02*
X10120000Y-3745000D01*
X10120000Y-3705000D02*
X10080000Y-3745000D01*
X10080000Y-7930000D02*
X10120000Y-7970000D01*
X10120000Y-7930000D02*
X10080000Y-7970000D01*
X10080000Y-8580000D02*
X10120000Y-8620000D01*
X10120000Y-8580000D02*
X10080000Y-8620000D01*
X10105000Y-8405000D02*
X10145000Y-8445000D01*
X10145000Y-8405000D02*
X10105000Y-8445000D01*
X10180000Y-12700000D02*
X10220000Y-12740000D01*
X10220000Y-12700000D02*
X10180000Y-12740000D01*
X10200000Y-12120000D02*
X10240000Y-12160000D01*
X10240000Y-12120000D02*
X10200000Y-12160000D01*
X10230000Y-8530000D02*
X10270000Y-8570000D01*
X10270000Y-8530000D02*
X10230000Y-8570000D01*
X10255000Y-10680000D02*
X10295000Y-10720000D01*
X10295000Y-10680000D02*
X10255000Y-10720000D01*
X10255000Y-10830000D02*
X10295000Y-10870000D01*
X10295000Y-10830000D02*
X10255000Y-10870000D01*
X10280000Y-12700000D02*
X10320000Y-12740000D01*
X10320000Y-12700000D02*
X10280000Y-12740000D01*
X10305000Y-8180000D02*
X10345000Y-8220000D01*
X10345000Y-8180000D02*
X10305000Y-8220000D01*
X10330000Y-3705000D02*
X10370000Y-3745000D01*
X10370000Y-3705000D02*
X10330000Y-3745000D01*
X10360000Y-9930000D02*
X10400000Y-9970000D01*
X10400000Y-9930000D02*
X10360000Y-9970000D01*
X10380000Y-10155000D02*
X10420000Y-10195000D01*
X10420000Y-10155000D02*
X10380000Y-10195000D01*
X10380000Y-12700000D02*
X10420000Y-12740000D01*
X10420000Y-12700000D02*
X10380000Y-12740000D01*
X10430000Y-8080000D02*
X10470000Y-8120000D01*
X10470000Y-8080000D02*
X10430000Y-8120000D01*
X10430000Y-9555000D02*
X10470000Y-9595000D01*
X10470000Y-9555000D02*
X10430000Y-9595000D01*
X10455000Y-11330000D02*
X10495000Y-11370000D01*
X10495000Y-11330000D02*
X10455000Y-11370000D01*
X10455000Y-11555000D02*
X10495000Y-11595000D01*
X10495000Y-11555000D02*
X10455000Y-11595000D01*
X10480000Y-11855000D02*
X10520000Y-11895000D01*
X10520000Y-11855000D02*
X10480000Y-11895000D01*
X10480000Y-12700000D02*
X10520000Y-12740000D01*
X10520000Y-12700000D02*
X10480000Y-12740000D01*
X10505000Y-10130000D02*
X10545000Y-10170000D01*
X10545000Y-10130000D02*
X10505000Y-10170000D01*
X10580000Y-3705000D02*
X10620000Y-3745000D01*
X10620000Y-3705000D02*
X10580000Y-3745000D01*
X10580000Y-9680000D02*
X10620000Y-9720000D01*
X10620000Y-9680000D02*
X10580000Y-9720000D01*
X10580000Y-12700000D02*
X10620000Y-12740000D01*
X10620000Y-12700000D02*
X10580000Y-12740000D01*
X10630000Y-8080000D02*
X10670000Y-8120000D01*
X10670000Y-8080000D02*
X10630000Y-8120000D01*
X10630000Y-10705000D02*
X10670000Y-10745000D01*
X10670000Y-10705000D02*
X10630000Y-10745000D01*
X10630000Y-12405000D02*
X10670000Y-12445000D01*
X10670000Y-12405000D02*
X10630000Y-12445000D01*
X10680000Y-10860000D02*
X10720000Y-10900000D01*
X10720000Y-10860000D02*
X10680000Y-10900000D01*
X10700000Y-11780000D02*
X10740000Y-11820000D01*
X10740000Y-11780000D02*
X10700000Y-11820000D01*
X10705000Y-3880000D02*
X10745000Y-3920000D01*
X10745000Y-3880000D02*
X10705000Y-3920000D01*
X10720000Y-13380000D02*
X10760000Y-13420000D01*
X10760000Y-13380000D02*
X10720000Y-13420000D01*
X10755000Y-8180000D02*
X10795000Y-8220000D01*
X10795000Y-8180000D02*
X10755000Y-8220000D01*
X10780000Y-12700000D02*
X10820000Y-12740000D01*
X10820000Y-12700000D02*
X10780000Y-12740000D01*
X10786000Y-9855000D02*
X10826000Y-9895000D01*
X10826000Y-9855000D02*
X10786000Y-9895000D01*
X10805000Y-3880000D02*
X10845000Y-3920000D01*
X10845000Y-3880000D02*
X10805000Y-3920000D01*
X10830000Y-3705000D02*
X10870000Y-3745000D01*
X10870000Y-3705000D02*
X10830000Y-3745000D01*
X10830000Y-12405000D02*
X10870000Y-12445000D01*
X10870000Y-12405000D02*
X10830000Y-12445000D01*
X10855000Y-8930000D02*
X10895000Y-8970000D01*
X10895000Y-8930000D02*
X10855000Y-8970000D01*
X10855000Y-10705000D02*
X10895000Y-10745000D01*
X10895000Y-10705000D02*
X10855000Y-10745000D01*
X10880000Y-8530000D02*
X10920000Y-8570000D01*
X10920000Y-8530000D02*
X10880000Y-8570000D01*
X10880000Y-9280000D02*
X10920000Y-9320000D01*
X10920000Y-9280000D02*
X10880000Y-9320000D01*
X10880000Y-9480000D02*
X10920000Y-9520000D01*
X10920000Y-9480000D02*
X10880000Y-9520000D01*
X10930000Y-11385000D02*
X10970000Y-11425000D01*
X10970000Y-11385000D02*
X10930000Y-11425000D01*
X10940000Y-12000000D02*
X10980000Y-12040000D01*
X10980000Y-12000000D02*
X10940000Y-12040000D01*
X10955000Y-8630000D02*
X10995000Y-8670000D01*
X10995000Y-8630000D02*
X10955000Y-8670000D01*
X10960000Y-11100000D02*
X11000000Y-11140000D01*
X11000000Y-11100000D02*
X10960000Y-11140000D01*
X10980000Y-7905000D02*
X11020000Y-7945000D01*
X11020000Y-7905000D02*
X10980000Y-7945000D01*
X10980000Y-9030000D02*
X11020000Y-9070000D01*
X11020000Y-9030000D02*
X10980000Y-9070000D01*
X10980000Y-10330000D02*
X11020000Y-10370000D01*
X11020000Y-10330000D02*
X10980000Y-10370000D01*
X10980000Y-10880000D02*
X11020000Y-10920000D01*
X11020000Y-10880000D02*
X10980000Y-10920000D01*
X10980000Y-12700000D02*
X11020000Y-12740000D01*
X11020000Y-12700000D02*
X10980000Y-12740000D01*
X11000000Y-11180000D02*
X11040000Y-11220000D01*
X11040000Y-11180000D02*
X11000000Y-11220000D01*
X11020000Y-11860000D02*
X11060000Y-11900000D01*
X11060000Y-11860000D02*
X11020000Y-11900000D01*
X11030000Y-12405000D02*
X11070000Y-12445000D01*
X11070000Y-12405000D02*
X11030000Y-12445000D01*
X11080000Y-3705000D02*
X11120000Y-3745000D01*
X11120000Y-3705000D02*
X11080000Y-3745000D01*
X11120000Y-11960000D02*
X11160000Y-12000000D01*
X11160000Y-11960000D02*
X11120000Y-12000000D01*
X11180000Y-12280000D02*
X11220000Y-12320000D01*
X11220000Y-12280000D02*
X11180000Y-12320000D01*
X11180000Y-12700000D02*
X11220000Y-12740000D01*
X11220000Y-12700000D02*
X11180000Y-12740000D01*
X11200000Y-11720000D02*
X11240000Y-11760000D01*
X11240000Y-11720000D02*
X11200000Y-11760000D01*
X11200000Y-12920000D02*
X11240000Y-12960000D01*
X11240000Y-12920000D02*
X11200000Y-12960000D01*
X11200000Y-13340000D02*
X11240000Y-13380000D01*
X11240000Y-13340000D02*
X11200000Y-13380000D01*
X11205000Y-8080000D02*
X11245000Y-8120000D01*
X11245000Y-8080000D02*
X11205000Y-8120000D01*
X11205000Y-8903750D02*
X11245000Y-8943750D01*
X11245000Y-8903750D02*
X11205000Y-8943750D01*
X11205000Y-9080000D02*
X11245000Y-9120000D01*
X11245000Y-9080000D02*
X11205000Y-9120000D01*
X11220000Y-11840000D02*
X11260000Y-11880000D01*
X11260000Y-11840000D02*
X11220000Y-11880000D01*
X11230000Y-10530000D02*
X11270000Y-10570000D01*
X11270000Y-10530000D02*
X11230000Y-10570000D01*
X11280000Y-11030000D02*
X11320000Y-11070000D01*
X11320000Y-11030000D02*
X11280000Y-11070000D01*
X11280000Y-11130000D02*
X11320000Y-11170000D01*
X11320000Y-11130000D02*
X11280000Y-11170000D01*
X11330000Y-3705000D02*
X11370000Y-3745000D01*
X11370000Y-3705000D02*
X11330000Y-3745000D01*
X11330000Y-12280000D02*
X11370000Y-12320000D01*
X11370000Y-12280000D02*
X11330000Y-12320000D01*
X11330000Y-12455000D02*
X11370000Y-12495000D01*
X11370000Y-12455000D02*
X11330000Y-12495000D01*
X11380000Y-9730000D02*
X11420000Y-9770000D01*
X11420000Y-9730000D02*
X11380000Y-9770000D01*
X11380000Y-12700000D02*
X11420000Y-12740000D01*
X11420000Y-12700000D02*
X11380000Y-12740000D01*
X11405000Y-6005000D02*
X11445000Y-6045000D01*
X11445000Y-6005000D02*
X11405000Y-6045000D01*
X11405000Y-6305000D02*
X11445000Y-6345000D01*
X11445000Y-6305000D02*
X11405000Y-6345000D01*
X11405000Y-6580000D02*
X11445000Y-6620000D01*
X11445000Y-6580000D02*
X11405000Y-6620000D01*
X11405000Y-6855000D02*
X11445000Y-6895000D01*
X11445000Y-6855000D02*
X11405000Y-6895000D01*
X11405000Y-7130000D02*
X11445000Y-7170000D01*
X11445000Y-7130000D02*
X11405000Y-7170000D01*
X11405000Y-7380000D02*
X11445000Y-7420000D01*
X11445000Y-7380000D02*
X11405000Y-7420000D01*
X11405000Y-7655000D02*
X11445000Y-7695000D01*
X11445000Y-7655000D02*
X11405000Y-7695000D01*
X11405000Y-9455000D02*
X11445000Y-9495000D01*
X11445000Y-9455000D02*
X11405000Y-9495000D01*
X11405000Y-9980000D02*
X11445000Y-10020000D01*
X11445000Y-9980000D02*
X11405000Y-10020000D01*
X11440000Y-11560000D02*
X11480000Y-11600000D01*
X11480000Y-11560000D02*
X11440000Y-11600000D01*
X11520000Y-11200000D02*
X11560000Y-11240000D01*
X11560000Y-11200000D02*
X11520000Y-11240000D01*
X11520000Y-11920000D02*
X11560000Y-11960000D01*
X11560000Y-11920000D02*
X11520000Y-11960000D01*
X11530000Y-12330000D02*
X11570000Y-12370000D01*
X11570000Y-12330000D02*
X11530000Y-12370000D01*
X11530000Y-12530000D02*
X11570000Y-12570000D01*
X11570000Y-12530000D02*
X11530000Y-12570000D01*
X11555000Y-8980000D02*
X11595000Y-9020000D01*
X11595000Y-8980000D02*
X11555000Y-9020000D01*
X11580000Y-3705000D02*
X11620000Y-3745000D01*
X11620000Y-3705000D02*
X11580000Y-3745000D01*
X11580000Y-11300000D02*
X11620000Y-11340000D01*
X11620000Y-11300000D02*
X11580000Y-11340000D01*
X11580000Y-12700000D02*
X11620000Y-12740000D01*
X11620000Y-12700000D02*
X11580000Y-12740000D01*
X11600000Y-11580000D02*
X11640000Y-11620000D01*
X11640000Y-11580000D02*
X11600000Y-11620000D01*
X11605000Y-8355000D02*
X11645000Y-8395000D01*
X11645000Y-8355000D02*
X11605000Y-8395000D01*
X11605000Y-10580000D02*
X11645000Y-10620000D01*
X11645000Y-10580000D02*
X11605000Y-10620000D01*
X11605000Y-10905000D02*
X11645000Y-10945000D01*
X11645000Y-10905000D02*
X11605000Y-10945000D01*
X11655000Y-12555000D02*
X11695000Y-12595000D01*
X11695000Y-12555000D02*
X11655000Y-12595000D01*
X11680000Y-5630000D02*
X11720000Y-5670000D01*
X11720000Y-5630000D02*
X11680000Y-5670000D01*
X11680000Y-12700000D02*
X11720000Y-12740000D01*
X11720000Y-12700000D02*
X11680000Y-12740000D01*
X11753750Y-8205000D02*
X11793750Y-8245000D01*
X11793750Y-8205000D02*
X11753750Y-8245000D01*
X11780000Y-11230000D02*
X11820000Y-11270000D01*
X11820000Y-11230000D02*
X11780000Y-11270000D01*
X11780000Y-12700000D02*
X11820000Y-12740000D01*
X11820000Y-12700000D02*
X11780000Y-12740000D01*
X11805000Y-9855000D02*
X11845000Y-9895000D01*
X11845000Y-9855000D02*
X11805000Y-9895000D01*
X11820000Y-12420000D02*
X11860000Y-12460000D01*
X11860000Y-12420000D02*
X11820000Y-12460000D01*
X11830000Y-3705000D02*
X11870000Y-3745000D01*
X11870000Y-3705000D02*
X11830000Y-3745000D01*
X11880000Y-12500000D02*
X11920000Y-12540000D01*
X11920000Y-12500000D02*
X11880000Y-12540000D01*
X11880000Y-12700000D02*
X11920000Y-12740000D01*
X11920000Y-12700000D02*
X11880000Y-12740000D01*
X11905000Y-5605000D02*
X11945000Y-5645000D01*
X11945000Y-5605000D02*
X11905000Y-5645000D01*
X11905000Y-6180000D02*
X11945000Y-6220000D01*
X11945000Y-6180000D02*
X11905000Y-6220000D01*
X11905000Y-6530000D02*
X11945000Y-6570000D01*
X11945000Y-6530000D02*
X11905000Y-6570000D01*
X11905000Y-6830000D02*
X11945000Y-6870000D01*
X11945000Y-6830000D02*
X11905000Y-6870000D01*
X11905000Y-7180000D02*
X11945000Y-7220000D01*
X11945000Y-7180000D02*
X11905000Y-7220000D01*
X11905000Y-7480000D02*
X11945000Y-7520000D01*
X11945000Y-7480000D02*
X11905000Y-7520000D01*
X11905000Y-7780000D02*
X11945000Y-7820000D01*
X11945000Y-7780000D02*
X11905000Y-7820000D01*
X11980000Y-9678750D02*
X12020000Y-9718750D01*
X12020000Y-9678750D02*
X11980000Y-9718750D01*
X11980000Y-12700000D02*
X12020000Y-12740000D01*
X12020000Y-12700000D02*
X11980000Y-12740000D01*
X12005000Y-5430000D02*
X12045000Y-5470000D01*
X12045000Y-5430000D02*
X12005000Y-5470000D01*
X12005000Y-8205000D02*
X12045000Y-8245000D01*
X12045000Y-8205000D02*
X12005000Y-8245000D01*
X12005000Y-9205000D02*
X12045000Y-9245000D01*
X12045000Y-9205000D02*
X12005000Y-9245000D01*
X12005000Y-9405000D02*
X12045000Y-9445000D01*
X12045000Y-9405000D02*
X12005000Y-9445000D01*
X12040000Y-11980000D02*
X12080000Y-12020000D01*
X12080000Y-11980000D02*
X12040000Y-12020000D01*
X12080000Y-3705000D02*
X12120000Y-3745000D01*
X12120000Y-3705000D02*
X12080000Y-3745000D01*
X12080000Y-12700000D02*
X12120000Y-12740000D01*
X12120000Y-12700000D02*
X12080000Y-12740000D01*
X12105000Y-8280000D02*
X12145000Y-8320000D01*
X12145000Y-8280000D02*
X12105000Y-8320000D01*
X12120000Y-12160000D02*
X12160000Y-12200000D01*
X12160000Y-12160000D02*
X12120000Y-12200000D01*
X12120000Y-12460000D02*
X12160000Y-12500000D01*
X12160000Y-12460000D02*
X12120000Y-12500000D01*
X12120000Y-12580000D02*
X12160000Y-12620000D01*
X12160000Y-12580000D02*
X12120000Y-12620000D01*
X12130000Y-10630000D02*
X12170000Y-10670000D01*
X12170000Y-10630000D02*
X12130000Y-10670000D01*
X12155000Y-5605000D02*
X12195000Y-5645000D01*
X12195000Y-5605000D02*
X12155000Y-5645000D01*
X12168125Y-9941875D02*
X12208125Y-9981875D01*
X12208125Y-9941875D02*
X12168125Y-9981875D01*
X12180000Y-12700000D02*
X12220000Y-12740000D01*
X12220000Y-12700000D02*
X12180000Y-12740000D01*
X12220000Y-11150000D02*
X12260000Y-11190000D01*
X12260000Y-11150000D02*
X12220000Y-11190000D01*
X12260000Y-11490000D02*
X12300000Y-11530000D01*
X12300000Y-11490000D02*
X12260000Y-11530000D01*
X12280000Y-6105000D02*
X12320000Y-6145000D01*
X12320000Y-6105000D02*
X12280000Y-6145000D01*
X12280000Y-6305000D02*
X12320000Y-6345000D01*
X12320000Y-6305000D02*
X12280000Y-6345000D01*
X12280000Y-6505000D02*
X12320000Y-6545000D01*
X12320000Y-6505000D02*
X12280000Y-6545000D01*
X12280000Y-6705000D02*
X12320000Y-6745000D01*
X12320000Y-6705000D02*
X12280000Y-6745000D01*
X12280000Y-6905000D02*
X12320000Y-6945000D01*
X12320000Y-6905000D02*
X12280000Y-6945000D01*
X12280000Y-7105000D02*
X12320000Y-7145000D01*
X12320000Y-7105000D02*
X12280000Y-7145000D01*
X12280000Y-7305000D02*
X12320000Y-7345000D01*
X12320000Y-7305000D02*
X12280000Y-7345000D01*
X12280000Y-7505000D02*
X12320000Y-7545000D01*
X12320000Y-7505000D02*
X12280000Y-7545000D01*
X12280000Y-7705000D02*
X12320000Y-7745000D01*
X12320000Y-7705000D02*
X12280000Y-7745000D01*
X12280000Y-7905000D02*
X12320000Y-7945000D01*
X12320000Y-7905000D02*
X12280000Y-7945000D01*
X12280000Y-12700000D02*
X12320000Y-12740000D01*
X12320000Y-12700000D02*
X12280000Y-12740000D01*
X12300000Y-12000000D02*
X12340000Y-12040000D01*
X12340000Y-12000000D02*
X12300000Y-12040000D01*
X12305000Y-5430000D02*
X12345000Y-5470000D01*
X12345000Y-5430000D02*
X12305000Y-5470000D01*
X12330000Y-3705000D02*
X12370000Y-3745000D01*
X12370000Y-3705000D02*
X12330000Y-3745000D01*
X12330000Y-10430000D02*
X12370000Y-10470000D01*
X12370000Y-10430000D02*
X12330000Y-10470000D01*
X12360000Y-11610000D02*
X12400000Y-11650000D01*
X12400000Y-11610000D02*
X12360000Y-11650000D01*
X12380000Y-11450000D02*
X12420000Y-11490000D01*
X12420000Y-11450000D02*
X12380000Y-11490000D01*
X12405000Y-10630000D02*
X12445000Y-10670000D01*
X12445000Y-10630000D02*
X12405000Y-10670000D01*
X12440000Y-12000000D02*
X12480000Y-12040000D01*
X12480000Y-12000000D02*
X12440000Y-12040000D01*
X12440000Y-12460000D02*
X12480000Y-12500000D01*
X12480000Y-12460000D02*
X12440000Y-12500000D01*
X12470000Y-11830000D02*
X12510000Y-11870000D01*
X12510000Y-11830000D02*
X12470000Y-11870000D01*
X12500000Y-12560000D02*
X12540000Y-12600000D01*
X12540000Y-12560000D02*
X12500000Y-12600000D01*
X12505000Y-10505000D02*
X12545000Y-10545000D01*
X12545000Y-10505000D02*
X12505000Y-10545000D01*
X12520000Y-11270000D02*
X12560000Y-11310000D01*
X12560000Y-11270000D02*
X12520000Y-11310000D01*
X12560000Y-12000000D02*
X12600000Y-12040000D01*
X12600000Y-12000000D02*
X12560000Y-12040000D01*
X12560000Y-12640000D02*
X12600000Y-12680000D01*
X12600000Y-12640000D02*
X12560000Y-12680000D01*
X12580000Y-3705000D02*
X12620000Y-3745000D01*
X12620000Y-3705000D02*
X12580000Y-3745000D01*
X12580000Y-9955000D02*
X12620000Y-9995000D01*
X12620000Y-9955000D02*
X12580000Y-9995000D01*
X12600000Y-11830000D02*
X12640000Y-11870000D01*
X12640000Y-11830000D02*
X12600000Y-11870000D01*
X12655000Y-9055000D02*
X12695000Y-9095000D01*
X12695000Y-9055000D02*
X12655000Y-9095000D01*
X12655000Y-9255000D02*
X12695000Y-9295000D01*
X12695000Y-9255000D02*
X12655000Y-9295000D01*
X12680000Y-12700000D02*
X12720000Y-12740000D01*
X12720000Y-12700000D02*
X12680000Y-12740000D01*
X12705000Y-9955000D02*
X12745000Y-9995000D01*
X12745000Y-9955000D02*
X12705000Y-9995000D01*
X12780000Y-10355000D02*
X12820000Y-10395000D01*
X12820000Y-10355000D02*
X12780000Y-10395000D01*
X12780000Y-12700000D02*
X12820000Y-12740000D01*
X12820000Y-12700000D02*
X12780000Y-12740000D01*
X12830000Y-3705000D02*
X12870000Y-3745000D01*
X12870000Y-3705000D02*
X12830000Y-3745000D01*
X12830000Y-9955000D02*
X12870000Y-9995000D01*
X12870000Y-9955000D02*
X12830000Y-9995000D01*
X12855000Y-3880000D02*
X12895000Y-3920000D01*
X12895000Y-3880000D02*
X12855000Y-3920000D01*
X12880000Y-9480000D02*
X12920000Y-9520000D01*
X12920000Y-9480000D02*
X12880000Y-9520000D01*
X12880000Y-12700000D02*
X12920000Y-12740000D01*
X12920000Y-12700000D02*
X12880000Y-12740000D01*
X12955000Y-3880000D02*
X12995000Y-3920000D01*
X12995000Y-3880000D02*
X12955000Y-3920000D01*
X12980000Y-10855000D02*
X13020000Y-10895000D01*
X13020000Y-10855000D02*
X12980000Y-10895000D01*
X12980000Y-12700000D02*
X13020000Y-12740000D01*
X13020000Y-12700000D02*
X12980000Y-12740000D01*
X13080000Y-3705000D02*
X13120000Y-3745000D01*
X13120000Y-3705000D02*
X13080000Y-3745000D01*
X13105000Y-9105000D02*
X13145000Y-9145000D01*
X13145000Y-9105000D02*
X13105000Y-9145000D01*
X13105000Y-9355000D02*
X13145000Y-9395000D01*
X13145000Y-9355000D02*
X13105000Y-9395000D01*
X13105000Y-9630000D02*
X13145000Y-9670000D01*
X13145000Y-9630000D02*
X13105000Y-9670000D01*
X13105000Y-9880000D02*
X13145000Y-9920000D01*
X13145000Y-9880000D02*
X13105000Y-9920000D01*
X13105000Y-10795000D02*
X13145000Y-10835000D01*
X13145000Y-10795000D02*
X13105000Y-10835000D01*
X13155000Y-8330000D02*
X13195000Y-8370000D01*
X13195000Y-8330000D02*
X13155000Y-8370000D01*
X13205000Y-10155000D02*
X13245000Y-10195000D01*
X13245000Y-10155000D02*
X13205000Y-10195000D01*
X13245000Y-13380000D02*
X13285000Y-13420000D01*
X13285000Y-13380000D02*
X13245000Y-13420000D01*
X13255000Y-12130000D02*
X13295000Y-12170000D01*
X13295000Y-12130000D02*
X13255000Y-12170000D01*
X13305000Y-11720000D02*
X13345000Y-11760000D01*
X13345000Y-11720000D02*
X13305000Y-11760000D01*
X13305000Y-12700000D02*
X13345000Y-12740000D01*
X13345000Y-12700000D02*
X13305000Y-12740000D01*
X13330000Y-3705000D02*
X13370000Y-3745000D01*
X13370000Y-3705000D02*
X13330000Y-3745000D01*
X13330000Y-10880000D02*
X13370000Y-10920000D01*
X13370000Y-10880000D02*
X13330000Y-10920000D01*
X13355000Y-8405000D02*
X13395000Y-8445000D01*
X13395000Y-8405000D02*
X13355000Y-8445000D01*
X13355000Y-11830000D02*
X13395000Y-11870000D01*
X13395000Y-11830000D02*
X13355000Y-11870000D01*
X13405000Y-12180000D02*
X13445000Y-12220000D01*
X13445000Y-12180000D02*
X13405000Y-12220000D01*
X13405000Y-12700000D02*
X13445000Y-12740000D01*
X13445000Y-12700000D02*
X13405000Y-12740000D01*
X13425000Y-11640000D02*
X13465000Y-11680000D01*
X13465000Y-11640000D02*
X13425000Y-11680000D01*
X13455000Y-9230000D02*
X13495000Y-9270000D01*
X13495000Y-9230000D02*
X13455000Y-9270000D01*
X13455000Y-9605000D02*
X13495000Y-9645000D01*
X13495000Y-9605000D02*
X13455000Y-9645000D01*
X13455000Y-11435000D02*
X13495000Y-11475000D01*
X13495000Y-11435000D02*
X13455000Y-11475000D01*
X13505000Y-12330000D02*
X13545000Y-12370000D01*
X13545000Y-12330000D02*
X13505000Y-12370000D01*
X13505000Y-13380000D02*
X13545000Y-13420000D01*
X13545000Y-13380000D02*
X13505000Y-13420000D01*
X13525000Y-12700000D02*
X13565000Y-12740000D01*
X13565000Y-12700000D02*
X13525000Y-12740000D01*
X13532500Y-9930000D02*
X13572500Y-9970000D01*
X13572500Y-9930000D02*
X13532500Y-9970000D01*
X13555000Y-10230000D02*
X13595000Y-10270000D01*
X13595000Y-10230000D02*
X13555000Y-10270000D01*
X13580000Y-3705000D02*
X13620000Y-3745000D01*
X13620000Y-3705000D02*
X13580000Y-3745000D01*
X13580000Y-10505000D02*
X13620000Y-10545000D01*
X13620000Y-10505000D02*
X13580000Y-10545000D01*
X13605000Y-12430000D02*
X13645000Y-12470000D01*
X13645000Y-12430000D02*
X13605000Y-12470000D01*
X13605000Y-12880000D02*
X13645000Y-12920000D01*
X13645000Y-12880000D02*
X13605000Y-12920000D01*
X13645000Y-12700000D02*
X13685000Y-12740000D01*
X13685000Y-12700000D02*
X13645000Y-12740000D01*
X13655000Y-6205000D02*
X13695000Y-6245000D01*
X13695000Y-6205000D02*
X13655000Y-6245000D01*
X13655000Y-6455000D02*
X13695000Y-6495000D01*
X13695000Y-6455000D02*
X13655000Y-6495000D01*
X13655000Y-6730000D02*
X13695000Y-6770000D01*
X13695000Y-6730000D02*
X13655000Y-6770000D01*
X13655000Y-7030000D02*
X13695000Y-7070000D01*
X13695000Y-7030000D02*
X13655000Y-7070000D01*
X13655000Y-7330000D02*
X13695000Y-7370000D01*
X13695000Y-7330000D02*
X13655000Y-7370000D01*
X13655000Y-7630000D02*
X13695000Y-7670000D01*
X13695000Y-7630000D02*
X13655000Y-7670000D01*
X13655000Y-7905000D02*
X13695000Y-7945000D01*
X13695000Y-7905000D02*
X13655000Y-7945000D01*
X13655000Y-8205000D02*
X13695000Y-8245000D01*
X13695000Y-8205000D02*
X13655000Y-8245000D01*
X13680000Y-11330000D02*
X13720000Y-11370000D01*
X13720000Y-11330000D02*
X13680000Y-11370000D01*
X13680000Y-11530000D02*
X13720000Y-11570000D01*
X13720000Y-11530000D02*
X13680000Y-11570000D01*
X13680000Y-12055000D02*
X13720000Y-12095000D01*
X13720000Y-12055000D02*
X13680000Y-12095000D01*
X13725000Y-12780000D02*
X13765000Y-12820000D01*
X13765000Y-12780000D02*
X13725000Y-12820000D01*
X13730000Y-9305000D02*
X13770000Y-9345000D01*
X13770000Y-9305000D02*
X13730000Y-9345000D01*
X13730000Y-10080000D02*
X13770000Y-10120000D01*
X13770000Y-10080000D02*
X13730000Y-10120000D01*
X13730000Y-11055000D02*
X13770000Y-11095000D01*
X13770000Y-11055000D02*
X13730000Y-11095000D01*
X13755000Y-11180000D02*
X13795000Y-11220000D01*
X13795000Y-11180000D02*
X13755000Y-11220000D01*
X13780000Y-9755000D02*
X13820000Y-9795000D01*
X13820000Y-9755000D02*
X13780000Y-9795000D01*
X13805000Y-8730000D02*
X13845000Y-8770000D01*
X13845000Y-8730000D02*
X13805000Y-8770000D01*
X13805000Y-8980000D02*
X13845000Y-9020000D01*
X13845000Y-8980000D02*
X13805000Y-9020000D01*
X13805000Y-11605000D02*
X13845000Y-11645000D01*
X13845000Y-11605000D02*
X13805000Y-11645000D01*
X13805000Y-12880000D02*
X13845000Y-12920000D01*
X13845000Y-12880000D02*
X13805000Y-12920000D01*
X13805000Y-13180000D02*
X13845000Y-13220000D01*
X13845000Y-13180000D02*
X13805000Y-13220000D01*
X13805000Y-13330000D02*
X13845000Y-13370000D01*
X13845000Y-13330000D02*
X13805000Y-13370000D01*
X13805000Y-13480000D02*
X13845000Y-13520000D01*
X13845000Y-13480000D02*
X13805000Y-13520000D01*
X13830000Y-3705000D02*
X13870000Y-3745000D01*
X13870000Y-3705000D02*
X13830000Y-3745000D01*
X13830000Y-12180000D02*
X13870000Y-12220000D01*
X13870000Y-12180000D02*
X13830000Y-12220000D01*
X13855000Y-11880000D02*
X13895000Y-11920000D01*
X13895000Y-11880000D02*
X13855000Y-11920000D01*
X13865000Y-10840000D02*
X13905000Y-10880000D01*
X13905000Y-10840000D02*
X13865000Y-10880000D01*
X13905000Y-12880000D02*
X13945000Y-12920000D01*
X13945000Y-12880000D02*
X13905000Y-12920000D01*
X13905000Y-13480000D02*
X13945000Y-13520000D01*
X13945000Y-13480000D02*
X13905000Y-13520000D01*
X13930000Y-5105000D02*
X13970000Y-5145000D01*
X13970000Y-5105000D02*
X13930000Y-5145000D01*
X14005000Y-8730000D02*
X14045000Y-8770000D01*
X14045000Y-8730000D02*
X14005000Y-8770000D01*
X14005000Y-13180000D02*
X14045000Y-13220000D01*
X14045000Y-13180000D02*
X14005000Y-13220000D01*
X14025000Y-11180000D02*
X14065000Y-11220000D01*
X14065000Y-11180000D02*
X14025000Y-11220000D01*
X14025000Y-11330000D02*
X14065000Y-11370000D01*
X14065000Y-11330000D02*
X14025000Y-11370000D01*
X14055000Y-9605000D02*
X14095000Y-9645000D01*
X14095000Y-9605000D02*
X14055000Y-9645000D01*
X14055000Y-10480000D02*
X14095000Y-10520000D01*
X14095000Y-10480000D02*
X14055000Y-10520000D01*
X14080000Y-3705000D02*
X14120000Y-3745000D01*
X14120000Y-3705000D02*
X14080000Y-3745000D01*
X14105000Y-12680000D02*
X14145000Y-12720000D01*
X14145000Y-12680000D02*
X14105000Y-12720000D01*
X14105000Y-12880000D02*
X14145000Y-12920000D01*
X14145000Y-12880000D02*
X14105000Y-12920000D01*
X14105000Y-13480000D02*
X14145000Y-13520000D01*
X14145000Y-13480000D02*
X14105000Y-13520000D01*
X14180000Y-9955000D02*
X14220000Y-9995000D01*
X14220000Y-9955000D02*
X14180000Y-9995000D01*
X14205000Y-8730000D02*
X14245000Y-8770000D01*
X14245000Y-8730000D02*
X14205000Y-8770000D01*
X14205000Y-13180000D02*
X14245000Y-13220000D01*
X14245000Y-13180000D02*
X14205000Y-13220000D01*
X14230000Y-11105000D02*
X14270000Y-11145000D01*
X14270000Y-11105000D02*
X14230000Y-11145000D01*
X14305000Y-12680000D02*
X14345000Y-12720000D01*
X14345000Y-12680000D02*
X14305000Y-12720000D01*
X14305000Y-12880000D02*
X14345000Y-12920000D01*
X14345000Y-12880000D02*
X14305000Y-12920000D01*
X14305000Y-13480000D02*
X14345000Y-13520000D01*
X14345000Y-13480000D02*
X14305000Y-13520000D01*
X14330000Y-3705000D02*
X14370000Y-3745000D01*
X14370000Y-3705000D02*
X14330000Y-3745000D01*
X14355000Y-9155000D02*
X14395000Y-9195000D01*
X14395000Y-9155000D02*
X14355000Y-9195000D01*
X14355000Y-11730000D02*
X14395000Y-11770000D01*
X14395000Y-11730000D02*
X14355000Y-11770000D01*
X14355000Y-11980000D02*
X14395000Y-12020000D01*
X14395000Y-11980000D02*
X14355000Y-12020000D01*
X14405000Y-8730000D02*
X14445000Y-8770000D01*
X14445000Y-8730000D02*
X14405000Y-8770000D01*
X14405000Y-13180000D02*
X14445000Y-13220000D01*
X14445000Y-13180000D02*
X14405000Y-13220000D01*
X14425000Y-11280000D02*
X14465000Y-11320000D01*
X14465000Y-11280000D02*
X14425000Y-11320000D01*
X14505000Y-12680000D02*
X14545000Y-12720000D01*
X14545000Y-12680000D02*
X14505000Y-12720000D01*
X14505000Y-12880000D02*
X14545000Y-12920000D01*
X14545000Y-12880000D02*
X14505000Y-12920000D01*
X14505000Y-13480000D02*
X14545000Y-13520000D01*
X14545000Y-13480000D02*
X14505000Y-13520000D01*
X14555000Y-9130000D02*
X14595000Y-9170000D01*
X14595000Y-9130000D02*
X14555000Y-9170000D01*
X14555000Y-11480000D02*
X14595000Y-11520000D01*
X14595000Y-11480000D02*
X14555000Y-11520000D01*
X14555000Y-11730000D02*
X14595000Y-11770000D01*
X14595000Y-11730000D02*
X14555000Y-11770000D01*
X14580000Y-3705000D02*
X14620000Y-3745000D01*
X14620000Y-3705000D02*
X14580000Y-3745000D01*
X14605000Y-8730000D02*
X14645000Y-8770000D01*
X14645000Y-8730000D02*
X14605000Y-8770000D01*
X14605000Y-13180000D02*
X14645000Y-13220000D01*
X14645000Y-13180000D02*
X14605000Y-13220000D01*
X14625000Y-9760000D02*
X14665000Y-9800000D01*
X14665000Y-9760000D02*
X14625000Y-9800000D01*
X14625000Y-11320000D02*
X14665000Y-11360000D01*
X14665000Y-11320000D02*
X14625000Y-11360000D01*
X14705000Y-12680000D02*
X14745000Y-12720000D01*
X14745000Y-12680000D02*
X14705000Y-12720000D01*
X14705000Y-12880000D02*
X14745000Y-12920000D01*
X14745000Y-12880000D02*
X14705000Y-12920000D01*
X14705000Y-13480000D02*
X14745000Y-13520000D01*
X14745000Y-13480000D02*
X14705000Y-13520000D01*
X14755000Y-9105000D02*
X14795000Y-9145000D01*
X14795000Y-9105000D02*
X14755000Y-9145000D01*
X14805000Y-8730000D02*
X14845000Y-8770000D01*
X14845000Y-8730000D02*
X14805000Y-8770000D01*
X14805000Y-13180000D02*
X14845000Y-13220000D01*
X14845000Y-13180000D02*
X14805000Y-13220000D01*
X14825000Y-10320000D02*
X14865000Y-10360000D01*
X14865000Y-10320000D02*
X14825000Y-10360000D01*
X14830000Y-3705000D02*
X14870000Y-3745000D01*
X14870000Y-3705000D02*
X14830000Y-3745000D01*
X14905000Y-11480000D02*
X14945000Y-11520000D01*
X14945000Y-11480000D02*
X14905000Y-11520000D01*
X14905000Y-11630000D02*
X14945000Y-11670000D01*
X14945000Y-11630000D02*
X14905000Y-11670000D01*
X14905000Y-12680000D02*
X14945000Y-12720000D01*
X14945000Y-12680000D02*
X14905000Y-12720000D01*
X14905000Y-12880000D02*
X14945000Y-12920000D01*
X14945000Y-12880000D02*
X14905000Y-12920000D01*
X14905000Y-13480000D02*
X14945000Y-13520000D01*
X14945000Y-13480000D02*
X14905000Y-13520000D01*
X15005000Y-8730000D02*
X15045000Y-8770000D01*
X15045000Y-8730000D02*
X15005000Y-8770000D01*
X15005000Y-10940000D02*
X15045000Y-10980000D01*
X15045000Y-10940000D02*
X15005000Y-10980000D01*
X15005000Y-11730000D02*
X15045000Y-11770000D01*
X15045000Y-11730000D02*
X15005000Y-11770000D01*
X15005000Y-13180000D02*
X15045000Y-13220000D01*
X15045000Y-13180000D02*
X15005000Y-13220000D01*
X15030000Y-11155000D02*
X15070000Y-11195000D01*
X15070000Y-11155000D02*
X15030000Y-11195000D01*
X15080000Y-3705000D02*
X15120000Y-3745000D01*
X15120000Y-3705000D02*
X15080000Y-3745000D01*
X15105000Y-12680000D02*
X15145000Y-12720000D01*
X15145000Y-12680000D02*
X15105000Y-12720000D01*
X15105000Y-12880000D02*
X15145000Y-12920000D01*
X15145000Y-12880000D02*
X15105000Y-12920000D01*
X15105000Y-13480000D02*
X15145000Y-13520000D01*
X15145000Y-13480000D02*
X15105000Y-13520000D01*
X15185000Y-9360000D02*
X15225000Y-9400000D01*
X15225000Y-9360000D02*
X15185000Y-9400000D01*
X15205000Y-8730000D02*
X15245000Y-8770000D01*
X15245000Y-8730000D02*
X15205000Y-8770000D01*
X15205000Y-11730000D02*
X15245000Y-11770000D01*
X15245000Y-11730000D02*
X15205000Y-11770000D01*
X15205000Y-13180000D02*
X15245000Y-13220000D01*
X15245000Y-13180000D02*
X15205000Y-13220000D01*
X15255000Y-11480000D02*
X15295000Y-11520000D01*
X15295000Y-11480000D02*
X15255000Y-11520000D01*
X15255000Y-12680000D02*
X15295000Y-12720000D01*
X15295000Y-12680000D02*
X15255000Y-12720000D01*
X15305000Y-11230000D02*
X15345000Y-11270000D01*
X15345000Y-11230000D02*
X15305000Y-11270000D01*
X15305000Y-12880000D02*
X15345000Y-12920000D01*
X15345000Y-12880000D02*
X15305000Y-12920000D01*
X15305000Y-13480000D02*
X15345000Y-13520000D01*
X15345000Y-13480000D02*
X15305000Y-13520000D01*
X15330000Y-3705000D02*
X15370000Y-3745000D01*
X15370000Y-3705000D02*
X15330000Y-3745000D01*
X15405000Y-8730000D02*
X15445000Y-8770000D01*
X15445000Y-8730000D02*
X15405000Y-8770000D01*
X15405000Y-11730000D02*
X15445000Y-11770000D01*
X15445000Y-11730000D02*
X15405000Y-11770000D01*
X15405000Y-12755000D02*
X15445000Y-12795000D01*
X15445000Y-12755000D02*
X15405000Y-12795000D01*
X15405000Y-13180000D02*
X15445000Y-13220000D01*
X15445000Y-13180000D02*
X15405000Y-13220000D01*
X15455000Y-3930000D02*
X15495000Y-3970000D01*
X15495000Y-3930000D02*
X15455000Y-3970000D01*
X15455000Y-4255000D02*
X15495000Y-4295000D01*
X15495000Y-4255000D02*
X15455000Y-4295000D01*
X15455000Y-9755000D02*
X15495000Y-9795000D01*
X15495000Y-9755000D02*
X15455000Y-9795000D01*
X15505000Y-13480000D02*
X15545000Y-13520000D01*
X15545000Y-13480000D02*
X15505000Y-13520000D01*
X15525000Y-10980000D02*
X15565000Y-11020000D01*
X15565000Y-10980000D02*
X15525000Y-11020000D01*
X15525000Y-11130000D02*
X15565000Y-11170000D01*
X15565000Y-11130000D02*
X15525000Y-11170000D01*
X15525000Y-11280000D02*
X15565000Y-11320000D01*
X15565000Y-11280000D02*
X15525000Y-11320000D01*
X15525000Y-11430000D02*
X15565000Y-11470000D01*
X15565000Y-11430000D02*
X15525000Y-11470000D01*
X15530000Y-9255000D02*
X15570000Y-9295000D01*
X15570000Y-9255000D02*
X15530000Y-9295000D01*
X15550000Y-10680000D02*
X15590000Y-10720000D01*
X15590000Y-10680000D02*
X15550000Y-10720000D01*
X15555000Y-11730000D02*
X15595000Y-11770000D01*
X15595000Y-11730000D02*
X15555000Y-11770000D01*
X15555000Y-12730000D02*
X15595000Y-12770000D01*
X15595000Y-12730000D02*
X15555000Y-12770000D01*
X15580000Y-3705000D02*
X15620000Y-3745000D01*
X15620000Y-3705000D02*
X15580000Y-3745000D01*
X15580000Y-11555000D02*
X15620000Y-11595000D01*
X15620000Y-11555000D02*
X15580000Y-11595000D01*
X15605000Y-8730000D02*
X15645000Y-8770000D01*
X15645000Y-8730000D02*
X15605000Y-8770000D01*
X15605000Y-13180000D02*
X15645000Y-13220000D01*
X15645000Y-13180000D02*
X15605000Y-13220000D01*
X15655000Y-9580000D02*
X15695000Y-9620000D01*
X15695000Y-9580000D02*
X15655000Y-9620000D01*
X15655000Y-9930000D02*
X15695000Y-9970000D01*
X15695000Y-9930000D02*
X15655000Y-9970000D01*
X15655000Y-12630000D02*
X15695000Y-12670000D01*
X15695000Y-12630000D02*
X15655000Y-12670000D01*
X15705000Y-11730000D02*
X15745000Y-11770000D01*
X15745000Y-11730000D02*
X15705000Y-11770000D01*
X15705000Y-13480000D02*
X15745000Y-13520000D01*
X15745000Y-13480000D02*
X15705000Y-13520000D01*
X15725000Y-10380000D02*
X15765000Y-10420000D01*
X15765000Y-10380000D02*
X15725000Y-10420000D01*
X15730000Y-12980000D02*
X15770000Y-13020000D01*
X15770000Y-12980000D02*
X15730000Y-13020000D01*
X15755000Y-11880000D02*
X15795000Y-11920000D01*
X15795000Y-11880000D02*
X15755000Y-11920000D01*
X15755000Y-12030000D02*
X15795000Y-12070000D01*
X15795000Y-12030000D02*
X15755000Y-12070000D01*
X15755000Y-12180000D02*
X15795000Y-12220000D01*
X15795000Y-12180000D02*
X15755000Y-12220000D01*
X15755000Y-12330000D02*
X15795000Y-12370000D01*
X15795000Y-12330000D02*
X15755000Y-12370000D01*
X15755000Y-12480000D02*
X15795000Y-12520000D01*
X15795000Y-12480000D02*
X15755000Y-12520000D01*
X15785000Y-11260000D02*
X15825000Y-11300000D01*
X15825000Y-11260000D02*
X15785000Y-11300000D01*
X15805000Y-8730000D02*
X15845000Y-8770000D01*
X15845000Y-8730000D02*
X15805000Y-8770000D01*
X15905000Y-13480000D02*
X15945000Y-13520000D01*
X15945000Y-13480000D02*
X15905000Y-13520000D01*
X15950000Y-10380000D02*
X15990000Y-10420000D01*
X15990000Y-10380000D02*
X15950000Y-10420000D01*
X15955000Y-12780000D02*
X15995000Y-12820000D01*
X15995000Y-12780000D02*
X15955000Y-12820000D01*
X15975000Y-11130000D02*
X16015000Y-11170000D01*
X16015000Y-11130000D02*
X15975000Y-11170000D01*
X15975000Y-11280000D02*
X16015000Y-11320000D01*
X16015000Y-11280000D02*
X15975000Y-11320000D01*
X16005000Y-8730000D02*
X16045000Y-8770000D01*
X16045000Y-8730000D02*
X16005000Y-8770000D01*
X16005000Y-11430000D02*
X16045000Y-11470000D01*
X16045000Y-11430000D02*
X16005000Y-11470000D01*
X16050000Y-10780000D02*
X16090000Y-10820000D01*
X16090000Y-10780000D02*
X16050000Y-10820000D01*
X16055000Y-4630000D02*
X16095000Y-4670000D01*
X16095000Y-4630000D02*
X16055000Y-4670000D01*
X16080000Y-11580000D02*
X16120000Y-11620000D01*
X16120000Y-11580000D02*
X16080000Y-11620000D01*
X16080000Y-12705000D02*
X16120000Y-12745000D01*
X16120000Y-12705000D02*
X16080000Y-12745000D01*
X16105000Y-13480000D02*
X16145000Y-13520000D01*
X16145000Y-13480000D02*
X16105000Y-13520000D01*
X16130000Y-11755000D02*
X16170000Y-11795000D01*
X16170000Y-11755000D02*
X16130000Y-11795000D01*
X16130000Y-11955000D02*
X16170000Y-11995000D01*
X16170000Y-11955000D02*
X16130000Y-11995000D01*
X16130000Y-12155000D02*
X16170000Y-12195000D01*
X16170000Y-12155000D02*
X16130000Y-12195000D01*
X16130000Y-12355000D02*
X16170000Y-12395000D01*
X16170000Y-12355000D02*
X16130000Y-12395000D01*
X16130000Y-12555000D02*
X16170000Y-12595000D01*
X16170000Y-12555000D02*
X16130000Y-12595000D01*
X16205000Y-8730000D02*
X16245000Y-8770000D01*
X16245000Y-8730000D02*
X16205000Y-8770000D01*
X16230000Y-4630000D02*
X16270000Y-4670000D01*
X16270000Y-4630000D02*
X16230000Y-4670000D01*
X16230000Y-5030000D02*
X16270000Y-5070000D01*
X16270000Y-5030000D02*
X16230000Y-5070000D01*
X16255000Y-13455000D02*
X16295000Y-13495000D01*
X16295000Y-13455000D02*
X16255000Y-13495000D01*
X16355000Y-4980000D02*
X16395000Y-5020000D01*
X16395000Y-4980000D02*
X16355000Y-5020000D01*
X16355000Y-5180000D02*
X16395000Y-5220000D01*
X16395000Y-5180000D02*
X16355000Y-5220000D01*
X16355000Y-5380000D02*
X16395000Y-5420000D01*
X16395000Y-5380000D02*
X16355000Y-5420000D01*
X16355000Y-5580000D02*
X16395000Y-5620000D01*
X16395000Y-5580000D02*
X16355000Y-5620000D01*
X16355000Y-5780000D02*
X16395000Y-5820000D01*
X16395000Y-5780000D02*
X16355000Y-5820000D01*
X16355000Y-5980000D02*
X16395000Y-6020000D01*
X16395000Y-5980000D02*
X16355000Y-6020000D01*
X16355000Y-6180000D02*
X16395000Y-6220000D01*
X16395000Y-6180000D02*
X16355000Y-6220000D01*
X16355000Y-6380000D02*
X16395000Y-6420000D01*
X16395000Y-6380000D02*
X16355000Y-6420000D01*
X16355000Y-6580000D02*
X16395000Y-6620000D01*
X16395000Y-6580000D02*
X16355000Y-6620000D01*
X16355000Y-6780000D02*
X16395000Y-6820000D01*
X16395000Y-6780000D02*
X16355000Y-6820000D01*
X16355000Y-6980000D02*
X16395000Y-7020000D01*
X16395000Y-6980000D02*
X16355000Y-7020000D01*
X16355000Y-7180000D02*
X16395000Y-7220000D01*
X16395000Y-7180000D02*
X16355000Y-7220000D01*
X16355000Y-7380000D02*
X16395000Y-7420000D01*
X16395000Y-7380000D02*
X16355000Y-7420000D01*
X16355000Y-7580000D02*
X16395000Y-7620000D01*
X16395000Y-7580000D02*
X16355000Y-7620000D01*
X16355000Y-7780000D02*
X16395000Y-7820000D01*
X16395000Y-7780000D02*
X16355000Y-7820000D01*
X16355000Y-7980000D02*
X16395000Y-8020000D01*
X16395000Y-7980000D02*
X16355000Y-8020000D01*
X16355000Y-8180000D02*
X16395000Y-8220000D01*
X16395000Y-8180000D02*
X16355000Y-8220000D01*
X16355000Y-8380000D02*
X16395000Y-8420000D01*
X16395000Y-8380000D02*
X16355000Y-8420000D01*
X16355000Y-8780000D02*
X16395000Y-8820000D01*
X16395000Y-8780000D02*
X16355000Y-8820000D01*
X16355000Y-8980000D02*
X16395000Y-9020000D01*
X16395000Y-8980000D02*
X16355000Y-9020000D01*
X16355000Y-9180000D02*
X16395000Y-9220000D01*
X16395000Y-9180000D02*
X16355000Y-9220000D01*
X16355000Y-9380000D02*
X16395000Y-9420000D01*
X16395000Y-9380000D02*
X16355000Y-9420000D01*
X16355000Y-9580000D02*
X16395000Y-9620000D01*
X16395000Y-9580000D02*
X16355000Y-9620000D01*
X16355000Y-9780000D02*
X16395000Y-9820000D01*
X16395000Y-9780000D02*
X16355000Y-9820000D01*
X16355000Y-9980000D02*
X16395000Y-10020000D01*
X16395000Y-9980000D02*
X16355000Y-10020000D01*
X16355000Y-10180000D02*
X16395000Y-10220000D01*
X16395000Y-10180000D02*
X16355000Y-10220000D01*
X16355000Y-10380000D02*
X16395000Y-10420000D01*
X16395000Y-10380000D02*
X16355000Y-10420000D01*
X16355000Y-10580000D02*
X16395000Y-10620000D01*
X16395000Y-10580000D02*
X16355000Y-10620000D01*
X16355000Y-10780000D02*
X16395000Y-10820000D01*
X16395000Y-10780000D02*
X16355000Y-10820000D01*
X16355000Y-10980000D02*
X16395000Y-11020000D01*
X16395000Y-10980000D02*
X16355000Y-11020000D01*
X16355000Y-11180000D02*
X16395000Y-11220000D01*
X16395000Y-11180000D02*
X16355000Y-11220000D01*
X16355000Y-11380000D02*
X16395000Y-11420000D01*
X16395000Y-11380000D02*
X16355000Y-11420000D01*
X16355000Y-11580000D02*
X16395000Y-11620000D01*
X16395000Y-11580000D02*
X16355000Y-11620000D01*
X16355000Y-11780000D02*
X16395000Y-11820000D01*
X16395000Y-11780000D02*
X16355000Y-11820000D01*
X16355000Y-11980000D02*
X16395000Y-12020000D01*
X16395000Y-11980000D02*
X16355000Y-12020000D01*
X16355000Y-12180000D02*
X16395000Y-12220000D01*
X16395000Y-12180000D02*
X16355000Y-12220000D01*
X16355000Y-12380000D02*
X16395000Y-12420000D01*
X16395000Y-12380000D02*
X16355000Y-12420000D01*
X16355000Y-12580000D02*
X16395000Y-12620000D01*
X16395000Y-12580000D02*
X16355000Y-12620000D01*
X16355000Y-12780000D02*
X16395000Y-12820000D01*
X16395000Y-12780000D02*
X16355000Y-12820000D01*
X16355000Y-12980000D02*
X16395000Y-13020000D01*
X16395000Y-12980000D02*
X16355000Y-13020000D01*
X16355000Y-13180000D02*
X16395000Y-13220000D01*
X16395000Y-13180000D02*
X16355000Y-13220000D01*
X16355000Y-13380000D02*
X16395000Y-13420000D01*
X16395000Y-13380000D02*
X16355000Y-13420000D01*
X10315000Y-11300000D02*
G75*
G03X10315000Y-11300000I-40000J0D01*
G01*
X10315000Y-11650000D02*
G75*
G03X10315000Y-11650000I-40000J0D01*
G01*
X10375000Y-8325000D02*
X10375000Y-8425000D01*
X10325000Y-8375000D02*
X10425000Y-8375000D01*
X10629000Y-8325000D02*
X10629000Y-8425000D01*
X10579000Y-8375000D02*
X10679000Y-8375000D01*
X10883000Y-8325000D02*
X10883000Y-8425000D01*
X10833000Y-8375000D02*
X10933000Y-8375000D01*
X9025000Y-8325000D02*
X9025000Y-8425000D01*
X8975000Y-8375000D02*
X9075000Y-8375000D01*
X9279000Y-8325000D02*
X9279000Y-8425000D01*
X9229000Y-8375000D02*
X9329000Y-8375000D01*
X9533000Y-8325000D02*
X9533000Y-8425000D01*
X9483000Y-8375000D02*
X9583000Y-8375000D01*
X10250000Y-5925000D02*
X10250000Y-6025000D01*
X10200000Y-5975000D02*
X10300000Y-5975000D01*
X10375000Y-5550000D02*
X10375000Y-5650000D01*
X10325000Y-5600000D02*
X10425000Y-5600000D01*
X10375000Y-6050000D02*
X10375000Y-6150000D01*
X10325000Y-6100000D02*
X10425000Y-6100000D01*
X10500000Y-5675000D02*
X10500000Y-5775000D01*
X10450000Y-5725000D02*
X10550000Y-5725000D01*
X9275000Y-5550000D02*
X9275000Y-5650000D01*
X9225000Y-5600000D02*
X9325000Y-5600000D01*
X9275000Y-6050000D02*
X9275000Y-6150000D01*
X9225000Y-6100000D02*
X9325000Y-6100000D01*
X10278034Y-4578034D02*
X10278034Y-4471967D01*
X10171967Y-4471967D01*
X10171967Y-4578034D01*
X10278034Y-4578034D01*
X10823034Y-4578034D02*
X10823034Y-4471967D01*
X10716967Y-4471967D01*
X10716967Y-4578034D01*
X10823034Y-4578034D01*
X11368033Y-4578034D02*
X11368033Y-4471967D01*
X11261966Y-4471967D01*
X11261966Y-4578034D01*
X11368033Y-4578034D01*
X12426033Y-4578034D02*
X12426033Y-4471967D01*
X12319966Y-4471967D01*
X12319966Y-4578034D01*
X12426033Y-4578034D01*
X12971033Y-4578034D02*
X12971033Y-4471967D01*
X12864966Y-4471967D01*
X12864966Y-4578034D01*
X12971033Y-4578034D01*
X13516033Y-4578034D02*
X13516033Y-4471967D01*
X13409966Y-4471967D01*
X13409966Y-4578034D01*
X13516033Y-4578034D01*
X7000000Y-10076000D02*
X7076000Y-10000000D01*
X7000000Y-9924000D01*
X6924000Y-10000000D01*
X7000000Y-10076000D01*
X7000000Y-10584000D02*
X7076000Y-10508000D01*
X7000000Y-10432000D01*
X6924000Y-10508000D01*
X7000000Y-10584000D01*
X7000000Y-11092000D02*
X7076000Y-11016000D01*
X7000000Y-10940000D01*
X6924000Y-11016000D01*
X7000000Y-11092000D01*
X7395000Y-6870000D02*
X7555000Y-7030000D01*
X7555000Y-6870000D02*
X7395000Y-7030000D01*
X7555000Y-6950000D02*
G75*
G03X7555000Y-6950000I-80000J0D01*
G01*
X7395000Y-7124000D02*
X7555000Y-7284000D01*
X7555000Y-7124000D02*
X7395000Y-7284000D01*
X7555000Y-7204000D02*
G75*
G03X7555000Y-7204000I-80000J0D01*
G01*
X7395000Y-7378000D02*
X7555000Y-7538000D01*
X7555000Y-7378000D02*
X7395000Y-7538000D01*
X7555000Y-7458000D02*
G75*
G03X7555000Y-7458000I-80000J0D01*
G01*
X7903000Y-6870000D02*
X8063000Y-7030000D01*
X8063000Y-6870000D02*
X7903000Y-7030000D01*
X8063000Y-6950000D02*
G75*
G03X8063000Y-6950000I-80000J0D01*
G01*
X7903000Y-7124000D02*
X8063000Y-7284000D01*
X8063000Y-7124000D02*
X7903000Y-7284000D01*
X8063000Y-7204000D02*
G75*
G03X8063000Y-7204000I-80000J0D01*
G01*
X7903000Y-7378000D02*
X8063000Y-7538000D01*
X8063000Y-7378000D02*
X7903000Y-7538000D01*
X8063000Y-7458000D02*
G75*
G03X8063000Y-7458000I-80000J0D01*
G01*
X14820000Y-6970000D02*
X14980000Y-7130000D01*
X14980000Y-6970000D02*
X14820000Y-7130000D01*
X14980000Y-7050000D02*
G75*
G03X14980000Y-7050000I-80000J0D01*
G01*
X14820000Y-7224000D02*
X14980000Y-7384000D01*
X14980000Y-7224000D02*
X14820000Y-7384000D01*
X14980000Y-7304000D02*
G75*
G03X14980000Y-7304000I-80000J0D01*
G01*
X14820000Y-7478000D02*
X14980000Y-7638000D01*
X14980000Y-7478000D02*
X14820000Y-7638000D01*
X14980000Y-7558000D02*
G75*
G03X14980000Y-7558000I-80000J0D01*
G01*
X15328000Y-6970000D02*
X15488000Y-7130000D01*
X15488000Y-6970000D02*
X15328000Y-7130000D01*
X15488000Y-7050000D02*
G75*
G03X15488000Y-7050000I-80000J0D01*
G01*
X15328000Y-7224000D02*
X15488000Y-7384000D01*
X15488000Y-7224000D02*
X15328000Y-7384000D01*
X15488000Y-7304000D02*
G75*
G03X15488000Y-7304000I-80000J0D01*
G01*
X15328000Y-7478000D02*
X15488000Y-7638000D01*
X15488000Y-7478000D02*
X15328000Y-7638000D01*
X15488000Y-7558000D02*
G75*
G03X15488000Y-7558000I-80000J0D01*
G01*
X14795000Y-5145000D02*
X14955000Y-5305000D01*
X14955000Y-5145000D02*
X14795000Y-5305000D01*
X14955000Y-5225000D02*
G75*
G03X14955000Y-5225000I-80000J0D01*
G01*
X14795000Y-5399000D02*
X14955000Y-5559000D01*
X14955000Y-5399000D02*
X14795000Y-5559000D01*
X14955000Y-5479000D02*
G75*
G03X14955000Y-5479000I-80000J0D01*
G01*
X14795000Y-5653000D02*
X14955000Y-5813000D01*
X14955000Y-5653000D02*
X14795000Y-5813000D01*
X14955000Y-5733000D02*
G75*
G03X14955000Y-5733000I-80000J0D01*
G01*
X15303000Y-5145000D02*
X15463000Y-5305000D01*
X15463000Y-5145000D02*
X15303000Y-5305000D01*
X15463000Y-5225000D02*
G75*
G03X15463000Y-5225000I-80000J0D01*
G01*
X15303000Y-5399000D02*
X15463000Y-5559000D01*
X15463000Y-5399000D02*
X15303000Y-5559000D01*
X15463000Y-5479000D02*
G75*
G03X15463000Y-5479000I-80000J0D01*
G01*
X15303000Y-5653000D02*
X15463000Y-5813000D01*
X15463000Y-5653000D02*
X15303000Y-5813000D01*
X15463000Y-5733000D02*
G75*
G03X15463000Y-5733000I-80000J0D01*
G01*
X7420000Y-5145000D02*
X7580000Y-5305000D01*
X7580000Y-5145000D02*
X7420000Y-5305000D01*
X7580000Y-5225000D02*
G75*
G03X7580000Y-5225000I-80000J0D01*
G01*
X7420000Y-5399000D02*
X7580000Y-5559000D01*
X7580000Y-5399000D02*
X7420000Y-5559000D01*
X7580000Y-5479000D02*
G75*
G03X7580000Y-5479000I-80000J0D01*
G01*
X7420000Y-5653000D02*
X7580000Y-5813000D01*
X7580000Y-5653000D02*
X7420000Y-5813000D01*
X7580000Y-5733000D02*
G75*
G03X7580000Y-5733000I-80000J0D01*
G01*
X7928000Y-5145000D02*
X8088000Y-5305000D01*
X8088000Y-5145000D02*
X7928000Y-5305000D01*
X8088000Y-5225000D02*
G75*
G03X8088000Y-5225000I-80000J0D01*
G01*
X7928000Y-5399000D02*
X8088000Y-5559000D01*
X8088000Y-5399000D02*
X7928000Y-5559000D01*
X8088000Y-5479000D02*
G75*
G03X8088000Y-5479000I-80000J0D01*
G01*
X7928000Y-5653000D02*
X8088000Y-5813000D01*
X8088000Y-5653000D02*
X7928000Y-5813000D01*
X8088000Y-5733000D02*
G75*
G03X8088000Y-5733000I-80000J0D01*
G01*
X6770000Y-3920000D02*
X7130000Y-4280000D01*
X7130000Y-3920000D02*
X6770000Y-4280000D01*
X6950000Y-3920000D02*
X6950000Y-4280000D01*
X6770000Y-4100000D02*
X7130000Y-4100000D01*
X6770000Y-8495000D02*
X7130000Y-8855000D01*
X7130000Y-8495000D02*
X6770000Y-8855000D01*
X6950000Y-8495000D02*
X6950000Y-8855000D01*
X6770000Y-8675000D02*
X7130000Y-8675000D01*
X6770000Y-12970000D02*
X7130000Y-13330000D01*
X7130000Y-12970000D02*
X6770000Y-13330000D01*
X6950000Y-12970000D02*
X6950000Y-13330000D01*
X6770000Y-13150000D02*
X7130000Y-13150000D01*
X15845000Y-3920000D02*
X16205000Y-4280000D01*
X16205000Y-3920000D02*
X15845000Y-4280000D01*
X16025000Y-3920000D02*
X16025000Y-4280000D01*
X15845000Y-4100000D02*
X16205000Y-4100000D01*
X15845000Y-9570000D02*
X16205000Y-9930000D01*
X16205000Y-9570000D02*
X15845000Y-9930000D01*
X16025000Y-9570000D02*
X16025000Y-9930000D01*
X15845000Y-9750000D02*
X16205000Y-9750000D01*
X15845000Y-12970000D02*
X16205000Y-13330000D01*
X16205000Y-12970000D02*
X15845000Y-13330000D01*
X16025000Y-12970000D02*
X16025000Y-13330000D01*
X15845000Y-13150000D02*
X16205000Y-13150000D01*
D12*
X6783928Y-14068214D02*
X6783928Y-13768214D01*
X6855357Y-13768214D01*
X6898214Y-13782500D01*
X6926786Y-13811071D01*
X6941071Y-13839643D01*
X6955357Y-13896786D01*
X6955357Y-13939643D01*
X6941071Y-13996786D01*
X6926786Y-14025357D01*
X6898214Y-14053929D01*
X6855357Y-14068214D01*
X6783928Y-14068214D01*
X7083928Y-14068214D02*
X7083928Y-13868214D01*
X7083928Y-13925357D02*
X7098214Y-13896786D01*
X7112500Y-13882500D01*
X7141071Y-13868214D01*
X7169643Y-13868214D01*
X7269643Y-14068214D02*
X7269643Y-13868214D01*
X7269643Y-13768214D02*
X7255357Y-13782500D01*
X7269643Y-13796786D01*
X7283928Y-13782500D01*
X7269643Y-13768214D01*
X7269643Y-13796786D01*
X7455357Y-14068214D02*
X7426786Y-14053929D01*
X7412500Y-14025357D01*
X7412500Y-13768214D01*
X7612500Y-14068214D02*
X7583928Y-14053929D01*
X7569643Y-14025357D01*
X7569643Y-13768214D01*
X7955357Y-14068214D02*
X7955357Y-13768214D01*
X8055357Y-13982500D01*
X8155357Y-13768214D01*
X8155357Y-14068214D01*
X8426786Y-14068214D02*
X8426786Y-13911071D01*
X8412500Y-13882500D01*
X8383928Y-13868214D01*
X8326786Y-13868214D01*
X8298214Y-13882500D01*
X8426786Y-14053929D02*
X8398214Y-14068214D01*
X8326786Y-14068214D01*
X8298214Y-14053929D01*
X8283928Y-14025357D01*
X8283928Y-13996786D01*
X8298214Y-13968214D01*
X8326786Y-13953929D01*
X8398214Y-13953929D01*
X8426786Y-13939643D01*
X8569643Y-13868214D02*
X8569643Y-14168214D01*
X8569643Y-13882500D02*
X8598214Y-13868214D01*
X8655357Y-13868214D01*
X8683928Y-13882500D01*
X8698214Y-13896786D01*
X8712500Y-13925357D01*
X8712500Y-14011071D01*
X8698214Y-14039643D01*
X8683928Y-14053929D01*
X8655357Y-14068214D01*
X8598214Y-14068214D01*
X8569643Y-14053929D01*
X8841071Y-14039643D02*
X8855357Y-14053929D01*
X8841071Y-14068214D01*
X8826786Y-14053929D01*
X8841071Y-14039643D01*
X8841071Y-14068214D01*
X8841071Y-13882500D02*
X8855357Y-13896786D01*
X8841071Y-13911071D01*
X8826786Y-13896786D01*
X8841071Y-13882500D01*
X8841071Y-13911071D01*
X6457500Y-14542500D02*
X6497500Y-14582500D01*
X6497500Y-14542500D02*
X6457500Y-14582500D01*
X6841071Y-14398214D02*
X6869643Y-14398214D01*
X6898214Y-14412500D01*
X6912500Y-14426786D01*
X6926786Y-14455357D01*
X6941071Y-14512500D01*
X6941071Y-14583929D01*
X6926786Y-14641071D01*
X6912500Y-14669643D01*
X6898214Y-14683929D01*
X6869643Y-14698214D01*
X6841071Y-14698214D01*
X6812500Y-14683929D01*
X6798214Y-14669643D01*
X6783928Y-14641071D01*
X6769643Y-14583929D01*
X6769643Y-14512500D01*
X6783928Y-14455357D01*
X6798214Y-14426786D01*
X6812500Y-14412500D01*
X6841071Y-14398214D01*
X7069643Y-14669643D02*
X7083928Y-14683929D01*
X7069643Y-14698214D01*
X7055357Y-14683929D01*
X7069643Y-14669643D01*
X7069643Y-14698214D01*
X7341071Y-14498214D02*
X7341071Y-14698214D01*
X7269643Y-14383929D02*
X7198214Y-14598214D01*
X7383928Y-14598214D01*
X7555357Y-14398214D02*
X7583928Y-14398214D01*
X7612500Y-14412500D01*
X7626786Y-14426786D01*
X7641071Y-14455357D01*
X7655357Y-14512500D01*
X7655357Y-14583929D01*
X7641071Y-14641071D01*
X7626786Y-14669643D01*
X7612500Y-14683929D01*
X7583928Y-14698214D01*
X7555357Y-14698214D01*
X7526786Y-14683929D01*
X7512500Y-14669643D01*
X7498214Y-14641071D01*
X7483928Y-14583929D01*
X7483928Y-14512500D01*
X7498214Y-14455357D01*
X7512500Y-14426786D01*
X7526786Y-14412500D01*
X7555357Y-14398214D01*
X7783928Y-14698214D02*
X7783928Y-14498214D01*
X7783928Y-14526786D02*
X7798214Y-14512500D01*
X7826786Y-14498214D01*
X7869643Y-14498214D01*
X7898214Y-14512500D01*
X7912500Y-14541071D01*
X7912500Y-14698214D01*
X7912500Y-14541071D02*
X7926786Y-14512500D01*
X7955357Y-14498214D01*
X7998214Y-14498214D01*
X8026786Y-14512500D01*
X8041071Y-14541071D01*
X8041071Y-14698214D01*
X8183928Y-14698214D02*
X8183928Y-14498214D01*
X8183928Y-14526786D02*
X8198214Y-14512500D01*
X8226786Y-14498214D01*
X8269643Y-14498214D01*
X8298214Y-14512500D01*
X8312500Y-14541071D01*
X8312500Y-14698214D01*
X8312500Y-14541071D02*
X8326786Y-14512500D01*
X8355357Y-14498214D01*
X8398214Y-14498214D01*
X8426786Y-14512500D01*
X8441071Y-14541071D01*
X8441071Y-14698214D01*
X9026786Y-14383929D02*
X8769643Y-14769643D01*
X9412500Y-14398214D02*
X9441071Y-14398214D01*
X9469643Y-14412500D01*
X9483928Y-14426786D01*
X9498214Y-14455357D01*
X9512500Y-14512500D01*
X9512500Y-14583929D01*
X9498214Y-14641071D01*
X9483928Y-14669643D01*
X9469643Y-14683929D01*
X9441071Y-14698214D01*
X9412500Y-14698214D01*
X9383928Y-14683929D01*
X9369643Y-14669643D01*
X9355357Y-14641071D01*
X9341071Y-14583929D01*
X9341071Y-14512500D01*
X9355357Y-14455357D01*
X9369643Y-14426786D01*
X9383928Y-14412500D01*
X9412500Y-14398214D01*
X9641071Y-14669643D02*
X9655357Y-14683929D01*
X9641071Y-14698214D01*
X9626786Y-14683929D01*
X9641071Y-14669643D01*
X9641071Y-14698214D01*
X9841071Y-14398214D02*
X9869643Y-14398214D01*
X9898214Y-14412500D01*
X9912500Y-14426786D01*
X9926786Y-14455357D01*
X9941071Y-14512500D01*
X9941071Y-14583929D01*
X9926786Y-14641071D01*
X9912500Y-14669643D01*
X9898214Y-14683929D01*
X9869643Y-14698214D01*
X9841071Y-14698214D01*
X9812500Y-14683929D01*
X9798214Y-14669643D01*
X9783928Y-14641071D01*
X9769643Y-14583929D01*
X9769643Y-14512500D01*
X9783928Y-14455357D01*
X9798214Y-14426786D01*
X9812500Y-14412500D01*
X9841071Y-14398214D01*
X10226786Y-14698214D02*
X10055357Y-14698214D01*
X10141071Y-14698214D02*
X10141071Y-14398214D01*
X10112500Y-14441071D01*
X10083928Y-14469643D01*
X10055357Y-14483929D01*
X10483928Y-14398214D02*
X10426786Y-14398214D01*
X10398214Y-14412500D01*
X10383928Y-14426786D01*
X10355357Y-14469643D01*
X10341071Y-14526786D01*
X10341071Y-14641071D01*
X10355357Y-14669643D01*
X10369643Y-14683929D01*
X10398214Y-14698214D01*
X10455357Y-14698214D01*
X10483928Y-14683929D01*
X10498214Y-14669643D01*
X10512500Y-14641071D01*
X10512500Y-14569643D01*
X10498214Y-14541071D01*
X10483928Y-14526786D01*
X10455357Y-14512500D01*
X10398214Y-14512500D01*
X10369643Y-14526786D01*
X10355357Y-14541071D01*
X10341071Y-14569643D01*
X10626786Y-14398214D02*
X10626786Y-14455357D01*
X10741071Y-14398214D02*
X10741071Y-14455357D01*
X11183928Y-14812500D02*
X11169643Y-14798214D01*
X11141071Y-14755357D01*
X11126786Y-14726786D01*
X11112500Y-14683929D01*
X11098214Y-14612500D01*
X11098214Y-14555357D01*
X11112500Y-14483929D01*
X11126786Y-14441071D01*
X11141071Y-14412500D01*
X11169643Y-14369643D01*
X11183928Y-14355357D01*
X11426786Y-14398214D02*
X11369643Y-14398214D01*
X11341071Y-14412500D01*
X11326786Y-14426786D01*
X11298214Y-14469643D01*
X11283928Y-14526786D01*
X11283928Y-14641071D01*
X11298214Y-14669643D01*
X11312500Y-14683929D01*
X11341071Y-14698214D01*
X11398214Y-14698214D01*
X11426786Y-14683929D01*
X11441071Y-14669643D01*
X11455357Y-14641071D01*
X11455357Y-14569643D01*
X11441071Y-14541071D01*
X11426786Y-14526786D01*
X11398214Y-14512500D01*
X11341071Y-14512500D01*
X11312500Y-14526786D01*
X11298214Y-14541071D01*
X11283928Y-14569643D01*
X11726786Y-14398214D02*
X11583928Y-14398214D01*
X11569643Y-14541071D01*
X11583928Y-14526786D01*
X11612500Y-14512500D01*
X11683928Y-14512500D01*
X11712500Y-14526786D01*
X11726786Y-14541071D01*
X11741071Y-14569643D01*
X11741071Y-14641071D01*
X11726786Y-14669643D01*
X11712500Y-14683929D01*
X11683928Y-14698214D01*
X11612500Y-14698214D01*
X11583928Y-14683929D01*
X11569643Y-14669643D01*
X11883928Y-14698214D02*
X11941071Y-14698214D01*
X11969643Y-14683929D01*
X11983928Y-14669643D01*
X12012500Y-14626786D01*
X12026786Y-14569643D01*
X12026786Y-14455357D01*
X12012500Y-14426786D01*
X11998214Y-14412500D01*
X11969643Y-14398214D01*
X11912500Y-14398214D01*
X11883928Y-14412500D01*
X11869643Y-14426786D01*
X11855357Y-14455357D01*
X11855357Y-14526786D01*
X11869643Y-14555357D01*
X11883928Y-14569643D01*
X11912500Y-14583929D01*
X11969643Y-14583929D01*
X11998214Y-14569643D01*
X12012500Y-14555357D01*
X12026786Y-14526786D01*
X12383928Y-14698214D02*
X12383928Y-14398214D01*
X12512500Y-14698214D02*
X12512500Y-14541071D01*
X12498214Y-14512500D01*
X12469643Y-14498214D01*
X12426786Y-14498214D01*
X12398214Y-14512500D01*
X12383928Y-14526786D01*
X12698214Y-14698214D02*
X12669643Y-14683929D01*
X12655357Y-14669643D01*
X12641071Y-14641071D01*
X12641071Y-14555357D01*
X12655357Y-14526786D01*
X12669643Y-14512500D01*
X12698214Y-14498214D01*
X12741071Y-14498214D01*
X12769643Y-14512500D01*
X12783928Y-14526786D01*
X12798214Y-14555357D01*
X12798214Y-14641071D01*
X12783928Y-14669643D01*
X12769643Y-14683929D01*
X12741071Y-14698214D01*
X12698214Y-14698214D01*
X12969643Y-14698214D02*
X12941071Y-14683929D01*
X12926786Y-14655357D01*
X12926786Y-14398214D01*
X13198214Y-14683929D02*
X13169643Y-14698214D01*
X13112500Y-14698214D01*
X13083928Y-14683929D01*
X13069643Y-14655357D01*
X13069643Y-14541071D01*
X13083928Y-14512500D01*
X13112500Y-14498214D01*
X13169643Y-14498214D01*
X13198214Y-14512500D01*
X13212500Y-14541071D01*
X13212500Y-14569643D01*
X13069643Y-14598214D01*
X13326786Y-14683929D02*
X13355357Y-14698214D01*
X13412500Y-14698214D01*
X13441071Y-14683929D01*
X13455357Y-14655357D01*
X13455357Y-14641071D01*
X13441071Y-14612500D01*
X13412500Y-14598214D01*
X13369643Y-14598214D01*
X13341071Y-14583929D01*
X13326786Y-14555357D01*
X13326786Y-14541071D01*
X13341071Y-14512500D01*
X13369643Y-14498214D01*
X13412500Y-14498214D01*
X13441071Y-14512500D01*
X13555357Y-14812500D02*
X13569643Y-14798214D01*
X13598214Y-14755357D01*
X13612500Y-14726786D01*
X13626786Y-14683929D01*
X13641071Y-14612500D01*
X13641071Y-14555357D01*
X13626786Y-14483929D01*
X13612500Y-14441071D01*
X13598214Y-14412500D01*
X13569643Y-14369643D01*
X13555357Y-14355357D01*
X6497500Y-14958500D02*
G75*
G03X6497500Y-14958500I-40000J0D01*
G01*
X6841071Y-14794214D02*
X6869643Y-14794214D01*
X6898214Y-14808500D01*
X6912500Y-14822786D01*
X6926786Y-14851357D01*
X6941071Y-14908500D01*
X6941071Y-14979929D01*
X6926786Y-15037071D01*
X6912500Y-15065643D01*
X6898214Y-15079929D01*
X6869643Y-15094214D01*
X6841071Y-15094214D01*
X6812500Y-15079929D01*
X6798214Y-15065643D01*
X6783928Y-15037071D01*
X6769643Y-14979929D01*
X6769643Y-14908500D01*
X6783928Y-14851357D01*
X6798214Y-14822786D01*
X6812500Y-14808500D01*
X6841071Y-14794214D01*
X7069643Y-15065643D02*
X7083928Y-15079929D01*
X7069643Y-15094214D01*
X7055357Y-15079929D01*
X7069643Y-15065643D01*
X7069643Y-15094214D01*
X7255357Y-14922786D02*
X7226786Y-14908500D01*
X7212500Y-14894214D01*
X7198214Y-14865643D01*
X7198214Y-14851357D01*
X7212500Y-14822786D01*
X7226786Y-14808500D01*
X7255357Y-14794214D01*
X7312500Y-14794214D01*
X7341071Y-14808500D01*
X7355357Y-14822786D01*
X7369643Y-14851357D01*
X7369643Y-14865643D01*
X7355357Y-14894214D01*
X7341071Y-14908500D01*
X7312500Y-14922786D01*
X7255357Y-14922786D01*
X7226786Y-14937071D01*
X7212500Y-14951357D01*
X7198214Y-14979929D01*
X7198214Y-15037071D01*
X7212500Y-15065643D01*
X7226786Y-15079929D01*
X7255357Y-15094214D01*
X7312500Y-15094214D01*
X7341071Y-15079929D01*
X7355357Y-15065643D01*
X7369643Y-15037071D01*
X7369643Y-14979929D01*
X7355357Y-14951357D01*
X7341071Y-14937071D01*
X7312500Y-14922786D01*
X7555357Y-14794214D02*
X7583928Y-14794214D01*
X7612500Y-14808500D01*
X7626786Y-14822786D01*
X7641071Y-14851357D01*
X7655357Y-14908500D01*
X7655357Y-14979929D01*
X7641071Y-15037071D01*
X7626786Y-15065643D01*
X7612500Y-15079929D01*
X7583928Y-15094214D01*
X7555357Y-15094214D01*
X7526786Y-15079929D01*
X7512500Y-15065643D01*
X7498214Y-15037071D01*
X7483928Y-14979929D01*
X7483928Y-14908500D01*
X7498214Y-14851357D01*
X7512500Y-14822786D01*
X7526786Y-14808500D01*
X7555357Y-14794214D01*
X7783928Y-15094214D02*
X7783928Y-14894214D01*
X7783928Y-14922786D02*
X7798214Y-14908500D01*
X7826786Y-14894214D01*
X7869643Y-14894214D01*
X7898214Y-14908500D01*
X7912500Y-14937071D01*
X7912500Y-15094214D01*
X7912500Y-14937071D02*
X7926786Y-14908500D01*
X7955357Y-14894214D01*
X7998214Y-14894214D01*
X8026786Y-14908500D01*
X8041071Y-14937071D01*
X8041071Y-15094214D01*
X8183928Y-15094214D02*
X8183928Y-14894214D01*
X8183928Y-14922786D02*
X8198214Y-14908500D01*
X8226786Y-14894214D01*
X8269643Y-14894214D01*
X8298214Y-14908500D01*
X8312500Y-14937071D01*
X8312500Y-15094214D01*
X8312500Y-14937071D02*
X8326786Y-14908500D01*
X8355357Y-14894214D01*
X8398214Y-14894214D01*
X8426786Y-14908500D01*
X8441071Y-14937071D01*
X8441071Y-15094214D01*
X9026786Y-14779929D02*
X8769643Y-15165643D01*
X9412500Y-14794214D02*
X9441071Y-14794214D01*
X9469643Y-14808500D01*
X9483928Y-14822786D01*
X9498214Y-14851357D01*
X9512500Y-14908500D01*
X9512500Y-14979929D01*
X9498214Y-15037071D01*
X9483928Y-15065643D01*
X9469643Y-15079929D01*
X9441071Y-15094214D01*
X9412500Y-15094214D01*
X9383928Y-15079929D01*
X9369643Y-15065643D01*
X9355357Y-15037071D01*
X9341071Y-14979929D01*
X9341071Y-14908500D01*
X9355357Y-14851357D01*
X9369643Y-14822786D01*
X9383928Y-14808500D01*
X9412500Y-14794214D01*
X9641071Y-15065643D02*
X9655357Y-15079929D01*
X9641071Y-15094214D01*
X9626786Y-15079929D01*
X9641071Y-15065643D01*
X9641071Y-15094214D01*
X9841071Y-14794214D02*
X9869643Y-14794214D01*
X9898214Y-14808500D01*
X9912500Y-14822786D01*
X9926786Y-14851357D01*
X9941071Y-14908500D01*
X9941071Y-14979929D01*
X9926786Y-15037071D01*
X9912500Y-15065643D01*
X9898214Y-15079929D01*
X9869643Y-15094214D01*
X9841071Y-15094214D01*
X9812500Y-15079929D01*
X9798214Y-15065643D01*
X9783928Y-15037071D01*
X9769643Y-14979929D01*
X9769643Y-14908500D01*
X9783928Y-14851357D01*
X9798214Y-14822786D01*
X9812500Y-14808500D01*
X9841071Y-14794214D01*
X10041071Y-14794214D02*
X10226786Y-14794214D01*
X10126786Y-14908500D01*
X10169643Y-14908500D01*
X10198214Y-14922786D01*
X10212500Y-14937071D01*
X10226786Y-14965643D01*
X10226786Y-15037071D01*
X10212500Y-15065643D01*
X10198214Y-15079929D01*
X10169643Y-15094214D01*
X10083928Y-15094214D01*
X10055357Y-15079929D01*
X10041071Y-15065643D01*
X10512500Y-15094214D02*
X10341071Y-15094214D01*
X10426786Y-15094214D02*
X10426786Y-14794214D01*
X10398214Y-14837071D01*
X10369643Y-14865643D01*
X10341071Y-14879929D01*
X10626786Y-14794214D02*
X10626786Y-14851357D01*
X10741071Y-14794214D02*
X10741071Y-14851357D01*
X11183928Y-15208500D02*
X11169643Y-15194214D01*
X11141071Y-15151357D01*
X11126786Y-15122786D01*
X11112500Y-15079929D01*
X11098214Y-15008500D01*
X11098214Y-14951357D01*
X11112500Y-14879929D01*
X11126786Y-14837071D01*
X11141071Y-14808500D01*
X11169643Y-14765643D01*
X11183928Y-14751357D01*
X11283928Y-14822786D02*
X11298214Y-14808500D01*
X11326786Y-14794214D01*
X11398214Y-14794214D01*
X11426786Y-14808500D01*
X11441071Y-14822786D01*
X11455357Y-14851357D01*
X11455357Y-14879929D01*
X11441071Y-14922786D01*
X11269643Y-15094214D01*
X11455357Y-15094214D01*
X11812500Y-15094214D02*
X11812500Y-14794214D01*
X11941071Y-15094214D02*
X11941071Y-14937071D01*
X11926786Y-14908500D01*
X11898214Y-14894214D01*
X11855357Y-14894214D01*
X11826786Y-14908500D01*
X11812500Y-14922786D01*
X12126786Y-15094214D02*
X12098214Y-15079929D01*
X12083928Y-15065643D01*
X12069643Y-15037071D01*
X12069643Y-14951357D01*
X12083928Y-14922786D01*
X12098214Y-14908500D01*
X12126786Y-14894214D01*
X12169643Y-14894214D01*
X12198214Y-14908500D01*
X12212500Y-14922786D01*
X12226786Y-14951357D01*
X12226786Y-15037071D01*
X12212500Y-15065643D01*
X12198214Y-15079929D01*
X12169643Y-15094214D01*
X12126786Y-15094214D01*
X12398214Y-15094214D02*
X12369643Y-15079929D01*
X12355357Y-15051357D01*
X12355357Y-14794214D01*
X12626786Y-15079929D02*
X12598214Y-15094214D01*
X12541071Y-15094214D01*
X12512500Y-15079929D01*
X12498214Y-15051357D01*
X12498214Y-14937071D01*
X12512500Y-14908500D01*
X12541071Y-14894214D01*
X12598214Y-14894214D01*
X12626786Y-14908500D01*
X12641071Y-14937071D01*
X12641071Y-14965643D01*
X12498214Y-14994214D01*
X12755357Y-15079929D02*
X12783928Y-15094214D01*
X12841071Y-15094214D01*
X12869643Y-15079929D01*
X12883928Y-15051357D01*
X12883928Y-15037071D01*
X12869643Y-15008500D01*
X12841071Y-14994214D01*
X12798214Y-14994214D01*
X12769643Y-14979929D01*
X12755357Y-14951357D01*
X12755357Y-14937071D01*
X12769643Y-14908500D01*
X12798214Y-14894214D01*
X12841071Y-14894214D01*
X12869643Y-14908500D01*
X12983928Y-15208500D02*
X12998214Y-15194214D01*
X13026786Y-15151357D01*
X13041071Y-15122786D01*
X13055357Y-15079929D01*
X13069643Y-15008500D01*
X13069643Y-14951357D01*
X13055357Y-14879929D01*
X13041071Y-14837071D01*
X13026786Y-14808500D01*
X12998214Y-14765643D01*
X12983928Y-14751357D01*
X6447500Y-15304500D02*
X6447500Y-15404500D01*
X6397500Y-15354500D02*
X6497500Y-15354500D01*
X6941071Y-15490214D02*
X6769643Y-15490214D01*
X6855357Y-15490214D02*
X6855357Y-15190214D01*
X6826786Y-15233071D01*
X6798214Y-15261643D01*
X6769643Y-15275929D01*
X7069643Y-15461643D02*
X7083928Y-15475929D01*
X7069643Y-15490214D01*
X7055357Y-15475929D01*
X7069643Y-15461643D01*
X7069643Y-15490214D01*
X7269643Y-15190214D02*
X7298214Y-15190214D01*
X7326786Y-15204500D01*
X7341071Y-15218786D01*
X7355357Y-15247357D01*
X7369643Y-15304500D01*
X7369643Y-15375929D01*
X7355357Y-15433071D01*
X7341071Y-15461643D01*
X7326786Y-15475929D01*
X7298214Y-15490214D01*
X7269643Y-15490214D01*
X7241071Y-15475929D01*
X7226786Y-15461643D01*
X7212500Y-15433071D01*
X7198214Y-15375929D01*
X7198214Y-15304500D01*
X7212500Y-15247357D01*
X7226786Y-15218786D01*
X7241071Y-15204500D01*
X7269643Y-15190214D01*
X7555357Y-15190214D02*
X7583928Y-15190214D01*
X7612500Y-15204500D01*
X7626786Y-15218786D01*
X7641071Y-15247357D01*
X7655357Y-15304500D01*
X7655357Y-15375929D01*
X7641071Y-15433071D01*
X7626786Y-15461643D01*
X7612500Y-15475929D01*
X7583928Y-15490214D01*
X7555357Y-15490214D01*
X7526786Y-15475929D01*
X7512500Y-15461643D01*
X7498214Y-15433071D01*
X7483928Y-15375929D01*
X7483928Y-15304500D01*
X7498214Y-15247357D01*
X7512500Y-15218786D01*
X7526786Y-15204500D01*
X7555357Y-15190214D01*
X7783928Y-15490214D02*
X7783928Y-15290214D01*
X7783928Y-15318786D02*
X7798214Y-15304500D01*
X7826786Y-15290214D01*
X7869643Y-15290214D01*
X7898214Y-15304500D01*
X7912500Y-15333071D01*
X7912500Y-15490214D01*
X7912500Y-15333071D02*
X7926786Y-15304500D01*
X7955357Y-15290214D01*
X7998214Y-15290214D01*
X8026786Y-15304500D01*
X8041071Y-15333071D01*
X8041071Y-15490214D01*
X8183928Y-15490214D02*
X8183928Y-15290214D01*
X8183928Y-15318786D02*
X8198214Y-15304500D01*
X8226786Y-15290214D01*
X8269643Y-15290214D01*
X8298214Y-15304500D01*
X8312500Y-15333071D01*
X8312500Y-15490214D01*
X8312500Y-15333071D02*
X8326786Y-15304500D01*
X8355357Y-15290214D01*
X8398214Y-15290214D01*
X8426786Y-15304500D01*
X8441071Y-15333071D01*
X8441071Y-15490214D01*
X9026786Y-15175929D02*
X8769643Y-15561643D01*
X9412500Y-15190214D02*
X9441071Y-15190214D01*
X9469643Y-15204500D01*
X9483928Y-15218786D01*
X9498214Y-15247357D01*
X9512500Y-15304500D01*
X9512500Y-15375929D01*
X9498214Y-15433071D01*
X9483928Y-15461643D01*
X9469643Y-15475929D01*
X9441071Y-15490214D01*
X9412500Y-15490214D01*
X9383928Y-15475929D01*
X9369643Y-15461643D01*
X9355357Y-15433071D01*
X9341071Y-15375929D01*
X9341071Y-15304500D01*
X9355357Y-15247357D01*
X9369643Y-15218786D01*
X9383928Y-15204500D01*
X9412500Y-15190214D01*
X9641071Y-15461643D02*
X9655357Y-15475929D01*
X9641071Y-15490214D01*
X9626786Y-15475929D01*
X9641071Y-15461643D01*
X9641071Y-15490214D01*
X9841071Y-15190214D02*
X9869643Y-15190214D01*
X9898214Y-15204500D01*
X9912500Y-15218786D01*
X9926786Y-15247357D01*
X9941071Y-15304500D01*
X9941071Y-15375929D01*
X9926786Y-15433071D01*
X9912500Y-15461643D01*
X9898214Y-15475929D01*
X9869643Y-15490214D01*
X9841071Y-15490214D01*
X9812500Y-15475929D01*
X9798214Y-15461643D01*
X9783928Y-15433071D01*
X9769643Y-15375929D01*
X9769643Y-15304500D01*
X9783928Y-15247357D01*
X9798214Y-15218786D01*
X9812500Y-15204500D01*
X9841071Y-15190214D01*
X10041071Y-15190214D02*
X10226786Y-15190214D01*
X10126786Y-15304500D01*
X10169643Y-15304500D01*
X10198214Y-15318786D01*
X10212500Y-15333071D01*
X10226786Y-15361643D01*
X10226786Y-15433071D01*
X10212500Y-15461643D01*
X10198214Y-15475929D01*
X10169643Y-15490214D01*
X10083928Y-15490214D01*
X10055357Y-15475929D01*
X10041071Y-15461643D01*
X10369643Y-15490214D02*
X10426786Y-15490214D01*
X10455357Y-15475929D01*
X10469643Y-15461643D01*
X10498214Y-15418786D01*
X10512500Y-15361643D01*
X10512500Y-15247357D01*
X10498214Y-15218786D01*
X10483928Y-15204500D01*
X10455357Y-15190214D01*
X10398214Y-15190214D01*
X10369643Y-15204500D01*
X10355357Y-15218786D01*
X10341071Y-15247357D01*
X10341071Y-15318786D01*
X10355357Y-15347357D01*
X10369643Y-15361643D01*
X10398214Y-15375929D01*
X10455357Y-15375929D01*
X10483928Y-15361643D01*
X10498214Y-15347357D01*
X10512500Y-15318786D01*
X10626786Y-15190214D02*
X10626786Y-15247357D01*
X10741071Y-15190214D02*
X10741071Y-15247357D01*
X11183928Y-15604500D02*
X11169643Y-15590214D01*
X11141071Y-15547357D01*
X11126786Y-15518786D01*
X11112500Y-15475929D01*
X11098214Y-15404500D01*
X11098214Y-15347357D01*
X11112500Y-15275929D01*
X11126786Y-15233071D01*
X11141071Y-15204500D01*
X11169643Y-15161643D01*
X11183928Y-15147357D01*
X11455357Y-15490214D02*
X11283928Y-15490214D01*
X11369643Y-15490214D02*
X11369643Y-15190214D01*
X11341071Y-15233071D01*
X11312500Y-15261643D01*
X11283928Y-15275929D01*
X11569643Y-15218786D02*
X11583928Y-15204500D01*
X11612500Y-15190214D01*
X11683928Y-15190214D01*
X11712500Y-15204500D01*
X11726786Y-15218786D01*
X11741071Y-15247357D01*
X11741071Y-15275929D01*
X11726786Y-15318786D01*
X11555357Y-15490214D01*
X11741071Y-15490214D01*
X12098214Y-15490214D02*
X12098214Y-15190214D01*
X12226786Y-15490214D02*
X12226786Y-15333071D01*
X12212500Y-15304500D01*
X12183928Y-15290214D01*
X12141071Y-15290214D01*
X12112500Y-15304500D01*
X12098214Y-15318786D01*
X12412500Y-15490214D02*
X12383928Y-15475929D01*
X12369643Y-15461643D01*
X12355357Y-15433071D01*
X12355357Y-15347357D01*
X12369643Y-15318786D01*
X12383928Y-15304500D01*
X12412500Y-15290214D01*
X12455357Y-15290214D01*
X12483928Y-15304500D01*
X12498214Y-15318786D01*
X12512500Y-15347357D01*
X12512500Y-15433071D01*
X12498214Y-15461643D01*
X12483928Y-15475929D01*
X12455357Y-15490214D01*
X12412500Y-15490214D01*
X12683928Y-15490214D02*
X12655357Y-15475929D01*
X12641071Y-15447357D01*
X12641071Y-15190214D01*
X12912500Y-15475929D02*
X12883928Y-15490214D01*
X12826786Y-15490214D01*
X12798214Y-15475929D01*
X12783928Y-15447357D01*
X12783928Y-15333071D01*
X12798214Y-15304500D01*
X12826786Y-15290214D01*
X12883928Y-15290214D01*
X12912500Y-15304500D01*
X12926786Y-15333071D01*
X12926786Y-15361643D01*
X12783928Y-15390214D01*
X13041071Y-15475929D02*
X13069643Y-15490214D01*
X13126786Y-15490214D01*
X13155357Y-15475929D01*
X13169643Y-15447357D01*
X13169643Y-15433071D01*
X13155357Y-15404500D01*
X13126786Y-15390214D01*
X13083928Y-15390214D01*
X13055357Y-15375929D01*
X13041071Y-15347357D01*
X13041071Y-15333071D01*
X13055357Y-15304500D01*
X13083928Y-15290214D01*
X13126786Y-15290214D01*
X13155357Y-15304500D01*
X13269643Y-15604500D02*
X13283928Y-15590214D01*
X13312500Y-15547357D01*
X13326786Y-15518786D01*
X13341071Y-15475929D01*
X13355357Y-15404500D01*
X13355357Y-15347357D01*
X13341071Y-15275929D01*
X13326786Y-15233071D01*
X13312500Y-15204500D01*
X13283928Y-15161643D01*
X13269643Y-15147357D01*
X6475533Y-15803534D02*
X6475533Y-15697467D01*
X6369466Y-15697467D01*
X6369466Y-15803534D01*
X6475533Y-15803534D01*
X6941071Y-15886214D02*
X6769643Y-15886214D01*
X6855357Y-15886214D02*
X6855357Y-15586214D01*
X6826786Y-15629071D01*
X6798214Y-15657643D01*
X6769643Y-15671929D01*
X7069643Y-15857643D02*
X7083928Y-15871929D01*
X7069643Y-15886214D01*
X7055357Y-15871929D01*
X7069643Y-15857643D01*
X7069643Y-15886214D01*
X7355357Y-15586214D02*
X7212500Y-15586214D01*
X7198214Y-15729071D01*
X7212500Y-15714786D01*
X7241071Y-15700500D01*
X7312500Y-15700500D01*
X7341071Y-15714786D01*
X7355357Y-15729071D01*
X7369643Y-15757643D01*
X7369643Y-15829071D01*
X7355357Y-15857643D01*
X7341071Y-15871929D01*
X7312500Y-15886214D01*
X7241071Y-15886214D01*
X7212500Y-15871929D01*
X7198214Y-15857643D01*
X7555357Y-15586214D02*
X7583928Y-15586214D01*
X7612500Y-15600500D01*
X7626786Y-15614786D01*
X7641071Y-15643357D01*
X7655357Y-15700500D01*
X7655357Y-15771929D01*
X7641071Y-15829071D01*
X7626786Y-15857643D01*
X7612500Y-15871929D01*
X7583928Y-15886214D01*
X7555357Y-15886214D01*
X7526786Y-15871929D01*
X7512500Y-15857643D01*
X7498214Y-15829071D01*
X7483928Y-15771929D01*
X7483928Y-15700500D01*
X7498214Y-15643357D01*
X7512500Y-15614786D01*
X7526786Y-15600500D01*
X7555357Y-15586214D01*
X7783928Y-15886214D02*
X7783928Y-15686214D01*
X7783928Y-15714786D02*
X7798214Y-15700500D01*
X7826786Y-15686214D01*
X7869643Y-15686214D01*
X7898214Y-15700500D01*
X7912500Y-15729071D01*
X7912500Y-15886214D01*
X7912500Y-15729071D02*
X7926786Y-15700500D01*
X7955357Y-15686214D01*
X7998214Y-15686214D01*
X8026786Y-15700500D01*
X8041071Y-15729071D01*
X8041071Y-15886214D01*
X8183928Y-15886214D02*
X8183928Y-15686214D01*
X8183928Y-15714786D02*
X8198214Y-15700500D01*
X8226786Y-15686214D01*
X8269643Y-15686214D01*
X8298214Y-15700500D01*
X8312500Y-15729071D01*
X8312500Y-15886214D01*
X8312500Y-15729071D02*
X8326786Y-15700500D01*
X8355357Y-15686214D01*
X8398214Y-15686214D01*
X8426786Y-15700500D01*
X8441071Y-15729071D01*
X8441071Y-15886214D01*
X9026786Y-15571929D02*
X8769643Y-15957643D01*
X9412500Y-15586214D02*
X9441071Y-15586214D01*
X9469643Y-15600500D01*
X9483928Y-15614786D01*
X9498214Y-15643357D01*
X9512500Y-15700500D01*
X9512500Y-15771929D01*
X9498214Y-15829071D01*
X9483928Y-15857643D01*
X9469643Y-15871929D01*
X9441071Y-15886214D01*
X9412500Y-15886214D01*
X9383928Y-15871929D01*
X9369643Y-15857643D01*
X9355357Y-15829071D01*
X9341071Y-15771929D01*
X9341071Y-15700500D01*
X9355357Y-15643357D01*
X9369643Y-15614786D01*
X9383928Y-15600500D01*
X9412500Y-15586214D01*
X9641071Y-15857643D02*
X9655357Y-15871929D01*
X9641071Y-15886214D01*
X9626786Y-15871929D01*
X9641071Y-15857643D01*
X9641071Y-15886214D01*
X9841071Y-15586214D02*
X9869643Y-15586214D01*
X9898214Y-15600500D01*
X9912500Y-15614786D01*
X9926786Y-15643357D01*
X9941071Y-15700500D01*
X9941071Y-15771929D01*
X9926786Y-15829071D01*
X9912500Y-15857643D01*
X9898214Y-15871929D01*
X9869643Y-15886214D01*
X9841071Y-15886214D01*
X9812500Y-15871929D01*
X9798214Y-15857643D01*
X9783928Y-15829071D01*
X9769643Y-15771929D01*
X9769643Y-15700500D01*
X9783928Y-15643357D01*
X9798214Y-15614786D01*
X9812500Y-15600500D01*
X9841071Y-15586214D01*
X10212500Y-15586214D02*
X10069643Y-15586214D01*
X10055357Y-15729071D01*
X10069643Y-15714786D01*
X10098214Y-15700500D01*
X10169643Y-15700500D01*
X10198214Y-15714786D01*
X10212500Y-15729071D01*
X10226786Y-15757643D01*
X10226786Y-15829071D01*
X10212500Y-15857643D01*
X10198214Y-15871929D01*
X10169643Y-15886214D01*
X10098214Y-15886214D01*
X10069643Y-15871929D01*
X10055357Y-15857643D01*
X10369643Y-15886214D02*
X10426786Y-15886214D01*
X10455357Y-15871929D01*
X10469643Y-15857643D01*
X10498214Y-15814786D01*
X10512500Y-15757643D01*
X10512500Y-15643357D01*
X10498214Y-15614786D01*
X10483928Y-15600500D01*
X10455357Y-15586214D01*
X10398214Y-15586214D01*
X10369643Y-15600500D01*
X10355357Y-15614786D01*
X10341071Y-15643357D01*
X10341071Y-15714786D01*
X10355357Y-15743357D01*
X10369643Y-15757643D01*
X10398214Y-15771929D01*
X10455357Y-15771929D01*
X10483928Y-15757643D01*
X10498214Y-15743357D01*
X10512500Y-15714786D01*
X10626786Y-15586214D02*
X10626786Y-15643357D01*
X10741071Y-15586214D02*
X10741071Y-15643357D01*
X11183928Y-16000500D02*
X11169643Y-15986214D01*
X11141071Y-15943357D01*
X11126786Y-15914786D01*
X11112500Y-15871929D01*
X11098214Y-15800500D01*
X11098214Y-15743357D01*
X11112500Y-15671929D01*
X11126786Y-15629071D01*
X11141071Y-15600500D01*
X11169643Y-15557643D01*
X11183928Y-15543357D01*
X11426786Y-15586214D02*
X11369643Y-15586214D01*
X11341071Y-15600500D01*
X11326786Y-15614786D01*
X11298214Y-15657643D01*
X11283928Y-15714786D01*
X11283928Y-15829071D01*
X11298214Y-15857643D01*
X11312500Y-15871929D01*
X11341071Y-15886214D01*
X11398214Y-15886214D01*
X11426786Y-15871929D01*
X11441071Y-15857643D01*
X11455357Y-15829071D01*
X11455357Y-15757643D01*
X11441071Y-15729071D01*
X11426786Y-15714786D01*
X11398214Y-15700500D01*
X11341071Y-15700500D01*
X11312500Y-15714786D01*
X11298214Y-15729071D01*
X11283928Y-15757643D01*
X11812500Y-15886214D02*
X11812500Y-15586214D01*
X11941071Y-15886214D02*
X11941071Y-15729071D01*
X11926786Y-15700500D01*
X11898214Y-15686214D01*
X11855357Y-15686214D01*
X11826786Y-15700500D01*
X11812500Y-15714786D01*
X12126786Y-15886214D02*
X12098214Y-15871929D01*
X12083928Y-15857643D01*
X12069643Y-15829071D01*
X12069643Y-15743357D01*
X12083928Y-15714786D01*
X12098214Y-15700500D01*
X12126786Y-15686214D01*
X12169643Y-15686214D01*
X12198214Y-15700500D01*
X12212500Y-15714786D01*
X12226786Y-15743357D01*
X12226786Y-15829071D01*
X12212500Y-15857643D01*
X12198214Y-15871929D01*
X12169643Y-15886214D01*
X12126786Y-15886214D01*
X12398214Y-15886214D02*
X12369643Y-15871929D01*
X12355357Y-15843357D01*
X12355357Y-15586214D01*
X12626786Y-15871929D02*
X12598214Y-15886214D01*
X12541071Y-15886214D01*
X12512500Y-15871929D01*
X12498214Y-15843357D01*
X12498214Y-15729071D01*
X12512500Y-15700500D01*
X12541071Y-15686214D01*
X12598214Y-15686214D01*
X12626786Y-15700500D01*
X12641071Y-15729071D01*
X12641071Y-15757643D01*
X12498214Y-15786214D01*
X12755357Y-15871929D02*
X12783928Y-15886214D01*
X12841071Y-15886214D01*
X12869643Y-15871929D01*
X12883928Y-15843357D01*
X12883928Y-15829071D01*
X12869643Y-15800500D01*
X12841071Y-15786214D01*
X12798214Y-15786214D01*
X12769643Y-15771929D01*
X12755357Y-15743357D01*
X12755357Y-15729071D01*
X12769643Y-15700500D01*
X12798214Y-15686214D01*
X12841071Y-15686214D01*
X12869643Y-15700500D01*
X12983928Y-16000500D02*
X12998214Y-15986214D01*
X13026786Y-15943357D01*
X13041071Y-15914786D01*
X13055357Y-15871929D01*
X13069643Y-15800500D01*
X13069643Y-15743357D01*
X13055357Y-15671929D01*
X13041071Y-15629071D01*
X13026786Y-15600500D01*
X12998214Y-15557643D01*
X12983928Y-15543357D01*
X6421500Y-16222500D02*
X6497500Y-16146500D01*
X6421500Y-16070500D01*
X6345500Y-16146500D01*
X6421500Y-16222500D01*
X6941071Y-16282214D02*
X6769643Y-16282214D01*
X6855357Y-16282214D02*
X6855357Y-15982214D01*
X6826786Y-16025071D01*
X6798214Y-16053643D01*
X6769643Y-16067929D01*
X7069643Y-16253643D02*
X7083928Y-16267929D01*
X7069643Y-16282214D01*
X7055357Y-16267929D01*
X7069643Y-16253643D01*
X7069643Y-16282214D01*
X7355357Y-15982214D02*
X7212500Y-15982214D01*
X7198214Y-16125071D01*
X7212500Y-16110786D01*
X7241071Y-16096500D01*
X7312500Y-16096500D01*
X7341071Y-16110786D01*
X7355357Y-16125071D01*
X7369643Y-16153643D01*
X7369643Y-16225071D01*
X7355357Y-16253643D01*
X7341071Y-16267929D01*
X7312500Y-16282214D01*
X7241071Y-16282214D01*
X7212500Y-16267929D01*
X7198214Y-16253643D01*
X7483928Y-16010786D02*
X7498214Y-15996500D01*
X7526786Y-15982214D01*
X7598214Y-15982214D01*
X7626786Y-15996500D01*
X7641071Y-16010786D01*
X7655357Y-16039357D01*
X7655357Y-16067929D01*
X7641071Y-16110786D01*
X7469643Y-16282214D01*
X7655357Y-16282214D01*
X7783928Y-16282214D02*
X7783928Y-16082214D01*
X7783928Y-16110786D02*
X7798214Y-16096500D01*
X7826786Y-16082214D01*
X7869643Y-16082214D01*
X7898214Y-16096500D01*
X7912500Y-16125071D01*
X7912500Y-16282214D01*
X7912500Y-16125071D02*
X7926786Y-16096500D01*
X7955357Y-16082214D01*
X7998214Y-16082214D01*
X8026786Y-16096500D01*
X8041071Y-16125071D01*
X8041071Y-16282214D01*
X8183928Y-16282214D02*
X8183928Y-16082214D01*
X8183928Y-16110786D02*
X8198214Y-16096500D01*
X8226786Y-16082214D01*
X8269643Y-16082214D01*
X8298214Y-16096500D01*
X8312500Y-16125071D01*
X8312500Y-16282214D01*
X8312500Y-16125071D02*
X8326786Y-16096500D01*
X8355357Y-16082214D01*
X8398214Y-16082214D01*
X8426786Y-16096500D01*
X8441071Y-16125071D01*
X8441071Y-16282214D01*
X9026786Y-15967929D02*
X8769643Y-16353643D01*
X9412500Y-15982214D02*
X9441071Y-15982214D01*
X9469643Y-15996500D01*
X9483928Y-16010786D01*
X9498214Y-16039357D01*
X9512500Y-16096500D01*
X9512500Y-16167929D01*
X9498214Y-16225071D01*
X9483928Y-16253643D01*
X9469643Y-16267929D01*
X9441071Y-16282214D01*
X9412500Y-16282214D01*
X9383928Y-16267929D01*
X9369643Y-16253643D01*
X9355357Y-16225071D01*
X9341071Y-16167929D01*
X9341071Y-16096500D01*
X9355357Y-16039357D01*
X9369643Y-16010786D01*
X9383928Y-15996500D01*
X9412500Y-15982214D01*
X9641071Y-16253643D02*
X9655357Y-16267929D01*
X9641071Y-16282214D01*
X9626786Y-16267929D01*
X9641071Y-16253643D01*
X9641071Y-16282214D01*
X9841071Y-15982214D02*
X9869643Y-15982214D01*
X9898214Y-15996500D01*
X9912500Y-16010786D01*
X9926786Y-16039357D01*
X9941071Y-16096500D01*
X9941071Y-16167929D01*
X9926786Y-16225071D01*
X9912500Y-16253643D01*
X9898214Y-16267929D01*
X9869643Y-16282214D01*
X9841071Y-16282214D01*
X9812500Y-16267929D01*
X9798214Y-16253643D01*
X9783928Y-16225071D01*
X9769643Y-16167929D01*
X9769643Y-16096500D01*
X9783928Y-16039357D01*
X9798214Y-16010786D01*
X9812500Y-15996500D01*
X9841071Y-15982214D01*
X10198214Y-15982214D02*
X10141071Y-15982214D01*
X10112500Y-15996500D01*
X10098214Y-16010786D01*
X10069643Y-16053643D01*
X10055357Y-16110786D01*
X10055357Y-16225071D01*
X10069643Y-16253643D01*
X10083928Y-16267929D01*
X10112500Y-16282214D01*
X10169643Y-16282214D01*
X10198214Y-16267929D01*
X10212500Y-16253643D01*
X10226786Y-16225071D01*
X10226786Y-16153643D01*
X10212500Y-16125071D01*
X10198214Y-16110786D01*
X10169643Y-16096500D01*
X10112500Y-16096500D01*
X10083928Y-16110786D01*
X10069643Y-16125071D01*
X10055357Y-16153643D01*
X10412500Y-15982214D02*
X10441071Y-15982214D01*
X10469643Y-15996500D01*
X10483928Y-16010786D01*
X10498214Y-16039357D01*
X10512500Y-16096500D01*
X10512500Y-16167929D01*
X10498214Y-16225071D01*
X10483928Y-16253643D01*
X10469643Y-16267929D01*
X10441071Y-16282214D01*
X10412500Y-16282214D01*
X10383928Y-16267929D01*
X10369643Y-16253643D01*
X10355357Y-16225071D01*
X10341071Y-16167929D01*
X10341071Y-16096500D01*
X10355357Y-16039357D01*
X10369643Y-16010786D01*
X10383928Y-15996500D01*
X10412500Y-15982214D01*
X10626786Y-15982214D02*
X10626786Y-16039357D01*
X10741071Y-15982214D02*
X10741071Y-16039357D01*
X11183928Y-16396500D02*
X11169643Y-16382214D01*
X11141071Y-16339357D01*
X11126786Y-16310786D01*
X11112500Y-16267929D01*
X11098214Y-16196500D01*
X11098214Y-16139357D01*
X11112500Y-16067929D01*
X11126786Y-16025071D01*
X11141071Y-15996500D01*
X11169643Y-15953643D01*
X11183928Y-15939357D01*
X11269643Y-15982214D02*
X11455357Y-15982214D01*
X11355357Y-16096500D01*
X11398214Y-16096500D01*
X11426786Y-16110786D01*
X11441071Y-16125071D01*
X11455357Y-16153643D01*
X11455357Y-16225071D01*
X11441071Y-16253643D01*
X11426786Y-16267929D01*
X11398214Y-16282214D01*
X11312500Y-16282214D01*
X11283928Y-16267929D01*
X11269643Y-16253643D01*
X11812500Y-16282214D02*
X11812500Y-15982214D01*
X11941071Y-16282214D02*
X11941071Y-16125071D01*
X11926786Y-16096500D01*
X11898214Y-16082214D01*
X11855357Y-16082214D01*
X11826786Y-16096500D01*
X11812500Y-16110786D01*
X12126786Y-16282214D02*
X12098214Y-16267929D01*
X12083928Y-16253643D01*
X12069643Y-16225071D01*
X12069643Y-16139357D01*
X12083928Y-16110786D01*
X12098214Y-16096500D01*
X12126786Y-16082214D01*
X12169643Y-16082214D01*
X12198214Y-16096500D01*
X12212500Y-16110786D01*
X12226786Y-16139357D01*
X12226786Y-16225071D01*
X12212500Y-16253643D01*
X12198214Y-16267929D01*
X12169643Y-16282214D01*
X12126786Y-16282214D01*
X12398214Y-16282214D02*
X12369643Y-16267929D01*
X12355357Y-16239357D01*
X12355357Y-15982214D01*
X12626786Y-16267929D02*
X12598214Y-16282214D01*
X12541071Y-16282214D01*
X12512500Y-16267929D01*
X12498214Y-16239357D01*
X12498214Y-16125071D01*
X12512500Y-16096500D01*
X12541071Y-16082214D01*
X12598214Y-16082214D01*
X12626786Y-16096500D01*
X12641071Y-16125071D01*
X12641071Y-16153643D01*
X12498214Y-16182214D01*
X12755357Y-16267929D02*
X12783928Y-16282214D01*
X12841071Y-16282214D01*
X12869643Y-16267929D01*
X12883928Y-16239357D01*
X12883928Y-16225071D01*
X12869643Y-16196500D01*
X12841071Y-16182214D01*
X12798214Y-16182214D01*
X12769643Y-16167929D01*
X12755357Y-16139357D01*
X12755357Y-16125071D01*
X12769643Y-16096500D01*
X12798214Y-16082214D01*
X12841071Y-16082214D01*
X12869643Y-16096500D01*
X12983928Y-16396500D02*
X12998214Y-16382214D01*
X13026786Y-16339357D01*
X13041071Y-16310786D01*
X13055357Y-16267929D01*
X13069643Y-16196500D01*
X13069643Y-16139357D01*
X13055357Y-16067929D01*
X13041071Y-16025071D01*
X13026786Y-15996500D01*
X12998214Y-15953643D01*
X12983928Y-15939357D01*
X6337500Y-16462500D02*
X6497500Y-16622500D01*
X6497500Y-16462500D02*
X6337500Y-16622500D01*
X6497500Y-16542500D02*
G75*
G03X6497500Y-16542500I-80000J0D01*
G01*
X6941071Y-16678214D02*
X6769643Y-16678214D01*
X6855357Y-16678214D02*
X6855357Y-16378214D01*
X6826786Y-16421071D01*
X6798214Y-16449643D01*
X6769643Y-16463929D01*
X7069643Y-16649643D02*
X7083928Y-16663929D01*
X7069643Y-16678214D01*
X7055357Y-16663929D01*
X7069643Y-16649643D01*
X7069643Y-16678214D01*
X7341071Y-16378214D02*
X7283928Y-16378214D01*
X7255357Y-16392500D01*
X7241071Y-16406786D01*
X7212500Y-16449643D01*
X7198214Y-16506786D01*
X7198214Y-16621071D01*
X7212500Y-16649643D01*
X7226786Y-16663929D01*
X7255357Y-16678214D01*
X7312500Y-16678214D01*
X7341071Y-16663929D01*
X7355357Y-16649643D01*
X7369643Y-16621071D01*
X7369643Y-16549643D01*
X7355357Y-16521071D01*
X7341071Y-16506786D01*
X7312500Y-16492500D01*
X7255357Y-16492500D01*
X7226786Y-16506786D01*
X7212500Y-16521071D01*
X7198214Y-16549643D01*
X7555357Y-16378214D02*
X7583928Y-16378214D01*
X7612500Y-16392500D01*
X7626786Y-16406786D01*
X7641071Y-16435357D01*
X7655357Y-16492500D01*
X7655357Y-16563929D01*
X7641071Y-16621071D01*
X7626786Y-16649643D01*
X7612500Y-16663929D01*
X7583928Y-16678214D01*
X7555357Y-16678214D01*
X7526786Y-16663929D01*
X7512500Y-16649643D01*
X7498214Y-16621071D01*
X7483928Y-16563929D01*
X7483928Y-16492500D01*
X7498214Y-16435357D01*
X7512500Y-16406786D01*
X7526786Y-16392500D01*
X7555357Y-16378214D01*
X7783928Y-16678214D02*
X7783928Y-16478214D01*
X7783928Y-16506786D02*
X7798214Y-16492500D01*
X7826786Y-16478214D01*
X7869643Y-16478214D01*
X7898214Y-16492500D01*
X7912500Y-16521071D01*
X7912500Y-16678214D01*
X7912500Y-16521071D02*
X7926786Y-16492500D01*
X7955357Y-16478214D01*
X7998214Y-16478214D01*
X8026786Y-16492500D01*
X8041071Y-16521071D01*
X8041071Y-16678214D01*
X8183928Y-16678214D02*
X8183928Y-16478214D01*
X8183928Y-16506786D02*
X8198214Y-16492500D01*
X8226786Y-16478214D01*
X8269643Y-16478214D01*
X8298214Y-16492500D01*
X8312500Y-16521071D01*
X8312500Y-16678214D01*
X8312500Y-16521071D02*
X8326786Y-16492500D01*
X8355357Y-16478214D01*
X8398214Y-16478214D01*
X8426786Y-16492500D01*
X8441071Y-16521071D01*
X8441071Y-16678214D01*
X9026786Y-16363929D02*
X8769643Y-16749643D01*
X9412500Y-16378214D02*
X9441071Y-16378214D01*
X9469643Y-16392500D01*
X9483928Y-16406786D01*
X9498214Y-16435357D01*
X9512500Y-16492500D01*
X9512500Y-16563929D01*
X9498214Y-16621071D01*
X9483928Y-16649643D01*
X9469643Y-16663929D01*
X9441071Y-16678214D01*
X9412500Y-16678214D01*
X9383928Y-16663929D01*
X9369643Y-16649643D01*
X9355357Y-16621071D01*
X9341071Y-16563929D01*
X9341071Y-16492500D01*
X9355357Y-16435357D01*
X9369643Y-16406786D01*
X9383928Y-16392500D01*
X9412500Y-16378214D01*
X9641071Y-16649643D02*
X9655357Y-16663929D01*
X9641071Y-16678214D01*
X9626786Y-16663929D01*
X9641071Y-16649643D01*
X9641071Y-16678214D01*
X9841071Y-16378214D02*
X9869643Y-16378214D01*
X9898214Y-16392500D01*
X9912500Y-16406786D01*
X9926786Y-16435357D01*
X9941071Y-16492500D01*
X9941071Y-16563929D01*
X9926786Y-16621071D01*
X9912500Y-16649643D01*
X9898214Y-16663929D01*
X9869643Y-16678214D01*
X9841071Y-16678214D01*
X9812500Y-16663929D01*
X9798214Y-16649643D01*
X9783928Y-16621071D01*
X9769643Y-16563929D01*
X9769643Y-16492500D01*
X9783928Y-16435357D01*
X9798214Y-16406786D01*
X9812500Y-16392500D01*
X9841071Y-16378214D01*
X10198214Y-16378214D02*
X10141071Y-16378214D01*
X10112500Y-16392500D01*
X10098214Y-16406786D01*
X10069643Y-16449643D01*
X10055357Y-16506786D01*
X10055357Y-16621071D01*
X10069643Y-16649643D01*
X10083928Y-16663929D01*
X10112500Y-16678214D01*
X10169643Y-16678214D01*
X10198214Y-16663929D01*
X10212500Y-16649643D01*
X10226786Y-16621071D01*
X10226786Y-16549643D01*
X10212500Y-16521071D01*
X10198214Y-16506786D01*
X10169643Y-16492500D01*
X10112500Y-16492500D01*
X10083928Y-16506786D01*
X10069643Y-16521071D01*
X10055357Y-16549643D01*
X10326786Y-16378214D02*
X10512500Y-16378214D01*
X10412500Y-16492500D01*
X10455357Y-16492500D01*
X10483928Y-16506786D01*
X10498214Y-16521071D01*
X10512500Y-16549643D01*
X10512500Y-16621071D01*
X10498214Y-16649643D01*
X10483928Y-16663929D01*
X10455357Y-16678214D01*
X10369643Y-16678214D01*
X10341071Y-16663929D01*
X10326786Y-16649643D01*
X10626786Y-16378214D02*
X10626786Y-16435357D01*
X10741071Y-16378214D02*
X10741071Y-16435357D01*
X11183928Y-16792500D02*
X11169643Y-16778214D01*
X11141071Y-16735357D01*
X11126786Y-16706786D01*
X11112500Y-16663929D01*
X11098214Y-16592500D01*
X11098214Y-16535357D01*
X11112500Y-16463929D01*
X11126786Y-16421071D01*
X11141071Y-16392500D01*
X11169643Y-16349643D01*
X11183928Y-16335357D01*
X11283928Y-16406786D02*
X11298214Y-16392500D01*
X11326786Y-16378214D01*
X11398214Y-16378214D01*
X11426786Y-16392500D01*
X11441071Y-16406786D01*
X11455357Y-16435357D01*
X11455357Y-16463929D01*
X11441071Y-16506786D01*
X11269643Y-16678214D01*
X11455357Y-16678214D01*
X11712500Y-16478214D02*
X11712500Y-16678214D01*
X11641071Y-16363929D02*
X11569643Y-16578214D01*
X11755357Y-16578214D01*
X12098214Y-16678214D02*
X12098214Y-16378214D01*
X12226786Y-16678214D02*
X12226786Y-16521071D01*
X12212500Y-16492500D01*
X12183928Y-16478214D01*
X12141071Y-16478214D01*
X12112500Y-16492500D01*
X12098214Y-16506786D01*
X12412500Y-16678214D02*
X12383928Y-16663929D01*
X12369643Y-16649643D01*
X12355357Y-16621071D01*
X12355357Y-16535357D01*
X12369643Y-16506786D01*
X12383928Y-16492500D01*
X12412500Y-16478214D01*
X12455357Y-16478214D01*
X12483928Y-16492500D01*
X12498214Y-16506786D01*
X12512500Y-16535357D01*
X12512500Y-16621071D01*
X12498214Y-16649643D01*
X12483928Y-16663929D01*
X12455357Y-16678214D01*
X12412500Y-16678214D01*
X12683928Y-16678214D02*
X12655357Y-16663929D01*
X12641071Y-16635357D01*
X12641071Y-16378214D01*
X12912500Y-16663929D02*
X12883928Y-16678214D01*
X12826786Y-16678214D01*
X12798214Y-16663929D01*
X12783928Y-16635357D01*
X12783928Y-16521071D01*
X12798214Y-16492500D01*
X12826786Y-16478214D01*
X12883928Y-16478214D01*
X12912500Y-16492500D01*
X12926786Y-16521071D01*
X12926786Y-16549643D01*
X12783928Y-16578214D01*
X13041071Y-16663929D02*
X13069643Y-16678214D01*
X13126786Y-16678214D01*
X13155357Y-16663929D01*
X13169643Y-16635357D01*
X13169643Y-16621071D01*
X13155357Y-16592500D01*
X13126786Y-16578214D01*
X13083928Y-16578214D01*
X13055357Y-16563929D01*
X13041071Y-16535357D01*
X13041071Y-16521071D01*
X13055357Y-16492500D01*
X13083928Y-16478214D01*
X13126786Y-16478214D01*
X13155357Y-16492500D01*
X13269643Y-16792500D02*
X13283928Y-16778214D01*
X13312500Y-16735357D01*
X13326786Y-16706786D01*
X13341071Y-16663929D01*
X13355357Y-16592500D01*
X13355357Y-16535357D01*
X13341071Y-16463929D01*
X13326786Y-16421071D01*
X13312500Y-16392500D01*
X13283928Y-16349643D01*
X13269643Y-16335357D01*
X6137500Y-16758500D02*
X6497500Y-17118500D01*
X6497500Y-16758500D02*
X6137500Y-17118500D01*
X6317500Y-16758500D02*
X6317500Y-17118500D01*
X6137500Y-16938500D02*
X6497500Y-16938500D01*
X6755357Y-16774214D02*
X6941071Y-16774214D01*
X6841071Y-16888500D01*
X6883928Y-16888500D01*
X6912500Y-16902786D01*
X6926786Y-16917072D01*
X6941071Y-16945643D01*
X6941071Y-17017072D01*
X6926786Y-17045643D01*
X6912500Y-17059929D01*
X6883928Y-17074214D01*
X6798214Y-17074214D01*
X6769643Y-17059929D01*
X6755357Y-17045643D01*
X7069643Y-17045643D02*
X7083928Y-17059929D01*
X7069643Y-17074214D01*
X7055357Y-17059929D01*
X7069643Y-17045643D01*
X7069643Y-17074214D01*
X7341071Y-16774214D02*
X7283928Y-16774214D01*
X7255357Y-16788500D01*
X7241071Y-16802786D01*
X7212500Y-16845643D01*
X7198214Y-16902786D01*
X7198214Y-17017072D01*
X7212500Y-17045643D01*
X7226786Y-17059929D01*
X7255357Y-17074214D01*
X7312500Y-17074214D01*
X7341071Y-17059929D01*
X7355357Y-17045643D01*
X7369643Y-17017072D01*
X7369643Y-16945643D01*
X7355357Y-16917072D01*
X7341071Y-16902786D01*
X7312500Y-16888500D01*
X7255357Y-16888500D01*
X7226786Y-16902786D01*
X7212500Y-16917072D01*
X7198214Y-16945643D01*
X7555357Y-16774214D02*
X7583928Y-16774214D01*
X7612500Y-16788500D01*
X7626786Y-16802786D01*
X7641071Y-16831357D01*
X7655357Y-16888500D01*
X7655357Y-16959929D01*
X7641071Y-17017072D01*
X7626786Y-17045643D01*
X7612500Y-17059929D01*
X7583928Y-17074214D01*
X7555357Y-17074214D01*
X7526786Y-17059929D01*
X7512500Y-17045643D01*
X7498214Y-17017072D01*
X7483928Y-16959929D01*
X7483928Y-16888500D01*
X7498214Y-16831357D01*
X7512500Y-16802786D01*
X7526786Y-16788500D01*
X7555357Y-16774214D01*
X7783928Y-17074214D02*
X7783928Y-16874214D01*
X7783928Y-16902786D02*
X7798214Y-16888500D01*
X7826786Y-16874214D01*
X7869643Y-16874214D01*
X7898214Y-16888500D01*
X7912500Y-16917072D01*
X7912500Y-17074214D01*
X7912500Y-16917072D02*
X7926786Y-16888500D01*
X7955357Y-16874214D01*
X7998214Y-16874214D01*
X8026786Y-16888500D01*
X8041071Y-16917072D01*
X8041071Y-17074214D01*
X8183928Y-17074214D02*
X8183928Y-16874214D01*
X8183928Y-16902786D02*
X8198214Y-16888500D01*
X8226786Y-16874214D01*
X8269643Y-16874214D01*
X8298214Y-16888500D01*
X8312500Y-16917072D01*
X8312500Y-17074214D01*
X8312500Y-16917072D02*
X8326786Y-16888500D01*
X8355357Y-16874214D01*
X8398214Y-16874214D01*
X8426786Y-16888500D01*
X8441071Y-16917072D01*
X8441071Y-17074214D01*
X9026786Y-16759929D02*
X8769643Y-17145643D01*
X9412500Y-16774214D02*
X9441071Y-16774214D01*
X9469643Y-16788500D01*
X9483928Y-16802786D01*
X9498214Y-16831357D01*
X9512500Y-16888500D01*
X9512500Y-16959929D01*
X9498214Y-17017072D01*
X9483928Y-17045643D01*
X9469643Y-17059929D01*
X9441071Y-17074214D01*
X9412500Y-17074214D01*
X9383928Y-17059929D01*
X9369643Y-17045643D01*
X9355357Y-17017072D01*
X9341071Y-16959929D01*
X9341071Y-16888500D01*
X9355357Y-16831357D01*
X9369643Y-16802786D01*
X9383928Y-16788500D01*
X9412500Y-16774214D01*
X9641071Y-17045643D02*
X9655357Y-17059929D01*
X9641071Y-17074214D01*
X9626786Y-17059929D01*
X9641071Y-17045643D01*
X9641071Y-17074214D01*
X9941071Y-17074214D02*
X9769643Y-17074214D01*
X9855357Y-17074214D02*
X9855357Y-16774214D01*
X9826786Y-16817072D01*
X9798214Y-16845643D01*
X9769643Y-16859929D01*
X10198214Y-16874214D02*
X10198214Y-17074214D01*
X10126786Y-16759929D02*
X10055357Y-16974214D01*
X10241071Y-16974214D01*
X10341071Y-16802786D02*
X10355357Y-16788500D01*
X10383928Y-16774214D01*
X10455357Y-16774214D01*
X10483928Y-16788500D01*
X10498214Y-16802786D01*
X10512500Y-16831357D01*
X10512500Y-16859929D01*
X10498214Y-16902786D01*
X10326786Y-17074214D01*
X10512500Y-17074214D01*
X10626786Y-16774214D02*
X10626786Y-16831357D01*
X10741071Y-16774214D02*
X10741071Y-16831357D01*
X11183928Y-17188500D02*
X11169643Y-17174214D01*
X11141071Y-17131357D01*
X11126786Y-17102786D01*
X11112500Y-17059929D01*
X11098214Y-16988500D01*
X11098214Y-16931357D01*
X11112500Y-16859929D01*
X11126786Y-16817072D01*
X11141071Y-16788500D01*
X11169643Y-16745643D01*
X11183928Y-16731357D01*
X11426786Y-16774214D02*
X11369643Y-16774214D01*
X11341071Y-16788500D01*
X11326786Y-16802786D01*
X11298214Y-16845643D01*
X11283928Y-16902786D01*
X11283928Y-17017072D01*
X11298214Y-17045643D01*
X11312500Y-17059929D01*
X11341071Y-17074214D01*
X11398214Y-17074214D01*
X11426786Y-17059929D01*
X11441071Y-17045643D01*
X11455357Y-17017072D01*
X11455357Y-16945643D01*
X11441071Y-16917072D01*
X11426786Y-16902786D01*
X11398214Y-16888500D01*
X11341071Y-16888500D01*
X11312500Y-16902786D01*
X11298214Y-16917072D01*
X11283928Y-16945643D01*
X11812500Y-17074214D02*
X11812500Y-16774214D01*
X11941071Y-17074214D02*
X11941071Y-16917072D01*
X11926786Y-16888500D01*
X11898214Y-16874214D01*
X11855357Y-16874214D01*
X11826786Y-16888500D01*
X11812500Y-16902786D01*
X12126786Y-17074214D02*
X12098214Y-17059929D01*
X12083928Y-17045643D01*
X12069643Y-17017072D01*
X12069643Y-16931357D01*
X12083928Y-16902786D01*
X12098214Y-16888500D01*
X12126786Y-16874214D01*
X12169643Y-16874214D01*
X12198214Y-16888500D01*
X12212500Y-16902786D01*
X12226786Y-16931357D01*
X12226786Y-17017072D01*
X12212500Y-17045643D01*
X12198214Y-17059929D01*
X12169643Y-17074214D01*
X12126786Y-17074214D01*
X12398214Y-17074214D02*
X12369643Y-17059929D01*
X12355357Y-17031357D01*
X12355357Y-16774214D01*
X12626786Y-17059929D02*
X12598214Y-17074214D01*
X12541071Y-17074214D01*
X12512500Y-17059929D01*
X12498214Y-17031357D01*
X12498214Y-16917072D01*
X12512500Y-16888500D01*
X12541071Y-16874214D01*
X12598214Y-16874214D01*
X12626786Y-16888500D01*
X12641071Y-16917072D01*
X12641071Y-16945643D01*
X12498214Y-16974214D01*
X12755357Y-17059929D02*
X12783928Y-17074214D01*
X12841071Y-17074214D01*
X12869643Y-17059929D01*
X12883928Y-17031357D01*
X12883928Y-17017072D01*
X12869643Y-16988500D01*
X12841071Y-16974214D01*
X12798214Y-16974214D01*
X12769643Y-16959929D01*
X12755357Y-16931357D01*
X12755357Y-16917072D01*
X12769643Y-16888500D01*
X12798214Y-16874214D01*
X12841071Y-16874214D01*
X12869643Y-16888500D01*
X12983928Y-17188500D02*
X12998214Y-17174214D01*
X13026786Y-17131357D01*
X13041071Y-17102786D01*
X13055357Y-17059929D01*
X13069643Y-16988500D01*
X13069643Y-16931357D01*
X13055357Y-16859929D01*
X13041071Y-16817072D01*
X13026786Y-16788500D01*
X12998214Y-16745643D01*
X12983928Y-16731357D01*
M02*
