G04 #@! TF.GenerationSoftware,KiCad,Pcbnew,(5.1.4)-1*
G04 #@! TF.CreationDate,2021-06-03T21:11:03-04:00*
G04 #@! TF.ProjectId,shunt_current_control_v2,7368756e-745f-4637-9572-72656e745f63,rev?*
G04 #@! TF.SameCoordinates,Original*
G04 #@! TF.FileFunction,Copper,L2,Inr*
G04 #@! TF.FilePolarity,Positive*
%FSLAX46Y46*%
G04 Gerber Fmt 4.6, Leading zero omitted, Abs format (unit mm)*
G04 Created by KiCad (PCBNEW (5.1.4)-1) date 2021-06-03 21:11:03*
%MOMM*%
%LPD*%
G04 APERTURE LIST*
%ADD10C,1.600000*%
%ADD11R,1.600000X1.600000*%
%ADD12C,3.000000*%
%ADD13R,3.000000X3.000000*%
%ADD14O,1.800000X1.800000*%
%ADD15R,1.800000X1.800000*%
%ADD16O,2.500000X4.500000*%
%ADD17R,2.500000X4.500000*%
%ADD18C,2.300000*%
%ADD19C,4.000000*%
%ADD20C,0.800000*%
%ADD21C,0.250000*%
G04 APERTURE END LIST*
D10*
X102750000Y-116500000D03*
X102750000Y-113000000D03*
X90500000Y-72300000D03*
D11*
X90500000Y-68500000D03*
D12*
X70000000Y-110160000D03*
X70000000Y-105080000D03*
D13*
X70000000Y-100000000D03*
D14*
X100420000Y-77500000D03*
X102960000Y-77500000D03*
D15*
X105500000Y-77500000D03*
D16*
X125880000Y-59610000D03*
X120430000Y-59610000D03*
D17*
X114980000Y-59610000D03*
D16*
X104400000Y-59500000D03*
X98950000Y-59500000D03*
D17*
X93500000Y-59500000D03*
D18*
X145080000Y-79420000D03*
X145080000Y-81960000D03*
X145080000Y-84500000D03*
X140000000Y-84500000D03*
X140000000Y-81960000D03*
X140000000Y-79420000D03*
X145080000Y-64500000D03*
X145080000Y-67040000D03*
X145080000Y-69580000D03*
X140000000Y-69580000D03*
X140000000Y-67040000D03*
X140000000Y-64500000D03*
X80080000Y-79500000D03*
X80080000Y-82040000D03*
X80080000Y-84580000D03*
X75000000Y-84580000D03*
X75000000Y-82040000D03*
X75000000Y-79500000D03*
X80080000Y-64420000D03*
X80080000Y-66960000D03*
X80080000Y-69500000D03*
X75000000Y-69500000D03*
X75000000Y-66960000D03*
X75000000Y-64420000D03*
D19*
X158000000Y-131500000D03*
X69500000Y-131500000D03*
X69500000Y-59000000D03*
X158000000Y-59000000D03*
X158000000Y-97500000D03*
D20*
X115500000Y-123500000D03*
X110200000Y-112000000D03*
X103500000Y-102600000D03*
X161000000Y-61000000D03*
X106000000Y-80000000D03*
X106000000Y-82000000D03*
X106000000Y-84000000D03*
X106000000Y-86000000D03*
X106000000Y-88000000D03*
X106000000Y-90000000D03*
X106000000Y-92000000D03*
X109250000Y-77250000D03*
X109500000Y-80000000D03*
X109500000Y-82000000D03*
X109500000Y-84000000D03*
X109500000Y-86000000D03*
X109500000Y-88000000D03*
X109500000Y-90000000D03*
X95000000Y-82000000D03*
X95000000Y-84000000D03*
X95000000Y-86000000D03*
X95000000Y-88000000D03*
X95000000Y-90000000D03*
X113000000Y-76000000D03*
X113000000Y-78000000D03*
X113000000Y-80000000D03*
X113000000Y-82000000D03*
X113000000Y-84000000D03*
X113000000Y-86000000D03*
X113000000Y-88000000D03*
X113000000Y-90000000D03*
X113000000Y-92000000D03*
X112000000Y-74500000D03*
X107250000Y-73500000D03*
X106000000Y-75000000D03*
X107750000Y-75750000D03*
X119500000Y-74000000D03*
X119500000Y-76000000D03*
X119500000Y-78000000D03*
X119500000Y-80000000D03*
X119500000Y-82000000D03*
X119500000Y-84000000D03*
X119500000Y-86000000D03*
X119500000Y-88000000D03*
X119500000Y-90000000D03*
X119500000Y-92000000D03*
X105500000Y-103000000D03*
X109750000Y-102000000D03*
X105000000Y-99250000D03*
X86250000Y-104250000D03*
X86250000Y-105250000D03*
X86250000Y-106250000D03*
X85500000Y-102750000D03*
X77500000Y-99500000D03*
X76800000Y-92800000D03*
X77500000Y-101000000D03*
X77500000Y-102750000D03*
X78750000Y-102000000D03*
X78750000Y-104000000D03*
X80600000Y-92750000D03*
X85500000Y-100250000D03*
X85600000Y-101400000D03*
X80750000Y-129250000D03*
X134250000Y-113750000D03*
X132400000Y-111600000D03*
X131000000Y-117400000D03*
X132200000Y-116600000D03*
X102200000Y-121400000D03*
X100000000Y-121250000D03*
X106500000Y-124250000D03*
X112400000Y-118600000D03*
X109600000Y-120200000D03*
X107200000Y-118000000D03*
X115400000Y-119400000D03*
X116200000Y-116000000D03*
X109800000Y-111200000D03*
X123000000Y-115200000D03*
X118000000Y-112500000D03*
X118500000Y-110500000D03*
X122800000Y-116800000D03*
X120600000Y-120000000D03*
X112200000Y-133600000D03*
X133000000Y-134000000D03*
X130400000Y-134000000D03*
X107400000Y-134000000D03*
X85400000Y-92800000D03*
X86400000Y-92800000D03*
X87400000Y-92800000D03*
X88400000Y-92800000D03*
X89400000Y-92800000D03*
X90400000Y-92800000D03*
X91400000Y-92800000D03*
X92400000Y-92800000D03*
X93600000Y-92800000D03*
X94800000Y-92800000D03*
X84200000Y-92600000D03*
X82374774Y-92825226D03*
X79200000Y-92800000D03*
X78000000Y-92800000D03*
X90000000Y-97200000D03*
X101800000Y-98400000D03*
X98400000Y-104600000D03*
X98400000Y-103200000D03*
X99000000Y-99000000D03*
X100500000Y-99000000D03*
X95800000Y-93400000D03*
X111800000Y-95000000D03*
X108400000Y-96400000D03*
X112000000Y-96500000D03*
X115000000Y-95500000D03*
X100400000Y-103200000D03*
X100400000Y-104600000D03*
X93800000Y-107600000D03*
X95800000Y-107600000D03*
X97800000Y-107600000D03*
X82400000Y-108200000D03*
X82400000Y-109600000D03*
X82400000Y-111000000D03*
X82400000Y-112400000D03*
X84000000Y-113000000D03*
X85400000Y-113000000D03*
X86800000Y-113000000D03*
X88200000Y-112000000D03*
X88200000Y-110400000D03*
X88200000Y-108800000D03*
X89800000Y-108600000D03*
X94400000Y-109200000D03*
X90600000Y-112600000D03*
X81000000Y-107600000D03*
X79600000Y-107400000D03*
X78800000Y-105800000D03*
X85400000Y-97200000D03*
X94600000Y-97200000D03*
X87600000Y-97200000D03*
X92200000Y-97200000D03*
X80600000Y-114600000D03*
X80000000Y-116400000D03*
X79800000Y-118600000D03*
X79200000Y-120000000D03*
X80600000Y-120600000D03*
X82600000Y-120600000D03*
X84600000Y-120600000D03*
X86400000Y-120600000D03*
X88000000Y-125400000D03*
X88000000Y-126800000D03*
X88000000Y-128200000D03*
X88000000Y-129800000D03*
X88000000Y-131600000D03*
X86600000Y-132600000D03*
X84600000Y-132600000D03*
X83000000Y-132600000D03*
X81200000Y-132600000D03*
X79200000Y-132600000D03*
X77400000Y-132600000D03*
X75600000Y-132600000D03*
X73600000Y-132600000D03*
X91600000Y-117400000D03*
X92400000Y-118400000D03*
X90600000Y-118600000D03*
X90600000Y-120000000D03*
X90600000Y-121600000D03*
X90800000Y-127200000D03*
X90400000Y-128200000D03*
X90400000Y-129200000D03*
X90400000Y-130200000D03*
X90400000Y-131200000D03*
X90400000Y-132200000D03*
X90400000Y-133200000D03*
X90400000Y-134200000D03*
X90400000Y-135200000D03*
X94000000Y-127200000D03*
X90600000Y-125000000D03*
X90600000Y-126000000D03*
X93200000Y-126000000D03*
X95000000Y-127200000D03*
X96000000Y-127200000D03*
X97000000Y-127200000D03*
X98000000Y-127200000D03*
X99000000Y-127200000D03*
X100000000Y-127200000D03*
X101000000Y-127200000D03*
X102000000Y-127200000D03*
X103000000Y-127200000D03*
X104000000Y-127200000D03*
X105000000Y-127200000D03*
X106000000Y-127200000D03*
X107000000Y-127200000D03*
X108000000Y-127200000D03*
X109000000Y-127200000D03*
X110000000Y-127200000D03*
X111000000Y-127200000D03*
X112000000Y-127200000D03*
X113000000Y-127200000D03*
X114000000Y-127200000D03*
X115000000Y-127200000D03*
X116000000Y-127200000D03*
X117000000Y-127200000D03*
X118000000Y-127200000D03*
X119000000Y-127200000D03*
X120000000Y-127200000D03*
X121000000Y-127200000D03*
X122000000Y-127200000D03*
X123000000Y-127200000D03*
X127000000Y-127200000D03*
X128000000Y-127200000D03*
X129000000Y-127200000D03*
X130000000Y-127200000D03*
X131000000Y-127200000D03*
X132000000Y-127200000D03*
X125800000Y-126600000D03*
X125200000Y-125800000D03*
X124600000Y-124800000D03*
X121400000Y-124800000D03*
X121400000Y-126000000D03*
X123200000Y-120200000D03*
X124600000Y-120200000D03*
X125800000Y-120200000D03*
X133200000Y-127200000D03*
X134400000Y-127200000D03*
X135200000Y-128000000D03*
X136000000Y-129000000D03*
X136000000Y-132000000D03*
X136000000Y-133000000D03*
X136000000Y-134000000D03*
X136000000Y-135000000D03*
X137000000Y-129000000D03*
X138000000Y-129000000D03*
X139000000Y-129000000D03*
X140000000Y-129000000D03*
X141000000Y-129000000D03*
X142000000Y-129000000D03*
X143000000Y-129000000D03*
X144000000Y-129000000D03*
X145000000Y-129000000D03*
X146000000Y-129000000D03*
X147000000Y-129000000D03*
X148000000Y-129000000D03*
X149000000Y-129000000D03*
X150000000Y-129000000D03*
X151000000Y-129000000D03*
X152000000Y-128500000D03*
X137000000Y-135000000D03*
X138000000Y-135000000D03*
X139000000Y-135000000D03*
X140000000Y-135000000D03*
X141000000Y-135000000D03*
X142000000Y-135000000D03*
X143000000Y-135000000D03*
X144000000Y-135000000D03*
X145000000Y-135000000D03*
X146000000Y-135000000D03*
X147000000Y-135000000D03*
X148000000Y-135000000D03*
X149000000Y-135000000D03*
X150000000Y-135000000D03*
X151000000Y-135000000D03*
X152000000Y-135000000D03*
X153000000Y-135000000D03*
X154000000Y-135000000D03*
X155000000Y-135000000D03*
X66000000Y-135000000D03*
X67000000Y-135000000D03*
X68000000Y-135000000D03*
X69000000Y-135000000D03*
X70000000Y-135000000D03*
X71000000Y-135000000D03*
X72000000Y-135000000D03*
X73000000Y-135000000D03*
X74000000Y-135000000D03*
X75000000Y-135000000D03*
X76000000Y-135000000D03*
X77000000Y-135000000D03*
X78000000Y-135000000D03*
X79000000Y-135000000D03*
X80000000Y-135000000D03*
X81000000Y-135000000D03*
X82000000Y-135000000D03*
X83000000Y-135000000D03*
X84000000Y-135000000D03*
X85000000Y-135000000D03*
X86000000Y-135000000D03*
X87000000Y-135000000D03*
X88000000Y-135000000D03*
X89000000Y-135000000D03*
X131500000Y-118500000D03*
X134500000Y-115000000D03*
X134500000Y-116000000D03*
X137000000Y-112000000D03*
X137000000Y-113500000D03*
X141000000Y-113000000D03*
X143500000Y-115000000D03*
X143500000Y-117500000D03*
X141500000Y-117500000D03*
X141500000Y-120000000D03*
X136500000Y-119000000D03*
X130500000Y-121500000D03*
X132000000Y-122000000D03*
X133000000Y-123500000D03*
X134000000Y-124500000D03*
X139000000Y-127000000D03*
X141000000Y-127000000D03*
X143000000Y-127000000D03*
X145000000Y-127000000D03*
X147000000Y-127000000D03*
X147000000Y-117500000D03*
X148000000Y-117500000D03*
X149000000Y-117500000D03*
X150000000Y-117500000D03*
X151000000Y-117500000D03*
X152000000Y-117500000D03*
X152000000Y-116000000D03*
X152000000Y-114500000D03*
X152000000Y-113000000D03*
X152000000Y-111500000D03*
X152000000Y-110000000D03*
X153500000Y-117500000D03*
X155000000Y-117500000D03*
X155500000Y-119000000D03*
X155500000Y-120500000D03*
X155500000Y-122000000D03*
X155500000Y-123500000D03*
X155500000Y-125000000D03*
X154500000Y-126500000D03*
X153500000Y-127500000D03*
X149000000Y-127000000D03*
X150500000Y-127000000D03*
X152000000Y-127500000D03*
X147000000Y-115000000D03*
X117000000Y-97000000D03*
X131000000Y-102500000D03*
X132500000Y-102500000D03*
X134000000Y-102500000D03*
X135500000Y-103000000D03*
X130500000Y-105000000D03*
X132000000Y-105000000D03*
X133500000Y-105000000D03*
X129000000Y-97000000D03*
X118000000Y-97000000D03*
X119000000Y-97000000D03*
X120000000Y-97000000D03*
X121000000Y-97000000D03*
X122000000Y-97000000D03*
X123000000Y-97000000D03*
X124000000Y-97000000D03*
X128000000Y-97000000D03*
X129000000Y-97000000D03*
X130000000Y-97000000D03*
X131000000Y-97000000D03*
X132000000Y-97000000D03*
X133000000Y-97000000D03*
X134000000Y-96500000D03*
X135000000Y-95500000D03*
X136000000Y-94500000D03*
X137000000Y-94000000D03*
X138000000Y-94000000D03*
X139000000Y-94000000D03*
X140000000Y-94000000D03*
X141000000Y-94000000D03*
X142000000Y-94000000D03*
X143000000Y-94000000D03*
X144000000Y-94000000D03*
X145000000Y-94000000D03*
X146000000Y-94000000D03*
X147000000Y-94000000D03*
X148000000Y-94000000D03*
X149000000Y-94000000D03*
X150000000Y-94000000D03*
X151000000Y-94000000D03*
X152000000Y-94000000D03*
X153000000Y-94000000D03*
X154000000Y-94000000D03*
X155000000Y-94000000D03*
X156000000Y-94000000D03*
X157000000Y-94000000D03*
X158000000Y-94000000D03*
X159000000Y-94000000D03*
X160000000Y-94000000D03*
X161000000Y-94000000D03*
X116000000Y-96500000D03*
X114000000Y-95000000D03*
X113000000Y-95000000D03*
X113500000Y-96500000D03*
X114500000Y-97500000D03*
X116000000Y-98000000D03*
X123500000Y-104500000D03*
X126000000Y-104500000D03*
X120500000Y-99500000D03*
X120500000Y-101000000D03*
X120500000Y-103000000D03*
X120500000Y-105000000D03*
X128000000Y-108500000D03*
X123500000Y-106500000D03*
X131000000Y-108500000D03*
X129500000Y-108500000D03*
X120500000Y-107000000D03*
X119500000Y-109000000D03*
X117500000Y-109000000D03*
X113000000Y-110500000D03*
X113000000Y-111500000D03*
X115000000Y-107500000D03*
X117000000Y-107500000D03*
X118500000Y-105000000D03*
X118500000Y-103000000D03*
X118500000Y-101000000D03*
X114250000Y-104250000D03*
X113000000Y-100500000D03*
X115000000Y-100500000D03*
X117000000Y-100500000D03*
X113500000Y-105500000D03*
X113500000Y-99000000D03*
X102000000Y-106000000D03*
X103500000Y-108000000D03*
X105000000Y-109500000D03*
X108750000Y-107250000D03*
X110000000Y-109000000D03*
X104750000Y-113500000D03*
X104750000Y-115750000D03*
X100000000Y-116000000D03*
X100000000Y-113500000D03*
X101250000Y-110000000D03*
X103500000Y-110000000D03*
X105000000Y-118750000D03*
X112000000Y-123000000D03*
X108500000Y-124250000D03*
X110500000Y-124250000D03*
X113500000Y-124750000D03*
X115500000Y-125500000D03*
X116750000Y-125750000D03*
X113500000Y-123000000D03*
X134750000Y-120750000D03*
X136250000Y-122000000D03*
X152250000Y-107000000D03*
X147500000Y-103250000D03*
X151250000Y-99500000D03*
X151250000Y-101250000D03*
X137250000Y-95750000D03*
X151250000Y-97750000D03*
X150250000Y-96500000D03*
X148750000Y-95250000D03*
X133750000Y-98250000D03*
X133750000Y-99500000D03*
X153000000Y-102250000D03*
X154000000Y-104000000D03*
X156500000Y-111500000D03*
X156500000Y-113000000D03*
X157250000Y-114250000D03*
X153750000Y-115750000D03*
X158250000Y-115250000D03*
X158750000Y-116250000D03*
X159250000Y-117750000D03*
X159250000Y-119750000D03*
X159250000Y-121750000D03*
X159250000Y-123750000D03*
X159250000Y-125750000D03*
X158750000Y-127250000D03*
X157500000Y-128000000D03*
X155250000Y-130000000D03*
X138000000Y-132000000D03*
X140000000Y-132000000D03*
X142000000Y-132000000D03*
X144000000Y-132000000D03*
X146000000Y-132000000D03*
X148000000Y-132000000D03*
X150000000Y-132000000D03*
X152000000Y-132000000D03*
X154000000Y-132000000D03*
X161500000Y-95000000D03*
X161500000Y-96000000D03*
X161500000Y-97000000D03*
X161500000Y-98000000D03*
X161500000Y-99000000D03*
X161500000Y-100000000D03*
X161500000Y-101000000D03*
X161500000Y-102000000D03*
X161500000Y-103000000D03*
X161500000Y-104000000D03*
X161500000Y-105000000D03*
X161500000Y-106000000D03*
X161500000Y-107000000D03*
X161500000Y-108000000D03*
X161500000Y-109000000D03*
X161500000Y-110000000D03*
X161500000Y-111000000D03*
X161500000Y-112000000D03*
X161500000Y-113000000D03*
X161500000Y-114000000D03*
X161500000Y-115000000D03*
X161500000Y-116000000D03*
X161500000Y-117000000D03*
X161500000Y-118000000D03*
X161500000Y-119000000D03*
X161500000Y-120000000D03*
X161500000Y-121000000D03*
X161500000Y-122000000D03*
X161500000Y-123000000D03*
X161500000Y-124000000D03*
X161500000Y-125000000D03*
X161500000Y-126000000D03*
X161500000Y-127000000D03*
X161500000Y-128000000D03*
X161500000Y-129000000D03*
X161500000Y-130000000D03*
X161500000Y-131000000D03*
X161500000Y-132000000D03*
X161500000Y-133000000D03*
X161500000Y-134000000D03*
X161500000Y-135000000D03*
X156000000Y-135000000D03*
X157000000Y-135000000D03*
X158000000Y-135000000D03*
X159000000Y-135000000D03*
X160000000Y-135000000D03*
X66000000Y-124000000D03*
X66000000Y-125000000D03*
X66000000Y-126000000D03*
X66000000Y-127000000D03*
X66000000Y-128000000D03*
X66000000Y-129000000D03*
X66000000Y-130000000D03*
X66000000Y-131000000D03*
X66000000Y-132000000D03*
X66000000Y-133000000D03*
X66000000Y-134000000D03*
X66750000Y-92500000D03*
X66000000Y-93500000D03*
X66000000Y-94500000D03*
X66000000Y-95500000D03*
X66000000Y-96500000D03*
X66750000Y-97250000D03*
X66750000Y-103250000D03*
X66000000Y-104000000D03*
X66000000Y-105000000D03*
X66000000Y-106000000D03*
X66750000Y-106750000D03*
X72250000Y-119750000D03*
X72250000Y-121000000D03*
X72250000Y-122250000D03*
X72250000Y-123500000D03*
X71500000Y-124250000D03*
X70250000Y-124250000D03*
X69000000Y-124250000D03*
X67750000Y-124250000D03*
X74000000Y-112000000D03*
X74000000Y-111000000D03*
X74000000Y-110000000D03*
X74000000Y-109000000D03*
X74000000Y-108000000D03*
X74000000Y-107000000D03*
X73000000Y-106500000D03*
X73500000Y-102750000D03*
X73000000Y-103750000D03*
X73000000Y-105000000D03*
X77250000Y-112500000D03*
X75500000Y-112500000D03*
X79000000Y-112750000D03*
X79750000Y-113500000D03*
X75500000Y-105500000D03*
X76500000Y-107000000D03*
X77250000Y-105500000D03*
X78000000Y-107750000D03*
X80500000Y-109500000D03*
X80500000Y-111250000D03*
X85250000Y-115250000D03*
X85250000Y-117500000D03*
X85250000Y-119250000D03*
X83000000Y-115000000D03*
X88250000Y-114500000D03*
X100000000Y-108500000D03*
X96250000Y-112000000D03*
X95250000Y-110750000D03*
X98500000Y-106250000D03*
X67750000Y-92500000D03*
X68750000Y-92500000D03*
X69750000Y-92500000D03*
X70750000Y-92500000D03*
X71750000Y-92500000D03*
X72750000Y-92500000D03*
X73750000Y-92500000D03*
X74750000Y-92500000D03*
X75750000Y-92500000D03*
X97500000Y-91500000D03*
X110000000Y-93500000D03*
X161000000Y-63000000D03*
X161000000Y-65000000D03*
X161000000Y-67000000D03*
X161000000Y-69000000D03*
X161000000Y-71000000D03*
X161000000Y-73000000D03*
X161000000Y-75000000D03*
X161000000Y-77000000D03*
X161000000Y-79000000D03*
X161000000Y-81000000D03*
X161000000Y-83000000D03*
X161000000Y-85000000D03*
X161000000Y-87000000D03*
X161000000Y-89000000D03*
X161000000Y-91000000D03*
X158750000Y-63000000D03*
X156000000Y-63750000D03*
X156000000Y-65750000D03*
X156000000Y-67750000D03*
X156000000Y-69750000D03*
X156000000Y-71750000D03*
X156000000Y-73750000D03*
X156000000Y-75750000D03*
X156000000Y-77750000D03*
X156000000Y-79750000D03*
X156000000Y-81750000D03*
X156000000Y-83750000D03*
X156000000Y-85750000D03*
X156000000Y-87750000D03*
X156000000Y-89750000D03*
X67750000Y-128250000D03*
X156250000Y-104000000D03*
X157250000Y-108000000D03*
X72500000Y-130250000D03*
X69750000Y-128250000D03*
X148750000Y-97000000D03*
X146000000Y-97500000D03*
X143750000Y-95750000D03*
X142250000Y-96000000D03*
X142250000Y-98750000D03*
X137000000Y-105250000D03*
X148000000Y-100500000D03*
X141500000Y-103250000D03*
X144750000Y-103250000D03*
X146000000Y-103250000D03*
X139750000Y-96000000D03*
X98250000Y-110500000D03*
X154600000Y-112800000D03*
X112200000Y-129400000D03*
X134000000Y-129000000D03*
X137750000Y-102500000D03*
X66800000Y-37800000D03*
X68800000Y-37800000D03*
X70800000Y-37800000D03*
X72800000Y-37800000D03*
X74800000Y-37800000D03*
X76800000Y-37800000D03*
X78800000Y-37800000D03*
X80800000Y-37800000D03*
X82800000Y-37800000D03*
X84800000Y-37800000D03*
X86800000Y-37800000D03*
X88800000Y-37800000D03*
X90800000Y-37800000D03*
X92800000Y-37800000D03*
X94800000Y-37800000D03*
X96800000Y-37800000D03*
X100800000Y-37800000D03*
X102800000Y-37800000D03*
X104800000Y-37800000D03*
X106800000Y-37800000D03*
X108800000Y-37800000D03*
X110800000Y-37800000D03*
X112800000Y-37800000D03*
X114800000Y-37800000D03*
X116800000Y-37800000D03*
X118800000Y-37800000D03*
X120800000Y-37800000D03*
X122800000Y-37800000D03*
X124800000Y-37800000D03*
X126800000Y-37800000D03*
X128800000Y-37800000D03*
X130800000Y-37800000D03*
X132800000Y-37800000D03*
X134800000Y-37800000D03*
X136800000Y-37800000D03*
X138800000Y-37800000D03*
X140800000Y-37800000D03*
X142800000Y-37800000D03*
X144800000Y-37800000D03*
X146800000Y-37800000D03*
X148800000Y-37800000D03*
X150800000Y-37800000D03*
X152800000Y-37800000D03*
X154800000Y-37800000D03*
X156800000Y-37800000D03*
X158800000Y-37800000D03*
X160800000Y-37800000D03*
X66800000Y-39800000D03*
X68800000Y-39800000D03*
X70800000Y-39800000D03*
X72800000Y-39800000D03*
X74800000Y-39800000D03*
X76800000Y-39800000D03*
X78800000Y-39800000D03*
X80800000Y-39800000D03*
X82800000Y-39800000D03*
X84800000Y-39800000D03*
X86800000Y-39800000D03*
X88800000Y-39800000D03*
X90800000Y-39800000D03*
X92800000Y-39800000D03*
X94800000Y-39800000D03*
X102800000Y-39800000D03*
X104800000Y-39800000D03*
X106800000Y-39800000D03*
X108800000Y-39800000D03*
X110800000Y-39800000D03*
X112800000Y-39800000D03*
X114800000Y-39800000D03*
X116800000Y-39800000D03*
X124800000Y-39800000D03*
X126800000Y-39800000D03*
X128800000Y-39800000D03*
X130800000Y-39800000D03*
X132800000Y-39800000D03*
X134800000Y-39800000D03*
X136800000Y-39800000D03*
X138800000Y-39800000D03*
X140800000Y-39800000D03*
X142800000Y-39800000D03*
X144800000Y-39800000D03*
X146800000Y-39800000D03*
X148800000Y-39800000D03*
X150800000Y-39800000D03*
X152800000Y-39800000D03*
X154800000Y-39800000D03*
X156800000Y-39800000D03*
X158800000Y-39800000D03*
X160800000Y-39800000D03*
X66800000Y-41800000D03*
X68800000Y-41800000D03*
X70800000Y-41800000D03*
X72800000Y-41800000D03*
X74800000Y-41800000D03*
X76800000Y-41800000D03*
X78800000Y-41800000D03*
X80800000Y-41800000D03*
X82800000Y-41800000D03*
X84800000Y-41800000D03*
X86800000Y-41800000D03*
X88800000Y-41800000D03*
X90800000Y-41800000D03*
X92800000Y-41800000D03*
X94800000Y-41800000D03*
X102800000Y-41800000D03*
X104800000Y-41800000D03*
X106800000Y-41800000D03*
X108800000Y-41800000D03*
X110800000Y-41800000D03*
X112800000Y-41800000D03*
X114800000Y-41800000D03*
X116800000Y-41800000D03*
X124800000Y-41800000D03*
X126800000Y-41800000D03*
X128800000Y-41800000D03*
X130800000Y-41800000D03*
X132800000Y-41800000D03*
X134800000Y-41800000D03*
X136800000Y-41800000D03*
X138800000Y-41800000D03*
X140800000Y-41800000D03*
X142800000Y-41800000D03*
X144800000Y-41800000D03*
X146800000Y-41800000D03*
X148800000Y-41800000D03*
X150800000Y-41800000D03*
X152800000Y-41800000D03*
X154800000Y-41800000D03*
X156800000Y-41800000D03*
X158800000Y-41800000D03*
X160800000Y-41800000D03*
X66800000Y-43800000D03*
X68800000Y-43800000D03*
X70800000Y-43800000D03*
X72800000Y-43800000D03*
X74800000Y-43800000D03*
X76800000Y-43800000D03*
X78800000Y-43800000D03*
X80800000Y-43800000D03*
X82800000Y-43800000D03*
X84800000Y-43800000D03*
X86800000Y-43800000D03*
X88800000Y-43800000D03*
X90800000Y-43800000D03*
X92800000Y-43800000D03*
X94800000Y-43800000D03*
X96800000Y-43800000D03*
X98800000Y-43800000D03*
X100800000Y-43800000D03*
X102800000Y-43800000D03*
X104800000Y-43800000D03*
X106800000Y-43800000D03*
X108800000Y-43800000D03*
X110800000Y-43800000D03*
X112800000Y-43800000D03*
X114800000Y-43800000D03*
X116800000Y-43800000D03*
X118800000Y-43800000D03*
X120800000Y-43800000D03*
X122800000Y-43800000D03*
X124800000Y-43800000D03*
X126800000Y-43800000D03*
X128800000Y-43800000D03*
X130800000Y-43800000D03*
X132800000Y-43800000D03*
X134800000Y-43800000D03*
X136800000Y-43800000D03*
X138800000Y-43800000D03*
X140800000Y-43800000D03*
X142800000Y-43800000D03*
X144800000Y-43800000D03*
X146800000Y-43800000D03*
X148800000Y-43800000D03*
X150800000Y-43800000D03*
X152800000Y-43800000D03*
X154800000Y-43800000D03*
X156800000Y-43800000D03*
X158800000Y-43800000D03*
X160800000Y-43800000D03*
X66800000Y-45800000D03*
X68800000Y-45800000D03*
X70800000Y-45800000D03*
X72800000Y-45800000D03*
X74800000Y-45800000D03*
X76800000Y-45800000D03*
X78800000Y-45800000D03*
X80800000Y-45800000D03*
X82800000Y-45800000D03*
X84800000Y-45800000D03*
X86800000Y-45800000D03*
X88800000Y-45800000D03*
X90800000Y-45800000D03*
X92800000Y-45800000D03*
X94800000Y-45800000D03*
X96800000Y-45800000D03*
X98800000Y-45800000D03*
X100800000Y-45800000D03*
X102800000Y-45800000D03*
X104800000Y-45800000D03*
X106800000Y-45800000D03*
X108800000Y-45800000D03*
X110800000Y-45800000D03*
X112800000Y-45800000D03*
X114800000Y-45800000D03*
X116800000Y-45800000D03*
X118800000Y-45800000D03*
X120800000Y-45800000D03*
X122800000Y-45800000D03*
X124800000Y-45800000D03*
X126800000Y-45800000D03*
X128800000Y-45800000D03*
X130800000Y-45800000D03*
X132800000Y-45800000D03*
X134800000Y-45800000D03*
X136800000Y-45800000D03*
X138800000Y-45800000D03*
X140800000Y-45800000D03*
X142800000Y-45800000D03*
X144800000Y-45800000D03*
X146800000Y-45800000D03*
X148800000Y-45800000D03*
X150800000Y-45800000D03*
X152800000Y-45800000D03*
X154800000Y-45800000D03*
X156800000Y-45800000D03*
X158800000Y-45800000D03*
X160800000Y-45800000D03*
X66800000Y-47800000D03*
X68800000Y-47800000D03*
X70800000Y-47800000D03*
X72800000Y-47800000D03*
X74800000Y-47800000D03*
X76800000Y-47800000D03*
X78800000Y-47800000D03*
X80800000Y-47800000D03*
X82800000Y-47800000D03*
X84800000Y-47800000D03*
X86800000Y-47800000D03*
X88800000Y-47800000D03*
X90800000Y-47800000D03*
X92800000Y-47800000D03*
X94800000Y-47800000D03*
X96800000Y-47800000D03*
X98800000Y-47800000D03*
X100800000Y-47800000D03*
X102800000Y-47800000D03*
X104800000Y-47800000D03*
X106800000Y-47800000D03*
X108800000Y-47800000D03*
X110800000Y-47800000D03*
X112800000Y-47800000D03*
X114800000Y-47800000D03*
X116800000Y-47800000D03*
X118800000Y-47800000D03*
X120800000Y-47800000D03*
X122800000Y-47800000D03*
X124800000Y-47800000D03*
X126800000Y-47800000D03*
X128800000Y-47800000D03*
X130800000Y-47800000D03*
X132800000Y-47800000D03*
X134800000Y-47800000D03*
X136800000Y-47800000D03*
X138800000Y-47800000D03*
X140800000Y-47800000D03*
X142800000Y-47800000D03*
X144800000Y-47800000D03*
X146800000Y-47800000D03*
X148800000Y-47800000D03*
X150800000Y-47800000D03*
X152800000Y-47800000D03*
X154800000Y-47800000D03*
X156800000Y-47800000D03*
X158800000Y-47800000D03*
X160800000Y-47800000D03*
X66800000Y-49800000D03*
X68800000Y-49800000D03*
X70800000Y-49800000D03*
X72800000Y-49800000D03*
X74800000Y-49800000D03*
X76800000Y-49800000D03*
X78800000Y-49800000D03*
X80800000Y-49800000D03*
X82800000Y-49800000D03*
X84800000Y-49800000D03*
X86800000Y-49800000D03*
X88800000Y-49800000D03*
X90800000Y-49800000D03*
X92800000Y-49800000D03*
X94800000Y-49800000D03*
X96800000Y-49800000D03*
X98800000Y-49800000D03*
X100800000Y-49800000D03*
X102800000Y-49800000D03*
X104800000Y-49800000D03*
X106800000Y-49800000D03*
X108800000Y-49800000D03*
X110800000Y-49800000D03*
X112800000Y-49800000D03*
X114800000Y-49800000D03*
X116800000Y-49800000D03*
X118800000Y-49800000D03*
X120800000Y-49800000D03*
X122800000Y-49800000D03*
X124800000Y-49800000D03*
X126800000Y-49800000D03*
X128800000Y-49800000D03*
X130800000Y-49800000D03*
X132800000Y-49800000D03*
X134800000Y-49800000D03*
X136800000Y-49800000D03*
X138800000Y-49800000D03*
X140800000Y-49800000D03*
X142800000Y-49800000D03*
X144800000Y-49800000D03*
X146800000Y-49800000D03*
X148800000Y-49800000D03*
X150800000Y-49800000D03*
X152800000Y-49800000D03*
X154800000Y-49800000D03*
X156800000Y-49800000D03*
X158800000Y-49800000D03*
X160800000Y-49800000D03*
X66800000Y-51800000D03*
X68800000Y-51800000D03*
X70800000Y-51800000D03*
X72800000Y-51800000D03*
X74800000Y-51800000D03*
X76800000Y-51800000D03*
X78800000Y-51800000D03*
X80800000Y-51800000D03*
X82800000Y-51800000D03*
X84800000Y-51800000D03*
X86800000Y-51800000D03*
X88800000Y-51800000D03*
X90800000Y-51800000D03*
X92800000Y-51800000D03*
X94800000Y-51800000D03*
X96800000Y-51800000D03*
X98800000Y-51800000D03*
X100800000Y-51800000D03*
X102800000Y-51800000D03*
X104800000Y-51800000D03*
X106800000Y-51800000D03*
X108800000Y-51800000D03*
X110800000Y-51800000D03*
X112800000Y-51800000D03*
X114800000Y-51800000D03*
X116800000Y-51800000D03*
X118800000Y-51800000D03*
X120800000Y-51800000D03*
X122800000Y-51800000D03*
X124800000Y-51800000D03*
X126800000Y-51800000D03*
X128800000Y-51800000D03*
X130800000Y-51800000D03*
X132800000Y-51800000D03*
X134800000Y-51800000D03*
X136800000Y-51800000D03*
X138800000Y-51800000D03*
X140800000Y-51800000D03*
X142800000Y-51800000D03*
X144800000Y-51800000D03*
X146800000Y-51800000D03*
X148800000Y-51800000D03*
X150800000Y-51800000D03*
X152800000Y-51800000D03*
X154800000Y-51800000D03*
X156800000Y-51800000D03*
X158800000Y-51800000D03*
X160800000Y-51800000D03*
X109500000Y-69500000D03*
X110000000Y-96500000D03*
X132500000Y-73000000D03*
X134000000Y-75000000D03*
X132500000Y-77000000D03*
X134000000Y-79000000D03*
X132500000Y-81000000D03*
X134000000Y-83000000D03*
X132500000Y-85000000D03*
X134000000Y-87000000D03*
X132500000Y-89000000D03*
X134000000Y-91000000D03*
X132500000Y-93000000D03*
X79500000Y-97500000D03*
X79500000Y-96500000D03*
X79500000Y-95500000D03*
X79500000Y-94500000D03*
X83750000Y-102000000D03*
X82500000Y-102000000D03*
X82500000Y-103250000D03*
X83750000Y-103250000D03*
X88250000Y-107000000D03*
X106500000Y-95500000D03*
X76500000Y-130000000D03*
X76500000Y-128250000D03*
X74500000Y-127500000D03*
X75450250Y-128049750D03*
X77250000Y-129000000D03*
X73200000Y-114200000D03*
X73200000Y-115200000D03*
X73200000Y-116200000D03*
X73200000Y-117200000D03*
X105500000Y-100975000D03*
X88500000Y-103250000D03*
X88500000Y-102250000D03*
X88750000Y-101000000D03*
X91250000Y-101000000D03*
X91500000Y-101750000D03*
X97400000Y-120600000D03*
X116000000Y-113200000D03*
X91800000Y-110000000D03*
X92400000Y-110800000D03*
X115400000Y-112200000D03*
X126200000Y-118500000D03*
X124900000Y-118500000D03*
X134400000Y-111200000D03*
X135000000Y-110600000D03*
X134000000Y-112000000D03*
X82500000Y-125750000D03*
X79500000Y-124250000D03*
X79500000Y-127250000D03*
X88400000Y-118000000D03*
X109500000Y-114050000D03*
X111400000Y-119800000D03*
X110400000Y-118800000D03*
X121400000Y-112200000D03*
X118400000Y-124400000D03*
X119000000Y-125200000D03*
X143000000Y-113400000D03*
X107000000Y-108800000D03*
X135600000Y-104400000D03*
X146800000Y-109600000D03*
X112200000Y-117400000D03*
X114600000Y-115800000D03*
X121800000Y-115600000D03*
X121400000Y-121800000D03*
X124400000Y-113400000D03*
X150000000Y-114400000D03*
D21*
G36*
X97911612Y-94588388D02*
G01*
X97930554Y-94603934D01*
X97952165Y-94615485D01*
X97975614Y-94622598D01*
X98000000Y-94625000D01*
X106285673Y-94625000D01*
X106237480Y-94634586D01*
X106073690Y-94702430D01*
X105926283Y-94800924D01*
X105800924Y-94926283D01*
X105702430Y-95073690D01*
X105634586Y-95237480D01*
X105600000Y-95411358D01*
X105600000Y-95588642D01*
X105634586Y-95762520D01*
X105702430Y-95926310D01*
X105800924Y-96073717D01*
X105926283Y-96199076D01*
X106073690Y-96297570D01*
X106237480Y-96365414D01*
X106411358Y-96400000D01*
X106588642Y-96400000D01*
X106762520Y-96365414D01*
X106926310Y-96297570D01*
X107073717Y-96199076D01*
X107199076Y-96073717D01*
X107297570Y-95926310D01*
X107365414Y-95762520D01*
X107400000Y-95588642D01*
X107400000Y-95411358D01*
X107365414Y-95237480D01*
X107297570Y-95073690D01*
X107199076Y-94926283D01*
X107073717Y-94800924D01*
X106926310Y-94702430D01*
X106762520Y-94634586D01*
X106714327Y-94625000D01*
X114948224Y-94625000D01*
X116911612Y-96588388D01*
X116930554Y-96603934D01*
X116952165Y-96615485D01*
X116975614Y-96622598D01*
X117000000Y-96625000D01*
X133000000Y-96625000D01*
X133024386Y-96622598D01*
X133047835Y-96615485D01*
X133069446Y-96603934D01*
X133088388Y-96588388D01*
X136051776Y-93625000D01*
X161975000Y-93625000D01*
X161975000Y-135475000D01*
X65525000Y-135475000D01*
X65525000Y-131253772D01*
X67000000Y-131253772D01*
X67000000Y-131746228D01*
X67096074Y-132229223D01*
X67284529Y-132684194D01*
X67558124Y-133093657D01*
X67906343Y-133441876D01*
X68315806Y-133715471D01*
X68770777Y-133903926D01*
X69253772Y-134000000D01*
X69746228Y-134000000D01*
X70229223Y-133903926D01*
X70684194Y-133715471D01*
X71093657Y-133441876D01*
X71441876Y-133093657D01*
X71715471Y-132684194D01*
X71903926Y-132229223D01*
X72000000Y-131746228D01*
X72000000Y-131253772D01*
X155500000Y-131253772D01*
X155500000Y-131746228D01*
X155596074Y-132229223D01*
X155784529Y-132684194D01*
X156058124Y-133093657D01*
X156406343Y-133441876D01*
X156815806Y-133715471D01*
X157270777Y-133903926D01*
X157753772Y-134000000D01*
X158246228Y-134000000D01*
X158729223Y-133903926D01*
X159184194Y-133715471D01*
X159593657Y-133441876D01*
X159941876Y-133093657D01*
X160215471Y-132684194D01*
X160403926Y-132229223D01*
X160500000Y-131746228D01*
X160500000Y-131253772D01*
X160403926Y-130770777D01*
X160215471Y-130315806D01*
X159941876Y-129906343D01*
X159593657Y-129558124D01*
X159184194Y-129284529D01*
X158729223Y-129096074D01*
X158246228Y-129000000D01*
X157753772Y-129000000D01*
X157270777Y-129096074D01*
X156815806Y-129284529D01*
X156406343Y-129558124D01*
X156058124Y-129906343D01*
X155784529Y-130315806D01*
X155596074Y-130770777D01*
X155500000Y-131253772D01*
X72000000Y-131253772D01*
X71903926Y-130770777D01*
X71715471Y-130315806D01*
X71441876Y-129906343D01*
X71093657Y-129558124D01*
X70684194Y-129284529D01*
X70229223Y-129096074D01*
X69746228Y-129000000D01*
X69253772Y-129000000D01*
X68770777Y-129096074D01*
X68315806Y-129284529D01*
X67906343Y-129558124D01*
X67558124Y-129906343D01*
X67284529Y-130315806D01*
X67096074Y-130770777D01*
X67000000Y-131253772D01*
X65525000Y-131253772D01*
X65525000Y-127411358D01*
X73600000Y-127411358D01*
X73600000Y-127588642D01*
X73634586Y-127762520D01*
X73702430Y-127926310D01*
X73800924Y-128073717D01*
X73926283Y-128199076D01*
X74073690Y-128297570D01*
X74237480Y-128365414D01*
X74411358Y-128400000D01*
X74588642Y-128400000D01*
X74618699Y-128394021D01*
X74652680Y-128476060D01*
X74751174Y-128623467D01*
X74876533Y-128748826D01*
X75023940Y-128847320D01*
X75187730Y-128915164D01*
X75361608Y-128949750D01*
X75538892Y-128949750D01*
X75712770Y-128915164D01*
X75839767Y-128862560D01*
X75926283Y-128949076D01*
X76073690Y-129047570D01*
X76237480Y-129115414D01*
X76285673Y-129125000D01*
X76237480Y-129134586D01*
X76073690Y-129202430D01*
X75926283Y-129300924D01*
X75800924Y-129426283D01*
X75702430Y-129573690D01*
X75634586Y-129737480D01*
X75600000Y-129911358D01*
X75600000Y-130088642D01*
X75634586Y-130262520D01*
X75702430Y-130426310D01*
X75800924Y-130573717D01*
X75926283Y-130699076D01*
X76073690Y-130797570D01*
X76237480Y-130865414D01*
X76411358Y-130900000D01*
X76588642Y-130900000D01*
X76762520Y-130865414D01*
X76926310Y-130797570D01*
X77073717Y-130699076D01*
X77199076Y-130573717D01*
X77297570Y-130426310D01*
X77365414Y-130262520D01*
X77400000Y-130088642D01*
X77400000Y-129911358D01*
X77395492Y-129888692D01*
X77512520Y-129865414D01*
X77676310Y-129797570D01*
X77823717Y-129699076D01*
X77949076Y-129573717D01*
X78047570Y-129426310D01*
X78095184Y-129311358D01*
X111300000Y-129311358D01*
X111300000Y-129488642D01*
X111334586Y-129662520D01*
X111402430Y-129826310D01*
X111500924Y-129973717D01*
X111626283Y-130099076D01*
X111773690Y-130197570D01*
X111937480Y-130265414D01*
X112111358Y-130300000D01*
X112288642Y-130300000D01*
X112462520Y-130265414D01*
X112626310Y-130197570D01*
X112773717Y-130099076D01*
X112899076Y-129973717D01*
X112997570Y-129826310D01*
X113065414Y-129662520D01*
X113100000Y-129488642D01*
X113100000Y-129311358D01*
X113065414Y-129137480D01*
X112997570Y-128973690D01*
X112955922Y-128911358D01*
X133100000Y-128911358D01*
X133100000Y-129088642D01*
X133134586Y-129262520D01*
X133202430Y-129426310D01*
X133300924Y-129573717D01*
X133426283Y-129699076D01*
X133573690Y-129797570D01*
X133737480Y-129865414D01*
X133911358Y-129900000D01*
X134088642Y-129900000D01*
X134262520Y-129865414D01*
X134426310Y-129797570D01*
X134573717Y-129699076D01*
X134699076Y-129573717D01*
X134797570Y-129426310D01*
X134865414Y-129262520D01*
X134900000Y-129088642D01*
X134900000Y-128911358D01*
X134865414Y-128737480D01*
X134797570Y-128573690D01*
X134699076Y-128426283D01*
X134573717Y-128300924D01*
X134426310Y-128202430D01*
X134262520Y-128134586D01*
X134088642Y-128100000D01*
X133911358Y-128100000D01*
X133737480Y-128134586D01*
X133573690Y-128202430D01*
X133426283Y-128300924D01*
X133300924Y-128426283D01*
X133202430Y-128573690D01*
X133134586Y-128737480D01*
X133100000Y-128911358D01*
X112955922Y-128911358D01*
X112899076Y-128826283D01*
X112773717Y-128700924D01*
X112626310Y-128602430D01*
X112462520Y-128534586D01*
X112288642Y-128500000D01*
X112111358Y-128500000D01*
X111937480Y-128534586D01*
X111773690Y-128602430D01*
X111626283Y-128700924D01*
X111500924Y-128826283D01*
X111402430Y-128973690D01*
X111334586Y-129137480D01*
X111300000Y-129311358D01*
X78095184Y-129311358D01*
X78115414Y-129262520D01*
X78150000Y-129088642D01*
X78150000Y-128911358D01*
X78115414Y-128737480D01*
X78047570Y-128573690D01*
X77949076Y-128426283D01*
X77823717Y-128300924D01*
X77676310Y-128202430D01*
X77512520Y-128134586D01*
X77389820Y-128110180D01*
X77365414Y-127987480D01*
X77297570Y-127823690D01*
X77199076Y-127676283D01*
X77073717Y-127550924D01*
X76926310Y-127452430D01*
X76762520Y-127384586D01*
X76588642Y-127350000D01*
X76411358Y-127350000D01*
X76237480Y-127384586D01*
X76110483Y-127437190D01*
X76023967Y-127350674D01*
X75876560Y-127252180D01*
X75712770Y-127184336D01*
X75597251Y-127161358D01*
X78600000Y-127161358D01*
X78600000Y-127338642D01*
X78634586Y-127512520D01*
X78702430Y-127676310D01*
X78800924Y-127823717D01*
X78926283Y-127949076D01*
X79073690Y-128047570D01*
X79237480Y-128115414D01*
X79411358Y-128150000D01*
X79588642Y-128150000D01*
X79762520Y-128115414D01*
X79926310Y-128047570D01*
X80073717Y-127949076D01*
X80199076Y-127823717D01*
X80297570Y-127676310D01*
X80365414Y-127512520D01*
X80400000Y-127338642D01*
X80400000Y-127161358D01*
X80365414Y-126987480D01*
X80297570Y-126823690D01*
X80199076Y-126676283D01*
X80073717Y-126550924D01*
X79926310Y-126452430D01*
X79762520Y-126384586D01*
X79588642Y-126350000D01*
X79411358Y-126350000D01*
X79237480Y-126384586D01*
X79073690Y-126452430D01*
X78926283Y-126550924D01*
X78800924Y-126676283D01*
X78702430Y-126823690D01*
X78634586Y-126987480D01*
X78600000Y-127161358D01*
X75597251Y-127161358D01*
X75538892Y-127149750D01*
X75361608Y-127149750D01*
X75331551Y-127155729D01*
X75297570Y-127073690D01*
X75199076Y-126926283D01*
X75073717Y-126800924D01*
X74926310Y-126702430D01*
X74762520Y-126634586D01*
X74588642Y-126600000D01*
X74411358Y-126600000D01*
X74237480Y-126634586D01*
X74073690Y-126702430D01*
X73926283Y-126800924D01*
X73800924Y-126926283D01*
X73702430Y-127073690D01*
X73634586Y-127237480D01*
X73600000Y-127411358D01*
X65525000Y-127411358D01*
X65525000Y-125661358D01*
X81600000Y-125661358D01*
X81600000Y-125838642D01*
X81634586Y-126012520D01*
X81702430Y-126176310D01*
X81800924Y-126323717D01*
X81926283Y-126449076D01*
X82073690Y-126547570D01*
X82237480Y-126615414D01*
X82411358Y-126650000D01*
X82588642Y-126650000D01*
X82762520Y-126615414D01*
X82926310Y-126547570D01*
X83073717Y-126449076D01*
X83199076Y-126323717D01*
X83297570Y-126176310D01*
X83365414Y-126012520D01*
X83400000Y-125838642D01*
X83400000Y-125661358D01*
X83365414Y-125487480D01*
X83297570Y-125323690D01*
X83199076Y-125176283D01*
X83073717Y-125050924D01*
X82926310Y-124952430D01*
X82762520Y-124884586D01*
X82588642Y-124850000D01*
X82411358Y-124850000D01*
X82237480Y-124884586D01*
X82073690Y-124952430D01*
X81926283Y-125050924D01*
X81800924Y-125176283D01*
X81702430Y-125323690D01*
X81634586Y-125487480D01*
X81600000Y-125661358D01*
X65525000Y-125661358D01*
X65525000Y-124161358D01*
X78600000Y-124161358D01*
X78600000Y-124338642D01*
X78634586Y-124512520D01*
X78702430Y-124676310D01*
X78800924Y-124823717D01*
X78926283Y-124949076D01*
X79073690Y-125047570D01*
X79237480Y-125115414D01*
X79411358Y-125150000D01*
X79588642Y-125150000D01*
X79762520Y-125115414D01*
X79926310Y-125047570D01*
X80073717Y-124949076D01*
X80199076Y-124823717D01*
X80297570Y-124676310D01*
X80365414Y-124512520D01*
X80400000Y-124338642D01*
X80400000Y-124311358D01*
X117500000Y-124311358D01*
X117500000Y-124488642D01*
X117534586Y-124662520D01*
X117602430Y-124826310D01*
X117700924Y-124973717D01*
X117826283Y-125099076D01*
X117973690Y-125197570D01*
X118100000Y-125249889D01*
X118100000Y-125288642D01*
X118134586Y-125462520D01*
X118202430Y-125626310D01*
X118300924Y-125773717D01*
X118426283Y-125899076D01*
X118573690Y-125997570D01*
X118737480Y-126065414D01*
X118911358Y-126100000D01*
X119088642Y-126100000D01*
X119262520Y-126065414D01*
X119426310Y-125997570D01*
X119573717Y-125899076D01*
X119699076Y-125773717D01*
X119797570Y-125626310D01*
X119865414Y-125462520D01*
X119900000Y-125288642D01*
X119900000Y-125111358D01*
X119865414Y-124937480D01*
X119797570Y-124773690D01*
X119699076Y-124626283D01*
X119573717Y-124500924D01*
X119426310Y-124402430D01*
X119300000Y-124350111D01*
X119300000Y-124311358D01*
X119265414Y-124137480D01*
X119197570Y-123973690D01*
X119099076Y-123826283D01*
X118973717Y-123700924D01*
X118826310Y-123602430D01*
X118662520Y-123534586D01*
X118488642Y-123500000D01*
X118311358Y-123500000D01*
X118137480Y-123534586D01*
X117973690Y-123602430D01*
X117826283Y-123700924D01*
X117700924Y-123826283D01*
X117602430Y-123973690D01*
X117534586Y-124137480D01*
X117500000Y-124311358D01*
X80400000Y-124311358D01*
X80400000Y-124161358D01*
X80365414Y-123987480D01*
X80297570Y-123823690D01*
X80199076Y-123676283D01*
X80073717Y-123550924D01*
X79926310Y-123452430D01*
X79762520Y-123384586D01*
X79588642Y-123350000D01*
X79411358Y-123350000D01*
X79237480Y-123384586D01*
X79073690Y-123452430D01*
X78926283Y-123550924D01*
X78800924Y-123676283D01*
X78702430Y-123823690D01*
X78634586Y-123987480D01*
X78600000Y-124161358D01*
X65525000Y-124161358D01*
X65525000Y-121711358D01*
X120500000Y-121711358D01*
X120500000Y-121888642D01*
X120534586Y-122062520D01*
X120602430Y-122226310D01*
X120700924Y-122373717D01*
X120826283Y-122499076D01*
X120973690Y-122597570D01*
X121137480Y-122665414D01*
X121311358Y-122700000D01*
X121488642Y-122700000D01*
X121662520Y-122665414D01*
X121826310Y-122597570D01*
X121973717Y-122499076D01*
X122099076Y-122373717D01*
X122197570Y-122226310D01*
X122265414Y-122062520D01*
X122300000Y-121888642D01*
X122300000Y-121711358D01*
X122265414Y-121537480D01*
X122197570Y-121373690D01*
X122099076Y-121226283D01*
X121973717Y-121100924D01*
X121826310Y-121002430D01*
X121662520Y-120934586D01*
X121488642Y-120900000D01*
X121311358Y-120900000D01*
X121137480Y-120934586D01*
X120973690Y-121002430D01*
X120826283Y-121100924D01*
X120700924Y-121226283D01*
X120602430Y-121373690D01*
X120534586Y-121537480D01*
X120500000Y-121711358D01*
X65525000Y-121711358D01*
X65525000Y-120511358D01*
X96500000Y-120511358D01*
X96500000Y-120688642D01*
X96534586Y-120862520D01*
X96602430Y-121026310D01*
X96700924Y-121173717D01*
X96826283Y-121299076D01*
X96973690Y-121397570D01*
X97137480Y-121465414D01*
X97311358Y-121500000D01*
X97488642Y-121500000D01*
X97662520Y-121465414D01*
X97826310Y-121397570D01*
X97973717Y-121299076D01*
X98099076Y-121173717D01*
X98197570Y-121026310D01*
X98265414Y-120862520D01*
X98300000Y-120688642D01*
X98300000Y-120511358D01*
X98265414Y-120337480D01*
X98197570Y-120173690D01*
X98099076Y-120026283D01*
X97973717Y-119900924D01*
X97826310Y-119802430D01*
X97662520Y-119734586D01*
X97488642Y-119700000D01*
X97311358Y-119700000D01*
X97137480Y-119734586D01*
X96973690Y-119802430D01*
X96826283Y-119900924D01*
X96700924Y-120026283D01*
X96602430Y-120173690D01*
X96534586Y-120337480D01*
X96500000Y-120511358D01*
X65525000Y-120511358D01*
X65525000Y-114111358D01*
X72300000Y-114111358D01*
X72300000Y-114288642D01*
X72334586Y-114462520D01*
X72402430Y-114626310D01*
X72451668Y-114700000D01*
X72402430Y-114773690D01*
X72334586Y-114937480D01*
X72300000Y-115111358D01*
X72300000Y-115288642D01*
X72334586Y-115462520D01*
X72402430Y-115626310D01*
X72451668Y-115700000D01*
X72402430Y-115773690D01*
X72334586Y-115937480D01*
X72300000Y-116111358D01*
X72300000Y-116288642D01*
X72334586Y-116462520D01*
X72402430Y-116626310D01*
X72451668Y-116700000D01*
X72402430Y-116773690D01*
X72334586Y-116937480D01*
X72300000Y-117111358D01*
X72300000Y-117288642D01*
X72334586Y-117462520D01*
X72402430Y-117626310D01*
X72500924Y-117773717D01*
X72626283Y-117899076D01*
X72773690Y-117997570D01*
X72937480Y-118065414D01*
X73111358Y-118100000D01*
X73288642Y-118100000D01*
X73462520Y-118065414D01*
X73626310Y-117997570D01*
X73755335Y-117911358D01*
X87500000Y-117911358D01*
X87500000Y-118088642D01*
X87534586Y-118262520D01*
X87602430Y-118426310D01*
X87700924Y-118573717D01*
X87826283Y-118699076D01*
X87973690Y-118797570D01*
X88137480Y-118865414D01*
X88311358Y-118900000D01*
X88488642Y-118900000D01*
X88662520Y-118865414D01*
X88826310Y-118797570D01*
X88955335Y-118711358D01*
X109500000Y-118711358D01*
X109500000Y-118888642D01*
X109534586Y-119062520D01*
X109602430Y-119226310D01*
X109700924Y-119373717D01*
X109826283Y-119499076D01*
X109973690Y-119597570D01*
X110137480Y-119665414D01*
X110311358Y-119700000D01*
X110488642Y-119700000D01*
X110502820Y-119697180D01*
X110500000Y-119711358D01*
X110500000Y-119888642D01*
X110534586Y-120062520D01*
X110602430Y-120226310D01*
X110700924Y-120373717D01*
X110826283Y-120499076D01*
X110973690Y-120597570D01*
X111137480Y-120665414D01*
X111311358Y-120700000D01*
X111488642Y-120700000D01*
X111662520Y-120665414D01*
X111826310Y-120597570D01*
X111973717Y-120499076D01*
X112099076Y-120373717D01*
X112197570Y-120226310D01*
X112265414Y-120062520D01*
X112300000Y-119888642D01*
X112300000Y-119711358D01*
X112265414Y-119537480D01*
X112197570Y-119373690D01*
X112099076Y-119226283D01*
X111973717Y-119100924D01*
X111826310Y-119002430D01*
X111662520Y-118934586D01*
X111488642Y-118900000D01*
X111311358Y-118900000D01*
X111297180Y-118902820D01*
X111300000Y-118888642D01*
X111300000Y-118711358D01*
X111265414Y-118537480D01*
X111213173Y-118411358D01*
X124000000Y-118411358D01*
X124000000Y-118588642D01*
X124034586Y-118762520D01*
X124102430Y-118926310D01*
X124200924Y-119073717D01*
X124326283Y-119199076D01*
X124473690Y-119297570D01*
X124637480Y-119365414D01*
X124811358Y-119400000D01*
X124988642Y-119400000D01*
X125162520Y-119365414D01*
X125326310Y-119297570D01*
X125473717Y-119199076D01*
X125550000Y-119122793D01*
X125626283Y-119199076D01*
X125773690Y-119297570D01*
X125937480Y-119365414D01*
X126111358Y-119400000D01*
X126288642Y-119400000D01*
X126462520Y-119365414D01*
X126626310Y-119297570D01*
X126773717Y-119199076D01*
X126899076Y-119073717D01*
X126997570Y-118926310D01*
X127065414Y-118762520D01*
X127100000Y-118588642D01*
X127100000Y-118411358D01*
X127065414Y-118237480D01*
X126997570Y-118073690D01*
X126899076Y-117926283D01*
X126773717Y-117800924D01*
X126626310Y-117702430D01*
X126462520Y-117634586D01*
X126288642Y-117600000D01*
X126111358Y-117600000D01*
X125937480Y-117634586D01*
X125773690Y-117702430D01*
X125626283Y-117800924D01*
X125550000Y-117877207D01*
X125473717Y-117800924D01*
X125326310Y-117702430D01*
X125162520Y-117634586D01*
X124988642Y-117600000D01*
X124811358Y-117600000D01*
X124637480Y-117634586D01*
X124473690Y-117702430D01*
X124326283Y-117800924D01*
X124200924Y-117926283D01*
X124102430Y-118073690D01*
X124034586Y-118237480D01*
X124000000Y-118411358D01*
X111213173Y-118411358D01*
X111197570Y-118373690D01*
X111099076Y-118226283D01*
X110973717Y-118100924D01*
X110826310Y-118002430D01*
X110662520Y-117934586D01*
X110488642Y-117900000D01*
X110311358Y-117900000D01*
X110137480Y-117934586D01*
X109973690Y-118002430D01*
X109826283Y-118100924D01*
X109700924Y-118226283D01*
X109602430Y-118373690D01*
X109534586Y-118537480D01*
X109500000Y-118711358D01*
X88955335Y-118711358D01*
X88973717Y-118699076D01*
X89099076Y-118573717D01*
X89197570Y-118426310D01*
X89265414Y-118262520D01*
X89300000Y-118088642D01*
X89300000Y-117911358D01*
X89265414Y-117737480D01*
X89197570Y-117573690D01*
X89099076Y-117426283D01*
X88973717Y-117300924D01*
X88826310Y-117202430D01*
X88662520Y-117134586D01*
X88488642Y-117100000D01*
X88311358Y-117100000D01*
X88137480Y-117134586D01*
X87973690Y-117202430D01*
X87826283Y-117300924D01*
X87700924Y-117426283D01*
X87602430Y-117573690D01*
X87534586Y-117737480D01*
X87500000Y-117911358D01*
X73755335Y-117911358D01*
X73773717Y-117899076D01*
X73899076Y-117773717D01*
X73997570Y-117626310D01*
X74065414Y-117462520D01*
X74100000Y-117288642D01*
X74100000Y-117111358D01*
X74065414Y-116937480D01*
X73997570Y-116773690D01*
X73948332Y-116700000D01*
X73997570Y-116626310D01*
X74065414Y-116462520D01*
X74083427Y-116371961D01*
X101450000Y-116371961D01*
X101450000Y-116628039D01*
X101499958Y-116879196D01*
X101597955Y-117115781D01*
X101740224Y-117328702D01*
X101921298Y-117509776D01*
X102134219Y-117652045D01*
X102370804Y-117750042D01*
X102621961Y-117800000D01*
X102878039Y-117800000D01*
X103129196Y-117750042D01*
X103365781Y-117652045D01*
X103578702Y-117509776D01*
X103759776Y-117328702D01*
X103771364Y-117311358D01*
X111300000Y-117311358D01*
X111300000Y-117488642D01*
X111334586Y-117662520D01*
X111402430Y-117826310D01*
X111500924Y-117973717D01*
X111626283Y-118099076D01*
X111773690Y-118197570D01*
X111937480Y-118265414D01*
X112111358Y-118300000D01*
X112288642Y-118300000D01*
X112462520Y-118265414D01*
X112626310Y-118197570D01*
X112773717Y-118099076D01*
X112899076Y-117973717D01*
X112997570Y-117826310D01*
X113065414Y-117662520D01*
X113100000Y-117488642D01*
X113100000Y-117311358D01*
X113065414Y-117137480D01*
X112997570Y-116973690D01*
X112899076Y-116826283D01*
X112773717Y-116700924D01*
X112626310Y-116602430D01*
X112462520Y-116534586D01*
X112288642Y-116500000D01*
X112111358Y-116500000D01*
X111937480Y-116534586D01*
X111773690Y-116602430D01*
X111626283Y-116700924D01*
X111500924Y-116826283D01*
X111402430Y-116973690D01*
X111334586Y-117137480D01*
X111300000Y-117311358D01*
X103771364Y-117311358D01*
X103902045Y-117115781D01*
X104000042Y-116879196D01*
X104050000Y-116628039D01*
X104050000Y-116371961D01*
X104000042Y-116120804D01*
X103902045Y-115884219D01*
X103786544Y-115711358D01*
X113700000Y-115711358D01*
X113700000Y-115888642D01*
X113734586Y-116062520D01*
X113802430Y-116226310D01*
X113900924Y-116373717D01*
X114026283Y-116499076D01*
X114173690Y-116597570D01*
X114337480Y-116665414D01*
X114511358Y-116700000D01*
X114688642Y-116700000D01*
X114862520Y-116665414D01*
X115026310Y-116597570D01*
X115173717Y-116499076D01*
X115299076Y-116373717D01*
X115397570Y-116226310D01*
X115465414Y-116062520D01*
X115500000Y-115888642D01*
X115500000Y-115711358D01*
X115465414Y-115537480D01*
X115454594Y-115511358D01*
X120900000Y-115511358D01*
X120900000Y-115688642D01*
X120934586Y-115862520D01*
X121002430Y-116026310D01*
X121100924Y-116173717D01*
X121226283Y-116299076D01*
X121373690Y-116397570D01*
X121537480Y-116465414D01*
X121711358Y-116500000D01*
X121888642Y-116500000D01*
X122062520Y-116465414D01*
X122226310Y-116397570D01*
X122373717Y-116299076D01*
X122499076Y-116173717D01*
X122597570Y-116026310D01*
X122665414Y-115862520D01*
X122700000Y-115688642D01*
X122700000Y-115511358D01*
X122665414Y-115337480D01*
X122597570Y-115173690D01*
X122499076Y-115026283D01*
X122373717Y-114900924D01*
X122226310Y-114802430D01*
X122062520Y-114734586D01*
X121888642Y-114700000D01*
X121711358Y-114700000D01*
X121537480Y-114734586D01*
X121373690Y-114802430D01*
X121226283Y-114900924D01*
X121100924Y-115026283D01*
X121002430Y-115173690D01*
X120934586Y-115337480D01*
X120900000Y-115511358D01*
X115454594Y-115511358D01*
X115397570Y-115373690D01*
X115299076Y-115226283D01*
X115173717Y-115100924D01*
X115026310Y-115002430D01*
X114862520Y-114934586D01*
X114688642Y-114900000D01*
X114511358Y-114900000D01*
X114337480Y-114934586D01*
X114173690Y-115002430D01*
X114026283Y-115100924D01*
X113900924Y-115226283D01*
X113802430Y-115373690D01*
X113734586Y-115537480D01*
X113700000Y-115711358D01*
X103786544Y-115711358D01*
X103759776Y-115671298D01*
X103578702Y-115490224D01*
X103365781Y-115347955D01*
X103129196Y-115249958D01*
X102878039Y-115200000D01*
X102621961Y-115200000D01*
X102370804Y-115249958D01*
X102134219Y-115347955D01*
X101921298Y-115490224D01*
X101740224Y-115671298D01*
X101597955Y-115884219D01*
X101499958Y-116120804D01*
X101450000Y-116371961D01*
X74083427Y-116371961D01*
X74100000Y-116288642D01*
X74100000Y-116111358D01*
X74065414Y-115937480D01*
X73997570Y-115773690D01*
X73948332Y-115700000D01*
X73997570Y-115626310D01*
X74065414Y-115462520D01*
X74100000Y-115288642D01*
X74100000Y-115111358D01*
X74065414Y-114937480D01*
X73997570Y-114773690D01*
X73948332Y-114700000D01*
X73997570Y-114626310D01*
X74065414Y-114462520D01*
X74100000Y-114288642D01*
X74100000Y-114111358D01*
X74065414Y-113937480D01*
X73997570Y-113773690D01*
X73899076Y-113626283D01*
X73773717Y-113500924D01*
X73626310Y-113402430D01*
X73462520Y-113334586D01*
X73288642Y-113300000D01*
X73111358Y-113300000D01*
X72937480Y-113334586D01*
X72773690Y-113402430D01*
X72626283Y-113500924D01*
X72500924Y-113626283D01*
X72402430Y-113773690D01*
X72334586Y-113937480D01*
X72300000Y-114111358D01*
X65525000Y-114111358D01*
X65525000Y-112871961D01*
X101450000Y-112871961D01*
X101450000Y-113128039D01*
X101499958Y-113379196D01*
X101597955Y-113615781D01*
X101740224Y-113828702D01*
X101921298Y-114009776D01*
X102134219Y-114152045D01*
X102370804Y-114250042D01*
X102621961Y-114300000D01*
X102878039Y-114300000D01*
X103129196Y-114250042D01*
X103365781Y-114152045D01*
X103578702Y-114009776D01*
X103627120Y-113961358D01*
X108600000Y-113961358D01*
X108600000Y-114138642D01*
X108634586Y-114312520D01*
X108702430Y-114476310D01*
X108800924Y-114623717D01*
X108926283Y-114749076D01*
X109073690Y-114847570D01*
X109237480Y-114915414D01*
X109411358Y-114950000D01*
X109588642Y-114950000D01*
X109762520Y-114915414D01*
X109926310Y-114847570D01*
X110073717Y-114749076D01*
X110199076Y-114623717D01*
X110297570Y-114476310D01*
X110365414Y-114312520D01*
X110365645Y-114311358D01*
X149100000Y-114311358D01*
X149100000Y-114488642D01*
X149134586Y-114662520D01*
X149202430Y-114826310D01*
X149300924Y-114973717D01*
X149426283Y-115099076D01*
X149573690Y-115197570D01*
X149737480Y-115265414D01*
X149911358Y-115300000D01*
X150088642Y-115300000D01*
X150262520Y-115265414D01*
X150426310Y-115197570D01*
X150573717Y-115099076D01*
X150699076Y-114973717D01*
X150797570Y-114826310D01*
X150865414Y-114662520D01*
X150900000Y-114488642D01*
X150900000Y-114311358D01*
X150865414Y-114137480D01*
X150797570Y-113973690D01*
X150699076Y-113826283D01*
X150573717Y-113700924D01*
X150426310Y-113602430D01*
X150262520Y-113534586D01*
X150088642Y-113500000D01*
X149911358Y-113500000D01*
X149737480Y-113534586D01*
X149573690Y-113602430D01*
X149426283Y-113700924D01*
X149300924Y-113826283D01*
X149202430Y-113973690D01*
X149134586Y-114137480D01*
X149100000Y-114311358D01*
X110365645Y-114311358D01*
X110400000Y-114138642D01*
X110400000Y-113961358D01*
X110365414Y-113787480D01*
X110297570Y-113623690D01*
X110199076Y-113476283D01*
X110073717Y-113350924D01*
X109926310Y-113252430D01*
X109762520Y-113184586D01*
X109588642Y-113150000D01*
X109411358Y-113150000D01*
X109237480Y-113184586D01*
X109073690Y-113252430D01*
X108926283Y-113350924D01*
X108800924Y-113476283D01*
X108702430Y-113623690D01*
X108634586Y-113787480D01*
X108600000Y-113961358D01*
X103627120Y-113961358D01*
X103759776Y-113828702D01*
X103902045Y-113615781D01*
X104000042Y-113379196D01*
X104050000Y-113128039D01*
X104050000Y-112871961D01*
X104000042Y-112620804D01*
X103902045Y-112384219D01*
X103759776Y-112171298D01*
X103699836Y-112111358D01*
X114500000Y-112111358D01*
X114500000Y-112288642D01*
X114534586Y-112462520D01*
X114602430Y-112626310D01*
X114700924Y-112773717D01*
X114826283Y-112899076D01*
X114973690Y-112997570D01*
X115111296Y-113054568D01*
X115100000Y-113111358D01*
X115100000Y-113288642D01*
X115134586Y-113462520D01*
X115202430Y-113626310D01*
X115300924Y-113773717D01*
X115426283Y-113899076D01*
X115573690Y-113997570D01*
X115737480Y-114065414D01*
X115911358Y-114100000D01*
X116088642Y-114100000D01*
X116262520Y-114065414D01*
X116426310Y-113997570D01*
X116573717Y-113899076D01*
X116699076Y-113773717D01*
X116797570Y-113626310D01*
X116865414Y-113462520D01*
X116895481Y-113311358D01*
X123500000Y-113311358D01*
X123500000Y-113488642D01*
X123534586Y-113662520D01*
X123602430Y-113826310D01*
X123700924Y-113973717D01*
X123826283Y-114099076D01*
X123973690Y-114197570D01*
X124137480Y-114265414D01*
X124311358Y-114300000D01*
X124488642Y-114300000D01*
X124662520Y-114265414D01*
X124826310Y-114197570D01*
X124973717Y-114099076D01*
X125099076Y-113973717D01*
X125197570Y-113826310D01*
X125265414Y-113662520D01*
X125300000Y-113488642D01*
X125300000Y-113311358D01*
X142100000Y-113311358D01*
X142100000Y-113488642D01*
X142134586Y-113662520D01*
X142202430Y-113826310D01*
X142300924Y-113973717D01*
X142426283Y-114099076D01*
X142573690Y-114197570D01*
X142737480Y-114265414D01*
X142911358Y-114300000D01*
X143088642Y-114300000D01*
X143262520Y-114265414D01*
X143426310Y-114197570D01*
X143573717Y-114099076D01*
X143699076Y-113973717D01*
X143797570Y-113826310D01*
X143865414Y-113662520D01*
X143900000Y-113488642D01*
X143900000Y-113311358D01*
X143865414Y-113137480D01*
X143797570Y-112973690D01*
X143699076Y-112826283D01*
X143584151Y-112711358D01*
X153700000Y-112711358D01*
X153700000Y-112888642D01*
X153734586Y-113062520D01*
X153802430Y-113226310D01*
X153900924Y-113373717D01*
X154026283Y-113499076D01*
X154173690Y-113597570D01*
X154337480Y-113665414D01*
X154511358Y-113700000D01*
X154688642Y-113700000D01*
X154862520Y-113665414D01*
X155026310Y-113597570D01*
X155173717Y-113499076D01*
X155299076Y-113373717D01*
X155397570Y-113226310D01*
X155465414Y-113062520D01*
X155500000Y-112888642D01*
X155500000Y-112711358D01*
X155465414Y-112537480D01*
X155397570Y-112373690D01*
X155299076Y-112226283D01*
X155173717Y-112100924D01*
X155026310Y-112002430D01*
X154862520Y-111934586D01*
X154688642Y-111900000D01*
X154511358Y-111900000D01*
X154337480Y-111934586D01*
X154173690Y-112002430D01*
X154026283Y-112100924D01*
X153900924Y-112226283D01*
X153802430Y-112373690D01*
X153734586Y-112537480D01*
X153700000Y-112711358D01*
X143584151Y-112711358D01*
X143573717Y-112700924D01*
X143426310Y-112602430D01*
X143262520Y-112534586D01*
X143088642Y-112500000D01*
X142911358Y-112500000D01*
X142737480Y-112534586D01*
X142573690Y-112602430D01*
X142426283Y-112700924D01*
X142300924Y-112826283D01*
X142202430Y-112973690D01*
X142134586Y-113137480D01*
X142100000Y-113311358D01*
X125300000Y-113311358D01*
X125265414Y-113137480D01*
X125197570Y-112973690D01*
X125099076Y-112826283D01*
X124973717Y-112700924D01*
X124826310Y-112602430D01*
X124662520Y-112534586D01*
X124488642Y-112500000D01*
X124311358Y-112500000D01*
X124137480Y-112534586D01*
X123973690Y-112602430D01*
X123826283Y-112700924D01*
X123700924Y-112826283D01*
X123602430Y-112973690D01*
X123534586Y-113137480D01*
X123500000Y-113311358D01*
X116895481Y-113311358D01*
X116900000Y-113288642D01*
X116900000Y-113111358D01*
X116865414Y-112937480D01*
X116797570Y-112773690D01*
X116699076Y-112626283D01*
X116573717Y-112500924D01*
X116426310Y-112402430D01*
X116288704Y-112345432D01*
X116300000Y-112288642D01*
X116300000Y-112111358D01*
X120500000Y-112111358D01*
X120500000Y-112288642D01*
X120534586Y-112462520D01*
X120602430Y-112626310D01*
X120700924Y-112773717D01*
X120826283Y-112899076D01*
X120973690Y-112997570D01*
X121137480Y-113065414D01*
X121311358Y-113100000D01*
X121488642Y-113100000D01*
X121662520Y-113065414D01*
X121826310Y-112997570D01*
X121973717Y-112899076D01*
X122099076Y-112773717D01*
X122197570Y-112626310D01*
X122265414Y-112462520D01*
X122300000Y-112288642D01*
X122300000Y-112111358D01*
X122265414Y-111937480D01*
X122254594Y-111911358D01*
X133100000Y-111911358D01*
X133100000Y-112088642D01*
X133134586Y-112262520D01*
X133202430Y-112426310D01*
X133300924Y-112573717D01*
X133426283Y-112699076D01*
X133573690Y-112797570D01*
X133737480Y-112865414D01*
X133911358Y-112900000D01*
X134088642Y-112900000D01*
X134262520Y-112865414D01*
X134426310Y-112797570D01*
X134573717Y-112699076D01*
X134699076Y-112573717D01*
X134797570Y-112426310D01*
X134865414Y-112262520D01*
X134900000Y-112088642D01*
X134900000Y-111948332D01*
X134973717Y-111899076D01*
X135099076Y-111773717D01*
X135197570Y-111626310D01*
X135264566Y-111464566D01*
X135426310Y-111397570D01*
X135573717Y-111299076D01*
X135699076Y-111173717D01*
X135797570Y-111026310D01*
X135865414Y-110862520D01*
X135900000Y-110688642D01*
X135900000Y-110511358D01*
X135865414Y-110337480D01*
X135797570Y-110173690D01*
X135699076Y-110026283D01*
X135573717Y-109900924D01*
X135426310Y-109802430D01*
X135262520Y-109734586D01*
X135088642Y-109700000D01*
X134911358Y-109700000D01*
X134737480Y-109734586D01*
X134573690Y-109802430D01*
X134426283Y-109900924D01*
X134300924Y-110026283D01*
X134202430Y-110173690D01*
X134135434Y-110335434D01*
X133973690Y-110402430D01*
X133826283Y-110500924D01*
X133700924Y-110626283D01*
X133602430Y-110773690D01*
X133534586Y-110937480D01*
X133500000Y-111111358D01*
X133500000Y-111251668D01*
X133426283Y-111300924D01*
X133300924Y-111426283D01*
X133202430Y-111573690D01*
X133134586Y-111737480D01*
X133100000Y-111911358D01*
X122254594Y-111911358D01*
X122197570Y-111773690D01*
X122099076Y-111626283D01*
X121973717Y-111500924D01*
X121826310Y-111402430D01*
X121662520Y-111334586D01*
X121488642Y-111300000D01*
X121311358Y-111300000D01*
X121137480Y-111334586D01*
X120973690Y-111402430D01*
X120826283Y-111500924D01*
X120700924Y-111626283D01*
X120602430Y-111773690D01*
X120534586Y-111937480D01*
X120500000Y-112111358D01*
X116300000Y-112111358D01*
X116265414Y-111937480D01*
X116197570Y-111773690D01*
X116099076Y-111626283D01*
X115973717Y-111500924D01*
X115826310Y-111402430D01*
X115662520Y-111334586D01*
X115488642Y-111300000D01*
X115311358Y-111300000D01*
X115137480Y-111334586D01*
X114973690Y-111402430D01*
X114826283Y-111500924D01*
X114700924Y-111626283D01*
X114602430Y-111773690D01*
X114534586Y-111937480D01*
X114500000Y-112111358D01*
X103699836Y-112111358D01*
X103578702Y-111990224D01*
X103365781Y-111847955D01*
X103129196Y-111749958D01*
X102878039Y-111700000D01*
X102621961Y-111700000D01*
X102370804Y-111749958D01*
X102134219Y-111847955D01*
X101921298Y-111990224D01*
X101740224Y-112171298D01*
X101597955Y-112384219D01*
X101499958Y-112620804D01*
X101450000Y-112871961D01*
X65525000Y-112871961D01*
X65525000Y-109963017D01*
X68000000Y-109963017D01*
X68000000Y-110356983D01*
X68076859Y-110743378D01*
X68227623Y-111107355D01*
X68446499Y-111434926D01*
X68725074Y-111713501D01*
X69052645Y-111932377D01*
X69416622Y-112083141D01*
X69803017Y-112160000D01*
X70196983Y-112160000D01*
X70583378Y-112083141D01*
X70947355Y-111932377D01*
X71274926Y-111713501D01*
X71553501Y-111434926D01*
X71772377Y-111107355D01*
X71923141Y-110743378D01*
X72000000Y-110356983D01*
X72000000Y-109963017D01*
X71989725Y-109911358D01*
X90900000Y-109911358D01*
X90900000Y-110088642D01*
X90934586Y-110262520D01*
X91002430Y-110426310D01*
X91100924Y-110573717D01*
X91226283Y-110699076D01*
X91373690Y-110797570D01*
X91500000Y-110849889D01*
X91500000Y-110888642D01*
X91534586Y-111062520D01*
X91602430Y-111226310D01*
X91700924Y-111373717D01*
X91826283Y-111499076D01*
X91973690Y-111597570D01*
X92137480Y-111665414D01*
X92311358Y-111700000D01*
X92488642Y-111700000D01*
X92662520Y-111665414D01*
X92826310Y-111597570D01*
X92973717Y-111499076D01*
X93099076Y-111373717D01*
X93197570Y-111226310D01*
X93265414Y-111062520D01*
X93300000Y-110888642D01*
X93300000Y-110711358D01*
X93265414Y-110537480D01*
X93197570Y-110373690D01*
X93099076Y-110226283D01*
X92973717Y-110100924D01*
X92826310Y-110002430D01*
X92700000Y-109950111D01*
X92700000Y-109911358D01*
X92665414Y-109737480D01*
X92597570Y-109573690D01*
X92499076Y-109426283D01*
X92373717Y-109300924D01*
X92226310Y-109202430D01*
X92062520Y-109134586D01*
X91888642Y-109100000D01*
X91711358Y-109100000D01*
X91537480Y-109134586D01*
X91373690Y-109202430D01*
X91226283Y-109300924D01*
X91100924Y-109426283D01*
X91002430Y-109573690D01*
X90934586Y-109737480D01*
X90900000Y-109911358D01*
X71989725Y-109911358D01*
X71923141Y-109576622D01*
X71772377Y-109212645D01*
X71553501Y-108885074D01*
X71379785Y-108711358D01*
X106100000Y-108711358D01*
X106100000Y-108888642D01*
X106134586Y-109062520D01*
X106202430Y-109226310D01*
X106300924Y-109373717D01*
X106426283Y-109499076D01*
X106573690Y-109597570D01*
X106737480Y-109665414D01*
X106911358Y-109700000D01*
X107088642Y-109700000D01*
X107262520Y-109665414D01*
X107426310Y-109597570D01*
X107555335Y-109511358D01*
X145900000Y-109511358D01*
X145900000Y-109688642D01*
X145934586Y-109862520D01*
X146002430Y-110026310D01*
X146100924Y-110173717D01*
X146226283Y-110299076D01*
X146373690Y-110397570D01*
X146537480Y-110465414D01*
X146711358Y-110500000D01*
X146888642Y-110500000D01*
X147062520Y-110465414D01*
X147226310Y-110397570D01*
X147373717Y-110299076D01*
X147499076Y-110173717D01*
X147597570Y-110026310D01*
X147665414Y-109862520D01*
X147700000Y-109688642D01*
X147700000Y-109511358D01*
X147665414Y-109337480D01*
X147597570Y-109173690D01*
X147499076Y-109026283D01*
X147373717Y-108900924D01*
X147226310Y-108802430D01*
X147062520Y-108734586D01*
X146888642Y-108700000D01*
X146711358Y-108700000D01*
X146537480Y-108734586D01*
X146373690Y-108802430D01*
X146226283Y-108900924D01*
X146100924Y-109026283D01*
X146002430Y-109173690D01*
X145934586Y-109337480D01*
X145900000Y-109511358D01*
X107555335Y-109511358D01*
X107573717Y-109499076D01*
X107699076Y-109373717D01*
X107797570Y-109226310D01*
X107865414Y-109062520D01*
X107900000Y-108888642D01*
X107900000Y-108711358D01*
X107865414Y-108537480D01*
X107797570Y-108373690D01*
X107699076Y-108226283D01*
X107573717Y-108100924D01*
X107426310Y-108002430D01*
X107262520Y-107934586D01*
X107088642Y-107900000D01*
X106911358Y-107900000D01*
X106737480Y-107934586D01*
X106573690Y-108002430D01*
X106426283Y-108100924D01*
X106300924Y-108226283D01*
X106202430Y-108373690D01*
X106134586Y-108537480D01*
X106100000Y-108711358D01*
X71379785Y-108711358D01*
X71274926Y-108606499D01*
X70947355Y-108387623D01*
X70583378Y-108236859D01*
X70196983Y-108160000D01*
X69803017Y-108160000D01*
X69416622Y-108236859D01*
X69052645Y-108387623D01*
X68725074Y-108606499D01*
X68446499Y-108885074D01*
X68227623Y-109212645D01*
X68076859Y-109576622D01*
X68000000Y-109963017D01*
X65525000Y-109963017D01*
X65525000Y-106564981D01*
X68691796Y-106564981D01*
X68848192Y-106877990D01*
X69221094Y-107068149D01*
X69623929Y-107181904D01*
X70041216Y-107214884D01*
X70456920Y-107165822D01*
X70855064Y-107036603D01*
X71089380Y-106911358D01*
X87350000Y-106911358D01*
X87350000Y-107088642D01*
X87384586Y-107262520D01*
X87452430Y-107426310D01*
X87550924Y-107573717D01*
X87676283Y-107699076D01*
X87823690Y-107797570D01*
X87987480Y-107865414D01*
X88161358Y-107900000D01*
X88338642Y-107900000D01*
X88512520Y-107865414D01*
X88676310Y-107797570D01*
X88823717Y-107699076D01*
X88949076Y-107573717D01*
X89047570Y-107426310D01*
X89115414Y-107262520D01*
X89150000Y-107088642D01*
X89150000Y-106911358D01*
X89115414Y-106737480D01*
X89047570Y-106573690D01*
X88949076Y-106426283D01*
X88823717Y-106300924D01*
X88676310Y-106202430D01*
X88512520Y-106134586D01*
X88338642Y-106100000D01*
X88161358Y-106100000D01*
X87987480Y-106134586D01*
X87823690Y-106202430D01*
X87676283Y-106300924D01*
X87550924Y-106426283D01*
X87452430Y-106573690D01*
X87384586Y-106737480D01*
X87350000Y-106911358D01*
X71089380Y-106911358D01*
X71151808Y-106877990D01*
X71308204Y-106564981D01*
X70000000Y-105256777D01*
X68691796Y-106564981D01*
X65525000Y-106564981D01*
X65525000Y-105121216D01*
X67865116Y-105121216D01*
X67914178Y-105536920D01*
X68043397Y-105935064D01*
X68202010Y-106231808D01*
X68515019Y-106388204D01*
X69823223Y-105080000D01*
X70176777Y-105080000D01*
X71484981Y-106388204D01*
X71797990Y-106231808D01*
X71988149Y-105858906D01*
X72101904Y-105456071D01*
X72134884Y-105038784D01*
X72085822Y-104623080D01*
X71984652Y-104311358D01*
X134700000Y-104311358D01*
X134700000Y-104488642D01*
X134734586Y-104662520D01*
X134802430Y-104826310D01*
X134900924Y-104973717D01*
X135026283Y-105099076D01*
X135173690Y-105197570D01*
X135337480Y-105265414D01*
X135511358Y-105300000D01*
X135688642Y-105300000D01*
X135862520Y-105265414D01*
X136026310Y-105197570D01*
X136173717Y-105099076D01*
X136299076Y-104973717D01*
X136397570Y-104826310D01*
X136465414Y-104662520D01*
X136500000Y-104488642D01*
X136500000Y-104311358D01*
X136465414Y-104137480D01*
X136397570Y-103973690D01*
X136299076Y-103826283D01*
X136173717Y-103700924D01*
X136026310Y-103602430D01*
X135862520Y-103534586D01*
X135688642Y-103500000D01*
X135511358Y-103500000D01*
X135337480Y-103534586D01*
X135173690Y-103602430D01*
X135026283Y-103700924D01*
X134900924Y-103826283D01*
X134802430Y-103973690D01*
X134734586Y-104137480D01*
X134700000Y-104311358D01*
X71984652Y-104311358D01*
X71956603Y-104224936D01*
X71797990Y-103928192D01*
X71484981Y-103771796D01*
X70176777Y-105080000D01*
X69823223Y-105080000D01*
X68515019Y-103771796D01*
X68202010Y-103928192D01*
X68011851Y-104301094D01*
X67898096Y-104703929D01*
X67865116Y-105121216D01*
X65525000Y-105121216D01*
X65525000Y-103595019D01*
X68691796Y-103595019D01*
X70000000Y-104903223D01*
X71308204Y-103595019D01*
X71151808Y-103282010D01*
X70778906Y-103091851D01*
X70376071Y-102978096D01*
X69958784Y-102945116D01*
X69543080Y-102994178D01*
X69144936Y-103123397D01*
X68848192Y-103282010D01*
X68691796Y-103595019D01*
X65525000Y-103595019D01*
X65525000Y-98500000D01*
X67997581Y-98500000D01*
X67997581Y-101500000D01*
X68007235Y-101598017D01*
X68035825Y-101692267D01*
X68082254Y-101779129D01*
X68144736Y-101855264D01*
X68220871Y-101917746D01*
X68307733Y-101964175D01*
X68401983Y-101992765D01*
X68500000Y-102002419D01*
X71500000Y-102002419D01*
X71598017Y-101992765D01*
X71692267Y-101964175D01*
X71779129Y-101917746D01*
X71786912Y-101911358D01*
X81600000Y-101911358D01*
X81600000Y-102088642D01*
X81634586Y-102262520D01*
X81702430Y-102426310D01*
X81800924Y-102573717D01*
X81852207Y-102625000D01*
X81800924Y-102676283D01*
X81702430Y-102823690D01*
X81634586Y-102987480D01*
X81600000Y-103161358D01*
X81600000Y-103338642D01*
X81634586Y-103512520D01*
X81702430Y-103676310D01*
X81800924Y-103823717D01*
X81926283Y-103949076D01*
X82073690Y-104047570D01*
X82237480Y-104115414D01*
X82411358Y-104150000D01*
X82588642Y-104150000D01*
X82762520Y-104115414D01*
X82926310Y-104047570D01*
X83073717Y-103949076D01*
X83125000Y-103897793D01*
X83176283Y-103949076D01*
X83323690Y-104047570D01*
X83487480Y-104115414D01*
X83661358Y-104150000D01*
X83838642Y-104150000D01*
X84012520Y-104115414D01*
X84176310Y-104047570D01*
X84323717Y-103949076D01*
X84449076Y-103823717D01*
X84547570Y-103676310D01*
X84615414Y-103512520D01*
X84650000Y-103338642D01*
X84650000Y-103161358D01*
X84615414Y-102987480D01*
X84547570Y-102823690D01*
X84449076Y-102676283D01*
X84397793Y-102625000D01*
X84449076Y-102573717D01*
X84547570Y-102426310D01*
X84615414Y-102262520D01*
X84635536Y-102161358D01*
X87600000Y-102161358D01*
X87600000Y-102338642D01*
X87634586Y-102512520D01*
X87702430Y-102676310D01*
X87751668Y-102750000D01*
X87702430Y-102823690D01*
X87634586Y-102987480D01*
X87600000Y-103161358D01*
X87600000Y-103338642D01*
X87634586Y-103512520D01*
X87702430Y-103676310D01*
X87800924Y-103823717D01*
X87926283Y-103949076D01*
X88073690Y-104047570D01*
X88237480Y-104115414D01*
X88411358Y-104150000D01*
X88588642Y-104150000D01*
X88762520Y-104115414D01*
X88926310Y-104047570D01*
X89073717Y-103949076D01*
X89199076Y-103823717D01*
X89297570Y-103676310D01*
X89365414Y-103512520D01*
X89400000Y-103338642D01*
X89400000Y-103161358D01*
X89365414Y-102987480D01*
X89297570Y-102823690D01*
X89248332Y-102750000D01*
X89297570Y-102676310D01*
X89365414Y-102512520D01*
X89400000Y-102338642D01*
X89400000Y-102161358D01*
X89365414Y-101987480D01*
X89297570Y-101823690D01*
X89248076Y-101749617D01*
X89323717Y-101699076D01*
X89449076Y-101573717D01*
X89547570Y-101426310D01*
X89615414Y-101262520D01*
X89650000Y-101088642D01*
X89650000Y-100911358D01*
X90350000Y-100911358D01*
X90350000Y-101088642D01*
X90384586Y-101262520D01*
X90452430Y-101426310D01*
X90550924Y-101573717D01*
X90606398Y-101629191D01*
X90600000Y-101661358D01*
X90600000Y-101838642D01*
X90634586Y-102012520D01*
X90702430Y-102176310D01*
X90800924Y-102323717D01*
X90926283Y-102449076D01*
X91073690Y-102547570D01*
X91237480Y-102615414D01*
X91411358Y-102650000D01*
X91588642Y-102650000D01*
X91762520Y-102615414D01*
X91926310Y-102547570D01*
X92073717Y-102449076D01*
X92111435Y-102411358D01*
X136850000Y-102411358D01*
X136850000Y-102588642D01*
X136884586Y-102762520D01*
X136952430Y-102926310D01*
X137050924Y-103073717D01*
X137176283Y-103199076D01*
X137323690Y-103297570D01*
X137487480Y-103365414D01*
X137661358Y-103400000D01*
X137838642Y-103400000D01*
X138012520Y-103365414D01*
X138176310Y-103297570D01*
X138323717Y-103199076D01*
X138449076Y-103073717D01*
X138547570Y-102926310D01*
X138615414Y-102762520D01*
X138650000Y-102588642D01*
X138650000Y-102411358D01*
X138615414Y-102237480D01*
X138547570Y-102073690D01*
X138449076Y-101926283D01*
X138323717Y-101800924D01*
X138176310Y-101702430D01*
X138012520Y-101634586D01*
X137838642Y-101600000D01*
X137661358Y-101600000D01*
X137487480Y-101634586D01*
X137323690Y-101702430D01*
X137176283Y-101800924D01*
X137050924Y-101926283D01*
X136952430Y-102073690D01*
X136884586Y-102237480D01*
X136850000Y-102411358D01*
X92111435Y-102411358D01*
X92199076Y-102323717D01*
X92297570Y-102176310D01*
X92365414Y-102012520D01*
X92400000Y-101838642D01*
X92400000Y-101661358D01*
X92365414Y-101487480D01*
X92297570Y-101323690D01*
X92199076Y-101176283D01*
X92143602Y-101120809D01*
X92150000Y-101088642D01*
X92150000Y-100911358D01*
X92145028Y-100886358D01*
X104600000Y-100886358D01*
X104600000Y-101063642D01*
X104634586Y-101237520D01*
X104702430Y-101401310D01*
X104800924Y-101548717D01*
X104926283Y-101674076D01*
X105073690Y-101772570D01*
X105237480Y-101840414D01*
X105411358Y-101875000D01*
X105588642Y-101875000D01*
X105762520Y-101840414D01*
X105926310Y-101772570D01*
X106073717Y-101674076D01*
X106199076Y-101548717D01*
X106297570Y-101401310D01*
X106365414Y-101237520D01*
X106400000Y-101063642D01*
X106400000Y-100886358D01*
X106365414Y-100712480D01*
X106297570Y-100548690D01*
X106199076Y-100401283D01*
X106073717Y-100275924D01*
X105926310Y-100177430D01*
X105762520Y-100109586D01*
X105588642Y-100075000D01*
X105411358Y-100075000D01*
X105237480Y-100109586D01*
X105073690Y-100177430D01*
X104926283Y-100275924D01*
X104800924Y-100401283D01*
X104702430Y-100548690D01*
X104634586Y-100712480D01*
X104600000Y-100886358D01*
X92145028Y-100886358D01*
X92115414Y-100737480D01*
X92047570Y-100573690D01*
X91949076Y-100426283D01*
X91823717Y-100300924D01*
X91676310Y-100202430D01*
X91512520Y-100134586D01*
X91338642Y-100100000D01*
X91161358Y-100100000D01*
X90987480Y-100134586D01*
X90823690Y-100202430D01*
X90676283Y-100300924D01*
X90550924Y-100426283D01*
X90452430Y-100573690D01*
X90384586Y-100737480D01*
X90350000Y-100911358D01*
X89650000Y-100911358D01*
X89615414Y-100737480D01*
X89547570Y-100573690D01*
X89449076Y-100426283D01*
X89323717Y-100300924D01*
X89176310Y-100202430D01*
X89012520Y-100134586D01*
X88838642Y-100100000D01*
X88661358Y-100100000D01*
X88487480Y-100134586D01*
X88323690Y-100202430D01*
X88176283Y-100300924D01*
X88050924Y-100426283D01*
X87952430Y-100573690D01*
X87884586Y-100737480D01*
X87850000Y-100911358D01*
X87850000Y-101088642D01*
X87884586Y-101262520D01*
X87952430Y-101426310D01*
X88001924Y-101500383D01*
X87926283Y-101550924D01*
X87800924Y-101676283D01*
X87702430Y-101823690D01*
X87634586Y-101987480D01*
X87600000Y-102161358D01*
X84635536Y-102161358D01*
X84650000Y-102088642D01*
X84650000Y-101911358D01*
X84615414Y-101737480D01*
X84547570Y-101573690D01*
X84449076Y-101426283D01*
X84323717Y-101300924D01*
X84176310Y-101202430D01*
X84012520Y-101134586D01*
X83838642Y-101100000D01*
X83661358Y-101100000D01*
X83487480Y-101134586D01*
X83323690Y-101202430D01*
X83176283Y-101300924D01*
X83125000Y-101352207D01*
X83073717Y-101300924D01*
X82926310Y-101202430D01*
X82762520Y-101134586D01*
X82588642Y-101100000D01*
X82411358Y-101100000D01*
X82237480Y-101134586D01*
X82073690Y-101202430D01*
X81926283Y-101300924D01*
X81800924Y-101426283D01*
X81702430Y-101573690D01*
X81634586Y-101737480D01*
X81600000Y-101911358D01*
X71786912Y-101911358D01*
X71855264Y-101855264D01*
X71917746Y-101779129D01*
X71964175Y-101692267D01*
X71992765Y-101598017D01*
X72002419Y-101500000D01*
X72002419Y-98500000D01*
X71992765Y-98401983D01*
X71964175Y-98307733D01*
X71917746Y-98220871D01*
X71855264Y-98144736D01*
X71779129Y-98082254D01*
X71692267Y-98035825D01*
X71598017Y-98007235D01*
X71500000Y-97997581D01*
X68500000Y-97997581D01*
X68401983Y-98007235D01*
X68307733Y-98035825D01*
X68220871Y-98082254D01*
X68144736Y-98144736D01*
X68082254Y-98220871D01*
X68035825Y-98307733D01*
X68007235Y-98401983D01*
X67997581Y-98500000D01*
X65525000Y-98500000D01*
X65525000Y-94411358D01*
X78600000Y-94411358D01*
X78600000Y-94588642D01*
X78634586Y-94762520D01*
X78702430Y-94926310D01*
X78751668Y-95000000D01*
X78702430Y-95073690D01*
X78634586Y-95237480D01*
X78600000Y-95411358D01*
X78600000Y-95588642D01*
X78634586Y-95762520D01*
X78702430Y-95926310D01*
X78751668Y-96000000D01*
X78702430Y-96073690D01*
X78634586Y-96237480D01*
X78600000Y-96411358D01*
X78600000Y-96588642D01*
X78634586Y-96762520D01*
X78702430Y-96926310D01*
X78751668Y-97000000D01*
X78702430Y-97073690D01*
X78634586Y-97237480D01*
X78600000Y-97411358D01*
X78600000Y-97588642D01*
X78634586Y-97762520D01*
X78702430Y-97926310D01*
X78800924Y-98073717D01*
X78926283Y-98199076D01*
X79073690Y-98297570D01*
X79237480Y-98365414D01*
X79411358Y-98400000D01*
X79588642Y-98400000D01*
X79762520Y-98365414D01*
X79926310Y-98297570D01*
X80073717Y-98199076D01*
X80199076Y-98073717D01*
X80297570Y-97926310D01*
X80365414Y-97762520D01*
X80400000Y-97588642D01*
X80400000Y-97411358D01*
X80365414Y-97237480D01*
X80297570Y-97073690D01*
X80248332Y-97000000D01*
X80297570Y-96926310D01*
X80365414Y-96762520D01*
X80400000Y-96588642D01*
X80400000Y-96411358D01*
X109100000Y-96411358D01*
X109100000Y-96588642D01*
X109134586Y-96762520D01*
X109202430Y-96926310D01*
X109300924Y-97073717D01*
X109426283Y-97199076D01*
X109573690Y-97297570D01*
X109737480Y-97365414D01*
X109911358Y-97400000D01*
X110088642Y-97400000D01*
X110262520Y-97365414D01*
X110426310Y-97297570D01*
X110491858Y-97253772D01*
X155500000Y-97253772D01*
X155500000Y-97746228D01*
X155596074Y-98229223D01*
X155784529Y-98684194D01*
X156058124Y-99093657D01*
X156406343Y-99441876D01*
X156815806Y-99715471D01*
X157270777Y-99903926D01*
X157753772Y-100000000D01*
X158246228Y-100000000D01*
X158729223Y-99903926D01*
X159184194Y-99715471D01*
X159593657Y-99441876D01*
X159941876Y-99093657D01*
X160215471Y-98684194D01*
X160403926Y-98229223D01*
X160500000Y-97746228D01*
X160500000Y-97253772D01*
X160403926Y-96770777D01*
X160215471Y-96315806D01*
X159941876Y-95906343D01*
X159593657Y-95558124D01*
X159184194Y-95284529D01*
X158729223Y-95096074D01*
X158246228Y-95000000D01*
X157753772Y-95000000D01*
X157270777Y-95096074D01*
X156815806Y-95284529D01*
X156406343Y-95558124D01*
X156058124Y-95906343D01*
X155784529Y-96315806D01*
X155596074Y-96770777D01*
X155500000Y-97253772D01*
X110491858Y-97253772D01*
X110573717Y-97199076D01*
X110699076Y-97073717D01*
X110797570Y-96926310D01*
X110865414Y-96762520D01*
X110900000Y-96588642D01*
X110900000Y-96411358D01*
X110865414Y-96237480D01*
X110797570Y-96073690D01*
X110699076Y-95926283D01*
X110573717Y-95800924D01*
X110426310Y-95702430D01*
X110262520Y-95634586D01*
X110088642Y-95600000D01*
X109911358Y-95600000D01*
X109737480Y-95634586D01*
X109573690Y-95702430D01*
X109426283Y-95800924D01*
X109300924Y-95926283D01*
X109202430Y-96073690D01*
X109134586Y-96237480D01*
X109100000Y-96411358D01*
X80400000Y-96411358D01*
X80365414Y-96237480D01*
X80297570Y-96073690D01*
X80248332Y-96000000D01*
X80297570Y-95926310D01*
X80365414Y-95762520D01*
X80400000Y-95588642D01*
X80400000Y-95411358D01*
X80365414Y-95237480D01*
X80297570Y-95073690D01*
X80248332Y-95000000D01*
X80297570Y-94926310D01*
X80365414Y-94762520D01*
X80400000Y-94588642D01*
X80400000Y-94411358D01*
X80365414Y-94237480D01*
X80297570Y-94073690D01*
X80199076Y-93926283D01*
X80073717Y-93800924D01*
X79926310Y-93702430D01*
X79762520Y-93634586D01*
X79588642Y-93600000D01*
X79411358Y-93600000D01*
X79237480Y-93634586D01*
X79073690Y-93702430D01*
X78926283Y-93800924D01*
X78800924Y-93926283D01*
X78702430Y-94073690D01*
X78634586Y-94237480D01*
X78600000Y-94411358D01*
X65525000Y-94411358D01*
X65525000Y-92125000D01*
X95448224Y-92125000D01*
X97911612Y-94588388D01*
X97911612Y-94588388D01*
G37*
X97911612Y-94588388D02*
X97930554Y-94603934D01*
X97952165Y-94615485D01*
X97975614Y-94622598D01*
X98000000Y-94625000D01*
X106285673Y-94625000D01*
X106237480Y-94634586D01*
X106073690Y-94702430D01*
X105926283Y-94800924D01*
X105800924Y-94926283D01*
X105702430Y-95073690D01*
X105634586Y-95237480D01*
X105600000Y-95411358D01*
X105600000Y-95588642D01*
X105634586Y-95762520D01*
X105702430Y-95926310D01*
X105800924Y-96073717D01*
X105926283Y-96199076D01*
X106073690Y-96297570D01*
X106237480Y-96365414D01*
X106411358Y-96400000D01*
X106588642Y-96400000D01*
X106762520Y-96365414D01*
X106926310Y-96297570D01*
X107073717Y-96199076D01*
X107199076Y-96073717D01*
X107297570Y-95926310D01*
X107365414Y-95762520D01*
X107400000Y-95588642D01*
X107400000Y-95411358D01*
X107365414Y-95237480D01*
X107297570Y-95073690D01*
X107199076Y-94926283D01*
X107073717Y-94800924D01*
X106926310Y-94702430D01*
X106762520Y-94634586D01*
X106714327Y-94625000D01*
X114948224Y-94625000D01*
X116911612Y-96588388D01*
X116930554Y-96603934D01*
X116952165Y-96615485D01*
X116975614Y-96622598D01*
X117000000Y-96625000D01*
X133000000Y-96625000D01*
X133024386Y-96622598D01*
X133047835Y-96615485D01*
X133069446Y-96603934D01*
X133088388Y-96588388D01*
X136051776Y-93625000D01*
X161975000Y-93625000D01*
X161975000Y-135475000D01*
X65525000Y-135475000D01*
X65525000Y-131253772D01*
X67000000Y-131253772D01*
X67000000Y-131746228D01*
X67096074Y-132229223D01*
X67284529Y-132684194D01*
X67558124Y-133093657D01*
X67906343Y-133441876D01*
X68315806Y-133715471D01*
X68770777Y-133903926D01*
X69253772Y-134000000D01*
X69746228Y-134000000D01*
X70229223Y-133903926D01*
X70684194Y-133715471D01*
X71093657Y-133441876D01*
X71441876Y-133093657D01*
X71715471Y-132684194D01*
X71903926Y-132229223D01*
X72000000Y-131746228D01*
X72000000Y-131253772D01*
X155500000Y-131253772D01*
X155500000Y-131746228D01*
X155596074Y-132229223D01*
X155784529Y-132684194D01*
X156058124Y-133093657D01*
X156406343Y-133441876D01*
X156815806Y-133715471D01*
X157270777Y-133903926D01*
X157753772Y-134000000D01*
X158246228Y-134000000D01*
X158729223Y-133903926D01*
X159184194Y-133715471D01*
X159593657Y-133441876D01*
X159941876Y-133093657D01*
X160215471Y-132684194D01*
X160403926Y-132229223D01*
X160500000Y-131746228D01*
X160500000Y-131253772D01*
X160403926Y-130770777D01*
X160215471Y-130315806D01*
X159941876Y-129906343D01*
X159593657Y-129558124D01*
X159184194Y-129284529D01*
X158729223Y-129096074D01*
X158246228Y-129000000D01*
X157753772Y-129000000D01*
X157270777Y-129096074D01*
X156815806Y-129284529D01*
X156406343Y-129558124D01*
X156058124Y-129906343D01*
X155784529Y-130315806D01*
X155596074Y-130770777D01*
X155500000Y-131253772D01*
X72000000Y-131253772D01*
X71903926Y-130770777D01*
X71715471Y-130315806D01*
X71441876Y-129906343D01*
X71093657Y-129558124D01*
X70684194Y-129284529D01*
X70229223Y-129096074D01*
X69746228Y-129000000D01*
X69253772Y-129000000D01*
X68770777Y-129096074D01*
X68315806Y-129284529D01*
X67906343Y-129558124D01*
X67558124Y-129906343D01*
X67284529Y-130315806D01*
X67096074Y-130770777D01*
X67000000Y-131253772D01*
X65525000Y-131253772D01*
X65525000Y-127411358D01*
X73600000Y-127411358D01*
X73600000Y-127588642D01*
X73634586Y-127762520D01*
X73702430Y-127926310D01*
X73800924Y-128073717D01*
X73926283Y-128199076D01*
X74073690Y-128297570D01*
X74237480Y-128365414D01*
X74411358Y-128400000D01*
X74588642Y-128400000D01*
X74618699Y-128394021D01*
X74652680Y-128476060D01*
X74751174Y-128623467D01*
X74876533Y-128748826D01*
X75023940Y-128847320D01*
X75187730Y-128915164D01*
X75361608Y-128949750D01*
X75538892Y-128949750D01*
X75712770Y-128915164D01*
X75839767Y-128862560D01*
X75926283Y-128949076D01*
X76073690Y-129047570D01*
X76237480Y-129115414D01*
X76285673Y-129125000D01*
X76237480Y-129134586D01*
X76073690Y-129202430D01*
X75926283Y-129300924D01*
X75800924Y-129426283D01*
X75702430Y-129573690D01*
X75634586Y-129737480D01*
X75600000Y-129911358D01*
X75600000Y-130088642D01*
X75634586Y-130262520D01*
X75702430Y-130426310D01*
X75800924Y-130573717D01*
X75926283Y-130699076D01*
X76073690Y-130797570D01*
X76237480Y-130865414D01*
X76411358Y-130900000D01*
X76588642Y-130900000D01*
X76762520Y-130865414D01*
X76926310Y-130797570D01*
X77073717Y-130699076D01*
X77199076Y-130573717D01*
X77297570Y-130426310D01*
X77365414Y-130262520D01*
X77400000Y-130088642D01*
X77400000Y-129911358D01*
X77395492Y-129888692D01*
X77512520Y-129865414D01*
X77676310Y-129797570D01*
X77823717Y-129699076D01*
X77949076Y-129573717D01*
X78047570Y-129426310D01*
X78095184Y-129311358D01*
X111300000Y-129311358D01*
X111300000Y-129488642D01*
X111334586Y-129662520D01*
X111402430Y-129826310D01*
X111500924Y-129973717D01*
X111626283Y-130099076D01*
X111773690Y-130197570D01*
X111937480Y-130265414D01*
X112111358Y-130300000D01*
X112288642Y-130300000D01*
X112462520Y-130265414D01*
X112626310Y-130197570D01*
X112773717Y-130099076D01*
X112899076Y-129973717D01*
X112997570Y-129826310D01*
X113065414Y-129662520D01*
X113100000Y-129488642D01*
X113100000Y-129311358D01*
X113065414Y-129137480D01*
X112997570Y-128973690D01*
X112955922Y-128911358D01*
X133100000Y-128911358D01*
X133100000Y-129088642D01*
X133134586Y-129262520D01*
X133202430Y-129426310D01*
X133300924Y-129573717D01*
X133426283Y-129699076D01*
X133573690Y-129797570D01*
X133737480Y-129865414D01*
X133911358Y-129900000D01*
X134088642Y-129900000D01*
X134262520Y-129865414D01*
X134426310Y-129797570D01*
X134573717Y-129699076D01*
X134699076Y-129573717D01*
X134797570Y-129426310D01*
X134865414Y-129262520D01*
X134900000Y-129088642D01*
X134900000Y-128911358D01*
X134865414Y-128737480D01*
X134797570Y-128573690D01*
X134699076Y-128426283D01*
X134573717Y-128300924D01*
X134426310Y-128202430D01*
X134262520Y-128134586D01*
X134088642Y-128100000D01*
X133911358Y-128100000D01*
X133737480Y-128134586D01*
X133573690Y-128202430D01*
X133426283Y-128300924D01*
X133300924Y-128426283D01*
X133202430Y-128573690D01*
X133134586Y-128737480D01*
X133100000Y-128911358D01*
X112955922Y-128911358D01*
X112899076Y-128826283D01*
X112773717Y-128700924D01*
X112626310Y-128602430D01*
X112462520Y-128534586D01*
X112288642Y-128500000D01*
X112111358Y-128500000D01*
X111937480Y-128534586D01*
X111773690Y-128602430D01*
X111626283Y-128700924D01*
X111500924Y-128826283D01*
X111402430Y-128973690D01*
X111334586Y-129137480D01*
X111300000Y-129311358D01*
X78095184Y-129311358D01*
X78115414Y-129262520D01*
X78150000Y-129088642D01*
X78150000Y-128911358D01*
X78115414Y-128737480D01*
X78047570Y-128573690D01*
X77949076Y-128426283D01*
X77823717Y-128300924D01*
X77676310Y-128202430D01*
X77512520Y-128134586D01*
X77389820Y-128110180D01*
X77365414Y-127987480D01*
X77297570Y-127823690D01*
X77199076Y-127676283D01*
X77073717Y-127550924D01*
X76926310Y-127452430D01*
X76762520Y-127384586D01*
X76588642Y-127350000D01*
X76411358Y-127350000D01*
X76237480Y-127384586D01*
X76110483Y-127437190D01*
X76023967Y-127350674D01*
X75876560Y-127252180D01*
X75712770Y-127184336D01*
X75597251Y-127161358D01*
X78600000Y-127161358D01*
X78600000Y-127338642D01*
X78634586Y-127512520D01*
X78702430Y-127676310D01*
X78800924Y-127823717D01*
X78926283Y-127949076D01*
X79073690Y-128047570D01*
X79237480Y-128115414D01*
X79411358Y-128150000D01*
X79588642Y-128150000D01*
X79762520Y-128115414D01*
X79926310Y-128047570D01*
X80073717Y-127949076D01*
X80199076Y-127823717D01*
X80297570Y-127676310D01*
X80365414Y-127512520D01*
X80400000Y-127338642D01*
X80400000Y-127161358D01*
X80365414Y-126987480D01*
X80297570Y-126823690D01*
X80199076Y-126676283D01*
X80073717Y-126550924D01*
X79926310Y-126452430D01*
X79762520Y-126384586D01*
X79588642Y-126350000D01*
X79411358Y-126350000D01*
X79237480Y-126384586D01*
X79073690Y-126452430D01*
X78926283Y-126550924D01*
X78800924Y-126676283D01*
X78702430Y-126823690D01*
X78634586Y-126987480D01*
X78600000Y-127161358D01*
X75597251Y-127161358D01*
X75538892Y-127149750D01*
X75361608Y-127149750D01*
X75331551Y-127155729D01*
X75297570Y-127073690D01*
X75199076Y-126926283D01*
X75073717Y-126800924D01*
X74926310Y-126702430D01*
X74762520Y-126634586D01*
X74588642Y-126600000D01*
X74411358Y-126600000D01*
X74237480Y-126634586D01*
X74073690Y-126702430D01*
X73926283Y-126800924D01*
X73800924Y-126926283D01*
X73702430Y-127073690D01*
X73634586Y-127237480D01*
X73600000Y-127411358D01*
X65525000Y-127411358D01*
X65525000Y-125661358D01*
X81600000Y-125661358D01*
X81600000Y-125838642D01*
X81634586Y-126012520D01*
X81702430Y-126176310D01*
X81800924Y-126323717D01*
X81926283Y-126449076D01*
X82073690Y-126547570D01*
X82237480Y-126615414D01*
X82411358Y-126650000D01*
X82588642Y-126650000D01*
X82762520Y-126615414D01*
X82926310Y-126547570D01*
X83073717Y-126449076D01*
X83199076Y-126323717D01*
X83297570Y-126176310D01*
X83365414Y-126012520D01*
X83400000Y-125838642D01*
X83400000Y-125661358D01*
X83365414Y-125487480D01*
X83297570Y-125323690D01*
X83199076Y-125176283D01*
X83073717Y-125050924D01*
X82926310Y-124952430D01*
X82762520Y-124884586D01*
X82588642Y-124850000D01*
X82411358Y-124850000D01*
X82237480Y-124884586D01*
X82073690Y-124952430D01*
X81926283Y-125050924D01*
X81800924Y-125176283D01*
X81702430Y-125323690D01*
X81634586Y-125487480D01*
X81600000Y-125661358D01*
X65525000Y-125661358D01*
X65525000Y-124161358D01*
X78600000Y-124161358D01*
X78600000Y-124338642D01*
X78634586Y-124512520D01*
X78702430Y-124676310D01*
X78800924Y-124823717D01*
X78926283Y-124949076D01*
X79073690Y-125047570D01*
X79237480Y-125115414D01*
X79411358Y-125150000D01*
X79588642Y-125150000D01*
X79762520Y-125115414D01*
X79926310Y-125047570D01*
X80073717Y-124949076D01*
X80199076Y-124823717D01*
X80297570Y-124676310D01*
X80365414Y-124512520D01*
X80400000Y-124338642D01*
X80400000Y-124311358D01*
X117500000Y-124311358D01*
X117500000Y-124488642D01*
X117534586Y-124662520D01*
X117602430Y-124826310D01*
X117700924Y-124973717D01*
X117826283Y-125099076D01*
X117973690Y-125197570D01*
X118100000Y-125249889D01*
X118100000Y-125288642D01*
X118134586Y-125462520D01*
X118202430Y-125626310D01*
X118300924Y-125773717D01*
X118426283Y-125899076D01*
X118573690Y-125997570D01*
X118737480Y-126065414D01*
X118911358Y-126100000D01*
X119088642Y-126100000D01*
X119262520Y-126065414D01*
X119426310Y-125997570D01*
X119573717Y-125899076D01*
X119699076Y-125773717D01*
X119797570Y-125626310D01*
X119865414Y-125462520D01*
X119900000Y-125288642D01*
X119900000Y-125111358D01*
X119865414Y-124937480D01*
X119797570Y-124773690D01*
X119699076Y-124626283D01*
X119573717Y-124500924D01*
X119426310Y-124402430D01*
X119300000Y-124350111D01*
X119300000Y-124311358D01*
X119265414Y-124137480D01*
X119197570Y-123973690D01*
X119099076Y-123826283D01*
X118973717Y-123700924D01*
X118826310Y-123602430D01*
X118662520Y-123534586D01*
X118488642Y-123500000D01*
X118311358Y-123500000D01*
X118137480Y-123534586D01*
X117973690Y-123602430D01*
X117826283Y-123700924D01*
X117700924Y-123826283D01*
X117602430Y-123973690D01*
X117534586Y-124137480D01*
X117500000Y-124311358D01*
X80400000Y-124311358D01*
X80400000Y-124161358D01*
X80365414Y-123987480D01*
X80297570Y-123823690D01*
X80199076Y-123676283D01*
X80073717Y-123550924D01*
X79926310Y-123452430D01*
X79762520Y-123384586D01*
X79588642Y-123350000D01*
X79411358Y-123350000D01*
X79237480Y-123384586D01*
X79073690Y-123452430D01*
X78926283Y-123550924D01*
X78800924Y-123676283D01*
X78702430Y-123823690D01*
X78634586Y-123987480D01*
X78600000Y-124161358D01*
X65525000Y-124161358D01*
X65525000Y-121711358D01*
X120500000Y-121711358D01*
X120500000Y-121888642D01*
X120534586Y-122062520D01*
X120602430Y-122226310D01*
X120700924Y-122373717D01*
X120826283Y-122499076D01*
X120973690Y-122597570D01*
X121137480Y-122665414D01*
X121311358Y-122700000D01*
X121488642Y-122700000D01*
X121662520Y-122665414D01*
X121826310Y-122597570D01*
X121973717Y-122499076D01*
X122099076Y-122373717D01*
X122197570Y-122226310D01*
X122265414Y-122062520D01*
X122300000Y-121888642D01*
X122300000Y-121711358D01*
X122265414Y-121537480D01*
X122197570Y-121373690D01*
X122099076Y-121226283D01*
X121973717Y-121100924D01*
X121826310Y-121002430D01*
X121662520Y-120934586D01*
X121488642Y-120900000D01*
X121311358Y-120900000D01*
X121137480Y-120934586D01*
X120973690Y-121002430D01*
X120826283Y-121100924D01*
X120700924Y-121226283D01*
X120602430Y-121373690D01*
X120534586Y-121537480D01*
X120500000Y-121711358D01*
X65525000Y-121711358D01*
X65525000Y-120511358D01*
X96500000Y-120511358D01*
X96500000Y-120688642D01*
X96534586Y-120862520D01*
X96602430Y-121026310D01*
X96700924Y-121173717D01*
X96826283Y-121299076D01*
X96973690Y-121397570D01*
X97137480Y-121465414D01*
X97311358Y-121500000D01*
X97488642Y-121500000D01*
X97662520Y-121465414D01*
X97826310Y-121397570D01*
X97973717Y-121299076D01*
X98099076Y-121173717D01*
X98197570Y-121026310D01*
X98265414Y-120862520D01*
X98300000Y-120688642D01*
X98300000Y-120511358D01*
X98265414Y-120337480D01*
X98197570Y-120173690D01*
X98099076Y-120026283D01*
X97973717Y-119900924D01*
X97826310Y-119802430D01*
X97662520Y-119734586D01*
X97488642Y-119700000D01*
X97311358Y-119700000D01*
X97137480Y-119734586D01*
X96973690Y-119802430D01*
X96826283Y-119900924D01*
X96700924Y-120026283D01*
X96602430Y-120173690D01*
X96534586Y-120337480D01*
X96500000Y-120511358D01*
X65525000Y-120511358D01*
X65525000Y-114111358D01*
X72300000Y-114111358D01*
X72300000Y-114288642D01*
X72334586Y-114462520D01*
X72402430Y-114626310D01*
X72451668Y-114700000D01*
X72402430Y-114773690D01*
X72334586Y-114937480D01*
X72300000Y-115111358D01*
X72300000Y-115288642D01*
X72334586Y-115462520D01*
X72402430Y-115626310D01*
X72451668Y-115700000D01*
X72402430Y-115773690D01*
X72334586Y-115937480D01*
X72300000Y-116111358D01*
X72300000Y-116288642D01*
X72334586Y-116462520D01*
X72402430Y-116626310D01*
X72451668Y-116700000D01*
X72402430Y-116773690D01*
X72334586Y-116937480D01*
X72300000Y-117111358D01*
X72300000Y-117288642D01*
X72334586Y-117462520D01*
X72402430Y-117626310D01*
X72500924Y-117773717D01*
X72626283Y-117899076D01*
X72773690Y-117997570D01*
X72937480Y-118065414D01*
X73111358Y-118100000D01*
X73288642Y-118100000D01*
X73462520Y-118065414D01*
X73626310Y-117997570D01*
X73755335Y-117911358D01*
X87500000Y-117911358D01*
X87500000Y-118088642D01*
X87534586Y-118262520D01*
X87602430Y-118426310D01*
X87700924Y-118573717D01*
X87826283Y-118699076D01*
X87973690Y-118797570D01*
X88137480Y-118865414D01*
X88311358Y-118900000D01*
X88488642Y-118900000D01*
X88662520Y-118865414D01*
X88826310Y-118797570D01*
X88955335Y-118711358D01*
X109500000Y-118711358D01*
X109500000Y-118888642D01*
X109534586Y-119062520D01*
X109602430Y-119226310D01*
X109700924Y-119373717D01*
X109826283Y-119499076D01*
X109973690Y-119597570D01*
X110137480Y-119665414D01*
X110311358Y-119700000D01*
X110488642Y-119700000D01*
X110502820Y-119697180D01*
X110500000Y-119711358D01*
X110500000Y-119888642D01*
X110534586Y-120062520D01*
X110602430Y-120226310D01*
X110700924Y-120373717D01*
X110826283Y-120499076D01*
X110973690Y-120597570D01*
X111137480Y-120665414D01*
X111311358Y-120700000D01*
X111488642Y-120700000D01*
X111662520Y-120665414D01*
X111826310Y-120597570D01*
X111973717Y-120499076D01*
X112099076Y-120373717D01*
X112197570Y-120226310D01*
X112265414Y-120062520D01*
X112300000Y-119888642D01*
X112300000Y-119711358D01*
X112265414Y-119537480D01*
X112197570Y-119373690D01*
X112099076Y-119226283D01*
X111973717Y-119100924D01*
X111826310Y-119002430D01*
X111662520Y-118934586D01*
X111488642Y-118900000D01*
X111311358Y-118900000D01*
X111297180Y-118902820D01*
X111300000Y-118888642D01*
X111300000Y-118711358D01*
X111265414Y-118537480D01*
X111213173Y-118411358D01*
X124000000Y-118411358D01*
X124000000Y-118588642D01*
X124034586Y-118762520D01*
X124102430Y-118926310D01*
X124200924Y-119073717D01*
X124326283Y-119199076D01*
X124473690Y-119297570D01*
X124637480Y-119365414D01*
X124811358Y-119400000D01*
X124988642Y-119400000D01*
X125162520Y-119365414D01*
X125326310Y-119297570D01*
X125473717Y-119199076D01*
X125550000Y-119122793D01*
X125626283Y-119199076D01*
X125773690Y-119297570D01*
X125937480Y-119365414D01*
X126111358Y-119400000D01*
X126288642Y-119400000D01*
X126462520Y-119365414D01*
X126626310Y-119297570D01*
X126773717Y-119199076D01*
X126899076Y-119073717D01*
X126997570Y-118926310D01*
X127065414Y-118762520D01*
X127100000Y-118588642D01*
X127100000Y-118411358D01*
X127065414Y-118237480D01*
X126997570Y-118073690D01*
X126899076Y-117926283D01*
X126773717Y-117800924D01*
X126626310Y-117702430D01*
X126462520Y-117634586D01*
X126288642Y-117600000D01*
X126111358Y-117600000D01*
X125937480Y-117634586D01*
X125773690Y-117702430D01*
X125626283Y-117800924D01*
X125550000Y-117877207D01*
X125473717Y-117800924D01*
X125326310Y-117702430D01*
X125162520Y-117634586D01*
X124988642Y-117600000D01*
X124811358Y-117600000D01*
X124637480Y-117634586D01*
X124473690Y-117702430D01*
X124326283Y-117800924D01*
X124200924Y-117926283D01*
X124102430Y-118073690D01*
X124034586Y-118237480D01*
X124000000Y-118411358D01*
X111213173Y-118411358D01*
X111197570Y-118373690D01*
X111099076Y-118226283D01*
X110973717Y-118100924D01*
X110826310Y-118002430D01*
X110662520Y-117934586D01*
X110488642Y-117900000D01*
X110311358Y-117900000D01*
X110137480Y-117934586D01*
X109973690Y-118002430D01*
X109826283Y-118100924D01*
X109700924Y-118226283D01*
X109602430Y-118373690D01*
X109534586Y-118537480D01*
X109500000Y-118711358D01*
X88955335Y-118711358D01*
X88973717Y-118699076D01*
X89099076Y-118573717D01*
X89197570Y-118426310D01*
X89265414Y-118262520D01*
X89300000Y-118088642D01*
X89300000Y-117911358D01*
X89265414Y-117737480D01*
X89197570Y-117573690D01*
X89099076Y-117426283D01*
X88973717Y-117300924D01*
X88826310Y-117202430D01*
X88662520Y-117134586D01*
X88488642Y-117100000D01*
X88311358Y-117100000D01*
X88137480Y-117134586D01*
X87973690Y-117202430D01*
X87826283Y-117300924D01*
X87700924Y-117426283D01*
X87602430Y-117573690D01*
X87534586Y-117737480D01*
X87500000Y-117911358D01*
X73755335Y-117911358D01*
X73773717Y-117899076D01*
X73899076Y-117773717D01*
X73997570Y-117626310D01*
X74065414Y-117462520D01*
X74100000Y-117288642D01*
X74100000Y-117111358D01*
X74065414Y-116937480D01*
X73997570Y-116773690D01*
X73948332Y-116700000D01*
X73997570Y-116626310D01*
X74065414Y-116462520D01*
X74083427Y-116371961D01*
X101450000Y-116371961D01*
X101450000Y-116628039D01*
X101499958Y-116879196D01*
X101597955Y-117115781D01*
X101740224Y-117328702D01*
X101921298Y-117509776D01*
X102134219Y-117652045D01*
X102370804Y-117750042D01*
X102621961Y-117800000D01*
X102878039Y-117800000D01*
X103129196Y-117750042D01*
X103365781Y-117652045D01*
X103578702Y-117509776D01*
X103759776Y-117328702D01*
X103771364Y-117311358D01*
X111300000Y-117311358D01*
X111300000Y-117488642D01*
X111334586Y-117662520D01*
X111402430Y-117826310D01*
X111500924Y-117973717D01*
X111626283Y-118099076D01*
X111773690Y-118197570D01*
X111937480Y-118265414D01*
X112111358Y-118300000D01*
X112288642Y-118300000D01*
X112462520Y-118265414D01*
X112626310Y-118197570D01*
X112773717Y-118099076D01*
X112899076Y-117973717D01*
X112997570Y-117826310D01*
X113065414Y-117662520D01*
X113100000Y-117488642D01*
X113100000Y-117311358D01*
X113065414Y-117137480D01*
X112997570Y-116973690D01*
X112899076Y-116826283D01*
X112773717Y-116700924D01*
X112626310Y-116602430D01*
X112462520Y-116534586D01*
X112288642Y-116500000D01*
X112111358Y-116500000D01*
X111937480Y-116534586D01*
X111773690Y-116602430D01*
X111626283Y-116700924D01*
X111500924Y-116826283D01*
X111402430Y-116973690D01*
X111334586Y-117137480D01*
X111300000Y-117311358D01*
X103771364Y-117311358D01*
X103902045Y-117115781D01*
X104000042Y-116879196D01*
X104050000Y-116628039D01*
X104050000Y-116371961D01*
X104000042Y-116120804D01*
X103902045Y-115884219D01*
X103786544Y-115711358D01*
X113700000Y-115711358D01*
X113700000Y-115888642D01*
X113734586Y-116062520D01*
X113802430Y-116226310D01*
X113900924Y-116373717D01*
X114026283Y-116499076D01*
X114173690Y-116597570D01*
X114337480Y-116665414D01*
X114511358Y-116700000D01*
X114688642Y-116700000D01*
X114862520Y-116665414D01*
X115026310Y-116597570D01*
X115173717Y-116499076D01*
X115299076Y-116373717D01*
X115397570Y-116226310D01*
X115465414Y-116062520D01*
X115500000Y-115888642D01*
X115500000Y-115711358D01*
X115465414Y-115537480D01*
X115454594Y-115511358D01*
X120900000Y-115511358D01*
X120900000Y-115688642D01*
X120934586Y-115862520D01*
X121002430Y-116026310D01*
X121100924Y-116173717D01*
X121226283Y-116299076D01*
X121373690Y-116397570D01*
X121537480Y-116465414D01*
X121711358Y-116500000D01*
X121888642Y-116500000D01*
X122062520Y-116465414D01*
X122226310Y-116397570D01*
X122373717Y-116299076D01*
X122499076Y-116173717D01*
X122597570Y-116026310D01*
X122665414Y-115862520D01*
X122700000Y-115688642D01*
X122700000Y-115511358D01*
X122665414Y-115337480D01*
X122597570Y-115173690D01*
X122499076Y-115026283D01*
X122373717Y-114900924D01*
X122226310Y-114802430D01*
X122062520Y-114734586D01*
X121888642Y-114700000D01*
X121711358Y-114700000D01*
X121537480Y-114734586D01*
X121373690Y-114802430D01*
X121226283Y-114900924D01*
X121100924Y-115026283D01*
X121002430Y-115173690D01*
X120934586Y-115337480D01*
X120900000Y-115511358D01*
X115454594Y-115511358D01*
X115397570Y-115373690D01*
X115299076Y-115226283D01*
X115173717Y-115100924D01*
X115026310Y-115002430D01*
X114862520Y-114934586D01*
X114688642Y-114900000D01*
X114511358Y-114900000D01*
X114337480Y-114934586D01*
X114173690Y-115002430D01*
X114026283Y-115100924D01*
X113900924Y-115226283D01*
X113802430Y-115373690D01*
X113734586Y-115537480D01*
X113700000Y-115711358D01*
X103786544Y-115711358D01*
X103759776Y-115671298D01*
X103578702Y-115490224D01*
X103365781Y-115347955D01*
X103129196Y-115249958D01*
X102878039Y-115200000D01*
X102621961Y-115200000D01*
X102370804Y-115249958D01*
X102134219Y-115347955D01*
X101921298Y-115490224D01*
X101740224Y-115671298D01*
X101597955Y-115884219D01*
X101499958Y-116120804D01*
X101450000Y-116371961D01*
X74083427Y-116371961D01*
X74100000Y-116288642D01*
X74100000Y-116111358D01*
X74065414Y-115937480D01*
X73997570Y-115773690D01*
X73948332Y-115700000D01*
X73997570Y-115626310D01*
X74065414Y-115462520D01*
X74100000Y-115288642D01*
X74100000Y-115111358D01*
X74065414Y-114937480D01*
X73997570Y-114773690D01*
X73948332Y-114700000D01*
X73997570Y-114626310D01*
X74065414Y-114462520D01*
X74100000Y-114288642D01*
X74100000Y-114111358D01*
X74065414Y-113937480D01*
X73997570Y-113773690D01*
X73899076Y-113626283D01*
X73773717Y-113500924D01*
X73626310Y-113402430D01*
X73462520Y-113334586D01*
X73288642Y-113300000D01*
X73111358Y-113300000D01*
X72937480Y-113334586D01*
X72773690Y-113402430D01*
X72626283Y-113500924D01*
X72500924Y-113626283D01*
X72402430Y-113773690D01*
X72334586Y-113937480D01*
X72300000Y-114111358D01*
X65525000Y-114111358D01*
X65525000Y-112871961D01*
X101450000Y-112871961D01*
X101450000Y-113128039D01*
X101499958Y-113379196D01*
X101597955Y-113615781D01*
X101740224Y-113828702D01*
X101921298Y-114009776D01*
X102134219Y-114152045D01*
X102370804Y-114250042D01*
X102621961Y-114300000D01*
X102878039Y-114300000D01*
X103129196Y-114250042D01*
X103365781Y-114152045D01*
X103578702Y-114009776D01*
X103627120Y-113961358D01*
X108600000Y-113961358D01*
X108600000Y-114138642D01*
X108634586Y-114312520D01*
X108702430Y-114476310D01*
X108800924Y-114623717D01*
X108926283Y-114749076D01*
X109073690Y-114847570D01*
X109237480Y-114915414D01*
X109411358Y-114950000D01*
X109588642Y-114950000D01*
X109762520Y-114915414D01*
X109926310Y-114847570D01*
X110073717Y-114749076D01*
X110199076Y-114623717D01*
X110297570Y-114476310D01*
X110365414Y-114312520D01*
X110365645Y-114311358D01*
X149100000Y-114311358D01*
X149100000Y-114488642D01*
X149134586Y-114662520D01*
X149202430Y-114826310D01*
X149300924Y-114973717D01*
X149426283Y-115099076D01*
X149573690Y-115197570D01*
X149737480Y-115265414D01*
X149911358Y-115300000D01*
X150088642Y-115300000D01*
X150262520Y-115265414D01*
X150426310Y-115197570D01*
X150573717Y-115099076D01*
X150699076Y-114973717D01*
X150797570Y-114826310D01*
X150865414Y-114662520D01*
X150900000Y-114488642D01*
X150900000Y-114311358D01*
X150865414Y-114137480D01*
X150797570Y-113973690D01*
X150699076Y-113826283D01*
X150573717Y-113700924D01*
X150426310Y-113602430D01*
X150262520Y-113534586D01*
X150088642Y-113500000D01*
X149911358Y-113500000D01*
X149737480Y-113534586D01*
X149573690Y-113602430D01*
X149426283Y-113700924D01*
X149300924Y-113826283D01*
X149202430Y-113973690D01*
X149134586Y-114137480D01*
X149100000Y-114311358D01*
X110365645Y-114311358D01*
X110400000Y-114138642D01*
X110400000Y-113961358D01*
X110365414Y-113787480D01*
X110297570Y-113623690D01*
X110199076Y-113476283D01*
X110073717Y-113350924D01*
X109926310Y-113252430D01*
X109762520Y-113184586D01*
X109588642Y-113150000D01*
X109411358Y-113150000D01*
X109237480Y-113184586D01*
X109073690Y-113252430D01*
X108926283Y-113350924D01*
X108800924Y-113476283D01*
X108702430Y-113623690D01*
X108634586Y-113787480D01*
X108600000Y-113961358D01*
X103627120Y-113961358D01*
X103759776Y-113828702D01*
X103902045Y-113615781D01*
X104000042Y-113379196D01*
X104050000Y-113128039D01*
X104050000Y-112871961D01*
X104000042Y-112620804D01*
X103902045Y-112384219D01*
X103759776Y-112171298D01*
X103699836Y-112111358D01*
X114500000Y-112111358D01*
X114500000Y-112288642D01*
X114534586Y-112462520D01*
X114602430Y-112626310D01*
X114700924Y-112773717D01*
X114826283Y-112899076D01*
X114973690Y-112997570D01*
X115111296Y-113054568D01*
X115100000Y-113111358D01*
X115100000Y-113288642D01*
X115134586Y-113462520D01*
X115202430Y-113626310D01*
X115300924Y-113773717D01*
X115426283Y-113899076D01*
X115573690Y-113997570D01*
X115737480Y-114065414D01*
X115911358Y-114100000D01*
X116088642Y-114100000D01*
X116262520Y-114065414D01*
X116426310Y-113997570D01*
X116573717Y-113899076D01*
X116699076Y-113773717D01*
X116797570Y-113626310D01*
X116865414Y-113462520D01*
X116895481Y-113311358D01*
X123500000Y-113311358D01*
X123500000Y-113488642D01*
X123534586Y-113662520D01*
X123602430Y-113826310D01*
X123700924Y-113973717D01*
X123826283Y-114099076D01*
X123973690Y-114197570D01*
X124137480Y-114265414D01*
X124311358Y-114300000D01*
X124488642Y-114300000D01*
X124662520Y-114265414D01*
X124826310Y-114197570D01*
X124973717Y-114099076D01*
X125099076Y-113973717D01*
X125197570Y-113826310D01*
X125265414Y-113662520D01*
X125300000Y-113488642D01*
X125300000Y-113311358D01*
X142100000Y-113311358D01*
X142100000Y-113488642D01*
X142134586Y-113662520D01*
X142202430Y-113826310D01*
X142300924Y-113973717D01*
X142426283Y-114099076D01*
X142573690Y-114197570D01*
X142737480Y-114265414D01*
X142911358Y-114300000D01*
X143088642Y-114300000D01*
X143262520Y-114265414D01*
X143426310Y-114197570D01*
X143573717Y-114099076D01*
X143699076Y-113973717D01*
X143797570Y-113826310D01*
X143865414Y-113662520D01*
X143900000Y-113488642D01*
X143900000Y-113311358D01*
X143865414Y-113137480D01*
X143797570Y-112973690D01*
X143699076Y-112826283D01*
X143584151Y-112711358D01*
X153700000Y-112711358D01*
X153700000Y-112888642D01*
X153734586Y-113062520D01*
X153802430Y-113226310D01*
X153900924Y-113373717D01*
X154026283Y-113499076D01*
X154173690Y-113597570D01*
X154337480Y-113665414D01*
X154511358Y-113700000D01*
X154688642Y-113700000D01*
X154862520Y-113665414D01*
X155026310Y-113597570D01*
X155173717Y-113499076D01*
X155299076Y-113373717D01*
X155397570Y-113226310D01*
X155465414Y-113062520D01*
X155500000Y-112888642D01*
X155500000Y-112711358D01*
X155465414Y-112537480D01*
X155397570Y-112373690D01*
X155299076Y-112226283D01*
X155173717Y-112100924D01*
X155026310Y-112002430D01*
X154862520Y-111934586D01*
X154688642Y-111900000D01*
X154511358Y-111900000D01*
X154337480Y-111934586D01*
X154173690Y-112002430D01*
X154026283Y-112100924D01*
X153900924Y-112226283D01*
X153802430Y-112373690D01*
X153734586Y-112537480D01*
X153700000Y-112711358D01*
X143584151Y-112711358D01*
X143573717Y-112700924D01*
X143426310Y-112602430D01*
X143262520Y-112534586D01*
X143088642Y-112500000D01*
X142911358Y-112500000D01*
X142737480Y-112534586D01*
X142573690Y-112602430D01*
X142426283Y-112700924D01*
X142300924Y-112826283D01*
X142202430Y-112973690D01*
X142134586Y-113137480D01*
X142100000Y-113311358D01*
X125300000Y-113311358D01*
X125265414Y-113137480D01*
X125197570Y-112973690D01*
X125099076Y-112826283D01*
X124973717Y-112700924D01*
X124826310Y-112602430D01*
X124662520Y-112534586D01*
X124488642Y-112500000D01*
X124311358Y-112500000D01*
X124137480Y-112534586D01*
X123973690Y-112602430D01*
X123826283Y-112700924D01*
X123700924Y-112826283D01*
X123602430Y-112973690D01*
X123534586Y-113137480D01*
X123500000Y-113311358D01*
X116895481Y-113311358D01*
X116900000Y-113288642D01*
X116900000Y-113111358D01*
X116865414Y-112937480D01*
X116797570Y-112773690D01*
X116699076Y-112626283D01*
X116573717Y-112500924D01*
X116426310Y-112402430D01*
X116288704Y-112345432D01*
X116300000Y-112288642D01*
X116300000Y-112111358D01*
X120500000Y-112111358D01*
X120500000Y-112288642D01*
X120534586Y-112462520D01*
X120602430Y-112626310D01*
X120700924Y-112773717D01*
X120826283Y-112899076D01*
X120973690Y-112997570D01*
X121137480Y-113065414D01*
X121311358Y-113100000D01*
X121488642Y-113100000D01*
X121662520Y-113065414D01*
X121826310Y-112997570D01*
X121973717Y-112899076D01*
X122099076Y-112773717D01*
X122197570Y-112626310D01*
X122265414Y-112462520D01*
X122300000Y-112288642D01*
X122300000Y-112111358D01*
X122265414Y-111937480D01*
X122254594Y-111911358D01*
X133100000Y-111911358D01*
X133100000Y-112088642D01*
X133134586Y-112262520D01*
X133202430Y-112426310D01*
X133300924Y-112573717D01*
X133426283Y-112699076D01*
X133573690Y-112797570D01*
X133737480Y-112865414D01*
X133911358Y-112900000D01*
X134088642Y-112900000D01*
X134262520Y-112865414D01*
X134426310Y-112797570D01*
X134573717Y-112699076D01*
X134699076Y-112573717D01*
X134797570Y-112426310D01*
X134865414Y-112262520D01*
X134900000Y-112088642D01*
X134900000Y-111948332D01*
X134973717Y-111899076D01*
X135099076Y-111773717D01*
X135197570Y-111626310D01*
X135264566Y-111464566D01*
X135426310Y-111397570D01*
X135573717Y-111299076D01*
X135699076Y-111173717D01*
X135797570Y-111026310D01*
X135865414Y-110862520D01*
X135900000Y-110688642D01*
X135900000Y-110511358D01*
X135865414Y-110337480D01*
X135797570Y-110173690D01*
X135699076Y-110026283D01*
X135573717Y-109900924D01*
X135426310Y-109802430D01*
X135262520Y-109734586D01*
X135088642Y-109700000D01*
X134911358Y-109700000D01*
X134737480Y-109734586D01*
X134573690Y-109802430D01*
X134426283Y-109900924D01*
X134300924Y-110026283D01*
X134202430Y-110173690D01*
X134135434Y-110335434D01*
X133973690Y-110402430D01*
X133826283Y-110500924D01*
X133700924Y-110626283D01*
X133602430Y-110773690D01*
X133534586Y-110937480D01*
X133500000Y-111111358D01*
X133500000Y-111251668D01*
X133426283Y-111300924D01*
X133300924Y-111426283D01*
X133202430Y-111573690D01*
X133134586Y-111737480D01*
X133100000Y-111911358D01*
X122254594Y-111911358D01*
X122197570Y-111773690D01*
X122099076Y-111626283D01*
X121973717Y-111500924D01*
X121826310Y-111402430D01*
X121662520Y-111334586D01*
X121488642Y-111300000D01*
X121311358Y-111300000D01*
X121137480Y-111334586D01*
X120973690Y-111402430D01*
X120826283Y-111500924D01*
X120700924Y-111626283D01*
X120602430Y-111773690D01*
X120534586Y-111937480D01*
X120500000Y-112111358D01*
X116300000Y-112111358D01*
X116265414Y-111937480D01*
X116197570Y-111773690D01*
X116099076Y-111626283D01*
X115973717Y-111500924D01*
X115826310Y-111402430D01*
X115662520Y-111334586D01*
X115488642Y-111300000D01*
X115311358Y-111300000D01*
X115137480Y-111334586D01*
X114973690Y-111402430D01*
X114826283Y-111500924D01*
X114700924Y-111626283D01*
X114602430Y-111773690D01*
X114534586Y-111937480D01*
X114500000Y-112111358D01*
X103699836Y-112111358D01*
X103578702Y-111990224D01*
X103365781Y-111847955D01*
X103129196Y-111749958D01*
X102878039Y-111700000D01*
X102621961Y-111700000D01*
X102370804Y-111749958D01*
X102134219Y-111847955D01*
X101921298Y-111990224D01*
X101740224Y-112171298D01*
X101597955Y-112384219D01*
X101499958Y-112620804D01*
X101450000Y-112871961D01*
X65525000Y-112871961D01*
X65525000Y-109963017D01*
X68000000Y-109963017D01*
X68000000Y-110356983D01*
X68076859Y-110743378D01*
X68227623Y-111107355D01*
X68446499Y-111434926D01*
X68725074Y-111713501D01*
X69052645Y-111932377D01*
X69416622Y-112083141D01*
X69803017Y-112160000D01*
X70196983Y-112160000D01*
X70583378Y-112083141D01*
X70947355Y-111932377D01*
X71274926Y-111713501D01*
X71553501Y-111434926D01*
X71772377Y-111107355D01*
X71923141Y-110743378D01*
X72000000Y-110356983D01*
X72000000Y-109963017D01*
X71989725Y-109911358D01*
X90900000Y-109911358D01*
X90900000Y-110088642D01*
X90934586Y-110262520D01*
X91002430Y-110426310D01*
X91100924Y-110573717D01*
X91226283Y-110699076D01*
X91373690Y-110797570D01*
X91500000Y-110849889D01*
X91500000Y-110888642D01*
X91534586Y-111062520D01*
X91602430Y-111226310D01*
X91700924Y-111373717D01*
X91826283Y-111499076D01*
X91973690Y-111597570D01*
X92137480Y-111665414D01*
X92311358Y-111700000D01*
X92488642Y-111700000D01*
X92662520Y-111665414D01*
X92826310Y-111597570D01*
X92973717Y-111499076D01*
X93099076Y-111373717D01*
X93197570Y-111226310D01*
X93265414Y-111062520D01*
X93300000Y-110888642D01*
X93300000Y-110711358D01*
X93265414Y-110537480D01*
X93197570Y-110373690D01*
X93099076Y-110226283D01*
X92973717Y-110100924D01*
X92826310Y-110002430D01*
X92700000Y-109950111D01*
X92700000Y-109911358D01*
X92665414Y-109737480D01*
X92597570Y-109573690D01*
X92499076Y-109426283D01*
X92373717Y-109300924D01*
X92226310Y-109202430D01*
X92062520Y-109134586D01*
X91888642Y-109100000D01*
X91711358Y-109100000D01*
X91537480Y-109134586D01*
X91373690Y-109202430D01*
X91226283Y-109300924D01*
X91100924Y-109426283D01*
X91002430Y-109573690D01*
X90934586Y-109737480D01*
X90900000Y-109911358D01*
X71989725Y-109911358D01*
X71923141Y-109576622D01*
X71772377Y-109212645D01*
X71553501Y-108885074D01*
X71379785Y-108711358D01*
X106100000Y-108711358D01*
X106100000Y-108888642D01*
X106134586Y-109062520D01*
X106202430Y-109226310D01*
X106300924Y-109373717D01*
X106426283Y-109499076D01*
X106573690Y-109597570D01*
X106737480Y-109665414D01*
X106911358Y-109700000D01*
X107088642Y-109700000D01*
X107262520Y-109665414D01*
X107426310Y-109597570D01*
X107555335Y-109511358D01*
X145900000Y-109511358D01*
X145900000Y-109688642D01*
X145934586Y-109862520D01*
X146002430Y-110026310D01*
X146100924Y-110173717D01*
X146226283Y-110299076D01*
X146373690Y-110397570D01*
X146537480Y-110465414D01*
X146711358Y-110500000D01*
X146888642Y-110500000D01*
X147062520Y-110465414D01*
X147226310Y-110397570D01*
X147373717Y-110299076D01*
X147499076Y-110173717D01*
X147597570Y-110026310D01*
X147665414Y-109862520D01*
X147700000Y-109688642D01*
X147700000Y-109511358D01*
X147665414Y-109337480D01*
X147597570Y-109173690D01*
X147499076Y-109026283D01*
X147373717Y-108900924D01*
X147226310Y-108802430D01*
X147062520Y-108734586D01*
X146888642Y-108700000D01*
X146711358Y-108700000D01*
X146537480Y-108734586D01*
X146373690Y-108802430D01*
X146226283Y-108900924D01*
X146100924Y-109026283D01*
X146002430Y-109173690D01*
X145934586Y-109337480D01*
X145900000Y-109511358D01*
X107555335Y-109511358D01*
X107573717Y-109499076D01*
X107699076Y-109373717D01*
X107797570Y-109226310D01*
X107865414Y-109062520D01*
X107900000Y-108888642D01*
X107900000Y-108711358D01*
X107865414Y-108537480D01*
X107797570Y-108373690D01*
X107699076Y-108226283D01*
X107573717Y-108100924D01*
X107426310Y-108002430D01*
X107262520Y-107934586D01*
X107088642Y-107900000D01*
X106911358Y-107900000D01*
X106737480Y-107934586D01*
X106573690Y-108002430D01*
X106426283Y-108100924D01*
X106300924Y-108226283D01*
X106202430Y-108373690D01*
X106134586Y-108537480D01*
X106100000Y-108711358D01*
X71379785Y-108711358D01*
X71274926Y-108606499D01*
X70947355Y-108387623D01*
X70583378Y-108236859D01*
X70196983Y-108160000D01*
X69803017Y-108160000D01*
X69416622Y-108236859D01*
X69052645Y-108387623D01*
X68725074Y-108606499D01*
X68446499Y-108885074D01*
X68227623Y-109212645D01*
X68076859Y-109576622D01*
X68000000Y-109963017D01*
X65525000Y-109963017D01*
X65525000Y-106564981D01*
X68691796Y-106564981D01*
X68848192Y-106877990D01*
X69221094Y-107068149D01*
X69623929Y-107181904D01*
X70041216Y-107214884D01*
X70456920Y-107165822D01*
X70855064Y-107036603D01*
X71089380Y-106911358D01*
X87350000Y-106911358D01*
X87350000Y-107088642D01*
X87384586Y-107262520D01*
X87452430Y-107426310D01*
X87550924Y-107573717D01*
X87676283Y-107699076D01*
X87823690Y-107797570D01*
X87987480Y-107865414D01*
X88161358Y-107900000D01*
X88338642Y-107900000D01*
X88512520Y-107865414D01*
X88676310Y-107797570D01*
X88823717Y-107699076D01*
X88949076Y-107573717D01*
X89047570Y-107426310D01*
X89115414Y-107262520D01*
X89150000Y-107088642D01*
X89150000Y-106911358D01*
X89115414Y-106737480D01*
X89047570Y-106573690D01*
X88949076Y-106426283D01*
X88823717Y-106300924D01*
X88676310Y-106202430D01*
X88512520Y-106134586D01*
X88338642Y-106100000D01*
X88161358Y-106100000D01*
X87987480Y-106134586D01*
X87823690Y-106202430D01*
X87676283Y-106300924D01*
X87550924Y-106426283D01*
X87452430Y-106573690D01*
X87384586Y-106737480D01*
X87350000Y-106911358D01*
X71089380Y-106911358D01*
X71151808Y-106877990D01*
X71308204Y-106564981D01*
X70000000Y-105256777D01*
X68691796Y-106564981D01*
X65525000Y-106564981D01*
X65525000Y-105121216D01*
X67865116Y-105121216D01*
X67914178Y-105536920D01*
X68043397Y-105935064D01*
X68202010Y-106231808D01*
X68515019Y-106388204D01*
X69823223Y-105080000D01*
X70176777Y-105080000D01*
X71484981Y-106388204D01*
X71797990Y-106231808D01*
X71988149Y-105858906D01*
X72101904Y-105456071D01*
X72134884Y-105038784D01*
X72085822Y-104623080D01*
X71984652Y-104311358D01*
X134700000Y-104311358D01*
X134700000Y-104488642D01*
X134734586Y-104662520D01*
X134802430Y-104826310D01*
X134900924Y-104973717D01*
X135026283Y-105099076D01*
X135173690Y-105197570D01*
X135337480Y-105265414D01*
X135511358Y-105300000D01*
X135688642Y-105300000D01*
X135862520Y-105265414D01*
X136026310Y-105197570D01*
X136173717Y-105099076D01*
X136299076Y-104973717D01*
X136397570Y-104826310D01*
X136465414Y-104662520D01*
X136500000Y-104488642D01*
X136500000Y-104311358D01*
X136465414Y-104137480D01*
X136397570Y-103973690D01*
X136299076Y-103826283D01*
X136173717Y-103700924D01*
X136026310Y-103602430D01*
X135862520Y-103534586D01*
X135688642Y-103500000D01*
X135511358Y-103500000D01*
X135337480Y-103534586D01*
X135173690Y-103602430D01*
X135026283Y-103700924D01*
X134900924Y-103826283D01*
X134802430Y-103973690D01*
X134734586Y-104137480D01*
X134700000Y-104311358D01*
X71984652Y-104311358D01*
X71956603Y-104224936D01*
X71797990Y-103928192D01*
X71484981Y-103771796D01*
X70176777Y-105080000D01*
X69823223Y-105080000D01*
X68515019Y-103771796D01*
X68202010Y-103928192D01*
X68011851Y-104301094D01*
X67898096Y-104703929D01*
X67865116Y-105121216D01*
X65525000Y-105121216D01*
X65525000Y-103595019D01*
X68691796Y-103595019D01*
X70000000Y-104903223D01*
X71308204Y-103595019D01*
X71151808Y-103282010D01*
X70778906Y-103091851D01*
X70376071Y-102978096D01*
X69958784Y-102945116D01*
X69543080Y-102994178D01*
X69144936Y-103123397D01*
X68848192Y-103282010D01*
X68691796Y-103595019D01*
X65525000Y-103595019D01*
X65525000Y-98500000D01*
X67997581Y-98500000D01*
X67997581Y-101500000D01*
X68007235Y-101598017D01*
X68035825Y-101692267D01*
X68082254Y-101779129D01*
X68144736Y-101855264D01*
X68220871Y-101917746D01*
X68307733Y-101964175D01*
X68401983Y-101992765D01*
X68500000Y-102002419D01*
X71500000Y-102002419D01*
X71598017Y-101992765D01*
X71692267Y-101964175D01*
X71779129Y-101917746D01*
X71786912Y-101911358D01*
X81600000Y-101911358D01*
X81600000Y-102088642D01*
X81634586Y-102262520D01*
X81702430Y-102426310D01*
X81800924Y-102573717D01*
X81852207Y-102625000D01*
X81800924Y-102676283D01*
X81702430Y-102823690D01*
X81634586Y-102987480D01*
X81600000Y-103161358D01*
X81600000Y-103338642D01*
X81634586Y-103512520D01*
X81702430Y-103676310D01*
X81800924Y-103823717D01*
X81926283Y-103949076D01*
X82073690Y-104047570D01*
X82237480Y-104115414D01*
X82411358Y-104150000D01*
X82588642Y-104150000D01*
X82762520Y-104115414D01*
X82926310Y-104047570D01*
X83073717Y-103949076D01*
X83125000Y-103897793D01*
X83176283Y-103949076D01*
X83323690Y-104047570D01*
X83487480Y-104115414D01*
X83661358Y-104150000D01*
X83838642Y-104150000D01*
X84012520Y-104115414D01*
X84176310Y-104047570D01*
X84323717Y-103949076D01*
X84449076Y-103823717D01*
X84547570Y-103676310D01*
X84615414Y-103512520D01*
X84650000Y-103338642D01*
X84650000Y-103161358D01*
X84615414Y-102987480D01*
X84547570Y-102823690D01*
X84449076Y-102676283D01*
X84397793Y-102625000D01*
X84449076Y-102573717D01*
X84547570Y-102426310D01*
X84615414Y-102262520D01*
X84635536Y-102161358D01*
X87600000Y-102161358D01*
X87600000Y-102338642D01*
X87634586Y-102512520D01*
X87702430Y-102676310D01*
X87751668Y-102750000D01*
X87702430Y-102823690D01*
X87634586Y-102987480D01*
X87600000Y-103161358D01*
X87600000Y-103338642D01*
X87634586Y-103512520D01*
X87702430Y-103676310D01*
X87800924Y-103823717D01*
X87926283Y-103949076D01*
X88073690Y-104047570D01*
X88237480Y-104115414D01*
X88411358Y-104150000D01*
X88588642Y-104150000D01*
X88762520Y-104115414D01*
X88926310Y-104047570D01*
X89073717Y-103949076D01*
X89199076Y-103823717D01*
X89297570Y-103676310D01*
X89365414Y-103512520D01*
X89400000Y-103338642D01*
X89400000Y-103161358D01*
X89365414Y-102987480D01*
X89297570Y-102823690D01*
X89248332Y-102750000D01*
X89297570Y-102676310D01*
X89365414Y-102512520D01*
X89400000Y-102338642D01*
X89400000Y-102161358D01*
X89365414Y-101987480D01*
X89297570Y-101823690D01*
X89248076Y-101749617D01*
X89323717Y-101699076D01*
X89449076Y-101573717D01*
X89547570Y-101426310D01*
X89615414Y-101262520D01*
X89650000Y-101088642D01*
X89650000Y-100911358D01*
X90350000Y-100911358D01*
X90350000Y-101088642D01*
X90384586Y-101262520D01*
X90452430Y-101426310D01*
X90550924Y-101573717D01*
X90606398Y-101629191D01*
X90600000Y-101661358D01*
X90600000Y-101838642D01*
X90634586Y-102012520D01*
X90702430Y-102176310D01*
X90800924Y-102323717D01*
X90926283Y-102449076D01*
X91073690Y-102547570D01*
X91237480Y-102615414D01*
X91411358Y-102650000D01*
X91588642Y-102650000D01*
X91762520Y-102615414D01*
X91926310Y-102547570D01*
X92073717Y-102449076D01*
X92111435Y-102411358D01*
X136850000Y-102411358D01*
X136850000Y-102588642D01*
X136884586Y-102762520D01*
X136952430Y-102926310D01*
X137050924Y-103073717D01*
X137176283Y-103199076D01*
X137323690Y-103297570D01*
X137487480Y-103365414D01*
X137661358Y-103400000D01*
X137838642Y-103400000D01*
X138012520Y-103365414D01*
X138176310Y-103297570D01*
X138323717Y-103199076D01*
X138449076Y-103073717D01*
X138547570Y-102926310D01*
X138615414Y-102762520D01*
X138650000Y-102588642D01*
X138650000Y-102411358D01*
X138615414Y-102237480D01*
X138547570Y-102073690D01*
X138449076Y-101926283D01*
X138323717Y-101800924D01*
X138176310Y-101702430D01*
X138012520Y-101634586D01*
X137838642Y-101600000D01*
X137661358Y-101600000D01*
X137487480Y-101634586D01*
X137323690Y-101702430D01*
X137176283Y-101800924D01*
X137050924Y-101926283D01*
X136952430Y-102073690D01*
X136884586Y-102237480D01*
X136850000Y-102411358D01*
X92111435Y-102411358D01*
X92199076Y-102323717D01*
X92297570Y-102176310D01*
X92365414Y-102012520D01*
X92400000Y-101838642D01*
X92400000Y-101661358D01*
X92365414Y-101487480D01*
X92297570Y-101323690D01*
X92199076Y-101176283D01*
X92143602Y-101120809D01*
X92150000Y-101088642D01*
X92150000Y-100911358D01*
X92145028Y-100886358D01*
X104600000Y-100886358D01*
X104600000Y-101063642D01*
X104634586Y-101237520D01*
X104702430Y-101401310D01*
X104800924Y-101548717D01*
X104926283Y-101674076D01*
X105073690Y-101772570D01*
X105237480Y-101840414D01*
X105411358Y-101875000D01*
X105588642Y-101875000D01*
X105762520Y-101840414D01*
X105926310Y-101772570D01*
X106073717Y-101674076D01*
X106199076Y-101548717D01*
X106297570Y-101401310D01*
X106365414Y-101237520D01*
X106400000Y-101063642D01*
X106400000Y-100886358D01*
X106365414Y-100712480D01*
X106297570Y-100548690D01*
X106199076Y-100401283D01*
X106073717Y-100275924D01*
X105926310Y-100177430D01*
X105762520Y-100109586D01*
X105588642Y-100075000D01*
X105411358Y-100075000D01*
X105237480Y-100109586D01*
X105073690Y-100177430D01*
X104926283Y-100275924D01*
X104800924Y-100401283D01*
X104702430Y-100548690D01*
X104634586Y-100712480D01*
X104600000Y-100886358D01*
X92145028Y-100886358D01*
X92115414Y-100737480D01*
X92047570Y-100573690D01*
X91949076Y-100426283D01*
X91823717Y-100300924D01*
X91676310Y-100202430D01*
X91512520Y-100134586D01*
X91338642Y-100100000D01*
X91161358Y-100100000D01*
X90987480Y-100134586D01*
X90823690Y-100202430D01*
X90676283Y-100300924D01*
X90550924Y-100426283D01*
X90452430Y-100573690D01*
X90384586Y-100737480D01*
X90350000Y-100911358D01*
X89650000Y-100911358D01*
X89615414Y-100737480D01*
X89547570Y-100573690D01*
X89449076Y-100426283D01*
X89323717Y-100300924D01*
X89176310Y-100202430D01*
X89012520Y-100134586D01*
X88838642Y-100100000D01*
X88661358Y-100100000D01*
X88487480Y-100134586D01*
X88323690Y-100202430D01*
X88176283Y-100300924D01*
X88050924Y-100426283D01*
X87952430Y-100573690D01*
X87884586Y-100737480D01*
X87850000Y-100911358D01*
X87850000Y-101088642D01*
X87884586Y-101262520D01*
X87952430Y-101426310D01*
X88001924Y-101500383D01*
X87926283Y-101550924D01*
X87800924Y-101676283D01*
X87702430Y-101823690D01*
X87634586Y-101987480D01*
X87600000Y-102161358D01*
X84635536Y-102161358D01*
X84650000Y-102088642D01*
X84650000Y-101911358D01*
X84615414Y-101737480D01*
X84547570Y-101573690D01*
X84449076Y-101426283D01*
X84323717Y-101300924D01*
X84176310Y-101202430D01*
X84012520Y-101134586D01*
X83838642Y-101100000D01*
X83661358Y-101100000D01*
X83487480Y-101134586D01*
X83323690Y-101202430D01*
X83176283Y-101300924D01*
X83125000Y-101352207D01*
X83073717Y-101300924D01*
X82926310Y-101202430D01*
X82762520Y-101134586D01*
X82588642Y-101100000D01*
X82411358Y-101100000D01*
X82237480Y-101134586D01*
X82073690Y-101202430D01*
X81926283Y-101300924D01*
X81800924Y-101426283D01*
X81702430Y-101573690D01*
X81634586Y-101737480D01*
X81600000Y-101911358D01*
X71786912Y-101911358D01*
X71855264Y-101855264D01*
X71917746Y-101779129D01*
X71964175Y-101692267D01*
X71992765Y-101598017D01*
X72002419Y-101500000D01*
X72002419Y-98500000D01*
X71992765Y-98401983D01*
X71964175Y-98307733D01*
X71917746Y-98220871D01*
X71855264Y-98144736D01*
X71779129Y-98082254D01*
X71692267Y-98035825D01*
X71598017Y-98007235D01*
X71500000Y-97997581D01*
X68500000Y-97997581D01*
X68401983Y-98007235D01*
X68307733Y-98035825D01*
X68220871Y-98082254D01*
X68144736Y-98144736D01*
X68082254Y-98220871D01*
X68035825Y-98307733D01*
X68007235Y-98401983D01*
X67997581Y-98500000D01*
X65525000Y-98500000D01*
X65525000Y-94411358D01*
X78600000Y-94411358D01*
X78600000Y-94588642D01*
X78634586Y-94762520D01*
X78702430Y-94926310D01*
X78751668Y-95000000D01*
X78702430Y-95073690D01*
X78634586Y-95237480D01*
X78600000Y-95411358D01*
X78600000Y-95588642D01*
X78634586Y-95762520D01*
X78702430Y-95926310D01*
X78751668Y-96000000D01*
X78702430Y-96073690D01*
X78634586Y-96237480D01*
X78600000Y-96411358D01*
X78600000Y-96588642D01*
X78634586Y-96762520D01*
X78702430Y-96926310D01*
X78751668Y-97000000D01*
X78702430Y-97073690D01*
X78634586Y-97237480D01*
X78600000Y-97411358D01*
X78600000Y-97588642D01*
X78634586Y-97762520D01*
X78702430Y-97926310D01*
X78800924Y-98073717D01*
X78926283Y-98199076D01*
X79073690Y-98297570D01*
X79237480Y-98365414D01*
X79411358Y-98400000D01*
X79588642Y-98400000D01*
X79762520Y-98365414D01*
X79926310Y-98297570D01*
X80073717Y-98199076D01*
X80199076Y-98073717D01*
X80297570Y-97926310D01*
X80365414Y-97762520D01*
X80400000Y-97588642D01*
X80400000Y-97411358D01*
X80365414Y-97237480D01*
X80297570Y-97073690D01*
X80248332Y-97000000D01*
X80297570Y-96926310D01*
X80365414Y-96762520D01*
X80400000Y-96588642D01*
X80400000Y-96411358D01*
X109100000Y-96411358D01*
X109100000Y-96588642D01*
X109134586Y-96762520D01*
X109202430Y-96926310D01*
X109300924Y-97073717D01*
X109426283Y-97199076D01*
X109573690Y-97297570D01*
X109737480Y-97365414D01*
X109911358Y-97400000D01*
X110088642Y-97400000D01*
X110262520Y-97365414D01*
X110426310Y-97297570D01*
X110491858Y-97253772D01*
X155500000Y-97253772D01*
X155500000Y-97746228D01*
X155596074Y-98229223D01*
X155784529Y-98684194D01*
X156058124Y-99093657D01*
X156406343Y-99441876D01*
X156815806Y-99715471D01*
X157270777Y-99903926D01*
X157753772Y-100000000D01*
X158246228Y-100000000D01*
X158729223Y-99903926D01*
X159184194Y-99715471D01*
X159593657Y-99441876D01*
X159941876Y-99093657D01*
X160215471Y-98684194D01*
X160403926Y-98229223D01*
X160500000Y-97746228D01*
X160500000Y-97253772D01*
X160403926Y-96770777D01*
X160215471Y-96315806D01*
X159941876Y-95906343D01*
X159593657Y-95558124D01*
X159184194Y-95284529D01*
X158729223Y-95096074D01*
X158246228Y-95000000D01*
X157753772Y-95000000D01*
X157270777Y-95096074D01*
X156815806Y-95284529D01*
X156406343Y-95558124D01*
X156058124Y-95906343D01*
X155784529Y-96315806D01*
X155596074Y-96770777D01*
X155500000Y-97253772D01*
X110491858Y-97253772D01*
X110573717Y-97199076D01*
X110699076Y-97073717D01*
X110797570Y-96926310D01*
X110865414Y-96762520D01*
X110900000Y-96588642D01*
X110900000Y-96411358D01*
X110865414Y-96237480D01*
X110797570Y-96073690D01*
X110699076Y-95926283D01*
X110573717Y-95800924D01*
X110426310Y-95702430D01*
X110262520Y-95634586D01*
X110088642Y-95600000D01*
X109911358Y-95600000D01*
X109737480Y-95634586D01*
X109573690Y-95702430D01*
X109426283Y-95800924D01*
X109300924Y-95926283D01*
X109202430Y-96073690D01*
X109134586Y-96237480D01*
X109100000Y-96411358D01*
X80400000Y-96411358D01*
X80365414Y-96237480D01*
X80297570Y-96073690D01*
X80248332Y-96000000D01*
X80297570Y-95926310D01*
X80365414Y-95762520D01*
X80400000Y-95588642D01*
X80400000Y-95411358D01*
X80365414Y-95237480D01*
X80297570Y-95073690D01*
X80248332Y-95000000D01*
X80297570Y-94926310D01*
X80365414Y-94762520D01*
X80400000Y-94588642D01*
X80400000Y-94411358D01*
X80365414Y-94237480D01*
X80297570Y-94073690D01*
X80199076Y-93926283D01*
X80073717Y-93800924D01*
X79926310Y-93702430D01*
X79762520Y-93634586D01*
X79588642Y-93600000D01*
X79411358Y-93600000D01*
X79237480Y-93634586D01*
X79073690Y-93702430D01*
X78926283Y-93800924D01*
X78800924Y-93926283D01*
X78702430Y-94073690D01*
X78634586Y-94237480D01*
X78600000Y-94411358D01*
X65525000Y-94411358D01*
X65525000Y-92125000D01*
X95448224Y-92125000D01*
X97911612Y-94588388D01*
G36*
X161975001Y-58875000D02*
G01*
X161125000Y-58875000D01*
X161125000Y-57000000D01*
X161122598Y-56975614D01*
X161115485Y-56952165D01*
X161103934Y-56930554D01*
X161088388Y-56911612D01*
X159838388Y-55661612D01*
X159819446Y-55646066D01*
X159797835Y-55634515D01*
X159774386Y-55627402D01*
X159750000Y-55625000D01*
X156000000Y-55625000D01*
X155975614Y-55627402D01*
X155952165Y-55634515D01*
X155930554Y-55646066D01*
X155911612Y-55661612D01*
X154911612Y-56661612D01*
X154896066Y-56680554D01*
X154884515Y-56702165D01*
X154877402Y-56725614D01*
X154875000Y-56750000D01*
X154875000Y-58875000D01*
X130000000Y-58875000D01*
X129975614Y-58877402D01*
X129952165Y-58884515D01*
X129930554Y-58896066D01*
X129911612Y-58911612D01*
X127463646Y-61359578D01*
X127504612Y-61282936D01*
X127604679Y-60953060D01*
X127630000Y-60695968D01*
X127630000Y-58524032D01*
X127604679Y-58266940D01*
X127504612Y-57937064D01*
X127342112Y-57633048D01*
X127123424Y-57366576D01*
X126856951Y-57147888D01*
X126552935Y-56985388D01*
X126223059Y-56885321D01*
X125880000Y-56851533D01*
X125536940Y-56885321D01*
X125207064Y-56985388D01*
X124903048Y-57147888D01*
X124636576Y-57366576D01*
X124417888Y-57633049D01*
X124255388Y-57937065D01*
X124155321Y-58266941D01*
X124130000Y-58524033D01*
X124130001Y-60695968D01*
X124155322Y-60953060D01*
X124255389Y-61282936D01*
X124417889Y-61586952D01*
X124636577Y-61853424D01*
X124903049Y-62072112D01*
X125207065Y-62234612D01*
X125536941Y-62334679D01*
X125880000Y-62368467D01*
X126223060Y-62334679D01*
X126552936Y-62234612D01*
X126629578Y-62193646D01*
X119448224Y-69375000D01*
X110392768Y-69375000D01*
X110365414Y-69237480D01*
X110297570Y-69073690D01*
X110199076Y-68926283D01*
X110073717Y-68800924D01*
X109926310Y-68702430D01*
X109762520Y-68634586D01*
X109588642Y-68600000D01*
X109411358Y-68600000D01*
X109237480Y-68634586D01*
X109073690Y-68702430D01*
X108926283Y-68800924D01*
X108800924Y-68926283D01*
X108702430Y-69073690D01*
X108634586Y-69237480D01*
X108607232Y-69375000D01*
X89000000Y-69375000D01*
X88975614Y-69377402D01*
X88952165Y-69384515D01*
X88930554Y-69396066D01*
X88911612Y-69411612D01*
X85448224Y-72875000D01*
X65525000Y-72875000D01*
X65525000Y-57000000D01*
X66375000Y-57000000D01*
X66375000Y-61000000D01*
X66377402Y-61024386D01*
X66384515Y-61047835D01*
X66396066Y-61069446D01*
X66411612Y-61088388D01*
X67661612Y-62338388D01*
X67680554Y-62353934D01*
X67702165Y-62365485D01*
X67725614Y-62372598D01*
X67750000Y-62375000D01*
X71000000Y-62375000D01*
X71013187Y-62374303D01*
X71037183Y-62369341D01*
X71059751Y-62359794D01*
X71080023Y-62346028D01*
X72580023Y-61096028D01*
X72603934Y-61069446D01*
X72615485Y-61047835D01*
X72622598Y-61024386D01*
X72625000Y-61000000D01*
X72625000Y-57250000D01*
X91747581Y-57250000D01*
X91747581Y-61750000D01*
X91757235Y-61848017D01*
X91785825Y-61942267D01*
X91832254Y-62029129D01*
X91894736Y-62105264D01*
X91970871Y-62167746D01*
X92057733Y-62214175D01*
X92151983Y-62242765D01*
X92250000Y-62252419D01*
X94750000Y-62252419D01*
X94848017Y-62242765D01*
X94942267Y-62214175D01*
X95029129Y-62167746D01*
X95105264Y-62105264D01*
X95167746Y-62029129D01*
X95214175Y-61942267D01*
X95242765Y-61848017D01*
X95252419Y-61750000D01*
X95252419Y-58414033D01*
X102650000Y-58414033D01*
X102650001Y-60585968D01*
X102675322Y-60843060D01*
X102775389Y-61172936D01*
X102937889Y-61476952D01*
X103156577Y-61743424D01*
X103423049Y-61962112D01*
X103727065Y-62124612D01*
X104056941Y-62224679D01*
X104400000Y-62258467D01*
X104743060Y-62224679D01*
X105072936Y-62124612D01*
X105376952Y-61962112D01*
X105643424Y-61743424D01*
X105862112Y-61476952D01*
X106024612Y-61172936D01*
X106124679Y-60843060D01*
X106150000Y-60585968D01*
X106150000Y-58414032D01*
X106124679Y-58156940D01*
X106024612Y-57827064D01*
X105862112Y-57523048D01*
X105728302Y-57360000D01*
X113227581Y-57360000D01*
X113227581Y-61860000D01*
X113237235Y-61958017D01*
X113265825Y-62052267D01*
X113312254Y-62139129D01*
X113374736Y-62215264D01*
X113450871Y-62277746D01*
X113537733Y-62324175D01*
X113631983Y-62352765D01*
X113730000Y-62362419D01*
X116230000Y-62362419D01*
X116328017Y-62352765D01*
X116422267Y-62324175D01*
X116509129Y-62277746D01*
X116585264Y-62215264D01*
X116647746Y-62139129D01*
X116694175Y-62052267D01*
X116722765Y-61958017D01*
X116732419Y-61860000D01*
X116732419Y-57360000D01*
X116722765Y-57261983D01*
X116694175Y-57167733D01*
X116647746Y-57080871D01*
X116585264Y-57004736D01*
X116509129Y-56942254D01*
X116422267Y-56895825D01*
X116328017Y-56867235D01*
X116230000Y-56857581D01*
X113730000Y-56857581D01*
X113631983Y-56867235D01*
X113537733Y-56895825D01*
X113450871Y-56942254D01*
X113374736Y-57004736D01*
X113312254Y-57080871D01*
X113265825Y-57167733D01*
X113237235Y-57261983D01*
X113227581Y-57360000D01*
X105728302Y-57360000D01*
X105643424Y-57256576D01*
X105376951Y-57037888D01*
X105072935Y-56875388D01*
X104743059Y-56775321D01*
X104400000Y-56741533D01*
X104056940Y-56775321D01*
X103727064Y-56875388D01*
X103423048Y-57037888D01*
X103156576Y-57256576D01*
X102937888Y-57523049D01*
X102775388Y-57827065D01*
X102675321Y-58156941D01*
X102650000Y-58414033D01*
X95252419Y-58414033D01*
X95252419Y-57250000D01*
X95242765Y-57151983D01*
X95214175Y-57057733D01*
X95167746Y-56970871D01*
X95105264Y-56894736D01*
X95029129Y-56832254D01*
X94942267Y-56785825D01*
X94848017Y-56757235D01*
X94750000Y-56747581D01*
X92250000Y-56747581D01*
X92151983Y-56757235D01*
X92057733Y-56785825D01*
X91970871Y-56832254D01*
X91894736Y-56894736D01*
X91832254Y-56970871D01*
X91785825Y-57057733D01*
X91757235Y-57151983D01*
X91747581Y-57250000D01*
X72625000Y-57250000D01*
X72625000Y-57000000D01*
X72622598Y-56975614D01*
X72615485Y-56952165D01*
X72603934Y-56930554D01*
X72588388Y-56911612D01*
X71338388Y-55661612D01*
X71319446Y-55646066D01*
X71297835Y-55634515D01*
X71274386Y-55627402D01*
X71250000Y-55625000D01*
X67750000Y-55625000D01*
X67725614Y-55627402D01*
X67702165Y-55634515D01*
X67680554Y-55646066D01*
X67661612Y-55661612D01*
X66411612Y-56911612D01*
X66396066Y-56930554D01*
X66384515Y-56952165D01*
X66377402Y-56975614D01*
X66375000Y-57000000D01*
X65525000Y-57000000D01*
X65525000Y-40700000D01*
X96739356Y-40700000D01*
X96781833Y-41131275D01*
X96907631Y-41545977D01*
X97111917Y-41928168D01*
X97386839Y-42263161D01*
X97721832Y-42538083D01*
X98104023Y-42742369D01*
X98518725Y-42868167D01*
X98841930Y-42900000D01*
X99058070Y-42900000D01*
X99381275Y-42868167D01*
X99795977Y-42742369D01*
X100178168Y-42538083D01*
X100513161Y-42263161D01*
X100788083Y-41928168D01*
X100992369Y-41545977D01*
X101118167Y-41131275D01*
X101149809Y-40810000D01*
X118219356Y-40810000D01*
X118261833Y-41241275D01*
X118387631Y-41655977D01*
X118591917Y-42038168D01*
X118866839Y-42373161D01*
X119201832Y-42648083D01*
X119584023Y-42852369D01*
X119998725Y-42978167D01*
X120321930Y-43010000D01*
X120538070Y-43010000D01*
X120861275Y-42978167D01*
X121275977Y-42852369D01*
X121658168Y-42648083D01*
X121993161Y-42373161D01*
X122268083Y-42038168D01*
X122472369Y-41655977D01*
X122598167Y-41241275D01*
X122640644Y-40810000D01*
X122598167Y-40378725D01*
X122472369Y-39964023D01*
X122268083Y-39581832D01*
X121993161Y-39246839D01*
X121658168Y-38971917D01*
X121275977Y-38767631D01*
X120861275Y-38641833D01*
X120538070Y-38610000D01*
X120321930Y-38610000D01*
X119998725Y-38641833D01*
X119584023Y-38767631D01*
X119201832Y-38971917D01*
X118866839Y-39246839D01*
X118591917Y-39581832D01*
X118387631Y-39964023D01*
X118261833Y-40378725D01*
X118219356Y-40810000D01*
X101149809Y-40810000D01*
X101160644Y-40700000D01*
X101118167Y-40268725D01*
X100992369Y-39854023D01*
X100788083Y-39471832D01*
X100513161Y-39136839D01*
X100178168Y-38861917D01*
X99795977Y-38657631D01*
X99381275Y-38531833D01*
X99058070Y-38500000D01*
X98841930Y-38500000D01*
X98518725Y-38531833D01*
X98104023Y-38657631D01*
X97721832Y-38861917D01*
X97386839Y-39136839D01*
X97111917Y-39471832D01*
X96907631Y-39854023D01*
X96781833Y-40268725D01*
X96739356Y-40700000D01*
X65525000Y-40700000D01*
X65525000Y-36525000D01*
X161975001Y-36525000D01*
X161975001Y-58875000D01*
X161975001Y-58875000D01*
G37*
X161975001Y-58875000D02*
X161125000Y-58875000D01*
X161125000Y-57000000D01*
X161122598Y-56975614D01*
X161115485Y-56952165D01*
X161103934Y-56930554D01*
X161088388Y-56911612D01*
X159838388Y-55661612D01*
X159819446Y-55646066D01*
X159797835Y-55634515D01*
X159774386Y-55627402D01*
X159750000Y-55625000D01*
X156000000Y-55625000D01*
X155975614Y-55627402D01*
X155952165Y-55634515D01*
X155930554Y-55646066D01*
X155911612Y-55661612D01*
X154911612Y-56661612D01*
X154896066Y-56680554D01*
X154884515Y-56702165D01*
X154877402Y-56725614D01*
X154875000Y-56750000D01*
X154875000Y-58875000D01*
X130000000Y-58875000D01*
X129975614Y-58877402D01*
X129952165Y-58884515D01*
X129930554Y-58896066D01*
X129911612Y-58911612D01*
X127463646Y-61359578D01*
X127504612Y-61282936D01*
X127604679Y-60953060D01*
X127630000Y-60695968D01*
X127630000Y-58524032D01*
X127604679Y-58266940D01*
X127504612Y-57937064D01*
X127342112Y-57633048D01*
X127123424Y-57366576D01*
X126856951Y-57147888D01*
X126552935Y-56985388D01*
X126223059Y-56885321D01*
X125880000Y-56851533D01*
X125536940Y-56885321D01*
X125207064Y-56985388D01*
X124903048Y-57147888D01*
X124636576Y-57366576D01*
X124417888Y-57633049D01*
X124255388Y-57937065D01*
X124155321Y-58266941D01*
X124130000Y-58524033D01*
X124130001Y-60695968D01*
X124155322Y-60953060D01*
X124255389Y-61282936D01*
X124417889Y-61586952D01*
X124636577Y-61853424D01*
X124903049Y-62072112D01*
X125207065Y-62234612D01*
X125536941Y-62334679D01*
X125880000Y-62368467D01*
X126223060Y-62334679D01*
X126552936Y-62234612D01*
X126629578Y-62193646D01*
X119448224Y-69375000D01*
X110392768Y-69375000D01*
X110365414Y-69237480D01*
X110297570Y-69073690D01*
X110199076Y-68926283D01*
X110073717Y-68800924D01*
X109926310Y-68702430D01*
X109762520Y-68634586D01*
X109588642Y-68600000D01*
X109411358Y-68600000D01*
X109237480Y-68634586D01*
X109073690Y-68702430D01*
X108926283Y-68800924D01*
X108800924Y-68926283D01*
X108702430Y-69073690D01*
X108634586Y-69237480D01*
X108607232Y-69375000D01*
X89000000Y-69375000D01*
X88975614Y-69377402D01*
X88952165Y-69384515D01*
X88930554Y-69396066D01*
X88911612Y-69411612D01*
X85448224Y-72875000D01*
X65525000Y-72875000D01*
X65525000Y-57000000D01*
X66375000Y-57000000D01*
X66375000Y-61000000D01*
X66377402Y-61024386D01*
X66384515Y-61047835D01*
X66396066Y-61069446D01*
X66411612Y-61088388D01*
X67661612Y-62338388D01*
X67680554Y-62353934D01*
X67702165Y-62365485D01*
X67725614Y-62372598D01*
X67750000Y-62375000D01*
X71000000Y-62375000D01*
X71013187Y-62374303D01*
X71037183Y-62369341D01*
X71059751Y-62359794D01*
X71080023Y-62346028D01*
X72580023Y-61096028D01*
X72603934Y-61069446D01*
X72615485Y-61047835D01*
X72622598Y-61024386D01*
X72625000Y-61000000D01*
X72625000Y-57250000D01*
X91747581Y-57250000D01*
X91747581Y-61750000D01*
X91757235Y-61848017D01*
X91785825Y-61942267D01*
X91832254Y-62029129D01*
X91894736Y-62105264D01*
X91970871Y-62167746D01*
X92057733Y-62214175D01*
X92151983Y-62242765D01*
X92250000Y-62252419D01*
X94750000Y-62252419D01*
X94848017Y-62242765D01*
X94942267Y-62214175D01*
X95029129Y-62167746D01*
X95105264Y-62105264D01*
X95167746Y-62029129D01*
X95214175Y-61942267D01*
X95242765Y-61848017D01*
X95252419Y-61750000D01*
X95252419Y-58414033D01*
X102650000Y-58414033D01*
X102650001Y-60585968D01*
X102675322Y-60843060D01*
X102775389Y-61172936D01*
X102937889Y-61476952D01*
X103156577Y-61743424D01*
X103423049Y-61962112D01*
X103727065Y-62124612D01*
X104056941Y-62224679D01*
X104400000Y-62258467D01*
X104743060Y-62224679D01*
X105072936Y-62124612D01*
X105376952Y-61962112D01*
X105643424Y-61743424D01*
X105862112Y-61476952D01*
X106024612Y-61172936D01*
X106124679Y-60843060D01*
X106150000Y-60585968D01*
X106150000Y-58414032D01*
X106124679Y-58156940D01*
X106024612Y-57827064D01*
X105862112Y-57523048D01*
X105728302Y-57360000D01*
X113227581Y-57360000D01*
X113227581Y-61860000D01*
X113237235Y-61958017D01*
X113265825Y-62052267D01*
X113312254Y-62139129D01*
X113374736Y-62215264D01*
X113450871Y-62277746D01*
X113537733Y-62324175D01*
X113631983Y-62352765D01*
X113730000Y-62362419D01*
X116230000Y-62362419D01*
X116328017Y-62352765D01*
X116422267Y-62324175D01*
X116509129Y-62277746D01*
X116585264Y-62215264D01*
X116647746Y-62139129D01*
X116694175Y-62052267D01*
X116722765Y-61958017D01*
X116732419Y-61860000D01*
X116732419Y-57360000D01*
X116722765Y-57261983D01*
X116694175Y-57167733D01*
X116647746Y-57080871D01*
X116585264Y-57004736D01*
X116509129Y-56942254D01*
X116422267Y-56895825D01*
X116328017Y-56867235D01*
X116230000Y-56857581D01*
X113730000Y-56857581D01*
X113631983Y-56867235D01*
X113537733Y-56895825D01*
X113450871Y-56942254D01*
X113374736Y-57004736D01*
X113312254Y-57080871D01*
X113265825Y-57167733D01*
X113237235Y-57261983D01*
X113227581Y-57360000D01*
X105728302Y-57360000D01*
X105643424Y-57256576D01*
X105376951Y-57037888D01*
X105072935Y-56875388D01*
X104743059Y-56775321D01*
X104400000Y-56741533D01*
X104056940Y-56775321D01*
X103727064Y-56875388D01*
X103423048Y-57037888D01*
X103156576Y-57256576D01*
X102937888Y-57523049D01*
X102775388Y-57827065D01*
X102675321Y-58156941D01*
X102650000Y-58414033D01*
X95252419Y-58414033D01*
X95252419Y-57250000D01*
X95242765Y-57151983D01*
X95214175Y-57057733D01*
X95167746Y-56970871D01*
X95105264Y-56894736D01*
X95029129Y-56832254D01*
X94942267Y-56785825D01*
X94848017Y-56757235D01*
X94750000Y-56747581D01*
X92250000Y-56747581D01*
X92151983Y-56757235D01*
X92057733Y-56785825D01*
X91970871Y-56832254D01*
X91894736Y-56894736D01*
X91832254Y-56970871D01*
X91785825Y-57057733D01*
X91757235Y-57151983D01*
X91747581Y-57250000D01*
X72625000Y-57250000D01*
X72625000Y-57000000D01*
X72622598Y-56975614D01*
X72615485Y-56952165D01*
X72603934Y-56930554D01*
X72588388Y-56911612D01*
X71338388Y-55661612D01*
X71319446Y-55646066D01*
X71297835Y-55634515D01*
X71274386Y-55627402D01*
X71250000Y-55625000D01*
X67750000Y-55625000D01*
X67725614Y-55627402D01*
X67702165Y-55634515D01*
X67680554Y-55646066D01*
X67661612Y-55661612D01*
X66411612Y-56911612D01*
X66396066Y-56930554D01*
X66384515Y-56952165D01*
X66377402Y-56975614D01*
X66375000Y-57000000D01*
X65525000Y-57000000D01*
X65525000Y-40700000D01*
X96739356Y-40700000D01*
X96781833Y-41131275D01*
X96907631Y-41545977D01*
X97111917Y-41928168D01*
X97386839Y-42263161D01*
X97721832Y-42538083D01*
X98104023Y-42742369D01*
X98518725Y-42868167D01*
X98841930Y-42900000D01*
X99058070Y-42900000D01*
X99381275Y-42868167D01*
X99795977Y-42742369D01*
X100178168Y-42538083D01*
X100513161Y-42263161D01*
X100788083Y-41928168D01*
X100992369Y-41545977D01*
X101118167Y-41131275D01*
X101149809Y-40810000D01*
X118219356Y-40810000D01*
X118261833Y-41241275D01*
X118387631Y-41655977D01*
X118591917Y-42038168D01*
X118866839Y-42373161D01*
X119201832Y-42648083D01*
X119584023Y-42852369D01*
X119998725Y-42978167D01*
X120321930Y-43010000D01*
X120538070Y-43010000D01*
X120861275Y-42978167D01*
X121275977Y-42852369D01*
X121658168Y-42648083D01*
X121993161Y-42373161D01*
X122268083Y-42038168D01*
X122472369Y-41655977D01*
X122598167Y-41241275D01*
X122640644Y-40810000D01*
X122598167Y-40378725D01*
X122472369Y-39964023D01*
X122268083Y-39581832D01*
X121993161Y-39246839D01*
X121658168Y-38971917D01*
X121275977Y-38767631D01*
X120861275Y-38641833D01*
X120538070Y-38610000D01*
X120321930Y-38610000D01*
X119998725Y-38641833D01*
X119584023Y-38767631D01*
X119201832Y-38971917D01*
X118866839Y-39246839D01*
X118591917Y-39581832D01*
X118387631Y-39964023D01*
X118261833Y-40378725D01*
X118219356Y-40810000D01*
X101149809Y-40810000D01*
X101160644Y-40700000D01*
X101118167Y-40268725D01*
X100992369Y-39854023D01*
X100788083Y-39471832D01*
X100513161Y-39136839D01*
X100178168Y-38861917D01*
X99795977Y-38657631D01*
X99381275Y-38531833D01*
X99058070Y-38500000D01*
X98841930Y-38500000D01*
X98518725Y-38531833D01*
X98104023Y-38657631D01*
X97721832Y-38861917D01*
X97386839Y-39136839D01*
X97111917Y-39471832D01*
X96907631Y-39854023D01*
X96781833Y-40268725D01*
X96739356Y-40700000D01*
X65525000Y-40700000D01*
X65525000Y-36525000D01*
X161975001Y-36525000D01*
X161975001Y-58875000D01*
G36*
X156406343Y-60941876D02*
G01*
X156815806Y-61215471D01*
X157270777Y-61403926D01*
X157753772Y-61500000D01*
X158246228Y-61500000D01*
X158729223Y-61403926D01*
X159184194Y-61215471D01*
X159593657Y-60941876D01*
X159910533Y-60625000D01*
X161975001Y-60625000D01*
X161975000Y-92375000D01*
X135000000Y-92375000D01*
X134975614Y-92377402D01*
X134952165Y-92384515D01*
X134930554Y-92396066D01*
X134912480Y-92410752D01*
X132948782Y-94336431D01*
X120051622Y-94374846D01*
X118588134Y-92911358D01*
X131600000Y-92911358D01*
X131600000Y-93088642D01*
X131634586Y-93262520D01*
X131702430Y-93426310D01*
X131800924Y-93573717D01*
X131926283Y-93699076D01*
X132073690Y-93797570D01*
X132237480Y-93865414D01*
X132411358Y-93900000D01*
X132588642Y-93900000D01*
X132762520Y-93865414D01*
X132926310Y-93797570D01*
X133073717Y-93699076D01*
X133199076Y-93573717D01*
X133297570Y-93426310D01*
X133365414Y-93262520D01*
X133400000Y-93088642D01*
X133400000Y-92911358D01*
X133365414Y-92737480D01*
X133297570Y-92573690D01*
X133199076Y-92426283D01*
X133073717Y-92300924D01*
X132926310Y-92202430D01*
X132762520Y-92134586D01*
X132588642Y-92100000D01*
X132411358Y-92100000D01*
X132237480Y-92134586D01*
X132073690Y-92202430D01*
X131926283Y-92300924D01*
X131800924Y-92426283D01*
X131702430Y-92573690D01*
X131634586Y-92737480D01*
X131600000Y-92911358D01*
X118588134Y-92911358D01*
X118088388Y-92411612D01*
X118069446Y-92396066D01*
X118047835Y-92384515D01*
X118024386Y-92377402D01*
X118000000Y-92375000D01*
X110500000Y-92375000D01*
X110475614Y-92377402D01*
X110452165Y-92384515D01*
X110430554Y-92396066D01*
X110411612Y-92411612D01*
X109948224Y-92875000D01*
X98051776Y-92875000D01*
X96088388Y-90911612D01*
X96088079Y-90911358D01*
X133100000Y-90911358D01*
X133100000Y-91088642D01*
X133134586Y-91262520D01*
X133202430Y-91426310D01*
X133300924Y-91573717D01*
X133426283Y-91699076D01*
X133573690Y-91797570D01*
X133737480Y-91865414D01*
X133911358Y-91900000D01*
X134088642Y-91900000D01*
X134262520Y-91865414D01*
X134426310Y-91797570D01*
X134573717Y-91699076D01*
X134699076Y-91573717D01*
X134797570Y-91426310D01*
X134865414Y-91262520D01*
X134900000Y-91088642D01*
X134900000Y-90911358D01*
X134865414Y-90737480D01*
X134797570Y-90573690D01*
X134699076Y-90426283D01*
X134573717Y-90300924D01*
X134426310Y-90202430D01*
X134262520Y-90134586D01*
X134088642Y-90100000D01*
X133911358Y-90100000D01*
X133737480Y-90134586D01*
X133573690Y-90202430D01*
X133426283Y-90300924D01*
X133300924Y-90426283D01*
X133202430Y-90573690D01*
X133134586Y-90737480D01*
X133100000Y-90911358D01*
X96088079Y-90911358D01*
X96069446Y-90896066D01*
X96047835Y-90884515D01*
X96024386Y-90877402D01*
X96000000Y-90875000D01*
X65525000Y-90875000D01*
X65525000Y-88600000D01*
X100849839Y-88600000D01*
X100890385Y-89011672D01*
X101010465Y-89407524D01*
X101205465Y-89772343D01*
X101467891Y-90092109D01*
X101787657Y-90354535D01*
X102152476Y-90549535D01*
X102548328Y-90669615D01*
X102856833Y-90700000D01*
X103063167Y-90700000D01*
X103371672Y-90669615D01*
X103767524Y-90549535D01*
X104132343Y-90354535D01*
X104452109Y-90092109D01*
X104714535Y-89772343D01*
X104909535Y-89407524D01*
X105029615Y-89011672D01*
X105039495Y-88911358D01*
X131600000Y-88911358D01*
X131600000Y-89088642D01*
X131634586Y-89262520D01*
X131702430Y-89426310D01*
X131800924Y-89573717D01*
X131926283Y-89699076D01*
X132073690Y-89797570D01*
X132237480Y-89865414D01*
X132411358Y-89900000D01*
X132588642Y-89900000D01*
X132762520Y-89865414D01*
X132926310Y-89797570D01*
X133073717Y-89699076D01*
X133199076Y-89573717D01*
X133297570Y-89426310D01*
X133365414Y-89262520D01*
X133400000Y-89088642D01*
X133400000Y-88911358D01*
X133365414Y-88737480D01*
X133297570Y-88573690D01*
X133199076Y-88426283D01*
X133073717Y-88300924D01*
X132926310Y-88202430D01*
X132762520Y-88134586D01*
X132588642Y-88100000D01*
X132411358Y-88100000D01*
X132237480Y-88134586D01*
X132073690Y-88202430D01*
X131926283Y-88300924D01*
X131800924Y-88426283D01*
X131702430Y-88573690D01*
X131634586Y-88737480D01*
X131600000Y-88911358D01*
X105039495Y-88911358D01*
X105070161Y-88600000D01*
X105029615Y-88188328D01*
X104909535Y-87792476D01*
X104714535Y-87427657D01*
X104452109Y-87107891D01*
X104212634Y-86911358D01*
X133100000Y-86911358D01*
X133100000Y-87088642D01*
X133134586Y-87262520D01*
X133202430Y-87426310D01*
X133300924Y-87573717D01*
X133426283Y-87699076D01*
X133573690Y-87797570D01*
X133737480Y-87865414D01*
X133911358Y-87900000D01*
X134088642Y-87900000D01*
X134262520Y-87865414D01*
X134426310Y-87797570D01*
X134573717Y-87699076D01*
X134699076Y-87573717D01*
X134797570Y-87426310D01*
X134865414Y-87262520D01*
X134900000Y-87088642D01*
X134900000Y-86911358D01*
X134865414Y-86737480D01*
X134797570Y-86573690D01*
X134699076Y-86426283D01*
X134573717Y-86300924D01*
X134426310Y-86202430D01*
X134262520Y-86134586D01*
X134088642Y-86100000D01*
X133911358Y-86100000D01*
X133737480Y-86134586D01*
X133573690Y-86202430D01*
X133426283Y-86300924D01*
X133300924Y-86426283D01*
X133202430Y-86573690D01*
X133134586Y-86737480D01*
X133100000Y-86911358D01*
X104212634Y-86911358D01*
X104132343Y-86845465D01*
X103767524Y-86650465D01*
X103371672Y-86530385D01*
X103063167Y-86500000D01*
X102856833Y-86500000D01*
X102548328Y-86530385D01*
X102152476Y-86650465D01*
X101787657Y-86845465D01*
X101467891Y-87107891D01*
X101205465Y-87427657D01*
X101010465Y-87792476D01*
X100890385Y-88188328D01*
X100849839Y-88600000D01*
X65525000Y-88600000D01*
X65525000Y-84911358D01*
X131600000Y-84911358D01*
X131600000Y-85088642D01*
X131634586Y-85262520D01*
X131702430Y-85426310D01*
X131800924Y-85573717D01*
X131926283Y-85699076D01*
X132073690Y-85797570D01*
X132237480Y-85865414D01*
X132411358Y-85900000D01*
X132588642Y-85900000D01*
X132762520Y-85865414D01*
X132926310Y-85797570D01*
X133073717Y-85699076D01*
X133199076Y-85573717D01*
X133297570Y-85426310D01*
X133365414Y-85262520D01*
X133400000Y-85088642D01*
X133400000Y-84911358D01*
X133365414Y-84737480D01*
X133297570Y-84573690D01*
X133199076Y-84426283D01*
X133073717Y-84300924D01*
X132926310Y-84202430D01*
X132762520Y-84134586D01*
X132588642Y-84100000D01*
X132411358Y-84100000D01*
X132237480Y-84134586D01*
X132073690Y-84202430D01*
X131926283Y-84300924D01*
X131800924Y-84426283D01*
X131702430Y-84573690D01*
X131634586Y-84737480D01*
X131600000Y-84911358D01*
X65525000Y-84911358D01*
X65525000Y-82911358D01*
X133100000Y-82911358D01*
X133100000Y-83088642D01*
X133134586Y-83262520D01*
X133202430Y-83426310D01*
X133300924Y-83573717D01*
X133426283Y-83699076D01*
X133573690Y-83797570D01*
X133737480Y-83865414D01*
X133911358Y-83900000D01*
X134088642Y-83900000D01*
X134262520Y-83865414D01*
X134426310Y-83797570D01*
X134573717Y-83699076D01*
X134699076Y-83573717D01*
X134797570Y-83426310D01*
X134865414Y-83262520D01*
X134900000Y-83088642D01*
X134900000Y-82911358D01*
X134865414Y-82737480D01*
X134797570Y-82573690D01*
X134699076Y-82426283D01*
X134573717Y-82300924D01*
X134426310Y-82202430D01*
X134262520Y-82134586D01*
X134088642Y-82100000D01*
X133911358Y-82100000D01*
X133737480Y-82134586D01*
X133573690Y-82202430D01*
X133426283Y-82300924D01*
X133300924Y-82426283D01*
X133202430Y-82573690D01*
X133134586Y-82737480D01*
X133100000Y-82911358D01*
X65525000Y-82911358D01*
X65525000Y-80911358D01*
X131600000Y-80911358D01*
X131600000Y-81088642D01*
X131634586Y-81262520D01*
X131702430Y-81426310D01*
X131800924Y-81573717D01*
X131926283Y-81699076D01*
X132073690Y-81797570D01*
X132237480Y-81865414D01*
X132411358Y-81900000D01*
X132588642Y-81900000D01*
X132762520Y-81865414D01*
X132926310Y-81797570D01*
X133073717Y-81699076D01*
X133199076Y-81573717D01*
X133297570Y-81426310D01*
X133365414Y-81262520D01*
X133400000Y-81088642D01*
X133400000Y-80911358D01*
X133365414Y-80737480D01*
X133297570Y-80573690D01*
X133199076Y-80426283D01*
X133073717Y-80300924D01*
X132926310Y-80202430D01*
X132762520Y-80134586D01*
X132588642Y-80100000D01*
X132411358Y-80100000D01*
X132237480Y-80134586D01*
X132073690Y-80202430D01*
X131926283Y-80300924D01*
X131800924Y-80426283D01*
X131702430Y-80573690D01*
X131634586Y-80737480D01*
X131600000Y-80911358D01*
X65525000Y-80911358D01*
X65525000Y-78911358D01*
X133100000Y-78911358D01*
X133100000Y-79088642D01*
X133134586Y-79262520D01*
X133202430Y-79426310D01*
X133300924Y-79573717D01*
X133426283Y-79699076D01*
X133573690Y-79797570D01*
X133737480Y-79865414D01*
X133911358Y-79900000D01*
X134088642Y-79900000D01*
X134262520Y-79865414D01*
X134426310Y-79797570D01*
X134573717Y-79699076D01*
X134699076Y-79573717D01*
X134797570Y-79426310D01*
X134865414Y-79262520D01*
X134866414Y-79257489D01*
X138350000Y-79257489D01*
X138350000Y-79582511D01*
X138413408Y-79901287D01*
X138537789Y-80201568D01*
X138718361Y-80471814D01*
X138936547Y-80690000D01*
X138718361Y-80908186D01*
X138537789Y-81178432D01*
X138413408Y-81478713D01*
X138350000Y-81797489D01*
X138350000Y-82122511D01*
X138413408Y-82441287D01*
X138537789Y-82741568D01*
X138718361Y-83011814D01*
X138936547Y-83230000D01*
X138718361Y-83448186D01*
X138537789Y-83718432D01*
X138413408Y-84018713D01*
X138350000Y-84337489D01*
X138350000Y-84662511D01*
X138413408Y-84981287D01*
X138537789Y-85281568D01*
X138718361Y-85551814D01*
X138948186Y-85781639D01*
X139218432Y-85962211D01*
X139518713Y-86086592D01*
X139837489Y-86150000D01*
X140162511Y-86150000D01*
X140481287Y-86086592D01*
X140781568Y-85962211D01*
X141051814Y-85781639D01*
X141281639Y-85551814D01*
X141462211Y-85281568D01*
X141586592Y-84981287D01*
X141650000Y-84662511D01*
X141650000Y-84337489D01*
X141586592Y-84018713D01*
X141462211Y-83718432D01*
X141281639Y-83448186D01*
X141063453Y-83230000D01*
X141281639Y-83011814D01*
X141462211Y-82741568D01*
X141586592Y-82441287D01*
X141650000Y-82122511D01*
X141650000Y-81797489D01*
X141586592Y-81478713D01*
X141462211Y-81178432D01*
X141281639Y-80908186D01*
X141063453Y-80690000D01*
X141281639Y-80471814D01*
X141462211Y-80201568D01*
X141586592Y-79901287D01*
X141650000Y-79582511D01*
X141650000Y-79257489D01*
X143430000Y-79257489D01*
X143430000Y-79582511D01*
X143493408Y-79901287D01*
X143617789Y-80201568D01*
X143798361Y-80471814D01*
X144016547Y-80690000D01*
X143798361Y-80908186D01*
X143617789Y-81178432D01*
X143493408Y-81478713D01*
X143430000Y-81797489D01*
X143430000Y-82122511D01*
X143493408Y-82441287D01*
X143617789Y-82741568D01*
X143798361Y-83011814D01*
X144016547Y-83230000D01*
X143798361Y-83448186D01*
X143617789Y-83718432D01*
X143493408Y-84018713D01*
X143430000Y-84337489D01*
X143430000Y-84662511D01*
X143493408Y-84981287D01*
X143617789Y-85281568D01*
X143798361Y-85551814D01*
X144028186Y-85781639D01*
X144298432Y-85962211D01*
X144598713Y-86086592D01*
X144917489Y-86150000D01*
X145242511Y-86150000D01*
X145561287Y-86086592D01*
X145861568Y-85962211D01*
X146131814Y-85781639D01*
X146361639Y-85551814D01*
X146542211Y-85281568D01*
X146666592Y-84981287D01*
X146730000Y-84662511D01*
X146730000Y-84337489D01*
X146666592Y-84018713D01*
X146542211Y-83718432D01*
X146361639Y-83448186D01*
X146143453Y-83230000D01*
X146361639Y-83011814D01*
X146542211Y-82741568D01*
X146666592Y-82441287D01*
X146730000Y-82122511D01*
X146730000Y-81797489D01*
X146666592Y-81478713D01*
X146542211Y-81178432D01*
X146361639Y-80908186D01*
X146143453Y-80690000D01*
X146361639Y-80471814D01*
X146542211Y-80201568D01*
X146666592Y-79901287D01*
X146730000Y-79582511D01*
X146730000Y-79257489D01*
X146666592Y-78938713D01*
X146542211Y-78638432D01*
X146361639Y-78368186D01*
X146131814Y-78138361D01*
X145861568Y-77957789D01*
X145561287Y-77833408D01*
X145242511Y-77770000D01*
X144917489Y-77770000D01*
X144598713Y-77833408D01*
X144298432Y-77957789D01*
X144028186Y-78138361D01*
X143798361Y-78368186D01*
X143617789Y-78638432D01*
X143493408Y-78938713D01*
X143430000Y-79257489D01*
X141650000Y-79257489D01*
X141586592Y-78938713D01*
X141462211Y-78638432D01*
X141281639Y-78368186D01*
X141051814Y-78138361D01*
X140781568Y-77957789D01*
X140481287Y-77833408D01*
X140162511Y-77770000D01*
X139837489Y-77770000D01*
X139518713Y-77833408D01*
X139218432Y-77957789D01*
X138948186Y-78138361D01*
X138718361Y-78368186D01*
X138537789Y-78638432D01*
X138413408Y-78938713D01*
X138350000Y-79257489D01*
X134866414Y-79257489D01*
X134900000Y-79088642D01*
X134900000Y-78911358D01*
X134865414Y-78737480D01*
X134797570Y-78573690D01*
X134699076Y-78426283D01*
X134573717Y-78300924D01*
X134426310Y-78202430D01*
X134262520Y-78134586D01*
X134088642Y-78100000D01*
X133911358Y-78100000D01*
X133737480Y-78134586D01*
X133573690Y-78202430D01*
X133426283Y-78300924D01*
X133300924Y-78426283D01*
X133202430Y-78573690D01*
X133134586Y-78737480D01*
X133100000Y-78911358D01*
X65525000Y-78911358D01*
X65525000Y-77500000D01*
X99013226Y-77500000D01*
X99040257Y-77774448D01*
X99120310Y-78038349D01*
X99250310Y-78281562D01*
X99425261Y-78494739D01*
X99638438Y-78669690D01*
X99881651Y-78799690D01*
X100145552Y-78879743D01*
X100351223Y-78900000D01*
X100488777Y-78900000D01*
X100694448Y-78879743D01*
X100958349Y-78799690D01*
X101201562Y-78669690D01*
X101414739Y-78494739D01*
X101589690Y-78281562D01*
X101690000Y-78093895D01*
X101790310Y-78281562D01*
X101965261Y-78494739D01*
X102178438Y-78669690D01*
X102421651Y-78799690D01*
X102685552Y-78879743D01*
X102891223Y-78900000D01*
X103028777Y-78900000D01*
X103234448Y-78879743D01*
X103498349Y-78799690D01*
X103741562Y-78669690D01*
X103954739Y-78494739D01*
X104097581Y-78320687D01*
X104097581Y-78400000D01*
X104107235Y-78498017D01*
X104135825Y-78592267D01*
X104182254Y-78679129D01*
X104244736Y-78755264D01*
X104320871Y-78817746D01*
X104407733Y-78864175D01*
X104501983Y-78892765D01*
X104600000Y-78902419D01*
X106400000Y-78902419D01*
X106498017Y-78892765D01*
X106592267Y-78864175D01*
X106679129Y-78817746D01*
X106755264Y-78755264D01*
X106817746Y-78679129D01*
X106864175Y-78592267D01*
X106892765Y-78498017D01*
X106902419Y-78400000D01*
X106902419Y-76911358D01*
X131600000Y-76911358D01*
X131600000Y-77088642D01*
X131634586Y-77262520D01*
X131702430Y-77426310D01*
X131800924Y-77573717D01*
X131926283Y-77699076D01*
X132073690Y-77797570D01*
X132237480Y-77865414D01*
X132411358Y-77900000D01*
X132588642Y-77900000D01*
X132762520Y-77865414D01*
X132926310Y-77797570D01*
X133073717Y-77699076D01*
X133199076Y-77573717D01*
X133297570Y-77426310D01*
X133365414Y-77262520D01*
X133400000Y-77088642D01*
X133400000Y-76911358D01*
X133365414Y-76737480D01*
X133297570Y-76573690D01*
X133199076Y-76426283D01*
X133073717Y-76300924D01*
X132926310Y-76202430D01*
X132762520Y-76134586D01*
X132588642Y-76100000D01*
X132411358Y-76100000D01*
X132237480Y-76134586D01*
X132073690Y-76202430D01*
X131926283Y-76300924D01*
X131800924Y-76426283D01*
X131702430Y-76573690D01*
X131634586Y-76737480D01*
X131600000Y-76911358D01*
X106902419Y-76911358D01*
X106902419Y-76600000D01*
X106892765Y-76501983D01*
X106864175Y-76407733D01*
X106817746Y-76320871D01*
X106755264Y-76244736D01*
X106679129Y-76182254D01*
X106592267Y-76135825D01*
X106498017Y-76107235D01*
X106400000Y-76097581D01*
X104600000Y-76097581D01*
X104501983Y-76107235D01*
X104407733Y-76135825D01*
X104320871Y-76182254D01*
X104244736Y-76244736D01*
X104182254Y-76320871D01*
X104135825Y-76407733D01*
X104107235Y-76501983D01*
X104097581Y-76600000D01*
X104097581Y-76679313D01*
X103954739Y-76505261D01*
X103741562Y-76330310D01*
X103498349Y-76200310D01*
X103234448Y-76120257D01*
X103028777Y-76100000D01*
X102891223Y-76100000D01*
X102685552Y-76120257D01*
X102421651Y-76200310D01*
X102178438Y-76330310D01*
X101965261Y-76505261D01*
X101790310Y-76718438D01*
X101690000Y-76906105D01*
X101589690Y-76718438D01*
X101414739Y-76505261D01*
X101201562Y-76330310D01*
X100958349Y-76200310D01*
X100694448Y-76120257D01*
X100488777Y-76100000D01*
X100351223Y-76100000D01*
X100145552Y-76120257D01*
X99881651Y-76200310D01*
X99638438Y-76330310D01*
X99425261Y-76505261D01*
X99250310Y-76718438D01*
X99120310Y-76961651D01*
X99040257Y-77225552D01*
X99013226Y-77500000D01*
X65525000Y-77500000D01*
X65525000Y-74911358D01*
X133100000Y-74911358D01*
X133100000Y-75088642D01*
X133134586Y-75262520D01*
X133202430Y-75426310D01*
X133300924Y-75573717D01*
X133426283Y-75699076D01*
X133573690Y-75797570D01*
X133737480Y-75865414D01*
X133911358Y-75900000D01*
X134088642Y-75900000D01*
X134262520Y-75865414D01*
X134426310Y-75797570D01*
X134573717Y-75699076D01*
X134699076Y-75573717D01*
X134797570Y-75426310D01*
X134865414Y-75262520D01*
X134900000Y-75088642D01*
X134900000Y-74911358D01*
X134865414Y-74737480D01*
X134797570Y-74573690D01*
X134699076Y-74426283D01*
X134573717Y-74300924D01*
X134426310Y-74202430D01*
X134262520Y-74134586D01*
X134088642Y-74100000D01*
X133911358Y-74100000D01*
X133737480Y-74134586D01*
X133573690Y-74202430D01*
X133426283Y-74300924D01*
X133300924Y-74426283D01*
X133202430Y-74573690D01*
X133134586Y-74737480D01*
X133100000Y-74911358D01*
X65525000Y-74911358D01*
X65525000Y-74625000D01*
X86000000Y-74625000D01*
X86024386Y-74622598D01*
X86047835Y-74615485D01*
X86069446Y-74603934D01*
X86088388Y-74588388D01*
X87765418Y-72911358D01*
X131600000Y-72911358D01*
X131600000Y-73088642D01*
X131634586Y-73262520D01*
X131702430Y-73426310D01*
X131800924Y-73573717D01*
X131926283Y-73699076D01*
X132073690Y-73797570D01*
X132237480Y-73865414D01*
X132411358Y-73900000D01*
X132588642Y-73900000D01*
X132762520Y-73865414D01*
X132926310Y-73797570D01*
X133073717Y-73699076D01*
X133199076Y-73573717D01*
X133297570Y-73426310D01*
X133365414Y-73262520D01*
X133400000Y-73088642D01*
X133400000Y-72911358D01*
X133365414Y-72737480D01*
X133297570Y-72573690D01*
X133199076Y-72426283D01*
X133073717Y-72300924D01*
X132926310Y-72202430D01*
X132762520Y-72134586D01*
X132588642Y-72100000D01*
X132411358Y-72100000D01*
X132237480Y-72134586D01*
X132073690Y-72202430D01*
X131926283Y-72300924D01*
X131800924Y-72426283D01*
X131702430Y-72573690D01*
X131634586Y-72737480D01*
X131600000Y-72911358D01*
X87765418Y-72911358D01*
X90051776Y-70625000D01*
X121000000Y-70625000D01*
X121024386Y-70622598D01*
X121047835Y-70615485D01*
X121069446Y-70603934D01*
X121088388Y-70588388D01*
X127339287Y-64337489D01*
X138350000Y-64337489D01*
X138350000Y-64662511D01*
X138413408Y-64981287D01*
X138537789Y-65281568D01*
X138718361Y-65551814D01*
X138936547Y-65770000D01*
X138718361Y-65988186D01*
X138537789Y-66258432D01*
X138413408Y-66558713D01*
X138350000Y-66877489D01*
X138350000Y-67202511D01*
X138413408Y-67521287D01*
X138537789Y-67821568D01*
X138718361Y-68091814D01*
X138936547Y-68310000D01*
X138718361Y-68528186D01*
X138537789Y-68798432D01*
X138413408Y-69098713D01*
X138350000Y-69417489D01*
X138350000Y-69742511D01*
X138413408Y-70061287D01*
X138537789Y-70361568D01*
X138718361Y-70631814D01*
X138948186Y-70861639D01*
X139218432Y-71042211D01*
X139518713Y-71166592D01*
X139837489Y-71230000D01*
X140162511Y-71230000D01*
X140481287Y-71166592D01*
X140781568Y-71042211D01*
X141051814Y-70861639D01*
X141281639Y-70631814D01*
X141462211Y-70361568D01*
X141586592Y-70061287D01*
X141650000Y-69742511D01*
X141650000Y-69417489D01*
X141586592Y-69098713D01*
X141462211Y-68798432D01*
X141281639Y-68528186D01*
X141063453Y-68310000D01*
X141281639Y-68091814D01*
X141462211Y-67821568D01*
X141586592Y-67521287D01*
X141650000Y-67202511D01*
X141650000Y-66877489D01*
X141586592Y-66558713D01*
X141462211Y-66258432D01*
X141281639Y-65988186D01*
X141063453Y-65770000D01*
X141281639Y-65551814D01*
X141462211Y-65281568D01*
X141586592Y-64981287D01*
X141650000Y-64662511D01*
X141650000Y-64337489D01*
X143430000Y-64337489D01*
X143430000Y-64662511D01*
X143493408Y-64981287D01*
X143617789Y-65281568D01*
X143798361Y-65551814D01*
X144016547Y-65770000D01*
X143798361Y-65988186D01*
X143617789Y-66258432D01*
X143493408Y-66558713D01*
X143430000Y-66877489D01*
X143430000Y-67202511D01*
X143493408Y-67521287D01*
X143617789Y-67821568D01*
X143798361Y-68091814D01*
X144016547Y-68310000D01*
X143798361Y-68528186D01*
X143617789Y-68798432D01*
X143493408Y-69098713D01*
X143430000Y-69417489D01*
X143430000Y-69742511D01*
X143493408Y-70061287D01*
X143617789Y-70361568D01*
X143798361Y-70631814D01*
X144028186Y-70861639D01*
X144298432Y-71042211D01*
X144598713Y-71166592D01*
X144917489Y-71230000D01*
X145242511Y-71230000D01*
X145561287Y-71166592D01*
X145861568Y-71042211D01*
X146131814Y-70861639D01*
X146361639Y-70631814D01*
X146542211Y-70361568D01*
X146666592Y-70061287D01*
X146730000Y-69742511D01*
X146730000Y-69417489D01*
X146666592Y-69098713D01*
X146542211Y-68798432D01*
X146361639Y-68528186D01*
X146143453Y-68310000D01*
X146361639Y-68091814D01*
X146542211Y-67821568D01*
X146666592Y-67521287D01*
X146730000Y-67202511D01*
X146730000Y-66877489D01*
X146666592Y-66558713D01*
X146542211Y-66258432D01*
X146361639Y-65988186D01*
X146143453Y-65770000D01*
X146361639Y-65551814D01*
X146542211Y-65281568D01*
X146666592Y-64981287D01*
X146730000Y-64662511D01*
X146730000Y-64337489D01*
X146666592Y-64018713D01*
X146542211Y-63718432D01*
X146361639Y-63448186D01*
X146131814Y-63218361D01*
X145861568Y-63037789D01*
X145561287Y-62913408D01*
X145242511Y-62850000D01*
X144917489Y-62850000D01*
X144598713Y-62913408D01*
X144298432Y-63037789D01*
X144028186Y-63218361D01*
X143798361Y-63448186D01*
X143617789Y-63718432D01*
X143493408Y-64018713D01*
X143430000Y-64337489D01*
X141650000Y-64337489D01*
X141586592Y-64018713D01*
X141462211Y-63718432D01*
X141281639Y-63448186D01*
X141051814Y-63218361D01*
X140781568Y-63037789D01*
X140481287Y-62913408D01*
X140162511Y-62850000D01*
X139837489Y-62850000D01*
X139518713Y-62913408D01*
X139218432Y-63037789D01*
X138948186Y-63218361D01*
X138718361Y-63448186D01*
X138537789Y-63718432D01*
X138413408Y-64018713D01*
X138350000Y-64337489D01*
X127339287Y-64337489D01*
X131051776Y-60625000D01*
X156089467Y-60625000D01*
X156406343Y-60941876D01*
X156406343Y-60941876D01*
G37*
X156406343Y-60941876D02*
X156815806Y-61215471D01*
X157270777Y-61403926D01*
X157753772Y-61500000D01*
X158246228Y-61500000D01*
X158729223Y-61403926D01*
X159184194Y-61215471D01*
X159593657Y-60941876D01*
X159910533Y-60625000D01*
X161975001Y-60625000D01*
X161975000Y-92375000D01*
X135000000Y-92375000D01*
X134975614Y-92377402D01*
X134952165Y-92384515D01*
X134930554Y-92396066D01*
X134912480Y-92410752D01*
X132948782Y-94336431D01*
X120051622Y-94374846D01*
X118588134Y-92911358D01*
X131600000Y-92911358D01*
X131600000Y-93088642D01*
X131634586Y-93262520D01*
X131702430Y-93426310D01*
X131800924Y-93573717D01*
X131926283Y-93699076D01*
X132073690Y-93797570D01*
X132237480Y-93865414D01*
X132411358Y-93900000D01*
X132588642Y-93900000D01*
X132762520Y-93865414D01*
X132926310Y-93797570D01*
X133073717Y-93699076D01*
X133199076Y-93573717D01*
X133297570Y-93426310D01*
X133365414Y-93262520D01*
X133400000Y-93088642D01*
X133400000Y-92911358D01*
X133365414Y-92737480D01*
X133297570Y-92573690D01*
X133199076Y-92426283D01*
X133073717Y-92300924D01*
X132926310Y-92202430D01*
X132762520Y-92134586D01*
X132588642Y-92100000D01*
X132411358Y-92100000D01*
X132237480Y-92134586D01*
X132073690Y-92202430D01*
X131926283Y-92300924D01*
X131800924Y-92426283D01*
X131702430Y-92573690D01*
X131634586Y-92737480D01*
X131600000Y-92911358D01*
X118588134Y-92911358D01*
X118088388Y-92411612D01*
X118069446Y-92396066D01*
X118047835Y-92384515D01*
X118024386Y-92377402D01*
X118000000Y-92375000D01*
X110500000Y-92375000D01*
X110475614Y-92377402D01*
X110452165Y-92384515D01*
X110430554Y-92396066D01*
X110411612Y-92411612D01*
X109948224Y-92875000D01*
X98051776Y-92875000D01*
X96088388Y-90911612D01*
X96088079Y-90911358D01*
X133100000Y-90911358D01*
X133100000Y-91088642D01*
X133134586Y-91262520D01*
X133202430Y-91426310D01*
X133300924Y-91573717D01*
X133426283Y-91699076D01*
X133573690Y-91797570D01*
X133737480Y-91865414D01*
X133911358Y-91900000D01*
X134088642Y-91900000D01*
X134262520Y-91865414D01*
X134426310Y-91797570D01*
X134573717Y-91699076D01*
X134699076Y-91573717D01*
X134797570Y-91426310D01*
X134865414Y-91262520D01*
X134900000Y-91088642D01*
X134900000Y-90911358D01*
X134865414Y-90737480D01*
X134797570Y-90573690D01*
X134699076Y-90426283D01*
X134573717Y-90300924D01*
X134426310Y-90202430D01*
X134262520Y-90134586D01*
X134088642Y-90100000D01*
X133911358Y-90100000D01*
X133737480Y-90134586D01*
X133573690Y-90202430D01*
X133426283Y-90300924D01*
X133300924Y-90426283D01*
X133202430Y-90573690D01*
X133134586Y-90737480D01*
X133100000Y-90911358D01*
X96088079Y-90911358D01*
X96069446Y-90896066D01*
X96047835Y-90884515D01*
X96024386Y-90877402D01*
X96000000Y-90875000D01*
X65525000Y-90875000D01*
X65525000Y-88600000D01*
X100849839Y-88600000D01*
X100890385Y-89011672D01*
X101010465Y-89407524D01*
X101205465Y-89772343D01*
X101467891Y-90092109D01*
X101787657Y-90354535D01*
X102152476Y-90549535D01*
X102548328Y-90669615D01*
X102856833Y-90700000D01*
X103063167Y-90700000D01*
X103371672Y-90669615D01*
X103767524Y-90549535D01*
X104132343Y-90354535D01*
X104452109Y-90092109D01*
X104714535Y-89772343D01*
X104909535Y-89407524D01*
X105029615Y-89011672D01*
X105039495Y-88911358D01*
X131600000Y-88911358D01*
X131600000Y-89088642D01*
X131634586Y-89262520D01*
X131702430Y-89426310D01*
X131800924Y-89573717D01*
X131926283Y-89699076D01*
X132073690Y-89797570D01*
X132237480Y-89865414D01*
X132411358Y-89900000D01*
X132588642Y-89900000D01*
X132762520Y-89865414D01*
X132926310Y-89797570D01*
X133073717Y-89699076D01*
X133199076Y-89573717D01*
X133297570Y-89426310D01*
X133365414Y-89262520D01*
X133400000Y-89088642D01*
X133400000Y-88911358D01*
X133365414Y-88737480D01*
X133297570Y-88573690D01*
X133199076Y-88426283D01*
X133073717Y-88300924D01*
X132926310Y-88202430D01*
X132762520Y-88134586D01*
X132588642Y-88100000D01*
X132411358Y-88100000D01*
X132237480Y-88134586D01*
X132073690Y-88202430D01*
X131926283Y-88300924D01*
X131800924Y-88426283D01*
X131702430Y-88573690D01*
X131634586Y-88737480D01*
X131600000Y-88911358D01*
X105039495Y-88911358D01*
X105070161Y-88600000D01*
X105029615Y-88188328D01*
X104909535Y-87792476D01*
X104714535Y-87427657D01*
X104452109Y-87107891D01*
X104212634Y-86911358D01*
X133100000Y-86911358D01*
X133100000Y-87088642D01*
X133134586Y-87262520D01*
X133202430Y-87426310D01*
X133300924Y-87573717D01*
X133426283Y-87699076D01*
X133573690Y-87797570D01*
X133737480Y-87865414D01*
X133911358Y-87900000D01*
X134088642Y-87900000D01*
X134262520Y-87865414D01*
X134426310Y-87797570D01*
X134573717Y-87699076D01*
X134699076Y-87573717D01*
X134797570Y-87426310D01*
X134865414Y-87262520D01*
X134900000Y-87088642D01*
X134900000Y-86911358D01*
X134865414Y-86737480D01*
X134797570Y-86573690D01*
X134699076Y-86426283D01*
X134573717Y-86300924D01*
X134426310Y-86202430D01*
X134262520Y-86134586D01*
X134088642Y-86100000D01*
X133911358Y-86100000D01*
X133737480Y-86134586D01*
X133573690Y-86202430D01*
X133426283Y-86300924D01*
X133300924Y-86426283D01*
X133202430Y-86573690D01*
X133134586Y-86737480D01*
X133100000Y-86911358D01*
X104212634Y-86911358D01*
X104132343Y-86845465D01*
X103767524Y-86650465D01*
X103371672Y-86530385D01*
X103063167Y-86500000D01*
X102856833Y-86500000D01*
X102548328Y-86530385D01*
X102152476Y-86650465D01*
X101787657Y-86845465D01*
X101467891Y-87107891D01*
X101205465Y-87427657D01*
X101010465Y-87792476D01*
X100890385Y-88188328D01*
X100849839Y-88600000D01*
X65525000Y-88600000D01*
X65525000Y-84911358D01*
X131600000Y-84911358D01*
X131600000Y-85088642D01*
X131634586Y-85262520D01*
X131702430Y-85426310D01*
X131800924Y-85573717D01*
X131926283Y-85699076D01*
X132073690Y-85797570D01*
X132237480Y-85865414D01*
X132411358Y-85900000D01*
X132588642Y-85900000D01*
X132762520Y-85865414D01*
X132926310Y-85797570D01*
X133073717Y-85699076D01*
X133199076Y-85573717D01*
X133297570Y-85426310D01*
X133365414Y-85262520D01*
X133400000Y-85088642D01*
X133400000Y-84911358D01*
X133365414Y-84737480D01*
X133297570Y-84573690D01*
X133199076Y-84426283D01*
X133073717Y-84300924D01*
X132926310Y-84202430D01*
X132762520Y-84134586D01*
X132588642Y-84100000D01*
X132411358Y-84100000D01*
X132237480Y-84134586D01*
X132073690Y-84202430D01*
X131926283Y-84300924D01*
X131800924Y-84426283D01*
X131702430Y-84573690D01*
X131634586Y-84737480D01*
X131600000Y-84911358D01*
X65525000Y-84911358D01*
X65525000Y-82911358D01*
X133100000Y-82911358D01*
X133100000Y-83088642D01*
X133134586Y-83262520D01*
X133202430Y-83426310D01*
X133300924Y-83573717D01*
X133426283Y-83699076D01*
X133573690Y-83797570D01*
X133737480Y-83865414D01*
X133911358Y-83900000D01*
X134088642Y-83900000D01*
X134262520Y-83865414D01*
X134426310Y-83797570D01*
X134573717Y-83699076D01*
X134699076Y-83573717D01*
X134797570Y-83426310D01*
X134865414Y-83262520D01*
X134900000Y-83088642D01*
X134900000Y-82911358D01*
X134865414Y-82737480D01*
X134797570Y-82573690D01*
X134699076Y-82426283D01*
X134573717Y-82300924D01*
X134426310Y-82202430D01*
X134262520Y-82134586D01*
X134088642Y-82100000D01*
X133911358Y-82100000D01*
X133737480Y-82134586D01*
X133573690Y-82202430D01*
X133426283Y-82300924D01*
X133300924Y-82426283D01*
X133202430Y-82573690D01*
X133134586Y-82737480D01*
X133100000Y-82911358D01*
X65525000Y-82911358D01*
X65525000Y-80911358D01*
X131600000Y-80911358D01*
X131600000Y-81088642D01*
X131634586Y-81262520D01*
X131702430Y-81426310D01*
X131800924Y-81573717D01*
X131926283Y-81699076D01*
X132073690Y-81797570D01*
X132237480Y-81865414D01*
X132411358Y-81900000D01*
X132588642Y-81900000D01*
X132762520Y-81865414D01*
X132926310Y-81797570D01*
X133073717Y-81699076D01*
X133199076Y-81573717D01*
X133297570Y-81426310D01*
X133365414Y-81262520D01*
X133400000Y-81088642D01*
X133400000Y-80911358D01*
X133365414Y-80737480D01*
X133297570Y-80573690D01*
X133199076Y-80426283D01*
X133073717Y-80300924D01*
X132926310Y-80202430D01*
X132762520Y-80134586D01*
X132588642Y-80100000D01*
X132411358Y-80100000D01*
X132237480Y-80134586D01*
X132073690Y-80202430D01*
X131926283Y-80300924D01*
X131800924Y-80426283D01*
X131702430Y-80573690D01*
X131634586Y-80737480D01*
X131600000Y-80911358D01*
X65525000Y-80911358D01*
X65525000Y-78911358D01*
X133100000Y-78911358D01*
X133100000Y-79088642D01*
X133134586Y-79262520D01*
X133202430Y-79426310D01*
X133300924Y-79573717D01*
X133426283Y-79699076D01*
X133573690Y-79797570D01*
X133737480Y-79865414D01*
X133911358Y-79900000D01*
X134088642Y-79900000D01*
X134262520Y-79865414D01*
X134426310Y-79797570D01*
X134573717Y-79699076D01*
X134699076Y-79573717D01*
X134797570Y-79426310D01*
X134865414Y-79262520D01*
X134866414Y-79257489D01*
X138350000Y-79257489D01*
X138350000Y-79582511D01*
X138413408Y-79901287D01*
X138537789Y-80201568D01*
X138718361Y-80471814D01*
X138936547Y-80690000D01*
X138718361Y-80908186D01*
X138537789Y-81178432D01*
X138413408Y-81478713D01*
X138350000Y-81797489D01*
X138350000Y-82122511D01*
X138413408Y-82441287D01*
X138537789Y-82741568D01*
X138718361Y-83011814D01*
X138936547Y-83230000D01*
X138718361Y-83448186D01*
X138537789Y-83718432D01*
X138413408Y-84018713D01*
X138350000Y-84337489D01*
X138350000Y-84662511D01*
X138413408Y-84981287D01*
X138537789Y-85281568D01*
X138718361Y-85551814D01*
X138948186Y-85781639D01*
X139218432Y-85962211D01*
X139518713Y-86086592D01*
X139837489Y-86150000D01*
X140162511Y-86150000D01*
X140481287Y-86086592D01*
X140781568Y-85962211D01*
X141051814Y-85781639D01*
X141281639Y-85551814D01*
X141462211Y-85281568D01*
X141586592Y-84981287D01*
X141650000Y-84662511D01*
X141650000Y-84337489D01*
X141586592Y-84018713D01*
X141462211Y-83718432D01*
X141281639Y-83448186D01*
X141063453Y-83230000D01*
X141281639Y-83011814D01*
X141462211Y-82741568D01*
X141586592Y-82441287D01*
X141650000Y-82122511D01*
X141650000Y-81797489D01*
X141586592Y-81478713D01*
X141462211Y-81178432D01*
X141281639Y-80908186D01*
X141063453Y-80690000D01*
X141281639Y-80471814D01*
X141462211Y-80201568D01*
X141586592Y-79901287D01*
X141650000Y-79582511D01*
X141650000Y-79257489D01*
X143430000Y-79257489D01*
X143430000Y-79582511D01*
X143493408Y-79901287D01*
X143617789Y-80201568D01*
X143798361Y-80471814D01*
X144016547Y-80690000D01*
X143798361Y-80908186D01*
X143617789Y-81178432D01*
X143493408Y-81478713D01*
X143430000Y-81797489D01*
X143430000Y-82122511D01*
X143493408Y-82441287D01*
X143617789Y-82741568D01*
X143798361Y-83011814D01*
X144016547Y-83230000D01*
X143798361Y-83448186D01*
X143617789Y-83718432D01*
X143493408Y-84018713D01*
X143430000Y-84337489D01*
X143430000Y-84662511D01*
X143493408Y-84981287D01*
X143617789Y-85281568D01*
X143798361Y-85551814D01*
X144028186Y-85781639D01*
X144298432Y-85962211D01*
X144598713Y-86086592D01*
X144917489Y-86150000D01*
X145242511Y-86150000D01*
X145561287Y-86086592D01*
X145861568Y-85962211D01*
X146131814Y-85781639D01*
X146361639Y-85551814D01*
X146542211Y-85281568D01*
X146666592Y-84981287D01*
X146730000Y-84662511D01*
X146730000Y-84337489D01*
X146666592Y-84018713D01*
X146542211Y-83718432D01*
X146361639Y-83448186D01*
X146143453Y-83230000D01*
X146361639Y-83011814D01*
X146542211Y-82741568D01*
X146666592Y-82441287D01*
X146730000Y-82122511D01*
X146730000Y-81797489D01*
X146666592Y-81478713D01*
X146542211Y-81178432D01*
X146361639Y-80908186D01*
X146143453Y-80690000D01*
X146361639Y-80471814D01*
X146542211Y-80201568D01*
X146666592Y-79901287D01*
X146730000Y-79582511D01*
X146730000Y-79257489D01*
X146666592Y-78938713D01*
X146542211Y-78638432D01*
X146361639Y-78368186D01*
X146131814Y-78138361D01*
X145861568Y-77957789D01*
X145561287Y-77833408D01*
X145242511Y-77770000D01*
X144917489Y-77770000D01*
X144598713Y-77833408D01*
X144298432Y-77957789D01*
X144028186Y-78138361D01*
X143798361Y-78368186D01*
X143617789Y-78638432D01*
X143493408Y-78938713D01*
X143430000Y-79257489D01*
X141650000Y-79257489D01*
X141586592Y-78938713D01*
X141462211Y-78638432D01*
X141281639Y-78368186D01*
X141051814Y-78138361D01*
X140781568Y-77957789D01*
X140481287Y-77833408D01*
X140162511Y-77770000D01*
X139837489Y-77770000D01*
X139518713Y-77833408D01*
X139218432Y-77957789D01*
X138948186Y-78138361D01*
X138718361Y-78368186D01*
X138537789Y-78638432D01*
X138413408Y-78938713D01*
X138350000Y-79257489D01*
X134866414Y-79257489D01*
X134900000Y-79088642D01*
X134900000Y-78911358D01*
X134865414Y-78737480D01*
X134797570Y-78573690D01*
X134699076Y-78426283D01*
X134573717Y-78300924D01*
X134426310Y-78202430D01*
X134262520Y-78134586D01*
X134088642Y-78100000D01*
X133911358Y-78100000D01*
X133737480Y-78134586D01*
X133573690Y-78202430D01*
X133426283Y-78300924D01*
X133300924Y-78426283D01*
X133202430Y-78573690D01*
X133134586Y-78737480D01*
X133100000Y-78911358D01*
X65525000Y-78911358D01*
X65525000Y-77500000D01*
X99013226Y-77500000D01*
X99040257Y-77774448D01*
X99120310Y-78038349D01*
X99250310Y-78281562D01*
X99425261Y-78494739D01*
X99638438Y-78669690D01*
X99881651Y-78799690D01*
X100145552Y-78879743D01*
X100351223Y-78900000D01*
X100488777Y-78900000D01*
X100694448Y-78879743D01*
X100958349Y-78799690D01*
X101201562Y-78669690D01*
X101414739Y-78494739D01*
X101589690Y-78281562D01*
X101690000Y-78093895D01*
X101790310Y-78281562D01*
X101965261Y-78494739D01*
X102178438Y-78669690D01*
X102421651Y-78799690D01*
X102685552Y-78879743D01*
X102891223Y-78900000D01*
X103028777Y-78900000D01*
X103234448Y-78879743D01*
X103498349Y-78799690D01*
X103741562Y-78669690D01*
X103954739Y-78494739D01*
X104097581Y-78320687D01*
X104097581Y-78400000D01*
X104107235Y-78498017D01*
X104135825Y-78592267D01*
X104182254Y-78679129D01*
X104244736Y-78755264D01*
X104320871Y-78817746D01*
X104407733Y-78864175D01*
X104501983Y-78892765D01*
X104600000Y-78902419D01*
X106400000Y-78902419D01*
X106498017Y-78892765D01*
X106592267Y-78864175D01*
X106679129Y-78817746D01*
X106755264Y-78755264D01*
X106817746Y-78679129D01*
X106864175Y-78592267D01*
X106892765Y-78498017D01*
X106902419Y-78400000D01*
X106902419Y-76911358D01*
X131600000Y-76911358D01*
X131600000Y-77088642D01*
X131634586Y-77262520D01*
X131702430Y-77426310D01*
X131800924Y-77573717D01*
X131926283Y-77699076D01*
X132073690Y-77797570D01*
X132237480Y-77865414D01*
X132411358Y-77900000D01*
X132588642Y-77900000D01*
X132762520Y-77865414D01*
X132926310Y-77797570D01*
X133073717Y-77699076D01*
X133199076Y-77573717D01*
X133297570Y-77426310D01*
X133365414Y-77262520D01*
X133400000Y-77088642D01*
X133400000Y-76911358D01*
X133365414Y-76737480D01*
X133297570Y-76573690D01*
X133199076Y-76426283D01*
X133073717Y-76300924D01*
X132926310Y-76202430D01*
X132762520Y-76134586D01*
X132588642Y-76100000D01*
X132411358Y-76100000D01*
X132237480Y-76134586D01*
X132073690Y-76202430D01*
X131926283Y-76300924D01*
X131800924Y-76426283D01*
X131702430Y-76573690D01*
X131634586Y-76737480D01*
X131600000Y-76911358D01*
X106902419Y-76911358D01*
X106902419Y-76600000D01*
X106892765Y-76501983D01*
X106864175Y-76407733D01*
X106817746Y-76320871D01*
X106755264Y-76244736D01*
X106679129Y-76182254D01*
X106592267Y-76135825D01*
X106498017Y-76107235D01*
X106400000Y-76097581D01*
X104600000Y-76097581D01*
X104501983Y-76107235D01*
X104407733Y-76135825D01*
X104320871Y-76182254D01*
X104244736Y-76244736D01*
X104182254Y-76320871D01*
X104135825Y-76407733D01*
X104107235Y-76501983D01*
X104097581Y-76600000D01*
X104097581Y-76679313D01*
X103954739Y-76505261D01*
X103741562Y-76330310D01*
X103498349Y-76200310D01*
X103234448Y-76120257D01*
X103028777Y-76100000D01*
X102891223Y-76100000D01*
X102685552Y-76120257D01*
X102421651Y-76200310D01*
X102178438Y-76330310D01*
X101965261Y-76505261D01*
X101790310Y-76718438D01*
X101690000Y-76906105D01*
X101589690Y-76718438D01*
X101414739Y-76505261D01*
X101201562Y-76330310D01*
X100958349Y-76200310D01*
X100694448Y-76120257D01*
X100488777Y-76100000D01*
X100351223Y-76100000D01*
X100145552Y-76120257D01*
X99881651Y-76200310D01*
X99638438Y-76330310D01*
X99425261Y-76505261D01*
X99250310Y-76718438D01*
X99120310Y-76961651D01*
X99040257Y-77225552D01*
X99013226Y-77500000D01*
X65525000Y-77500000D01*
X65525000Y-74911358D01*
X133100000Y-74911358D01*
X133100000Y-75088642D01*
X133134586Y-75262520D01*
X133202430Y-75426310D01*
X133300924Y-75573717D01*
X133426283Y-75699076D01*
X133573690Y-75797570D01*
X133737480Y-75865414D01*
X133911358Y-75900000D01*
X134088642Y-75900000D01*
X134262520Y-75865414D01*
X134426310Y-75797570D01*
X134573717Y-75699076D01*
X134699076Y-75573717D01*
X134797570Y-75426310D01*
X134865414Y-75262520D01*
X134900000Y-75088642D01*
X134900000Y-74911358D01*
X134865414Y-74737480D01*
X134797570Y-74573690D01*
X134699076Y-74426283D01*
X134573717Y-74300924D01*
X134426310Y-74202430D01*
X134262520Y-74134586D01*
X134088642Y-74100000D01*
X133911358Y-74100000D01*
X133737480Y-74134586D01*
X133573690Y-74202430D01*
X133426283Y-74300924D01*
X133300924Y-74426283D01*
X133202430Y-74573690D01*
X133134586Y-74737480D01*
X133100000Y-74911358D01*
X65525000Y-74911358D01*
X65525000Y-74625000D01*
X86000000Y-74625000D01*
X86024386Y-74622598D01*
X86047835Y-74615485D01*
X86069446Y-74603934D01*
X86088388Y-74588388D01*
X87765418Y-72911358D01*
X131600000Y-72911358D01*
X131600000Y-73088642D01*
X131634586Y-73262520D01*
X131702430Y-73426310D01*
X131800924Y-73573717D01*
X131926283Y-73699076D01*
X132073690Y-73797570D01*
X132237480Y-73865414D01*
X132411358Y-73900000D01*
X132588642Y-73900000D01*
X132762520Y-73865414D01*
X132926310Y-73797570D01*
X133073717Y-73699076D01*
X133199076Y-73573717D01*
X133297570Y-73426310D01*
X133365414Y-73262520D01*
X133400000Y-73088642D01*
X133400000Y-72911358D01*
X133365414Y-72737480D01*
X133297570Y-72573690D01*
X133199076Y-72426283D01*
X133073717Y-72300924D01*
X132926310Y-72202430D01*
X132762520Y-72134586D01*
X132588642Y-72100000D01*
X132411358Y-72100000D01*
X132237480Y-72134586D01*
X132073690Y-72202430D01*
X131926283Y-72300924D01*
X131800924Y-72426283D01*
X131702430Y-72573690D01*
X131634586Y-72737480D01*
X131600000Y-72911358D01*
X87765418Y-72911358D01*
X90051776Y-70625000D01*
X121000000Y-70625000D01*
X121024386Y-70622598D01*
X121047835Y-70615485D01*
X121069446Y-70603934D01*
X121088388Y-70588388D01*
X127339287Y-64337489D01*
X138350000Y-64337489D01*
X138350000Y-64662511D01*
X138413408Y-64981287D01*
X138537789Y-65281568D01*
X138718361Y-65551814D01*
X138936547Y-65770000D01*
X138718361Y-65988186D01*
X138537789Y-66258432D01*
X138413408Y-66558713D01*
X138350000Y-66877489D01*
X138350000Y-67202511D01*
X138413408Y-67521287D01*
X138537789Y-67821568D01*
X138718361Y-68091814D01*
X138936547Y-68310000D01*
X138718361Y-68528186D01*
X138537789Y-68798432D01*
X138413408Y-69098713D01*
X138350000Y-69417489D01*
X138350000Y-69742511D01*
X138413408Y-70061287D01*
X138537789Y-70361568D01*
X138718361Y-70631814D01*
X138948186Y-70861639D01*
X139218432Y-71042211D01*
X139518713Y-71166592D01*
X139837489Y-71230000D01*
X140162511Y-71230000D01*
X140481287Y-71166592D01*
X140781568Y-71042211D01*
X141051814Y-70861639D01*
X141281639Y-70631814D01*
X141462211Y-70361568D01*
X141586592Y-70061287D01*
X141650000Y-69742511D01*
X141650000Y-69417489D01*
X141586592Y-69098713D01*
X141462211Y-68798432D01*
X141281639Y-68528186D01*
X141063453Y-68310000D01*
X141281639Y-68091814D01*
X141462211Y-67821568D01*
X141586592Y-67521287D01*
X141650000Y-67202511D01*
X141650000Y-66877489D01*
X141586592Y-66558713D01*
X141462211Y-66258432D01*
X141281639Y-65988186D01*
X141063453Y-65770000D01*
X141281639Y-65551814D01*
X141462211Y-65281568D01*
X141586592Y-64981287D01*
X141650000Y-64662511D01*
X141650000Y-64337489D01*
X143430000Y-64337489D01*
X143430000Y-64662511D01*
X143493408Y-64981287D01*
X143617789Y-65281568D01*
X143798361Y-65551814D01*
X144016547Y-65770000D01*
X143798361Y-65988186D01*
X143617789Y-66258432D01*
X143493408Y-66558713D01*
X143430000Y-66877489D01*
X143430000Y-67202511D01*
X143493408Y-67521287D01*
X143617789Y-67821568D01*
X143798361Y-68091814D01*
X144016547Y-68310000D01*
X143798361Y-68528186D01*
X143617789Y-68798432D01*
X143493408Y-69098713D01*
X143430000Y-69417489D01*
X143430000Y-69742511D01*
X143493408Y-70061287D01*
X143617789Y-70361568D01*
X143798361Y-70631814D01*
X144028186Y-70861639D01*
X144298432Y-71042211D01*
X144598713Y-71166592D01*
X144917489Y-71230000D01*
X145242511Y-71230000D01*
X145561287Y-71166592D01*
X145861568Y-71042211D01*
X146131814Y-70861639D01*
X146361639Y-70631814D01*
X146542211Y-70361568D01*
X146666592Y-70061287D01*
X146730000Y-69742511D01*
X146730000Y-69417489D01*
X146666592Y-69098713D01*
X146542211Y-68798432D01*
X146361639Y-68528186D01*
X146143453Y-68310000D01*
X146361639Y-68091814D01*
X146542211Y-67821568D01*
X146666592Y-67521287D01*
X146730000Y-67202511D01*
X146730000Y-66877489D01*
X146666592Y-66558713D01*
X146542211Y-66258432D01*
X146361639Y-65988186D01*
X146143453Y-65770000D01*
X146361639Y-65551814D01*
X146542211Y-65281568D01*
X146666592Y-64981287D01*
X146730000Y-64662511D01*
X146730000Y-64337489D01*
X146666592Y-64018713D01*
X146542211Y-63718432D01*
X146361639Y-63448186D01*
X146131814Y-63218361D01*
X145861568Y-63037789D01*
X145561287Y-62913408D01*
X145242511Y-62850000D01*
X144917489Y-62850000D01*
X144598713Y-62913408D01*
X144298432Y-63037789D01*
X144028186Y-63218361D01*
X143798361Y-63448186D01*
X143617789Y-63718432D01*
X143493408Y-64018713D01*
X143430000Y-64337489D01*
X141650000Y-64337489D01*
X141586592Y-64018713D01*
X141462211Y-63718432D01*
X141281639Y-63448186D01*
X141051814Y-63218361D01*
X140781568Y-63037789D01*
X140481287Y-62913408D01*
X140162511Y-62850000D01*
X139837489Y-62850000D01*
X139518713Y-62913408D01*
X139218432Y-63037789D01*
X138948186Y-63218361D01*
X138718361Y-63448186D01*
X138537789Y-63718432D01*
X138413408Y-64018713D01*
X138350000Y-64337489D01*
X127339287Y-64337489D01*
X131051776Y-60625000D01*
X156089467Y-60625000D01*
X156406343Y-60941876D01*
M02*
