G04 #@! TF.GenerationSoftware,KiCad,Pcbnew,(5.1.4)-1*
G04 #@! TF.CreationDate,2021-06-03T21:11:04-04:00*
G04 #@! TF.ProjectId,shunt_current_control_v2,7368756e-745f-4637-9572-72656e745f63,rev?*
G04 #@! TF.SameCoordinates,Original*
G04 #@! TF.FileFunction,Soldermask,Bot*
G04 #@! TF.FilePolarity,Negative*
%FSLAX46Y46*%
G04 Gerber Fmt 4.6, Leading zero omitted, Abs format (unit mm)*
G04 Created by KiCad (PCBNEW (5.1.4)-1) date 2021-06-03 21:11:04*
%MOMM*%
%LPD*%
G04 APERTURE LIST*
%ADD10C,0.100000*%
G04 APERTURE END LIST*
D10*
G36*
X162250000Y-54250000D02*
G01*
X65000000Y-54250000D01*
X65000000Y-36000000D01*
X162250000Y-36000000D01*
X162250000Y-54250000D01*
G37*
X162250000Y-54250000D02*
X65000000Y-54250000D01*
X65000000Y-36000000D01*
X162250000Y-36000000D01*
X162250000Y-54250000D01*
G36*
X77838023Y-126904457D02*
G01*
X77875636Y-126915867D01*
X77910293Y-126934391D01*
X77940675Y-126959325D01*
X77965609Y-126989707D01*
X77984133Y-127024364D01*
X77995543Y-127061977D01*
X78000000Y-127107228D01*
X78000000Y-127942772D01*
X77995543Y-127988023D01*
X77984133Y-128025636D01*
X77965609Y-128060293D01*
X77940675Y-128090675D01*
X77910293Y-128115609D01*
X77875636Y-128134133D01*
X77838023Y-128145543D01*
X77792772Y-128150000D01*
X76707228Y-128150000D01*
X76661977Y-128145543D01*
X76624364Y-128134133D01*
X76589707Y-128115609D01*
X76559325Y-128090675D01*
X76534391Y-128060293D01*
X76515867Y-128025636D01*
X76504457Y-127988023D01*
X76500000Y-127942772D01*
X76500000Y-127107228D01*
X76504457Y-127061977D01*
X76515867Y-127024364D01*
X76534391Y-126989707D01*
X76559325Y-126959325D01*
X76589707Y-126934391D01*
X76624364Y-126915867D01*
X76661977Y-126904457D01*
X76707228Y-126900000D01*
X77792772Y-126900000D01*
X77838023Y-126904457D01*
X77838023Y-126904457D01*
G37*
G36*
X75588023Y-126879457D02*
G01*
X75625636Y-126890867D01*
X75660293Y-126909391D01*
X75690675Y-126934325D01*
X75715609Y-126964707D01*
X75734133Y-126999364D01*
X75745543Y-127036977D01*
X75750000Y-127082228D01*
X75750000Y-127917772D01*
X75745543Y-127963023D01*
X75734133Y-128000636D01*
X75715609Y-128035293D01*
X75690675Y-128065675D01*
X75660293Y-128090609D01*
X75625636Y-128109133D01*
X75588023Y-128120543D01*
X75542772Y-128125000D01*
X74457228Y-128125000D01*
X74411977Y-128120543D01*
X74374364Y-128109133D01*
X74339707Y-128090609D01*
X74309325Y-128065675D01*
X74284391Y-128035293D01*
X74265867Y-128000636D01*
X74254457Y-127963023D01*
X74250000Y-127917772D01*
X74250000Y-127082228D01*
X74254457Y-127036977D01*
X74265867Y-126999364D01*
X74284391Y-126964707D01*
X74309325Y-126934325D01*
X74339707Y-126909391D01*
X74374364Y-126890867D01*
X74411977Y-126879457D01*
X74457228Y-126875000D01*
X75542772Y-126875000D01*
X75588023Y-126879457D01*
X75588023Y-126879457D01*
G37*
G36*
X77838023Y-124854457D02*
G01*
X77875636Y-124865867D01*
X77910293Y-124884391D01*
X77940675Y-124909325D01*
X77965609Y-124939707D01*
X77984133Y-124974364D01*
X77995543Y-125011977D01*
X78000000Y-125057228D01*
X78000000Y-125892772D01*
X77995543Y-125938023D01*
X77984133Y-125975636D01*
X77965609Y-126010293D01*
X77940675Y-126040675D01*
X77910293Y-126065609D01*
X77875636Y-126084133D01*
X77838023Y-126095543D01*
X77792772Y-126100000D01*
X76707228Y-126100000D01*
X76661977Y-126095543D01*
X76624364Y-126084133D01*
X76589707Y-126065609D01*
X76559325Y-126040675D01*
X76534391Y-126010293D01*
X76515867Y-125975636D01*
X76504457Y-125938023D01*
X76500000Y-125892772D01*
X76500000Y-125057228D01*
X76504457Y-125011977D01*
X76515867Y-124974364D01*
X76534391Y-124939707D01*
X76559325Y-124909325D01*
X76589707Y-124884391D01*
X76624364Y-124865867D01*
X76661977Y-124854457D01*
X76707228Y-124850000D01*
X77792772Y-124850000D01*
X77838023Y-124854457D01*
X77838023Y-124854457D01*
G37*
G36*
X75588023Y-124829457D02*
G01*
X75625636Y-124840867D01*
X75660293Y-124859391D01*
X75690675Y-124884325D01*
X75715609Y-124914707D01*
X75734133Y-124949364D01*
X75745543Y-124986977D01*
X75750000Y-125032228D01*
X75750000Y-125867772D01*
X75745543Y-125913023D01*
X75734133Y-125950636D01*
X75715609Y-125985293D01*
X75690675Y-126015675D01*
X75660293Y-126040609D01*
X75625636Y-126059133D01*
X75588023Y-126070543D01*
X75542772Y-126075000D01*
X74457228Y-126075000D01*
X74411977Y-126070543D01*
X74374364Y-126059133D01*
X74339707Y-126040609D01*
X74309325Y-126015675D01*
X74284391Y-125985293D01*
X74265867Y-125950636D01*
X74254457Y-125913023D01*
X74250000Y-125867772D01*
X74250000Y-125032228D01*
X74254457Y-124986977D01*
X74265867Y-124949364D01*
X74284391Y-124914707D01*
X74309325Y-124884325D01*
X74339707Y-124859391D01*
X74374364Y-124840867D01*
X74411977Y-124829457D01*
X74457228Y-124825000D01*
X75542772Y-124825000D01*
X75588023Y-124829457D01*
X75588023Y-124829457D01*
G37*
G36*
X73459802Y-118000723D02*
G01*
X73469225Y-118003581D01*
X73469227Y-118003582D01*
X73477913Y-118008225D01*
X73477914Y-118008226D01*
X73477916Y-118008227D01*
X73485527Y-118014473D01*
X73494487Y-118025391D01*
X73503373Y-118038691D01*
X73520700Y-118056018D01*
X73541074Y-118069632D01*
X73563713Y-118079010D01*
X73587746Y-118083791D01*
X73612250Y-118083791D01*
X73636283Y-118079011D01*
X73658922Y-118069634D01*
X73679297Y-118056021D01*
X73696624Y-118038694D01*
X73705511Y-118025393D01*
X73714473Y-118014473D01*
X73722084Y-118008227D01*
X73722086Y-118008226D01*
X73722087Y-118008225D01*
X73730773Y-118003582D01*
X73730775Y-118003581D01*
X73740198Y-118000723D01*
X73756141Y-117999153D01*
X74243860Y-117999153D01*
X74255326Y-118000282D01*
X74259802Y-118000723D01*
X74259803Y-118000723D01*
X74262196Y-118000959D01*
X74274448Y-118001561D01*
X74292868Y-118001561D01*
X74305365Y-118002792D01*
X74308811Y-118003131D01*
X74308812Y-118003131D01*
X74314953Y-118003736D01*
X74399038Y-118020462D01*
X74404940Y-118022252D01*
X74404944Y-118022253D01*
X74414369Y-118025112D01*
X74414372Y-118025113D01*
X74420279Y-118026905D01*
X74499474Y-118059708D01*
X74504919Y-118062619D01*
X74504925Y-118062621D01*
X74513611Y-118067264D01*
X74513615Y-118067267D01*
X74519056Y-118070175D01*
X74590343Y-118117807D01*
X74607488Y-118131878D01*
X74668122Y-118192512D01*
X74682193Y-118209657D01*
X74729825Y-118280944D01*
X74732733Y-118286385D01*
X74732736Y-118286389D01*
X74737379Y-118295075D01*
X74737381Y-118295081D01*
X74740292Y-118300526D01*
X74773095Y-118379721D01*
X74779538Y-118400962D01*
X74796264Y-118485047D01*
X74798439Y-118507132D01*
X74798439Y-118525552D01*
X74799041Y-118537804D01*
X74800847Y-118556140D01*
X74800847Y-119043860D01*
X74799041Y-119062196D01*
X74798439Y-119074448D01*
X74798439Y-119092868D01*
X74796264Y-119114953D01*
X74779538Y-119199038D01*
X74773095Y-119220279D01*
X74740292Y-119299474D01*
X74737381Y-119304919D01*
X74737379Y-119304925D01*
X74732736Y-119313611D01*
X74732733Y-119313615D01*
X74729825Y-119319056D01*
X74682193Y-119390343D01*
X74668122Y-119407488D01*
X74607488Y-119468122D01*
X74590343Y-119482193D01*
X74519056Y-119529825D01*
X74513615Y-119532733D01*
X74513611Y-119532736D01*
X74504925Y-119537379D01*
X74504919Y-119537381D01*
X74499474Y-119540292D01*
X74420279Y-119573095D01*
X74414372Y-119574887D01*
X74414369Y-119574888D01*
X74404944Y-119577747D01*
X74404940Y-119577748D01*
X74399038Y-119579538D01*
X74314953Y-119596264D01*
X74308812Y-119596869D01*
X74308811Y-119596869D01*
X74305365Y-119597208D01*
X74292868Y-119598439D01*
X74274448Y-119598439D01*
X74262196Y-119599041D01*
X74259803Y-119599277D01*
X74259802Y-119599277D01*
X74255326Y-119599718D01*
X74243860Y-119600847D01*
X73756141Y-119600847D01*
X73740198Y-119599277D01*
X73730775Y-119596419D01*
X73730485Y-119596264D01*
X73722087Y-119591775D01*
X73722086Y-119591774D01*
X73722084Y-119591773D01*
X73714473Y-119585527D01*
X73705513Y-119574609D01*
X73696627Y-119561309D01*
X73679300Y-119543982D01*
X73658926Y-119530368D01*
X73636287Y-119520990D01*
X73612254Y-119516209D01*
X73587750Y-119516209D01*
X73563717Y-119520989D01*
X73541078Y-119530366D01*
X73520703Y-119543979D01*
X73503376Y-119561306D01*
X73494489Y-119574607D01*
X73485527Y-119585527D01*
X73477916Y-119591773D01*
X73477914Y-119591774D01*
X73477913Y-119591775D01*
X73469515Y-119596264D01*
X73469225Y-119596419D01*
X73459802Y-119599277D01*
X73443859Y-119600847D01*
X72956140Y-119600847D01*
X72944674Y-119599718D01*
X72940198Y-119599277D01*
X72940197Y-119599277D01*
X72937804Y-119599041D01*
X72925552Y-119598439D01*
X72907132Y-119598439D01*
X72894635Y-119597208D01*
X72891189Y-119596869D01*
X72891188Y-119596869D01*
X72885047Y-119596264D01*
X72800962Y-119579538D01*
X72795060Y-119577748D01*
X72795056Y-119577747D01*
X72785631Y-119574888D01*
X72785628Y-119574887D01*
X72779721Y-119573095D01*
X72700526Y-119540292D01*
X72695081Y-119537381D01*
X72695075Y-119537379D01*
X72686389Y-119532736D01*
X72686385Y-119532733D01*
X72680944Y-119529825D01*
X72609657Y-119482193D01*
X72592512Y-119468122D01*
X72531878Y-119407488D01*
X72517807Y-119390343D01*
X72470175Y-119319056D01*
X72467267Y-119313615D01*
X72467264Y-119313611D01*
X72462621Y-119304925D01*
X72462619Y-119304919D01*
X72459708Y-119299474D01*
X72426905Y-119220279D01*
X72420462Y-119199038D01*
X72403736Y-119114953D01*
X72401561Y-119092868D01*
X72401561Y-119074448D01*
X72400959Y-119062196D01*
X72399153Y-119043860D01*
X72399153Y-118556140D01*
X72400959Y-118537804D01*
X72401561Y-118525552D01*
X72401561Y-118507132D01*
X72403736Y-118485047D01*
X72420462Y-118400962D01*
X72426905Y-118379721D01*
X72459708Y-118300526D01*
X72462619Y-118295081D01*
X72462621Y-118295075D01*
X72467264Y-118286389D01*
X72467267Y-118286385D01*
X72470175Y-118280944D01*
X72517807Y-118209657D01*
X72531878Y-118192512D01*
X72592512Y-118131878D01*
X72609657Y-118117807D01*
X72680944Y-118070175D01*
X72686385Y-118067267D01*
X72686389Y-118067264D01*
X72695075Y-118062621D01*
X72695081Y-118062619D01*
X72700526Y-118059708D01*
X72779721Y-118026905D01*
X72785628Y-118025113D01*
X72785631Y-118025112D01*
X72795056Y-118022253D01*
X72795060Y-118022252D01*
X72800962Y-118020462D01*
X72885047Y-118003736D01*
X72891188Y-118003131D01*
X72891189Y-118003131D01*
X72894635Y-118002792D01*
X72907132Y-118001561D01*
X72925552Y-118001561D01*
X72937804Y-118000959D01*
X72940197Y-118000723D01*
X72940198Y-118000723D01*
X72944674Y-118000282D01*
X72956140Y-117999153D01*
X73443859Y-117999153D01*
X73459802Y-118000723D01*
X73459802Y-118000723D01*
G37*
G36*
X88800000Y-118100000D02*
G01*
X87700000Y-118100000D01*
X87700000Y-116950000D01*
X88800000Y-116950000D01*
X88800000Y-118100000D01*
X88800000Y-118100000D01*
G37*
G36*
X102997935Y-115682664D02*
G01*
X103152624Y-115746739D01*
X103152626Y-115746740D01*
X103291844Y-115839762D01*
X103410238Y-115958156D01*
X103503260Y-116097374D01*
X103503261Y-116097376D01*
X103567336Y-116252065D01*
X103600000Y-116416281D01*
X103600000Y-116583719D01*
X103567336Y-116747935D01*
X103503261Y-116902624D01*
X103503260Y-116902626D01*
X103410238Y-117041844D01*
X103291844Y-117160238D01*
X103152626Y-117253260D01*
X103152625Y-117253261D01*
X103152624Y-117253261D01*
X102997935Y-117317336D01*
X102833719Y-117350000D01*
X102666281Y-117350000D01*
X102502065Y-117317336D01*
X102347376Y-117253261D01*
X102347375Y-117253261D01*
X102347374Y-117253260D01*
X102208156Y-117160238D01*
X102089762Y-117041844D01*
X101996740Y-116902626D01*
X101996739Y-116902624D01*
X101932664Y-116747935D01*
X101900000Y-116583719D01*
X101900000Y-116416281D01*
X101932664Y-116252065D01*
X101996739Y-116097376D01*
X101996740Y-116097374D01*
X102089762Y-115958156D01*
X102208156Y-115839762D01*
X102347374Y-115746740D01*
X102347376Y-115746739D01*
X102502065Y-115682664D01*
X102666281Y-115650000D01*
X102833719Y-115650000D01*
X102997935Y-115682664D01*
X102997935Y-115682664D01*
G37*
G36*
X87350000Y-117150000D02*
G01*
X86200000Y-117150000D01*
X86200000Y-114850000D01*
X87350000Y-114850000D01*
X87350000Y-117150000D01*
X87350000Y-117150000D01*
G37*
G36*
X90300000Y-117150000D02*
G01*
X89150000Y-117150000D01*
X89150000Y-114850000D01*
X90300000Y-114850000D01*
X90300000Y-117150000D01*
X90300000Y-117150000D01*
G37*
G36*
X75855326Y-112400282D02*
G01*
X75859802Y-112400723D01*
X75859803Y-112400723D01*
X75862196Y-112400959D01*
X75874448Y-112401561D01*
X75892868Y-112401561D01*
X75905365Y-112402792D01*
X75908811Y-112403131D01*
X75908812Y-112403131D01*
X75914953Y-112403736D01*
X75999038Y-112420462D01*
X76004940Y-112422252D01*
X76004944Y-112422253D01*
X76014369Y-112425112D01*
X76014372Y-112425113D01*
X76020279Y-112426905D01*
X76099474Y-112459708D01*
X76104919Y-112462619D01*
X76104925Y-112462621D01*
X76113611Y-112467264D01*
X76113615Y-112467267D01*
X76119056Y-112470175D01*
X76190343Y-112517807D01*
X76207488Y-112531878D01*
X76268122Y-112592512D01*
X76282193Y-112609657D01*
X76329825Y-112680944D01*
X76332733Y-112686385D01*
X76332736Y-112686389D01*
X76337379Y-112695075D01*
X76337381Y-112695081D01*
X76340292Y-112700526D01*
X76373095Y-112779721D01*
X76379538Y-112800962D01*
X76396264Y-112885047D01*
X76398439Y-112907132D01*
X76398439Y-112925552D01*
X76399041Y-112937804D01*
X76400847Y-112956140D01*
X76400847Y-113443859D01*
X76399277Y-113459802D01*
X76396419Y-113469225D01*
X76391773Y-113477916D01*
X76385527Y-113485527D01*
X76374609Y-113494487D01*
X76361309Y-113503373D01*
X76343982Y-113520700D01*
X76330368Y-113541074D01*
X76320990Y-113563713D01*
X76316209Y-113587746D01*
X76316209Y-113612250D01*
X76320989Y-113636283D01*
X76330366Y-113658922D01*
X76343979Y-113679297D01*
X76361306Y-113696624D01*
X76374607Y-113705511D01*
X76385527Y-113714473D01*
X76391773Y-113722084D01*
X76396419Y-113730775D01*
X76399277Y-113740198D01*
X76400847Y-113756141D01*
X76400847Y-114243860D01*
X76399041Y-114262196D01*
X76398439Y-114274448D01*
X76398439Y-114292868D01*
X76396264Y-114314953D01*
X76379538Y-114399038D01*
X76373095Y-114420279D01*
X76340292Y-114499474D01*
X76337381Y-114504919D01*
X76337379Y-114504925D01*
X76332736Y-114513611D01*
X76332733Y-114513615D01*
X76329825Y-114519056D01*
X76282193Y-114590343D01*
X76268122Y-114607488D01*
X76207488Y-114668122D01*
X76190343Y-114682193D01*
X76119056Y-114729825D01*
X76113615Y-114732733D01*
X76113611Y-114732736D01*
X76104925Y-114737379D01*
X76104919Y-114737381D01*
X76099474Y-114740292D01*
X76020279Y-114773095D01*
X76014372Y-114774887D01*
X76014369Y-114774888D01*
X76004944Y-114777747D01*
X76004940Y-114777748D01*
X75999038Y-114779538D01*
X75914953Y-114796264D01*
X75908812Y-114796869D01*
X75908811Y-114796869D01*
X75905365Y-114797208D01*
X75892868Y-114798439D01*
X75874448Y-114798439D01*
X75862196Y-114799041D01*
X75859803Y-114799277D01*
X75859802Y-114799277D01*
X75855326Y-114799718D01*
X75843860Y-114800847D01*
X75356140Y-114800847D01*
X75344674Y-114799718D01*
X75340198Y-114799277D01*
X75340197Y-114799277D01*
X75337804Y-114799041D01*
X75325552Y-114798439D01*
X75307132Y-114798439D01*
X75294635Y-114797208D01*
X75291189Y-114796869D01*
X75291188Y-114796869D01*
X75285047Y-114796264D01*
X75200962Y-114779538D01*
X75195060Y-114777748D01*
X75195056Y-114777747D01*
X75185631Y-114774888D01*
X75185628Y-114774887D01*
X75179721Y-114773095D01*
X75100526Y-114740292D01*
X75095081Y-114737381D01*
X75095075Y-114737379D01*
X75086389Y-114732736D01*
X75086385Y-114732733D01*
X75080944Y-114729825D01*
X75009657Y-114682193D01*
X74992512Y-114668122D01*
X74931878Y-114607488D01*
X74917807Y-114590343D01*
X74870175Y-114519056D01*
X74867267Y-114513615D01*
X74867264Y-114513611D01*
X74862621Y-114504925D01*
X74862619Y-114504919D01*
X74859708Y-114499474D01*
X74826905Y-114420279D01*
X74820462Y-114399038D01*
X74803736Y-114314953D01*
X74801561Y-114292868D01*
X74801561Y-114274448D01*
X74800959Y-114262196D01*
X74799153Y-114243860D01*
X74799153Y-113756141D01*
X74800723Y-113740198D01*
X74803581Y-113730775D01*
X74808227Y-113722084D01*
X74814473Y-113714473D01*
X74825391Y-113705513D01*
X74838691Y-113696627D01*
X74856018Y-113679300D01*
X74869632Y-113658926D01*
X74879010Y-113636287D01*
X74883791Y-113612254D01*
X74883791Y-113587750D01*
X74879011Y-113563717D01*
X74869634Y-113541078D01*
X74856021Y-113520703D01*
X74838694Y-113503376D01*
X74825393Y-113494489D01*
X74814473Y-113485527D01*
X74808227Y-113477916D01*
X74803581Y-113469225D01*
X74800723Y-113459802D01*
X74799153Y-113443859D01*
X74799153Y-112956140D01*
X74800959Y-112937804D01*
X74801561Y-112925552D01*
X74801561Y-112907132D01*
X74803736Y-112885047D01*
X74820462Y-112800962D01*
X74826905Y-112779721D01*
X74859708Y-112700526D01*
X74862619Y-112695081D01*
X74862621Y-112695075D01*
X74867264Y-112686389D01*
X74867267Y-112686385D01*
X74870175Y-112680944D01*
X74917807Y-112609657D01*
X74931878Y-112592512D01*
X74992512Y-112531878D01*
X75009657Y-112517807D01*
X75080944Y-112470175D01*
X75086385Y-112467267D01*
X75086389Y-112467264D01*
X75095075Y-112462621D01*
X75095081Y-112462619D01*
X75100526Y-112459708D01*
X75179721Y-112426905D01*
X75185628Y-112425113D01*
X75185631Y-112425112D01*
X75195056Y-112422253D01*
X75195060Y-112422252D01*
X75200962Y-112420462D01*
X75285047Y-112403736D01*
X75291188Y-112403131D01*
X75291189Y-112403131D01*
X75294635Y-112402792D01*
X75307132Y-112401561D01*
X75325552Y-112401561D01*
X75337804Y-112400959D01*
X75340197Y-112400723D01*
X75340198Y-112400723D01*
X75344674Y-112400282D01*
X75356140Y-112399153D01*
X75843860Y-112399153D01*
X75855326Y-112400282D01*
X75855326Y-112400282D01*
G37*
G36*
X102997935Y-112182664D02*
G01*
X103152624Y-112246739D01*
X103152626Y-112246740D01*
X103291844Y-112339762D01*
X103410238Y-112458156D01*
X103456885Y-112527969D01*
X103503261Y-112597376D01*
X103567336Y-112752065D01*
X103600000Y-112916281D01*
X103600000Y-113083719D01*
X103567336Y-113247935D01*
X103503261Y-113402624D01*
X103503260Y-113402626D01*
X103410238Y-113541844D01*
X103291844Y-113660238D01*
X103152626Y-113753260D01*
X103152625Y-113753261D01*
X103152624Y-113753261D01*
X102997935Y-113817336D01*
X102833719Y-113850000D01*
X102666281Y-113850000D01*
X102502065Y-113817336D01*
X102347376Y-113753261D01*
X102347375Y-113753261D01*
X102347374Y-113753260D01*
X102208156Y-113660238D01*
X102089762Y-113541844D01*
X101996740Y-113402626D01*
X101996739Y-113402624D01*
X101932664Y-113247935D01*
X101900000Y-113083719D01*
X101900000Y-112916281D01*
X101932664Y-112752065D01*
X101996739Y-112597376D01*
X102043115Y-112527969D01*
X102089762Y-112458156D01*
X102208156Y-112339762D01*
X102347374Y-112246740D01*
X102347376Y-112246739D01*
X102502065Y-112182664D01*
X102666281Y-112150000D01*
X102833719Y-112150000D01*
X102997935Y-112182664D01*
X102997935Y-112182664D01*
G37*
G36*
X70302390Y-108639782D02*
G01*
X70452118Y-108669565D01*
X70568960Y-108717963D01*
X70734199Y-108786407D01*
X70734200Y-108786408D01*
X70988068Y-108956036D01*
X71203964Y-109171932D01*
X71317306Y-109341561D01*
X71373593Y-109425801D01*
X71490435Y-109707883D01*
X71550000Y-110007337D01*
X71550000Y-110312663D01*
X71490435Y-110612117D01*
X71373593Y-110894199D01*
X71373592Y-110894200D01*
X71203964Y-111148068D01*
X70988068Y-111363964D01*
X70818439Y-111477306D01*
X70734199Y-111533593D01*
X70568960Y-111602037D01*
X70452118Y-111650435D01*
X70302390Y-111680218D01*
X70152663Y-111710000D01*
X69847337Y-111710000D01*
X69697610Y-111680218D01*
X69547882Y-111650435D01*
X69431040Y-111602037D01*
X69265801Y-111533593D01*
X69181561Y-111477306D01*
X69011932Y-111363964D01*
X68796036Y-111148068D01*
X68626408Y-110894200D01*
X68626407Y-110894199D01*
X68509565Y-110612117D01*
X68450000Y-110312663D01*
X68450000Y-110007337D01*
X68509565Y-109707883D01*
X68626407Y-109425801D01*
X68682694Y-109341561D01*
X68796036Y-109171932D01*
X69011932Y-108956036D01*
X69265800Y-108786408D01*
X69265801Y-108786407D01*
X69431040Y-108717963D01*
X69547882Y-108669565D01*
X69697610Y-108639782D01*
X69847337Y-108610000D01*
X70152663Y-108610000D01*
X70302390Y-108639782D01*
X70302390Y-108639782D01*
G37*
G36*
X70253210Y-103550000D02*
G01*
X70452118Y-103589565D01*
X70568960Y-103637963D01*
X70734199Y-103706407D01*
X70734200Y-103706408D01*
X70988068Y-103876036D01*
X71203964Y-104091932D01*
X71317306Y-104261561D01*
X71373593Y-104345801D01*
X71490435Y-104627883D01*
X71550000Y-104927337D01*
X71550000Y-105232663D01*
X71490435Y-105532117D01*
X71373593Y-105814199D01*
X71373592Y-105814200D01*
X71203964Y-106068068D01*
X70988068Y-106283964D01*
X70818439Y-106397306D01*
X70734199Y-106453593D01*
X70568960Y-106522037D01*
X70452118Y-106570435D01*
X70302390Y-106600217D01*
X70152663Y-106630000D01*
X69847337Y-106630000D01*
X69697610Y-106600217D01*
X69547882Y-106570435D01*
X69431040Y-106522037D01*
X69265801Y-106453593D01*
X69181561Y-106397306D01*
X69011932Y-106283964D01*
X68796036Y-106068068D01*
X68626408Y-105814200D01*
X68626407Y-105814199D01*
X68509565Y-105532117D01*
X68450000Y-105232663D01*
X68450000Y-104927337D01*
X68509565Y-104627883D01*
X68626407Y-104345801D01*
X68682694Y-104261561D01*
X68796036Y-104091932D01*
X69011932Y-103876036D01*
X69265800Y-103706408D01*
X69265801Y-103706407D01*
X69431040Y-103637963D01*
X69547882Y-103589565D01*
X69746790Y-103550000D01*
X69847337Y-103530000D01*
X70152663Y-103530000D01*
X70253210Y-103550000D01*
X70253210Y-103550000D01*
G37*
G36*
X142350000Y-105650000D02*
G01*
X141200000Y-105650000D01*
X141200000Y-103350000D01*
X142350000Y-103350000D01*
X142350000Y-105650000D01*
X142350000Y-105650000D01*
G37*
G36*
X145300000Y-105650000D02*
G01*
X144150000Y-105650000D01*
X144150000Y-103350000D01*
X145300000Y-103350000D01*
X145300000Y-105650000D01*
X145300000Y-105650000D01*
G37*
G36*
X143800000Y-103550000D02*
G01*
X142700000Y-103550000D01*
X142700000Y-102400000D01*
X143800000Y-102400000D01*
X143800000Y-103550000D01*
X143800000Y-103550000D01*
G37*
G36*
X82338023Y-101404457D02*
G01*
X82375636Y-101415867D01*
X82410293Y-101434391D01*
X82440675Y-101459325D01*
X82465609Y-101489707D01*
X82484133Y-101524364D01*
X82495543Y-101561977D01*
X82500000Y-101607228D01*
X82500000Y-102442772D01*
X82495543Y-102488023D01*
X82484133Y-102525636D01*
X82465609Y-102560293D01*
X82440675Y-102590675D01*
X82410293Y-102615609D01*
X82375636Y-102634133D01*
X82338023Y-102645543D01*
X82292772Y-102650000D01*
X81207228Y-102650000D01*
X81161977Y-102645543D01*
X81124364Y-102634133D01*
X81089707Y-102615609D01*
X81059325Y-102590675D01*
X81034391Y-102560293D01*
X81015867Y-102525636D01*
X81004457Y-102488023D01*
X81000000Y-102442772D01*
X81000000Y-101607228D01*
X81004457Y-101561977D01*
X81015867Y-101524364D01*
X81034391Y-101489707D01*
X81059325Y-101459325D01*
X81089707Y-101434391D01*
X81124364Y-101415867D01*
X81161977Y-101404457D01*
X81207228Y-101400000D01*
X82292772Y-101400000D01*
X82338023Y-101404457D01*
X82338023Y-101404457D01*
G37*
G36*
X84338023Y-101404457D02*
G01*
X84375636Y-101415867D01*
X84410293Y-101434391D01*
X84440675Y-101459325D01*
X84465609Y-101489707D01*
X84484133Y-101524364D01*
X84495543Y-101561977D01*
X84500000Y-101607228D01*
X84500000Y-102442772D01*
X84495543Y-102488023D01*
X84484133Y-102525636D01*
X84465609Y-102560293D01*
X84440675Y-102590675D01*
X84410293Y-102615609D01*
X84375636Y-102634133D01*
X84338023Y-102645543D01*
X84292772Y-102650000D01*
X83207228Y-102650000D01*
X83161977Y-102645543D01*
X83124364Y-102634133D01*
X83089707Y-102615609D01*
X83059325Y-102590675D01*
X83034391Y-102560293D01*
X83015867Y-102525636D01*
X83004457Y-102488023D01*
X83000000Y-102442772D01*
X83000000Y-101607228D01*
X83004457Y-101561977D01*
X83015867Y-101524364D01*
X83034391Y-101489707D01*
X83059325Y-101459325D01*
X83089707Y-101434391D01*
X83124364Y-101415867D01*
X83161977Y-101404457D01*
X83207228Y-101400000D01*
X84292772Y-101400000D01*
X84338023Y-101404457D01*
X84338023Y-101404457D01*
G37*
G36*
X89300000Y-101600000D02*
G01*
X88200000Y-101600000D01*
X88200000Y-100450000D01*
X89300000Y-100450000D01*
X89300000Y-101600000D01*
X89300000Y-101600000D01*
G37*
G36*
X71550000Y-101550000D02*
G01*
X68450000Y-101550000D01*
X68450000Y-98450000D01*
X71550000Y-98450000D01*
X71550000Y-101550000D01*
X71550000Y-101550000D01*
G37*
G36*
X90800000Y-100650000D02*
G01*
X89650000Y-100650000D01*
X89650000Y-98350000D01*
X90800000Y-98350000D01*
X90800000Y-100650000D01*
X90800000Y-100650000D01*
G37*
G36*
X87850000Y-100650000D02*
G01*
X86700000Y-100650000D01*
X86700000Y-98350000D01*
X87850000Y-98350000D01*
X87850000Y-100650000D01*
X87850000Y-100650000D01*
G37*
G36*
X84338023Y-99354457D02*
G01*
X84375636Y-99365867D01*
X84410293Y-99384391D01*
X84440675Y-99409325D01*
X84465609Y-99439707D01*
X84484133Y-99474364D01*
X84495543Y-99511977D01*
X84500000Y-99557228D01*
X84500000Y-100392772D01*
X84495543Y-100438023D01*
X84484133Y-100475636D01*
X84465609Y-100510293D01*
X84440675Y-100540675D01*
X84410293Y-100565609D01*
X84375636Y-100584133D01*
X84338023Y-100595543D01*
X84292772Y-100600000D01*
X83207228Y-100600000D01*
X83161977Y-100595543D01*
X83124364Y-100584133D01*
X83089707Y-100565609D01*
X83059325Y-100540675D01*
X83034391Y-100510293D01*
X83015867Y-100475636D01*
X83004457Y-100438023D01*
X83000000Y-100392772D01*
X83000000Y-99557228D01*
X83004457Y-99511977D01*
X83015867Y-99474364D01*
X83034391Y-99439707D01*
X83059325Y-99409325D01*
X83089707Y-99384391D01*
X83124364Y-99365867D01*
X83161977Y-99354457D01*
X83207228Y-99350000D01*
X84292772Y-99350000D01*
X84338023Y-99354457D01*
X84338023Y-99354457D01*
G37*
G36*
X82338023Y-99354457D02*
G01*
X82375636Y-99365867D01*
X82410293Y-99384391D01*
X82440675Y-99409325D01*
X82465609Y-99439707D01*
X82484133Y-99474364D01*
X82495543Y-99511977D01*
X82500000Y-99557228D01*
X82500000Y-100392772D01*
X82495543Y-100438023D01*
X82484133Y-100475636D01*
X82465609Y-100510293D01*
X82440675Y-100540675D01*
X82410293Y-100565609D01*
X82375636Y-100584133D01*
X82338023Y-100595543D01*
X82292772Y-100600000D01*
X81207228Y-100600000D01*
X81161977Y-100595543D01*
X81124364Y-100584133D01*
X81089707Y-100565609D01*
X81059325Y-100540675D01*
X81034391Y-100510293D01*
X81015867Y-100475636D01*
X81004457Y-100438023D01*
X81000000Y-100392772D01*
X81000000Y-99557228D01*
X81004457Y-99511977D01*
X81015867Y-99474364D01*
X81034391Y-99439707D01*
X81059325Y-99409325D01*
X81089707Y-99384391D01*
X81124364Y-99365867D01*
X81161977Y-99354457D01*
X81207228Y-99350000D01*
X82292772Y-99350000D01*
X82338023Y-99354457D01*
X82338023Y-99354457D01*
G37*
G36*
X77459802Y-93600723D02*
G01*
X77469225Y-93603581D01*
X77469227Y-93603582D01*
X77477913Y-93608225D01*
X77477914Y-93608226D01*
X77477916Y-93608227D01*
X77485527Y-93614473D01*
X77494487Y-93625391D01*
X77503373Y-93638691D01*
X77520700Y-93656018D01*
X77541074Y-93669632D01*
X77563713Y-93679010D01*
X77587746Y-93683791D01*
X77612250Y-93683791D01*
X77636283Y-93679011D01*
X77658922Y-93669634D01*
X77679297Y-93656021D01*
X77696624Y-93638694D01*
X77705511Y-93625393D01*
X77714473Y-93614473D01*
X77722084Y-93608227D01*
X77722086Y-93608226D01*
X77722087Y-93608225D01*
X77730773Y-93603582D01*
X77730775Y-93603581D01*
X77740198Y-93600723D01*
X77756141Y-93599153D01*
X78243860Y-93599153D01*
X78255326Y-93600282D01*
X78259802Y-93600723D01*
X78259803Y-93600723D01*
X78262196Y-93600959D01*
X78274448Y-93601561D01*
X78292868Y-93601561D01*
X78305365Y-93602792D01*
X78308811Y-93603131D01*
X78308812Y-93603131D01*
X78314953Y-93603736D01*
X78399038Y-93620462D01*
X78404940Y-93622252D01*
X78404944Y-93622253D01*
X78414369Y-93625112D01*
X78414372Y-93625113D01*
X78420279Y-93626905D01*
X78499474Y-93659708D01*
X78504919Y-93662619D01*
X78504925Y-93662621D01*
X78513611Y-93667264D01*
X78513615Y-93667267D01*
X78519056Y-93670175D01*
X78590343Y-93717807D01*
X78607488Y-93731878D01*
X78668122Y-93792512D01*
X78682193Y-93809657D01*
X78729825Y-93880944D01*
X78732733Y-93886385D01*
X78732736Y-93886389D01*
X78737379Y-93895075D01*
X78737381Y-93895081D01*
X78740292Y-93900526D01*
X78773095Y-93979721D01*
X78774887Y-93985628D01*
X78774888Y-93985631D01*
X78775531Y-93987750D01*
X78779538Y-94000962D01*
X78796264Y-94085047D01*
X78798439Y-94107132D01*
X78798439Y-94125552D01*
X78799041Y-94137804D01*
X78800847Y-94156140D01*
X78800847Y-94643860D01*
X78799041Y-94662196D01*
X78798439Y-94674448D01*
X78798439Y-94692868D01*
X78796264Y-94714953D01*
X78779538Y-94799038D01*
X78773095Y-94820279D01*
X78740292Y-94899474D01*
X78737381Y-94904919D01*
X78737379Y-94904925D01*
X78732736Y-94913611D01*
X78732733Y-94913615D01*
X78729825Y-94919056D01*
X78682193Y-94990343D01*
X78668122Y-95007488D01*
X78607488Y-95068122D01*
X78590343Y-95082193D01*
X78519056Y-95129825D01*
X78513615Y-95132733D01*
X78513611Y-95132736D01*
X78504925Y-95137379D01*
X78504919Y-95137381D01*
X78499474Y-95140292D01*
X78420279Y-95173095D01*
X78414372Y-95174887D01*
X78414369Y-95174888D01*
X78404944Y-95177747D01*
X78404940Y-95177748D01*
X78399038Y-95179538D01*
X78314953Y-95196264D01*
X78308812Y-95196869D01*
X78308811Y-95196869D01*
X78305365Y-95197208D01*
X78292868Y-95198439D01*
X78274448Y-95198439D01*
X78262196Y-95199041D01*
X78259803Y-95199277D01*
X78259802Y-95199277D01*
X78255326Y-95199718D01*
X78243860Y-95200847D01*
X77756141Y-95200847D01*
X77740198Y-95199277D01*
X77730775Y-95196419D01*
X77730485Y-95196264D01*
X77722087Y-95191775D01*
X77722086Y-95191774D01*
X77722084Y-95191773D01*
X77714473Y-95185527D01*
X77705513Y-95174609D01*
X77696627Y-95161309D01*
X77679300Y-95143982D01*
X77658926Y-95130368D01*
X77636287Y-95120990D01*
X77612254Y-95116209D01*
X77587750Y-95116209D01*
X77563717Y-95120989D01*
X77541078Y-95130366D01*
X77520703Y-95143979D01*
X77503376Y-95161306D01*
X77494489Y-95174607D01*
X77485527Y-95185527D01*
X77477916Y-95191773D01*
X77477914Y-95191774D01*
X77477913Y-95191775D01*
X77469515Y-95196264D01*
X77469225Y-95196419D01*
X77459802Y-95199277D01*
X77443859Y-95200847D01*
X76956140Y-95200847D01*
X76944674Y-95199718D01*
X76940198Y-95199277D01*
X76940197Y-95199277D01*
X76937804Y-95199041D01*
X76925552Y-95198439D01*
X76907132Y-95198439D01*
X76894635Y-95197208D01*
X76891189Y-95196869D01*
X76891188Y-95196869D01*
X76885047Y-95196264D01*
X76800962Y-95179538D01*
X76795060Y-95177748D01*
X76795056Y-95177747D01*
X76785631Y-95174888D01*
X76785628Y-95174887D01*
X76779721Y-95173095D01*
X76700526Y-95140292D01*
X76695081Y-95137381D01*
X76695075Y-95137379D01*
X76686389Y-95132736D01*
X76686385Y-95132733D01*
X76680944Y-95129825D01*
X76609657Y-95082193D01*
X76592512Y-95068122D01*
X76531878Y-95007488D01*
X76517807Y-94990343D01*
X76470175Y-94919056D01*
X76467267Y-94913615D01*
X76467264Y-94913611D01*
X76462621Y-94904925D01*
X76462619Y-94904919D01*
X76459708Y-94899474D01*
X76426905Y-94820279D01*
X76420462Y-94799038D01*
X76403736Y-94714953D01*
X76401561Y-94692868D01*
X76401561Y-94674448D01*
X76400959Y-94662196D01*
X76399153Y-94643860D01*
X76399153Y-94156140D01*
X76400959Y-94137804D01*
X76401561Y-94125552D01*
X76401561Y-94107132D01*
X76403736Y-94085047D01*
X76420462Y-94000962D01*
X76424470Y-93987750D01*
X76425112Y-93985631D01*
X76425113Y-93985628D01*
X76426905Y-93979721D01*
X76459708Y-93900526D01*
X76462619Y-93895081D01*
X76462621Y-93895075D01*
X76467264Y-93886389D01*
X76467267Y-93886385D01*
X76470175Y-93880944D01*
X76517807Y-93809657D01*
X76531878Y-93792512D01*
X76592512Y-93731878D01*
X76609657Y-93717807D01*
X76680944Y-93670175D01*
X76686385Y-93667267D01*
X76686389Y-93667264D01*
X76695075Y-93662621D01*
X76695081Y-93662619D01*
X76700526Y-93659708D01*
X76779721Y-93626905D01*
X76785628Y-93625113D01*
X76785631Y-93625112D01*
X76795056Y-93622253D01*
X76795060Y-93622252D01*
X76800962Y-93620462D01*
X76885047Y-93603736D01*
X76891188Y-93603131D01*
X76891189Y-93603131D01*
X76894635Y-93602792D01*
X76907132Y-93601561D01*
X76925552Y-93601561D01*
X76937804Y-93600959D01*
X76940197Y-93600723D01*
X76940198Y-93600723D01*
X76944674Y-93600282D01*
X76956140Y-93599153D01*
X77443859Y-93599153D01*
X77459802Y-93600723D01*
X77459802Y-93600723D01*
G37*
G36*
X81755326Y-92800282D02*
G01*
X81759802Y-92800723D01*
X81759803Y-92800723D01*
X81762196Y-92800959D01*
X81774448Y-92801561D01*
X81792868Y-92801561D01*
X81805365Y-92802792D01*
X81808811Y-92803131D01*
X81808812Y-92803131D01*
X81814953Y-92803736D01*
X81899038Y-92820462D01*
X81904940Y-92822252D01*
X81904944Y-92822253D01*
X81914369Y-92825112D01*
X81914372Y-92825113D01*
X81920279Y-92826905D01*
X81999474Y-92859708D01*
X82004919Y-92862619D01*
X82004925Y-92862621D01*
X82013611Y-92867264D01*
X82013615Y-92867267D01*
X82019056Y-92870175D01*
X82090343Y-92917807D01*
X82107488Y-92931878D01*
X82168122Y-92992512D01*
X82182193Y-93009657D01*
X82229825Y-93080944D01*
X82232733Y-93086385D01*
X82232736Y-93086389D01*
X82237379Y-93095075D01*
X82237381Y-93095081D01*
X82240292Y-93100526D01*
X82273095Y-93179721D01*
X82279538Y-93200962D01*
X82296264Y-93285047D01*
X82298439Y-93307132D01*
X82298439Y-93325552D01*
X82299041Y-93337804D01*
X82300847Y-93356140D01*
X82300847Y-93843859D01*
X82299277Y-93859802D01*
X82296419Y-93869225D01*
X82291773Y-93877916D01*
X82285527Y-93885527D01*
X82274609Y-93894487D01*
X82261309Y-93903373D01*
X82243982Y-93920700D01*
X82230368Y-93941074D01*
X82220990Y-93963713D01*
X82216209Y-93987746D01*
X82216209Y-94012250D01*
X82220989Y-94036283D01*
X82230366Y-94058922D01*
X82243979Y-94079297D01*
X82261306Y-94096624D01*
X82274607Y-94105511D01*
X82285527Y-94114473D01*
X82291773Y-94122084D01*
X82296419Y-94130775D01*
X82299277Y-94140198D01*
X82300847Y-94156141D01*
X82300847Y-94643860D01*
X82299041Y-94662196D01*
X82298439Y-94674448D01*
X82298439Y-94692868D01*
X82296264Y-94714953D01*
X82279538Y-94799038D01*
X82273095Y-94820279D01*
X82240292Y-94899474D01*
X82237381Y-94904919D01*
X82237379Y-94904925D01*
X82232736Y-94913611D01*
X82232733Y-94913615D01*
X82229825Y-94919056D01*
X82182193Y-94990343D01*
X82168122Y-95007488D01*
X82107488Y-95068122D01*
X82090343Y-95082193D01*
X82019056Y-95129825D01*
X82013615Y-95132733D01*
X82013611Y-95132736D01*
X82004925Y-95137379D01*
X82004919Y-95137381D01*
X81999474Y-95140292D01*
X81920279Y-95173095D01*
X81914372Y-95174887D01*
X81914369Y-95174888D01*
X81904944Y-95177747D01*
X81904940Y-95177748D01*
X81899038Y-95179538D01*
X81814953Y-95196264D01*
X81808812Y-95196869D01*
X81808811Y-95196869D01*
X81805365Y-95197208D01*
X81792868Y-95198439D01*
X81774448Y-95198439D01*
X81762196Y-95199041D01*
X81759803Y-95199277D01*
X81759802Y-95199277D01*
X81755326Y-95199718D01*
X81743860Y-95200847D01*
X81256140Y-95200847D01*
X81244674Y-95199718D01*
X81240198Y-95199277D01*
X81240197Y-95199277D01*
X81237804Y-95199041D01*
X81225552Y-95198439D01*
X81207132Y-95198439D01*
X81194635Y-95197208D01*
X81191189Y-95196869D01*
X81191188Y-95196869D01*
X81185047Y-95196264D01*
X81100962Y-95179538D01*
X81095060Y-95177748D01*
X81095056Y-95177747D01*
X81085631Y-95174888D01*
X81085628Y-95174887D01*
X81079721Y-95173095D01*
X81000526Y-95140292D01*
X80995081Y-95137381D01*
X80995075Y-95137379D01*
X80986389Y-95132736D01*
X80986385Y-95132733D01*
X80980944Y-95129825D01*
X80909657Y-95082193D01*
X80892512Y-95068122D01*
X80831878Y-95007488D01*
X80817807Y-94990343D01*
X80770175Y-94919056D01*
X80767267Y-94913615D01*
X80767264Y-94913611D01*
X80762621Y-94904925D01*
X80762619Y-94904919D01*
X80759708Y-94899474D01*
X80726905Y-94820279D01*
X80720462Y-94799038D01*
X80703736Y-94714953D01*
X80701561Y-94692868D01*
X80701561Y-94674448D01*
X80700959Y-94662196D01*
X80699153Y-94643860D01*
X80699153Y-94156141D01*
X80700723Y-94140198D01*
X80703581Y-94130775D01*
X80708227Y-94122084D01*
X80714473Y-94114473D01*
X80725391Y-94105513D01*
X80738691Y-94096627D01*
X80756018Y-94079300D01*
X80769632Y-94058926D01*
X80779010Y-94036287D01*
X80783791Y-94012254D01*
X80783791Y-93987750D01*
X80779011Y-93963717D01*
X80769634Y-93941078D01*
X80756021Y-93920703D01*
X80738694Y-93903376D01*
X80725393Y-93894489D01*
X80714473Y-93885527D01*
X80708227Y-93877916D01*
X80703581Y-93869225D01*
X80700723Y-93859802D01*
X80699153Y-93843859D01*
X80699153Y-93356140D01*
X80700959Y-93337804D01*
X80701561Y-93325552D01*
X80701561Y-93307132D01*
X80703736Y-93285047D01*
X80720462Y-93200962D01*
X80726905Y-93179721D01*
X80759708Y-93100526D01*
X80762619Y-93095081D01*
X80762621Y-93095075D01*
X80767264Y-93086389D01*
X80767267Y-93086385D01*
X80770175Y-93080944D01*
X80817807Y-93009657D01*
X80831878Y-92992512D01*
X80892512Y-92931878D01*
X80909657Y-92917807D01*
X80980944Y-92870175D01*
X80986385Y-92867267D01*
X80986389Y-92867264D01*
X80995075Y-92862621D01*
X80995081Y-92862619D01*
X81000526Y-92859708D01*
X81079721Y-92826905D01*
X81085628Y-92825113D01*
X81085631Y-92825112D01*
X81095056Y-92822253D01*
X81095060Y-92822252D01*
X81100962Y-92820462D01*
X81185047Y-92803736D01*
X81191188Y-92803131D01*
X81191189Y-92803131D01*
X81194635Y-92802792D01*
X81207132Y-92801561D01*
X81225552Y-92801561D01*
X81237804Y-92800959D01*
X81240197Y-92800723D01*
X81240198Y-92800723D01*
X81244674Y-92800282D01*
X81256140Y-92799153D01*
X81743860Y-92799153D01*
X81755326Y-92800282D01*
X81755326Y-92800282D01*
G37*
G36*
X103283455Y-86973874D02*
G01*
X103482251Y-87034178D01*
X103594483Y-87068223D01*
X103594485Y-87068224D01*
X103881125Y-87221437D01*
X104132371Y-87427629D01*
X104338563Y-87678875D01*
X104491776Y-87965515D01*
X104586126Y-88276545D01*
X104617983Y-88600000D01*
X104586126Y-88923455D01*
X104491776Y-89234485D01*
X104338563Y-89521125D01*
X104132371Y-89772371D01*
X103881125Y-89978563D01*
X103594485Y-90131776D01*
X103594483Y-90131777D01*
X103482251Y-90165822D01*
X103283455Y-90226126D01*
X103041056Y-90250000D01*
X102878944Y-90250000D01*
X102636545Y-90226126D01*
X102437749Y-90165822D01*
X102325517Y-90131777D01*
X102325515Y-90131776D01*
X102038875Y-89978563D01*
X101787629Y-89772371D01*
X101581437Y-89521125D01*
X101428224Y-89234485D01*
X101333874Y-88923455D01*
X101302017Y-88600000D01*
X101333874Y-88276545D01*
X101428224Y-87965515D01*
X101581437Y-87678875D01*
X101787629Y-87427629D01*
X102038875Y-87221437D01*
X102325515Y-87068224D01*
X102325517Y-87068223D01*
X102437749Y-87034178D01*
X102636545Y-86973874D01*
X102878944Y-86950000D01*
X103041056Y-86950000D01*
X103283455Y-86973874D01*
X103283455Y-86973874D01*
G37*
G36*
X80430026Y-78346115D02*
G01*
X80648411Y-78436573D01*
X80648413Y-78436574D01*
X80668506Y-78450000D01*
X80844955Y-78567899D01*
X81012101Y-78735045D01*
X81143427Y-78931589D01*
X81233885Y-79149974D01*
X81280000Y-79381809D01*
X81280000Y-79618191D01*
X81233885Y-79850026D01*
X81176564Y-79988411D01*
X81143426Y-80068413D01*
X81012101Y-80264955D01*
X80844955Y-80432101D01*
X80648413Y-80563426D01*
X80648412Y-80563427D01*
X80648411Y-80563427D01*
X80428503Y-80654516D01*
X80406892Y-80666067D01*
X80387950Y-80681612D01*
X80372405Y-80700554D01*
X80360854Y-80722165D01*
X80353741Y-80745614D01*
X80351339Y-80770000D01*
X80353741Y-80794386D01*
X80360854Y-80817835D01*
X80372405Y-80839446D01*
X80387950Y-80858388D01*
X80406892Y-80873933D01*
X80428503Y-80885484D01*
X80648411Y-80976573D01*
X80648413Y-80976574D01*
X80725226Y-81027899D01*
X80844955Y-81107899D01*
X81012101Y-81275045D01*
X81143427Y-81471589D01*
X81233885Y-81689974D01*
X81280000Y-81921809D01*
X81280000Y-82158191D01*
X81233885Y-82390026D01*
X81176564Y-82528411D01*
X81143426Y-82608413D01*
X81012101Y-82804955D01*
X80844955Y-82972101D01*
X80648413Y-83103426D01*
X80648412Y-83103427D01*
X80648411Y-83103427D01*
X80428503Y-83194516D01*
X80406892Y-83206067D01*
X80387950Y-83221612D01*
X80372405Y-83240554D01*
X80360854Y-83262165D01*
X80353741Y-83285614D01*
X80351339Y-83310000D01*
X80353741Y-83334386D01*
X80360854Y-83357835D01*
X80372405Y-83379446D01*
X80387950Y-83398388D01*
X80406892Y-83413933D01*
X80428503Y-83425484D01*
X80648411Y-83516573D01*
X80648413Y-83516574D01*
X80725226Y-83567899D01*
X80844955Y-83647899D01*
X81012101Y-83815045D01*
X81143427Y-84011589D01*
X81233885Y-84229974D01*
X81280000Y-84461809D01*
X81280000Y-84698191D01*
X81233885Y-84930026D01*
X81176564Y-85068411D01*
X81143426Y-85148413D01*
X81012101Y-85344955D01*
X80844955Y-85512101D01*
X80648413Y-85643426D01*
X80648412Y-85643427D01*
X80648411Y-85643427D01*
X80430026Y-85733885D01*
X80198191Y-85780000D01*
X79961809Y-85780000D01*
X79729974Y-85733885D01*
X79511589Y-85643427D01*
X79511588Y-85643427D01*
X79511587Y-85643426D01*
X79315045Y-85512101D01*
X79147899Y-85344955D01*
X79016574Y-85148413D01*
X78983436Y-85068411D01*
X78926115Y-84930026D01*
X78880000Y-84698191D01*
X78880000Y-84461809D01*
X78926115Y-84229974D01*
X79016573Y-84011589D01*
X79147899Y-83815045D01*
X79315045Y-83647899D01*
X79434774Y-83567899D01*
X79511587Y-83516574D01*
X79511589Y-83516573D01*
X79731497Y-83425484D01*
X79753108Y-83413933D01*
X79772050Y-83398388D01*
X79787595Y-83379446D01*
X79799146Y-83357835D01*
X79806259Y-83334386D01*
X79808661Y-83310000D01*
X79806259Y-83285614D01*
X79799146Y-83262165D01*
X79787595Y-83240554D01*
X79772050Y-83221612D01*
X79753108Y-83206067D01*
X79731497Y-83194516D01*
X79511589Y-83103427D01*
X79511588Y-83103427D01*
X79511587Y-83103426D01*
X79315045Y-82972101D01*
X79147899Y-82804955D01*
X79016574Y-82608413D01*
X78983436Y-82528411D01*
X78926115Y-82390026D01*
X78880000Y-82158191D01*
X78880000Y-81921809D01*
X78926115Y-81689974D01*
X79016573Y-81471589D01*
X79147899Y-81275045D01*
X79315045Y-81107899D01*
X79434774Y-81027899D01*
X79511587Y-80976574D01*
X79511589Y-80976573D01*
X79731497Y-80885484D01*
X79753108Y-80873933D01*
X79772050Y-80858388D01*
X79787595Y-80839446D01*
X79799146Y-80817835D01*
X79806259Y-80794386D01*
X79808661Y-80770000D01*
X79806259Y-80745614D01*
X79799146Y-80722165D01*
X79787595Y-80700554D01*
X79772050Y-80681612D01*
X79753108Y-80666067D01*
X79731497Y-80654516D01*
X79511589Y-80563427D01*
X79511588Y-80563427D01*
X79511587Y-80563426D01*
X79315045Y-80432101D01*
X79147899Y-80264955D01*
X79016574Y-80068413D01*
X78983436Y-79988411D01*
X78926115Y-79850026D01*
X78880000Y-79618191D01*
X78880000Y-79381809D01*
X78926115Y-79149974D01*
X79016573Y-78931589D01*
X79147899Y-78735045D01*
X79315045Y-78567899D01*
X79491494Y-78450000D01*
X79511587Y-78436574D01*
X79511589Y-78436573D01*
X79729974Y-78346115D01*
X79961809Y-78300000D01*
X80198191Y-78300000D01*
X80430026Y-78346115D01*
X80430026Y-78346115D01*
G37*
G36*
X75350026Y-78346115D02*
G01*
X75568411Y-78436573D01*
X75568413Y-78436574D01*
X75588506Y-78450000D01*
X75764955Y-78567899D01*
X75932101Y-78735045D01*
X76063427Y-78931589D01*
X76153885Y-79149974D01*
X76200000Y-79381809D01*
X76200000Y-79618191D01*
X76153885Y-79850026D01*
X76096564Y-79988411D01*
X76063426Y-80068413D01*
X75932101Y-80264955D01*
X75764955Y-80432101D01*
X75568413Y-80563426D01*
X75568412Y-80563427D01*
X75568411Y-80563427D01*
X75348503Y-80654516D01*
X75326892Y-80666067D01*
X75307950Y-80681612D01*
X75292405Y-80700554D01*
X75280854Y-80722165D01*
X75273741Y-80745614D01*
X75271339Y-80770000D01*
X75273741Y-80794386D01*
X75280854Y-80817835D01*
X75292405Y-80839446D01*
X75307950Y-80858388D01*
X75326892Y-80873933D01*
X75348503Y-80885484D01*
X75568411Y-80976573D01*
X75568413Y-80976574D01*
X75645226Y-81027899D01*
X75764955Y-81107899D01*
X75932101Y-81275045D01*
X76063427Y-81471589D01*
X76153885Y-81689974D01*
X76200000Y-81921809D01*
X76200000Y-82158191D01*
X76153885Y-82390026D01*
X76096564Y-82528411D01*
X76063426Y-82608413D01*
X75932101Y-82804955D01*
X75764955Y-82972101D01*
X75568413Y-83103426D01*
X75568412Y-83103427D01*
X75568411Y-83103427D01*
X75348503Y-83194516D01*
X75326892Y-83206067D01*
X75307950Y-83221612D01*
X75292405Y-83240554D01*
X75280854Y-83262165D01*
X75273741Y-83285614D01*
X75271339Y-83310000D01*
X75273741Y-83334386D01*
X75280854Y-83357835D01*
X75292405Y-83379446D01*
X75307950Y-83398388D01*
X75326892Y-83413933D01*
X75348503Y-83425484D01*
X75568411Y-83516573D01*
X75568413Y-83516574D01*
X75645226Y-83567899D01*
X75764955Y-83647899D01*
X75932101Y-83815045D01*
X76063427Y-84011589D01*
X76153885Y-84229974D01*
X76200000Y-84461809D01*
X76200000Y-84698191D01*
X76153885Y-84930026D01*
X76096564Y-85068411D01*
X76063426Y-85148413D01*
X75932101Y-85344955D01*
X75764955Y-85512101D01*
X75568413Y-85643426D01*
X75568412Y-85643427D01*
X75568411Y-85643427D01*
X75350026Y-85733885D01*
X75118191Y-85780000D01*
X74881809Y-85780000D01*
X74649974Y-85733885D01*
X74431589Y-85643427D01*
X74431588Y-85643427D01*
X74431587Y-85643426D01*
X74235045Y-85512101D01*
X74067899Y-85344955D01*
X73936574Y-85148413D01*
X73903436Y-85068411D01*
X73846115Y-84930026D01*
X73800000Y-84698191D01*
X73800000Y-84461809D01*
X73846115Y-84229974D01*
X73936573Y-84011589D01*
X74067899Y-83815045D01*
X74235045Y-83647899D01*
X74354774Y-83567899D01*
X74431587Y-83516574D01*
X74431589Y-83516573D01*
X74651497Y-83425484D01*
X74673108Y-83413933D01*
X74692050Y-83398388D01*
X74707595Y-83379446D01*
X74719146Y-83357835D01*
X74726259Y-83334386D01*
X74728661Y-83310000D01*
X74726259Y-83285614D01*
X74719146Y-83262165D01*
X74707595Y-83240554D01*
X74692050Y-83221612D01*
X74673108Y-83206067D01*
X74651497Y-83194516D01*
X74431589Y-83103427D01*
X74431588Y-83103427D01*
X74431587Y-83103426D01*
X74235045Y-82972101D01*
X74067899Y-82804955D01*
X73936574Y-82608413D01*
X73903436Y-82528411D01*
X73846115Y-82390026D01*
X73800000Y-82158191D01*
X73800000Y-81921809D01*
X73846115Y-81689974D01*
X73936573Y-81471589D01*
X74067899Y-81275045D01*
X74235045Y-81107899D01*
X74354774Y-81027899D01*
X74431587Y-80976574D01*
X74431589Y-80976573D01*
X74651497Y-80885484D01*
X74673108Y-80873933D01*
X74692050Y-80858388D01*
X74707595Y-80839446D01*
X74719146Y-80817835D01*
X74726259Y-80794386D01*
X74728661Y-80770000D01*
X74726259Y-80745614D01*
X74719146Y-80722165D01*
X74707595Y-80700554D01*
X74692050Y-80681612D01*
X74673108Y-80666067D01*
X74651497Y-80654516D01*
X74431589Y-80563427D01*
X74431588Y-80563427D01*
X74431587Y-80563426D01*
X74235045Y-80432101D01*
X74067899Y-80264955D01*
X73936574Y-80068413D01*
X73903436Y-79988411D01*
X73846115Y-79850026D01*
X73800000Y-79618191D01*
X73800000Y-79381809D01*
X73846115Y-79149974D01*
X73936573Y-78931589D01*
X74067899Y-78735045D01*
X74235045Y-78567899D01*
X74411494Y-78450000D01*
X74431587Y-78436574D01*
X74431589Y-78436573D01*
X74649974Y-78346115D01*
X74881809Y-78300000D01*
X75118191Y-78300000D01*
X75350026Y-78346115D01*
X75350026Y-78346115D01*
G37*
G36*
X140350026Y-78266115D02*
G01*
X140568411Y-78356573D01*
X140568413Y-78356574D01*
X140708235Y-78450000D01*
X140764955Y-78487899D01*
X140932101Y-78655045D01*
X141063427Y-78851589D01*
X141153885Y-79069974D01*
X141200000Y-79301809D01*
X141200000Y-79538191D01*
X141153885Y-79770026D01*
X141063427Y-79988411D01*
X141063426Y-79988413D01*
X140932101Y-80184955D01*
X140764955Y-80352101D01*
X140568413Y-80483426D01*
X140568412Y-80483427D01*
X140568411Y-80483427D01*
X140348503Y-80574516D01*
X140326892Y-80586067D01*
X140307950Y-80601612D01*
X140292405Y-80620554D01*
X140280854Y-80642165D01*
X140273741Y-80665614D01*
X140271339Y-80690000D01*
X140273741Y-80714386D01*
X140280854Y-80737835D01*
X140292405Y-80759446D01*
X140307950Y-80778388D01*
X140326892Y-80793933D01*
X140348503Y-80805484D01*
X140568411Y-80896573D01*
X140568413Y-80896574D01*
X140764955Y-81027899D01*
X140932101Y-81195045D01*
X141063427Y-81391589D01*
X141153885Y-81609974D01*
X141200000Y-81841809D01*
X141200000Y-82078191D01*
X141153885Y-82310026D01*
X141063427Y-82528411D01*
X141063426Y-82528413D01*
X140932101Y-82724955D01*
X140764955Y-82892101D01*
X140568413Y-83023426D01*
X140568412Y-83023427D01*
X140568411Y-83023427D01*
X140348503Y-83114516D01*
X140326892Y-83126067D01*
X140307950Y-83141612D01*
X140292405Y-83160554D01*
X140280854Y-83182165D01*
X140273741Y-83205614D01*
X140271339Y-83230000D01*
X140273741Y-83254386D01*
X140280854Y-83277835D01*
X140292405Y-83299446D01*
X140307950Y-83318388D01*
X140326892Y-83333933D01*
X140348503Y-83345484D01*
X140568411Y-83436573D01*
X140568413Y-83436574D01*
X140764955Y-83567899D01*
X140932101Y-83735045D01*
X141063427Y-83931589D01*
X141153885Y-84149974D01*
X141200000Y-84381809D01*
X141200000Y-84618191D01*
X141153885Y-84850026D01*
X141063427Y-85068411D01*
X141063426Y-85068413D01*
X140932101Y-85264955D01*
X140764955Y-85432101D01*
X140568413Y-85563426D01*
X140568412Y-85563427D01*
X140568411Y-85563427D01*
X140350026Y-85653885D01*
X140118191Y-85700000D01*
X139881809Y-85700000D01*
X139649974Y-85653885D01*
X139431589Y-85563427D01*
X139431588Y-85563427D01*
X139431587Y-85563426D01*
X139235045Y-85432101D01*
X139067899Y-85264955D01*
X138936574Y-85068413D01*
X138936573Y-85068411D01*
X138846115Y-84850026D01*
X138800000Y-84618191D01*
X138800000Y-84381809D01*
X138846115Y-84149974D01*
X138936573Y-83931589D01*
X139067899Y-83735045D01*
X139235045Y-83567899D01*
X139431587Y-83436574D01*
X139431589Y-83436573D01*
X139651497Y-83345484D01*
X139673108Y-83333933D01*
X139692050Y-83318388D01*
X139707595Y-83299446D01*
X139719146Y-83277835D01*
X139726259Y-83254386D01*
X139728661Y-83230000D01*
X139726259Y-83205614D01*
X139719146Y-83182165D01*
X139707595Y-83160554D01*
X139692050Y-83141612D01*
X139673108Y-83126067D01*
X139651497Y-83114516D01*
X139431589Y-83023427D01*
X139431588Y-83023427D01*
X139431587Y-83023426D01*
X139235045Y-82892101D01*
X139067899Y-82724955D01*
X138936574Y-82528413D01*
X138936573Y-82528411D01*
X138846115Y-82310026D01*
X138800000Y-82078191D01*
X138800000Y-81841809D01*
X138846115Y-81609974D01*
X138936573Y-81391589D01*
X139067899Y-81195045D01*
X139235045Y-81027899D01*
X139431587Y-80896574D01*
X139431589Y-80896573D01*
X139651497Y-80805484D01*
X139673108Y-80793933D01*
X139692050Y-80778388D01*
X139707595Y-80759446D01*
X139719146Y-80737835D01*
X139726259Y-80714386D01*
X139728661Y-80690000D01*
X139726259Y-80665614D01*
X139719146Y-80642165D01*
X139707595Y-80620554D01*
X139692050Y-80601612D01*
X139673108Y-80586067D01*
X139651497Y-80574516D01*
X139431589Y-80483427D01*
X139431588Y-80483427D01*
X139431587Y-80483426D01*
X139235045Y-80352101D01*
X139067899Y-80184955D01*
X138936574Y-79988413D01*
X138936573Y-79988411D01*
X138846115Y-79770026D01*
X138800000Y-79538191D01*
X138800000Y-79301809D01*
X138846115Y-79069974D01*
X138936573Y-78851589D01*
X139067899Y-78655045D01*
X139235045Y-78487899D01*
X139291765Y-78450000D01*
X139431587Y-78356574D01*
X139431589Y-78356573D01*
X139649974Y-78266115D01*
X139881809Y-78220000D01*
X140118191Y-78220000D01*
X140350026Y-78266115D01*
X140350026Y-78266115D01*
G37*
G36*
X145430026Y-78266115D02*
G01*
X145648411Y-78356573D01*
X145648413Y-78356574D01*
X145788235Y-78450000D01*
X145844955Y-78487899D01*
X146012101Y-78655045D01*
X146143427Y-78851589D01*
X146233885Y-79069974D01*
X146280000Y-79301809D01*
X146280000Y-79538191D01*
X146233885Y-79770026D01*
X146143427Y-79988411D01*
X146143426Y-79988413D01*
X146012101Y-80184955D01*
X145844955Y-80352101D01*
X145648413Y-80483426D01*
X145648412Y-80483427D01*
X145648411Y-80483427D01*
X145428503Y-80574516D01*
X145406892Y-80586067D01*
X145387950Y-80601612D01*
X145372405Y-80620554D01*
X145360854Y-80642165D01*
X145353741Y-80665614D01*
X145351339Y-80690000D01*
X145353741Y-80714386D01*
X145360854Y-80737835D01*
X145372405Y-80759446D01*
X145387950Y-80778388D01*
X145406892Y-80793933D01*
X145428503Y-80805484D01*
X145648411Y-80896573D01*
X145648413Y-80896574D01*
X145844955Y-81027899D01*
X146012101Y-81195045D01*
X146143427Y-81391589D01*
X146233885Y-81609974D01*
X146280000Y-81841809D01*
X146280000Y-82078191D01*
X146233885Y-82310026D01*
X146143427Y-82528411D01*
X146143426Y-82528413D01*
X146012101Y-82724955D01*
X145844955Y-82892101D01*
X145648413Y-83023426D01*
X145648412Y-83023427D01*
X145648411Y-83023427D01*
X145428503Y-83114516D01*
X145406892Y-83126067D01*
X145387950Y-83141612D01*
X145372405Y-83160554D01*
X145360854Y-83182165D01*
X145353741Y-83205614D01*
X145351339Y-83230000D01*
X145353741Y-83254386D01*
X145360854Y-83277835D01*
X145372405Y-83299446D01*
X145387950Y-83318388D01*
X145406892Y-83333933D01*
X145428503Y-83345484D01*
X145648411Y-83436573D01*
X145648413Y-83436574D01*
X145844955Y-83567899D01*
X146012101Y-83735045D01*
X146143427Y-83931589D01*
X146233885Y-84149974D01*
X146280000Y-84381809D01*
X146280000Y-84618191D01*
X146233885Y-84850026D01*
X146143427Y-85068411D01*
X146143426Y-85068413D01*
X146012101Y-85264955D01*
X145844955Y-85432101D01*
X145648413Y-85563426D01*
X145648412Y-85563427D01*
X145648411Y-85563427D01*
X145430026Y-85653885D01*
X145198191Y-85700000D01*
X144961809Y-85700000D01*
X144729974Y-85653885D01*
X144511589Y-85563427D01*
X144511588Y-85563427D01*
X144511587Y-85563426D01*
X144315045Y-85432101D01*
X144147899Y-85264955D01*
X144016574Y-85068413D01*
X144016573Y-85068411D01*
X143926115Y-84850026D01*
X143880000Y-84618191D01*
X143880000Y-84381809D01*
X143926115Y-84149974D01*
X144016573Y-83931589D01*
X144147899Y-83735045D01*
X144315045Y-83567899D01*
X144511587Y-83436574D01*
X144511589Y-83436573D01*
X144731497Y-83345484D01*
X144753108Y-83333933D01*
X144772050Y-83318388D01*
X144787595Y-83299446D01*
X144799146Y-83277835D01*
X144806259Y-83254386D01*
X144808661Y-83230000D01*
X144806259Y-83205614D01*
X144799146Y-83182165D01*
X144787595Y-83160554D01*
X144772050Y-83141612D01*
X144753108Y-83126067D01*
X144731497Y-83114516D01*
X144511589Y-83023427D01*
X144511588Y-83023427D01*
X144511587Y-83023426D01*
X144315045Y-82892101D01*
X144147899Y-82724955D01*
X144016574Y-82528413D01*
X144016573Y-82528411D01*
X143926115Y-82310026D01*
X143880000Y-82078191D01*
X143880000Y-81841809D01*
X143926115Y-81609974D01*
X144016573Y-81391589D01*
X144147899Y-81195045D01*
X144315045Y-81027899D01*
X144511587Y-80896574D01*
X144511589Y-80896573D01*
X144731497Y-80805484D01*
X144753108Y-80793933D01*
X144772050Y-80778388D01*
X144787595Y-80759446D01*
X144799146Y-80737835D01*
X144806259Y-80714386D01*
X144808661Y-80690000D01*
X144806259Y-80665614D01*
X144799146Y-80642165D01*
X144787595Y-80620554D01*
X144772050Y-80601612D01*
X144753108Y-80586067D01*
X144731497Y-80574516D01*
X144511589Y-80483427D01*
X144511588Y-80483427D01*
X144511587Y-80483426D01*
X144315045Y-80352101D01*
X144147899Y-80184955D01*
X144016574Y-79988413D01*
X144016573Y-79988411D01*
X143926115Y-79770026D01*
X143880000Y-79538191D01*
X143880000Y-79301809D01*
X143926115Y-79069974D01*
X144016573Y-78851589D01*
X144147899Y-78655045D01*
X144315045Y-78487899D01*
X144371765Y-78450000D01*
X144511587Y-78356574D01*
X144511589Y-78356573D01*
X144729974Y-78266115D01*
X144961809Y-78220000D01*
X145198191Y-78220000D01*
X145430026Y-78266115D01*
X145430026Y-78266115D01*
G37*
G36*
X100606232Y-76563746D02*
G01*
X100695770Y-76590907D01*
X100785309Y-76618068D01*
X100873523Y-76665220D01*
X100950345Y-76706282D01*
X100950347Y-76706283D01*
X100950346Y-76706283D01*
X101095002Y-76824998D01*
X101213717Y-76969654D01*
X101301932Y-77134691D01*
X101356254Y-77313769D01*
X101374596Y-77500000D01*
X101356254Y-77686231D01*
X101301932Y-77865309D01*
X101213717Y-78030346D01*
X101095002Y-78175001D01*
X100983979Y-78266115D01*
X100950345Y-78293718D01*
X100873523Y-78334780D01*
X100785309Y-78381932D01*
X100695770Y-78409093D01*
X100606232Y-78436254D01*
X100466666Y-78450000D01*
X100373334Y-78450000D01*
X100233768Y-78436254D01*
X100144230Y-78409093D01*
X100054691Y-78381932D01*
X99966477Y-78334780D01*
X99889655Y-78293718D01*
X99856021Y-78266115D01*
X99744998Y-78175001D01*
X99626283Y-78030346D01*
X99538068Y-77865309D01*
X99483746Y-77686231D01*
X99465404Y-77500000D01*
X99483746Y-77313769D01*
X99538068Y-77134691D01*
X99626283Y-76969654D01*
X99744998Y-76824998D01*
X99889654Y-76706283D01*
X99889653Y-76706283D01*
X99889655Y-76706282D01*
X99966477Y-76665220D01*
X100054691Y-76618068D01*
X100144230Y-76590907D01*
X100233768Y-76563746D01*
X100373334Y-76550000D01*
X100466666Y-76550000D01*
X100606232Y-76563746D01*
X100606232Y-76563746D01*
G37*
G36*
X106450000Y-78450000D02*
G01*
X104550000Y-78450000D01*
X104550000Y-76550000D01*
X106450000Y-76550000D01*
X106450000Y-78450000D01*
X106450000Y-78450000D01*
G37*
G36*
X103146232Y-76563746D02*
G01*
X103235770Y-76590907D01*
X103325309Y-76618068D01*
X103413523Y-76665220D01*
X103490345Y-76706282D01*
X103490347Y-76706283D01*
X103490346Y-76706283D01*
X103635002Y-76824998D01*
X103753717Y-76969654D01*
X103841932Y-77134691D01*
X103896254Y-77313769D01*
X103914596Y-77500000D01*
X103896254Y-77686231D01*
X103841932Y-77865309D01*
X103753717Y-78030346D01*
X103635002Y-78175001D01*
X103523979Y-78266115D01*
X103490345Y-78293718D01*
X103413523Y-78334780D01*
X103325309Y-78381932D01*
X103235770Y-78409093D01*
X103146232Y-78436254D01*
X103006666Y-78450000D01*
X102913334Y-78450000D01*
X102773768Y-78436254D01*
X102684230Y-78409093D01*
X102594691Y-78381932D01*
X102506477Y-78334780D01*
X102429655Y-78293718D01*
X102396021Y-78266115D01*
X102284998Y-78175001D01*
X102166283Y-78030346D01*
X102078068Y-77865309D01*
X102023746Y-77686231D01*
X102005404Y-77500000D01*
X102023746Y-77313769D01*
X102078068Y-77134691D01*
X102166283Y-76969654D01*
X102284998Y-76824998D01*
X102429654Y-76706283D01*
X102429653Y-76706283D01*
X102429655Y-76706282D01*
X102506477Y-76665220D01*
X102594691Y-76618068D01*
X102684230Y-76590907D01*
X102773768Y-76563746D01*
X102913334Y-76550000D01*
X103006666Y-76550000D01*
X103146232Y-76563746D01*
X103146232Y-76563746D01*
G37*
G36*
X90747935Y-71482664D02*
G01*
X90902624Y-71546739D01*
X90902626Y-71546740D01*
X91041844Y-71639762D01*
X91160238Y-71758156D01*
X91253260Y-71897374D01*
X91253261Y-71897376D01*
X91317336Y-72052065D01*
X91350000Y-72216281D01*
X91350000Y-72383719D01*
X91317336Y-72547935D01*
X91253261Y-72702624D01*
X91253260Y-72702626D01*
X91160238Y-72841844D01*
X91041844Y-72960238D01*
X90902626Y-73053260D01*
X90902625Y-73053261D01*
X90902624Y-73053261D01*
X90747935Y-73117336D01*
X90583719Y-73150000D01*
X90416281Y-73150000D01*
X90252065Y-73117336D01*
X90097376Y-73053261D01*
X90097375Y-73053261D01*
X90097374Y-73053260D01*
X89958156Y-72960238D01*
X89839762Y-72841844D01*
X89746740Y-72702626D01*
X89746739Y-72702624D01*
X89682664Y-72547935D01*
X89650000Y-72383719D01*
X89650000Y-72216281D01*
X89682664Y-72052065D01*
X89746739Y-71897376D01*
X89746740Y-71897374D01*
X89839762Y-71758156D01*
X89958156Y-71639762D01*
X90097374Y-71546740D01*
X90097376Y-71546739D01*
X90252065Y-71482664D01*
X90416281Y-71450000D01*
X90583719Y-71450000D01*
X90747935Y-71482664D01*
X90747935Y-71482664D01*
G37*
G36*
X145430026Y-63346115D02*
G01*
X145648411Y-63436573D01*
X145648413Y-63436574D01*
X145725226Y-63487899D01*
X145844955Y-63567899D01*
X146012101Y-63735045D01*
X146143427Y-63931589D01*
X146233885Y-64149974D01*
X146280000Y-64381809D01*
X146280000Y-64618191D01*
X146233885Y-64850026D01*
X146176564Y-64988411D01*
X146143426Y-65068413D01*
X146012101Y-65264955D01*
X145844955Y-65432101D01*
X145648413Y-65563426D01*
X145648412Y-65563427D01*
X145648411Y-65563427D01*
X145428503Y-65654516D01*
X145406892Y-65666067D01*
X145387950Y-65681612D01*
X145372405Y-65700554D01*
X145360854Y-65722165D01*
X145353741Y-65745614D01*
X145351339Y-65770000D01*
X145353741Y-65794386D01*
X145360854Y-65817835D01*
X145372405Y-65839446D01*
X145387950Y-65858388D01*
X145406892Y-65873933D01*
X145428503Y-65885484D01*
X145648411Y-65976573D01*
X145648413Y-65976574D01*
X145725226Y-66027899D01*
X145844955Y-66107899D01*
X146012101Y-66275045D01*
X146143427Y-66471589D01*
X146233885Y-66689974D01*
X146280000Y-66921809D01*
X146280000Y-67158191D01*
X146233885Y-67390026D01*
X146176564Y-67528411D01*
X146143426Y-67608413D01*
X146012101Y-67804955D01*
X145844955Y-67972101D01*
X145648413Y-68103426D01*
X145648412Y-68103427D01*
X145648411Y-68103427D01*
X145428503Y-68194516D01*
X145406892Y-68206067D01*
X145387950Y-68221612D01*
X145372405Y-68240554D01*
X145360854Y-68262165D01*
X145353741Y-68285614D01*
X145351339Y-68310000D01*
X145353741Y-68334386D01*
X145360854Y-68357835D01*
X145372405Y-68379446D01*
X145387950Y-68398388D01*
X145406892Y-68413933D01*
X145428503Y-68425484D01*
X145648411Y-68516573D01*
X145648413Y-68516574D01*
X145725226Y-68567899D01*
X145844955Y-68647899D01*
X146012101Y-68815045D01*
X146143427Y-69011589D01*
X146233885Y-69229974D01*
X146280000Y-69461809D01*
X146280000Y-69698191D01*
X146233885Y-69930026D01*
X146176564Y-70068411D01*
X146143426Y-70148413D01*
X146012101Y-70344955D01*
X145844955Y-70512101D01*
X145648413Y-70643426D01*
X145648412Y-70643427D01*
X145648411Y-70643427D01*
X145430026Y-70733885D01*
X145198191Y-70780000D01*
X144961809Y-70780000D01*
X144729974Y-70733885D01*
X144511589Y-70643427D01*
X144511588Y-70643427D01*
X144511587Y-70643426D01*
X144315045Y-70512101D01*
X144147899Y-70344955D01*
X144016574Y-70148413D01*
X143983436Y-70068411D01*
X143926115Y-69930026D01*
X143880000Y-69698191D01*
X143880000Y-69461809D01*
X143926115Y-69229974D01*
X144016573Y-69011589D01*
X144147899Y-68815045D01*
X144315045Y-68647899D01*
X144434774Y-68567899D01*
X144511587Y-68516574D01*
X144511589Y-68516573D01*
X144731497Y-68425484D01*
X144753108Y-68413933D01*
X144772050Y-68398388D01*
X144787595Y-68379446D01*
X144799146Y-68357835D01*
X144806259Y-68334386D01*
X144808661Y-68310000D01*
X144806259Y-68285614D01*
X144799146Y-68262165D01*
X144787595Y-68240554D01*
X144772050Y-68221612D01*
X144753108Y-68206067D01*
X144731497Y-68194516D01*
X144511589Y-68103427D01*
X144511588Y-68103427D01*
X144511587Y-68103426D01*
X144315045Y-67972101D01*
X144147899Y-67804955D01*
X144016574Y-67608413D01*
X143983436Y-67528411D01*
X143926115Y-67390026D01*
X143880000Y-67158191D01*
X143880000Y-66921809D01*
X143926115Y-66689974D01*
X144016573Y-66471589D01*
X144147899Y-66275045D01*
X144315045Y-66107899D01*
X144434774Y-66027899D01*
X144511587Y-65976574D01*
X144511589Y-65976573D01*
X144731497Y-65885484D01*
X144753108Y-65873933D01*
X144772050Y-65858388D01*
X144787595Y-65839446D01*
X144799146Y-65817835D01*
X144806259Y-65794386D01*
X144808661Y-65770000D01*
X144806259Y-65745614D01*
X144799146Y-65722165D01*
X144787595Y-65700554D01*
X144772050Y-65681612D01*
X144753108Y-65666067D01*
X144731497Y-65654516D01*
X144511589Y-65563427D01*
X144511588Y-65563427D01*
X144511587Y-65563426D01*
X144315045Y-65432101D01*
X144147899Y-65264955D01*
X144016574Y-65068413D01*
X143983436Y-64988411D01*
X143926115Y-64850026D01*
X143880000Y-64618191D01*
X143880000Y-64381809D01*
X143926115Y-64149974D01*
X144016573Y-63931589D01*
X144147899Y-63735045D01*
X144315045Y-63567899D01*
X144434774Y-63487899D01*
X144511587Y-63436574D01*
X144511589Y-63436573D01*
X144729974Y-63346115D01*
X144961809Y-63300000D01*
X145198191Y-63300000D01*
X145430026Y-63346115D01*
X145430026Y-63346115D01*
G37*
G36*
X140350026Y-63346115D02*
G01*
X140568411Y-63436573D01*
X140568413Y-63436574D01*
X140645226Y-63487899D01*
X140764955Y-63567899D01*
X140932101Y-63735045D01*
X141063427Y-63931589D01*
X141153885Y-64149974D01*
X141200000Y-64381809D01*
X141200000Y-64618191D01*
X141153885Y-64850026D01*
X141096564Y-64988411D01*
X141063426Y-65068413D01*
X140932101Y-65264955D01*
X140764955Y-65432101D01*
X140568413Y-65563426D01*
X140568412Y-65563427D01*
X140568411Y-65563427D01*
X140348503Y-65654516D01*
X140326892Y-65666067D01*
X140307950Y-65681612D01*
X140292405Y-65700554D01*
X140280854Y-65722165D01*
X140273741Y-65745614D01*
X140271339Y-65770000D01*
X140273741Y-65794386D01*
X140280854Y-65817835D01*
X140292405Y-65839446D01*
X140307950Y-65858388D01*
X140326892Y-65873933D01*
X140348503Y-65885484D01*
X140568411Y-65976573D01*
X140568413Y-65976574D01*
X140645226Y-66027899D01*
X140764955Y-66107899D01*
X140932101Y-66275045D01*
X141063427Y-66471589D01*
X141153885Y-66689974D01*
X141200000Y-66921809D01*
X141200000Y-67158191D01*
X141153885Y-67390026D01*
X141096564Y-67528411D01*
X141063426Y-67608413D01*
X140932101Y-67804955D01*
X140764955Y-67972101D01*
X140568413Y-68103426D01*
X140568412Y-68103427D01*
X140568411Y-68103427D01*
X140348503Y-68194516D01*
X140326892Y-68206067D01*
X140307950Y-68221612D01*
X140292405Y-68240554D01*
X140280854Y-68262165D01*
X140273741Y-68285614D01*
X140271339Y-68310000D01*
X140273741Y-68334386D01*
X140280854Y-68357835D01*
X140292405Y-68379446D01*
X140307950Y-68398388D01*
X140326892Y-68413933D01*
X140348503Y-68425484D01*
X140568411Y-68516573D01*
X140568413Y-68516574D01*
X140645226Y-68567899D01*
X140764955Y-68647899D01*
X140932101Y-68815045D01*
X141063427Y-69011589D01*
X141153885Y-69229974D01*
X141200000Y-69461809D01*
X141200000Y-69698191D01*
X141153885Y-69930026D01*
X141096564Y-70068411D01*
X141063426Y-70148413D01*
X140932101Y-70344955D01*
X140764955Y-70512101D01*
X140568413Y-70643426D01*
X140568412Y-70643427D01*
X140568411Y-70643427D01*
X140350026Y-70733885D01*
X140118191Y-70780000D01*
X139881809Y-70780000D01*
X139649974Y-70733885D01*
X139431589Y-70643427D01*
X139431588Y-70643427D01*
X139431587Y-70643426D01*
X139235045Y-70512101D01*
X139067899Y-70344955D01*
X138936574Y-70148413D01*
X138903436Y-70068411D01*
X138846115Y-69930026D01*
X138800000Y-69698191D01*
X138800000Y-69461809D01*
X138846115Y-69229974D01*
X138936573Y-69011589D01*
X139067899Y-68815045D01*
X139235045Y-68647899D01*
X139354774Y-68567899D01*
X139431587Y-68516574D01*
X139431589Y-68516573D01*
X139651497Y-68425484D01*
X139673108Y-68413933D01*
X139692050Y-68398388D01*
X139707595Y-68379446D01*
X139719146Y-68357835D01*
X139726259Y-68334386D01*
X139728661Y-68310000D01*
X139726259Y-68285614D01*
X139719146Y-68262165D01*
X139707595Y-68240554D01*
X139692050Y-68221612D01*
X139673108Y-68206067D01*
X139651497Y-68194516D01*
X139431589Y-68103427D01*
X139431588Y-68103427D01*
X139431587Y-68103426D01*
X139235045Y-67972101D01*
X139067899Y-67804955D01*
X138936574Y-67608413D01*
X138903436Y-67528411D01*
X138846115Y-67390026D01*
X138800000Y-67158191D01*
X138800000Y-66921809D01*
X138846115Y-66689974D01*
X138936573Y-66471589D01*
X139067899Y-66275045D01*
X139235045Y-66107899D01*
X139354774Y-66027899D01*
X139431587Y-65976574D01*
X139431589Y-65976573D01*
X139651497Y-65885484D01*
X139673108Y-65873933D01*
X139692050Y-65858388D01*
X139707595Y-65839446D01*
X139719146Y-65817835D01*
X139726259Y-65794386D01*
X139728661Y-65770000D01*
X139726259Y-65745614D01*
X139719146Y-65722165D01*
X139707595Y-65700554D01*
X139692050Y-65681612D01*
X139673108Y-65666067D01*
X139651497Y-65654516D01*
X139431589Y-65563427D01*
X139431588Y-65563427D01*
X139431587Y-65563426D01*
X139235045Y-65432101D01*
X139067899Y-65264955D01*
X138936574Y-65068413D01*
X138903436Y-64988411D01*
X138846115Y-64850026D01*
X138800000Y-64618191D01*
X138800000Y-64381809D01*
X138846115Y-64149974D01*
X138936573Y-63931589D01*
X139067899Y-63735045D01*
X139235045Y-63567899D01*
X139354774Y-63487899D01*
X139431587Y-63436574D01*
X139431589Y-63436573D01*
X139649974Y-63346115D01*
X139881809Y-63300000D01*
X140118191Y-63300000D01*
X140350026Y-63346115D01*
X140350026Y-63346115D01*
G37*
G36*
X80430026Y-63266115D02*
G01*
X80648411Y-63356573D01*
X80648413Y-63356574D01*
X80844955Y-63487899D01*
X81012101Y-63655045D01*
X81143427Y-63851589D01*
X81233885Y-64069974D01*
X81280000Y-64301809D01*
X81280000Y-64538191D01*
X81233885Y-64770026D01*
X81143427Y-64988411D01*
X81143426Y-64988413D01*
X81012101Y-65184955D01*
X80844955Y-65352101D01*
X80648413Y-65483426D01*
X80648412Y-65483427D01*
X80648411Y-65483427D01*
X80428503Y-65574516D01*
X80406892Y-65586067D01*
X80387950Y-65601612D01*
X80372405Y-65620554D01*
X80360854Y-65642165D01*
X80353741Y-65665614D01*
X80351339Y-65690000D01*
X80353741Y-65714386D01*
X80360854Y-65737835D01*
X80372405Y-65759446D01*
X80387950Y-65778388D01*
X80406892Y-65793933D01*
X80428503Y-65805484D01*
X80648411Y-65896573D01*
X80648413Y-65896574D01*
X80844955Y-66027899D01*
X81012101Y-66195045D01*
X81143427Y-66391589D01*
X81233885Y-66609974D01*
X81280000Y-66841809D01*
X81280000Y-67078191D01*
X81233885Y-67310026D01*
X81143427Y-67528411D01*
X81143426Y-67528413D01*
X81012101Y-67724955D01*
X80844955Y-67892101D01*
X80648413Y-68023426D01*
X80648412Y-68023427D01*
X80648411Y-68023427D01*
X80428503Y-68114516D01*
X80406892Y-68126067D01*
X80387950Y-68141612D01*
X80372405Y-68160554D01*
X80360854Y-68182165D01*
X80353741Y-68205614D01*
X80351339Y-68230000D01*
X80353741Y-68254386D01*
X80360854Y-68277835D01*
X80372405Y-68299446D01*
X80387950Y-68318388D01*
X80406892Y-68333933D01*
X80428503Y-68345484D01*
X80648411Y-68436573D01*
X80648413Y-68436574D01*
X80844955Y-68567899D01*
X81012101Y-68735045D01*
X81143427Y-68931589D01*
X81233885Y-69149974D01*
X81280000Y-69381809D01*
X81280000Y-69618191D01*
X81233885Y-69850026D01*
X81143427Y-70068411D01*
X81143426Y-70068413D01*
X81012101Y-70264955D01*
X80844955Y-70432101D01*
X80648413Y-70563426D01*
X80648412Y-70563427D01*
X80648411Y-70563427D01*
X80430026Y-70653885D01*
X80198191Y-70700000D01*
X79961809Y-70700000D01*
X79729974Y-70653885D01*
X79511589Y-70563427D01*
X79511588Y-70563427D01*
X79511587Y-70563426D01*
X79315045Y-70432101D01*
X79147899Y-70264955D01*
X79016574Y-70068413D01*
X79016573Y-70068411D01*
X78926115Y-69850026D01*
X78880000Y-69618191D01*
X78880000Y-69381809D01*
X78926115Y-69149974D01*
X79016573Y-68931589D01*
X79147899Y-68735045D01*
X79315045Y-68567899D01*
X79511587Y-68436574D01*
X79511589Y-68436573D01*
X79731497Y-68345484D01*
X79753108Y-68333933D01*
X79772050Y-68318388D01*
X79787595Y-68299446D01*
X79799146Y-68277835D01*
X79806259Y-68254386D01*
X79808661Y-68230000D01*
X79806259Y-68205614D01*
X79799146Y-68182165D01*
X79787595Y-68160554D01*
X79772050Y-68141612D01*
X79753108Y-68126067D01*
X79731497Y-68114516D01*
X79511589Y-68023427D01*
X79511588Y-68023427D01*
X79511587Y-68023426D01*
X79315045Y-67892101D01*
X79147899Y-67724955D01*
X79016574Y-67528413D01*
X79016573Y-67528411D01*
X78926115Y-67310026D01*
X78880000Y-67078191D01*
X78880000Y-66841809D01*
X78926115Y-66609974D01*
X79016573Y-66391589D01*
X79147899Y-66195045D01*
X79315045Y-66027899D01*
X79511587Y-65896574D01*
X79511589Y-65896573D01*
X79731497Y-65805484D01*
X79753108Y-65793933D01*
X79772050Y-65778388D01*
X79787595Y-65759446D01*
X79799146Y-65737835D01*
X79806259Y-65714386D01*
X79808661Y-65690000D01*
X79806259Y-65665614D01*
X79799146Y-65642165D01*
X79787595Y-65620554D01*
X79772050Y-65601612D01*
X79753108Y-65586067D01*
X79731497Y-65574516D01*
X79511589Y-65483427D01*
X79511588Y-65483427D01*
X79511587Y-65483426D01*
X79315045Y-65352101D01*
X79147899Y-65184955D01*
X79016574Y-64988413D01*
X79016573Y-64988411D01*
X78926115Y-64770026D01*
X78880000Y-64538191D01*
X78880000Y-64301809D01*
X78926115Y-64069974D01*
X79016573Y-63851589D01*
X79147899Y-63655045D01*
X79315045Y-63487899D01*
X79511587Y-63356574D01*
X79511589Y-63356573D01*
X79729974Y-63266115D01*
X79961809Y-63220000D01*
X80198191Y-63220000D01*
X80430026Y-63266115D01*
X80430026Y-63266115D01*
G37*
G36*
X75350026Y-63266115D02*
G01*
X75568411Y-63356573D01*
X75568413Y-63356574D01*
X75764955Y-63487899D01*
X75932101Y-63655045D01*
X76063427Y-63851589D01*
X76153885Y-64069974D01*
X76200000Y-64301809D01*
X76200000Y-64538191D01*
X76153885Y-64770026D01*
X76063427Y-64988411D01*
X76063426Y-64988413D01*
X75932101Y-65184955D01*
X75764955Y-65352101D01*
X75568413Y-65483426D01*
X75568412Y-65483427D01*
X75568411Y-65483427D01*
X75348503Y-65574516D01*
X75326892Y-65586067D01*
X75307950Y-65601612D01*
X75292405Y-65620554D01*
X75280854Y-65642165D01*
X75273741Y-65665614D01*
X75271339Y-65690000D01*
X75273741Y-65714386D01*
X75280854Y-65737835D01*
X75292405Y-65759446D01*
X75307950Y-65778388D01*
X75326892Y-65793933D01*
X75348503Y-65805484D01*
X75568411Y-65896573D01*
X75568413Y-65896574D01*
X75764955Y-66027899D01*
X75932101Y-66195045D01*
X76063427Y-66391589D01*
X76153885Y-66609974D01*
X76200000Y-66841809D01*
X76200000Y-67078191D01*
X76153885Y-67310026D01*
X76063427Y-67528411D01*
X76063426Y-67528413D01*
X75932101Y-67724955D01*
X75764955Y-67892101D01*
X75568413Y-68023426D01*
X75568412Y-68023427D01*
X75568411Y-68023427D01*
X75348503Y-68114516D01*
X75326892Y-68126067D01*
X75307950Y-68141612D01*
X75292405Y-68160554D01*
X75280854Y-68182165D01*
X75273741Y-68205614D01*
X75271339Y-68230000D01*
X75273741Y-68254386D01*
X75280854Y-68277835D01*
X75292405Y-68299446D01*
X75307950Y-68318388D01*
X75326892Y-68333933D01*
X75348503Y-68345484D01*
X75568411Y-68436573D01*
X75568413Y-68436574D01*
X75764955Y-68567899D01*
X75932101Y-68735045D01*
X76063427Y-68931589D01*
X76153885Y-69149974D01*
X76200000Y-69381809D01*
X76200000Y-69618191D01*
X76153885Y-69850026D01*
X76063427Y-70068411D01*
X76063426Y-70068413D01*
X75932101Y-70264955D01*
X75764955Y-70432101D01*
X75568413Y-70563426D01*
X75568412Y-70563427D01*
X75568411Y-70563427D01*
X75350026Y-70653885D01*
X75118191Y-70700000D01*
X74881809Y-70700000D01*
X74649974Y-70653885D01*
X74431589Y-70563427D01*
X74431588Y-70563427D01*
X74431587Y-70563426D01*
X74235045Y-70432101D01*
X74067899Y-70264955D01*
X73936574Y-70068413D01*
X73936573Y-70068411D01*
X73846115Y-69850026D01*
X73800000Y-69618191D01*
X73800000Y-69381809D01*
X73846115Y-69149974D01*
X73936573Y-68931589D01*
X74067899Y-68735045D01*
X74235045Y-68567899D01*
X74431587Y-68436574D01*
X74431589Y-68436573D01*
X74651497Y-68345484D01*
X74673108Y-68333933D01*
X74692050Y-68318388D01*
X74707595Y-68299446D01*
X74719146Y-68277835D01*
X74726259Y-68254386D01*
X74728661Y-68230000D01*
X74726259Y-68205614D01*
X74719146Y-68182165D01*
X74707595Y-68160554D01*
X74692050Y-68141612D01*
X74673108Y-68126067D01*
X74651497Y-68114516D01*
X74431589Y-68023427D01*
X74431588Y-68023427D01*
X74431587Y-68023426D01*
X74235045Y-67892101D01*
X74067899Y-67724955D01*
X73936574Y-67528413D01*
X73936573Y-67528411D01*
X73846115Y-67310026D01*
X73800000Y-67078191D01*
X73800000Y-66841809D01*
X73846115Y-66609974D01*
X73936573Y-66391589D01*
X74067899Y-66195045D01*
X74235045Y-66027899D01*
X74431587Y-65896574D01*
X74431589Y-65896573D01*
X74651497Y-65805484D01*
X74673108Y-65793933D01*
X74692050Y-65778388D01*
X74707595Y-65759446D01*
X74719146Y-65737835D01*
X74726259Y-65714386D01*
X74728661Y-65690000D01*
X74726259Y-65665614D01*
X74719146Y-65642165D01*
X74707595Y-65620554D01*
X74692050Y-65601612D01*
X74673108Y-65586067D01*
X74651497Y-65574516D01*
X74431589Y-65483427D01*
X74431588Y-65483427D01*
X74431587Y-65483426D01*
X74235045Y-65352101D01*
X74067899Y-65184955D01*
X73936574Y-64988413D01*
X73936573Y-64988411D01*
X73846115Y-64770026D01*
X73800000Y-64538191D01*
X73800000Y-64301809D01*
X73846115Y-64069974D01*
X73936573Y-63851589D01*
X74067899Y-63655045D01*
X74235045Y-63487899D01*
X74431587Y-63356574D01*
X74431589Y-63356573D01*
X74649974Y-63266115D01*
X74881809Y-63220000D01*
X75118191Y-63220000D01*
X75350026Y-63266115D01*
X75350026Y-63266115D01*
G37*
G36*
X91350000Y-69350000D02*
G01*
X89650000Y-69350000D01*
X89650000Y-67650000D01*
X91350000Y-67650000D01*
X91350000Y-69350000D01*
X91350000Y-69350000D01*
G37*
G36*
X126134844Y-57328810D02*
G01*
X126379895Y-57403145D01*
X126605735Y-57523860D01*
X126803687Y-57686313D01*
X126966140Y-57884264D01*
X127086855Y-58110104D01*
X127161190Y-58355155D01*
X127180000Y-58546136D01*
X127180000Y-60673864D01*
X127161190Y-60864845D01*
X127086855Y-61109896D01*
X126966140Y-61335736D01*
X126803687Y-61533687D01*
X126605736Y-61696140D01*
X126379896Y-61816855D01*
X126134845Y-61891190D01*
X125880000Y-61916290D01*
X125625156Y-61891190D01*
X125380105Y-61816855D01*
X125154265Y-61696140D01*
X124956314Y-61533687D01*
X124793861Y-61335736D01*
X124673146Y-61109896D01*
X124598811Y-60864845D01*
X124580001Y-60673864D01*
X124580000Y-58546137D01*
X124598810Y-58355156D01*
X124673145Y-58110105D01*
X124793860Y-57884265D01*
X124956313Y-57686313D01*
X125154264Y-57523860D01*
X125380104Y-57403145D01*
X125625155Y-57328810D01*
X125880000Y-57303710D01*
X126134844Y-57328810D01*
X126134844Y-57328810D01*
G37*
G36*
X120684844Y-57328810D02*
G01*
X120929895Y-57403145D01*
X121155735Y-57523860D01*
X121353687Y-57686313D01*
X121516140Y-57884264D01*
X121636855Y-58110104D01*
X121711190Y-58355155D01*
X121730000Y-58546136D01*
X121730000Y-60673864D01*
X121711190Y-60864845D01*
X121636855Y-61109896D01*
X121516140Y-61335736D01*
X121353687Y-61533687D01*
X121155736Y-61696140D01*
X120929896Y-61816855D01*
X120684845Y-61891190D01*
X120430000Y-61916290D01*
X120175156Y-61891190D01*
X119930105Y-61816855D01*
X119704265Y-61696140D01*
X119506314Y-61533687D01*
X119343861Y-61335736D01*
X119223146Y-61109896D01*
X119148811Y-60864845D01*
X119130001Y-60673864D01*
X119130000Y-58546137D01*
X119148810Y-58355156D01*
X119223145Y-58110105D01*
X119343860Y-57884265D01*
X119506313Y-57686313D01*
X119704264Y-57523860D01*
X119930104Y-57403145D01*
X120175155Y-57328810D01*
X120430000Y-57303710D01*
X120684844Y-57328810D01*
X120684844Y-57328810D01*
G37*
G36*
X116280000Y-61910000D02*
G01*
X113680000Y-61910000D01*
X113680000Y-57310000D01*
X116280000Y-57310000D01*
X116280000Y-61910000D01*
X116280000Y-61910000D01*
G37*
G36*
X140017925Y-60479340D02*
G01*
X140054391Y-60490402D01*
X140088001Y-60508367D01*
X140117458Y-60532542D01*
X140141633Y-60561999D01*
X140159598Y-60595609D01*
X140170660Y-60632075D01*
X140175000Y-60676141D01*
X140175000Y-61623859D01*
X140170660Y-61667925D01*
X140159598Y-61704391D01*
X140141633Y-61738001D01*
X140117458Y-61767458D01*
X140088001Y-61791633D01*
X140054391Y-61809598D01*
X140017925Y-61820660D01*
X139973859Y-61825000D01*
X138526141Y-61825000D01*
X138482075Y-61820660D01*
X138445609Y-61809598D01*
X138411999Y-61791633D01*
X138382542Y-61767458D01*
X138358367Y-61738001D01*
X138340402Y-61704391D01*
X138329340Y-61667925D01*
X138325000Y-61623859D01*
X138325000Y-60676141D01*
X138329340Y-60632075D01*
X138340402Y-60595609D01*
X138358367Y-60561999D01*
X138382542Y-60532542D01*
X138411999Y-60508367D01*
X138445609Y-60490402D01*
X138482075Y-60479340D01*
X138526141Y-60475000D01*
X139973859Y-60475000D01*
X140017925Y-60479340D01*
X140017925Y-60479340D01*
G37*
G36*
X99204844Y-57218810D02*
G01*
X99449895Y-57293145D01*
X99675735Y-57413860D01*
X99873687Y-57576313D01*
X100036140Y-57774264D01*
X100156855Y-58000104D01*
X100231190Y-58245155D01*
X100250000Y-58436136D01*
X100250000Y-60563864D01*
X100231190Y-60754845D01*
X100156855Y-60999896D01*
X100036140Y-61225736D01*
X99873687Y-61423687D01*
X99675736Y-61586140D01*
X99449896Y-61706855D01*
X99204845Y-61781190D01*
X98950000Y-61806290D01*
X98695156Y-61781190D01*
X98450105Y-61706855D01*
X98224265Y-61586140D01*
X98026314Y-61423687D01*
X97863861Y-61225736D01*
X97743146Y-60999896D01*
X97668811Y-60754845D01*
X97650001Y-60563864D01*
X97650000Y-58436137D01*
X97668810Y-58245156D01*
X97743145Y-58000105D01*
X97863860Y-57774265D01*
X98026313Y-57576313D01*
X98224264Y-57413860D01*
X98450104Y-57293145D01*
X98695155Y-57218810D01*
X98950000Y-57193710D01*
X99204844Y-57218810D01*
X99204844Y-57218810D01*
G37*
G36*
X104654844Y-57218810D02*
G01*
X104899895Y-57293145D01*
X105125735Y-57413860D01*
X105323687Y-57576313D01*
X105486140Y-57774264D01*
X105606855Y-58000104D01*
X105681190Y-58245155D01*
X105700000Y-58436136D01*
X105700000Y-60563864D01*
X105681190Y-60754845D01*
X105606855Y-60999896D01*
X105486140Y-61225736D01*
X105323687Y-61423687D01*
X105125736Y-61586140D01*
X104899896Y-61706855D01*
X104654845Y-61781190D01*
X104400000Y-61806290D01*
X104145156Y-61781190D01*
X103900105Y-61706855D01*
X103674265Y-61586140D01*
X103476314Y-61423687D01*
X103313861Y-61225736D01*
X103193146Y-60999896D01*
X103118811Y-60754845D01*
X103100001Y-60563864D01*
X103100000Y-58436137D01*
X103118810Y-58245156D01*
X103193145Y-58000105D01*
X103313860Y-57774265D01*
X103476313Y-57576313D01*
X103674264Y-57413860D01*
X103900104Y-57293145D01*
X104145155Y-57218810D01*
X104400000Y-57193710D01*
X104654844Y-57218810D01*
X104654844Y-57218810D01*
G37*
G36*
X94800000Y-61800000D02*
G01*
X92200000Y-61800000D01*
X92200000Y-57200000D01*
X94800000Y-57200000D01*
X94800000Y-61800000D01*
X94800000Y-61800000D01*
G37*
G36*
X135088023Y-60154457D02*
G01*
X135125636Y-60165867D01*
X135160293Y-60184391D01*
X135190675Y-60209325D01*
X135215609Y-60239707D01*
X135234133Y-60274364D01*
X135245543Y-60311977D01*
X135250000Y-60357228D01*
X135250000Y-61192772D01*
X135245543Y-61238023D01*
X135234133Y-61275636D01*
X135215609Y-61310293D01*
X135190675Y-61340675D01*
X135160293Y-61365609D01*
X135125636Y-61384133D01*
X135088023Y-61395543D01*
X135042772Y-61400000D01*
X133957228Y-61400000D01*
X133911977Y-61395543D01*
X133874364Y-61384133D01*
X133839707Y-61365609D01*
X133809325Y-61340675D01*
X133784391Y-61310293D01*
X133765867Y-61275636D01*
X133754457Y-61238023D01*
X133750000Y-61192772D01*
X133750000Y-60357228D01*
X133754457Y-60311977D01*
X133765867Y-60274364D01*
X133784391Y-60239707D01*
X133809325Y-60209325D01*
X133839707Y-60184391D01*
X133874364Y-60165867D01*
X133911977Y-60154457D01*
X133957228Y-60150000D01*
X135042772Y-60150000D01*
X135088023Y-60154457D01*
X135088023Y-60154457D01*
G37*
G36*
X135088023Y-58104457D02*
G01*
X135125636Y-58115867D01*
X135160293Y-58134391D01*
X135190675Y-58159325D01*
X135215609Y-58189707D01*
X135234133Y-58224364D01*
X135245543Y-58261977D01*
X135250000Y-58307228D01*
X135250000Y-59142772D01*
X135245543Y-59188023D01*
X135234133Y-59225636D01*
X135215609Y-59260293D01*
X135190675Y-59290675D01*
X135160293Y-59315609D01*
X135125636Y-59334133D01*
X135088023Y-59345543D01*
X135042772Y-59350000D01*
X133957228Y-59350000D01*
X133911977Y-59345543D01*
X133874364Y-59334133D01*
X133839707Y-59315609D01*
X133809325Y-59290675D01*
X133784391Y-59260293D01*
X133765867Y-59225636D01*
X133754457Y-59188023D01*
X133750000Y-59142772D01*
X133750000Y-58307228D01*
X133754457Y-58261977D01*
X133765867Y-58224364D01*
X133784391Y-58189707D01*
X133809325Y-58159325D01*
X133839707Y-58134391D01*
X133874364Y-58115867D01*
X133911977Y-58104457D01*
X133957228Y-58100000D01*
X135042772Y-58100000D01*
X135088023Y-58104457D01*
X135088023Y-58104457D01*
G37*
G36*
X140017925Y-57679340D02*
G01*
X140054391Y-57690402D01*
X140088001Y-57708367D01*
X140117458Y-57732542D01*
X140141633Y-57761999D01*
X140159598Y-57795609D01*
X140170660Y-57832075D01*
X140175000Y-57876141D01*
X140175000Y-58823859D01*
X140170660Y-58867925D01*
X140159598Y-58904391D01*
X140141633Y-58938001D01*
X140117458Y-58967458D01*
X140088001Y-58991633D01*
X140054391Y-59009598D01*
X140017925Y-59020660D01*
X139973859Y-59025000D01*
X138526141Y-59025000D01*
X138482075Y-59020660D01*
X138445609Y-59009598D01*
X138411999Y-58991633D01*
X138382542Y-58967458D01*
X138358367Y-58938001D01*
X138340402Y-58904391D01*
X138329340Y-58867925D01*
X138325000Y-58823859D01*
X138325000Y-57876141D01*
X138329340Y-57832075D01*
X138340402Y-57795609D01*
X138358367Y-57761999D01*
X138382542Y-57732542D01*
X138411999Y-57708367D01*
X138445609Y-57690402D01*
X138482075Y-57679340D01*
X138526141Y-57675000D01*
X139973859Y-57675000D01*
X140017925Y-57679340D01*
X140017925Y-57679340D01*
G37*
G36*
X120601665Y-39068440D02*
G01*
X120773060Y-39085321D01*
X121102936Y-39185388D01*
X121102939Y-39185389D01*
X121406951Y-39347887D01*
X121673424Y-39566576D01*
X121892113Y-39833049D01*
X122054611Y-40137061D01*
X122054612Y-40137064D01*
X122154679Y-40466940D01*
X122188467Y-40810000D01*
X122154679Y-41153060D01*
X122087980Y-41372936D01*
X122054611Y-41482939D01*
X121892113Y-41786951D01*
X121673424Y-42053424D01*
X121406951Y-42272113D01*
X121102939Y-42434611D01*
X121102936Y-42434612D01*
X120773060Y-42534679D01*
X120601665Y-42551560D01*
X120515969Y-42560000D01*
X120344031Y-42560000D01*
X120258335Y-42551560D01*
X120086940Y-42534679D01*
X119757064Y-42434612D01*
X119757061Y-42434611D01*
X119453049Y-42272113D01*
X119186576Y-42053424D01*
X118967887Y-41786951D01*
X118805389Y-41482939D01*
X118772020Y-41372936D01*
X118705321Y-41153060D01*
X118671533Y-40810000D01*
X118705321Y-40466940D01*
X118805388Y-40137064D01*
X118805389Y-40137061D01*
X118967887Y-39833049D01*
X119186576Y-39566576D01*
X119453049Y-39347887D01*
X119757061Y-39185389D01*
X119757064Y-39185388D01*
X120086940Y-39085321D01*
X120258335Y-39068440D01*
X120344031Y-39060000D01*
X120515969Y-39060000D01*
X120601665Y-39068440D01*
X120601665Y-39068440D01*
G37*
G36*
X99121665Y-38958440D02*
G01*
X99293060Y-38975321D01*
X99622936Y-39075388D01*
X99622939Y-39075389D01*
X99926951Y-39237887D01*
X100193424Y-39456576D01*
X100412113Y-39723049D01*
X100574611Y-40027061D01*
X100574612Y-40027064D01*
X100674679Y-40356940D01*
X100708467Y-40700000D01*
X100674679Y-41043060D01*
X100574612Y-41372936D01*
X100574611Y-41372939D01*
X100412113Y-41676951D01*
X100193424Y-41943424D01*
X99926951Y-42162113D01*
X99622939Y-42324611D01*
X99622936Y-42324612D01*
X99293060Y-42424679D01*
X99121665Y-42441560D01*
X99035969Y-42450000D01*
X98864031Y-42450000D01*
X98778335Y-42441560D01*
X98606940Y-42424679D01*
X98277064Y-42324612D01*
X98277061Y-42324611D01*
X97973049Y-42162113D01*
X97706576Y-41943424D01*
X97487887Y-41676951D01*
X97325389Y-41372939D01*
X97325388Y-41372936D01*
X97225321Y-41043060D01*
X97191533Y-40700000D01*
X97225321Y-40356940D01*
X97325388Y-40027064D01*
X97325389Y-40027061D01*
X97487887Y-39723049D01*
X97706576Y-39456576D01*
X97973049Y-39237887D01*
X98277061Y-39075389D01*
X98277064Y-39075388D01*
X98606940Y-38975321D01*
X98778335Y-38958440D01*
X98864031Y-38950000D01*
X99035969Y-38950000D01*
X99121665Y-38958440D01*
X99121665Y-38958440D01*
G37*
M02*
