G04 #@! TF.GenerationSoftware,KiCad,Pcbnew,(5.1.4)-1*
G04 #@! TF.CreationDate,2021-09-05T23:40:41-04:00*
G04 #@! TF.ProjectId,ground_loop_breaker,67726f75-6e64-45f6-9c6f-6f705f627265,rev?*
G04 #@! TF.SameCoordinates,Original*
G04 #@! TF.FileFunction,Legend,Bot*
G04 #@! TF.FilePolarity,Positive*
%FSLAX46Y46*%
G04 Gerber Fmt 4.6, Leading zero omitted, Abs format (unit mm)*
G04 Created by KiCad (PCBNEW (5.1.4)-1) date 2021-09-05 23:40:41*
%MOMM*%
%LPD*%
G04 APERTURE LIST*
%ADD10C,0.120000*%
%ADD11C,0.150000*%
%ADD12C,1.602000*%
%ADD13C,2.702000*%
%ADD14C,2.302000*%
%ADD15O,1.802000X1.802000*%
%ADD16R,1.802000X1.802000*%
%ADD17R,1.152000X2.302000*%
%ADD18R,1.102000X1.152000*%
%ADD19C,2.102000*%
%ADD20R,2.102000X2.102000*%
%ADD21C,1.702000*%
%ADD22R,1.702000X1.702000*%
%ADD23C,0.100000*%
%ADD24C,1.527000*%
%ADD25R,2.302000X1.152000*%
%ADD26R,1.152000X1.102000*%
G04 APERTURE END LIST*
D10*
X136900000Y-132385000D02*
X136260000Y-132385000D01*
X134100000Y-132385000D02*
X134740000Y-132385000D01*
X136260000Y-132385000D02*
X136260000Y-133015000D01*
X136850000Y-129665000D02*
X134150000Y-129665000D01*
X99352064Y-140410000D02*
X98147936Y-140410000D01*
X99352064Y-138590000D02*
X98147936Y-138590000D01*
X141615000Y-103150000D02*
X141615000Y-102510000D01*
X141615000Y-100350000D02*
X141615000Y-100990000D01*
X141615000Y-102510000D02*
X140985000Y-102510000D01*
X144335000Y-103100000D02*
X144335000Y-100400000D01*
X141615000Y-83150000D02*
X141615000Y-82510000D01*
X141615000Y-80350000D02*
X141615000Y-80990000D01*
X141615000Y-82510000D02*
X140985000Y-82510000D01*
X144335000Y-83100000D02*
X144335000Y-80400000D01*
X136900000Y-114885000D02*
X136260000Y-114885000D01*
X134100000Y-114885000D02*
X134740000Y-114885000D01*
X136260000Y-114885000D02*
X136260000Y-115515000D01*
X136850000Y-112165000D02*
X134150000Y-112165000D01*
X99352064Y-122910000D02*
X98147936Y-122910000D01*
X99352064Y-121090000D02*
X98147936Y-121090000D01*
X141615000Y-63150000D02*
X141615000Y-62510000D01*
X141615000Y-60350000D02*
X141615000Y-60990000D01*
X141615000Y-62510000D02*
X140985000Y-62510000D01*
X144335000Y-63100000D02*
X144335000Y-60400000D01*
D11*
X130952380Y-129690476D02*
X131666666Y-129690476D01*
X131809523Y-129642857D01*
X131904761Y-129547619D01*
X131952380Y-129404761D01*
X131952380Y-129309523D01*
X131952380Y-130690476D02*
X131952380Y-130119047D01*
X131952380Y-130404761D02*
X130952380Y-130404761D01*
X131095238Y-130309523D01*
X131190476Y-130214285D01*
X131238095Y-130119047D01*
X131285714Y-131547619D02*
X131952380Y-131547619D01*
X130904761Y-131309523D02*
X131619047Y-131071428D01*
X131619047Y-131690476D01*
X99392857Y-141607142D02*
X99440476Y-141654761D01*
X99583333Y-141702380D01*
X99678571Y-141702380D01*
X99821428Y-141654761D01*
X99916666Y-141559523D01*
X99964285Y-141464285D01*
X100011904Y-141273809D01*
X100011904Y-141130952D01*
X99964285Y-140940476D01*
X99916666Y-140845238D01*
X99821428Y-140750000D01*
X99678571Y-140702380D01*
X99583333Y-140702380D01*
X99440476Y-140750000D01*
X99392857Y-140797619D01*
X98535714Y-141035714D02*
X98535714Y-141702380D01*
X98773809Y-140654761D02*
X99011904Y-141369047D01*
X98392857Y-141369047D01*
X97964285Y-141702380D02*
X97773809Y-141702380D01*
X97678571Y-141654761D01*
X97630952Y-141607142D01*
X97535714Y-141464285D01*
X97488095Y-141273809D01*
X97488095Y-140892857D01*
X97535714Y-140797619D01*
X97583333Y-140750000D01*
X97678571Y-140702380D01*
X97869047Y-140702380D01*
X97964285Y-140750000D01*
X98011904Y-140797619D01*
X98059523Y-140892857D01*
X98059523Y-141130952D01*
X98011904Y-141226190D01*
X97964285Y-141273809D01*
X97869047Y-141321428D01*
X97678571Y-141321428D01*
X97583333Y-141273809D01*
X97535714Y-141226190D01*
X97488095Y-141130952D01*
X143784523Y-104402380D02*
X143784523Y-105116666D01*
X143832142Y-105259523D01*
X143927380Y-105354761D01*
X144070238Y-105402380D01*
X144165476Y-105402380D01*
X142784523Y-105402380D02*
X143355952Y-105402380D01*
X143070238Y-105402380D02*
X143070238Y-104402380D01*
X143165476Y-104545238D01*
X143260714Y-104640476D01*
X143355952Y-104688095D01*
X141832142Y-105402380D02*
X142403571Y-105402380D01*
X142117857Y-105402380D02*
X142117857Y-104402380D01*
X142213095Y-104545238D01*
X142308333Y-104640476D01*
X142403571Y-104688095D01*
X143308333Y-84402380D02*
X143308333Y-85116666D01*
X143355952Y-85259523D01*
X143451190Y-85354761D01*
X143594047Y-85402380D01*
X143689285Y-85402380D01*
X142355952Y-84402380D02*
X142832142Y-84402380D01*
X142879761Y-84878571D01*
X142832142Y-84830952D01*
X142736904Y-84783333D01*
X142498809Y-84783333D01*
X142403571Y-84830952D01*
X142355952Y-84878571D01*
X142308333Y-84973809D01*
X142308333Y-85211904D01*
X142355952Y-85307142D01*
X142403571Y-85354761D01*
X142498809Y-85402380D01*
X142736904Y-85402380D01*
X142832142Y-85354761D01*
X142879761Y-85307142D01*
X130952380Y-112666666D02*
X131666666Y-112666666D01*
X131809523Y-112619047D01*
X131904761Y-112523809D01*
X131952380Y-112380952D01*
X131952380Y-112285714D01*
X131380952Y-113285714D02*
X131333333Y-113190476D01*
X131285714Y-113142857D01*
X131190476Y-113095238D01*
X131142857Y-113095238D01*
X131047619Y-113142857D01*
X131000000Y-113190476D01*
X130952380Y-113285714D01*
X130952380Y-113476190D01*
X131000000Y-113571428D01*
X131047619Y-113619047D01*
X131142857Y-113666666D01*
X131190476Y-113666666D01*
X131285714Y-113619047D01*
X131333333Y-113571428D01*
X131380952Y-113476190D01*
X131380952Y-113285714D01*
X131428571Y-113190476D01*
X131476190Y-113142857D01*
X131571428Y-113095238D01*
X131761904Y-113095238D01*
X131857142Y-113142857D01*
X131904761Y-113190476D01*
X131952380Y-113285714D01*
X131952380Y-113476190D01*
X131904761Y-113571428D01*
X131857142Y-113619047D01*
X131761904Y-113666666D01*
X131571428Y-113666666D01*
X131476190Y-113619047D01*
X131428571Y-113571428D01*
X131380952Y-113476190D01*
X99392857Y-124107142D02*
X99440476Y-124154761D01*
X99583333Y-124202380D01*
X99678571Y-124202380D01*
X99821428Y-124154761D01*
X99916666Y-124059523D01*
X99964285Y-123964285D01*
X100011904Y-123773809D01*
X100011904Y-123630952D01*
X99964285Y-123440476D01*
X99916666Y-123345238D01*
X99821428Y-123250000D01*
X99678571Y-123202380D01*
X99583333Y-123202380D01*
X99440476Y-123250000D01*
X99392857Y-123297619D01*
X99011904Y-123297619D02*
X98964285Y-123250000D01*
X98869047Y-123202380D01*
X98630952Y-123202380D01*
X98535714Y-123250000D01*
X98488095Y-123297619D01*
X98440476Y-123392857D01*
X98440476Y-123488095D01*
X98488095Y-123630952D01*
X99059523Y-124202380D01*
X98440476Y-124202380D01*
X98107142Y-123202380D02*
X97440476Y-123202380D01*
X97869047Y-124202380D01*
X143308333Y-64402380D02*
X143308333Y-65116666D01*
X143355952Y-65259523D01*
X143451190Y-65354761D01*
X143594047Y-65402380D01*
X143689285Y-65402380D01*
X142927380Y-64402380D02*
X142308333Y-64402380D01*
X142641666Y-64783333D01*
X142498809Y-64783333D01*
X142403571Y-64830952D01*
X142355952Y-64878571D01*
X142308333Y-64973809D01*
X142308333Y-65211904D01*
X142355952Y-65307142D01*
X142403571Y-65354761D01*
X142498809Y-65402380D01*
X142784523Y-65402380D01*
X142879761Y-65354761D01*
X142927380Y-65307142D01*
%LPC*%
D12*
X102620000Y-136250000D03*
X100080000Y-136250000D03*
X97540000Y-136250000D03*
X95000000Y-136250000D03*
X108950000Y-97500000D03*
X106410000Y-97500000D03*
X103870000Y-97500000D03*
X98790000Y-97500000D03*
X96250000Y-97500000D03*
X102620000Y-118750000D03*
X100080000Y-118750000D03*
X97540000Y-118750000D03*
X95000000Y-118750000D03*
X108950000Y-77500000D03*
X106410000Y-77500000D03*
X103870000Y-77500000D03*
X98790000Y-77500000D03*
X96250000Y-77500000D03*
X108950000Y-57500000D03*
X106410000Y-57500000D03*
X103870000Y-57500000D03*
X98790000Y-57500000D03*
X96250000Y-57500000D03*
D13*
X117750000Y-137250000D03*
X122750000Y-133250000D03*
D14*
X117750000Y-133250000D03*
X122750000Y-137250000D03*
D13*
X119000000Y-137330127D03*
X121500000Y-133000000D03*
D15*
X139500000Y-136290000D03*
D16*
X139500000Y-133750000D03*
D17*
X136975000Y-131025000D03*
D18*
X135500000Y-132550000D03*
D17*
X134025000Y-131025000D03*
D15*
X78000000Y-133790000D03*
D16*
X78000000Y-131250000D03*
D19*
X130250000Y-136500000D03*
D20*
X132750000Y-134000000D03*
D19*
X131500000Y-137750000D03*
D20*
X131500000Y-132750000D03*
D21*
X111000000Y-132750000D03*
D22*
X109500000Y-134750000D03*
X110250000Y-135500000D03*
D21*
X110250000Y-132000000D03*
D22*
X110250000Y-135500000D03*
D23*
G36*
X97784363Y-138575290D02*
G01*
X97810369Y-138579148D01*
X97835871Y-138585535D01*
X97860624Y-138594392D01*
X97884390Y-138605633D01*
X97906939Y-138619148D01*
X97928056Y-138634809D01*
X97947535Y-138652465D01*
X97965191Y-138671944D01*
X97980852Y-138693061D01*
X97994367Y-138715610D01*
X98005608Y-138739376D01*
X98014465Y-138764129D01*
X98020852Y-138789631D01*
X98024710Y-138815637D01*
X98026000Y-138841895D01*
X98026000Y-140158105D01*
X98024710Y-140184363D01*
X98020852Y-140210369D01*
X98014465Y-140235871D01*
X98005608Y-140260624D01*
X97994367Y-140284390D01*
X97980852Y-140306939D01*
X97965191Y-140328056D01*
X97947535Y-140347535D01*
X97928056Y-140365191D01*
X97906939Y-140380852D01*
X97884390Y-140394367D01*
X97860624Y-140405608D01*
X97835871Y-140414465D01*
X97810369Y-140420852D01*
X97784363Y-140424710D01*
X97758105Y-140426000D01*
X96766895Y-140426000D01*
X96740637Y-140424710D01*
X96714631Y-140420852D01*
X96689129Y-140414465D01*
X96664376Y-140405608D01*
X96640610Y-140394367D01*
X96618061Y-140380852D01*
X96596944Y-140365191D01*
X96577465Y-140347535D01*
X96559809Y-140328056D01*
X96544148Y-140306939D01*
X96530633Y-140284390D01*
X96519392Y-140260624D01*
X96510535Y-140235871D01*
X96504148Y-140210369D01*
X96500290Y-140184363D01*
X96499000Y-140158105D01*
X96499000Y-138841895D01*
X96500290Y-138815637D01*
X96504148Y-138789631D01*
X96510535Y-138764129D01*
X96519392Y-138739376D01*
X96530633Y-138715610D01*
X96544148Y-138693061D01*
X96559809Y-138671944D01*
X96577465Y-138652465D01*
X96596944Y-138634809D01*
X96618061Y-138619148D01*
X96640610Y-138605633D01*
X96664376Y-138594392D01*
X96689129Y-138585535D01*
X96714631Y-138579148D01*
X96740637Y-138575290D01*
X96766895Y-138574000D01*
X97758105Y-138574000D01*
X97784363Y-138575290D01*
X97784363Y-138575290D01*
G37*
D24*
X97262500Y-139500000D03*
D23*
G36*
X100759363Y-138575290D02*
G01*
X100785369Y-138579148D01*
X100810871Y-138585535D01*
X100835624Y-138594392D01*
X100859390Y-138605633D01*
X100881939Y-138619148D01*
X100903056Y-138634809D01*
X100922535Y-138652465D01*
X100940191Y-138671944D01*
X100955852Y-138693061D01*
X100969367Y-138715610D01*
X100980608Y-138739376D01*
X100989465Y-138764129D01*
X100995852Y-138789631D01*
X100999710Y-138815637D01*
X101001000Y-138841895D01*
X101001000Y-140158105D01*
X100999710Y-140184363D01*
X100995852Y-140210369D01*
X100989465Y-140235871D01*
X100980608Y-140260624D01*
X100969367Y-140284390D01*
X100955852Y-140306939D01*
X100940191Y-140328056D01*
X100922535Y-140347535D01*
X100903056Y-140365191D01*
X100881939Y-140380852D01*
X100859390Y-140394367D01*
X100835624Y-140405608D01*
X100810871Y-140414465D01*
X100785369Y-140420852D01*
X100759363Y-140424710D01*
X100733105Y-140426000D01*
X99741895Y-140426000D01*
X99715637Y-140424710D01*
X99689631Y-140420852D01*
X99664129Y-140414465D01*
X99639376Y-140405608D01*
X99615610Y-140394367D01*
X99593061Y-140380852D01*
X99571944Y-140365191D01*
X99552465Y-140347535D01*
X99534809Y-140328056D01*
X99519148Y-140306939D01*
X99505633Y-140284390D01*
X99494392Y-140260624D01*
X99485535Y-140235871D01*
X99479148Y-140210369D01*
X99475290Y-140184363D01*
X99474000Y-140158105D01*
X99474000Y-138841895D01*
X99475290Y-138815637D01*
X99479148Y-138789631D01*
X99485535Y-138764129D01*
X99494392Y-138739376D01*
X99505633Y-138715610D01*
X99519148Y-138693061D01*
X99534809Y-138671944D01*
X99552465Y-138652465D01*
X99571944Y-138634809D01*
X99593061Y-138619148D01*
X99615610Y-138605633D01*
X99639376Y-138594392D01*
X99664129Y-138585535D01*
X99689631Y-138579148D01*
X99715637Y-138575290D01*
X99741895Y-138574000D01*
X100733105Y-138574000D01*
X100759363Y-138575290D01*
X100759363Y-138575290D01*
G37*
D24*
X100237500Y-139500000D03*
D21*
X88000000Y-132750000D03*
D22*
X86500000Y-134750000D03*
X87250000Y-135500000D03*
D21*
X87250000Y-132000000D03*
D22*
X87250000Y-135500000D03*
D13*
X126000000Y-96000000D03*
X130000000Y-101000000D03*
D14*
X130000000Y-96000000D03*
X126000000Y-101000000D03*
D13*
X125551537Y-97539899D03*
X130250000Y-99250000D03*
X126000000Y-76000000D03*
X130000000Y-81000000D03*
D14*
X130000000Y-76000000D03*
X126000000Y-81000000D03*
D13*
X125551537Y-77539899D03*
X130250000Y-79250000D03*
D15*
X147000000Y-96960000D03*
D16*
X147000000Y-99500000D03*
D25*
X142975000Y-103225000D03*
D26*
X141450000Y-101750000D03*
D25*
X142975000Y-100275000D03*
D15*
X78000000Y-99710000D03*
D16*
X78000000Y-102250000D03*
D15*
X147000000Y-76960000D03*
D16*
X147000000Y-79500000D03*
D25*
X142975000Y-83225000D03*
D26*
X141450000Y-81750000D03*
D25*
X142975000Y-80275000D03*
D15*
X78000000Y-79710000D03*
D16*
X78000000Y-82250000D03*
D19*
X140500000Y-97000000D03*
D20*
X138000000Y-99500000D03*
D19*
X139250000Y-95750000D03*
D20*
X139250000Y-100750000D03*
D21*
X117250000Y-101500000D03*
D22*
X118750000Y-99500000D03*
X118000000Y-98750000D03*
D21*
X118000000Y-102250000D03*
D22*
X118000000Y-98750000D03*
D21*
X86500000Y-101500000D03*
D22*
X88000000Y-99500000D03*
X87250000Y-98750000D03*
D21*
X87250000Y-102250000D03*
D22*
X87250000Y-98750000D03*
D19*
X140500000Y-77000000D03*
D20*
X138000000Y-79500000D03*
D19*
X139250000Y-75750000D03*
D20*
X139250000Y-80750000D03*
D21*
X117250000Y-81500000D03*
D22*
X118750000Y-79500000D03*
X118000000Y-78750000D03*
D21*
X118000000Y-82250000D03*
D22*
X118000000Y-78750000D03*
D21*
X86500000Y-81500000D03*
D22*
X88000000Y-79500000D03*
X87250000Y-78750000D03*
D21*
X87250000Y-82250000D03*
D22*
X87250000Y-78750000D03*
D21*
X111000000Y-115250000D03*
D22*
X109500000Y-117250000D03*
X110250000Y-118000000D03*
D21*
X110250000Y-114500000D03*
D22*
X110250000Y-118000000D03*
D13*
X117750000Y-119750000D03*
X122750000Y-115750000D03*
D14*
X117750000Y-115750000D03*
X122750000Y-119750000D03*
D13*
X119000000Y-119830127D03*
X121500000Y-115500000D03*
D15*
X139500000Y-118790000D03*
D16*
X139500000Y-116250000D03*
D17*
X136975000Y-113525000D03*
D18*
X135500000Y-115050000D03*
D17*
X134025000Y-113525000D03*
D15*
X78000000Y-116290000D03*
D16*
X78000000Y-113750000D03*
D19*
X130250000Y-119000000D03*
D20*
X132750000Y-116500000D03*
D19*
X131500000Y-120250000D03*
D20*
X131500000Y-115250000D03*
D23*
G36*
X97784363Y-121075290D02*
G01*
X97810369Y-121079148D01*
X97835871Y-121085535D01*
X97860624Y-121094392D01*
X97884390Y-121105633D01*
X97906939Y-121119148D01*
X97928056Y-121134809D01*
X97947535Y-121152465D01*
X97965191Y-121171944D01*
X97980852Y-121193061D01*
X97994367Y-121215610D01*
X98005608Y-121239376D01*
X98014465Y-121264129D01*
X98020852Y-121289631D01*
X98024710Y-121315637D01*
X98026000Y-121341895D01*
X98026000Y-122658105D01*
X98024710Y-122684363D01*
X98020852Y-122710369D01*
X98014465Y-122735871D01*
X98005608Y-122760624D01*
X97994367Y-122784390D01*
X97980852Y-122806939D01*
X97965191Y-122828056D01*
X97947535Y-122847535D01*
X97928056Y-122865191D01*
X97906939Y-122880852D01*
X97884390Y-122894367D01*
X97860624Y-122905608D01*
X97835871Y-122914465D01*
X97810369Y-122920852D01*
X97784363Y-122924710D01*
X97758105Y-122926000D01*
X96766895Y-122926000D01*
X96740637Y-122924710D01*
X96714631Y-122920852D01*
X96689129Y-122914465D01*
X96664376Y-122905608D01*
X96640610Y-122894367D01*
X96618061Y-122880852D01*
X96596944Y-122865191D01*
X96577465Y-122847535D01*
X96559809Y-122828056D01*
X96544148Y-122806939D01*
X96530633Y-122784390D01*
X96519392Y-122760624D01*
X96510535Y-122735871D01*
X96504148Y-122710369D01*
X96500290Y-122684363D01*
X96499000Y-122658105D01*
X96499000Y-121341895D01*
X96500290Y-121315637D01*
X96504148Y-121289631D01*
X96510535Y-121264129D01*
X96519392Y-121239376D01*
X96530633Y-121215610D01*
X96544148Y-121193061D01*
X96559809Y-121171944D01*
X96577465Y-121152465D01*
X96596944Y-121134809D01*
X96618061Y-121119148D01*
X96640610Y-121105633D01*
X96664376Y-121094392D01*
X96689129Y-121085535D01*
X96714631Y-121079148D01*
X96740637Y-121075290D01*
X96766895Y-121074000D01*
X97758105Y-121074000D01*
X97784363Y-121075290D01*
X97784363Y-121075290D01*
G37*
D24*
X97262500Y-122000000D03*
D23*
G36*
X100759363Y-121075290D02*
G01*
X100785369Y-121079148D01*
X100810871Y-121085535D01*
X100835624Y-121094392D01*
X100859390Y-121105633D01*
X100881939Y-121119148D01*
X100903056Y-121134809D01*
X100922535Y-121152465D01*
X100940191Y-121171944D01*
X100955852Y-121193061D01*
X100969367Y-121215610D01*
X100980608Y-121239376D01*
X100989465Y-121264129D01*
X100995852Y-121289631D01*
X100999710Y-121315637D01*
X101001000Y-121341895D01*
X101001000Y-122658105D01*
X100999710Y-122684363D01*
X100995852Y-122710369D01*
X100989465Y-122735871D01*
X100980608Y-122760624D01*
X100969367Y-122784390D01*
X100955852Y-122806939D01*
X100940191Y-122828056D01*
X100922535Y-122847535D01*
X100903056Y-122865191D01*
X100881939Y-122880852D01*
X100859390Y-122894367D01*
X100835624Y-122905608D01*
X100810871Y-122914465D01*
X100785369Y-122920852D01*
X100759363Y-122924710D01*
X100733105Y-122926000D01*
X99741895Y-122926000D01*
X99715637Y-122924710D01*
X99689631Y-122920852D01*
X99664129Y-122914465D01*
X99639376Y-122905608D01*
X99615610Y-122894367D01*
X99593061Y-122880852D01*
X99571944Y-122865191D01*
X99552465Y-122847535D01*
X99534809Y-122828056D01*
X99519148Y-122806939D01*
X99505633Y-122784390D01*
X99494392Y-122760624D01*
X99485535Y-122735871D01*
X99479148Y-122710369D01*
X99475290Y-122684363D01*
X99474000Y-122658105D01*
X99474000Y-121341895D01*
X99475290Y-121315637D01*
X99479148Y-121289631D01*
X99485535Y-121264129D01*
X99494392Y-121239376D01*
X99505633Y-121215610D01*
X99519148Y-121193061D01*
X99534809Y-121171944D01*
X99552465Y-121152465D01*
X99571944Y-121134809D01*
X99593061Y-121119148D01*
X99615610Y-121105633D01*
X99639376Y-121094392D01*
X99664129Y-121085535D01*
X99689631Y-121079148D01*
X99715637Y-121075290D01*
X99741895Y-121074000D01*
X100733105Y-121074000D01*
X100759363Y-121075290D01*
X100759363Y-121075290D01*
G37*
D24*
X100237500Y-122000000D03*
D21*
X88000000Y-115250000D03*
D22*
X86500000Y-117250000D03*
X87250000Y-118000000D03*
D21*
X87250000Y-114500000D03*
D22*
X87250000Y-118000000D03*
D25*
X142975000Y-63225000D03*
D26*
X141450000Y-61750000D03*
D25*
X142975000Y-60275000D03*
D13*
X125551537Y-57539899D03*
X130250000Y-59250000D03*
D15*
X147000000Y-56960000D03*
D16*
X147000000Y-59500000D03*
D15*
X78000000Y-59710000D03*
D16*
X78000000Y-62250000D03*
D19*
X140500000Y-57000000D03*
D20*
X138000000Y-59500000D03*
D19*
X139250000Y-55750000D03*
D20*
X139250000Y-60750000D03*
D21*
X117250000Y-61500000D03*
D22*
X118750000Y-59500000D03*
X118000000Y-58750000D03*
D21*
X118000000Y-62250000D03*
D22*
X118000000Y-58750000D03*
D21*
X86500000Y-61500000D03*
D22*
X88000000Y-59500000D03*
X87250000Y-58750000D03*
D21*
X87250000Y-62250000D03*
D22*
X87250000Y-58750000D03*
D13*
X126000000Y-56000000D03*
X130000000Y-61000000D03*
D14*
X130000000Y-56000000D03*
X126000000Y-61000000D03*
M02*
