G04 #@! TF.GenerationSoftware,KiCad,Pcbnew,(5.1.4)-1*
G04 #@! TF.CreationDate,2021-09-05T23:37:06-04:00*
G04 #@! TF.ProjectId,ground_loop_breaker,67726f75-6e64-45f6-9c6f-6f705f627265,rev?*
G04 #@! TF.SameCoordinates,Original*
G04 #@! TF.FileFunction,Paste,Top*
G04 #@! TF.FilePolarity,Positive*
%FSLAX46Y46*%
G04 Gerber Fmt 4.6, Leading zero omitted, Abs format (unit mm)*
G04 Created by KiCad (PCBNEW (5.1.4)-1) date 2021-09-05 23:37:06*
%MOMM*%
%LPD*%
G04 APERTURE LIST*
%ADD10R,1.500000X3.600000*%
%ADD11C,0.100000*%
%ADD12C,1.425000*%
%ADD13C,1.750000*%
G04 APERTURE END LIST*
D10*
X82275000Y-138250000D03*
X79225000Y-138250000D03*
D11*
G36*
X137499504Y-138876204D02*
G01*
X137523773Y-138879804D01*
X137547571Y-138885765D01*
X137570671Y-138894030D01*
X137592849Y-138904520D01*
X137613893Y-138917133D01*
X137633598Y-138931747D01*
X137651777Y-138948223D01*
X137668253Y-138966402D01*
X137682867Y-138986107D01*
X137695480Y-139007151D01*
X137705970Y-139029329D01*
X137714235Y-139052429D01*
X137720196Y-139076227D01*
X137723796Y-139100496D01*
X137725000Y-139125000D01*
X137725000Y-140375000D01*
X137723796Y-140399504D01*
X137720196Y-140423773D01*
X137714235Y-140447571D01*
X137705970Y-140470671D01*
X137695480Y-140492849D01*
X137682867Y-140513893D01*
X137668253Y-140533598D01*
X137651777Y-140551777D01*
X137633598Y-140568253D01*
X137613893Y-140582867D01*
X137592849Y-140595480D01*
X137570671Y-140605970D01*
X137547571Y-140614235D01*
X137523773Y-140620196D01*
X137499504Y-140623796D01*
X137475000Y-140625000D01*
X136550000Y-140625000D01*
X136525496Y-140623796D01*
X136501227Y-140620196D01*
X136477429Y-140614235D01*
X136454329Y-140605970D01*
X136432151Y-140595480D01*
X136411107Y-140582867D01*
X136391402Y-140568253D01*
X136373223Y-140551777D01*
X136356747Y-140533598D01*
X136342133Y-140513893D01*
X136329520Y-140492849D01*
X136319030Y-140470671D01*
X136310765Y-140447571D01*
X136304804Y-140423773D01*
X136301204Y-140399504D01*
X136300000Y-140375000D01*
X136300000Y-139125000D01*
X136301204Y-139100496D01*
X136304804Y-139076227D01*
X136310765Y-139052429D01*
X136319030Y-139029329D01*
X136329520Y-139007151D01*
X136342133Y-138986107D01*
X136356747Y-138966402D01*
X136373223Y-138948223D01*
X136391402Y-138931747D01*
X136411107Y-138917133D01*
X136432151Y-138904520D01*
X136454329Y-138894030D01*
X136477429Y-138885765D01*
X136501227Y-138879804D01*
X136525496Y-138876204D01*
X136550000Y-138875000D01*
X137475000Y-138875000D01*
X137499504Y-138876204D01*
X137499504Y-138876204D01*
G37*
D12*
X137012500Y-139750000D03*
D11*
G36*
X140474504Y-138876204D02*
G01*
X140498773Y-138879804D01*
X140522571Y-138885765D01*
X140545671Y-138894030D01*
X140567849Y-138904520D01*
X140588893Y-138917133D01*
X140608598Y-138931747D01*
X140626777Y-138948223D01*
X140643253Y-138966402D01*
X140657867Y-138986107D01*
X140670480Y-139007151D01*
X140680970Y-139029329D01*
X140689235Y-139052429D01*
X140695196Y-139076227D01*
X140698796Y-139100496D01*
X140700000Y-139125000D01*
X140700000Y-140375000D01*
X140698796Y-140399504D01*
X140695196Y-140423773D01*
X140689235Y-140447571D01*
X140680970Y-140470671D01*
X140670480Y-140492849D01*
X140657867Y-140513893D01*
X140643253Y-140533598D01*
X140626777Y-140551777D01*
X140608598Y-140568253D01*
X140588893Y-140582867D01*
X140567849Y-140595480D01*
X140545671Y-140605970D01*
X140522571Y-140614235D01*
X140498773Y-140620196D01*
X140474504Y-140623796D01*
X140450000Y-140625000D01*
X139525000Y-140625000D01*
X139500496Y-140623796D01*
X139476227Y-140620196D01*
X139452429Y-140614235D01*
X139429329Y-140605970D01*
X139407151Y-140595480D01*
X139386107Y-140582867D01*
X139366402Y-140568253D01*
X139348223Y-140551777D01*
X139331747Y-140533598D01*
X139317133Y-140513893D01*
X139304520Y-140492849D01*
X139294030Y-140470671D01*
X139285765Y-140447571D01*
X139279804Y-140423773D01*
X139276204Y-140399504D01*
X139275000Y-140375000D01*
X139275000Y-139125000D01*
X139276204Y-139100496D01*
X139279804Y-139076227D01*
X139285765Y-139052429D01*
X139294030Y-139029329D01*
X139304520Y-139007151D01*
X139317133Y-138986107D01*
X139331747Y-138966402D01*
X139348223Y-138948223D01*
X139366402Y-138931747D01*
X139386107Y-138917133D01*
X139407151Y-138904520D01*
X139429329Y-138894030D01*
X139452429Y-138885765D01*
X139476227Y-138879804D01*
X139500496Y-138876204D01*
X139525000Y-138875000D01*
X140450000Y-138875000D01*
X140474504Y-138876204D01*
X140474504Y-138876204D01*
G37*
D12*
X139987500Y-139750000D03*
D11*
G36*
X140474504Y-129626204D02*
G01*
X140498773Y-129629804D01*
X140522571Y-129635765D01*
X140545671Y-129644030D01*
X140567849Y-129654520D01*
X140588893Y-129667133D01*
X140608598Y-129681747D01*
X140626777Y-129698223D01*
X140643253Y-129716402D01*
X140657867Y-129736107D01*
X140670480Y-129757151D01*
X140680970Y-129779329D01*
X140689235Y-129802429D01*
X140695196Y-129826227D01*
X140698796Y-129850496D01*
X140700000Y-129875000D01*
X140700000Y-131125000D01*
X140698796Y-131149504D01*
X140695196Y-131173773D01*
X140689235Y-131197571D01*
X140680970Y-131220671D01*
X140670480Y-131242849D01*
X140657867Y-131263893D01*
X140643253Y-131283598D01*
X140626777Y-131301777D01*
X140608598Y-131318253D01*
X140588893Y-131332867D01*
X140567849Y-131345480D01*
X140545671Y-131355970D01*
X140522571Y-131364235D01*
X140498773Y-131370196D01*
X140474504Y-131373796D01*
X140450000Y-131375000D01*
X139525000Y-131375000D01*
X139500496Y-131373796D01*
X139476227Y-131370196D01*
X139452429Y-131364235D01*
X139429329Y-131355970D01*
X139407151Y-131345480D01*
X139386107Y-131332867D01*
X139366402Y-131318253D01*
X139348223Y-131301777D01*
X139331747Y-131283598D01*
X139317133Y-131263893D01*
X139304520Y-131242849D01*
X139294030Y-131220671D01*
X139285765Y-131197571D01*
X139279804Y-131173773D01*
X139276204Y-131149504D01*
X139275000Y-131125000D01*
X139275000Y-129875000D01*
X139276204Y-129850496D01*
X139279804Y-129826227D01*
X139285765Y-129802429D01*
X139294030Y-129779329D01*
X139304520Y-129757151D01*
X139317133Y-129736107D01*
X139331747Y-129716402D01*
X139348223Y-129698223D01*
X139366402Y-129681747D01*
X139386107Y-129667133D01*
X139407151Y-129654520D01*
X139429329Y-129644030D01*
X139452429Y-129635765D01*
X139476227Y-129629804D01*
X139500496Y-129626204D01*
X139525000Y-129625000D01*
X140450000Y-129625000D01*
X140474504Y-129626204D01*
X140474504Y-129626204D01*
G37*
D12*
X139987500Y-130500000D03*
D11*
G36*
X137499504Y-129626204D02*
G01*
X137523773Y-129629804D01*
X137547571Y-129635765D01*
X137570671Y-129644030D01*
X137592849Y-129654520D01*
X137613893Y-129667133D01*
X137633598Y-129681747D01*
X137651777Y-129698223D01*
X137668253Y-129716402D01*
X137682867Y-129736107D01*
X137695480Y-129757151D01*
X137705970Y-129779329D01*
X137714235Y-129802429D01*
X137720196Y-129826227D01*
X137723796Y-129850496D01*
X137725000Y-129875000D01*
X137725000Y-131125000D01*
X137723796Y-131149504D01*
X137720196Y-131173773D01*
X137714235Y-131197571D01*
X137705970Y-131220671D01*
X137695480Y-131242849D01*
X137682867Y-131263893D01*
X137668253Y-131283598D01*
X137651777Y-131301777D01*
X137633598Y-131318253D01*
X137613893Y-131332867D01*
X137592849Y-131345480D01*
X137570671Y-131355970D01*
X137547571Y-131364235D01*
X137523773Y-131370196D01*
X137499504Y-131373796D01*
X137475000Y-131375000D01*
X136550000Y-131375000D01*
X136525496Y-131373796D01*
X136501227Y-131370196D01*
X136477429Y-131364235D01*
X136454329Y-131355970D01*
X136432151Y-131345480D01*
X136411107Y-131332867D01*
X136391402Y-131318253D01*
X136373223Y-131301777D01*
X136356747Y-131283598D01*
X136342133Y-131263893D01*
X136329520Y-131242849D01*
X136319030Y-131220671D01*
X136310765Y-131197571D01*
X136304804Y-131173773D01*
X136301204Y-131149504D01*
X136300000Y-131125000D01*
X136300000Y-129875000D01*
X136301204Y-129850496D01*
X136304804Y-129826227D01*
X136310765Y-129802429D01*
X136319030Y-129779329D01*
X136329520Y-129757151D01*
X136342133Y-129736107D01*
X136356747Y-129716402D01*
X136373223Y-129698223D01*
X136391402Y-129681747D01*
X136411107Y-129667133D01*
X136432151Y-129654520D01*
X136454329Y-129644030D01*
X136477429Y-129635765D01*
X136501227Y-129629804D01*
X136525496Y-129626204D01*
X136550000Y-129625000D01*
X137475000Y-129625000D01*
X137499504Y-129626204D01*
X137499504Y-129626204D01*
G37*
D12*
X137012500Y-130500000D03*
D11*
G36*
X109474504Y-138626204D02*
G01*
X109498773Y-138629804D01*
X109522571Y-138635765D01*
X109545671Y-138644030D01*
X109567849Y-138654520D01*
X109588893Y-138667133D01*
X109608598Y-138681747D01*
X109626777Y-138698223D01*
X109643253Y-138716402D01*
X109657867Y-138736107D01*
X109670480Y-138757151D01*
X109680970Y-138779329D01*
X109689235Y-138802429D01*
X109695196Y-138826227D01*
X109698796Y-138850496D01*
X109700000Y-138875000D01*
X109700000Y-140125000D01*
X109698796Y-140149504D01*
X109695196Y-140173773D01*
X109689235Y-140197571D01*
X109680970Y-140220671D01*
X109670480Y-140242849D01*
X109657867Y-140263893D01*
X109643253Y-140283598D01*
X109626777Y-140301777D01*
X109608598Y-140318253D01*
X109588893Y-140332867D01*
X109567849Y-140345480D01*
X109545671Y-140355970D01*
X109522571Y-140364235D01*
X109498773Y-140370196D01*
X109474504Y-140373796D01*
X109450000Y-140375000D01*
X108525000Y-140375000D01*
X108500496Y-140373796D01*
X108476227Y-140370196D01*
X108452429Y-140364235D01*
X108429329Y-140355970D01*
X108407151Y-140345480D01*
X108386107Y-140332867D01*
X108366402Y-140318253D01*
X108348223Y-140301777D01*
X108331747Y-140283598D01*
X108317133Y-140263893D01*
X108304520Y-140242849D01*
X108294030Y-140220671D01*
X108285765Y-140197571D01*
X108279804Y-140173773D01*
X108276204Y-140149504D01*
X108275000Y-140125000D01*
X108275000Y-138875000D01*
X108276204Y-138850496D01*
X108279804Y-138826227D01*
X108285765Y-138802429D01*
X108294030Y-138779329D01*
X108304520Y-138757151D01*
X108317133Y-138736107D01*
X108331747Y-138716402D01*
X108348223Y-138698223D01*
X108366402Y-138681747D01*
X108386107Y-138667133D01*
X108407151Y-138654520D01*
X108429329Y-138644030D01*
X108452429Y-138635765D01*
X108476227Y-138629804D01*
X108500496Y-138626204D01*
X108525000Y-138625000D01*
X109450000Y-138625000D01*
X109474504Y-138626204D01*
X109474504Y-138626204D01*
G37*
D12*
X108987500Y-139500000D03*
D11*
G36*
X106499504Y-138626204D02*
G01*
X106523773Y-138629804D01*
X106547571Y-138635765D01*
X106570671Y-138644030D01*
X106592849Y-138654520D01*
X106613893Y-138667133D01*
X106633598Y-138681747D01*
X106651777Y-138698223D01*
X106668253Y-138716402D01*
X106682867Y-138736107D01*
X106695480Y-138757151D01*
X106705970Y-138779329D01*
X106714235Y-138802429D01*
X106720196Y-138826227D01*
X106723796Y-138850496D01*
X106725000Y-138875000D01*
X106725000Y-140125000D01*
X106723796Y-140149504D01*
X106720196Y-140173773D01*
X106714235Y-140197571D01*
X106705970Y-140220671D01*
X106695480Y-140242849D01*
X106682867Y-140263893D01*
X106668253Y-140283598D01*
X106651777Y-140301777D01*
X106633598Y-140318253D01*
X106613893Y-140332867D01*
X106592849Y-140345480D01*
X106570671Y-140355970D01*
X106547571Y-140364235D01*
X106523773Y-140370196D01*
X106499504Y-140373796D01*
X106475000Y-140375000D01*
X105550000Y-140375000D01*
X105525496Y-140373796D01*
X105501227Y-140370196D01*
X105477429Y-140364235D01*
X105454329Y-140355970D01*
X105432151Y-140345480D01*
X105411107Y-140332867D01*
X105391402Y-140318253D01*
X105373223Y-140301777D01*
X105356747Y-140283598D01*
X105342133Y-140263893D01*
X105329520Y-140242849D01*
X105319030Y-140220671D01*
X105310765Y-140197571D01*
X105304804Y-140173773D01*
X105301204Y-140149504D01*
X105300000Y-140125000D01*
X105300000Y-138875000D01*
X105301204Y-138850496D01*
X105304804Y-138826227D01*
X105310765Y-138802429D01*
X105319030Y-138779329D01*
X105329520Y-138757151D01*
X105342133Y-138736107D01*
X105356747Y-138716402D01*
X105373223Y-138698223D01*
X105391402Y-138681747D01*
X105411107Y-138667133D01*
X105432151Y-138654520D01*
X105454329Y-138644030D01*
X105477429Y-138635765D01*
X105501227Y-138629804D01*
X105525496Y-138626204D01*
X105550000Y-138625000D01*
X106475000Y-138625000D01*
X106499504Y-138626204D01*
X106499504Y-138626204D01*
G37*
D12*
X106012500Y-139500000D03*
D11*
G36*
X101323768Y-138626475D02*
G01*
X101353496Y-138630885D01*
X101382650Y-138638187D01*
X101410947Y-138648312D01*
X101438115Y-138661162D01*
X101463893Y-138676612D01*
X101488033Y-138694516D01*
X101510301Y-138714699D01*
X101530484Y-138736967D01*
X101548388Y-138761107D01*
X101563838Y-138786885D01*
X101576688Y-138814053D01*
X101586813Y-138842350D01*
X101594115Y-138871504D01*
X101598525Y-138901232D01*
X101600000Y-138931250D01*
X101600000Y-140068750D01*
X101598525Y-140098768D01*
X101594115Y-140128496D01*
X101586813Y-140157650D01*
X101576688Y-140185947D01*
X101563838Y-140213115D01*
X101548388Y-140238893D01*
X101530484Y-140263033D01*
X101510301Y-140285301D01*
X101488033Y-140305484D01*
X101463893Y-140323388D01*
X101438115Y-140338838D01*
X101410947Y-140351688D01*
X101382650Y-140361813D01*
X101353496Y-140369115D01*
X101323768Y-140373525D01*
X101293750Y-140375000D01*
X100106250Y-140375000D01*
X100076232Y-140373525D01*
X100046504Y-140369115D01*
X100017350Y-140361813D01*
X99989053Y-140351688D01*
X99961885Y-140338838D01*
X99936107Y-140323388D01*
X99911967Y-140305484D01*
X99889699Y-140285301D01*
X99869516Y-140263033D01*
X99851612Y-140238893D01*
X99836162Y-140213115D01*
X99823312Y-140185947D01*
X99813187Y-140157650D01*
X99805885Y-140128496D01*
X99801475Y-140098768D01*
X99800000Y-140068750D01*
X99800000Y-138931250D01*
X99801475Y-138901232D01*
X99805885Y-138871504D01*
X99813187Y-138842350D01*
X99823312Y-138814053D01*
X99836162Y-138786885D01*
X99851612Y-138761107D01*
X99869516Y-138736967D01*
X99889699Y-138714699D01*
X99911967Y-138694516D01*
X99936107Y-138676612D01*
X99961885Y-138661162D01*
X99989053Y-138648312D01*
X100017350Y-138638187D01*
X100046504Y-138630885D01*
X100076232Y-138626475D01*
X100106250Y-138625000D01*
X101293750Y-138625000D01*
X101323768Y-138626475D01*
X101323768Y-138626475D01*
G37*
D13*
X100700000Y-139500000D03*
D11*
G36*
X103923768Y-138626475D02*
G01*
X103953496Y-138630885D01*
X103982650Y-138638187D01*
X104010947Y-138648312D01*
X104038115Y-138661162D01*
X104063893Y-138676612D01*
X104088033Y-138694516D01*
X104110301Y-138714699D01*
X104130484Y-138736967D01*
X104148388Y-138761107D01*
X104163838Y-138786885D01*
X104176688Y-138814053D01*
X104186813Y-138842350D01*
X104194115Y-138871504D01*
X104198525Y-138901232D01*
X104200000Y-138931250D01*
X104200000Y-140068750D01*
X104198525Y-140098768D01*
X104194115Y-140128496D01*
X104186813Y-140157650D01*
X104176688Y-140185947D01*
X104163838Y-140213115D01*
X104148388Y-140238893D01*
X104130484Y-140263033D01*
X104110301Y-140285301D01*
X104088033Y-140305484D01*
X104063893Y-140323388D01*
X104038115Y-140338838D01*
X104010947Y-140351688D01*
X103982650Y-140361813D01*
X103953496Y-140369115D01*
X103923768Y-140373525D01*
X103893750Y-140375000D01*
X102706250Y-140375000D01*
X102676232Y-140373525D01*
X102646504Y-140369115D01*
X102617350Y-140361813D01*
X102589053Y-140351688D01*
X102561885Y-140338838D01*
X102536107Y-140323388D01*
X102511967Y-140305484D01*
X102489699Y-140285301D01*
X102469516Y-140263033D01*
X102451612Y-140238893D01*
X102436162Y-140213115D01*
X102423312Y-140185947D01*
X102413187Y-140157650D01*
X102405885Y-140128496D01*
X102401475Y-140098768D01*
X102400000Y-140068750D01*
X102400000Y-138931250D01*
X102401475Y-138901232D01*
X102405885Y-138871504D01*
X102413187Y-138842350D01*
X102423312Y-138814053D01*
X102436162Y-138786885D01*
X102451612Y-138761107D01*
X102469516Y-138736967D01*
X102489699Y-138714699D01*
X102511967Y-138694516D01*
X102536107Y-138676612D01*
X102561885Y-138661162D01*
X102589053Y-138648312D01*
X102617350Y-138638187D01*
X102646504Y-138630885D01*
X102676232Y-138626475D01*
X102706250Y-138625000D01*
X103893750Y-138625000D01*
X103923768Y-138626475D01*
X103923768Y-138626475D01*
G37*
D13*
X103300000Y-139500000D03*
D11*
G36*
X94323768Y-138626475D02*
G01*
X94353496Y-138630885D01*
X94382650Y-138638187D01*
X94410947Y-138648312D01*
X94438115Y-138661162D01*
X94463893Y-138676612D01*
X94488033Y-138694516D01*
X94510301Y-138714699D01*
X94530484Y-138736967D01*
X94548388Y-138761107D01*
X94563838Y-138786885D01*
X94576688Y-138814053D01*
X94586813Y-138842350D01*
X94594115Y-138871504D01*
X94598525Y-138901232D01*
X94600000Y-138931250D01*
X94600000Y-140068750D01*
X94598525Y-140098768D01*
X94594115Y-140128496D01*
X94586813Y-140157650D01*
X94576688Y-140185947D01*
X94563838Y-140213115D01*
X94548388Y-140238893D01*
X94530484Y-140263033D01*
X94510301Y-140285301D01*
X94488033Y-140305484D01*
X94463893Y-140323388D01*
X94438115Y-140338838D01*
X94410947Y-140351688D01*
X94382650Y-140361813D01*
X94353496Y-140369115D01*
X94323768Y-140373525D01*
X94293750Y-140375000D01*
X93106250Y-140375000D01*
X93076232Y-140373525D01*
X93046504Y-140369115D01*
X93017350Y-140361813D01*
X92989053Y-140351688D01*
X92961885Y-140338838D01*
X92936107Y-140323388D01*
X92911967Y-140305484D01*
X92889699Y-140285301D01*
X92869516Y-140263033D01*
X92851612Y-140238893D01*
X92836162Y-140213115D01*
X92823312Y-140185947D01*
X92813187Y-140157650D01*
X92805885Y-140128496D01*
X92801475Y-140098768D01*
X92800000Y-140068750D01*
X92800000Y-138931250D01*
X92801475Y-138901232D01*
X92805885Y-138871504D01*
X92813187Y-138842350D01*
X92823312Y-138814053D01*
X92836162Y-138786885D01*
X92851612Y-138761107D01*
X92869516Y-138736967D01*
X92889699Y-138714699D01*
X92911967Y-138694516D01*
X92936107Y-138676612D01*
X92961885Y-138661162D01*
X92989053Y-138648312D01*
X93017350Y-138638187D01*
X93046504Y-138630885D01*
X93076232Y-138626475D01*
X93106250Y-138625000D01*
X94293750Y-138625000D01*
X94323768Y-138626475D01*
X94323768Y-138626475D01*
G37*
D13*
X93700000Y-139500000D03*
D11*
G36*
X96923768Y-138626475D02*
G01*
X96953496Y-138630885D01*
X96982650Y-138638187D01*
X97010947Y-138648312D01*
X97038115Y-138661162D01*
X97063893Y-138676612D01*
X97088033Y-138694516D01*
X97110301Y-138714699D01*
X97130484Y-138736967D01*
X97148388Y-138761107D01*
X97163838Y-138786885D01*
X97176688Y-138814053D01*
X97186813Y-138842350D01*
X97194115Y-138871504D01*
X97198525Y-138901232D01*
X97200000Y-138931250D01*
X97200000Y-140068750D01*
X97198525Y-140098768D01*
X97194115Y-140128496D01*
X97186813Y-140157650D01*
X97176688Y-140185947D01*
X97163838Y-140213115D01*
X97148388Y-140238893D01*
X97130484Y-140263033D01*
X97110301Y-140285301D01*
X97088033Y-140305484D01*
X97063893Y-140323388D01*
X97038115Y-140338838D01*
X97010947Y-140351688D01*
X96982650Y-140361813D01*
X96953496Y-140369115D01*
X96923768Y-140373525D01*
X96893750Y-140375000D01*
X95706250Y-140375000D01*
X95676232Y-140373525D01*
X95646504Y-140369115D01*
X95617350Y-140361813D01*
X95589053Y-140351688D01*
X95561885Y-140338838D01*
X95536107Y-140323388D01*
X95511967Y-140305484D01*
X95489699Y-140285301D01*
X95469516Y-140263033D01*
X95451612Y-140238893D01*
X95436162Y-140213115D01*
X95423312Y-140185947D01*
X95413187Y-140157650D01*
X95405885Y-140128496D01*
X95401475Y-140098768D01*
X95400000Y-140068750D01*
X95400000Y-138931250D01*
X95401475Y-138901232D01*
X95405885Y-138871504D01*
X95413187Y-138842350D01*
X95423312Y-138814053D01*
X95436162Y-138786885D01*
X95451612Y-138761107D01*
X95469516Y-138736967D01*
X95489699Y-138714699D01*
X95511967Y-138694516D01*
X95536107Y-138676612D01*
X95561885Y-138661162D01*
X95589053Y-138648312D01*
X95617350Y-138638187D01*
X95646504Y-138630885D01*
X95676232Y-138626475D01*
X95706250Y-138625000D01*
X96893750Y-138625000D01*
X96923768Y-138626475D01*
X96923768Y-138626475D01*
G37*
D13*
X96300000Y-139500000D03*
D11*
G36*
X91724504Y-138626204D02*
G01*
X91748773Y-138629804D01*
X91772571Y-138635765D01*
X91795671Y-138644030D01*
X91817849Y-138654520D01*
X91838893Y-138667133D01*
X91858598Y-138681747D01*
X91876777Y-138698223D01*
X91893253Y-138716402D01*
X91907867Y-138736107D01*
X91920480Y-138757151D01*
X91930970Y-138779329D01*
X91939235Y-138802429D01*
X91945196Y-138826227D01*
X91948796Y-138850496D01*
X91950000Y-138875000D01*
X91950000Y-140125000D01*
X91948796Y-140149504D01*
X91945196Y-140173773D01*
X91939235Y-140197571D01*
X91930970Y-140220671D01*
X91920480Y-140242849D01*
X91907867Y-140263893D01*
X91893253Y-140283598D01*
X91876777Y-140301777D01*
X91858598Y-140318253D01*
X91838893Y-140332867D01*
X91817849Y-140345480D01*
X91795671Y-140355970D01*
X91772571Y-140364235D01*
X91748773Y-140370196D01*
X91724504Y-140373796D01*
X91700000Y-140375000D01*
X90775000Y-140375000D01*
X90750496Y-140373796D01*
X90726227Y-140370196D01*
X90702429Y-140364235D01*
X90679329Y-140355970D01*
X90657151Y-140345480D01*
X90636107Y-140332867D01*
X90616402Y-140318253D01*
X90598223Y-140301777D01*
X90581747Y-140283598D01*
X90567133Y-140263893D01*
X90554520Y-140242849D01*
X90544030Y-140220671D01*
X90535765Y-140197571D01*
X90529804Y-140173773D01*
X90526204Y-140149504D01*
X90525000Y-140125000D01*
X90525000Y-138875000D01*
X90526204Y-138850496D01*
X90529804Y-138826227D01*
X90535765Y-138802429D01*
X90544030Y-138779329D01*
X90554520Y-138757151D01*
X90567133Y-138736107D01*
X90581747Y-138716402D01*
X90598223Y-138698223D01*
X90616402Y-138681747D01*
X90636107Y-138667133D01*
X90657151Y-138654520D01*
X90679329Y-138644030D01*
X90702429Y-138635765D01*
X90726227Y-138629804D01*
X90750496Y-138626204D01*
X90775000Y-138625000D01*
X91700000Y-138625000D01*
X91724504Y-138626204D01*
X91724504Y-138626204D01*
G37*
D12*
X91237500Y-139500000D03*
D11*
G36*
X88749504Y-138626204D02*
G01*
X88773773Y-138629804D01*
X88797571Y-138635765D01*
X88820671Y-138644030D01*
X88842849Y-138654520D01*
X88863893Y-138667133D01*
X88883598Y-138681747D01*
X88901777Y-138698223D01*
X88918253Y-138716402D01*
X88932867Y-138736107D01*
X88945480Y-138757151D01*
X88955970Y-138779329D01*
X88964235Y-138802429D01*
X88970196Y-138826227D01*
X88973796Y-138850496D01*
X88975000Y-138875000D01*
X88975000Y-140125000D01*
X88973796Y-140149504D01*
X88970196Y-140173773D01*
X88964235Y-140197571D01*
X88955970Y-140220671D01*
X88945480Y-140242849D01*
X88932867Y-140263893D01*
X88918253Y-140283598D01*
X88901777Y-140301777D01*
X88883598Y-140318253D01*
X88863893Y-140332867D01*
X88842849Y-140345480D01*
X88820671Y-140355970D01*
X88797571Y-140364235D01*
X88773773Y-140370196D01*
X88749504Y-140373796D01*
X88725000Y-140375000D01*
X87800000Y-140375000D01*
X87775496Y-140373796D01*
X87751227Y-140370196D01*
X87727429Y-140364235D01*
X87704329Y-140355970D01*
X87682151Y-140345480D01*
X87661107Y-140332867D01*
X87641402Y-140318253D01*
X87623223Y-140301777D01*
X87606747Y-140283598D01*
X87592133Y-140263893D01*
X87579520Y-140242849D01*
X87569030Y-140220671D01*
X87560765Y-140197571D01*
X87554804Y-140173773D01*
X87551204Y-140149504D01*
X87550000Y-140125000D01*
X87550000Y-138875000D01*
X87551204Y-138850496D01*
X87554804Y-138826227D01*
X87560765Y-138802429D01*
X87569030Y-138779329D01*
X87579520Y-138757151D01*
X87592133Y-138736107D01*
X87606747Y-138716402D01*
X87623223Y-138698223D01*
X87641402Y-138681747D01*
X87661107Y-138667133D01*
X87682151Y-138654520D01*
X87704329Y-138644030D01*
X87727429Y-138635765D01*
X87751227Y-138629804D01*
X87775496Y-138626204D01*
X87800000Y-138625000D01*
X88725000Y-138625000D01*
X88749504Y-138626204D01*
X88749504Y-138626204D01*
G37*
D12*
X88262500Y-139500000D03*
D11*
G36*
X82149504Y-130801204D02*
G01*
X82173773Y-130804804D01*
X82197571Y-130810765D01*
X82220671Y-130819030D01*
X82242849Y-130829520D01*
X82263893Y-130842133D01*
X82283598Y-130856747D01*
X82301777Y-130873223D01*
X82318253Y-130891402D01*
X82332867Y-130911107D01*
X82345480Y-130932151D01*
X82355970Y-130954329D01*
X82364235Y-130977429D01*
X82370196Y-131001227D01*
X82373796Y-131025496D01*
X82375000Y-131050000D01*
X82375000Y-131975000D01*
X82373796Y-131999504D01*
X82370196Y-132023773D01*
X82364235Y-132047571D01*
X82355970Y-132070671D01*
X82345480Y-132092849D01*
X82332867Y-132113893D01*
X82318253Y-132133598D01*
X82301777Y-132151777D01*
X82283598Y-132168253D01*
X82263893Y-132182867D01*
X82242849Y-132195480D01*
X82220671Y-132205970D01*
X82197571Y-132214235D01*
X82173773Y-132220196D01*
X82149504Y-132223796D01*
X82125000Y-132225000D01*
X80875000Y-132225000D01*
X80850496Y-132223796D01*
X80826227Y-132220196D01*
X80802429Y-132214235D01*
X80779329Y-132205970D01*
X80757151Y-132195480D01*
X80736107Y-132182867D01*
X80716402Y-132168253D01*
X80698223Y-132151777D01*
X80681747Y-132133598D01*
X80667133Y-132113893D01*
X80654520Y-132092849D01*
X80644030Y-132070671D01*
X80635765Y-132047571D01*
X80629804Y-132023773D01*
X80626204Y-131999504D01*
X80625000Y-131975000D01*
X80625000Y-131050000D01*
X80626204Y-131025496D01*
X80629804Y-131001227D01*
X80635765Y-130977429D01*
X80644030Y-130954329D01*
X80654520Y-130932151D01*
X80667133Y-130911107D01*
X80681747Y-130891402D01*
X80698223Y-130873223D01*
X80716402Y-130856747D01*
X80736107Y-130842133D01*
X80757151Y-130829520D01*
X80779329Y-130819030D01*
X80802429Y-130810765D01*
X80826227Y-130804804D01*
X80850496Y-130801204D01*
X80875000Y-130800000D01*
X82125000Y-130800000D01*
X82149504Y-130801204D01*
X82149504Y-130801204D01*
G37*
D12*
X81500000Y-131512500D03*
D11*
G36*
X82149504Y-133776204D02*
G01*
X82173773Y-133779804D01*
X82197571Y-133785765D01*
X82220671Y-133794030D01*
X82242849Y-133804520D01*
X82263893Y-133817133D01*
X82283598Y-133831747D01*
X82301777Y-133848223D01*
X82318253Y-133866402D01*
X82332867Y-133886107D01*
X82345480Y-133907151D01*
X82355970Y-133929329D01*
X82364235Y-133952429D01*
X82370196Y-133976227D01*
X82373796Y-134000496D01*
X82375000Y-134025000D01*
X82375000Y-134950000D01*
X82373796Y-134974504D01*
X82370196Y-134998773D01*
X82364235Y-135022571D01*
X82355970Y-135045671D01*
X82345480Y-135067849D01*
X82332867Y-135088893D01*
X82318253Y-135108598D01*
X82301777Y-135126777D01*
X82283598Y-135143253D01*
X82263893Y-135157867D01*
X82242849Y-135170480D01*
X82220671Y-135180970D01*
X82197571Y-135189235D01*
X82173773Y-135195196D01*
X82149504Y-135198796D01*
X82125000Y-135200000D01*
X80875000Y-135200000D01*
X80850496Y-135198796D01*
X80826227Y-135195196D01*
X80802429Y-135189235D01*
X80779329Y-135180970D01*
X80757151Y-135170480D01*
X80736107Y-135157867D01*
X80716402Y-135143253D01*
X80698223Y-135126777D01*
X80681747Y-135108598D01*
X80667133Y-135088893D01*
X80654520Y-135067849D01*
X80644030Y-135045671D01*
X80635765Y-135022571D01*
X80629804Y-134998773D01*
X80626204Y-134974504D01*
X80625000Y-134950000D01*
X80625000Y-134025000D01*
X80626204Y-134000496D01*
X80629804Y-133976227D01*
X80635765Y-133952429D01*
X80644030Y-133929329D01*
X80654520Y-133907151D01*
X80667133Y-133886107D01*
X80681747Y-133866402D01*
X80698223Y-133848223D01*
X80716402Y-133831747D01*
X80736107Y-133817133D01*
X80757151Y-133804520D01*
X80779329Y-133794030D01*
X80802429Y-133785765D01*
X80826227Y-133779804D01*
X80850496Y-133776204D01*
X80875000Y-133775000D01*
X82125000Y-133775000D01*
X82149504Y-133776204D01*
X82149504Y-133776204D01*
G37*
D12*
X81500000Y-134487500D03*
D10*
X83025000Y-95000000D03*
X79975000Y-95000000D03*
X83025000Y-75000000D03*
X79975000Y-75000000D03*
D11*
G36*
X148474504Y-92876204D02*
G01*
X148498773Y-92879804D01*
X148522571Y-92885765D01*
X148545671Y-92894030D01*
X148567849Y-92904520D01*
X148588893Y-92917133D01*
X148608598Y-92931747D01*
X148626777Y-92948223D01*
X148643253Y-92966402D01*
X148657867Y-92986107D01*
X148670480Y-93007151D01*
X148680970Y-93029329D01*
X148689235Y-93052429D01*
X148695196Y-93076227D01*
X148698796Y-93100496D01*
X148700000Y-93125000D01*
X148700000Y-94375000D01*
X148698796Y-94399504D01*
X148695196Y-94423773D01*
X148689235Y-94447571D01*
X148680970Y-94470671D01*
X148670480Y-94492849D01*
X148657867Y-94513893D01*
X148643253Y-94533598D01*
X148626777Y-94551777D01*
X148608598Y-94568253D01*
X148588893Y-94582867D01*
X148567849Y-94595480D01*
X148545671Y-94605970D01*
X148522571Y-94614235D01*
X148498773Y-94620196D01*
X148474504Y-94623796D01*
X148450000Y-94625000D01*
X147525000Y-94625000D01*
X147500496Y-94623796D01*
X147476227Y-94620196D01*
X147452429Y-94614235D01*
X147429329Y-94605970D01*
X147407151Y-94595480D01*
X147386107Y-94582867D01*
X147366402Y-94568253D01*
X147348223Y-94551777D01*
X147331747Y-94533598D01*
X147317133Y-94513893D01*
X147304520Y-94492849D01*
X147294030Y-94470671D01*
X147285765Y-94447571D01*
X147279804Y-94423773D01*
X147276204Y-94399504D01*
X147275000Y-94375000D01*
X147275000Y-93125000D01*
X147276204Y-93100496D01*
X147279804Y-93076227D01*
X147285765Y-93052429D01*
X147294030Y-93029329D01*
X147304520Y-93007151D01*
X147317133Y-92986107D01*
X147331747Y-92966402D01*
X147348223Y-92948223D01*
X147366402Y-92931747D01*
X147386107Y-92917133D01*
X147407151Y-92904520D01*
X147429329Y-92894030D01*
X147452429Y-92885765D01*
X147476227Y-92879804D01*
X147500496Y-92876204D01*
X147525000Y-92875000D01*
X148450000Y-92875000D01*
X148474504Y-92876204D01*
X148474504Y-92876204D01*
G37*
D12*
X147987500Y-93750000D03*
D11*
G36*
X145499504Y-92876204D02*
G01*
X145523773Y-92879804D01*
X145547571Y-92885765D01*
X145570671Y-92894030D01*
X145592849Y-92904520D01*
X145613893Y-92917133D01*
X145633598Y-92931747D01*
X145651777Y-92948223D01*
X145668253Y-92966402D01*
X145682867Y-92986107D01*
X145695480Y-93007151D01*
X145705970Y-93029329D01*
X145714235Y-93052429D01*
X145720196Y-93076227D01*
X145723796Y-93100496D01*
X145725000Y-93125000D01*
X145725000Y-94375000D01*
X145723796Y-94399504D01*
X145720196Y-94423773D01*
X145714235Y-94447571D01*
X145705970Y-94470671D01*
X145695480Y-94492849D01*
X145682867Y-94513893D01*
X145668253Y-94533598D01*
X145651777Y-94551777D01*
X145633598Y-94568253D01*
X145613893Y-94582867D01*
X145592849Y-94595480D01*
X145570671Y-94605970D01*
X145547571Y-94614235D01*
X145523773Y-94620196D01*
X145499504Y-94623796D01*
X145475000Y-94625000D01*
X144550000Y-94625000D01*
X144525496Y-94623796D01*
X144501227Y-94620196D01*
X144477429Y-94614235D01*
X144454329Y-94605970D01*
X144432151Y-94595480D01*
X144411107Y-94582867D01*
X144391402Y-94568253D01*
X144373223Y-94551777D01*
X144356747Y-94533598D01*
X144342133Y-94513893D01*
X144329520Y-94492849D01*
X144319030Y-94470671D01*
X144310765Y-94447571D01*
X144304804Y-94423773D01*
X144301204Y-94399504D01*
X144300000Y-94375000D01*
X144300000Y-93125000D01*
X144301204Y-93100496D01*
X144304804Y-93076227D01*
X144310765Y-93052429D01*
X144319030Y-93029329D01*
X144329520Y-93007151D01*
X144342133Y-92986107D01*
X144356747Y-92966402D01*
X144373223Y-92948223D01*
X144391402Y-92931747D01*
X144411107Y-92917133D01*
X144432151Y-92904520D01*
X144454329Y-92894030D01*
X144477429Y-92885765D01*
X144501227Y-92879804D01*
X144525496Y-92876204D01*
X144550000Y-92875000D01*
X145475000Y-92875000D01*
X145499504Y-92876204D01*
X145499504Y-92876204D01*
G37*
D12*
X145012500Y-93750000D03*
D11*
G36*
X147974504Y-102376204D02*
G01*
X147998773Y-102379804D01*
X148022571Y-102385765D01*
X148045671Y-102394030D01*
X148067849Y-102404520D01*
X148088893Y-102417133D01*
X148108598Y-102431747D01*
X148126777Y-102448223D01*
X148143253Y-102466402D01*
X148157867Y-102486107D01*
X148170480Y-102507151D01*
X148180970Y-102529329D01*
X148189235Y-102552429D01*
X148195196Y-102576227D01*
X148198796Y-102600496D01*
X148200000Y-102625000D01*
X148200000Y-103875000D01*
X148198796Y-103899504D01*
X148195196Y-103923773D01*
X148189235Y-103947571D01*
X148180970Y-103970671D01*
X148170480Y-103992849D01*
X148157867Y-104013893D01*
X148143253Y-104033598D01*
X148126777Y-104051777D01*
X148108598Y-104068253D01*
X148088893Y-104082867D01*
X148067849Y-104095480D01*
X148045671Y-104105970D01*
X148022571Y-104114235D01*
X147998773Y-104120196D01*
X147974504Y-104123796D01*
X147950000Y-104125000D01*
X147025000Y-104125000D01*
X147000496Y-104123796D01*
X146976227Y-104120196D01*
X146952429Y-104114235D01*
X146929329Y-104105970D01*
X146907151Y-104095480D01*
X146886107Y-104082867D01*
X146866402Y-104068253D01*
X146848223Y-104051777D01*
X146831747Y-104033598D01*
X146817133Y-104013893D01*
X146804520Y-103992849D01*
X146794030Y-103970671D01*
X146785765Y-103947571D01*
X146779804Y-103923773D01*
X146776204Y-103899504D01*
X146775000Y-103875000D01*
X146775000Y-102625000D01*
X146776204Y-102600496D01*
X146779804Y-102576227D01*
X146785765Y-102552429D01*
X146794030Y-102529329D01*
X146804520Y-102507151D01*
X146817133Y-102486107D01*
X146831747Y-102466402D01*
X146848223Y-102448223D01*
X146866402Y-102431747D01*
X146886107Y-102417133D01*
X146907151Y-102404520D01*
X146929329Y-102394030D01*
X146952429Y-102385765D01*
X146976227Y-102379804D01*
X147000496Y-102376204D01*
X147025000Y-102375000D01*
X147950000Y-102375000D01*
X147974504Y-102376204D01*
X147974504Y-102376204D01*
G37*
D12*
X147487500Y-103250000D03*
D11*
G36*
X144999504Y-102376204D02*
G01*
X145023773Y-102379804D01*
X145047571Y-102385765D01*
X145070671Y-102394030D01*
X145092849Y-102404520D01*
X145113893Y-102417133D01*
X145133598Y-102431747D01*
X145151777Y-102448223D01*
X145168253Y-102466402D01*
X145182867Y-102486107D01*
X145195480Y-102507151D01*
X145205970Y-102529329D01*
X145214235Y-102552429D01*
X145220196Y-102576227D01*
X145223796Y-102600496D01*
X145225000Y-102625000D01*
X145225000Y-103875000D01*
X145223796Y-103899504D01*
X145220196Y-103923773D01*
X145214235Y-103947571D01*
X145205970Y-103970671D01*
X145195480Y-103992849D01*
X145182867Y-104013893D01*
X145168253Y-104033598D01*
X145151777Y-104051777D01*
X145133598Y-104068253D01*
X145113893Y-104082867D01*
X145092849Y-104095480D01*
X145070671Y-104105970D01*
X145047571Y-104114235D01*
X145023773Y-104120196D01*
X144999504Y-104123796D01*
X144975000Y-104125000D01*
X144050000Y-104125000D01*
X144025496Y-104123796D01*
X144001227Y-104120196D01*
X143977429Y-104114235D01*
X143954329Y-104105970D01*
X143932151Y-104095480D01*
X143911107Y-104082867D01*
X143891402Y-104068253D01*
X143873223Y-104051777D01*
X143856747Y-104033598D01*
X143842133Y-104013893D01*
X143829520Y-103992849D01*
X143819030Y-103970671D01*
X143810765Y-103947571D01*
X143804804Y-103923773D01*
X143801204Y-103899504D01*
X143800000Y-103875000D01*
X143800000Y-102625000D01*
X143801204Y-102600496D01*
X143804804Y-102576227D01*
X143810765Y-102552429D01*
X143819030Y-102529329D01*
X143829520Y-102507151D01*
X143842133Y-102486107D01*
X143856747Y-102466402D01*
X143873223Y-102448223D01*
X143891402Y-102431747D01*
X143911107Y-102417133D01*
X143932151Y-102404520D01*
X143954329Y-102394030D01*
X143977429Y-102385765D01*
X144001227Y-102379804D01*
X144025496Y-102376204D01*
X144050000Y-102375000D01*
X144975000Y-102375000D01*
X144999504Y-102376204D01*
X144999504Y-102376204D01*
G37*
D12*
X144512500Y-103250000D03*
D11*
G36*
X121474504Y-93876204D02*
G01*
X121498773Y-93879804D01*
X121522571Y-93885765D01*
X121545671Y-93894030D01*
X121567849Y-93904520D01*
X121588893Y-93917133D01*
X121608598Y-93931747D01*
X121626777Y-93948223D01*
X121643253Y-93966402D01*
X121657867Y-93986107D01*
X121670480Y-94007151D01*
X121680970Y-94029329D01*
X121689235Y-94052429D01*
X121695196Y-94076227D01*
X121698796Y-94100496D01*
X121700000Y-94125000D01*
X121700000Y-95375000D01*
X121698796Y-95399504D01*
X121695196Y-95423773D01*
X121689235Y-95447571D01*
X121680970Y-95470671D01*
X121670480Y-95492849D01*
X121657867Y-95513893D01*
X121643253Y-95533598D01*
X121626777Y-95551777D01*
X121608598Y-95568253D01*
X121588893Y-95582867D01*
X121567849Y-95595480D01*
X121545671Y-95605970D01*
X121522571Y-95614235D01*
X121498773Y-95620196D01*
X121474504Y-95623796D01*
X121450000Y-95625000D01*
X120525000Y-95625000D01*
X120500496Y-95623796D01*
X120476227Y-95620196D01*
X120452429Y-95614235D01*
X120429329Y-95605970D01*
X120407151Y-95595480D01*
X120386107Y-95582867D01*
X120366402Y-95568253D01*
X120348223Y-95551777D01*
X120331747Y-95533598D01*
X120317133Y-95513893D01*
X120304520Y-95492849D01*
X120294030Y-95470671D01*
X120285765Y-95447571D01*
X120279804Y-95423773D01*
X120276204Y-95399504D01*
X120275000Y-95375000D01*
X120275000Y-94125000D01*
X120276204Y-94100496D01*
X120279804Y-94076227D01*
X120285765Y-94052429D01*
X120294030Y-94029329D01*
X120304520Y-94007151D01*
X120317133Y-93986107D01*
X120331747Y-93966402D01*
X120348223Y-93948223D01*
X120366402Y-93931747D01*
X120386107Y-93917133D01*
X120407151Y-93904520D01*
X120429329Y-93894030D01*
X120452429Y-93885765D01*
X120476227Y-93879804D01*
X120500496Y-93876204D01*
X120525000Y-93875000D01*
X121450000Y-93875000D01*
X121474504Y-93876204D01*
X121474504Y-93876204D01*
G37*
D12*
X120987500Y-94750000D03*
D11*
G36*
X118499504Y-93876204D02*
G01*
X118523773Y-93879804D01*
X118547571Y-93885765D01*
X118570671Y-93894030D01*
X118592849Y-93904520D01*
X118613893Y-93917133D01*
X118633598Y-93931747D01*
X118651777Y-93948223D01*
X118668253Y-93966402D01*
X118682867Y-93986107D01*
X118695480Y-94007151D01*
X118705970Y-94029329D01*
X118714235Y-94052429D01*
X118720196Y-94076227D01*
X118723796Y-94100496D01*
X118725000Y-94125000D01*
X118725000Y-95375000D01*
X118723796Y-95399504D01*
X118720196Y-95423773D01*
X118714235Y-95447571D01*
X118705970Y-95470671D01*
X118695480Y-95492849D01*
X118682867Y-95513893D01*
X118668253Y-95533598D01*
X118651777Y-95551777D01*
X118633598Y-95568253D01*
X118613893Y-95582867D01*
X118592849Y-95595480D01*
X118570671Y-95605970D01*
X118547571Y-95614235D01*
X118523773Y-95620196D01*
X118499504Y-95623796D01*
X118475000Y-95625000D01*
X117550000Y-95625000D01*
X117525496Y-95623796D01*
X117501227Y-95620196D01*
X117477429Y-95614235D01*
X117454329Y-95605970D01*
X117432151Y-95595480D01*
X117411107Y-95582867D01*
X117391402Y-95568253D01*
X117373223Y-95551777D01*
X117356747Y-95533598D01*
X117342133Y-95513893D01*
X117329520Y-95492849D01*
X117319030Y-95470671D01*
X117310765Y-95447571D01*
X117304804Y-95423773D01*
X117301204Y-95399504D01*
X117300000Y-95375000D01*
X117300000Y-94125000D01*
X117301204Y-94100496D01*
X117304804Y-94076227D01*
X117310765Y-94052429D01*
X117319030Y-94029329D01*
X117329520Y-94007151D01*
X117342133Y-93986107D01*
X117356747Y-93966402D01*
X117373223Y-93948223D01*
X117391402Y-93931747D01*
X117411107Y-93917133D01*
X117432151Y-93904520D01*
X117454329Y-93894030D01*
X117477429Y-93885765D01*
X117501227Y-93879804D01*
X117525496Y-93876204D01*
X117550000Y-93875000D01*
X118475000Y-93875000D01*
X118499504Y-93876204D01*
X118499504Y-93876204D01*
G37*
D12*
X118012500Y-94750000D03*
D11*
G36*
X107573768Y-92626475D02*
G01*
X107603496Y-92630885D01*
X107632650Y-92638187D01*
X107660947Y-92648312D01*
X107688115Y-92661162D01*
X107713893Y-92676612D01*
X107738033Y-92694516D01*
X107760301Y-92714699D01*
X107780484Y-92736967D01*
X107798388Y-92761107D01*
X107813838Y-92786885D01*
X107826688Y-92814053D01*
X107836813Y-92842350D01*
X107844115Y-92871504D01*
X107848525Y-92901232D01*
X107850000Y-92931250D01*
X107850000Y-94068750D01*
X107848525Y-94098768D01*
X107844115Y-94128496D01*
X107836813Y-94157650D01*
X107826688Y-94185947D01*
X107813838Y-94213115D01*
X107798388Y-94238893D01*
X107780484Y-94263033D01*
X107760301Y-94285301D01*
X107738033Y-94305484D01*
X107713893Y-94323388D01*
X107688115Y-94338838D01*
X107660947Y-94351688D01*
X107632650Y-94361813D01*
X107603496Y-94369115D01*
X107573768Y-94373525D01*
X107543750Y-94375000D01*
X106356250Y-94375000D01*
X106326232Y-94373525D01*
X106296504Y-94369115D01*
X106267350Y-94361813D01*
X106239053Y-94351688D01*
X106211885Y-94338838D01*
X106186107Y-94323388D01*
X106161967Y-94305484D01*
X106139699Y-94285301D01*
X106119516Y-94263033D01*
X106101612Y-94238893D01*
X106086162Y-94213115D01*
X106073312Y-94185947D01*
X106063187Y-94157650D01*
X106055885Y-94128496D01*
X106051475Y-94098768D01*
X106050000Y-94068750D01*
X106050000Y-92931250D01*
X106051475Y-92901232D01*
X106055885Y-92871504D01*
X106063187Y-92842350D01*
X106073312Y-92814053D01*
X106086162Y-92786885D01*
X106101612Y-92761107D01*
X106119516Y-92736967D01*
X106139699Y-92714699D01*
X106161967Y-92694516D01*
X106186107Y-92676612D01*
X106211885Y-92661162D01*
X106239053Y-92648312D01*
X106267350Y-92638187D01*
X106296504Y-92630885D01*
X106326232Y-92626475D01*
X106356250Y-92625000D01*
X107543750Y-92625000D01*
X107573768Y-92626475D01*
X107573768Y-92626475D01*
G37*
D13*
X106950000Y-93500000D03*
D11*
G36*
X110173768Y-92626475D02*
G01*
X110203496Y-92630885D01*
X110232650Y-92638187D01*
X110260947Y-92648312D01*
X110288115Y-92661162D01*
X110313893Y-92676612D01*
X110338033Y-92694516D01*
X110360301Y-92714699D01*
X110380484Y-92736967D01*
X110398388Y-92761107D01*
X110413838Y-92786885D01*
X110426688Y-92814053D01*
X110436813Y-92842350D01*
X110444115Y-92871504D01*
X110448525Y-92901232D01*
X110450000Y-92931250D01*
X110450000Y-94068750D01*
X110448525Y-94098768D01*
X110444115Y-94128496D01*
X110436813Y-94157650D01*
X110426688Y-94185947D01*
X110413838Y-94213115D01*
X110398388Y-94238893D01*
X110380484Y-94263033D01*
X110360301Y-94285301D01*
X110338033Y-94305484D01*
X110313893Y-94323388D01*
X110288115Y-94338838D01*
X110260947Y-94351688D01*
X110232650Y-94361813D01*
X110203496Y-94369115D01*
X110173768Y-94373525D01*
X110143750Y-94375000D01*
X108956250Y-94375000D01*
X108926232Y-94373525D01*
X108896504Y-94369115D01*
X108867350Y-94361813D01*
X108839053Y-94351688D01*
X108811885Y-94338838D01*
X108786107Y-94323388D01*
X108761967Y-94305484D01*
X108739699Y-94285301D01*
X108719516Y-94263033D01*
X108701612Y-94238893D01*
X108686162Y-94213115D01*
X108673312Y-94185947D01*
X108663187Y-94157650D01*
X108655885Y-94128496D01*
X108651475Y-94098768D01*
X108650000Y-94068750D01*
X108650000Y-92931250D01*
X108651475Y-92901232D01*
X108655885Y-92871504D01*
X108663187Y-92842350D01*
X108673312Y-92814053D01*
X108686162Y-92786885D01*
X108701612Y-92761107D01*
X108719516Y-92736967D01*
X108739699Y-92714699D01*
X108761967Y-92694516D01*
X108786107Y-92676612D01*
X108811885Y-92661162D01*
X108839053Y-92648312D01*
X108867350Y-92638187D01*
X108896504Y-92630885D01*
X108926232Y-92626475D01*
X108956250Y-92625000D01*
X110143750Y-92625000D01*
X110173768Y-92626475D01*
X110173768Y-92626475D01*
G37*
D13*
X109550000Y-93500000D03*
D11*
G36*
X101249504Y-92626204D02*
G01*
X101273773Y-92629804D01*
X101297571Y-92635765D01*
X101320671Y-92644030D01*
X101342849Y-92654520D01*
X101363893Y-92667133D01*
X101383598Y-92681747D01*
X101401777Y-92698223D01*
X101418253Y-92716402D01*
X101432867Y-92736107D01*
X101445480Y-92757151D01*
X101455970Y-92779329D01*
X101464235Y-92802429D01*
X101470196Y-92826227D01*
X101473796Y-92850496D01*
X101475000Y-92875000D01*
X101475000Y-94125000D01*
X101473796Y-94149504D01*
X101470196Y-94173773D01*
X101464235Y-94197571D01*
X101455970Y-94220671D01*
X101445480Y-94242849D01*
X101432867Y-94263893D01*
X101418253Y-94283598D01*
X101401777Y-94301777D01*
X101383598Y-94318253D01*
X101363893Y-94332867D01*
X101342849Y-94345480D01*
X101320671Y-94355970D01*
X101297571Y-94364235D01*
X101273773Y-94370196D01*
X101249504Y-94373796D01*
X101225000Y-94375000D01*
X100300000Y-94375000D01*
X100275496Y-94373796D01*
X100251227Y-94370196D01*
X100227429Y-94364235D01*
X100204329Y-94355970D01*
X100182151Y-94345480D01*
X100161107Y-94332867D01*
X100141402Y-94318253D01*
X100123223Y-94301777D01*
X100106747Y-94283598D01*
X100092133Y-94263893D01*
X100079520Y-94242849D01*
X100069030Y-94220671D01*
X100060765Y-94197571D01*
X100054804Y-94173773D01*
X100051204Y-94149504D01*
X100050000Y-94125000D01*
X100050000Y-92875000D01*
X100051204Y-92850496D01*
X100054804Y-92826227D01*
X100060765Y-92802429D01*
X100069030Y-92779329D01*
X100079520Y-92757151D01*
X100092133Y-92736107D01*
X100106747Y-92716402D01*
X100123223Y-92698223D01*
X100141402Y-92681747D01*
X100161107Y-92667133D01*
X100182151Y-92654520D01*
X100204329Y-92644030D01*
X100227429Y-92635765D01*
X100251227Y-92629804D01*
X100275496Y-92626204D01*
X100300000Y-92625000D01*
X101225000Y-92625000D01*
X101249504Y-92626204D01*
X101249504Y-92626204D01*
G37*
D12*
X100762500Y-93500000D03*
D11*
G36*
X104224504Y-92626204D02*
G01*
X104248773Y-92629804D01*
X104272571Y-92635765D01*
X104295671Y-92644030D01*
X104317849Y-92654520D01*
X104338893Y-92667133D01*
X104358598Y-92681747D01*
X104376777Y-92698223D01*
X104393253Y-92716402D01*
X104407867Y-92736107D01*
X104420480Y-92757151D01*
X104430970Y-92779329D01*
X104439235Y-92802429D01*
X104445196Y-92826227D01*
X104448796Y-92850496D01*
X104450000Y-92875000D01*
X104450000Y-94125000D01*
X104448796Y-94149504D01*
X104445196Y-94173773D01*
X104439235Y-94197571D01*
X104430970Y-94220671D01*
X104420480Y-94242849D01*
X104407867Y-94263893D01*
X104393253Y-94283598D01*
X104376777Y-94301777D01*
X104358598Y-94318253D01*
X104338893Y-94332867D01*
X104317849Y-94345480D01*
X104295671Y-94355970D01*
X104272571Y-94364235D01*
X104248773Y-94370196D01*
X104224504Y-94373796D01*
X104200000Y-94375000D01*
X103275000Y-94375000D01*
X103250496Y-94373796D01*
X103226227Y-94370196D01*
X103202429Y-94364235D01*
X103179329Y-94355970D01*
X103157151Y-94345480D01*
X103136107Y-94332867D01*
X103116402Y-94318253D01*
X103098223Y-94301777D01*
X103081747Y-94283598D01*
X103067133Y-94263893D01*
X103054520Y-94242849D01*
X103044030Y-94220671D01*
X103035765Y-94197571D01*
X103029804Y-94173773D01*
X103026204Y-94149504D01*
X103025000Y-94125000D01*
X103025000Y-92875000D01*
X103026204Y-92850496D01*
X103029804Y-92826227D01*
X103035765Y-92802429D01*
X103044030Y-92779329D01*
X103054520Y-92757151D01*
X103067133Y-92736107D01*
X103081747Y-92716402D01*
X103098223Y-92698223D01*
X103116402Y-92681747D01*
X103136107Y-92667133D01*
X103157151Y-92654520D01*
X103179329Y-92644030D01*
X103202429Y-92635765D01*
X103226227Y-92629804D01*
X103250496Y-92626204D01*
X103275000Y-92625000D01*
X104200000Y-92625000D01*
X104224504Y-92626204D01*
X104224504Y-92626204D01*
G37*
D12*
X103737500Y-93500000D03*
D11*
G36*
X98923768Y-92626475D02*
G01*
X98953496Y-92630885D01*
X98982650Y-92638187D01*
X99010947Y-92648312D01*
X99038115Y-92661162D01*
X99063893Y-92676612D01*
X99088033Y-92694516D01*
X99110301Y-92714699D01*
X99130484Y-92736967D01*
X99148388Y-92761107D01*
X99163838Y-92786885D01*
X99176688Y-92814053D01*
X99186813Y-92842350D01*
X99194115Y-92871504D01*
X99198525Y-92901232D01*
X99200000Y-92931250D01*
X99200000Y-94068750D01*
X99198525Y-94098768D01*
X99194115Y-94128496D01*
X99186813Y-94157650D01*
X99176688Y-94185947D01*
X99163838Y-94213115D01*
X99148388Y-94238893D01*
X99130484Y-94263033D01*
X99110301Y-94285301D01*
X99088033Y-94305484D01*
X99063893Y-94323388D01*
X99038115Y-94338838D01*
X99010947Y-94351688D01*
X98982650Y-94361813D01*
X98953496Y-94369115D01*
X98923768Y-94373525D01*
X98893750Y-94375000D01*
X97706250Y-94375000D01*
X97676232Y-94373525D01*
X97646504Y-94369115D01*
X97617350Y-94361813D01*
X97589053Y-94351688D01*
X97561885Y-94338838D01*
X97536107Y-94323388D01*
X97511967Y-94305484D01*
X97489699Y-94285301D01*
X97469516Y-94263033D01*
X97451612Y-94238893D01*
X97436162Y-94213115D01*
X97423312Y-94185947D01*
X97413187Y-94157650D01*
X97405885Y-94128496D01*
X97401475Y-94098768D01*
X97400000Y-94068750D01*
X97400000Y-92931250D01*
X97401475Y-92901232D01*
X97405885Y-92871504D01*
X97413187Y-92842350D01*
X97423312Y-92814053D01*
X97436162Y-92786885D01*
X97451612Y-92761107D01*
X97469516Y-92736967D01*
X97489699Y-92714699D01*
X97511967Y-92694516D01*
X97536107Y-92676612D01*
X97561885Y-92661162D01*
X97589053Y-92648312D01*
X97617350Y-92638187D01*
X97646504Y-92630885D01*
X97676232Y-92626475D01*
X97706250Y-92625000D01*
X98893750Y-92625000D01*
X98923768Y-92626475D01*
X98923768Y-92626475D01*
G37*
D13*
X98300000Y-93500000D03*
D11*
G36*
X96323768Y-92626475D02*
G01*
X96353496Y-92630885D01*
X96382650Y-92638187D01*
X96410947Y-92648312D01*
X96438115Y-92661162D01*
X96463893Y-92676612D01*
X96488033Y-92694516D01*
X96510301Y-92714699D01*
X96530484Y-92736967D01*
X96548388Y-92761107D01*
X96563838Y-92786885D01*
X96576688Y-92814053D01*
X96586813Y-92842350D01*
X96594115Y-92871504D01*
X96598525Y-92901232D01*
X96600000Y-92931250D01*
X96600000Y-94068750D01*
X96598525Y-94098768D01*
X96594115Y-94128496D01*
X96586813Y-94157650D01*
X96576688Y-94185947D01*
X96563838Y-94213115D01*
X96548388Y-94238893D01*
X96530484Y-94263033D01*
X96510301Y-94285301D01*
X96488033Y-94305484D01*
X96463893Y-94323388D01*
X96438115Y-94338838D01*
X96410947Y-94351688D01*
X96382650Y-94361813D01*
X96353496Y-94369115D01*
X96323768Y-94373525D01*
X96293750Y-94375000D01*
X95106250Y-94375000D01*
X95076232Y-94373525D01*
X95046504Y-94369115D01*
X95017350Y-94361813D01*
X94989053Y-94351688D01*
X94961885Y-94338838D01*
X94936107Y-94323388D01*
X94911967Y-94305484D01*
X94889699Y-94285301D01*
X94869516Y-94263033D01*
X94851612Y-94238893D01*
X94836162Y-94213115D01*
X94823312Y-94185947D01*
X94813187Y-94157650D01*
X94805885Y-94128496D01*
X94801475Y-94098768D01*
X94800000Y-94068750D01*
X94800000Y-92931250D01*
X94801475Y-92901232D01*
X94805885Y-92871504D01*
X94813187Y-92842350D01*
X94823312Y-92814053D01*
X94836162Y-92786885D01*
X94851612Y-92761107D01*
X94869516Y-92736967D01*
X94889699Y-92714699D01*
X94911967Y-92694516D01*
X94936107Y-92676612D01*
X94961885Y-92661162D01*
X94989053Y-92648312D01*
X95017350Y-92638187D01*
X95046504Y-92630885D01*
X95076232Y-92626475D01*
X95106250Y-92625000D01*
X96293750Y-92625000D01*
X96323768Y-92626475D01*
X96323768Y-92626475D01*
G37*
D13*
X95700000Y-93500000D03*
D11*
G36*
X89724504Y-93376204D02*
G01*
X89748773Y-93379804D01*
X89772571Y-93385765D01*
X89795671Y-93394030D01*
X89817849Y-93404520D01*
X89838893Y-93417133D01*
X89858598Y-93431747D01*
X89876777Y-93448223D01*
X89893253Y-93466402D01*
X89907867Y-93486107D01*
X89920480Y-93507151D01*
X89930970Y-93529329D01*
X89939235Y-93552429D01*
X89945196Y-93576227D01*
X89948796Y-93600496D01*
X89950000Y-93625000D01*
X89950000Y-94875000D01*
X89948796Y-94899504D01*
X89945196Y-94923773D01*
X89939235Y-94947571D01*
X89930970Y-94970671D01*
X89920480Y-94992849D01*
X89907867Y-95013893D01*
X89893253Y-95033598D01*
X89876777Y-95051777D01*
X89858598Y-95068253D01*
X89838893Y-95082867D01*
X89817849Y-95095480D01*
X89795671Y-95105970D01*
X89772571Y-95114235D01*
X89748773Y-95120196D01*
X89724504Y-95123796D01*
X89700000Y-95125000D01*
X88775000Y-95125000D01*
X88750496Y-95123796D01*
X88726227Y-95120196D01*
X88702429Y-95114235D01*
X88679329Y-95105970D01*
X88657151Y-95095480D01*
X88636107Y-95082867D01*
X88616402Y-95068253D01*
X88598223Y-95051777D01*
X88581747Y-95033598D01*
X88567133Y-95013893D01*
X88554520Y-94992849D01*
X88544030Y-94970671D01*
X88535765Y-94947571D01*
X88529804Y-94923773D01*
X88526204Y-94899504D01*
X88525000Y-94875000D01*
X88525000Y-93625000D01*
X88526204Y-93600496D01*
X88529804Y-93576227D01*
X88535765Y-93552429D01*
X88544030Y-93529329D01*
X88554520Y-93507151D01*
X88567133Y-93486107D01*
X88581747Y-93466402D01*
X88598223Y-93448223D01*
X88616402Y-93431747D01*
X88636107Y-93417133D01*
X88657151Y-93404520D01*
X88679329Y-93394030D01*
X88702429Y-93385765D01*
X88726227Y-93379804D01*
X88750496Y-93376204D01*
X88775000Y-93375000D01*
X89700000Y-93375000D01*
X89724504Y-93376204D01*
X89724504Y-93376204D01*
G37*
D12*
X89237500Y-94250000D03*
D11*
G36*
X86749504Y-93376204D02*
G01*
X86773773Y-93379804D01*
X86797571Y-93385765D01*
X86820671Y-93394030D01*
X86842849Y-93404520D01*
X86863893Y-93417133D01*
X86883598Y-93431747D01*
X86901777Y-93448223D01*
X86918253Y-93466402D01*
X86932867Y-93486107D01*
X86945480Y-93507151D01*
X86955970Y-93529329D01*
X86964235Y-93552429D01*
X86970196Y-93576227D01*
X86973796Y-93600496D01*
X86975000Y-93625000D01*
X86975000Y-94875000D01*
X86973796Y-94899504D01*
X86970196Y-94923773D01*
X86964235Y-94947571D01*
X86955970Y-94970671D01*
X86945480Y-94992849D01*
X86932867Y-95013893D01*
X86918253Y-95033598D01*
X86901777Y-95051777D01*
X86883598Y-95068253D01*
X86863893Y-95082867D01*
X86842849Y-95095480D01*
X86820671Y-95105970D01*
X86797571Y-95114235D01*
X86773773Y-95120196D01*
X86749504Y-95123796D01*
X86725000Y-95125000D01*
X85800000Y-95125000D01*
X85775496Y-95123796D01*
X85751227Y-95120196D01*
X85727429Y-95114235D01*
X85704329Y-95105970D01*
X85682151Y-95095480D01*
X85661107Y-95082867D01*
X85641402Y-95068253D01*
X85623223Y-95051777D01*
X85606747Y-95033598D01*
X85592133Y-95013893D01*
X85579520Y-94992849D01*
X85569030Y-94970671D01*
X85560765Y-94947571D01*
X85554804Y-94923773D01*
X85551204Y-94899504D01*
X85550000Y-94875000D01*
X85550000Y-93625000D01*
X85551204Y-93600496D01*
X85554804Y-93576227D01*
X85560765Y-93552429D01*
X85569030Y-93529329D01*
X85579520Y-93507151D01*
X85592133Y-93486107D01*
X85606747Y-93466402D01*
X85623223Y-93448223D01*
X85641402Y-93431747D01*
X85661107Y-93417133D01*
X85682151Y-93404520D01*
X85704329Y-93394030D01*
X85727429Y-93385765D01*
X85751227Y-93379804D01*
X85775496Y-93376204D01*
X85800000Y-93375000D01*
X86725000Y-93375000D01*
X86749504Y-93376204D01*
X86749504Y-93376204D01*
G37*
D12*
X86262500Y-94250000D03*
D11*
G36*
X81899504Y-102276204D02*
G01*
X81923773Y-102279804D01*
X81947571Y-102285765D01*
X81970671Y-102294030D01*
X81992849Y-102304520D01*
X82013893Y-102317133D01*
X82033598Y-102331747D01*
X82051777Y-102348223D01*
X82068253Y-102366402D01*
X82082867Y-102386107D01*
X82095480Y-102407151D01*
X82105970Y-102429329D01*
X82114235Y-102452429D01*
X82120196Y-102476227D01*
X82123796Y-102500496D01*
X82125000Y-102525000D01*
X82125000Y-103450000D01*
X82123796Y-103474504D01*
X82120196Y-103498773D01*
X82114235Y-103522571D01*
X82105970Y-103545671D01*
X82095480Y-103567849D01*
X82082867Y-103588893D01*
X82068253Y-103608598D01*
X82051777Y-103626777D01*
X82033598Y-103643253D01*
X82013893Y-103657867D01*
X81992849Y-103670480D01*
X81970671Y-103680970D01*
X81947571Y-103689235D01*
X81923773Y-103695196D01*
X81899504Y-103698796D01*
X81875000Y-103700000D01*
X80625000Y-103700000D01*
X80600496Y-103698796D01*
X80576227Y-103695196D01*
X80552429Y-103689235D01*
X80529329Y-103680970D01*
X80507151Y-103670480D01*
X80486107Y-103657867D01*
X80466402Y-103643253D01*
X80448223Y-103626777D01*
X80431747Y-103608598D01*
X80417133Y-103588893D01*
X80404520Y-103567849D01*
X80394030Y-103545671D01*
X80385765Y-103522571D01*
X80379804Y-103498773D01*
X80376204Y-103474504D01*
X80375000Y-103450000D01*
X80375000Y-102525000D01*
X80376204Y-102500496D01*
X80379804Y-102476227D01*
X80385765Y-102452429D01*
X80394030Y-102429329D01*
X80404520Y-102407151D01*
X80417133Y-102386107D01*
X80431747Y-102366402D01*
X80448223Y-102348223D01*
X80466402Y-102331747D01*
X80486107Y-102317133D01*
X80507151Y-102304520D01*
X80529329Y-102294030D01*
X80552429Y-102285765D01*
X80576227Y-102279804D01*
X80600496Y-102276204D01*
X80625000Y-102275000D01*
X81875000Y-102275000D01*
X81899504Y-102276204D01*
X81899504Y-102276204D01*
G37*
D12*
X81250000Y-102987500D03*
D11*
G36*
X81899504Y-99301204D02*
G01*
X81923773Y-99304804D01*
X81947571Y-99310765D01*
X81970671Y-99319030D01*
X81992849Y-99329520D01*
X82013893Y-99342133D01*
X82033598Y-99356747D01*
X82051777Y-99373223D01*
X82068253Y-99391402D01*
X82082867Y-99411107D01*
X82095480Y-99432151D01*
X82105970Y-99454329D01*
X82114235Y-99477429D01*
X82120196Y-99501227D01*
X82123796Y-99525496D01*
X82125000Y-99550000D01*
X82125000Y-100475000D01*
X82123796Y-100499504D01*
X82120196Y-100523773D01*
X82114235Y-100547571D01*
X82105970Y-100570671D01*
X82095480Y-100592849D01*
X82082867Y-100613893D01*
X82068253Y-100633598D01*
X82051777Y-100651777D01*
X82033598Y-100668253D01*
X82013893Y-100682867D01*
X81992849Y-100695480D01*
X81970671Y-100705970D01*
X81947571Y-100714235D01*
X81923773Y-100720196D01*
X81899504Y-100723796D01*
X81875000Y-100725000D01*
X80625000Y-100725000D01*
X80600496Y-100723796D01*
X80576227Y-100720196D01*
X80552429Y-100714235D01*
X80529329Y-100705970D01*
X80507151Y-100695480D01*
X80486107Y-100682867D01*
X80466402Y-100668253D01*
X80448223Y-100651777D01*
X80431747Y-100633598D01*
X80417133Y-100613893D01*
X80404520Y-100592849D01*
X80394030Y-100570671D01*
X80385765Y-100547571D01*
X80379804Y-100523773D01*
X80376204Y-100499504D01*
X80375000Y-100475000D01*
X80375000Y-99550000D01*
X80376204Y-99525496D01*
X80379804Y-99501227D01*
X80385765Y-99477429D01*
X80394030Y-99454329D01*
X80404520Y-99432151D01*
X80417133Y-99411107D01*
X80431747Y-99391402D01*
X80448223Y-99373223D01*
X80466402Y-99356747D01*
X80486107Y-99342133D01*
X80507151Y-99329520D01*
X80529329Y-99319030D01*
X80552429Y-99310765D01*
X80576227Y-99304804D01*
X80600496Y-99301204D01*
X80625000Y-99300000D01*
X81875000Y-99300000D01*
X81899504Y-99301204D01*
X81899504Y-99301204D01*
G37*
D12*
X81250000Y-100012500D03*
D11*
G36*
X148474504Y-72876204D02*
G01*
X148498773Y-72879804D01*
X148522571Y-72885765D01*
X148545671Y-72894030D01*
X148567849Y-72904520D01*
X148588893Y-72917133D01*
X148608598Y-72931747D01*
X148626777Y-72948223D01*
X148643253Y-72966402D01*
X148657867Y-72986107D01*
X148670480Y-73007151D01*
X148680970Y-73029329D01*
X148689235Y-73052429D01*
X148695196Y-73076227D01*
X148698796Y-73100496D01*
X148700000Y-73125000D01*
X148700000Y-74375000D01*
X148698796Y-74399504D01*
X148695196Y-74423773D01*
X148689235Y-74447571D01*
X148680970Y-74470671D01*
X148670480Y-74492849D01*
X148657867Y-74513893D01*
X148643253Y-74533598D01*
X148626777Y-74551777D01*
X148608598Y-74568253D01*
X148588893Y-74582867D01*
X148567849Y-74595480D01*
X148545671Y-74605970D01*
X148522571Y-74614235D01*
X148498773Y-74620196D01*
X148474504Y-74623796D01*
X148450000Y-74625000D01*
X147525000Y-74625000D01*
X147500496Y-74623796D01*
X147476227Y-74620196D01*
X147452429Y-74614235D01*
X147429329Y-74605970D01*
X147407151Y-74595480D01*
X147386107Y-74582867D01*
X147366402Y-74568253D01*
X147348223Y-74551777D01*
X147331747Y-74533598D01*
X147317133Y-74513893D01*
X147304520Y-74492849D01*
X147294030Y-74470671D01*
X147285765Y-74447571D01*
X147279804Y-74423773D01*
X147276204Y-74399504D01*
X147275000Y-74375000D01*
X147275000Y-73125000D01*
X147276204Y-73100496D01*
X147279804Y-73076227D01*
X147285765Y-73052429D01*
X147294030Y-73029329D01*
X147304520Y-73007151D01*
X147317133Y-72986107D01*
X147331747Y-72966402D01*
X147348223Y-72948223D01*
X147366402Y-72931747D01*
X147386107Y-72917133D01*
X147407151Y-72904520D01*
X147429329Y-72894030D01*
X147452429Y-72885765D01*
X147476227Y-72879804D01*
X147500496Y-72876204D01*
X147525000Y-72875000D01*
X148450000Y-72875000D01*
X148474504Y-72876204D01*
X148474504Y-72876204D01*
G37*
D12*
X147987500Y-73750000D03*
D11*
G36*
X145499504Y-72876204D02*
G01*
X145523773Y-72879804D01*
X145547571Y-72885765D01*
X145570671Y-72894030D01*
X145592849Y-72904520D01*
X145613893Y-72917133D01*
X145633598Y-72931747D01*
X145651777Y-72948223D01*
X145668253Y-72966402D01*
X145682867Y-72986107D01*
X145695480Y-73007151D01*
X145705970Y-73029329D01*
X145714235Y-73052429D01*
X145720196Y-73076227D01*
X145723796Y-73100496D01*
X145725000Y-73125000D01*
X145725000Y-74375000D01*
X145723796Y-74399504D01*
X145720196Y-74423773D01*
X145714235Y-74447571D01*
X145705970Y-74470671D01*
X145695480Y-74492849D01*
X145682867Y-74513893D01*
X145668253Y-74533598D01*
X145651777Y-74551777D01*
X145633598Y-74568253D01*
X145613893Y-74582867D01*
X145592849Y-74595480D01*
X145570671Y-74605970D01*
X145547571Y-74614235D01*
X145523773Y-74620196D01*
X145499504Y-74623796D01*
X145475000Y-74625000D01*
X144550000Y-74625000D01*
X144525496Y-74623796D01*
X144501227Y-74620196D01*
X144477429Y-74614235D01*
X144454329Y-74605970D01*
X144432151Y-74595480D01*
X144411107Y-74582867D01*
X144391402Y-74568253D01*
X144373223Y-74551777D01*
X144356747Y-74533598D01*
X144342133Y-74513893D01*
X144329520Y-74492849D01*
X144319030Y-74470671D01*
X144310765Y-74447571D01*
X144304804Y-74423773D01*
X144301204Y-74399504D01*
X144300000Y-74375000D01*
X144300000Y-73125000D01*
X144301204Y-73100496D01*
X144304804Y-73076227D01*
X144310765Y-73052429D01*
X144319030Y-73029329D01*
X144329520Y-73007151D01*
X144342133Y-72986107D01*
X144356747Y-72966402D01*
X144373223Y-72948223D01*
X144391402Y-72931747D01*
X144411107Y-72917133D01*
X144432151Y-72904520D01*
X144454329Y-72894030D01*
X144477429Y-72885765D01*
X144501227Y-72879804D01*
X144525496Y-72876204D01*
X144550000Y-72875000D01*
X145475000Y-72875000D01*
X145499504Y-72876204D01*
X145499504Y-72876204D01*
G37*
D12*
X145012500Y-73750000D03*
D11*
G36*
X147974504Y-82376204D02*
G01*
X147998773Y-82379804D01*
X148022571Y-82385765D01*
X148045671Y-82394030D01*
X148067849Y-82404520D01*
X148088893Y-82417133D01*
X148108598Y-82431747D01*
X148126777Y-82448223D01*
X148143253Y-82466402D01*
X148157867Y-82486107D01*
X148170480Y-82507151D01*
X148180970Y-82529329D01*
X148189235Y-82552429D01*
X148195196Y-82576227D01*
X148198796Y-82600496D01*
X148200000Y-82625000D01*
X148200000Y-83875000D01*
X148198796Y-83899504D01*
X148195196Y-83923773D01*
X148189235Y-83947571D01*
X148180970Y-83970671D01*
X148170480Y-83992849D01*
X148157867Y-84013893D01*
X148143253Y-84033598D01*
X148126777Y-84051777D01*
X148108598Y-84068253D01*
X148088893Y-84082867D01*
X148067849Y-84095480D01*
X148045671Y-84105970D01*
X148022571Y-84114235D01*
X147998773Y-84120196D01*
X147974504Y-84123796D01*
X147950000Y-84125000D01*
X147025000Y-84125000D01*
X147000496Y-84123796D01*
X146976227Y-84120196D01*
X146952429Y-84114235D01*
X146929329Y-84105970D01*
X146907151Y-84095480D01*
X146886107Y-84082867D01*
X146866402Y-84068253D01*
X146848223Y-84051777D01*
X146831747Y-84033598D01*
X146817133Y-84013893D01*
X146804520Y-83992849D01*
X146794030Y-83970671D01*
X146785765Y-83947571D01*
X146779804Y-83923773D01*
X146776204Y-83899504D01*
X146775000Y-83875000D01*
X146775000Y-82625000D01*
X146776204Y-82600496D01*
X146779804Y-82576227D01*
X146785765Y-82552429D01*
X146794030Y-82529329D01*
X146804520Y-82507151D01*
X146817133Y-82486107D01*
X146831747Y-82466402D01*
X146848223Y-82448223D01*
X146866402Y-82431747D01*
X146886107Y-82417133D01*
X146907151Y-82404520D01*
X146929329Y-82394030D01*
X146952429Y-82385765D01*
X146976227Y-82379804D01*
X147000496Y-82376204D01*
X147025000Y-82375000D01*
X147950000Y-82375000D01*
X147974504Y-82376204D01*
X147974504Y-82376204D01*
G37*
D12*
X147487500Y-83250000D03*
D11*
G36*
X144999504Y-82376204D02*
G01*
X145023773Y-82379804D01*
X145047571Y-82385765D01*
X145070671Y-82394030D01*
X145092849Y-82404520D01*
X145113893Y-82417133D01*
X145133598Y-82431747D01*
X145151777Y-82448223D01*
X145168253Y-82466402D01*
X145182867Y-82486107D01*
X145195480Y-82507151D01*
X145205970Y-82529329D01*
X145214235Y-82552429D01*
X145220196Y-82576227D01*
X145223796Y-82600496D01*
X145225000Y-82625000D01*
X145225000Y-83875000D01*
X145223796Y-83899504D01*
X145220196Y-83923773D01*
X145214235Y-83947571D01*
X145205970Y-83970671D01*
X145195480Y-83992849D01*
X145182867Y-84013893D01*
X145168253Y-84033598D01*
X145151777Y-84051777D01*
X145133598Y-84068253D01*
X145113893Y-84082867D01*
X145092849Y-84095480D01*
X145070671Y-84105970D01*
X145047571Y-84114235D01*
X145023773Y-84120196D01*
X144999504Y-84123796D01*
X144975000Y-84125000D01*
X144050000Y-84125000D01*
X144025496Y-84123796D01*
X144001227Y-84120196D01*
X143977429Y-84114235D01*
X143954329Y-84105970D01*
X143932151Y-84095480D01*
X143911107Y-84082867D01*
X143891402Y-84068253D01*
X143873223Y-84051777D01*
X143856747Y-84033598D01*
X143842133Y-84013893D01*
X143829520Y-83992849D01*
X143819030Y-83970671D01*
X143810765Y-83947571D01*
X143804804Y-83923773D01*
X143801204Y-83899504D01*
X143800000Y-83875000D01*
X143800000Y-82625000D01*
X143801204Y-82600496D01*
X143804804Y-82576227D01*
X143810765Y-82552429D01*
X143819030Y-82529329D01*
X143829520Y-82507151D01*
X143842133Y-82486107D01*
X143856747Y-82466402D01*
X143873223Y-82448223D01*
X143891402Y-82431747D01*
X143911107Y-82417133D01*
X143932151Y-82404520D01*
X143954329Y-82394030D01*
X143977429Y-82385765D01*
X144001227Y-82379804D01*
X144025496Y-82376204D01*
X144050000Y-82375000D01*
X144975000Y-82375000D01*
X144999504Y-82376204D01*
X144999504Y-82376204D01*
G37*
D12*
X144512500Y-83250000D03*
D11*
G36*
X121474504Y-73876204D02*
G01*
X121498773Y-73879804D01*
X121522571Y-73885765D01*
X121545671Y-73894030D01*
X121567849Y-73904520D01*
X121588893Y-73917133D01*
X121608598Y-73931747D01*
X121626777Y-73948223D01*
X121643253Y-73966402D01*
X121657867Y-73986107D01*
X121670480Y-74007151D01*
X121680970Y-74029329D01*
X121689235Y-74052429D01*
X121695196Y-74076227D01*
X121698796Y-74100496D01*
X121700000Y-74125000D01*
X121700000Y-75375000D01*
X121698796Y-75399504D01*
X121695196Y-75423773D01*
X121689235Y-75447571D01*
X121680970Y-75470671D01*
X121670480Y-75492849D01*
X121657867Y-75513893D01*
X121643253Y-75533598D01*
X121626777Y-75551777D01*
X121608598Y-75568253D01*
X121588893Y-75582867D01*
X121567849Y-75595480D01*
X121545671Y-75605970D01*
X121522571Y-75614235D01*
X121498773Y-75620196D01*
X121474504Y-75623796D01*
X121450000Y-75625000D01*
X120525000Y-75625000D01*
X120500496Y-75623796D01*
X120476227Y-75620196D01*
X120452429Y-75614235D01*
X120429329Y-75605970D01*
X120407151Y-75595480D01*
X120386107Y-75582867D01*
X120366402Y-75568253D01*
X120348223Y-75551777D01*
X120331747Y-75533598D01*
X120317133Y-75513893D01*
X120304520Y-75492849D01*
X120294030Y-75470671D01*
X120285765Y-75447571D01*
X120279804Y-75423773D01*
X120276204Y-75399504D01*
X120275000Y-75375000D01*
X120275000Y-74125000D01*
X120276204Y-74100496D01*
X120279804Y-74076227D01*
X120285765Y-74052429D01*
X120294030Y-74029329D01*
X120304520Y-74007151D01*
X120317133Y-73986107D01*
X120331747Y-73966402D01*
X120348223Y-73948223D01*
X120366402Y-73931747D01*
X120386107Y-73917133D01*
X120407151Y-73904520D01*
X120429329Y-73894030D01*
X120452429Y-73885765D01*
X120476227Y-73879804D01*
X120500496Y-73876204D01*
X120525000Y-73875000D01*
X121450000Y-73875000D01*
X121474504Y-73876204D01*
X121474504Y-73876204D01*
G37*
D12*
X120987500Y-74750000D03*
D11*
G36*
X118499504Y-73876204D02*
G01*
X118523773Y-73879804D01*
X118547571Y-73885765D01*
X118570671Y-73894030D01*
X118592849Y-73904520D01*
X118613893Y-73917133D01*
X118633598Y-73931747D01*
X118651777Y-73948223D01*
X118668253Y-73966402D01*
X118682867Y-73986107D01*
X118695480Y-74007151D01*
X118705970Y-74029329D01*
X118714235Y-74052429D01*
X118720196Y-74076227D01*
X118723796Y-74100496D01*
X118725000Y-74125000D01*
X118725000Y-75375000D01*
X118723796Y-75399504D01*
X118720196Y-75423773D01*
X118714235Y-75447571D01*
X118705970Y-75470671D01*
X118695480Y-75492849D01*
X118682867Y-75513893D01*
X118668253Y-75533598D01*
X118651777Y-75551777D01*
X118633598Y-75568253D01*
X118613893Y-75582867D01*
X118592849Y-75595480D01*
X118570671Y-75605970D01*
X118547571Y-75614235D01*
X118523773Y-75620196D01*
X118499504Y-75623796D01*
X118475000Y-75625000D01*
X117550000Y-75625000D01*
X117525496Y-75623796D01*
X117501227Y-75620196D01*
X117477429Y-75614235D01*
X117454329Y-75605970D01*
X117432151Y-75595480D01*
X117411107Y-75582867D01*
X117391402Y-75568253D01*
X117373223Y-75551777D01*
X117356747Y-75533598D01*
X117342133Y-75513893D01*
X117329520Y-75492849D01*
X117319030Y-75470671D01*
X117310765Y-75447571D01*
X117304804Y-75423773D01*
X117301204Y-75399504D01*
X117300000Y-75375000D01*
X117300000Y-74125000D01*
X117301204Y-74100496D01*
X117304804Y-74076227D01*
X117310765Y-74052429D01*
X117319030Y-74029329D01*
X117329520Y-74007151D01*
X117342133Y-73986107D01*
X117356747Y-73966402D01*
X117373223Y-73948223D01*
X117391402Y-73931747D01*
X117411107Y-73917133D01*
X117432151Y-73904520D01*
X117454329Y-73894030D01*
X117477429Y-73885765D01*
X117501227Y-73879804D01*
X117525496Y-73876204D01*
X117550000Y-73875000D01*
X118475000Y-73875000D01*
X118499504Y-73876204D01*
X118499504Y-73876204D01*
G37*
D12*
X118012500Y-74750000D03*
D11*
G36*
X107573768Y-72626475D02*
G01*
X107603496Y-72630885D01*
X107632650Y-72638187D01*
X107660947Y-72648312D01*
X107688115Y-72661162D01*
X107713893Y-72676612D01*
X107738033Y-72694516D01*
X107760301Y-72714699D01*
X107780484Y-72736967D01*
X107798388Y-72761107D01*
X107813838Y-72786885D01*
X107826688Y-72814053D01*
X107836813Y-72842350D01*
X107844115Y-72871504D01*
X107848525Y-72901232D01*
X107850000Y-72931250D01*
X107850000Y-74068750D01*
X107848525Y-74098768D01*
X107844115Y-74128496D01*
X107836813Y-74157650D01*
X107826688Y-74185947D01*
X107813838Y-74213115D01*
X107798388Y-74238893D01*
X107780484Y-74263033D01*
X107760301Y-74285301D01*
X107738033Y-74305484D01*
X107713893Y-74323388D01*
X107688115Y-74338838D01*
X107660947Y-74351688D01*
X107632650Y-74361813D01*
X107603496Y-74369115D01*
X107573768Y-74373525D01*
X107543750Y-74375000D01*
X106356250Y-74375000D01*
X106326232Y-74373525D01*
X106296504Y-74369115D01*
X106267350Y-74361813D01*
X106239053Y-74351688D01*
X106211885Y-74338838D01*
X106186107Y-74323388D01*
X106161967Y-74305484D01*
X106139699Y-74285301D01*
X106119516Y-74263033D01*
X106101612Y-74238893D01*
X106086162Y-74213115D01*
X106073312Y-74185947D01*
X106063187Y-74157650D01*
X106055885Y-74128496D01*
X106051475Y-74098768D01*
X106050000Y-74068750D01*
X106050000Y-72931250D01*
X106051475Y-72901232D01*
X106055885Y-72871504D01*
X106063187Y-72842350D01*
X106073312Y-72814053D01*
X106086162Y-72786885D01*
X106101612Y-72761107D01*
X106119516Y-72736967D01*
X106139699Y-72714699D01*
X106161967Y-72694516D01*
X106186107Y-72676612D01*
X106211885Y-72661162D01*
X106239053Y-72648312D01*
X106267350Y-72638187D01*
X106296504Y-72630885D01*
X106326232Y-72626475D01*
X106356250Y-72625000D01*
X107543750Y-72625000D01*
X107573768Y-72626475D01*
X107573768Y-72626475D01*
G37*
D13*
X106950000Y-73500000D03*
D11*
G36*
X110173768Y-72626475D02*
G01*
X110203496Y-72630885D01*
X110232650Y-72638187D01*
X110260947Y-72648312D01*
X110288115Y-72661162D01*
X110313893Y-72676612D01*
X110338033Y-72694516D01*
X110360301Y-72714699D01*
X110380484Y-72736967D01*
X110398388Y-72761107D01*
X110413838Y-72786885D01*
X110426688Y-72814053D01*
X110436813Y-72842350D01*
X110444115Y-72871504D01*
X110448525Y-72901232D01*
X110450000Y-72931250D01*
X110450000Y-74068750D01*
X110448525Y-74098768D01*
X110444115Y-74128496D01*
X110436813Y-74157650D01*
X110426688Y-74185947D01*
X110413838Y-74213115D01*
X110398388Y-74238893D01*
X110380484Y-74263033D01*
X110360301Y-74285301D01*
X110338033Y-74305484D01*
X110313893Y-74323388D01*
X110288115Y-74338838D01*
X110260947Y-74351688D01*
X110232650Y-74361813D01*
X110203496Y-74369115D01*
X110173768Y-74373525D01*
X110143750Y-74375000D01*
X108956250Y-74375000D01*
X108926232Y-74373525D01*
X108896504Y-74369115D01*
X108867350Y-74361813D01*
X108839053Y-74351688D01*
X108811885Y-74338838D01*
X108786107Y-74323388D01*
X108761967Y-74305484D01*
X108739699Y-74285301D01*
X108719516Y-74263033D01*
X108701612Y-74238893D01*
X108686162Y-74213115D01*
X108673312Y-74185947D01*
X108663187Y-74157650D01*
X108655885Y-74128496D01*
X108651475Y-74098768D01*
X108650000Y-74068750D01*
X108650000Y-72931250D01*
X108651475Y-72901232D01*
X108655885Y-72871504D01*
X108663187Y-72842350D01*
X108673312Y-72814053D01*
X108686162Y-72786885D01*
X108701612Y-72761107D01*
X108719516Y-72736967D01*
X108739699Y-72714699D01*
X108761967Y-72694516D01*
X108786107Y-72676612D01*
X108811885Y-72661162D01*
X108839053Y-72648312D01*
X108867350Y-72638187D01*
X108896504Y-72630885D01*
X108926232Y-72626475D01*
X108956250Y-72625000D01*
X110143750Y-72625000D01*
X110173768Y-72626475D01*
X110173768Y-72626475D01*
G37*
D13*
X109550000Y-73500000D03*
D11*
G36*
X101249504Y-72626204D02*
G01*
X101273773Y-72629804D01*
X101297571Y-72635765D01*
X101320671Y-72644030D01*
X101342849Y-72654520D01*
X101363893Y-72667133D01*
X101383598Y-72681747D01*
X101401777Y-72698223D01*
X101418253Y-72716402D01*
X101432867Y-72736107D01*
X101445480Y-72757151D01*
X101455970Y-72779329D01*
X101464235Y-72802429D01*
X101470196Y-72826227D01*
X101473796Y-72850496D01*
X101475000Y-72875000D01*
X101475000Y-74125000D01*
X101473796Y-74149504D01*
X101470196Y-74173773D01*
X101464235Y-74197571D01*
X101455970Y-74220671D01*
X101445480Y-74242849D01*
X101432867Y-74263893D01*
X101418253Y-74283598D01*
X101401777Y-74301777D01*
X101383598Y-74318253D01*
X101363893Y-74332867D01*
X101342849Y-74345480D01*
X101320671Y-74355970D01*
X101297571Y-74364235D01*
X101273773Y-74370196D01*
X101249504Y-74373796D01*
X101225000Y-74375000D01*
X100300000Y-74375000D01*
X100275496Y-74373796D01*
X100251227Y-74370196D01*
X100227429Y-74364235D01*
X100204329Y-74355970D01*
X100182151Y-74345480D01*
X100161107Y-74332867D01*
X100141402Y-74318253D01*
X100123223Y-74301777D01*
X100106747Y-74283598D01*
X100092133Y-74263893D01*
X100079520Y-74242849D01*
X100069030Y-74220671D01*
X100060765Y-74197571D01*
X100054804Y-74173773D01*
X100051204Y-74149504D01*
X100050000Y-74125000D01*
X100050000Y-72875000D01*
X100051204Y-72850496D01*
X100054804Y-72826227D01*
X100060765Y-72802429D01*
X100069030Y-72779329D01*
X100079520Y-72757151D01*
X100092133Y-72736107D01*
X100106747Y-72716402D01*
X100123223Y-72698223D01*
X100141402Y-72681747D01*
X100161107Y-72667133D01*
X100182151Y-72654520D01*
X100204329Y-72644030D01*
X100227429Y-72635765D01*
X100251227Y-72629804D01*
X100275496Y-72626204D01*
X100300000Y-72625000D01*
X101225000Y-72625000D01*
X101249504Y-72626204D01*
X101249504Y-72626204D01*
G37*
D12*
X100762500Y-73500000D03*
D11*
G36*
X104224504Y-72626204D02*
G01*
X104248773Y-72629804D01*
X104272571Y-72635765D01*
X104295671Y-72644030D01*
X104317849Y-72654520D01*
X104338893Y-72667133D01*
X104358598Y-72681747D01*
X104376777Y-72698223D01*
X104393253Y-72716402D01*
X104407867Y-72736107D01*
X104420480Y-72757151D01*
X104430970Y-72779329D01*
X104439235Y-72802429D01*
X104445196Y-72826227D01*
X104448796Y-72850496D01*
X104450000Y-72875000D01*
X104450000Y-74125000D01*
X104448796Y-74149504D01*
X104445196Y-74173773D01*
X104439235Y-74197571D01*
X104430970Y-74220671D01*
X104420480Y-74242849D01*
X104407867Y-74263893D01*
X104393253Y-74283598D01*
X104376777Y-74301777D01*
X104358598Y-74318253D01*
X104338893Y-74332867D01*
X104317849Y-74345480D01*
X104295671Y-74355970D01*
X104272571Y-74364235D01*
X104248773Y-74370196D01*
X104224504Y-74373796D01*
X104200000Y-74375000D01*
X103275000Y-74375000D01*
X103250496Y-74373796D01*
X103226227Y-74370196D01*
X103202429Y-74364235D01*
X103179329Y-74355970D01*
X103157151Y-74345480D01*
X103136107Y-74332867D01*
X103116402Y-74318253D01*
X103098223Y-74301777D01*
X103081747Y-74283598D01*
X103067133Y-74263893D01*
X103054520Y-74242849D01*
X103044030Y-74220671D01*
X103035765Y-74197571D01*
X103029804Y-74173773D01*
X103026204Y-74149504D01*
X103025000Y-74125000D01*
X103025000Y-72875000D01*
X103026204Y-72850496D01*
X103029804Y-72826227D01*
X103035765Y-72802429D01*
X103044030Y-72779329D01*
X103054520Y-72757151D01*
X103067133Y-72736107D01*
X103081747Y-72716402D01*
X103098223Y-72698223D01*
X103116402Y-72681747D01*
X103136107Y-72667133D01*
X103157151Y-72654520D01*
X103179329Y-72644030D01*
X103202429Y-72635765D01*
X103226227Y-72629804D01*
X103250496Y-72626204D01*
X103275000Y-72625000D01*
X104200000Y-72625000D01*
X104224504Y-72626204D01*
X104224504Y-72626204D01*
G37*
D12*
X103737500Y-73500000D03*
D11*
G36*
X98923768Y-72626475D02*
G01*
X98953496Y-72630885D01*
X98982650Y-72638187D01*
X99010947Y-72648312D01*
X99038115Y-72661162D01*
X99063893Y-72676612D01*
X99088033Y-72694516D01*
X99110301Y-72714699D01*
X99130484Y-72736967D01*
X99148388Y-72761107D01*
X99163838Y-72786885D01*
X99176688Y-72814053D01*
X99186813Y-72842350D01*
X99194115Y-72871504D01*
X99198525Y-72901232D01*
X99200000Y-72931250D01*
X99200000Y-74068750D01*
X99198525Y-74098768D01*
X99194115Y-74128496D01*
X99186813Y-74157650D01*
X99176688Y-74185947D01*
X99163838Y-74213115D01*
X99148388Y-74238893D01*
X99130484Y-74263033D01*
X99110301Y-74285301D01*
X99088033Y-74305484D01*
X99063893Y-74323388D01*
X99038115Y-74338838D01*
X99010947Y-74351688D01*
X98982650Y-74361813D01*
X98953496Y-74369115D01*
X98923768Y-74373525D01*
X98893750Y-74375000D01*
X97706250Y-74375000D01*
X97676232Y-74373525D01*
X97646504Y-74369115D01*
X97617350Y-74361813D01*
X97589053Y-74351688D01*
X97561885Y-74338838D01*
X97536107Y-74323388D01*
X97511967Y-74305484D01*
X97489699Y-74285301D01*
X97469516Y-74263033D01*
X97451612Y-74238893D01*
X97436162Y-74213115D01*
X97423312Y-74185947D01*
X97413187Y-74157650D01*
X97405885Y-74128496D01*
X97401475Y-74098768D01*
X97400000Y-74068750D01*
X97400000Y-72931250D01*
X97401475Y-72901232D01*
X97405885Y-72871504D01*
X97413187Y-72842350D01*
X97423312Y-72814053D01*
X97436162Y-72786885D01*
X97451612Y-72761107D01*
X97469516Y-72736967D01*
X97489699Y-72714699D01*
X97511967Y-72694516D01*
X97536107Y-72676612D01*
X97561885Y-72661162D01*
X97589053Y-72648312D01*
X97617350Y-72638187D01*
X97646504Y-72630885D01*
X97676232Y-72626475D01*
X97706250Y-72625000D01*
X98893750Y-72625000D01*
X98923768Y-72626475D01*
X98923768Y-72626475D01*
G37*
D13*
X98300000Y-73500000D03*
D11*
G36*
X96323768Y-72626475D02*
G01*
X96353496Y-72630885D01*
X96382650Y-72638187D01*
X96410947Y-72648312D01*
X96438115Y-72661162D01*
X96463893Y-72676612D01*
X96488033Y-72694516D01*
X96510301Y-72714699D01*
X96530484Y-72736967D01*
X96548388Y-72761107D01*
X96563838Y-72786885D01*
X96576688Y-72814053D01*
X96586813Y-72842350D01*
X96594115Y-72871504D01*
X96598525Y-72901232D01*
X96600000Y-72931250D01*
X96600000Y-74068750D01*
X96598525Y-74098768D01*
X96594115Y-74128496D01*
X96586813Y-74157650D01*
X96576688Y-74185947D01*
X96563838Y-74213115D01*
X96548388Y-74238893D01*
X96530484Y-74263033D01*
X96510301Y-74285301D01*
X96488033Y-74305484D01*
X96463893Y-74323388D01*
X96438115Y-74338838D01*
X96410947Y-74351688D01*
X96382650Y-74361813D01*
X96353496Y-74369115D01*
X96323768Y-74373525D01*
X96293750Y-74375000D01*
X95106250Y-74375000D01*
X95076232Y-74373525D01*
X95046504Y-74369115D01*
X95017350Y-74361813D01*
X94989053Y-74351688D01*
X94961885Y-74338838D01*
X94936107Y-74323388D01*
X94911967Y-74305484D01*
X94889699Y-74285301D01*
X94869516Y-74263033D01*
X94851612Y-74238893D01*
X94836162Y-74213115D01*
X94823312Y-74185947D01*
X94813187Y-74157650D01*
X94805885Y-74128496D01*
X94801475Y-74098768D01*
X94800000Y-74068750D01*
X94800000Y-72931250D01*
X94801475Y-72901232D01*
X94805885Y-72871504D01*
X94813187Y-72842350D01*
X94823312Y-72814053D01*
X94836162Y-72786885D01*
X94851612Y-72761107D01*
X94869516Y-72736967D01*
X94889699Y-72714699D01*
X94911967Y-72694516D01*
X94936107Y-72676612D01*
X94961885Y-72661162D01*
X94989053Y-72648312D01*
X95017350Y-72638187D01*
X95046504Y-72630885D01*
X95076232Y-72626475D01*
X95106250Y-72625000D01*
X96293750Y-72625000D01*
X96323768Y-72626475D01*
X96323768Y-72626475D01*
G37*
D13*
X95700000Y-73500000D03*
D11*
G36*
X89724504Y-73376204D02*
G01*
X89748773Y-73379804D01*
X89772571Y-73385765D01*
X89795671Y-73394030D01*
X89817849Y-73404520D01*
X89838893Y-73417133D01*
X89858598Y-73431747D01*
X89876777Y-73448223D01*
X89893253Y-73466402D01*
X89907867Y-73486107D01*
X89920480Y-73507151D01*
X89930970Y-73529329D01*
X89939235Y-73552429D01*
X89945196Y-73576227D01*
X89948796Y-73600496D01*
X89950000Y-73625000D01*
X89950000Y-74875000D01*
X89948796Y-74899504D01*
X89945196Y-74923773D01*
X89939235Y-74947571D01*
X89930970Y-74970671D01*
X89920480Y-74992849D01*
X89907867Y-75013893D01*
X89893253Y-75033598D01*
X89876777Y-75051777D01*
X89858598Y-75068253D01*
X89838893Y-75082867D01*
X89817849Y-75095480D01*
X89795671Y-75105970D01*
X89772571Y-75114235D01*
X89748773Y-75120196D01*
X89724504Y-75123796D01*
X89700000Y-75125000D01*
X88775000Y-75125000D01*
X88750496Y-75123796D01*
X88726227Y-75120196D01*
X88702429Y-75114235D01*
X88679329Y-75105970D01*
X88657151Y-75095480D01*
X88636107Y-75082867D01*
X88616402Y-75068253D01*
X88598223Y-75051777D01*
X88581747Y-75033598D01*
X88567133Y-75013893D01*
X88554520Y-74992849D01*
X88544030Y-74970671D01*
X88535765Y-74947571D01*
X88529804Y-74923773D01*
X88526204Y-74899504D01*
X88525000Y-74875000D01*
X88525000Y-73625000D01*
X88526204Y-73600496D01*
X88529804Y-73576227D01*
X88535765Y-73552429D01*
X88544030Y-73529329D01*
X88554520Y-73507151D01*
X88567133Y-73486107D01*
X88581747Y-73466402D01*
X88598223Y-73448223D01*
X88616402Y-73431747D01*
X88636107Y-73417133D01*
X88657151Y-73404520D01*
X88679329Y-73394030D01*
X88702429Y-73385765D01*
X88726227Y-73379804D01*
X88750496Y-73376204D01*
X88775000Y-73375000D01*
X89700000Y-73375000D01*
X89724504Y-73376204D01*
X89724504Y-73376204D01*
G37*
D12*
X89237500Y-74250000D03*
D11*
G36*
X86749504Y-73376204D02*
G01*
X86773773Y-73379804D01*
X86797571Y-73385765D01*
X86820671Y-73394030D01*
X86842849Y-73404520D01*
X86863893Y-73417133D01*
X86883598Y-73431747D01*
X86901777Y-73448223D01*
X86918253Y-73466402D01*
X86932867Y-73486107D01*
X86945480Y-73507151D01*
X86955970Y-73529329D01*
X86964235Y-73552429D01*
X86970196Y-73576227D01*
X86973796Y-73600496D01*
X86975000Y-73625000D01*
X86975000Y-74875000D01*
X86973796Y-74899504D01*
X86970196Y-74923773D01*
X86964235Y-74947571D01*
X86955970Y-74970671D01*
X86945480Y-74992849D01*
X86932867Y-75013893D01*
X86918253Y-75033598D01*
X86901777Y-75051777D01*
X86883598Y-75068253D01*
X86863893Y-75082867D01*
X86842849Y-75095480D01*
X86820671Y-75105970D01*
X86797571Y-75114235D01*
X86773773Y-75120196D01*
X86749504Y-75123796D01*
X86725000Y-75125000D01*
X85800000Y-75125000D01*
X85775496Y-75123796D01*
X85751227Y-75120196D01*
X85727429Y-75114235D01*
X85704329Y-75105970D01*
X85682151Y-75095480D01*
X85661107Y-75082867D01*
X85641402Y-75068253D01*
X85623223Y-75051777D01*
X85606747Y-75033598D01*
X85592133Y-75013893D01*
X85579520Y-74992849D01*
X85569030Y-74970671D01*
X85560765Y-74947571D01*
X85554804Y-74923773D01*
X85551204Y-74899504D01*
X85550000Y-74875000D01*
X85550000Y-73625000D01*
X85551204Y-73600496D01*
X85554804Y-73576227D01*
X85560765Y-73552429D01*
X85569030Y-73529329D01*
X85579520Y-73507151D01*
X85592133Y-73486107D01*
X85606747Y-73466402D01*
X85623223Y-73448223D01*
X85641402Y-73431747D01*
X85661107Y-73417133D01*
X85682151Y-73404520D01*
X85704329Y-73394030D01*
X85727429Y-73385765D01*
X85751227Y-73379804D01*
X85775496Y-73376204D01*
X85800000Y-73375000D01*
X86725000Y-73375000D01*
X86749504Y-73376204D01*
X86749504Y-73376204D01*
G37*
D12*
X86262500Y-74250000D03*
D11*
G36*
X81899504Y-82276204D02*
G01*
X81923773Y-82279804D01*
X81947571Y-82285765D01*
X81970671Y-82294030D01*
X81992849Y-82304520D01*
X82013893Y-82317133D01*
X82033598Y-82331747D01*
X82051777Y-82348223D01*
X82068253Y-82366402D01*
X82082867Y-82386107D01*
X82095480Y-82407151D01*
X82105970Y-82429329D01*
X82114235Y-82452429D01*
X82120196Y-82476227D01*
X82123796Y-82500496D01*
X82125000Y-82525000D01*
X82125000Y-83450000D01*
X82123796Y-83474504D01*
X82120196Y-83498773D01*
X82114235Y-83522571D01*
X82105970Y-83545671D01*
X82095480Y-83567849D01*
X82082867Y-83588893D01*
X82068253Y-83608598D01*
X82051777Y-83626777D01*
X82033598Y-83643253D01*
X82013893Y-83657867D01*
X81992849Y-83670480D01*
X81970671Y-83680970D01*
X81947571Y-83689235D01*
X81923773Y-83695196D01*
X81899504Y-83698796D01*
X81875000Y-83700000D01*
X80625000Y-83700000D01*
X80600496Y-83698796D01*
X80576227Y-83695196D01*
X80552429Y-83689235D01*
X80529329Y-83680970D01*
X80507151Y-83670480D01*
X80486107Y-83657867D01*
X80466402Y-83643253D01*
X80448223Y-83626777D01*
X80431747Y-83608598D01*
X80417133Y-83588893D01*
X80404520Y-83567849D01*
X80394030Y-83545671D01*
X80385765Y-83522571D01*
X80379804Y-83498773D01*
X80376204Y-83474504D01*
X80375000Y-83450000D01*
X80375000Y-82525000D01*
X80376204Y-82500496D01*
X80379804Y-82476227D01*
X80385765Y-82452429D01*
X80394030Y-82429329D01*
X80404520Y-82407151D01*
X80417133Y-82386107D01*
X80431747Y-82366402D01*
X80448223Y-82348223D01*
X80466402Y-82331747D01*
X80486107Y-82317133D01*
X80507151Y-82304520D01*
X80529329Y-82294030D01*
X80552429Y-82285765D01*
X80576227Y-82279804D01*
X80600496Y-82276204D01*
X80625000Y-82275000D01*
X81875000Y-82275000D01*
X81899504Y-82276204D01*
X81899504Y-82276204D01*
G37*
D12*
X81250000Y-82987500D03*
D11*
G36*
X81899504Y-79301204D02*
G01*
X81923773Y-79304804D01*
X81947571Y-79310765D01*
X81970671Y-79319030D01*
X81992849Y-79329520D01*
X82013893Y-79342133D01*
X82033598Y-79356747D01*
X82051777Y-79373223D01*
X82068253Y-79391402D01*
X82082867Y-79411107D01*
X82095480Y-79432151D01*
X82105970Y-79454329D01*
X82114235Y-79477429D01*
X82120196Y-79501227D01*
X82123796Y-79525496D01*
X82125000Y-79550000D01*
X82125000Y-80475000D01*
X82123796Y-80499504D01*
X82120196Y-80523773D01*
X82114235Y-80547571D01*
X82105970Y-80570671D01*
X82095480Y-80592849D01*
X82082867Y-80613893D01*
X82068253Y-80633598D01*
X82051777Y-80651777D01*
X82033598Y-80668253D01*
X82013893Y-80682867D01*
X81992849Y-80695480D01*
X81970671Y-80705970D01*
X81947571Y-80714235D01*
X81923773Y-80720196D01*
X81899504Y-80723796D01*
X81875000Y-80725000D01*
X80625000Y-80725000D01*
X80600496Y-80723796D01*
X80576227Y-80720196D01*
X80552429Y-80714235D01*
X80529329Y-80705970D01*
X80507151Y-80695480D01*
X80486107Y-80682867D01*
X80466402Y-80668253D01*
X80448223Y-80651777D01*
X80431747Y-80633598D01*
X80417133Y-80613893D01*
X80404520Y-80592849D01*
X80394030Y-80570671D01*
X80385765Y-80547571D01*
X80379804Y-80523773D01*
X80376204Y-80499504D01*
X80375000Y-80475000D01*
X80375000Y-79550000D01*
X80376204Y-79525496D01*
X80379804Y-79501227D01*
X80385765Y-79477429D01*
X80394030Y-79454329D01*
X80404520Y-79432151D01*
X80417133Y-79411107D01*
X80431747Y-79391402D01*
X80448223Y-79373223D01*
X80466402Y-79356747D01*
X80486107Y-79342133D01*
X80507151Y-79329520D01*
X80529329Y-79319030D01*
X80552429Y-79310765D01*
X80576227Y-79304804D01*
X80600496Y-79301204D01*
X80625000Y-79300000D01*
X81875000Y-79300000D01*
X81899504Y-79301204D01*
X81899504Y-79301204D01*
G37*
D12*
X81250000Y-80012500D03*
D10*
X82275000Y-120750000D03*
X79225000Y-120750000D03*
D11*
G36*
X137499504Y-121376204D02*
G01*
X137523773Y-121379804D01*
X137547571Y-121385765D01*
X137570671Y-121394030D01*
X137592849Y-121404520D01*
X137613893Y-121417133D01*
X137633598Y-121431747D01*
X137651777Y-121448223D01*
X137668253Y-121466402D01*
X137682867Y-121486107D01*
X137695480Y-121507151D01*
X137705970Y-121529329D01*
X137714235Y-121552429D01*
X137720196Y-121576227D01*
X137723796Y-121600496D01*
X137725000Y-121625000D01*
X137725000Y-122875000D01*
X137723796Y-122899504D01*
X137720196Y-122923773D01*
X137714235Y-122947571D01*
X137705970Y-122970671D01*
X137695480Y-122992849D01*
X137682867Y-123013893D01*
X137668253Y-123033598D01*
X137651777Y-123051777D01*
X137633598Y-123068253D01*
X137613893Y-123082867D01*
X137592849Y-123095480D01*
X137570671Y-123105970D01*
X137547571Y-123114235D01*
X137523773Y-123120196D01*
X137499504Y-123123796D01*
X137475000Y-123125000D01*
X136550000Y-123125000D01*
X136525496Y-123123796D01*
X136501227Y-123120196D01*
X136477429Y-123114235D01*
X136454329Y-123105970D01*
X136432151Y-123095480D01*
X136411107Y-123082867D01*
X136391402Y-123068253D01*
X136373223Y-123051777D01*
X136356747Y-123033598D01*
X136342133Y-123013893D01*
X136329520Y-122992849D01*
X136319030Y-122970671D01*
X136310765Y-122947571D01*
X136304804Y-122923773D01*
X136301204Y-122899504D01*
X136300000Y-122875000D01*
X136300000Y-121625000D01*
X136301204Y-121600496D01*
X136304804Y-121576227D01*
X136310765Y-121552429D01*
X136319030Y-121529329D01*
X136329520Y-121507151D01*
X136342133Y-121486107D01*
X136356747Y-121466402D01*
X136373223Y-121448223D01*
X136391402Y-121431747D01*
X136411107Y-121417133D01*
X136432151Y-121404520D01*
X136454329Y-121394030D01*
X136477429Y-121385765D01*
X136501227Y-121379804D01*
X136525496Y-121376204D01*
X136550000Y-121375000D01*
X137475000Y-121375000D01*
X137499504Y-121376204D01*
X137499504Y-121376204D01*
G37*
D12*
X137012500Y-122250000D03*
D11*
G36*
X140474504Y-121376204D02*
G01*
X140498773Y-121379804D01*
X140522571Y-121385765D01*
X140545671Y-121394030D01*
X140567849Y-121404520D01*
X140588893Y-121417133D01*
X140608598Y-121431747D01*
X140626777Y-121448223D01*
X140643253Y-121466402D01*
X140657867Y-121486107D01*
X140670480Y-121507151D01*
X140680970Y-121529329D01*
X140689235Y-121552429D01*
X140695196Y-121576227D01*
X140698796Y-121600496D01*
X140700000Y-121625000D01*
X140700000Y-122875000D01*
X140698796Y-122899504D01*
X140695196Y-122923773D01*
X140689235Y-122947571D01*
X140680970Y-122970671D01*
X140670480Y-122992849D01*
X140657867Y-123013893D01*
X140643253Y-123033598D01*
X140626777Y-123051777D01*
X140608598Y-123068253D01*
X140588893Y-123082867D01*
X140567849Y-123095480D01*
X140545671Y-123105970D01*
X140522571Y-123114235D01*
X140498773Y-123120196D01*
X140474504Y-123123796D01*
X140450000Y-123125000D01*
X139525000Y-123125000D01*
X139500496Y-123123796D01*
X139476227Y-123120196D01*
X139452429Y-123114235D01*
X139429329Y-123105970D01*
X139407151Y-123095480D01*
X139386107Y-123082867D01*
X139366402Y-123068253D01*
X139348223Y-123051777D01*
X139331747Y-123033598D01*
X139317133Y-123013893D01*
X139304520Y-122992849D01*
X139294030Y-122970671D01*
X139285765Y-122947571D01*
X139279804Y-122923773D01*
X139276204Y-122899504D01*
X139275000Y-122875000D01*
X139275000Y-121625000D01*
X139276204Y-121600496D01*
X139279804Y-121576227D01*
X139285765Y-121552429D01*
X139294030Y-121529329D01*
X139304520Y-121507151D01*
X139317133Y-121486107D01*
X139331747Y-121466402D01*
X139348223Y-121448223D01*
X139366402Y-121431747D01*
X139386107Y-121417133D01*
X139407151Y-121404520D01*
X139429329Y-121394030D01*
X139452429Y-121385765D01*
X139476227Y-121379804D01*
X139500496Y-121376204D01*
X139525000Y-121375000D01*
X140450000Y-121375000D01*
X140474504Y-121376204D01*
X140474504Y-121376204D01*
G37*
D12*
X139987500Y-122250000D03*
D11*
G36*
X140474504Y-112126204D02*
G01*
X140498773Y-112129804D01*
X140522571Y-112135765D01*
X140545671Y-112144030D01*
X140567849Y-112154520D01*
X140588893Y-112167133D01*
X140608598Y-112181747D01*
X140626777Y-112198223D01*
X140643253Y-112216402D01*
X140657867Y-112236107D01*
X140670480Y-112257151D01*
X140680970Y-112279329D01*
X140689235Y-112302429D01*
X140695196Y-112326227D01*
X140698796Y-112350496D01*
X140700000Y-112375000D01*
X140700000Y-113625000D01*
X140698796Y-113649504D01*
X140695196Y-113673773D01*
X140689235Y-113697571D01*
X140680970Y-113720671D01*
X140670480Y-113742849D01*
X140657867Y-113763893D01*
X140643253Y-113783598D01*
X140626777Y-113801777D01*
X140608598Y-113818253D01*
X140588893Y-113832867D01*
X140567849Y-113845480D01*
X140545671Y-113855970D01*
X140522571Y-113864235D01*
X140498773Y-113870196D01*
X140474504Y-113873796D01*
X140450000Y-113875000D01*
X139525000Y-113875000D01*
X139500496Y-113873796D01*
X139476227Y-113870196D01*
X139452429Y-113864235D01*
X139429329Y-113855970D01*
X139407151Y-113845480D01*
X139386107Y-113832867D01*
X139366402Y-113818253D01*
X139348223Y-113801777D01*
X139331747Y-113783598D01*
X139317133Y-113763893D01*
X139304520Y-113742849D01*
X139294030Y-113720671D01*
X139285765Y-113697571D01*
X139279804Y-113673773D01*
X139276204Y-113649504D01*
X139275000Y-113625000D01*
X139275000Y-112375000D01*
X139276204Y-112350496D01*
X139279804Y-112326227D01*
X139285765Y-112302429D01*
X139294030Y-112279329D01*
X139304520Y-112257151D01*
X139317133Y-112236107D01*
X139331747Y-112216402D01*
X139348223Y-112198223D01*
X139366402Y-112181747D01*
X139386107Y-112167133D01*
X139407151Y-112154520D01*
X139429329Y-112144030D01*
X139452429Y-112135765D01*
X139476227Y-112129804D01*
X139500496Y-112126204D01*
X139525000Y-112125000D01*
X140450000Y-112125000D01*
X140474504Y-112126204D01*
X140474504Y-112126204D01*
G37*
D12*
X139987500Y-113000000D03*
D11*
G36*
X137499504Y-112126204D02*
G01*
X137523773Y-112129804D01*
X137547571Y-112135765D01*
X137570671Y-112144030D01*
X137592849Y-112154520D01*
X137613893Y-112167133D01*
X137633598Y-112181747D01*
X137651777Y-112198223D01*
X137668253Y-112216402D01*
X137682867Y-112236107D01*
X137695480Y-112257151D01*
X137705970Y-112279329D01*
X137714235Y-112302429D01*
X137720196Y-112326227D01*
X137723796Y-112350496D01*
X137725000Y-112375000D01*
X137725000Y-113625000D01*
X137723796Y-113649504D01*
X137720196Y-113673773D01*
X137714235Y-113697571D01*
X137705970Y-113720671D01*
X137695480Y-113742849D01*
X137682867Y-113763893D01*
X137668253Y-113783598D01*
X137651777Y-113801777D01*
X137633598Y-113818253D01*
X137613893Y-113832867D01*
X137592849Y-113845480D01*
X137570671Y-113855970D01*
X137547571Y-113864235D01*
X137523773Y-113870196D01*
X137499504Y-113873796D01*
X137475000Y-113875000D01*
X136550000Y-113875000D01*
X136525496Y-113873796D01*
X136501227Y-113870196D01*
X136477429Y-113864235D01*
X136454329Y-113855970D01*
X136432151Y-113845480D01*
X136411107Y-113832867D01*
X136391402Y-113818253D01*
X136373223Y-113801777D01*
X136356747Y-113783598D01*
X136342133Y-113763893D01*
X136329520Y-113742849D01*
X136319030Y-113720671D01*
X136310765Y-113697571D01*
X136304804Y-113673773D01*
X136301204Y-113649504D01*
X136300000Y-113625000D01*
X136300000Y-112375000D01*
X136301204Y-112350496D01*
X136304804Y-112326227D01*
X136310765Y-112302429D01*
X136319030Y-112279329D01*
X136329520Y-112257151D01*
X136342133Y-112236107D01*
X136356747Y-112216402D01*
X136373223Y-112198223D01*
X136391402Y-112181747D01*
X136411107Y-112167133D01*
X136432151Y-112154520D01*
X136454329Y-112144030D01*
X136477429Y-112135765D01*
X136501227Y-112129804D01*
X136525496Y-112126204D01*
X136550000Y-112125000D01*
X137475000Y-112125000D01*
X137499504Y-112126204D01*
X137499504Y-112126204D01*
G37*
D12*
X137012500Y-113000000D03*
D11*
G36*
X109474504Y-121126204D02*
G01*
X109498773Y-121129804D01*
X109522571Y-121135765D01*
X109545671Y-121144030D01*
X109567849Y-121154520D01*
X109588893Y-121167133D01*
X109608598Y-121181747D01*
X109626777Y-121198223D01*
X109643253Y-121216402D01*
X109657867Y-121236107D01*
X109670480Y-121257151D01*
X109680970Y-121279329D01*
X109689235Y-121302429D01*
X109695196Y-121326227D01*
X109698796Y-121350496D01*
X109700000Y-121375000D01*
X109700000Y-122625000D01*
X109698796Y-122649504D01*
X109695196Y-122673773D01*
X109689235Y-122697571D01*
X109680970Y-122720671D01*
X109670480Y-122742849D01*
X109657867Y-122763893D01*
X109643253Y-122783598D01*
X109626777Y-122801777D01*
X109608598Y-122818253D01*
X109588893Y-122832867D01*
X109567849Y-122845480D01*
X109545671Y-122855970D01*
X109522571Y-122864235D01*
X109498773Y-122870196D01*
X109474504Y-122873796D01*
X109450000Y-122875000D01*
X108525000Y-122875000D01*
X108500496Y-122873796D01*
X108476227Y-122870196D01*
X108452429Y-122864235D01*
X108429329Y-122855970D01*
X108407151Y-122845480D01*
X108386107Y-122832867D01*
X108366402Y-122818253D01*
X108348223Y-122801777D01*
X108331747Y-122783598D01*
X108317133Y-122763893D01*
X108304520Y-122742849D01*
X108294030Y-122720671D01*
X108285765Y-122697571D01*
X108279804Y-122673773D01*
X108276204Y-122649504D01*
X108275000Y-122625000D01*
X108275000Y-121375000D01*
X108276204Y-121350496D01*
X108279804Y-121326227D01*
X108285765Y-121302429D01*
X108294030Y-121279329D01*
X108304520Y-121257151D01*
X108317133Y-121236107D01*
X108331747Y-121216402D01*
X108348223Y-121198223D01*
X108366402Y-121181747D01*
X108386107Y-121167133D01*
X108407151Y-121154520D01*
X108429329Y-121144030D01*
X108452429Y-121135765D01*
X108476227Y-121129804D01*
X108500496Y-121126204D01*
X108525000Y-121125000D01*
X109450000Y-121125000D01*
X109474504Y-121126204D01*
X109474504Y-121126204D01*
G37*
D12*
X108987500Y-122000000D03*
D11*
G36*
X106499504Y-121126204D02*
G01*
X106523773Y-121129804D01*
X106547571Y-121135765D01*
X106570671Y-121144030D01*
X106592849Y-121154520D01*
X106613893Y-121167133D01*
X106633598Y-121181747D01*
X106651777Y-121198223D01*
X106668253Y-121216402D01*
X106682867Y-121236107D01*
X106695480Y-121257151D01*
X106705970Y-121279329D01*
X106714235Y-121302429D01*
X106720196Y-121326227D01*
X106723796Y-121350496D01*
X106725000Y-121375000D01*
X106725000Y-122625000D01*
X106723796Y-122649504D01*
X106720196Y-122673773D01*
X106714235Y-122697571D01*
X106705970Y-122720671D01*
X106695480Y-122742849D01*
X106682867Y-122763893D01*
X106668253Y-122783598D01*
X106651777Y-122801777D01*
X106633598Y-122818253D01*
X106613893Y-122832867D01*
X106592849Y-122845480D01*
X106570671Y-122855970D01*
X106547571Y-122864235D01*
X106523773Y-122870196D01*
X106499504Y-122873796D01*
X106475000Y-122875000D01*
X105550000Y-122875000D01*
X105525496Y-122873796D01*
X105501227Y-122870196D01*
X105477429Y-122864235D01*
X105454329Y-122855970D01*
X105432151Y-122845480D01*
X105411107Y-122832867D01*
X105391402Y-122818253D01*
X105373223Y-122801777D01*
X105356747Y-122783598D01*
X105342133Y-122763893D01*
X105329520Y-122742849D01*
X105319030Y-122720671D01*
X105310765Y-122697571D01*
X105304804Y-122673773D01*
X105301204Y-122649504D01*
X105300000Y-122625000D01*
X105300000Y-121375000D01*
X105301204Y-121350496D01*
X105304804Y-121326227D01*
X105310765Y-121302429D01*
X105319030Y-121279329D01*
X105329520Y-121257151D01*
X105342133Y-121236107D01*
X105356747Y-121216402D01*
X105373223Y-121198223D01*
X105391402Y-121181747D01*
X105411107Y-121167133D01*
X105432151Y-121154520D01*
X105454329Y-121144030D01*
X105477429Y-121135765D01*
X105501227Y-121129804D01*
X105525496Y-121126204D01*
X105550000Y-121125000D01*
X106475000Y-121125000D01*
X106499504Y-121126204D01*
X106499504Y-121126204D01*
G37*
D12*
X106012500Y-122000000D03*
D11*
G36*
X101323768Y-121126475D02*
G01*
X101353496Y-121130885D01*
X101382650Y-121138187D01*
X101410947Y-121148312D01*
X101438115Y-121161162D01*
X101463893Y-121176612D01*
X101488033Y-121194516D01*
X101510301Y-121214699D01*
X101530484Y-121236967D01*
X101548388Y-121261107D01*
X101563838Y-121286885D01*
X101576688Y-121314053D01*
X101586813Y-121342350D01*
X101594115Y-121371504D01*
X101598525Y-121401232D01*
X101600000Y-121431250D01*
X101600000Y-122568750D01*
X101598525Y-122598768D01*
X101594115Y-122628496D01*
X101586813Y-122657650D01*
X101576688Y-122685947D01*
X101563838Y-122713115D01*
X101548388Y-122738893D01*
X101530484Y-122763033D01*
X101510301Y-122785301D01*
X101488033Y-122805484D01*
X101463893Y-122823388D01*
X101438115Y-122838838D01*
X101410947Y-122851688D01*
X101382650Y-122861813D01*
X101353496Y-122869115D01*
X101323768Y-122873525D01*
X101293750Y-122875000D01*
X100106250Y-122875000D01*
X100076232Y-122873525D01*
X100046504Y-122869115D01*
X100017350Y-122861813D01*
X99989053Y-122851688D01*
X99961885Y-122838838D01*
X99936107Y-122823388D01*
X99911967Y-122805484D01*
X99889699Y-122785301D01*
X99869516Y-122763033D01*
X99851612Y-122738893D01*
X99836162Y-122713115D01*
X99823312Y-122685947D01*
X99813187Y-122657650D01*
X99805885Y-122628496D01*
X99801475Y-122598768D01*
X99800000Y-122568750D01*
X99800000Y-121431250D01*
X99801475Y-121401232D01*
X99805885Y-121371504D01*
X99813187Y-121342350D01*
X99823312Y-121314053D01*
X99836162Y-121286885D01*
X99851612Y-121261107D01*
X99869516Y-121236967D01*
X99889699Y-121214699D01*
X99911967Y-121194516D01*
X99936107Y-121176612D01*
X99961885Y-121161162D01*
X99989053Y-121148312D01*
X100017350Y-121138187D01*
X100046504Y-121130885D01*
X100076232Y-121126475D01*
X100106250Y-121125000D01*
X101293750Y-121125000D01*
X101323768Y-121126475D01*
X101323768Y-121126475D01*
G37*
D13*
X100700000Y-122000000D03*
D11*
G36*
X103923768Y-121126475D02*
G01*
X103953496Y-121130885D01*
X103982650Y-121138187D01*
X104010947Y-121148312D01*
X104038115Y-121161162D01*
X104063893Y-121176612D01*
X104088033Y-121194516D01*
X104110301Y-121214699D01*
X104130484Y-121236967D01*
X104148388Y-121261107D01*
X104163838Y-121286885D01*
X104176688Y-121314053D01*
X104186813Y-121342350D01*
X104194115Y-121371504D01*
X104198525Y-121401232D01*
X104200000Y-121431250D01*
X104200000Y-122568750D01*
X104198525Y-122598768D01*
X104194115Y-122628496D01*
X104186813Y-122657650D01*
X104176688Y-122685947D01*
X104163838Y-122713115D01*
X104148388Y-122738893D01*
X104130484Y-122763033D01*
X104110301Y-122785301D01*
X104088033Y-122805484D01*
X104063893Y-122823388D01*
X104038115Y-122838838D01*
X104010947Y-122851688D01*
X103982650Y-122861813D01*
X103953496Y-122869115D01*
X103923768Y-122873525D01*
X103893750Y-122875000D01*
X102706250Y-122875000D01*
X102676232Y-122873525D01*
X102646504Y-122869115D01*
X102617350Y-122861813D01*
X102589053Y-122851688D01*
X102561885Y-122838838D01*
X102536107Y-122823388D01*
X102511967Y-122805484D01*
X102489699Y-122785301D01*
X102469516Y-122763033D01*
X102451612Y-122738893D01*
X102436162Y-122713115D01*
X102423312Y-122685947D01*
X102413187Y-122657650D01*
X102405885Y-122628496D01*
X102401475Y-122598768D01*
X102400000Y-122568750D01*
X102400000Y-121431250D01*
X102401475Y-121401232D01*
X102405885Y-121371504D01*
X102413187Y-121342350D01*
X102423312Y-121314053D01*
X102436162Y-121286885D01*
X102451612Y-121261107D01*
X102469516Y-121236967D01*
X102489699Y-121214699D01*
X102511967Y-121194516D01*
X102536107Y-121176612D01*
X102561885Y-121161162D01*
X102589053Y-121148312D01*
X102617350Y-121138187D01*
X102646504Y-121130885D01*
X102676232Y-121126475D01*
X102706250Y-121125000D01*
X103893750Y-121125000D01*
X103923768Y-121126475D01*
X103923768Y-121126475D01*
G37*
D13*
X103300000Y-122000000D03*
D11*
G36*
X94323768Y-121126475D02*
G01*
X94353496Y-121130885D01*
X94382650Y-121138187D01*
X94410947Y-121148312D01*
X94438115Y-121161162D01*
X94463893Y-121176612D01*
X94488033Y-121194516D01*
X94510301Y-121214699D01*
X94530484Y-121236967D01*
X94548388Y-121261107D01*
X94563838Y-121286885D01*
X94576688Y-121314053D01*
X94586813Y-121342350D01*
X94594115Y-121371504D01*
X94598525Y-121401232D01*
X94600000Y-121431250D01*
X94600000Y-122568750D01*
X94598525Y-122598768D01*
X94594115Y-122628496D01*
X94586813Y-122657650D01*
X94576688Y-122685947D01*
X94563838Y-122713115D01*
X94548388Y-122738893D01*
X94530484Y-122763033D01*
X94510301Y-122785301D01*
X94488033Y-122805484D01*
X94463893Y-122823388D01*
X94438115Y-122838838D01*
X94410947Y-122851688D01*
X94382650Y-122861813D01*
X94353496Y-122869115D01*
X94323768Y-122873525D01*
X94293750Y-122875000D01*
X93106250Y-122875000D01*
X93076232Y-122873525D01*
X93046504Y-122869115D01*
X93017350Y-122861813D01*
X92989053Y-122851688D01*
X92961885Y-122838838D01*
X92936107Y-122823388D01*
X92911967Y-122805484D01*
X92889699Y-122785301D01*
X92869516Y-122763033D01*
X92851612Y-122738893D01*
X92836162Y-122713115D01*
X92823312Y-122685947D01*
X92813187Y-122657650D01*
X92805885Y-122628496D01*
X92801475Y-122598768D01*
X92800000Y-122568750D01*
X92800000Y-121431250D01*
X92801475Y-121401232D01*
X92805885Y-121371504D01*
X92813187Y-121342350D01*
X92823312Y-121314053D01*
X92836162Y-121286885D01*
X92851612Y-121261107D01*
X92869516Y-121236967D01*
X92889699Y-121214699D01*
X92911967Y-121194516D01*
X92936107Y-121176612D01*
X92961885Y-121161162D01*
X92989053Y-121148312D01*
X93017350Y-121138187D01*
X93046504Y-121130885D01*
X93076232Y-121126475D01*
X93106250Y-121125000D01*
X94293750Y-121125000D01*
X94323768Y-121126475D01*
X94323768Y-121126475D01*
G37*
D13*
X93700000Y-122000000D03*
D11*
G36*
X96923768Y-121126475D02*
G01*
X96953496Y-121130885D01*
X96982650Y-121138187D01*
X97010947Y-121148312D01*
X97038115Y-121161162D01*
X97063893Y-121176612D01*
X97088033Y-121194516D01*
X97110301Y-121214699D01*
X97130484Y-121236967D01*
X97148388Y-121261107D01*
X97163838Y-121286885D01*
X97176688Y-121314053D01*
X97186813Y-121342350D01*
X97194115Y-121371504D01*
X97198525Y-121401232D01*
X97200000Y-121431250D01*
X97200000Y-122568750D01*
X97198525Y-122598768D01*
X97194115Y-122628496D01*
X97186813Y-122657650D01*
X97176688Y-122685947D01*
X97163838Y-122713115D01*
X97148388Y-122738893D01*
X97130484Y-122763033D01*
X97110301Y-122785301D01*
X97088033Y-122805484D01*
X97063893Y-122823388D01*
X97038115Y-122838838D01*
X97010947Y-122851688D01*
X96982650Y-122861813D01*
X96953496Y-122869115D01*
X96923768Y-122873525D01*
X96893750Y-122875000D01*
X95706250Y-122875000D01*
X95676232Y-122873525D01*
X95646504Y-122869115D01*
X95617350Y-122861813D01*
X95589053Y-122851688D01*
X95561885Y-122838838D01*
X95536107Y-122823388D01*
X95511967Y-122805484D01*
X95489699Y-122785301D01*
X95469516Y-122763033D01*
X95451612Y-122738893D01*
X95436162Y-122713115D01*
X95423312Y-122685947D01*
X95413187Y-122657650D01*
X95405885Y-122628496D01*
X95401475Y-122598768D01*
X95400000Y-122568750D01*
X95400000Y-121431250D01*
X95401475Y-121401232D01*
X95405885Y-121371504D01*
X95413187Y-121342350D01*
X95423312Y-121314053D01*
X95436162Y-121286885D01*
X95451612Y-121261107D01*
X95469516Y-121236967D01*
X95489699Y-121214699D01*
X95511967Y-121194516D01*
X95536107Y-121176612D01*
X95561885Y-121161162D01*
X95589053Y-121148312D01*
X95617350Y-121138187D01*
X95646504Y-121130885D01*
X95676232Y-121126475D01*
X95706250Y-121125000D01*
X96893750Y-121125000D01*
X96923768Y-121126475D01*
X96923768Y-121126475D01*
G37*
D13*
X96300000Y-122000000D03*
D11*
G36*
X91724504Y-121126204D02*
G01*
X91748773Y-121129804D01*
X91772571Y-121135765D01*
X91795671Y-121144030D01*
X91817849Y-121154520D01*
X91838893Y-121167133D01*
X91858598Y-121181747D01*
X91876777Y-121198223D01*
X91893253Y-121216402D01*
X91907867Y-121236107D01*
X91920480Y-121257151D01*
X91930970Y-121279329D01*
X91939235Y-121302429D01*
X91945196Y-121326227D01*
X91948796Y-121350496D01*
X91950000Y-121375000D01*
X91950000Y-122625000D01*
X91948796Y-122649504D01*
X91945196Y-122673773D01*
X91939235Y-122697571D01*
X91930970Y-122720671D01*
X91920480Y-122742849D01*
X91907867Y-122763893D01*
X91893253Y-122783598D01*
X91876777Y-122801777D01*
X91858598Y-122818253D01*
X91838893Y-122832867D01*
X91817849Y-122845480D01*
X91795671Y-122855970D01*
X91772571Y-122864235D01*
X91748773Y-122870196D01*
X91724504Y-122873796D01*
X91700000Y-122875000D01*
X90775000Y-122875000D01*
X90750496Y-122873796D01*
X90726227Y-122870196D01*
X90702429Y-122864235D01*
X90679329Y-122855970D01*
X90657151Y-122845480D01*
X90636107Y-122832867D01*
X90616402Y-122818253D01*
X90598223Y-122801777D01*
X90581747Y-122783598D01*
X90567133Y-122763893D01*
X90554520Y-122742849D01*
X90544030Y-122720671D01*
X90535765Y-122697571D01*
X90529804Y-122673773D01*
X90526204Y-122649504D01*
X90525000Y-122625000D01*
X90525000Y-121375000D01*
X90526204Y-121350496D01*
X90529804Y-121326227D01*
X90535765Y-121302429D01*
X90544030Y-121279329D01*
X90554520Y-121257151D01*
X90567133Y-121236107D01*
X90581747Y-121216402D01*
X90598223Y-121198223D01*
X90616402Y-121181747D01*
X90636107Y-121167133D01*
X90657151Y-121154520D01*
X90679329Y-121144030D01*
X90702429Y-121135765D01*
X90726227Y-121129804D01*
X90750496Y-121126204D01*
X90775000Y-121125000D01*
X91700000Y-121125000D01*
X91724504Y-121126204D01*
X91724504Y-121126204D01*
G37*
D12*
X91237500Y-122000000D03*
D11*
G36*
X88749504Y-121126204D02*
G01*
X88773773Y-121129804D01*
X88797571Y-121135765D01*
X88820671Y-121144030D01*
X88842849Y-121154520D01*
X88863893Y-121167133D01*
X88883598Y-121181747D01*
X88901777Y-121198223D01*
X88918253Y-121216402D01*
X88932867Y-121236107D01*
X88945480Y-121257151D01*
X88955970Y-121279329D01*
X88964235Y-121302429D01*
X88970196Y-121326227D01*
X88973796Y-121350496D01*
X88975000Y-121375000D01*
X88975000Y-122625000D01*
X88973796Y-122649504D01*
X88970196Y-122673773D01*
X88964235Y-122697571D01*
X88955970Y-122720671D01*
X88945480Y-122742849D01*
X88932867Y-122763893D01*
X88918253Y-122783598D01*
X88901777Y-122801777D01*
X88883598Y-122818253D01*
X88863893Y-122832867D01*
X88842849Y-122845480D01*
X88820671Y-122855970D01*
X88797571Y-122864235D01*
X88773773Y-122870196D01*
X88749504Y-122873796D01*
X88725000Y-122875000D01*
X87800000Y-122875000D01*
X87775496Y-122873796D01*
X87751227Y-122870196D01*
X87727429Y-122864235D01*
X87704329Y-122855970D01*
X87682151Y-122845480D01*
X87661107Y-122832867D01*
X87641402Y-122818253D01*
X87623223Y-122801777D01*
X87606747Y-122783598D01*
X87592133Y-122763893D01*
X87579520Y-122742849D01*
X87569030Y-122720671D01*
X87560765Y-122697571D01*
X87554804Y-122673773D01*
X87551204Y-122649504D01*
X87550000Y-122625000D01*
X87550000Y-121375000D01*
X87551204Y-121350496D01*
X87554804Y-121326227D01*
X87560765Y-121302429D01*
X87569030Y-121279329D01*
X87579520Y-121257151D01*
X87592133Y-121236107D01*
X87606747Y-121216402D01*
X87623223Y-121198223D01*
X87641402Y-121181747D01*
X87661107Y-121167133D01*
X87682151Y-121154520D01*
X87704329Y-121144030D01*
X87727429Y-121135765D01*
X87751227Y-121129804D01*
X87775496Y-121126204D01*
X87800000Y-121125000D01*
X88725000Y-121125000D01*
X88749504Y-121126204D01*
X88749504Y-121126204D01*
G37*
D12*
X88262500Y-122000000D03*
D11*
G36*
X82149504Y-113301204D02*
G01*
X82173773Y-113304804D01*
X82197571Y-113310765D01*
X82220671Y-113319030D01*
X82242849Y-113329520D01*
X82263893Y-113342133D01*
X82283598Y-113356747D01*
X82301777Y-113373223D01*
X82318253Y-113391402D01*
X82332867Y-113411107D01*
X82345480Y-113432151D01*
X82355970Y-113454329D01*
X82364235Y-113477429D01*
X82370196Y-113501227D01*
X82373796Y-113525496D01*
X82375000Y-113550000D01*
X82375000Y-114475000D01*
X82373796Y-114499504D01*
X82370196Y-114523773D01*
X82364235Y-114547571D01*
X82355970Y-114570671D01*
X82345480Y-114592849D01*
X82332867Y-114613893D01*
X82318253Y-114633598D01*
X82301777Y-114651777D01*
X82283598Y-114668253D01*
X82263893Y-114682867D01*
X82242849Y-114695480D01*
X82220671Y-114705970D01*
X82197571Y-114714235D01*
X82173773Y-114720196D01*
X82149504Y-114723796D01*
X82125000Y-114725000D01*
X80875000Y-114725000D01*
X80850496Y-114723796D01*
X80826227Y-114720196D01*
X80802429Y-114714235D01*
X80779329Y-114705970D01*
X80757151Y-114695480D01*
X80736107Y-114682867D01*
X80716402Y-114668253D01*
X80698223Y-114651777D01*
X80681747Y-114633598D01*
X80667133Y-114613893D01*
X80654520Y-114592849D01*
X80644030Y-114570671D01*
X80635765Y-114547571D01*
X80629804Y-114523773D01*
X80626204Y-114499504D01*
X80625000Y-114475000D01*
X80625000Y-113550000D01*
X80626204Y-113525496D01*
X80629804Y-113501227D01*
X80635765Y-113477429D01*
X80644030Y-113454329D01*
X80654520Y-113432151D01*
X80667133Y-113411107D01*
X80681747Y-113391402D01*
X80698223Y-113373223D01*
X80716402Y-113356747D01*
X80736107Y-113342133D01*
X80757151Y-113329520D01*
X80779329Y-113319030D01*
X80802429Y-113310765D01*
X80826227Y-113304804D01*
X80850496Y-113301204D01*
X80875000Y-113300000D01*
X82125000Y-113300000D01*
X82149504Y-113301204D01*
X82149504Y-113301204D01*
G37*
D12*
X81500000Y-114012500D03*
D11*
G36*
X82149504Y-116276204D02*
G01*
X82173773Y-116279804D01*
X82197571Y-116285765D01*
X82220671Y-116294030D01*
X82242849Y-116304520D01*
X82263893Y-116317133D01*
X82283598Y-116331747D01*
X82301777Y-116348223D01*
X82318253Y-116366402D01*
X82332867Y-116386107D01*
X82345480Y-116407151D01*
X82355970Y-116429329D01*
X82364235Y-116452429D01*
X82370196Y-116476227D01*
X82373796Y-116500496D01*
X82375000Y-116525000D01*
X82375000Y-117450000D01*
X82373796Y-117474504D01*
X82370196Y-117498773D01*
X82364235Y-117522571D01*
X82355970Y-117545671D01*
X82345480Y-117567849D01*
X82332867Y-117588893D01*
X82318253Y-117608598D01*
X82301777Y-117626777D01*
X82283598Y-117643253D01*
X82263893Y-117657867D01*
X82242849Y-117670480D01*
X82220671Y-117680970D01*
X82197571Y-117689235D01*
X82173773Y-117695196D01*
X82149504Y-117698796D01*
X82125000Y-117700000D01*
X80875000Y-117700000D01*
X80850496Y-117698796D01*
X80826227Y-117695196D01*
X80802429Y-117689235D01*
X80779329Y-117680970D01*
X80757151Y-117670480D01*
X80736107Y-117657867D01*
X80716402Y-117643253D01*
X80698223Y-117626777D01*
X80681747Y-117608598D01*
X80667133Y-117588893D01*
X80654520Y-117567849D01*
X80644030Y-117545671D01*
X80635765Y-117522571D01*
X80629804Y-117498773D01*
X80626204Y-117474504D01*
X80625000Y-117450000D01*
X80625000Y-116525000D01*
X80626204Y-116500496D01*
X80629804Y-116476227D01*
X80635765Y-116452429D01*
X80644030Y-116429329D01*
X80654520Y-116407151D01*
X80667133Y-116386107D01*
X80681747Y-116366402D01*
X80698223Y-116348223D01*
X80716402Y-116331747D01*
X80736107Y-116317133D01*
X80757151Y-116304520D01*
X80779329Y-116294030D01*
X80802429Y-116285765D01*
X80826227Y-116279804D01*
X80850496Y-116276204D01*
X80875000Y-116275000D01*
X82125000Y-116275000D01*
X82149504Y-116276204D01*
X82149504Y-116276204D01*
G37*
D12*
X81500000Y-116987500D03*
D11*
G36*
X101249504Y-52626204D02*
G01*
X101273773Y-52629804D01*
X101297571Y-52635765D01*
X101320671Y-52644030D01*
X101342849Y-52654520D01*
X101363893Y-52667133D01*
X101383598Y-52681747D01*
X101401777Y-52698223D01*
X101418253Y-52716402D01*
X101432867Y-52736107D01*
X101445480Y-52757151D01*
X101455970Y-52779329D01*
X101464235Y-52802429D01*
X101470196Y-52826227D01*
X101473796Y-52850496D01*
X101475000Y-52875000D01*
X101475000Y-54125000D01*
X101473796Y-54149504D01*
X101470196Y-54173773D01*
X101464235Y-54197571D01*
X101455970Y-54220671D01*
X101445480Y-54242849D01*
X101432867Y-54263893D01*
X101418253Y-54283598D01*
X101401777Y-54301777D01*
X101383598Y-54318253D01*
X101363893Y-54332867D01*
X101342849Y-54345480D01*
X101320671Y-54355970D01*
X101297571Y-54364235D01*
X101273773Y-54370196D01*
X101249504Y-54373796D01*
X101225000Y-54375000D01*
X100300000Y-54375000D01*
X100275496Y-54373796D01*
X100251227Y-54370196D01*
X100227429Y-54364235D01*
X100204329Y-54355970D01*
X100182151Y-54345480D01*
X100161107Y-54332867D01*
X100141402Y-54318253D01*
X100123223Y-54301777D01*
X100106747Y-54283598D01*
X100092133Y-54263893D01*
X100079520Y-54242849D01*
X100069030Y-54220671D01*
X100060765Y-54197571D01*
X100054804Y-54173773D01*
X100051204Y-54149504D01*
X100050000Y-54125000D01*
X100050000Y-52875000D01*
X100051204Y-52850496D01*
X100054804Y-52826227D01*
X100060765Y-52802429D01*
X100069030Y-52779329D01*
X100079520Y-52757151D01*
X100092133Y-52736107D01*
X100106747Y-52716402D01*
X100123223Y-52698223D01*
X100141402Y-52681747D01*
X100161107Y-52667133D01*
X100182151Y-52654520D01*
X100204329Y-52644030D01*
X100227429Y-52635765D01*
X100251227Y-52629804D01*
X100275496Y-52626204D01*
X100300000Y-52625000D01*
X101225000Y-52625000D01*
X101249504Y-52626204D01*
X101249504Y-52626204D01*
G37*
D12*
X100762500Y-53500000D03*
D11*
G36*
X104224504Y-52626204D02*
G01*
X104248773Y-52629804D01*
X104272571Y-52635765D01*
X104295671Y-52644030D01*
X104317849Y-52654520D01*
X104338893Y-52667133D01*
X104358598Y-52681747D01*
X104376777Y-52698223D01*
X104393253Y-52716402D01*
X104407867Y-52736107D01*
X104420480Y-52757151D01*
X104430970Y-52779329D01*
X104439235Y-52802429D01*
X104445196Y-52826227D01*
X104448796Y-52850496D01*
X104450000Y-52875000D01*
X104450000Y-54125000D01*
X104448796Y-54149504D01*
X104445196Y-54173773D01*
X104439235Y-54197571D01*
X104430970Y-54220671D01*
X104420480Y-54242849D01*
X104407867Y-54263893D01*
X104393253Y-54283598D01*
X104376777Y-54301777D01*
X104358598Y-54318253D01*
X104338893Y-54332867D01*
X104317849Y-54345480D01*
X104295671Y-54355970D01*
X104272571Y-54364235D01*
X104248773Y-54370196D01*
X104224504Y-54373796D01*
X104200000Y-54375000D01*
X103275000Y-54375000D01*
X103250496Y-54373796D01*
X103226227Y-54370196D01*
X103202429Y-54364235D01*
X103179329Y-54355970D01*
X103157151Y-54345480D01*
X103136107Y-54332867D01*
X103116402Y-54318253D01*
X103098223Y-54301777D01*
X103081747Y-54283598D01*
X103067133Y-54263893D01*
X103054520Y-54242849D01*
X103044030Y-54220671D01*
X103035765Y-54197571D01*
X103029804Y-54173773D01*
X103026204Y-54149504D01*
X103025000Y-54125000D01*
X103025000Y-52875000D01*
X103026204Y-52850496D01*
X103029804Y-52826227D01*
X103035765Y-52802429D01*
X103044030Y-52779329D01*
X103054520Y-52757151D01*
X103067133Y-52736107D01*
X103081747Y-52716402D01*
X103098223Y-52698223D01*
X103116402Y-52681747D01*
X103136107Y-52667133D01*
X103157151Y-52654520D01*
X103179329Y-52644030D01*
X103202429Y-52635765D01*
X103226227Y-52629804D01*
X103250496Y-52626204D01*
X103275000Y-52625000D01*
X104200000Y-52625000D01*
X104224504Y-52626204D01*
X104224504Y-52626204D01*
G37*
D12*
X103737500Y-53500000D03*
D10*
X83025000Y-55000000D03*
X79975000Y-55000000D03*
D11*
G36*
X148474504Y-52876204D02*
G01*
X148498773Y-52879804D01*
X148522571Y-52885765D01*
X148545671Y-52894030D01*
X148567849Y-52904520D01*
X148588893Y-52917133D01*
X148608598Y-52931747D01*
X148626777Y-52948223D01*
X148643253Y-52966402D01*
X148657867Y-52986107D01*
X148670480Y-53007151D01*
X148680970Y-53029329D01*
X148689235Y-53052429D01*
X148695196Y-53076227D01*
X148698796Y-53100496D01*
X148700000Y-53125000D01*
X148700000Y-54375000D01*
X148698796Y-54399504D01*
X148695196Y-54423773D01*
X148689235Y-54447571D01*
X148680970Y-54470671D01*
X148670480Y-54492849D01*
X148657867Y-54513893D01*
X148643253Y-54533598D01*
X148626777Y-54551777D01*
X148608598Y-54568253D01*
X148588893Y-54582867D01*
X148567849Y-54595480D01*
X148545671Y-54605970D01*
X148522571Y-54614235D01*
X148498773Y-54620196D01*
X148474504Y-54623796D01*
X148450000Y-54625000D01*
X147525000Y-54625000D01*
X147500496Y-54623796D01*
X147476227Y-54620196D01*
X147452429Y-54614235D01*
X147429329Y-54605970D01*
X147407151Y-54595480D01*
X147386107Y-54582867D01*
X147366402Y-54568253D01*
X147348223Y-54551777D01*
X147331747Y-54533598D01*
X147317133Y-54513893D01*
X147304520Y-54492849D01*
X147294030Y-54470671D01*
X147285765Y-54447571D01*
X147279804Y-54423773D01*
X147276204Y-54399504D01*
X147275000Y-54375000D01*
X147275000Y-53125000D01*
X147276204Y-53100496D01*
X147279804Y-53076227D01*
X147285765Y-53052429D01*
X147294030Y-53029329D01*
X147304520Y-53007151D01*
X147317133Y-52986107D01*
X147331747Y-52966402D01*
X147348223Y-52948223D01*
X147366402Y-52931747D01*
X147386107Y-52917133D01*
X147407151Y-52904520D01*
X147429329Y-52894030D01*
X147452429Y-52885765D01*
X147476227Y-52879804D01*
X147500496Y-52876204D01*
X147525000Y-52875000D01*
X148450000Y-52875000D01*
X148474504Y-52876204D01*
X148474504Y-52876204D01*
G37*
D12*
X147987500Y-53750000D03*
D11*
G36*
X145499504Y-52876204D02*
G01*
X145523773Y-52879804D01*
X145547571Y-52885765D01*
X145570671Y-52894030D01*
X145592849Y-52904520D01*
X145613893Y-52917133D01*
X145633598Y-52931747D01*
X145651777Y-52948223D01*
X145668253Y-52966402D01*
X145682867Y-52986107D01*
X145695480Y-53007151D01*
X145705970Y-53029329D01*
X145714235Y-53052429D01*
X145720196Y-53076227D01*
X145723796Y-53100496D01*
X145725000Y-53125000D01*
X145725000Y-54375000D01*
X145723796Y-54399504D01*
X145720196Y-54423773D01*
X145714235Y-54447571D01*
X145705970Y-54470671D01*
X145695480Y-54492849D01*
X145682867Y-54513893D01*
X145668253Y-54533598D01*
X145651777Y-54551777D01*
X145633598Y-54568253D01*
X145613893Y-54582867D01*
X145592849Y-54595480D01*
X145570671Y-54605970D01*
X145547571Y-54614235D01*
X145523773Y-54620196D01*
X145499504Y-54623796D01*
X145475000Y-54625000D01*
X144550000Y-54625000D01*
X144525496Y-54623796D01*
X144501227Y-54620196D01*
X144477429Y-54614235D01*
X144454329Y-54605970D01*
X144432151Y-54595480D01*
X144411107Y-54582867D01*
X144391402Y-54568253D01*
X144373223Y-54551777D01*
X144356747Y-54533598D01*
X144342133Y-54513893D01*
X144329520Y-54492849D01*
X144319030Y-54470671D01*
X144310765Y-54447571D01*
X144304804Y-54423773D01*
X144301204Y-54399504D01*
X144300000Y-54375000D01*
X144300000Y-53125000D01*
X144301204Y-53100496D01*
X144304804Y-53076227D01*
X144310765Y-53052429D01*
X144319030Y-53029329D01*
X144329520Y-53007151D01*
X144342133Y-52986107D01*
X144356747Y-52966402D01*
X144373223Y-52948223D01*
X144391402Y-52931747D01*
X144411107Y-52917133D01*
X144432151Y-52904520D01*
X144454329Y-52894030D01*
X144477429Y-52885765D01*
X144501227Y-52879804D01*
X144525496Y-52876204D01*
X144550000Y-52875000D01*
X145475000Y-52875000D01*
X145499504Y-52876204D01*
X145499504Y-52876204D01*
G37*
D12*
X145012500Y-53750000D03*
D11*
G36*
X147974504Y-62376204D02*
G01*
X147998773Y-62379804D01*
X148022571Y-62385765D01*
X148045671Y-62394030D01*
X148067849Y-62404520D01*
X148088893Y-62417133D01*
X148108598Y-62431747D01*
X148126777Y-62448223D01*
X148143253Y-62466402D01*
X148157867Y-62486107D01*
X148170480Y-62507151D01*
X148180970Y-62529329D01*
X148189235Y-62552429D01*
X148195196Y-62576227D01*
X148198796Y-62600496D01*
X148200000Y-62625000D01*
X148200000Y-63875000D01*
X148198796Y-63899504D01*
X148195196Y-63923773D01*
X148189235Y-63947571D01*
X148180970Y-63970671D01*
X148170480Y-63992849D01*
X148157867Y-64013893D01*
X148143253Y-64033598D01*
X148126777Y-64051777D01*
X148108598Y-64068253D01*
X148088893Y-64082867D01*
X148067849Y-64095480D01*
X148045671Y-64105970D01*
X148022571Y-64114235D01*
X147998773Y-64120196D01*
X147974504Y-64123796D01*
X147950000Y-64125000D01*
X147025000Y-64125000D01*
X147000496Y-64123796D01*
X146976227Y-64120196D01*
X146952429Y-64114235D01*
X146929329Y-64105970D01*
X146907151Y-64095480D01*
X146886107Y-64082867D01*
X146866402Y-64068253D01*
X146848223Y-64051777D01*
X146831747Y-64033598D01*
X146817133Y-64013893D01*
X146804520Y-63992849D01*
X146794030Y-63970671D01*
X146785765Y-63947571D01*
X146779804Y-63923773D01*
X146776204Y-63899504D01*
X146775000Y-63875000D01*
X146775000Y-62625000D01*
X146776204Y-62600496D01*
X146779804Y-62576227D01*
X146785765Y-62552429D01*
X146794030Y-62529329D01*
X146804520Y-62507151D01*
X146817133Y-62486107D01*
X146831747Y-62466402D01*
X146848223Y-62448223D01*
X146866402Y-62431747D01*
X146886107Y-62417133D01*
X146907151Y-62404520D01*
X146929329Y-62394030D01*
X146952429Y-62385765D01*
X146976227Y-62379804D01*
X147000496Y-62376204D01*
X147025000Y-62375000D01*
X147950000Y-62375000D01*
X147974504Y-62376204D01*
X147974504Y-62376204D01*
G37*
D12*
X147487500Y-63250000D03*
D11*
G36*
X144999504Y-62376204D02*
G01*
X145023773Y-62379804D01*
X145047571Y-62385765D01*
X145070671Y-62394030D01*
X145092849Y-62404520D01*
X145113893Y-62417133D01*
X145133598Y-62431747D01*
X145151777Y-62448223D01*
X145168253Y-62466402D01*
X145182867Y-62486107D01*
X145195480Y-62507151D01*
X145205970Y-62529329D01*
X145214235Y-62552429D01*
X145220196Y-62576227D01*
X145223796Y-62600496D01*
X145225000Y-62625000D01*
X145225000Y-63875000D01*
X145223796Y-63899504D01*
X145220196Y-63923773D01*
X145214235Y-63947571D01*
X145205970Y-63970671D01*
X145195480Y-63992849D01*
X145182867Y-64013893D01*
X145168253Y-64033598D01*
X145151777Y-64051777D01*
X145133598Y-64068253D01*
X145113893Y-64082867D01*
X145092849Y-64095480D01*
X145070671Y-64105970D01*
X145047571Y-64114235D01*
X145023773Y-64120196D01*
X144999504Y-64123796D01*
X144975000Y-64125000D01*
X144050000Y-64125000D01*
X144025496Y-64123796D01*
X144001227Y-64120196D01*
X143977429Y-64114235D01*
X143954329Y-64105970D01*
X143932151Y-64095480D01*
X143911107Y-64082867D01*
X143891402Y-64068253D01*
X143873223Y-64051777D01*
X143856747Y-64033598D01*
X143842133Y-64013893D01*
X143829520Y-63992849D01*
X143819030Y-63970671D01*
X143810765Y-63947571D01*
X143804804Y-63923773D01*
X143801204Y-63899504D01*
X143800000Y-63875000D01*
X143800000Y-62625000D01*
X143801204Y-62600496D01*
X143804804Y-62576227D01*
X143810765Y-62552429D01*
X143819030Y-62529329D01*
X143829520Y-62507151D01*
X143842133Y-62486107D01*
X143856747Y-62466402D01*
X143873223Y-62448223D01*
X143891402Y-62431747D01*
X143911107Y-62417133D01*
X143932151Y-62404520D01*
X143954329Y-62394030D01*
X143977429Y-62385765D01*
X144001227Y-62379804D01*
X144025496Y-62376204D01*
X144050000Y-62375000D01*
X144975000Y-62375000D01*
X144999504Y-62376204D01*
X144999504Y-62376204D01*
G37*
D12*
X144512500Y-63250000D03*
D11*
G36*
X121474504Y-53876204D02*
G01*
X121498773Y-53879804D01*
X121522571Y-53885765D01*
X121545671Y-53894030D01*
X121567849Y-53904520D01*
X121588893Y-53917133D01*
X121608598Y-53931747D01*
X121626777Y-53948223D01*
X121643253Y-53966402D01*
X121657867Y-53986107D01*
X121670480Y-54007151D01*
X121680970Y-54029329D01*
X121689235Y-54052429D01*
X121695196Y-54076227D01*
X121698796Y-54100496D01*
X121700000Y-54125000D01*
X121700000Y-55375000D01*
X121698796Y-55399504D01*
X121695196Y-55423773D01*
X121689235Y-55447571D01*
X121680970Y-55470671D01*
X121670480Y-55492849D01*
X121657867Y-55513893D01*
X121643253Y-55533598D01*
X121626777Y-55551777D01*
X121608598Y-55568253D01*
X121588893Y-55582867D01*
X121567849Y-55595480D01*
X121545671Y-55605970D01*
X121522571Y-55614235D01*
X121498773Y-55620196D01*
X121474504Y-55623796D01*
X121450000Y-55625000D01*
X120525000Y-55625000D01*
X120500496Y-55623796D01*
X120476227Y-55620196D01*
X120452429Y-55614235D01*
X120429329Y-55605970D01*
X120407151Y-55595480D01*
X120386107Y-55582867D01*
X120366402Y-55568253D01*
X120348223Y-55551777D01*
X120331747Y-55533598D01*
X120317133Y-55513893D01*
X120304520Y-55492849D01*
X120294030Y-55470671D01*
X120285765Y-55447571D01*
X120279804Y-55423773D01*
X120276204Y-55399504D01*
X120275000Y-55375000D01*
X120275000Y-54125000D01*
X120276204Y-54100496D01*
X120279804Y-54076227D01*
X120285765Y-54052429D01*
X120294030Y-54029329D01*
X120304520Y-54007151D01*
X120317133Y-53986107D01*
X120331747Y-53966402D01*
X120348223Y-53948223D01*
X120366402Y-53931747D01*
X120386107Y-53917133D01*
X120407151Y-53904520D01*
X120429329Y-53894030D01*
X120452429Y-53885765D01*
X120476227Y-53879804D01*
X120500496Y-53876204D01*
X120525000Y-53875000D01*
X121450000Y-53875000D01*
X121474504Y-53876204D01*
X121474504Y-53876204D01*
G37*
D12*
X120987500Y-54750000D03*
D11*
G36*
X118499504Y-53876204D02*
G01*
X118523773Y-53879804D01*
X118547571Y-53885765D01*
X118570671Y-53894030D01*
X118592849Y-53904520D01*
X118613893Y-53917133D01*
X118633598Y-53931747D01*
X118651777Y-53948223D01*
X118668253Y-53966402D01*
X118682867Y-53986107D01*
X118695480Y-54007151D01*
X118705970Y-54029329D01*
X118714235Y-54052429D01*
X118720196Y-54076227D01*
X118723796Y-54100496D01*
X118725000Y-54125000D01*
X118725000Y-55375000D01*
X118723796Y-55399504D01*
X118720196Y-55423773D01*
X118714235Y-55447571D01*
X118705970Y-55470671D01*
X118695480Y-55492849D01*
X118682867Y-55513893D01*
X118668253Y-55533598D01*
X118651777Y-55551777D01*
X118633598Y-55568253D01*
X118613893Y-55582867D01*
X118592849Y-55595480D01*
X118570671Y-55605970D01*
X118547571Y-55614235D01*
X118523773Y-55620196D01*
X118499504Y-55623796D01*
X118475000Y-55625000D01*
X117550000Y-55625000D01*
X117525496Y-55623796D01*
X117501227Y-55620196D01*
X117477429Y-55614235D01*
X117454329Y-55605970D01*
X117432151Y-55595480D01*
X117411107Y-55582867D01*
X117391402Y-55568253D01*
X117373223Y-55551777D01*
X117356747Y-55533598D01*
X117342133Y-55513893D01*
X117329520Y-55492849D01*
X117319030Y-55470671D01*
X117310765Y-55447571D01*
X117304804Y-55423773D01*
X117301204Y-55399504D01*
X117300000Y-55375000D01*
X117300000Y-54125000D01*
X117301204Y-54100496D01*
X117304804Y-54076227D01*
X117310765Y-54052429D01*
X117319030Y-54029329D01*
X117329520Y-54007151D01*
X117342133Y-53986107D01*
X117356747Y-53966402D01*
X117373223Y-53948223D01*
X117391402Y-53931747D01*
X117411107Y-53917133D01*
X117432151Y-53904520D01*
X117454329Y-53894030D01*
X117477429Y-53885765D01*
X117501227Y-53879804D01*
X117525496Y-53876204D01*
X117550000Y-53875000D01*
X118475000Y-53875000D01*
X118499504Y-53876204D01*
X118499504Y-53876204D01*
G37*
D12*
X118012500Y-54750000D03*
D11*
G36*
X107573768Y-52626475D02*
G01*
X107603496Y-52630885D01*
X107632650Y-52638187D01*
X107660947Y-52648312D01*
X107688115Y-52661162D01*
X107713893Y-52676612D01*
X107738033Y-52694516D01*
X107760301Y-52714699D01*
X107780484Y-52736967D01*
X107798388Y-52761107D01*
X107813838Y-52786885D01*
X107826688Y-52814053D01*
X107836813Y-52842350D01*
X107844115Y-52871504D01*
X107848525Y-52901232D01*
X107850000Y-52931250D01*
X107850000Y-54068750D01*
X107848525Y-54098768D01*
X107844115Y-54128496D01*
X107836813Y-54157650D01*
X107826688Y-54185947D01*
X107813838Y-54213115D01*
X107798388Y-54238893D01*
X107780484Y-54263033D01*
X107760301Y-54285301D01*
X107738033Y-54305484D01*
X107713893Y-54323388D01*
X107688115Y-54338838D01*
X107660947Y-54351688D01*
X107632650Y-54361813D01*
X107603496Y-54369115D01*
X107573768Y-54373525D01*
X107543750Y-54375000D01*
X106356250Y-54375000D01*
X106326232Y-54373525D01*
X106296504Y-54369115D01*
X106267350Y-54361813D01*
X106239053Y-54351688D01*
X106211885Y-54338838D01*
X106186107Y-54323388D01*
X106161967Y-54305484D01*
X106139699Y-54285301D01*
X106119516Y-54263033D01*
X106101612Y-54238893D01*
X106086162Y-54213115D01*
X106073312Y-54185947D01*
X106063187Y-54157650D01*
X106055885Y-54128496D01*
X106051475Y-54098768D01*
X106050000Y-54068750D01*
X106050000Y-52931250D01*
X106051475Y-52901232D01*
X106055885Y-52871504D01*
X106063187Y-52842350D01*
X106073312Y-52814053D01*
X106086162Y-52786885D01*
X106101612Y-52761107D01*
X106119516Y-52736967D01*
X106139699Y-52714699D01*
X106161967Y-52694516D01*
X106186107Y-52676612D01*
X106211885Y-52661162D01*
X106239053Y-52648312D01*
X106267350Y-52638187D01*
X106296504Y-52630885D01*
X106326232Y-52626475D01*
X106356250Y-52625000D01*
X107543750Y-52625000D01*
X107573768Y-52626475D01*
X107573768Y-52626475D01*
G37*
D13*
X106950000Y-53500000D03*
D11*
G36*
X110173768Y-52626475D02*
G01*
X110203496Y-52630885D01*
X110232650Y-52638187D01*
X110260947Y-52648312D01*
X110288115Y-52661162D01*
X110313893Y-52676612D01*
X110338033Y-52694516D01*
X110360301Y-52714699D01*
X110380484Y-52736967D01*
X110398388Y-52761107D01*
X110413838Y-52786885D01*
X110426688Y-52814053D01*
X110436813Y-52842350D01*
X110444115Y-52871504D01*
X110448525Y-52901232D01*
X110450000Y-52931250D01*
X110450000Y-54068750D01*
X110448525Y-54098768D01*
X110444115Y-54128496D01*
X110436813Y-54157650D01*
X110426688Y-54185947D01*
X110413838Y-54213115D01*
X110398388Y-54238893D01*
X110380484Y-54263033D01*
X110360301Y-54285301D01*
X110338033Y-54305484D01*
X110313893Y-54323388D01*
X110288115Y-54338838D01*
X110260947Y-54351688D01*
X110232650Y-54361813D01*
X110203496Y-54369115D01*
X110173768Y-54373525D01*
X110143750Y-54375000D01*
X108956250Y-54375000D01*
X108926232Y-54373525D01*
X108896504Y-54369115D01*
X108867350Y-54361813D01*
X108839053Y-54351688D01*
X108811885Y-54338838D01*
X108786107Y-54323388D01*
X108761967Y-54305484D01*
X108739699Y-54285301D01*
X108719516Y-54263033D01*
X108701612Y-54238893D01*
X108686162Y-54213115D01*
X108673312Y-54185947D01*
X108663187Y-54157650D01*
X108655885Y-54128496D01*
X108651475Y-54098768D01*
X108650000Y-54068750D01*
X108650000Y-52931250D01*
X108651475Y-52901232D01*
X108655885Y-52871504D01*
X108663187Y-52842350D01*
X108673312Y-52814053D01*
X108686162Y-52786885D01*
X108701612Y-52761107D01*
X108719516Y-52736967D01*
X108739699Y-52714699D01*
X108761967Y-52694516D01*
X108786107Y-52676612D01*
X108811885Y-52661162D01*
X108839053Y-52648312D01*
X108867350Y-52638187D01*
X108896504Y-52630885D01*
X108926232Y-52626475D01*
X108956250Y-52625000D01*
X110143750Y-52625000D01*
X110173768Y-52626475D01*
X110173768Y-52626475D01*
G37*
D13*
X109550000Y-53500000D03*
D11*
G36*
X98923768Y-52626475D02*
G01*
X98953496Y-52630885D01*
X98982650Y-52638187D01*
X99010947Y-52648312D01*
X99038115Y-52661162D01*
X99063893Y-52676612D01*
X99088033Y-52694516D01*
X99110301Y-52714699D01*
X99130484Y-52736967D01*
X99148388Y-52761107D01*
X99163838Y-52786885D01*
X99176688Y-52814053D01*
X99186813Y-52842350D01*
X99194115Y-52871504D01*
X99198525Y-52901232D01*
X99200000Y-52931250D01*
X99200000Y-54068750D01*
X99198525Y-54098768D01*
X99194115Y-54128496D01*
X99186813Y-54157650D01*
X99176688Y-54185947D01*
X99163838Y-54213115D01*
X99148388Y-54238893D01*
X99130484Y-54263033D01*
X99110301Y-54285301D01*
X99088033Y-54305484D01*
X99063893Y-54323388D01*
X99038115Y-54338838D01*
X99010947Y-54351688D01*
X98982650Y-54361813D01*
X98953496Y-54369115D01*
X98923768Y-54373525D01*
X98893750Y-54375000D01*
X97706250Y-54375000D01*
X97676232Y-54373525D01*
X97646504Y-54369115D01*
X97617350Y-54361813D01*
X97589053Y-54351688D01*
X97561885Y-54338838D01*
X97536107Y-54323388D01*
X97511967Y-54305484D01*
X97489699Y-54285301D01*
X97469516Y-54263033D01*
X97451612Y-54238893D01*
X97436162Y-54213115D01*
X97423312Y-54185947D01*
X97413187Y-54157650D01*
X97405885Y-54128496D01*
X97401475Y-54098768D01*
X97400000Y-54068750D01*
X97400000Y-52931250D01*
X97401475Y-52901232D01*
X97405885Y-52871504D01*
X97413187Y-52842350D01*
X97423312Y-52814053D01*
X97436162Y-52786885D01*
X97451612Y-52761107D01*
X97469516Y-52736967D01*
X97489699Y-52714699D01*
X97511967Y-52694516D01*
X97536107Y-52676612D01*
X97561885Y-52661162D01*
X97589053Y-52648312D01*
X97617350Y-52638187D01*
X97646504Y-52630885D01*
X97676232Y-52626475D01*
X97706250Y-52625000D01*
X98893750Y-52625000D01*
X98923768Y-52626475D01*
X98923768Y-52626475D01*
G37*
D13*
X98300000Y-53500000D03*
D11*
G36*
X96323768Y-52626475D02*
G01*
X96353496Y-52630885D01*
X96382650Y-52638187D01*
X96410947Y-52648312D01*
X96438115Y-52661162D01*
X96463893Y-52676612D01*
X96488033Y-52694516D01*
X96510301Y-52714699D01*
X96530484Y-52736967D01*
X96548388Y-52761107D01*
X96563838Y-52786885D01*
X96576688Y-52814053D01*
X96586813Y-52842350D01*
X96594115Y-52871504D01*
X96598525Y-52901232D01*
X96600000Y-52931250D01*
X96600000Y-54068750D01*
X96598525Y-54098768D01*
X96594115Y-54128496D01*
X96586813Y-54157650D01*
X96576688Y-54185947D01*
X96563838Y-54213115D01*
X96548388Y-54238893D01*
X96530484Y-54263033D01*
X96510301Y-54285301D01*
X96488033Y-54305484D01*
X96463893Y-54323388D01*
X96438115Y-54338838D01*
X96410947Y-54351688D01*
X96382650Y-54361813D01*
X96353496Y-54369115D01*
X96323768Y-54373525D01*
X96293750Y-54375000D01*
X95106250Y-54375000D01*
X95076232Y-54373525D01*
X95046504Y-54369115D01*
X95017350Y-54361813D01*
X94989053Y-54351688D01*
X94961885Y-54338838D01*
X94936107Y-54323388D01*
X94911967Y-54305484D01*
X94889699Y-54285301D01*
X94869516Y-54263033D01*
X94851612Y-54238893D01*
X94836162Y-54213115D01*
X94823312Y-54185947D01*
X94813187Y-54157650D01*
X94805885Y-54128496D01*
X94801475Y-54098768D01*
X94800000Y-54068750D01*
X94800000Y-52931250D01*
X94801475Y-52901232D01*
X94805885Y-52871504D01*
X94813187Y-52842350D01*
X94823312Y-52814053D01*
X94836162Y-52786885D01*
X94851612Y-52761107D01*
X94869516Y-52736967D01*
X94889699Y-52714699D01*
X94911967Y-52694516D01*
X94936107Y-52676612D01*
X94961885Y-52661162D01*
X94989053Y-52648312D01*
X95017350Y-52638187D01*
X95046504Y-52630885D01*
X95076232Y-52626475D01*
X95106250Y-52625000D01*
X96293750Y-52625000D01*
X96323768Y-52626475D01*
X96323768Y-52626475D01*
G37*
D13*
X95700000Y-53500000D03*
D11*
G36*
X89724504Y-53376204D02*
G01*
X89748773Y-53379804D01*
X89772571Y-53385765D01*
X89795671Y-53394030D01*
X89817849Y-53404520D01*
X89838893Y-53417133D01*
X89858598Y-53431747D01*
X89876777Y-53448223D01*
X89893253Y-53466402D01*
X89907867Y-53486107D01*
X89920480Y-53507151D01*
X89930970Y-53529329D01*
X89939235Y-53552429D01*
X89945196Y-53576227D01*
X89948796Y-53600496D01*
X89950000Y-53625000D01*
X89950000Y-54875000D01*
X89948796Y-54899504D01*
X89945196Y-54923773D01*
X89939235Y-54947571D01*
X89930970Y-54970671D01*
X89920480Y-54992849D01*
X89907867Y-55013893D01*
X89893253Y-55033598D01*
X89876777Y-55051777D01*
X89858598Y-55068253D01*
X89838893Y-55082867D01*
X89817849Y-55095480D01*
X89795671Y-55105970D01*
X89772571Y-55114235D01*
X89748773Y-55120196D01*
X89724504Y-55123796D01*
X89700000Y-55125000D01*
X88775000Y-55125000D01*
X88750496Y-55123796D01*
X88726227Y-55120196D01*
X88702429Y-55114235D01*
X88679329Y-55105970D01*
X88657151Y-55095480D01*
X88636107Y-55082867D01*
X88616402Y-55068253D01*
X88598223Y-55051777D01*
X88581747Y-55033598D01*
X88567133Y-55013893D01*
X88554520Y-54992849D01*
X88544030Y-54970671D01*
X88535765Y-54947571D01*
X88529804Y-54923773D01*
X88526204Y-54899504D01*
X88525000Y-54875000D01*
X88525000Y-53625000D01*
X88526204Y-53600496D01*
X88529804Y-53576227D01*
X88535765Y-53552429D01*
X88544030Y-53529329D01*
X88554520Y-53507151D01*
X88567133Y-53486107D01*
X88581747Y-53466402D01*
X88598223Y-53448223D01*
X88616402Y-53431747D01*
X88636107Y-53417133D01*
X88657151Y-53404520D01*
X88679329Y-53394030D01*
X88702429Y-53385765D01*
X88726227Y-53379804D01*
X88750496Y-53376204D01*
X88775000Y-53375000D01*
X89700000Y-53375000D01*
X89724504Y-53376204D01*
X89724504Y-53376204D01*
G37*
D12*
X89237500Y-54250000D03*
D11*
G36*
X86749504Y-53376204D02*
G01*
X86773773Y-53379804D01*
X86797571Y-53385765D01*
X86820671Y-53394030D01*
X86842849Y-53404520D01*
X86863893Y-53417133D01*
X86883598Y-53431747D01*
X86901777Y-53448223D01*
X86918253Y-53466402D01*
X86932867Y-53486107D01*
X86945480Y-53507151D01*
X86955970Y-53529329D01*
X86964235Y-53552429D01*
X86970196Y-53576227D01*
X86973796Y-53600496D01*
X86975000Y-53625000D01*
X86975000Y-54875000D01*
X86973796Y-54899504D01*
X86970196Y-54923773D01*
X86964235Y-54947571D01*
X86955970Y-54970671D01*
X86945480Y-54992849D01*
X86932867Y-55013893D01*
X86918253Y-55033598D01*
X86901777Y-55051777D01*
X86883598Y-55068253D01*
X86863893Y-55082867D01*
X86842849Y-55095480D01*
X86820671Y-55105970D01*
X86797571Y-55114235D01*
X86773773Y-55120196D01*
X86749504Y-55123796D01*
X86725000Y-55125000D01*
X85800000Y-55125000D01*
X85775496Y-55123796D01*
X85751227Y-55120196D01*
X85727429Y-55114235D01*
X85704329Y-55105970D01*
X85682151Y-55095480D01*
X85661107Y-55082867D01*
X85641402Y-55068253D01*
X85623223Y-55051777D01*
X85606747Y-55033598D01*
X85592133Y-55013893D01*
X85579520Y-54992849D01*
X85569030Y-54970671D01*
X85560765Y-54947571D01*
X85554804Y-54923773D01*
X85551204Y-54899504D01*
X85550000Y-54875000D01*
X85550000Y-53625000D01*
X85551204Y-53600496D01*
X85554804Y-53576227D01*
X85560765Y-53552429D01*
X85569030Y-53529329D01*
X85579520Y-53507151D01*
X85592133Y-53486107D01*
X85606747Y-53466402D01*
X85623223Y-53448223D01*
X85641402Y-53431747D01*
X85661107Y-53417133D01*
X85682151Y-53404520D01*
X85704329Y-53394030D01*
X85727429Y-53385765D01*
X85751227Y-53379804D01*
X85775496Y-53376204D01*
X85800000Y-53375000D01*
X86725000Y-53375000D01*
X86749504Y-53376204D01*
X86749504Y-53376204D01*
G37*
D12*
X86262500Y-54250000D03*
D11*
G36*
X81899504Y-62276204D02*
G01*
X81923773Y-62279804D01*
X81947571Y-62285765D01*
X81970671Y-62294030D01*
X81992849Y-62304520D01*
X82013893Y-62317133D01*
X82033598Y-62331747D01*
X82051777Y-62348223D01*
X82068253Y-62366402D01*
X82082867Y-62386107D01*
X82095480Y-62407151D01*
X82105970Y-62429329D01*
X82114235Y-62452429D01*
X82120196Y-62476227D01*
X82123796Y-62500496D01*
X82125000Y-62525000D01*
X82125000Y-63450000D01*
X82123796Y-63474504D01*
X82120196Y-63498773D01*
X82114235Y-63522571D01*
X82105970Y-63545671D01*
X82095480Y-63567849D01*
X82082867Y-63588893D01*
X82068253Y-63608598D01*
X82051777Y-63626777D01*
X82033598Y-63643253D01*
X82013893Y-63657867D01*
X81992849Y-63670480D01*
X81970671Y-63680970D01*
X81947571Y-63689235D01*
X81923773Y-63695196D01*
X81899504Y-63698796D01*
X81875000Y-63700000D01*
X80625000Y-63700000D01*
X80600496Y-63698796D01*
X80576227Y-63695196D01*
X80552429Y-63689235D01*
X80529329Y-63680970D01*
X80507151Y-63670480D01*
X80486107Y-63657867D01*
X80466402Y-63643253D01*
X80448223Y-63626777D01*
X80431747Y-63608598D01*
X80417133Y-63588893D01*
X80404520Y-63567849D01*
X80394030Y-63545671D01*
X80385765Y-63522571D01*
X80379804Y-63498773D01*
X80376204Y-63474504D01*
X80375000Y-63450000D01*
X80375000Y-62525000D01*
X80376204Y-62500496D01*
X80379804Y-62476227D01*
X80385765Y-62452429D01*
X80394030Y-62429329D01*
X80404520Y-62407151D01*
X80417133Y-62386107D01*
X80431747Y-62366402D01*
X80448223Y-62348223D01*
X80466402Y-62331747D01*
X80486107Y-62317133D01*
X80507151Y-62304520D01*
X80529329Y-62294030D01*
X80552429Y-62285765D01*
X80576227Y-62279804D01*
X80600496Y-62276204D01*
X80625000Y-62275000D01*
X81875000Y-62275000D01*
X81899504Y-62276204D01*
X81899504Y-62276204D01*
G37*
D12*
X81250000Y-62987500D03*
D11*
G36*
X81899504Y-59301204D02*
G01*
X81923773Y-59304804D01*
X81947571Y-59310765D01*
X81970671Y-59319030D01*
X81992849Y-59329520D01*
X82013893Y-59342133D01*
X82033598Y-59356747D01*
X82051777Y-59373223D01*
X82068253Y-59391402D01*
X82082867Y-59411107D01*
X82095480Y-59432151D01*
X82105970Y-59454329D01*
X82114235Y-59477429D01*
X82120196Y-59501227D01*
X82123796Y-59525496D01*
X82125000Y-59550000D01*
X82125000Y-60475000D01*
X82123796Y-60499504D01*
X82120196Y-60523773D01*
X82114235Y-60547571D01*
X82105970Y-60570671D01*
X82095480Y-60592849D01*
X82082867Y-60613893D01*
X82068253Y-60633598D01*
X82051777Y-60651777D01*
X82033598Y-60668253D01*
X82013893Y-60682867D01*
X81992849Y-60695480D01*
X81970671Y-60705970D01*
X81947571Y-60714235D01*
X81923773Y-60720196D01*
X81899504Y-60723796D01*
X81875000Y-60725000D01*
X80625000Y-60725000D01*
X80600496Y-60723796D01*
X80576227Y-60720196D01*
X80552429Y-60714235D01*
X80529329Y-60705970D01*
X80507151Y-60695480D01*
X80486107Y-60682867D01*
X80466402Y-60668253D01*
X80448223Y-60651777D01*
X80431747Y-60633598D01*
X80417133Y-60613893D01*
X80404520Y-60592849D01*
X80394030Y-60570671D01*
X80385765Y-60547571D01*
X80379804Y-60523773D01*
X80376204Y-60499504D01*
X80375000Y-60475000D01*
X80375000Y-59550000D01*
X80376204Y-59525496D01*
X80379804Y-59501227D01*
X80385765Y-59477429D01*
X80394030Y-59454329D01*
X80404520Y-59432151D01*
X80417133Y-59411107D01*
X80431747Y-59391402D01*
X80448223Y-59373223D01*
X80466402Y-59356747D01*
X80486107Y-59342133D01*
X80507151Y-59329520D01*
X80529329Y-59319030D01*
X80552429Y-59310765D01*
X80576227Y-59304804D01*
X80600496Y-59301204D01*
X80625000Y-59300000D01*
X81875000Y-59300000D01*
X81899504Y-59301204D01*
X81899504Y-59301204D01*
G37*
D12*
X81250000Y-60012500D03*
M02*
