G04 #@! TF.GenerationSoftware,KiCad,Pcbnew,(5.1.4)-1*
G04 #@! TF.CreationDate,2021-09-05T23:40:41-04:00*
G04 #@! TF.ProjectId,ground_loop_breaker,67726f75-6e64-45f6-9c6f-6f705f627265,rev?*
G04 #@! TF.SameCoordinates,Original*
G04 #@! TF.FileFunction,Paste,Bot*
G04 #@! TF.FilePolarity,Positive*
%FSLAX46Y46*%
G04 Gerber Fmt 4.6, Leading zero omitted, Abs format (unit mm)*
G04 Created by KiCad (PCBNEW (5.1.4)-1) date 2021-09-05 23:40:41*
%MOMM*%
%LPD*%
G04 APERTURE LIST*
%ADD10R,1.050000X2.200000*%
%ADD11R,1.000000X1.050000*%
%ADD12C,0.100000*%
%ADD13C,1.425000*%
%ADD14R,2.200000X1.050000*%
%ADD15R,1.050000X1.000000*%
G04 APERTURE END LIST*
D10*
X136975000Y-131025000D03*
D11*
X135500000Y-132550000D03*
D10*
X134025000Y-131025000D03*
D12*
G36*
X97749504Y-138626204D02*
G01*
X97773773Y-138629804D01*
X97797571Y-138635765D01*
X97820671Y-138644030D01*
X97842849Y-138654520D01*
X97863893Y-138667133D01*
X97883598Y-138681747D01*
X97901777Y-138698223D01*
X97918253Y-138716402D01*
X97932867Y-138736107D01*
X97945480Y-138757151D01*
X97955970Y-138779329D01*
X97964235Y-138802429D01*
X97970196Y-138826227D01*
X97973796Y-138850496D01*
X97975000Y-138875000D01*
X97975000Y-140125000D01*
X97973796Y-140149504D01*
X97970196Y-140173773D01*
X97964235Y-140197571D01*
X97955970Y-140220671D01*
X97945480Y-140242849D01*
X97932867Y-140263893D01*
X97918253Y-140283598D01*
X97901777Y-140301777D01*
X97883598Y-140318253D01*
X97863893Y-140332867D01*
X97842849Y-140345480D01*
X97820671Y-140355970D01*
X97797571Y-140364235D01*
X97773773Y-140370196D01*
X97749504Y-140373796D01*
X97725000Y-140375000D01*
X96800000Y-140375000D01*
X96775496Y-140373796D01*
X96751227Y-140370196D01*
X96727429Y-140364235D01*
X96704329Y-140355970D01*
X96682151Y-140345480D01*
X96661107Y-140332867D01*
X96641402Y-140318253D01*
X96623223Y-140301777D01*
X96606747Y-140283598D01*
X96592133Y-140263893D01*
X96579520Y-140242849D01*
X96569030Y-140220671D01*
X96560765Y-140197571D01*
X96554804Y-140173773D01*
X96551204Y-140149504D01*
X96550000Y-140125000D01*
X96550000Y-138875000D01*
X96551204Y-138850496D01*
X96554804Y-138826227D01*
X96560765Y-138802429D01*
X96569030Y-138779329D01*
X96579520Y-138757151D01*
X96592133Y-138736107D01*
X96606747Y-138716402D01*
X96623223Y-138698223D01*
X96641402Y-138681747D01*
X96661107Y-138667133D01*
X96682151Y-138654520D01*
X96704329Y-138644030D01*
X96727429Y-138635765D01*
X96751227Y-138629804D01*
X96775496Y-138626204D01*
X96800000Y-138625000D01*
X97725000Y-138625000D01*
X97749504Y-138626204D01*
X97749504Y-138626204D01*
G37*
D13*
X97262500Y-139500000D03*
D12*
G36*
X100724504Y-138626204D02*
G01*
X100748773Y-138629804D01*
X100772571Y-138635765D01*
X100795671Y-138644030D01*
X100817849Y-138654520D01*
X100838893Y-138667133D01*
X100858598Y-138681747D01*
X100876777Y-138698223D01*
X100893253Y-138716402D01*
X100907867Y-138736107D01*
X100920480Y-138757151D01*
X100930970Y-138779329D01*
X100939235Y-138802429D01*
X100945196Y-138826227D01*
X100948796Y-138850496D01*
X100950000Y-138875000D01*
X100950000Y-140125000D01*
X100948796Y-140149504D01*
X100945196Y-140173773D01*
X100939235Y-140197571D01*
X100930970Y-140220671D01*
X100920480Y-140242849D01*
X100907867Y-140263893D01*
X100893253Y-140283598D01*
X100876777Y-140301777D01*
X100858598Y-140318253D01*
X100838893Y-140332867D01*
X100817849Y-140345480D01*
X100795671Y-140355970D01*
X100772571Y-140364235D01*
X100748773Y-140370196D01*
X100724504Y-140373796D01*
X100700000Y-140375000D01*
X99775000Y-140375000D01*
X99750496Y-140373796D01*
X99726227Y-140370196D01*
X99702429Y-140364235D01*
X99679329Y-140355970D01*
X99657151Y-140345480D01*
X99636107Y-140332867D01*
X99616402Y-140318253D01*
X99598223Y-140301777D01*
X99581747Y-140283598D01*
X99567133Y-140263893D01*
X99554520Y-140242849D01*
X99544030Y-140220671D01*
X99535765Y-140197571D01*
X99529804Y-140173773D01*
X99526204Y-140149504D01*
X99525000Y-140125000D01*
X99525000Y-138875000D01*
X99526204Y-138850496D01*
X99529804Y-138826227D01*
X99535765Y-138802429D01*
X99544030Y-138779329D01*
X99554520Y-138757151D01*
X99567133Y-138736107D01*
X99581747Y-138716402D01*
X99598223Y-138698223D01*
X99616402Y-138681747D01*
X99636107Y-138667133D01*
X99657151Y-138654520D01*
X99679329Y-138644030D01*
X99702429Y-138635765D01*
X99726227Y-138629804D01*
X99750496Y-138626204D01*
X99775000Y-138625000D01*
X100700000Y-138625000D01*
X100724504Y-138626204D01*
X100724504Y-138626204D01*
G37*
D13*
X100237500Y-139500000D03*
D14*
X142975000Y-103225000D03*
D15*
X141450000Y-101750000D03*
D14*
X142975000Y-100275000D03*
X142975000Y-83225000D03*
D15*
X141450000Y-81750000D03*
D14*
X142975000Y-80275000D03*
D10*
X136975000Y-113525000D03*
D11*
X135500000Y-115050000D03*
D10*
X134025000Y-113525000D03*
D12*
G36*
X97749504Y-121126204D02*
G01*
X97773773Y-121129804D01*
X97797571Y-121135765D01*
X97820671Y-121144030D01*
X97842849Y-121154520D01*
X97863893Y-121167133D01*
X97883598Y-121181747D01*
X97901777Y-121198223D01*
X97918253Y-121216402D01*
X97932867Y-121236107D01*
X97945480Y-121257151D01*
X97955970Y-121279329D01*
X97964235Y-121302429D01*
X97970196Y-121326227D01*
X97973796Y-121350496D01*
X97975000Y-121375000D01*
X97975000Y-122625000D01*
X97973796Y-122649504D01*
X97970196Y-122673773D01*
X97964235Y-122697571D01*
X97955970Y-122720671D01*
X97945480Y-122742849D01*
X97932867Y-122763893D01*
X97918253Y-122783598D01*
X97901777Y-122801777D01*
X97883598Y-122818253D01*
X97863893Y-122832867D01*
X97842849Y-122845480D01*
X97820671Y-122855970D01*
X97797571Y-122864235D01*
X97773773Y-122870196D01*
X97749504Y-122873796D01*
X97725000Y-122875000D01*
X96800000Y-122875000D01*
X96775496Y-122873796D01*
X96751227Y-122870196D01*
X96727429Y-122864235D01*
X96704329Y-122855970D01*
X96682151Y-122845480D01*
X96661107Y-122832867D01*
X96641402Y-122818253D01*
X96623223Y-122801777D01*
X96606747Y-122783598D01*
X96592133Y-122763893D01*
X96579520Y-122742849D01*
X96569030Y-122720671D01*
X96560765Y-122697571D01*
X96554804Y-122673773D01*
X96551204Y-122649504D01*
X96550000Y-122625000D01*
X96550000Y-121375000D01*
X96551204Y-121350496D01*
X96554804Y-121326227D01*
X96560765Y-121302429D01*
X96569030Y-121279329D01*
X96579520Y-121257151D01*
X96592133Y-121236107D01*
X96606747Y-121216402D01*
X96623223Y-121198223D01*
X96641402Y-121181747D01*
X96661107Y-121167133D01*
X96682151Y-121154520D01*
X96704329Y-121144030D01*
X96727429Y-121135765D01*
X96751227Y-121129804D01*
X96775496Y-121126204D01*
X96800000Y-121125000D01*
X97725000Y-121125000D01*
X97749504Y-121126204D01*
X97749504Y-121126204D01*
G37*
D13*
X97262500Y-122000000D03*
D12*
G36*
X100724504Y-121126204D02*
G01*
X100748773Y-121129804D01*
X100772571Y-121135765D01*
X100795671Y-121144030D01*
X100817849Y-121154520D01*
X100838893Y-121167133D01*
X100858598Y-121181747D01*
X100876777Y-121198223D01*
X100893253Y-121216402D01*
X100907867Y-121236107D01*
X100920480Y-121257151D01*
X100930970Y-121279329D01*
X100939235Y-121302429D01*
X100945196Y-121326227D01*
X100948796Y-121350496D01*
X100950000Y-121375000D01*
X100950000Y-122625000D01*
X100948796Y-122649504D01*
X100945196Y-122673773D01*
X100939235Y-122697571D01*
X100930970Y-122720671D01*
X100920480Y-122742849D01*
X100907867Y-122763893D01*
X100893253Y-122783598D01*
X100876777Y-122801777D01*
X100858598Y-122818253D01*
X100838893Y-122832867D01*
X100817849Y-122845480D01*
X100795671Y-122855970D01*
X100772571Y-122864235D01*
X100748773Y-122870196D01*
X100724504Y-122873796D01*
X100700000Y-122875000D01*
X99775000Y-122875000D01*
X99750496Y-122873796D01*
X99726227Y-122870196D01*
X99702429Y-122864235D01*
X99679329Y-122855970D01*
X99657151Y-122845480D01*
X99636107Y-122832867D01*
X99616402Y-122818253D01*
X99598223Y-122801777D01*
X99581747Y-122783598D01*
X99567133Y-122763893D01*
X99554520Y-122742849D01*
X99544030Y-122720671D01*
X99535765Y-122697571D01*
X99529804Y-122673773D01*
X99526204Y-122649504D01*
X99525000Y-122625000D01*
X99525000Y-121375000D01*
X99526204Y-121350496D01*
X99529804Y-121326227D01*
X99535765Y-121302429D01*
X99544030Y-121279329D01*
X99554520Y-121257151D01*
X99567133Y-121236107D01*
X99581747Y-121216402D01*
X99598223Y-121198223D01*
X99616402Y-121181747D01*
X99636107Y-121167133D01*
X99657151Y-121154520D01*
X99679329Y-121144030D01*
X99702429Y-121135765D01*
X99726227Y-121129804D01*
X99750496Y-121126204D01*
X99775000Y-121125000D01*
X100700000Y-121125000D01*
X100724504Y-121126204D01*
X100724504Y-121126204D01*
G37*
D13*
X100237500Y-122000000D03*
D14*
X142975000Y-63225000D03*
D15*
X141450000Y-61750000D03*
D14*
X142975000Y-60275000D03*
M02*
