%FSLAX45Y45*%
G04 Gerber Fmt 4.5, Leading zero omitted, Abs format (unit mm)*
G04 Created by KiCad (PCBNEW (5.1.4)-1) date 2021-09-05 23:37:09*
%MOMM*%
%LPD*%
G04 APERTURE LIST*
%ADD10C,0.050000*%
%ADD11C,0.200000*%
%ADD12C,0.300000*%
G04 APERTURE END LIST*
D10*
X15000000Y-5000000D02*
X7500000Y-5000000D01*
X15000000Y-11000000D02*
X15000000Y-5000000D01*
X14250000Y-11000000D02*
X15000000Y-11000000D01*
X14250000Y-14250000D02*
X14250000Y-11000000D01*
X7500000Y-14250000D02*
X14250000Y-14250000D01*
X7500000Y-5000000D02*
X7500000Y-14250000D01*
D11*
X7630000Y-11930000D02*
X7670000Y-11970000D01*
X7670000Y-11930000D02*
X7630000Y-11970000D01*
X7630000Y-12205000D02*
X7670000Y-12245000D01*
X7670000Y-12205000D02*
X7630000Y-12245000D01*
X7630000Y-13905000D02*
X7670000Y-13945000D01*
X7670000Y-13905000D02*
X7630000Y-13945000D01*
X7730000Y-5480000D02*
X7770000Y-5520000D01*
X7770000Y-5480000D02*
X7730000Y-5520000D01*
X7730000Y-7480000D02*
X7770000Y-7520000D01*
X7770000Y-7480000D02*
X7730000Y-7520000D01*
X7730000Y-9480000D02*
X7770000Y-9520000D01*
X7770000Y-9480000D02*
X7730000Y-9520000D01*
X8105000Y-6278750D02*
X8145000Y-6318750D01*
X8145000Y-6278750D02*
X8105000Y-6318750D01*
X8105000Y-8278750D02*
X8145000Y-8318750D01*
X8145000Y-8278750D02*
X8105000Y-8318750D01*
X8105000Y-10278750D02*
X8145000Y-10318750D01*
X8145000Y-10278750D02*
X8105000Y-10318750D01*
X8130000Y-5155000D02*
X8170000Y-5195000D01*
X8170000Y-5155000D02*
X8130000Y-5195000D01*
X8130000Y-7155000D02*
X8170000Y-7195000D01*
X8170000Y-7155000D02*
X8130000Y-7195000D01*
X8130000Y-9155000D02*
X8170000Y-9195000D01*
X8170000Y-9155000D02*
X8130000Y-9195000D01*
X8130000Y-11381250D02*
X8170000Y-11421250D01*
X8170000Y-11381250D02*
X8130000Y-11421250D01*
X8153750Y-13131250D02*
X8193750Y-13171250D01*
X8193750Y-13131250D02*
X8153750Y-13171250D01*
X8306250Y-6278750D02*
X8346250Y-6318750D01*
X8346250Y-6278750D02*
X8306250Y-6318750D01*
X8306250Y-8278750D02*
X8346250Y-8318750D01*
X8346250Y-8278750D02*
X8306250Y-8318750D01*
X8306250Y-10278750D02*
X8346250Y-10318750D01*
X8346250Y-10278750D02*
X8306250Y-10318750D01*
X8405000Y-5905000D02*
X8445000Y-5945000D01*
X8445000Y-5905000D02*
X8405000Y-5945000D01*
X8405000Y-7905000D02*
X8445000Y-7945000D01*
X8445000Y-7905000D02*
X8405000Y-7945000D01*
X8405000Y-9905000D02*
X8445000Y-9945000D01*
X8445000Y-9905000D02*
X8405000Y-9945000D01*
X8428750Y-11381250D02*
X8468750Y-11421250D01*
X8468750Y-11381250D02*
X8428750Y-11421250D01*
X8428750Y-13131250D02*
X8468750Y-13171250D01*
X8468750Y-13131250D02*
X8428750Y-13171250D01*
X8455000Y-14005000D02*
X8495000Y-14045000D01*
X8495000Y-14005000D02*
X8455000Y-14045000D01*
X8480000Y-12305000D02*
X8520000Y-12345000D01*
X8520000Y-12305000D02*
X8480000Y-12345000D01*
X8903750Y-5405000D02*
X8943750Y-5445000D01*
X8943750Y-5405000D02*
X8903750Y-5445000D01*
X8903750Y-7405000D02*
X8943750Y-7445000D01*
X8943750Y-7405000D02*
X8903750Y-7445000D01*
X8903750Y-9405000D02*
X8943750Y-9445000D01*
X8943750Y-9405000D02*
X8903750Y-9445000D01*
X9017500Y-11742500D02*
X9057500Y-11782500D01*
X9057500Y-11742500D02*
X9017500Y-11782500D01*
X9055000Y-13530000D02*
X9095000Y-13570000D01*
X9095000Y-13530000D02*
X9055000Y-13570000D01*
X9130000Y-12180000D02*
X9170000Y-12220000D01*
X9170000Y-12180000D02*
X9130000Y-12220000D01*
X9130000Y-13930000D02*
X9170000Y-13970000D01*
X9170000Y-13930000D02*
X9130000Y-13970000D01*
X9205000Y-5405000D02*
X9245000Y-5445000D01*
X9245000Y-5405000D02*
X9205000Y-5445000D01*
X9205000Y-7405000D02*
X9245000Y-7445000D01*
X9245000Y-7405000D02*
X9205000Y-7445000D01*
X9205000Y-9405000D02*
X9245000Y-9445000D01*
X9245000Y-9405000D02*
X9205000Y-9445000D01*
X9205000Y-13605000D02*
X9245000Y-13645000D01*
X9245000Y-13605000D02*
X9205000Y-13645000D01*
X9230000Y-12180000D02*
X9270000Y-12220000D01*
X9270000Y-12180000D02*
X9230000Y-12220000D01*
X9230000Y-13930000D02*
X9270000Y-13970000D01*
X9270000Y-13930000D02*
X9230000Y-13970000D01*
X9355000Y-12180000D02*
X9395000Y-12220000D01*
X9395000Y-12180000D02*
X9355000Y-12220000D01*
X9355000Y-13930000D02*
X9395000Y-13970000D01*
X9395000Y-13930000D02*
X9355000Y-13970000D01*
X9859000Y-5526000D02*
X9899000Y-5566000D01*
X9899000Y-5526000D02*
X9859000Y-5566000D01*
X9859000Y-7526000D02*
X9899000Y-7566000D01*
X9899000Y-7526000D02*
X9859000Y-7566000D01*
X9859000Y-9526000D02*
X9899000Y-9566000D01*
X9899000Y-9526000D02*
X9859000Y-9566000D01*
X10055000Y-12180000D02*
X10095000Y-12220000D01*
X10095000Y-12180000D02*
X10055000Y-12220000D01*
X10055000Y-13930000D02*
X10095000Y-13970000D01*
X10095000Y-13930000D02*
X10055000Y-13970000D01*
X10367000Y-5543000D02*
X10407000Y-5583000D01*
X10407000Y-5543000D02*
X10367000Y-5583000D01*
X10367000Y-7543000D02*
X10407000Y-7583000D01*
X10407000Y-7543000D02*
X10367000Y-7583000D01*
X10367000Y-9543000D02*
X10407000Y-9583000D01*
X10407000Y-9543000D02*
X10367000Y-9583000D01*
X10555000Y-11780000D02*
X10595000Y-11820000D01*
X10595000Y-11780000D02*
X10555000Y-11820000D01*
X10705000Y-13280000D02*
X10745000Y-13320000D01*
X10745000Y-13280000D02*
X10705000Y-13320000D01*
X10880000Y-12180000D02*
X10920000Y-12220000D01*
X10920000Y-12180000D02*
X10880000Y-12220000D01*
X10880000Y-13930000D02*
X10920000Y-13970000D01*
X10920000Y-13930000D02*
X10880000Y-13970000D01*
X11130000Y-13955000D02*
X11170000Y-13995000D01*
X11170000Y-13955000D02*
X11130000Y-13995000D01*
X11330000Y-13255000D02*
X11370000Y-13295000D01*
X11370000Y-13255000D02*
X11330000Y-13295000D01*
X11405000Y-12205000D02*
X11445000Y-12245000D01*
X11445000Y-12205000D02*
X11405000Y-12245000D01*
X11430000Y-5805000D02*
X11470000Y-5845000D01*
X11470000Y-5805000D02*
X11430000Y-5845000D01*
X11430000Y-7805000D02*
X11470000Y-7845000D01*
X11470000Y-7805000D02*
X11430000Y-7845000D01*
X11430000Y-9805000D02*
X11470000Y-9845000D01*
X11470000Y-9805000D02*
X11430000Y-9845000D01*
X11430000Y-11355000D02*
X11470000Y-11395000D01*
X11470000Y-11355000D02*
X11430000Y-11395000D01*
X12080000Y-5230000D02*
X12120000Y-5270000D01*
X12120000Y-5230000D02*
X12080000Y-5270000D01*
X12080000Y-7230000D02*
X12120000Y-7270000D01*
X12120000Y-7230000D02*
X12080000Y-7270000D01*
X12080000Y-9230000D02*
X12120000Y-9270000D01*
X12120000Y-9230000D02*
X12080000Y-9270000D01*
X12305000Y-6405000D02*
X12345000Y-6445000D01*
X12345000Y-6405000D02*
X12305000Y-6445000D01*
X12305000Y-8405000D02*
X12345000Y-8445000D01*
X12345000Y-8405000D02*
X12305000Y-8445000D01*
X12305000Y-10405000D02*
X12345000Y-10445000D01*
X12345000Y-10405000D02*
X12305000Y-10445000D01*
X12605000Y-12080000D02*
X12645000Y-12120000D01*
X12645000Y-12080000D02*
X12605000Y-12120000D01*
X12705000Y-13630000D02*
X12745000Y-13670000D01*
X12745000Y-13630000D02*
X12705000Y-13670000D01*
X12830000Y-6405000D02*
X12870000Y-6445000D01*
X12870000Y-6405000D02*
X12830000Y-6445000D01*
X12830000Y-8405000D02*
X12870000Y-8445000D01*
X12870000Y-8405000D02*
X12830000Y-8445000D01*
X12830000Y-10405000D02*
X12870000Y-10445000D01*
X12870000Y-10405000D02*
X12830000Y-10445000D01*
X13305000Y-13955000D02*
X13345000Y-13995000D01*
X13345000Y-13955000D02*
X13305000Y-13995000D01*
X13380000Y-11330000D02*
X13420000Y-11370000D01*
X13420000Y-11330000D02*
X13380000Y-11370000D01*
X13380000Y-12205000D02*
X13420000Y-12245000D01*
X13420000Y-12205000D02*
X13380000Y-12245000D01*
X13380000Y-13080000D02*
X13420000Y-13120000D01*
X13420000Y-13080000D02*
X13380000Y-13120000D01*
X13405000Y-6405000D02*
X13445000Y-6445000D01*
X13445000Y-6405000D02*
X13405000Y-6445000D01*
X13405000Y-8405000D02*
X13445000Y-8445000D01*
X13445000Y-8405000D02*
X13405000Y-8445000D01*
X13405000Y-10405000D02*
X13445000Y-10445000D01*
X13445000Y-10405000D02*
X13405000Y-10445000D01*
X13605000Y-5555000D02*
X13645000Y-5595000D01*
X13645000Y-5555000D02*
X13605000Y-5595000D01*
X13605000Y-7555000D02*
X13645000Y-7595000D01*
X13645000Y-7555000D02*
X13605000Y-7595000D01*
X13605000Y-9555000D02*
X13645000Y-9595000D01*
X13645000Y-9555000D02*
X13605000Y-9595000D01*
X13680000Y-12205000D02*
X13720000Y-12245000D01*
X13720000Y-12205000D02*
X13680000Y-12245000D01*
X13680000Y-13955000D02*
X13720000Y-13995000D01*
X13720000Y-13955000D02*
X13680000Y-13995000D01*
X13980000Y-11280000D02*
X14020000Y-11320000D01*
X14020000Y-11280000D02*
X13980000Y-11320000D01*
X13980000Y-13030000D02*
X14020000Y-13070000D01*
X14020000Y-13030000D02*
X13980000Y-13070000D01*
X14180000Y-5305000D02*
X14220000Y-5345000D01*
X14220000Y-5305000D02*
X14180000Y-5345000D01*
X14180000Y-7305000D02*
X14220000Y-7345000D01*
X14220000Y-7305000D02*
X14180000Y-7345000D01*
X14180000Y-9305000D02*
X14220000Y-9345000D01*
X14220000Y-9305000D02*
X14180000Y-9345000D01*
X14780000Y-5355000D02*
X14820000Y-5395000D01*
X14820000Y-5355000D02*
X14780000Y-5395000D01*
X14780000Y-7355000D02*
X14820000Y-7395000D01*
X14820000Y-7355000D02*
X14780000Y-7395000D01*
X14780000Y-9355000D02*
X14820000Y-9395000D01*
X14820000Y-9355000D02*
X14780000Y-9395000D01*
X10990000Y-11725000D02*
G75*
G03X10990000Y-11725000I-40000J0D01*
G01*
X11065000Y-11450000D02*
G75*
G03X11065000Y-11450000I-40000J0D01*
G01*
X11065000Y-11800000D02*
G75*
G03X11065000Y-11800000I-40000J0D01*
G01*
X11065000Y-11800000D02*
G75*
G03X11065000Y-11800000I-40000J0D01*
G01*
X11140000Y-11525000D02*
G75*
G03X11140000Y-11525000I-40000J0D01*
G01*
X8690000Y-6150000D02*
G75*
G03X8690000Y-6150000I-40000J0D01*
G01*
X8765000Y-5875000D02*
G75*
G03X8765000Y-5875000I-40000J0D01*
G01*
X8765000Y-5875000D02*
G75*
G03X8765000Y-5875000I-40000J0D01*
G01*
X8765000Y-6225000D02*
G75*
G03X8765000Y-6225000I-40000J0D01*
G01*
X8840000Y-5950000D02*
G75*
G03X8840000Y-5950000I-40000J0D01*
G01*
X10990000Y-13475000D02*
G75*
G03X10990000Y-13475000I-40000J0D01*
G01*
X11065000Y-13200000D02*
G75*
G03X11065000Y-13200000I-40000J0D01*
G01*
X11065000Y-13550000D02*
G75*
G03X11065000Y-13550000I-40000J0D01*
G01*
X11065000Y-13550000D02*
G75*
G03X11065000Y-13550000I-40000J0D01*
G01*
X11140000Y-13275000D02*
G75*
G03X11140000Y-13275000I-40000J0D01*
G01*
X8690000Y-13475000D02*
G75*
G03X8690000Y-13475000I-40000J0D01*
G01*
X8765000Y-13200000D02*
G75*
G03X8765000Y-13200000I-40000J0D01*
G01*
X8765000Y-13550000D02*
G75*
G03X8765000Y-13550000I-40000J0D01*
G01*
X8765000Y-13550000D02*
G75*
G03X8765000Y-13550000I-40000J0D01*
G01*
X8840000Y-13275000D02*
G75*
G03X8840000Y-13275000I-40000J0D01*
G01*
X8690000Y-8150000D02*
G75*
G03X8690000Y-8150000I-40000J0D01*
G01*
X8765000Y-7875000D02*
G75*
G03X8765000Y-7875000I-40000J0D01*
G01*
X8765000Y-7875000D02*
G75*
G03X8765000Y-7875000I-40000J0D01*
G01*
X8765000Y-8225000D02*
G75*
G03X8765000Y-8225000I-40000J0D01*
G01*
X8840000Y-7950000D02*
G75*
G03X8840000Y-7950000I-40000J0D01*
G01*
X11765000Y-10150000D02*
G75*
G03X11765000Y-10150000I-40000J0D01*
G01*
X11840000Y-9875000D02*
G75*
G03X11840000Y-9875000I-40000J0D01*
G01*
X11840000Y-9875000D02*
G75*
G03X11840000Y-9875000I-40000J0D01*
G01*
X11840000Y-10225000D02*
G75*
G03X11840000Y-10225000I-40000J0D01*
G01*
X11915000Y-9950000D02*
G75*
G03X11915000Y-9950000I-40000J0D01*
G01*
X8690000Y-11725000D02*
G75*
G03X8690000Y-11725000I-40000J0D01*
G01*
X8765000Y-11450000D02*
G75*
G03X8765000Y-11450000I-40000J0D01*
G01*
X8765000Y-11800000D02*
G75*
G03X8765000Y-11800000I-40000J0D01*
G01*
X8765000Y-11800000D02*
G75*
G03X8765000Y-11800000I-40000J0D01*
G01*
X8840000Y-11525000D02*
G75*
G03X8840000Y-11525000I-40000J0D01*
G01*
X11765000Y-6150000D02*
G75*
G03X11765000Y-6150000I-40000J0D01*
G01*
X11840000Y-5875000D02*
G75*
G03X11840000Y-5875000I-40000J0D01*
G01*
X11840000Y-5875000D02*
G75*
G03X11840000Y-5875000I-40000J0D01*
G01*
X11840000Y-6225000D02*
G75*
G03X11840000Y-6225000I-40000J0D01*
G01*
X11915000Y-5950000D02*
G75*
G03X11915000Y-5950000I-40000J0D01*
G01*
X11765000Y-8150000D02*
G75*
G03X11765000Y-8150000I-40000J0D01*
G01*
X11840000Y-7875000D02*
G75*
G03X11840000Y-7875000I-40000J0D01*
G01*
X11840000Y-7875000D02*
G75*
G03X11840000Y-7875000I-40000J0D01*
G01*
X11840000Y-8225000D02*
G75*
G03X11840000Y-8225000I-40000J0D01*
G01*
X11915000Y-7950000D02*
G75*
G03X11915000Y-7950000I-40000J0D01*
G01*
X8690000Y-10150000D02*
G75*
G03X8690000Y-10150000I-40000J0D01*
G01*
X8765000Y-9875000D02*
G75*
G03X8765000Y-9875000I-40000J0D01*
G01*
X8765000Y-9875000D02*
G75*
G03X8765000Y-9875000I-40000J0D01*
G01*
X8765000Y-10225000D02*
G75*
G03X8765000Y-10225000I-40000J0D01*
G01*
X8840000Y-9950000D02*
G75*
G03X8840000Y-9950000I-40000J0D01*
G01*
X9500000Y-13575000D02*
X9500000Y-13675000D01*
X9450000Y-13625000D02*
X9550000Y-13625000D01*
X9754000Y-13575000D02*
X9754000Y-13675000D01*
X9704000Y-13625000D02*
X9804000Y-13625000D01*
X10008000Y-13575000D02*
X10008000Y-13675000D01*
X9958000Y-13625000D02*
X10058000Y-13625000D01*
X10262000Y-13575000D02*
X10262000Y-13675000D01*
X10212000Y-13625000D02*
X10312000Y-13625000D01*
X13800000Y-5900000D02*
X13800000Y-6000000D01*
X13750000Y-5950000D02*
X13850000Y-5950000D01*
X13925000Y-5525000D02*
X13925000Y-5625000D01*
X13875000Y-5575000D02*
X13975000Y-5575000D01*
X13925000Y-6025000D02*
X13925000Y-6125000D01*
X13875000Y-6075000D02*
X13975000Y-6075000D01*
X14050000Y-5650000D02*
X14050000Y-5750000D01*
X14000000Y-5700000D02*
X14100000Y-5700000D01*
X14700000Y-7646000D02*
X14700000Y-7746000D01*
X14650000Y-7696000D02*
X14750000Y-7696000D01*
X14700000Y-7900000D02*
X14700000Y-8000000D01*
X14650000Y-7950000D02*
X14750000Y-7950000D01*
X13025000Y-11850000D02*
X13025000Y-11950000D01*
X12975000Y-11900000D02*
X13075000Y-11900000D01*
X13150000Y-11475000D02*
X13150000Y-11575000D01*
X13100000Y-11525000D02*
X13200000Y-11525000D01*
X13150000Y-11975000D02*
X13150000Y-12075000D01*
X13100000Y-12025000D02*
X13200000Y-12025000D01*
X13275000Y-11600000D02*
X13275000Y-11700000D01*
X13225000Y-11650000D02*
X13325000Y-11650000D01*
X13800000Y-9900000D02*
X13800000Y-10000000D01*
X13750000Y-9950000D02*
X13850000Y-9950000D01*
X13925000Y-9525000D02*
X13925000Y-9625000D01*
X13875000Y-9575000D02*
X13975000Y-9575000D01*
X13925000Y-10025000D02*
X13925000Y-10125000D01*
X13875000Y-10075000D02*
X13975000Y-10075000D01*
X14050000Y-9650000D02*
X14050000Y-9750000D01*
X14000000Y-9700000D02*
X14100000Y-9700000D01*
X13800000Y-7900000D02*
X13800000Y-8000000D01*
X13750000Y-7950000D02*
X13850000Y-7950000D01*
X13925000Y-7525000D02*
X13925000Y-7625000D01*
X13875000Y-7575000D02*
X13975000Y-7575000D01*
X13925000Y-8025000D02*
X13925000Y-8125000D01*
X13875000Y-8075000D02*
X13975000Y-8075000D01*
X14050000Y-7650000D02*
X14050000Y-7750000D01*
X14000000Y-7700000D02*
X14100000Y-7700000D01*
X9500000Y-11825000D02*
X9500000Y-11925000D01*
X9450000Y-11875000D02*
X9550000Y-11875000D01*
X9754000Y-11825000D02*
X9754000Y-11925000D01*
X9704000Y-11875000D02*
X9804000Y-11875000D01*
X10008000Y-11825000D02*
X10008000Y-11925000D01*
X9958000Y-11875000D02*
X10058000Y-11875000D01*
X10262000Y-11825000D02*
X10262000Y-11925000D01*
X10212000Y-11875000D02*
X10312000Y-11875000D01*
X13025000Y-13600000D02*
X13025000Y-13700000D01*
X12975000Y-13650000D02*
X13075000Y-13650000D01*
X13150000Y-13225000D02*
X13150000Y-13325000D01*
X13100000Y-13275000D02*
X13200000Y-13275000D01*
X13150000Y-13725000D02*
X13150000Y-13825000D01*
X13100000Y-13775000D02*
X13200000Y-13775000D01*
X13275000Y-13350000D02*
X13275000Y-13450000D01*
X13225000Y-13400000D02*
X13325000Y-13400000D01*
X13950000Y-13325000D02*
X13950000Y-13425000D01*
X13900000Y-13375000D02*
X14000000Y-13375000D01*
X13950000Y-13579000D02*
X13950000Y-13679000D01*
X13900000Y-13629000D02*
X14000000Y-13629000D01*
X7800000Y-13075000D02*
X7800000Y-13175000D01*
X7750000Y-13125000D02*
X7850000Y-13125000D01*
X7800000Y-13329000D02*
X7800000Y-13429000D01*
X7750000Y-13379000D02*
X7850000Y-13379000D01*
X7800000Y-11325000D02*
X7800000Y-11425000D01*
X7750000Y-11375000D02*
X7850000Y-11375000D01*
X7800000Y-11579000D02*
X7800000Y-11679000D01*
X7750000Y-11629000D02*
X7850000Y-11629000D01*
X7800000Y-5921000D02*
X7800000Y-6021000D01*
X7750000Y-5971000D02*
X7850000Y-5971000D01*
X7800000Y-6175000D02*
X7800000Y-6275000D01*
X7750000Y-6225000D02*
X7850000Y-6225000D01*
X13950000Y-11575000D02*
X13950000Y-11675000D01*
X13900000Y-11625000D02*
X14000000Y-11625000D01*
X13950000Y-11829000D02*
X13950000Y-11929000D01*
X13900000Y-11879000D02*
X14000000Y-11879000D01*
X7800000Y-9921000D02*
X7800000Y-10021000D01*
X7750000Y-9971000D02*
X7850000Y-9971000D01*
X7800000Y-10175000D02*
X7800000Y-10275000D01*
X7750000Y-10225000D02*
X7850000Y-10225000D01*
X14700000Y-9646000D02*
X14700000Y-9746000D01*
X14650000Y-9696000D02*
X14750000Y-9696000D01*
X14700000Y-9900000D02*
X14700000Y-10000000D01*
X14650000Y-9950000D02*
X14750000Y-9950000D01*
X14700000Y-5646000D02*
X14700000Y-5746000D01*
X14650000Y-5696000D02*
X14750000Y-5696000D01*
X14700000Y-5900000D02*
X14700000Y-6000000D01*
X14650000Y-5950000D02*
X14750000Y-5950000D01*
X7800000Y-7921000D02*
X7800000Y-8021000D01*
X7750000Y-7971000D02*
X7850000Y-7971000D01*
X7800000Y-8175000D02*
X7800000Y-8275000D01*
X7750000Y-8225000D02*
X7850000Y-8225000D01*
X9663891Y-7788891D02*
X9663891Y-7711109D01*
X9586109Y-7711109D01*
X9586109Y-7788891D01*
X9663891Y-7788891D01*
X9917891Y-7788891D02*
X9917891Y-7711109D01*
X9840109Y-7711109D01*
X9840109Y-7788891D01*
X9917891Y-7788891D01*
X10425891Y-7788891D02*
X10425891Y-7711109D01*
X10348109Y-7711109D01*
X10348109Y-7788891D01*
X10425891Y-7788891D01*
X10679891Y-7788891D02*
X10679891Y-7711109D01*
X10602109Y-7711109D01*
X10602109Y-7788891D01*
X10679891Y-7788891D01*
X10933891Y-7788891D02*
X10933891Y-7711109D01*
X10856109Y-7711109D01*
X10856109Y-7788891D01*
X10933891Y-7788891D01*
X9663891Y-5788891D02*
X9663891Y-5711109D01*
X9586109Y-5711109D01*
X9586109Y-5788891D01*
X9663891Y-5788891D01*
X9917891Y-5788891D02*
X9917891Y-5711109D01*
X9840109Y-5711109D01*
X9840109Y-5788891D01*
X9917891Y-5788891D01*
X10425891Y-5788891D02*
X10425891Y-5711109D01*
X10348109Y-5711109D01*
X10348109Y-5788891D01*
X10425891Y-5788891D01*
X10679891Y-5788891D02*
X10679891Y-5711109D01*
X10602109Y-5711109D01*
X10602109Y-5788891D01*
X10679891Y-5788891D01*
X10933891Y-5788891D02*
X10933891Y-5711109D01*
X10856109Y-5711109D01*
X10856109Y-5788891D01*
X10933891Y-5788891D01*
X9663891Y-9788891D02*
X9663891Y-9711109D01*
X9586109Y-9711109D01*
X9586109Y-9788891D01*
X9663891Y-9788891D01*
X9917891Y-9788891D02*
X9917891Y-9711109D01*
X9840109Y-9711109D01*
X9840109Y-9788891D01*
X9917891Y-9788891D01*
X10425891Y-9788891D02*
X10425891Y-9711109D01*
X10348109Y-9711109D01*
X10348109Y-9788891D01*
X10425891Y-9788891D01*
X10679891Y-9788891D02*
X10679891Y-9711109D01*
X10602109Y-9711109D01*
X10602109Y-9788891D01*
X10679891Y-9788891D01*
X10933891Y-9788891D02*
X10933891Y-9711109D01*
X10856109Y-9711109D01*
X10856109Y-9788891D01*
X10933891Y-9788891D01*
X11775000Y-13385000D02*
X11835000Y-13325000D01*
X11775000Y-13265000D01*
X11715000Y-13325000D01*
X11775000Y-13385000D01*
X11775000Y-13785000D02*
X11835000Y-13725000D01*
X11775000Y-13665000D01*
X11715000Y-13725000D01*
X11775000Y-13785000D01*
X12275000Y-13385000D02*
X12335000Y-13325000D01*
X12275000Y-13265000D01*
X12215000Y-13325000D01*
X12275000Y-13385000D01*
X12275000Y-13785000D02*
X12335000Y-13725000D01*
X12275000Y-13665000D01*
X12215000Y-13725000D01*
X12275000Y-13785000D01*
X12600000Y-5660000D02*
X12660000Y-5600000D01*
X12600000Y-5540000D01*
X12540000Y-5600000D01*
X12600000Y-5660000D01*
X12600000Y-6160000D02*
X12660000Y-6100000D01*
X12600000Y-6040000D01*
X12540000Y-6100000D01*
X12600000Y-6160000D01*
X13000000Y-5660000D02*
X13060000Y-5600000D01*
X13000000Y-5540000D01*
X12940000Y-5600000D01*
X13000000Y-5660000D01*
X13000000Y-6160000D02*
X13060000Y-6100000D01*
X13000000Y-6040000D01*
X12940000Y-6100000D01*
X13000000Y-6160000D01*
X11775000Y-11635000D02*
X11835000Y-11575000D01*
X11775000Y-11515000D01*
X11715000Y-11575000D01*
X11775000Y-11635000D01*
X11775000Y-12035000D02*
X11835000Y-11975000D01*
X11775000Y-11915000D01*
X11715000Y-11975000D01*
X11775000Y-12035000D01*
X12275000Y-11635000D02*
X12335000Y-11575000D01*
X12275000Y-11515000D01*
X12215000Y-11575000D01*
X12275000Y-11635000D01*
X12275000Y-12035000D02*
X12335000Y-11975000D01*
X12275000Y-11915000D01*
X12215000Y-11975000D01*
X12275000Y-12035000D01*
X12600000Y-9660000D02*
X12660000Y-9600000D01*
X12600000Y-9540000D01*
X12540000Y-9600000D01*
X12600000Y-9660000D01*
X12600000Y-10160000D02*
X12660000Y-10100000D01*
X12600000Y-10040000D01*
X12540000Y-10100000D01*
X12600000Y-10160000D01*
X13000000Y-9660000D02*
X13060000Y-9600000D01*
X13000000Y-9540000D01*
X12940000Y-9600000D01*
X13000000Y-9660000D01*
X13000000Y-10160000D02*
X13060000Y-10100000D01*
X13000000Y-10040000D01*
X12940000Y-10100000D01*
X13000000Y-10160000D01*
X12600000Y-7660000D02*
X12660000Y-7600000D01*
X12600000Y-7540000D01*
X12540000Y-7600000D01*
X12600000Y-7660000D01*
X12600000Y-8160000D02*
X12660000Y-8100000D01*
X12600000Y-8040000D01*
X12540000Y-8100000D01*
X12600000Y-8160000D01*
X13000000Y-7660000D02*
X13060000Y-7600000D01*
X13000000Y-7540000D01*
X12940000Y-7600000D01*
X13000000Y-7660000D01*
X13000000Y-8160000D02*
X13060000Y-8100000D01*
X13000000Y-8040000D01*
X12940000Y-8100000D01*
X13000000Y-8160000D01*
X11835000Y-11918013D02*
X11965000Y-12048013D01*
X11965000Y-11918013D02*
X11835000Y-12048013D01*
X11965000Y-11983013D02*
G75*
G03X11965000Y-11983013I-65000J0D01*
G01*
X12085000Y-11485000D02*
X12215000Y-11615000D01*
X12215000Y-11485000D02*
X12085000Y-11615000D01*
X12215000Y-11550000D02*
G75*
G03X12215000Y-11550000I-65000J0D01*
G01*
X12490154Y-5688990D02*
X12620154Y-5818990D01*
X12620154Y-5688990D02*
X12490154Y-5818990D01*
X12620154Y-5753990D02*
G75*
G03X12620154Y-5753990I-65000J0D01*
G01*
X12960000Y-5860000D02*
X13090000Y-5990000D01*
X13090000Y-5860000D02*
X12960000Y-5990000D01*
X13090000Y-5925000D02*
G75*
G03X13090000Y-5925000I-65000J0D01*
G01*
X11835000Y-13668013D02*
X11965000Y-13798013D01*
X11965000Y-13668013D02*
X11835000Y-13798013D01*
X11965000Y-13733013D02*
G75*
G03X11965000Y-13733013I-65000J0D01*
G01*
X12085000Y-13235000D02*
X12215000Y-13365000D01*
X12215000Y-13235000D02*
X12085000Y-13365000D01*
X12215000Y-13300000D02*
G75*
G03X12215000Y-13300000I-65000J0D01*
G01*
X12490154Y-7688990D02*
X12620154Y-7818990D01*
X12620154Y-7688990D02*
X12490154Y-7818990D01*
X12620154Y-7753990D02*
G75*
G03X12620154Y-7753990I-65000J0D01*
G01*
X12960000Y-7860000D02*
X13090000Y-7990000D01*
X13090000Y-7860000D02*
X12960000Y-7990000D01*
X13090000Y-7925000D02*
G75*
G03X13090000Y-7925000I-65000J0D01*
G01*
X12490154Y-9688990D02*
X12620154Y-9818990D01*
X12620154Y-9688990D02*
X12490154Y-9818990D01*
X12620154Y-9753990D02*
G75*
G03X12620154Y-9753990I-65000J0D01*
G01*
X12960000Y-9860000D02*
X13090000Y-9990000D01*
X13090000Y-9860000D02*
X12960000Y-9990000D01*
X13090000Y-9925000D02*
G75*
G03X13090000Y-9925000I-65000J0D01*
G01*
D12*
X7783928Y-14718214D02*
X7783928Y-14418214D01*
X7855357Y-14418214D01*
X7898214Y-14432500D01*
X7926786Y-14461071D01*
X7941071Y-14489643D01*
X7955357Y-14546786D01*
X7955357Y-14589643D01*
X7941071Y-14646786D01*
X7926786Y-14675357D01*
X7898214Y-14703929D01*
X7855357Y-14718214D01*
X7783928Y-14718214D01*
X8083928Y-14718214D02*
X8083928Y-14518214D01*
X8083928Y-14575357D02*
X8098214Y-14546786D01*
X8112500Y-14532500D01*
X8141071Y-14518214D01*
X8169643Y-14518214D01*
X8269643Y-14718214D02*
X8269643Y-14518214D01*
X8269643Y-14418214D02*
X8255357Y-14432500D01*
X8269643Y-14446786D01*
X8283928Y-14432500D01*
X8269643Y-14418214D01*
X8269643Y-14446786D01*
X8455357Y-14718214D02*
X8426786Y-14703929D01*
X8412500Y-14675357D01*
X8412500Y-14418214D01*
X8612500Y-14718214D02*
X8583928Y-14703929D01*
X8569643Y-14675357D01*
X8569643Y-14418214D01*
X8955357Y-14718214D02*
X8955357Y-14418214D01*
X9055357Y-14632500D01*
X9155357Y-14418214D01*
X9155357Y-14718214D01*
X9426786Y-14718214D02*
X9426786Y-14561071D01*
X9412500Y-14532500D01*
X9383928Y-14518214D01*
X9326786Y-14518214D01*
X9298214Y-14532500D01*
X9426786Y-14703929D02*
X9398214Y-14718214D01*
X9326786Y-14718214D01*
X9298214Y-14703929D01*
X9283928Y-14675357D01*
X9283928Y-14646786D01*
X9298214Y-14618214D01*
X9326786Y-14603929D01*
X9398214Y-14603929D01*
X9426786Y-14589643D01*
X9569643Y-14518214D02*
X9569643Y-14818214D01*
X9569643Y-14532500D02*
X9598214Y-14518214D01*
X9655357Y-14518214D01*
X9683928Y-14532500D01*
X9698214Y-14546786D01*
X9712500Y-14575357D01*
X9712500Y-14661071D01*
X9698214Y-14689643D01*
X9683928Y-14703929D01*
X9655357Y-14718214D01*
X9598214Y-14718214D01*
X9569643Y-14703929D01*
X9841071Y-14689643D02*
X9855357Y-14703929D01*
X9841071Y-14718214D01*
X9826786Y-14703929D01*
X9841071Y-14689643D01*
X9841071Y-14718214D01*
X9841071Y-14532500D02*
X9855357Y-14546786D01*
X9841071Y-14561071D01*
X9826786Y-14546786D01*
X9841071Y-14532500D01*
X9841071Y-14561071D01*
X7457500Y-15192500D02*
X7497500Y-15232500D01*
X7497500Y-15192500D02*
X7457500Y-15232500D01*
X7841071Y-15048214D02*
X7869643Y-15048214D01*
X7898214Y-15062500D01*
X7912500Y-15076786D01*
X7926786Y-15105357D01*
X7941071Y-15162500D01*
X7941071Y-15233929D01*
X7926786Y-15291071D01*
X7912500Y-15319643D01*
X7898214Y-15333929D01*
X7869643Y-15348214D01*
X7841071Y-15348214D01*
X7812500Y-15333929D01*
X7798214Y-15319643D01*
X7783928Y-15291071D01*
X7769643Y-15233929D01*
X7769643Y-15162500D01*
X7783928Y-15105357D01*
X7798214Y-15076786D01*
X7812500Y-15062500D01*
X7841071Y-15048214D01*
X8069643Y-15319643D02*
X8083928Y-15333929D01*
X8069643Y-15348214D01*
X8055357Y-15333929D01*
X8069643Y-15319643D01*
X8069643Y-15348214D01*
X8341071Y-15148214D02*
X8341071Y-15348214D01*
X8269643Y-15033929D02*
X8198214Y-15248214D01*
X8383928Y-15248214D01*
X8555357Y-15048214D02*
X8583928Y-15048214D01*
X8612500Y-15062500D01*
X8626786Y-15076786D01*
X8641071Y-15105357D01*
X8655357Y-15162500D01*
X8655357Y-15233929D01*
X8641071Y-15291071D01*
X8626786Y-15319643D01*
X8612500Y-15333929D01*
X8583928Y-15348214D01*
X8555357Y-15348214D01*
X8526786Y-15333929D01*
X8512500Y-15319643D01*
X8498214Y-15291071D01*
X8483928Y-15233929D01*
X8483928Y-15162500D01*
X8498214Y-15105357D01*
X8512500Y-15076786D01*
X8526786Y-15062500D01*
X8555357Y-15048214D01*
X8783928Y-15348214D02*
X8783928Y-15148214D01*
X8783928Y-15176786D02*
X8798214Y-15162500D01*
X8826786Y-15148214D01*
X8869643Y-15148214D01*
X8898214Y-15162500D01*
X8912500Y-15191071D01*
X8912500Y-15348214D01*
X8912500Y-15191071D02*
X8926786Y-15162500D01*
X8955357Y-15148214D01*
X8998214Y-15148214D01*
X9026786Y-15162500D01*
X9041071Y-15191071D01*
X9041071Y-15348214D01*
X9183928Y-15348214D02*
X9183928Y-15148214D01*
X9183928Y-15176786D02*
X9198214Y-15162500D01*
X9226786Y-15148214D01*
X9269643Y-15148214D01*
X9298214Y-15162500D01*
X9312500Y-15191071D01*
X9312500Y-15348214D01*
X9312500Y-15191071D02*
X9326786Y-15162500D01*
X9355357Y-15148214D01*
X9398214Y-15148214D01*
X9426786Y-15162500D01*
X9441071Y-15191071D01*
X9441071Y-15348214D01*
X10026786Y-15033929D02*
X9769643Y-15419643D01*
X10412500Y-15048214D02*
X10441071Y-15048214D01*
X10469643Y-15062500D01*
X10483928Y-15076786D01*
X10498214Y-15105357D01*
X10512500Y-15162500D01*
X10512500Y-15233929D01*
X10498214Y-15291071D01*
X10483928Y-15319643D01*
X10469643Y-15333929D01*
X10441071Y-15348214D01*
X10412500Y-15348214D01*
X10383928Y-15333929D01*
X10369643Y-15319643D01*
X10355357Y-15291071D01*
X10341071Y-15233929D01*
X10341071Y-15162500D01*
X10355357Y-15105357D01*
X10369643Y-15076786D01*
X10383928Y-15062500D01*
X10412500Y-15048214D01*
X10641071Y-15319643D02*
X10655357Y-15333929D01*
X10641071Y-15348214D01*
X10626786Y-15333929D01*
X10641071Y-15319643D01*
X10641071Y-15348214D01*
X10841071Y-15048214D02*
X10869643Y-15048214D01*
X10898214Y-15062500D01*
X10912500Y-15076786D01*
X10926786Y-15105357D01*
X10941071Y-15162500D01*
X10941071Y-15233929D01*
X10926786Y-15291071D01*
X10912500Y-15319643D01*
X10898214Y-15333929D01*
X10869643Y-15348214D01*
X10841071Y-15348214D01*
X10812500Y-15333929D01*
X10798214Y-15319643D01*
X10783928Y-15291071D01*
X10769643Y-15233929D01*
X10769643Y-15162500D01*
X10783928Y-15105357D01*
X10798214Y-15076786D01*
X10812500Y-15062500D01*
X10841071Y-15048214D01*
X11226786Y-15348214D02*
X11055357Y-15348214D01*
X11141071Y-15348214D02*
X11141071Y-15048214D01*
X11112500Y-15091071D01*
X11083928Y-15119643D01*
X11055357Y-15133929D01*
X11483928Y-15048214D02*
X11426786Y-15048214D01*
X11398214Y-15062500D01*
X11383928Y-15076786D01*
X11355357Y-15119643D01*
X11341071Y-15176786D01*
X11341071Y-15291071D01*
X11355357Y-15319643D01*
X11369643Y-15333929D01*
X11398214Y-15348214D01*
X11455357Y-15348214D01*
X11483928Y-15333929D01*
X11498214Y-15319643D01*
X11512500Y-15291071D01*
X11512500Y-15219643D01*
X11498214Y-15191071D01*
X11483928Y-15176786D01*
X11455357Y-15162500D01*
X11398214Y-15162500D01*
X11369643Y-15176786D01*
X11355357Y-15191071D01*
X11341071Y-15219643D01*
X11626786Y-15048214D02*
X11626786Y-15105357D01*
X11741071Y-15048214D02*
X11741071Y-15105357D01*
X12183928Y-15462500D02*
X12169643Y-15448214D01*
X12141071Y-15405357D01*
X12126786Y-15376786D01*
X12112500Y-15333929D01*
X12098214Y-15262500D01*
X12098214Y-15205357D01*
X12112500Y-15133929D01*
X12126786Y-15091071D01*
X12141071Y-15062500D01*
X12169643Y-15019643D01*
X12183928Y-15005357D01*
X12341071Y-15176786D02*
X12312500Y-15162500D01*
X12298214Y-15148214D01*
X12283928Y-15119643D01*
X12283928Y-15105357D01*
X12298214Y-15076786D01*
X12312500Y-15062500D01*
X12341071Y-15048214D01*
X12398214Y-15048214D01*
X12426786Y-15062500D01*
X12441071Y-15076786D01*
X12455357Y-15105357D01*
X12455357Y-15119643D01*
X12441071Y-15148214D01*
X12426786Y-15162500D01*
X12398214Y-15176786D01*
X12341071Y-15176786D01*
X12312500Y-15191071D01*
X12298214Y-15205357D01*
X12283928Y-15233929D01*
X12283928Y-15291071D01*
X12298214Y-15319643D01*
X12312500Y-15333929D01*
X12341071Y-15348214D01*
X12398214Y-15348214D01*
X12426786Y-15333929D01*
X12441071Y-15319643D01*
X12455357Y-15291071D01*
X12455357Y-15233929D01*
X12441071Y-15205357D01*
X12426786Y-15191071D01*
X12398214Y-15176786D01*
X12598214Y-15348214D02*
X12655357Y-15348214D01*
X12683928Y-15333929D01*
X12698214Y-15319643D01*
X12726786Y-15276786D01*
X12741071Y-15219643D01*
X12741071Y-15105357D01*
X12726786Y-15076786D01*
X12712500Y-15062500D01*
X12683928Y-15048214D01*
X12626786Y-15048214D01*
X12598214Y-15062500D01*
X12583928Y-15076786D01*
X12569643Y-15105357D01*
X12569643Y-15176786D01*
X12583928Y-15205357D01*
X12598214Y-15219643D01*
X12626786Y-15233929D01*
X12683928Y-15233929D01*
X12712500Y-15219643D01*
X12726786Y-15205357D01*
X12741071Y-15176786D01*
X13098214Y-15348214D02*
X13098214Y-15048214D01*
X13226786Y-15348214D02*
X13226786Y-15191071D01*
X13212500Y-15162500D01*
X13183928Y-15148214D01*
X13141071Y-15148214D01*
X13112500Y-15162500D01*
X13098214Y-15176786D01*
X13412500Y-15348214D02*
X13383928Y-15333929D01*
X13369643Y-15319643D01*
X13355357Y-15291071D01*
X13355357Y-15205357D01*
X13369643Y-15176786D01*
X13383928Y-15162500D01*
X13412500Y-15148214D01*
X13455357Y-15148214D01*
X13483928Y-15162500D01*
X13498214Y-15176786D01*
X13512500Y-15205357D01*
X13512500Y-15291071D01*
X13498214Y-15319643D01*
X13483928Y-15333929D01*
X13455357Y-15348214D01*
X13412500Y-15348214D01*
X13683928Y-15348214D02*
X13655357Y-15333929D01*
X13641071Y-15305357D01*
X13641071Y-15048214D01*
X13912500Y-15333929D02*
X13883928Y-15348214D01*
X13826786Y-15348214D01*
X13798214Y-15333929D01*
X13783928Y-15305357D01*
X13783928Y-15191071D01*
X13798214Y-15162500D01*
X13826786Y-15148214D01*
X13883928Y-15148214D01*
X13912500Y-15162500D01*
X13926786Y-15191071D01*
X13926786Y-15219643D01*
X13783928Y-15248214D01*
X14041071Y-15333929D02*
X14069643Y-15348214D01*
X14126786Y-15348214D01*
X14155357Y-15333929D01*
X14169643Y-15305357D01*
X14169643Y-15291071D01*
X14155357Y-15262500D01*
X14126786Y-15248214D01*
X14083928Y-15248214D01*
X14055357Y-15233929D01*
X14041071Y-15205357D01*
X14041071Y-15191071D01*
X14055357Y-15162500D01*
X14083928Y-15148214D01*
X14126786Y-15148214D01*
X14155357Y-15162500D01*
X14269643Y-15462500D02*
X14283928Y-15448214D01*
X14312500Y-15405357D01*
X14326786Y-15376786D01*
X14341071Y-15333929D01*
X14355357Y-15262500D01*
X14355357Y-15205357D01*
X14341071Y-15133929D01*
X14326786Y-15091071D01*
X14312500Y-15062500D01*
X14283928Y-15019643D01*
X14269643Y-15005357D01*
X7497500Y-15608500D02*
G75*
G03X7497500Y-15608500I-40000J0D01*
G01*
X7841071Y-15444214D02*
X7869643Y-15444214D01*
X7898214Y-15458500D01*
X7912500Y-15472786D01*
X7926786Y-15501357D01*
X7941071Y-15558500D01*
X7941071Y-15629929D01*
X7926786Y-15687071D01*
X7912500Y-15715643D01*
X7898214Y-15729929D01*
X7869643Y-15744214D01*
X7841071Y-15744214D01*
X7812500Y-15729929D01*
X7798214Y-15715643D01*
X7783928Y-15687071D01*
X7769643Y-15629929D01*
X7769643Y-15558500D01*
X7783928Y-15501357D01*
X7798214Y-15472786D01*
X7812500Y-15458500D01*
X7841071Y-15444214D01*
X8069643Y-15715643D02*
X8083928Y-15729929D01*
X8069643Y-15744214D01*
X8055357Y-15729929D01*
X8069643Y-15715643D01*
X8069643Y-15744214D01*
X8255357Y-15572786D02*
X8226786Y-15558500D01*
X8212500Y-15544214D01*
X8198214Y-15515643D01*
X8198214Y-15501357D01*
X8212500Y-15472786D01*
X8226786Y-15458500D01*
X8255357Y-15444214D01*
X8312500Y-15444214D01*
X8341071Y-15458500D01*
X8355357Y-15472786D01*
X8369643Y-15501357D01*
X8369643Y-15515643D01*
X8355357Y-15544214D01*
X8341071Y-15558500D01*
X8312500Y-15572786D01*
X8255357Y-15572786D01*
X8226786Y-15587071D01*
X8212500Y-15601357D01*
X8198214Y-15629929D01*
X8198214Y-15687071D01*
X8212500Y-15715643D01*
X8226786Y-15729929D01*
X8255357Y-15744214D01*
X8312500Y-15744214D01*
X8341071Y-15729929D01*
X8355357Y-15715643D01*
X8369643Y-15687071D01*
X8369643Y-15629929D01*
X8355357Y-15601357D01*
X8341071Y-15587071D01*
X8312500Y-15572786D01*
X8555357Y-15444214D02*
X8583928Y-15444214D01*
X8612500Y-15458500D01*
X8626786Y-15472786D01*
X8641071Y-15501357D01*
X8655357Y-15558500D01*
X8655357Y-15629929D01*
X8641071Y-15687071D01*
X8626786Y-15715643D01*
X8612500Y-15729929D01*
X8583928Y-15744214D01*
X8555357Y-15744214D01*
X8526786Y-15729929D01*
X8512500Y-15715643D01*
X8498214Y-15687071D01*
X8483928Y-15629929D01*
X8483928Y-15558500D01*
X8498214Y-15501357D01*
X8512500Y-15472786D01*
X8526786Y-15458500D01*
X8555357Y-15444214D01*
X8783928Y-15744214D02*
X8783928Y-15544214D01*
X8783928Y-15572786D02*
X8798214Y-15558500D01*
X8826786Y-15544214D01*
X8869643Y-15544214D01*
X8898214Y-15558500D01*
X8912500Y-15587071D01*
X8912500Y-15744214D01*
X8912500Y-15587071D02*
X8926786Y-15558500D01*
X8955357Y-15544214D01*
X8998214Y-15544214D01*
X9026786Y-15558500D01*
X9041071Y-15587071D01*
X9041071Y-15744214D01*
X9183928Y-15744214D02*
X9183928Y-15544214D01*
X9183928Y-15572786D02*
X9198214Y-15558500D01*
X9226786Y-15544214D01*
X9269643Y-15544214D01*
X9298214Y-15558500D01*
X9312500Y-15587071D01*
X9312500Y-15744214D01*
X9312500Y-15587071D02*
X9326786Y-15558500D01*
X9355357Y-15544214D01*
X9398214Y-15544214D01*
X9426786Y-15558500D01*
X9441071Y-15587071D01*
X9441071Y-15744214D01*
X10026786Y-15429929D02*
X9769643Y-15815643D01*
X10412500Y-15444214D02*
X10441071Y-15444214D01*
X10469643Y-15458500D01*
X10483928Y-15472786D01*
X10498214Y-15501357D01*
X10512500Y-15558500D01*
X10512500Y-15629929D01*
X10498214Y-15687071D01*
X10483928Y-15715643D01*
X10469643Y-15729929D01*
X10441071Y-15744214D01*
X10412500Y-15744214D01*
X10383928Y-15729929D01*
X10369643Y-15715643D01*
X10355357Y-15687071D01*
X10341071Y-15629929D01*
X10341071Y-15558500D01*
X10355357Y-15501357D01*
X10369643Y-15472786D01*
X10383928Y-15458500D01*
X10412500Y-15444214D01*
X10641071Y-15715643D02*
X10655357Y-15729929D01*
X10641071Y-15744214D01*
X10626786Y-15729929D01*
X10641071Y-15715643D01*
X10641071Y-15744214D01*
X10841071Y-15444214D02*
X10869643Y-15444214D01*
X10898214Y-15458500D01*
X10912500Y-15472786D01*
X10926786Y-15501357D01*
X10941071Y-15558500D01*
X10941071Y-15629929D01*
X10926786Y-15687071D01*
X10912500Y-15715643D01*
X10898214Y-15729929D01*
X10869643Y-15744214D01*
X10841071Y-15744214D01*
X10812500Y-15729929D01*
X10798214Y-15715643D01*
X10783928Y-15687071D01*
X10769643Y-15629929D01*
X10769643Y-15558500D01*
X10783928Y-15501357D01*
X10798214Y-15472786D01*
X10812500Y-15458500D01*
X10841071Y-15444214D01*
X11041071Y-15444214D02*
X11226786Y-15444214D01*
X11126786Y-15558500D01*
X11169643Y-15558500D01*
X11198214Y-15572786D01*
X11212500Y-15587071D01*
X11226786Y-15615643D01*
X11226786Y-15687071D01*
X11212500Y-15715643D01*
X11198214Y-15729929D01*
X11169643Y-15744214D01*
X11083928Y-15744214D01*
X11055357Y-15729929D01*
X11041071Y-15715643D01*
X11512500Y-15744214D02*
X11341071Y-15744214D01*
X11426786Y-15744214D02*
X11426786Y-15444214D01*
X11398214Y-15487071D01*
X11369643Y-15515643D01*
X11341071Y-15529929D01*
X11626786Y-15444214D02*
X11626786Y-15501357D01*
X11741071Y-15444214D02*
X11741071Y-15501357D01*
X12183928Y-15858500D02*
X12169643Y-15844214D01*
X12141071Y-15801357D01*
X12126786Y-15772786D01*
X12112500Y-15729929D01*
X12098214Y-15658500D01*
X12098214Y-15601357D01*
X12112500Y-15529929D01*
X12126786Y-15487071D01*
X12141071Y-15458500D01*
X12169643Y-15415643D01*
X12183928Y-15401357D01*
X12441071Y-15444214D02*
X12298214Y-15444214D01*
X12283928Y-15587071D01*
X12298214Y-15572786D01*
X12326786Y-15558500D01*
X12398214Y-15558500D01*
X12426786Y-15572786D01*
X12441071Y-15587071D01*
X12455357Y-15615643D01*
X12455357Y-15687071D01*
X12441071Y-15715643D01*
X12426786Y-15729929D01*
X12398214Y-15744214D01*
X12326786Y-15744214D01*
X12298214Y-15729929D01*
X12283928Y-15715643D01*
X12641071Y-15444214D02*
X12669643Y-15444214D01*
X12698214Y-15458500D01*
X12712500Y-15472786D01*
X12726786Y-15501357D01*
X12741071Y-15558500D01*
X12741071Y-15629929D01*
X12726786Y-15687071D01*
X12712500Y-15715643D01*
X12698214Y-15729929D01*
X12669643Y-15744214D01*
X12641071Y-15744214D01*
X12612500Y-15729929D01*
X12598214Y-15715643D01*
X12583928Y-15687071D01*
X12569643Y-15629929D01*
X12569643Y-15558500D01*
X12583928Y-15501357D01*
X12598214Y-15472786D01*
X12612500Y-15458500D01*
X12641071Y-15444214D01*
X13098214Y-15744214D02*
X13098214Y-15444214D01*
X13226786Y-15744214D02*
X13226786Y-15587071D01*
X13212500Y-15558500D01*
X13183928Y-15544214D01*
X13141071Y-15544214D01*
X13112500Y-15558500D01*
X13098214Y-15572786D01*
X13412500Y-15744214D02*
X13383928Y-15729929D01*
X13369643Y-15715643D01*
X13355357Y-15687071D01*
X13355357Y-15601357D01*
X13369643Y-15572786D01*
X13383928Y-15558500D01*
X13412500Y-15544214D01*
X13455357Y-15544214D01*
X13483928Y-15558500D01*
X13498214Y-15572786D01*
X13512500Y-15601357D01*
X13512500Y-15687071D01*
X13498214Y-15715643D01*
X13483928Y-15729929D01*
X13455357Y-15744214D01*
X13412500Y-15744214D01*
X13683928Y-15744214D02*
X13655357Y-15729929D01*
X13641071Y-15701357D01*
X13641071Y-15444214D01*
X13912500Y-15729929D02*
X13883928Y-15744214D01*
X13826786Y-15744214D01*
X13798214Y-15729929D01*
X13783928Y-15701357D01*
X13783928Y-15587071D01*
X13798214Y-15558500D01*
X13826786Y-15544214D01*
X13883928Y-15544214D01*
X13912500Y-15558500D01*
X13926786Y-15587071D01*
X13926786Y-15615643D01*
X13783928Y-15644214D01*
X14041071Y-15729929D02*
X14069643Y-15744214D01*
X14126786Y-15744214D01*
X14155357Y-15729929D01*
X14169643Y-15701357D01*
X14169643Y-15687071D01*
X14155357Y-15658500D01*
X14126786Y-15644214D01*
X14083928Y-15644214D01*
X14055357Y-15629929D01*
X14041071Y-15601357D01*
X14041071Y-15587071D01*
X14055357Y-15558500D01*
X14083928Y-15544214D01*
X14126786Y-15544214D01*
X14155357Y-15558500D01*
X14269643Y-15858500D02*
X14283928Y-15844214D01*
X14312500Y-15801357D01*
X14326786Y-15772786D01*
X14341071Y-15729929D01*
X14355357Y-15658500D01*
X14355357Y-15601357D01*
X14341071Y-15529929D01*
X14326786Y-15487071D01*
X14312500Y-15458500D01*
X14283928Y-15415643D01*
X14269643Y-15401357D01*
X7447500Y-15954500D02*
X7447500Y-16054500D01*
X7397500Y-16004500D02*
X7497500Y-16004500D01*
X7941071Y-16140214D02*
X7769643Y-16140214D01*
X7855357Y-16140214D02*
X7855357Y-15840214D01*
X7826786Y-15883071D01*
X7798214Y-15911643D01*
X7769643Y-15925929D01*
X8069643Y-16111643D02*
X8083928Y-16125929D01*
X8069643Y-16140214D01*
X8055357Y-16125929D01*
X8069643Y-16111643D01*
X8069643Y-16140214D01*
X8269643Y-15840214D02*
X8298214Y-15840214D01*
X8326786Y-15854500D01*
X8341071Y-15868786D01*
X8355357Y-15897357D01*
X8369643Y-15954500D01*
X8369643Y-16025929D01*
X8355357Y-16083071D01*
X8341071Y-16111643D01*
X8326786Y-16125929D01*
X8298214Y-16140214D01*
X8269643Y-16140214D01*
X8241071Y-16125929D01*
X8226786Y-16111643D01*
X8212500Y-16083071D01*
X8198214Y-16025929D01*
X8198214Y-15954500D01*
X8212500Y-15897357D01*
X8226786Y-15868786D01*
X8241071Y-15854500D01*
X8269643Y-15840214D01*
X8555357Y-15840214D02*
X8583928Y-15840214D01*
X8612500Y-15854500D01*
X8626786Y-15868786D01*
X8641071Y-15897357D01*
X8655357Y-15954500D01*
X8655357Y-16025929D01*
X8641071Y-16083071D01*
X8626786Y-16111643D01*
X8612500Y-16125929D01*
X8583928Y-16140214D01*
X8555357Y-16140214D01*
X8526786Y-16125929D01*
X8512500Y-16111643D01*
X8498214Y-16083071D01*
X8483928Y-16025929D01*
X8483928Y-15954500D01*
X8498214Y-15897357D01*
X8512500Y-15868786D01*
X8526786Y-15854500D01*
X8555357Y-15840214D01*
X8783928Y-16140214D02*
X8783928Y-15940214D01*
X8783928Y-15968786D02*
X8798214Y-15954500D01*
X8826786Y-15940214D01*
X8869643Y-15940214D01*
X8898214Y-15954500D01*
X8912500Y-15983071D01*
X8912500Y-16140214D01*
X8912500Y-15983071D02*
X8926786Y-15954500D01*
X8955357Y-15940214D01*
X8998214Y-15940214D01*
X9026786Y-15954500D01*
X9041071Y-15983071D01*
X9041071Y-16140214D01*
X9183928Y-16140214D02*
X9183928Y-15940214D01*
X9183928Y-15968786D02*
X9198214Y-15954500D01*
X9226786Y-15940214D01*
X9269643Y-15940214D01*
X9298214Y-15954500D01*
X9312500Y-15983071D01*
X9312500Y-16140214D01*
X9312500Y-15983071D02*
X9326786Y-15954500D01*
X9355357Y-15940214D01*
X9398214Y-15940214D01*
X9426786Y-15954500D01*
X9441071Y-15983071D01*
X9441071Y-16140214D01*
X10026786Y-15825929D02*
X9769643Y-16211643D01*
X10412500Y-15840214D02*
X10441071Y-15840214D01*
X10469643Y-15854500D01*
X10483928Y-15868786D01*
X10498214Y-15897357D01*
X10512500Y-15954500D01*
X10512500Y-16025929D01*
X10498214Y-16083071D01*
X10483928Y-16111643D01*
X10469643Y-16125929D01*
X10441071Y-16140214D01*
X10412500Y-16140214D01*
X10383928Y-16125929D01*
X10369643Y-16111643D01*
X10355357Y-16083071D01*
X10341071Y-16025929D01*
X10341071Y-15954500D01*
X10355357Y-15897357D01*
X10369643Y-15868786D01*
X10383928Y-15854500D01*
X10412500Y-15840214D01*
X10641071Y-16111643D02*
X10655357Y-16125929D01*
X10641071Y-16140214D01*
X10626786Y-16125929D01*
X10641071Y-16111643D01*
X10641071Y-16140214D01*
X10841071Y-15840214D02*
X10869643Y-15840214D01*
X10898214Y-15854500D01*
X10912500Y-15868786D01*
X10926786Y-15897357D01*
X10941071Y-15954500D01*
X10941071Y-16025929D01*
X10926786Y-16083071D01*
X10912500Y-16111643D01*
X10898214Y-16125929D01*
X10869643Y-16140214D01*
X10841071Y-16140214D01*
X10812500Y-16125929D01*
X10798214Y-16111643D01*
X10783928Y-16083071D01*
X10769643Y-16025929D01*
X10769643Y-15954500D01*
X10783928Y-15897357D01*
X10798214Y-15868786D01*
X10812500Y-15854500D01*
X10841071Y-15840214D01*
X11041071Y-15840214D02*
X11226786Y-15840214D01*
X11126786Y-15954500D01*
X11169643Y-15954500D01*
X11198214Y-15968786D01*
X11212500Y-15983071D01*
X11226786Y-16011643D01*
X11226786Y-16083071D01*
X11212500Y-16111643D01*
X11198214Y-16125929D01*
X11169643Y-16140214D01*
X11083928Y-16140214D01*
X11055357Y-16125929D01*
X11041071Y-16111643D01*
X11369643Y-16140214D02*
X11426786Y-16140214D01*
X11455357Y-16125929D01*
X11469643Y-16111643D01*
X11498214Y-16068786D01*
X11512500Y-16011643D01*
X11512500Y-15897357D01*
X11498214Y-15868786D01*
X11483928Y-15854500D01*
X11455357Y-15840214D01*
X11398214Y-15840214D01*
X11369643Y-15854500D01*
X11355357Y-15868786D01*
X11341071Y-15897357D01*
X11341071Y-15968786D01*
X11355357Y-15997357D01*
X11369643Y-16011643D01*
X11398214Y-16025929D01*
X11455357Y-16025929D01*
X11483928Y-16011643D01*
X11498214Y-15997357D01*
X11512500Y-15968786D01*
X11626786Y-15840214D02*
X11626786Y-15897357D01*
X11741071Y-15840214D02*
X11741071Y-15897357D01*
X12183928Y-16254500D02*
X12169643Y-16240214D01*
X12141071Y-16197357D01*
X12126786Y-16168786D01*
X12112500Y-16125929D01*
X12098214Y-16054500D01*
X12098214Y-15997357D01*
X12112500Y-15925929D01*
X12126786Y-15883071D01*
X12141071Y-15854500D01*
X12169643Y-15811643D01*
X12183928Y-15797357D01*
X12426786Y-15940214D02*
X12426786Y-16140214D01*
X12355357Y-15825929D02*
X12283928Y-16040214D01*
X12469643Y-16040214D01*
X12626786Y-15968786D02*
X12598214Y-15954500D01*
X12583928Y-15940214D01*
X12569643Y-15911643D01*
X12569643Y-15897357D01*
X12583928Y-15868786D01*
X12598214Y-15854500D01*
X12626786Y-15840214D01*
X12683928Y-15840214D01*
X12712500Y-15854500D01*
X12726786Y-15868786D01*
X12741071Y-15897357D01*
X12741071Y-15911643D01*
X12726786Y-15940214D01*
X12712500Y-15954500D01*
X12683928Y-15968786D01*
X12626786Y-15968786D01*
X12598214Y-15983071D01*
X12583928Y-15997357D01*
X12569643Y-16025929D01*
X12569643Y-16083071D01*
X12583928Y-16111643D01*
X12598214Y-16125929D01*
X12626786Y-16140214D01*
X12683928Y-16140214D01*
X12712500Y-16125929D01*
X12726786Y-16111643D01*
X12741071Y-16083071D01*
X12741071Y-16025929D01*
X12726786Y-15997357D01*
X12712500Y-15983071D01*
X12683928Y-15968786D01*
X13098214Y-16140214D02*
X13098214Y-15840214D01*
X13226786Y-16140214D02*
X13226786Y-15983071D01*
X13212500Y-15954500D01*
X13183928Y-15940214D01*
X13141071Y-15940214D01*
X13112500Y-15954500D01*
X13098214Y-15968786D01*
X13412500Y-16140214D02*
X13383928Y-16125929D01*
X13369643Y-16111643D01*
X13355357Y-16083071D01*
X13355357Y-15997357D01*
X13369643Y-15968786D01*
X13383928Y-15954500D01*
X13412500Y-15940214D01*
X13455357Y-15940214D01*
X13483928Y-15954500D01*
X13498214Y-15968786D01*
X13512500Y-15997357D01*
X13512500Y-16083071D01*
X13498214Y-16111643D01*
X13483928Y-16125929D01*
X13455357Y-16140214D01*
X13412500Y-16140214D01*
X13683928Y-16140214D02*
X13655357Y-16125929D01*
X13641071Y-16097357D01*
X13641071Y-15840214D01*
X13912500Y-16125929D02*
X13883928Y-16140214D01*
X13826786Y-16140214D01*
X13798214Y-16125929D01*
X13783928Y-16097357D01*
X13783928Y-15983071D01*
X13798214Y-15954500D01*
X13826786Y-15940214D01*
X13883928Y-15940214D01*
X13912500Y-15954500D01*
X13926786Y-15983071D01*
X13926786Y-16011643D01*
X13783928Y-16040214D01*
X14041071Y-16125929D02*
X14069643Y-16140214D01*
X14126786Y-16140214D01*
X14155357Y-16125929D01*
X14169643Y-16097357D01*
X14169643Y-16083071D01*
X14155357Y-16054500D01*
X14126786Y-16040214D01*
X14083928Y-16040214D01*
X14055357Y-16025929D01*
X14041071Y-15997357D01*
X14041071Y-15983071D01*
X14055357Y-15954500D01*
X14083928Y-15940214D01*
X14126786Y-15940214D01*
X14155357Y-15954500D01*
X14269643Y-16254500D02*
X14283928Y-16240214D01*
X14312500Y-16197357D01*
X14326786Y-16168786D01*
X14341071Y-16125929D01*
X14355357Y-16054500D01*
X14355357Y-15997357D01*
X14341071Y-15925929D01*
X14326786Y-15883071D01*
X14312500Y-15854500D01*
X14283928Y-15811643D01*
X14269643Y-15797357D01*
X7481391Y-16439391D02*
X7481391Y-16361609D01*
X7403609Y-16361609D01*
X7403609Y-16439391D01*
X7481391Y-16439391D01*
X7941071Y-16536214D02*
X7769643Y-16536214D01*
X7855357Y-16536214D02*
X7855357Y-16236214D01*
X7826786Y-16279071D01*
X7798214Y-16307643D01*
X7769643Y-16321929D01*
X8069643Y-16507643D02*
X8083928Y-16521929D01*
X8069643Y-16536214D01*
X8055357Y-16521929D01*
X8069643Y-16507643D01*
X8069643Y-16536214D01*
X8369643Y-16536214D02*
X8198214Y-16536214D01*
X8283928Y-16536214D02*
X8283928Y-16236214D01*
X8255357Y-16279071D01*
X8226786Y-16307643D01*
X8198214Y-16321929D01*
X8555357Y-16236214D02*
X8583928Y-16236214D01*
X8612500Y-16250500D01*
X8626786Y-16264786D01*
X8641071Y-16293357D01*
X8655357Y-16350500D01*
X8655357Y-16421929D01*
X8641071Y-16479071D01*
X8626786Y-16507643D01*
X8612500Y-16521929D01*
X8583928Y-16536214D01*
X8555357Y-16536214D01*
X8526786Y-16521929D01*
X8512500Y-16507643D01*
X8498214Y-16479071D01*
X8483928Y-16421929D01*
X8483928Y-16350500D01*
X8498214Y-16293357D01*
X8512500Y-16264786D01*
X8526786Y-16250500D01*
X8555357Y-16236214D01*
X8783928Y-16536214D02*
X8783928Y-16336214D01*
X8783928Y-16364786D02*
X8798214Y-16350500D01*
X8826786Y-16336214D01*
X8869643Y-16336214D01*
X8898214Y-16350500D01*
X8912500Y-16379071D01*
X8912500Y-16536214D01*
X8912500Y-16379071D02*
X8926786Y-16350500D01*
X8955357Y-16336214D01*
X8998214Y-16336214D01*
X9026786Y-16350500D01*
X9041071Y-16379071D01*
X9041071Y-16536214D01*
X9183928Y-16536214D02*
X9183928Y-16336214D01*
X9183928Y-16364786D02*
X9198214Y-16350500D01*
X9226786Y-16336214D01*
X9269643Y-16336214D01*
X9298214Y-16350500D01*
X9312500Y-16379071D01*
X9312500Y-16536214D01*
X9312500Y-16379071D02*
X9326786Y-16350500D01*
X9355357Y-16336214D01*
X9398214Y-16336214D01*
X9426786Y-16350500D01*
X9441071Y-16379071D01*
X9441071Y-16536214D01*
X10026786Y-16221929D02*
X9769643Y-16607643D01*
X10412500Y-16236214D02*
X10441071Y-16236214D01*
X10469643Y-16250500D01*
X10483928Y-16264786D01*
X10498214Y-16293357D01*
X10512500Y-16350500D01*
X10512500Y-16421929D01*
X10498214Y-16479071D01*
X10483928Y-16507643D01*
X10469643Y-16521929D01*
X10441071Y-16536214D01*
X10412500Y-16536214D01*
X10383928Y-16521929D01*
X10369643Y-16507643D01*
X10355357Y-16479071D01*
X10341071Y-16421929D01*
X10341071Y-16350500D01*
X10355357Y-16293357D01*
X10369643Y-16264786D01*
X10383928Y-16250500D01*
X10412500Y-16236214D01*
X10641071Y-16507643D02*
X10655357Y-16521929D01*
X10641071Y-16536214D01*
X10626786Y-16521929D01*
X10641071Y-16507643D01*
X10641071Y-16536214D01*
X10841071Y-16236214D02*
X10869643Y-16236214D01*
X10898214Y-16250500D01*
X10912500Y-16264786D01*
X10926786Y-16293357D01*
X10941071Y-16350500D01*
X10941071Y-16421929D01*
X10926786Y-16479071D01*
X10912500Y-16507643D01*
X10898214Y-16521929D01*
X10869643Y-16536214D01*
X10841071Y-16536214D01*
X10812500Y-16521929D01*
X10798214Y-16507643D01*
X10783928Y-16479071D01*
X10769643Y-16421929D01*
X10769643Y-16350500D01*
X10783928Y-16293357D01*
X10798214Y-16264786D01*
X10812500Y-16250500D01*
X10841071Y-16236214D01*
X11198214Y-16336214D02*
X11198214Y-16536214D01*
X11126786Y-16221929D02*
X11055357Y-16436214D01*
X11241071Y-16436214D01*
X11326786Y-16236214D02*
X11512500Y-16236214D01*
X11412500Y-16350500D01*
X11455357Y-16350500D01*
X11483928Y-16364786D01*
X11498214Y-16379071D01*
X11512500Y-16407643D01*
X11512500Y-16479071D01*
X11498214Y-16507643D01*
X11483928Y-16521929D01*
X11455357Y-16536214D01*
X11369643Y-16536214D01*
X11341071Y-16521929D01*
X11326786Y-16507643D01*
X11626786Y-16236214D02*
X11626786Y-16293357D01*
X11741071Y-16236214D02*
X11741071Y-16293357D01*
X12183928Y-16650500D02*
X12169643Y-16636214D01*
X12141071Y-16593357D01*
X12126786Y-16564786D01*
X12112500Y-16521929D01*
X12098214Y-16450500D01*
X12098214Y-16393357D01*
X12112500Y-16321929D01*
X12126786Y-16279071D01*
X12141071Y-16250500D01*
X12169643Y-16207643D01*
X12183928Y-16193357D01*
X12455357Y-16536214D02*
X12283928Y-16536214D01*
X12369643Y-16536214D02*
X12369643Y-16236214D01*
X12341071Y-16279071D01*
X12312500Y-16307643D01*
X12283928Y-16321929D01*
X12726786Y-16236214D02*
X12583928Y-16236214D01*
X12569643Y-16379071D01*
X12583928Y-16364786D01*
X12612500Y-16350500D01*
X12683928Y-16350500D01*
X12712500Y-16364786D01*
X12726786Y-16379071D01*
X12741071Y-16407643D01*
X12741071Y-16479071D01*
X12726786Y-16507643D01*
X12712500Y-16521929D01*
X12683928Y-16536214D01*
X12612500Y-16536214D01*
X12583928Y-16521929D01*
X12569643Y-16507643D01*
X13098214Y-16536214D02*
X13098214Y-16236214D01*
X13226786Y-16536214D02*
X13226786Y-16379071D01*
X13212500Y-16350500D01*
X13183928Y-16336214D01*
X13141071Y-16336214D01*
X13112500Y-16350500D01*
X13098214Y-16364786D01*
X13412500Y-16536214D02*
X13383928Y-16521929D01*
X13369643Y-16507643D01*
X13355357Y-16479071D01*
X13355357Y-16393357D01*
X13369643Y-16364786D01*
X13383928Y-16350500D01*
X13412500Y-16336214D01*
X13455357Y-16336214D01*
X13483928Y-16350500D01*
X13498214Y-16364786D01*
X13512500Y-16393357D01*
X13512500Y-16479071D01*
X13498214Y-16507643D01*
X13483928Y-16521929D01*
X13455357Y-16536214D01*
X13412500Y-16536214D01*
X13683928Y-16536214D02*
X13655357Y-16521929D01*
X13641071Y-16493357D01*
X13641071Y-16236214D01*
X13912500Y-16521929D02*
X13883928Y-16536214D01*
X13826786Y-16536214D01*
X13798214Y-16521929D01*
X13783928Y-16493357D01*
X13783928Y-16379071D01*
X13798214Y-16350500D01*
X13826786Y-16336214D01*
X13883928Y-16336214D01*
X13912500Y-16350500D01*
X13926786Y-16379071D01*
X13926786Y-16407643D01*
X13783928Y-16436214D01*
X14041071Y-16521929D02*
X14069643Y-16536214D01*
X14126786Y-16536214D01*
X14155357Y-16521929D01*
X14169643Y-16493357D01*
X14169643Y-16479071D01*
X14155357Y-16450500D01*
X14126786Y-16436214D01*
X14083928Y-16436214D01*
X14055357Y-16421929D01*
X14041071Y-16393357D01*
X14041071Y-16379071D01*
X14055357Y-16350500D01*
X14083928Y-16336214D01*
X14126786Y-16336214D01*
X14155357Y-16350500D01*
X14269643Y-16650500D02*
X14283928Y-16636214D01*
X14312500Y-16593357D01*
X14326786Y-16564786D01*
X14341071Y-16521929D01*
X14355357Y-16450500D01*
X14355357Y-16393357D01*
X14341071Y-16321929D01*
X14326786Y-16279071D01*
X14312500Y-16250500D01*
X14283928Y-16207643D01*
X14269643Y-16193357D01*
X7437500Y-16856500D02*
X7497500Y-16796500D01*
X7437500Y-16736500D01*
X7377500Y-16796500D01*
X7437500Y-16856500D01*
X7941071Y-16932214D02*
X7769643Y-16932214D01*
X7855357Y-16932214D02*
X7855357Y-16632214D01*
X7826786Y-16675071D01*
X7798214Y-16703643D01*
X7769643Y-16717929D01*
X8069643Y-16903643D02*
X8083928Y-16917929D01*
X8069643Y-16932214D01*
X8055357Y-16917929D01*
X8069643Y-16903643D01*
X8069643Y-16932214D01*
X8198214Y-16660786D02*
X8212500Y-16646500D01*
X8241071Y-16632214D01*
X8312500Y-16632214D01*
X8341071Y-16646500D01*
X8355357Y-16660786D01*
X8369643Y-16689357D01*
X8369643Y-16717929D01*
X8355357Y-16760786D01*
X8183928Y-16932214D01*
X8369643Y-16932214D01*
X8555357Y-16632214D02*
X8583928Y-16632214D01*
X8612500Y-16646500D01*
X8626786Y-16660786D01*
X8641071Y-16689357D01*
X8655357Y-16746500D01*
X8655357Y-16817929D01*
X8641071Y-16875072D01*
X8626786Y-16903643D01*
X8612500Y-16917929D01*
X8583928Y-16932214D01*
X8555357Y-16932214D01*
X8526786Y-16917929D01*
X8512500Y-16903643D01*
X8498214Y-16875072D01*
X8483928Y-16817929D01*
X8483928Y-16746500D01*
X8498214Y-16689357D01*
X8512500Y-16660786D01*
X8526786Y-16646500D01*
X8555357Y-16632214D01*
X8783928Y-16932214D02*
X8783928Y-16732214D01*
X8783928Y-16760786D02*
X8798214Y-16746500D01*
X8826786Y-16732214D01*
X8869643Y-16732214D01*
X8898214Y-16746500D01*
X8912500Y-16775071D01*
X8912500Y-16932214D01*
X8912500Y-16775071D02*
X8926786Y-16746500D01*
X8955357Y-16732214D01*
X8998214Y-16732214D01*
X9026786Y-16746500D01*
X9041071Y-16775071D01*
X9041071Y-16932214D01*
X9183928Y-16932214D02*
X9183928Y-16732214D01*
X9183928Y-16760786D02*
X9198214Y-16746500D01*
X9226786Y-16732214D01*
X9269643Y-16732214D01*
X9298214Y-16746500D01*
X9312500Y-16775071D01*
X9312500Y-16932214D01*
X9312500Y-16775071D02*
X9326786Y-16746500D01*
X9355357Y-16732214D01*
X9398214Y-16732214D01*
X9426786Y-16746500D01*
X9441071Y-16775071D01*
X9441071Y-16932214D01*
X10026786Y-16617929D02*
X9769643Y-17003643D01*
X10412500Y-16632214D02*
X10441071Y-16632214D01*
X10469643Y-16646500D01*
X10483928Y-16660786D01*
X10498214Y-16689357D01*
X10512500Y-16746500D01*
X10512500Y-16817929D01*
X10498214Y-16875072D01*
X10483928Y-16903643D01*
X10469643Y-16917929D01*
X10441071Y-16932214D01*
X10412500Y-16932214D01*
X10383928Y-16917929D01*
X10369643Y-16903643D01*
X10355357Y-16875072D01*
X10341071Y-16817929D01*
X10341071Y-16746500D01*
X10355357Y-16689357D01*
X10369643Y-16660786D01*
X10383928Y-16646500D01*
X10412500Y-16632214D01*
X10641071Y-16903643D02*
X10655357Y-16917929D01*
X10641071Y-16932214D01*
X10626786Y-16917929D01*
X10641071Y-16903643D01*
X10641071Y-16932214D01*
X10841071Y-16632214D02*
X10869643Y-16632214D01*
X10898214Y-16646500D01*
X10912500Y-16660786D01*
X10926786Y-16689357D01*
X10941071Y-16746500D01*
X10941071Y-16817929D01*
X10926786Y-16875072D01*
X10912500Y-16903643D01*
X10898214Y-16917929D01*
X10869643Y-16932214D01*
X10841071Y-16932214D01*
X10812500Y-16917929D01*
X10798214Y-16903643D01*
X10783928Y-16875072D01*
X10769643Y-16817929D01*
X10769643Y-16746500D01*
X10783928Y-16689357D01*
X10798214Y-16660786D01*
X10812500Y-16646500D01*
X10841071Y-16632214D01*
X11198214Y-16732214D02*
X11198214Y-16932214D01*
X11126786Y-16617929D02*
X11055357Y-16832214D01*
X11241071Y-16832214D01*
X11326786Y-16632214D02*
X11526786Y-16632214D01*
X11398214Y-16932214D01*
X11626786Y-16632214D02*
X11626786Y-16689357D01*
X11741071Y-16632214D02*
X11741071Y-16689357D01*
X12183928Y-17046500D02*
X12169643Y-17032214D01*
X12141071Y-16989357D01*
X12126786Y-16960786D01*
X12112500Y-16917929D01*
X12098214Y-16846500D01*
X12098214Y-16789357D01*
X12112500Y-16717929D01*
X12126786Y-16675071D01*
X12141071Y-16646500D01*
X12169643Y-16603643D01*
X12183928Y-16589357D01*
X12283928Y-16660786D02*
X12298214Y-16646500D01*
X12326786Y-16632214D01*
X12398214Y-16632214D01*
X12426786Y-16646500D01*
X12441071Y-16660786D01*
X12455357Y-16689357D01*
X12455357Y-16717929D01*
X12441071Y-16760786D01*
X12269643Y-16932214D01*
X12455357Y-16932214D01*
X12641071Y-16632214D02*
X12669643Y-16632214D01*
X12698214Y-16646500D01*
X12712500Y-16660786D01*
X12726786Y-16689357D01*
X12741071Y-16746500D01*
X12741071Y-16817929D01*
X12726786Y-16875072D01*
X12712500Y-16903643D01*
X12698214Y-16917929D01*
X12669643Y-16932214D01*
X12641071Y-16932214D01*
X12612500Y-16917929D01*
X12598214Y-16903643D01*
X12583928Y-16875072D01*
X12569643Y-16817929D01*
X12569643Y-16746500D01*
X12583928Y-16689357D01*
X12598214Y-16660786D01*
X12612500Y-16646500D01*
X12641071Y-16632214D01*
X13098214Y-16932214D02*
X13098214Y-16632214D01*
X13226786Y-16932214D02*
X13226786Y-16775071D01*
X13212500Y-16746500D01*
X13183928Y-16732214D01*
X13141071Y-16732214D01*
X13112500Y-16746500D01*
X13098214Y-16760786D01*
X13412500Y-16932214D02*
X13383928Y-16917929D01*
X13369643Y-16903643D01*
X13355357Y-16875072D01*
X13355357Y-16789357D01*
X13369643Y-16760786D01*
X13383928Y-16746500D01*
X13412500Y-16732214D01*
X13455357Y-16732214D01*
X13483928Y-16746500D01*
X13498214Y-16760786D01*
X13512500Y-16789357D01*
X13512500Y-16875072D01*
X13498214Y-16903643D01*
X13483928Y-16917929D01*
X13455357Y-16932214D01*
X13412500Y-16932214D01*
X13683928Y-16932214D02*
X13655357Y-16917929D01*
X13641071Y-16889357D01*
X13641071Y-16632214D01*
X13912500Y-16917929D02*
X13883928Y-16932214D01*
X13826786Y-16932214D01*
X13798214Y-16917929D01*
X13783928Y-16889357D01*
X13783928Y-16775071D01*
X13798214Y-16746500D01*
X13826786Y-16732214D01*
X13883928Y-16732214D01*
X13912500Y-16746500D01*
X13926786Y-16775071D01*
X13926786Y-16803643D01*
X13783928Y-16832214D01*
X14041071Y-16917929D02*
X14069643Y-16932214D01*
X14126786Y-16932214D01*
X14155357Y-16917929D01*
X14169643Y-16889357D01*
X14169643Y-16875072D01*
X14155357Y-16846500D01*
X14126786Y-16832214D01*
X14083928Y-16832214D01*
X14055357Y-16817929D01*
X14041071Y-16789357D01*
X14041071Y-16775071D01*
X14055357Y-16746500D01*
X14083928Y-16732214D01*
X14126786Y-16732214D01*
X14155357Y-16746500D01*
X14269643Y-17046500D02*
X14283928Y-17032214D01*
X14312500Y-16989357D01*
X14326786Y-16960786D01*
X14341071Y-16917929D01*
X14355357Y-16846500D01*
X14355357Y-16789357D01*
X14341071Y-16717929D01*
X14326786Y-16675071D01*
X14312500Y-16646500D01*
X14283928Y-16603643D01*
X14269643Y-16589357D01*
X7367500Y-17127500D02*
X7497500Y-17257500D01*
X7497500Y-17127500D02*
X7367500Y-17257500D01*
X7497500Y-17192500D02*
G75*
G03X7497500Y-17192500I-65000J0D01*
G01*
X7941071Y-17328214D02*
X7769643Y-17328214D01*
X7855357Y-17328214D02*
X7855357Y-17028214D01*
X7826786Y-17071072D01*
X7798214Y-17099643D01*
X7769643Y-17113929D01*
X8069643Y-17299643D02*
X8083928Y-17313929D01*
X8069643Y-17328214D01*
X8055357Y-17313929D01*
X8069643Y-17299643D01*
X8069643Y-17328214D01*
X8183928Y-17028214D02*
X8369643Y-17028214D01*
X8269643Y-17142500D01*
X8312500Y-17142500D01*
X8341071Y-17156786D01*
X8355357Y-17171072D01*
X8369643Y-17199643D01*
X8369643Y-17271072D01*
X8355357Y-17299643D01*
X8341071Y-17313929D01*
X8312500Y-17328214D01*
X8226786Y-17328214D01*
X8198214Y-17313929D01*
X8183928Y-17299643D01*
X8555357Y-17028214D02*
X8583928Y-17028214D01*
X8612500Y-17042500D01*
X8626786Y-17056786D01*
X8641071Y-17085357D01*
X8655357Y-17142500D01*
X8655357Y-17213929D01*
X8641071Y-17271072D01*
X8626786Y-17299643D01*
X8612500Y-17313929D01*
X8583928Y-17328214D01*
X8555357Y-17328214D01*
X8526786Y-17313929D01*
X8512500Y-17299643D01*
X8498214Y-17271072D01*
X8483928Y-17213929D01*
X8483928Y-17142500D01*
X8498214Y-17085357D01*
X8512500Y-17056786D01*
X8526786Y-17042500D01*
X8555357Y-17028214D01*
X8783928Y-17328214D02*
X8783928Y-17128214D01*
X8783928Y-17156786D02*
X8798214Y-17142500D01*
X8826786Y-17128214D01*
X8869643Y-17128214D01*
X8898214Y-17142500D01*
X8912500Y-17171072D01*
X8912500Y-17328214D01*
X8912500Y-17171072D02*
X8926786Y-17142500D01*
X8955357Y-17128214D01*
X8998214Y-17128214D01*
X9026786Y-17142500D01*
X9041071Y-17171072D01*
X9041071Y-17328214D01*
X9183928Y-17328214D02*
X9183928Y-17128214D01*
X9183928Y-17156786D02*
X9198214Y-17142500D01*
X9226786Y-17128214D01*
X9269643Y-17128214D01*
X9298214Y-17142500D01*
X9312500Y-17171072D01*
X9312500Y-17328214D01*
X9312500Y-17171072D02*
X9326786Y-17142500D01*
X9355357Y-17128214D01*
X9398214Y-17128214D01*
X9426786Y-17142500D01*
X9441071Y-17171072D01*
X9441071Y-17328214D01*
X10026786Y-17013929D02*
X9769643Y-17399643D01*
X10412500Y-17028214D02*
X10441071Y-17028214D01*
X10469643Y-17042500D01*
X10483928Y-17056786D01*
X10498214Y-17085357D01*
X10512500Y-17142500D01*
X10512500Y-17213929D01*
X10498214Y-17271072D01*
X10483928Y-17299643D01*
X10469643Y-17313929D01*
X10441071Y-17328214D01*
X10412500Y-17328214D01*
X10383928Y-17313929D01*
X10369643Y-17299643D01*
X10355357Y-17271072D01*
X10341071Y-17213929D01*
X10341071Y-17142500D01*
X10355357Y-17085357D01*
X10369643Y-17056786D01*
X10383928Y-17042500D01*
X10412500Y-17028214D01*
X10641071Y-17299643D02*
X10655357Y-17313929D01*
X10641071Y-17328214D01*
X10626786Y-17313929D01*
X10641071Y-17299643D01*
X10641071Y-17328214D01*
X10841071Y-17028214D02*
X10869643Y-17028214D01*
X10898214Y-17042500D01*
X10912500Y-17056786D01*
X10926786Y-17085357D01*
X10941071Y-17142500D01*
X10941071Y-17213929D01*
X10926786Y-17271072D01*
X10912500Y-17299643D01*
X10898214Y-17313929D01*
X10869643Y-17328214D01*
X10841071Y-17328214D01*
X10812500Y-17313929D01*
X10798214Y-17299643D01*
X10783928Y-17271072D01*
X10769643Y-17213929D01*
X10769643Y-17142500D01*
X10783928Y-17085357D01*
X10798214Y-17056786D01*
X10812500Y-17042500D01*
X10841071Y-17028214D01*
X11212500Y-17028214D02*
X11069643Y-17028214D01*
X11055357Y-17171072D01*
X11069643Y-17156786D01*
X11098214Y-17142500D01*
X11169643Y-17142500D01*
X11198214Y-17156786D01*
X11212500Y-17171072D01*
X11226786Y-17199643D01*
X11226786Y-17271072D01*
X11212500Y-17299643D01*
X11198214Y-17313929D01*
X11169643Y-17328214D01*
X11098214Y-17328214D01*
X11069643Y-17313929D01*
X11055357Y-17299643D01*
X11512500Y-17328214D02*
X11341071Y-17328214D01*
X11426786Y-17328214D02*
X11426786Y-17028214D01*
X11398214Y-17071072D01*
X11369643Y-17099643D01*
X11341071Y-17113929D01*
X11626786Y-17028214D02*
X11626786Y-17085357D01*
X11741071Y-17028214D02*
X11741071Y-17085357D01*
X12183928Y-17442500D02*
X12169643Y-17428214D01*
X12141071Y-17385357D01*
X12126786Y-17356786D01*
X12112500Y-17313929D01*
X12098214Y-17242500D01*
X12098214Y-17185357D01*
X12112500Y-17113929D01*
X12126786Y-17071072D01*
X12141071Y-17042500D01*
X12169643Y-16999643D01*
X12183928Y-16985357D01*
X12455357Y-17328214D02*
X12283928Y-17328214D01*
X12369643Y-17328214D02*
X12369643Y-17028214D01*
X12341071Y-17071072D01*
X12312500Y-17099643D01*
X12283928Y-17113929D01*
X12641071Y-17028214D02*
X12669643Y-17028214D01*
X12698214Y-17042500D01*
X12712500Y-17056786D01*
X12726786Y-17085357D01*
X12741071Y-17142500D01*
X12741071Y-17213929D01*
X12726786Y-17271072D01*
X12712500Y-17299643D01*
X12698214Y-17313929D01*
X12669643Y-17328214D01*
X12641071Y-17328214D01*
X12612500Y-17313929D01*
X12598214Y-17299643D01*
X12583928Y-17271072D01*
X12569643Y-17213929D01*
X12569643Y-17142500D01*
X12583928Y-17085357D01*
X12598214Y-17056786D01*
X12612500Y-17042500D01*
X12641071Y-17028214D01*
X13098214Y-17328214D02*
X13098214Y-17028214D01*
X13226786Y-17328214D02*
X13226786Y-17171072D01*
X13212500Y-17142500D01*
X13183928Y-17128214D01*
X13141071Y-17128214D01*
X13112500Y-17142500D01*
X13098214Y-17156786D01*
X13412500Y-17328214D02*
X13383928Y-17313929D01*
X13369643Y-17299643D01*
X13355357Y-17271072D01*
X13355357Y-17185357D01*
X13369643Y-17156786D01*
X13383928Y-17142500D01*
X13412500Y-17128214D01*
X13455357Y-17128214D01*
X13483928Y-17142500D01*
X13498214Y-17156786D01*
X13512500Y-17185357D01*
X13512500Y-17271072D01*
X13498214Y-17299643D01*
X13483928Y-17313929D01*
X13455357Y-17328214D01*
X13412500Y-17328214D01*
X13683928Y-17328214D02*
X13655357Y-17313929D01*
X13641071Y-17285357D01*
X13641071Y-17028214D01*
X13912500Y-17313929D02*
X13883928Y-17328214D01*
X13826786Y-17328214D01*
X13798214Y-17313929D01*
X13783928Y-17285357D01*
X13783928Y-17171072D01*
X13798214Y-17142500D01*
X13826786Y-17128214D01*
X13883928Y-17128214D01*
X13912500Y-17142500D01*
X13926786Y-17171072D01*
X13926786Y-17199643D01*
X13783928Y-17228214D01*
X14041071Y-17313929D02*
X14069643Y-17328214D01*
X14126786Y-17328214D01*
X14155357Y-17313929D01*
X14169643Y-17285357D01*
X14169643Y-17271072D01*
X14155357Y-17242500D01*
X14126786Y-17228214D01*
X14083928Y-17228214D01*
X14055357Y-17213929D01*
X14041071Y-17185357D01*
X14041071Y-17171072D01*
X14055357Y-17142500D01*
X14083928Y-17128214D01*
X14126786Y-17128214D01*
X14155357Y-17142500D01*
X14269643Y-17442500D02*
X14283928Y-17428214D01*
X14312500Y-17385357D01*
X14326786Y-17356786D01*
X14341071Y-17313929D01*
X14355357Y-17242500D01*
X14355357Y-17185357D01*
X14341071Y-17113929D01*
X14326786Y-17071072D01*
X14312500Y-17042500D01*
X14283928Y-16999643D01*
X14269643Y-16985357D01*
M02*
