M48
; DRILL file {KiCad (5.1.4)-1} date 05/09/2021 23:37:08
; FORMAT={-:-/ absolute / metric / decimal}
; #@! TF.CreationDate,2021-09-05T23:37:08-04:00
; #@! TF.GenerationSoftware,Kicad,Pcbnew,(5.1.4)-1
; #@! TF.FileFunction,Plated,1,2,PTH
FMAT,2
METRIC
T1C0.400
T2C0.800
T3C1.000
T4C1.100
T5C1.200
T6C1.300
%
G90
G05
T1
X76.5Y-119.5
X76.5Y-122.25
X76.5Y-139.25
X77.5Y-55.0
X77.5Y-75.0
X77.5Y-95.0
X81.25Y-62.987
X81.25Y-82.987
X81.25Y-102.987
X81.5Y-51.75
X81.5Y-71.75
X81.5Y-91.75
X81.5Y-114.012
X81.737Y-131.512
X83.263Y-62.987
X83.263Y-82.987
X83.263Y-102.987
X84.25Y-59.25
X84.25Y-79.25
X84.25Y-99.25
X84.487Y-114.012
X84.487Y-131.512
X84.75Y-140.25
X85.0Y-123.25
X89.237Y-54.25
X89.237Y-74.25
X89.237Y-94.25
X90.375Y-117.625
X90.75Y-135.5
X91.5Y-122.0
X91.5Y-139.5
X92.25Y-54.25
X92.25Y-74.25
X92.25Y-94.25
X92.25Y-136.25
X92.5Y-122.0
X92.5Y-139.5
X93.75Y-122.0
X93.75Y-139.5
X98.79Y-55.46
X98.79Y-75.46
X98.79Y-95.46
X100.75Y-122.0
X100.75Y-139.5
X103.87Y-55.63
X103.87Y-75.63
X103.87Y-95.63
X105.75Y-118.0
X107.25Y-133.0
X109.0Y-122.0
X109.0Y-139.5
X111.5Y-139.75
X113.5Y-132.75
X114.25Y-122.25
X114.5Y-58.25
X114.5Y-78.25
X114.5Y-98.25
X114.5Y-113.75
X121.0Y-52.5
X121.0Y-72.5
X121.0Y-92.5
X123.25Y-64.25
X123.25Y-84.25
X123.25Y-104.25
X126.25Y-121.0
X127.25Y-136.5
X128.5Y-64.25
X128.5Y-84.25
X128.5Y-104.25
X133.25Y-139.75
X134.0Y-113.5
X134.0Y-122.25
X134.0Y-131.0
X134.25Y-64.25
X134.25Y-84.25
X134.25Y-104.25
X136.25Y-55.75
X136.25Y-75.75
X136.25Y-95.75
X137.0Y-122.25
X137.0Y-139.75
X140.0Y-113.0
X140.0Y-130.5
X142.0Y-53.25
X142.0Y-73.25
X142.0Y-93.25
X148.0Y-53.75
X148.0Y-73.75
X148.0Y-93.75
T2
X109.5Y-117.25
X110.25Y-114.5
X110.25Y-118.0
X110.25Y-118.0
X111.0Y-115.25
X86.5Y-61.5
X87.25Y-58.75
X87.25Y-58.75
X87.25Y-62.25
X88.0Y-59.5
X109.5Y-134.75
X110.25Y-132.0
X110.25Y-135.5
X110.25Y-135.5
X111.0Y-132.75
X86.5Y-134.75
X87.25Y-132.0
X87.25Y-135.5
X87.25Y-135.5
X88.0Y-132.75
X86.5Y-81.5
X87.25Y-78.75
X87.25Y-78.75
X87.25Y-82.25
X88.0Y-79.5
X117.25Y-101.5
X118.0Y-98.75
X118.0Y-98.75
X118.0Y-102.25
X118.75Y-99.5
X86.5Y-117.25
X87.25Y-114.5
X87.25Y-118.0
X87.25Y-118.0
X88.0Y-115.25
X117.25Y-61.5
X118.0Y-58.75
X118.0Y-58.75
X118.0Y-62.25
X118.75Y-59.5
X117.25Y-81.5
X118.0Y-78.75
X118.0Y-78.75
X118.0Y-82.25
X118.75Y-79.5
X86.5Y-101.5
X87.25Y-98.75
X87.25Y-98.75
X87.25Y-102.25
X88.0Y-99.5
T3
X95.0Y-136.25
X97.54Y-136.25
X100.08Y-136.25
X102.62Y-136.25
X138.0Y-59.5
X139.25Y-55.75
X139.25Y-60.75
X140.5Y-57.0
X147.0Y-76.96
X147.0Y-79.5
X130.25Y-119.0
X131.5Y-115.25
X131.5Y-120.25
X132.75Y-116.5
X138.0Y-99.5
X139.25Y-95.75
X139.25Y-100.75
X140.5Y-97.0
X138.0Y-79.5
X139.25Y-75.75
X139.25Y-80.75
X140.5Y-77.0
X95.0Y-118.75
X97.54Y-118.75
X100.08Y-118.75
X102.62Y-118.75
X130.25Y-136.5
X131.5Y-132.75
X131.5Y-137.75
X132.75Y-134.0
X139.5Y-133.75
X139.5Y-136.29
X78.0Y-131.25
X78.0Y-133.79
X78.0Y-113.75
X78.0Y-116.29
X78.0Y-59.71
X78.0Y-62.25
X139.5Y-116.25
X139.5Y-118.79
X78.0Y-99.71
X78.0Y-102.25
X147.0Y-96.96
X147.0Y-99.5
X147.0Y-56.96
X147.0Y-59.5
X78.0Y-79.71
X78.0Y-82.25
T4
X96.25Y-77.5
X98.79Y-77.5
X103.87Y-77.5
X106.41Y-77.5
X108.95Y-77.5
X96.25Y-57.5
X98.79Y-57.5
X103.87Y-57.5
X106.41Y-57.5
X108.95Y-57.5
X96.25Y-97.5
X98.79Y-97.5
X103.87Y-97.5
X106.41Y-97.5
X108.95Y-97.5
T5
X117.75Y-133.25
X117.75Y-137.25
X122.75Y-133.25
X122.75Y-137.25
X126.0Y-56.0
X126.0Y-61.0
X130.0Y-56.0
X130.0Y-61.0
X117.75Y-115.75
X117.75Y-119.75
X122.75Y-115.75
X122.75Y-119.75
X126.0Y-96.0
X126.0Y-101.0
X130.0Y-96.0
X130.0Y-101.0
X126.0Y-76.0
X126.0Y-81.0
X130.0Y-76.0
X130.0Y-81.0
T6
X119.0Y-119.83
X121.5Y-115.5
X125.552Y-57.54
X130.25Y-59.25
X119.0Y-137.33
X121.5Y-133.0
X125.552Y-77.54
X130.25Y-79.25
X125.552Y-97.54
X130.25Y-99.25
T0
M30
