G04 #@! TF.GenerationSoftware,KiCad,Pcbnew,(5.1.4)-1*
G04 #@! TF.CreationDate,2021-09-05T23:40:42-04:00*
G04 #@! TF.ProjectId,ground_loop_breaker,67726f75-6e64-45f6-9c6f-6f705f627265,rev?*
G04 #@! TF.SameCoordinates,Original*
G04 #@! TF.FileFunction,Soldermask,Bot*
G04 #@! TF.FilePolarity,Negative*
%FSLAX46Y46*%
G04 Gerber Fmt 4.6, Leading zero omitted, Abs format (unit mm)*
G04 Created by KiCad (PCBNEW (5.1.4)-1) date 2021-09-05 23:40:42*
%MOMM*%
%LPD*%
G04 APERTURE LIST*
%ADD10C,0.100000*%
G04 APERTURE END LIST*
D10*
G36*
X100850562Y-138578181D02*
G01*
X100885481Y-138588774D01*
X100917663Y-138605976D01*
X100945873Y-138629127D01*
X100969024Y-138657337D01*
X100986226Y-138689519D01*
X100996819Y-138724438D01*
X101001000Y-138766895D01*
X101001000Y-140233105D01*
X100996819Y-140275562D01*
X100986226Y-140310481D01*
X100969024Y-140342663D01*
X100945873Y-140370873D01*
X100917663Y-140394024D01*
X100885481Y-140411226D01*
X100850562Y-140421819D01*
X100808105Y-140426000D01*
X99666895Y-140426000D01*
X99624438Y-140421819D01*
X99589519Y-140411226D01*
X99557337Y-140394024D01*
X99529127Y-140370873D01*
X99505976Y-140342663D01*
X99488774Y-140310481D01*
X99478181Y-140275562D01*
X99474000Y-140233105D01*
X99474000Y-138766895D01*
X99478181Y-138724438D01*
X99488774Y-138689519D01*
X99505976Y-138657337D01*
X99529127Y-138629127D01*
X99557337Y-138605976D01*
X99589519Y-138588774D01*
X99624438Y-138578181D01*
X99666895Y-138574000D01*
X100808105Y-138574000D01*
X100850562Y-138578181D01*
X100850562Y-138578181D01*
G37*
G36*
X97875562Y-138578181D02*
G01*
X97910481Y-138588774D01*
X97942663Y-138605976D01*
X97970873Y-138629127D01*
X97994024Y-138657337D01*
X98011226Y-138689519D01*
X98021819Y-138724438D01*
X98026000Y-138766895D01*
X98026000Y-140233105D01*
X98021819Y-140275562D01*
X98011226Y-140310481D01*
X97994024Y-140342663D01*
X97970873Y-140370873D01*
X97942663Y-140394024D01*
X97910481Y-140411226D01*
X97875562Y-140421819D01*
X97833105Y-140426000D01*
X96691895Y-140426000D01*
X96649438Y-140421819D01*
X96614519Y-140411226D01*
X96582337Y-140394024D01*
X96554127Y-140370873D01*
X96530976Y-140342663D01*
X96513774Y-140310481D01*
X96503181Y-140275562D01*
X96499000Y-140233105D01*
X96499000Y-138766895D01*
X96503181Y-138724438D01*
X96513774Y-138689519D01*
X96530976Y-138657337D01*
X96554127Y-138629127D01*
X96582337Y-138605976D01*
X96614519Y-138588774D01*
X96649438Y-138578181D01*
X96691895Y-138574000D01*
X97833105Y-138574000D01*
X97875562Y-138578181D01*
X97875562Y-138578181D01*
G37*
G36*
X130556564Y-135489389D02*
G01*
X130747833Y-135568615D01*
X130747835Y-135568616D01*
X130919973Y-135683635D01*
X131066365Y-135830027D01*
X131142207Y-135943532D01*
X131181385Y-136002167D01*
X131260611Y-136193436D01*
X131301000Y-136396484D01*
X131301000Y-136574001D01*
X131303402Y-136598387D01*
X131310515Y-136621836D01*
X131322066Y-136643447D01*
X131337611Y-136662389D01*
X131356553Y-136677934D01*
X131378164Y-136689485D01*
X131401613Y-136696598D01*
X131425999Y-136699000D01*
X131603516Y-136699000D01*
X131806564Y-136739389D01*
X131997833Y-136818615D01*
X131997835Y-136818616D01*
X132169973Y-136933635D01*
X132316365Y-137080027D01*
X132394567Y-137197064D01*
X132431385Y-137252167D01*
X132510611Y-137443436D01*
X132551000Y-137646484D01*
X132551000Y-137853516D01*
X132510611Y-138056564D01*
X132431385Y-138247833D01*
X132431384Y-138247835D01*
X132316365Y-138419973D01*
X132169973Y-138566365D01*
X131997835Y-138681384D01*
X131997834Y-138681385D01*
X131997833Y-138681385D01*
X131806564Y-138760611D01*
X131603516Y-138801000D01*
X131396484Y-138801000D01*
X131193436Y-138760611D01*
X131002167Y-138681385D01*
X131002166Y-138681385D01*
X131002165Y-138681384D01*
X130830027Y-138566365D01*
X130683635Y-138419973D01*
X130568616Y-138247835D01*
X130568615Y-138247833D01*
X130489389Y-138056564D01*
X130449000Y-137853516D01*
X130449000Y-137675999D01*
X130446598Y-137651613D01*
X130439485Y-137628164D01*
X130427934Y-137606553D01*
X130412389Y-137587611D01*
X130393447Y-137572066D01*
X130371836Y-137560515D01*
X130348387Y-137553402D01*
X130324001Y-137551000D01*
X130146484Y-137551000D01*
X129943436Y-137510611D01*
X129752167Y-137431385D01*
X129752166Y-137431385D01*
X129752165Y-137431384D01*
X129580027Y-137316365D01*
X129433635Y-137169973D01*
X129318616Y-136997835D01*
X129293026Y-136936055D01*
X129239389Y-136806564D01*
X129199000Y-136603516D01*
X129199000Y-136396484D01*
X129239389Y-136193436D01*
X129318615Y-136002167D01*
X129357794Y-135943532D01*
X129433635Y-135830027D01*
X129580027Y-135683635D01*
X129752165Y-135568616D01*
X129752167Y-135568615D01*
X129943436Y-135489389D01*
X130146484Y-135449000D01*
X130353516Y-135449000D01*
X130556564Y-135489389D01*
X130556564Y-135489389D01*
G37*
G36*
X118106940Y-135943532D02*
G01*
X118144072Y-135950918D01*
X118389939Y-136052759D01*
X118396846Y-136057374D01*
X118396979Y-136057463D01*
X118418590Y-136069015D01*
X118442039Y-136076128D01*
X118466425Y-136078530D01*
X118490811Y-136076128D01*
X118514257Y-136069016D01*
X118605928Y-136031045D01*
X118751118Y-136002165D01*
X118866937Y-135979127D01*
X119133063Y-135979127D01*
X119394072Y-136031045D01*
X119592831Y-136113373D01*
X119639939Y-136132886D01*
X119697140Y-136171107D01*
X119861211Y-136280736D01*
X120049391Y-136468916D01*
X120197242Y-136690190D01*
X120299082Y-136936055D01*
X120351000Y-137197064D01*
X120351000Y-137463190D01*
X120341567Y-137510611D01*
X120299082Y-137724199D01*
X120197241Y-137970066D01*
X120139444Y-138056564D01*
X120080995Y-138144040D01*
X120049390Y-138191339D01*
X119861212Y-138379517D01*
X119639939Y-138527368D01*
X119639938Y-138527369D01*
X119639937Y-138527369D01*
X119394072Y-138629209D01*
X119133063Y-138681127D01*
X118866937Y-138681127D01*
X118605928Y-138629209D01*
X118605730Y-138629127D01*
X118360061Y-138527368D01*
X118353021Y-138522664D01*
X118331410Y-138511112D01*
X118307961Y-138503999D01*
X118283575Y-138501597D01*
X118259189Y-138503999D01*
X118235743Y-138511111D01*
X118144072Y-138549082D01*
X118057184Y-138566365D01*
X117883063Y-138601000D01*
X117616937Y-138601000D01*
X117355928Y-138549082D01*
X117110063Y-138447242D01*
X117110062Y-138447242D01*
X117110061Y-138447241D01*
X116998672Y-138372813D01*
X116888789Y-138299391D01*
X116700609Y-138111211D01*
X116552758Y-137889937D01*
X116450918Y-137644072D01*
X116399000Y-137383063D01*
X116399000Y-137116937D01*
X116450918Y-136855928D01*
X116552758Y-136610063D01*
X116557133Y-136603516D01*
X116648599Y-136466627D01*
X116700609Y-136388789D01*
X116888789Y-136200609D01*
X116998672Y-136127187D01*
X117110061Y-136052759D01*
X117197944Y-136016357D01*
X117355928Y-135950918D01*
X117616937Y-135899000D01*
X117883063Y-135899000D01*
X118106940Y-135943532D01*
X118106940Y-135943532D01*
G37*
G36*
X122974549Y-136121116D02*
G01*
X123085734Y-136143232D01*
X123295203Y-136229997D01*
X123483720Y-136355960D01*
X123644040Y-136516280D01*
X123770003Y-136704797D01*
X123770004Y-136704799D01*
X123784332Y-136739390D01*
X123856768Y-136914266D01*
X123865833Y-136959838D01*
X123898973Y-137126443D01*
X123901000Y-137136636D01*
X123901000Y-137363364D01*
X123856768Y-137585734D01*
X123770003Y-137795203D01*
X123644040Y-137983720D01*
X123483720Y-138144040D01*
X123295203Y-138270003D01*
X123085734Y-138356768D01*
X122974549Y-138378884D01*
X122863365Y-138401000D01*
X122636635Y-138401000D01*
X122525451Y-138378884D01*
X122414266Y-138356768D01*
X122204797Y-138270003D01*
X122016280Y-138144040D01*
X121855960Y-137983720D01*
X121729997Y-137795203D01*
X121643232Y-137585734D01*
X121599000Y-137363364D01*
X121599000Y-137136636D01*
X121601028Y-137126443D01*
X121634167Y-136959838D01*
X121643232Y-136914266D01*
X121715668Y-136739390D01*
X121729996Y-136704799D01*
X121729997Y-136704797D01*
X121855960Y-136516280D01*
X122016280Y-136355960D01*
X122204797Y-136229997D01*
X122414266Y-136143232D01*
X122525451Y-136121116D01*
X122636635Y-136099000D01*
X122863365Y-136099000D01*
X122974549Y-136121116D01*
X122974549Y-136121116D01*
G37*
G36*
X139610443Y-135395519D02*
G01*
X139676627Y-135402037D01*
X139846466Y-135453557D01*
X140002991Y-135537222D01*
X140038729Y-135566552D01*
X140140186Y-135649814D01*
X140213700Y-135739393D01*
X140252778Y-135787009D01*
X140336443Y-135943534D01*
X140387963Y-136113373D01*
X140405359Y-136290000D01*
X140387963Y-136466627D01*
X140336443Y-136636466D01*
X140252778Y-136792991D01*
X140241638Y-136806565D01*
X140140186Y-136930186D01*
X140057754Y-136997835D01*
X140002991Y-137042778D01*
X140002989Y-137042779D01*
X139864249Y-137116938D01*
X139846466Y-137126443D01*
X139676627Y-137177963D01*
X139610443Y-137184481D01*
X139544260Y-137191000D01*
X139455740Y-137191000D01*
X139389557Y-137184481D01*
X139323373Y-137177963D01*
X139153534Y-137126443D01*
X139135752Y-137116938D01*
X138997011Y-137042779D01*
X138997009Y-137042778D01*
X138942246Y-136997835D01*
X138859814Y-136930186D01*
X138758362Y-136806565D01*
X138747222Y-136792991D01*
X138663557Y-136636466D01*
X138612037Y-136466627D01*
X138594641Y-136290000D01*
X138612037Y-136113373D01*
X138663557Y-135943534D01*
X138747222Y-135787009D01*
X138786300Y-135739393D01*
X138859814Y-135649814D01*
X138961271Y-135566552D01*
X138997009Y-135537222D01*
X139153534Y-135453557D01*
X139323373Y-135402037D01*
X139389557Y-135395519D01*
X139455740Y-135389000D01*
X139544260Y-135389000D01*
X139610443Y-135395519D01*
X139610443Y-135395519D01*
G37*
G36*
X95233642Y-135479781D02*
G01*
X95372316Y-135537222D01*
X95379416Y-135540163D01*
X95510608Y-135627822D01*
X95622178Y-135739392D01*
X95709837Y-135870584D01*
X95709838Y-135870586D01*
X95770219Y-136016358D01*
X95801000Y-136171107D01*
X95801000Y-136328893D01*
X95770219Y-136483642D01*
X95756699Y-136516281D01*
X95709837Y-136629416D01*
X95622178Y-136760608D01*
X95510608Y-136872178D01*
X95379416Y-136959837D01*
X95379415Y-136959838D01*
X95379414Y-136959838D01*
X95233642Y-137020219D01*
X95078893Y-137051000D01*
X94921107Y-137051000D01*
X94766358Y-137020219D01*
X94620586Y-136959838D01*
X94620585Y-136959838D01*
X94620584Y-136959837D01*
X94489392Y-136872178D01*
X94377822Y-136760608D01*
X94290163Y-136629416D01*
X94243301Y-136516281D01*
X94229781Y-136483642D01*
X94199000Y-136328893D01*
X94199000Y-136171107D01*
X94229781Y-136016358D01*
X94290162Y-135870586D01*
X94290163Y-135870584D01*
X94377822Y-135739392D01*
X94489392Y-135627822D01*
X94620584Y-135540163D01*
X94627684Y-135537222D01*
X94766358Y-135479781D01*
X94921107Y-135449000D01*
X95078893Y-135449000D01*
X95233642Y-135479781D01*
X95233642Y-135479781D01*
G37*
G36*
X97773642Y-135479781D02*
G01*
X97912316Y-135537222D01*
X97919416Y-135540163D01*
X98050608Y-135627822D01*
X98162178Y-135739392D01*
X98249837Y-135870584D01*
X98249838Y-135870586D01*
X98310219Y-136016358D01*
X98341000Y-136171107D01*
X98341000Y-136328893D01*
X98310219Y-136483642D01*
X98296699Y-136516281D01*
X98249837Y-136629416D01*
X98162178Y-136760608D01*
X98050608Y-136872178D01*
X97919416Y-136959837D01*
X97919415Y-136959838D01*
X97919414Y-136959838D01*
X97773642Y-137020219D01*
X97618893Y-137051000D01*
X97461107Y-137051000D01*
X97306358Y-137020219D01*
X97160586Y-136959838D01*
X97160585Y-136959838D01*
X97160584Y-136959837D01*
X97029392Y-136872178D01*
X96917822Y-136760608D01*
X96830163Y-136629416D01*
X96783301Y-136516281D01*
X96769781Y-136483642D01*
X96739000Y-136328893D01*
X96739000Y-136171107D01*
X96769781Y-136016358D01*
X96830162Y-135870586D01*
X96830163Y-135870584D01*
X96917822Y-135739392D01*
X97029392Y-135627822D01*
X97160584Y-135540163D01*
X97167684Y-135537222D01*
X97306358Y-135479781D01*
X97461107Y-135449000D01*
X97618893Y-135449000D01*
X97773642Y-135479781D01*
X97773642Y-135479781D01*
G37*
G36*
X102853642Y-135479781D02*
G01*
X102992316Y-135537222D01*
X102999416Y-135540163D01*
X103130608Y-135627822D01*
X103242178Y-135739392D01*
X103329837Y-135870584D01*
X103329838Y-135870586D01*
X103390219Y-136016358D01*
X103421000Y-136171107D01*
X103421000Y-136328893D01*
X103390219Y-136483642D01*
X103376699Y-136516281D01*
X103329837Y-136629416D01*
X103242178Y-136760608D01*
X103130608Y-136872178D01*
X102999416Y-136959837D01*
X102999415Y-136959838D01*
X102999414Y-136959838D01*
X102853642Y-137020219D01*
X102698893Y-137051000D01*
X102541107Y-137051000D01*
X102386358Y-137020219D01*
X102240586Y-136959838D01*
X102240585Y-136959838D01*
X102240584Y-136959837D01*
X102109392Y-136872178D01*
X101997822Y-136760608D01*
X101910163Y-136629416D01*
X101863301Y-136516281D01*
X101849781Y-136483642D01*
X101819000Y-136328893D01*
X101819000Y-136171107D01*
X101849781Y-136016358D01*
X101910162Y-135870586D01*
X101910163Y-135870584D01*
X101997822Y-135739392D01*
X102109392Y-135627822D01*
X102240584Y-135540163D01*
X102247684Y-135537222D01*
X102386358Y-135479781D01*
X102541107Y-135449000D01*
X102698893Y-135449000D01*
X102853642Y-135479781D01*
X102853642Y-135479781D01*
G37*
G36*
X100313642Y-135479781D02*
G01*
X100452316Y-135537222D01*
X100459416Y-135540163D01*
X100590608Y-135627822D01*
X100702178Y-135739392D01*
X100789837Y-135870584D01*
X100789838Y-135870586D01*
X100850219Y-136016358D01*
X100881000Y-136171107D01*
X100881000Y-136328893D01*
X100850219Y-136483642D01*
X100836699Y-136516281D01*
X100789837Y-136629416D01*
X100702178Y-136760608D01*
X100590608Y-136872178D01*
X100459416Y-136959837D01*
X100459415Y-136959838D01*
X100459414Y-136959838D01*
X100313642Y-137020219D01*
X100158893Y-137051000D01*
X100001107Y-137051000D01*
X99846358Y-137020219D01*
X99700586Y-136959838D01*
X99700585Y-136959838D01*
X99700584Y-136959837D01*
X99569392Y-136872178D01*
X99457822Y-136760608D01*
X99370163Y-136629416D01*
X99323301Y-136516281D01*
X99309781Y-136483642D01*
X99279000Y-136328893D01*
X99279000Y-136171107D01*
X99309781Y-136016358D01*
X99370162Y-135870586D01*
X99370163Y-135870584D01*
X99457822Y-135739392D01*
X99569392Y-135627822D01*
X99700584Y-135540163D01*
X99707684Y-135537222D01*
X99846358Y-135479781D01*
X100001107Y-135449000D01*
X100158893Y-135449000D01*
X100313642Y-135479781D01*
X100313642Y-135479781D01*
G37*
G36*
X87351000Y-134524001D02*
G01*
X87353402Y-134548387D01*
X87360515Y-134571836D01*
X87372066Y-134593447D01*
X87387611Y-134612389D01*
X87406553Y-134627934D01*
X87428164Y-134639485D01*
X87451613Y-134646598D01*
X87475999Y-134649000D01*
X88101000Y-134649000D01*
X88101000Y-136351000D01*
X86399000Y-136351000D01*
X86399000Y-135725999D01*
X86396598Y-135701613D01*
X86389485Y-135678164D01*
X86377934Y-135656553D01*
X86362389Y-135637611D01*
X86343447Y-135622066D01*
X86321836Y-135610515D01*
X86298387Y-135603402D01*
X86274001Y-135601000D01*
X85649000Y-135601000D01*
X85649000Y-133899000D01*
X87351000Y-133899000D01*
X87351000Y-134524001D01*
X87351000Y-134524001D01*
G37*
G36*
X110351000Y-134524001D02*
G01*
X110353402Y-134548387D01*
X110360515Y-134571836D01*
X110372066Y-134593447D01*
X110387611Y-134612389D01*
X110406553Y-134627934D01*
X110428164Y-134639485D01*
X110451613Y-134646598D01*
X110475999Y-134649000D01*
X111101000Y-134649000D01*
X111101000Y-136351000D01*
X109399000Y-136351000D01*
X109399000Y-135725999D01*
X109396598Y-135701613D01*
X109389485Y-135678164D01*
X109377934Y-135656553D01*
X109362389Y-135637611D01*
X109343447Y-135622066D01*
X109321836Y-135610515D01*
X109298387Y-135603402D01*
X109274001Y-135601000D01*
X108649000Y-135601000D01*
X108649000Y-133899000D01*
X110351000Y-133899000D01*
X110351000Y-134524001D01*
X110351000Y-134524001D01*
G37*
G36*
X132551000Y-132824001D02*
G01*
X132553402Y-132848387D01*
X132560515Y-132871836D01*
X132572066Y-132893447D01*
X132587611Y-132912389D01*
X132606553Y-132927934D01*
X132628164Y-132939485D01*
X132651613Y-132946598D01*
X132675999Y-132949000D01*
X133801000Y-132949000D01*
X133801000Y-135051000D01*
X131699000Y-135051000D01*
X131699000Y-133925999D01*
X131696598Y-133901613D01*
X131689485Y-133878164D01*
X131677934Y-133856553D01*
X131662389Y-133837611D01*
X131643447Y-133822066D01*
X131621836Y-133810515D01*
X131598387Y-133803402D01*
X131574001Y-133801000D01*
X130449000Y-133801000D01*
X130449000Y-131699000D01*
X132551000Y-131699000D01*
X132551000Y-132824001D01*
X132551000Y-132824001D01*
G37*
G36*
X78110442Y-132895518D02*
G01*
X78176627Y-132902037D01*
X78346466Y-132953557D01*
X78502991Y-133037222D01*
X78538729Y-133066552D01*
X78640186Y-133149814D01*
X78723448Y-133251271D01*
X78752778Y-133287009D01*
X78836443Y-133443534D01*
X78887963Y-133613373D01*
X78905359Y-133790000D01*
X78887963Y-133966627D01*
X78836443Y-134136466D01*
X78752778Y-134292991D01*
X78738766Y-134310064D01*
X78640186Y-134430186D01*
X78538729Y-134513448D01*
X78502991Y-134542778D01*
X78346466Y-134626443D01*
X78176627Y-134677963D01*
X78110442Y-134684482D01*
X78044260Y-134691000D01*
X77955740Y-134691000D01*
X77889558Y-134684482D01*
X77823373Y-134677963D01*
X77653534Y-134626443D01*
X77497009Y-134542778D01*
X77461271Y-134513448D01*
X77359814Y-134430186D01*
X77261234Y-134310064D01*
X77247222Y-134292991D01*
X77163557Y-134136466D01*
X77112037Y-133966627D01*
X77094641Y-133790000D01*
X77112037Y-133613373D01*
X77163557Y-133443534D01*
X77247222Y-133287009D01*
X77276552Y-133251271D01*
X77359814Y-133149814D01*
X77461271Y-133066552D01*
X77497009Y-133037222D01*
X77653534Y-132953557D01*
X77823373Y-132902037D01*
X77889558Y-132895518D01*
X77955740Y-132889000D01*
X78044260Y-132889000D01*
X78110442Y-132895518D01*
X78110442Y-132895518D01*
G37*
G36*
X140401000Y-134651000D02*
G01*
X138599000Y-134651000D01*
X138599000Y-132849000D01*
X140401000Y-132849000D01*
X140401000Y-134651000D01*
X140401000Y-134651000D01*
G37*
G36*
X121884430Y-131699000D02*
G01*
X121894072Y-131700918D01*
X122139939Y-131802759D01*
X122283973Y-131899000D01*
X122317305Y-131921272D01*
X122338916Y-131932823D01*
X122362365Y-131939936D01*
X122386751Y-131942338D01*
X122411137Y-131939936D01*
X122616937Y-131899000D01*
X122883063Y-131899000D01*
X123053102Y-131932823D01*
X123144072Y-131950918D01*
X123389939Y-132052759D01*
X123459143Y-132099000D01*
X123611211Y-132200609D01*
X123799391Y-132388789D01*
X123947242Y-132610063D01*
X124049082Y-132855928D01*
X124101000Y-133116937D01*
X124101000Y-133383063D01*
X124049082Y-133644072D01*
X123952119Y-133878164D01*
X123947241Y-133889939D01*
X123923146Y-133925999D01*
X123799391Y-134111211D01*
X123611211Y-134299391D01*
X123501328Y-134372813D01*
X123389939Y-134447241D01*
X123389938Y-134447242D01*
X123389937Y-134447242D01*
X123144072Y-134549082D01*
X122883063Y-134601000D01*
X122616937Y-134601000D01*
X122355928Y-134549082D01*
X122110063Y-134447242D01*
X122110062Y-134447242D01*
X122110061Y-134447241D01*
X121932695Y-134328728D01*
X121911084Y-134317177D01*
X121887635Y-134310064D01*
X121863249Y-134307662D01*
X121838863Y-134310064D01*
X121633063Y-134351000D01*
X121366937Y-134351000D01*
X121105928Y-134299082D01*
X120860063Y-134197242D01*
X120860062Y-134197242D01*
X120860061Y-134197241D01*
X120638788Y-134049390D01*
X120450610Y-133861212D01*
X120406503Y-133795201D01*
X120302758Y-133639937D01*
X120200918Y-133394072D01*
X120149000Y-133133063D01*
X120149000Y-132866937D01*
X120200918Y-132605928D01*
X120302758Y-132360063D01*
X120305500Y-132355960D01*
X120404685Y-132207519D01*
X120450609Y-132138789D01*
X120638789Y-131950609D01*
X120799262Y-131843384D01*
X120860061Y-131802759D01*
X121105928Y-131700918D01*
X121115570Y-131699000D01*
X121366937Y-131649000D01*
X121633063Y-131649000D01*
X121884430Y-131699000D01*
X121884430Y-131699000D01*
G37*
G36*
X117974549Y-132121116D02*
G01*
X118085734Y-132143232D01*
X118295203Y-132229997D01*
X118483720Y-132355960D01*
X118644040Y-132516280D01*
X118770003Y-132704797D01*
X118856768Y-132914266D01*
X118861784Y-132939485D01*
X118898885Y-133126000D01*
X118901000Y-133136636D01*
X118901000Y-133363364D01*
X118856768Y-133585734D01*
X118770003Y-133795203D01*
X118644040Y-133983720D01*
X118483720Y-134144040D01*
X118295203Y-134270003D01*
X118085734Y-134356768D01*
X117974549Y-134378884D01*
X117863365Y-134401000D01*
X117636635Y-134401000D01*
X117525451Y-134378884D01*
X117414266Y-134356768D01*
X117204797Y-134270003D01*
X117016280Y-134144040D01*
X116855960Y-133983720D01*
X116729997Y-133795203D01*
X116643232Y-133585734D01*
X116599000Y-133363364D01*
X116599000Y-133136636D01*
X116601116Y-133126000D01*
X116638216Y-132939485D01*
X116643232Y-132914266D01*
X116729997Y-132704797D01*
X116855960Y-132516280D01*
X117016280Y-132355960D01*
X117204797Y-132229997D01*
X117414266Y-132143232D01*
X117525451Y-132121116D01*
X117636635Y-132099000D01*
X117863365Y-132099000D01*
X117974549Y-132121116D01*
X117974549Y-132121116D01*
G37*
G36*
X87498228Y-131181703D02*
G01*
X87653100Y-131245853D01*
X87792481Y-131338985D01*
X87911015Y-131457519D01*
X88004147Y-131596900D01*
X88068297Y-131751772D01*
X88081858Y-131819947D01*
X88088967Y-131843384D01*
X88100518Y-131864995D01*
X88116063Y-131883937D01*
X88135005Y-131899482D01*
X88156616Y-131911033D01*
X88180053Y-131918142D01*
X88248228Y-131931703D01*
X88403100Y-131995853D01*
X88542481Y-132088985D01*
X88661015Y-132207519D01*
X88754147Y-132346900D01*
X88818297Y-132501772D01*
X88851000Y-132666184D01*
X88851000Y-132833816D01*
X88818297Y-132998228D01*
X88754147Y-133153100D01*
X88661015Y-133292481D01*
X88542481Y-133411015D01*
X88403100Y-133504147D01*
X88248228Y-133568297D01*
X88083816Y-133601000D01*
X87916184Y-133601000D01*
X87751772Y-133568297D01*
X87596900Y-133504147D01*
X87457519Y-133411015D01*
X87338985Y-133292481D01*
X87245853Y-133153100D01*
X87181703Y-132998228D01*
X87168142Y-132930053D01*
X87161033Y-132906616D01*
X87149482Y-132885005D01*
X87133937Y-132866063D01*
X87114995Y-132850518D01*
X87093384Y-132838967D01*
X87069947Y-132831858D01*
X87001772Y-132818297D01*
X86846900Y-132754147D01*
X86707519Y-132661015D01*
X86588985Y-132542481D01*
X86495853Y-132403100D01*
X86431703Y-132248228D01*
X86399000Y-132083816D01*
X86399000Y-131916184D01*
X86431703Y-131751772D01*
X86495853Y-131596900D01*
X86588985Y-131457519D01*
X86707519Y-131338985D01*
X86846900Y-131245853D01*
X87001772Y-131181703D01*
X87166184Y-131149000D01*
X87333816Y-131149000D01*
X87498228Y-131181703D01*
X87498228Y-131181703D01*
G37*
G36*
X110498228Y-131181703D02*
G01*
X110653100Y-131245853D01*
X110792481Y-131338985D01*
X110911015Y-131457519D01*
X111004147Y-131596900D01*
X111068297Y-131751772D01*
X111081858Y-131819947D01*
X111088967Y-131843384D01*
X111100518Y-131864995D01*
X111116063Y-131883937D01*
X111135005Y-131899482D01*
X111156616Y-131911033D01*
X111180053Y-131918142D01*
X111248228Y-131931703D01*
X111403100Y-131995853D01*
X111542481Y-132088985D01*
X111661015Y-132207519D01*
X111754147Y-132346900D01*
X111818297Y-132501772D01*
X111851000Y-132666184D01*
X111851000Y-132833816D01*
X111818297Y-132998228D01*
X111754147Y-133153100D01*
X111661015Y-133292481D01*
X111542481Y-133411015D01*
X111403100Y-133504147D01*
X111248228Y-133568297D01*
X111083816Y-133601000D01*
X110916184Y-133601000D01*
X110751772Y-133568297D01*
X110596900Y-133504147D01*
X110457519Y-133411015D01*
X110338985Y-133292481D01*
X110245853Y-133153100D01*
X110181703Y-132998228D01*
X110168142Y-132930053D01*
X110161033Y-132906616D01*
X110149482Y-132885005D01*
X110133937Y-132866063D01*
X110114995Y-132850518D01*
X110093384Y-132838967D01*
X110069947Y-132831858D01*
X110001772Y-132818297D01*
X109846900Y-132754147D01*
X109707519Y-132661015D01*
X109588985Y-132542481D01*
X109495853Y-132403100D01*
X109431703Y-132248228D01*
X109399000Y-132083816D01*
X109399000Y-131916184D01*
X109431703Y-131751772D01*
X109495853Y-131596900D01*
X109588985Y-131457519D01*
X109707519Y-131338985D01*
X109846900Y-131245853D01*
X110001772Y-131181703D01*
X110166184Y-131149000D01*
X110333816Y-131149000D01*
X110498228Y-131181703D01*
X110498228Y-131181703D01*
G37*
G36*
X136051000Y-133126000D02*
G01*
X134949000Y-133126000D01*
X134949000Y-131974000D01*
X136051000Y-131974000D01*
X136051000Y-133126000D01*
X136051000Y-133126000D01*
G37*
G36*
X137551000Y-132176000D02*
G01*
X136399000Y-132176000D01*
X136399000Y-129874000D01*
X137551000Y-129874000D01*
X137551000Y-132176000D01*
X137551000Y-132176000D01*
G37*
G36*
X134601000Y-132176000D02*
G01*
X133449000Y-132176000D01*
X133449000Y-129874000D01*
X134601000Y-129874000D01*
X134601000Y-132176000D01*
X134601000Y-132176000D01*
G37*
G36*
X78901000Y-132151000D02*
G01*
X77099000Y-132151000D01*
X77099000Y-130349000D01*
X78901000Y-130349000D01*
X78901000Y-132151000D01*
X78901000Y-132151000D01*
G37*
G36*
X97875562Y-121078181D02*
G01*
X97910481Y-121088774D01*
X97942663Y-121105976D01*
X97970873Y-121129127D01*
X97994024Y-121157337D01*
X98011226Y-121189519D01*
X98021819Y-121224438D01*
X98026000Y-121266895D01*
X98026000Y-122733105D01*
X98021819Y-122775562D01*
X98011226Y-122810481D01*
X97994024Y-122842663D01*
X97970873Y-122870873D01*
X97942663Y-122894024D01*
X97910481Y-122911226D01*
X97875562Y-122921819D01*
X97833105Y-122926000D01*
X96691895Y-122926000D01*
X96649438Y-122921819D01*
X96614519Y-122911226D01*
X96582337Y-122894024D01*
X96554127Y-122870873D01*
X96530976Y-122842663D01*
X96513774Y-122810481D01*
X96503181Y-122775562D01*
X96499000Y-122733105D01*
X96499000Y-121266895D01*
X96503181Y-121224438D01*
X96513774Y-121189519D01*
X96530976Y-121157337D01*
X96554127Y-121129127D01*
X96582337Y-121105976D01*
X96614519Y-121088774D01*
X96649438Y-121078181D01*
X96691895Y-121074000D01*
X97833105Y-121074000D01*
X97875562Y-121078181D01*
X97875562Y-121078181D01*
G37*
G36*
X100850562Y-121078181D02*
G01*
X100885481Y-121088774D01*
X100917663Y-121105976D01*
X100945873Y-121129127D01*
X100969024Y-121157337D01*
X100986226Y-121189519D01*
X100996819Y-121224438D01*
X101001000Y-121266895D01*
X101001000Y-122733105D01*
X100996819Y-122775562D01*
X100986226Y-122810481D01*
X100969024Y-122842663D01*
X100945873Y-122870873D01*
X100917663Y-122894024D01*
X100885481Y-122911226D01*
X100850562Y-122921819D01*
X100808105Y-122926000D01*
X99666895Y-122926000D01*
X99624438Y-122921819D01*
X99589519Y-122911226D01*
X99557337Y-122894024D01*
X99529127Y-122870873D01*
X99505976Y-122842663D01*
X99488774Y-122810481D01*
X99478181Y-122775562D01*
X99474000Y-122733105D01*
X99474000Y-121266895D01*
X99478181Y-121224438D01*
X99488774Y-121189519D01*
X99505976Y-121157337D01*
X99529127Y-121129127D01*
X99557337Y-121105976D01*
X99589519Y-121088774D01*
X99624438Y-121078181D01*
X99666895Y-121074000D01*
X100808105Y-121074000D01*
X100850562Y-121078181D01*
X100850562Y-121078181D01*
G37*
G36*
X130556564Y-117989389D02*
G01*
X130747833Y-118068615D01*
X130747835Y-118068616D01*
X130919973Y-118183635D01*
X131066365Y-118330027D01*
X131142207Y-118443532D01*
X131181385Y-118502167D01*
X131260611Y-118693436D01*
X131301000Y-118896484D01*
X131301000Y-119074001D01*
X131303402Y-119098387D01*
X131310515Y-119121836D01*
X131322066Y-119143447D01*
X131337611Y-119162389D01*
X131356553Y-119177934D01*
X131378164Y-119189485D01*
X131401613Y-119196598D01*
X131425999Y-119199000D01*
X131603516Y-119199000D01*
X131806564Y-119239389D01*
X131997833Y-119318615D01*
X131997835Y-119318616D01*
X132169973Y-119433635D01*
X132316365Y-119580027D01*
X132394567Y-119697064D01*
X132431385Y-119752167D01*
X132510611Y-119943436D01*
X132551000Y-120146484D01*
X132551000Y-120353516D01*
X132510611Y-120556564D01*
X132431385Y-120747833D01*
X132431384Y-120747835D01*
X132316365Y-120919973D01*
X132169973Y-121066365D01*
X131997835Y-121181384D01*
X131997834Y-121181385D01*
X131997833Y-121181385D01*
X131806564Y-121260611D01*
X131603516Y-121301000D01*
X131396484Y-121301000D01*
X131193436Y-121260611D01*
X131002167Y-121181385D01*
X131002166Y-121181385D01*
X131002165Y-121181384D01*
X130830027Y-121066365D01*
X130683635Y-120919973D01*
X130568616Y-120747835D01*
X130568615Y-120747833D01*
X130489389Y-120556564D01*
X130449000Y-120353516D01*
X130449000Y-120175999D01*
X130446598Y-120151613D01*
X130439485Y-120128164D01*
X130427934Y-120106553D01*
X130412389Y-120087611D01*
X130393447Y-120072066D01*
X130371836Y-120060515D01*
X130348387Y-120053402D01*
X130324001Y-120051000D01*
X130146484Y-120051000D01*
X129943436Y-120010611D01*
X129752167Y-119931385D01*
X129752166Y-119931385D01*
X129752165Y-119931384D01*
X129580027Y-119816365D01*
X129433635Y-119669973D01*
X129318616Y-119497835D01*
X129293026Y-119436055D01*
X129239389Y-119306564D01*
X129199000Y-119103516D01*
X129199000Y-118896484D01*
X129239389Y-118693436D01*
X129318615Y-118502167D01*
X129357794Y-118443532D01*
X129433635Y-118330027D01*
X129580027Y-118183635D01*
X129752165Y-118068616D01*
X129752167Y-118068615D01*
X129943436Y-117989389D01*
X130146484Y-117949000D01*
X130353516Y-117949000D01*
X130556564Y-117989389D01*
X130556564Y-117989389D01*
G37*
G36*
X118106940Y-118443532D02*
G01*
X118144072Y-118450918D01*
X118389939Y-118552759D01*
X118396846Y-118557374D01*
X118396979Y-118557463D01*
X118418590Y-118569015D01*
X118442039Y-118576128D01*
X118466425Y-118578530D01*
X118490811Y-118576128D01*
X118514257Y-118569016D01*
X118605928Y-118531045D01*
X118751118Y-118502165D01*
X118866937Y-118479127D01*
X119133063Y-118479127D01*
X119394072Y-118531045D01*
X119592831Y-118613373D01*
X119639939Y-118632886D01*
X119697140Y-118671107D01*
X119861211Y-118780736D01*
X120049391Y-118968916D01*
X120197242Y-119190190D01*
X120299082Y-119436055D01*
X120351000Y-119697064D01*
X120351000Y-119963190D01*
X120341567Y-120010611D01*
X120299082Y-120224199D01*
X120197241Y-120470066D01*
X120139444Y-120556564D01*
X120080995Y-120644040D01*
X120049390Y-120691339D01*
X119861212Y-120879517D01*
X119639939Y-121027368D01*
X119639938Y-121027369D01*
X119639937Y-121027369D01*
X119394072Y-121129209D01*
X119133063Y-121181127D01*
X118866937Y-121181127D01*
X118605928Y-121129209D01*
X118605730Y-121129127D01*
X118360061Y-121027368D01*
X118353021Y-121022664D01*
X118331410Y-121011112D01*
X118307961Y-121003999D01*
X118283575Y-121001597D01*
X118259189Y-121003999D01*
X118235743Y-121011111D01*
X118144072Y-121049082D01*
X118057184Y-121066365D01*
X117883063Y-121101000D01*
X117616937Y-121101000D01*
X117355928Y-121049082D01*
X117110063Y-120947242D01*
X117110062Y-120947242D01*
X117110061Y-120947241D01*
X116998672Y-120872813D01*
X116888789Y-120799391D01*
X116700609Y-120611211D01*
X116552758Y-120389937D01*
X116450918Y-120144072D01*
X116399000Y-119883063D01*
X116399000Y-119616937D01*
X116450918Y-119355928D01*
X116552758Y-119110063D01*
X116557133Y-119103516D01*
X116648599Y-118966627D01*
X116700609Y-118888789D01*
X116888789Y-118700609D01*
X116998672Y-118627187D01*
X117110061Y-118552759D01*
X117197944Y-118516357D01*
X117355928Y-118450918D01*
X117616937Y-118399000D01*
X117883063Y-118399000D01*
X118106940Y-118443532D01*
X118106940Y-118443532D01*
G37*
G36*
X122974549Y-118621116D02*
G01*
X123085734Y-118643232D01*
X123295203Y-118729997D01*
X123483720Y-118855960D01*
X123644040Y-119016280D01*
X123770003Y-119204797D01*
X123770004Y-119204799D01*
X123784332Y-119239390D01*
X123856768Y-119414266D01*
X123865833Y-119459838D01*
X123898973Y-119626443D01*
X123901000Y-119636636D01*
X123901000Y-119863364D01*
X123856768Y-120085734D01*
X123770003Y-120295203D01*
X123644040Y-120483720D01*
X123483720Y-120644040D01*
X123295203Y-120770003D01*
X123085734Y-120856768D01*
X122974549Y-120878884D01*
X122863365Y-120901000D01*
X122636635Y-120901000D01*
X122525451Y-120878884D01*
X122414266Y-120856768D01*
X122204797Y-120770003D01*
X122016280Y-120644040D01*
X121855960Y-120483720D01*
X121729997Y-120295203D01*
X121643232Y-120085734D01*
X121599000Y-119863364D01*
X121599000Y-119636636D01*
X121601028Y-119626443D01*
X121634167Y-119459838D01*
X121643232Y-119414266D01*
X121715668Y-119239390D01*
X121729996Y-119204799D01*
X121729997Y-119204797D01*
X121855960Y-119016280D01*
X122016280Y-118855960D01*
X122204797Y-118729997D01*
X122414266Y-118643232D01*
X122525451Y-118621116D01*
X122636635Y-118599000D01*
X122863365Y-118599000D01*
X122974549Y-118621116D01*
X122974549Y-118621116D01*
G37*
G36*
X139610443Y-117895519D02*
G01*
X139676627Y-117902037D01*
X139846466Y-117953557D01*
X140002991Y-118037222D01*
X140038729Y-118066552D01*
X140140186Y-118149814D01*
X140213700Y-118239393D01*
X140252778Y-118287009D01*
X140336443Y-118443534D01*
X140387963Y-118613373D01*
X140405359Y-118790000D01*
X140387963Y-118966627D01*
X140336443Y-119136466D01*
X140252778Y-119292991D01*
X140241638Y-119306565D01*
X140140186Y-119430186D01*
X140057754Y-119497835D01*
X140002991Y-119542778D01*
X140002989Y-119542779D01*
X139864249Y-119616938D01*
X139846466Y-119626443D01*
X139676627Y-119677963D01*
X139610442Y-119684482D01*
X139544260Y-119691000D01*
X139455740Y-119691000D01*
X139389558Y-119684482D01*
X139323373Y-119677963D01*
X139153534Y-119626443D01*
X139135752Y-119616938D01*
X138997011Y-119542779D01*
X138997009Y-119542778D01*
X138942246Y-119497835D01*
X138859814Y-119430186D01*
X138758362Y-119306565D01*
X138747222Y-119292991D01*
X138663557Y-119136466D01*
X138612037Y-118966627D01*
X138594641Y-118790000D01*
X138612037Y-118613373D01*
X138663557Y-118443534D01*
X138747222Y-118287009D01*
X138786300Y-118239393D01*
X138859814Y-118149814D01*
X138961271Y-118066552D01*
X138997009Y-118037222D01*
X139153534Y-117953557D01*
X139323373Y-117902037D01*
X139389557Y-117895519D01*
X139455740Y-117889000D01*
X139544260Y-117889000D01*
X139610443Y-117895519D01*
X139610443Y-117895519D01*
G37*
G36*
X95233642Y-117979781D02*
G01*
X95372316Y-118037222D01*
X95379416Y-118040163D01*
X95510608Y-118127822D01*
X95622178Y-118239392D01*
X95709837Y-118370584D01*
X95709838Y-118370586D01*
X95770219Y-118516358D01*
X95801000Y-118671107D01*
X95801000Y-118828893D01*
X95770219Y-118983642D01*
X95756699Y-119016281D01*
X95709837Y-119129416D01*
X95622178Y-119260608D01*
X95510608Y-119372178D01*
X95379416Y-119459837D01*
X95379415Y-119459838D01*
X95379414Y-119459838D01*
X95233642Y-119520219D01*
X95078893Y-119551000D01*
X94921107Y-119551000D01*
X94766358Y-119520219D01*
X94620586Y-119459838D01*
X94620585Y-119459838D01*
X94620584Y-119459837D01*
X94489392Y-119372178D01*
X94377822Y-119260608D01*
X94290163Y-119129416D01*
X94243301Y-119016281D01*
X94229781Y-118983642D01*
X94199000Y-118828893D01*
X94199000Y-118671107D01*
X94229781Y-118516358D01*
X94290162Y-118370586D01*
X94290163Y-118370584D01*
X94377822Y-118239392D01*
X94489392Y-118127822D01*
X94620584Y-118040163D01*
X94627684Y-118037222D01*
X94766358Y-117979781D01*
X94921107Y-117949000D01*
X95078893Y-117949000D01*
X95233642Y-117979781D01*
X95233642Y-117979781D01*
G37*
G36*
X100313642Y-117979781D02*
G01*
X100452316Y-118037222D01*
X100459416Y-118040163D01*
X100590608Y-118127822D01*
X100702178Y-118239392D01*
X100789837Y-118370584D01*
X100789838Y-118370586D01*
X100850219Y-118516358D01*
X100881000Y-118671107D01*
X100881000Y-118828893D01*
X100850219Y-118983642D01*
X100836699Y-119016281D01*
X100789837Y-119129416D01*
X100702178Y-119260608D01*
X100590608Y-119372178D01*
X100459416Y-119459837D01*
X100459415Y-119459838D01*
X100459414Y-119459838D01*
X100313642Y-119520219D01*
X100158893Y-119551000D01*
X100001107Y-119551000D01*
X99846358Y-119520219D01*
X99700586Y-119459838D01*
X99700585Y-119459838D01*
X99700584Y-119459837D01*
X99569392Y-119372178D01*
X99457822Y-119260608D01*
X99370163Y-119129416D01*
X99323301Y-119016281D01*
X99309781Y-118983642D01*
X99279000Y-118828893D01*
X99279000Y-118671107D01*
X99309781Y-118516358D01*
X99370162Y-118370586D01*
X99370163Y-118370584D01*
X99457822Y-118239392D01*
X99569392Y-118127822D01*
X99700584Y-118040163D01*
X99707684Y-118037222D01*
X99846358Y-117979781D01*
X100001107Y-117949000D01*
X100158893Y-117949000D01*
X100313642Y-117979781D01*
X100313642Y-117979781D01*
G37*
G36*
X102853642Y-117979781D02*
G01*
X102992316Y-118037222D01*
X102999416Y-118040163D01*
X103130608Y-118127822D01*
X103242178Y-118239392D01*
X103329837Y-118370584D01*
X103329838Y-118370586D01*
X103390219Y-118516358D01*
X103421000Y-118671107D01*
X103421000Y-118828893D01*
X103390219Y-118983642D01*
X103376699Y-119016281D01*
X103329837Y-119129416D01*
X103242178Y-119260608D01*
X103130608Y-119372178D01*
X102999416Y-119459837D01*
X102999415Y-119459838D01*
X102999414Y-119459838D01*
X102853642Y-119520219D01*
X102698893Y-119551000D01*
X102541107Y-119551000D01*
X102386358Y-119520219D01*
X102240586Y-119459838D01*
X102240585Y-119459838D01*
X102240584Y-119459837D01*
X102109392Y-119372178D01*
X101997822Y-119260608D01*
X101910163Y-119129416D01*
X101863301Y-119016281D01*
X101849781Y-118983642D01*
X101819000Y-118828893D01*
X101819000Y-118671107D01*
X101849781Y-118516358D01*
X101910162Y-118370586D01*
X101910163Y-118370584D01*
X101997822Y-118239392D01*
X102109392Y-118127822D01*
X102240584Y-118040163D01*
X102247684Y-118037222D01*
X102386358Y-117979781D01*
X102541107Y-117949000D01*
X102698893Y-117949000D01*
X102853642Y-117979781D01*
X102853642Y-117979781D01*
G37*
G36*
X97773642Y-117979781D02*
G01*
X97912316Y-118037222D01*
X97919416Y-118040163D01*
X98050608Y-118127822D01*
X98162178Y-118239392D01*
X98249837Y-118370584D01*
X98249838Y-118370586D01*
X98310219Y-118516358D01*
X98341000Y-118671107D01*
X98341000Y-118828893D01*
X98310219Y-118983642D01*
X98296699Y-119016281D01*
X98249837Y-119129416D01*
X98162178Y-119260608D01*
X98050608Y-119372178D01*
X97919416Y-119459837D01*
X97919415Y-119459838D01*
X97919414Y-119459838D01*
X97773642Y-119520219D01*
X97618893Y-119551000D01*
X97461107Y-119551000D01*
X97306358Y-119520219D01*
X97160586Y-119459838D01*
X97160585Y-119459838D01*
X97160584Y-119459837D01*
X97029392Y-119372178D01*
X96917822Y-119260608D01*
X96830163Y-119129416D01*
X96783301Y-119016281D01*
X96769781Y-118983642D01*
X96739000Y-118828893D01*
X96739000Y-118671107D01*
X96769781Y-118516358D01*
X96830162Y-118370586D01*
X96830163Y-118370584D01*
X96917822Y-118239392D01*
X97029392Y-118127822D01*
X97160584Y-118040163D01*
X97167684Y-118037222D01*
X97306358Y-117979781D01*
X97461107Y-117949000D01*
X97618893Y-117949000D01*
X97773642Y-117979781D01*
X97773642Y-117979781D01*
G37*
G36*
X110351000Y-117024001D02*
G01*
X110353402Y-117048387D01*
X110360515Y-117071836D01*
X110372066Y-117093447D01*
X110387611Y-117112389D01*
X110406553Y-117127934D01*
X110428164Y-117139485D01*
X110451613Y-117146598D01*
X110475999Y-117149000D01*
X111101000Y-117149000D01*
X111101000Y-118851000D01*
X109399000Y-118851000D01*
X109399000Y-118225999D01*
X109396598Y-118201613D01*
X109389485Y-118178164D01*
X109377934Y-118156553D01*
X109362389Y-118137611D01*
X109343447Y-118122066D01*
X109321836Y-118110515D01*
X109298387Y-118103402D01*
X109274001Y-118101000D01*
X108649000Y-118101000D01*
X108649000Y-116399000D01*
X110351000Y-116399000D01*
X110351000Y-117024001D01*
X110351000Y-117024001D01*
G37*
G36*
X87351000Y-117024001D02*
G01*
X87353402Y-117048387D01*
X87360515Y-117071836D01*
X87372066Y-117093447D01*
X87387611Y-117112389D01*
X87406553Y-117127934D01*
X87428164Y-117139485D01*
X87451613Y-117146598D01*
X87475999Y-117149000D01*
X88101000Y-117149000D01*
X88101000Y-118851000D01*
X86399000Y-118851000D01*
X86399000Y-118225999D01*
X86396598Y-118201613D01*
X86389485Y-118178164D01*
X86377934Y-118156553D01*
X86362389Y-118137611D01*
X86343447Y-118122066D01*
X86321836Y-118110515D01*
X86298387Y-118103402D01*
X86274001Y-118101000D01*
X85649000Y-118101000D01*
X85649000Y-116399000D01*
X87351000Y-116399000D01*
X87351000Y-117024001D01*
X87351000Y-117024001D01*
G37*
G36*
X132551000Y-115324001D02*
G01*
X132553402Y-115348387D01*
X132560515Y-115371836D01*
X132572066Y-115393447D01*
X132587611Y-115412389D01*
X132606553Y-115427934D01*
X132628164Y-115439485D01*
X132651613Y-115446598D01*
X132675999Y-115449000D01*
X133801000Y-115449000D01*
X133801000Y-117551000D01*
X131699000Y-117551000D01*
X131699000Y-116425999D01*
X131696598Y-116401613D01*
X131689485Y-116378164D01*
X131677934Y-116356553D01*
X131662389Y-116337611D01*
X131643447Y-116322066D01*
X131621836Y-116310515D01*
X131598387Y-116303402D01*
X131574001Y-116301000D01*
X130449000Y-116301000D01*
X130449000Y-114199000D01*
X132551000Y-114199000D01*
X132551000Y-115324001D01*
X132551000Y-115324001D01*
G37*
G36*
X78110442Y-115395518D02*
G01*
X78176627Y-115402037D01*
X78346466Y-115453557D01*
X78502991Y-115537222D01*
X78538729Y-115566552D01*
X78640186Y-115649814D01*
X78723448Y-115751271D01*
X78752778Y-115787009D01*
X78836443Y-115943534D01*
X78887963Y-116113373D01*
X78905359Y-116290000D01*
X78887963Y-116466627D01*
X78836443Y-116636466D01*
X78752778Y-116792991D01*
X78738766Y-116810064D01*
X78640186Y-116930186D01*
X78538729Y-117013448D01*
X78502991Y-117042778D01*
X78346466Y-117126443D01*
X78176627Y-117177963D01*
X78110442Y-117184482D01*
X78044260Y-117191000D01*
X77955740Y-117191000D01*
X77889558Y-117184482D01*
X77823373Y-117177963D01*
X77653534Y-117126443D01*
X77497009Y-117042778D01*
X77461271Y-117013448D01*
X77359814Y-116930186D01*
X77261234Y-116810064D01*
X77247222Y-116792991D01*
X77163557Y-116636466D01*
X77112037Y-116466627D01*
X77094641Y-116290000D01*
X77112037Y-116113373D01*
X77163557Y-115943534D01*
X77247222Y-115787009D01*
X77276552Y-115751271D01*
X77359814Y-115649814D01*
X77461271Y-115566552D01*
X77497009Y-115537222D01*
X77653534Y-115453557D01*
X77823373Y-115402037D01*
X77889558Y-115395518D01*
X77955740Y-115389000D01*
X78044260Y-115389000D01*
X78110442Y-115395518D01*
X78110442Y-115395518D01*
G37*
G36*
X140401000Y-117151000D02*
G01*
X138599000Y-117151000D01*
X138599000Y-115349000D01*
X140401000Y-115349000D01*
X140401000Y-117151000D01*
X140401000Y-117151000D01*
G37*
G36*
X121884430Y-114199000D02*
G01*
X121894072Y-114200918D01*
X122139939Y-114302759D01*
X122283973Y-114399000D01*
X122317305Y-114421272D01*
X122338916Y-114432823D01*
X122362365Y-114439936D01*
X122386751Y-114442338D01*
X122411137Y-114439936D01*
X122616937Y-114399000D01*
X122883063Y-114399000D01*
X123053102Y-114432823D01*
X123144072Y-114450918D01*
X123389939Y-114552759D01*
X123459143Y-114599000D01*
X123611211Y-114700609D01*
X123799391Y-114888789D01*
X123947242Y-115110063D01*
X124049082Y-115355928D01*
X124101000Y-115616937D01*
X124101000Y-115883063D01*
X124049082Y-116144072D01*
X123952119Y-116378164D01*
X123947241Y-116389939D01*
X123923146Y-116425999D01*
X123799391Y-116611211D01*
X123611211Y-116799391D01*
X123501328Y-116872813D01*
X123389939Y-116947241D01*
X123389938Y-116947242D01*
X123389937Y-116947242D01*
X123144072Y-117049082D01*
X122883063Y-117101000D01*
X122616937Y-117101000D01*
X122355928Y-117049082D01*
X122110063Y-116947242D01*
X122110062Y-116947242D01*
X122110061Y-116947241D01*
X121932695Y-116828728D01*
X121911084Y-116817177D01*
X121887635Y-116810064D01*
X121863249Y-116807662D01*
X121838863Y-116810064D01*
X121633063Y-116851000D01*
X121366937Y-116851000D01*
X121105928Y-116799082D01*
X120860063Y-116697242D01*
X120860062Y-116697242D01*
X120860061Y-116697241D01*
X120638788Y-116549390D01*
X120450610Y-116361212D01*
X120406503Y-116295201D01*
X120302758Y-116139937D01*
X120200918Y-115894072D01*
X120149000Y-115633063D01*
X120149000Y-115366937D01*
X120200918Y-115105928D01*
X120302758Y-114860063D01*
X120305500Y-114855960D01*
X120404685Y-114707519D01*
X120450609Y-114638789D01*
X120638789Y-114450609D01*
X120799262Y-114343384D01*
X120860061Y-114302759D01*
X121105928Y-114200918D01*
X121115570Y-114199000D01*
X121366937Y-114149000D01*
X121633063Y-114149000D01*
X121884430Y-114199000D01*
X121884430Y-114199000D01*
G37*
G36*
X117974549Y-114621116D02*
G01*
X118085734Y-114643232D01*
X118295203Y-114729997D01*
X118483720Y-114855960D01*
X118644040Y-115016280D01*
X118770003Y-115204797D01*
X118856768Y-115414266D01*
X118861784Y-115439485D01*
X118898885Y-115626000D01*
X118901000Y-115636636D01*
X118901000Y-115863364D01*
X118856768Y-116085734D01*
X118770003Y-116295203D01*
X118644040Y-116483720D01*
X118483720Y-116644040D01*
X118295203Y-116770003D01*
X118085734Y-116856768D01*
X117974549Y-116878884D01*
X117863365Y-116901000D01*
X117636635Y-116901000D01*
X117525451Y-116878884D01*
X117414266Y-116856768D01*
X117204797Y-116770003D01*
X117016280Y-116644040D01*
X116855960Y-116483720D01*
X116729997Y-116295203D01*
X116643232Y-116085734D01*
X116599000Y-115863364D01*
X116599000Y-115636636D01*
X116601116Y-115626000D01*
X116638216Y-115439485D01*
X116643232Y-115414266D01*
X116729997Y-115204797D01*
X116855960Y-115016280D01*
X117016280Y-114855960D01*
X117204797Y-114729997D01*
X117414266Y-114643232D01*
X117525451Y-114621116D01*
X117636635Y-114599000D01*
X117863365Y-114599000D01*
X117974549Y-114621116D01*
X117974549Y-114621116D01*
G37*
G36*
X87498228Y-113681703D02*
G01*
X87653100Y-113745853D01*
X87792481Y-113838985D01*
X87911015Y-113957519D01*
X88004147Y-114096900D01*
X88068297Y-114251772D01*
X88081858Y-114319947D01*
X88088967Y-114343384D01*
X88100518Y-114364995D01*
X88116063Y-114383937D01*
X88135005Y-114399482D01*
X88156616Y-114411033D01*
X88180053Y-114418142D01*
X88248228Y-114431703D01*
X88403100Y-114495853D01*
X88542481Y-114588985D01*
X88661015Y-114707519D01*
X88754147Y-114846900D01*
X88818297Y-115001772D01*
X88851000Y-115166184D01*
X88851000Y-115333816D01*
X88818297Y-115498228D01*
X88754147Y-115653100D01*
X88661015Y-115792481D01*
X88542481Y-115911015D01*
X88403100Y-116004147D01*
X88248228Y-116068297D01*
X88083816Y-116101000D01*
X87916184Y-116101000D01*
X87751772Y-116068297D01*
X87596900Y-116004147D01*
X87457519Y-115911015D01*
X87338985Y-115792481D01*
X87245853Y-115653100D01*
X87181703Y-115498228D01*
X87168142Y-115430053D01*
X87161033Y-115406616D01*
X87149482Y-115385005D01*
X87133937Y-115366063D01*
X87114995Y-115350518D01*
X87093384Y-115338967D01*
X87069947Y-115331858D01*
X87001772Y-115318297D01*
X86846900Y-115254147D01*
X86707519Y-115161015D01*
X86588985Y-115042481D01*
X86495853Y-114903100D01*
X86431703Y-114748228D01*
X86399000Y-114583816D01*
X86399000Y-114416184D01*
X86431703Y-114251772D01*
X86495853Y-114096900D01*
X86588985Y-113957519D01*
X86707519Y-113838985D01*
X86846900Y-113745853D01*
X87001772Y-113681703D01*
X87166184Y-113649000D01*
X87333816Y-113649000D01*
X87498228Y-113681703D01*
X87498228Y-113681703D01*
G37*
G36*
X110498228Y-113681703D02*
G01*
X110653100Y-113745853D01*
X110792481Y-113838985D01*
X110911015Y-113957519D01*
X111004147Y-114096900D01*
X111068297Y-114251772D01*
X111081858Y-114319947D01*
X111088967Y-114343384D01*
X111100518Y-114364995D01*
X111116063Y-114383937D01*
X111135005Y-114399482D01*
X111156616Y-114411033D01*
X111180053Y-114418142D01*
X111248228Y-114431703D01*
X111403100Y-114495853D01*
X111542481Y-114588985D01*
X111661015Y-114707519D01*
X111754147Y-114846900D01*
X111818297Y-115001772D01*
X111851000Y-115166184D01*
X111851000Y-115333816D01*
X111818297Y-115498228D01*
X111754147Y-115653100D01*
X111661015Y-115792481D01*
X111542481Y-115911015D01*
X111403100Y-116004147D01*
X111248228Y-116068297D01*
X111083816Y-116101000D01*
X110916184Y-116101000D01*
X110751772Y-116068297D01*
X110596900Y-116004147D01*
X110457519Y-115911015D01*
X110338985Y-115792481D01*
X110245853Y-115653100D01*
X110181703Y-115498228D01*
X110168142Y-115430053D01*
X110161033Y-115406616D01*
X110149482Y-115385005D01*
X110133937Y-115366063D01*
X110114995Y-115350518D01*
X110093384Y-115338967D01*
X110069947Y-115331858D01*
X110001772Y-115318297D01*
X109846900Y-115254147D01*
X109707519Y-115161015D01*
X109588985Y-115042481D01*
X109495853Y-114903100D01*
X109431703Y-114748228D01*
X109399000Y-114583816D01*
X109399000Y-114416184D01*
X109431703Y-114251772D01*
X109495853Y-114096900D01*
X109588985Y-113957519D01*
X109707519Y-113838985D01*
X109846900Y-113745853D01*
X110001772Y-113681703D01*
X110166184Y-113649000D01*
X110333816Y-113649000D01*
X110498228Y-113681703D01*
X110498228Y-113681703D01*
G37*
G36*
X136051000Y-115626000D02*
G01*
X134949000Y-115626000D01*
X134949000Y-114474000D01*
X136051000Y-114474000D01*
X136051000Y-115626000D01*
X136051000Y-115626000D01*
G37*
G36*
X134601000Y-114676000D02*
G01*
X133449000Y-114676000D01*
X133449000Y-112374000D01*
X134601000Y-112374000D01*
X134601000Y-114676000D01*
X134601000Y-114676000D01*
G37*
G36*
X137551000Y-114676000D02*
G01*
X136399000Y-114676000D01*
X136399000Y-112374000D01*
X137551000Y-112374000D01*
X137551000Y-114676000D01*
X137551000Y-114676000D01*
G37*
G36*
X78901000Y-114651000D02*
G01*
X77099000Y-114651000D01*
X77099000Y-112849000D01*
X78901000Y-112849000D01*
X78901000Y-114651000D01*
X78901000Y-114651000D01*
G37*
G36*
X144126000Y-103801000D02*
G01*
X141824000Y-103801000D01*
X141824000Y-102649000D01*
X144126000Y-102649000D01*
X144126000Y-103801000D01*
X144126000Y-103801000D01*
G37*
G36*
X78901000Y-103151000D02*
G01*
X77099000Y-103151000D01*
X77099000Y-101349000D01*
X78901000Y-101349000D01*
X78901000Y-103151000D01*
X78901000Y-103151000D01*
G37*
G36*
X86748228Y-100681703D02*
G01*
X86903100Y-100745853D01*
X87042481Y-100838985D01*
X87161015Y-100957519D01*
X87254147Y-101096900D01*
X87318297Y-101251772D01*
X87331858Y-101319947D01*
X87338967Y-101343384D01*
X87350518Y-101364995D01*
X87366063Y-101383937D01*
X87385005Y-101399482D01*
X87406616Y-101411033D01*
X87430053Y-101418142D01*
X87498228Y-101431703D01*
X87653100Y-101495853D01*
X87792481Y-101588985D01*
X87911015Y-101707519D01*
X88004147Y-101846900D01*
X88068297Y-102001772D01*
X88101000Y-102166184D01*
X88101000Y-102333816D01*
X88068297Y-102498228D01*
X88004147Y-102653100D01*
X87911015Y-102792481D01*
X87792481Y-102911015D01*
X87653100Y-103004147D01*
X87498228Y-103068297D01*
X87333816Y-103101000D01*
X87166184Y-103101000D01*
X87001772Y-103068297D01*
X86846900Y-103004147D01*
X86707519Y-102911015D01*
X86588985Y-102792481D01*
X86495853Y-102653100D01*
X86431703Y-102498228D01*
X86418142Y-102430053D01*
X86411033Y-102406616D01*
X86399482Y-102385005D01*
X86383937Y-102366063D01*
X86364995Y-102350518D01*
X86343384Y-102338967D01*
X86319947Y-102331858D01*
X86251772Y-102318297D01*
X86096900Y-102254147D01*
X85957519Y-102161015D01*
X85838985Y-102042481D01*
X85745853Y-101903100D01*
X85681703Y-101748228D01*
X85649000Y-101583816D01*
X85649000Y-101416184D01*
X85681703Y-101251772D01*
X85745853Y-101096900D01*
X85838985Y-100957519D01*
X85957519Y-100838985D01*
X86096900Y-100745853D01*
X86251772Y-100681703D01*
X86416184Y-100649000D01*
X86583816Y-100649000D01*
X86748228Y-100681703D01*
X86748228Y-100681703D01*
G37*
G36*
X117498228Y-100681703D02*
G01*
X117653100Y-100745853D01*
X117792481Y-100838985D01*
X117911015Y-100957519D01*
X118004147Y-101096900D01*
X118068297Y-101251772D01*
X118081858Y-101319947D01*
X118088967Y-101343384D01*
X118100518Y-101364995D01*
X118116063Y-101383937D01*
X118135005Y-101399482D01*
X118156616Y-101411033D01*
X118180053Y-101418142D01*
X118248228Y-101431703D01*
X118403100Y-101495853D01*
X118542481Y-101588985D01*
X118661015Y-101707519D01*
X118754147Y-101846900D01*
X118818297Y-102001772D01*
X118851000Y-102166184D01*
X118851000Y-102333816D01*
X118818297Y-102498228D01*
X118754147Y-102653100D01*
X118661015Y-102792481D01*
X118542481Y-102911015D01*
X118403100Y-103004147D01*
X118248228Y-103068297D01*
X118083816Y-103101000D01*
X117916184Y-103101000D01*
X117751772Y-103068297D01*
X117596900Y-103004147D01*
X117457519Y-102911015D01*
X117338985Y-102792481D01*
X117245853Y-102653100D01*
X117181703Y-102498228D01*
X117168142Y-102430053D01*
X117161033Y-102406616D01*
X117149482Y-102385005D01*
X117133937Y-102366063D01*
X117114995Y-102350518D01*
X117093384Y-102338967D01*
X117069947Y-102331858D01*
X117001772Y-102318297D01*
X116846900Y-102254147D01*
X116707519Y-102161015D01*
X116588985Y-102042481D01*
X116495853Y-101903100D01*
X116431703Y-101748228D01*
X116399000Y-101583816D01*
X116399000Y-101416184D01*
X116431703Y-101251772D01*
X116495853Y-101096900D01*
X116588985Y-100957519D01*
X116707519Y-100838985D01*
X116846900Y-100745853D01*
X117001772Y-100681703D01*
X117166184Y-100649000D01*
X117333816Y-100649000D01*
X117498228Y-100681703D01*
X117498228Y-100681703D01*
G37*
G36*
X130644072Y-97950918D02*
G01*
X130885693Y-98051000D01*
X130889939Y-98052759D01*
X130993831Y-98122178D01*
X131111211Y-98200609D01*
X131299391Y-98388789D01*
X131307624Y-98401111D01*
X131421700Y-98571836D01*
X131447242Y-98610063D01*
X131549082Y-98855928D01*
X131601000Y-99116937D01*
X131601000Y-99383063D01*
X131549082Y-99644072D01*
X131464199Y-99849000D01*
X131447241Y-99889939D01*
X131399072Y-99962029D01*
X131299391Y-100111211D01*
X131211019Y-100199583D01*
X131195474Y-100218525D01*
X131183923Y-100240136D01*
X131176810Y-100263585D01*
X131174408Y-100287971D01*
X131176810Y-100312357D01*
X131183923Y-100335806D01*
X131195475Y-100357418D01*
X131197242Y-100360062D01*
X131299082Y-100605928D01*
X131351000Y-100866937D01*
X131351000Y-101133063D01*
X131299082Y-101394072D01*
X131197242Y-101639937D01*
X131049391Y-101861211D01*
X130861211Y-102049391D01*
X130751328Y-102122813D01*
X130639939Y-102197241D01*
X130639938Y-102197242D01*
X130639937Y-102197242D01*
X130394072Y-102299082D01*
X130133063Y-102351000D01*
X129866937Y-102351000D01*
X129605928Y-102299082D01*
X129360063Y-102197242D01*
X129360062Y-102197242D01*
X129360061Y-102197241D01*
X129248672Y-102122813D01*
X129138789Y-102049391D01*
X128950609Y-101861211D01*
X128802758Y-101639937D01*
X128700918Y-101394072D01*
X128649000Y-101133063D01*
X128649000Y-100866937D01*
X128700918Y-100605928D01*
X128802758Y-100360063D01*
X128808814Y-100351000D01*
X128950610Y-100138788D01*
X129038981Y-100050417D01*
X129054526Y-100031475D01*
X129066077Y-100009864D01*
X129073190Y-99986415D01*
X129075592Y-99962029D01*
X129073190Y-99937643D01*
X129066077Y-99914194D01*
X129054525Y-99892582D01*
X129052758Y-99889938D01*
X128950918Y-99644072D01*
X128899000Y-99383063D01*
X128899000Y-99116937D01*
X128950918Y-98855928D01*
X129052758Y-98610063D01*
X129078301Y-98571836D01*
X129192376Y-98401111D01*
X129200609Y-98388789D01*
X129388789Y-98200609D01*
X129506169Y-98122178D01*
X129610061Y-98052759D01*
X129614308Y-98051000D01*
X129855928Y-97950918D01*
X130116937Y-97899000D01*
X130383063Y-97899000D01*
X130644072Y-97950918D01*
X130644072Y-97950918D01*
G37*
G36*
X142026000Y-102301000D02*
G01*
X140874000Y-102301000D01*
X140874000Y-101199000D01*
X142026000Y-101199000D01*
X142026000Y-102301000D01*
X142026000Y-102301000D01*
G37*
G36*
X126224549Y-99871116D02*
G01*
X126335734Y-99893232D01*
X126474257Y-99950610D01*
X126501825Y-99962029D01*
X126545203Y-99979997D01*
X126733720Y-100105960D01*
X126894040Y-100266280D01*
X127020003Y-100454797D01*
X127106768Y-100664266D01*
X127151000Y-100886636D01*
X127151000Y-101113364D01*
X127106768Y-101335734D01*
X127020003Y-101545203D01*
X126894040Y-101733720D01*
X126733720Y-101894040D01*
X126545203Y-102020003D01*
X126335734Y-102106768D01*
X126224549Y-102128884D01*
X126113365Y-102151000D01*
X125886635Y-102151000D01*
X125775451Y-102128884D01*
X125664266Y-102106768D01*
X125454797Y-102020003D01*
X125266280Y-101894040D01*
X125105960Y-101733720D01*
X124979997Y-101545203D01*
X124893232Y-101335734D01*
X124849000Y-101113364D01*
X124849000Y-100886636D01*
X124893232Y-100664266D01*
X124979997Y-100454797D01*
X125105960Y-100266280D01*
X125266280Y-100105960D01*
X125454797Y-99979997D01*
X125498176Y-99962029D01*
X125525743Y-99950610D01*
X125664266Y-99893232D01*
X125775451Y-99871116D01*
X125886635Y-99849000D01*
X126113365Y-99849000D01*
X126224549Y-99871116D01*
X126224549Y-99871116D01*
G37*
G36*
X139051000Y-99574001D02*
G01*
X139053402Y-99598387D01*
X139060515Y-99621836D01*
X139072066Y-99643447D01*
X139087611Y-99662389D01*
X139106553Y-99677934D01*
X139128164Y-99689485D01*
X139151613Y-99696598D01*
X139175999Y-99699000D01*
X140301000Y-99699000D01*
X140301000Y-101801000D01*
X138199000Y-101801000D01*
X138199000Y-100675999D01*
X138196598Y-100651613D01*
X138189485Y-100628164D01*
X138177934Y-100606553D01*
X138162389Y-100587611D01*
X138143447Y-100572066D01*
X138121836Y-100560515D01*
X138098387Y-100553402D01*
X138074001Y-100551000D01*
X136949000Y-100551000D01*
X136949000Y-98449000D01*
X139051000Y-98449000D01*
X139051000Y-99574001D01*
X139051000Y-99574001D01*
G37*
G36*
X144126000Y-100851000D02*
G01*
X141824000Y-100851000D01*
X141824000Y-99699000D01*
X144126000Y-99699000D01*
X144126000Y-100851000D01*
X144126000Y-100851000D01*
G37*
G36*
X78110442Y-98815518D02*
G01*
X78176627Y-98822037D01*
X78346466Y-98873557D01*
X78502991Y-98957222D01*
X78538729Y-98986552D01*
X78640186Y-99069814D01*
X78723448Y-99171271D01*
X78752778Y-99207009D01*
X78836443Y-99363534D01*
X78887963Y-99533373D01*
X78905359Y-99710000D01*
X78887963Y-99886627D01*
X78836443Y-100056466D01*
X78752778Y-100212991D01*
X78723448Y-100248729D01*
X78640186Y-100350186D01*
X78538729Y-100433448D01*
X78502991Y-100462778D01*
X78346466Y-100546443D01*
X78176627Y-100597963D01*
X78110443Y-100604481D01*
X78044260Y-100611000D01*
X77955740Y-100611000D01*
X77889558Y-100604482D01*
X77823373Y-100597963D01*
X77653534Y-100546443D01*
X77497009Y-100462778D01*
X77461271Y-100433448D01*
X77359814Y-100350186D01*
X77276552Y-100248729D01*
X77247222Y-100212991D01*
X77163557Y-100056466D01*
X77112037Y-99886627D01*
X77094641Y-99710000D01*
X77112037Y-99533373D01*
X77163557Y-99363534D01*
X77247222Y-99207009D01*
X77276552Y-99171271D01*
X77359814Y-99069814D01*
X77461271Y-98986552D01*
X77497009Y-98957222D01*
X77653534Y-98873557D01*
X77823373Y-98822037D01*
X77889558Y-98815518D01*
X77955740Y-98809000D01*
X78044260Y-98809000D01*
X78110442Y-98815518D01*
X78110442Y-98815518D01*
G37*
G36*
X147901000Y-100401000D02*
G01*
X146099000Y-100401000D01*
X146099000Y-98599000D01*
X147901000Y-98599000D01*
X147901000Y-100401000D01*
X147901000Y-100401000D01*
G37*
G36*
X88101000Y-98524001D02*
G01*
X88103402Y-98548387D01*
X88110515Y-98571836D01*
X88122066Y-98593447D01*
X88137611Y-98612389D01*
X88156553Y-98627934D01*
X88178164Y-98639485D01*
X88201613Y-98646598D01*
X88225999Y-98649000D01*
X88851000Y-98649000D01*
X88851000Y-100351000D01*
X87149000Y-100351000D01*
X87149000Y-99725999D01*
X87146598Y-99701613D01*
X87139485Y-99678164D01*
X87127934Y-99656553D01*
X87112389Y-99637611D01*
X87093447Y-99622066D01*
X87071836Y-99610515D01*
X87048387Y-99603402D01*
X87024001Y-99601000D01*
X86399000Y-99601000D01*
X86399000Y-97899000D01*
X88101000Y-97899000D01*
X88101000Y-98524001D01*
X88101000Y-98524001D01*
G37*
G36*
X118851000Y-98524001D02*
G01*
X118853402Y-98548387D01*
X118860515Y-98571836D01*
X118872066Y-98593447D01*
X118887611Y-98612389D01*
X118906553Y-98627934D01*
X118928164Y-98639485D01*
X118951613Y-98646598D01*
X118975999Y-98649000D01*
X119601000Y-98649000D01*
X119601000Y-100351000D01*
X117899000Y-100351000D01*
X117899000Y-99725999D01*
X117896598Y-99701613D01*
X117889485Y-99678164D01*
X117877934Y-99656553D01*
X117862389Y-99637611D01*
X117843447Y-99622066D01*
X117821836Y-99610515D01*
X117798387Y-99603402D01*
X117774001Y-99601000D01*
X117149000Y-99601000D01*
X117149000Y-97899000D01*
X118851000Y-97899000D01*
X118851000Y-98524001D01*
X118851000Y-98524001D01*
G37*
G36*
X126384430Y-94699000D02*
G01*
X126394072Y-94700918D01*
X126639939Y-94802759D01*
X126663669Y-94818615D01*
X126861211Y-94950609D01*
X127049391Y-95138789D01*
X127197242Y-95360063D01*
X127299082Y-95605928D01*
X127351000Y-95866937D01*
X127351000Y-96133063D01*
X127336249Y-96207221D01*
X127299082Y-96394072D01*
X127197241Y-96639939D01*
X127169548Y-96681384D01*
X127049391Y-96861211D01*
X126883620Y-97026982D01*
X126868075Y-97045924D01*
X126856524Y-97067535D01*
X126849411Y-97090984D01*
X126847009Y-97115370D01*
X126849411Y-97139756D01*
X126850618Y-97145825D01*
X126850619Y-97145827D01*
X126882592Y-97306565D01*
X126902537Y-97406836D01*
X126902537Y-97672962D01*
X126850619Y-97933971D01*
X126772662Y-98122178D01*
X126748778Y-98179838D01*
X126688387Y-98270219D01*
X126600928Y-98401110D01*
X126412748Y-98589290D01*
X126398216Y-98599000D01*
X126191476Y-98737140D01*
X126191475Y-98737141D01*
X126191474Y-98737141D01*
X125945609Y-98838981D01*
X125684600Y-98890899D01*
X125418474Y-98890899D01*
X125157465Y-98838981D01*
X124911600Y-98737141D01*
X124911599Y-98737141D01*
X124911598Y-98737140D01*
X124704858Y-98599000D01*
X124690326Y-98589290D01*
X124502146Y-98401110D01*
X124414687Y-98270219D01*
X124354296Y-98179838D01*
X124330413Y-98122178D01*
X124252455Y-97933971D01*
X124200537Y-97672962D01*
X124200537Y-97406836D01*
X124252455Y-97145827D01*
X124354295Y-96899962D01*
X124356618Y-96896486D01*
X124465375Y-96733720D01*
X124502146Y-96678688D01*
X124667917Y-96512917D01*
X124683462Y-96493975D01*
X124695013Y-96472364D01*
X124702126Y-96448915D01*
X124704528Y-96424529D01*
X124702126Y-96400143D01*
X124686148Y-96319815D01*
X124660107Y-96188899D01*
X124649000Y-96133063D01*
X124649000Y-95866937D01*
X124700918Y-95605928D01*
X124802758Y-95360063D01*
X124950609Y-95138789D01*
X125138789Y-94950609D01*
X125336331Y-94818615D01*
X125360061Y-94802759D01*
X125605928Y-94700918D01*
X125615570Y-94699000D01*
X125866937Y-94649000D01*
X126133063Y-94649000D01*
X126384430Y-94699000D01*
X126384430Y-94699000D01*
G37*
G36*
X99023642Y-96729781D02*
G01*
X99169414Y-96790162D01*
X99169416Y-96790163D01*
X99300608Y-96877822D01*
X99412178Y-96989392D01*
X99496353Y-97115370D01*
X99499838Y-97120586D01*
X99560219Y-97266358D01*
X99591000Y-97421107D01*
X99591000Y-97578893D01*
X99560219Y-97733642D01*
X99525954Y-97816365D01*
X99499837Y-97879416D01*
X99412178Y-98010608D01*
X99300608Y-98122178D01*
X99169416Y-98209837D01*
X99169415Y-98209838D01*
X99169414Y-98209838D01*
X99023642Y-98270219D01*
X98868893Y-98301000D01*
X98711107Y-98301000D01*
X98556358Y-98270219D01*
X98410586Y-98209838D01*
X98410585Y-98209838D01*
X98410584Y-98209837D01*
X98279392Y-98122178D01*
X98167822Y-98010608D01*
X98080163Y-97879416D01*
X98054046Y-97816365D01*
X98019781Y-97733642D01*
X97989000Y-97578893D01*
X97989000Y-97421107D01*
X98019781Y-97266358D01*
X98080162Y-97120586D01*
X98083647Y-97115370D01*
X98167822Y-96989392D01*
X98279392Y-96877822D01*
X98410584Y-96790163D01*
X98410586Y-96790162D01*
X98556358Y-96729781D01*
X98711107Y-96699000D01*
X98868893Y-96699000D01*
X99023642Y-96729781D01*
X99023642Y-96729781D01*
G37*
G36*
X104103642Y-96729781D02*
G01*
X104249414Y-96790162D01*
X104249416Y-96790163D01*
X104380608Y-96877822D01*
X104492178Y-96989392D01*
X104576353Y-97115370D01*
X104579838Y-97120586D01*
X104640219Y-97266358D01*
X104671000Y-97421107D01*
X104671000Y-97578893D01*
X104640219Y-97733642D01*
X104605954Y-97816365D01*
X104579837Y-97879416D01*
X104492178Y-98010608D01*
X104380608Y-98122178D01*
X104249416Y-98209837D01*
X104249415Y-98209838D01*
X104249414Y-98209838D01*
X104103642Y-98270219D01*
X103948893Y-98301000D01*
X103791107Y-98301000D01*
X103636358Y-98270219D01*
X103490586Y-98209838D01*
X103490585Y-98209838D01*
X103490584Y-98209837D01*
X103359392Y-98122178D01*
X103247822Y-98010608D01*
X103160163Y-97879416D01*
X103134046Y-97816365D01*
X103099781Y-97733642D01*
X103069000Y-97578893D01*
X103069000Y-97421107D01*
X103099781Y-97266358D01*
X103160162Y-97120586D01*
X103163647Y-97115370D01*
X103247822Y-96989392D01*
X103359392Y-96877822D01*
X103490584Y-96790163D01*
X103490586Y-96790162D01*
X103636358Y-96729781D01*
X103791107Y-96699000D01*
X103948893Y-96699000D01*
X104103642Y-96729781D01*
X104103642Y-96729781D01*
G37*
G36*
X106643642Y-96729781D02*
G01*
X106789414Y-96790162D01*
X106789416Y-96790163D01*
X106920608Y-96877822D01*
X107032178Y-96989392D01*
X107116353Y-97115370D01*
X107119838Y-97120586D01*
X107180219Y-97266358D01*
X107211000Y-97421107D01*
X107211000Y-97578893D01*
X107180219Y-97733642D01*
X107145954Y-97816365D01*
X107119837Y-97879416D01*
X107032178Y-98010608D01*
X106920608Y-98122178D01*
X106789416Y-98209837D01*
X106789415Y-98209838D01*
X106789414Y-98209838D01*
X106643642Y-98270219D01*
X106488893Y-98301000D01*
X106331107Y-98301000D01*
X106176358Y-98270219D01*
X106030586Y-98209838D01*
X106030585Y-98209838D01*
X106030584Y-98209837D01*
X105899392Y-98122178D01*
X105787822Y-98010608D01*
X105700163Y-97879416D01*
X105674046Y-97816365D01*
X105639781Y-97733642D01*
X105609000Y-97578893D01*
X105609000Y-97421107D01*
X105639781Y-97266358D01*
X105700162Y-97120586D01*
X105703647Y-97115370D01*
X105787822Y-96989392D01*
X105899392Y-96877822D01*
X106030584Y-96790163D01*
X106030586Y-96790162D01*
X106176358Y-96729781D01*
X106331107Y-96699000D01*
X106488893Y-96699000D01*
X106643642Y-96729781D01*
X106643642Y-96729781D01*
G37*
G36*
X109183642Y-96729781D02*
G01*
X109329414Y-96790162D01*
X109329416Y-96790163D01*
X109460608Y-96877822D01*
X109572178Y-96989392D01*
X109656353Y-97115370D01*
X109659838Y-97120586D01*
X109720219Y-97266358D01*
X109751000Y-97421107D01*
X109751000Y-97578893D01*
X109720219Y-97733642D01*
X109685954Y-97816365D01*
X109659837Y-97879416D01*
X109572178Y-98010608D01*
X109460608Y-98122178D01*
X109329416Y-98209837D01*
X109329415Y-98209838D01*
X109329414Y-98209838D01*
X109183642Y-98270219D01*
X109028893Y-98301000D01*
X108871107Y-98301000D01*
X108716358Y-98270219D01*
X108570586Y-98209838D01*
X108570585Y-98209838D01*
X108570584Y-98209837D01*
X108439392Y-98122178D01*
X108327822Y-98010608D01*
X108240163Y-97879416D01*
X108214046Y-97816365D01*
X108179781Y-97733642D01*
X108149000Y-97578893D01*
X108149000Y-97421107D01*
X108179781Y-97266358D01*
X108240162Y-97120586D01*
X108243647Y-97115370D01*
X108327822Y-96989392D01*
X108439392Y-96877822D01*
X108570584Y-96790163D01*
X108570586Y-96790162D01*
X108716358Y-96729781D01*
X108871107Y-96699000D01*
X109028893Y-96699000D01*
X109183642Y-96729781D01*
X109183642Y-96729781D01*
G37*
G36*
X96483642Y-96729781D02*
G01*
X96629414Y-96790162D01*
X96629416Y-96790163D01*
X96760608Y-96877822D01*
X96872178Y-96989392D01*
X96956353Y-97115370D01*
X96959838Y-97120586D01*
X97020219Y-97266358D01*
X97051000Y-97421107D01*
X97051000Y-97578893D01*
X97020219Y-97733642D01*
X96985954Y-97816365D01*
X96959837Y-97879416D01*
X96872178Y-98010608D01*
X96760608Y-98122178D01*
X96629416Y-98209837D01*
X96629415Y-98209838D01*
X96629414Y-98209838D01*
X96483642Y-98270219D01*
X96328893Y-98301000D01*
X96171107Y-98301000D01*
X96016358Y-98270219D01*
X95870586Y-98209838D01*
X95870585Y-98209838D01*
X95870584Y-98209837D01*
X95739392Y-98122178D01*
X95627822Y-98010608D01*
X95540163Y-97879416D01*
X95514046Y-97816365D01*
X95479781Y-97733642D01*
X95449000Y-97578893D01*
X95449000Y-97421107D01*
X95479781Y-97266358D01*
X95540162Y-97120586D01*
X95543647Y-97115370D01*
X95627822Y-96989392D01*
X95739392Y-96877822D01*
X95870584Y-96790163D01*
X95870586Y-96790162D01*
X96016358Y-96729781D01*
X96171107Y-96699000D01*
X96328893Y-96699000D01*
X96483642Y-96729781D01*
X96483642Y-96729781D01*
G37*
G36*
X139556564Y-94739389D02*
G01*
X139709553Y-94802759D01*
X139747835Y-94818616D01*
X139919973Y-94933635D01*
X140066365Y-95080027D01*
X140105629Y-95138789D01*
X140181385Y-95252167D01*
X140260611Y-95443436D01*
X140301000Y-95646484D01*
X140301000Y-95824001D01*
X140303402Y-95848387D01*
X140310515Y-95871836D01*
X140322066Y-95893447D01*
X140337611Y-95912389D01*
X140356553Y-95927934D01*
X140378164Y-95939485D01*
X140401613Y-95946598D01*
X140425999Y-95949000D01*
X140603516Y-95949000D01*
X140806564Y-95989389D01*
X140974620Y-96059000D01*
X140997835Y-96068616D01*
X141169973Y-96183635D01*
X141316365Y-96330027D01*
X141425912Y-96493975D01*
X141431385Y-96502167D01*
X141510611Y-96693436D01*
X141551000Y-96896484D01*
X141551000Y-97103516D01*
X141510611Y-97306564D01*
X141463166Y-97421107D01*
X141431384Y-97497835D01*
X141316365Y-97669973D01*
X141169973Y-97816365D01*
X140997835Y-97931384D01*
X140997834Y-97931385D01*
X140997833Y-97931385D01*
X140806564Y-98010611D01*
X140603516Y-98051000D01*
X140396484Y-98051000D01*
X140193436Y-98010611D01*
X140002167Y-97931385D01*
X140002166Y-97931385D01*
X140002165Y-97931384D01*
X139830027Y-97816365D01*
X139683635Y-97669973D01*
X139568616Y-97497835D01*
X139536834Y-97421107D01*
X139489389Y-97306564D01*
X139449000Y-97103516D01*
X139449000Y-96925999D01*
X139446598Y-96901613D01*
X139439485Y-96878164D01*
X139427934Y-96856553D01*
X139412389Y-96837611D01*
X139393447Y-96822066D01*
X139371836Y-96810515D01*
X139348387Y-96803402D01*
X139324001Y-96801000D01*
X139146484Y-96801000D01*
X138943436Y-96760611D01*
X138752167Y-96681385D01*
X138752166Y-96681385D01*
X138752165Y-96681384D01*
X138580027Y-96566365D01*
X138433635Y-96419973D01*
X138318616Y-96247835D01*
X138315709Y-96240817D01*
X138239389Y-96056564D01*
X138199000Y-95853516D01*
X138199000Y-95646484D01*
X138239389Y-95443436D01*
X138318615Y-95252167D01*
X138394372Y-95138789D01*
X138433635Y-95080027D01*
X138580027Y-94933635D01*
X138752165Y-94818616D01*
X138790447Y-94802759D01*
X138943436Y-94739389D01*
X139146484Y-94699000D01*
X139353516Y-94699000D01*
X139556564Y-94739389D01*
X139556564Y-94739389D01*
G37*
G36*
X147110442Y-96065518D02*
G01*
X147176627Y-96072037D01*
X147346466Y-96123557D01*
X147346468Y-96123558D01*
X147364250Y-96133063D01*
X147502991Y-96207222D01*
X147538729Y-96236552D01*
X147640186Y-96319814D01*
X147701127Y-96394072D01*
X147752778Y-96457009D01*
X147836443Y-96613534D01*
X147887963Y-96783373D01*
X147905359Y-96960000D01*
X147887963Y-97136627D01*
X147836443Y-97306466D01*
X147752778Y-97462991D01*
X147724184Y-97497833D01*
X147640186Y-97600186D01*
X147555149Y-97669973D01*
X147502991Y-97712778D01*
X147346466Y-97796443D01*
X147176627Y-97847963D01*
X147110443Y-97854481D01*
X147044260Y-97861000D01*
X146955740Y-97861000D01*
X146889558Y-97854482D01*
X146823373Y-97847963D01*
X146653534Y-97796443D01*
X146497009Y-97712778D01*
X146444851Y-97669973D01*
X146359814Y-97600186D01*
X146275816Y-97497833D01*
X146247222Y-97462991D01*
X146163557Y-97306466D01*
X146112037Y-97136627D01*
X146094641Y-96960000D01*
X146112037Y-96783373D01*
X146163557Y-96613534D01*
X146247222Y-96457009D01*
X146298873Y-96394072D01*
X146359814Y-96319814D01*
X146461271Y-96236552D01*
X146497009Y-96207222D01*
X146635750Y-96133063D01*
X146653532Y-96123558D01*
X146653534Y-96123557D01*
X146823373Y-96072037D01*
X146889558Y-96065518D01*
X146955740Y-96059000D01*
X147044260Y-96059000D01*
X147110442Y-96065518D01*
X147110442Y-96065518D01*
G37*
G36*
X130224549Y-94871116D02*
G01*
X130335734Y-94893232D01*
X130545203Y-94979997D01*
X130733720Y-95105960D01*
X130894040Y-95266280D01*
X131020003Y-95454797D01*
X131082604Y-95605928D01*
X131106768Y-95664267D01*
X131151000Y-95886635D01*
X131151000Y-96113365D01*
X131148972Y-96123558D01*
X131106768Y-96335734D01*
X131020003Y-96545203D01*
X130894040Y-96733720D01*
X130733720Y-96894040D01*
X130545203Y-97020003D01*
X130545202Y-97020004D01*
X130545201Y-97020004D01*
X130483850Y-97045416D01*
X130335734Y-97106768D01*
X130266276Y-97120584D01*
X130113365Y-97151000D01*
X129886635Y-97151000D01*
X129733724Y-97120584D01*
X129664266Y-97106768D01*
X129516150Y-97045416D01*
X129454799Y-97020004D01*
X129454798Y-97020004D01*
X129454797Y-97020003D01*
X129266280Y-96894040D01*
X129105960Y-96733720D01*
X128979997Y-96545203D01*
X128893232Y-96335734D01*
X128851028Y-96123558D01*
X128849000Y-96113365D01*
X128849000Y-95886635D01*
X128893232Y-95664267D01*
X128917397Y-95605928D01*
X128979997Y-95454797D01*
X129105960Y-95266280D01*
X129266280Y-95105960D01*
X129454797Y-94979997D01*
X129664266Y-94893232D01*
X129775451Y-94871116D01*
X129886635Y-94849000D01*
X130113365Y-94849000D01*
X130224549Y-94871116D01*
X130224549Y-94871116D01*
G37*
G36*
X144126000Y-83801000D02*
G01*
X141824000Y-83801000D01*
X141824000Y-82649000D01*
X144126000Y-82649000D01*
X144126000Y-83801000D01*
X144126000Y-83801000D01*
G37*
G36*
X78901000Y-83151000D02*
G01*
X77099000Y-83151000D01*
X77099000Y-81349000D01*
X78901000Y-81349000D01*
X78901000Y-83151000D01*
X78901000Y-83151000D01*
G37*
G36*
X117498228Y-80681703D02*
G01*
X117653100Y-80745853D01*
X117792481Y-80838985D01*
X117911015Y-80957519D01*
X118004147Y-81096900D01*
X118068297Y-81251772D01*
X118081858Y-81319947D01*
X118088967Y-81343384D01*
X118100518Y-81364995D01*
X118116063Y-81383937D01*
X118135005Y-81399482D01*
X118156616Y-81411033D01*
X118180053Y-81418142D01*
X118248228Y-81431703D01*
X118403100Y-81495853D01*
X118542481Y-81588985D01*
X118661015Y-81707519D01*
X118754147Y-81846900D01*
X118818297Y-82001772D01*
X118851000Y-82166184D01*
X118851000Y-82333816D01*
X118818297Y-82498228D01*
X118754147Y-82653100D01*
X118661015Y-82792481D01*
X118542481Y-82911015D01*
X118403100Y-83004147D01*
X118248228Y-83068297D01*
X118083816Y-83101000D01*
X117916184Y-83101000D01*
X117751772Y-83068297D01*
X117596900Y-83004147D01*
X117457519Y-82911015D01*
X117338985Y-82792481D01*
X117245853Y-82653100D01*
X117181703Y-82498228D01*
X117168142Y-82430053D01*
X117161033Y-82406616D01*
X117149482Y-82385005D01*
X117133937Y-82366063D01*
X117114995Y-82350518D01*
X117093384Y-82338967D01*
X117069947Y-82331858D01*
X117001772Y-82318297D01*
X116846900Y-82254147D01*
X116707519Y-82161015D01*
X116588985Y-82042481D01*
X116495853Y-81903100D01*
X116431703Y-81748228D01*
X116399000Y-81583816D01*
X116399000Y-81416184D01*
X116431703Y-81251772D01*
X116495853Y-81096900D01*
X116588985Y-80957519D01*
X116707519Y-80838985D01*
X116846900Y-80745853D01*
X117001772Y-80681703D01*
X117166184Y-80649000D01*
X117333816Y-80649000D01*
X117498228Y-80681703D01*
X117498228Y-80681703D01*
G37*
G36*
X86748228Y-80681703D02*
G01*
X86903100Y-80745853D01*
X87042481Y-80838985D01*
X87161015Y-80957519D01*
X87254147Y-81096900D01*
X87318297Y-81251772D01*
X87331858Y-81319947D01*
X87338967Y-81343384D01*
X87350518Y-81364995D01*
X87366063Y-81383937D01*
X87385005Y-81399482D01*
X87406616Y-81411033D01*
X87430053Y-81418142D01*
X87498228Y-81431703D01*
X87653100Y-81495853D01*
X87792481Y-81588985D01*
X87911015Y-81707519D01*
X88004147Y-81846900D01*
X88068297Y-82001772D01*
X88101000Y-82166184D01*
X88101000Y-82333816D01*
X88068297Y-82498228D01*
X88004147Y-82653100D01*
X87911015Y-82792481D01*
X87792481Y-82911015D01*
X87653100Y-83004147D01*
X87498228Y-83068297D01*
X87333816Y-83101000D01*
X87166184Y-83101000D01*
X87001772Y-83068297D01*
X86846900Y-83004147D01*
X86707519Y-82911015D01*
X86588985Y-82792481D01*
X86495853Y-82653100D01*
X86431703Y-82498228D01*
X86418142Y-82430053D01*
X86411033Y-82406616D01*
X86399482Y-82385005D01*
X86383937Y-82366063D01*
X86364995Y-82350518D01*
X86343384Y-82338967D01*
X86319947Y-82331858D01*
X86251772Y-82318297D01*
X86096900Y-82254147D01*
X85957519Y-82161015D01*
X85838985Y-82042481D01*
X85745853Y-81903100D01*
X85681703Y-81748228D01*
X85649000Y-81583816D01*
X85649000Y-81416184D01*
X85681703Y-81251772D01*
X85745853Y-81096900D01*
X85838985Y-80957519D01*
X85957519Y-80838985D01*
X86096900Y-80745853D01*
X86251772Y-80681703D01*
X86416184Y-80649000D01*
X86583816Y-80649000D01*
X86748228Y-80681703D01*
X86748228Y-80681703D01*
G37*
G36*
X130644072Y-77950918D02*
G01*
X130885693Y-78051000D01*
X130889939Y-78052759D01*
X130993831Y-78122178D01*
X131111211Y-78200609D01*
X131299391Y-78388789D01*
X131307624Y-78401111D01*
X131421700Y-78571836D01*
X131447242Y-78610063D01*
X131549082Y-78855928D01*
X131601000Y-79116937D01*
X131601000Y-79383063D01*
X131549082Y-79644072D01*
X131464199Y-79849000D01*
X131447241Y-79889939D01*
X131399072Y-79962029D01*
X131299391Y-80111211D01*
X131211019Y-80199583D01*
X131195474Y-80218525D01*
X131183923Y-80240136D01*
X131176810Y-80263585D01*
X131174408Y-80287971D01*
X131176810Y-80312357D01*
X131183923Y-80335806D01*
X131195475Y-80357418D01*
X131197242Y-80360062D01*
X131299082Y-80605928D01*
X131351000Y-80866937D01*
X131351000Y-81133063D01*
X131299082Y-81394072D01*
X131197242Y-81639937D01*
X131049391Y-81861211D01*
X130861211Y-82049391D01*
X130751328Y-82122813D01*
X130639939Y-82197241D01*
X130639938Y-82197242D01*
X130639937Y-82197242D01*
X130394072Y-82299082D01*
X130133063Y-82351000D01*
X129866937Y-82351000D01*
X129605928Y-82299082D01*
X129360063Y-82197242D01*
X129360062Y-82197242D01*
X129360061Y-82197241D01*
X129248672Y-82122813D01*
X129138789Y-82049391D01*
X128950609Y-81861211D01*
X128802758Y-81639937D01*
X128700918Y-81394072D01*
X128649000Y-81133063D01*
X128649000Y-80866937D01*
X128700918Y-80605928D01*
X128802758Y-80360063D01*
X128808814Y-80351000D01*
X128950610Y-80138788D01*
X129038981Y-80050417D01*
X129054526Y-80031475D01*
X129066077Y-80009864D01*
X129073190Y-79986415D01*
X129075592Y-79962029D01*
X129073190Y-79937643D01*
X129066077Y-79914194D01*
X129054525Y-79892582D01*
X129052758Y-79889938D01*
X128950918Y-79644072D01*
X128899000Y-79383063D01*
X128899000Y-79116937D01*
X128950918Y-78855928D01*
X129052758Y-78610063D01*
X129078301Y-78571836D01*
X129192376Y-78401111D01*
X129200609Y-78388789D01*
X129388789Y-78200609D01*
X129506169Y-78122178D01*
X129610061Y-78052759D01*
X129614308Y-78051000D01*
X129855928Y-77950918D01*
X130116937Y-77899000D01*
X130383063Y-77899000D01*
X130644072Y-77950918D01*
X130644072Y-77950918D01*
G37*
G36*
X142026000Y-82301000D02*
G01*
X140874000Y-82301000D01*
X140874000Y-81199000D01*
X142026000Y-81199000D01*
X142026000Y-82301000D01*
X142026000Y-82301000D01*
G37*
G36*
X126224549Y-79871116D02*
G01*
X126335734Y-79893232D01*
X126474257Y-79950610D01*
X126501825Y-79962029D01*
X126545203Y-79979997D01*
X126733720Y-80105960D01*
X126894040Y-80266280D01*
X127020003Y-80454797D01*
X127106768Y-80664266D01*
X127151000Y-80886636D01*
X127151000Y-81113364D01*
X127106768Y-81335734D01*
X127020003Y-81545203D01*
X126894040Y-81733720D01*
X126733720Y-81894040D01*
X126545203Y-82020003D01*
X126335734Y-82106768D01*
X126224549Y-82128884D01*
X126113365Y-82151000D01*
X125886635Y-82151000D01*
X125775451Y-82128884D01*
X125664266Y-82106768D01*
X125454797Y-82020003D01*
X125266280Y-81894040D01*
X125105960Y-81733720D01*
X124979997Y-81545203D01*
X124893232Y-81335734D01*
X124849000Y-81113364D01*
X124849000Y-80886636D01*
X124893232Y-80664266D01*
X124979997Y-80454797D01*
X125105960Y-80266280D01*
X125266280Y-80105960D01*
X125454797Y-79979997D01*
X125498176Y-79962029D01*
X125525743Y-79950610D01*
X125664266Y-79893232D01*
X125775451Y-79871116D01*
X125886635Y-79849000D01*
X126113365Y-79849000D01*
X126224549Y-79871116D01*
X126224549Y-79871116D01*
G37*
G36*
X139051000Y-79574001D02*
G01*
X139053402Y-79598387D01*
X139060515Y-79621836D01*
X139072066Y-79643447D01*
X139087611Y-79662389D01*
X139106553Y-79677934D01*
X139128164Y-79689485D01*
X139151613Y-79696598D01*
X139175999Y-79699000D01*
X140301000Y-79699000D01*
X140301000Y-81801000D01*
X138199000Y-81801000D01*
X138199000Y-80675999D01*
X138196598Y-80651613D01*
X138189485Y-80628164D01*
X138177934Y-80606553D01*
X138162389Y-80587611D01*
X138143447Y-80572066D01*
X138121836Y-80560515D01*
X138098387Y-80553402D01*
X138074001Y-80551000D01*
X136949000Y-80551000D01*
X136949000Y-78449000D01*
X139051000Y-78449000D01*
X139051000Y-79574001D01*
X139051000Y-79574001D01*
G37*
G36*
X144126000Y-80851000D02*
G01*
X141824000Y-80851000D01*
X141824000Y-79699000D01*
X144126000Y-79699000D01*
X144126000Y-80851000D01*
X144126000Y-80851000D01*
G37*
G36*
X78110442Y-78815518D02*
G01*
X78176627Y-78822037D01*
X78346466Y-78873557D01*
X78502991Y-78957222D01*
X78538729Y-78986552D01*
X78640186Y-79069814D01*
X78723448Y-79171271D01*
X78752778Y-79207009D01*
X78836443Y-79363534D01*
X78887963Y-79533373D01*
X78905359Y-79710000D01*
X78887963Y-79886627D01*
X78836443Y-80056466D01*
X78752778Y-80212991D01*
X78723448Y-80248729D01*
X78640186Y-80350186D01*
X78538729Y-80433448D01*
X78502991Y-80462778D01*
X78346466Y-80546443D01*
X78176627Y-80597963D01*
X78110442Y-80604482D01*
X78044260Y-80611000D01*
X77955740Y-80611000D01*
X77889558Y-80604482D01*
X77823373Y-80597963D01*
X77653534Y-80546443D01*
X77497009Y-80462778D01*
X77461271Y-80433448D01*
X77359814Y-80350186D01*
X77276552Y-80248729D01*
X77247222Y-80212991D01*
X77163557Y-80056466D01*
X77112037Y-79886627D01*
X77094641Y-79710000D01*
X77112037Y-79533373D01*
X77163557Y-79363534D01*
X77247222Y-79207009D01*
X77276552Y-79171271D01*
X77359814Y-79069814D01*
X77461271Y-78986552D01*
X77497009Y-78957222D01*
X77653534Y-78873557D01*
X77823373Y-78822037D01*
X77889558Y-78815518D01*
X77955740Y-78809000D01*
X78044260Y-78809000D01*
X78110442Y-78815518D01*
X78110442Y-78815518D01*
G37*
G36*
X147901000Y-80401000D02*
G01*
X146099000Y-80401000D01*
X146099000Y-78599000D01*
X147901000Y-78599000D01*
X147901000Y-80401000D01*
X147901000Y-80401000D01*
G37*
G36*
X88101000Y-78524001D02*
G01*
X88103402Y-78548387D01*
X88110515Y-78571836D01*
X88122066Y-78593447D01*
X88137611Y-78612389D01*
X88156553Y-78627934D01*
X88178164Y-78639485D01*
X88201613Y-78646598D01*
X88225999Y-78649000D01*
X88851000Y-78649000D01*
X88851000Y-80351000D01*
X87149000Y-80351000D01*
X87149000Y-79725999D01*
X87146598Y-79701613D01*
X87139485Y-79678164D01*
X87127934Y-79656553D01*
X87112389Y-79637611D01*
X87093447Y-79622066D01*
X87071836Y-79610515D01*
X87048387Y-79603402D01*
X87024001Y-79601000D01*
X86399000Y-79601000D01*
X86399000Y-77899000D01*
X88101000Y-77899000D01*
X88101000Y-78524001D01*
X88101000Y-78524001D01*
G37*
G36*
X118851000Y-78524001D02*
G01*
X118853402Y-78548387D01*
X118860515Y-78571836D01*
X118872066Y-78593447D01*
X118887611Y-78612389D01*
X118906553Y-78627934D01*
X118928164Y-78639485D01*
X118951613Y-78646598D01*
X118975999Y-78649000D01*
X119601000Y-78649000D01*
X119601000Y-80351000D01*
X117899000Y-80351000D01*
X117899000Y-79725999D01*
X117896598Y-79701613D01*
X117889485Y-79678164D01*
X117877934Y-79656553D01*
X117862389Y-79637611D01*
X117843447Y-79622066D01*
X117821836Y-79610515D01*
X117798387Y-79603402D01*
X117774001Y-79601000D01*
X117149000Y-79601000D01*
X117149000Y-77899000D01*
X118851000Y-77899000D01*
X118851000Y-78524001D01*
X118851000Y-78524001D01*
G37*
G36*
X126384430Y-74699000D02*
G01*
X126394072Y-74700918D01*
X126639939Y-74802759D01*
X126663669Y-74818615D01*
X126861211Y-74950609D01*
X127049391Y-75138789D01*
X127197242Y-75360063D01*
X127299082Y-75605928D01*
X127351000Y-75866937D01*
X127351000Y-76133063D01*
X127336249Y-76207221D01*
X127299082Y-76394072D01*
X127197241Y-76639939D01*
X127169548Y-76681384D01*
X127049391Y-76861211D01*
X126883620Y-77026982D01*
X126868075Y-77045924D01*
X126856524Y-77067535D01*
X126849411Y-77090984D01*
X126847009Y-77115370D01*
X126849411Y-77139756D01*
X126850618Y-77145825D01*
X126850619Y-77145827D01*
X126882592Y-77306565D01*
X126902537Y-77406836D01*
X126902537Y-77672962D01*
X126850619Y-77933971D01*
X126772662Y-78122178D01*
X126748778Y-78179838D01*
X126688387Y-78270219D01*
X126600928Y-78401110D01*
X126412748Y-78589290D01*
X126398216Y-78599000D01*
X126191476Y-78737140D01*
X126191475Y-78737141D01*
X126191474Y-78737141D01*
X125945609Y-78838981D01*
X125684600Y-78890899D01*
X125418474Y-78890899D01*
X125157465Y-78838981D01*
X124911600Y-78737141D01*
X124911599Y-78737141D01*
X124911598Y-78737140D01*
X124704858Y-78599000D01*
X124690326Y-78589290D01*
X124502146Y-78401110D01*
X124414687Y-78270219D01*
X124354296Y-78179838D01*
X124330413Y-78122178D01*
X124252455Y-77933971D01*
X124200537Y-77672962D01*
X124200537Y-77406836D01*
X124252455Y-77145827D01*
X124354295Y-76899962D01*
X124356618Y-76896486D01*
X124465375Y-76733720D01*
X124502146Y-76678688D01*
X124667917Y-76512917D01*
X124683462Y-76493975D01*
X124695013Y-76472364D01*
X124702126Y-76448915D01*
X124704528Y-76424529D01*
X124702126Y-76400143D01*
X124686148Y-76319815D01*
X124660107Y-76188899D01*
X124649000Y-76133063D01*
X124649000Y-75866937D01*
X124700918Y-75605928D01*
X124802758Y-75360063D01*
X124950609Y-75138789D01*
X125138789Y-74950609D01*
X125336331Y-74818615D01*
X125360061Y-74802759D01*
X125605928Y-74700918D01*
X125615570Y-74699000D01*
X125866937Y-74649000D01*
X126133063Y-74649000D01*
X126384430Y-74699000D01*
X126384430Y-74699000D01*
G37*
G36*
X96483642Y-76729781D02*
G01*
X96629414Y-76790162D01*
X96629416Y-76790163D01*
X96760608Y-76877822D01*
X96872178Y-76989392D01*
X96956353Y-77115370D01*
X96959838Y-77120586D01*
X97020219Y-77266358D01*
X97051000Y-77421107D01*
X97051000Y-77578893D01*
X97020219Y-77733642D01*
X96985954Y-77816365D01*
X96959837Y-77879416D01*
X96872178Y-78010608D01*
X96760608Y-78122178D01*
X96629416Y-78209837D01*
X96629415Y-78209838D01*
X96629414Y-78209838D01*
X96483642Y-78270219D01*
X96328893Y-78301000D01*
X96171107Y-78301000D01*
X96016358Y-78270219D01*
X95870586Y-78209838D01*
X95870585Y-78209838D01*
X95870584Y-78209837D01*
X95739392Y-78122178D01*
X95627822Y-78010608D01*
X95540163Y-77879416D01*
X95514046Y-77816365D01*
X95479781Y-77733642D01*
X95449000Y-77578893D01*
X95449000Y-77421107D01*
X95479781Y-77266358D01*
X95540162Y-77120586D01*
X95543647Y-77115370D01*
X95627822Y-76989392D01*
X95739392Y-76877822D01*
X95870584Y-76790163D01*
X95870586Y-76790162D01*
X96016358Y-76729781D01*
X96171107Y-76699000D01*
X96328893Y-76699000D01*
X96483642Y-76729781D01*
X96483642Y-76729781D01*
G37*
G36*
X99023642Y-76729781D02*
G01*
X99169414Y-76790162D01*
X99169416Y-76790163D01*
X99300608Y-76877822D01*
X99412178Y-76989392D01*
X99496353Y-77115370D01*
X99499838Y-77120586D01*
X99560219Y-77266358D01*
X99591000Y-77421107D01*
X99591000Y-77578893D01*
X99560219Y-77733642D01*
X99525954Y-77816365D01*
X99499837Y-77879416D01*
X99412178Y-78010608D01*
X99300608Y-78122178D01*
X99169416Y-78209837D01*
X99169415Y-78209838D01*
X99169414Y-78209838D01*
X99023642Y-78270219D01*
X98868893Y-78301000D01*
X98711107Y-78301000D01*
X98556358Y-78270219D01*
X98410586Y-78209838D01*
X98410585Y-78209838D01*
X98410584Y-78209837D01*
X98279392Y-78122178D01*
X98167822Y-78010608D01*
X98080163Y-77879416D01*
X98054046Y-77816365D01*
X98019781Y-77733642D01*
X97989000Y-77578893D01*
X97989000Y-77421107D01*
X98019781Y-77266358D01*
X98080162Y-77120586D01*
X98083647Y-77115370D01*
X98167822Y-76989392D01*
X98279392Y-76877822D01*
X98410584Y-76790163D01*
X98410586Y-76790162D01*
X98556358Y-76729781D01*
X98711107Y-76699000D01*
X98868893Y-76699000D01*
X99023642Y-76729781D01*
X99023642Y-76729781D01*
G37*
G36*
X109183642Y-76729781D02*
G01*
X109329414Y-76790162D01*
X109329416Y-76790163D01*
X109460608Y-76877822D01*
X109572178Y-76989392D01*
X109656353Y-77115370D01*
X109659838Y-77120586D01*
X109720219Y-77266358D01*
X109751000Y-77421107D01*
X109751000Y-77578893D01*
X109720219Y-77733642D01*
X109685954Y-77816365D01*
X109659837Y-77879416D01*
X109572178Y-78010608D01*
X109460608Y-78122178D01*
X109329416Y-78209837D01*
X109329415Y-78209838D01*
X109329414Y-78209838D01*
X109183642Y-78270219D01*
X109028893Y-78301000D01*
X108871107Y-78301000D01*
X108716358Y-78270219D01*
X108570586Y-78209838D01*
X108570585Y-78209838D01*
X108570584Y-78209837D01*
X108439392Y-78122178D01*
X108327822Y-78010608D01*
X108240163Y-77879416D01*
X108214046Y-77816365D01*
X108179781Y-77733642D01*
X108149000Y-77578893D01*
X108149000Y-77421107D01*
X108179781Y-77266358D01*
X108240162Y-77120586D01*
X108243647Y-77115370D01*
X108327822Y-76989392D01*
X108439392Y-76877822D01*
X108570584Y-76790163D01*
X108570586Y-76790162D01*
X108716358Y-76729781D01*
X108871107Y-76699000D01*
X109028893Y-76699000D01*
X109183642Y-76729781D01*
X109183642Y-76729781D01*
G37*
G36*
X106643642Y-76729781D02*
G01*
X106789414Y-76790162D01*
X106789416Y-76790163D01*
X106920608Y-76877822D01*
X107032178Y-76989392D01*
X107116353Y-77115370D01*
X107119838Y-77120586D01*
X107180219Y-77266358D01*
X107211000Y-77421107D01*
X107211000Y-77578893D01*
X107180219Y-77733642D01*
X107145954Y-77816365D01*
X107119837Y-77879416D01*
X107032178Y-78010608D01*
X106920608Y-78122178D01*
X106789416Y-78209837D01*
X106789415Y-78209838D01*
X106789414Y-78209838D01*
X106643642Y-78270219D01*
X106488893Y-78301000D01*
X106331107Y-78301000D01*
X106176358Y-78270219D01*
X106030586Y-78209838D01*
X106030585Y-78209838D01*
X106030584Y-78209837D01*
X105899392Y-78122178D01*
X105787822Y-78010608D01*
X105700163Y-77879416D01*
X105674046Y-77816365D01*
X105639781Y-77733642D01*
X105609000Y-77578893D01*
X105609000Y-77421107D01*
X105639781Y-77266358D01*
X105700162Y-77120586D01*
X105703647Y-77115370D01*
X105787822Y-76989392D01*
X105899392Y-76877822D01*
X106030584Y-76790163D01*
X106030586Y-76790162D01*
X106176358Y-76729781D01*
X106331107Y-76699000D01*
X106488893Y-76699000D01*
X106643642Y-76729781D01*
X106643642Y-76729781D01*
G37*
G36*
X104103642Y-76729781D02*
G01*
X104249414Y-76790162D01*
X104249416Y-76790163D01*
X104380608Y-76877822D01*
X104492178Y-76989392D01*
X104576353Y-77115370D01*
X104579838Y-77120586D01*
X104640219Y-77266358D01*
X104671000Y-77421107D01*
X104671000Y-77578893D01*
X104640219Y-77733642D01*
X104605954Y-77816365D01*
X104579837Y-77879416D01*
X104492178Y-78010608D01*
X104380608Y-78122178D01*
X104249416Y-78209837D01*
X104249415Y-78209838D01*
X104249414Y-78209838D01*
X104103642Y-78270219D01*
X103948893Y-78301000D01*
X103791107Y-78301000D01*
X103636358Y-78270219D01*
X103490586Y-78209838D01*
X103490585Y-78209838D01*
X103490584Y-78209837D01*
X103359392Y-78122178D01*
X103247822Y-78010608D01*
X103160163Y-77879416D01*
X103134046Y-77816365D01*
X103099781Y-77733642D01*
X103069000Y-77578893D01*
X103069000Y-77421107D01*
X103099781Y-77266358D01*
X103160162Y-77120586D01*
X103163647Y-77115370D01*
X103247822Y-76989392D01*
X103359392Y-76877822D01*
X103490584Y-76790163D01*
X103490586Y-76790162D01*
X103636358Y-76729781D01*
X103791107Y-76699000D01*
X103948893Y-76699000D01*
X104103642Y-76729781D01*
X104103642Y-76729781D01*
G37*
G36*
X139556564Y-74739389D02*
G01*
X139709553Y-74802759D01*
X139747835Y-74818616D01*
X139919973Y-74933635D01*
X140066365Y-75080027D01*
X140105629Y-75138789D01*
X140181385Y-75252167D01*
X140260611Y-75443436D01*
X140301000Y-75646484D01*
X140301000Y-75824001D01*
X140303402Y-75848387D01*
X140310515Y-75871836D01*
X140322066Y-75893447D01*
X140337611Y-75912389D01*
X140356553Y-75927934D01*
X140378164Y-75939485D01*
X140401613Y-75946598D01*
X140425999Y-75949000D01*
X140603516Y-75949000D01*
X140806564Y-75989389D01*
X140974620Y-76059000D01*
X140997835Y-76068616D01*
X141169973Y-76183635D01*
X141316365Y-76330027D01*
X141425912Y-76493975D01*
X141431385Y-76502167D01*
X141510611Y-76693436D01*
X141551000Y-76896484D01*
X141551000Y-77103516D01*
X141510611Y-77306564D01*
X141463166Y-77421107D01*
X141431384Y-77497835D01*
X141316365Y-77669973D01*
X141169973Y-77816365D01*
X140997835Y-77931384D01*
X140997834Y-77931385D01*
X140997833Y-77931385D01*
X140806564Y-78010611D01*
X140603516Y-78051000D01*
X140396484Y-78051000D01*
X140193436Y-78010611D01*
X140002167Y-77931385D01*
X140002166Y-77931385D01*
X140002165Y-77931384D01*
X139830027Y-77816365D01*
X139683635Y-77669973D01*
X139568616Y-77497835D01*
X139536834Y-77421107D01*
X139489389Y-77306564D01*
X139449000Y-77103516D01*
X139449000Y-76925999D01*
X139446598Y-76901613D01*
X139439485Y-76878164D01*
X139427934Y-76856553D01*
X139412389Y-76837611D01*
X139393447Y-76822066D01*
X139371836Y-76810515D01*
X139348387Y-76803402D01*
X139324001Y-76801000D01*
X139146484Y-76801000D01*
X138943436Y-76760611D01*
X138752167Y-76681385D01*
X138752166Y-76681385D01*
X138752165Y-76681384D01*
X138580027Y-76566365D01*
X138433635Y-76419973D01*
X138318616Y-76247835D01*
X138315709Y-76240817D01*
X138239389Y-76056564D01*
X138199000Y-75853516D01*
X138199000Y-75646484D01*
X138239389Y-75443436D01*
X138318615Y-75252167D01*
X138394372Y-75138789D01*
X138433635Y-75080027D01*
X138580027Y-74933635D01*
X138752165Y-74818616D01*
X138790447Y-74802759D01*
X138943436Y-74739389D01*
X139146484Y-74699000D01*
X139353516Y-74699000D01*
X139556564Y-74739389D01*
X139556564Y-74739389D01*
G37*
G36*
X147110443Y-76065519D02*
G01*
X147176627Y-76072037D01*
X147346466Y-76123557D01*
X147346468Y-76123558D01*
X147364250Y-76133063D01*
X147502991Y-76207222D01*
X147538729Y-76236552D01*
X147640186Y-76319814D01*
X147701127Y-76394072D01*
X147752778Y-76457009D01*
X147836443Y-76613534D01*
X147887963Y-76783373D01*
X147905359Y-76960000D01*
X147887963Y-77136627D01*
X147836443Y-77306466D01*
X147752778Y-77462991D01*
X147724184Y-77497833D01*
X147640186Y-77600186D01*
X147555149Y-77669973D01*
X147502991Y-77712778D01*
X147346466Y-77796443D01*
X147176627Y-77847963D01*
X147110443Y-77854481D01*
X147044260Y-77861000D01*
X146955740Y-77861000D01*
X146889557Y-77854481D01*
X146823373Y-77847963D01*
X146653534Y-77796443D01*
X146497009Y-77712778D01*
X146444851Y-77669973D01*
X146359814Y-77600186D01*
X146275816Y-77497833D01*
X146247222Y-77462991D01*
X146163557Y-77306466D01*
X146112037Y-77136627D01*
X146094641Y-76960000D01*
X146112037Y-76783373D01*
X146163557Y-76613534D01*
X146247222Y-76457009D01*
X146298873Y-76394072D01*
X146359814Y-76319814D01*
X146461271Y-76236552D01*
X146497009Y-76207222D01*
X146635750Y-76133063D01*
X146653532Y-76123558D01*
X146653534Y-76123557D01*
X146823373Y-76072037D01*
X146889557Y-76065519D01*
X146955740Y-76059000D01*
X147044260Y-76059000D01*
X147110443Y-76065519D01*
X147110443Y-76065519D01*
G37*
G36*
X130224549Y-74871116D02*
G01*
X130335734Y-74893232D01*
X130545203Y-74979997D01*
X130733720Y-75105960D01*
X130894040Y-75266280D01*
X131020003Y-75454797D01*
X131082604Y-75605928D01*
X131106768Y-75664267D01*
X131151000Y-75886635D01*
X131151000Y-76113365D01*
X131148972Y-76123558D01*
X131106768Y-76335734D01*
X131020003Y-76545203D01*
X130894040Y-76733720D01*
X130733720Y-76894040D01*
X130545203Y-77020003D01*
X130545202Y-77020004D01*
X130545201Y-77020004D01*
X130483850Y-77045416D01*
X130335734Y-77106768D01*
X130266276Y-77120584D01*
X130113365Y-77151000D01*
X129886635Y-77151000D01*
X129733724Y-77120584D01*
X129664266Y-77106768D01*
X129516150Y-77045416D01*
X129454799Y-77020004D01*
X129454798Y-77020004D01*
X129454797Y-77020003D01*
X129266280Y-76894040D01*
X129105960Y-76733720D01*
X128979997Y-76545203D01*
X128893232Y-76335734D01*
X128851028Y-76123558D01*
X128849000Y-76113365D01*
X128849000Y-75886635D01*
X128893232Y-75664267D01*
X128917397Y-75605928D01*
X128979997Y-75454797D01*
X129105960Y-75266280D01*
X129266280Y-75105960D01*
X129454797Y-74979997D01*
X129664266Y-74893232D01*
X129775451Y-74871116D01*
X129886635Y-74849000D01*
X130113365Y-74849000D01*
X130224549Y-74871116D01*
X130224549Y-74871116D01*
G37*
G36*
X144126000Y-63801000D02*
G01*
X141824000Y-63801000D01*
X141824000Y-62649000D01*
X144126000Y-62649000D01*
X144126000Y-63801000D01*
X144126000Y-63801000D01*
G37*
G36*
X78901000Y-63151000D02*
G01*
X77099000Y-63151000D01*
X77099000Y-61349000D01*
X78901000Y-61349000D01*
X78901000Y-63151000D01*
X78901000Y-63151000D01*
G37*
G36*
X117498228Y-60681703D02*
G01*
X117653100Y-60745853D01*
X117792481Y-60838985D01*
X117911015Y-60957519D01*
X118004147Y-61096900D01*
X118068297Y-61251772D01*
X118081858Y-61319947D01*
X118088967Y-61343384D01*
X118100518Y-61364995D01*
X118116063Y-61383937D01*
X118135005Y-61399482D01*
X118156616Y-61411033D01*
X118180053Y-61418142D01*
X118248228Y-61431703D01*
X118403100Y-61495853D01*
X118542481Y-61588985D01*
X118661015Y-61707519D01*
X118754147Y-61846900D01*
X118818297Y-62001772D01*
X118851000Y-62166184D01*
X118851000Y-62333816D01*
X118818297Y-62498228D01*
X118754147Y-62653100D01*
X118661015Y-62792481D01*
X118542481Y-62911015D01*
X118403100Y-63004147D01*
X118248228Y-63068297D01*
X118083816Y-63101000D01*
X117916184Y-63101000D01*
X117751772Y-63068297D01*
X117596900Y-63004147D01*
X117457519Y-62911015D01*
X117338985Y-62792481D01*
X117245853Y-62653100D01*
X117181703Y-62498228D01*
X117168142Y-62430053D01*
X117161033Y-62406616D01*
X117149482Y-62385005D01*
X117133937Y-62366063D01*
X117114995Y-62350518D01*
X117093384Y-62338967D01*
X117069947Y-62331858D01*
X117001772Y-62318297D01*
X116846900Y-62254147D01*
X116707519Y-62161015D01*
X116588985Y-62042481D01*
X116495853Y-61903100D01*
X116431703Y-61748228D01*
X116399000Y-61583816D01*
X116399000Y-61416184D01*
X116431703Y-61251772D01*
X116495853Y-61096900D01*
X116588985Y-60957519D01*
X116707519Y-60838985D01*
X116846900Y-60745853D01*
X117001772Y-60681703D01*
X117166184Y-60649000D01*
X117333816Y-60649000D01*
X117498228Y-60681703D01*
X117498228Y-60681703D01*
G37*
G36*
X86748228Y-60681703D02*
G01*
X86903100Y-60745853D01*
X87042481Y-60838985D01*
X87161015Y-60957519D01*
X87254147Y-61096900D01*
X87318297Y-61251772D01*
X87331858Y-61319947D01*
X87338967Y-61343384D01*
X87350518Y-61364995D01*
X87366063Y-61383937D01*
X87385005Y-61399482D01*
X87406616Y-61411033D01*
X87430053Y-61418142D01*
X87498228Y-61431703D01*
X87653100Y-61495853D01*
X87792481Y-61588985D01*
X87911015Y-61707519D01*
X88004147Y-61846900D01*
X88068297Y-62001772D01*
X88101000Y-62166184D01*
X88101000Y-62333816D01*
X88068297Y-62498228D01*
X88004147Y-62653100D01*
X87911015Y-62792481D01*
X87792481Y-62911015D01*
X87653100Y-63004147D01*
X87498228Y-63068297D01*
X87333816Y-63101000D01*
X87166184Y-63101000D01*
X87001772Y-63068297D01*
X86846900Y-63004147D01*
X86707519Y-62911015D01*
X86588985Y-62792481D01*
X86495853Y-62653100D01*
X86431703Y-62498228D01*
X86418142Y-62430053D01*
X86411033Y-62406616D01*
X86399482Y-62385005D01*
X86383937Y-62366063D01*
X86364995Y-62350518D01*
X86343384Y-62338967D01*
X86319947Y-62331858D01*
X86251772Y-62318297D01*
X86096900Y-62254147D01*
X85957519Y-62161015D01*
X85838985Y-62042481D01*
X85745853Y-61903100D01*
X85681703Y-61748228D01*
X85649000Y-61583816D01*
X85649000Y-61416184D01*
X85681703Y-61251772D01*
X85745853Y-61096900D01*
X85838985Y-60957519D01*
X85957519Y-60838985D01*
X86096900Y-60745853D01*
X86251772Y-60681703D01*
X86416184Y-60649000D01*
X86583816Y-60649000D01*
X86748228Y-60681703D01*
X86748228Y-60681703D01*
G37*
G36*
X130644072Y-57950918D02*
G01*
X130885693Y-58051000D01*
X130889939Y-58052759D01*
X130993831Y-58122178D01*
X131111211Y-58200609D01*
X131299391Y-58388789D01*
X131307624Y-58401111D01*
X131421700Y-58571836D01*
X131447242Y-58610063D01*
X131549082Y-58855928D01*
X131601000Y-59116937D01*
X131601000Y-59383063D01*
X131549082Y-59644072D01*
X131464199Y-59849000D01*
X131447241Y-59889939D01*
X131399072Y-59962029D01*
X131299391Y-60111211D01*
X131211019Y-60199583D01*
X131195474Y-60218525D01*
X131183923Y-60240136D01*
X131176810Y-60263585D01*
X131174408Y-60287971D01*
X131176810Y-60312357D01*
X131183923Y-60335806D01*
X131195475Y-60357418D01*
X131197242Y-60360062D01*
X131299082Y-60605928D01*
X131351000Y-60866937D01*
X131351000Y-61133063D01*
X131299082Y-61394072D01*
X131197242Y-61639937D01*
X131049391Y-61861211D01*
X130861211Y-62049391D01*
X130751328Y-62122813D01*
X130639939Y-62197241D01*
X130639938Y-62197242D01*
X130639937Y-62197242D01*
X130394072Y-62299082D01*
X130133063Y-62351000D01*
X129866937Y-62351000D01*
X129605928Y-62299082D01*
X129360063Y-62197242D01*
X129360062Y-62197242D01*
X129360061Y-62197241D01*
X129248672Y-62122813D01*
X129138789Y-62049391D01*
X128950609Y-61861211D01*
X128802758Y-61639937D01*
X128700918Y-61394072D01*
X128649000Y-61133063D01*
X128649000Y-60866937D01*
X128700918Y-60605928D01*
X128802758Y-60360063D01*
X128808814Y-60351000D01*
X128950610Y-60138788D01*
X129038981Y-60050417D01*
X129054526Y-60031475D01*
X129066077Y-60009864D01*
X129073190Y-59986415D01*
X129075592Y-59962029D01*
X129073190Y-59937643D01*
X129066077Y-59914194D01*
X129054525Y-59892582D01*
X129052758Y-59889938D01*
X128950918Y-59644072D01*
X128899000Y-59383063D01*
X128899000Y-59116937D01*
X128950918Y-58855928D01*
X129052758Y-58610063D01*
X129078301Y-58571836D01*
X129192376Y-58401111D01*
X129200609Y-58388789D01*
X129388789Y-58200609D01*
X129506169Y-58122178D01*
X129610061Y-58052759D01*
X129614308Y-58051000D01*
X129855928Y-57950918D01*
X130116937Y-57899000D01*
X130383063Y-57899000D01*
X130644072Y-57950918D01*
X130644072Y-57950918D01*
G37*
G36*
X142026000Y-62301000D02*
G01*
X140874000Y-62301000D01*
X140874000Y-61199000D01*
X142026000Y-61199000D01*
X142026000Y-62301000D01*
X142026000Y-62301000D01*
G37*
G36*
X126224549Y-59871116D02*
G01*
X126335734Y-59893232D01*
X126474257Y-59950610D01*
X126501825Y-59962029D01*
X126545203Y-59979997D01*
X126733720Y-60105960D01*
X126894040Y-60266280D01*
X127020003Y-60454797D01*
X127106768Y-60664266D01*
X127151000Y-60886636D01*
X127151000Y-61113364D01*
X127106768Y-61335734D01*
X127020003Y-61545203D01*
X126894040Y-61733720D01*
X126733720Y-61894040D01*
X126545203Y-62020003D01*
X126335734Y-62106768D01*
X126224549Y-62128884D01*
X126113365Y-62151000D01*
X125886635Y-62151000D01*
X125775451Y-62128884D01*
X125664266Y-62106768D01*
X125454797Y-62020003D01*
X125266280Y-61894040D01*
X125105960Y-61733720D01*
X124979997Y-61545203D01*
X124893232Y-61335734D01*
X124849000Y-61113364D01*
X124849000Y-60886636D01*
X124893232Y-60664266D01*
X124979997Y-60454797D01*
X125105960Y-60266280D01*
X125266280Y-60105960D01*
X125454797Y-59979997D01*
X125498176Y-59962029D01*
X125525743Y-59950610D01*
X125664266Y-59893232D01*
X125775451Y-59871116D01*
X125886635Y-59849000D01*
X126113365Y-59849000D01*
X126224549Y-59871116D01*
X126224549Y-59871116D01*
G37*
G36*
X139051000Y-59574001D02*
G01*
X139053402Y-59598387D01*
X139060515Y-59621836D01*
X139072066Y-59643447D01*
X139087611Y-59662389D01*
X139106553Y-59677934D01*
X139128164Y-59689485D01*
X139151613Y-59696598D01*
X139175999Y-59699000D01*
X140301000Y-59699000D01*
X140301000Y-61801000D01*
X138199000Y-61801000D01*
X138199000Y-60675999D01*
X138196598Y-60651613D01*
X138189485Y-60628164D01*
X138177934Y-60606553D01*
X138162389Y-60587611D01*
X138143447Y-60572066D01*
X138121836Y-60560515D01*
X138098387Y-60553402D01*
X138074001Y-60551000D01*
X136949000Y-60551000D01*
X136949000Y-58449000D01*
X139051000Y-58449000D01*
X139051000Y-59574001D01*
X139051000Y-59574001D01*
G37*
G36*
X144126000Y-60851000D02*
G01*
X141824000Y-60851000D01*
X141824000Y-59699000D01*
X144126000Y-59699000D01*
X144126000Y-60851000D01*
X144126000Y-60851000D01*
G37*
G36*
X78110443Y-58815519D02*
G01*
X78176627Y-58822037D01*
X78346466Y-58873557D01*
X78502991Y-58957222D01*
X78538729Y-58986552D01*
X78640186Y-59069814D01*
X78723448Y-59171271D01*
X78752778Y-59207009D01*
X78836443Y-59363534D01*
X78887963Y-59533373D01*
X78905359Y-59710000D01*
X78887963Y-59886627D01*
X78836443Y-60056466D01*
X78752778Y-60212991D01*
X78723448Y-60248729D01*
X78640186Y-60350186D01*
X78538729Y-60433448D01*
X78502991Y-60462778D01*
X78346466Y-60546443D01*
X78176627Y-60597963D01*
X78110443Y-60604481D01*
X78044260Y-60611000D01*
X77955740Y-60611000D01*
X77889557Y-60604481D01*
X77823373Y-60597963D01*
X77653534Y-60546443D01*
X77497009Y-60462778D01*
X77461271Y-60433448D01*
X77359814Y-60350186D01*
X77276552Y-60248729D01*
X77247222Y-60212991D01*
X77163557Y-60056466D01*
X77112037Y-59886627D01*
X77094641Y-59710000D01*
X77112037Y-59533373D01*
X77163557Y-59363534D01*
X77247222Y-59207009D01*
X77276552Y-59171271D01*
X77359814Y-59069814D01*
X77461271Y-58986552D01*
X77497009Y-58957222D01*
X77653534Y-58873557D01*
X77823373Y-58822037D01*
X77889557Y-58815519D01*
X77955740Y-58809000D01*
X78044260Y-58809000D01*
X78110443Y-58815519D01*
X78110443Y-58815519D01*
G37*
G36*
X147901000Y-60401000D02*
G01*
X146099000Y-60401000D01*
X146099000Y-58599000D01*
X147901000Y-58599000D01*
X147901000Y-60401000D01*
X147901000Y-60401000D01*
G37*
G36*
X118851000Y-58524001D02*
G01*
X118853402Y-58548387D01*
X118860515Y-58571836D01*
X118872066Y-58593447D01*
X118887611Y-58612389D01*
X118906553Y-58627934D01*
X118928164Y-58639485D01*
X118951613Y-58646598D01*
X118975999Y-58649000D01*
X119601000Y-58649000D01*
X119601000Y-60351000D01*
X117899000Y-60351000D01*
X117899000Y-59725999D01*
X117896598Y-59701613D01*
X117889485Y-59678164D01*
X117877934Y-59656553D01*
X117862389Y-59637611D01*
X117843447Y-59622066D01*
X117821836Y-59610515D01*
X117798387Y-59603402D01*
X117774001Y-59601000D01*
X117149000Y-59601000D01*
X117149000Y-57899000D01*
X118851000Y-57899000D01*
X118851000Y-58524001D01*
X118851000Y-58524001D01*
G37*
G36*
X88101000Y-58524001D02*
G01*
X88103402Y-58548387D01*
X88110515Y-58571836D01*
X88122066Y-58593447D01*
X88137611Y-58612389D01*
X88156553Y-58627934D01*
X88178164Y-58639485D01*
X88201613Y-58646598D01*
X88225999Y-58649000D01*
X88851000Y-58649000D01*
X88851000Y-60351000D01*
X87149000Y-60351000D01*
X87149000Y-59725999D01*
X87146598Y-59701613D01*
X87139485Y-59678164D01*
X87127934Y-59656553D01*
X87112389Y-59637611D01*
X87093447Y-59622066D01*
X87071836Y-59610515D01*
X87048387Y-59603402D01*
X87024001Y-59601000D01*
X86399000Y-59601000D01*
X86399000Y-57899000D01*
X88101000Y-57899000D01*
X88101000Y-58524001D01*
X88101000Y-58524001D01*
G37*
G36*
X126384430Y-54699000D02*
G01*
X126394072Y-54700918D01*
X126639939Y-54802759D01*
X126663669Y-54818615D01*
X126861211Y-54950609D01*
X127049391Y-55138789D01*
X127197242Y-55360063D01*
X127299082Y-55605928D01*
X127351000Y-55866937D01*
X127351000Y-56133063D01*
X127336249Y-56207221D01*
X127299082Y-56394072D01*
X127197241Y-56639939D01*
X127169548Y-56681384D01*
X127049391Y-56861211D01*
X126883620Y-57026982D01*
X126868075Y-57045924D01*
X126856524Y-57067535D01*
X126849411Y-57090984D01*
X126847009Y-57115370D01*
X126849411Y-57139756D01*
X126850618Y-57145825D01*
X126850619Y-57145827D01*
X126882592Y-57306565D01*
X126902537Y-57406836D01*
X126902537Y-57672962D01*
X126850619Y-57933971D01*
X126772662Y-58122178D01*
X126748778Y-58179838D01*
X126688387Y-58270219D01*
X126600928Y-58401110D01*
X126412748Y-58589290D01*
X126398216Y-58599000D01*
X126191476Y-58737140D01*
X126191475Y-58737141D01*
X126191474Y-58737141D01*
X125945609Y-58838981D01*
X125684600Y-58890899D01*
X125418474Y-58890899D01*
X125157465Y-58838981D01*
X124911600Y-58737141D01*
X124911599Y-58737141D01*
X124911598Y-58737140D01*
X124704858Y-58599000D01*
X124690326Y-58589290D01*
X124502146Y-58401110D01*
X124414687Y-58270219D01*
X124354296Y-58179838D01*
X124330413Y-58122178D01*
X124252455Y-57933971D01*
X124200537Y-57672962D01*
X124200537Y-57406836D01*
X124252455Y-57145827D01*
X124354295Y-56899962D01*
X124356618Y-56896486D01*
X124465375Y-56733720D01*
X124502146Y-56678688D01*
X124667917Y-56512917D01*
X124683462Y-56493975D01*
X124695013Y-56472364D01*
X124702126Y-56448915D01*
X124704528Y-56424529D01*
X124702126Y-56400143D01*
X124686148Y-56319815D01*
X124660107Y-56188899D01*
X124649000Y-56133063D01*
X124649000Y-55866937D01*
X124700918Y-55605928D01*
X124802758Y-55360063D01*
X124950609Y-55138789D01*
X125138789Y-54950609D01*
X125336331Y-54818615D01*
X125360061Y-54802759D01*
X125605928Y-54700918D01*
X125615570Y-54699000D01*
X125866937Y-54649000D01*
X126133063Y-54649000D01*
X126384430Y-54699000D01*
X126384430Y-54699000D01*
G37*
G36*
X109183642Y-56729781D02*
G01*
X109329414Y-56790162D01*
X109329416Y-56790163D01*
X109460608Y-56877822D01*
X109572178Y-56989392D01*
X109656353Y-57115370D01*
X109659838Y-57120586D01*
X109720219Y-57266358D01*
X109751000Y-57421107D01*
X109751000Y-57578893D01*
X109720219Y-57733642D01*
X109685954Y-57816365D01*
X109659837Y-57879416D01*
X109572178Y-58010608D01*
X109460608Y-58122178D01*
X109329416Y-58209837D01*
X109329415Y-58209838D01*
X109329414Y-58209838D01*
X109183642Y-58270219D01*
X109028893Y-58301000D01*
X108871107Y-58301000D01*
X108716358Y-58270219D01*
X108570586Y-58209838D01*
X108570585Y-58209838D01*
X108570584Y-58209837D01*
X108439392Y-58122178D01*
X108327822Y-58010608D01*
X108240163Y-57879416D01*
X108214046Y-57816365D01*
X108179781Y-57733642D01*
X108149000Y-57578893D01*
X108149000Y-57421107D01*
X108179781Y-57266358D01*
X108240162Y-57120586D01*
X108243647Y-57115370D01*
X108327822Y-56989392D01*
X108439392Y-56877822D01*
X108570584Y-56790163D01*
X108570586Y-56790162D01*
X108716358Y-56729781D01*
X108871107Y-56699000D01*
X109028893Y-56699000D01*
X109183642Y-56729781D01*
X109183642Y-56729781D01*
G37*
G36*
X106643642Y-56729781D02*
G01*
X106789414Y-56790162D01*
X106789416Y-56790163D01*
X106920608Y-56877822D01*
X107032178Y-56989392D01*
X107116353Y-57115370D01*
X107119838Y-57120586D01*
X107180219Y-57266358D01*
X107211000Y-57421107D01*
X107211000Y-57578893D01*
X107180219Y-57733642D01*
X107145954Y-57816365D01*
X107119837Y-57879416D01*
X107032178Y-58010608D01*
X106920608Y-58122178D01*
X106789416Y-58209837D01*
X106789415Y-58209838D01*
X106789414Y-58209838D01*
X106643642Y-58270219D01*
X106488893Y-58301000D01*
X106331107Y-58301000D01*
X106176358Y-58270219D01*
X106030586Y-58209838D01*
X106030585Y-58209838D01*
X106030584Y-58209837D01*
X105899392Y-58122178D01*
X105787822Y-58010608D01*
X105700163Y-57879416D01*
X105674046Y-57816365D01*
X105639781Y-57733642D01*
X105609000Y-57578893D01*
X105609000Y-57421107D01*
X105639781Y-57266358D01*
X105700162Y-57120586D01*
X105703647Y-57115370D01*
X105787822Y-56989392D01*
X105899392Y-56877822D01*
X106030584Y-56790163D01*
X106030586Y-56790162D01*
X106176358Y-56729781D01*
X106331107Y-56699000D01*
X106488893Y-56699000D01*
X106643642Y-56729781D01*
X106643642Y-56729781D01*
G37*
G36*
X104103642Y-56729781D02*
G01*
X104249414Y-56790162D01*
X104249416Y-56790163D01*
X104380608Y-56877822D01*
X104492178Y-56989392D01*
X104576353Y-57115370D01*
X104579838Y-57120586D01*
X104640219Y-57266358D01*
X104671000Y-57421107D01*
X104671000Y-57578893D01*
X104640219Y-57733642D01*
X104605954Y-57816365D01*
X104579837Y-57879416D01*
X104492178Y-58010608D01*
X104380608Y-58122178D01*
X104249416Y-58209837D01*
X104249415Y-58209838D01*
X104249414Y-58209838D01*
X104103642Y-58270219D01*
X103948893Y-58301000D01*
X103791107Y-58301000D01*
X103636358Y-58270219D01*
X103490586Y-58209838D01*
X103490585Y-58209838D01*
X103490584Y-58209837D01*
X103359392Y-58122178D01*
X103247822Y-58010608D01*
X103160163Y-57879416D01*
X103134046Y-57816365D01*
X103099781Y-57733642D01*
X103069000Y-57578893D01*
X103069000Y-57421107D01*
X103099781Y-57266358D01*
X103160162Y-57120586D01*
X103163647Y-57115370D01*
X103247822Y-56989392D01*
X103359392Y-56877822D01*
X103490584Y-56790163D01*
X103490586Y-56790162D01*
X103636358Y-56729781D01*
X103791107Y-56699000D01*
X103948893Y-56699000D01*
X104103642Y-56729781D01*
X104103642Y-56729781D01*
G37*
G36*
X99023642Y-56729781D02*
G01*
X99169414Y-56790162D01*
X99169416Y-56790163D01*
X99300608Y-56877822D01*
X99412178Y-56989392D01*
X99496353Y-57115370D01*
X99499838Y-57120586D01*
X99560219Y-57266358D01*
X99591000Y-57421107D01*
X99591000Y-57578893D01*
X99560219Y-57733642D01*
X99525954Y-57816365D01*
X99499837Y-57879416D01*
X99412178Y-58010608D01*
X99300608Y-58122178D01*
X99169416Y-58209837D01*
X99169415Y-58209838D01*
X99169414Y-58209838D01*
X99023642Y-58270219D01*
X98868893Y-58301000D01*
X98711107Y-58301000D01*
X98556358Y-58270219D01*
X98410586Y-58209838D01*
X98410585Y-58209838D01*
X98410584Y-58209837D01*
X98279392Y-58122178D01*
X98167822Y-58010608D01*
X98080163Y-57879416D01*
X98054046Y-57816365D01*
X98019781Y-57733642D01*
X97989000Y-57578893D01*
X97989000Y-57421107D01*
X98019781Y-57266358D01*
X98080162Y-57120586D01*
X98083647Y-57115370D01*
X98167822Y-56989392D01*
X98279392Y-56877822D01*
X98410584Y-56790163D01*
X98410586Y-56790162D01*
X98556358Y-56729781D01*
X98711107Y-56699000D01*
X98868893Y-56699000D01*
X99023642Y-56729781D01*
X99023642Y-56729781D01*
G37*
G36*
X96483642Y-56729781D02*
G01*
X96629414Y-56790162D01*
X96629416Y-56790163D01*
X96760608Y-56877822D01*
X96872178Y-56989392D01*
X96956353Y-57115370D01*
X96959838Y-57120586D01*
X97020219Y-57266358D01*
X97051000Y-57421107D01*
X97051000Y-57578893D01*
X97020219Y-57733642D01*
X96985954Y-57816365D01*
X96959837Y-57879416D01*
X96872178Y-58010608D01*
X96760608Y-58122178D01*
X96629416Y-58209837D01*
X96629415Y-58209838D01*
X96629414Y-58209838D01*
X96483642Y-58270219D01*
X96328893Y-58301000D01*
X96171107Y-58301000D01*
X96016358Y-58270219D01*
X95870586Y-58209838D01*
X95870585Y-58209838D01*
X95870584Y-58209837D01*
X95739392Y-58122178D01*
X95627822Y-58010608D01*
X95540163Y-57879416D01*
X95514046Y-57816365D01*
X95479781Y-57733642D01*
X95449000Y-57578893D01*
X95449000Y-57421107D01*
X95479781Y-57266358D01*
X95540162Y-57120586D01*
X95543647Y-57115370D01*
X95627822Y-56989392D01*
X95739392Y-56877822D01*
X95870584Y-56790163D01*
X95870586Y-56790162D01*
X96016358Y-56729781D01*
X96171107Y-56699000D01*
X96328893Y-56699000D01*
X96483642Y-56729781D01*
X96483642Y-56729781D01*
G37*
G36*
X139556564Y-54739389D02*
G01*
X139709553Y-54802759D01*
X139747835Y-54818616D01*
X139919973Y-54933635D01*
X140066365Y-55080027D01*
X140105629Y-55138789D01*
X140181385Y-55252167D01*
X140260611Y-55443436D01*
X140301000Y-55646484D01*
X140301000Y-55824001D01*
X140303402Y-55848387D01*
X140310515Y-55871836D01*
X140322066Y-55893447D01*
X140337611Y-55912389D01*
X140356553Y-55927934D01*
X140378164Y-55939485D01*
X140401613Y-55946598D01*
X140425999Y-55949000D01*
X140603516Y-55949000D01*
X140806564Y-55989389D01*
X140974620Y-56059000D01*
X140997835Y-56068616D01*
X141169973Y-56183635D01*
X141316365Y-56330027D01*
X141425912Y-56493975D01*
X141431385Y-56502167D01*
X141510611Y-56693436D01*
X141551000Y-56896484D01*
X141551000Y-57103516D01*
X141510611Y-57306564D01*
X141463166Y-57421107D01*
X141431384Y-57497835D01*
X141316365Y-57669973D01*
X141169973Y-57816365D01*
X140997835Y-57931384D01*
X140997834Y-57931385D01*
X140997833Y-57931385D01*
X140806564Y-58010611D01*
X140603516Y-58051000D01*
X140396484Y-58051000D01*
X140193436Y-58010611D01*
X140002167Y-57931385D01*
X140002166Y-57931385D01*
X140002165Y-57931384D01*
X139830027Y-57816365D01*
X139683635Y-57669973D01*
X139568616Y-57497835D01*
X139536834Y-57421107D01*
X139489389Y-57306564D01*
X139449000Y-57103516D01*
X139449000Y-56925999D01*
X139446598Y-56901613D01*
X139439485Y-56878164D01*
X139427934Y-56856553D01*
X139412389Y-56837611D01*
X139393447Y-56822066D01*
X139371836Y-56810515D01*
X139348387Y-56803402D01*
X139324001Y-56801000D01*
X139146484Y-56801000D01*
X138943436Y-56760611D01*
X138752167Y-56681385D01*
X138752166Y-56681385D01*
X138752165Y-56681384D01*
X138580027Y-56566365D01*
X138433635Y-56419973D01*
X138318616Y-56247835D01*
X138315709Y-56240817D01*
X138239389Y-56056564D01*
X138199000Y-55853516D01*
X138199000Y-55646484D01*
X138239389Y-55443436D01*
X138318615Y-55252167D01*
X138394372Y-55138789D01*
X138433635Y-55080027D01*
X138580027Y-54933635D01*
X138752165Y-54818616D01*
X138790447Y-54802759D01*
X138943436Y-54739389D01*
X139146484Y-54699000D01*
X139353516Y-54699000D01*
X139556564Y-54739389D01*
X139556564Y-54739389D01*
G37*
G36*
X147110443Y-56065519D02*
G01*
X147176627Y-56072037D01*
X147346466Y-56123557D01*
X147346468Y-56123558D01*
X147364250Y-56133063D01*
X147502991Y-56207222D01*
X147538729Y-56236552D01*
X147640186Y-56319814D01*
X147701127Y-56394072D01*
X147752778Y-56457009D01*
X147836443Y-56613534D01*
X147887963Y-56783373D01*
X147905359Y-56960000D01*
X147887963Y-57136627D01*
X147836443Y-57306466D01*
X147752778Y-57462991D01*
X147724184Y-57497833D01*
X147640186Y-57600186D01*
X147555149Y-57669973D01*
X147502991Y-57712778D01*
X147346466Y-57796443D01*
X147176627Y-57847963D01*
X147110442Y-57854482D01*
X147044260Y-57861000D01*
X146955740Y-57861000D01*
X146889558Y-57854482D01*
X146823373Y-57847963D01*
X146653534Y-57796443D01*
X146497009Y-57712778D01*
X146444851Y-57669973D01*
X146359814Y-57600186D01*
X146275816Y-57497833D01*
X146247222Y-57462991D01*
X146163557Y-57306466D01*
X146112037Y-57136627D01*
X146094641Y-56960000D01*
X146112037Y-56783373D01*
X146163557Y-56613534D01*
X146247222Y-56457009D01*
X146298873Y-56394072D01*
X146359814Y-56319814D01*
X146461271Y-56236552D01*
X146497009Y-56207222D01*
X146635750Y-56133063D01*
X146653532Y-56123558D01*
X146653534Y-56123557D01*
X146823373Y-56072037D01*
X146889557Y-56065519D01*
X146955740Y-56059000D01*
X147044260Y-56059000D01*
X147110443Y-56065519D01*
X147110443Y-56065519D01*
G37*
G36*
X130224549Y-54871116D02*
G01*
X130335734Y-54893232D01*
X130545203Y-54979997D01*
X130733720Y-55105960D01*
X130894040Y-55266280D01*
X131020003Y-55454797D01*
X131082604Y-55605928D01*
X131106768Y-55664267D01*
X131151000Y-55886635D01*
X131151000Y-56113365D01*
X131148972Y-56123558D01*
X131106768Y-56335734D01*
X131020003Y-56545203D01*
X130894040Y-56733720D01*
X130733720Y-56894040D01*
X130545203Y-57020003D01*
X130545202Y-57020004D01*
X130545201Y-57020004D01*
X130483850Y-57045416D01*
X130335734Y-57106768D01*
X130266276Y-57120584D01*
X130113365Y-57151000D01*
X129886635Y-57151000D01*
X129733724Y-57120584D01*
X129664266Y-57106768D01*
X129516150Y-57045416D01*
X129454799Y-57020004D01*
X129454798Y-57020004D01*
X129454797Y-57020003D01*
X129266280Y-56894040D01*
X129105960Y-56733720D01*
X128979997Y-56545203D01*
X128893232Y-56335734D01*
X128851028Y-56123558D01*
X128849000Y-56113365D01*
X128849000Y-55886635D01*
X128893232Y-55664267D01*
X128917397Y-55605928D01*
X128979997Y-55454797D01*
X129105960Y-55266280D01*
X129266280Y-55105960D01*
X129454797Y-54979997D01*
X129664266Y-54893232D01*
X129775451Y-54871116D01*
X129886635Y-54849000D01*
X130113365Y-54849000D01*
X130224549Y-54871116D01*
X130224549Y-54871116D01*
G37*
M02*
