M48
; DRILL file {KiCad (5.1.4)-1} date 06/09/2021 00:09:24
; FORMAT={-:-/ absolute / metric / decimal}
; #@! TF.CreationDate,2021-09-06T00:09:24-04:00
; #@! TF.GenerationSoftware,Kicad,Pcbnew,(5.1.4)-1
; #@! TF.FileFunction,Plated,1,2,PTH
FMAT,2
METRIC
T1C0.400
T2C0.600
T3C0.700
T4C0.900
T5C1.000
T6C1.520
T7C1.800
T8C3.600
%
G90
G05
T1
X132.5Y-128.0
X132.5Y-136.5
X134.0Y-125.75
X134.0Y-138.25
X135.0Y-128.0
X135.0Y-136.5
X139.75Y-135.0
X140.0Y-130.25
X184.0Y-133.75
X184.25Y-131.75
X188.0Y-131.75
X188.0Y-133.75
T2
X119.7Y-118.5
X119.7Y-128.5
X127.3Y-118.5
X127.3Y-128.5
X119.7Y-136.5
X119.7Y-146.5
X127.3Y-136.5
X127.3Y-146.5
T3
X118.5Y-118.5
X118.5Y-128.5
X128.5Y-118.5
X128.5Y-128.5
X118.5Y-136.5
X118.5Y-146.5
X128.5Y-136.5
X128.5Y-146.5
T4
X116.0Y-118.5
X116.0Y-128.5
X131.0Y-118.5
X131.0Y-128.5
X116.0Y-136.5
X116.0Y-146.5
X131.0Y-136.5
X131.0Y-146.5
T5
X174.75Y-142.75
X176.0Y-139.0
X176.0Y-144.0
X177.25Y-140.25
X105.25Y-124.25
X106.5Y-120.5
X106.5Y-125.5
X107.75Y-121.75
X162.75Y-124.75
X164.0Y-121.0
X164.0Y-126.0
X165.25Y-122.25
X105.25Y-143.75
X106.5Y-140.0
X106.5Y-145.0
X107.75Y-141.25
X162.75Y-142.75
X164.0Y-139.0
X164.0Y-144.0
X165.25Y-140.25
X175.0Y-124.75
X176.25Y-121.0
X176.25Y-126.0
X177.5Y-122.25
T6
X185.75Y-124.92
X185.75Y-130.0
X185.75Y-135.08
X185.75Y-140.16
X97.0Y-125.0
X97.0Y-130.08
X97.0Y-135.16
X97.0Y-140.24
T7
X146.75Y-120.0
X146.75Y-127.62
X146.75Y-137.38
X146.75Y-145.0
T8
X107.5Y-132.5
X134.5Y-132.5
X170.0Y-132.5
X184.5Y-119.5
X184.5Y-145.5
T0
M30
