G04 #@! TF.GenerationSoftware,KiCad,Pcbnew,(5.1.4)-1*
G04 #@! TF.CreationDate,2021-09-06T00:09:17-04:00*
G04 #@! TF.ProjectId,controller_power_filter,636f6e74-726f-46c6-9c65-725f706f7765,rev?*
G04 #@! TF.SameCoordinates,Original*
G04 #@! TF.FileFunction,Legend,Top*
G04 #@! TF.FilePolarity,Positive*
%FSLAX46Y46*%
G04 Gerber Fmt 4.6, Leading zero omitted, Abs format (unit mm)*
G04 Created by KiCad (PCBNEW (5.1.4)-1) date 2021-09-06 00:09:17*
%MOMM*%
%LPD*%
G04 APERTURE LIST*
%ADD10C,0.120000*%
%ADD11C,0.150000*%
%ADD12C,0.100000*%
%ADD13R,3.702000X2.802000*%
%ADD14C,3.102000*%
%ADD15R,3.102000X3.102000*%
%ADD16C,2.102000*%
%ADD17R,2.102000X2.102000*%
%ADD18C,1.852000*%
%ADD19C,3.702000*%
G04 APERTURE END LIST*
D10*
X141450000Y-135950000D02*
X144650000Y-135950000D01*
X141450000Y-146550000D02*
X141450000Y-135950000D01*
X144650000Y-146550000D02*
X141450000Y-146550000D01*
X152050000Y-146550000D02*
X148850000Y-146550000D01*
X152050000Y-135950000D02*
X152050000Y-146550000D01*
X148850000Y-135950000D02*
X152050000Y-135950000D01*
X152050000Y-129050000D02*
X148850000Y-129050000D01*
X152050000Y-118450000D02*
X152050000Y-129050000D01*
X148850000Y-118450000D02*
X152050000Y-118450000D01*
X141450000Y-118450000D02*
X144650000Y-118450000D01*
X141450000Y-129050000D02*
X141450000Y-118450000D01*
X144650000Y-129050000D02*
X141450000Y-129050000D01*
X181940000Y-122380000D02*
X181940000Y-142700000D01*
X189560000Y-122380000D02*
X189560000Y-142700000D01*
X183210000Y-142700000D02*
X183210000Y-122380000D01*
X181940000Y-142700000D02*
X189560000Y-142700000D01*
X189560000Y-122380000D02*
X181940000Y-122380000D01*
X128120000Y-138000000D02*
X128120000Y-145000000D01*
X128120000Y-148620000D02*
X118880000Y-148620000D01*
X118880000Y-138000000D02*
X118880000Y-145000000D01*
X118880000Y-134380000D02*
X128120000Y-134380000D01*
X114150000Y-135050000D02*
X114400000Y-135050000D01*
X132470000Y-135400000D02*
X132470000Y-147600000D01*
X114530000Y-147600000D02*
X114530000Y-135400000D01*
X114150000Y-135050000D02*
X114150000Y-138050000D01*
X121730000Y-149710000D02*
X114530000Y-147600000D01*
X121713982Y-149706525D02*
G75*
G03X125280000Y-149710000I1786018J3086525D01*
G01*
X132470000Y-147600000D02*
X125280000Y-149710000D01*
X114530000Y-135400000D02*
X121730000Y-133290000D01*
X125291018Y-133302135D02*
G75*
G03X121730000Y-133290000I-1791018J-3077865D01*
G01*
X125270000Y-133290000D02*
X132470000Y-135400000D01*
X116380000Y-146500000D02*
X116380000Y-136500000D01*
X128500000Y-148620000D02*
X118500000Y-148620000D01*
X130620000Y-136500000D02*
X130620000Y-146500000D01*
X118500000Y-134380000D02*
X128500000Y-134380000D01*
X118500000Y-134380000D02*
G75*
G03X116380000Y-136500000I0J-2120000D01*
G01*
X116380000Y-146500000D02*
G75*
G03X118500000Y-148620000I2120000J0D01*
G01*
X128500000Y-148620000D02*
G75*
G03X130620000Y-146500000I0J2120000D01*
G01*
X130620000Y-136500000D02*
G75*
G03X128500000Y-134380000I-2120000J0D01*
G01*
X128120000Y-120000000D02*
X128120000Y-127000000D01*
X128120000Y-130620000D02*
X118880000Y-130620000D01*
X118880000Y-120000000D02*
X118880000Y-127000000D01*
X118880000Y-116380000D02*
X128120000Y-116380000D01*
X114150000Y-117050000D02*
X114400000Y-117050000D01*
X132470000Y-117400000D02*
X132470000Y-129600000D01*
X114530000Y-129600000D02*
X114530000Y-117400000D01*
X114150000Y-117050000D02*
X114150000Y-120050000D01*
X121730000Y-131710000D02*
X114530000Y-129600000D01*
X121713982Y-131706525D02*
G75*
G03X125280000Y-131710000I1786018J3086525D01*
G01*
X132470000Y-129600000D02*
X125280000Y-131710000D01*
X114530000Y-117400000D02*
X121730000Y-115290000D01*
X125291018Y-115302135D02*
G75*
G03X121730000Y-115290000I-1791018J-3077865D01*
G01*
X125270000Y-115290000D02*
X132470000Y-117400000D01*
X116380000Y-128500000D02*
X116380000Y-118500000D01*
X128500000Y-130620000D02*
X118500000Y-130620000D01*
X130620000Y-118500000D02*
X130620000Y-128500000D01*
X118500000Y-116380000D02*
X128500000Y-116380000D01*
X118500000Y-116380000D02*
G75*
G03X116380000Y-118500000I0J-2120000D01*
G01*
X116380000Y-128500000D02*
G75*
G03X118500000Y-130620000I2120000J0D01*
G01*
X128500000Y-130620000D02*
G75*
G03X130620000Y-128500000I0J2120000D01*
G01*
X130620000Y-118500000D02*
G75*
G03X128500000Y-116380000I-2120000J0D01*
G01*
X93190000Y-122460000D02*
X93190000Y-142780000D01*
X100810000Y-122460000D02*
X100810000Y-142780000D01*
X94460000Y-142780000D02*
X94460000Y-122460000D01*
X93190000Y-142780000D02*
X100810000Y-142780000D01*
X100810000Y-122460000D02*
X93190000Y-122460000D01*
X162102064Y-135410000D02*
X160897936Y-135410000D01*
X162102064Y-133590000D02*
X160897936Y-133590000D01*
X160897936Y-130090000D02*
X162102064Y-130090000D01*
X160897936Y-131910000D02*
X162102064Y-131910000D01*
X157665000Y-147025000D02*
X147475000Y-147025000D01*
X146025000Y-147025000D02*
X135835000Y-147025000D01*
X157665000Y-135355000D02*
X147475000Y-135355000D01*
X146025000Y-135355000D02*
X135835000Y-135355000D01*
X157665000Y-147025000D02*
X157665000Y-135355000D01*
X135835000Y-147025000D02*
X135835000Y-135355000D01*
X135835000Y-117975000D02*
X146025000Y-117975000D01*
X147475000Y-117975000D02*
X157665000Y-117975000D01*
X135835000Y-129645000D02*
X146025000Y-129645000D01*
X147475000Y-129645000D02*
X157665000Y-129645000D01*
X135835000Y-117975000D02*
X135835000Y-129645000D01*
X157665000Y-117975000D02*
X157665000Y-129645000D01*
X165713098Y-136675096D02*
G75*
G03X167260000Y-137551988I-1713098J-4824904D01*
G01*
X169080000Y-141500000D02*
X158920000Y-141500000D01*
X169080000Y-141540000D02*
X158920000Y-141540000D01*
X169080000Y-141580000D02*
X158920000Y-141580000D01*
X169079000Y-141620000D02*
X158921000Y-141620000D01*
X169078000Y-141660000D02*
X158922000Y-141660000D01*
X169077000Y-141700000D02*
X158923000Y-141700000D01*
X169075000Y-141740000D02*
X158925000Y-141740000D01*
X169073000Y-141780000D02*
X158927000Y-141780000D01*
X169070000Y-141820000D02*
X158930000Y-141820000D01*
X169068000Y-141860000D02*
X158932000Y-141860000D01*
X169065000Y-141900000D02*
X158935000Y-141900000D01*
X169062000Y-141940000D02*
X158938000Y-141940000D01*
X169058000Y-141980000D02*
X158942000Y-141980000D01*
X169054000Y-142020000D02*
X158946000Y-142020000D01*
X169050000Y-142060000D02*
X158950000Y-142060000D01*
X169045000Y-142100000D02*
X158955000Y-142100000D01*
X169040000Y-142140000D02*
X158960000Y-142140000D01*
X169035000Y-142180000D02*
X158965000Y-142180000D01*
X169030000Y-142221000D02*
X158970000Y-142221000D01*
X169024000Y-142261000D02*
X158976000Y-142261000D01*
X169018000Y-142301000D02*
X158982000Y-142301000D01*
X169011000Y-142341000D02*
X158989000Y-142341000D01*
X169004000Y-142381000D02*
X158996000Y-142381000D01*
X168997000Y-142421000D02*
X159003000Y-142421000D01*
X168990000Y-142461000D02*
X159010000Y-142461000D01*
X168982000Y-142501000D02*
X159018000Y-142501000D01*
X168974000Y-142541000D02*
X159026000Y-142541000D01*
X168965000Y-142581000D02*
X159035000Y-142581000D01*
X168956000Y-142621000D02*
X159044000Y-142621000D01*
X168947000Y-142661000D02*
X159053000Y-142661000D01*
X168938000Y-142701000D02*
X159062000Y-142701000D01*
X168928000Y-142741000D02*
X159072000Y-142741000D01*
X168918000Y-142781000D02*
X165241000Y-142781000D01*
X162759000Y-142781000D02*
X159082000Y-142781000D01*
X168907000Y-142821000D02*
X165241000Y-142821000D01*
X162759000Y-142821000D02*
X159093000Y-142821000D01*
X168897000Y-142861000D02*
X165241000Y-142861000D01*
X162759000Y-142861000D02*
X159103000Y-142861000D01*
X168885000Y-142901000D02*
X165241000Y-142901000D01*
X162759000Y-142901000D02*
X159115000Y-142901000D01*
X168874000Y-142941000D02*
X165241000Y-142941000D01*
X162759000Y-142941000D02*
X159126000Y-142941000D01*
X168862000Y-142981000D02*
X165241000Y-142981000D01*
X162759000Y-142981000D02*
X159138000Y-142981000D01*
X168850000Y-143021000D02*
X165241000Y-143021000D01*
X162759000Y-143021000D02*
X159150000Y-143021000D01*
X168837000Y-143061000D02*
X165241000Y-143061000D01*
X162759000Y-143061000D02*
X159163000Y-143061000D01*
X168824000Y-143101000D02*
X165241000Y-143101000D01*
X162759000Y-143101000D02*
X159176000Y-143101000D01*
X168811000Y-143141000D02*
X165241000Y-143141000D01*
X162759000Y-143141000D02*
X159189000Y-143141000D01*
X168797000Y-143181000D02*
X165241000Y-143181000D01*
X162759000Y-143181000D02*
X159203000Y-143181000D01*
X168783000Y-143221000D02*
X165241000Y-143221000D01*
X162759000Y-143221000D02*
X159217000Y-143221000D01*
X168768000Y-143261000D02*
X165241000Y-143261000D01*
X162759000Y-143261000D02*
X159232000Y-143261000D01*
X168754000Y-143301000D02*
X165241000Y-143301000D01*
X162759000Y-143301000D02*
X159246000Y-143301000D01*
X168738000Y-143341000D02*
X165241000Y-143341000D01*
X162759000Y-143341000D02*
X159262000Y-143341000D01*
X168723000Y-143381000D02*
X165241000Y-143381000D01*
X162759000Y-143381000D02*
X159277000Y-143381000D01*
X168707000Y-143421000D02*
X165241000Y-143421000D01*
X162759000Y-143421000D02*
X159293000Y-143421000D01*
X168690000Y-143461000D02*
X165241000Y-143461000D01*
X160760000Y-143461000D02*
X159310000Y-143461000D01*
X168674000Y-143501000D02*
X165241000Y-143501000D01*
X160760000Y-143501000D02*
X159326000Y-143501000D01*
X168657000Y-143541000D02*
X165241000Y-143541000D01*
X160760000Y-143541000D02*
X159343000Y-143541000D01*
X168639000Y-143581000D02*
X165241000Y-143581000D01*
X160760000Y-143581000D02*
X159361000Y-143581000D01*
X168621000Y-143621000D02*
X165241000Y-143621000D01*
X160760000Y-143621000D02*
X159379000Y-143621000D01*
X168603000Y-143661000D02*
X165241000Y-143661000D01*
X160760000Y-143661000D02*
X159397000Y-143661000D01*
X168584000Y-143701000D02*
X165241000Y-143701000D01*
X160760000Y-143701000D02*
X159416000Y-143701000D01*
X168564000Y-143741000D02*
X165241000Y-143741000D01*
X160760000Y-143741000D02*
X159436000Y-143741000D01*
X168545000Y-143781000D02*
X165241000Y-143781000D01*
X160760000Y-143781000D02*
X159455000Y-143781000D01*
X168525000Y-143821000D02*
X165241000Y-143821000D01*
X160760000Y-143821000D02*
X159475000Y-143821000D01*
X168504000Y-143861000D02*
X165241000Y-143861000D01*
X160760000Y-143861000D02*
X159496000Y-143861000D01*
X168483000Y-143901000D02*
X165241000Y-143901000D01*
X160760000Y-143901000D02*
X159517000Y-143901000D01*
X168462000Y-143941000D02*
X165241000Y-143941000D01*
X160760000Y-143941000D02*
X159538000Y-143941000D01*
X168440000Y-143981000D02*
X165241000Y-143981000D01*
X160760000Y-143981000D02*
X159560000Y-143981000D01*
X168417000Y-144021000D02*
X165241000Y-144021000D01*
X160760000Y-144021000D02*
X159583000Y-144021000D01*
X168395000Y-144061000D02*
X165241000Y-144061000D01*
X160760000Y-144061000D02*
X159605000Y-144061000D01*
X168371000Y-144101000D02*
X165241000Y-144101000D01*
X160760000Y-144101000D02*
X159629000Y-144101000D01*
X168347000Y-144141000D02*
X165241000Y-144141000D01*
X160760000Y-144141000D02*
X159653000Y-144141000D01*
X168323000Y-144181000D02*
X165241000Y-144181000D01*
X160760000Y-144181000D02*
X159677000Y-144181000D01*
X168298000Y-144221000D02*
X165241000Y-144221000D01*
X160760000Y-144221000D02*
X159702000Y-144221000D01*
X168273000Y-144261000D02*
X165241000Y-144261000D01*
X160760000Y-144261000D02*
X159727000Y-144261000D01*
X168247000Y-144301000D02*
X165241000Y-144301000D01*
X160760000Y-144301000D02*
X159753000Y-144301000D01*
X168221000Y-144341000D02*
X165241000Y-144341000D01*
X160760000Y-144341000D02*
X159779000Y-144341000D01*
X168194000Y-144381000D02*
X165241000Y-144381000D01*
X160760000Y-144381000D02*
X159806000Y-144381000D01*
X168166000Y-144421000D02*
X165241000Y-144421000D01*
X160760000Y-144421000D02*
X159834000Y-144421000D01*
X168138000Y-144461000D02*
X165241000Y-144461000D01*
X160760000Y-144461000D02*
X159862000Y-144461000D01*
X168110000Y-144501000D02*
X165241000Y-144501000D01*
X160760000Y-144501000D02*
X159890000Y-144501000D01*
X168080000Y-144541000D02*
X165241000Y-144541000D01*
X160760000Y-144541000D02*
X159920000Y-144541000D01*
X168050000Y-144581000D02*
X165241000Y-144581000D01*
X160760000Y-144581000D02*
X159950000Y-144581000D01*
X168020000Y-144621000D02*
X165241000Y-144621000D01*
X160760000Y-144621000D02*
X159980000Y-144621000D01*
X167989000Y-144661000D02*
X165241000Y-144661000D01*
X160760000Y-144661000D02*
X160011000Y-144661000D01*
X167957000Y-144701000D02*
X165241000Y-144701000D01*
X160760000Y-144701000D02*
X160043000Y-144701000D01*
X167925000Y-144741000D02*
X165241000Y-144741000D01*
X160760000Y-144741000D02*
X160075000Y-144741000D01*
X167892000Y-144781000D02*
X165241000Y-144781000D01*
X160760000Y-144781000D02*
X160108000Y-144781000D01*
X167858000Y-144821000D02*
X165241000Y-144821000D01*
X160760000Y-144821000D02*
X160142000Y-144821000D01*
X167824000Y-144861000D02*
X165241000Y-144861000D01*
X160760000Y-144861000D02*
X160176000Y-144861000D01*
X167789000Y-144901000D02*
X165241000Y-144901000D01*
X160760000Y-144901000D02*
X160211000Y-144901000D01*
X167753000Y-144941000D02*
X165241000Y-144941000D01*
X160760000Y-144941000D02*
X160247000Y-144941000D01*
X167716000Y-144981000D02*
X165241000Y-144981000D01*
X160760000Y-144981000D02*
X160284000Y-144981000D01*
X167679000Y-145021000D02*
X165241000Y-145021000D01*
X160760000Y-145021000D02*
X160321000Y-145021000D01*
X167640000Y-145061000D02*
X165241000Y-145061000D01*
X160760000Y-145061000D02*
X160360000Y-145061000D01*
X167601000Y-145101000D02*
X165241000Y-145101000D01*
X160760000Y-145101000D02*
X160399000Y-145101000D01*
X167561000Y-145141000D02*
X165241000Y-145141000D01*
X160760000Y-145141000D02*
X160439000Y-145141000D01*
X167520000Y-145181000D02*
X165241000Y-145181000D01*
X160760000Y-145181000D02*
X160480000Y-145181000D01*
X167478000Y-145221000D02*
X165241000Y-145221000D01*
X160760000Y-145221000D02*
X160522000Y-145221000D01*
X167436000Y-145261000D02*
X163240000Y-145261000D01*
X160760000Y-145261000D02*
X160564000Y-145261000D01*
X167392000Y-145301000D02*
X163240000Y-145301000D01*
X160760000Y-145301000D02*
X160608000Y-145301000D01*
X167347000Y-145341000D02*
X163240000Y-145341000D01*
X160760000Y-145341000D02*
X160653000Y-145341000D01*
X167301000Y-145381000D02*
X163240000Y-145381000D01*
X160760000Y-145381000D02*
X160699000Y-145381000D01*
X167254000Y-145421000D02*
X163240000Y-145421000D01*
X160760000Y-145421000D02*
X160746000Y-145421000D01*
X167206000Y-145461000D02*
X163240000Y-145461000D01*
X167156000Y-145501000D02*
X163240000Y-145501000D01*
X167106000Y-145541000D02*
X163240000Y-145541000D01*
X167054000Y-145581000D02*
X163240000Y-145581000D01*
X167000000Y-145621000D02*
X163240000Y-145621000D01*
X166945000Y-145661000D02*
X163240000Y-145661000D01*
X166889000Y-145701000D02*
X163240000Y-145701000D01*
X166830000Y-145741000D02*
X163240000Y-145741000D01*
X166770000Y-145781000D02*
X163240000Y-145781000D01*
X166709000Y-145821000D02*
X163240000Y-145821000D01*
X166645000Y-145861000D02*
X163240000Y-145861000D01*
X166579000Y-145901000D02*
X163240000Y-145901000D01*
X166510000Y-145941000D02*
X161490000Y-145941000D01*
X166439000Y-145981000D02*
X161561000Y-145981000D01*
X166365000Y-146021000D02*
X161635000Y-146021000D01*
X166289000Y-146061000D02*
X161711000Y-146061000D01*
X166209000Y-146101000D02*
X161791000Y-146101000D01*
X166125000Y-146141000D02*
X161875000Y-146141000D01*
X166037000Y-146181000D02*
X161963000Y-146181000D01*
X165944000Y-146221000D02*
X162056000Y-146221000D01*
X165846000Y-146261000D02*
X162154000Y-146261000D01*
X165742000Y-146301000D02*
X162258000Y-146301000D01*
X165630000Y-146341000D02*
X162370000Y-146341000D01*
X165510000Y-146381000D02*
X162490000Y-146381000D01*
X165378000Y-146421000D02*
X162622000Y-146421000D01*
X165230000Y-146461000D02*
X162770000Y-146461000D01*
X165062000Y-146501000D02*
X162938000Y-146501000D01*
X164862000Y-146541000D02*
X163138000Y-146541000D01*
X164599000Y-146581000D02*
X163401000Y-146581000D01*
X166875000Y-136020354D02*
X166875000Y-137020354D01*
X167375000Y-136520354D02*
X166375000Y-136520354D01*
X165713098Y-118675096D02*
G75*
G03X167260000Y-119551988I-1713098J-4824904D01*
G01*
X169080000Y-123500000D02*
X158920000Y-123500000D01*
X169080000Y-123540000D02*
X158920000Y-123540000D01*
X169080000Y-123580000D02*
X158920000Y-123580000D01*
X169079000Y-123620000D02*
X158921000Y-123620000D01*
X169078000Y-123660000D02*
X158922000Y-123660000D01*
X169077000Y-123700000D02*
X158923000Y-123700000D01*
X169075000Y-123740000D02*
X158925000Y-123740000D01*
X169073000Y-123780000D02*
X158927000Y-123780000D01*
X169070000Y-123820000D02*
X158930000Y-123820000D01*
X169068000Y-123860000D02*
X158932000Y-123860000D01*
X169065000Y-123900000D02*
X158935000Y-123900000D01*
X169062000Y-123940000D02*
X158938000Y-123940000D01*
X169058000Y-123980000D02*
X158942000Y-123980000D01*
X169054000Y-124020000D02*
X158946000Y-124020000D01*
X169050000Y-124060000D02*
X158950000Y-124060000D01*
X169045000Y-124100000D02*
X158955000Y-124100000D01*
X169040000Y-124140000D02*
X158960000Y-124140000D01*
X169035000Y-124180000D02*
X158965000Y-124180000D01*
X169030000Y-124221000D02*
X158970000Y-124221000D01*
X169024000Y-124261000D02*
X158976000Y-124261000D01*
X169018000Y-124301000D02*
X158982000Y-124301000D01*
X169011000Y-124341000D02*
X158989000Y-124341000D01*
X169004000Y-124381000D02*
X158996000Y-124381000D01*
X168997000Y-124421000D02*
X159003000Y-124421000D01*
X168990000Y-124461000D02*
X159010000Y-124461000D01*
X168982000Y-124501000D02*
X159018000Y-124501000D01*
X168974000Y-124541000D02*
X159026000Y-124541000D01*
X168965000Y-124581000D02*
X159035000Y-124581000D01*
X168956000Y-124621000D02*
X159044000Y-124621000D01*
X168947000Y-124661000D02*
X159053000Y-124661000D01*
X168938000Y-124701000D02*
X159062000Y-124701000D01*
X168928000Y-124741000D02*
X159072000Y-124741000D01*
X168918000Y-124781000D02*
X165241000Y-124781000D01*
X162759000Y-124781000D02*
X159082000Y-124781000D01*
X168907000Y-124821000D02*
X165241000Y-124821000D01*
X162759000Y-124821000D02*
X159093000Y-124821000D01*
X168897000Y-124861000D02*
X165241000Y-124861000D01*
X162759000Y-124861000D02*
X159103000Y-124861000D01*
X168885000Y-124901000D02*
X165241000Y-124901000D01*
X162759000Y-124901000D02*
X159115000Y-124901000D01*
X168874000Y-124941000D02*
X165241000Y-124941000D01*
X162759000Y-124941000D02*
X159126000Y-124941000D01*
X168862000Y-124981000D02*
X165241000Y-124981000D01*
X162759000Y-124981000D02*
X159138000Y-124981000D01*
X168850000Y-125021000D02*
X165241000Y-125021000D01*
X162759000Y-125021000D02*
X159150000Y-125021000D01*
X168837000Y-125061000D02*
X165241000Y-125061000D01*
X162759000Y-125061000D02*
X159163000Y-125061000D01*
X168824000Y-125101000D02*
X165241000Y-125101000D01*
X162759000Y-125101000D02*
X159176000Y-125101000D01*
X168811000Y-125141000D02*
X165241000Y-125141000D01*
X162759000Y-125141000D02*
X159189000Y-125141000D01*
X168797000Y-125181000D02*
X165241000Y-125181000D01*
X162759000Y-125181000D02*
X159203000Y-125181000D01*
X168783000Y-125221000D02*
X165241000Y-125221000D01*
X162759000Y-125221000D02*
X159217000Y-125221000D01*
X168768000Y-125261000D02*
X165241000Y-125261000D01*
X162759000Y-125261000D02*
X159232000Y-125261000D01*
X168754000Y-125301000D02*
X165241000Y-125301000D01*
X162759000Y-125301000D02*
X159246000Y-125301000D01*
X168738000Y-125341000D02*
X165241000Y-125341000D01*
X162759000Y-125341000D02*
X159262000Y-125341000D01*
X168723000Y-125381000D02*
X165241000Y-125381000D01*
X162759000Y-125381000D02*
X159277000Y-125381000D01*
X168707000Y-125421000D02*
X165241000Y-125421000D01*
X162759000Y-125421000D02*
X159293000Y-125421000D01*
X168690000Y-125461000D02*
X165241000Y-125461000D01*
X160760000Y-125461000D02*
X159310000Y-125461000D01*
X168674000Y-125501000D02*
X165241000Y-125501000D01*
X160760000Y-125501000D02*
X159326000Y-125501000D01*
X168657000Y-125541000D02*
X165241000Y-125541000D01*
X160760000Y-125541000D02*
X159343000Y-125541000D01*
X168639000Y-125581000D02*
X165241000Y-125581000D01*
X160760000Y-125581000D02*
X159361000Y-125581000D01*
X168621000Y-125621000D02*
X165241000Y-125621000D01*
X160760000Y-125621000D02*
X159379000Y-125621000D01*
X168603000Y-125661000D02*
X165241000Y-125661000D01*
X160760000Y-125661000D02*
X159397000Y-125661000D01*
X168584000Y-125701000D02*
X165241000Y-125701000D01*
X160760000Y-125701000D02*
X159416000Y-125701000D01*
X168564000Y-125741000D02*
X165241000Y-125741000D01*
X160760000Y-125741000D02*
X159436000Y-125741000D01*
X168545000Y-125781000D02*
X165241000Y-125781000D01*
X160760000Y-125781000D02*
X159455000Y-125781000D01*
X168525000Y-125821000D02*
X165241000Y-125821000D01*
X160760000Y-125821000D02*
X159475000Y-125821000D01*
X168504000Y-125861000D02*
X165241000Y-125861000D01*
X160760000Y-125861000D02*
X159496000Y-125861000D01*
X168483000Y-125901000D02*
X165241000Y-125901000D01*
X160760000Y-125901000D02*
X159517000Y-125901000D01*
X168462000Y-125941000D02*
X165241000Y-125941000D01*
X160760000Y-125941000D02*
X159538000Y-125941000D01*
X168440000Y-125981000D02*
X165241000Y-125981000D01*
X160760000Y-125981000D02*
X159560000Y-125981000D01*
X168417000Y-126021000D02*
X165241000Y-126021000D01*
X160760000Y-126021000D02*
X159583000Y-126021000D01*
X168395000Y-126061000D02*
X165241000Y-126061000D01*
X160760000Y-126061000D02*
X159605000Y-126061000D01*
X168371000Y-126101000D02*
X165241000Y-126101000D01*
X160760000Y-126101000D02*
X159629000Y-126101000D01*
X168347000Y-126141000D02*
X165241000Y-126141000D01*
X160760000Y-126141000D02*
X159653000Y-126141000D01*
X168323000Y-126181000D02*
X165241000Y-126181000D01*
X160760000Y-126181000D02*
X159677000Y-126181000D01*
X168298000Y-126221000D02*
X165241000Y-126221000D01*
X160760000Y-126221000D02*
X159702000Y-126221000D01*
X168273000Y-126261000D02*
X165241000Y-126261000D01*
X160760000Y-126261000D02*
X159727000Y-126261000D01*
X168247000Y-126301000D02*
X165241000Y-126301000D01*
X160760000Y-126301000D02*
X159753000Y-126301000D01*
X168221000Y-126341000D02*
X165241000Y-126341000D01*
X160760000Y-126341000D02*
X159779000Y-126341000D01*
X168194000Y-126381000D02*
X165241000Y-126381000D01*
X160760000Y-126381000D02*
X159806000Y-126381000D01*
X168166000Y-126421000D02*
X165241000Y-126421000D01*
X160760000Y-126421000D02*
X159834000Y-126421000D01*
X168138000Y-126461000D02*
X165241000Y-126461000D01*
X160760000Y-126461000D02*
X159862000Y-126461000D01*
X168110000Y-126501000D02*
X165241000Y-126501000D01*
X160760000Y-126501000D02*
X159890000Y-126501000D01*
X168080000Y-126541000D02*
X165241000Y-126541000D01*
X160760000Y-126541000D02*
X159920000Y-126541000D01*
X168050000Y-126581000D02*
X165241000Y-126581000D01*
X160760000Y-126581000D02*
X159950000Y-126581000D01*
X168020000Y-126621000D02*
X165241000Y-126621000D01*
X160760000Y-126621000D02*
X159980000Y-126621000D01*
X167989000Y-126661000D02*
X165241000Y-126661000D01*
X160760000Y-126661000D02*
X160011000Y-126661000D01*
X167957000Y-126701000D02*
X165241000Y-126701000D01*
X160760000Y-126701000D02*
X160043000Y-126701000D01*
X167925000Y-126741000D02*
X165241000Y-126741000D01*
X160760000Y-126741000D02*
X160075000Y-126741000D01*
X167892000Y-126781000D02*
X165241000Y-126781000D01*
X160760000Y-126781000D02*
X160108000Y-126781000D01*
X167858000Y-126821000D02*
X165241000Y-126821000D01*
X160760000Y-126821000D02*
X160142000Y-126821000D01*
X167824000Y-126861000D02*
X165241000Y-126861000D01*
X160760000Y-126861000D02*
X160176000Y-126861000D01*
X167789000Y-126901000D02*
X165241000Y-126901000D01*
X160760000Y-126901000D02*
X160211000Y-126901000D01*
X167753000Y-126941000D02*
X165241000Y-126941000D01*
X160760000Y-126941000D02*
X160247000Y-126941000D01*
X167716000Y-126981000D02*
X165241000Y-126981000D01*
X160760000Y-126981000D02*
X160284000Y-126981000D01*
X167679000Y-127021000D02*
X165241000Y-127021000D01*
X160760000Y-127021000D02*
X160321000Y-127021000D01*
X167640000Y-127061000D02*
X165241000Y-127061000D01*
X160760000Y-127061000D02*
X160360000Y-127061000D01*
X167601000Y-127101000D02*
X165241000Y-127101000D01*
X160760000Y-127101000D02*
X160399000Y-127101000D01*
X167561000Y-127141000D02*
X165241000Y-127141000D01*
X160760000Y-127141000D02*
X160439000Y-127141000D01*
X167520000Y-127181000D02*
X165241000Y-127181000D01*
X160760000Y-127181000D02*
X160480000Y-127181000D01*
X167478000Y-127221000D02*
X165241000Y-127221000D01*
X160760000Y-127221000D02*
X160522000Y-127221000D01*
X167436000Y-127261000D02*
X163240000Y-127261000D01*
X160760000Y-127261000D02*
X160564000Y-127261000D01*
X167392000Y-127301000D02*
X163240000Y-127301000D01*
X160760000Y-127301000D02*
X160608000Y-127301000D01*
X167347000Y-127341000D02*
X163240000Y-127341000D01*
X160760000Y-127341000D02*
X160653000Y-127341000D01*
X167301000Y-127381000D02*
X163240000Y-127381000D01*
X160760000Y-127381000D02*
X160699000Y-127381000D01*
X167254000Y-127421000D02*
X163240000Y-127421000D01*
X160760000Y-127421000D02*
X160746000Y-127421000D01*
X167206000Y-127461000D02*
X163240000Y-127461000D01*
X167156000Y-127501000D02*
X163240000Y-127501000D01*
X167106000Y-127541000D02*
X163240000Y-127541000D01*
X167054000Y-127581000D02*
X163240000Y-127581000D01*
X167000000Y-127621000D02*
X163240000Y-127621000D01*
X166945000Y-127661000D02*
X163240000Y-127661000D01*
X166889000Y-127701000D02*
X163240000Y-127701000D01*
X166830000Y-127741000D02*
X163240000Y-127741000D01*
X166770000Y-127781000D02*
X163240000Y-127781000D01*
X166709000Y-127821000D02*
X163240000Y-127821000D01*
X166645000Y-127861000D02*
X163240000Y-127861000D01*
X166579000Y-127901000D02*
X163240000Y-127901000D01*
X166510000Y-127941000D02*
X161490000Y-127941000D01*
X166439000Y-127981000D02*
X161561000Y-127981000D01*
X166365000Y-128021000D02*
X161635000Y-128021000D01*
X166289000Y-128061000D02*
X161711000Y-128061000D01*
X166209000Y-128101000D02*
X161791000Y-128101000D01*
X166125000Y-128141000D02*
X161875000Y-128141000D01*
X166037000Y-128181000D02*
X161963000Y-128181000D01*
X165944000Y-128221000D02*
X162056000Y-128221000D01*
X165846000Y-128261000D02*
X162154000Y-128261000D01*
X165742000Y-128301000D02*
X162258000Y-128301000D01*
X165630000Y-128341000D02*
X162370000Y-128341000D01*
X165510000Y-128381000D02*
X162490000Y-128381000D01*
X165378000Y-128421000D02*
X162622000Y-128421000D01*
X165230000Y-128461000D02*
X162770000Y-128461000D01*
X165062000Y-128501000D02*
X162938000Y-128501000D01*
X164862000Y-128541000D02*
X163138000Y-128541000D01*
X164599000Y-128581000D02*
X163401000Y-128581000D01*
X166875000Y-118020354D02*
X166875000Y-119020354D01*
X167375000Y-118520354D02*
X166375000Y-118520354D01*
X177713098Y-136675096D02*
G75*
G03X179260000Y-137551988I-1713098J-4824904D01*
G01*
X181080000Y-141500000D02*
X170920000Y-141500000D01*
X181080000Y-141540000D02*
X170920000Y-141540000D01*
X181080000Y-141580000D02*
X170920000Y-141580000D01*
X181079000Y-141620000D02*
X170921000Y-141620000D01*
X181078000Y-141660000D02*
X170922000Y-141660000D01*
X181077000Y-141700000D02*
X170923000Y-141700000D01*
X181075000Y-141740000D02*
X170925000Y-141740000D01*
X181073000Y-141780000D02*
X170927000Y-141780000D01*
X181070000Y-141820000D02*
X170930000Y-141820000D01*
X181068000Y-141860000D02*
X170932000Y-141860000D01*
X181065000Y-141900000D02*
X170935000Y-141900000D01*
X181062000Y-141940000D02*
X170938000Y-141940000D01*
X181058000Y-141980000D02*
X170942000Y-141980000D01*
X181054000Y-142020000D02*
X170946000Y-142020000D01*
X181050000Y-142060000D02*
X170950000Y-142060000D01*
X181045000Y-142100000D02*
X170955000Y-142100000D01*
X181040000Y-142140000D02*
X170960000Y-142140000D01*
X181035000Y-142180000D02*
X170965000Y-142180000D01*
X181030000Y-142221000D02*
X170970000Y-142221000D01*
X181024000Y-142261000D02*
X170976000Y-142261000D01*
X181018000Y-142301000D02*
X170982000Y-142301000D01*
X181011000Y-142341000D02*
X170989000Y-142341000D01*
X181004000Y-142381000D02*
X170996000Y-142381000D01*
X180997000Y-142421000D02*
X171003000Y-142421000D01*
X180990000Y-142461000D02*
X171010000Y-142461000D01*
X180982000Y-142501000D02*
X171018000Y-142501000D01*
X180974000Y-142541000D02*
X171026000Y-142541000D01*
X180965000Y-142581000D02*
X171035000Y-142581000D01*
X180956000Y-142621000D02*
X171044000Y-142621000D01*
X180947000Y-142661000D02*
X171053000Y-142661000D01*
X180938000Y-142701000D02*
X171062000Y-142701000D01*
X180928000Y-142741000D02*
X171072000Y-142741000D01*
X180918000Y-142781000D02*
X177241000Y-142781000D01*
X174759000Y-142781000D02*
X171082000Y-142781000D01*
X180907000Y-142821000D02*
X177241000Y-142821000D01*
X174759000Y-142821000D02*
X171093000Y-142821000D01*
X180897000Y-142861000D02*
X177241000Y-142861000D01*
X174759000Y-142861000D02*
X171103000Y-142861000D01*
X180885000Y-142901000D02*
X177241000Y-142901000D01*
X174759000Y-142901000D02*
X171115000Y-142901000D01*
X180874000Y-142941000D02*
X177241000Y-142941000D01*
X174759000Y-142941000D02*
X171126000Y-142941000D01*
X180862000Y-142981000D02*
X177241000Y-142981000D01*
X174759000Y-142981000D02*
X171138000Y-142981000D01*
X180850000Y-143021000D02*
X177241000Y-143021000D01*
X174759000Y-143021000D02*
X171150000Y-143021000D01*
X180837000Y-143061000D02*
X177241000Y-143061000D01*
X174759000Y-143061000D02*
X171163000Y-143061000D01*
X180824000Y-143101000D02*
X177241000Y-143101000D01*
X174759000Y-143101000D02*
X171176000Y-143101000D01*
X180811000Y-143141000D02*
X177241000Y-143141000D01*
X174759000Y-143141000D02*
X171189000Y-143141000D01*
X180797000Y-143181000D02*
X177241000Y-143181000D01*
X174759000Y-143181000D02*
X171203000Y-143181000D01*
X180783000Y-143221000D02*
X177241000Y-143221000D01*
X174759000Y-143221000D02*
X171217000Y-143221000D01*
X180768000Y-143261000D02*
X177241000Y-143261000D01*
X174759000Y-143261000D02*
X171232000Y-143261000D01*
X180754000Y-143301000D02*
X177241000Y-143301000D01*
X174759000Y-143301000D02*
X171246000Y-143301000D01*
X180738000Y-143341000D02*
X177241000Y-143341000D01*
X174759000Y-143341000D02*
X171262000Y-143341000D01*
X180723000Y-143381000D02*
X177241000Y-143381000D01*
X174759000Y-143381000D02*
X171277000Y-143381000D01*
X180707000Y-143421000D02*
X177241000Y-143421000D01*
X174759000Y-143421000D02*
X171293000Y-143421000D01*
X180690000Y-143461000D02*
X177241000Y-143461000D01*
X172760000Y-143461000D02*
X171310000Y-143461000D01*
X180674000Y-143501000D02*
X177241000Y-143501000D01*
X172760000Y-143501000D02*
X171326000Y-143501000D01*
X180657000Y-143541000D02*
X177241000Y-143541000D01*
X172760000Y-143541000D02*
X171343000Y-143541000D01*
X180639000Y-143581000D02*
X177241000Y-143581000D01*
X172760000Y-143581000D02*
X171361000Y-143581000D01*
X180621000Y-143621000D02*
X177241000Y-143621000D01*
X172760000Y-143621000D02*
X171379000Y-143621000D01*
X180603000Y-143661000D02*
X177241000Y-143661000D01*
X172760000Y-143661000D02*
X171397000Y-143661000D01*
X180584000Y-143701000D02*
X177241000Y-143701000D01*
X172760000Y-143701000D02*
X171416000Y-143701000D01*
X180564000Y-143741000D02*
X177241000Y-143741000D01*
X172760000Y-143741000D02*
X171436000Y-143741000D01*
X180545000Y-143781000D02*
X177241000Y-143781000D01*
X172760000Y-143781000D02*
X171455000Y-143781000D01*
X180525000Y-143821000D02*
X177241000Y-143821000D01*
X172760000Y-143821000D02*
X171475000Y-143821000D01*
X180504000Y-143861000D02*
X177241000Y-143861000D01*
X172760000Y-143861000D02*
X171496000Y-143861000D01*
X180483000Y-143901000D02*
X177241000Y-143901000D01*
X172760000Y-143901000D02*
X171517000Y-143901000D01*
X180462000Y-143941000D02*
X177241000Y-143941000D01*
X172760000Y-143941000D02*
X171538000Y-143941000D01*
X180440000Y-143981000D02*
X177241000Y-143981000D01*
X172760000Y-143981000D02*
X171560000Y-143981000D01*
X180417000Y-144021000D02*
X177241000Y-144021000D01*
X172760000Y-144021000D02*
X171583000Y-144021000D01*
X180395000Y-144061000D02*
X177241000Y-144061000D01*
X172760000Y-144061000D02*
X171605000Y-144061000D01*
X180371000Y-144101000D02*
X177241000Y-144101000D01*
X172760000Y-144101000D02*
X171629000Y-144101000D01*
X180347000Y-144141000D02*
X177241000Y-144141000D01*
X172760000Y-144141000D02*
X171653000Y-144141000D01*
X180323000Y-144181000D02*
X177241000Y-144181000D01*
X172760000Y-144181000D02*
X171677000Y-144181000D01*
X180298000Y-144221000D02*
X177241000Y-144221000D01*
X172760000Y-144221000D02*
X171702000Y-144221000D01*
X180273000Y-144261000D02*
X177241000Y-144261000D01*
X172760000Y-144261000D02*
X171727000Y-144261000D01*
X180247000Y-144301000D02*
X177241000Y-144301000D01*
X172760000Y-144301000D02*
X171753000Y-144301000D01*
X180221000Y-144341000D02*
X177241000Y-144341000D01*
X172760000Y-144341000D02*
X171779000Y-144341000D01*
X180194000Y-144381000D02*
X177241000Y-144381000D01*
X172760000Y-144381000D02*
X171806000Y-144381000D01*
X180166000Y-144421000D02*
X177241000Y-144421000D01*
X172760000Y-144421000D02*
X171834000Y-144421000D01*
X180138000Y-144461000D02*
X177241000Y-144461000D01*
X172760000Y-144461000D02*
X171862000Y-144461000D01*
X180110000Y-144501000D02*
X177241000Y-144501000D01*
X172760000Y-144501000D02*
X171890000Y-144501000D01*
X180080000Y-144541000D02*
X177241000Y-144541000D01*
X172760000Y-144541000D02*
X171920000Y-144541000D01*
X180050000Y-144581000D02*
X177241000Y-144581000D01*
X172760000Y-144581000D02*
X171950000Y-144581000D01*
X180020000Y-144621000D02*
X177241000Y-144621000D01*
X172760000Y-144621000D02*
X171980000Y-144621000D01*
X179989000Y-144661000D02*
X177241000Y-144661000D01*
X172760000Y-144661000D02*
X172011000Y-144661000D01*
X179957000Y-144701000D02*
X177241000Y-144701000D01*
X172760000Y-144701000D02*
X172043000Y-144701000D01*
X179925000Y-144741000D02*
X177241000Y-144741000D01*
X172760000Y-144741000D02*
X172075000Y-144741000D01*
X179892000Y-144781000D02*
X177241000Y-144781000D01*
X172760000Y-144781000D02*
X172108000Y-144781000D01*
X179858000Y-144821000D02*
X177241000Y-144821000D01*
X172760000Y-144821000D02*
X172142000Y-144821000D01*
X179824000Y-144861000D02*
X177241000Y-144861000D01*
X172760000Y-144861000D02*
X172176000Y-144861000D01*
X179789000Y-144901000D02*
X177241000Y-144901000D01*
X172760000Y-144901000D02*
X172211000Y-144901000D01*
X179753000Y-144941000D02*
X177241000Y-144941000D01*
X172760000Y-144941000D02*
X172247000Y-144941000D01*
X179716000Y-144981000D02*
X177241000Y-144981000D01*
X172760000Y-144981000D02*
X172284000Y-144981000D01*
X179679000Y-145021000D02*
X177241000Y-145021000D01*
X172760000Y-145021000D02*
X172321000Y-145021000D01*
X179640000Y-145061000D02*
X177241000Y-145061000D01*
X172760000Y-145061000D02*
X172360000Y-145061000D01*
X179601000Y-145101000D02*
X177241000Y-145101000D01*
X172760000Y-145101000D02*
X172399000Y-145101000D01*
X179561000Y-145141000D02*
X177241000Y-145141000D01*
X172760000Y-145141000D02*
X172439000Y-145141000D01*
X179520000Y-145181000D02*
X177241000Y-145181000D01*
X172760000Y-145181000D02*
X172480000Y-145181000D01*
X179478000Y-145221000D02*
X177241000Y-145221000D01*
X172760000Y-145221000D02*
X172522000Y-145221000D01*
X179436000Y-145261000D02*
X175240000Y-145261000D01*
X172760000Y-145261000D02*
X172564000Y-145261000D01*
X179392000Y-145301000D02*
X175240000Y-145301000D01*
X172760000Y-145301000D02*
X172608000Y-145301000D01*
X179347000Y-145341000D02*
X175240000Y-145341000D01*
X172760000Y-145341000D02*
X172653000Y-145341000D01*
X179301000Y-145381000D02*
X175240000Y-145381000D01*
X172760000Y-145381000D02*
X172699000Y-145381000D01*
X179254000Y-145421000D02*
X175240000Y-145421000D01*
X172760000Y-145421000D02*
X172746000Y-145421000D01*
X179206000Y-145461000D02*
X175240000Y-145461000D01*
X179156000Y-145501000D02*
X175240000Y-145501000D01*
X179106000Y-145541000D02*
X175240000Y-145541000D01*
X179054000Y-145581000D02*
X175240000Y-145581000D01*
X179000000Y-145621000D02*
X175240000Y-145621000D01*
X178945000Y-145661000D02*
X175240000Y-145661000D01*
X178889000Y-145701000D02*
X175240000Y-145701000D01*
X178830000Y-145741000D02*
X175240000Y-145741000D01*
X178770000Y-145781000D02*
X175240000Y-145781000D01*
X178709000Y-145821000D02*
X175240000Y-145821000D01*
X178645000Y-145861000D02*
X175240000Y-145861000D01*
X178579000Y-145901000D02*
X175240000Y-145901000D01*
X178510000Y-145941000D02*
X173490000Y-145941000D01*
X178439000Y-145981000D02*
X173561000Y-145981000D01*
X178365000Y-146021000D02*
X173635000Y-146021000D01*
X178289000Y-146061000D02*
X173711000Y-146061000D01*
X178209000Y-146101000D02*
X173791000Y-146101000D01*
X178125000Y-146141000D02*
X173875000Y-146141000D01*
X178037000Y-146181000D02*
X173963000Y-146181000D01*
X177944000Y-146221000D02*
X174056000Y-146221000D01*
X177846000Y-146261000D02*
X174154000Y-146261000D01*
X177742000Y-146301000D02*
X174258000Y-146301000D01*
X177630000Y-146341000D02*
X174370000Y-146341000D01*
X177510000Y-146381000D02*
X174490000Y-146381000D01*
X177378000Y-146421000D02*
X174622000Y-146421000D01*
X177230000Y-146461000D02*
X174770000Y-146461000D01*
X177062000Y-146501000D02*
X174938000Y-146501000D01*
X176862000Y-146541000D02*
X175138000Y-146541000D01*
X176599000Y-146581000D02*
X175401000Y-146581000D01*
X178875000Y-136020354D02*
X178875000Y-137020354D01*
X179375000Y-136520354D02*
X178375000Y-136520354D01*
X177963098Y-118675096D02*
G75*
G03X179510000Y-119551988I-1713098J-4824904D01*
G01*
X181330000Y-123500000D02*
X171170000Y-123500000D01*
X181330000Y-123540000D02*
X171170000Y-123540000D01*
X181330000Y-123580000D02*
X171170000Y-123580000D01*
X181329000Y-123620000D02*
X171171000Y-123620000D01*
X181328000Y-123660000D02*
X171172000Y-123660000D01*
X181327000Y-123700000D02*
X171173000Y-123700000D01*
X181325000Y-123740000D02*
X171175000Y-123740000D01*
X181323000Y-123780000D02*
X171177000Y-123780000D01*
X181320000Y-123820000D02*
X171180000Y-123820000D01*
X181318000Y-123860000D02*
X171182000Y-123860000D01*
X181315000Y-123900000D02*
X171185000Y-123900000D01*
X181312000Y-123940000D02*
X171188000Y-123940000D01*
X181308000Y-123980000D02*
X171192000Y-123980000D01*
X181304000Y-124020000D02*
X171196000Y-124020000D01*
X181300000Y-124060000D02*
X171200000Y-124060000D01*
X181295000Y-124100000D02*
X171205000Y-124100000D01*
X181290000Y-124140000D02*
X171210000Y-124140000D01*
X181285000Y-124180000D02*
X171215000Y-124180000D01*
X181280000Y-124221000D02*
X171220000Y-124221000D01*
X181274000Y-124261000D02*
X171226000Y-124261000D01*
X181268000Y-124301000D02*
X171232000Y-124301000D01*
X181261000Y-124341000D02*
X171239000Y-124341000D01*
X181254000Y-124381000D02*
X171246000Y-124381000D01*
X181247000Y-124421000D02*
X171253000Y-124421000D01*
X181240000Y-124461000D02*
X171260000Y-124461000D01*
X181232000Y-124501000D02*
X171268000Y-124501000D01*
X181224000Y-124541000D02*
X171276000Y-124541000D01*
X181215000Y-124581000D02*
X171285000Y-124581000D01*
X181206000Y-124621000D02*
X171294000Y-124621000D01*
X181197000Y-124661000D02*
X171303000Y-124661000D01*
X181188000Y-124701000D02*
X171312000Y-124701000D01*
X181178000Y-124741000D02*
X171322000Y-124741000D01*
X181168000Y-124781000D02*
X177491000Y-124781000D01*
X175009000Y-124781000D02*
X171332000Y-124781000D01*
X181157000Y-124821000D02*
X177491000Y-124821000D01*
X175009000Y-124821000D02*
X171343000Y-124821000D01*
X181147000Y-124861000D02*
X177491000Y-124861000D01*
X175009000Y-124861000D02*
X171353000Y-124861000D01*
X181135000Y-124901000D02*
X177491000Y-124901000D01*
X175009000Y-124901000D02*
X171365000Y-124901000D01*
X181124000Y-124941000D02*
X177491000Y-124941000D01*
X175009000Y-124941000D02*
X171376000Y-124941000D01*
X181112000Y-124981000D02*
X177491000Y-124981000D01*
X175009000Y-124981000D02*
X171388000Y-124981000D01*
X181100000Y-125021000D02*
X177491000Y-125021000D01*
X175009000Y-125021000D02*
X171400000Y-125021000D01*
X181087000Y-125061000D02*
X177491000Y-125061000D01*
X175009000Y-125061000D02*
X171413000Y-125061000D01*
X181074000Y-125101000D02*
X177491000Y-125101000D01*
X175009000Y-125101000D02*
X171426000Y-125101000D01*
X181061000Y-125141000D02*
X177491000Y-125141000D01*
X175009000Y-125141000D02*
X171439000Y-125141000D01*
X181047000Y-125181000D02*
X177491000Y-125181000D01*
X175009000Y-125181000D02*
X171453000Y-125181000D01*
X181033000Y-125221000D02*
X177491000Y-125221000D01*
X175009000Y-125221000D02*
X171467000Y-125221000D01*
X181018000Y-125261000D02*
X177491000Y-125261000D01*
X175009000Y-125261000D02*
X171482000Y-125261000D01*
X181004000Y-125301000D02*
X177491000Y-125301000D01*
X175009000Y-125301000D02*
X171496000Y-125301000D01*
X180988000Y-125341000D02*
X177491000Y-125341000D01*
X175009000Y-125341000D02*
X171512000Y-125341000D01*
X180973000Y-125381000D02*
X177491000Y-125381000D01*
X175009000Y-125381000D02*
X171527000Y-125381000D01*
X180957000Y-125421000D02*
X177491000Y-125421000D01*
X175009000Y-125421000D02*
X171543000Y-125421000D01*
X180940000Y-125461000D02*
X177491000Y-125461000D01*
X173010000Y-125461000D02*
X171560000Y-125461000D01*
X180924000Y-125501000D02*
X177491000Y-125501000D01*
X173010000Y-125501000D02*
X171576000Y-125501000D01*
X180907000Y-125541000D02*
X177491000Y-125541000D01*
X173010000Y-125541000D02*
X171593000Y-125541000D01*
X180889000Y-125581000D02*
X177491000Y-125581000D01*
X173010000Y-125581000D02*
X171611000Y-125581000D01*
X180871000Y-125621000D02*
X177491000Y-125621000D01*
X173010000Y-125621000D02*
X171629000Y-125621000D01*
X180853000Y-125661000D02*
X177491000Y-125661000D01*
X173010000Y-125661000D02*
X171647000Y-125661000D01*
X180834000Y-125701000D02*
X177491000Y-125701000D01*
X173010000Y-125701000D02*
X171666000Y-125701000D01*
X180814000Y-125741000D02*
X177491000Y-125741000D01*
X173010000Y-125741000D02*
X171686000Y-125741000D01*
X180795000Y-125781000D02*
X177491000Y-125781000D01*
X173010000Y-125781000D02*
X171705000Y-125781000D01*
X180775000Y-125821000D02*
X177491000Y-125821000D01*
X173010000Y-125821000D02*
X171725000Y-125821000D01*
X180754000Y-125861000D02*
X177491000Y-125861000D01*
X173010000Y-125861000D02*
X171746000Y-125861000D01*
X180733000Y-125901000D02*
X177491000Y-125901000D01*
X173010000Y-125901000D02*
X171767000Y-125901000D01*
X180712000Y-125941000D02*
X177491000Y-125941000D01*
X173010000Y-125941000D02*
X171788000Y-125941000D01*
X180690000Y-125981000D02*
X177491000Y-125981000D01*
X173010000Y-125981000D02*
X171810000Y-125981000D01*
X180667000Y-126021000D02*
X177491000Y-126021000D01*
X173010000Y-126021000D02*
X171833000Y-126021000D01*
X180645000Y-126061000D02*
X177491000Y-126061000D01*
X173010000Y-126061000D02*
X171855000Y-126061000D01*
X180621000Y-126101000D02*
X177491000Y-126101000D01*
X173010000Y-126101000D02*
X171879000Y-126101000D01*
X180597000Y-126141000D02*
X177491000Y-126141000D01*
X173010000Y-126141000D02*
X171903000Y-126141000D01*
X180573000Y-126181000D02*
X177491000Y-126181000D01*
X173010000Y-126181000D02*
X171927000Y-126181000D01*
X180548000Y-126221000D02*
X177491000Y-126221000D01*
X173010000Y-126221000D02*
X171952000Y-126221000D01*
X180523000Y-126261000D02*
X177491000Y-126261000D01*
X173010000Y-126261000D02*
X171977000Y-126261000D01*
X180497000Y-126301000D02*
X177491000Y-126301000D01*
X173010000Y-126301000D02*
X172003000Y-126301000D01*
X180471000Y-126341000D02*
X177491000Y-126341000D01*
X173010000Y-126341000D02*
X172029000Y-126341000D01*
X180444000Y-126381000D02*
X177491000Y-126381000D01*
X173010000Y-126381000D02*
X172056000Y-126381000D01*
X180416000Y-126421000D02*
X177491000Y-126421000D01*
X173010000Y-126421000D02*
X172084000Y-126421000D01*
X180388000Y-126461000D02*
X177491000Y-126461000D01*
X173010000Y-126461000D02*
X172112000Y-126461000D01*
X180360000Y-126501000D02*
X177491000Y-126501000D01*
X173010000Y-126501000D02*
X172140000Y-126501000D01*
X180330000Y-126541000D02*
X177491000Y-126541000D01*
X173010000Y-126541000D02*
X172170000Y-126541000D01*
X180300000Y-126581000D02*
X177491000Y-126581000D01*
X173010000Y-126581000D02*
X172200000Y-126581000D01*
X180270000Y-126621000D02*
X177491000Y-126621000D01*
X173010000Y-126621000D02*
X172230000Y-126621000D01*
X180239000Y-126661000D02*
X177491000Y-126661000D01*
X173010000Y-126661000D02*
X172261000Y-126661000D01*
X180207000Y-126701000D02*
X177491000Y-126701000D01*
X173010000Y-126701000D02*
X172293000Y-126701000D01*
X180175000Y-126741000D02*
X177491000Y-126741000D01*
X173010000Y-126741000D02*
X172325000Y-126741000D01*
X180142000Y-126781000D02*
X177491000Y-126781000D01*
X173010000Y-126781000D02*
X172358000Y-126781000D01*
X180108000Y-126821000D02*
X177491000Y-126821000D01*
X173010000Y-126821000D02*
X172392000Y-126821000D01*
X180074000Y-126861000D02*
X177491000Y-126861000D01*
X173010000Y-126861000D02*
X172426000Y-126861000D01*
X180039000Y-126901000D02*
X177491000Y-126901000D01*
X173010000Y-126901000D02*
X172461000Y-126901000D01*
X180003000Y-126941000D02*
X177491000Y-126941000D01*
X173010000Y-126941000D02*
X172497000Y-126941000D01*
X179966000Y-126981000D02*
X177491000Y-126981000D01*
X173010000Y-126981000D02*
X172534000Y-126981000D01*
X179929000Y-127021000D02*
X177491000Y-127021000D01*
X173010000Y-127021000D02*
X172571000Y-127021000D01*
X179890000Y-127061000D02*
X177491000Y-127061000D01*
X173010000Y-127061000D02*
X172610000Y-127061000D01*
X179851000Y-127101000D02*
X177491000Y-127101000D01*
X173010000Y-127101000D02*
X172649000Y-127101000D01*
X179811000Y-127141000D02*
X177491000Y-127141000D01*
X173010000Y-127141000D02*
X172689000Y-127141000D01*
X179770000Y-127181000D02*
X177491000Y-127181000D01*
X173010000Y-127181000D02*
X172730000Y-127181000D01*
X179728000Y-127221000D02*
X177491000Y-127221000D01*
X173010000Y-127221000D02*
X172772000Y-127221000D01*
X179686000Y-127261000D02*
X175490000Y-127261000D01*
X173010000Y-127261000D02*
X172814000Y-127261000D01*
X179642000Y-127301000D02*
X175490000Y-127301000D01*
X173010000Y-127301000D02*
X172858000Y-127301000D01*
X179597000Y-127341000D02*
X175490000Y-127341000D01*
X173010000Y-127341000D02*
X172903000Y-127341000D01*
X179551000Y-127381000D02*
X175490000Y-127381000D01*
X173010000Y-127381000D02*
X172949000Y-127381000D01*
X179504000Y-127421000D02*
X175490000Y-127421000D01*
X173010000Y-127421000D02*
X172996000Y-127421000D01*
X179456000Y-127461000D02*
X175490000Y-127461000D01*
X179406000Y-127501000D02*
X175490000Y-127501000D01*
X179356000Y-127541000D02*
X175490000Y-127541000D01*
X179304000Y-127581000D02*
X175490000Y-127581000D01*
X179250000Y-127621000D02*
X175490000Y-127621000D01*
X179195000Y-127661000D02*
X175490000Y-127661000D01*
X179139000Y-127701000D02*
X175490000Y-127701000D01*
X179080000Y-127741000D02*
X175490000Y-127741000D01*
X179020000Y-127781000D02*
X175490000Y-127781000D01*
X178959000Y-127821000D02*
X175490000Y-127821000D01*
X178895000Y-127861000D02*
X175490000Y-127861000D01*
X178829000Y-127901000D02*
X175490000Y-127901000D01*
X178760000Y-127941000D02*
X173740000Y-127941000D01*
X178689000Y-127981000D02*
X173811000Y-127981000D01*
X178615000Y-128021000D02*
X173885000Y-128021000D01*
X178539000Y-128061000D02*
X173961000Y-128061000D01*
X178459000Y-128101000D02*
X174041000Y-128101000D01*
X178375000Y-128141000D02*
X174125000Y-128141000D01*
X178287000Y-128181000D02*
X174213000Y-128181000D01*
X178194000Y-128221000D02*
X174306000Y-128221000D01*
X178096000Y-128261000D02*
X174404000Y-128261000D01*
X177992000Y-128301000D02*
X174508000Y-128301000D01*
X177880000Y-128341000D02*
X174620000Y-128341000D01*
X177760000Y-128381000D02*
X174740000Y-128381000D01*
X177628000Y-128421000D02*
X174872000Y-128421000D01*
X177480000Y-128461000D02*
X175020000Y-128461000D01*
X177312000Y-128501000D02*
X175188000Y-128501000D01*
X177112000Y-128541000D02*
X175388000Y-128541000D01*
X176849000Y-128581000D02*
X175651000Y-128581000D01*
X179125000Y-118020354D02*
X179125000Y-119020354D01*
X179625000Y-118520354D02*
X178625000Y-118520354D01*
X178397936Y-133590000D02*
X179602064Y-133590000D01*
X178397936Y-135410000D02*
X179602064Y-135410000D01*
X179602064Y-131410000D02*
X178397936Y-131410000D01*
X179602064Y-129590000D02*
X178397936Y-129590000D01*
X134910000Y-139097936D02*
X134910000Y-140302064D01*
X133090000Y-139097936D02*
X133090000Y-140302064D01*
X134910000Y-123897936D02*
X134910000Y-125102064D01*
X133090000Y-123897936D02*
X133090000Y-125102064D01*
X114160000Y-139897936D02*
X114160000Y-141102064D01*
X112340000Y-139897936D02*
X112340000Y-141102064D01*
X114160000Y-124897936D02*
X114160000Y-126102064D01*
X112340000Y-124897936D02*
X112340000Y-126102064D01*
X108213098Y-137675096D02*
G75*
G03X109760000Y-138551988I-1713098J-4824904D01*
G01*
X111580000Y-142500000D02*
X101420000Y-142500000D01*
X111580000Y-142540000D02*
X101420000Y-142540000D01*
X111580000Y-142580000D02*
X101420000Y-142580000D01*
X111579000Y-142620000D02*
X101421000Y-142620000D01*
X111578000Y-142660000D02*
X101422000Y-142660000D01*
X111577000Y-142700000D02*
X101423000Y-142700000D01*
X111575000Y-142740000D02*
X101425000Y-142740000D01*
X111573000Y-142780000D02*
X101427000Y-142780000D01*
X111570000Y-142820000D02*
X101430000Y-142820000D01*
X111568000Y-142860000D02*
X101432000Y-142860000D01*
X111565000Y-142900000D02*
X101435000Y-142900000D01*
X111562000Y-142940000D02*
X101438000Y-142940000D01*
X111558000Y-142980000D02*
X101442000Y-142980000D01*
X111554000Y-143020000D02*
X101446000Y-143020000D01*
X111550000Y-143060000D02*
X101450000Y-143060000D01*
X111545000Y-143100000D02*
X101455000Y-143100000D01*
X111540000Y-143140000D02*
X101460000Y-143140000D01*
X111535000Y-143180000D02*
X101465000Y-143180000D01*
X111530000Y-143221000D02*
X101470000Y-143221000D01*
X111524000Y-143261000D02*
X101476000Y-143261000D01*
X111518000Y-143301000D02*
X101482000Y-143301000D01*
X111511000Y-143341000D02*
X101489000Y-143341000D01*
X111504000Y-143381000D02*
X101496000Y-143381000D01*
X111497000Y-143421000D02*
X101503000Y-143421000D01*
X111490000Y-143461000D02*
X101510000Y-143461000D01*
X111482000Y-143501000D02*
X101518000Y-143501000D01*
X111474000Y-143541000D02*
X101526000Y-143541000D01*
X111465000Y-143581000D02*
X101535000Y-143581000D01*
X111456000Y-143621000D02*
X101544000Y-143621000D01*
X111447000Y-143661000D02*
X101553000Y-143661000D01*
X111438000Y-143701000D02*
X101562000Y-143701000D01*
X111428000Y-143741000D02*
X101572000Y-143741000D01*
X111418000Y-143781000D02*
X107741000Y-143781000D01*
X105259000Y-143781000D02*
X101582000Y-143781000D01*
X111407000Y-143821000D02*
X107741000Y-143821000D01*
X105259000Y-143821000D02*
X101593000Y-143821000D01*
X111397000Y-143861000D02*
X107741000Y-143861000D01*
X105259000Y-143861000D02*
X101603000Y-143861000D01*
X111385000Y-143901000D02*
X107741000Y-143901000D01*
X105259000Y-143901000D02*
X101615000Y-143901000D01*
X111374000Y-143941000D02*
X107741000Y-143941000D01*
X105259000Y-143941000D02*
X101626000Y-143941000D01*
X111362000Y-143981000D02*
X107741000Y-143981000D01*
X105259000Y-143981000D02*
X101638000Y-143981000D01*
X111350000Y-144021000D02*
X107741000Y-144021000D01*
X105259000Y-144021000D02*
X101650000Y-144021000D01*
X111337000Y-144061000D02*
X107741000Y-144061000D01*
X105259000Y-144061000D02*
X101663000Y-144061000D01*
X111324000Y-144101000D02*
X107741000Y-144101000D01*
X105259000Y-144101000D02*
X101676000Y-144101000D01*
X111311000Y-144141000D02*
X107741000Y-144141000D01*
X105259000Y-144141000D02*
X101689000Y-144141000D01*
X111297000Y-144181000D02*
X107741000Y-144181000D01*
X105259000Y-144181000D02*
X101703000Y-144181000D01*
X111283000Y-144221000D02*
X107741000Y-144221000D01*
X105259000Y-144221000D02*
X101717000Y-144221000D01*
X111268000Y-144261000D02*
X107741000Y-144261000D01*
X105259000Y-144261000D02*
X101732000Y-144261000D01*
X111254000Y-144301000D02*
X107741000Y-144301000D01*
X105259000Y-144301000D02*
X101746000Y-144301000D01*
X111238000Y-144341000D02*
X107741000Y-144341000D01*
X105259000Y-144341000D02*
X101762000Y-144341000D01*
X111223000Y-144381000D02*
X107741000Y-144381000D01*
X105259000Y-144381000D02*
X101777000Y-144381000D01*
X111207000Y-144421000D02*
X107741000Y-144421000D01*
X105259000Y-144421000D02*
X101793000Y-144421000D01*
X111190000Y-144461000D02*
X107741000Y-144461000D01*
X103260000Y-144461000D02*
X101810000Y-144461000D01*
X111174000Y-144501000D02*
X107741000Y-144501000D01*
X103260000Y-144501000D02*
X101826000Y-144501000D01*
X111157000Y-144541000D02*
X107741000Y-144541000D01*
X103260000Y-144541000D02*
X101843000Y-144541000D01*
X111139000Y-144581000D02*
X107741000Y-144581000D01*
X103260000Y-144581000D02*
X101861000Y-144581000D01*
X111121000Y-144621000D02*
X107741000Y-144621000D01*
X103260000Y-144621000D02*
X101879000Y-144621000D01*
X111103000Y-144661000D02*
X107741000Y-144661000D01*
X103260000Y-144661000D02*
X101897000Y-144661000D01*
X111084000Y-144701000D02*
X107741000Y-144701000D01*
X103260000Y-144701000D02*
X101916000Y-144701000D01*
X111064000Y-144741000D02*
X107741000Y-144741000D01*
X103260000Y-144741000D02*
X101936000Y-144741000D01*
X111045000Y-144781000D02*
X107741000Y-144781000D01*
X103260000Y-144781000D02*
X101955000Y-144781000D01*
X111025000Y-144821000D02*
X107741000Y-144821000D01*
X103260000Y-144821000D02*
X101975000Y-144821000D01*
X111004000Y-144861000D02*
X107741000Y-144861000D01*
X103260000Y-144861000D02*
X101996000Y-144861000D01*
X110983000Y-144901000D02*
X107741000Y-144901000D01*
X103260000Y-144901000D02*
X102017000Y-144901000D01*
X110962000Y-144941000D02*
X107741000Y-144941000D01*
X103260000Y-144941000D02*
X102038000Y-144941000D01*
X110940000Y-144981000D02*
X107741000Y-144981000D01*
X103260000Y-144981000D02*
X102060000Y-144981000D01*
X110917000Y-145021000D02*
X107741000Y-145021000D01*
X103260000Y-145021000D02*
X102083000Y-145021000D01*
X110895000Y-145061000D02*
X107741000Y-145061000D01*
X103260000Y-145061000D02*
X102105000Y-145061000D01*
X110871000Y-145101000D02*
X107741000Y-145101000D01*
X103260000Y-145101000D02*
X102129000Y-145101000D01*
X110847000Y-145141000D02*
X107741000Y-145141000D01*
X103260000Y-145141000D02*
X102153000Y-145141000D01*
X110823000Y-145181000D02*
X107741000Y-145181000D01*
X103260000Y-145181000D02*
X102177000Y-145181000D01*
X110798000Y-145221000D02*
X107741000Y-145221000D01*
X103260000Y-145221000D02*
X102202000Y-145221000D01*
X110773000Y-145261000D02*
X107741000Y-145261000D01*
X103260000Y-145261000D02*
X102227000Y-145261000D01*
X110747000Y-145301000D02*
X107741000Y-145301000D01*
X103260000Y-145301000D02*
X102253000Y-145301000D01*
X110721000Y-145341000D02*
X107741000Y-145341000D01*
X103260000Y-145341000D02*
X102279000Y-145341000D01*
X110694000Y-145381000D02*
X107741000Y-145381000D01*
X103260000Y-145381000D02*
X102306000Y-145381000D01*
X110666000Y-145421000D02*
X107741000Y-145421000D01*
X103260000Y-145421000D02*
X102334000Y-145421000D01*
X110638000Y-145461000D02*
X107741000Y-145461000D01*
X103260000Y-145461000D02*
X102362000Y-145461000D01*
X110610000Y-145501000D02*
X107741000Y-145501000D01*
X103260000Y-145501000D02*
X102390000Y-145501000D01*
X110580000Y-145541000D02*
X107741000Y-145541000D01*
X103260000Y-145541000D02*
X102420000Y-145541000D01*
X110550000Y-145581000D02*
X107741000Y-145581000D01*
X103260000Y-145581000D02*
X102450000Y-145581000D01*
X110520000Y-145621000D02*
X107741000Y-145621000D01*
X103260000Y-145621000D02*
X102480000Y-145621000D01*
X110489000Y-145661000D02*
X107741000Y-145661000D01*
X103260000Y-145661000D02*
X102511000Y-145661000D01*
X110457000Y-145701000D02*
X107741000Y-145701000D01*
X103260000Y-145701000D02*
X102543000Y-145701000D01*
X110425000Y-145741000D02*
X107741000Y-145741000D01*
X103260000Y-145741000D02*
X102575000Y-145741000D01*
X110392000Y-145781000D02*
X107741000Y-145781000D01*
X103260000Y-145781000D02*
X102608000Y-145781000D01*
X110358000Y-145821000D02*
X107741000Y-145821000D01*
X103260000Y-145821000D02*
X102642000Y-145821000D01*
X110324000Y-145861000D02*
X107741000Y-145861000D01*
X103260000Y-145861000D02*
X102676000Y-145861000D01*
X110289000Y-145901000D02*
X107741000Y-145901000D01*
X103260000Y-145901000D02*
X102711000Y-145901000D01*
X110253000Y-145941000D02*
X107741000Y-145941000D01*
X103260000Y-145941000D02*
X102747000Y-145941000D01*
X110216000Y-145981000D02*
X107741000Y-145981000D01*
X103260000Y-145981000D02*
X102784000Y-145981000D01*
X110179000Y-146021000D02*
X107741000Y-146021000D01*
X103260000Y-146021000D02*
X102821000Y-146021000D01*
X110140000Y-146061000D02*
X107741000Y-146061000D01*
X103260000Y-146061000D02*
X102860000Y-146061000D01*
X110101000Y-146101000D02*
X107741000Y-146101000D01*
X103260000Y-146101000D02*
X102899000Y-146101000D01*
X110061000Y-146141000D02*
X107741000Y-146141000D01*
X103260000Y-146141000D02*
X102939000Y-146141000D01*
X110020000Y-146181000D02*
X107741000Y-146181000D01*
X103260000Y-146181000D02*
X102980000Y-146181000D01*
X109978000Y-146221000D02*
X107741000Y-146221000D01*
X103260000Y-146221000D02*
X103022000Y-146221000D01*
X109936000Y-146261000D02*
X105740000Y-146261000D01*
X103260000Y-146261000D02*
X103064000Y-146261000D01*
X109892000Y-146301000D02*
X105740000Y-146301000D01*
X103260000Y-146301000D02*
X103108000Y-146301000D01*
X109847000Y-146341000D02*
X105740000Y-146341000D01*
X103260000Y-146341000D02*
X103153000Y-146341000D01*
X109801000Y-146381000D02*
X105740000Y-146381000D01*
X103260000Y-146381000D02*
X103199000Y-146381000D01*
X109754000Y-146421000D02*
X105740000Y-146421000D01*
X103260000Y-146421000D02*
X103246000Y-146421000D01*
X109706000Y-146461000D02*
X105740000Y-146461000D01*
X109656000Y-146501000D02*
X105740000Y-146501000D01*
X109606000Y-146541000D02*
X105740000Y-146541000D01*
X109554000Y-146581000D02*
X105740000Y-146581000D01*
X109500000Y-146621000D02*
X105740000Y-146621000D01*
X109445000Y-146661000D02*
X105740000Y-146661000D01*
X109389000Y-146701000D02*
X105740000Y-146701000D01*
X109330000Y-146741000D02*
X105740000Y-146741000D01*
X109270000Y-146781000D02*
X105740000Y-146781000D01*
X109209000Y-146821000D02*
X105740000Y-146821000D01*
X109145000Y-146861000D02*
X105740000Y-146861000D01*
X109079000Y-146901000D02*
X105740000Y-146901000D01*
X109010000Y-146941000D02*
X103990000Y-146941000D01*
X108939000Y-146981000D02*
X104061000Y-146981000D01*
X108865000Y-147021000D02*
X104135000Y-147021000D01*
X108789000Y-147061000D02*
X104211000Y-147061000D01*
X108709000Y-147101000D02*
X104291000Y-147101000D01*
X108625000Y-147141000D02*
X104375000Y-147141000D01*
X108537000Y-147181000D02*
X104463000Y-147181000D01*
X108444000Y-147221000D02*
X104556000Y-147221000D01*
X108346000Y-147261000D02*
X104654000Y-147261000D01*
X108242000Y-147301000D02*
X104758000Y-147301000D01*
X108130000Y-147341000D02*
X104870000Y-147341000D01*
X108010000Y-147381000D02*
X104990000Y-147381000D01*
X107878000Y-147421000D02*
X105122000Y-147421000D01*
X107730000Y-147461000D02*
X105270000Y-147461000D01*
X107562000Y-147501000D02*
X105438000Y-147501000D01*
X107362000Y-147541000D02*
X105638000Y-147541000D01*
X107099000Y-147581000D02*
X105901000Y-147581000D01*
X109375000Y-137020354D02*
X109375000Y-138020354D01*
X109875000Y-137520354D02*
X108875000Y-137520354D01*
X108213098Y-118175096D02*
G75*
G03X109760000Y-119051988I-1713098J-4824904D01*
G01*
X111580000Y-123000000D02*
X101420000Y-123000000D01*
X111580000Y-123040000D02*
X101420000Y-123040000D01*
X111580000Y-123080000D02*
X101420000Y-123080000D01*
X111579000Y-123120000D02*
X101421000Y-123120000D01*
X111578000Y-123160000D02*
X101422000Y-123160000D01*
X111577000Y-123200000D02*
X101423000Y-123200000D01*
X111575000Y-123240000D02*
X101425000Y-123240000D01*
X111573000Y-123280000D02*
X101427000Y-123280000D01*
X111570000Y-123320000D02*
X101430000Y-123320000D01*
X111568000Y-123360000D02*
X101432000Y-123360000D01*
X111565000Y-123400000D02*
X101435000Y-123400000D01*
X111562000Y-123440000D02*
X101438000Y-123440000D01*
X111558000Y-123480000D02*
X101442000Y-123480000D01*
X111554000Y-123520000D02*
X101446000Y-123520000D01*
X111550000Y-123560000D02*
X101450000Y-123560000D01*
X111545000Y-123600000D02*
X101455000Y-123600000D01*
X111540000Y-123640000D02*
X101460000Y-123640000D01*
X111535000Y-123680000D02*
X101465000Y-123680000D01*
X111530000Y-123721000D02*
X101470000Y-123721000D01*
X111524000Y-123761000D02*
X101476000Y-123761000D01*
X111518000Y-123801000D02*
X101482000Y-123801000D01*
X111511000Y-123841000D02*
X101489000Y-123841000D01*
X111504000Y-123881000D02*
X101496000Y-123881000D01*
X111497000Y-123921000D02*
X101503000Y-123921000D01*
X111490000Y-123961000D02*
X101510000Y-123961000D01*
X111482000Y-124001000D02*
X101518000Y-124001000D01*
X111474000Y-124041000D02*
X101526000Y-124041000D01*
X111465000Y-124081000D02*
X101535000Y-124081000D01*
X111456000Y-124121000D02*
X101544000Y-124121000D01*
X111447000Y-124161000D02*
X101553000Y-124161000D01*
X111438000Y-124201000D02*
X101562000Y-124201000D01*
X111428000Y-124241000D02*
X101572000Y-124241000D01*
X111418000Y-124281000D02*
X107741000Y-124281000D01*
X105259000Y-124281000D02*
X101582000Y-124281000D01*
X111407000Y-124321000D02*
X107741000Y-124321000D01*
X105259000Y-124321000D02*
X101593000Y-124321000D01*
X111397000Y-124361000D02*
X107741000Y-124361000D01*
X105259000Y-124361000D02*
X101603000Y-124361000D01*
X111385000Y-124401000D02*
X107741000Y-124401000D01*
X105259000Y-124401000D02*
X101615000Y-124401000D01*
X111374000Y-124441000D02*
X107741000Y-124441000D01*
X105259000Y-124441000D02*
X101626000Y-124441000D01*
X111362000Y-124481000D02*
X107741000Y-124481000D01*
X105259000Y-124481000D02*
X101638000Y-124481000D01*
X111350000Y-124521000D02*
X107741000Y-124521000D01*
X105259000Y-124521000D02*
X101650000Y-124521000D01*
X111337000Y-124561000D02*
X107741000Y-124561000D01*
X105259000Y-124561000D02*
X101663000Y-124561000D01*
X111324000Y-124601000D02*
X107741000Y-124601000D01*
X105259000Y-124601000D02*
X101676000Y-124601000D01*
X111311000Y-124641000D02*
X107741000Y-124641000D01*
X105259000Y-124641000D02*
X101689000Y-124641000D01*
X111297000Y-124681000D02*
X107741000Y-124681000D01*
X105259000Y-124681000D02*
X101703000Y-124681000D01*
X111283000Y-124721000D02*
X107741000Y-124721000D01*
X105259000Y-124721000D02*
X101717000Y-124721000D01*
X111268000Y-124761000D02*
X107741000Y-124761000D01*
X105259000Y-124761000D02*
X101732000Y-124761000D01*
X111254000Y-124801000D02*
X107741000Y-124801000D01*
X105259000Y-124801000D02*
X101746000Y-124801000D01*
X111238000Y-124841000D02*
X107741000Y-124841000D01*
X105259000Y-124841000D02*
X101762000Y-124841000D01*
X111223000Y-124881000D02*
X107741000Y-124881000D01*
X105259000Y-124881000D02*
X101777000Y-124881000D01*
X111207000Y-124921000D02*
X107741000Y-124921000D01*
X105259000Y-124921000D02*
X101793000Y-124921000D01*
X111190000Y-124961000D02*
X107741000Y-124961000D01*
X103260000Y-124961000D02*
X101810000Y-124961000D01*
X111174000Y-125001000D02*
X107741000Y-125001000D01*
X103260000Y-125001000D02*
X101826000Y-125001000D01*
X111157000Y-125041000D02*
X107741000Y-125041000D01*
X103260000Y-125041000D02*
X101843000Y-125041000D01*
X111139000Y-125081000D02*
X107741000Y-125081000D01*
X103260000Y-125081000D02*
X101861000Y-125081000D01*
X111121000Y-125121000D02*
X107741000Y-125121000D01*
X103260000Y-125121000D02*
X101879000Y-125121000D01*
X111103000Y-125161000D02*
X107741000Y-125161000D01*
X103260000Y-125161000D02*
X101897000Y-125161000D01*
X111084000Y-125201000D02*
X107741000Y-125201000D01*
X103260000Y-125201000D02*
X101916000Y-125201000D01*
X111064000Y-125241000D02*
X107741000Y-125241000D01*
X103260000Y-125241000D02*
X101936000Y-125241000D01*
X111045000Y-125281000D02*
X107741000Y-125281000D01*
X103260000Y-125281000D02*
X101955000Y-125281000D01*
X111025000Y-125321000D02*
X107741000Y-125321000D01*
X103260000Y-125321000D02*
X101975000Y-125321000D01*
X111004000Y-125361000D02*
X107741000Y-125361000D01*
X103260000Y-125361000D02*
X101996000Y-125361000D01*
X110983000Y-125401000D02*
X107741000Y-125401000D01*
X103260000Y-125401000D02*
X102017000Y-125401000D01*
X110962000Y-125441000D02*
X107741000Y-125441000D01*
X103260000Y-125441000D02*
X102038000Y-125441000D01*
X110940000Y-125481000D02*
X107741000Y-125481000D01*
X103260000Y-125481000D02*
X102060000Y-125481000D01*
X110917000Y-125521000D02*
X107741000Y-125521000D01*
X103260000Y-125521000D02*
X102083000Y-125521000D01*
X110895000Y-125561000D02*
X107741000Y-125561000D01*
X103260000Y-125561000D02*
X102105000Y-125561000D01*
X110871000Y-125601000D02*
X107741000Y-125601000D01*
X103260000Y-125601000D02*
X102129000Y-125601000D01*
X110847000Y-125641000D02*
X107741000Y-125641000D01*
X103260000Y-125641000D02*
X102153000Y-125641000D01*
X110823000Y-125681000D02*
X107741000Y-125681000D01*
X103260000Y-125681000D02*
X102177000Y-125681000D01*
X110798000Y-125721000D02*
X107741000Y-125721000D01*
X103260000Y-125721000D02*
X102202000Y-125721000D01*
X110773000Y-125761000D02*
X107741000Y-125761000D01*
X103260000Y-125761000D02*
X102227000Y-125761000D01*
X110747000Y-125801000D02*
X107741000Y-125801000D01*
X103260000Y-125801000D02*
X102253000Y-125801000D01*
X110721000Y-125841000D02*
X107741000Y-125841000D01*
X103260000Y-125841000D02*
X102279000Y-125841000D01*
X110694000Y-125881000D02*
X107741000Y-125881000D01*
X103260000Y-125881000D02*
X102306000Y-125881000D01*
X110666000Y-125921000D02*
X107741000Y-125921000D01*
X103260000Y-125921000D02*
X102334000Y-125921000D01*
X110638000Y-125961000D02*
X107741000Y-125961000D01*
X103260000Y-125961000D02*
X102362000Y-125961000D01*
X110610000Y-126001000D02*
X107741000Y-126001000D01*
X103260000Y-126001000D02*
X102390000Y-126001000D01*
X110580000Y-126041000D02*
X107741000Y-126041000D01*
X103260000Y-126041000D02*
X102420000Y-126041000D01*
X110550000Y-126081000D02*
X107741000Y-126081000D01*
X103260000Y-126081000D02*
X102450000Y-126081000D01*
X110520000Y-126121000D02*
X107741000Y-126121000D01*
X103260000Y-126121000D02*
X102480000Y-126121000D01*
X110489000Y-126161000D02*
X107741000Y-126161000D01*
X103260000Y-126161000D02*
X102511000Y-126161000D01*
X110457000Y-126201000D02*
X107741000Y-126201000D01*
X103260000Y-126201000D02*
X102543000Y-126201000D01*
X110425000Y-126241000D02*
X107741000Y-126241000D01*
X103260000Y-126241000D02*
X102575000Y-126241000D01*
X110392000Y-126281000D02*
X107741000Y-126281000D01*
X103260000Y-126281000D02*
X102608000Y-126281000D01*
X110358000Y-126321000D02*
X107741000Y-126321000D01*
X103260000Y-126321000D02*
X102642000Y-126321000D01*
X110324000Y-126361000D02*
X107741000Y-126361000D01*
X103260000Y-126361000D02*
X102676000Y-126361000D01*
X110289000Y-126401000D02*
X107741000Y-126401000D01*
X103260000Y-126401000D02*
X102711000Y-126401000D01*
X110253000Y-126441000D02*
X107741000Y-126441000D01*
X103260000Y-126441000D02*
X102747000Y-126441000D01*
X110216000Y-126481000D02*
X107741000Y-126481000D01*
X103260000Y-126481000D02*
X102784000Y-126481000D01*
X110179000Y-126521000D02*
X107741000Y-126521000D01*
X103260000Y-126521000D02*
X102821000Y-126521000D01*
X110140000Y-126561000D02*
X107741000Y-126561000D01*
X103260000Y-126561000D02*
X102860000Y-126561000D01*
X110101000Y-126601000D02*
X107741000Y-126601000D01*
X103260000Y-126601000D02*
X102899000Y-126601000D01*
X110061000Y-126641000D02*
X107741000Y-126641000D01*
X103260000Y-126641000D02*
X102939000Y-126641000D01*
X110020000Y-126681000D02*
X107741000Y-126681000D01*
X103260000Y-126681000D02*
X102980000Y-126681000D01*
X109978000Y-126721000D02*
X107741000Y-126721000D01*
X103260000Y-126721000D02*
X103022000Y-126721000D01*
X109936000Y-126761000D02*
X105740000Y-126761000D01*
X103260000Y-126761000D02*
X103064000Y-126761000D01*
X109892000Y-126801000D02*
X105740000Y-126801000D01*
X103260000Y-126801000D02*
X103108000Y-126801000D01*
X109847000Y-126841000D02*
X105740000Y-126841000D01*
X103260000Y-126841000D02*
X103153000Y-126841000D01*
X109801000Y-126881000D02*
X105740000Y-126881000D01*
X103260000Y-126881000D02*
X103199000Y-126881000D01*
X109754000Y-126921000D02*
X105740000Y-126921000D01*
X103260000Y-126921000D02*
X103246000Y-126921000D01*
X109706000Y-126961000D02*
X105740000Y-126961000D01*
X109656000Y-127001000D02*
X105740000Y-127001000D01*
X109606000Y-127041000D02*
X105740000Y-127041000D01*
X109554000Y-127081000D02*
X105740000Y-127081000D01*
X109500000Y-127121000D02*
X105740000Y-127121000D01*
X109445000Y-127161000D02*
X105740000Y-127161000D01*
X109389000Y-127201000D02*
X105740000Y-127201000D01*
X109330000Y-127241000D02*
X105740000Y-127241000D01*
X109270000Y-127281000D02*
X105740000Y-127281000D01*
X109209000Y-127321000D02*
X105740000Y-127321000D01*
X109145000Y-127361000D02*
X105740000Y-127361000D01*
X109079000Y-127401000D02*
X105740000Y-127401000D01*
X109010000Y-127441000D02*
X103990000Y-127441000D01*
X108939000Y-127481000D02*
X104061000Y-127481000D01*
X108865000Y-127521000D02*
X104135000Y-127521000D01*
X108789000Y-127561000D02*
X104211000Y-127561000D01*
X108709000Y-127601000D02*
X104291000Y-127601000D01*
X108625000Y-127641000D02*
X104375000Y-127641000D01*
X108537000Y-127681000D02*
X104463000Y-127681000D01*
X108444000Y-127721000D02*
X104556000Y-127721000D01*
X108346000Y-127761000D02*
X104654000Y-127761000D01*
X108242000Y-127801000D02*
X104758000Y-127801000D01*
X108130000Y-127841000D02*
X104870000Y-127841000D01*
X108010000Y-127881000D02*
X104990000Y-127881000D01*
X107878000Y-127921000D02*
X105122000Y-127921000D01*
X107730000Y-127961000D02*
X105270000Y-127961000D01*
X107562000Y-128001000D02*
X105438000Y-128001000D01*
X107362000Y-128041000D02*
X105638000Y-128041000D01*
X107099000Y-128081000D02*
X105901000Y-128081000D01*
X109375000Y-117520354D02*
X109375000Y-118520354D01*
X109875000Y-118020354D02*
X108875000Y-118020354D01*
D11*
X140852380Y-141416666D02*
X140852380Y-141892857D01*
X139852380Y-141892857D01*
X139852380Y-140654761D02*
X139852380Y-140845238D01*
X139900000Y-140940476D01*
X139947619Y-140988095D01*
X140090476Y-141083333D01*
X140280952Y-141130952D01*
X140661904Y-141130952D01*
X140757142Y-141083333D01*
X140804761Y-141035714D01*
X140852380Y-140940476D01*
X140852380Y-140750000D01*
X140804761Y-140654761D01*
X140757142Y-140607142D01*
X140661904Y-140559523D01*
X140423809Y-140559523D01*
X140328571Y-140607142D01*
X140280952Y-140654761D01*
X140233333Y-140750000D01*
X140233333Y-140940476D01*
X140280952Y-141035714D01*
X140328571Y-141083333D01*
X140423809Y-141130952D01*
X153552380Y-123916666D02*
X153552380Y-124392857D01*
X152552380Y-124392857D01*
X152552380Y-123107142D02*
X152552380Y-123583333D01*
X153028571Y-123630952D01*
X152980952Y-123583333D01*
X152933333Y-123488095D01*
X152933333Y-123250000D01*
X152980952Y-123154761D01*
X153028571Y-123107142D01*
X153123809Y-123059523D01*
X153361904Y-123059523D01*
X153457142Y-123107142D01*
X153504761Y-123154761D01*
X153552380Y-123250000D01*
X153552380Y-123488095D01*
X153504761Y-123583333D01*
X153457142Y-123630952D01*
X190002380Y-132853333D02*
X190716666Y-132853333D01*
X190859523Y-132900952D01*
X190954761Y-132996190D01*
X191002380Y-133139047D01*
X191002380Y-133234285D01*
X190097619Y-132424761D02*
X190050000Y-132377142D01*
X190002380Y-132281904D01*
X190002380Y-132043809D01*
X190050000Y-131948571D01*
X190097619Y-131900952D01*
X190192857Y-131853333D01*
X190288095Y-131853333D01*
X190430952Y-131900952D01*
X191002380Y-132472380D01*
X191002380Y-131853333D01*
X118333333Y-133452380D02*
X117857142Y-133452380D01*
X117857142Y-132452380D01*
X118619047Y-132547619D02*
X118666666Y-132500000D01*
X118761904Y-132452380D01*
X119000000Y-132452380D01*
X119095238Y-132500000D01*
X119142857Y-132547619D01*
X119190476Y-132642857D01*
X119190476Y-132738095D01*
X119142857Y-132880952D01*
X118571428Y-133452380D01*
X119190476Y-133452380D01*
X118333333Y-115452380D02*
X117857142Y-115452380D01*
X117857142Y-114452380D01*
X119190476Y-115452380D02*
X118619047Y-115452380D01*
X118904761Y-115452380D02*
X118904761Y-114452380D01*
X118809523Y-114595238D01*
X118714285Y-114690476D01*
X118619047Y-114738095D01*
X101252380Y-132933333D02*
X101966666Y-132933333D01*
X102109523Y-132980952D01*
X102204761Y-133076190D01*
X102252380Y-133219047D01*
X102252380Y-133314285D01*
X102252380Y-131933333D02*
X102252380Y-132504761D01*
X102252380Y-132219047D02*
X101252380Y-132219047D01*
X101395238Y-132314285D01*
X101490476Y-132409523D01*
X101538095Y-132504761D01*
X161333333Y-136772380D02*
X161000000Y-136296190D01*
X160761904Y-136772380D02*
X160761904Y-135772380D01*
X161142857Y-135772380D01*
X161238095Y-135820000D01*
X161285714Y-135867619D01*
X161333333Y-135962857D01*
X161333333Y-136105714D01*
X161285714Y-136200952D01*
X161238095Y-136248571D01*
X161142857Y-136296190D01*
X160761904Y-136296190D01*
X161714285Y-135867619D02*
X161761904Y-135820000D01*
X161857142Y-135772380D01*
X162095238Y-135772380D01*
X162190476Y-135820000D01*
X162238095Y-135867619D01*
X162285714Y-135962857D01*
X162285714Y-136058095D01*
X162238095Y-136200952D01*
X161666666Y-136772380D01*
X162285714Y-136772380D01*
X161333333Y-129632380D02*
X161000000Y-129156190D01*
X160761904Y-129632380D02*
X160761904Y-128632380D01*
X161142857Y-128632380D01*
X161238095Y-128680000D01*
X161285714Y-128727619D01*
X161333333Y-128822857D01*
X161333333Y-128965714D01*
X161285714Y-129060952D01*
X161238095Y-129108571D01*
X161142857Y-129156190D01*
X160761904Y-129156190D01*
X162285714Y-129632380D02*
X161714285Y-129632380D01*
X162000000Y-129632380D02*
X162000000Y-128632380D01*
X161904761Y-128775238D01*
X161809523Y-128870476D01*
X161714285Y-128918095D01*
X146583333Y-148607380D02*
X146107142Y-148607380D01*
X146107142Y-147607380D01*
X147345238Y-147940714D02*
X147345238Y-148607380D01*
X147107142Y-147559761D02*
X146869047Y-148274047D01*
X147488095Y-148274047D01*
X146583333Y-117297380D02*
X146107142Y-117297380D01*
X146107142Y-116297380D01*
X146821428Y-116297380D02*
X147440476Y-116297380D01*
X147107142Y-116678333D01*
X147250000Y-116678333D01*
X147345238Y-116725952D01*
X147392857Y-116773571D01*
X147440476Y-116868809D01*
X147440476Y-117106904D01*
X147392857Y-117202142D01*
X147345238Y-117249761D01*
X147250000Y-117297380D01*
X146964285Y-117297380D01*
X146869047Y-117249761D01*
X146821428Y-117202142D01*
X170607142Y-139642857D02*
X170654761Y-139690476D01*
X170702380Y-139833333D01*
X170702380Y-139928571D01*
X170654761Y-140071428D01*
X170559523Y-140166666D01*
X170464285Y-140214285D01*
X170273809Y-140261904D01*
X170130952Y-140261904D01*
X169940476Y-140214285D01*
X169845238Y-140166666D01*
X169750000Y-140071428D01*
X169702380Y-139928571D01*
X169702380Y-139833333D01*
X169750000Y-139690476D01*
X169797619Y-139642857D01*
X170702380Y-138690476D02*
X170702380Y-139261904D01*
X170702380Y-138976190D02*
X169702380Y-138976190D01*
X169845238Y-139071428D01*
X169940476Y-139166666D01*
X169988095Y-139261904D01*
X170035714Y-137833333D02*
X170702380Y-137833333D01*
X169654761Y-138071428D02*
X170369047Y-138309523D01*
X170369047Y-137690476D01*
X170607142Y-121642857D02*
X170654761Y-121690476D01*
X170702380Y-121833333D01*
X170702380Y-121928571D01*
X170654761Y-122071428D01*
X170559523Y-122166666D01*
X170464285Y-122214285D01*
X170273809Y-122261904D01*
X170130952Y-122261904D01*
X169940476Y-122214285D01*
X169845238Y-122166666D01*
X169750000Y-122071428D01*
X169702380Y-121928571D01*
X169702380Y-121833333D01*
X169750000Y-121690476D01*
X169797619Y-121642857D01*
X170702380Y-120690476D02*
X170702380Y-121261904D01*
X170702380Y-120976190D02*
X169702380Y-120976190D01*
X169845238Y-121071428D01*
X169940476Y-121166666D01*
X169988095Y-121261904D01*
X169702380Y-120357142D02*
X169702380Y-119738095D01*
X170083333Y-120071428D01*
X170083333Y-119928571D01*
X170130952Y-119833333D01*
X170178571Y-119785714D01*
X170273809Y-119738095D01*
X170511904Y-119738095D01*
X170607142Y-119785714D01*
X170654761Y-119833333D01*
X170702380Y-119928571D01*
X170702380Y-120214285D01*
X170654761Y-120309523D01*
X170607142Y-120357142D01*
X182607142Y-139642857D02*
X182654761Y-139690476D01*
X182702380Y-139833333D01*
X182702380Y-139928571D01*
X182654761Y-140071428D01*
X182559523Y-140166666D01*
X182464285Y-140214285D01*
X182273809Y-140261904D01*
X182130952Y-140261904D01*
X181940476Y-140214285D01*
X181845238Y-140166666D01*
X181750000Y-140071428D01*
X181702380Y-139928571D01*
X181702380Y-139833333D01*
X181750000Y-139690476D01*
X181797619Y-139642857D01*
X182702380Y-138690476D02*
X182702380Y-139261904D01*
X182702380Y-138976190D02*
X181702380Y-138976190D01*
X181845238Y-139071428D01*
X181940476Y-139166666D01*
X181988095Y-139261904D01*
X181797619Y-138309523D02*
X181750000Y-138261904D01*
X181702380Y-138166666D01*
X181702380Y-137928571D01*
X181750000Y-137833333D01*
X181797619Y-137785714D01*
X181892857Y-137738095D01*
X181988095Y-137738095D01*
X182130952Y-137785714D01*
X182702380Y-138357142D01*
X182702380Y-137738095D01*
X182857142Y-121642857D02*
X182904761Y-121690476D01*
X182952380Y-121833333D01*
X182952380Y-121928571D01*
X182904761Y-122071428D01*
X182809523Y-122166666D01*
X182714285Y-122214285D01*
X182523809Y-122261904D01*
X182380952Y-122261904D01*
X182190476Y-122214285D01*
X182095238Y-122166666D01*
X182000000Y-122071428D01*
X181952380Y-121928571D01*
X181952380Y-121833333D01*
X182000000Y-121690476D01*
X182047619Y-121642857D01*
X182952380Y-120690476D02*
X182952380Y-121261904D01*
X182952380Y-120976190D02*
X181952380Y-120976190D01*
X182095238Y-121071428D01*
X182190476Y-121166666D01*
X182238095Y-121261904D01*
X182952380Y-119738095D02*
X182952380Y-120309523D01*
X182952380Y-120023809D02*
X181952380Y-120023809D01*
X182095238Y-120119047D01*
X182190476Y-120214285D01*
X182238095Y-120309523D01*
X174857142Y-130357142D02*
X174809523Y-130404761D01*
X174666666Y-130452380D01*
X174571428Y-130452380D01*
X174428571Y-130404761D01*
X174333333Y-130309523D01*
X174285714Y-130214285D01*
X174238095Y-130023809D01*
X174238095Y-129880952D01*
X174285714Y-129690476D01*
X174333333Y-129595238D01*
X174428571Y-129500000D01*
X174571428Y-129452380D01*
X174666666Y-129452380D01*
X174809523Y-129500000D01*
X174857142Y-129547619D01*
X175809523Y-130452380D02*
X175238095Y-130452380D01*
X175523809Y-130452380D02*
X175523809Y-129452380D01*
X175428571Y-129595238D01*
X175333333Y-129690476D01*
X175238095Y-129738095D01*
X176428571Y-129452380D02*
X176523809Y-129452380D01*
X176619047Y-129500000D01*
X176666666Y-129547619D01*
X176714285Y-129642857D01*
X176761904Y-129833333D01*
X176761904Y-130071428D01*
X176714285Y-130261904D01*
X176666666Y-130357142D01*
X176619047Y-130404761D01*
X176523809Y-130452380D01*
X176428571Y-130452380D01*
X176333333Y-130404761D01*
X176285714Y-130357142D01*
X176238095Y-130261904D01*
X176190476Y-130071428D01*
X176190476Y-129833333D01*
X176238095Y-129642857D01*
X176285714Y-129547619D01*
X176333333Y-129500000D01*
X176428571Y-129452380D01*
X174833333Y-135357142D02*
X174785714Y-135404761D01*
X174642857Y-135452380D01*
X174547619Y-135452380D01*
X174404761Y-135404761D01*
X174309523Y-135309523D01*
X174261904Y-135214285D01*
X174214285Y-135023809D01*
X174214285Y-134880952D01*
X174261904Y-134690476D01*
X174309523Y-134595238D01*
X174404761Y-134500000D01*
X174547619Y-134452380D01*
X174642857Y-134452380D01*
X174785714Y-134500000D01*
X174833333Y-134547619D01*
X175309523Y-135452380D02*
X175500000Y-135452380D01*
X175595238Y-135404761D01*
X175642857Y-135357142D01*
X175738095Y-135214285D01*
X175785714Y-135023809D01*
X175785714Y-134642857D01*
X175738095Y-134547619D01*
X175690476Y-134500000D01*
X175595238Y-134452380D01*
X175404761Y-134452380D01*
X175309523Y-134500000D01*
X175261904Y-134547619D01*
X175214285Y-134642857D01*
X175214285Y-134880952D01*
X175261904Y-134976190D01*
X175309523Y-135023809D01*
X175404761Y-135071428D01*
X175595238Y-135071428D01*
X175690476Y-135023809D01*
X175738095Y-134976190D01*
X175785714Y-134880952D01*
X134357142Y-144166666D02*
X134404761Y-144214285D01*
X134452380Y-144357142D01*
X134452380Y-144452380D01*
X134404761Y-144595238D01*
X134309523Y-144690476D01*
X134214285Y-144738095D01*
X134023809Y-144785714D01*
X133880952Y-144785714D01*
X133690476Y-144738095D01*
X133595238Y-144690476D01*
X133500000Y-144595238D01*
X133452380Y-144452380D01*
X133452380Y-144357142D01*
X133500000Y-144214285D01*
X133547619Y-144166666D01*
X133880952Y-143595238D02*
X133833333Y-143690476D01*
X133785714Y-143738095D01*
X133690476Y-143785714D01*
X133642857Y-143785714D01*
X133547619Y-143738095D01*
X133500000Y-143690476D01*
X133452380Y-143595238D01*
X133452380Y-143404761D01*
X133500000Y-143309523D01*
X133547619Y-143261904D01*
X133642857Y-143214285D01*
X133690476Y-143214285D01*
X133785714Y-143261904D01*
X133833333Y-143309523D01*
X133880952Y-143404761D01*
X133880952Y-143595238D01*
X133928571Y-143690476D01*
X133976190Y-143738095D01*
X134071428Y-143785714D01*
X134261904Y-143785714D01*
X134357142Y-143738095D01*
X134404761Y-143690476D01*
X134452380Y-143595238D01*
X134452380Y-143404761D01*
X134404761Y-143309523D01*
X134357142Y-143261904D01*
X134261904Y-143214285D01*
X134071428Y-143214285D01*
X133976190Y-143261904D01*
X133928571Y-143309523D01*
X133880952Y-143404761D01*
X134357142Y-120166666D02*
X134404761Y-120214285D01*
X134452380Y-120357142D01*
X134452380Y-120452380D01*
X134404761Y-120595238D01*
X134309523Y-120690476D01*
X134214285Y-120738095D01*
X134023809Y-120785714D01*
X133880952Y-120785714D01*
X133690476Y-120738095D01*
X133595238Y-120690476D01*
X133500000Y-120595238D01*
X133452380Y-120452380D01*
X133452380Y-120357142D01*
X133500000Y-120214285D01*
X133547619Y-120166666D01*
X133452380Y-119833333D02*
X133452380Y-119166666D01*
X134452380Y-119595238D01*
X113107142Y-145166666D02*
X113154761Y-145214285D01*
X113202380Y-145357142D01*
X113202380Y-145452380D01*
X113154761Y-145595238D01*
X113059523Y-145690476D01*
X112964285Y-145738095D01*
X112773809Y-145785714D01*
X112630952Y-145785714D01*
X112440476Y-145738095D01*
X112345238Y-145690476D01*
X112250000Y-145595238D01*
X112202380Y-145452380D01*
X112202380Y-145357142D01*
X112250000Y-145214285D01*
X112297619Y-145166666D01*
X112535714Y-144309523D02*
X113202380Y-144309523D01*
X112154761Y-144547619D02*
X112869047Y-144785714D01*
X112869047Y-144166666D01*
X112607142Y-129666666D02*
X112654761Y-129714285D01*
X112702380Y-129857142D01*
X112702380Y-129952380D01*
X112654761Y-130095238D01*
X112559523Y-130190476D01*
X112464285Y-130238095D01*
X112273809Y-130285714D01*
X112130952Y-130285714D01*
X111940476Y-130238095D01*
X111845238Y-130190476D01*
X111750000Y-130095238D01*
X111702380Y-129952380D01*
X111702380Y-129857142D01*
X111750000Y-129714285D01*
X111797619Y-129666666D01*
X111702380Y-129333333D02*
X111702380Y-128714285D01*
X112083333Y-129047619D01*
X112083333Y-128904761D01*
X112130952Y-128809523D01*
X112178571Y-128761904D01*
X112273809Y-128714285D01*
X112511904Y-128714285D01*
X112607142Y-128761904D01*
X112654761Y-128809523D01*
X112702380Y-128904761D01*
X112702380Y-129190476D01*
X112654761Y-129285714D01*
X112607142Y-129333333D01*
X103857142Y-136666666D02*
X103904761Y-136714285D01*
X103952380Y-136857142D01*
X103952380Y-136952380D01*
X103904761Y-137095238D01*
X103809523Y-137190476D01*
X103714285Y-137238095D01*
X103523809Y-137285714D01*
X103380952Y-137285714D01*
X103190476Y-137238095D01*
X103095238Y-137190476D01*
X103000000Y-137095238D01*
X102952380Y-136952380D01*
X102952380Y-136857142D01*
X103000000Y-136714285D01*
X103047619Y-136666666D01*
X103047619Y-136285714D02*
X103000000Y-136238095D01*
X102952380Y-136142857D01*
X102952380Y-135904761D01*
X103000000Y-135809523D01*
X103047619Y-135761904D01*
X103142857Y-135714285D01*
X103238095Y-135714285D01*
X103380952Y-135761904D01*
X103952380Y-136333333D01*
X103952380Y-135714285D01*
X113107142Y-120666666D02*
X113154761Y-120714285D01*
X113202380Y-120857142D01*
X113202380Y-120952380D01*
X113154761Y-121095238D01*
X113059523Y-121190476D01*
X112964285Y-121238095D01*
X112773809Y-121285714D01*
X112630952Y-121285714D01*
X112440476Y-121238095D01*
X112345238Y-121190476D01*
X112250000Y-121095238D01*
X112202380Y-120952380D01*
X112202380Y-120857142D01*
X112250000Y-120714285D01*
X112297619Y-120666666D01*
X113202380Y-119714285D02*
X113202380Y-120285714D01*
X113202380Y-120000000D02*
X112202380Y-120000000D01*
X112345238Y-120095238D01*
X112440476Y-120190476D01*
X112488095Y-120285714D01*
%LPC*%
D12*
G36*
X115500000Y-134500000D02*
G01*
X112500000Y-134500000D01*
X112500000Y-130500000D01*
X115500000Y-130500000D01*
X115500000Y-134500000D01*
G37*
X115500000Y-134500000D02*
X112500000Y-134500000D01*
X112500000Y-130500000D01*
X115500000Y-130500000D01*
X115500000Y-134500000D01*
G36*
X102500000Y-134500000D02*
G01*
X99500000Y-134500000D01*
X99500000Y-130500000D01*
X102500000Y-130500000D01*
X102500000Y-134500000D01*
G37*
X102500000Y-134500000D02*
X99500000Y-134500000D01*
X99500000Y-130500000D01*
X102500000Y-130500000D01*
X102500000Y-134500000D01*
D13*
X146750000Y-137100000D03*
X146750000Y-145400000D03*
X146750000Y-127900000D03*
X146750000Y-119600000D03*
D14*
X185750000Y-140160000D03*
D15*
X185750000Y-124920000D03*
D14*
X185750000Y-135080000D03*
X185750000Y-130000000D03*
D16*
X119700000Y-146500000D03*
X127300000Y-146500000D03*
D17*
X119700000Y-136500000D03*
D16*
X127300000Y-136500000D03*
X116000000Y-146500000D03*
X131000000Y-146500000D03*
D17*
X116000000Y-136500000D03*
D16*
X131000000Y-136500000D03*
X128500000Y-146500000D03*
X118500000Y-146500000D03*
X128500000Y-136500000D03*
D17*
X118500000Y-136500000D03*
D16*
X119700000Y-128500000D03*
X127300000Y-128500000D03*
D17*
X119700000Y-118500000D03*
D16*
X127300000Y-118500000D03*
X116000000Y-128500000D03*
X131000000Y-128500000D03*
D17*
X116000000Y-118500000D03*
D16*
X131000000Y-118500000D03*
X128500000Y-128500000D03*
X118500000Y-128500000D03*
X128500000Y-118500000D03*
D17*
X118500000Y-118500000D03*
D14*
X97000000Y-140240000D03*
D15*
X97000000Y-125000000D03*
D14*
X97000000Y-135160000D03*
X97000000Y-130080000D03*
D12*
G36*
X163458667Y-133575561D02*
G01*
X163490129Y-133580227D01*
X163520981Y-133587956D01*
X163550928Y-133598671D01*
X163579680Y-133612269D01*
X163606960Y-133628621D01*
X163632507Y-133647567D01*
X163656073Y-133668927D01*
X163677433Y-133692493D01*
X163696379Y-133718040D01*
X163712731Y-133745320D01*
X163726329Y-133774072D01*
X163737044Y-133804019D01*
X163744773Y-133834871D01*
X163749439Y-133866333D01*
X163751000Y-133898100D01*
X163751000Y-135101900D01*
X163749439Y-135133667D01*
X163744773Y-135165129D01*
X163737044Y-135195981D01*
X163726329Y-135225928D01*
X163712731Y-135254680D01*
X163696379Y-135281960D01*
X163677433Y-135307507D01*
X163656073Y-135331073D01*
X163632507Y-135352433D01*
X163606960Y-135371379D01*
X163579680Y-135387731D01*
X163550928Y-135401329D01*
X163520981Y-135412044D01*
X163490129Y-135419773D01*
X163458667Y-135424439D01*
X163426900Y-135426000D01*
X162173100Y-135426000D01*
X162141333Y-135424439D01*
X162109871Y-135419773D01*
X162079019Y-135412044D01*
X162049072Y-135401329D01*
X162020320Y-135387731D01*
X161993040Y-135371379D01*
X161967493Y-135352433D01*
X161943927Y-135331073D01*
X161922567Y-135307507D01*
X161903621Y-135281960D01*
X161887269Y-135254680D01*
X161873671Y-135225928D01*
X161862956Y-135195981D01*
X161855227Y-135165129D01*
X161850561Y-135133667D01*
X161849000Y-135101900D01*
X161849000Y-133898100D01*
X161850561Y-133866333D01*
X161855227Y-133834871D01*
X161862956Y-133804019D01*
X161873671Y-133774072D01*
X161887269Y-133745320D01*
X161903621Y-133718040D01*
X161922567Y-133692493D01*
X161943927Y-133668927D01*
X161967493Y-133647567D01*
X161993040Y-133628621D01*
X162020320Y-133612269D01*
X162049072Y-133598671D01*
X162079019Y-133587956D01*
X162109871Y-133580227D01*
X162141333Y-133575561D01*
X162173100Y-133574000D01*
X163426900Y-133574000D01*
X163458667Y-133575561D01*
X163458667Y-133575561D01*
G37*
D18*
X162800000Y-134500000D03*
D12*
G36*
X160858667Y-133575561D02*
G01*
X160890129Y-133580227D01*
X160920981Y-133587956D01*
X160950928Y-133598671D01*
X160979680Y-133612269D01*
X161006960Y-133628621D01*
X161032507Y-133647567D01*
X161056073Y-133668927D01*
X161077433Y-133692493D01*
X161096379Y-133718040D01*
X161112731Y-133745320D01*
X161126329Y-133774072D01*
X161137044Y-133804019D01*
X161144773Y-133834871D01*
X161149439Y-133866333D01*
X161151000Y-133898100D01*
X161151000Y-135101900D01*
X161149439Y-135133667D01*
X161144773Y-135165129D01*
X161137044Y-135195981D01*
X161126329Y-135225928D01*
X161112731Y-135254680D01*
X161096379Y-135281960D01*
X161077433Y-135307507D01*
X161056073Y-135331073D01*
X161032507Y-135352433D01*
X161006960Y-135371379D01*
X160979680Y-135387731D01*
X160950928Y-135401329D01*
X160920981Y-135412044D01*
X160890129Y-135419773D01*
X160858667Y-135424439D01*
X160826900Y-135426000D01*
X159573100Y-135426000D01*
X159541333Y-135424439D01*
X159509871Y-135419773D01*
X159479019Y-135412044D01*
X159449072Y-135401329D01*
X159420320Y-135387731D01*
X159393040Y-135371379D01*
X159367493Y-135352433D01*
X159343927Y-135331073D01*
X159322567Y-135307507D01*
X159303621Y-135281960D01*
X159287269Y-135254680D01*
X159273671Y-135225928D01*
X159262956Y-135195981D01*
X159255227Y-135165129D01*
X159250561Y-135133667D01*
X159249000Y-135101900D01*
X159249000Y-133898100D01*
X159250561Y-133866333D01*
X159255227Y-133834871D01*
X159262956Y-133804019D01*
X159273671Y-133774072D01*
X159287269Y-133745320D01*
X159303621Y-133718040D01*
X159322567Y-133692493D01*
X159343927Y-133668927D01*
X159367493Y-133647567D01*
X159393040Y-133628621D01*
X159420320Y-133612269D01*
X159449072Y-133598671D01*
X159479019Y-133587956D01*
X159509871Y-133580227D01*
X159541333Y-133575561D01*
X159573100Y-133574000D01*
X160826900Y-133574000D01*
X160858667Y-133575561D01*
X160858667Y-133575561D01*
G37*
D18*
X160200000Y-134500000D03*
D12*
G36*
X160858667Y-130075561D02*
G01*
X160890129Y-130080227D01*
X160920981Y-130087956D01*
X160950928Y-130098671D01*
X160979680Y-130112269D01*
X161006960Y-130128621D01*
X161032507Y-130147567D01*
X161056073Y-130168927D01*
X161077433Y-130192493D01*
X161096379Y-130218040D01*
X161112731Y-130245320D01*
X161126329Y-130274072D01*
X161137044Y-130304019D01*
X161144773Y-130334871D01*
X161149439Y-130366333D01*
X161151000Y-130398100D01*
X161151000Y-131601900D01*
X161149439Y-131633667D01*
X161144773Y-131665129D01*
X161137044Y-131695981D01*
X161126329Y-131725928D01*
X161112731Y-131754680D01*
X161096379Y-131781960D01*
X161077433Y-131807507D01*
X161056073Y-131831073D01*
X161032507Y-131852433D01*
X161006960Y-131871379D01*
X160979680Y-131887731D01*
X160950928Y-131901329D01*
X160920981Y-131912044D01*
X160890129Y-131919773D01*
X160858667Y-131924439D01*
X160826900Y-131926000D01*
X159573100Y-131926000D01*
X159541333Y-131924439D01*
X159509871Y-131919773D01*
X159479019Y-131912044D01*
X159449072Y-131901329D01*
X159420320Y-131887731D01*
X159393040Y-131871379D01*
X159367493Y-131852433D01*
X159343927Y-131831073D01*
X159322567Y-131807507D01*
X159303621Y-131781960D01*
X159287269Y-131754680D01*
X159273671Y-131725928D01*
X159262956Y-131695981D01*
X159255227Y-131665129D01*
X159250561Y-131633667D01*
X159249000Y-131601900D01*
X159249000Y-130398100D01*
X159250561Y-130366333D01*
X159255227Y-130334871D01*
X159262956Y-130304019D01*
X159273671Y-130274072D01*
X159287269Y-130245320D01*
X159303621Y-130218040D01*
X159322567Y-130192493D01*
X159343927Y-130168927D01*
X159367493Y-130147567D01*
X159393040Y-130128621D01*
X159420320Y-130112269D01*
X159449072Y-130098671D01*
X159479019Y-130087956D01*
X159509871Y-130080227D01*
X159541333Y-130075561D01*
X159573100Y-130074000D01*
X160826900Y-130074000D01*
X160858667Y-130075561D01*
X160858667Y-130075561D01*
G37*
D18*
X160200000Y-131000000D03*
D12*
G36*
X163458667Y-130075561D02*
G01*
X163490129Y-130080227D01*
X163520981Y-130087956D01*
X163550928Y-130098671D01*
X163579680Y-130112269D01*
X163606960Y-130128621D01*
X163632507Y-130147567D01*
X163656073Y-130168927D01*
X163677433Y-130192493D01*
X163696379Y-130218040D01*
X163712731Y-130245320D01*
X163726329Y-130274072D01*
X163737044Y-130304019D01*
X163744773Y-130334871D01*
X163749439Y-130366333D01*
X163751000Y-130398100D01*
X163751000Y-131601900D01*
X163749439Y-131633667D01*
X163744773Y-131665129D01*
X163737044Y-131695981D01*
X163726329Y-131725928D01*
X163712731Y-131754680D01*
X163696379Y-131781960D01*
X163677433Y-131807507D01*
X163656073Y-131831073D01*
X163632507Y-131852433D01*
X163606960Y-131871379D01*
X163579680Y-131887731D01*
X163550928Y-131901329D01*
X163520981Y-131912044D01*
X163490129Y-131919773D01*
X163458667Y-131924439D01*
X163426900Y-131926000D01*
X162173100Y-131926000D01*
X162141333Y-131924439D01*
X162109871Y-131919773D01*
X162079019Y-131912044D01*
X162049072Y-131901329D01*
X162020320Y-131887731D01*
X161993040Y-131871379D01*
X161967493Y-131852433D01*
X161943927Y-131831073D01*
X161922567Y-131807507D01*
X161903621Y-131781960D01*
X161887269Y-131754680D01*
X161873671Y-131725928D01*
X161862956Y-131695981D01*
X161855227Y-131665129D01*
X161850561Y-131633667D01*
X161849000Y-131601900D01*
X161849000Y-130398100D01*
X161850561Y-130366333D01*
X161855227Y-130334871D01*
X161862956Y-130304019D01*
X161873671Y-130274072D01*
X161887269Y-130245320D01*
X161903621Y-130218040D01*
X161922567Y-130192493D01*
X161943927Y-130168927D01*
X161967493Y-130147567D01*
X161993040Y-130128621D01*
X162020320Y-130112269D01*
X162049072Y-130098671D01*
X162079019Y-130087956D01*
X162109871Y-130080227D01*
X162141333Y-130075561D01*
X162173100Y-130074000D01*
X163426900Y-130074000D01*
X163458667Y-130075561D01*
X163458667Y-130075561D01*
G37*
D18*
X162800000Y-131000000D03*
D19*
X146750000Y-145000000D03*
X146750000Y-137380000D03*
X146750000Y-120000000D03*
X146750000Y-127620000D03*
D17*
X164000000Y-139000000D03*
D16*
X164000000Y-144000000D03*
D17*
X165250000Y-140250000D03*
D16*
X162750000Y-142750000D03*
D17*
X164000000Y-121000000D03*
D16*
X164000000Y-126000000D03*
D17*
X165250000Y-122250000D03*
D16*
X162750000Y-124750000D03*
D17*
X176000000Y-139000000D03*
D16*
X176000000Y-144000000D03*
D17*
X177250000Y-140250000D03*
D16*
X174750000Y-142750000D03*
D17*
X176250000Y-121000000D03*
D16*
X176250000Y-126000000D03*
D17*
X177500000Y-122250000D03*
D16*
X175000000Y-124750000D03*
D12*
G36*
X178358667Y-133575561D02*
G01*
X178390129Y-133580227D01*
X178420981Y-133587956D01*
X178450928Y-133598671D01*
X178479680Y-133612269D01*
X178506960Y-133628621D01*
X178532507Y-133647567D01*
X178556073Y-133668927D01*
X178577433Y-133692493D01*
X178596379Y-133718040D01*
X178612731Y-133745320D01*
X178626329Y-133774072D01*
X178637044Y-133804019D01*
X178644773Y-133834871D01*
X178649439Y-133866333D01*
X178651000Y-133898100D01*
X178651000Y-135101900D01*
X178649439Y-135133667D01*
X178644773Y-135165129D01*
X178637044Y-135195981D01*
X178626329Y-135225928D01*
X178612731Y-135254680D01*
X178596379Y-135281960D01*
X178577433Y-135307507D01*
X178556073Y-135331073D01*
X178532507Y-135352433D01*
X178506960Y-135371379D01*
X178479680Y-135387731D01*
X178450928Y-135401329D01*
X178420981Y-135412044D01*
X178390129Y-135419773D01*
X178358667Y-135424439D01*
X178326900Y-135426000D01*
X177073100Y-135426000D01*
X177041333Y-135424439D01*
X177009871Y-135419773D01*
X176979019Y-135412044D01*
X176949072Y-135401329D01*
X176920320Y-135387731D01*
X176893040Y-135371379D01*
X176867493Y-135352433D01*
X176843927Y-135331073D01*
X176822567Y-135307507D01*
X176803621Y-135281960D01*
X176787269Y-135254680D01*
X176773671Y-135225928D01*
X176762956Y-135195981D01*
X176755227Y-135165129D01*
X176750561Y-135133667D01*
X176749000Y-135101900D01*
X176749000Y-133898100D01*
X176750561Y-133866333D01*
X176755227Y-133834871D01*
X176762956Y-133804019D01*
X176773671Y-133774072D01*
X176787269Y-133745320D01*
X176803621Y-133718040D01*
X176822567Y-133692493D01*
X176843927Y-133668927D01*
X176867493Y-133647567D01*
X176893040Y-133628621D01*
X176920320Y-133612269D01*
X176949072Y-133598671D01*
X176979019Y-133587956D01*
X177009871Y-133580227D01*
X177041333Y-133575561D01*
X177073100Y-133574000D01*
X178326900Y-133574000D01*
X178358667Y-133575561D01*
X178358667Y-133575561D01*
G37*
D18*
X177700000Y-134500000D03*
D12*
G36*
X180958667Y-133575561D02*
G01*
X180990129Y-133580227D01*
X181020981Y-133587956D01*
X181050928Y-133598671D01*
X181079680Y-133612269D01*
X181106960Y-133628621D01*
X181132507Y-133647567D01*
X181156073Y-133668927D01*
X181177433Y-133692493D01*
X181196379Y-133718040D01*
X181212731Y-133745320D01*
X181226329Y-133774072D01*
X181237044Y-133804019D01*
X181244773Y-133834871D01*
X181249439Y-133866333D01*
X181251000Y-133898100D01*
X181251000Y-135101900D01*
X181249439Y-135133667D01*
X181244773Y-135165129D01*
X181237044Y-135195981D01*
X181226329Y-135225928D01*
X181212731Y-135254680D01*
X181196379Y-135281960D01*
X181177433Y-135307507D01*
X181156073Y-135331073D01*
X181132507Y-135352433D01*
X181106960Y-135371379D01*
X181079680Y-135387731D01*
X181050928Y-135401329D01*
X181020981Y-135412044D01*
X180990129Y-135419773D01*
X180958667Y-135424439D01*
X180926900Y-135426000D01*
X179673100Y-135426000D01*
X179641333Y-135424439D01*
X179609871Y-135419773D01*
X179579019Y-135412044D01*
X179549072Y-135401329D01*
X179520320Y-135387731D01*
X179493040Y-135371379D01*
X179467493Y-135352433D01*
X179443927Y-135331073D01*
X179422567Y-135307507D01*
X179403621Y-135281960D01*
X179387269Y-135254680D01*
X179373671Y-135225928D01*
X179362956Y-135195981D01*
X179355227Y-135165129D01*
X179350561Y-135133667D01*
X179349000Y-135101900D01*
X179349000Y-133898100D01*
X179350561Y-133866333D01*
X179355227Y-133834871D01*
X179362956Y-133804019D01*
X179373671Y-133774072D01*
X179387269Y-133745320D01*
X179403621Y-133718040D01*
X179422567Y-133692493D01*
X179443927Y-133668927D01*
X179467493Y-133647567D01*
X179493040Y-133628621D01*
X179520320Y-133612269D01*
X179549072Y-133598671D01*
X179579019Y-133587956D01*
X179609871Y-133580227D01*
X179641333Y-133575561D01*
X179673100Y-133574000D01*
X180926900Y-133574000D01*
X180958667Y-133575561D01*
X180958667Y-133575561D01*
G37*
D18*
X180300000Y-134500000D03*
D12*
G36*
X180958667Y-129575561D02*
G01*
X180990129Y-129580227D01*
X181020981Y-129587956D01*
X181050928Y-129598671D01*
X181079680Y-129612269D01*
X181106960Y-129628621D01*
X181132507Y-129647567D01*
X181156073Y-129668927D01*
X181177433Y-129692493D01*
X181196379Y-129718040D01*
X181212731Y-129745320D01*
X181226329Y-129774072D01*
X181237044Y-129804019D01*
X181244773Y-129834871D01*
X181249439Y-129866333D01*
X181251000Y-129898100D01*
X181251000Y-131101900D01*
X181249439Y-131133667D01*
X181244773Y-131165129D01*
X181237044Y-131195981D01*
X181226329Y-131225928D01*
X181212731Y-131254680D01*
X181196379Y-131281960D01*
X181177433Y-131307507D01*
X181156073Y-131331073D01*
X181132507Y-131352433D01*
X181106960Y-131371379D01*
X181079680Y-131387731D01*
X181050928Y-131401329D01*
X181020981Y-131412044D01*
X180990129Y-131419773D01*
X180958667Y-131424439D01*
X180926900Y-131426000D01*
X179673100Y-131426000D01*
X179641333Y-131424439D01*
X179609871Y-131419773D01*
X179579019Y-131412044D01*
X179549072Y-131401329D01*
X179520320Y-131387731D01*
X179493040Y-131371379D01*
X179467493Y-131352433D01*
X179443927Y-131331073D01*
X179422567Y-131307507D01*
X179403621Y-131281960D01*
X179387269Y-131254680D01*
X179373671Y-131225928D01*
X179362956Y-131195981D01*
X179355227Y-131165129D01*
X179350561Y-131133667D01*
X179349000Y-131101900D01*
X179349000Y-129898100D01*
X179350561Y-129866333D01*
X179355227Y-129834871D01*
X179362956Y-129804019D01*
X179373671Y-129774072D01*
X179387269Y-129745320D01*
X179403621Y-129718040D01*
X179422567Y-129692493D01*
X179443927Y-129668927D01*
X179467493Y-129647567D01*
X179493040Y-129628621D01*
X179520320Y-129612269D01*
X179549072Y-129598671D01*
X179579019Y-129587956D01*
X179609871Y-129580227D01*
X179641333Y-129575561D01*
X179673100Y-129574000D01*
X180926900Y-129574000D01*
X180958667Y-129575561D01*
X180958667Y-129575561D01*
G37*
D18*
X180300000Y-130500000D03*
D12*
G36*
X178358667Y-129575561D02*
G01*
X178390129Y-129580227D01*
X178420981Y-129587956D01*
X178450928Y-129598671D01*
X178479680Y-129612269D01*
X178506960Y-129628621D01*
X178532507Y-129647567D01*
X178556073Y-129668927D01*
X178577433Y-129692493D01*
X178596379Y-129718040D01*
X178612731Y-129745320D01*
X178626329Y-129774072D01*
X178637044Y-129804019D01*
X178644773Y-129834871D01*
X178649439Y-129866333D01*
X178651000Y-129898100D01*
X178651000Y-131101900D01*
X178649439Y-131133667D01*
X178644773Y-131165129D01*
X178637044Y-131195981D01*
X178626329Y-131225928D01*
X178612731Y-131254680D01*
X178596379Y-131281960D01*
X178577433Y-131307507D01*
X178556073Y-131331073D01*
X178532507Y-131352433D01*
X178506960Y-131371379D01*
X178479680Y-131387731D01*
X178450928Y-131401329D01*
X178420981Y-131412044D01*
X178390129Y-131419773D01*
X178358667Y-131424439D01*
X178326900Y-131426000D01*
X177073100Y-131426000D01*
X177041333Y-131424439D01*
X177009871Y-131419773D01*
X176979019Y-131412044D01*
X176949072Y-131401329D01*
X176920320Y-131387731D01*
X176893040Y-131371379D01*
X176867493Y-131352433D01*
X176843927Y-131331073D01*
X176822567Y-131307507D01*
X176803621Y-131281960D01*
X176787269Y-131254680D01*
X176773671Y-131225928D01*
X176762956Y-131195981D01*
X176755227Y-131165129D01*
X176750561Y-131133667D01*
X176749000Y-131101900D01*
X176749000Y-129898100D01*
X176750561Y-129866333D01*
X176755227Y-129834871D01*
X176762956Y-129804019D01*
X176773671Y-129774072D01*
X176787269Y-129745320D01*
X176803621Y-129718040D01*
X176822567Y-129692493D01*
X176843927Y-129668927D01*
X176867493Y-129647567D01*
X176893040Y-129628621D01*
X176920320Y-129612269D01*
X176949072Y-129598671D01*
X176979019Y-129587956D01*
X177009871Y-129580227D01*
X177041333Y-129575561D01*
X177073100Y-129574000D01*
X178326900Y-129574000D01*
X178358667Y-129575561D01*
X178358667Y-129575561D01*
G37*
D18*
X177700000Y-130500000D03*
D12*
G36*
X134633667Y-137450561D02*
G01*
X134665129Y-137455227D01*
X134695981Y-137462956D01*
X134725928Y-137473671D01*
X134754680Y-137487269D01*
X134781960Y-137503621D01*
X134807507Y-137522567D01*
X134831073Y-137543927D01*
X134852433Y-137567493D01*
X134871379Y-137593040D01*
X134887731Y-137620320D01*
X134901329Y-137649072D01*
X134912044Y-137679019D01*
X134919773Y-137709871D01*
X134924439Y-137741333D01*
X134926000Y-137773100D01*
X134926000Y-139026900D01*
X134924439Y-139058667D01*
X134919773Y-139090129D01*
X134912044Y-139120981D01*
X134901329Y-139150928D01*
X134887731Y-139179680D01*
X134871379Y-139206960D01*
X134852433Y-139232507D01*
X134831073Y-139256073D01*
X134807507Y-139277433D01*
X134781960Y-139296379D01*
X134754680Y-139312731D01*
X134725928Y-139326329D01*
X134695981Y-139337044D01*
X134665129Y-139344773D01*
X134633667Y-139349439D01*
X134601900Y-139351000D01*
X133398100Y-139351000D01*
X133366333Y-139349439D01*
X133334871Y-139344773D01*
X133304019Y-139337044D01*
X133274072Y-139326329D01*
X133245320Y-139312731D01*
X133218040Y-139296379D01*
X133192493Y-139277433D01*
X133168927Y-139256073D01*
X133147567Y-139232507D01*
X133128621Y-139206960D01*
X133112269Y-139179680D01*
X133098671Y-139150928D01*
X133087956Y-139120981D01*
X133080227Y-139090129D01*
X133075561Y-139058667D01*
X133074000Y-139026900D01*
X133074000Y-137773100D01*
X133075561Y-137741333D01*
X133080227Y-137709871D01*
X133087956Y-137679019D01*
X133098671Y-137649072D01*
X133112269Y-137620320D01*
X133128621Y-137593040D01*
X133147567Y-137567493D01*
X133168927Y-137543927D01*
X133192493Y-137522567D01*
X133218040Y-137503621D01*
X133245320Y-137487269D01*
X133274072Y-137473671D01*
X133304019Y-137462956D01*
X133334871Y-137455227D01*
X133366333Y-137450561D01*
X133398100Y-137449000D01*
X134601900Y-137449000D01*
X134633667Y-137450561D01*
X134633667Y-137450561D01*
G37*
D18*
X134000000Y-138400000D03*
D12*
G36*
X134633667Y-140050561D02*
G01*
X134665129Y-140055227D01*
X134695981Y-140062956D01*
X134725928Y-140073671D01*
X134754680Y-140087269D01*
X134781960Y-140103621D01*
X134807507Y-140122567D01*
X134831073Y-140143927D01*
X134852433Y-140167493D01*
X134871379Y-140193040D01*
X134887731Y-140220320D01*
X134901329Y-140249072D01*
X134912044Y-140279019D01*
X134919773Y-140309871D01*
X134924439Y-140341333D01*
X134926000Y-140373100D01*
X134926000Y-141626900D01*
X134924439Y-141658667D01*
X134919773Y-141690129D01*
X134912044Y-141720981D01*
X134901329Y-141750928D01*
X134887731Y-141779680D01*
X134871379Y-141806960D01*
X134852433Y-141832507D01*
X134831073Y-141856073D01*
X134807507Y-141877433D01*
X134781960Y-141896379D01*
X134754680Y-141912731D01*
X134725928Y-141926329D01*
X134695981Y-141937044D01*
X134665129Y-141944773D01*
X134633667Y-141949439D01*
X134601900Y-141951000D01*
X133398100Y-141951000D01*
X133366333Y-141949439D01*
X133334871Y-141944773D01*
X133304019Y-141937044D01*
X133274072Y-141926329D01*
X133245320Y-141912731D01*
X133218040Y-141896379D01*
X133192493Y-141877433D01*
X133168927Y-141856073D01*
X133147567Y-141832507D01*
X133128621Y-141806960D01*
X133112269Y-141779680D01*
X133098671Y-141750928D01*
X133087956Y-141720981D01*
X133080227Y-141690129D01*
X133075561Y-141658667D01*
X133074000Y-141626900D01*
X133074000Y-140373100D01*
X133075561Y-140341333D01*
X133080227Y-140309871D01*
X133087956Y-140279019D01*
X133098671Y-140249072D01*
X133112269Y-140220320D01*
X133128621Y-140193040D01*
X133147567Y-140167493D01*
X133168927Y-140143927D01*
X133192493Y-140122567D01*
X133218040Y-140103621D01*
X133245320Y-140087269D01*
X133274072Y-140073671D01*
X133304019Y-140062956D01*
X133334871Y-140055227D01*
X133366333Y-140050561D01*
X133398100Y-140049000D01*
X134601900Y-140049000D01*
X134633667Y-140050561D01*
X134633667Y-140050561D01*
G37*
D18*
X134000000Y-141000000D03*
D12*
G36*
X134633667Y-122250561D02*
G01*
X134665129Y-122255227D01*
X134695981Y-122262956D01*
X134725928Y-122273671D01*
X134754680Y-122287269D01*
X134781960Y-122303621D01*
X134807507Y-122322567D01*
X134831073Y-122343927D01*
X134852433Y-122367493D01*
X134871379Y-122393040D01*
X134887731Y-122420320D01*
X134901329Y-122449072D01*
X134912044Y-122479019D01*
X134919773Y-122509871D01*
X134924439Y-122541333D01*
X134926000Y-122573100D01*
X134926000Y-123826900D01*
X134924439Y-123858667D01*
X134919773Y-123890129D01*
X134912044Y-123920981D01*
X134901329Y-123950928D01*
X134887731Y-123979680D01*
X134871379Y-124006960D01*
X134852433Y-124032507D01*
X134831073Y-124056073D01*
X134807507Y-124077433D01*
X134781960Y-124096379D01*
X134754680Y-124112731D01*
X134725928Y-124126329D01*
X134695981Y-124137044D01*
X134665129Y-124144773D01*
X134633667Y-124149439D01*
X134601900Y-124151000D01*
X133398100Y-124151000D01*
X133366333Y-124149439D01*
X133334871Y-124144773D01*
X133304019Y-124137044D01*
X133274072Y-124126329D01*
X133245320Y-124112731D01*
X133218040Y-124096379D01*
X133192493Y-124077433D01*
X133168927Y-124056073D01*
X133147567Y-124032507D01*
X133128621Y-124006960D01*
X133112269Y-123979680D01*
X133098671Y-123950928D01*
X133087956Y-123920981D01*
X133080227Y-123890129D01*
X133075561Y-123858667D01*
X133074000Y-123826900D01*
X133074000Y-122573100D01*
X133075561Y-122541333D01*
X133080227Y-122509871D01*
X133087956Y-122479019D01*
X133098671Y-122449072D01*
X133112269Y-122420320D01*
X133128621Y-122393040D01*
X133147567Y-122367493D01*
X133168927Y-122343927D01*
X133192493Y-122322567D01*
X133218040Y-122303621D01*
X133245320Y-122287269D01*
X133274072Y-122273671D01*
X133304019Y-122262956D01*
X133334871Y-122255227D01*
X133366333Y-122250561D01*
X133398100Y-122249000D01*
X134601900Y-122249000D01*
X134633667Y-122250561D01*
X134633667Y-122250561D01*
G37*
D18*
X134000000Y-123200000D03*
D12*
G36*
X134633667Y-124850561D02*
G01*
X134665129Y-124855227D01*
X134695981Y-124862956D01*
X134725928Y-124873671D01*
X134754680Y-124887269D01*
X134781960Y-124903621D01*
X134807507Y-124922567D01*
X134831073Y-124943927D01*
X134852433Y-124967493D01*
X134871379Y-124993040D01*
X134887731Y-125020320D01*
X134901329Y-125049072D01*
X134912044Y-125079019D01*
X134919773Y-125109871D01*
X134924439Y-125141333D01*
X134926000Y-125173100D01*
X134926000Y-126426900D01*
X134924439Y-126458667D01*
X134919773Y-126490129D01*
X134912044Y-126520981D01*
X134901329Y-126550928D01*
X134887731Y-126579680D01*
X134871379Y-126606960D01*
X134852433Y-126632507D01*
X134831073Y-126656073D01*
X134807507Y-126677433D01*
X134781960Y-126696379D01*
X134754680Y-126712731D01*
X134725928Y-126726329D01*
X134695981Y-126737044D01*
X134665129Y-126744773D01*
X134633667Y-126749439D01*
X134601900Y-126751000D01*
X133398100Y-126751000D01*
X133366333Y-126749439D01*
X133334871Y-126744773D01*
X133304019Y-126737044D01*
X133274072Y-126726329D01*
X133245320Y-126712731D01*
X133218040Y-126696379D01*
X133192493Y-126677433D01*
X133168927Y-126656073D01*
X133147567Y-126632507D01*
X133128621Y-126606960D01*
X133112269Y-126579680D01*
X133098671Y-126550928D01*
X133087956Y-126520981D01*
X133080227Y-126490129D01*
X133075561Y-126458667D01*
X133074000Y-126426900D01*
X133074000Y-125173100D01*
X133075561Y-125141333D01*
X133080227Y-125109871D01*
X133087956Y-125079019D01*
X133098671Y-125049072D01*
X133112269Y-125020320D01*
X133128621Y-124993040D01*
X133147567Y-124967493D01*
X133168927Y-124943927D01*
X133192493Y-124922567D01*
X133218040Y-124903621D01*
X133245320Y-124887269D01*
X133274072Y-124873671D01*
X133304019Y-124862956D01*
X133334871Y-124855227D01*
X133366333Y-124850561D01*
X133398100Y-124849000D01*
X134601900Y-124849000D01*
X134633667Y-124850561D01*
X134633667Y-124850561D01*
G37*
D18*
X134000000Y-125800000D03*
D12*
G36*
X113883667Y-138250561D02*
G01*
X113915129Y-138255227D01*
X113945981Y-138262956D01*
X113975928Y-138273671D01*
X114004680Y-138287269D01*
X114031960Y-138303621D01*
X114057507Y-138322567D01*
X114081073Y-138343927D01*
X114102433Y-138367493D01*
X114121379Y-138393040D01*
X114137731Y-138420320D01*
X114151329Y-138449072D01*
X114162044Y-138479019D01*
X114169773Y-138509871D01*
X114174439Y-138541333D01*
X114176000Y-138573100D01*
X114176000Y-139826900D01*
X114174439Y-139858667D01*
X114169773Y-139890129D01*
X114162044Y-139920981D01*
X114151329Y-139950928D01*
X114137731Y-139979680D01*
X114121379Y-140006960D01*
X114102433Y-140032507D01*
X114081073Y-140056073D01*
X114057507Y-140077433D01*
X114031960Y-140096379D01*
X114004680Y-140112731D01*
X113975928Y-140126329D01*
X113945981Y-140137044D01*
X113915129Y-140144773D01*
X113883667Y-140149439D01*
X113851900Y-140151000D01*
X112648100Y-140151000D01*
X112616333Y-140149439D01*
X112584871Y-140144773D01*
X112554019Y-140137044D01*
X112524072Y-140126329D01*
X112495320Y-140112731D01*
X112468040Y-140096379D01*
X112442493Y-140077433D01*
X112418927Y-140056073D01*
X112397567Y-140032507D01*
X112378621Y-140006960D01*
X112362269Y-139979680D01*
X112348671Y-139950928D01*
X112337956Y-139920981D01*
X112330227Y-139890129D01*
X112325561Y-139858667D01*
X112324000Y-139826900D01*
X112324000Y-138573100D01*
X112325561Y-138541333D01*
X112330227Y-138509871D01*
X112337956Y-138479019D01*
X112348671Y-138449072D01*
X112362269Y-138420320D01*
X112378621Y-138393040D01*
X112397567Y-138367493D01*
X112418927Y-138343927D01*
X112442493Y-138322567D01*
X112468040Y-138303621D01*
X112495320Y-138287269D01*
X112524072Y-138273671D01*
X112554019Y-138262956D01*
X112584871Y-138255227D01*
X112616333Y-138250561D01*
X112648100Y-138249000D01*
X113851900Y-138249000D01*
X113883667Y-138250561D01*
X113883667Y-138250561D01*
G37*
D18*
X113250000Y-139200000D03*
D12*
G36*
X113883667Y-140850561D02*
G01*
X113915129Y-140855227D01*
X113945981Y-140862956D01*
X113975928Y-140873671D01*
X114004680Y-140887269D01*
X114031960Y-140903621D01*
X114057507Y-140922567D01*
X114081073Y-140943927D01*
X114102433Y-140967493D01*
X114121379Y-140993040D01*
X114137731Y-141020320D01*
X114151329Y-141049072D01*
X114162044Y-141079019D01*
X114169773Y-141109871D01*
X114174439Y-141141333D01*
X114176000Y-141173100D01*
X114176000Y-142426900D01*
X114174439Y-142458667D01*
X114169773Y-142490129D01*
X114162044Y-142520981D01*
X114151329Y-142550928D01*
X114137731Y-142579680D01*
X114121379Y-142606960D01*
X114102433Y-142632507D01*
X114081073Y-142656073D01*
X114057507Y-142677433D01*
X114031960Y-142696379D01*
X114004680Y-142712731D01*
X113975928Y-142726329D01*
X113945981Y-142737044D01*
X113915129Y-142744773D01*
X113883667Y-142749439D01*
X113851900Y-142751000D01*
X112648100Y-142751000D01*
X112616333Y-142749439D01*
X112584871Y-142744773D01*
X112554019Y-142737044D01*
X112524072Y-142726329D01*
X112495320Y-142712731D01*
X112468040Y-142696379D01*
X112442493Y-142677433D01*
X112418927Y-142656073D01*
X112397567Y-142632507D01*
X112378621Y-142606960D01*
X112362269Y-142579680D01*
X112348671Y-142550928D01*
X112337956Y-142520981D01*
X112330227Y-142490129D01*
X112325561Y-142458667D01*
X112324000Y-142426900D01*
X112324000Y-141173100D01*
X112325561Y-141141333D01*
X112330227Y-141109871D01*
X112337956Y-141079019D01*
X112348671Y-141049072D01*
X112362269Y-141020320D01*
X112378621Y-140993040D01*
X112397567Y-140967493D01*
X112418927Y-140943927D01*
X112442493Y-140922567D01*
X112468040Y-140903621D01*
X112495320Y-140887269D01*
X112524072Y-140873671D01*
X112554019Y-140862956D01*
X112584871Y-140855227D01*
X112616333Y-140850561D01*
X112648100Y-140849000D01*
X113851900Y-140849000D01*
X113883667Y-140850561D01*
X113883667Y-140850561D01*
G37*
D18*
X113250000Y-141800000D03*
D12*
G36*
X113883667Y-123250561D02*
G01*
X113915129Y-123255227D01*
X113945981Y-123262956D01*
X113975928Y-123273671D01*
X114004680Y-123287269D01*
X114031960Y-123303621D01*
X114057507Y-123322567D01*
X114081073Y-123343927D01*
X114102433Y-123367493D01*
X114121379Y-123393040D01*
X114137731Y-123420320D01*
X114151329Y-123449072D01*
X114162044Y-123479019D01*
X114169773Y-123509871D01*
X114174439Y-123541333D01*
X114176000Y-123573100D01*
X114176000Y-124826900D01*
X114174439Y-124858667D01*
X114169773Y-124890129D01*
X114162044Y-124920981D01*
X114151329Y-124950928D01*
X114137731Y-124979680D01*
X114121379Y-125006960D01*
X114102433Y-125032507D01*
X114081073Y-125056073D01*
X114057507Y-125077433D01*
X114031960Y-125096379D01*
X114004680Y-125112731D01*
X113975928Y-125126329D01*
X113945981Y-125137044D01*
X113915129Y-125144773D01*
X113883667Y-125149439D01*
X113851900Y-125151000D01*
X112648100Y-125151000D01*
X112616333Y-125149439D01*
X112584871Y-125144773D01*
X112554019Y-125137044D01*
X112524072Y-125126329D01*
X112495320Y-125112731D01*
X112468040Y-125096379D01*
X112442493Y-125077433D01*
X112418927Y-125056073D01*
X112397567Y-125032507D01*
X112378621Y-125006960D01*
X112362269Y-124979680D01*
X112348671Y-124950928D01*
X112337956Y-124920981D01*
X112330227Y-124890129D01*
X112325561Y-124858667D01*
X112324000Y-124826900D01*
X112324000Y-123573100D01*
X112325561Y-123541333D01*
X112330227Y-123509871D01*
X112337956Y-123479019D01*
X112348671Y-123449072D01*
X112362269Y-123420320D01*
X112378621Y-123393040D01*
X112397567Y-123367493D01*
X112418927Y-123343927D01*
X112442493Y-123322567D01*
X112468040Y-123303621D01*
X112495320Y-123287269D01*
X112524072Y-123273671D01*
X112554019Y-123262956D01*
X112584871Y-123255227D01*
X112616333Y-123250561D01*
X112648100Y-123249000D01*
X113851900Y-123249000D01*
X113883667Y-123250561D01*
X113883667Y-123250561D01*
G37*
D18*
X113250000Y-124200000D03*
D12*
G36*
X113883667Y-125850561D02*
G01*
X113915129Y-125855227D01*
X113945981Y-125862956D01*
X113975928Y-125873671D01*
X114004680Y-125887269D01*
X114031960Y-125903621D01*
X114057507Y-125922567D01*
X114081073Y-125943927D01*
X114102433Y-125967493D01*
X114121379Y-125993040D01*
X114137731Y-126020320D01*
X114151329Y-126049072D01*
X114162044Y-126079019D01*
X114169773Y-126109871D01*
X114174439Y-126141333D01*
X114176000Y-126173100D01*
X114176000Y-127426900D01*
X114174439Y-127458667D01*
X114169773Y-127490129D01*
X114162044Y-127520981D01*
X114151329Y-127550928D01*
X114137731Y-127579680D01*
X114121379Y-127606960D01*
X114102433Y-127632507D01*
X114081073Y-127656073D01*
X114057507Y-127677433D01*
X114031960Y-127696379D01*
X114004680Y-127712731D01*
X113975928Y-127726329D01*
X113945981Y-127737044D01*
X113915129Y-127744773D01*
X113883667Y-127749439D01*
X113851900Y-127751000D01*
X112648100Y-127751000D01*
X112616333Y-127749439D01*
X112584871Y-127744773D01*
X112554019Y-127737044D01*
X112524072Y-127726329D01*
X112495320Y-127712731D01*
X112468040Y-127696379D01*
X112442493Y-127677433D01*
X112418927Y-127656073D01*
X112397567Y-127632507D01*
X112378621Y-127606960D01*
X112362269Y-127579680D01*
X112348671Y-127550928D01*
X112337956Y-127520981D01*
X112330227Y-127490129D01*
X112325561Y-127458667D01*
X112324000Y-127426900D01*
X112324000Y-126173100D01*
X112325561Y-126141333D01*
X112330227Y-126109871D01*
X112337956Y-126079019D01*
X112348671Y-126049072D01*
X112362269Y-126020320D01*
X112378621Y-125993040D01*
X112397567Y-125967493D01*
X112418927Y-125943927D01*
X112442493Y-125922567D01*
X112468040Y-125903621D01*
X112495320Y-125887269D01*
X112524072Y-125873671D01*
X112554019Y-125862956D01*
X112584871Y-125855227D01*
X112616333Y-125850561D01*
X112648100Y-125849000D01*
X113851900Y-125849000D01*
X113883667Y-125850561D01*
X113883667Y-125850561D01*
G37*
D18*
X113250000Y-126800000D03*
D17*
X106500000Y-140000000D03*
D16*
X106500000Y-145000000D03*
D17*
X107750000Y-141250000D03*
D16*
X105250000Y-143750000D03*
D17*
X106500000Y-120500000D03*
D16*
X106500000Y-125500000D03*
D17*
X107750000Y-121750000D03*
D16*
X105250000Y-124250000D03*
M02*
