%FSLAX45Y45*%
G04 Gerber Fmt 4.5, Leading zero omitted, Abs format (unit mm)*
G04 Created by KiCad (PCBNEW (5.1.4)-1) date 2021-09-06 00:09:25*
%MOMM*%
%LPD*%
G04 APERTURE LIST*
%ADD10C,0.050000*%
%ADD11C,0.200000*%
%ADD12C,0.300000*%
G04 APERTURE END LIST*
D10*
X19000000Y-11500000D02*
X9250000Y-11500000D01*
X19000000Y-15000000D02*
X19000000Y-11500000D01*
X9250000Y-15000000D02*
X19000000Y-15000000D01*
X9250000Y-11500000D02*
X9250000Y-15000000D01*
D11*
D12*
X9533928Y-15468214D02*
X9533928Y-15168214D01*
X9605357Y-15168214D01*
X9648214Y-15182500D01*
X9676786Y-15211071D01*
X9691071Y-15239643D01*
X9705357Y-15296786D01*
X9705357Y-15339643D01*
X9691071Y-15396786D01*
X9676786Y-15425357D01*
X9648214Y-15453929D01*
X9605357Y-15468214D01*
X9533928Y-15468214D01*
X9833928Y-15468214D02*
X9833928Y-15268214D01*
X9833928Y-15325357D02*
X9848214Y-15296786D01*
X9862500Y-15282500D01*
X9891071Y-15268214D01*
X9919643Y-15268214D01*
X10019643Y-15468214D02*
X10019643Y-15268214D01*
X10019643Y-15168214D02*
X10005357Y-15182500D01*
X10019643Y-15196786D01*
X10033928Y-15182500D01*
X10019643Y-15168214D01*
X10019643Y-15196786D01*
X10205357Y-15468214D02*
X10176786Y-15453929D01*
X10162500Y-15425357D01*
X10162500Y-15168214D01*
X10362500Y-15468214D02*
X10333928Y-15453929D01*
X10319643Y-15425357D01*
X10319643Y-15168214D01*
X10705357Y-15468214D02*
X10705357Y-15168214D01*
X10805357Y-15382500D01*
X10905357Y-15168214D01*
X10905357Y-15468214D01*
X11176786Y-15468214D02*
X11176786Y-15311071D01*
X11162500Y-15282500D01*
X11133928Y-15268214D01*
X11076786Y-15268214D01*
X11048214Y-15282500D01*
X11176786Y-15453929D02*
X11148214Y-15468214D01*
X11076786Y-15468214D01*
X11048214Y-15453929D01*
X11033928Y-15425357D01*
X11033928Y-15396786D01*
X11048214Y-15368214D01*
X11076786Y-15353929D01*
X11148214Y-15353929D01*
X11176786Y-15339643D01*
X11319643Y-15268214D02*
X11319643Y-15568214D01*
X11319643Y-15282500D02*
X11348214Y-15268214D01*
X11405357Y-15268214D01*
X11433928Y-15282500D01*
X11448214Y-15296786D01*
X11462500Y-15325357D01*
X11462500Y-15411071D01*
X11448214Y-15439643D01*
X11433928Y-15453929D01*
X11405357Y-15468214D01*
X11348214Y-15468214D01*
X11319643Y-15453929D01*
X11591071Y-15439643D02*
X11605357Y-15453929D01*
X11591071Y-15468214D01*
X11576786Y-15453929D01*
X11591071Y-15439643D01*
X11591071Y-15468214D01*
X11591071Y-15282500D02*
X11605357Y-15296786D01*
X11591071Y-15311071D01*
X11576786Y-15296786D01*
X11591071Y-15282500D01*
X11591071Y-15311071D01*
M02*
