G04 #@! TF.GenerationSoftware,KiCad,Pcbnew,(5.1.4)-1*
G04 #@! TF.CreationDate,2021-09-06T00:09:17-04:00*
G04 #@! TF.ProjectId,controller_power_filter,636f6e74-726f-46c6-9c65-725f706f7765,rev?*
G04 #@! TF.SameCoordinates,Original*
G04 #@! TF.FileFunction,Paste,Bot*
G04 #@! TF.FilePolarity,Positive*
%FSLAX46Y46*%
G04 Gerber Fmt 4.6, Leading zero omitted, Abs format (unit mm)*
G04 Created by KiCad (PCBNEW (5.1.4)-1) date 2021-09-06 00:09:17*
%MOMM*%
%LPD*%
G04 APERTURE LIST*
%ADD10R,2.200000X1.050000*%
%ADD11R,1.050000X1.000000*%
%ADD12C,0.100000*%
%ADD13C,1.750000*%
G04 APERTURE END LIST*
D10*
X181275000Y-138775000D03*
D11*
X182800000Y-140250000D03*
D10*
X181275000Y-141725000D03*
X181275000Y-123775000D03*
D11*
X182800000Y-125250000D03*
D10*
X181275000Y-126725000D03*
D12*
G36*
X117098768Y-138301475D02*
G01*
X117128496Y-138305885D01*
X117157650Y-138313187D01*
X117185947Y-138323312D01*
X117213115Y-138336162D01*
X117238893Y-138351612D01*
X117263033Y-138369516D01*
X117285301Y-138389699D01*
X117305484Y-138411967D01*
X117323388Y-138436107D01*
X117338838Y-138461885D01*
X117351688Y-138489053D01*
X117361813Y-138517350D01*
X117369115Y-138546504D01*
X117373525Y-138576232D01*
X117375000Y-138606250D01*
X117375000Y-139793750D01*
X117373525Y-139823768D01*
X117369115Y-139853496D01*
X117361813Y-139882650D01*
X117351688Y-139910947D01*
X117338838Y-139938115D01*
X117323388Y-139963893D01*
X117305484Y-139988033D01*
X117285301Y-140010301D01*
X117263033Y-140030484D01*
X117238893Y-140048388D01*
X117213115Y-140063838D01*
X117185947Y-140076688D01*
X117157650Y-140086813D01*
X117128496Y-140094115D01*
X117098768Y-140098525D01*
X117068750Y-140100000D01*
X115931250Y-140100000D01*
X115901232Y-140098525D01*
X115871504Y-140094115D01*
X115842350Y-140086813D01*
X115814053Y-140076688D01*
X115786885Y-140063838D01*
X115761107Y-140048388D01*
X115736967Y-140030484D01*
X115714699Y-140010301D01*
X115694516Y-139988033D01*
X115676612Y-139963893D01*
X115661162Y-139938115D01*
X115648312Y-139910947D01*
X115638187Y-139882650D01*
X115630885Y-139853496D01*
X115626475Y-139823768D01*
X115625000Y-139793750D01*
X115625000Y-138606250D01*
X115626475Y-138576232D01*
X115630885Y-138546504D01*
X115638187Y-138517350D01*
X115648312Y-138489053D01*
X115661162Y-138461885D01*
X115676612Y-138436107D01*
X115694516Y-138411967D01*
X115714699Y-138389699D01*
X115736967Y-138369516D01*
X115761107Y-138351612D01*
X115786885Y-138336162D01*
X115814053Y-138323312D01*
X115842350Y-138313187D01*
X115871504Y-138305885D01*
X115901232Y-138301475D01*
X115931250Y-138300000D01*
X117068750Y-138300000D01*
X117098768Y-138301475D01*
X117098768Y-138301475D01*
G37*
D13*
X116500000Y-139200000D03*
D12*
G36*
X117098768Y-140901475D02*
G01*
X117128496Y-140905885D01*
X117157650Y-140913187D01*
X117185947Y-140923312D01*
X117213115Y-140936162D01*
X117238893Y-140951612D01*
X117263033Y-140969516D01*
X117285301Y-140989699D01*
X117305484Y-141011967D01*
X117323388Y-141036107D01*
X117338838Y-141061885D01*
X117351688Y-141089053D01*
X117361813Y-141117350D01*
X117369115Y-141146504D01*
X117373525Y-141176232D01*
X117375000Y-141206250D01*
X117375000Y-142393750D01*
X117373525Y-142423768D01*
X117369115Y-142453496D01*
X117361813Y-142482650D01*
X117351688Y-142510947D01*
X117338838Y-142538115D01*
X117323388Y-142563893D01*
X117305484Y-142588033D01*
X117285301Y-142610301D01*
X117263033Y-142630484D01*
X117238893Y-142648388D01*
X117213115Y-142663838D01*
X117185947Y-142676688D01*
X117157650Y-142686813D01*
X117128496Y-142694115D01*
X117098768Y-142698525D01*
X117068750Y-142700000D01*
X115931250Y-142700000D01*
X115901232Y-142698525D01*
X115871504Y-142694115D01*
X115842350Y-142686813D01*
X115814053Y-142676688D01*
X115786885Y-142663838D01*
X115761107Y-142648388D01*
X115736967Y-142630484D01*
X115714699Y-142610301D01*
X115694516Y-142588033D01*
X115676612Y-142563893D01*
X115661162Y-142538115D01*
X115648312Y-142510947D01*
X115638187Y-142482650D01*
X115630885Y-142453496D01*
X115626475Y-142423768D01*
X115625000Y-142393750D01*
X115625000Y-141206250D01*
X115626475Y-141176232D01*
X115630885Y-141146504D01*
X115638187Y-141117350D01*
X115648312Y-141089053D01*
X115661162Y-141061885D01*
X115676612Y-141036107D01*
X115694516Y-141011967D01*
X115714699Y-140989699D01*
X115736967Y-140969516D01*
X115761107Y-140951612D01*
X115786885Y-140936162D01*
X115814053Y-140923312D01*
X115842350Y-140913187D01*
X115871504Y-140905885D01*
X115901232Y-140901475D01*
X115931250Y-140900000D01*
X117068750Y-140900000D01*
X117098768Y-140901475D01*
X117098768Y-140901475D01*
G37*
D13*
X116500000Y-141800000D03*
D12*
G36*
X117098768Y-123101475D02*
G01*
X117128496Y-123105885D01*
X117157650Y-123113187D01*
X117185947Y-123123312D01*
X117213115Y-123136162D01*
X117238893Y-123151612D01*
X117263033Y-123169516D01*
X117285301Y-123189699D01*
X117305484Y-123211967D01*
X117323388Y-123236107D01*
X117338838Y-123261885D01*
X117351688Y-123289053D01*
X117361813Y-123317350D01*
X117369115Y-123346504D01*
X117373525Y-123376232D01*
X117375000Y-123406250D01*
X117375000Y-124593750D01*
X117373525Y-124623768D01*
X117369115Y-124653496D01*
X117361813Y-124682650D01*
X117351688Y-124710947D01*
X117338838Y-124738115D01*
X117323388Y-124763893D01*
X117305484Y-124788033D01*
X117285301Y-124810301D01*
X117263033Y-124830484D01*
X117238893Y-124848388D01*
X117213115Y-124863838D01*
X117185947Y-124876688D01*
X117157650Y-124886813D01*
X117128496Y-124894115D01*
X117098768Y-124898525D01*
X117068750Y-124900000D01*
X115931250Y-124900000D01*
X115901232Y-124898525D01*
X115871504Y-124894115D01*
X115842350Y-124886813D01*
X115814053Y-124876688D01*
X115786885Y-124863838D01*
X115761107Y-124848388D01*
X115736967Y-124830484D01*
X115714699Y-124810301D01*
X115694516Y-124788033D01*
X115676612Y-124763893D01*
X115661162Y-124738115D01*
X115648312Y-124710947D01*
X115638187Y-124682650D01*
X115630885Y-124653496D01*
X115626475Y-124623768D01*
X115625000Y-124593750D01*
X115625000Y-123406250D01*
X115626475Y-123376232D01*
X115630885Y-123346504D01*
X115638187Y-123317350D01*
X115648312Y-123289053D01*
X115661162Y-123261885D01*
X115676612Y-123236107D01*
X115694516Y-123211967D01*
X115714699Y-123189699D01*
X115736967Y-123169516D01*
X115761107Y-123151612D01*
X115786885Y-123136162D01*
X115814053Y-123123312D01*
X115842350Y-123113187D01*
X115871504Y-123105885D01*
X115901232Y-123101475D01*
X115931250Y-123100000D01*
X117068750Y-123100000D01*
X117098768Y-123101475D01*
X117098768Y-123101475D01*
G37*
D13*
X116500000Y-124000000D03*
D12*
G36*
X117098768Y-125701475D02*
G01*
X117128496Y-125705885D01*
X117157650Y-125713187D01*
X117185947Y-125723312D01*
X117213115Y-125736162D01*
X117238893Y-125751612D01*
X117263033Y-125769516D01*
X117285301Y-125789699D01*
X117305484Y-125811967D01*
X117323388Y-125836107D01*
X117338838Y-125861885D01*
X117351688Y-125889053D01*
X117361813Y-125917350D01*
X117369115Y-125946504D01*
X117373525Y-125976232D01*
X117375000Y-126006250D01*
X117375000Y-127193750D01*
X117373525Y-127223768D01*
X117369115Y-127253496D01*
X117361813Y-127282650D01*
X117351688Y-127310947D01*
X117338838Y-127338115D01*
X117323388Y-127363893D01*
X117305484Y-127388033D01*
X117285301Y-127410301D01*
X117263033Y-127430484D01*
X117238893Y-127448388D01*
X117213115Y-127463838D01*
X117185947Y-127476688D01*
X117157650Y-127486813D01*
X117128496Y-127494115D01*
X117098768Y-127498525D01*
X117068750Y-127500000D01*
X115931250Y-127500000D01*
X115901232Y-127498525D01*
X115871504Y-127494115D01*
X115842350Y-127486813D01*
X115814053Y-127476688D01*
X115786885Y-127463838D01*
X115761107Y-127448388D01*
X115736967Y-127430484D01*
X115714699Y-127410301D01*
X115694516Y-127388033D01*
X115676612Y-127363893D01*
X115661162Y-127338115D01*
X115648312Y-127310947D01*
X115638187Y-127282650D01*
X115630885Y-127253496D01*
X115626475Y-127223768D01*
X115625000Y-127193750D01*
X115625000Y-126006250D01*
X115626475Y-125976232D01*
X115630885Y-125946504D01*
X115638187Y-125917350D01*
X115648312Y-125889053D01*
X115661162Y-125861885D01*
X115676612Y-125836107D01*
X115694516Y-125811967D01*
X115714699Y-125789699D01*
X115736967Y-125769516D01*
X115761107Y-125751612D01*
X115786885Y-125736162D01*
X115814053Y-125723312D01*
X115842350Y-125713187D01*
X115871504Y-125705885D01*
X115901232Y-125701475D01*
X115931250Y-125700000D01*
X117068750Y-125700000D01*
X117098768Y-125701475D01*
X117098768Y-125701475D01*
G37*
D13*
X116500000Y-126600000D03*
M02*
