G04 #@! TF.GenerationSoftware,KiCad,Pcbnew,(5.1.4)-1*
G04 #@! TF.CreationDate,2021-09-06T00:09:17-04:00*
G04 #@! TF.ProjectId,controller_power_filter,636f6e74-726f-46c6-9c65-725f706f7765,rev?*
G04 #@! TF.SameCoordinates,Original*
G04 #@! TF.FileFunction,Soldermask,Bot*
G04 #@! TF.FilePolarity,Negative*
%FSLAX46Y46*%
G04 Gerber Fmt 4.6, Leading zero omitted, Abs format (unit mm)*
G04 Created by KiCad (PCBNEW (5.1.4)-1) date 2021-09-06 00:09:17*
%MOMM*%
%LPD*%
G04 APERTURE LIST*
%ADD10C,0.100000*%
G04 APERTURE END LIST*
D10*
G36*
X127606564Y-145489389D02*
G01*
X127797836Y-145568616D01*
X127830555Y-145590478D01*
X127852165Y-145602029D01*
X127875614Y-145609142D01*
X127900001Y-145611544D01*
X127924387Y-145609142D01*
X127947836Y-145602029D01*
X127969445Y-145590478D01*
X128002164Y-145568616D01*
X128193436Y-145489389D01*
X128396484Y-145449000D01*
X128603516Y-145449000D01*
X128806564Y-145489389D01*
X128997833Y-145568615D01*
X128997835Y-145568616D01*
X129169973Y-145683635D01*
X129316365Y-145830027D01*
X129384090Y-145931384D01*
X129431385Y-146002167D01*
X129510611Y-146193436D01*
X129551000Y-146396484D01*
X129551000Y-146603516D01*
X129510611Y-146806564D01*
X129492205Y-146851000D01*
X129431384Y-146997835D01*
X129316365Y-147169973D01*
X129169973Y-147316365D01*
X128997835Y-147431384D01*
X128997834Y-147431385D01*
X128997833Y-147431385D01*
X128806564Y-147510611D01*
X128603516Y-147551000D01*
X128396484Y-147551000D01*
X128193436Y-147510611D01*
X128002164Y-147431384D01*
X127969445Y-147409522D01*
X127947835Y-147397971D01*
X127924386Y-147390858D01*
X127899999Y-147388456D01*
X127875613Y-147390858D01*
X127852164Y-147397971D01*
X127830555Y-147409522D01*
X127797836Y-147431384D01*
X127606564Y-147510611D01*
X127403516Y-147551000D01*
X127196484Y-147551000D01*
X126993436Y-147510611D01*
X126802167Y-147431385D01*
X126802166Y-147431385D01*
X126802165Y-147431384D01*
X126630027Y-147316365D01*
X126483635Y-147169973D01*
X126368616Y-146997835D01*
X126307795Y-146851000D01*
X126289389Y-146806564D01*
X126249000Y-146603516D01*
X126249000Y-146396484D01*
X126289389Y-146193436D01*
X126368615Y-146002167D01*
X126415911Y-145931384D01*
X126483635Y-145830027D01*
X126630027Y-145683635D01*
X126802165Y-145568616D01*
X126802167Y-145568615D01*
X126993436Y-145489389D01*
X127196484Y-145449000D01*
X127403516Y-145449000D01*
X127606564Y-145489389D01*
X127606564Y-145489389D01*
G37*
G36*
X118806564Y-145489389D02*
G01*
X118997836Y-145568616D01*
X119030555Y-145590478D01*
X119052165Y-145602029D01*
X119075614Y-145609142D01*
X119100001Y-145611544D01*
X119124387Y-145609142D01*
X119147836Y-145602029D01*
X119169445Y-145590478D01*
X119202164Y-145568616D01*
X119393436Y-145489389D01*
X119596484Y-145449000D01*
X119803516Y-145449000D01*
X120006564Y-145489389D01*
X120197833Y-145568615D01*
X120197835Y-145568616D01*
X120369973Y-145683635D01*
X120516365Y-145830027D01*
X120584090Y-145931384D01*
X120631385Y-146002167D01*
X120710611Y-146193436D01*
X120751000Y-146396484D01*
X120751000Y-146603516D01*
X120710611Y-146806564D01*
X120692205Y-146851000D01*
X120631384Y-146997835D01*
X120516365Y-147169973D01*
X120369973Y-147316365D01*
X120197835Y-147431384D01*
X120197834Y-147431385D01*
X120197833Y-147431385D01*
X120006564Y-147510611D01*
X119803516Y-147551000D01*
X119596484Y-147551000D01*
X119393436Y-147510611D01*
X119202164Y-147431384D01*
X119169445Y-147409522D01*
X119147835Y-147397971D01*
X119124386Y-147390858D01*
X119099999Y-147388456D01*
X119075613Y-147390858D01*
X119052164Y-147397971D01*
X119030555Y-147409522D01*
X118997836Y-147431384D01*
X118806564Y-147510611D01*
X118603516Y-147551000D01*
X118396484Y-147551000D01*
X118193436Y-147510611D01*
X118002167Y-147431385D01*
X118002166Y-147431385D01*
X118002165Y-147431384D01*
X117830027Y-147316365D01*
X117683635Y-147169973D01*
X117568616Y-146997835D01*
X117507795Y-146851000D01*
X117489389Y-146806564D01*
X117449000Y-146603516D01*
X117449000Y-146396484D01*
X117489389Y-146193436D01*
X117568615Y-146002167D01*
X117615911Y-145931384D01*
X117683635Y-145830027D01*
X117830027Y-145683635D01*
X118002165Y-145568616D01*
X118002167Y-145568615D01*
X118193436Y-145489389D01*
X118396484Y-145449000D01*
X118603516Y-145449000D01*
X118806564Y-145489389D01*
X118806564Y-145489389D01*
G37*
G36*
X116306564Y-145489389D02*
G01*
X116497833Y-145568615D01*
X116497835Y-145568616D01*
X116669973Y-145683635D01*
X116816365Y-145830027D01*
X116884090Y-145931384D01*
X116931385Y-146002167D01*
X117010611Y-146193436D01*
X117051000Y-146396484D01*
X117051000Y-146603516D01*
X117010611Y-146806564D01*
X116992205Y-146851000D01*
X116931384Y-146997835D01*
X116816365Y-147169973D01*
X116669973Y-147316365D01*
X116497835Y-147431384D01*
X116497834Y-147431385D01*
X116497833Y-147431385D01*
X116306564Y-147510611D01*
X116103516Y-147551000D01*
X115896484Y-147551000D01*
X115693436Y-147510611D01*
X115502167Y-147431385D01*
X115502166Y-147431385D01*
X115502165Y-147431384D01*
X115330027Y-147316365D01*
X115183635Y-147169973D01*
X115068616Y-146997835D01*
X115007795Y-146851000D01*
X114989389Y-146806564D01*
X114949000Y-146603516D01*
X114949000Y-146396484D01*
X114989389Y-146193436D01*
X115068615Y-146002167D01*
X115115911Y-145931384D01*
X115183635Y-145830027D01*
X115330027Y-145683635D01*
X115502165Y-145568616D01*
X115502167Y-145568615D01*
X115693436Y-145489389D01*
X115896484Y-145449000D01*
X116103516Y-145449000D01*
X116306564Y-145489389D01*
X116306564Y-145489389D01*
G37*
G36*
X131306564Y-145489389D02*
G01*
X131497833Y-145568615D01*
X131497835Y-145568616D01*
X131669973Y-145683635D01*
X131816365Y-145830027D01*
X131884090Y-145931384D01*
X131931385Y-146002167D01*
X132010611Y-146193436D01*
X132051000Y-146396484D01*
X132051000Y-146603516D01*
X132010611Y-146806564D01*
X131992205Y-146851000D01*
X131931384Y-146997835D01*
X131816365Y-147169973D01*
X131669973Y-147316365D01*
X131497835Y-147431384D01*
X131497834Y-147431385D01*
X131497833Y-147431385D01*
X131306564Y-147510611D01*
X131103516Y-147551000D01*
X130896484Y-147551000D01*
X130693436Y-147510611D01*
X130502167Y-147431385D01*
X130502166Y-147431385D01*
X130502165Y-147431384D01*
X130330027Y-147316365D01*
X130183635Y-147169973D01*
X130068616Y-146997835D01*
X130007795Y-146851000D01*
X129989389Y-146806564D01*
X129949000Y-146603516D01*
X129949000Y-146396484D01*
X129989389Y-146193436D01*
X130068615Y-146002167D01*
X130115911Y-145931384D01*
X130183635Y-145830027D01*
X130330027Y-145683635D01*
X130502165Y-145568616D01*
X130502167Y-145568615D01*
X130693436Y-145489389D01*
X130896484Y-145449000D01*
X131103516Y-145449000D01*
X131306564Y-145489389D01*
X131306564Y-145489389D01*
G37*
G36*
X147106430Y-143183635D02*
G01*
X147289917Y-143220133D01*
X147429448Y-143277929D01*
X147626776Y-143359664D01*
X147929943Y-143562234D01*
X148187766Y-143820057D01*
X148390336Y-144123224D01*
X148441950Y-144247833D01*
X148529867Y-144460083D01*
X148538238Y-144502167D01*
X148599573Y-144810515D01*
X148601000Y-144817692D01*
X148601000Y-145182308D01*
X148538238Y-145497835D01*
X148529867Y-145539916D01*
X148390336Y-145876776D01*
X148187766Y-146179943D01*
X147929943Y-146437766D01*
X147626776Y-146640336D01*
X147429448Y-146722071D01*
X147289917Y-146779867D01*
X147155702Y-146806564D01*
X146932309Y-146851000D01*
X146567691Y-146851000D01*
X146344298Y-146806564D01*
X146210083Y-146779867D01*
X146070552Y-146722071D01*
X145873224Y-146640336D01*
X145570057Y-146437766D01*
X145312234Y-146179943D01*
X145109664Y-145876776D01*
X144970133Y-145539916D01*
X144961763Y-145497835D01*
X144899000Y-145182308D01*
X144899000Y-144817692D01*
X144900428Y-144810515D01*
X144961762Y-144502167D01*
X144970133Y-144460083D01*
X145058050Y-144247833D01*
X145109664Y-144123224D01*
X145312234Y-143820057D01*
X145570057Y-143562234D01*
X145873224Y-143359664D01*
X146070552Y-143277929D01*
X146210083Y-143220133D01*
X146393570Y-143183635D01*
X146567691Y-143149000D01*
X146932309Y-143149000D01*
X147106430Y-143183635D01*
X147106430Y-143183635D01*
G37*
G36*
X105556564Y-142739389D02*
G01*
X105747833Y-142818615D01*
X105747835Y-142818616D01*
X105919973Y-142933635D01*
X106066365Y-143080027D01*
X106178491Y-143247835D01*
X106181385Y-143252167D01*
X106260611Y-143443436D01*
X106301000Y-143646484D01*
X106301000Y-143824001D01*
X106303402Y-143848387D01*
X106310515Y-143871836D01*
X106322066Y-143893447D01*
X106337611Y-143912389D01*
X106356553Y-143927934D01*
X106378164Y-143939485D01*
X106401613Y-143946598D01*
X106425999Y-143949000D01*
X106603516Y-143949000D01*
X106806564Y-143989389D01*
X106997833Y-144068615D01*
X106997835Y-144068616D01*
X107169973Y-144183635D01*
X107316365Y-144330027D01*
X107428491Y-144497835D01*
X107431385Y-144502167D01*
X107510611Y-144693436D01*
X107551000Y-144896484D01*
X107551000Y-145103516D01*
X107510611Y-145306564D01*
X107434882Y-145489390D01*
X107431384Y-145497835D01*
X107316365Y-145669973D01*
X107169973Y-145816365D01*
X106997835Y-145931384D01*
X106997834Y-145931385D01*
X106997833Y-145931385D01*
X106806564Y-146010611D01*
X106603516Y-146051000D01*
X106396484Y-146051000D01*
X106193436Y-146010611D01*
X106002167Y-145931385D01*
X106002166Y-145931385D01*
X106002165Y-145931384D01*
X105830027Y-145816365D01*
X105683635Y-145669973D01*
X105568616Y-145497835D01*
X105565118Y-145489390D01*
X105489389Y-145306564D01*
X105449000Y-145103516D01*
X105449000Y-144925999D01*
X105446598Y-144901613D01*
X105439485Y-144878164D01*
X105427934Y-144856553D01*
X105412389Y-144837611D01*
X105393447Y-144822066D01*
X105371836Y-144810515D01*
X105348387Y-144803402D01*
X105324001Y-144801000D01*
X105146484Y-144801000D01*
X104943436Y-144760611D01*
X104752167Y-144681385D01*
X104752166Y-144681385D01*
X104752165Y-144681384D01*
X104580027Y-144566365D01*
X104433635Y-144419973D01*
X104318616Y-144247835D01*
X104318615Y-144247833D01*
X104239389Y-144056564D01*
X104199000Y-143853516D01*
X104199000Y-143646484D01*
X104239389Y-143443436D01*
X104318615Y-143252167D01*
X104321510Y-143247835D01*
X104433635Y-143080027D01*
X104580027Y-142933635D01*
X104752165Y-142818616D01*
X104752167Y-142818615D01*
X104943436Y-142739389D01*
X105146484Y-142699000D01*
X105353516Y-142699000D01*
X105556564Y-142739389D01*
X105556564Y-142739389D01*
G37*
G36*
X163056564Y-141739389D02*
G01*
X163181164Y-141791000D01*
X163247835Y-141818616D01*
X163419973Y-141933635D01*
X163566365Y-142080027D01*
X163681385Y-142252167D01*
X163760611Y-142443436D01*
X163801000Y-142646484D01*
X163801000Y-142824001D01*
X163803402Y-142848387D01*
X163810515Y-142871836D01*
X163822066Y-142893447D01*
X163837611Y-142912389D01*
X163856553Y-142927934D01*
X163878164Y-142939485D01*
X163901613Y-142946598D01*
X163925999Y-142949000D01*
X164103516Y-142949000D01*
X164306564Y-142989389D01*
X164497833Y-143068615D01*
X164497835Y-143068616D01*
X164669973Y-143183635D01*
X164816365Y-143330027D01*
X164892143Y-143443436D01*
X164931385Y-143502167D01*
X165010611Y-143693436D01*
X165051000Y-143896484D01*
X165051000Y-144103516D01*
X165010611Y-144306564D01*
X164947021Y-144460084D01*
X164931384Y-144497835D01*
X164816365Y-144669973D01*
X164669973Y-144816365D01*
X164497835Y-144931384D01*
X164497834Y-144931385D01*
X164497833Y-144931385D01*
X164306564Y-145010611D01*
X164103516Y-145051000D01*
X163896484Y-145051000D01*
X163693436Y-145010611D01*
X163502167Y-144931385D01*
X163502166Y-144931385D01*
X163502165Y-144931384D01*
X163330027Y-144816365D01*
X163183635Y-144669973D01*
X163068616Y-144497835D01*
X163052979Y-144460084D01*
X162989389Y-144306564D01*
X162949000Y-144103516D01*
X162949000Y-143925999D01*
X162946598Y-143901613D01*
X162939485Y-143878164D01*
X162927934Y-143856553D01*
X162912389Y-143837611D01*
X162893447Y-143822066D01*
X162871836Y-143810515D01*
X162848387Y-143803402D01*
X162824001Y-143801000D01*
X162646484Y-143801000D01*
X162443436Y-143760611D01*
X162252167Y-143681385D01*
X162252166Y-143681385D01*
X162252165Y-143681384D01*
X162080027Y-143566365D01*
X161933635Y-143419973D01*
X161818616Y-143247835D01*
X161818615Y-143247833D01*
X161739389Y-143056564D01*
X161699000Y-142853516D01*
X161699000Y-142646484D01*
X161739389Y-142443436D01*
X161818615Y-142252167D01*
X161933635Y-142080027D01*
X162080027Y-141933635D01*
X162252165Y-141818616D01*
X162318836Y-141791000D01*
X162443436Y-141739389D01*
X162646484Y-141699000D01*
X162853516Y-141699000D01*
X163056564Y-141739389D01*
X163056564Y-141739389D01*
G37*
G36*
X175056564Y-141739389D02*
G01*
X175181164Y-141791000D01*
X175247835Y-141818616D01*
X175419973Y-141933635D01*
X175566365Y-142080027D01*
X175681385Y-142252167D01*
X175760611Y-142443436D01*
X175801000Y-142646484D01*
X175801000Y-142824001D01*
X175803402Y-142848387D01*
X175810515Y-142871836D01*
X175822066Y-142893447D01*
X175837611Y-142912389D01*
X175856553Y-142927934D01*
X175878164Y-142939485D01*
X175901613Y-142946598D01*
X175925999Y-142949000D01*
X176103516Y-142949000D01*
X176306564Y-142989389D01*
X176497833Y-143068615D01*
X176497835Y-143068616D01*
X176669973Y-143183635D01*
X176816365Y-143330027D01*
X176892143Y-143443436D01*
X176931385Y-143502167D01*
X177010611Y-143693436D01*
X177051000Y-143896484D01*
X177051000Y-144103516D01*
X177010611Y-144306564D01*
X176947021Y-144460084D01*
X176931384Y-144497835D01*
X176816365Y-144669973D01*
X176669973Y-144816365D01*
X176497835Y-144931384D01*
X176497834Y-144931385D01*
X176497833Y-144931385D01*
X176306564Y-145010611D01*
X176103516Y-145051000D01*
X175896484Y-145051000D01*
X175693436Y-145010611D01*
X175502167Y-144931385D01*
X175502166Y-144931385D01*
X175502165Y-144931384D01*
X175330027Y-144816365D01*
X175183635Y-144669973D01*
X175068616Y-144497835D01*
X175052979Y-144460084D01*
X174989389Y-144306564D01*
X174949000Y-144103516D01*
X174949000Y-143925999D01*
X174946598Y-143901613D01*
X174939485Y-143878164D01*
X174927934Y-143856553D01*
X174912389Y-143837611D01*
X174893447Y-143822066D01*
X174871836Y-143810515D01*
X174848387Y-143803402D01*
X174824001Y-143801000D01*
X174646484Y-143801000D01*
X174443436Y-143760611D01*
X174252167Y-143681385D01*
X174252166Y-143681385D01*
X174252165Y-143681384D01*
X174080027Y-143566365D01*
X173933635Y-143419973D01*
X173818616Y-143247835D01*
X173818615Y-143247833D01*
X173739389Y-143056564D01*
X173699000Y-142853516D01*
X173699000Y-142646484D01*
X173739389Y-142443436D01*
X173818615Y-142252167D01*
X173933635Y-142080027D01*
X174080027Y-141933635D01*
X174252165Y-141818616D01*
X174318836Y-141791000D01*
X174443436Y-141739389D01*
X174646484Y-141699000D01*
X174853516Y-141699000D01*
X175056564Y-141739389D01*
X175056564Y-141739389D01*
G37*
G36*
X117230411Y-140854259D02*
G01*
X117275853Y-140868044D01*
X117317736Y-140890431D01*
X117354444Y-140920556D01*
X117384569Y-140957264D01*
X117406956Y-140999147D01*
X117420741Y-141044589D01*
X117426000Y-141097990D01*
X117426000Y-142502010D01*
X117420741Y-142555411D01*
X117406956Y-142600853D01*
X117384569Y-142642736D01*
X117354444Y-142679444D01*
X117317736Y-142709569D01*
X117275853Y-142731956D01*
X117230411Y-142745741D01*
X117177010Y-142751000D01*
X115822990Y-142751000D01*
X115769589Y-142745741D01*
X115724147Y-142731956D01*
X115682264Y-142709569D01*
X115645556Y-142679444D01*
X115615431Y-142642736D01*
X115593044Y-142600853D01*
X115579259Y-142555411D01*
X115574000Y-142502010D01*
X115574000Y-141097990D01*
X115579259Y-141044589D01*
X115593044Y-140999147D01*
X115615431Y-140957264D01*
X115645556Y-140920556D01*
X115682264Y-140890431D01*
X115724147Y-140868044D01*
X115769589Y-140854259D01*
X115822990Y-140849000D01*
X117177010Y-140849000D01*
X117230411Y-140854259D01*
X117230411Y-140854259D01*
G37*
G36*
X107551000Y-140074001D02*
G01*
X107553402Y-140098387D01*
X107560515Y-140121836D01*
X107572066Y-140143447D01*
X107587611Y-140162389D01*
X107606553Y-140177934D01*
X107628164Y-140189485D01*
X107651613Y-140196598D01*
X107675999Y-140199000D01*
X108801000Y-140199000D01*
X108801000Y-142301000D01*
X106699000Y-142301000D01*
X106699000Y-141175999D01*
X106696598Y-141151613D01*
X106689485Y-141128164D01*
X106677934Y-141106553D01*
X106662389Y-141087611D01*
X106643447Y-141072066D01*
X106621836Y-141060515D01*
X106598387Y-141053402D01*
X106574001Y-141051000D01*
X105449000Y-141051000D01*
X105449000Y-138949000D01*
X107551000Y-138949000D01*
X107551000Y-140074001D01*
X107551000Y-140074001D01*
G37*
G36*
X182426000Y-142301000D02*
G01*
X180124000Y-142301000D01*
X180124000Y-141149000D01*
X182426000Y-141149000D01*
X182426000Y-142301000D01*
X182426000Y-142301000D01*
G37*
G36*
X97302585Y-138718802D02*
G01*
X97452410Y-138748604D01*
X97734674Y-138865521D01*
X97988705Y-139035259D01*
X98204741Y-139251295D01*
X98374479Y-139505326D01*
X98491396Y-139787590D01*
X98521198Y-139937415D01*
X98543792Y-140051000D01*
X98551000Y-140087240D01*
X98551000Y-140392760D01*
X98491396Y-140692410D01*
X98374479Y-140974674D01*
X98204741Y-141228705D01*
X97988705Y-141444741D01*
X97734674Y-141614479D01*
X97452410Y-141731396D01*
X97412226Y-141739389D01*
X97152761Y-141791000D01*
X96847239Y-141791000D01*
X96587774Y-141739389D01*
X96547590Y-141731396D01*
X96265326Y-141614479D01*
X96011295Y-141444741D01*
X95795259Y-141228705D01*
X95625521Y-140974674D01*
X95508604Y-140692410D01*
X95449000Y-140392760D01*
X95449000Y-140087240D01*
X95456209Y-140051000D01*
X95478802Y-139937415D01*
X95508604Y-139787590D01*
X95625521Y-139505326D01*
X95795259Y-139251295D01*
X96011295Y-139035259D01*
X96265326Y-138865521D01*
X96547590Y-138748604D01*
X96697415Y-138718802D01*
X96847239Y-138689000D01*
X97152761Y-138689000D01*
X97302585Y-138718802D01*
X97302585Y-138718802D01*
G37*
G36*
X186052585Y-138638802D02*
G01*
X186202410Y-138668604D01*
X186484674Y-138785521D01*
X186738705Y-138955259D01*
X186954741Y-139171295D01*
X187124479Y-139425326D01*
X187241396Y-139707590D01*
X187241396Y-139707591D01*
X187300945Y-140006960D01*
X187301000Y-140007240D01*
X187301000Y-140312760D01*
X187241396Y-140612410D01*
X187124479Y-140894674D01*
X186954741Y-141148705D01*
X186738705Y-141364741D01*
X186484674Y-141534479D01*
X186202410Y-141651396D01*
X186052585Y-141681198D01*
X185902761Y-141711000D01*
X185597239Y-141711000D01*
X185447415Y-141681198D01*
X185297590Y-141651396D01*
X185015326Y-141534479D01*
X184761295Y-141364741D01*
X184545259Y-141148705D01*
X184375521Y-140894674D01*
X184258604Y-140612410D01*
X184199000Y-140312760D01*
X184199000Y-140007240D01*
X184199056Y-140006960D01*
X184258604Y-139707591D01*
X184258604Y-139707590D01*
X184375521Y-139425326D01*
X184545259Y-139171295D01*
X184761295Y-138955259D01*
X185015326Y-138785521D01*
X185297590Y-138668604D01*
X185447415Y-138638802D01*
X185597239Y-138609000D01*
X185902761Y-138609000D01*
X186052585Y-138638802D01*
X186052585Y-138638802D01*
G37*
G36*
X165051000Y-139074001D02*
G01*
X165053402Y-139098387D01*
X165060515Y-139121836D01*
X165072066Y-139143447D01*
X165087611Y-139162389D01*
X165106553Y-139177934D01*
X165128164Y-139189485D01*
X165151613Y-139196598D01*
X165175999Y-139199000D01*
X166301000Y-139199000D01*
X166301000Y-141301000D01*
X164199000Y-141301000D01*
X164199000Y-140175999D01*
X164196598Y-140151613D01*
X164189485Y-140128164D01*
X164177934Y-140106553D01*
X164162389Y-140087611D01*
X164143447Y-140072066D01*
X164121836Y-140060515D01*
X164098387Y-140053402D01*
X164074001Y-140051000D01*
X162949000Y-140051000D01*
X162949000Y-137949000D01*
X165051000Y-137949000D01*
X165051000Y-139074001D01*
X165051000Y-139074001D01*
G37*
G36*
X177051000Y-139074001D02*
G01*
X177053402Y-139098387D01*
X177060515Y-139121836D01*
X177072066Y-139143447D01*
X177087611Y-139162389D01*
X177106553Y-139177934D01*
X177128164Y-139189485D01*
X177151613Y-139196598D01*
X177175999Y-139199000D01*
X178301000Y-139199000D01*
X178301000Y-141301000D01*
X176199000Y-141301000D01*
X176199000Y-140175999D01*
X176196598Y-140151613D01*
X176189485Y-140128164D01*
X176177934Y-140106553D01*
X176162389Y-140087611D01*
X176143447Y-140072066D01*
X176121836Y-140060515D01*
X176098387Y-140053402D01*
X176074001Y-140051000D01*
X174949000Y-140051000D01*
X174949000Y-137949000D01*
X177051000Y-137949000D01*
X177051000Y-139074001D01*
X177051000Y-139074001D01*
G37*
G36*
X183376000Y-140801000D02*
G01*
X182224000Y-140801000D01*
X182224000Y-139699000D01*
X183376000Y-139699000D01*
X183376000Y-140801000D01*
X183376000Y-140801000D01*
G37*
G36*
X117230411Y-138254259D02*
G01*
X117275853Y-138268044D01*
X117317736Y-138290431D01*
X117354444Y-138320556D01*
X117384569Y-138357264D01*
X117406956Y-138399147D01*
X117420741Y-138444589D01*
X117426000Y-138497990D01*
X117426000Y-139902010D01*
X117420741Y-139955411D01*
X117406956Y-140000853D01*
X117384569Y-140042736D01*
X117354444Y-140079444D01*
X117317736Y-140109569D01*
X117275853Y-140131956D01*
X117230411Y-140145741D01*
X117177010Y-140151000D01*
X115822990Y-140151000D01*
X115769589Y-140145741D01*
X115724147Y-140131956D01*
X115682264Y-140109569D01*
X115645556Y-140079444D01*
X115615431Y-140042736D01*
X115593044Y-140000853D01*
X115579259Y-139955411D01*
X115574000Y-139902010D01*
X115574000Y-138497990D01*
X115579259Y-138444589D01*
X115593044Y-138399147D01*
X115615431Y-138357264D01*
X115645556Y-138320556D01*
X115682264Y-138290431D01*
X115724147Y-138268044D01*
X115769589Y-138254259D01*
X115822990Y-138249000D01*
X117177010Y-138249000D01*
X117230411Y-138254259D01*
X117230411Y-138254259D01*
G37*
G36*
X182426000Y-139351000D02*
G01*
X180124000Y-139351000D01*
X180124000Y-138199000D01*
X182426000Y-138199000D01*
X182426000Y-139351000D01*
X182426000Y-139351000D01*
G37*
G36*
X147111113Y-135564567D02*
G01*
X147289917Y-135600133D01*
X147319556Y-135612410D01*
X147626776Y-135739664D01*
X147929943Y-135942234D01*
X148187766Y-136200057D01*
X148390336Y-136503224D01*
X148529867Y-136840084D01*
X148601000Y-137197691D01*
X148601000Y-137562309D01*
X148529867Y-137919916D01*
X148390336Y-138256776D01*
X148187766Y-138559943D01*
X147929943Y-138817766D01*
X147626776Y-139020336D01*
X147497216Y-139074001D01*
X147289917Y-139159867D01*
X147111112Y-139195434D01*
X146932309Y-139231000D01*
X146567691Y-139231000D01*
X146388888Y-139195434D01*
X146210083Y-139159867D01*
X146002784Y-139074001D01*
X145873224Y-139020336D01*
X145570057Y-138817766D01*
X145312234Y-138559943D01*
X145109664Y-138256776D01*
X144970133Y-137919916D01*
X144899000Y-137562309D01*
X144899000Y-137197691D01*
X144970133Y-136840084D01*
X145109664Y-136503224D01*
X145312234Y-136200057D01*
X145570057Y-135942234D01*
X145873224Y-135739664D01*
X146180444Y-135612410D01*
X146210083Y-135600133D01*
X146388887Y-135564567D01*
X146567691Y-135529000D01*
X146932309Y-135529000D01*
X147111113Y-135564567D01*
X147111113Y-135564567D01*
G37*
G36*
X131306564Y-135489389D02*
G01*
X131497833Y-135568615D01*
X131497835Y-135568616D01*
X131545003Y-135600133D01*
X131669973Y-135683635D01*
X131816365Y-135830027D01*
X131931385Y-136002167D01*
X132010611Y-136193436D01*
X132051000Y-136396484D01*
X132051000Y-136603516D01*
X132010611Y-136806564D01*
X131931385Y-136997833D01*
X131931384Y-136997835D01*
X131816365Y-137169973D01*
X131669973Y-137316365D01*
X131497835Y-137431384D01*
X131497834Y-137431385D01*
X131497833Y-137431385D01*
X131306564Y-137510611D01*
X131103516Y-137551000D01*
X130896484Y-137551000D01*
X130693436Y-137510611D01*
X130502167Y-137431385D01*
X130502166Y-137431385D01*
X130502165Y-137431384D01*
X130330027Y-137316365D01*
X130183635Y-137169973D01*
X130068616Y-136997835D01*
X130068615Y-136997833D01*
X129989389Y-136806564D01*
X129949000Y-136603516D01*
X129949000Y-136396484D01*
X129989389Y-136193436D01*
X130068615Y-136002167D01*
X130183635Y-135830027D01*
X130330027Y-135683635D01*
X130454997Y-135600133D01*
X130502165Y-135568616D01*
X130502167Y-135568615D01*
X130693436Y-135489389D01*
X130896484Y-135449000D01*
X131103516Y-135449000D01*
X131306564Y-135489389D01*
X131306564Y-135489389D01*
G37*
G36*
X120751000Y-137551000D02*
G01*
X117449000Y-137551000D01*
X117449000Y-135449000D01*
X120751000Y-135449000D01*
X120751000Y-137551000D01*
X120751000Y-137551000D01*
G37*
G36*
X117051000Y-137551000D02*
G01*
X114949000Y-137551000D01*
X114949000Y-135449000D01*
X117051000Y-135449000D01*
X117051000Y-137551000D01*
X117051000Y-137551000D01*
G37*
G36*
X127606564Y-135489389D02*
G01*
X127797836Y-135568616D01*
X127830555Y-135590478D01*
X127852165Y-135602029D01*
X127875614Y-135609142D01*
X127900001Y-135611544D01*
X127924387Y-135609142D01*
X127947836Y-135602029D01*
X127969445Y-135590478D01*
X128002164Y-135568616D01*
X128193436Y-135489389D01*
X128396484Y-135449000D01*
X128603516Y-135449000D01*
X128806564Y-135489389D01*
X128997833Y-135568615D01*
X128997835Y-135568616D01*
X129045003Y-135600133D01*
X129169973Y-135683635D01*
X129316365Y-135830027D01*
X129431385Y-136002167D01*
X129510611Y-136193436D01*
X129551000Y-136396484D01*
X129551000Y-136603516D01*
X129510611Y-136806564D01*
X129431385Y-136997833D01*
X129431384Y-136997835D01*
X129316365Y-137169973D01*
X129169973Y-137316365D01*
X128997835Y-137431384D01*
X128997834Y-137431385D01*
X128997833Y-137431385D01*
X128806564Y-137510611D01*
X128603516Y-137551000D01*
X128396484Y-137551000D01*
X128193436Y-137510611D01*
X128002164Y-137431384D01*
X127969445Y-137409522D01*
X127947835Y-137397971D01*
X127924386Y-137390858D01*
X127899999Y-137388456D01*
X127875613Y-137390858D01*
X127852164Y-137397971D01*
X127830555Y-137409522D01*
X127797836Y-137431384D01*
X127606564Y-137510611D01*
X127403516Y-137551000D01*
X127196484Y-137551000D01*
X126993436Y-137510611D01*
X126802167Y-137431385D01*
X126802166Y-137431385D01*
X126802165Y-137431384D01*
X126630027Y-137316365D01*
X126483635Y-137169973D01*
X126368616Y-136997835D01*
X126368615Y-136997833D01*
X126289389Y-136806564D01*
X126249000Y-136603516D01*
X126249000Y-136396484D01*
X126289389Y-136193436D01*
X126368615Y-136002167D01*
X126483635Y-135830027D01*
X126630027Y-135683635D01*
X126754997Y-135600133D01*
X126802165Y-135568616D01*
X126802167Y-135568615D01*
X126993436Y-135489389D01*
X127196484Y-135449000D01*
X127403516Y-135449000D01*
X127606564Y-135489389D01*
X127606564Y-135489389D01*
G37*
G36*
X97302585Y-133638802D02*
G01*
X97452410Y-133668604D01*
X97734674Y-133785521D01*
X97988705Y-133955259D01*
X98204741Y-134171295D01*
X98374479Y-134425326D01*
X98491396Y-134707590D01*
X98551000Y-135007240D01*
X98551000Y-135312760D01*
X98491396Y-135612410D01*
X98374479Y-135894674D01*
X98204741Y-136148705D01*
X97988705Y-136364741D01*
X97734674Y-136534479D01*
X97452410Y-136651396D01*
X97302585Y-136681198D01*
X97152761Y-136711000D01*
X96847239Y-136711000D01*
X96697415Y-136681198D01*
X96547590Y-136651396D01*
X96265326Y-136534479D01*
X96011295Y-136364741D01*
X95795259Y-136148705D01*
X95625521Y-135894674D01*
X95508604Y-135612410D01*
X95449000Y-135312760D01*
X95449000Y-135007240D01*
X95508604Y-134707590D01*
X95625521Y-134425326D01*
X95795259Y-134171295D01*
X96011295Y-133955259D01*
X96265326Y-133785521D01*
X96547590Y-133668604D01*
X96697415Y-133638802D01*
X96847239Y-133609000D01*
X97152761Y-133609000D01*
X97302585Y-133638802D01*
X97302585Y-133638802D01*
G37*
G36*
X186052585Y-133558802D02*
G01*
X186202410Y-133588604D01*
X186484674Y-133705521D01*
X186738705Y-133875259D01*
X186954741Y-134091295D01*
X187124479Y-134345326D01*
X187241396Y-134627590D01*
X187301000Y-134927240D01*
X187301000Y-135232760D01*
X187241396Y-135532410D01*
X187124479Y-135814674D01*
X186954741Y-136068705D01*
X186738705Y-136284741D01*
X186484674Y-136454479D01*
X186202410Y-136571396D01*
X186052585Y-136601198D01*
X185902761Y-136631000D01*
X185597239Y-136631000D01*
X185447415Y-136601198D01*
X185297590Y-136571396D01*
X185015326Y-136454479D01*
X184761295Y-136284741D01*
X184545259Y-136068705D01*
X184375521Y-135814674D01*
X184258604Y-135532410D01*
X184199000Y-135232760D01*
X184199000Y-134927240D01*
X184258604Y-134627590D01*
X184375521Y-134345326D01*
X184545259Y-134091295D01*
X184761295Y-133875259D01*
X185015326Y-133705521D01*
X185297590Y-133588604D01*
X185447415Y-133558802D01*
X185597239Y-133529000D01*
X185902761Y-133529000D01*
X186052585Y-133558802D01*
X186052585Y-133558802D01*
G37*
G36*
X97302585Y-128558802D02*
G01*
X97452410Y-128588604D01*
X97734674Y-128705521D01*
X97988705Y-128875259D01*
X98204741Y-129091295D01*
X98374479Y-129345326D01*
X98491396Y-129627590D01*
X98551000Y-129927240D01*
X98551000Y-130232760D01*
X98491396Y-130532410D01*
X98374479Y-130814674D01*
X98204741Y-131068705D01*
X97988705Y-131284741D01*
X97734674Y-131454479D01*
X97452410Y-131571396D01*
X97302585Y-131601198D01*
X97152761Y-131631000D01*
X96847239Y-131631000D01*
X96697415Y-131601198D01*
X96547590Y-131571396D01*
X96265326Y-131454479D01*
X96011295Y-131284741D01*
X95795259Y-131068705D01*
X95625521Y-130814674D01*
X95508604Y-130532410D01*
X95449000Y-130232760D01*
X95449000Y-129927240D01*
X95508604Y-129627590D01*
X95625521Y-129345326D01*
X95795259Y-129091295D01*
X96011295Y-128875259D01*
X96265326Y-128705521D01*
X96547590Y-128588604D01*
X96697415Y-128558802D01*
X96847239Y-128529000D01*
X97152761Y-128529000D01*
X97302585Y-128558802D01*
X97302585Y-128558802D01*
G37*
G36*
X186052585Y-128478802D02*
G01*
X186202410Y-128508604D01*
X186484674Y-128625521D01*
X186738705Y-128795259D01*
X186954741Y-129011295D01*
X187124479Y-129265326D01*
X187241396Y-129547590D01*
X187301000Y-129847240D01*
X187301000Y-130152760D01*
X187241396Y-130452410D01*
X187124479Y-130734674D01*
X186954741Y-130988705D01*
X186738705Y-131204741D01*
X186484674Y-131374479D01*
X186202410Y-131491396D01*
X186052585Y-131521198D01*
X185902761Y-131551000D01*
X185597239Y-131551000D01*
X185447415Y-131521198D01*
X185297590Y-131491396D01*
X185015326Y-131374479D01*
X184761295Y-131204741D01*
X184545259Y-130988705D01*
X184375521Y-130734674D01*
X184258604Y-130452410D01*
X184199000Y-130152760D01*
X184199000Y-129847240D01*
X184258604Y-129547590D01*
X184375521Y-129265326D01*
X184545259Y-129011295D01*
X184761295Y-128795259D01*
X185015326Y-128625521D01*
X185297590Y-128508604D01*
X185447415Y-128478802D01*
X185597239Y-128449000D01*
X185902761Y-128449000D01*
X186052585Y-128478802D01*
X186052585Y-128478802D01*
G37*
G36*
X118806564Y-127489389D02*
G01*
X118997836Y-127568616D01*
X119030555Y-127590478D01*
X119052165Y-127602029D01*
X119075614Y-127609142D01*
X119100001Y-127611544D01*
X119124387Y-127609142D01*
X119147836Y-127602029D01*
X119169445Y-127590478D01*
X119202164Y-127568616D01*
X119393436Y-127489389D01*
X119596484Y-127449000D01*
X119803516Y-127449000D01*
X120006564Y-127489389D01*
X120197833Y-127568615D01*
X120197835Y-127568616D01*
X120258486Y-127609142D01*
X120369973Y-127683635D01*
X120516365Y-127830027D01*
X120631385Y-128002167D01*
X120710611Y-128193436D01*
X120751000Y-128396484D01*
X120751000Y-128603516D01*
X120710611Y-128806564D01*
X120682156Y-128875260D01*
X120631384Y-128997835D01*
X120516365Y-129169973D01*
X120369973Y-129316365D01*
X120197835Y-129431384D01*
X120197834Y-129431385D01*
X120197833Y-129431385D01*
X120006564Y-129510611D01*
X119803516Y-129551000D01*
X119596484Y-129551000D01*
X119393436Y-129510611D01*
X119202164Y-129431384D01*
X119169445Y-129409522D01*
X119147835Y-129397971D01*
X119124386Y-129390858D01*
X119099999Y-129388456D01*
X119075613Y-129390858D01*
X119052164Y-129397971D01*
X119030555Y-129409522D01*
X118997836Y-129431384D01*
X118806564Y-129510611D01*
X118603516Y-129551000D01*
X118396484Y-129551000D01*
X118193436Y-129510611D01*
X118002167Y-129431385D01*
X118002166Y-129431385D01*
X118002165Y-129431384D01*
X117830027Y-129316365D01*
X117683635Y-129169973D01*
X117568616Y-128997835D01*
X117517844Y-128875260D01*
X117489389Y-128806564D01*
X117449000Y-128603516D01*
X117449000Y-128396484D01*
X117489389Y-128193436D01*
X117568615Y-128002167D01*
X117683635Y-127830027D01*
X117830027Y-127683635D01*
X117941514Y-127609142D01*
X118002165Y-127568616D01*
X118002167Y-127568615D01*
X118193436Y-127489389D01*
X118396484Y-127449000D01*
X118603516Y-127449000D01*
X118806564Y-127489389D01*
X118806564Y-127489389D01*
G37*
G36*
X127606564Y-127489389D02*
G01*
X127797836Y-127568616D01*
X127830555Y-127590478D01*
X127852165Y-127602029D01*
X127875614Y-127609142D01*
X127900001Y-127611544D01*
X127924387Y-127609142D01*
X127947836Y-127602029D01*
X127969445Y-127590478D01*
X128002164Y-127568616D01*
X128193436Y-127489389D01*
X128396484Y-127449000D01*
X128603516Y-127449000D01*
X128806564Y-127489389D01*
X128997833Y-127568615D01*
X128997835Y-127568616D01*
X129058486Y-127609142D01*
X129169973Y-127683635D01*
X129316365Y-127830027D01*
X129431385Y-128002167D01*
X129510611Y-128193436D01*
X129551000Y-128396484D01*
X129551000Y-128603516D01*
X129510611Y-128806564D01*
X129482156Y-128875260D01*
X129431384Y-128997835D01*
X129316365Y-129169973D01*
X129169973Y-129316365D01*
X128997835Y-129431384D01*
X128997834Y-129431385D01*
X128997833Y-129431385D01*
X128806564Y-129510611D01*
X128603516Y-129551000D01*
X128396484Y-129551000D01*
X128193436Y-129510611D01*
X128002164Y-129431384D01*
X127969445Y-129409522D01*
X127947835Y-129397971D01*
X127924386Y-129390858D01*
X127899999Y-129388456D01*
X127875613Y-129390858D01*
X127852164Y-129397971D01*
X127830555Y-129409522D01*
X127797836Y-129431384D01*
X127606564Y-129510611D01*
X127403516Y-129551000D01*
X127196484Y-129551000D01*
X126993436Y-129510611D01*
X126802167Y-129431385D01*
X126802166Y-129431385D01*
X126802165Y-129431384D01*
X126630027Y-129316365D01*
X126483635Y-129169973D01*
X126368616Y-128997835D01*
X126317844Y-128875260D01*
X126289389Y-128806564D01*
X126249000Y-128603516D01*
X126249000Y-128396484D01*
X126289389Y-128193436D01*
X126368615Y-128002167D01*
X126483635Y-127830027D01*
X126630027Y-127683635D01*
X126741514Y-127609142D01*
X126802165Y-127568616D01*
X126802167Y-127568615D01*
X126993436Y-127489389D01*
X127196484Y-127449000D01*
X127403516Y-127449000D01*
X127606564Y-127489389D01*
X127606564Y-127489389D01*
G37*
G36*
X117230411Y-125654259D02*
G01*
X117275853Y-125668044D01*
X117317736Y-125690431D01*
X117354444Y-125720556D01*
X117384569Y-125757264D01*
X117406956Y-125799147D01*
X117420741Y-125844589D01*
X117426000Y-125897990D01*
X117426000Y-127302010D01*
X117420741Y-127355411D01*
X117406956Y-127400853D01*
X117384569Y-127442736D01*
X117354444Y-127479444D01*
X117317736Y-127509569D01*
X117275853Y-127531956D01*
X117230411Y-127545741D01*
X117177010Y-127551000D01*
X116839113Y-127551000D01*
X116814727Y-127553402D01*
X116791278Y-127560515D01*
X116769667Y-127572066D01*
X116750725Y-127587611D01*
X116735180Y-127606553D01*
X116723629Y-127628164D01*
X116716516Y-127651613D01*
X116714114Y-127675999D01*
X116716516Y-127700385D01*
X116723629Y-127723834D01*
X116735180Y-127745445D01*
X116750725Y-127764387D01*
X116816365Y-127830027D01*
X116931385Y-128002167D01*
X117010611Y-128193436D01*
X117051000Y-128396484D01*
X117051000Y-128603516D01*
X117010611Y-128806564D01*
X116982156Y-128875260D01*
X116931384Y-128997835D01*
X116816365Y-129169973D01*
X116669973Y-129316365D01*
X116497835Y-129431384D01*
X116497834Y-129431385D01*
X116497833Y-129431385D01*
X116306564Y-129510611D01*
X116103516Y-129551000D01*
X115896484Y-129551000D01*
X115693436Y-129510611D01*
X115502167Y-129431385D01*
X115502166Y-129431385D01*
X115502165Y-129431384D01*
X115330027Y-129316365D01*
X115183635Y-129169973D01*
X115068616Y-128997835D01*
X115017844Y-128875260D01*
X114989389Y-128806564D01*
X114949000Y-128603516D01*
X114949000Y-128396484D01*
X114989389Y-128193436D01*
X115068615Y-128002167D01*
X115183635Y-127830027D01*
X115330027Y-127683635D01*
X115502166Y-127568615D01*
X115523441Y-127559803D01*
X115545052Y-127548252D01*
X115563993Y-127532707D01*
X115579539Y-127513765D01*
X115591090Y-127492154D01*
X115598203Y-127468705D01*
X115600605Y-127444319D01*
X115598203Y-127419933D01*
X115595223Y-127408034D01*
X115579259Y-127355408D01*
X115574000Y-127302010D01*
X115574000Y-125897990D01*
X115579259Y-125844589D01*
X115593044Y-125799147D01*
X115615431Y-125757264D01*
X115645556Y-125720556D01*
X115682264Y-125690431D01*
X115724147Y-125668044D01*
X115769589Y-125654259D01*
X115822990Y-125649000D01*
X117177010Y-125649000D01*
X117230411Y-125654259D01*
X117230411Y-125654259D01*
G37*
G36*
X131306564Y-127489389D02*
G01*
X131497833Y-127568615D01*
X131497835Y-127568616D01*
X131558486Y-127609142D01*
X131669973Y-127683635D01*
X131816365Y-127830027D01*
X131931385Y-128002167D01*
X132010611Y-128193436D01*
X132051000Y-128396484D01*
X132051000Y-128603516D01*
X132010611Y-128806564D01*
X131982156Y-128875260D01*
X131931384Y-128997835D01*
X131816365Y-129169973D01*
X131669973Y-129316365D01*
X131497835Y-129431384D01*
X131497834Y-129431385D01*
X131497833Y-129431385D01*
X131306564Y-129510611D01*
X131103516Y-129551000D01*
X130896484Y-129551000D01*
X130693436Y-129510611D01*
X130502167Y-129431385D01*
X130502166Y-129431385D01*
X130502165Y-129431384D01*
X130330027Y-129316365D01*
X130183635Y-129169973D01*
X130068616Y-128997835D01*
X130017844Y-128875260D01*
X129989389Y-128806564D01*
X129949000Y-128603516D01*
X129949000Y-128396484D01*
X129989389Y-128193436D01*
X130068615Y-128002167D01*
X130183635Y-127830027D01*
X130330027Y-127683635D01*
X130441514Y-127609142D01*
X130502165Y-127568616D01*
X130502167Y-127568615D01*
X130693436Y-127489389D01*
X130896484Y-127449000D01*
X131103516Y-127449000D01*
X131306564Y-127489389D01*
X131306564Y-127489389D01*
G37*
G36*
X147053165Y-125793040D02*
G01*
X147289917Y-125840133D01*
X147329558Y-125856553D01*
X147626776Y-125979664D01*
X147929943Y-126182234D01*
X148187766Y-126440057D01*
X148390336Y-126743224D01*
X148529867Y-127080084D01*
X148601000Y-127437691D01*
X148601000Y-127802309D01*
X148529867Y-128159916D01*
X148390336Y-128496776D01*
X148187766Y-128799943D01*
X147929943Y-129057766D01*
X147626776Y-129260336D01*
X147491509Y-129316365D01*
X147289917Y-129399867D01*
X147131471Y-129431384D01*
X146932309Y-129471000D01*
X146567691Y-129471000D01*
X146368529Y-129431384D01*
X146210083Y-129399867D01*
X146008491Y-129316365D01*
X145873224Y-129260336D01*
X145570057Y-129057766D01*
X145312234Y-128799943D01*
X145109664Y-128496776D01*
X144970133Y-128159916D01*
X144899000Y-127802309D01*
X144899000Y-127437691D01*
X144970133Y-127080084D01*
X145109664Y-126743224D01*
X145312234Y-126440057D01*
X145570057Y-126182234D01*
X145873224Y-125979664D01*
X146170442Y-125856553D01*
X146210083Y-125840133D01*
X146446835Y-125793040D01*
X146567691Y-125769000D01*
X146932309Y-125769000D01*
X147053165Y-125793040D01*
X147053165Y-125793040D01*
G37*
G36*
X182426000Y-127301000D02*
G01*
X180124000Y-127301000D01*
X180124000Y-126149000D01*
X182426000Y-126149000D01*
X182426000Y-127301000D01*
X182426000Y-127301000D01*
G37*
G36*
X163056564Y-123739389D02*
G01*
X163247833Y-123818615D01*
X163247835Y-123818616D01*
X163419973Y-123933635D01*
X163566365Y-124080027D01*
X163610772Y-124146486D01*
X163681385Y-124252167D01*
X163760611Y-124443436D01*
X163801000Y-124646484D01*
X163801000Y-124824001D01*
X163803402Y-124848387D01*
X163810515Y-124871836D01*
X163822066Y-124893447D01*
X163837611Y-124912389D01*
X163856553Y-124927934D01*
X163878164Y-124939485D01*
X163901613Y-124946598D01*
X163925999Y-124949000D01*
X164103516Y-124949000D01*
X164306564Y-124989389D01*
X164492401Y-125066365D01*
X164497835Y-125068616D01*
X164669973Y-125183635D01*
X164816365Y-125330027D01*
X164860772Y-125396486D01*
X164931385Y-125502167D01*
X165010611Y-125693436D01*
X165051000Y-125896484D01*
X165051000Y-126103516D01*
X165010611Y-126306564D01*
X164931385Y-126497833D01*
X164931384Y-126497835D01*
X164816365Y-126669973D01*
X164669973Y-126816365D01*
X164497835Y-126931384D01*
X164497834Y-126931385D01*
X164497833Y-126931385D01*
X164306564Y-127010611D01*
X164103516Y-127051000D01*
X163896484Y-127051000D01*
X163693436Y-127010611D01*
X163502167Y-126931385D01*
X163502166Y-126931385D01*
X163502165Y-126931384D01*
X163330027Y-126816365D01*
X163183635Y-126669973D01*
X163068616Y-126497835D01*
X163068615Y-126497833D01*
X162989389Y-126306564D01*
X162949000Y-126103516D01*
X162949000Y-125925999D01*
X162946598Y-125901613D01*
X162939485Y-125878164D01*
X162927934Y-125856553D01*
X162912389Y-125837611D01*
X162893447Y-125822066D01*
X162871836Y-125810515D01*
X162848387Y-125803402D01*
X162824001Y-125801000D01*
X162646484Y-125801000D01*
X162443436Y-125760611D01*
X162252167Y-125681385D01*
X162252166Y-125681385D01*
X162252165Y-125681384D01*
X162080027Y-125566365D01*
X161933635Y-125419973D01*
X161818616Y-125247835D01*
X161796083Y-125193435D01*
X161739389Y-125056564D01*
X161699000Y-124853516D01*
X161699000Y-124646484D01*
X161739389Y-124443436D01*
X161818615Y-124252167D01*
X161889229Y-124146486D01*
X161933635Y-124080027D01*
X162080027Y-123933635D01*
X162252165Y-123818616D01*
X162252167Y-123818615D01*
X162443436Y-123739389D01*
X162646484Y-123699000D01*
X162853516Y-123699000D01*
X163056564Y-123739389D01*
X163056564Y-123739389D01*
G37*
G36*
X175306564Y-123739389D02*
G01*
X175497833Y-123818615D01*
X175497835Y-123818616D01*
X175669973Y-123933635D01*
X175816365Y-124080027D01*
X175860772Y-124146486D01*
X175931385Y-124252167D01*
X176010611Y-124443436D01*
X176051000Y-124646484D01*
X176051000Y-124824001D01*
X176053402Y-124848387D01*
X176060515Y-124871836D01*
X176072066Y-124893447D01*
X176087611Y-124912389D01*
X176106553Y-124927934D01*
X176128164Y-124939485D01*
X176151613Y-124946598D01*
X176175999Y-124949000D01*
X176353516Y-124949000D01*
X176556564Y-124989389D01*
X176742401Y-125066365D01*
X176747835Y-125068616D01*
X176919973Y-125183635D01*
X177066365Y-125330027D01*
X177110772Y-125396486D01*
X177181385Y-125502167D01*
X177260611Y-125693436D01*
X177301000Y-125896484D01*
X177301000Y-126103516D01*
X177260611Y-126306564D01*
X177181385Y-126497833D01*
X177181384Y-126497835D01*
X177066365Y-126669973D01*
X176919973Y-126816365D01*
X176747835Y-126931384D01*
X176747834Y-126931385D01*
X176747833Y-126931385D01*
X176556564Y-127010611D01*
X176353516Y-127051000D01*
X176146484Y-127051000D01*
X175943436Y-127010611D01*
X175752167Y-126931385D01*
X175752166Y-126931385D01*
X175752165Y-126931384D01*
X175580027Y-126816365D01*
X175433635Y-126669973D01*
X175318616Y-126497835D01*
X175318615Y-126497833D01*
X175239389Y-126306564D01*
X175199000Y-126103516D01*
X175199000Y-125925999D01*
X175196598Y-125901613D01*
X175189485Y-125878164D01*
X175177934Y-125856553D01*
X175162389Y-125837611D01*
X175143447Y-125822066D01*
X175121836Y-125810515D01*
X175098387Y-125803402D01*
X175074001Y-125801000D01*
X174896484Y-125801000D01*
X174693436Y-125760611D01*
X174502167Y-125681385D01*
X174502166Y-125681385D01*
X174502165Y-125681384D01*
X174330027Y-125566365D01*
X174183635Y-125419973D01*
X174068616Y-125247835D01*
X174046083Y-125193435D01*
X173989389Y-125056564D01*
X173949000Y-124853516D01*
X173949000Y-124646484D01*
X173989389Y-124443436D01*
X174068615Y-124252167D01*
X174139229Y-124146486D01*
X174183635Y-124080027D01*
X174330027Y-123933635D01*
X174502165Y-123818616D01*
X174502167Y-123818615D01*
X174693436Y-123739389D01*
X174896484Y-123699000D01*
X175103516Y-123699000D01*
X175306564Y-123739389D01*
X175306564Y-123739389D01*
G37*
G36*
X105556564Y-123239389D02*
G01*
X105726723Y-123309871D01*
X105747835Y-123318616D01*
X105823240Y-123369000D01*
X105919973Y-123433635D01*
X106066365Y-123580027D01*
X106181385Y-123752167D01*
X106260611Y-123943436D01*
X106301000Y-124146484D01*
X106301000Y-124324001D01*
X106303402Y-124348387D01*
X106310515Y-124371836D01*
X106322066Y-124393447D01*
X106337611Y-124412389D01*
X106356553Y-124427934D01*
X106378164Y-124439485D01*
X106401613Y-124446598D01*
X106425999Y-124449000D01*
X106603516Y-124449000D01*
X106806564Y-124489389D01*
X106997833Y-124568615D01*
X106997835Y-124568616D01*
X107169973Y-124683635D01*
X107316365Y-124830027D01*
X107397197Y-124951000D01*
X107431385Y-125002167D01*
X107510611Y-125193436D01*
X107551000Y-125396484D01*
X107551000Y-125603516D01*
X107510611Y-125806564D01*
X107438911Y-125979664D01*
X107431384Y-125997835D01*
X107316365Y-126169973D01*
X107169973Y-126316365D01*
X106997835Y-126431384D01*
X106997834Y-126431385D01*
X106997833Y-126431385D01*
X106806564Y-126510611D01*
X106603516Y-126551000D01*
X106396484Y-126551000D01*
X106193436Y-126510611D01*
X106002167Y-126431385D01*
X106002166Y-126431385D01*
X106002165Y-126431384D01*
X105830027Y-126316365D01*
X105683635Y-126169973D01*
X105568616Y-125997835D01*
X105561089Y-125979664D01*
X105489389Y-125806564D01*
X105449000Y-125603516D01*
X105449000Y-125425999D01*
X105446598Y-125401613D01*
X105439485Y-125378164D01*
X105427934Y-125356553D01*
X105412389Y-125337611D01*
X105393447Y-125322066D01*
X105371836Y-125310515D01*
X105348387Y-125303402D01*
X105324001Y-125301000D01*
X105146484Y-125301000D01*
X104943436Y-125260611D01*
X104752167Y-125181385D01*
X104752166Y-125181385D01*
X104752165Y-125181384D01*
X104580027Y-125066365D01*
X104433635Y-124919973D01*
X104318616Y-124747835D01*
X104298388Y-124699000D01*
X104239389Y-124556564D01*
X104199000Y-124353516D01*
X104199000Y-124146484D01*
X104239389Y-123943436D01*
X104318615Y-123752167D01*
X104433635Y-123580027D01*
X104580027Y-123433635D01*
X104676760Y-123369000D01*
X104752165Y-123318616D01*
X104773277Y-123309871D01*
X104943436Y-123239389D01*
X105146484Y-123199000D01*
X105353516Y-123199000D01*
X105556564Y-123239389D01*
X105556564Y-123239389D01*
G37*
G36*
X98551000Y-126551000D02*
G01*
X95449000Y-126551000D01*
X95449000Y-123449000D01*
X98551000Y-123449000D01*
X98551000Y-126551000D01*
X98551000Y-126551000D01*
G37*
G36*
X187301000Y-126471000D02*
G01*
X184199000Y-126471000D01*
X184199000Y-123369000D01*
X187301000Y-123369000D01*
X187301000Y-126471000D01*
X187301000Y-126471000D01*
G37*
G36*
X183376000Y-125801000D02*
G01*
X182224000Y-125801000D01*
X182224000Y-124699000D01*
X183376000Y-124699000D01*
X183376000Y-125801000D01*
X183376000Y-125801000D01*
G37*
G36*
X117230411Y-123054259D02*
G01*
X117275853Y-123068044D01*
X117317736Y-123090431D01*
X117354444Y-123120556D01*
X117384569Y-123157264D01*
X117406956Y-123199147D01*
X117420741Y-123244589D01*
X117426000Y-123297990D01*
X117426000Y-124702010D01*
X117420741Y-124755411D01*
X117406956Y-124800853D01*
X117384569Y-124842736D01*
X117354444Y-124879444D01*
X117317736Y-124909569D01*
X117275853Y-124931956D01*
X117230411Y-124945741D01*
X117177010Y-124951000D01*
X115822990Y-124951000D01*
X115769589Y-124945741D01*
X115724147Y-124931956D01*
X115682264Y-124909569D01*
X115645556Y-124879444D01*
X115615431Y-124842736D01*
X115593044Y-124800853D01*
X115579259Y-124755411D01*
X115574000Y-124702010D01*
X115574000Y-123297990D01*
X115579259Y-123244589D01*
X115593044Y-123199147D01*
X115615431Y-123157264D01*
X115645556Y-123120556D01*
X115682264Y-123090431D01*
X115724147Y-123068044D01*
X115769589Y-123054259D01*
X115822990Y-123049000D01*
X117177010Y-123049000D01*
X117230411Y-123054259D01*
X117230411Y-123054259D01*
G37*
G36*
X182426000Y-124351000D02*
G01*
X180124000Y-124351000D01*
X180124000Y-123199000D01*
X182426000Y-123199000D01*
X182426000Y-124351000D01*
X182426000Y-124351000D01*
G37*
G36*
X165051000Y-121074001D02*
G01*
X165053402Y-121098387D01*
X165060515Y-121121836D01*
X165072066Y-121143447D01*
X165087611Y-121162389D01*
X165106553Y-121177934D01*
X165128164Y-121189485D01*
X165151613Y-121196598D01*
X165175999Y-121199000D01*
X166301000Y-121199000D01*
X166301000Y-123301000D01*
X164199000Y-123301000D01*
X164199000Y-122175999D01*
X164196598Y-122151613D01*
X164189485Y-122128164D01*
X164177934Y-122106553D01*
X164162389Y-122087611D01*
X164143447Y-122072066D01*
X164121836Y-122060515D01*
X164098387Y-122053402D01*
X164074001Y-122051000D01*
X162949000Y-122051000D01*
X162949000Y-119949000D01*
X165051000Y-119949000D01*
X165051000Y-121074001D01*
X165051000Y-121074001D01*
G37*
G36*
X177301000Y-121074001D02*
G01*
X177303402Y-121098387D01*
X177310515Y-121121836D01*
X177322066Y-121143447D01*
X177337611Y-121162389D01*
X177356553Y-121177934D01*
X177378164Y-121189485D01*
X177401613Y-121196598D01*
X177425999Y-121199000D01*
X178551000Y-121199000D01*
X178551000Y-123301000D01*
X176449000Y-123301000D01*
X176449000Y-122175999D01*
X176446598Y-122151613D01*
X176439485Y-122128164D01*
X176427934Y-122106553D01*
X176412389Y-122087611D01*
X176393447Y-122072066D01*
X176371836Y-122060515D01*
X176348387Y-122053402D01*
X176324001Y-122051000D01*
X175199000Y-122051000D01*
X175199000Y-119949000D01*
X177301000Y-119949000D01*
X177301000Y-121074001D01*
X177301000Y-121074001D01*
G37*
G36*
X107551000Y-120574001D02*
G01*
X107553402Y-120598387D01*
X107560515Y-120621836D01*
X107572066Y-120643447D01*
X107587611Y-120662389D01*
X107606553Y-120677934D01*
X107628164Y-120689485D01*
X107651613Y-120696598D01*
X107675999Y-120699000D01*
X108801000Y-120699000D01*
X108801000Y-122801000D01*
X106699000Y-122801000D01*
X106699000Y-121675999D01*
X106696598Y-121651613D01*
X106689485Y-121628164D01*
X106677934Y-121606553D01*
X106662389Y-121587611D01*
X106643447Y-121572066D01*
X106621836Y-121560515D01*
X106598387Y-121553402D01*
X106574001Y-121551000D01*
X105449000Y-121551000D01*
X105449000Y-119449000D01*
X107551000Y-119449000D01*
X107551000Y-120574001D01*
X107551000Y-120574001D01*
G37*
G36*
X147111113Y-118184567D02*
G01*
X147289917Y-118220133D01*
X147429448Y-118277929D01*
X147626776Y-118359664D01*
X147929943Y-118562234D01*
X148187766Y-118820057D01*
X148390336Y-119123224D01*
X148470337Y-119316365D01*
X148529867Y-119460083D01*
X148565434Y-119638888D01*
X148601000Y-119817691D01*
X148601000Y-120182309D01*
X148529867Y-120539916D01*
X148390336Y-120876776D01*
X148187766Y-121179943D01*
X147929943Y-121437766D01*
X147626776Y-121640336D01*
X147429448Y-121722071D01*
X147289917Y-121779867D01*
X147111113Y-121815433D01*
X146932309Y-121851000D01*
X146567691Y-121851000D01*
X146388887Y-121815433D01*
X146210083Y-121779867D01*
X146070552Y-121722071D01*
X145873224Y-121640336D01*
X145570057Y-121437766D01*
X145312234Y-121179943D01*
X145109664Y-120876776D01*
X144970133Y-120539916D01*
X144899000Y-120182309D01*
X144899000Y-119817691D01*
X144934566Y-119638888D01*
X144970133Y-119460083D01*
X145029663Y-119316365D01*
X145109664Y-119123224D01*
X145312234Y-118820057D01*
X145570057Y-118562234D01*
X145873224Y-118359664D01*
X146070552Y-118277929D01*
X146210083Y-118220133D01*
X146388887Y-118184567D01*
X146567691Y-118149000D01*
X146932309Y-118149000D01*
X147111113Y-118184567D01*
X147111113Y-118184567D01*
G37*
G36*
X127606564Y-117489389D02*
G01*
X127797836Y-117568616D01*
X127830555Y-117590478D01*
X127852165Y-117602029D01*
X127875614Y-117609142D01*
X127900001Y-117611544D01*
X127924387Y-117609142D01*
X127947836Y-117602029D01*
X127969445Y-117590478D01*
X128002164Y-117568616D01*
X128193436Y-117489389D01*
X128396484Y-117449000D01*
X128603516Y-117449000D01*
X128806564Y-117489389D01*
X128997833Y-117568615D01*
X128997835Y-117568616D01*
X129047841Y-117602029D01*
X129169973Y-117683635D01*
X129316365Y-117830027D01*
X129431385Y-118002167D01*
X129510611Y-118193436D01*
X129551000Y-118396484D01*
X129551000Y-118603516D01*
X129510611Y-118806564D01*
X129431385Y-118997833D01*
X129431384Y-118997835D01*
X129316365Y-119169973D01*
X129169973Y-119316365D01*
X128997835Y-119431384D01*
X128997834Y-119431385D01*
X128997833Y-119431385D01*
X128806564Y-119510611D01*
X128603516Y-119551000D01*
X128396484Y-119551000D01*
X128193436Y-119510611D01*
X128002164Y-119431384D01*
X127969445Y-119409522D01*
X127947835Y-119397971D01*
X127924386Y-119390858D01*
X127899999Y-119388456D01*
X127875613Y-119390858D01*
X127852164Y-119397971D01*
X127830555Y-119409522D01*
X127797836Y-119431384D01*
X127606564Y-119510611D01*
X127403516Y-119551000D01*
X127196484Y-119551000D01*
X126993436Y-119510611D01*
X126802167Y-119431385D01*
X126802166Y-119431385D01*
X126802165Y-119431384D01*
X126630027Y-119316365D01*
X126483635Y-119169973D01*
X126368616Y-118997835D01*
X126368615Y-118997833D01*
X126289389Y-118806564D01*
X126249000Y-118603516D01*
X126249000Y-118396484D01*
X126289389Y-118193436D01*
X126368615Y-118002167D01*
X126483635Y-117830027D01*
X126630027Y-117683635D01*
X126752159Y-117602029D01*
X126802165Y-117568616D01*
X126802167Y-117568615D01*
X126993436Y-117489389D01*
X127196484Y-117449000D01*
X127403516Y-117449000D01*
X127606564Y-117489389D01*
X127606564Y-117489389D01*
G37*
G36*
X131306564Y-117489389D02*
G01*
X131497833Y-117568615D01*
X131497835Y-117568616D01*
X131547841Y-117602029D01*
X131669973Y-117683635D01*
X131816365Y-117830027D01*
X131931385Y-118002167D01*
X132010611Y-118193436D01*
X132051000Y-118396484D01*
X132051000Y-118603516D01*
X132010611Y-118806564D01*
X131931385Y-118997833D01*
X131931384Y-118997835D01*
X131816365Y-119169973D01*
X131669973Y-119316365D01*
X131497835Y-119431384D01*
X131497834Y-119431385D01*
X131497833Y-119431385D01*
X131306564Y-119510611D01*
X131103516Y-119551000D01*
X130896484Y-119551000D01*
X130693436Y-119510611D01*
X130502167Y-119431385D01*
X130502166Y-119431385D01*
X130502165Y-119431384D01*
X130330027Y-119316365D01*
X130183635Y-119169973D01*
X130068616Y-118997835D01*
X130068615Y-118997833D01*
X129989389Y-118806564D01*
X129949000Y-118603516D01*
X129949000Y-118396484D01*
X129989389Y-118193436D01*
X130068615Y-118002167D01*
X130183635Y-117830027D01*
X130330027Y-117683635D01*
X130452159Y-117602029D01*
X130502165Y-117568616D01*
X130502167Y-117568615D01*
X130693436Y-117489389D01*
X130896484Y-117449000D01*
X131103516Y-117449000D01*
X131306564Y-117489389D01*
X131306564Y-117489389D01*
G37*
G36*
X120751000Y-119551000D02*
G01*
X117449000Y-119551000D01*
X117449000Y-117449000D01*
X120751000Y-117449000D01*
X120751000Y-119551000D01*
X120751000Y-119551000D01*
G37*
G36*
X117051000Y-119551000D02*
G01*
X114949000Y-119551000D01*
X114949000Y-117449000D01*
X117051000Y-117449000D01*
X117051000Y-119551000D01*
X117051000Y-119551000D01*
G37*
M02*
