G04 #@! TF.GenerationSoftware,KiCad,Pcbnew,(5.1.4)-1*
G04 #@! TF.CreationDate,2021-09-06T00:09:17-04:00*
G04 #@! TF.ProjectId,controller_power_filter,636f6e74-726f-46c6-9c65-725f706f7765,rev?*
G04 #@! TF.SameCoordinates,Original*
G04 #@! TF.FileFunction,Paste,Top*
G04 #@! TF.FilePolarity,Positive*
%FSLAX46Y46*%
G04 Gerber Fmt 4.6, Leading zero omitted, Abs format (unit mm)*
G04 Created by KiCad (PCBNEW (5.1.4)-1) date 2021-09-06 00:09:17*
%MOMM*%
%LPD*%
G04 APERTURE LIST*
%ADD10R,3.600000X2.700000*%
%ADD11C,0.100000*%
%ADD12C,1.750000*%
G04 APERTURE END LIST*
D10*
X146750000Y-137100000D03*
X146750000Y-145400000D03*
X146750000Y-127900000D03*
X146750000Y-119600000D03*
D11*
G36*
X163423768Y-133626475D02*
G01*
X163453496Y-133630885D01*
X163482650Y-133638187D01*
X163510947Y-133648312D01*
X163538115Y-133661162D01*
X163563893Y-133676612D01*
X163588033Y-133694516D01*
X163610301Y-133714699D01*
X163630484Y-133736967D01*
X163648388Y-133761107D01*
X163663838Y-133786885D01*
X163676688Y-133814053D01*
X163686813Y-133842350D01*
X163694115Y-133871504D01*
X163698525Y-133901232D01*
X163700000Y-133931250D01*
X163700000Y-135068750D01*
X163698525Y-135098768D01*
X163694115Y-135128496D01*
X163686813Y-135157650D01*
X163676688Y-135185947D01*
X163663838Y-135213115D01*
X163648388Y-135238893D01*
X163630484Y-135263033D01*
X163610301Y-135285301D01*
X163588033Y-135305484D01*
X163563893Y-135323388D01*
X163538115Y-135338838D01*
X163510947Y-135351688D01*
X163482650Y-135361813D01*
X163453496Y-135369115D01*
X163423768Y-135373525D01*
X163393750Y-135375000D01*
X162206250Y-135375000D01*
X162176232Y-135373525D01*
X162146504Y-135369115D01*
X162117350Y-135361813D01*
X162089053Y-135351688D01*
X162061885Y-135338838D01*
X162036107Y-135323388D01*
X162011967Y-135305484D01*
X161989699Y-135285301D01*
X161969516Y-135263033D01*
X161951612Y-135238893D01*
X161936162Y-135213115D01*
X161923312Y-135185947D01*
X161913187Y-135157650D01*
X161905885Y-135128496D01*
X161901475Y-135098768D01*
X161900000Y-135068750D01*
X161900000Y-133931250D01*
X161901475Y-133901232D01*
X161905885Y-133871504D01*
X161913187Y-133842350D01*
X161923312Y-133814053D01*
X161936162Y-133786885D01*
X161951612Y-133761107D01*
X161969516Y-133736967D01*
X161989699Y-133714699D01*
X162011967Y-133694516D01*
X162036107Y-133676612D01*
X162061885Y-133661162D01*
X162089053Y-133648312D01*
X162117350Y-133638187D01*
X162146504Y-133630885D01*
X162176232Y-133626475D01*
X162206250Y-133625000D01*
X163393750Y-133625000D01*
X163423768Y-133626475D01*
X163423768Y-133626475D01*
G37*
D12*
X162800000Y-134500000D03*
D11*
G36*
X160823768Y-133626475D02*
G01*
X160853496Y-133630885D01*
X160882650Y-133638187D01*
X160910947Y-133648312D01*
X160938115Y-133661162D01*
X160963893Y-133676612D01*
X160988033Y-133694516D01*
X161010301Y-133714699D01*
X161030484Y-133736967D01*
X161048388Y-133761107D01*
X161063838Y-133786885D01*
X161076688Y-133814053D01*
X161086813Y-133842350D01*
X161094115Y-133871504D01*
X161098525Y-133901232D01*
X161100000Y-133931250D01*
X161100000Y-135068750D01*
X161098525Y-135098768D01*
X161094115Y-135128496D01*
X161086813Y-135157650D01*
X161076688Y-135185947D01*
X161063838Y-135213115D01*
X161048388Y-135238893D01*
X161030484Y-135263033D01*
X161010301Y-135285301D01*
X160988033Y-135305484D01*
X160963893Y-135323388D01*
X160938115Y-135338838D01*
X160910947Y-135351688D01*
X160882650Y-135361813D01*
X160853496Y-135369115D01*
X160823768Y-135373525D01*
X160793750Y-135375000D01*
X159606250Y-135375000D01*
X159576232Y-135373525D01*
X159546504Y-135369115D01*
X159517350Y-135361813D01*
X159489053Y-135351688D01*
X159461885Y-135338838D01*
X159436107Y-135323388D01*
X159411967Y-135305484D01*
X159389699Y-135285301D01*
X159369516Y-135263033D01*
X159351612Y-135238893D01*
X159336162Y-135213115D01*
X159323312Y-135185947D01*
X159313187Y-135157650D01*
X159305885Y-135128496D01*
X159301475Y-135098768D01*
X159300000Y-135068750D01*
X159300000Y-133931250D01*
X159301475Y-133901232D01*
X159305885Y-133871504D01*
X159313187Y-133842350D01*
X159323312Y-133814053D01*
X159336162Y-133786885D01*
X159351612Y-133761107D01*
X159369516Y-133736967D01*
X159389699Y-133714699D01*
X159411967Y-133694516D01*
X159436107Y-133676612D01*
X159461885Y-133661162D01*
X159489053Y-133648312D01*
X159517350Y-133638187D01*
X159546504Y-133630885D01*
X159576232Y-133626475D01*
X159606250Y-133625000D01*
X160793750Y-133625000D01*
X160823768Y-133626475D01*
X160823768Y-133626475D01*
G37*
D12*
X160200000Y-134500000D03*
D11*
G36*
X160823768Y-130126475D02*
G01*
X160853496Y-130130885D01*
X160882650Y-130138187D01*
X160910947Y-130148312D01*
X160938115Y-130161162D01*
X160963893Y-130176612D01*
X160988033Y-130194516D01*
X161010301Y-130214699D01*
X161030484Y-130236967D01*
X161048388Y-130261107D01*
X161063838Y-130286885D01*
X161076688Y-130314053D01*
X161086813Y-130342350D01*
X161094115Y-130371504D01*
X161098525Y-130401232D01*
X161100000Y-130431250D01*
X161100000Y-131568750D01*
X161098525Y-131598768D01*
X161094115Y-131628496D01*
X161086813Y-131657650D01*
X161076688Y-131685947D01*
X161063838Y-131713115D01*
X161048388Y-131738893D01*
X161030484Y-131763033D01*
X161010301Y-131785301D01*
X160988033Y-131805484D01*
X160963893Y-131823388D01*
X160938115Y-131838838D01*
X160910947Y-131851688D01*
X160882650Y-131861813D01*
X160853496Y-131869115D01*
X160823768Y-131873525D01*
X160793750Y-131875000D01*
X159606250Y-131875000D01*
X159576232Y-131873525D01*
X159546504Y-131869115D01*
X159517350Y-131861813D01*
X159489053Y-131851688D01*
X159461885Y-131838838D01*
X159436107Y-131823388D01*
X159411967Y-131805484D01*
X159389699Y-131785301D01*
X159369516Y-131763033D01*
X159351612Y-131738893D01*
X159336162Y-131713115D01*
X159323312Y-131685947D01*
X159313187Y-131657650D01*
X159305885Y-131628496D01*
X159301475Y-131598768D01*
X159300000Y-131568750D01*
X159300000Y-130431250D01*
X159301475Y-130401232D01*
X159305885Y-130371504D01*
X159313187Y-130342350D01*
X159323312Y-130314053D01*
X159336162Y-130286885D01*
X159351612Y-130261107D01*
X159369516Y-130236967D01*
X159389699Y-130214699D01*
X159411967Y-130194516D01*
X159436107Y-130176612D01*
X159461885Y-130161162D01*
X159489053Y-130148312D01*
X159517350Y-130138187D01*
X159546504Y-130130885D01*
X159576232Y-130126475D01*
X159606250Y-130125000D01*
X160793750Y-130125000D01*
X160823768Y-130126475D01*
X160823768Y-130126475D01*
G37*
D12*
X160200000Y-131000000D03*
D11*
G36*
X163423768Y-130126475D02*
G01*
X163453496Y-130130885D01*
X163482650Y-130138187D01*
X163510947Y-130148312D01*
X163538115Y-130161162D01*
X163563893Y-130176612D01*
X163588033Y-130194516D01*
X163610301Y-130214699D01*
X163630484Y-130236967D01*
X163648388Y-130261107D01*
X163663838Y-130286885D01*
X163676688Y-130314053D01*
X163686813Y-130342350D01*
X163694115Y-130371504D01*
X163698525Y-130401232D01*
X163700000Y-130431250D01*
X163700000Y-131568750D01*
X163698525Y-131598768D01*
X163694115Y-131628496D01*
X163686813Y-131657650D01*
X163676688Y-131685947D01*
X163663838Y-131713115D01*
X163648388Y-131738893D01*
X163630484Y-131763033D01*
X163610301Y-131785301D01*
X163588033Y-131805484D01*
X163563893Y-131823388D01*
X163538115Y-131838838D01*
X163510947Y-131851688D01*
X163482650Y-131861813D01*
X163453496Y-131869115D01*
X163423768Y-131873525D01*
X163393750Y-131875000D01*
X162206250Y-131875000D01*
X162176232Y-131873525D01*
X162146504Y-131869115D01*
X162117350Y-131861813D01*
X162089053Y-131851688D01*
X162061885Y-131838838D01*
X162036107Y-131823388D01*
X162011967Y-131805484D01*
X161989699Y-131785301D01*
X161969516Y-131763033D01*
X161951612Y-131738893D01*
X161936162Y-131713115D01*
X161923312Y-131685947D01*
X161913187Y-131657650D01*
X161905885Y-131628496D01*
X161901475Y-131598768D01*
X161900000Y-131568750D01*
X161900000Y-130431250D01*
X161901475Y-130401232D01*
X161905885Y-130371504D01*
X161913187Y-130342350D01*
X161923312Y-130314053D01*
X161936162Y-130286885D01*
X161951612Y-130261107D01*
X161969516Y-130236967D01*
X161989699Y-130214699D01*
X162011967Y-130194516D01*
X162036107Y-130176612D01*
X162061885Y-130161162D01*
X162089053Y-130148312D01*
X162117350Y-130138187D01*
X162146504Y-130130885D01*
X162176232Y-130126475D01*
X162206250Y-130125000D01*
X163393750Y-130125000D01*
X163423768Y-130126475D01*
X163423768Y-130126475D01*
G37*
D12*
X162800000Y-131000000D03*
D11*
G36*
X178323768Y-133626475D02*
G01*
X178353496Y-133630885D01*
X178382650Y-133638187D01*
X178410947Y-133648312D01*
X178438115Y-133661162D01*
X178463893Y-133676612D01*
X178488033Y-133694516D01*
X178510301Y-133714699D01*
X178530484Y-133736967D01*
X178548388Y-133761107D01*
X178563838Y-133786885D01*
X178576688Y-133814053D01*
X178586813Y-133842350D01*
X178594115Y-133871504D01*
X178598525Y-133901232D01*
X178600000Y-133931250D01*
X178600000Y-135068750D01*
X178598525Y-135098768D01*
X178594115Y-135128496D01*
X178586813Y-135157650D01*
X178576688Y-135185947D01*
X178563838Y-135213115D01*
X178548388Y-135238893D01*
X178530484Y-135263033D01*
X178510301Y-135285301D01*
X178488033Y-135305484D01*
X178463893Y-135323388D01*
X178438115Y-135338838D01*
X178410947Y-135351688D01*
X178382650Y-135361813D01*
X178353496Y-135369115D01*
X178323768Y-135373525D01*
X178293750Y-135375000D01*
X177106250Y-135375000D01*
X177076232Y-135373525D01*
X177046504Y-135369115D01*
X177017350Y-135361813D01*
X176989053Y-135351688D01*
X176961885Y-135338838D01*
X176936107Y-135323388D01*
X176911967Y-135305484D01*
X176889699Y-135285301D01*
X176869516Y-135263033D01*
X176851612Y-135238893D01*
X176836162Y-135213115D01*
X176823312Y-135185947D01*
X176813187Y-135157650D01*
X176805885Y-135128496D01*
X176801475Y-135098768D01*
X176800000Y-135068750D01*
X176800000Y-133931250D01*
X176801475Y-133901232D01*
X176805885Y-133871504D01*
X176813187Y-133842350D01*
X176823312Y-133814053D01*
X176836162Y-133786885D01*
X176851612Y-133761107D01*
X176869516Y-133736967D01*
X176889699Y-133714699D01*
X176911967Y-133694516D01*
X176936107Y-133676612D01*
X176961885Y-133661162D01*
X176989053Y-133648312D01*
X177017350Y-133638187D01*
X177046504Y-133630885D01*
X177076232Y-133626475D01*
X177106250Y-133625000D01*
X178293750Y-133625000D01*
X178323768Y-133626475D01*
X178323768Y-133626475D01*
G37*
D12*
X177700000Y-134500000D03*
D11*
G36*
X180923768Y-133626475D02*
G01*
X180953496Y-133630885D01*
X180982650Y-133638187D01*
X181010947Y-133648312D01*
X181038115Y-133661162D01*
X181063893Y-133676612D01*
X181088033Y-133694516D01*
X181110301Y-133714699D01*
X181130484Y-133736967D01*
X181148388Y-133761107D01*
X181163838Y-133786885D01*
X181176688Y-133814053D01*
X181186813Y-133842350D01*
X181194115Y-133871504D01*
X181198525Y-133901232D01*
X181200000Y-133931250D01*
X181200000Y-135068750D01*
X181198525Y-135098768D01*
X181194115Y-135128496D01*
X181186813Y-135157650D01*
X181176688Y-135185947D01*
X181163838Y-135213115D01*
X181148388Y-135238893D01*
X181130484Y-135263033D01*
X181110301Y-135285301D01*
X181088033Y-135305484D01*
X181063893Y-135323388D01*
X181038115Y-135338838D01*
X181010947Y-135351688D01*
X180982650Y-135361813D01*
X180953496Y-135369115D01*
X180923768Y-135373525D01*
X180893750Y-135375000D01*
X179706250Y-135375000D01*
X179676232Y-135373525D01*
X179646504Y-135369115D01*
X179617350Y-135361813D01*
X179589053Y-135351688D01*
X179561885Y-135338838D01*
X179536107Y-135323388D01*
X179511967Y-135305484D01*
X179489699Y-135285301D01*
X179469516Y-135263033D01*
X179451612Y-135238893D01*
X179436162Y-135213115D01*
X179423312Y-135185947D01*
X179413187Y-135157650D01*
X179405885Y-135128496D01*
X179401475Y-135098768D01*
X179400000Y-135068750D01*
X179400000Y-133931250D01*
X179401475Y-133901232D01*
X179405885Y-133871504D01*
X179413187Y-133842350D01*
X179423312Y-133814053D01*
X179436162Y-133786885D01*
X179451612Y-133761107D01*
X179469516Y-133736967D01*
X179489699Y-133714699D01*
X179511967Y-133694516D01*
X179536107Y-133676612D01*
X179561885Y-133661162D01*
X179589053Y-133648312D01*
X179617350Y-133638187D01*
X179646504Y-133630885D01*
X179676232Y-133626475D01*
X179706250Y-133625000D01*
X180893750Y-133625000D01*
X180923768Y-133626475D01*
X180923768Y-133626475D01*
G37*
D12*
X180300000Y-134500000D03*
D11*
G36*
X180923768Y-129626475D02*
G01*
X180953496Y-129630885D01*
X180982650Y-129638187D01*
X181010947Y-129648312D01*
X181038115Y-129661162D01*
X181063893Y-129676612D01*
X181088033Y-129694516D01*
X181110301Y-129714699D01*
X181130484Y-129736967D01*
X181148388Y-129761107D01*
X181163838Y-129786885D01*
X181176688Y-129814053D01*
X181186813Y-129842350D01*
X181194115Y-129871504D01*
X181198525Y-129901232D01*
X181200000Y-129931250D01*
X181200000Y-131068750D01*
X181198525Y-131098768D01*
X181194115Y-131128496D01*
X181186813Y-131157650D01*
X181176688Y-131185947D01*
X181163838Y-131213115D01*
X181148388Y-131238893D01*
X181130484Y-131263033D01*
X181110301Y-131285301D01*
X181088033Y-131305484D01*
X181063893Y-131323388D01*
X181038115Y-131338838D01*
X181010947Y-131351688D01*
X180982650Y-131361813D01*
X180953496Y-131369115D01*
X180923768Y-131373525D01*
X180893750Y-131375000D01*
X179706250Y-131375000D01*
X179676232Y-131373525D01*
X179646504Y-131369115D01*
X179617350Y-131361813D01*
X179589053Y-131351688D01*
X179561885Y-131338838D01*
X179536107Y-131323388D01*
X179511967Y-131305484D01*
X179489699Y-131285301D01*
X179469516Y-131263033D01*
X179451612Y-131238893D01*
X179436162Y-131213115D01*
X179423312Y-131185947D01*
X179413187Y-131157650D01*
X179405885Y-131128496D01*
X179401475Y-131098768D01*
X179400000Y-131068750D01*
X179400000Y-129931250D01*
X179401475Y-129901232D01*
X179405885Y-129871504D01*
X179413187Y-129842350D01*
X179423312Y-129814053D01*
X179436162Y-129786885D01*
X179451612Y-129761107D01*
X179469516Y-129736967D01*
X179489699Y-129714699D01*
X179511967Y-129694516D01*
X179536107Y-129676612D01*
X179561885Y-129661162D01*
X179589053Y-129648312D01*
X179617350Y-129638187D01*
X179646504Y-129630885D01*
X179676232Y-129626475D01*
X179706250Y-129625000D01*
X180893750Y-129625000D01*
X180923768Y-129626475D01*
X180923768Y-129626475D01*
G37*
D12*
X180300000Y-130500000D03*
D11*
G36*
X178323768Y-129626475D02*
G01*
X178353496Y-129630885D01*
X178382650Y-129638187D01*
X178410947Y-129648312D01*
X178438115Y-129661162D01*
X178463893Y-129676612D01*
X178488033Y-129694516D01*
X178510301Y-129714699D01*
X178530484Y-129736967D01*
X178548388Y-129761107D01*
X178563838Y-129786885D01*
X178576688Y-129814053D01*
X178586813Y-129842350D01*
X178594115Y-129871504D01*
X178598525Y-129901232D01*
X178600000Y-129931250D01*
X178600000Y-131068750D01*
X178598525Y-131098768D01*
X178594115Y-131128496D01*
X178586813Y-131157650D01*
X178576688Y-131185947D01*
X178563838Y-131213115D01*
X178548388Y-131238893D01*
X178530484Y-131263033D01*
X178510301Y-131285301D01*
X178488033Y-131305484D01*
X178463893Y-131323388D01*
X178438115Y-131338838D01*
X178410947Y-131351688D01*
X178382650Y-131361813D01*
X178353496Y-131369115D01*
X178323768Y-131373525D01*
X178293750Y-131375000D01*
X177106250Y-131375000D01*
X177076232Y-131373525D01*
X177046504Y-131369115D01*
X177017350Y-131361813D01*
X176989053Y-131351688D01*
X176961885Y-131338838D01*
X176936107Y-131323388D01*
X176911967Y-131305484D01*
X176889699Y-131285301D01*
X176869516Y-131263033D01*
X176851612Y-131238893D01*
X176836162Y-131213115D01*
X176823312Y-131185947D01*
X176813187Y-131157650D01*
X176805885Y-131128496D01*
X176801475Y-131098768D01*
X176800000Y-131068750D01*
X176800000Y-129931250D01*
X176801475Y-129901232D01*
X176805885Y-129871504D01*
X176813187Y-129842350D01*
X176823312Y-129814053D01*
X176836162Y-129786885D01*
X176851612Y-129761107D01*
X176869516Y-129736967D01*
X176889699Y-129714699D01*
X176911967Y-129694516D01*
X176936107Y-129676612D01*
X176961885Y-129661162D01*
X176989053Y-129648312D01*
X177017350Y-129638187D01*
X177046504Y-129630885D01*
X177076232Y-129626475D01*
X177106250Y-129625000D01*
X178293750Y-129625000D01*
X178323768Y-129626475D01*
X178323768Y-129626475D01*
G37*
D12*
X177700000Y-130500000D03*
D11*
G36*
X134598768Y-137501475D02*
G01*
X134628496Y-137505885D01*
X134657650Y-137513187D01*
X134685947Y-137523312D01*
X134713115Y-137536162D01*
X134738893Y-137551612D01*
X134763033Y-137569516D01*
X134785301Y-137589699D01*
X134805484Y-137611967D01*
X134823388Y-137636107D01*
X134838838Y-137661885D01*
X134851688Y-137689053D01*
X134861813Y-137717350D01*
X134869115Y-137746504D01*
X134873525Y-137776232D01*
X134875000Y-137806250D01*
X134875000Y-138993750D01*
X134873525Y-139023768D01*
X134869115Y-139053496D01*
X134861813Y-139082650D01*
X134851688Y-139110947D01*
X134838838Y-139138115D01*
X134823388Y-139163893D01*
X134805484Y-139188033D01*
X134785301Y-139210301D01*
X134763033Y-139230484D01*
X134738893Y-139248388D01*
X134713115Y-139263838D01*
X134685947Y-139276688D01*
X134657650Y-139286813D01*
X134628496Y-139294115D01*
X134598768Y-139298525D01*
X134568750Y-139300000D01*
X133431250Y-139300000D01*
X133401232Y-139298525D01*
X133371504Y-139294115D01*
X133342350Y-139286813D01*
X133314053Y-139276688D01*
X133286885Y-139263838D01*
X133261107Y-139248388D01*
X133236967Y-139230484D01*
X133214699Y-139210301D01*
X133194516Y-139188033D01*
X133176612Y-139163893D01*
X133161162Y-139138115D01*
X133148312Y-139110947D01*
X133138187Y-139082650D01*
X133130885Y-139053496D01*
X133126475Y-139023768D01*
X133125000Y-138993750D01*
X133125000Y-137806250D01*
X133126475Y-137776232D01*
X133130885Y-137746504D01*
X133138187Y-137717350D01*
X133148312Y-137689053D01*
X133161162Y-137661885D01*
X133176612Y-137636107D01*
X133194516Y-137611967D01*
X133214699Y-137589699D01*
X133236967Y-137569516D01*
X133261107Y-137551612D01*
X133286885Y-137536162D01*
X133314053Y-137523312D01*
X133342350Y-137513187D01*
X133371504Y-137505885D01*
X133401232Y-137501475D01*
X133431250Y-137500000D01*
X134568750Y-137500000D01*
X134598768Y-137501475D01*
X134598768Y-137501475D01*
G37*
D12*
X134000000Y-138400000D03*
D11*
G36*
X134598768Y-140101475D02*
G01*
X134628496Y-140105885D01*
X134657650Y-140113187D01*
X134685947Y-140123312D01*
X134713115Y-140136162D01*
X134738893Y-140151612D01*
X134763033Y-140169516D01*
X134785301Y-140189699D01*
X134805484Y-140211967D01*
X134823388Y-140236107D01*
X134838838Y-140261885D01*
X134851688Y-140289053D01*
X134861813Y-140317350D01*
X134869115Y-140346504D01*
X134873525Y-140376232D01*
X134875000Y-140406250D01*
X134875000Y-141593750D01*
X134873525Y-141623768D01*
X134869115Y-141653496D01*
X134861813Y-141682650D01*
X134851688Y-141710947D01*
X134838838Y-141738115D01*
X134823388Y-141763893D01*
X134805484Y-141788033D01*
X134785301Y-141810301D01*
X134763033Y-141830484D01*
X134738893Y-141848388D01*
X134713115Y-141863838D01*
X134685947Y-141876688D01*
X134657650Y-141886813D01*
X134628496Y-141894115D01*
X134598768Y-141898525D01*
X134568750Y-141900000D01*
X133431250Y-141900000D01*
X133401232Y-141898525D01*
X133371504Y-141894115D01*
X133342350Y-141886813D01*
X133314053Y-141876688D01*
X133286885Y-141863838D01*
X133261107Y-141848388D01*
X133236967Y-141830484D01*
X133214699Y-141810301D01*
X133194516Y-141788033D01*
X133176612Y-141763893D01*
X133161162Y-141738115D01*
X133148312Y-141710947D01*
X133138187Y-141682650D01*
X133130885Y-141653496D01*
X133126475Y-141623768D01*
X133125000Y-141593750D01*
X133125000Y-140406250D01*
X133126475Y-140376232D01*
X133130885Y-140346504D01*
X133138187Y-140317350D01*
X133148312Y-140289053D01*
X133161162Y-140261885D01*
X133176612Y-140236107D01*
X133194516Y-140211967D01*
X133214699Y-140189699D01*
X133236967Y-140169516D01*
X133261107Y-140151612D01*
X133286885Y-140136162D01*
X133314053Y-140123312D01*
X133342350Y-140113187D01*
X133371504Y-140105885D01*
X133401232Y-140101475D01*
X133431250Y-140100000D01*
X134568750Y-140100000D01*
X134598768Y-140101475D01*
X134598768Y-140101475D01*
G37*
D12*
X134000000Y-141000000D03*
D11*
G36*
X134598768Y-122301475D02*
G01*
X134628496Y-122305885D01*
X134657650Y-122313187D01*
X134685947Y-122323312D01*
X134713115Y-122336162D01*
X134738893Y-122351612D01*
X134763033Y-122369516D01*
X134785301Y-122389699D01*
X134805484Y-122411967D01*
X134823388Y-122436107D01*
X134838838Y-122461885D01*
X134851688Y-122489053D01*
X134861813Y-122517350D01*
X134869115Y-122546504D01*
X134873525Y-122576232D01*
X134875000Y-122606250D01*
X134875000Y-123793750D01*
X134873525Y-123823768D01*
X134869115Y-123853496D01*
X134861813Y-123882650D01*
X134851688Y-123910947D01*
X134838838Y-123938115D01*
X134823388Y-123963893D01*
X134805484Y-123988033D01*
X134785301Y-124010301D01*
X134763033Y-124030484D01*
X134738893Y-124048388D01*
X134713115Y-124063838D01*
X134685947Y-124076688D01*
X134657650Y-124086813D01*
X134628496Y-124094115D01*
X134598768Y-124098525D01*
X134568750Y-124100000D01*
X133431250Y-124100000D01*
X133401232Y-124098525D01*
X133371504Y-124094115D01*
X133342350Y-124086813D01*
X133314053Y-124076688D01*
X133286885Y-124063838D01*
X133261107Y-124048388D01*
X133236967Y-124030484D01*
X133214699Y-124010301D01*
X133194516Y-123988033D01*
X133176612Y-123963893D01*
X133161162Y-123938115D01*
X133148312Y-123910947D01*
X133138187Y-123882650D01*
X133130885Y-123853496D01*
X133126475Y-123823768D01*
X133125000Y-123793750D01*
X133125000Y-122606250D01*
X133126475Y-122576232D01*
X133130885Y-122546504D01*
X133138187Y-122517350D01*
X133148312Y-122489053D01*
X133161162Y-122461885D01*
X133176612Y-122436107D01*
X133194516Y-122411967D01*
X133214699Y-122389699D01*
X133236967Y-122369516D01*
X133261107Y-122351612D01*
X133286885Y-122336162D01*
X133314053Y-122323312D01*
X133342350Y-122313187D01*
X133371504Y-122305885D01*
X133401232Y-122301475D01*
X133431250Y-122300000D01*
X134568750Y-122300000D01*
X134598768Y-122301475D01*
X134598768Y-122301475D01*
G37*
D12*
X134000000Y-123200000D03*
D11*
G36*
X134598768Y-124901475D02*
G01*
X134628496Y-124905885D01*
X134657650Y-124913187D01*
X134685947Y-124923312D01*
X134713115Y-124936162D01*
X134738893Y-124951612D01*
X134763033Y-124969516D01*
X134785301Y-124989699D01*
X134805484Y-125011967D01*
X134823388Y-125036107D01*
X134838838Y-125061885D01*
X134851688Y-125089053D01*
X134861813Y-125117350D01*
X134869115Y-125146504D01*
X134873525Y-125176232D01*
X134875000Y-125206250D01*
X134875000Y-126393750D01*
X134873525Y-126423768D01*
X134869115Y-126453496D01*
X134861813Y-126482650D01*
X134851688Y-126510947D01*
X134838838Y-126538115D01*
X134823388Y-126563893D01*
X134805484Y-126588033D01*
X134785301Y-126610301D01*
X134763033Y-126630484D01*
X134738893Y-126648388D01*
X134713115Y-126663838D01*
X134685947Y-126676688D01*
X134657650Y-126686813D01*
X134628496Y-126694115D01*
X134598768Y-126698525D01*
X134568750Y-126700000D01*
X133431250Y-126700000D01*
X133401232Y-126698525D01*
X133371504Y-126694115D01*
X133342350Y-126686813D01*
X133314053Y-126676688D01*
X133286885Y-126663838D01*
X133261107Y-126648388D01*
X133236967Y-126630484D01*
X133214699Y-126610301D01*
X133194516Y-126588033D01*
X133176612Y-126563893D01*
X133161162Y-126538115D01*
X133148312Y-126510947D01*
X133138187Y-126482650D01*
X133130885Y-126453496D01*
X133126475Y-126423768D01*
X133125000Y-126393750D01*
X133125000Y-125206250D01*
X133126475Y-125176232D01*
X133130885Y-125146504D01*
X133138187Y-125117350D01*
X133148312Y-125089053D01*
X133161162Y-125061885D01*
X133176612Y-125036107D01*
X133194516Y-125011967D01*
X133214699Y-124989699D01*
X133236967Y-124969516D01*
X133261107Y-124951612D01*
X133286885Y-124936162D01*
X133314053Y-124923312D01*
X133342350Y-124913187D01*
X133371504Y-124905885D01*
X133401232Y-124901475D01*
X133431250Y-124900000D01*
X134568750Y-124900000D01*
X134598768Y-124901475D01*
X134598768Y-124901475D01*
G37*
D12*
X134000000Y-125800000D03*
D11*
G36*
X113848768Y-138301475D02*
G01*
X113878496Y-138305885D01*
X113907650Y-138313187D01*
X113935947Y-138323312D01*
X113963115Y-138336162D01*
X113988893Y-138351612D01*
X114013033Y-138369516D01*
X114035301Y-138389699D01*
X114055484Y-138411967D01*
X114073388Y-138436107D01*
X114088838Y-138461885D01*
X114101688Y-138489053D01*
X114111813Y-138517350D01*
X114119115Y-138546504D01*
X114123525Y-138576232D01*
X114125000Y-138606250D01*
X114125000Y-139793750D01*
X114123525Y-139823768D01*
X114119115Y-139853496D01*
X114111813Y-139882650D01*
X114101688Y-139910947D01*
X114088838Y-139938115D01*
X114073388Y-139963893D01*
X114055484Y-139988033D01*
X114035301Y-140010301D01*
X114013033Y-140030484D01*
X113988893Y-140048388D01*
X113963115Y-140063838D01*
X113935947Y-140076688D01*
X113907650Y-140086813D01*
X113878496Y-140094115D01*
X113848768Y-140098525D01*
X113818750Y-140100000D01*
X112681250Y-140100000D01*
X112651232Y-140098525D01*
X112621504Y-140094115D01*
X112592350Y-140086813D01*
X112564053Y-140076688D01*
X112536885Y-140063838D01*
X112511107Y-140048388D01*
X112486967Y-140030484D01*
X112464699Y-140010301D01*
X112444516Y-139988033D01*
X112426612Y-139963893D01*
X112411162Y-139938115D01*
X112398312Y-139910947D01*
X112388187Y-139882650D01*
X112380885Y-139853496D01*
X112376475Y-139823768D01*
X112375000Y-139793750D01*
X112375000Y-138606250D01*
X112376475Y-138576232D01*
X112380885Y-138546504D01*
X112388187Y-138517350D01*
X112398312Y-138489053D01*
X112411162Y-138461885D01*
X112426612Y-138436107D01*
X112444516Y-138411967D01*
X112464699Y-138389699D01*
X112486967Y-138369516D01*
X112511107Y-138351612D01*
X112536885Y-138336162D01*
X112564053Y-138323312D01*
X112592350Y-138313187D01*
X112621504Y-138305885D01*
X112651232Y-138301475D01*
X112681250Y-138300000D01*
X113818750Y-138300000D01*
X113848768Y-138301475D01*
X113848768Y-138301475D01*
G37*
D12*
X113250000Y-139200000D03*
D11*
G36*
X113848768Y-140901475D02*
G01*
X113878496Y-140905885D01*
X113907650Y-140913187D01*
X113935947Y-140923312D01*
X113963115Y-140936162D01*
X113988893Y-140951612D01*
X114013033Y-140969516D01*
X114035301Y-140989699D01*
X114055484Y-141011967D01*
X114073388Y-141036107D01*
X114088838Y-141061885D01*
X114101688Y-141089053D01*
X114111813Y-141117350D01*
X114119115Y-141146504D01*
X114123525Y-141176232D01*
X114125000Y-141206250D01*
X114125000Y-142393750D01*
X114123525Y-142423768D01*
X114119115Y-142453496D01*
X114111813Y-142482650D01*
X114101688Y-142510947D01*
X114088838Y-142538115D01*
X114073388Y-142563893D01*
X114055484Y-142588033D01*
X114035301Y-142610301D01*
X114013033Y-142630484D01*
X113988893Y-142648388D01*
X113963115Y-142663838D01*
X113935947Y-142676688D01*
X113907650Y-142686813D01*
X113878496Y-142694115D01*
X113848768Y-142698525D01*
X113818750Y-142700000D01*
X112681250Y-142700000D01*
X112651232Y-142698525D01*
X112621504Y-142694115D01*
X112592350Y-142686813D01*
X112564053Y-142676688D01*
X112536885Y-142663838D01*
X112511107Y-142648388D01*
X112486967Y-142630484D01*
X112464699Y-142610301D01*
X112444516Y-142588033D01*
X112426612Y-142563893D01*
X112411162Y-142538115D01*
X112398312Y-142510947D01*
X112388187Y-142482650D01*
X112380885Y-142453496D01*
X112376475Y-142423768D01*
X112375000Y-142393750D01*
X112375000Y-141206250D01*
X112376475Y-141176232D01*
X112380885Y-141146504D01*
X112388187Y-141117350D01*
X112398312Y-141089053D01*
X112411162Y-141061885D01*
X112426612Y-141036107D01*
X112444516Y-141011967D01*
X112464699Y-140989699D01*
X112486967Y-140969516D01*
X112511107Y-140951612D01*
X112536885Y-140936162D01*
X112564053Y-140923312D01*
X112592350Y-140913187D01*
X112621504Y-140905885D01*
X112651232Y-140901475D01*
X112681250Y-140900000D01*
X113818750Y-140900000D01*
X113848768Y-140901475D01*
X113848768Y-140901475D01*
G37*
D12*
X113250000Y-141800000D03*
D11*
G36*
X113848768Y-123301475D02*
G01*
X113878496Y-123305885D01*
X113907650Y-123313187D01*
X113935947Y-123323312D01*
X113963115Y-123336162D01*
X113988893Y-123351612D01*
X114013033Y-123369516D01*
X114035301Y-123389699D01*
X114055484Y-123411967D01*
X114073388Y-123436107D01*
X114088838Y-123461885D01*
X114101688Y-123489053D01*
X114111813Y-123517350D01*
X114119115Y-123546504D01*
X114123525Y-123576232D01*
X114125000Y-123606250D01*
X114125000Y-124793750D01*
X114123525Y-124823768D01*
X114119115Y-124853496D01*
X114111813Y-124882650D01*
X114101688Y-124910947D01*
X114088838Y-124938115D01*
X114073388Y-124963893D01*
X114055484Y-124988033D01*
X114035301Y-125010301D01*
X114013033Y-125030484D01*
X113988893Y-125048388D01*
X113963115Y-125063838D01*
X113935947Y-125076688D01*
X113907650Y-125086813D01*
X113878496Y-125094115D01*
X113848768Y-125098525D01*
X113818750Y-125100000D01*
X112681250Y-125100000D01*
X112651232Y-125098525D01*
X112621504Y-125094115D01*
X112592350Y-125086813D01*
X112564053Y-125076688D01*
X112536885Y-125063838D01*
X112511107Y-125048388D01*
X112486967Y-125030484D01*
X112464699Y-125010301D01*
X112444516Y-124988033D01*
X112426612Y-124963893D01*
X112411162Y-124938115D01*
X112398312Y-124910947D01*
X112388187Y-124882650D01*
X112380885Y-124853496D01*
X112376475Y-124823768D01*
X112375000Y-124793750D01*
X112375000Y-123606250D01*
X112376475Y-123576232D01*
X112380885Y-123546504D01*
X112388187Y-123517350D01*
X112398312Y-123489053D01*
X112411162Y-123461885D01*
X112426612Y-123436107D01*
X112444516Y-123411967D01*
X112464699Y-123389699D01*
X112486967Y-123369516D01*
X112511107Y-123351612D01*
X112536885Y-123336162D01*
X112564053Y-123323312D01*
X112592350Y-123313187D01*
X112621504Y-123305885D01*
X112651232Y-123301475D01*
X112681250Y-123300000D01*
X113818750Y-123300000D01*
X113848768Y-123301475D01*
X113848768Y-123301475D01*
G37*
D12*
X113250000Y-124200000D03*
D11*
G36*
X113848768Y-125901475D02*
G01*
X113878496Y-125905885D01*
X113907650Y-125913187D01*
X113935947Y-125923312D01*
X113963115Y-125936162D01*
X113988893Y-125951612D01*
X114013033Y-125969516D01*
X114035301Y-125989699D01*
X114055484Y-126011967D01*
X114073388Y-126036107D01*
X114088838Y-126061885D01*
X114101688Y-126089053D01*
X114111813Y-126117350D01*
X114119115Y-126146504D01*
X114123525Y-126176232D01*
X114125000Y-126206250D01*
X114125000Y-127393750D01*
X114123525Y-127423768D01*
X114119115Y-127453496D01*
X114111813Y-127482650D01*
X114101688Y-127510947D01*
X114088838Y-127538115D01*
X114073388Y-127563893D01*
X114055484Y-127588033D01*
X114035301Y-127610301D01*
X114013033Y-127630484D01*
X113988893Y-127648388D01*
X113963115Y-127663838D01*
X113935947Y-127676688D01*
X113907650Y-127686813D01*
X113878496Y-127694115D01*
X113848768Y-127698525D01*
X113818750Y-127700000D01*
X112681250Y-127700000D01*
X112651232Y-127698525D01*
X112621504Y-127694115D01*
X112592350Y-127686813D01*
X112564053Y-127676688D01*
X112536885Y-127663838D01*
X112511107Y-127648388D01*
X112486967Y-127630484D01*
X112464699Y-127610301D01*
X112444516Y-127588033D01*
X112426612Y-127563893D01*
X112411162Y-127538115D01*
X112398312Y-127510947D01*
X112388187Y-127482650D01*
X112380885Y-127453496D01*
X112376475Y-127423768D01*
X112375000Y-127393750D01*
X112375000Y-126206250D01*
X112376475Y-126176232D01*
X112380885Y-126146504D01*
X112388187Y-126117350D01*
X112398312Y-126089053D01*
X112411162Y-126061885D01*
X112426612Y-126036107D01*
X112444516Y-126011967D01*
X112464699Y-125989699D01*
X112486967Y-125969516D01*
X112511107Y-125951612D01*
X112536885Y-125936162D01*
X112564053Y-125923312D01*
X112592350Y-125913187D01*
X112621504Y-125905885D01*
X112651232Y-125901475D01*
X112681250Y-125900000D01*
X113818750Y-125900000D01*
X113848768Y-125901475D01*
X113848768Y-125901475D01*
G37*
D12*
X113250000Y-126800000D03*
M02*
