G04 #@! TF.GenerationSoftware,KiCad,Pcbnew,(5.1.4)-1*
G04 #@! TF.CreationDate,2021-09-06T00:09:17-04:00*
G04 #@! TF.ProjectId,controller_power_filter,636f6e74-726f-46c6-9c65-725f706f7765,rev?*
G04 #@! TF.SameCoordinates,Original*
G04 #@! TF.FileFunction,Legend,Bot*
G04 #@! TF.FilePolarity,Positive*
%FSLAX46Y46*%
G04 Gerber Fmt 4.6, Leading zero omitted, Abs format (unit mm)*
G04 Created by KiCad (PCBNEW (5.1.4)-1) date 2021-09-06 00:09:17*
%MOMM*%
%LPD*%
G04 APERTURE LIST*
%ADD10C,0.120000*%
%ADD11C,0.150000*%
%ADD12R,2.302000X1.152000*%
%ADD13R,1.152000X1.102000*%
%ADD14C,3.102000*%
%ADD15R,3.102000X3.102000*%
%ADD16C,2.102000*%
%ADD17R,2.102000X2.102000*%
%ADD18C,3.702000*%
%ADD19C,0.100000*%
%ADD20C,1.852000*%
G04 APERTURE END LIST*
D10*
X182635000Y-138850000D02*
X182635000Y-139490000D01*
X182635000Y-141650000D02*
X182635000Y-141010000D01*
X182635000Y-139490000D02*
X183265000Y-139490000D01*
X179915000Y-138900000D02*
X179915000Y-141600000D01*
X182635000Y-123850000D02*
X182635000Y-124490000D01*
X182635000Y-126650000D02*
X182635000Y-126010000D01*
X182635000Y-124490000D02*
X183265000Y-124490000D01*
X179915000Y-123900000D02*
X179915000Y-126600000D01*
X115590000Y-139897936D02*
X115590000Y-141102064D01*
X117410000Y-139897936D02*
X117410000Y-141102064D01*
X115590000Y-124697936D02*
X115590000Y-125902064D01*
X117410000Y-124697936D02*
X117410000Y-125902064D01*
D11*
X181608333Y-136502380D02*
X181608333Y-137216666D01*
X181655952Y-137359523D01*
X181751190Y-137454761D01*
X181894047Y-137502380D01*
X181989285Y-137502380D01*
X180703571Y-136835714D02*
X180703571Y-137502380D01*
X180941666Y-136454761D02*
X181179761Y-137169047D01*
X180560714Y-137169047D01*
X181608333Y-121502380D02*
X181608333Y-122216666D01*
X181655952Y-122359523D01*
X181751190Y-122454761D01*
X181894047Y-122502380D01*
X181989285Y-122502380D01*
X181227380Y-121502380D02*
X180608333Y-121502380D01*
X180941666Y-121883333D01*
X180798809Y-121883333D01*
X180703571Y-121930952D01*
X180655952Y-121978571D01*
X180608333Y-122073809D01*
X180608333Y-122311904D01*
X180655952Y-122407142D01*
X180703571Y-122454761D01*
X180798809Y-122502380D01*
X181084523Y-122502380D01*
X181179761Y-122454761D01*
X181227380Y-122407142D01*
X115037142Y-140333333D02*
X115084761Y-140285714D01*
X115132380Y-140142857D01*
X115132380Y-140047619D01*
X115084761Y-139904761D01*
X114989523Y-139809523D01*
X114894285Y-139761904D01*
X114703809Y-139714285D01*
X114560952Y-139714285D01*
X114370476Y-139761904D01*
X114275238Y-139809523D01*
X114180000Y-139904761D01*
X114132380Y-140047619D01*
X114132380Y-140142857D01*
X114180000Y-140285714D01*
X114227619Y-140333333D01*
X114132380Y-141190476D02*
X114132380Y-141000000D01*
X114180000Y-140904761D01*
X114227619Y-140857142D01*
X114370476Y-140761904D01*
X114560952Y-140714285D01*
X114941904Y-140714285D01*
X115037142Y-140761904D01*
X115084761Y-140809523D01*
X115132380Y-140904761D01*
X115132380Y-141095238D01*
X115084761Y-141190476D01*
X115037142Y-141238095D01*
X114941904Y-141285714D01*
X114703809Y-141285714D01*
X114608571Y-141238095D01*
X114560952Y-141190476D01*
X114513333Y-141095238D01*
X114513333Y-140904761D01*
X114560952Y-140809523D01*
X114608571Y-140761904D01*
X114703809Y-140714285D01*
X115037142Y-125133333D02*
X115084761Y-125085714D01*
X115132380Y-124942857D01*
X115132380Y-124847619D01*
X115084761Y-124704761D01*
X114989523Y-124609523D01*
X114894285Y-124561904D01*
X114703809Y-124514285D01*
X114560952Y-124514285D01*
X114370476Y-124561904D01*
X114275238Y-124609523D01*
X114180000Y-124704761D01*
X114132380Y-124847619D01*
X114132380Y-124942857D01*
X114180000Y-125085714D01*
X114227619Y-125133333D01*
X114132380Y-126038095D02*
X114132380Y-125561904D01*
X114608571Y-125514285D01*
X114560952Y-125561904D01*
X114513333Y-125657142D01*
X114513333Y-125895238D01*
X114560952Y-125990476D01*
X114608571Y-126038095D01*
X114703809Y-126085714D01*
X114941904Y-126085714D01*
X115037142Y-126038095D01*
X115084761Y-125990476D01*
X115132380Y-125895238D01*
X115132380Y-125657142D01*
X115084761Y-125561904D01*
X115037142Y-125514285D01*
%LPC*%
D12*
X181275000Y-138775000D03*
D13*
X182800000Y-140250000D03*
D12*
X181275000Y-141725000D03*
X181275000Y-123775000D03*
D13*
X182800000Y-125250000D03*
D12*
X181275000Y-126725000D03*
D14*
X185750000Y-140160000D03*
D15*
X185750000Y-124920000D03*
D14*
X185750000Y-135080000D03*
X185750000Y-130000000D03*
D16*
X119700000Y-146500000D03*
X127300000Y-146500000D03*
D17*
X119700000Y-136500000D03*
D16*
X127300000Y-136500000D03*
X116000000Y-146500000D03*
X131000000Y-146500000D03*
D17*
X116000000Y-136500000D03*
D16*
X131000000Y-136500000D03*
X128500000Y-146500000D03*
X118500000Y-146500000D03*
X128500000Y-136500000D03*
D17*
X118500000Y-136500000D03*
D16*
X119700000Y-128500000D03*
X127300000Y-128500000D03*
D17*
X119700000Y-118500000D03*
D16*
X127300000Y-118500000D03*
X116000000Y-128500000D03*
X131000000Y-128500000D03*
D17*
X116000000Y-118500000D03*
D16*
X131000000Y-118500000D03*
X128500000Y-128500000D03*
X118500000Y-128500000D03*
X128500000Y-118500000D03*
D17*
X118500000Y-118500000D03*
D14*
X97000000Y-140240000D03*
D15*
X97000000Y-125000000D03*
D14*
X97000000Y-135160000D03*
X97000000Y-130080000D03*
D18*
X146750000Y-145000000D03*
X146750000Y-137380000D03*
X146750000Y-120000000D03*
X146750000Y-127620000D03*
D17*
X164000000Y-139000000D03*
D16*
X164000000Y-144000000D03*
D17*
X165250000Y-140250000D03*
D16*
X162750000Y-142750000D03*
D17*
X164000000Y-121000000D03*
D16*
X164000000Y-126000000D03*
D17*
X165250000Y-122250000D03*
D16*
X162750000Y-124750000D03*
D17*
X176000000Y-139000000D03*
D16*
X176000000Y-144000000D03*
D17*
X177250000Y-140250000D03*
D16*
X174750000Y-142750000D03*
D17*
X176250000Y-121000000D03*
D16*
X176250000Y-126000000D03*
D17*
X177500000Y-122250000D03*
D16*
X175000000Y-124750000D03*
D19*
G36*
X117133667Y-138250561D02*
G01*
X117165129Y-138255227D01*
X117195981Y-138262956D01*
X117225928Y-138273671D01*
X117254680Y-138287269D01*
X117281960Y-138303621D01*
X117307507Y-138322567D01*
X117331073Y-138343927D01*
X117352433Y-138367493D01*
X117371379Y-138393040D01*
X117387731Y-138420320D01*
X117401329Y-138449072D01*
X117412044Y-138479019D01*
X117419773Y-138509871D01*
X117424439Y-138541333D01*
X117426000Y-138573100D01*
X117426000Y-139826900D01*
X117424439Y-139858667D01*
X117419773Y-139890129D01*
X117412044Y-139920981D01*
X117401329Y-139950928D01*
X117387731Y-139979680D01*
X117371379Y-140006960D01*
X117352433Y-140032507D01*
X117331073Y-140056073D01*
X117307507Y-140077433D01*
X117281960Y-140096379D01*
X117254680Y-140112731D01*
X117225928Y-140126329D01*
X117195981Y-140137044D01*
X117165129Y-140144773D01*
X117133667Y-140149439D01*
X117101900Y-140151000D01*
X115898100Y-140151000D01*
X115866333Y-140149439D01*
X115834871Y-140144773D01*
X115804019Y-140137044D01*
X115774072Y-140126329D01*
X115745320Y-140112731D01*
X115718040Y-140096379D01*
X115692493Y-140077433D01*
X115668927Y-140056073D01*
X115647567Y-140032507D01*
X115628621Y-140006960D01*
X115612269Y-139979680D01*
X115598671Y-139950928D01*
X115587956Y-139920981D01*
X115580227Y-139890129D01*
X115575561Y-139858667D01*
X115574000Y-139826900D01*
X115574000Y-138573100D01*
X115575561Y-138541333D01*
X115580227Y-138509871D01*
X115587956Y-138479019D01*
X115598671Y-138449072D01*
X115612269Y-138420320D01*
X115628621Y-138393040D01*
X115647567Y-138367493D01*
X115668927Y-138343927D01*
X115692493Y-138322567D01*
X115718040Y-138303621D01*
X115745320Y-138287269D01*
X115774072Y-138273671D01*
X115804019Y-138262956D01*
X115834871Y-138255227D01*
X115866333Y-138250561D01*
X115898100Y-138249000D01*
X117101900Y-138249000D01*
X117133667Y-138250561D01*
X117133667Y-138250561D01*
G37*
D20*
X116500000Y-139200000D03*
D19*
G36*
X117133667Y-140850561D02*
G01*
X117165129Y-140855227D01*
X117195981Y-140862956D01*
X117225928Y-140873671D01*
X117254680Y-140887269D01*
X117281960Y-140903621D01*
X117307507Y-140922567D01*
X117331073Y-140943927D01*
X117352433Y-140967493D01*
X117371379Y-140993040D01*
X117387731Y-141020320D01*
X117401329Y-141049072D01*
X117412044Y-141079019D01*
X117419773Y-141109871D01*
X117424439Y-141141333D01*
X117426000Y-141173100D01*
X117426000Y-142426900D01*
X117424439Y-142458667D01*
X117419773Y-142490129D01*
X117412044Y-142520981D01*
X117401329Y-142550928D01*
X117387731Y-142579680D01*
X117371379Y-142606960D01*
X117352433Y-142632507D01*
X117331073Y-142656073D01*
X117307507Y-142677433D01*
X117281960Y-142696379D01*
X117254680Y-142712731D01*
X117225928Y-142726329D01*
X117195981Y-142737044D01*
X117165129Y-142744773D01*
X117133667Y-142749439D01*
X117101900Y-142751000D01*
X115898100Y-142751000D01*
X115866333Y-142749439D01*
X115834871Y-142744773D01*
X115804019Y-142737044D01*
X115774072Y-142726329D01*
X115745320Y-142712731D01*
X115718040Y-142696379D01*
X115692493Y-142677433D01*
X115668927Y-142656073D01*
X115647567Y-142632507D01*
X115628621Y-142606960D01*
X115612269Y-142579680D01*
X115598671Y-142550928D01*
X115587956Y-142520981D01*
X115580227Y-142490129D01*
X115575561Y-142458667D01*
X115574000Y-142426900D01*
X115574000Y-141173100D01*
X115575561Y-141141333D01*
X115580227Y-141109871D01*
X115587956Y-141079019D01*
X115598671Y-141049072D01*
X115612269Y-141020320D01*
X115628621Y-140993040D01*
X115647567Y-140967493D01*
X115668927Y-140943927D01*
X115692493Y-140922567D01*
X115718040Y-140903621D01*
X115745320Y-140887269D01*
X115774072Y-140873671D01*
X115804019Y-140862956D01*
X115834871Y-140855227D01*
X115866333Y-140850561D01*
X115898100Y-140849000D01*
X117101900Y-140849000D01*
X117133667Y-140850561D01*
X117133667Y-140850561D01*
G37*
D20*
X116500000Y-141800000D03*
D19*
G36*
X117133667Y-123050561D02*
G01*
X117165129Y-123055227D01*
X117195981Y-123062956D01*
X117225928Y-123073671D01*
X117254680Y-123087269D01*
X117281960Y-123103621D01*
X117307507Y-123122567D01*
X117331073Y-123143927D01*
X117352433Y-123167493D01*
X117371379Y-123193040D01*
X117387731Y-123220320D01*
X117401329Y-123249072D01*
X117412044Y-123279019D01*
X117419773Y-123309871D01*
X117424439Y-123341333D01*
X117426000Y-123373100D01*
X117426000Y-124626900D01*
X117424439Y-124658667D01*
X117419773Y-124690129D01*
X117412044Y-124720981D01*
X117401329Y-124750928D01*
X117387731Y-124779680D01*
X117371379Y-124806960D01*
X117352433Y-124832507D01*
X117331073Y-124856073D01*
X117307507Y-124877433D01*
X117281960Y-124896379D01*
X117254680Y-124912731D01*
X117225928Y-124926329D01*
X117195981Y-124937044D01*
X117165129Y-124944773D01*
X117133667Y-124949439D01*
X117101900Y-124951000D01*
X115898100Y-124951000D01*
X115866333Y-124949439D01*
X115834871Y-124944773D01*
X115804019Y-124937044D01*
X115774072Y-124926329D01*
X115745320Y-124912731D01*
X115718040Y-124896379D01*
X115692493Y-124877433D01*
X115668927Y-124856073D01*
X115647567Y-124832507D01*
X115628621Y-124806960D01*
X115612269Y-124779680D01*
X115598671Y-124750928D01*
X115587956Y-124720981D01*
X115580227Y-124690129D01*
X115575561Y-124658667D01*
X115574000Y-124626900D01*
X115574000Y-123373100D01*
X115575561Y-123341333D01*
X115580227Y-123309871D01*
X115587956Y-123279019D01*
X115598671Y-123249072D01*
X115612269Y-123220320D01*
X115628621Y-123193040D01*
X115647567Y-123167493D01*
X115668927Y-123143927D01*
X115692493Y-123122567D01*
X115718040Y-123103621D01*
X115745320Y-123087269D01*
X115774072Y-123073671D01*
X115804019Y-123062956D01*
X115834871Y-123055227D01*
X115866333Y-123050561D01*
X115898100Y-123049000D01*
X117101900Y-123049000D01*
X117133667Y-123050561D01*
X117133667Y-123050561D01*
G37*
D20*
X116500000Y-124000000D03*
D19*
G36*
X117133667Y-125650561D02*
G01*
X117165129Y-125655227D01*
X117195981Y-125662956D01*
X117225928Y-125673671D01*
X117254680Y-125687269D01*
X117281960Y-125703621D01*
X117307507Y-125722567D01*
X117331073Y-125743927D01*
X117352433Y-125767493D01*
X117371379Y-125793040D01*
X117387731Y-125820320D01*
X117401329Y-125849072D01*
X117412044Y-125879019D01*
X117419773Y-125909871D01*
X117424439Y-125941333D01*
X117426000Y-125973100D01*
X117426000Y-127226900D01*
X117424439Y-127258667D01*
X117419773Y-127290129D01*
X117412044Y-127320981D01*
X117401329Y-127350928D01*
X117387731Y-127379680D01*
X117371379Y-127406960D01*
X117352433Y-127432507D01*
X117331073Y-127456073D01*
X117307507Y-127477433D01*
X117281960Y-127496379D01*
X117254680Y-127512731D01*
X117225928Y-127526329D01*
X117195981Y-127537044D01*
X117165129Y-127544773D01*
X117133667Y-127549439D01*
X117101900Y-127551000D01*
X115898100Y-127551000D01*
X115866333Y-127549439D01*
X115834871Y-127544773D01*
X115804019Y-127537044D01*
X115774072Y-127526329D01*
X115745320Y-127512731D01*
X115718040Y-127496379D01*
X115692493Y-127477433D01*
X115668927Y-127456073D01*
X115647567Y-127432507D01*
X115628621Y-127406960D01*
X115612269Y-127379680D01*
X115598671Y-127350928D01*
X115587956Y-127320981D01*
X115580227Y-127290129D01*
X115575561Y-127258667D01*
X115574000Y-127226900D01*
X115574000Y-125973100D01*
X115575561Y-125941333D01*
X115580227Y-125909871D01*
X115587956Y-125879019D01*
X115598671Y-125849072D01*
X115612269Y-125820320D01*
X115628621Y-125793040D01*
X115647567Y-125767493D01*
X115668927Y-125743927D01*
X115692493Y-125722567D01*
X115718040Y-125703621D01*
X115745320Y-125687269D01*
X115774072Y-125673671D01*
X115804019Y-125662956D01*
X115834871Y-125655227D01*
X115866333Y-125650561D01*
X115898100Y-125649000D01*
X117101900Y-125649000D01*
X117133667Y-125650561D01*
X117133667Y-125650561D01*
G37*
D20*
X116500000Y-126600000D03*
D17*
X106500000Y-140000000D03*
D16*
X106500000Y-145000000D03*
D17*
X107750000Y-141250000D03*
D16*
X105250000Y-143750000D03*
D17*
X106500000Y-120500000D03*
D16*
X106500000Y-125500000D03*
D17*
X107750000Y-121750000D03*
D16*
X105250000Y-124250000D03*
M02*
